<svg xmlns="http://www.w3.org/2000/svg" version="1.1" viewBox="0 0 1600 312">
<path transform="translate(0)" d="m0 0h1600v312h-1600v-312z" fill="transparent"/>
<path transform="translate(0)" d="m0 0h1600v312h-1600v-312zm21 28c-0.444 2.04-0.444 2.04-0.369 4.32-0.00597 0.887-0.0119 1.77-0.0181 2.69 0.00874 0.976 0.0175 1.95 0.0265 2.96-0.00256 1.04-0.00513 2.07-0.00777 3.14-0.00496 3.49 0.0116 6.97 0.028 10.5 8.46e-4 2.49 3.72e-4 4.99-0.00133 7.48-6.84e-4 5.38 0.00785 10.8 0.0247 16.1 0.0244 7.77 0.0322 15.5 0.036 23.3 0.00657 12.6 0.0265 25.2 0.0549 37.8 0.0275 12.3 0.0488 24.5 0.0615 36.8 7.88e-4 0.755 0.00158 1.51 0.00239 2.29 0.00392 3.79 0.00771 7.57 0.0114 11.4 0.0311 31.4 0.0842 62.9 0.151 94.3 2.33 1.17 3.68 1.13 6.27 1.13 0.905 0.00246 1.81 0.00492 2.74 0.00745 1.51-0.00359 1.51-0.00359 3.04-0.00724 1.07 0.0014 2.13 0.0028 3.23 0.00425 3.62 0.00352 7.24-1.76e-4 10.9-0.00376 2.61 0.00104 5.22 0.00252 7.84 0.0044 5.72 0.0034 11.4 0.00305 17.2 3.16e-4 8.57-0.00408 17.1-0.00242 25.7 3.83e-4 14.6 0.00461 29.2 0.00444 43.8 0.00172 14.8-0.00275 29.6-0.00333 44.4-0.00126 0.933 1.29e-4 1.87 2.58e-4 2.83 3.91e-4 3.8 5.33e-4 7.6 0.00108 11.4 0.00165 35.4 0.0053 70.9 0.00565 106 0.00285 1.58-1.24e-4 1.58-1.24e-4 3.19-2.51e-4 1.05-8.29e-5 2.11-1.66e-4 3.19-2.51e-4 32-0.00252 64.1-0.00318 96.1-0.00198 2.14 7.75e-5 4.29 1.55e-4 6.43 2.31e-4 8.61 3.1e-4 17.2 6.29e-4 25.8 9.6e-4 24.1 9.17e-4 48.2 0.00149 72.2 0.00179 1.1 1.36e-5 2.19 2.73e-5 3.32 4.14e-5 35 4.09e-4 69.9-7.19e-4 105-0.00289 1.13-7.02e-5 2.27-1.4e-4 3.44-2.13e-4 18.4-0.00115 36.9-0.00236 55.3-0.00359 73.1-0.00486 146-0.00463 219 2.31e-4 18.4 0.00122 36.8 0.00243 55.2 0.00357 1.13 7.04e-5 2.27 1.41e-4 3.43 2.13e-4 34.9 0.00216 69.8 0.00307 105 0.00264 1.1-1.36e-5 2.19-2.72e-5 3.32-4.12e-5 24.1-3.12e-4 48.1-9.46e-4 72.2-0.00187 8.61-3.29e-4 17.2-6.42e-4 25.8-9.51e-4 2.14-7.74e-5 4.28-1.56e-4 6.43-2.36e-4 32-0.00119 64.1-1.76e-4 96.1 0.00235 1.05 8.28e-5 2.1 1.66e-4 3.18 2.51e-4 1.05 8.27e-5 2.1 1.65e-4 3.18 2.51e-4 35.4 0.00276 70.7 0.00175 106-0.00353 3.79-5.52e-4 7.59-0.00109 11.4-0.00161 1.4-1.95e-4 1.4-1.95e-4 2.82-3.95e-4 14.8-0.00197 29.5-5.97e-4 44.3 0.00216 14.5 0.00264 29 0.00172 43.5-0.00301 8.51-0.00267 17-0.0026 25.5 0.00148 6.31 0.00272 12.6 2.64e-4 18.9-0.00426 2.54-0.00101 5.09-3.31e-4 7.63 0.00221 3.44 0.00319 6.89 2.49e-4 10.3-0.00424 0.985 0.00239 1.97 0.00478 2.98 0.00724 6.08-0.0162 12-0.413 18.1-1.13 0.0228-32.5 0.0405-64.9 0.0511-97.4 0.00125-3.83 0.00255-7.66 0.00387-11.5 2.62e-4 -0.762 5.25e-4 -1.52 7.95e-4 -2.31 0.00436-12.4 0.0122-24.7 0.0214-37.1 0.00934-12.7 0.0149-25.3 0.0169-38 0.00138-7.83 0.00573-15.7 0.0138-23.5 0.00589-5.99 0.00654-12 0.00519-18 2.77e-4 -2.47 0.00228-4.93 0.0061-7.4 0.00493-3.35 0.0038-6.7 0.00105-10 0.00291-0.989 0.00583-1.98 0.00883-3-0.00199-0.89-0.00398-1.78-0.00603-2.7 3.8e-4 -0.774 7.59e-4 -1.55 0.00115-2.35 0.0671-1.79 0.0671-1.79-1.12-2.76-1.39-0.0975-2.78-0.126-4.17-0.126-0.908-0.00267-1.82-0.00534-2.75-0.00809-1.52 0.00323-1.52 0.00323-3.07 0.00653-1.61-0.00248-1.61-0.00248-3.24-5e-3 -3.64-0.00437-7.28-0.00151-10.9 0.00123-2.63-0.00165-5.25-0.00373-7.88-0.00622-5.76-0.00473-11.5-0.00569-17.3-0.00427-8.62 0.00211-17.2-0.00148-25.9-0.00621-14.7-0.00789-29.4-0.011-44.1-0.0114-14.9-5.02e-4 -29.8-0.00314-44.7-0.00841-0.939-3.3e-4 -1.88-6.6e-4 -2.85-1e-3 -3.82-0.00135-7.65-0.00271-11.5-0.00409-45.3-0.0163-90.6-0.0227-136-0.0274-22.6-0.00238-45.1-0.00608-67.7-0.01-72.3-0.0127-145-0.0234-217-0.0268-3.46-1.62e-4 -6.92-3.28e-4 -10.4-4.94e-4 -6.94-3.34e-4 -13.9-6.64e-4 -20.8-9.95e-4 -8.12-3.87e-4 -16.2-7.77e-4 -24.4-0.00117-2.32-1.12e-4 -4.65-2.24e-4 -6.97-3.34e-4 -74.7-0.00355-149-0.0186-224-0.0419-53.6-0.0167-107-0.0322-161-0.0367-1.1-9.35e-5 -2.2-1.87e-4 -3.34-2.83e-4 -24.2-0.00202-48.4-0.00318-72.6-0.00353-8.66-1.36e-4 -17.3-3.45e-4 -26-5.93e-4 -2.15-6.16e-5 -4.31-1.2e-4 -6.46-1.75e-4 -34.4-9.21e-4 -68.7-0.0109-103-0.0255-34.6-0.0146-69.2-0.0197-104-0.0116-4.77 0.00112-9.55 0.00213-14.3 0.00307-1.4 2.85e-4 -1.4 2.85e-4 -2.84 5.76e-4 -14.9 0.00274-29.7-0.00463-44.6-0.0161-14.6-0.0111-29.2-0.0116-43.8-6.3e-4 -8.57 0.00613-17.1 0.00393-25.7-0.0103-5.68-0.00859-11.4-0.00645-17 0.0047-3.23 0.00603-6.45 0.00559-9.68-0.00468-3.46-0.0103-6.91-0.00244-10.4 0.0103-1.01-0.00741-2.02-0.0148-3.05-0.0224-1.37 0.0107-1.37 0.0107-2.77 0.0217-0.788-1e-4 -1.58-2e-4 -2.39-3.03e-4 -2.56 0.472-3.45 1.34-5.04 3.37z" fill="red"/>
<path transform="translate(0)" d="m0 0h1600v312h-11v-1h9c-0.0273-0.851-0.0547-1.7-0.0829-2.58-0.761-24.1-1.22-48.2-1.48-72.3-0.0103-0.93-0.0207-1.86-0.0313-2.82-0.383-34.5-0.514-69-0.529-103-0.00258-4.63-0.00791-9.27-0.0138-13.9-0.0212-38.3 0.573-76.6 1.14-115h-1596c-0.33 0.99-0.66 1.98-1 3v-4z" fill="red"/>
</svg>