<?xml version="1.0" encoding="utf-8"?>
<!-- Generator: Adobe Illustrator 14.0.0, SVG Export Plug-In . SVG Version: 6.00 Build 43363)  -->
<!DOCTYPE svg PUBLIC "-//W3C//DTD SVG 1.1//EN" "http://www.w3.org/Graphics/SVG/1.1/DTD/svg11.dtd">
<svg version="1.1" id="Layer_1" xmlns="http://www.w3.org/2000/svg" xmlns:xlink="http://www.w3.org/1999/xlink" x="0px" y="0px"
	 width="612px" height="792px" viewBox="0 0 612 792" style="enable-background:new 0 0 612 792;" xml:space="preserve">
<style type="text/css">
<![CDATA[
	.st0{clip-path:url(#SVGID_6_);fill:#009245;}
	.st1{opacity:0;clip-path:url(#SVGID_4_);fill:#FFFFFF;}
	.st2{clip-path:url(#SVGID_2_);}
	.st3{clip-path:url(#SVGID_4_);}
	.st4{clip-path:url(#SVGID_8_);fill:#E21E79;}
]]>
</style>
<g>
	<defs>
		<rect id="SVGID_1_" width="612" height="792"/>
	</defs>
	<clipPath id="SVGID_2_">
		<use xlink:href="#SVGID_1_"  style="overflow:visible;"/>
	</clipPath>
	<g class="st2">
		<defs>
			<rect id="SVGID_3_" width="612" height="792"/>
		</defs>
		<clipPath id="SVGID_4_">
			<use xlink:href="#SVGID_3_"  style="overflow:visible;"/>
		</clipPath>
		<rect class="st1" width="612" height="792"/>
		<g class="st3">
			<defs>
				
					<rect id="SVGID_5_" x="10.125" y="-4.35" transform="matrix(-0.8387 0.5446 -0.5446 -0.8387 110.0901 37.4398)" width="78.75" height="78.75"/>
			</defs>
			<clipPath id="SVGID_6_">
				<use xlink:href="#SVGID_5_"  style="overflow:visible;"/>
			</clipPath>
			<path class="st0" d="M81.633,59.19c-6.745,4.38-15.585,3.194-19.63-2.493l3.867-2.511l11.785,1.938l0.403-1.541l-10.213-1.681
				l10.035-6.517l4.583,0.754l0.402-1.541l-3.012-0.496l9.789-6.357l-0.876-1.35l-9.625,6.25l0.772-2.953l-1.572-0.259l-1.175,4.494
				l-10.036,6.518l2.619-10.014l-1.572-0.259l-3.022,11.555l-3.948,2.564c-0.258-0.578-0.566-1.231-0.824-1.81
				c-1.767-5.78,0.948-12.767,6.789-16.56c6.005-3.9,22.705-1.956,26.667-1.438C92.654,39.243,87.638,55.291,81.633,59.19z
				 M18.228,55.922c-6.524-10.045,0.104-40.358,1.383-45.771c5.466,1.033,35.854,7.305,42.378,17.351
				c1.704,2.624,2.784,5.547,3.355,8.587c-5.679,4.221-8.229,11.099-6.758,16.966c0.049,0.075,0.015,0.203,0.064,0.278
				c0.063,0.279,0.176,0.632,0.239,0.91c0.112,0.354,0.225,0.706,0.42,1.007c0.161,0.429,0.404,0.803,0.566,1.231
				c-1.652,2.138-3.547,3.902-5.637,5.366l-4.528-6.972l5.371-20.542l-1.572-0.259l-4.968,19.003L37.294,35.758l2.148-8.217
				l-1.572-0.258l-1.711,6.548L25.302,17.113l-1.481,0.961l10.857,16.718l-6.809-1.121l-0.403,1.542l8.381,1.379l11.295,17.393
				L27.811,50.87l-0.403,1.541l20.951,3.448l4.528,6.972C41.045,69.988,25.384,66.942,18.228,55.922z M95.063,33.948
				c-0.917-0.151-20.446-3.029-28.19,1.253c-0.62-3.115-1.748-6.112-3.403-8.662C55.971,14.994,20.701,8.589,19.261,8.352
				l-0.786-0.129l-0.284,0.824c-0.451,1.466-8.942,36.292-1.444,47.837c7.741,11.92,25.007,15.096,37.675,6.869
				c2.385-1.549,4.609-3.527,6.426-5.772c4.632,6.052,14.341,7.314,21.662,2.56c7.32-4.754,12.951-24.719,13.186-25.617l0.201-0.771
				L95.063,33.948z"/>
		</g>
		<g class="st3">
			<defs>
				
					<rect id="SVGID_7_" x="509.775" y="699.75" transform="matrix(-0.9744 -0.225 0.225 -0.9744 921.9124 1581.0391)" width="82.5" height="76.5"/>
			</defs>
			<clipPath id="SVGID_8_">
				<use xlink:href="#SVGID_7_"  style="overflow:visible;"/>
			</clipPath>
			<path class="st4" d="M577.825,781.2c0.635,0.146,0.96,0.671,0.813,1.31s-0.669,0.966-1.304,0.819l-6.347-1.464
				c-0.635-0.147-0.961-0.67-0.813-1.309s0.67-0.968,1.305-0.821L577.825,781.2z M577.028,717.081
				c0.635,0.146,0.959,0.671,0.812,1.31s-0.669,0.968-1.303,0.821c-0.635-0.146-0.959-0.67-0.812-1.31
				C575.873,717.264,576.395,716.935,577.028,717.081z M571.74,715.86c0.634,0.146,0.959,0.671,0.812,1.31
				c-0.147,0.64-0.67,0.968-1.304,0.821c-0.635-0.146-0.96-0.67-0.813-1.31C570.583,716.043,571.104,715.714,571.74,715.86z
				 M562.219,713.663c1.481,0.342,1.969,1.128,1.624,2.618c-0.344,1.491-1.126,1.984-2.607,1.643
				c-1.48-0.342-1.969-1.128-1.624-2.619C559.955,713.814,560.739,713.321,562.219,713.663z M543.751,759.876l4.23,0.977
				c1.481,0.342,1.97,1.126,1.625,2.619c-0.345,1.491-1.127,1.982-2.608,1.641l-4.23-0.977c-1.48-0.342-1.969-1.126-1.624-2.617
				C541.488,760.026,542.271,759.534,543.751,759.876z M554.813,711.954c1.481,0.342,1.969,1.128,1.625,2.618
				c-0.345,1.491-1.127,1.984-2.608,1.643c-1.48-0.342-1.968-1.128-1.624-2.619C552.551,712.105,553.333,711.612,554.813,711.954z
				 M547.409,710.245c1.481,0.342,1.969,1.128,1.624,2.619c-0.344,1.49-1.126,1.983-2.607,1.642s-1.969-1.127-1.624-2.619
				C545.146,710.396,545.928,709.903,547.409,710.245z M545.465,704.188l25.389,5.859l0.491-2.131
				c0.271-1.171-0.461-2.35-1.624-2.618l-21.156-4.883c-1.164-0.269-2.339,0.47-2.609,1.642L545.465,704.188L545.465,704.188z
				 M540.005,708.536c1.481,0.342,1.969,1.128,1.624,2.619c-0.344,1.49-1.126,1.983-2.607,1.642
				c-1.482-0.342-1.97-1.128-1.625-2.619C537.74,708.688,538.523,708.194,540.005,708.536z M531.297,707.647
				c-0.812,3.515,1.38,7.049,4.871,7.854l38.082,8.789c3.491,0.806,7.011-1.411,7.822-4.925l0.983-4.26l-50.776-11.718
				L531.297,707.647z M514.356,766.553c0.634,0.146,0.959,0.671,0.812,1.309c-0.147,0.639-0.67,0.967-1.303,0.82l-6.349-1.465
				c-0.635-0.146-0.96-0.67-0.813-1.309s0.669-0.968,1.304-0.821L514.356,766.553z M591.323,737.205
				c0.271-1.171-0.46-2.35-1.623-2.618l-71.933-16.602c-1.163-0.269-2.337,0.471-2.607,1.642l-8.851,38.338
				c-0.27,1.171,0.461,2.35,1.625,2.618l71.933,16.602c1.163,0.269,2.336-0.471,2.606-1.642L591.323,737.205L591.323,737.205z
				 M516.635,713.239c-0.27,1.171,0.461,2.349,1.625,2.617l71.933,16.601c1.163,0.269,2.336-0.47,2.606-1.641l2.458-10.649
				c0.271-1.171-0.46-2.35-1.623-2.618l-8.464-1.953l-0.983,4.26c-1.081,4.686-5.773,7.641-10.427,6.567l-38.084-8.79
				c-4.654-1.073-7.577-5.787-6.495-10.473l0.983-4.26l-8.463-1.953c-1.163-0.268-2.337,0.472-2.607,1.643L516.635,713.239z
				 M507.442,762.713c-2.327-0.537-3.789-2.894-3.248-5.236l12.783-55.375c0.541-2.344,2.888-3.821,5.216-3.284l21.156,4.883
				l0.492-2.13c0.541-2.343,2.888-3.82,5.215-3.283l21.156,4.882c2.327,0.537,3.789,2.894,3.248,5.237l-0.492,2.13l21.156,4.883
				c2.327,0.537,3.789,2.893,3.248,5.236l-12.784,55.378c-0.54,2.342-2.887,3.818-5.214,3.281L507.442,762.713z"/>
		</g>
	</g>
</g>
</svg>
