<?xml version="1.0" encoding="utf-8"?>
<!-- Generator: Adobe Illustrator 14.0.0, SVG Export Plug-In . SVG Version: 6.00 Build 43363)  -->
<!DOCTYPE svg PUBLIC "-//W3C//DTD SVG 1.1//EN" "http://www.w3.org/Graphics/SVG/1.1/DTD/svg11.dtd">
<svg version="1.1" id="Layer_1" xmlns="http://www.w3.org/2000/svg" xmlns:xlink="http://www.w3.org/1999/xlink" x="0px" y="0px"
	 width="217px" height="119.5px" viewBox="0 0 217 119.5" style="enable-background:new 0 0 217 119.5;" xml:space="preserve">
<style type="text/css">
<![CDATA[
	.st0{fill:#FFFFFF;}
	.st1{fill:#D4D4D4;}
]]>
</style>
<g>
	<polygon class="st1" points="213.25,81 213.25,81 212.25,81.25 212,81.5 212,81.5 212,81.5 212.75,81.75 214.25,82 214.25,82 
		215.5,82 217,81.75 217,81.75 214.75,81.25 213.25,81 	"/>
	<polygon class="st1" points="207.5,25.5 207.5,25.5 204.75,27 201.75,28.5 196,32 190.25,35.75 185,38.5 185,38.5 180.25,41 
		178.5,42 178.25,42.25 178.25,42.25 178.25,42.25 179.25,42 179.25,42 182.75,40.75 186.5,39 190,37 193.75,34.5 200.5,30 
		203.75,28 207,26 207,26 205,27.75 203,29.25 199,32 196.75,33.5 194.75,35 193,36.5 191.5,38.5 191.5,38.5 194.25,37.75 
		196.75,36.75 199,35.5 201,34 203.25,32.5 205.5,31.5 207.75,30.5 209,30.25 210,30.25 210,30.25 210.5,30.25 210.5,30.25 
		207.25,31.5 204.25,33 201.5,34.5 200.25,35.5 199.25,36.75 199.25,36.75 200,36.75 200,36.75 202.25,36.75 204.5,36.5 204.5,36.5 
		206.75,36 209,36 209,36 210.25,36 211.5,36.25 212.5,36.75 213.5,37.25 213.5,37.25 212,37.75 211.5,38 211,38.5 211,38.5 
		211.75,38.75 211.75,38.75 212.25,38.5 212.5,38.25 212.5,38.25 213.25,38 213.25,38 213.25,38 213.5,38.5 213.5,38.5 212.5,39 
		211.75,39 211.75,39 210.75,39 210.75,39 209.75,38.75 209.75,38.75 209,38.75 208,39 208,39 205.75,40.5 203,41.75 197,44.5 
		191.5,47 189.5,48 188,49.25 188,49.25 190,48.5 192,47.5 196,45.5 197.75,44.5 199.75,43.75 202,43.25 204,43.25 204,43.25 
		205.75,43.25 205.75,43.25 208.5,42 210.25,41.5 211.75,41.25 211.75,41.25 212.25,41.25 212.75,41.5 212.75,41.5 204.75,44.5 
		200.75,46.25 199,47.25 197.5,48.5 197.5,48.5 199.25,48 201,47 204,45.25 205.75,44.5 207.5,43.75 209.5,43.5 211.75,43.25 
		211.75,43.25 212.75,43.25 212.75,43.25 213.75,41.25 214.25,39.25 214.5,37 214.25,35.75 214,34.5 214,34.5 211.5,34.25 
		211.5,34.25 208.25,34.5 205.5,34.75 204.75,35 204.25,35.25 204.25,35.5 204.25,35.75 205.25,36.25 205.25,36.25 204.5,36.25 
		204.5,36.25 203.5,36 202.75,36 202,35.5 201.5,35 201.5,35 206.75,32.5 209.25,31.25 211.75,29.75 211.75,29.75 209.75,29.5 
		209.75,29.5 207.75,29.75 205.75,30.5 204,31.5 202.25,32.75 200.5,34 198.5,35.25 196.75,36.25 194.5,36.75 194.5,36.75 
		195.75,35 197.5,33.5 199.5,32.25 201.5,31 203.5,29.75 205.25,28.5 206.75,27 207.25,26.25 207.5,25.5 	"/>
	<polygon class="st1" points="214,48.5 214,48.5 213,49 211.75,49.25 209.25,49.25 209.25,49.25 209,49.25 209,49.25 208.5,49.25 
		208.5,49.25 207,49.25 205.75,49.5 204.75,50 204.25,50.5 204,51 204,51 207.25,50.25 209,49.75 210.75,49.75 210.75,49.75 
		212.25,49.75 213.5,50.25 213.5,50.25 212.25,50.25 212.25,50.25 210.5,50.5 208.75,51 208.75,51 207.75,51 207.5,51.25 
		207.5,51.25 209.25,51.5 209.25,51.5 211,51.25 212.75,50.75 213.5,50.5 214,50 214.25,49.25 214,48.5 	"/>
	<polygon class="st1" points="209.25,37.25 209.25,37.25 208.25,38 207.25,38.5 204.75,39.25 202.25,40.25 201.25,40.75 200.5,41.5 
		200.5,41.5 196.25,43 196.25,43 202,41 208,39 208,39 208.25,38.75 208.75,38.5 209.75,38 210.25,37.75 210.25,37.5 210,37.5 
		209.25,37.25 	"/>
	<polygon class="st1" points="213.5,51.5 213.5,51.5 210.5,52 208.75,52.5 207.25,53 205.25,53.25 205.25,53.25 206.25,53.5 
		207.5,53.75 207.5,53.75 209.25,53.5 210.75,53 212.25,52.5 213.5,51.5 	"/>
	<polygon class="st1" points="202,58 202,58 200.75,58.25 199.75,58.5 199.75,58.5 200.75,58.5 200.75,58.5 202.5,58.75 204,58.75 
		205.5,59.25 206.75,59.75 206.75,59.75 206.75,59.75 207.5,59.25 207.5,59.25 205,58.5 203.5,58 202,58 	"/>
	<polygon class="st1" points="206.75,59.75 206.75,59.75 206.75,59.75 207,59.75 206.75,59.75 	"/>
	<polygon class="st1" points="188.5,70.5 188.5,70.5 195.25,73.5 198.25,75.25 199.75,76.25 201,77.5 201,77.5 200.5,77.75 
		200.25,77.75 200,78 199.5,78.25 199.5,78.25 199.25,78 199.25,78 199.75,77.75 200.25,77.5 200,77.25 199.75,77 199,76.25 198,76 
		198,76 197.5,76.25 197.5,76.25 197.5,76.25 198.5,76.75 199.25,77.5 199.25,77.5 195,76.75 191,75.75 183.25,73.5 183.25,73.5 
		187.75,75.25 193,77 195.75,77.75 198.5,78.25 201,78.5 203.5,78.75 203.5,78.75 204,78.75 204,78.75 205,79.75 205.75,80.25 
		206.25,80.5 206.25,80.5 206.75,80.25 207,80 207,80 202.25,77.25 197.25,74 195,72.75 192.5,71.5 190.5,70.75 188.5,70.5 	"/>
	<polygon class="st1" points="197.5,59.75 197.5,59.75 194.75,59.75 193.75,60 193.25,60.5 193.25,60.5 195.5,60.25 195.5,60.25 
		199,60.5 199,60.5 202.75,60.5 202.75,60.5 205,60.5 206,60.25 206.75,59.75 206.75,59.75 204.75,59.75 204.75,59.75 201.25,59.75 
		201.25,59.75 197.5,59.75 	"/>
	<polygon class="st1" points="195.5,79.25 195.5,79.25 194.75,79.5 194,80 194,80 195.75,80 197.5,80.25 198.75,80.75 199.5,81 
		199.75,81.75 199.75,81.75 199.25,81.75 199.25,81.75 199,81.75 199,81.75 198.75,81.75 198.75,81.75 198,81.75 197.5,82 
		197.5,82.25 197.5,82.25 198.5,82.25 198.5,82.25 199.75,82.25 200.75,81.75 201.25,81 201.5,80 201.5,80 200.25,80 200.25,80 
		199,80 197.75,79.75 197.75,79.75 196.5,79.5 195.5,79.25 	"/>
	<polygon class="st1" points="200.5,64 200.5,64 195.75,64 195.75,64 195.5,64.25 195.5,64.5 195,64.75 194.75,64.75 195,65 195,65 
		195.25,64.75 195.75,64.75 196.75,64.5 196.75,64.5 197.75,64.5 197.75,64.5 198.75,64.5 198.75,64.5 199.75,64.5 200.25,64.25 
		200.5,64 	"/>
	<polygon class="st1" points="200.5,52.75 200.5,52.75 198.5,53.25 196,53.5 194,54 193.5,54.25 193.25,54.5 193.25,54.5 
		193.75,54.5 193.75,54.5 194,54.5 194,54.5 194.25,54.5 194.25,54.5 195.25,54.5 195.5,54.75 195.75,55 195.75,55 194.75,55 
		194.75,55 193,55.25 192.75,55.25 193.25,55.75 193.25,55.75 196,55.5 197,55 198,54.5 198,54.5 197,54.5 196.5,54.25 196.25,54 
		196.25,54 196.75,54 196.75,54 197.75,53.75 198.75,53.5 199.75,53.25 200.5,52.75 	"/>
	<polygon class="st1" points="190.25,72.5 190.25,72.5 190,72.5 189.75,72.75 189.75,72.75 190.5,73 191.5,73.25 193,74.25 
		194.5,75 195.25,75.25 196,75.5 196,75.5 196.75,75.25 196.75,75.25 193.5,73.5 191.5,72.75 190.25,72.5 	"/>
	<polygon class="st1" points="191,58.5 191,58.5 189.5,58.75 189,58.75 188.5,59.25 188.5,59.25 189.75,59.25 189.75,59.25 
		191.5,59.25 191.5,59.25 193.25,59.25 193.25,59.25 194.75,59.25 195.25,59 195.75,58.5 195.75,58.5 194.5,58.75 194.5,58.75 
		192.75,58.5 192.75,58.5 191,58.5 	"/>
	<polygon class="st1" points="175,77.5 175,77.5 175,77.5 175,77.5 177.25,78.5 179.25,79.75 183.25,82.5 187,85 189.25,86 
		191.5,87 191.5,87 190.75,87.25 190.5,87.5 190.5,87.75 191,88.25 192.25,89 192.5,89.5 192.75,90 192.75,90 192,89.75 
		191.25,89.25 190.25,88.75 189.75,88.5 189.75,88.5 189.25,88.5 189.25,88.75 189.25,88.75 190.5,89.25 191.5,90.25 192.5,90.75 
		193.25,91 194.25,91 194.25,91 194.5,91 194.5,91 194.75,90.25 195,89.75 194.75,89 194.5,88.5 194,87.5 193.25,86.5 193.25,86.5 
		190.5,85.75 188,84.75 185.75,83.25 183.5,81.75 181.5,80.5 179.25,79 177.25,78 175,77.5 	"/>
	<polygon class="st1" points="195,51.5 195,51.5 194.25,51.75 193.5,51.75 193.5,51.75 192.25,51.75 192.25,51.75 191,51.75 
		191,51.75 190.5,51.75 190,52 189.5,52.5 189.25,53.25 189.25,53.25 190.75,53 192.25,52.75 194,52.25 194.5,52 195,51.5 	"/>
	<polygon class="st1" points="202.25,36.75 202.25,36.75 200.5,37 198.75,37.75 197,38.5 195.25,39.5 192.5,41.25 191.75,42 
		191.75,42 191.75,42.25 191.75,42.25 192.25,42 192.25,42 194.5,40.75 197.25,39.5 199.75,38.25 202.25,36.75 	"/>
	<polygon class="st1" points="173.25,72.75 173.25,72.75 172,73 170.75,73.5 170.75,73.5 171,74.25 171.25,74.75 171.75,75.25 
		172.5,75.75 173.25,76 173.5,76.25 173.5,76.75 173.25,77.5 173.25,77.5 172.5,77.5 172,77 171,76.25 170,75.5 169.5,75.25 
		168.75,75.25 168.75,75.25 168.5,75.25 168.5,75.25 169.5,76.75 171,78.5 172.5,79.75 174,81.25 177.5,83.75 181,86 184.5,88.5 
		188,90.75 189.25,92 190.75,93.5 191.75,95 192.75,96.5 192.75,96.5 191.25,95.75 189.75,94.75 188.25,93.75 187.5,93.25 
		187.5,93.25 187.5,93.5 187.5,93.5 188,94 188.5,94.5 190,95.5 190.75,96.25 191.25,96.75 191.25,97.5 191,98.25 191,98.25 
		191.25,98.25 191.25,98.25 192,98 192.25,97.5 192.25,97.5 192.5,97 193,96.75 193,96.75 194,97 194,97 193,95.25 191.75,93.75 
		190.25,92.25 188.75,91 185.5,88.25 182,86 178.5,83.75 175.25,81.5 172.5,79 171.25,77.75 170.25,76.25 170.25,76.25 
		174.25,78.75 178.25,81 182,83.75 185.75,86.5 185.75,86.5 184.5,85 183,83.75 180.25,81.75 177.5,79.75 175,77.5 175,77.5 
		175,77.5 175,77.5 175,77.5 173.25,75.75 172.75,74.5 172,73.5 172,73.5 172.25,73.5 172.25,73.5 174.5,73.75 176.75,74.25 
		178.75,75.25 180.75,76.25 180.75,76.25 182.5,77.5 184.25,78.5 186,79 187.75,79.25 187.75,79.25 188,79.25 188,79.25 184.5,77.5 
		180.75,75.25 178.75,74.5 177,73.5 175,73 173.25,72.75 	"/>
	<polygon class="st1" points="191,54.5 191,54.5 186.25,55.5 184,56.25 183,56.75 182,57.5 182,57.5 185.5,57 188,56.5 189.75,56 
		191.5,55.75 191.5,55.75 191,55.75 191,55.75 190.75,55.75 190.75,55.75 190.5,55.75 190.5,55.75 189.75,55.5 189.25,55.5 
		189.25,55 189.25,55 189.75,55.25 189.75,55.25 191.25,55 191.5,54.75 191,54.5 	"/>
	<polygon class="st1" points="196.25,56.25 196.25,56.25 189,57.25 185.5,58 184,58.5 182.75,59.25 182.75,59.25 185.5,58.75 
		189,58 196.25,56.25 	"/>
	<polygon class="st1" points="188.5,64.5 188.5,64.5 188,64.5 187.5,64.75 187.25,65 187.5,65.75 187.5,65.75 188,65.75 188,65.75 
		189,65.75 189.75,65.5 190.5,65 191,64.5 191,64.5 190.25,64.5 190.25,64.5 189.5,64.5 189.5,64.5 188.5,64.5 	"/>
	<polygon class="st1" points="181.75,65.75 181.75,65.75 180,65.75 178.25,66 176.75,66.25 175.5,67 175.5,67 181.25,68 
		183.75,68.75 186.25,69.75 186.25,69.75 186.5,69.5 186.75,69.25 186.25,69 185.25,68.5 183.75,68.25 180.5,67.5 179.25,67 
		178.5,66.25 178.5,66.25 179,66.25 179,66.25 180.25,66.25 180.25,66.25 181.5,66.25 181.5,66.25 183,66.25 183,66 182.75,65.75 
		182.75,65.75 181.75,65.75 	"/>
	<polygon class="st1" points="165,81.75 165,81.75 170,86.75 175.5,91.75 180.75,96.75 183,99.25 185,101.75 185,101.75 
		185.25,102.25 185.25,103.25 185.5,103.75 185.5,104 185.75,104.25 185.75,104.25 186.25,104 186.75,103.5 186.75,103.5 
		185.5,101.5 183.75,99.5 179.75,95.5 175.5,91.5 173.75,89.25 172,87 172,87 176.5,90.5 180.75,93.75 185.5,97 187.75,98.5 
		190.25,100 190.25,100 189.25,98 187.75,96.25 186.25,94.5 184.25,93 181,90.25 179.75,89.25 179.25,88.25 179.25,88.25 
		178.25,87.5 177.75,87.25 177.25,87.25 177.25,87.25 175.5,87.5 175.5,87.5 178.75,90 182.25,92.5 185.25,95 186.75,96.5 
		188,98.25 188,98.25 185,96.25 182.25,94 176.25,89.25 170.5,85 167.75,83.25 165,81.75 	"/>
	<polygon class="st1" points="173.75,62.75 173.75,62.75 173.25,62.75 172.75,63 172.75,63 172.25,63.25 171.75,63.25 171.75,63.25 
		171.5,63.25 171.5,63.25 171.75,64 172.5,64.5 173.25,64.5 174.25,64.75 174.25,64.75 176,64.5 176,64.5 178,64.5 178,64.5 
		179.25,64.5 179.75,64.75 180.25,65 180.25,65 181,65 181,65 182,65 182,65 183.25,65.25 183.25,65.25 184,65 184.25,64.75 
		184.5,64.5 184.5,64.5 179.75,64.5 179.75,64.5 179.25,64.25 178.75,64 177.75,64 177.75,64 176.25,64 176.25,64 174.75,64 
		174.75,64 173.5,64 173,63.75 172.75,63.25 172.75,63.25 173.75,63.25 174.25,63 174.5,62.75 174.5,62.75 173.75,62.75 	"/>
	<polygon class="st1" points="182.5,99.75 182.5,99.75 183.75,101.25 183.75,101.25 182.5,99.75 	"/>
	<polygon class="st1" points="174.75,67.5 174.75,67.5 174.25,67.75 173.75,68 173.75,68 174.25,69 175.25,70 176.25,70.75 
		177.25,71.5 179.75,72.5 181,72.75 182,72.75 182,72.75 182.75,72.75 182.75,72.75 180.5,72 178.5,71.25 176.5,70.25 175.75,69.5 
		175,68.75 175,68.75 175,68.75 175,68.75 175.75,68.75 175.75,68.75 176.75,68.75 176.75,68.75 178.25,68.5 178.5,68.5 178,68 
		178,68 177.25,68.25 177.25,68.25 176.5,68 175.75,67.75 175.75,67.75 174.75,67.5 	"/>
	<path class="st1" d="M169.75,88.75L169.75,88.75L169,88.5l-1-0.25L166,87l-2-1.75l-1.5-1.75l0,0l0,0l0,0l2,1l1.75,1.5l1.5,1.5
		L169.75,88.75L169.75,88.75L169.75,88.75L169.75,88.75z M135.5,67L135.5,67v-0.75l0,0l0,0l0,0l0.75,0.5l0.5,0.75l0.25,0.75l0.25,1
		l0,0l0,0l0,0l-0.5,0.25v0.25l-0.25,0.75l0,0l-0.5-0.25l-0.25-0.5l-0.5-0.25l-0.5-0.25l0,0V69l0,0l0.25-0.75l0.25-0.25l0.25-0.5V67
		L135.5,67z M134.75,65L134.75,65l-0.25,2.25l0.25,1.5l0.25,1.5l0.5,2l0,0l-1,0.25l-0.75,0.25l-2,0.25l-1,0.25l-0.5,0.25l-0.5,0.75
		l-0.25,1l0,0l2.25,2L134,79l5,3l2.25,1.5l2.25,1.5l2,1.75l1.75,2l0,0l0.75,1l0.5,1v0.5v0.25l-0.25,0.25h-0.5l0,0l0.5,0.25l0.5,0.25
		l0.75,1l0.75,0.75l0.5,0.25l0.5,0.25l0,0l0.25-0.25L152,94l0,0l-0.5-1.5l-0.75-1.5l-1-1.25l-1-1.25l-2.5-2.25l-3-2.25L137,80
		l-3-2.25l-2.75-2l0,0l1,0.25l1,0.25l0,0h0.5l0.5-0.5l0.25-0.5l0.25-0.75l0,0h-0.5l0,0h-0.75l0,0l-0.75,0.25l0,0L132,74.5v-0.25
		L131.75,74l0,0l4-0.75h3.75l0,0h2.25l2,0.25l2,0.5l1.75,0.5l3.25,1.25l3,2l2.75,2l2.5,2.5l5.25,4.75l0,0l2.75,2l2.5,2l4.75,3l4.5,3
		l2,1.25l1.75,1.5l0,0l-9.25-8.5l-9.5-8.5l0,0h-0.25l0,0L163,83l-0.5,0.25l0,0H162l-0.5,0.25l0,0l0,0l0,0l-1-1.5l-1-1.25l-1.25-1.25
		l-1.25-1l-2.75-2L151,75l-3.25-1L144,73l-4-0.75l-4-0.75l0,0l0.75-0.5l0.5-1l0.25-1v-1l-0.25-1l-0.5-1L136,65.5L134.75,65
		L134.75,65z"/>
	<polygon class="st0" points="175,77.5 175,77.5 175,77.5 175,77.5 175,77.5 	"/>
	<polygon class="st1" points="168.5,80 168.5,80 169.75,81.5 171.25,83.25 172.75,84.5 173.75,84.75 174.5,85 174.5,85 175,85 
		175.5,84.5 175.5,84.5 174.25,84.5 173.25,84 172.5,83.5 171.5,82.75 170.25,81.25 169.25,80.5 168.5,80 	"/>
	<polygon class="st1" points="172.75,50.25 172.75,50.25 171.25,51 170,51.5 168.75,52.25 168.25,52.75 168,53.25 168,53.25 
		168.25,53.5 168.75,53.75 168.75,53.75 169.5,53.5 170.25,53.25 171.5,52.25 172.5,51 172.75,50.75 172.75,50.25 	"/>
	<polygon class="st0" points="162.5,83.5 162.5,83.5 162.5,83.5 164,85.25 166,87 168,88.25 169,88.5 169.75,88.75 169.75,88.75 
		169.75,88.75 167.75,87.5 166.25,86 164.5,84.5 162.5,83.5 	"/>
	<polygon class="st1" points="152,97 152,97 152,98.5 152.5,99.75 153.25,100.5 154,100.75 154.5,100.75 154.5,100.75 155.5,100.5 
		155.5,100.5 155,100.25 154.5,100 153.75,99 153,97.75 152.5,97.25 152,97 	"/>
	<polygon class="st1" points="152,94.5 152,94.5 151.75,94.5 151.75,94.75 152,95.75 152,95.75 152.5,95.5 152.5,95.5 152.75,95.75 
		152.75,96.25 152.75,96.25 152.75,96.75 153,97 153,97 153.5,96.5 153.5,96.5 153.5,97 153.25,97.25 153.75,98 154.5,98.5 
		155.5,98.75 155.5,98.75 155,97.5 154,96 153,95 152,94.5 	"/>
	<polygon class="st1" points="135.5,93.25 135.5,93.25 138.75,96.5 142.5,99.5 144.5,101 146.5,102 148.5,102.75 150.5,103 
		150.5,103 152,103 152,103 149.5,102.25 147.25,101.5 145.25,100.5 143.5,99.25 139.75,96.5 135.5,93.25 	"/>
	<polygon class="st1" points="146,106.25 146,106.25 145.5,106.25 144.75,106.5 144.75,106.5 145.75,106.5 145.75,106.5 
		146.75,106.5 146.75,106.5 146.25,107 146.5,107.5 147,108 147.5,108.5 149.25,109.25 150.5,109.5 150.5,109.5 150.75,109.5 
		150.75,109.5 150,109.25 149.5,108.75 148.25,107.75 147.25,106.5 146.5,106.25 146,106.25 	"/>
	<polygon class="st1" points="129,80.5 129,80.5 131,81.5 133,83 134.75,84.75 136.5,86.5 137.75,88.5 138.75,90.25 139.25,91.75 
		139.5,93 139.5,93 140.25,92.25 141.25,92.25 141.25,92.25 142.25,92.25 143.25,92.75 145.5,93.75 149,96.5 149,96.5 149.25,95.5 
		149.25,94.5 149,93.75 147.75,93 147.75,93 146,93.25 146,93.25 144.75,93 143.5,92.75 142.5,92 141.5,91.25 139.5,89.25 137.5,87 
		135.75,84.75 133.5,82.5 132.5,81.75 131.5,81.25 130.25,80.75 129,80.5 	"/>
	<polygon class="st1" points="176.25,42.75 176.25,42.75 174,44.5 171.25,46 168,47.5 164.25,48.75 160,50 155.75,50.75 
		151.5,51.25 147.25,51.5 147.25,51.5 144.75,51.25 142.25,51 140,50.75 137.75,50.25 135.75,49.5 134,48.5 132.5,47.5 
		131.25,46.25 131.25,46.25 132.25,45.5 133.5,45.25 136.5,44.5 139.25,44 140.25,43.5 141.25,42.75 141.25,42.75 138.5,43.25 
		135.5,44 132.75,44.75 131.75,45.5 130.75,46.25 130.75,46.25 131,47.5 131.75,48.5 132.5,49.5 133.75,50 135,50.75 136.25,51 
		139,51.5 139,51.5 142.75,51.75 146.5,52 146.5,52 151.25,51.75 156,51.25 160.5,50.5 164.75,49.5 168.75,48.25 172,46.75 
		173.25,45.75 174.5,44.75 175.5,43.75 176.25,42.75 	"/>
	<path class="st1" d="M140.75,33.25L140.75,33.25L140.75,33.25L140.75,33.25L140.75,33.25h0.5l0,0l0,0l0,0H141l0,0l0,0l0,0l0,0l0,0
		l0,0l0,0H140.75L140.75,33.25z M140.25,31.5L140.25,31.5L140.25,31.5L140.25,31.5z M137,29.75L137,29.75L137,29.75L137,29.75
		L137,29.75l0.75,0.25l1.25,0.25l0,0l0,0l0,0l0,0l0,0l0,0l0,0l0,0l0,0h-0.5l0,0l0,0l0,0l0,0H138v0.25V31l0,0l0,0l0,0l0,0l0,0l0,0
		l0,0v0.25l0,0l0.25,0.5L138.5,32h0.5l0,0l0,0l0,0l0,0l0,0h0.5l0.5-0.5l0,0h0.25l0,0l0,0l0,0H140l0,0l-0.25,0.5v0.25l0,0L140,33
		l0.75,0.25l0,0l0,0l0,0l0,0l0,0l0,0l0,0l0,0l0,0l0,0l-2.5,0.25l-2.5,0.5l-2.25,0.75l-2,0.75l0,0v0.25l0,0h-0.25l0,0l0,0l0,0l0,0
		l0,0l0,0l0,0l0,0l0,0l0,0l0,0l0,0l0,0l0,0l0,0l0,0l0,0l0,0l0,0l0,0l0,0L127,37.5l-2,0.5h-2.25l0,0l0,0l0,0l0,0l0,0l0,0h-2l0,0l0,0
		l0,0l0,0l0,0l0,0l0,0l0,0l1.5-1.5l1.75-1l2.25-0.75l2.5-0.75l5-0.75L139,32.5l0,0l0,0l0,0l0,0l0,0l0,0l0,0l0,0l0,0l0,0l0,0l0,0l0,0
		l0,0l0,0l-0.5-0.25H138l0,0h-0.75l0,0h-0.75l0,0h-0.75l-1-0.25l0,0l0,0l0,0l0,0l0.25-0.25l0.5-0.25L136,31l0,0h-0.25l-1-0.25l0,0
		l0,0l0,0l0,0l0,0l0,0l0,0l0,0l0,0l1-0.75l1-0.25l0,0H137L137,29.75L137,29.75z M133.75,28.75L133.75,28.75H133L132.5,29l0,0l1,0.25
		h0.5l0.25,0.5l0,0h-0.75l0,0h-1l0,0l-1.25-0.25l0,0l-0.75,0.25L130.25,30L130,30.25l0,0l0.5,0.25v0.25H130l0,0h-1l0,0L126.75,31
		l-2,0.25l-1.25,0.25l0.25,0.25l0.5,0.25l0,0l2-0.5l2.5-0.25l0,0l1.75,0.25l1.5,0.25l1.25,0.25l1,0.5l0,0l-3-0.25l0,0l-1.75,0.25
		l-1.75,0.25l-3.5,0.75l-3.5,0.75L117,35l0,0v-0.5v-0.25l0.5-0.75l0.25-0.5l-0.25-0.25L117,32.5l0,0l-0.25,0.75l-0.5,0.5l-0.5,0.75
		l0.25,1l0,0l1.25,0.25l0,0L119,35.5l1.25-0.25l0,0l1.25-0.5l1.25-0.25l0,0h0.75l0.75,0.5l0,0l-1.5,0.25l-1.25,0.5L121,36l-0.5,0.5
		l-0.25,0.75L120,38l0,0l0.75,0.5l1,0.25L122.5,39l1,0.25l0,0L125,39l1.75-0.75l3.75-1.5l0,0l2-1l1.75-0.75l2-0.5l2.25-0.25l0,0
		l1.75,0.25L142,35l0,0l-4.5,0.5l-1.75,0.25l-0.75,0.5l-0.75,0.5l0,0h1l0,0l3.25-0.25l3.75-0.5l3.25-0.5l2.25-0.5l0,0h-1.25l0,0
		h-0.75l-1-0.25L143.5,34l-1.25-1l-1-1l0,0h0.5l0,0h0.5l0,0h0.5l0,0h0.5l0.5-0.25V31.5v-0.75l0,0l-2.25-0.5l-2.75-0.5L136,29
		L133.75,28.75L133.75,28.75z"/>
	<polygon class="st1" points="133.75,92.25 133.75,92.25 133.75,93.75 133.5,94 133.5,94.25 133,94.5 132.5,94.75 132.5,94.75 
		134.25,96.25 136,98 139,101.75 139,101.75 138.5,102.25 138,102.25 138,102.25 137.5,102.25 137,102 136.5,101.25 136.5,101.25 
		135.75,100.5 135.25,100.25 135.25,100.25 134.75,100.5 134.75,100.5 135.5,101.5 136.25,102.5 137.75,103.75 139,104.75 
		139.5,105.5 140.25,106.5 140.25,106.5 140,106.5 140,106.5 139.5,106.5 139.5,106.25 139.25,105.5 139,105 138.75,104.75 
		138.25,104.75 138.25,104.75 140,107.5 142,110.25 143.25,111.5 144.5,112.25 145.75,113 146.75,113.25 146.75,113.25 147.75,113 
		147.75,113 146.5,112.5 145.25,111.5 144.25,110.5 143,109.25 141,106 139,102.25 139,102.25 140.5,103.25 142,104.5 
		143.25,105.75 144,106.25 144.75,106.5 144.75,106.5 144,105 142.75,103.5 139.25,100.25 137.5,98.75 136,97 135.5,96 135,95 
		134.75,94 134.75,93 134.75,93 133.75,92.25 	"/>
	<path class="st1" d="M144.25,42L144.25,42H144l0,0H144.25L144.25,42z M155,37.25L155,37.25l-3,1l-3,1L146,40h-3.25l0,0h-3l-3.25-1
		l0,0l0.5,0.75l1,0.5l1,0.25h1.25l2.25,0.25l1,0.25l0.75,0.5l0,0V42l0,0l0,0l1.25-0.25l1.25-0.5L149.5,40l2.75-1.5L155,37.25
		L155,37.25z"/>
	<polygon class="st1" points="139.5,94 139.5,94 144,96.75 146.25,98 147.75,98.75 147.75,98.75 147.5,98 146.75,97.25 
		144.25,95.75 141.5,94.75 139.5,94 	"/>
	<polygon class="st1" points="142.75,41.25 142.75,41.25 142.5,41.5 142.5,42 142.5,42 143.25,42 143.25,42 144,42 144,42 
		143.5,41.75 142.75,41.25 	"/>
	<polygon class="st1" points="137.25,81.75 137.25,81.75 137.5,82.75 138.25,83.75 139,84.25 139.75,85 141.5,86 142.5,86.75 
		143,87.5 143,87.5 143.25,87.25 143.25,87 142.75,86.5 140.75,84.75 138.5,83 137.75,82.25 137.25,81.75 	"/>
	<polygon class="st0" points="140.75,33.25 140.75,33.25 140.75,33.25 140.75,33.25 141,33.25 141,33.25 141,33.25 141,33.25 
		141,33.25 141,33.25 141,33.25 141.25,33.25 141.25,33.25 141.25,33.25 140.75,33.25 	"/>
	<path class="st0" d="M140.25,31.5L140.25,31.5H140l0,0l0,0l0,0H140.25L140.25,31.5z M139,30.25L139,30.25L139,30.25L139,30.25
		L139,30.25L139,30.25z M137,29.75L137,29.75h-0.25l0,0l-1,0.25l-1,0.75l0,0l0,0l0,0l0,0l0,0l0,0l0,0l0,0l1,0.25H136l0,0l-0.5,0.5
		l-0.5,0.25L134.75,32l0,0l0,0l0,0l1,0.25h0.75l0,0h0.75l0,0H138l0,0h0.5l0.5,0.25l0,0l0,0l0,0l0,0l0,0l0,0l0,0l0,0l0,0l0,0l0,0l0,0
		l0,0l0,0l0,0l0,0l-5.25,0.75l-5,0.75l-2.5,0.75L124,35.5l-1.75,1l-1.5,1.5l0,0l0,0l0,0l0,0l0,0l0,0l0,0h2l0,0l0,0l0,0l0,0l0,0H125
		l2-0.5l4.25-1.75l0,0l0,0l0,0l0,0l0,0l0,0l0,0l0,0l0,0l0,0l0,0l0,0l0,0l0,0l0,0l0,0l0,0l0,0l0,0l0,0l0,0h0.25l0,0V35.5l0,0l2-0.75
		l2.25-0.75l2.5-0.5l2.5-0.25l0,0l0,0l0,0l0,0l0,0l0,0l0,0l0,0l0,0l0,0L140,33l-0.25-0.75l0,0V32l0.25-0.5l0,0l-0.5,0.5H139l0,0l0,0
		l0,0l0,0l0,0l0,0h-0.5l-0.25-0.25l-0.25-0.5l0,0V31l0,0l0,0l0,0l0,0l0,0l0,0l0,0v-0.5v-0.25h0.5l0,0l0,0l0,0l0,0l0,0h0.5l0,0l0,0
		l0,0l0,0l0,0L137.75,30L137,29.75L137,29.75L137,29.75L137,29.75L137,29.75z"/>
	<polygon class="st1" points="134,104.75 134,104.75 133.5,104.75 133,105.25 133,105.25 133.75,105.25 133.75,105.25 134.5,105.25 
		135,105.75 135.25,106.25 135.5,107 135.5,107 135,107.25 134.75,107.5 134.25,107.5 134,107.75 134,107.75 133.75,107.75 
		133.75,107.75 133.5,107.5 133.25,107.25 133.25,107.25 133.25,107.25 133,107.75 133,107.75 133.75,108 134.5,108.5 135.75,109.5 
		137.25,110.75 138,111 138.75,111.25 138.75,111.25 139.75,111 140.75,110 140.75,110 139.75,110.5 139,110.5 139,110.5 
		137.75,110.25 136.5,109.5 135.75,108.75 134.75,107.75 134.75,107.75 135.75,107.25 136.5,106.5 136.5,106.5 136,106.25 
		135.25,105.5 134.75,105 134,104.75 	"/>
	<polygon class="st0" points="135.5,66.25 135.5,66.25 135.5,66.25 135.5,67 135.5,67 135.5,67.5 135.25,68 135,68.25 134.75,69 
		134.75,69 134.75,69.25 134.75,69.25 135.25,69.5 135.75,69.75 136,70.25 136.5,70.5 136.5,70.5 136.75,69.75 136.75,69.5 
		137.25,69.25 137.25,69.25 137.25,69.25 137,68.25 136.75,67.5 136.25,66.75 135.5,66.25 	"/>
	<polygon class="st1" points="133.75,11.75 133.75,11.75 133,12 133,12 132.5,12.75 132,13.25 131,13.5 129.75,13.75 127.75,14 
		126,14.25 126,14.25 123.25,15.5 120.25,17.25 118.25,18.75 117.75,19.25 117.5,19.25 117.75,19.5 117.75,19.5 118.75,19 
		118.75,19 123.75,16.25 127.5,14.75 129.5,14.25 131,14 131,14 132.5,14.25 132.5,14.25 132.25,14.5 132,14.75 131,15 
		130.75,15.25 130.5,15.5 130.75,15.75 131.25,16 131.25,16 131.5,15.75 132,15.5 132,15.5 132.75,15.75 133,16 133,16 132.25,17 
		130.75,17.75 126.75,19.75 121.75,21.75 117,23.75 117,23.75 118.25,22 118.25,22 117.75,22.5 117.75,22.5 117,23.25 116.75,24 
		116.25,24.5 116,24.75 116,24.75 115.75,24.5 115.25,23.75 115.25,23.75 115.25,24.5 114.75,25.5 114.25,26 113.25,26.75 
		111.25,27.75 108.75,28.5 108.75,28.5 108.5,27.75 108.25,27 108.75,26.5 109.5,26 109.5,26 110,26.5 110,26.5 110,26 110.25,25.5 
		110.25,25.25 110,25 110,25 109.25,25.5 108.5,26 107.75,26.75 107.75,27.25 107.75,28 107.75,28 107.75,28.25 108,28.5 
		108.5,28.75 109.25,29 109.5,29.25 109.5,29.75 109.5,29.75 108,30 107,31 106.75,31.5 106.5,32 106.5,33.75 106.5,33.75 
		107.75,34.5 109.25,34.75 109.25,34.75 110.25,34.5 111.5,34.25 114,33.25 116.25,32 118.25,30.75 118.25,30.75 117.25,31 
		116,31.25 114,32.25 111.75,33.25 110.75,33.75 109.75,33.75 109.75,33.75 108.25,33.5 107.75,33.25 107,32.5 107,32.5 108.5,31 
		110,29.75 113.25,27.25 117,25 121,23 129,19.5 133,17.5 136.5,15.5 136.5,15.5 135.75,14.25 135.5,14 135.75,13.75 136.5,12.5 
		136.5,12.5 136,12.5 136,12.5 135.25,12.5 134.75,12.25 134.75,12.25 134.25,12 133.75,11.75 	"/>
	<polygon class="st1" points="134.75,93 134.75,93 134.75,93 135.5,93.25 135.5,93.25 134.75,93 	"/>
	<polygon class="st1" points="130,95.25 130,95.25 131.25,97.75 131.75,99.75 132,101.75 132.5,104 132.5,104 133,103.25 133,102.5 
		133,101.5 132.5,100.25 132,98.5 132,97.75 132.5,97 132.5,97 133.25,98.25 134,99 134.5,99.25 134.5,99.25 134.75,99 
		134.75,98.75 134.75,98.75 133.75,98 132.5,97 131.5,96 130.75,95.5 130,95.25 	"/>
	<polygon class="st1" points="122,81.75 122,81.75 121.75,81.75 121.75,81.75 122.25,82.75 123,83.75 123.75,84.5 124.25,84.75 
		124.25,84.75 124.5,84.75 124.75,84.5 124.75,83.5 124.75,83.5 125.75,84 126.5,84.75 128,86.75 129.5,88.75 130.25,89.25 
		131.25,89.5 131.25,89.5 131.75,89.25 131.75,89.25 130.75,88.5 129.5,87.5 127.5,85.25 126.5,84.25 125.5,83.5 124,82.75 
		122.5,82.25 122.5,82.25 122.25,81.75 122,81.75 	"/>
	<polygon class="st1" points="130.75,0 130.75,0 129.25,0.5 126.5,2 126.5,2 126.75,2 126.75,2 127.5,2 128.25,2.5 128.25,2.5 
		130.75,0.75 131,0.25 130.75,0 	"/>
	<polygon class="st1" points="128.5,80.5 128.5,80.5 128.25,80.5 128.25,80.5 128.5,81.5 129,82.75 129.75,83.5 130,83.75 
		130.5,83.75 130.5,83.75 131,83.75 131.25,83.5 131.25,83.5 129.75,82.25 129.25,81.5 129,80.5 129,80.5 128.5,80.5 	"/>
	<rect x="129" y="80.5" class="st1" width="0" height="0"/>
	<polygon class="st1" points="117.5,85.25 117.5,85.25 117,85.25 117,85.25 118.75,86 120,87.25 121.25,88.5 122.5,90 122.5,90 
		121.25,89 120.25,88.25 120.25,88.25 120.75,88.75 120.75,88.75 122.25,90.25 123.75,92 125.5,93.5 126.25,94 127,94 127,94 
		127.25,94 127.25,94 124.75,91.5 122.25,88.75 121,87.25 119.75,86.25 118.5,85.5 117.5,85.25 	"/>
	<path class="st1" d="M96.5,24.25L96.5,24.25l0.5-1l0.5-1l0.75-1l0.5-1l0,0l0.75,0.5l0.25,0.75l0,0l-0.5,1l-0.75,0.75l-1,0.75
		L96.5,24.25L96.5,24.25L96.5,24.25L96.5,24.25z M125.75,2.25L125.75,2.25l-0.5,0.25l0,0l-2,0.75l-2.5,1.25L116,7.25l-4.75,3
		l-3.5,2.75l0,0l-1,0.75L106,14l0,0l-0.5-0.25l-0.75-0.5l0,0h-0.25l0,0l-1,1.75l-1.25,1.25L99.75,19l-1.5,1.25L97,21.5l-1,1.75
		L95.25,25l0,0l0.5,0.25h0.75l0,0L97,25l0.75-0.25l0.75-0.5l0.75-0.5l0,0l-0.75,1.5L98,26l0.25,1.25l0,0l1-0.25l0.75-0.25l0.75-0.5
		l0.5-0.75l0,0h-0.5l0,0h-0.5L100,25.75l0,0l-0.75,0.5l0,0L99,26l-0.25-0.5l0,0l0.75-1.25l1.25-1.25l2.25-2.25l2.25-2l0.75-1l0.5-1
		l0,0l-2.25,2l-1,0.75l-1.5,0.75l0,0l-0.25-1l-0.25-0.75l0,0l5-3.75L111,11l2.75-1.75l2.75-1.75l2.75-1.5l3.25-1.25l0,0L122,5.5
		L121.25,6l-1,0.75l0,0l0.5-0.25l0,0h0.75l1.25-0.5l2-1.25l1.5-1.25l0.5-0.25V3l0,0h-0.25l0,0L126,3.25L125.25,4l-0.5,0.5L124,4.75
		l0,0l-0.25-0.25l-0.25-0.25l0,0l0.5-0.5L124.75,3L125.75,2.25L125.75,2.25z"/>
	<polygon class="st1" points="110.75,82.75 110.75,82.75 109.5,82.75 108,83.25 105.25,84.25 102.75,86 100.5,87.5 100.5,87.5 
		102,87.25 103.5,86.5 105.75,85.25 108.25,83.75 109.5,83.25 111.25,82.75 111.25,82.75 114,85.75 117,88.25 122.75,93.75 
		125.5,96.5 128,99.75 130.5,103 132.5,106.5 132.5,106.5 131,103.5 129.25,100.5 127.5,98 125.5,95.5 123.25,93 121,91 118.5,89 
		116,87 116,87 115.5,86 115,85 114.5,84.25 113.75,83.75 112.5,83 110.75,82.75 	"/>
	<polygon class="st1" points="129.5,28 129.5,28 126.75,28 124,28.25 123,28.5 122,29 121.5,29.5 121.25,30.25 121.25,30.25 
		122,29.75 123,29.25 125.75,28.75 128.5,28.5 129.25,28.25 129.5,28 	"/>
	<polygon class="st1" points="123.5,30.25 123.5,30.25 122,30.5 120.25,31 119.5,31.25 119.25,31.75 119,32 119.5,32.5 119.5,32.5 
		119.75,32 120.25,31.75 122,31.25 123.5,30.75 123.75,30.5 123.5,30.25 	"/>
	<polygon class="st1" points="122,115.5 122,115.5 120.75,115.5 120.5,115.75 120.5,116 120.5,116 121,116.25 122.5,116.5 
		122.5,116.5 124,116.25 126,116 126,116 123.75,115.5 122,115.5 	"/>
	<polygon class="st1" points="118.5,82.75 118.5,82.75 117.75,82.75 117.75,82.75 121.75,85.25 125.25,87 125.25,87 123.75,85.75 
		122.25,84.25 120.25,83.25 119.5,82.75 118.5,82.75 	"/>
	<polygon class="st1" points="121.75,7.5 121.75,7.5 121,7.75 120.5,8.25 120.5,8.25 120,8.75 119.75,9 119.75,9 119.5,8.75 
		119.5,7.75 119.5,7.75 117.75,10.5 117.5,11.5 117.5,11.75 118,12 118,12 118.25,12 118.25,12 116.75,13.25 115,14.5 111.5,16.75 
		109.75,18 108.5,19.25 107.25,21 106.5,23.25 106.5,23.25 107,23.25 107,23.25 107.75,23.25 107.75,23.25 107.75,23.25 
		108.25,21.75 108.75,20.5 109.5,19.5 110.5,18.5 112.5,16.75 114.75,15.25 117,13.75 119.25,12 121,10.25 121.75,9 122.5,7.75 
		122.5,7.75 121.75,7.5 	"/>
	<polygon class="st1" points="125.25,13 125.25,13 122.5,13.75 120.25,15 118.25,16.25 116.25,17.75 112.25,20.75 110,22.25 
		107.75,23.25 107.75,23.25 109,23 110.25,22.75 112.5,21.75 114.5,20.25 116.5,18.75 118.5,17 120.75,15.5 123,14 125.25,13 	"/>
	<polygon class="st1" points="116,8.5 116,8.5 111.75,11.5 107.75,15 107.75,15 107.75,15.5 108,15.75 108,15.75 108.25,15.5 
		108.25,15 108.25,15 111,12.75 112.5,11.75 114.25,10.75 114.25,10.75 114,11.5 114,11.75 114.5,11.75 114.75,12 114.75,12 115,12 
		115,12 115,12 115,12 115.75,12 116,12.25 116,12.5 116,12.5 114.5,13 114.25,13.5 114.25,13.5 114.75,13.75 114.75,13.75 
		115.75,13 116.25,12.5 116.25,11.75 116.5,10.75 116.5,10.75 116.25,10.75 116.25,10.75 115.5,11 115.5,11 115,11 115,11 
		114.75,11 114.75,10.75 114.75,10.75 114.75,10.25 115,10 115.75,9.5 116.5,8.75 116.25,8.5 116,8.5 	"/>
	<polygon class="st1" points="104,111.25 104,111.25 107.5,114.5 107.5,114.5 107.5,114.5 108.25,114.75 108.25,114.75 
		108.25,114.75 108.25,114.75 107.75,114.75 107.75,114.75 110.75,117.75 112.25,118.75 113.5,119.5 113.5,119.5 113.5,119 
		113.75,119 113.75,119 114.25,119.25 114.25,119.25 115,119.5 115,119.5 115.25,119.5 115.25,119 115.25,119 113.25,117.75 
		111.5,116.5 109,114 108,113 107,112.25 105.75,111.5 104,111.25 	"/>
	<polygon class="st1" points="113,25.5 113,25.5 112,25.75 110.25,26.5 110.25,26.5 111.25,26.75 111.25,26.75 112.25,26.5 113,26 
		113,26 113.5,25.5 113.25,25.5 113,25.5 	"/>
	<polygon class="st1" points="110.5,6 110.5,6 107.5,9 104.25,11.75 97.5,17.5 94,20.25 90.75,23.25 88,26 85.75,29 85.75,29 
		87.5,27.75 89.25,26.25 92.25,23.25 95.25,19.75 97,18.25 98.75,16.75 98.75,16.75 101.5,15 104.5,13.25 104.5,13.25 104.5,13.25 
		104.5,13.25 104.75,13 104.75,13.25 104.75,13.25 104.75,13.25 107,12 109,10.25 109.5,9.5 110.25,8.5 110.5,7.25 110.5,6 	"/>
	<polygon class="st1" points="110,26.5 110,26.75 110.25,26.5 110,26.5 	"/>
	<polygon class="st0" points="107.5,114.5 107.75,114.75 107.75,114.75 107.75,114.75 108.25,114.75 108.25,114.75 108.25,114.75 
		107.5,114.5 	"/>
	<polygon class="st1" points="84.5,100 84.5,100 89.25,105.25 94.5,110 97,112.5 99.75,114.5 102.5,116.25 105.25,117.75 
		105.25,117.75 102,115.75 100.25,114.75 99,113.5 97.5,112 96.5,110.5 95.5,109 94.75,107 94.75,107 97.5,109.5 101,111.75 
		104.5,113.75 106.25,114.25 107.75,114.75 107.75,114.75 107.5,114.5 107.5,114.5 107.5,114.5 105.25,113.5 102.75,112 
		98.5,109.25 94.5,106.5 92.75,105.5 91,104.75 91,104.75 92.75,106 93.25,106.5 93.25,106.75 92.75,107 92.75,107 91,105 
		88.75,103.25 86.5,101.75 84.5,100 	"/>
	<rect x="107.75" y="23.25" class="st1" width="0" height="0"/>
	<polygon class="st1" points="93.25,100.5 93.25,100.5 92.75,100.5 92.75,100.5 97.25,103 101.5,105.5 109.5,111.25 109.5,111.25 
		108.5,110 107.25,109 104.75,107.25 102.25,105.5 100,103.5 100,103.5 103.25,104 105,104.25 106.5,104.5 106.5,104.5 107.5,104.5 
		108.25,104 108.25,104 107,103.75 105.5,103.25 104.25,102.75 103.5,102.5 103.5,102.5 103.25,102.5 103.5,102.75 104,103.5 
		104,103.5 103.5,103.5 103.5,103.5 101.75,103.5 100.5,103 97.75,102 97.75,102 95.25,101 94.25,100.75 93.25,100.5 	"/>
	<polygon class="st0" points="104.75,13 104.75,13 104.5,13.25 104.5,13.25 104.5,13.25 104.75,13.25 104.75,13.25 104.75,13 	"/>
	<polygon class="st1" points="95.75,90 95.75,90 91.5,91.75 87,93.5 87,93.5 87.25,95.25 87.5,95.75 88,96.25 89,97 90,97.25 
		93,97.5 94.5,97.75 95.75,98.25 95.75,98.25 95.75,99 95.5,99.5 95.5,100 95.75,100.5 95.75,100.5 97.25,100.75 99,101.5 
		101.5,102.25 101.5,102.25 101.75,102 101.25,101.75 101.25,101.75 99,100.75 97.75,100.25 96.5,100 96.5,100 96.5,99.5 
		96.75,99.25 97,98.75 97,98.25 97,98.25 96,97.5 94.75,97.25 92,96.75 90.5,96.5 89.25,96.25 88.25,95.5 87.5,94.75 87.5,94.75 
		90,93.75 92.75,92.5 94,92 95,91.25 95.5,90.75 95.75,90 	"/>
	<polygon class="st0" points="98.75,20.25 98.75,20.25 98.25,21.25 97.5,22.25 97,23.25 96.5,24.25 96.5,24.25 96.5,24.25 97.5,24 
		98.5,23.25 99.25,22.5 99.75,21.5 99.75,21.5 99.5,20.75 98.75,20.25 	"/>
	<polygon class="st1" points="92.75,53 92.75,53 92.75,53.75 92.75,53.75 92.75,53.25 92.75,53.25 92.75,53 	"/>
	<polygon class="st1" points="90.5,50.25 90.5,50.25 89.25,50.25 89.25,50.25 90.5,50.75 91.5,51 92.5,51.75 92.75,53 92.75,53 
		92.75,52 92.5,51 91.75,50.5 90.5,50.25 	"/>
	<polygon class="st1" points="92.75,53.75 92.75,53.75 91.5,56 91.25,56.75 91.25,56.75 91.75,55.75 92.75,53.75 	"/>
	<polygon class="st1" points="85.75,87.5 85.75,87.5 84.75,87.75 84,88 83.25,88.5 82.75,89.25 82.75,89.25 84,90.25 84.75,90.5 
		85.5,90.5 85.5,90.5 86.25,90.5 87,90 87,90 87,89.5 87,89 86.5,88.5 86,88.25 85.75,88 85.75,87.5 	"/>
	<path class="st1" d="M36.75,84L36.75,84L36.75,84L36.75,84L36.75,84L36.75,84L36.75,84L36.75,84L36.75,84l0.5,0.5L37.5,85
		l-0.25,0.5L37,85.75l-0.75,0.5L35,86.5l0,0l0,0l0,0l0,0l0,0l0,0l0,0l-0.75-0.25L33.5,86l-0.25-0.5v-0.75l0,0l0,0l0,0l0,0l0,0l0,0
		V84.5l0,0l0,0h0.5l0,0l0,0l0,0l0,0l0,0l0,0l0,0h0.75l0,0l0,0l0,0h0.25l0,0l0,0l0,0l0,0l0,0l0,0l0,0l0,0l1,0.25l0,0l0,0l0,0l0,0l0,0
		l0.75-0.25l0.25-0.25V84L36.75,84z M50.25,81L50.25,81L50.25,81L50.25,81L50.25,81h0.5l0,0l0,0l0,0H51l0,0l0.25,0.5L51.5,82v1.5
		l0,0v1l0,0l-0.75-0.25L50,83.5l-0.5-0.75l-1-0.5l0,0l0,0l0,0l0,0l0.25-0.5l0.25-0.5L49.5,81H50.25L50.25,81L50.25,81L50.25,81
		L50.25,81z M49.75,69.75L49.75,69.75l-0.25,1l-0.25,0.5L49,72l-0.5,0.25L47,73l-1.5,0.5l0,0v2.25l0.25,1.75l0.5,1.75l0.75,1.5
		l1.75,2.75l2.25,3l0,0l-1.25-1.25l-1.5-1l-2.5-1.75l-1.25-1l-1.25-1.25l-0.75-1.5L42,77l0,0h0.25l0,0l0.5-0.25L43,76.5V76
		l-0.25-0.25l0,0L42,76.25L41.75,77l-0.25,0.5v0.75l0.5,1.5L42.75,81l0,0h-0.5l0,0l-0.75,0.25l-1,0.25l-1.5,1l0,0l-1.5,0.75
		l-0.75,0.5H36l0,0h-0.5L35,83.5l0,0l2-1.75L37.75,81l0.75-1l0,0h-1.25l0,0l-1-0.25l-0.75-0.5l-0.5-0.5V78l0,0l-0.5,0.75v0.5
		l0.25,0.25L35,80l2.25,1l0,0l-0.75,0.5l-1,0.5L34,83.25l-1.75,1.5l-1,0.5H30.5l0,0L29.25,85l-1.5-1l0,0l1.5-1.25l0,0L26.75,84l0,0
		L24,82.75l-2.5-1.25l-2-1.5l-1.75-1.25L16,77.25L14.25,76L12,74.75L9.5,74l0,0l1.25,1L12,75.75l1.25,0.75l1,1l0,0l-1.5,0.5
		l-1.5,0.25l0,0l-1-0.25l-1-0.25l-0.75-0.5L8.25,76.5l0,0L8,76.75L7.75,77l0,0L7,76.75l-0.75-0.5l-0.5-0.5l-0.25-0.5l0,0h0.75l0,0
		L7.5,75l0.75-0.5l0.5-0.5v-0.5h-0.5l0,0L6,74.25l-1.25,0.5H3.5l0,0H2.75l-0.5-0.25l0,0l1,1l1.25,1L6,77.25l1.5,0.5l1.5,0.5l2,0.25
		l4,0.25l0,0h2.25l0,0l0.75,1l1,1l2.25,1.75l2.25,1.25l2.75,1l2.75,1l2.75,0.5l5.75,1.5l0,0l-0.5-0.5l-0.25-0.75l0,0L37.5,87
		l0.5,0.25l0,0L38.25,87l0.25-0.5l0.25-0.75l1-0.5l0,0l-1-0.25l-0.25-0.5V84l0,0l2-1.5l1-0.5l1.5-0.25l0,0h0.25l0,0l2.5,1.5L48,85
		l2,2l2,1.75l3.5,4l3,4.25l0,0l0.25-0.5V96h0.5l0.5-0.25l0,0h2l0,0L66.5,96l0,0h4.75l0,0L76,95.75l4.5-0.5l0,0l1.5,2l0,0l-0.25-0.75
		l0,0l0,0l0,0h0.5l0.25,0.25l1,0.75l0,0l0.75,0.75l0.5,0.25l0,0l0.5-0.25l0,0l-0.75-1l-0.75-0.75L83,95.75l-1-0.5l-2-0.5l-2.5-0.25
		l0,0l-3.25,0.25L70.5,95l0,0l-3.75,0.5L63,95.75l0,0h-2.5l-2.5-0.5l0,0l-0.75-1.75l-1-1.5l-2.5-3.25l-1-1.5l-0.5-1.5L52,85v-1
		l0.25-0.75l0.5-1l0,0l-0.25-0.5L52,81.5L51.25,81l-0.75-0.5L50.25,80v-0.75l0,0L51,78.5l0.75-1L52,77v-0.5L51.75,76L51,75.75l0,0
		l-0.25,2L50,79.25l-1,1.25l-1,1.25l0,0l-0.5-1L47.25,80L47,78.5l-0.25-1.25L46.5,76.5l-0.25-0.75l0,0l0.5-0.5l0.75-0.75l1.5-1.25
		l0.75-0.75l0.5-0.75v-1L49.75,69.75L49.75,69.75z"/>
	<polygon class="st1" points="82,97.25 82,97.25 83.25,98.5 84.5,100 84.5,100 82,97.25 	"/>
	<polygon class="st1" points="67.25,30.75 67.25,30.75 64,31 62.25,31 61,31.5 61,31.5 63.75,31.25 63.75,31.25 67.75,31.5 
		67.75,31.5 71.75,31.5 71.75,31.5 75.25,31.5 76.75,31.25 78,30.75 78,30.75 75.5,31 75.5,31 71.25,30.75 71.25,30.75 67.25,30.75 
			"/>
	<polygon class="st1" points="71.5,57 71.5,57 71.25,57.25 71,58 71,58 72,58.25 72.25,59 72.25,59.75 72,60.75 71.25,62.5 
		71.25,63 71.5,63.25 71.5,63.25 71.5,63.25 72,62.5 72.5,62.25 72.5,62.25 73,62.5 73.25,63 73.75,64.25 74,65 73.75,65.75 
		73.5,66.5 72.75,67 72.75,67 73.25,67 73.25,67 73.75,66.75 74.25,66.25 74.5,65.75 74.75,64.75 74.75,63.5 74.5,62.75 74.5,62.75 
		74.5,63 74.25,63 74.25,63 73.75,62.75 73,62.25 72.25,61 72.25,61 72.75,60.5 73,60 73,59.5 72.75,58.75 72.25,57.5 71.75,57.25 
		71.5,57 	"/>
	<polygon class="st1" points="65.75,90.5 65.75,90.5 65.25,90.5 65,91 65,91 65.25,91 65.25,91 65.75,91.25 66.25,91.5 66.75,91.75 
		66.75,92.25 66.75,92.25 66.25,92.75 65.75,93.25 65.5,94 65,94.75 65,94.75 65.75,94.5 66.25,94.25 66.75,93.5 67.5,91 67.5,91 
		66.75,90.75 65.75,90.5 	"/>
	<polygon class="st1" points="41.5,87.5 41.5,87.5 40,87.75 40,87.75 38.5,88 38.5,88 38.5,88 38.5,88 40.75,88.75 40.75,88.75 
		42.5,89.5 44.25,90.5 47.25,92.75 49,93.75 50.5,94.5 52.5,95.25 54.25,95.25 54.25,95.25 55.75,95.25 55.75,95.25 57.5,97.5 
		60,100.25 61.25,101.5 62.5,102.5 64,103 65.5,103.25 65.5,103.25 67,103 68.75,102.25 68.75,102.25 65.75,102 63.5,101.25 
		61.5,100.5 60,99.25 58.75,97.75 57.5,96.25 55,93 55,93 54.75,93.5 54.25,94 53.5,94.25 53,94.25 53,94.25 51.5,94 49.75,93.5 
		48,92.5 46.25,91.5 43.25,89.25 41.5,87.5 41.5,87.5 41.5,87.5 	"/>
	<polygon class="st1" points="64.75,55 64.75,55 64.5,55 64.5,55 64.75,56.25 64.5,57.25 64.25,58 63.5,58.75 62.5,59.75 62.5,60.5 
		62.75,61 62.75,61 63.5,60.5 64,59.75 64.5,58.75 64.75,57.75 65,55.75 64.75,55.25 64.75,55 	"/>
	<polygon class="st1" points="63.25,85.25 63.25,85.25 63,86 62.5,86.5 61.5,87.5 61.5,87.5 62,87.75 62.5,88 62.75,89 62.75,91.5 
		62.75,91.5 62.75,91.5 63.25,89.5 63.75,87.75 63.5,86 63.25,85.25 	"/>
	<polygon class="st1" points="62.75,91.5 62.75,91.5 62.5,91.75 62.75,91.75 62.75,91.5 	"/>
	<polygon class="st1" points="62.5,91.75 62.5,91.75 60.5,92.75 59.75,93.5 59.25,94 59.25,94.75 59.25,94.75 60.25,94.25 
		61.25,93.75 62,92.75 62.5,91.75 	"/>
	<polygon class="st1" points="54.5,62.25 54.5,62.25 54.75,62.75 55,63.25 56,63.75 56.5,64.25 56.75,64.75 57,65.25 56.75,66.25 
		56.75,66.25 56.5,66.75 56,66.75 56,66.75 55.25,66.75 55.25,66.75 54.75,66.5 54.75,66.5 54.5,66.5 54.5,67 54.5,67 55,67 
		55.5,67.5 55.5,67.75 55.5,68.25 55,69 54.5,69.75 54.5,69.75 55,70.5 55.5,71.25 55.75,72 56.25,72.75 56.25,72.75 54.75,73.75 
		53.75,75.25 53.75,75.25 55,74.75 55.75,74.25 56.25,73.5 56.5,72.75 56.5,71.75 56.25,71 55.75,70 55,69.25 55,69.25 55.75,69 
		56.25,68.5 56.75,67.5 57.25,66 57.5,64.5 57.5,64.5 56.25,63 55.5,62.5 54.5,62.25 	"/>
	<polygon class="st1" points="51.5,41 51.5,41 51.75,41.75 52,42.5 51.75,44.25 51.75,45.5 51.75,46.25 52,46.75 52,46.75 
		52.5,45.25 52.75,43.5 52.75,42.75 52.5,42 52,41.25 51.5,41 	"/>
	<polygon class="st0" points="50.5,53.25 50.5,53.25 50.5,53.25 50.5,53.25 50.25,53.5 49.75,54 49.75,54 49.75,54 49.75,54 
		49.75,54 49.75,54 49.75,54 49.75,54 49.75,54 50.25,54 50.5,54.25 51,55.25 51.5,56.25 51.75,56.5 52,56.75 52,56.75 52,56.75 
		52,56.75 52,56.75 52.25,55.5 52,54.5 51.25,53.75 50.5,53.25 50.5,53.25 50.5,53.25 	"/>
	<polygon class="st1" points="51.5,38 51.5,38 50.75,39.25 50.25,39.75 49.75,40.25 49.75,40.25 49.25,39.25 48.75,38.75 
		48.25,38.75 48.25,38.75 48,38.75 48,39 48,39 48.5,39.25 48.75,39.75 49,40.25 49.25,41 49.25,41 49.25,41 49.25,41 50,40.75 
		50.5,40.5 51.25,39.5 51.75,38.5 51.75,38.25 51.5,38 	"/>
	<polygon class="st0" points="50.25,81 50.25,81 50.25,81 50.25,81 49.5,81 49,81.25 48.75,81.75 48.5,82.25 48.5,82.25 48.5,82.25 
		48.5,82.25 49.5,82.75 50,83.5 50.75,84.25 51.5,84.5 51.5,84.5 51.5,83.5 51.5,83.5 51.5,82 51.25,81.5 51,81 51,81 50.75,81 
		50.75,81 50.75,81 50.75,81 50.25,81 50.25,81 50.25,81 50.25,81 	"/>
	<polygon class="st1" points="51,69.75 51,69.75 51.25,71.25 51.5,72.75 51,74 50.25,75.25 50.25,75.25 51,74.75 51.75,74.25 
		52.25,73.5 52.5,72.5 52.5,71.5 52.25,70.75 51.75,70.25 51,69.75 	"/>
	<path class="st1" d="M50.5,53.25L50.5,53.25L50.5,53.25L50.5,53.25L50.5,53.25l0.75,0.5L52,54.5l0.25,1L52,56.75l0,0l0,0l0,0l0,0
		l-0.25-0.25l-0.25-0.25l-0.5-1l-0.5-1L50.25,54h-0.5l0,0l0,0l0,0l0,0l0,0l0,0l0,0l0,0l0,0l0.5-0.5L50.5,53.25L50.5,53.25
		L50.5,53.25L50.5,53.25z M43.75,45.5L43.75,45.5l-1.25,1l-1.5,1l-1,1.25l-1,1.5l0,0L40,50l0.5-0.25l1-1.25l0.75-1L43,47l0.75-0.25
		l0,0l1,0.75V48v1l-0.5,0.75l-1,1.75L43,52l0.25,0.75l0,0L42.75,53l-0.5,0.25l0,0L41.5,53l0,0l-1-0.25l0,0L40,53l-0.25,1l0,0
		l1.75-0.25l2.25-0.25l0,0h1L45.5,54l0.75,0.5l0.5,1.25l0,0l-1.5,1.5L43.5,59.5l-0.75,1l-0.5,0.75v0.5L42.5,62l0.25,0.25h0.5l0,0
		h0.5l0,0l-0.5-0.5L43,61l0.5-0.75L44,59.5l1.75-1.75l1.5-1l0,0V55.5l-0.25-1v-0.25v-0.5l0.25-0.25L48,53.25l0,0l1.75,1.5l0.75,0.75
		l0.5,1.25l0,0l-0.25,0.75l-0.5,0.5l-1,0.5L48,59.25l-0.25,0.5l-0.5,0.75l0,0l1.25-0.25l0.75-0.5l1.5-1l1-1.25l0.5-1.25v-1.5v-0.5
		l-0.5-0.5l-0.5-0.5L50.75,53L50,52.75h-1l0,0h-1.5l-2,0.5l0,0l-0.25-0.75l-0.5-0.5l-0.5-0.25L43.75,51l0,0l0.5-0.25V50.5l0.5-0.5
		L45,49.25h0.25l0.5-0.25l0,0l0.5,0.25l0,0L45.75,48l-0.5-1l-0.5-0.75L43.75,45.5L43.75,45.5z"/>
	<polygon class="st1" points="49,43.5 49,43.5 49.25,43.75 49.25,43.75 49.75,44.5 49.75,45 49.5,45.75 49.25,46.25 49,46.75 
		48.75,47.25 49,47.75 49.75,48 49.75,48 50.25,47.25 50.25,46.75 50.25,46 50.25,45.25 49.5,44 49,43.5 	"/>
	<polygon class="st1" points="47,39 47,39 46.75,39 46.75,39 46.25,39.5 46.25,39.75 46.5,40.75 46.75,41.5 46.5,41.75 46.25,42 
		46.25,42 46,41.5 45.5,41.25 44.5,40.75 43.25,40.5 43,40.25 42.75,39.75 42.75,39.75 43,39.5 43,39.5 42.75,39.25 42.25,39 
		42.25,39 42,39 42,39 42,41 42,41 42.5,41 42.5,41 43.75,41 44.75,41.5 45.5,42.25 46.25,43.25 46.25,43.25 46.5,42.75 47,42.75 
		47,42.75 47.25,42.75 47.25,42.75 47,41.5 47,40.25 47.25,39.25 47,39 	"/>
	<polygon class="st1" points="43.75,37.25 43.75,37.25 43.25,37.25 43.25,37.25 37,40.25 31,43.25 25.25,46.5 19.5,49.75 
		14.25,53.5 9.25,57.25 4.5,61.5 2.25,64 0,66.25 0,66.25 4,67.25 5.75,68 6.5,68.5 7.25,69.25 7.25,69.25 7.25,70 7,70.5 6,71.25 
		5.75,71.5 5.5,72 5.5,72.25 6,72.75 6,72.75 6.25,72 6.5,71.5 7,71.5 7.75,71.25 7.75,71.25 8,71.25 8,71.25 8.5,71.25 8.5,71.25 
		9,71.25 9.5,71 9.5,71 8.75,70 8,69 6,67.5 3.5,66.25 1.25,65 1.25,65 2,64.25 2.75,63.5 4.75,62.25 4.75,62.25 4.75,63.25 
		5,64.25 5.5,65 6.25,65.5 7.75,66.5 9.5,67.5 9.5,67.5 8.5,66.25 7,65 6.25,64.25 6,63.5 5.75,62.75 6,62.25 6,62.25 6.5,62.25 
		6.25,62.75 6.25,63 6.25,63.25 6.5,63.25 6.5,63.25 7,62.5 7,62 6.75,61.25 6.5,60.5 6.5,60.5 14.25,54.5 18.25,51.5 22.5,48.75 
		26.75,46 31.25,43.75 35.75,41.75 40.25,40.25 40.25,40.25 40,40.75 40,41.25 40.5,42 41,42.5 41.75,42.5 41.75,42.5 41.75,42.5 
		41.5,42 41.5,42 41.25,41.75 41,41.25 41,40.75 41,40 40.75,39.5 40.25,39 40.25,39 41.25,38.75 42.25,38 43.75,37.25 	"/>
	<polygon class="st1" points="36.25,53 36.25,53 36.5,53.5 37.25,54.5 37.5,55.25 37.5,56 37.25,56.75 36.75,57.5 36.75,57.5 
		37.5,58 38.25,58.5 38.75,59.25 39.75,59.75 39.75,59.75 40.25,58.5 40.25,57.75 40,57.5 39.75,57.5 39.75,57.5 39.25,58.25 
		39,58.5 39,58.5 38.5,58.5 38.25,58 38,56.75 37.75,55.5 38,55 38.5,54.5 38.5,54.5 37.5,54 36.75,53.25 36.75,53.25 36.25,53 	"/>
	<polygon class="st1" points="37.5,87.75 37.5,87.75 38.5,88 38.5,88 37.5,87.75 	"/>
	<polygon class="st1" points="36,43.25 36,43.25 35,43.5 34.25,43.75 34.25,43.75 34.75,45 35.25,46 36.25,46.75 37,47 37,47 
		37.25,46.75 37.25,46.75 36.25,45.5 35,44.5 35,44.5 35,44 35.5,43.75 36,43.5 36.25,43.25 36.25,43.25 36,43.25 	"/>
	<polygon class="st0" points="36.75,84 36.75,84 36.75,84 36.75,84.25 36.5,84.5 35.75,84.75 35.75,84.75 35.75,84.75 35.75,84.75 
		35.75,84.75 35.75,84.75 35.75,84.75 34.75,84.5 34.75,84.5 34.75,84.5 34.75,84.5 34.75,84.5 34.75,84.5 34.75,84.5 34.75,84.5 
		34.75,84.5 34.5,84.5 34.5,84.5 34.5,84.5 34.5,84.5 33.75,84.5 33.75,84.5 33.75,84.5 33.75,84.5 33.75,84.5 33.75,84.5 
		33.75,84.5 33.25,84.5 33.25,84.5 33.25,84.5 33.25,84.75 33.25,84.75 33.25,84.75 33.25,84.75 33.25,84.75 33.25,84.75 
		33.25,84.75 33.25,85.5 33.5,86 34.25,86.25 35,86.5 35,86.5 35,86.5 35,86.5 35,86.5 35,86.5 35,86.5 36.25,86.25 37,85.75 
		37.25,85.5 37.5,85 37.25,84.5 36.75,84 36.75,84 36.75,84 36.75,84 36.75,84 36.75,84 36.75,84 	"/>
	<polygon class="st1" points="36.25,50.25 36.25,50.25 36.25,50.25 36.25,50.25 35.5,50.75 35,51.25 33.5,51.75 32,52.5 
		31.25,52.75 30.75,53.25 30.75,53.25 31.25,53.25 31.25,53.25 32.25,53.25 33.25,52.75 34.75,51.75 34.75,51.75 36,50.75 
		36.25,50.25 	"/>
	<polygon class="st1" points="33.75,66.25 33.75,66.25 34.75,69.25 35.5,72 35.75,73.25 36,74.75 36,75.75 35.5,77 35.5,77 
		36.5,75.75 36.75,74.25 36.75,72.75 36.25,71.5 35,68.75 33.75,66.25 	"/>
	<polygon class="st1" points="31.5,59 31.5,59 30.75,59.25 30.75,59.25 32.25,62.25 33,64.25 33,64.25 32.5,62.75 32.5,62.75 
		32.5,61 32.25,59.75 32,59.25 31.5,59 	"/>
	<polygon class="st1" points="32.5,54 32.5,54 31,54.25 30,54.25 30,54.25 27.75,54 27.75,54 27.25,55 26.75,56.25 26.75,56.25 
		27.25,55.5 28,55.25 29.5,55 31,54.75 31.75,54.5 32.5,54 	"/>
	<polygon class="st1" points="23.25,55 23.25,55 24.25,56 25,57 25.75,58 26.25,58.75 26.5,59.75 26.5,60.75 26.5,61.5 26.25,62.5 
		25.5,63.75 24.5,65 23,65.75 21.25,66 21.25,66 19.75,65.75 18.75,65.25 18,64.75 17.25,64.25 16.75,63.25 16,62.25 15.5,61 
		15.5,61 16,60.5 16.5,59.75 16.5,59 16.5,58.75 16,58.5 16,58.5 15.5,60 15.25,61.25 15.5,62.25 16,63.25 16.5,64.25 17.25,65 
		19.25,66.5 24,69.25 26.25,70.75 27.25,71.5 27.75,72.25 27.75,72.25 27.75,72.75 27.75,73 27,73.25 26.5,73.5 26.25,73.75 26,74 
		26,74 26.25,74 26.25,74 27.5,73.75 28.5,73.5 28.5,73.5 28.5,72.25 28,71.25 27.5,70.5 26.75,70 25,69.25 24.25,68.75 23.75,68 
		23.75,68 25,67.75 26,67.25 26.75,66.5 27.25,65.75 28.25,64.25 28.75,63.75 29.25,63.5 29.25,63.5 29.75,63.5 30.25,64 30.25,64 
		30.25,63.5 30,63 29,62.75 28.5,62.75 28,62.5 27.75,62.25 27.75,61.5 27.75,61.5 28,61.5 28,61.5 28.75,61.75 29,61.75 29,61.75 
		29.5,62 30,62.25 30,62.25 30.25,62.25 30.25,62.25 30.5,61.5 30.5,61 30.25,59.75 29.75,59 29.25,58.75 29.25,58.75 29.75,59.25 
		29.75,59.25 29.5,60.75 29.5,61.25 29,61.5 29,61.5 28,59.5 27,57.5 26.25,56.5 25.5,55.75 24.5,55.25 23.25,55 	"/>
	<polygon class="st1" points="23,58.5 23,58.5 21.75,58.75 20.75,59.5 20,60.25 19.5,61.5 19.5,61.5 20.25,62.5 21.25,63.5 22,64 
		23,64 23,64 23.75,64 24.75,63.5 25.5,62.75 26,61.5 26,61.5 25.25,61.25 24.25,60.75 23.75,60.5 23.5,60 23.5,59.5 23.75,58.5 
		23.75,58.5 23,58.5 	"/>
	<polygon class="st1" points="20.25,55.5 20.25,55.5 19.5,55.75 18.75,56 18,56.5 17.5,57 17,57.75 17,58.25 17.25,59 17.75,59.75 
		17.75,59.75 18.25,58.75 19,58 20,57.25 21,57 21,57 21.5,57.25 22,57.5 22,57.5 21.75,56.5 21.25,56 20.75,55.75 20.25,55.5 	"/>
	<polygon class="st1" points="12,71 12,71 11.75,72.25 11.75,72.5 11.25,72.75 11.25,72.75 11.25,72.5 10.75,72.25 10.75,72.25 
		10.25,72.5 10.25,72.75 10.25,72.75 10.75,73.25 11.5,73.25 11.5,73.25 12.5,73.25 13,72.75 13,72.75 13,73.25 13.25,73.5 
		14,73.75 14.5,74 14.75,74.25 14.75,74.5 14.75,74.5 15,74.5 15,74.5 15.75,74.5 16,74.25 16,74.25 16.5,74 17,74 17,74 17.25,74 
		17.25,74 18.25,73.75 18.25,73.75 18.25,73.5 16.75,73.25 16.75,73.25 15.5,73.5 15,73.75 14.75,74 14.75,74 14.5,73.5 14,73.25 
		14,73.25 13.75,73.5 13.75,73.5 13.25,72.75 13,72 12.5,71.25 12,71 	"/>
	<polygon class="st1" points="14.25,56.75 14.25,56.75 12.75,57 11.75,57.75 11,58.75 10.75,60.5 10.75,60.5 11.5,60.75 
		12.25,60.75 12.25,60.75 13,60.75 13.75,60.5 14,60.25 13.75,59.75 13.75,59.75 13,60.25 12.5,60.25 12.5,60.25 12,60.25 11.75,60 
		11.5,59.75 11.25,59.25 11.25,59.25 11.5,58.75 12,58.5 13,58.25 14,57.75 14.25,57.5 14.25,56.75 	"/>
	<polygon class="st1" points="8.25,75.75 8.25,75.75 8.25,76.5 8.25,76.5 8.25,75.75 	"/>
	<polygon class="st1" points="1.5,71.75 1.5,71.75 1,72 0.75,72.25 0.75,72.25 1.5,73.75 1.5,73.75 1.25,72.75 1.25,72.75 
		1.75,72.75 1.75,72.75 2.75,72.75 2.75,72.75 3.75,73 3.75,73 4.5,72.75 4.75,72.5 4.75,72.25 4.75,72.25 4,72.25 4,72.25 2.5,72 
		2.5,72 1.5,71.75 	"/>
	<polygon class="st1" points="1.5,73.75 1.5,73.75 2.25,74.5 2.25,74.5 1.5,73.75 	"/>
</g>
</svg>
