<?xml version="1.0" encoding="utf-8"?>
<!-- Generator: Adobe Illustrator 14.0.0, SVG Export Plug-In . SVG Version: 6.00 Build 43363)  -->
<!DOCTYPE svg PUBLIC "-//W3C//DTD SVG 1.1//EN" "http://www.w3.org/Graphics/SVG/1.1/DTD/svg11.dtd">
<svg version="1.1" id="Layer_1" xmlns="http://www.w3.org/2000/svg" xmlns:xlink="http://www.w3.org/1999/xlink" x="0px" y="0px"
	 width="612.117px" height="791.25px" viewBox="0 0 612.117 791.25" style="enable-background:new 0 0 612.117 791.25;"
	 xml:space="preserve">
<style type="text/css">
<![CDATA[
	.st0{fill:none;stroke:#FFFFFF;stroke-linecap:square;stroke-miterlimit:10;}
	.st1{fill:#BBE0E9;}
	.st2{fill:#CDF5FF;stroke:#BBE0E9;stroke-width:0.5;stroke-linecap:square;stroke-miterlimit:10;}
	.st3{fill:none;stroke:#BBE0E9;stroke-linecap:square;stroke-miterlimit:10;}
]]>
</style>
<g>
	<polygon class="st1" points="108.367,160 108.367,160 105.117,164.5 96.117,176.75 96.117,176.75 89.867,185.75 86.617,191 
		83.367,196.5 80.367,202.75 77.367,209.25 74.617,216.5 72.367,224 72.367,224 71.617,228 70.867,232 70.367,236.25 69.867,240.5 
		69.617,245 69.617,249.5 69.867,258.75 70.867,268.5 72.367,278.25 74.367,288.25 76.617,298.5 76.617,298.5 79.617,308.75 
		83.117,319.25 86.867,329.75 90.867,340.25 99.117,362 103.367,373 107.617,384.5 107.617,384.5 111.617,396 115.117,407.5 
		118.367,419.25 121.367,431 123.867,442.75 126.367,454.5 128.367,466 130.117,477.75 131.617,489.25 132.867,500.5 
		133.617,511.75 134.367,522.75 134.617,533.5 134.867,544.25 134.617,554.5 134.367,564.5 134.367,564.5 133.617,574.25 
		132.617,583.75 131.367,592.75 130.117,601.25 128.617,609.5 127.117,617 125.367,624 123.617,630.75 120.617,642.25 
		117.617,651.75 115.367,658.75 113.867,663.5 113.867,663.5 108.867,676.5 103.867,688.25 98.867,699 96.367,703.75 93.867,708 
		93.867,708 91.367,712 88.867,715.5 86.617,718.25 84.617,720.5 82.617,722.25 81.117,723.25 79.867,723.75 79.367,723.75 
		78.867,723.75 78.867,723.75 78.617,723.5 78.367,723 78.117,721.5 78.117,719.75 78.617,717.25 80.117,711 82.367,703 82.367,703 
		85.367,693.5 88.867,682.5 92.867,670.5 97.117,657.75 97.117,657.75 98.617,653.25 101.117,646.25 104.117,637.25 107.617,626.25 
		111.117,613.25 112.617,606 114.367,598.25 115.867,590.25 117.367,581.75 118.367,572.75 119.367,563.5 119.367,563.5 
		120.117,553.75 120.617,544 120.867,533.75 120.867,523.25 120.617,512.5 120.117,501.5 119.367,490.5 118.117,479.25 
		116.867,467.75 115.117,456.25 113.367,444.75 111.117,433.25 108.617,421.75 105.867,410 102.617,398.5 99.367,387.25 
		99.367,387.25 95.617,376 91.617,364.75 84.117,342.75 80.367,332 76.867,321 73.867,310.5 71.367,299.75 71.367,299.75 
		69.117,289.25 67.617,279 66.367,268.75 65.867,259 65.867,254 65.867,249.25 66.117,244.75 66.617,240.25 67.117,235.75 
		67.867,231.5 68.617,227.25 69.867,223.25 69.867,223.25 72.367,215.5 75.367,208.5 78.617,201.75 82.117,195.75 85.617,190.25 
		89.117,185 95.367,176.25 95.367,176.25 104.867,164.25 108.367,160 108.367,160 	"/>
	<polygon class="st2" points="78.617,751 78.617,751 79.367,754.25 79.867,757.25 80.367,758.75 81.117,760 81.867,761.25 
		82.867,762.5 82.867,762.5 80.617,762.25 78.367,761.5 76.617,760.25 74.867,758.75 73.867,757 73.367,755 73.117,753.75 
		73.117,752.75 73.367,751.75 73.867,750.5 73.867,750.5 74.617,748.75 75.617,747 76.617,745.5 77.867,744 79.117,742.75 
		80.617,741.75 82.367,740.75 84.117,740 84.117,740 85.867,739.5 87.617,739 89.367,739 91.117,739 92.617,739.25 94.117,739.5 
		95.617,740 97.117,740.75 99.867,742.5 102.367,744.75 104.617,747.5 106.617,750.75 106.617,750.75 107.617,753 108.367,755.25 
		108.867,757.5 109.117,759.75 109.117,762 108.867,764.25 108.617,766.5 108.117,768.75 107.367,771 106.617,773 105.617,775 
		104.617,776.75 103.617,778.5 102.117,780 100.867,781.5 99.367,782.75 99.367,782.75 96.617,785.25 93.617,787.25 90.617,788.75 
		87.367,789.75 83.867,790.25 80.367,790.5 76.867,790.25 73.117,789.75 73.117,789.75 69.367,789 65.867,788 62.117,786.5 
		58.617,784.5 55.367,782.5 52.367,780 49.367,777.25 46.867,774 46.867,774 45.367,771.5 44.117,768.75 42.867,766.25 
		42.117,763.25 41.367,760.5 40.867,757.5 40.867,754.75 40.617,751.75 40.867,748.75 41.367,746 41.867,743 42.617,740.25 
		43.367,737.5 44.617,735 45.867,732.25 47.117,730 47.117,730 49.367,726.75 51.867,724 54.617,721.25 57.367,719 60.367,717 
		63.617,715 66.867,713.5 70.367,712 73.867,711 77.617,709.75 81.367,709 85.367,708.25 93.367,707.25 101.367,706.5 
		101.367,706.5 94.617,706.25 87.867,706.25 81.367,707 78.367,707.5 75.117,708 72.117,709 69.117,710 66.367,711 63.617,712.5 
		60.867,714 58.117,716 55.617,718 53.117,720.25 53.117,720.25 50.617,723 48.367,725.75 46.367,729 44.617,732.25 43.117,735.75 
		41.867,739.25 40.867,742.75 40.367,746.5 39.867,750.25 39.867,754 40.367,757.75 40.867,761.25 41.867,765 43.367,768.5 
		45.117,772 47.367,775.5 47.367,775.5 49.617,778 51.867,780.25 54.367,782.5 56.867,784.25 59.617,786 62.367,787.25 
		65.367,788.5 68.367,789.5 71.367,790.25 74.367,790.75 77.367,791 80.617,791 83.617,790.75 86.367,790.25 89.367,789.5 
		92.117,788.5 92.117,788.5 94.367,787.75 96.367,786.5 98.117,785.25 99.867,784 101.617,782.5 103.117,780.75 104.367,779 
		105.617,777.25 106.867,775.25 107.617,773 108.367,770.75 109.117,768.5 109.617,766 109.867,763.5 109.867,761 109.867,758 
		109.867,758 109.367,755.5 108.617,753 107.367,750.75 106.117,748.75 104.617,746.75 102.867,745 100.867,743.25 98.867,742 
		96.617,741 94.117,740.25 91.617,739.75 89.117,739.5 86.617,739.5 84.117,740 81.617,741 79.117,742 79.117,742 77.617,743 
		76.367,744 75.367,745 74.617,746.25 73.867,747.5 73.117,748.75 72.867,750 72.617,751.25 72.617,752.75 72.617,754 72.867,755.5 
		73.367,756.75 74.117,758 74.867,759.25 75.867,760.5 77.117,761.5 77.117,761.5 78.867,762.75 79.867,763 80.867,763.25 
		81.617,763.5 82.617,763.25 83.617,762.75 84.617,762 84.617,762 82.867,760.75 81.367,759 80.367,757.25 79.617,755.25 
		78.867,752.25 78.617,751 78.617,751 	"/>
	<polygon class="st2" points="101.117,680.5 101.117,680.5 99.367,677.5 98.117,676.5 96.867,675.5 96.867,675.5 97.867,675.25 
		99.117,675.25 100.367,675.5 101.367,675.75 102.367,676.5 103.117,677.25 103.617,678.5 103.617,679.75 103.617,679.75 
		103.617,681.75 103.117,683.5 102.117,685.25 100.617,686.75 100.617,686.75 99.117,688 97.367,688.5 95.867,688.75 94.117,688.75 
		92.367,688.25 90.617,687.75 89.117,686.75 87.367,685.75 87.367,685.75 85.617,684 84.367,682 83.617,679.75 83.117,677.75 
		82.867,675.5 83.117,673.25 83.617,671 84.367,669 84.367,669 85.367,667 86.367,665.25 87.617,663.75 89.117,662.5 90.617,661.25 
		92.367,660.25 94.367,659.5 96.117,659 98.117,658.5 100.367,658.5 102.367,658.5 104.367,658.75 106.367,659.25 108.367,660 
		110.367,660.75 112.117,662 112.117,662 114.617,664 116.617,666.5 118.367,669 119.867,671.75 120.617,674.75 121.117,678 
		121.367,681 121.117,684.25 121.117,684.25 120.617,686.25 119.867,688.5 119.117,690.25 118.117,692.25 116.867,693.75 
		115.617,695.5 114.117,697 112.617,698.25 109.117,700.75 105.367,702.75 101.367,704.25 97.367,705.25 97.367,705.25 
		100.867,704.75 104.367,704 107.617,702.75 110.617,701.25 113.617,699.25 116.117,697 117.117,695.5 118.117,694 119.117,692.5 
		119.867,690.75 119.867,690.75 120.617,688.5 121.117,686.5 121.617,684.5 121.867,682.5 121.867,680.25 121.867,678.25 
		121.367,676.25 121.117,674.5 120.367,672.5 119.617,670.5 118.867,668.75 117.617,667.25 116.367,665.5 115.117,664 
		113.367,662.5 111.617,661.25 111.617,661.25 110.117,660.5 108.617,659.75 105.367,658.5 102.117,658 98.617,658.25 
		95.367,658.75 93.867,659.25 92.367,660 90.867,660.75 89.367,661.75 88.117,663 86.867,664.25 86.867,664.25 85.117,666.25 
		83.867,668.5 83.117,670.75 82.367,673.25 82.367,675.5 82.617,678 83.367,680.5 84.367,682.75 84.367,682.75 85.117,684 
		86.117,684.75 88.117,686.5 90.367,687.75 93.117,688.5 94.367,688.5 95.617,688.5 96.867,688.25 98.367,688 99.367,687.5 
		100.617,686.75 101.867,686 102.867,684.75 102.867,684.75 103.617,683.5 104.117,682 104.367,680.5 104.117,679 103.367,677.75 
		102.617,676.5 101.367,675.5 99.867,675 99.867,675 98.617,674.75 97.617,674.75 96.617,675.25 95.867,676.25 95.867,676.25 
		97.117,676.5 98.117,677 99.117,677.75 99.867,678.5 100.867,679.75 101.117,680.5 101.117,680.5 	"/>
	<polygon class="st2" points="102.617,640 102.617,640 101.367,638.25 100.367,637.5 99.617,637 99.617,637 100.367,636.75 
		101.117,636.75 101.867,636.75 102.617,637 103.117,637.5 103.617,638 104.117,638.75 104.117,639.5 104.117,639.5 104.367,640.75 
		103.867,642 103.367,643.25 102.617,644.25 102.617,644.25 101.617,645 100.617,645.5 99.367,645.75 98.367,645.75 97.117,645.5 
		96.117,645 93.867,644 93.867,644 92.617,642.75 91.867,641.75 91.117,640.25 90.617,639 90.367,637.5 90.367,636 90.617,634.5 
		91.117,633.25 91.117,633.25 91.617,632 92.117,630.75 93.117,629.75 93.867,628.75 94.867,628 95.867,627.5 98.367,626.5 
		101.117,626 103.617,626 106.367,626.5 107.867,627 109.117,627.75 109.117,627.75 110.617,629 112.117,630.5 113.367,632 
		114.367,633.75 115.117,635.75 115.617,637.75 115.867,639.75 115.867,641.75 115.867,641.75 115.117,644.5 114.117,647 
		112.617,649.25 110.867,651.25 108.617,653 106.367,654.25 103.867,655.5 101.117,656.25 101.117,656.25 103.367,655.75 
		105.617,655.25 107.867,654.25 109.617,653.25 111.617,651.75 113.117,650.25 114.367,648.25 115.367,646 115.367,646 
		116.117,643.25 116.117,640.5 116.117,638 115.367,635.5 114.367,633 112.867,630.75 110.867,629 108.617,627.25 108.617,627.25 
		106.617,626.25 104.367,625.75 102.117,625.5 99.867,625.75 97.867,626.25 95.867,627.25 94.117,628.5 92.617,630 92.617,630 
		91.617,631.5 90.867,633 90.367,634.5 90.117,636 90.117,637.5 90.367,639.25 90.867,640.75 91.867,642.25 91.867,642.25 
		92.867,643.5 94.367,644.5 95.867,645.25 97.617,645.5 99.367,645.5 101.117,645 102.617,644.25 103.867,642.75 103.867,642.75 
		104.367,641.75 104.617,641 104.617,640 104.367,639 104.117,638.25 103.367,637.5 102.367,637 101.367,636.5 101.367,636.5 
		100.617,636.5 100.117,636.5 99.367,636.75 99.117,637.5 99.117,637.5 99.867,637.75 100.617,638 101.617,638.75 102.617,640 
		102.617,640 	"/>
	<polygon class="st2" points="117.117,596.75 117.117,596.75 115.867,596 114.117,595.25 112.117,594.75 109.867,594.25 
		109.867,594.25 107.367,594 104.867,594 102.117,594.25 99.367,594.75 99.367,594.75 95.867,595.5 92.617,596.5 92.617,596.5 
		89.617,597.5 89.617,597.5 88.117,598.25 86.867,599 86.867,599 84.367,600.75 84.367,600.75 83.617,601.25 83.617,601.25 
		82.867,601.5 82.867,601.5 81.867,602.25 81.867,602.25 79.617,603.5 78.367,604 77.117,604 75.867,604 74.867,603.75 73.617,603 
		72.617,602 72.617,602 71.867,600.5 71.367,599 71.617,597.5 72.367,596.25 73.617,595 74.867,593.75 76.367,592.75 78.117,592 
		78.117,592 79.867,591 82.117,590.25 82.117,590.25 86.117,589.25 90.867,588.5 96.367,588.5 98.867,588.75 101.617,589 
		101.617,589 105.117,589.75 108.117,590.5 110.867,591.75 113.117,593.25 113.117,593.25 114.867,594.5 116.117,595.5 
		117.117,596.75 117.117,596.75 	"/>
	<polygon class="st2" points="119.367,598 119.367,598 117.117,597.5 115.867,597.25 114.117,597.25 114.117,597.25 112.367,597.5 
		110.617,597.75 106.867,599 106.867,599 104.617,600.25 102.367,601.25 102.367,601.25 100.617,602.5 100.617,602.5 98.867,604 
		98.867,604 97.367,605.5 97.367,605.5 96.867,606 96.867,606 96.367,606.5 96.367,606.5 95.867,607.25 95.867,607.25 
		94.367,608.25 93.617,608.75 92.867,609 92.117,609.25 91.117,609 90.367,608.75 89.367,608.25 89.367,608.25 88.617,607 
		88.117,606 88.117,605 88.367,604 88.867,602.75 89.617,601.75 91.617,600 91.617,600 92.867,599 94.117,598.25 94.117,598.25 
		96.867,597 100.117,595.75 103.867,595 107.617,594.75 107.617,594.75 110.117,594.75 112.367,595 114.367,595.5 116.117,596 
		116.117,596 117.617,596.75 118.617,597.25 119.367,598 119.367,598 	"/>
	<polygon class="st2" points="126.367,600.75 126.367,600.75 124.617,600.25 122.367,600.25 122.367,600.25 119.617,600.75 
		116.867,601.75 116.867,601.75 115.117,602.5 113.617,603.5 113.617,603.5 112.117,604.25 112.117,604.25 110.867,605.5 
		110.867,605.5 109.617,606.75 109.617,606.75 109.367,607 109.367,607 109.117,607.5 109.117,607.5 108.367,608 108.367,608 
		107.367,609 106.367,609.5 105.617,609.5 105.117,609.5 104.367,609.25 103.617,608.75 103.617,608.75 103.117,608 102.617,607.25 
		102.617,606.25 102.867,605.5 103.367,604.75 103.867,604 105.367,602.5 105.367,602.5 106.367,601.75 107.367,601 107.367,601 
		109.367,600 111.867,599.25 114.617,598.5 117.367,598.25 117.367,598.25 119.367,598.25 121.117,598.5 122.617,598.75 
		123.867,599.25 123.867,599.25 125.617,600.25 126.367,600.75 126.367,600.75 	"/>
	<polygon class="st2" points="131.867,602.25 131.867,602.25 130.867,602 129.367,601.75 129.367,601.75 127.617,602.25 
		125.617,602.75 125.617,602.75 123.617,604 122.617,604.75 121.617,605.5 121.617,605.5 120.867,606.25 120.867,606.25 
		120.867,606.5 120.867,606.5 120.617,606.75 120.617,606.75 120.367,607 120.367,607 119.617,607.75 118.867,608.25 
		117.867,608.25 117.117,607.75 117.117,607.75 116.617,607.25 116.367,606.75 116.367,606 116.617,605.5 117.367,604.5 
		118.117,603.5 118.117,603.5 119.367,602.5 119.367,602.5 120.867,601.75 122.367,601.25 124.117,600.75 126.117,600.5 
		126.117,600.5 128.367,600.75 130.367,601.25 130.367,601.25 131.367,601.75 131.867,602.25 131.867,602.25 	"/>
	<polygon class="st2" points="88.867,711.5 88.867,711.5 90.867,710.25 93.367,708.25 96.117,705.5 98.617,702.5 98.617,702.5 
		101.117,699 103.117,695 104.617,690.75 105.867,686.25 105.867,686.25 106.117,684 106.367,681.75 106.117,677.5 105.617,673.75 
		104.867,670 103.617,667 102.617,664.25 100.617,660.5 100.617,660.5 99.367,658.5 98.367,657.25 97.117,656.25 97.117,656.25 
		95.617,655 94.117,654 92.617,653 91.617,651.75 91.617,651.75 91.117,651 91.117,650 91.367,649 91.617,648 92.367,647 
		93.367,646.25 94.867,645.25 96.617,644.5 96.617,644.5 98.617,644 100.867,643.75 103.367,644 106.117,644.5 108.617,645.75 
		111.117,647.5 112.367,648.5 113.367,649.75 114.367,651 115.367,652.5 115.367,652.5 116.617,655.25 117.867,659 118.367,661.25 
		118.867,663.75 119.117,666.5 119.117,669.5 119.117,669.5 119.117,672.5 118.867,675.5 118.367,678.5 117.617,681.75 
		116.617,684.75 115.617,687.75 114.117,690.75 112.617,693.5 112.617,693.5 110.867,696 109.117,698.25 107.117,700.5 
		105.117,702.25 101.117,705.5 97.117,708.25 97.117,708.25 93.867,710 91.117,711 88.867,711.5 88.867,711.5 	"/>
	<polygon class="st2" points="37.867,646 37.867,646 40.367,648.25 42.117,649.5 44.117,650.75 44.117,650.75 46.367,652 
		49.117,653 51.867,653.5 54.617,654 54.617,654 57.617,654 60.367,653.75 62.867,653.25 65.117,652.5 67.117,651.75 68.617,650.75 
		71.117,649.5 71.117,649.5 72.367,648.5 73.867,647 73.867,647 74.867,645.25 75.617,644.25 76.367,643.5 76.367,643.5 
		76.867,643.25 77.617,643.25 78.117,643.25 78.867,643.5 79.617,643.75 80.117,644.5 80.867,645.25 81.367,646.25 81.367,646.25 
		81.867,647.5 81.867,648.75 81.867,650.25 81.367,652 80.867,653.75 79.617,655.25 78.367,656.75 76.617,658 76.617,658 
		74.867,658.75 72.367,659.75 69.367,660.5 65.867,661.25 65.867,661.25 62.117,661.25 58.117,660.75 54.117,660 50.617,658.5 
		50.617,658.5 47.367,656.75 44.617,654.75 42.117,652.5 40.617,650.5 40.617,650.5 39.367,648.75 38.617,647.25 37.867,646 
		37.867,646 	"/>
	<polygon class="st2" points="121.867,600.75 121.867,600.75 121.617,600.75 120.867,600 117.867,597.75 115.867,596.25 
		113.367,594.75 110.367,593.25 106.867,591.5 106.867,591.5 103.117,590.25 98.867,589 94.367,588.25 89.617,588 84.617,588 
		79.617,588.5 74.617,589.25 69.867,590.75 69.867,590.75 65.367,592.5 61.117,594.5 57.117,596.75 53.617,599.5 53.617,599.5 
		52.367,600.75 51.367,602.25 50.617,603.75 50.117,605.5 49.867,607 49.617,608.75 49.867,610.25 50.117,612 50.117,612 
		50.617,613.25 51.117,614.75 52.617,617.25 54.117,619 54.867,619.5 55.367,620 55.367,620 56.617,620.25 57.617,620.5 
		58.617,620.25 58.617,620.25 59.617,620.5 60.367,620.75 61.367,621.25 62.367,622 62.367,622 62.867,622.5 62.867,623 
		62.867,623.5 62.867,624 62.367,624.75 61.867,625.25 61.117,625.5 60.117,625.75 60.117,625.75 59.617,626 58.117,626 
		55.617,625.75 54.367,625.25 52.867,624.75 52.867,624.75 51.367,623.5 49.867,622.5 48.617,621 47.617,619.75 46.617,618 
		45.867,616.25 44.617,612.5 44.617,612.5 44.117,610.5 44.117,608.25 44.367,606.25 44.867,604 45.617,602 46.867,600 48.117,598 
		49.867,596.25 49.867,596.25 53.867,593.5 58.367,591 63.117,589 68.367,587.25 68.367,587.25 73.617,585.75 78.867,585 
		84.367,584.75 89.617,584.75 94.867,585.5 99.617,586.5 103.867,587.75 107.867,589.5 107.867,589.5 111.367,591.25 
		114.367,593.25 116.867,595 118.867,596.75 120.117,598.5 121.367,599.75 121.867,600.75 121.867,600.75 	"/>
	<polygon class="st2" points="21.367,612 21.367,612 22.367,612 23.617,612.25 24.867,612.75 26.117,613.75 27.117,614.5 
		27.867,615.75 28.367,617 28.367,618.25 28.367,618.25 27.367,623.75 26.617,626 26.117,627.75 26.117,627.75 24.617,630.25 
		23.867,631.25 23.117,632 21.117,633 18.617,634 18.617,634 16.617,634.5 14.117,635 8.367,636 0.867,636.75 0.867,636.75 
		1.867,636 4.117,634 5.367,632.5 6.367,631 7.367,629.5 7.867,628 7.867,628 8.367,625.5 9.367,622.5 10.367,619.75 11.117,618.5 
		11.867,617.75 11.867,617.75 14.117,615 15.367,614.25 16.367,613.5 17.367,613 18.617,612.75 21.367,612 21.367,612 	"/>
	<polygon class="st2" points="31.117,601.75 31.117,601.75 32.117,602 32.867,602.75 33.367,603.5 33.867,604.5 34.117,605.5 
		34.117,606.5 33.867,607.25 33.117,608.25 33.117,608.25 29.617,611 26.617,613.25 26.617,613.25 24.617,614.25 22.617,614.5 
		20.617,614.5 18.117,614.25 18.117,614.25 14.617,613 9.867,611.5 3.867,609.25 3.867,609.25 4.867,609.25 7.617,608.75 
		10.617,607.75 12.117,607.25 13.117,606.5 13.117,606.5 16.867,603.75 19.117,602.5 21.367,601.75 21.367,601.75 24.367,601 
		26.867,600.75 28.867,601 31.117,601.75 31.117,601.75 	"/>
	<polygon class="st2" points="36.617,595.25 36.617,595.25 37.117,595.5 37.617,596.25 37.867,596.75 38.117,597.75 38.117,598.5 
		37.867,599.25 37.367,600 36.617,600.5 36.617,600.5 33.117,602.25 30.117,603.25 30.117,603.25 28.117,603.75 26.367,603.75 
		24.617,603.25 22.867,602.75 22.867,602.75 20.117,601.25 16.367,599.25 11.867,596.75 11.867,596.75 15.117,597 17.867,596.75 
		19.367,596.5 20.367,596.25 20.367,596.25 24.117,594.5 26.367,594 28.367,593.75 28.367,593.75 31.117,593.5 33.117,593.75 
		34.867,594.25 36.617,595.25 36.617,595.25 	"/>
	<polygon class="st2" points="118.617,703.5 118.617,703.5 115.617,705 112.617,706 109.367,706.5 106.367,706.5 103.117,706.25 
		100.117,705.75 97.117,705 94.117,703.75 91.367,702 88.867,700.25 86.617,698.25 84.617,695.75 83.117,693.25 81.867,690.25 
		80.867,687.25 80.617,684 80.617,684 80.617,681 81.117,678.25 81.617,675.5 82.617,673 83.617,670.75 85.117,668.5 86.867,666.5 
		89.117,664.5 89.117,664.5 91.867,663 94.617,661.75 97.367,660.75 100.367,660.25 103.367,660.25 106.117,660.5 108.867,661.5 
		110.367,662.25 111.617,663 111.617,663 113.367,664.75 115.117,666.5 116.617,668.75 117.617,670.75 118.617,673.25 
		118.867,675.5 118.867,678.25 118.117,681 118.117,681 118.617,678.5 118.617,676.25 118.117,674.25 117.617,672.25 
		116.617,670.25 115.617,668.5 114.367,666.75 112.867,665.5 111.117,664.25 109.367,663 107.617,662.25 105.617,661.5 103.617,661 
		101.617,660.75 99.367,660.75 97.367,661 97.367,661 94.867,662 92.367,663.25 90.367,664.5 88.367,666.25 86.617,668 
		85.117,670.25 83.867,672.25 82.867,674.5 82.117,677 81.617,679.5 81.367,682 81.367,684.5 81.867,687 82.617,689.5 83.617,692 
		84.867,694.25 84.867,694.25 86.617,696.75 88.367,698.75 90.367,700.5 92.617,702 94.867,703.25 97.367,704.25 99.867,705 
		102.367,705.5 104.867,705.75 107.617,705.75 110.117,705.5 112.867,704.75 115.367,704 117.867,702.75 120.117,701.25 
		122.617,699.5 122.617,699.5 124.867,697.5 126.867,695.25 128.367,693 129.867,690.5 131.117,687.75 131.867,685 132.617,682.25 
		132.867,679.25 132.867,676.5 132.867,673.5 132.367,670.75 131.617,668 130.617,665.25 129.367,662.5 127.867,660 126.367,657.75 
		126.367,657.75 123.617,655.25 120.867,653 118.117,651.25 114.867,649.75 111.617,648.5 108.367,647.75 104.867,647.25 
		101.617,647.25 98.117,647.5 94.867,648 91.617,648.75 88.367,650 85.367,651.5 82.617,653.5 79.867,655.5 77.617,658 77.617,658 
		80.117,656 82.867,654.25 85.867,652.75 88.867,651.5 92.117,650.5 95.367,649.75 98.617,649.25 101.867,649.25 105.117,649.5 
		108.117,650 111.367,651 114.367,652.25 117.367,653.75 119.867,655.75 122.367,658.25 124.867,661 124.867,661 126.367,663.25 
		127.617,666 128.367,668.75 129.117,671.5 129.367,674.5 129.367,677.5 129.117,680.25 128.617,683.25 127.867,686 126.617,688.5 
		125.117,691 123.617,693.25 121.617,695.25 119.367,697 116.867,698.5 113.867,699.5 113.867,699.5 116.117,698.5 118.117,697.25 
		119.867,695.75 121.617,694.25 123.367,692.5 124.617,690.5 126.117,688.5 127.367,686.5 127.367,686.5 128.117,684 
		128.617,681.75 128.867,679.25 129.117,677 129.117,674.75 128.867,672.25 128.367,670 127.617,668 126.867,665.75 125.867,663.75 
		124.867,662 123.617,660.25 122.117,658.5 120.367,657 118.617,655.5 116.617,654.25 116.617,654.25 113.367,652.5 110.117,651.25 
		106.867,650.5 103.367,650 100.117,650 96.867,650.25 93.617,651 90.367,652 87.367,653.25 84.617,655 81.867,657 79.367,659 
		76.867,661.5 74.867,664.25 73.117,667 71.617,670 71.617,670 70.617,673 69.867,676.25 69.617,679.25 69.367,682.5 69.617,685.5 
		69.867,688.5 70.617,691.75 71.367,694.5 71.367,694.5 72.617,697.25 73.867,700 75.617,702.5 77.367,705.25 79.117,707.75 
		81.367,710 83.867,712.25 86.367,714.5 86.367,714.5 83.617,713.5 80.867,712.25 80.867,712.25 78.617,711.25 76.617,709.75 
		74.617,708.25 72.867,706.5 71.367,704.75 70.117,703 69.117,701 68.117,699 68.117,699 67.617,697.5 67.367,696.25 66.617,693.75 
		66.617,693.75 66.367,690.75 66.617,687.75 66.617,687.75 66.367,685.25 66.367,682.75 66.367,680.25 66.617,677.75 66.867,675.25 
		67.617,673 68.117,670.75 68.867,668.5 71.117,664 73.617,660 76.617,656.25 80.367,652.75 80.367,652.75 82.367,651.25 
		84.617,650 86.617,649 89.117,648 91.367,647.25 93.867,646.5 96.117,646 98.617,645.75 101.117,645.5 103.617,645.5 
		106.117,645.75 108.617,646 111.117,646.75 113.617,647.25 115.867,648.25 118.367,649.25 118.367,649.25 121.617,651.25 
		124.367,653.75 126.867,656.5 129.117,659.5 130.867,662.75 132.117,666.25 133.117,670 133.617,673.5 133.867,677.25 133.367,681 
		132.867,684.75 131.617,688.25 130.117,691.75 128.117,695 125.867,698 122.867,700.5 122.867,700.5 120.867,702.25 118.617,703.5 
		118.617,703.5 	"/>
	<polygon class="st2" points="145.117,623.25 145.117,623.25 144.867,621.75 144.617,620 144.617,617.75 144.867,615.25 
		144.867,615.25 145.367,612.5 146.117,609.75 147.117,607 148.117,604.25 148.117,604.25 149.867,600.5 151.867,597.25 
		151.867,597.25 153.867,594.5 153.867,594.5 154.867,593 156.117,591.5 156.117,591.5 158.367,589.25 158.367,589.25 
		159.117,588.25 159.117,588.25 159.867,587.75 159.867,587.75 160.867,586.75 160.867,586.75 161.867,585.5 162.867,584.5 
		163.367,583.25 163.867,581.75 164.117,580.5 164.117,579 163.617,577.75 162.617,576.25 162.617,576.25 161.867,575.5 
		161.117,575 160.367,574.5 159.617,574.25 158.867,574.25 157.867,574.5 156.367,575 154.617,576 153.117,577.25 151.617,578.75 
		150.367,580.5 150.367,580.5 149.117,582.25 147.617,584.5 147.617,584.5 145.617,588.75 143.867,593.75 142.617,599.5 
		142.117,602.25 141.867,605.25 141.867,605.25 141.617,609 141.867,612.5 142.367,615.75 142.867,618.25 142.867,618.25 
		143.617,620.5 144.367,622 145.117,623.25 145.117,623.25 	"/>
	<polygon class="st2" points="145.617,626.25 145.617,626.25 145.867,623.75 146.117,622.25 146.617,620.5 146.617,620.5 
		147.367,618.75 148.367,616.75 150.617,613.25 150.617,613.25 152.367,611 154.117,609 154.117,609 155.867,607.5 155.867,607.5 
		156.867,606.5 157.867,606 157.867,606 159.867,604.75 159.867,604.75 160.617,604.25 160.617,604.25 161.117,604 161.117,604 
		162.117,603.5 162.117,603.5 163.617,602.25 164.367,601.5 164.867,600.75 165.117,599.75 165.367,598.75 165.367,597.75 
		164.867,596.75 164.867,596.75 164.117,595.5 163.117,594.75 162.117,594.25 160.867,594.5 159.617,594.75 158.367,595.25 
		155.867,597 155.867,597 154.617,598 153.367,599.25 153.367,599.25 151.117,602 149.117,605.25 147.367,609 146.117,612.75 
		146.117,612.75 145.367,615.5 144.867,618 144.867,620.25 144.867,622.25 144.867,622.25 145.117,624 145.367,625.25 
		145.617,626.25 145.617,626.25 	"/>
	<polygon class="st2" points="146.117,634.25 146.117,634.25 146.367,632.5 146.867,630 146.867,630 148.117,627.25 150.117,624.75 
		150.117,624.75 151.367,623 152.867,621.5 152.867,621.5 154.117,620.5 154.117,620.5 155.617,619.25 155.617,619.25 
		157.117,618.5 157.117,618.5 157.617,618.25 157.617,618.25 158.117,618 158.117,618 158.867,617.5 158.867,617.5 160.117,616.75 
		161.117,615.75 161.367,615 161.367,614.25 161.367,613.5 161.117,612.75 161.117,612.75 160.617,611.75 159.867,611.25 
		159.117,610.75 158.117,610.75 157.117,611 156.117,611.5 154.367,612.75 154.367,612.75 153.367,613.5 152.367,614.25 
		152.367,614.25 150.867,616.25 149.117,618.5 147.867,621.25 146.617,624.25 146.617,624.25 146.117,626.25 145.617,628 
		145.617,629.75 145.617,631.25 145.617,631.25 145.867,633.5 146.117,634.25 146.117,634.25 	"/>
	<polygon class="st2" points="145.617,640.5 145.617,640.5 145.617,639.25 146.117,637.75 146.117,637.75 147.117,636 
		148.117,634.25 148.117,634.25 150.117,632.25 150.867,631.5 150.867,631.5 151.867,631 151.867,631 152.867,630.5 152.867,630.5 
		153.367,630.25 153.367,630.25 153.617,630.25 153.617,630.25 154.117,630 154.117,630 154.867,629.5 155.617,628.75 
		155.867,627.75 155.617,626.75 155.617,626.75 155.367,626.25 154.867,625.75 154.367,625.5 153.867,625.5 152.617,626 
		151.367,626.5 151.367,626.5 149.867,627.5 149.867,627.5 148.867,628.75 147.867,630.25 146.867,632 146.117,634 146.117,634 
		145.367,636.5 145.117,638.5 145.117,638.5 145.367,640 145.617,640.5 145.617,640.5 	"/>
	<polygon class="st2" points="137.367,678.5 137.367,678.5 136.867,679.5 135.367,682.5 134.617,684.5 133.867,687.25 
		133.117,690.25 132.617,693.5 132.617,693.5 132.367,696 132.367,698.5 132.367,698.5 132.617,701 133.117,703.5 133.117,703.5 
		134.117,709 135.617,714.75 136.617,717.75 137.617,720.5 139.117,723.25 140.617,726 142.117,728.25 144.117,730.5 
		146.117,732.25 148.367,733.75 151.117,735 153.867,735.5 156.867,735.75 160.117,735.5 161.617,735.25 162.117,735 162.367,735 
		162.367,735 162.367,735 163.117,733.25 163.117,733.25 163.117,733.25 163.367,733.25 163.617,733.25 163.617,733.25 
		166.367,732.5 166.367,732.5 168.867,731.5 171.117,730.5 171.117,730.5 173.367,729 175.367,727.25 177.117,725.5 178.867,723.25 
		178.867,723.25 180.367,721 181.367,718.5 182.367,716 182.867,713.5 183.117,710.75 183.117,708 182.867,705 182.117,702.25 
		182.117,702.25 181.117,700 179.617,697.75 178.117,695.75 176.117,694.25 174.117,693 171.867,692 169.617,691.25 167.117,691 
		167.117,691 165.367,691 163.867,691.25 162.617,691.75 161.117,692.25 158.617,693.75 156.117,695.5 153.867,697.5 151.867,700 
		147.867,704.5 147.867,704.5 146.867,703.25 146.367,701.75 146.117,700.25 145.867,698.75 146.117,697.25 146.367,695.75 
		146.867,694.25 147.617,692.75 149.617,690 151.867,687.5 154.367,685.25 156.867,683.25 156.867,683.25 159.617,682 162.367,681 
		165.117,680.25 167.867,680 170.867,680 173.617,680.25 176.367,681 178.867,682 181.367,683.25 183.617,684.75 185.867,686.5 
		187.867,688.75 189.617,691 191.117,693.5 192.367,696.25 193.117,699.25 193.117,699.25 194.117,704 194.367,707.25 
		194.367,707.25 194.367,709.75 193.867,712 193.867,712 193.617,714 192.367,717.25 192.367,717.25 190.867,720.5 188.867,723.5 
		186.867,726.5 184.367,729 181.867,731.25 179.117,733.25 176.367,735 173.367,736.5 172.367,736.75 172.117,736.75 172.117,737 
		171.867,737 171.867,737 171.867,737 171.117,738.75 171.117,738.75 170.867,739 169.117,739.75 169.117,739.75 165.617,741.25 
		165.617,741.25 161.867,742 158.367,742.5 158.367,742.5 155.117,742.5 151.867,741.75 148.617,740.75 145.617,739.25 
		145.617,739.25 143.117,737.25 141.117,735.5 141.117,735.5 139.117,733.25 137.367,731 137.367,731 135.867,728.5 134.617,726 
		133.367,723.25 133.117,721.75 132.867,720 132.867,720 131.617,717.5 130.867,715.25 130.117,712.75 129.617,710.5 129.617,710.5 
		128.867,705.75 128.867,701.25 129.367,697 130.117,693 130.117,693 131.117,689.75 132.367,686.75 133.617,684.25 134.867,682 
		136.867,679.25 137.367,678.5 137.367,678.5 	"/>
	<polygon class="st2" points="87.867,712.5 87.867,712.5 85.117,712.75 84.867,712.75 85.117,712.75 85.867,712.5 89.617,711.5 
		94.367,710.25 94.367,710.25 96.617,709.25 98.617,708.25 101.117,707 101.117,707 106.117,704.5 108.867,703 111.367,701.25 
		111.367,701.25 116.117,697.75 118.617,695.5 121.367,693.25 123.867,690.75 126.367,687.75 128.867,684.75 131.117,681.5 
		131.117,681.5 134.367,676 137.367,670.25 138.617,667 139.867,663.75 140.867,660.25 141.867,657 142.617,653.5 143.117,649.75 
		143.617,646 143.617,642.25 143.867,638.5 143.617,634.75 143.117,631 142.617,627 142.617,627 141.867,623.25 140.867,619.5 
		139.617,615.75 138.117,612.25 136.617,608.75 134.617,605.5 132.367,602.25 129.867,599.5 127.367,596.5 124.617,594 
		121.617,591.75 118.617,589.5 115.367,587.5 111.867,586 108.367,584.5 104.617,583.5 104.617,583.5 100.867,582.75 97.117,582 
		93.367,581.5 89.617,581.25 85.867,581.25 82.117,581.5 78.367,581.75 74.867,582.5 71.117,583 67.867,584 64.367,585 
		61.117,586.25 58.117,587.75 55.117,589.25 52.617,590.75 50.117,592.5 50.117,592.5 47.617,594.5 45.367,596.5 43.617,598.5 
		41.867,600.75 40.367,603 39.117,605.5 38.117,608 37.117,610.5 36.617,613 36.117,615.5 35.867,618 35.617,620.75 35.617,623.25 
		35.867,625.75 36.367,628.25 36.867,630.75 36.867,630.75 37.617,633.25 38.617,635.75 39.367,637.75 40.617,640 43.117,643.75 
		45.867,647.25 49.117,650.25 52.117,652.75 55.367,654.5 58.367,656 58.367,656 61.367,657.25 63.867,658 66.367,658.5 
		68.117,658.75 71.117,659 72.367,659 72.367,659 75.867,659.25 78.867,659.75 80.117,660.25 81.117,661 81.867,661.75 
		82.367,662.5 82.367,662.5 82.367,663.5 82.117,664.5 81.367,665.5 80.117,666.5 78.617,667.25 76.867,668 74.867,668.25 
		72.617,668.5 72.617,668.5 70.617,668.5 69.117,668.5 67.117,668 67.117,668 64.367,667.75 61.367,667.25 58.117,666 
		54.617,664.25 54.617,664.25 53.617,664 52.617,663.75 50.867,662.75 46.867,659.75 46.867,659.75 44.867,658.25 42.867,656.5 
		39.117,652.75 39.117,652.75 37.367,650.5 35.617,648.25 34.117,645.75 32.617,643.25 31.117,640.5 30.117,637.75 29.117,635 
		28.367,632 28.367,632 27.617,629 27.367,626 27.117,623 26.867,620 27.117,617 27.617,613.75 28.117,610.75 29.117,608 
		30.117,605 31.367,602.25 32.867,599.5 34.617,596.75 36.617,594.25 38.867,592 41.617,589.75 44.367,587.5 44.367,587.5 
		47.367,585.5 50.617,583.75 53.867,582 57.367,580.5 61.117,579.25 64.867,578 68.867,577 72.867,576.25 77.117,575.5 81.117,575 
		85.367,574.75 89.617,574.75 93.867,575 98.117,575.5 102.367,576.25 106.367,577.25 106.367,577.25 110.617,578.5 114.617,580 
		118.367,581.75 121.867,584 125.367,586.25 128.617,589 131.867,592 134.617,595 137.117,598.5 139.617,602 141.617,605.5 
		143.617,609.5 145.117,613.5 146.367,617.5 147.367,621.5 148.117,625.75 148.117,625.75 148.617,630 148.867,634.25 
		148.867,638.25 148.867,642.5 148.367,646.5 147.867,650.25 147.117,654.25 146.367,658 145.117,661.75 143.867,665.25 
		142.617,668.75 141.117,672 139.617,675.25 137.867,678.25 136.117,681 134.117,683.75 134.117,683.75 131.617,687 128.867,690.25 
		126.117,693 123.367,695.75 120.617,698 117.867,700 112.617,703.5 112.617,703.5 107.117,706.5 101.617,709 97.117,710.75 
		94.617,711.5 94.617,711.5 89.617,712.5 86.117,713 85.117,713 87.867,712.5 87.867,712.5 	"/>
	<polyline class="st3" points="181.867,342.25 181.867,342.25 177.867,345.25 173.367,348.25 169.117,350.75 164.617,353 
		160.117,355 155.367,357 150.617,358.5 145.867,359.75 141.117,361 136.367,361.75 131.617,362.5 126.617,362.75 121.867,363 
		117.117,363 112.117,362.75 107.367,362 102.617,361.25 97.867,360.25 93.117,359.25 88.617,357.75 83.867,356 79.367,354.25 
		75.117,352 70.617,349.75 66.617,347.25 62.367,344.5 58.367,341.5 54.617,338.25 50.867,334.75 47.367,331.25 43.867,327.5 
		40.617,323.25 40.617,323.25 38.117,320 35.867,316.5 33.867,313 32.117,309.5 30.367,305.75 28.867,302 27.617,298.25 
		26.617,294.5 25.617,290.75 25.117,287 24.617,283 24.117,279.25 24.117,275.25 24.117,271.5 24.367,267.5 24.867,263.75 
		25.367,259.75 26.117,256 27.117,252.25 28.367,248.5 29.617,245 31.117,241.5 32.867,237.75 34.617,234.5 36.617,231 
		38.867,227.75 41.367,224.5 43.867,221.5 46.617,218.5 49.367,215.75 52.617,213 55.867,210.25 55.867,210.25 58.367,208.25 
		61.117,206.5 64.117,205 66.867,203.5 69.867,202.25 72.867,201 75.867,200 78.867,199 81.867,198.5 84.867,197.75 88.117,197.5 
		91.117,197.25 97.367,197 103.617,197.75 109.617,198.75 115.617,200.5 118.617,201.5 121.367,202.75 124.117,204 126.867,205.5 
		129.617,207.25 132.367,209 134.867,210.75 137.367,213 139.617,215 141.867,217.5 144.117,219.75 146.117,222.5 146.117,222.5 
		149.117,226.75 151.617,231.25 153.617,236 155.117,240.75 156.117,245.75 156.617,250.75 156.867,255.75 156.367,260.5 
		155.367,265.5 154.117,270.25 152.367,275 150.117,279.25 147.367,283.75 144.117,287.75 140.617,291.5 136.617,294.75 
		136.617,294.75 133.117,297.25 129.367,299.25 125.617,300.75 121.867,302 117.867,302.75 113.867,303.25 109.867,303.25 
		105.867,303 102.117,302.25 98.367,301 94.617,299.75 90.867,297.75 87.617,295.75 84.367,293.25 81.367,290.25 78.617,287 
		78.617,287 76.617,284.25 75.117,281.25 73.867,278.25 72.867,275.25 72.367,272 71.867,269 71.867,265.75 72.117,262.5 
		72.617,259.5 73.617,256.5 74.867,253.5 76.117,250.5 77.867,247.75 79.867,245.25 82.367,243 84.867,240.75 84.867,240.75 
		87.117,239.25 89.367,238 91.867,237 94.367,236.25 96.867,235.5 99.367,235.25 101.867,235.25 104.367,235.5 106.867,236 
		109.367,236.75 111.617,237.5 114.117,238.75 116.117,240.25 118.117,241.75 120.117,243.5 121.867,245.75 121.867,245.75 
		123.117,247.5 124.117,249.25 124.867,251.25 125.617,253.25 125.867,255.25 126.117,257.25 126.117,259.25 126.117,261.25 
		125.617,263.25 125.117,265.25 124.367,267.25 123.367,269 122.367,270.75 121.117,272.5 119.617,274 117.867,275.25 
		117.867,275.25 116.617,276.25 115.117,277 113.367,277.75 111.867,278.25 110.367,278.5 108.617,278.75 107.117,278.75 
		105.367,278.75 103.867,278.25 102.367,278 100.617,277.25 99.367,276.5 97.867,275.75 96.617,274.75 95.367,273.5 94.117,272.25 
		94.117,272.25 92.867,269.75 91.867,267.25 91.367,264.75 91.617,262.25 92.117,259.5 93.117,257.25 94.867,255 96.867,253.25 	"/>
	<polyline class="st3" points="9.617,418.75 9.617,418.75 12.617,415.75 15.617,413 18.867,410.5 22.117,408 25.367,406 28.867,404 
		32.367,402 36.117,400.5 39.617,399 43.367,397.75 47.117,396.75 50.867,395.75 54.617,395 58.617,394.5 62.367,394.25 66.367,394 
		70.117,394 74.117,394.25 77.867,394.5 81.617,395.25 85.617,396 89.367,396.75 93.117,398 96.867,399.25 100.367,400.75 
		104.117,402.5 107.617,404.5 110.867,406.5 114.367,408.75 117.617,411.25 120.867,413.75 123.867,416.5 123.867,416.5 
		126.117,419 128.367,421.5 130.367,424 132.367,426.5 134.117,429.25 135.617,432 137.117,434.75 138.367,437.75 139.617,440.5 
		140.617,443.5 141.367,446.5 142.117,449.5 143.117,455.75 143.617,462 143.367,468 142.617,474.25 142.117,477.25 141.367,480.25 
		140.367,483.25 139.367,486.25 138.117,489.25 136.867,492 135.367,495 133.617,497.75 131.867,500.25 129.867,503 127.867,505.5 
		125.617,508 125.617,508 121.617,511.5 117.617,514.75 113.117,517.5 108.617,519.5 103.867,521.25 99.117,522.5 94.117,523.5 
		89.367,523.75 84.367,523.5 79.367,523 74.617,522 69.867,520.25 65.117,518.25 60.617,515.75 56.367,512.75 52.367,509.25 
		52.367,509.25 49.617,506.25 47.117,503 44.867,499.5 43.117,495.75 41.617,492 40.617,488.25 40.117,484.25 39.867,480.25 
		39.867,476.25 40.367,472.5 41.367,468.5 42.617,464.75 44.117,461 46.117,457.5 48.617,454 51.367,450.75 51.367,450.75 
		53.867,448.5 56.367,446.5 59.367,444.75 62.117,443.25 65.117,442.25 68.367,441.5 71.367,441 74.617,440.75 77.617,440.75 
		80.867,441.25 84.117,442 87.117,443 90.117,444.25 92.867,445.75 95.617,447.75 98.117,450 98.117,450 99.867,452 101.617,454 
		102.867,456.25 104.117,458.5 105.117,461 105.617,463.5 106.117,466 106.117,468.5 106.117,471 105.867,473.5 105.367,476 
		104.367,478.5 103.367,480.75 102.117,483.25 100.617,485.25 98.867,487.25 98.867,487.25 97.367,488.75 95.617,490.25 
		93.867,491.25 91.867,492.25 90.117,492.75 88.117,493.5 86.117,493.75 83.867,493.75 81.867,493.75 79.867,493.5 77.867,493 
		75.867,492.5 74.117,491.5 72.367,490.5 70.617,489.25 68.867,488 68.867,488 67.617,486.75 66.617,485.25 65.867,484 
		65.117,482.5 64.617,480.75 64.117,479.25 63.867,477.75 63.617,476 63.867,474.5 63.867,472.75 64.367,471.25 64.867,469.75 
		65.617,468.25 66.367,466.75 67.367,465.25 68.367,464 68.367,464 70.617,462.25 72.867,461 75.367,460.25 77.867,459.75 
		80.617,460 83.117,460.75 85.367,462 87.617,463.5 87.617,463.5 89.117,465.25 90.117,467.25 90.617,469.25 90.867,471.25 
		90.867,473.25 90.117,475.25 89.367,477.25 87.867,479 	"/>
	<polyline class="st0" points="611.617,0.5 611.617,0.5 611.367,0.5 	"/>
</g>
</svg>
