<?xml version="1.0" encoding="utf-8"?>
<!-- Generator: Adobe Illustrator 14.0.0, SVG Export Plug-In . SVG Version: 6.00 Build 43363)  -->
<!DOCTYPE svg PUBLIC "-//W3C//DTD SVG 1.1//EN" "http://www.w3.org/Graphics/SVG/1.1/DTD/svg11.dtd">
<svg version="1.1" id="Layer_1" xmlns="http://www.w3.org/2000/svg" xmlns:xlink="http://www.w3.org/1999/xlink" x="0px" y="0px"
	 width="302.25px" height="394.25px" viewBox="0 0 302.25 394.25" style="enable-background:new 0 0 302.25 394.25;"
	 xml:space="preserve">
<style type="text/css">
<![CDATA[
	.st0{fill:#E1E8E8;}
	.st1{fill:#E4EAEB;}
	.st2{fill:#E5EBEB;}
	.st3{fill:#E6ECEC;}
	.st4{fill:#E7EDED;}
	.st5{fill:#E8EDEE;}
	.st6{fill:#ECF0F0;}
	.st7{fill:#EDF1F1;}
	.st8{fill:#D7E0E1;}
	.st9{fill:#D8E1E1;}
	.st10{fill:#D8E1E2;}
	.st11{fill:#D9E1E2;}
	.st12{fill:#DAE2E3;}
	.st13{fill:#DBE3E3;}
	.st14{fill:#DBE3E4;}
	.st15{fill:#DCE4E5;}
	.st16{fill:#DDE5E6;}
	.st17{fill:#DEE6E6;}
	.st18{fill:#DFE6E7;}
]]>
</style>
<g>
	<polygon class="st5" points="44.75,8 44.75,8 41.25,9 37.75,10.25 34.25,12 30.5,14 27,16.5 23.25,19.25 20,22.25 16.5,25.75 
		16.5,25.75 13.5,29.5 10.75,33.75 8.5,38 6.5,42.25 4.75,46.75 3.5,51.25 2.5,55.75 1.5,60 1.5,60 0.5,66.25 0,72.5 0,72.5 
		1.5,66.5 1.5,66.5 3.25,65.25 5,63.75 8.75,60 8.75,60 8.75,60 8.75,60 9.25,54.5 10,49 11.25,43.5 12,40.75 13,38 13,38 13,38 
		14,35 15.5,32.25 17,29.25 18.5,26.5 18.5,26.5 18.5,26.5 18.5,26.5 18.5,26.5 17.75,28 17.75,28 17.75,28 17.75,28 18.75,26.75 
		18.75,26.75 21.25,23.75 24.5,20.5 24.5,20.5 26.75,18.5 29.25,16.5 29.25,16.5 29.25,16.5 29.25,16.5 29.25,16.5 33,14 
		36.75,11.5 40.75,9.5 44.75,8 	"/>
	<polygon class="st5" points="60.25,170.5 60.25,170.5 63,174.25 66,178 66,178 68.25,180 70.25,182.25 72.75,184 75,185.75 80,189 
		85.25,191.75 90.5,194 96.25,195.5 101.75,196.5 104.5,196.75 107.25,197 107.25,197 109.75,197 109.75,197 114,197 118.5,196.25 
		123,195.5 127.25,194.25 131.75,192.5 135.75,190.5 139.75,188.25 143.5,185.5 143.5,185.5 145.75,183.25 145.25,183.5 
		145.25,183.5 141.5,186.25 137.75,188.5 133.75,190.75 129.5,192.5 125.25,194 120.75,195 116.25,195.5 111.75,195.75 
		111.75,195.75 111.5,195.75 111.5,195.75 110.5,195.75 110.5,195.75 106,195.75 101.75,195.25 97.25,194.25 92.75,193.25 
		88.5,191.5 84,189.75 80,187.25 75.75,184.5 74.25,183.25 74.25,183.25 70.5,180.5 66.75,177.5 63.25,174 60.25,170.5 	"/>
	<polygon class="st17" points="40.5,131.5 39.5,131.5 39.5,131.5 40.5,137.5 41.75,143.25 43.5,149 45.5,154.5 48,160 50.75,165.25 
		54,170 57.5,174.75 57.5,174.75 55.5,172 53.75,169.25 50.5,163.5 51,165.25 51,165.25 47.75,158 47.75,158 45.25,151.25 
		43,144.75 41.5,138 40.75,134.75 40.5,131.5 	"/>
	<polygon class="st17" points="41.25,128.5 41.25,130.25 41.25,130.25 42.25,137.25 44,144 44,144 43,140.25 42.25,136.25 
		41.75,132.5 41.25,128.5 	"/>
	<polygon class="st17" points="138.25,166.5 138.25,166.5 136.25,168 135.75,168.5 135.75,168.5 138.25,166.5 	"/>
	<path class="st17" d="M75.25,131.75L75.25,131.75l0.25,1.75l0,0L75.25,131.75L75.25,131.75z M75.25,130L75.25,130v1.75l0,0V130
		L75.25,130z M75.25,129.25L75.25,129.25V130l0,0V129.25L75.25,129.25z"/>
	<polygon class="st17" points="75.5,133.5 75.5,134 75.5,133.5 	"/>
	<polygon class="st17" points="74,61 74,61 70.5,63.75 70.5,63.75 74,61 	"/>
	<polygon class="st17" points="74.25,112.25 73.75,113.5 74.25,112.25 	"/>
	<polygon class="st17" points="160.25,29.75 160.25,29.75 162.5,33.75 164.5,38 164.5,38 164.5,38 162.5,33.75 160.25,29.75 	"/>
	<polygon class="st17" points="142.25,163 142.25,163 138.25,166.5 138.25,166.5 142.25,163 	"/>
	<polygon class="st17" points="64.25,68.25 63.75,68.75 63.75,68.75 60.25,73 60.25,73 64.25,68.25 	"/>
	<polygon class="st17" points="81,56.25 78.5,57.75 78.5,57.75 76.25,59.25 74,61 74,61 77.5,58.5 81,56.25 	"/>
	<path class="st17" d="M50.25,89.5L49.5,91l0,0L48,95.75l-1.25,4.5l0,0L48.5,95l2-5.5H50.25L50.25,89.5z M50.25,89.5L50.25,89.5
		L50.25,89.5z M50.25,89.5L49.5,91L50.25,89.5L50.25,89.5z"/>
	<path class="st17" d="M60.5,73.25l1-1.5L60.5,73.25L60.5,73.25z M60.5,73.25l1-1.5L60.5,73.25L60.5,73.25z M73.25,60.25
		L73.25,60.25L68.5,64l-4.25,4.25l0,0l0,0l-4,4.75l0,0l0,0l3.5-4.25l0,0l0,0L60.25,73l0,0l3.5-4.25l0,0l-3,3.5L58,75.75l-2.5,3.75
		L53,83.25l-2.25,4.25l-2,4.25l-2,4.25l-1.5,4.75v1.75l0,0l1.25-4l1.5-4.25l1.75-4l1.75-4l0,0l-2,4.75l0.75-1.5L49.5,91l0,0
		l0.75-1.5L49.5,91l0,0l0.75-1.5l1.5-3l-1.25,3l0,0l2-3.75L54.75,82L57,78.25l2.5-3.75l0,0l-4.25,5.75l0,0l0,0l0,0l0,0l0,0l0,0
		l2.5-3.5l2.75-3.5l0,0l0,0l0,0l-1,1.25l0,0l2.5-3l2.75-3l0,0l0,0l0,0l4-4.25L73.25,60.25L73.25,60.25z"/>
	<polygon class="st9" points="63.75,68.75 63.75,68.75 63.75,68.75 60.25,73 60.25,73 63.75,68.75 63.75,68.75 	"/>
	<polygon class="st9" points="50.25,89.5 49.5,91 50.25,89.5 	"/>
	<polygon class="st17" points="94.25,50 94.25,50 91.25,50.75 88.5,51.75 85.75,52.75 83,54 78,57 73.25,60.25 73.25,60.25 
		73.25,60.25 68.75,64.25 64.75,68.5 64.75,68.5 67.5,66 67.5,66 67.5,66 67.5,66 67.5,66 67.5,66 71,62.75 74.75,59.75 78.75,57 
		83.25,54.5 83.25,54.5 83.25,54.5 83.25,54.5 83.25,54.5 83.25,54.5 83.25,54.5 86.25,53 89.5,51.5 89.5,51.5 86.25,53 83.25,54.5 
		83.25,54.5 83.25,54.5 86.25,53 89.5,51.5 89.5,51.5 89.5,51.5 91.75,50.75 94.25,50 	"/>
	<polygon class="st17" points="51.75,86.5 51.75,86.5 50.5,89.5 51.75,86.5 50.25,89.5 50.5,89.5 51.75,86.5 	"/>
	<polygon class="st9" points="51.75,86.5 51.75,86.5 50.5,89.5 51.75,86.5 	"/>
	<path class="st17" d="M95.25,49.75l-1,0.25l0,0l0,0l-2.5,0.75L89.5,51.5l0,0l2.75-0.75l0,0l0,0L95.25,49.75L95.25,49.75z
		 M96.25,49.5L96.25,49.5l-1,0.25L96.25,49.5L96.25,49.5z"/>
	<polygon class="st17" points="93.25,50.5 93.25,50.5 93.25,50.5 	"/>
	<polygon class="st17" points="90.75,51.25 90.75,51.25 88.25,52.25 86,53.25 86,53.25 83.5,54.75 81,56.25 81,56.25 85.75,53.5 
		88.25,52.25 90.75,51.25 	"/>
	<polygon class="st9" points="50.25,89.5 49.5,91 50.25,89.5 	"/>
	<path class="st17" d="M90.75,51.25L90.75,51.25L90.75,51.25L90.75,51.25L90.75,51.25z M93.25,50.5L93.25,50.5l-1.5,0.5l0,0l0,0
		L93.25,50.5L93.25,50.5L93.25,50.5L93.25,50.5z"/>
	<path class="st17" d="M86,53.25L86,53.25l2.25-1l2.5-1l0,0l-2.5,1L86,53.25L86,53.25z M92.25,50.75L92.25,50.75L89.5,51.5l0,0l0,0
		L86.25,53l-3,1.5l0,0l0,0l3-1.5l3.25-1.5l0,0L86.25,53l-3,1.5l0,0L86,53.25l0,0l0,0l0,0l0,0l0,0l0,0l0,0l0,0l0,0l0,0l0,0l0,0
		l2.25-1l2.5-1l0,0l1-0.25l0,0l-1,0.25l0,0l1-0.25L92.25,50.75L92.25,50.75z"/>
	<path class="st9" d="M91.75,51L91.75,51l-1,0.25L91.75,51L91.75,51z M93.25,50.5l-1,0.25L91.75,51l0,0l0,0L93.25,50.5L93.25,50.5z"
		/>
	<polygon class="st9" points="90.75,51.25 90.75,51.25 88.25,52.25 86,53.25 86,53.25 88.25,52.25 90.75,51.25 	"/>
	<polygon class="st9" points="89.5,51.5 89.5,51.5 86.25,53 83.25,54.5 83.25,54.5 83.25,54.5 86.25,53 89.5,51.5 	"/>
	<polygon class="st17" points="86,53.25 86,53.25 86,53.25 86,53.25 83.5,54.75 81,56.25 81,56.25 83.5,54.75 86,53.25 86,53.25 
		82,55.5 78.5,57.75 81,56.25 78.5,57.75 78.5,57.75 81,56.25 81,56.25 83.5,54.75 86,53.25 86,53.25 	"/>
	<polygon class="st9" points="81,56.25 78.5,57.75 81,56.25 	"/>
	<polygon class="st9" points="86,53.25 86,53.25 86,53.25 86,53.25 83.5,54.75 81,56.25 81,56.25 83.5,54.75 86,53.25 86,53.25 
		86,53.25 	"/>
	<polygon class="st17" points="86,53.25 86,53.25 86,53.25 82,55.5 78.5,57.75 78.5,57.75 82,55.5 86,53.25 86,53.25 83.25,54.5 
		83.25,54.5 83.25,54.5 83.25,54.5 83.25,54.5 83.25,54.5 82.5,55 82.5,55 78.25,57.5 74.5,60.25 74.5,60.25 78.5,57.75 78.5,57.75 
		82,55.5 86,53.25 86,53.25 	"/>
	<polygon class="st9" points="86,53.25 86,53.25 86,53.25 82,55.5 78.5,57.75 78.5,57.75 82,55.5 86,53.25 86,53.25 	"/>
	<polygon class="st9" points="61.5,71.75 60.5,73.25 61.5,71.75 	"/>
	<polygon class="st17" points="60.5,73.25 60.5,73.25 59.5,74.5 60.5,73.25 60.5,73.25 57.75,76.75 55.25,80.25 55.25,80.25 
		59.5,74.5 59.5,74.5 55.25,80.25 55.25,80.25 55.25,80.25 55.25,80.25 59.5,74.5 60.5,73.25 	"/>
	<polygon class="st9" points="60.5,73.25 60.5,73.25 59.5,74.5 60.5,73.25 	"/>
	<polygon class="st9" points="59.5,74.5 59.5,74.5 55.25,80.25 55.25,80.25 55.25,80.25 55.25,80.25 59.5,74.5 	"/>
	<polygon class="st17" points="67.5,66 67.5,66 64.75,68.5 64.75,68.5 63.75,70 63.75,70 67.5,66 67.5,66 	"/>
	<polygon class="st17" points="83.25,54.5 83.25,54.5 82.5,55 83.25,54.5 83.25,54.5 82.5,55 83.25,54.5 83.25,54.5 82.5,55 
		83.25,54.5 83.25,54.5 78.75,57 74.75,59.75 71,62.75 67.5,66 67.5,66 67.5,66 70.75,63 74.5,60 78.25,57.5 82.5,55 83.25,54.5 	
		"/>
	<path class="st9" d="M83.25,54.5L83.25,54.5L82.5,55L83.25,54.5L83.25,54.5z M83.25,54.5L83.25,54.5L82.5,55L83.25,54.5L83.25,54.5
		z"/>
	<polygon class="st8" points="83.25,54.5 83.25,54.5 82.5,55 83.25,54.5 	"/>
	<polygon class="st17" points="67,115.25 67,115.25 65.75,120.75 65.5,123.5 65.5,126.5 65.5,126.5 65.75,121.5 66.75,116.75 
		67,115.25 	"/>
	<polygon class="st17" points="66.75,118.75 66.75,118.75 66.25,121.5 65.75,124.5 65.5,130.5 65.5,130.5 66,125.75 66.75,121.25 
		66.75,121.25 66.75,121.25 66.75,118.75 	"/>
	<polygon class="st17" points="70,128 70,128 70,128 70,128 70.5,134.25 71,137.5 71.75,140.5 71.75,140.5 71.75,140.5 71.5,140 
		71.5,140 72.25,142.75 73.25,145.5 75.5,151 75.5,151 73.75,146 72.25,140.5 70.75,134.5 70.25,131.25 70,128 70,128 70.5,134.25 
		71,137.5 71.75,140.5 71.75,140.5 71,137.5 70.5,134.25 70,128 70,128 	"/>
	<polygon class="st17" points="70,128 70,128 70,128 70.5,134 71,137 71.5,140 71.75,140.5 71.75,140.5 71,137.5 70.5,134.25 
		70,128 	"/>
	<polygon class="st9" points="70,128 70,128 70,128 70.5,134.25 71,137.5 71.75,140.5 71.75,140.5 71,137.5 70.5,134.25 70,128 
		70,128 	"/>
	<polygon class="st17" points="66.75,121.25 66.75,121.25 66.75,121.25 66.5,124 66.5,127 66.75,123.75 66.75,123.75 66.75,121.25 
		66.75,121.25 	"/>
	<polygon class="st17" points="72.5,97.5 72.5,97.5 70.75,101.25 70.75,101.25 72.5,97.5 	"/>
	<polygon class="st6" points="135.25,97.75 135.25,97.75 134.25,102.5 133,107.25 132,109.75 131,112 129.75,114.25 128.25,116.5 
		128.25,116.5 126.75,118.25 125,120 123.25,121.5 121.5,122.75 119.5,123.75 117.75,124.5 115.75,125 113.75,125 113.75,125 
		113.25,125 113.25,125 110,125.5 110,125.5 107.5,125.75 105,126 105,126 108,126.75 111.25,126.75 111.25,126.75 113.5,126.75 
		115.75,126.5 117.75,126 119.75,125.25 121.75,124 123.5,122.75 125.5,121.25 127,119.25 127,119.25 126,120.25 125,121 125,121 
		127.25,118.25 129.25,115.5 130.75,112.75 132.25,110 133.25,107 134.25,104 134.75,101 135.25,97.75 	"/>
	<polygon class="st17" points="132.5,80 133.25,82.75 132.5,80 	"/>
	<polygon class="st17" points="129.5,115.75 129.5,115.75 128.5,117.5 127,119.25 127,119.25 128.5,117.5 129.5,115.75 	"/>
	<polygon class="st17" points="133.25,82.75 133.25,82.75 133.5,85 133.75,87 133.75,87 133.5,85 133.25,82.75 	"/>
	<polygon class="st17" points="69.25,97.75 69.25,97.75 67.5,101.5 66,105.25 66,105.25 67.75,101.5 67.75,101.5 67.75,101.5 
		67.75,101.5 67.75,101.5 67.75,101.5 67.75,101.5 67.75,101.5 69.5,97.75 69.25,97.75 	"/>
	<polygon class="st17" points="69.5,97.75 69.5,97.75 69.5,97.75 67.75,101.5 67.75,101.5 67.75,101.5 69.75,97.75 69.5,97.75 	"/>
	<polygon class="st17" points="71.5,97 70.25,98 70.25,98 68,102.75 66,107.5 66,107.5 67.75,103.75 69.75,100 69.75,100 71.5,97 	
		"/>
	<polygon class="st17" points="71.5,97 71.5,97 69.75,100 71.5,97 71.5,97 	"/>
	<polygon class="st17" points="72,96.5 71.5,97 69.75,100 69.75,100 69.75,100 67.75,105.25 67.75,105.25 69.75,100.75 72,96.5 	"/>
	<path class="st6" d="M66,105.25L66,105.25l1.5-3.75l1.75-3.75l0,0l-1.75,3.75L66,105.25L66,105.25z M70.5,92.75L70.5,92.75l-2.25,5
		l-2,4.75l-1.5,5.25L63.5,113l0,0l-0.5,3l-0.25,3l-0.25,3l0.25,3.25l0,0v-3l0.25-3l1.25-6l1.5-6l2-5.75l0,0l0,0L66,105.25l0,0l0,0
		l1.5-3.75l1.75-3.75l0,0L70.5,92.75L70.5,92.75z"/>
	<polygon class="st14" points="69.25,97.75 69.25,97.75 67.5,101.5 66,105.25 66,105.25 67.5,101.5 69.25,97.75 	"/>
	<polygon class="st17" points="83.75,73.75 83.75,73.75 80.75,76.5 77.75,79.25 75.25,82.25 72.5,85.5 70.25,88.75 68,92.5 
		66,96.25 64,100 64,100 67,94.75 70.5,88.75 72.5,86 74.75,83.25 76.75,80.75 78.75,78.75 78,79.75 78,79.75 74.75,84 72,88.25 
		69.5,92.5 67,96.5 65,101 63.25,105.5 62,110.25 60.75,115.75 60.5,118 60.5,118 62.25,111.5 65,104.25 66.5,100.5 68,96.75 70,93 
		72,89.5 72,89.5 74.5,85.25 77.25,81.25 80.5,77.5 83.75,73.75 	"/>
	<polygon class="st17" points="62.75,104.25 62.75,104.25 60.75,108.25 59,112.5 59,112.5 58.25,115.75 57.75,119.25 57.75,119.25 
		58.75,115.25 59.75,111.5 61.25,108 62.75,104.25 	"/>
	<polygon class="st17" points="58.5,140.5 58.5,140.5 59,143.5 59,143.5 59,142.75 59,142.75 59,142.75 58.5,140.5 	"/>
	<path class="st17" d="M58.5,140.5L58.5,140.5l-0.75-5l-0.25-5l0,0l0.25,5L58.5,140.5L58.5,140.5z M58.5,140.5L58.5,140.5l-0.75-5
		l-0.25-5l0,0l0.25,5L58.5,140.5L58.5,140.5z M57.5,126.75L57.5,126.75v2.5l0,0v1.25l0,0l0,0l0,0l0,0l0,0l0,0l0.25,5l0.75,5l0,0l0,0
		l0,0l0,0l0,0l0.5,2.25l0,0l-0.75-3.5l-0.5-3.5l-0.25-3.5v-3.5l0,0V126.75L57.5,126.75z"/>
	<polygon class="st17" points="59,112.5 59,112.5 59,112.5 58.25,115.75 57.75,119.25 57.75,119.25 58.25,115.75 59,112.5 59,112.5 
		58,116 57.5,119.5 57,123 56.5,126.75 56.5,130.5 56.5,134 57,140.75 57,140.75 57,140.75 57,140.75 58,145 59.25,149 
		60.75,153.25 62.75,157 62.75,157 62.75,157 60.75,153.25 59.25,149 58,145 57,140.75 57,140.75 58,145 59.25,149 60.75,153.25 
		62.75,157 62.75,157 61.5,153.75 60.5,150.25 59.75,147 59,143.5 59,143.5 58.5,140.5 58.5,140.5 58.5,140.5 57.75,135.5 
		57.5,130.5 57.5,130.5 57.5,130.5 57.5,129.25 57.5,129.25 57.5,129.25 57.5,129.25 57.5,129.25 57.25,126.75 57.25,126.75 
		57.5,123 57.75,119.25 57.75,119.25 57.75,119.25 57.75,119.25 58.25,115.75 59,112.5 	"/>
	<polygon class="st9" points="59,112.5 59,112.5 59,112.5 58.25,115.75 57.75,119.25 57.75,119.25 58.25,115.75 59,112.5 59,112.5 	
		"/>
	<polygon class="st9" points="58.5,140.5 58.5,140.5 58.5,140.5 59,143.5 59,143.5 59,143.5 59,143.5 58.5,140.5 58.5,140.5 
		58.5,140.5 	"/>
	<polygon class="st9" points="57.5,130.5 57.5,130.5 57.75,135.5 58.5,140.5 58.5,140.5 57.75,135.5 57.5,130.5 	"/>
	<polygon class="st9" points="57.5,130.5 57.5,130.5 57.75,135.5 58.5,140.5 58.5,140.5 57.75,135.5 57.5,130.5 	"/>
	<polygon class="st17" points="57.5,145.5 57.5,145.5 58,148.75 58.5,152 57,150 57,150 59,154.5 61.25,158.75 63.75,163 66.5,167 
		66.5,167 64,162.25 61.75,157.25 59.5,151.75 57.5,145.5 	"/>
	<polygon class="st17" points="156,107.25 156,107.25 155.25,110.25 154.75,113 156,109.25 156,109.25 156,107.25 	"/>
	<polygon class="st15" points="64.25,16.5 64.25,16.5 64,16.5 64,16.5 60.75,16.5 56.75,17 52.5,18 48.25,19.25 43.75,21 
		39.25,23.25 37,24.75 34.75,26.25 32.5,28 30.5,29.75 30.5,29.75 30.5,29.75 30.5,29.75 30.25,30 30.25,30 27,33.75 24,38 
		21.25,42.5 19.25,47.25 19.25,47.25 21.75,44.5 24.5,41.75 27.5,39.5 30.5,37 34,35 37.75,33 41.5,31.5 45.75,30.25 45.75,30.25 
		48,28.5 50.75,27 53.5,25.5 56.5,24.25 59.75,23 63.25,21.75 66.75,20.75 70.25,20 70.25,20 70.25,20 70.25,20 71.25,19.25 
		71.5,18.5 71.5,18.5 71.5,18.25 71.5,18.25 71.5,18.25 71.5,18.25 71.5,18.25 71.5,18.25 71.5,18.25 71.5,18.25 71.5,18.25 
		71.5,18.25 71.5,18.25 71.5,17.75 71,17.5 69.5,17 67.25,16.5 64.25,16.5 64.25,16.5 64.25,16.5 	"/>
	<polygon class="st17" points="115,25.5 115,25.5 117,27 117,27 117,27 119.75,28.25 122.25,29.5 124.5,30.25 126,30.75 126,30.75 
		122.25,28.25 119.75,27 117.5,26.5 115,25.5 	"/>
	<path class="st1" d="M157.25,82L157.25,82l-1.5-7.25l-0.75-3.5l-1.25-3.5l0,0l1.25,3.5l0.75,3.5L157.25,82L157.25,82z
		 M144.25,47.75L144.25,47.75l-4-5.25l-4.5-5.5l-2.25-2.5l-2.5-2.25L128.5,30l-2.75-2l0,0l2.75,2l2.5,2.25l2.5,2.25l2.25,2.5
		l4.5,5.5L144.25,47.75L144.25,47.75z M126,30.75L126,30.75l-3.75-2.5l-2.5-1.25l-2.25-0.5l-2.5-1l0,0l2.5,1l2.25,0.5l2.5,1.25
		L126,30.75L126,30.75z M86.5,8.5L86.5,8.5L86.5,8.5L86.5,8.5L81,8.75l-5.5,0.5l0,0h-0.25l0,0l0,0l0,0l0,0l0,0l0,0l0,0l0,0l0,0l0,0
		l0,0h0.25l0,0l0,0l0,0l0,0l0,0l0,0l0,0l0,0l0,0l0,0l0,0h0.25l0,0l0,0l0,0l0,0l0,0l0,0l0,0l0,0l0,0l0,0l0,0l0,0L85,9.5l4.75,0.5
		l4.75,0.5l0,0h0.25l0,0l0,0l0,0H95l0,0l0,0l0,0l0,0l0,0l5,0.75l5.25,1.25l5.25,1.5l5,1.75l0,0l3.5,1.5l0,0l2.5,1.5l2.5,1.5l2.5,1.5
		l2.5,1.75l0,0l0,0l0,0l0,0l2.25,2l2.25,2l2.25,2.25l2,2.25l0.75,2.25l0,0l0,0l0,0l0,0l0,0l-2.25-2.5l-2-2.25l-2.25-2l-2.5-2
		l-2.5-1.75L124.5,22l-2.75-1.5l-2.5-1.5l-5.75-2.5l-6-2l-6-1.5l-6.25-1l0,0H95l0,0l0,0l0,0l0,0l0,0h-0.25l0,0l-5.5-0.5l-5.75-0.25
		l0,0l0,0l0,0l0,0l0,0l-5.75,0.25l0,0l0,0l0,0l0,0l0,0l-6.5,0.75l-6.5,1l-6.25,1.5l-6.25,2l-3,1l-3,1.25l-3,1.5L40.5,22l-2.75,1.75
		l-2.5,2l-2.5,2L30.25,30l0,0l0,0l0,0l0.25-0.25l0,0l0,0l0,0l2-1.75l2.25-1.75l2.25-1.5l2.25-1.5l4.5-2.25l4.5-1.75L52.5,18l4.25-1
		l4-0.5H64l0,0h0.25l0,0l0,0l0,0l0,0l0,0h3.25l2.25,0.5l1.5,0.5L71.5,18v0.25l0,0l0,0l0,0l0,0l0,0v0.25l0,0l-0.25,0.75l-1,0.75l0,0
		l0,0L73,19.75l2.5-0.5l0,0L80.75,19l0,0l4,0.25l3.5,0.5l3.25,0.5l3,1l0,0v-0.5l-0.25-0.5L94,20l-0.75-0.5l-2.25-1l-2.75-1L85,16.75
		l-4-0.5l-4.25-0.5h-4.5l0,0H71l0,0l4.25-1.25l4.5-1l0,0h4L88,13.75l4,0.5L96,15l0,0v0.25l0.25,0.25L97.5,16l4.5,1.5l2,0.75
		l1.75,0.5L106,19l0.25,0.25L106,19.5h-0.75l0,0l4,2l4,2l0,0l1,1l0.75,1l0,0l2.5,1l2.25,0.5l2.5,1.25l3.75,2.5l0,0l0,0l-1.5-0.5
		l-2.25-0.75l-2.5-1.25L117,27l0,0l1,0.75l0,0l5.5,3.25l2.75,1.75l2.25,2l0,0h0.25l0,0l0,0l0,0l0,0l0,0l0,0l0,0l0,0l0,0l0,0l0,0l0,0
		l0,0l0,0l0,0l0,0l0,0l3.5,3l1.25,0.75l1,0.5l0,0l0,0l0,0v-0.25l0,0l0,0l0,0l0.25-0.25l0,0l0,0l-0.25,0.25l0,0l0.25-0.25l0,0
		l-0.5-0.75l-1-2l0,0l-3.5-4.25l-2-1.75l-2-1.75l0,0l0,0l0,0l0,0l0,0l0,0l2.75,2l2.5,2.25l2.5,2.25l2.25,2.5l4.5,5.5l4,5.25l0,0V48
		l0,0l2.25,3.25l1.75,3.5l0,0l0.25,0.5l0,0l3,6l2.25,6.5l0,0l0,0l0,0l0,0l1.25,3.5l0.75,3.5l1.5,7.25l0.5,4l0,0v-4l-0.5-3.75
		l-1-7.75l1.25,1l0,0L159,77l1.25,5.75l0,0l-1.25-6L157.5,71l-1.5-5.25l-1.5-4.25l0,0l-2-5.75L150,50l-3.25-6l-3.5-5.75l-2-2.75
		l-2-2.75L137,30l-2.5-2.75l-2.5-2.5l-2.75-2.5l-3-2.25l-3-2l0,0l0,0l-3.5-2L116,14.25L112.25,13l-3.75-1.25l0,0l-3.75-1l0,0
		l-0.25-0.25l0,0L100,9.75L95.5,9L91,8.75L86.5,8.5L86.5,8.5L86.5,8.5L86.5,8.5z"/>
	<path class="st10" d="M30.5,29.75L30.5,29.75L30.25,30l0,0l0,0L30.5,29.75L30.5,29.75z M30.5,29.75L30.5,29.75L30.5,29.75
		L30.5,29.75L30.5,29.75L30.5,29.75z M71.5,18.25L71.5,18.25L71.5,18.25L71.5,18.25L71.5,18.25L71.5,18.25L71.5,18.25z M64,16.5
		L64,16.5h-3.25l-4,0.5l-4.25,1l-4.25,1.25L43.75,21l-4.5,2.25L37,24.75l-2.25,1.5L32.5,28l-2,1.75l0,0l2-1.75l2.25-1.75l2.25-1.5
		l2.25-1.5l4.5-2.25l4.5-1.75L52.5,18l4.25-1l4-0.5H64L64,16.5z M64.25,16.5L64.25,16.5h3L69.5,17l1.5,0.5l0.5,0.25v0.5l0,0l0,0l0,0
		l0,0V18l-0.25-0.5l-1.5-0.5l-2.25-0.5H64.25L64.25,16.5z M64.25,16.5L64.25,16.5H64l0,0H64.25L64.25,16.5L64.25,16.5z M64.25,16.5
		L64.25,16.5L64.25,16.5L64.25,16.5L64.25,16.5L64.25,16.5L64.25,16.5z"/>
	<polygon class="st11" points="115,25.5 115,25.5 117.5,26.5 119.75,27 122.25,28.25 126,30.75 126,30.75 122.25,28.25 119.75,27 
		117.5,26.5 115,25.5 	"/>
	<polygon class="st17" points="152.25,66 152.25,66 154.5,74.75 155.5,79.25 156.5,84.25 156.5,84.25 156.5,84.25 156.5,84.25 
		157.25,89.75 157.75,95.25 157.75,95.25 158,90.75 157.75,86 157.75,86 157.25,82 157.25,82 155.75,74.75 155,71.25 153.75,67.75 
		153.75,67.75 153.25,67 153.25,67 155,73.25 155.75,76.25 156.25,79.5 156.25,79.5 156.25,79.5 156.25,79.5 156.25,79.5 
		156.25,79.5 156.25,79.5 156.25,79.5 156.25,79.5 156,77.75 156,77.75 154.25,71.75 152.25,66 	"/>
	<polygon class="st9" points="153.75,67.75 153.75,67.75 155,71.25 155.75,74.75 157.25,82 157.25,82 155.75,74.75 155,71.25 
		153.75,67.75 	"/>
	<polygon class="st17" points="115,25.5 115,25.5 115.25,26.25 115.25,26.25 117,27 115,25.5 	"/>
	<path class="st17" d="M51.75,7L51.75,7L51.75,7z M50.75,6.5L50.75,6.5L50.75,6.5z"/>
	<polygon class="st7" points="115.25,26.25 115.25,26.25 115,27 114.75,27.5 113.75,28.5 112.5,29.25 111.5,30.25 111.25,30.75 
		111,31.5 111,32.25 111.25,33 111.75,34 112.5,35 115.25,38 115.25,38 115.25,38 115.25,38 115.75,37.75 115.75,37.5 115.75,36.75 
		115.75,36.75 115.75,36 116,35.75 116.25,35.75 116.25,35.75 117,36 118.5,36.75 120.5,38.75 120.5,38.75 119.5,36.75 119.25,35 
		119.25,34.25 119.25,33.75 119.75,33.25 120.25,33 120.25,33 122,33.25 123,33.75 124.25,34.5 126,35.5 127.75,37 129.75,39.25 
		132.25,42 132.75,42.5 133,43 133,43 135.25,46 136.75,48.75 137.75,51.25 138.5,53.5 139.25,58 140,60.5 140.75,63.5 140.75,63.5 
		140.5,61.5 140,59 139.5,56.75 139.25,55.75 139.5,55.25 139.5,55.25 141.5,60.5 143.25,65.75 143.25,65.75 143.25,64 142.75,62 
		141.25,57.25 139.5,52.5 138,48.5 138,48.5 139.75,52 141.25,52.5 141.25,52.5 144.25,58.5 146.5,64 148.25,69.25 149.25,74 
		150,78.75 150.25,83.5 150.25,92.75 150.25,92.75 150.75,80.25 150.75,71 150.75,71 152,73.25 153.25,75.5 153.25,75.5 154,79.25 
		154.5,83 154.75,86.5 154.75,90.25 154.75,90.25 155.25,86.25 155.5,82.25 156.5,84.25 156.5,84.25 155.5,79.25 154.5,74.75 
		152.25,66 152.25,66 152.25,66 152.25,66 154.25,71.75 156,77.75 156,77.75 156,77.75 154.25,71.75 152.25,66 152.25,66 
		154.25,71.75 156,77.75 156,77.75 154.25,71.75 152.5,66 148.5,56 148.5,56 151.25,61.5 153.25,67 153.75,67.75 153.75,67.75 
		153.25,67 153.75,67.75 153.75,67.75 151.5,61.25 148.5,55.25 148.5,55.25 148.25,54.75 148.25,54.75 146.5,51.25 144.25,48 
		144.25,48 144.25,47.75 144.25,47.75 144.25,47.75 140.25,42.5 135.75,37 133.5,34.5 131,32.25 128.5,30 125.75,28 125.75,28 
		127.75,29.75 129.75,31.5 133.25,35.75 133.25,35.75 134.25,37.75 134.75,38.5 134.75,38.5 134.75,38.5 134.75,38.5 134.5,38.75 
		134.5,38.75 134.5,38.75 134.5,38.75 134.5,39 134.5,39 134.5,39 134.5,39 134.5,39 134.5,39 133.5,38.5 132.25,37.75 
		128.75,34.75 128.75,34.75 128.75,34.75 128.75,34.75 128.75,34.75 128.75,34.75 128.75,34.75 128.75,34.75 128.75,34.75 
		128.75,34.75 128.75,34.75 128.75,34.75 128.75,34.75 128.75,34.75 128.75,34.75 128.75,34.75 128.75,34.75 128.75,34.75 
		128.5,34.75 128.5,34.75 126.25,32.75 123.5,31 118,27.75 118,27.75 117,27 117,27 115.25,26.25 	"/>
	<path class="st4" d="M148.25,54.75L148.25,54.75l0.25,0.5l0,0l3,6l2.25,6.5l0,0l0,0l-2.25-6.5l-3-6l0,0L148.25,54.75L148.25,54.75z
		 M134.5,39L134.5,39L134.5,39L134.5,39L134.5,39L134.5,39L134.5,39z M134.75,38.5L134.75,38.5l-0.25,0.25l0,0l0,0l0,0l0,0l0,0
		L134.75,38.5L134.75,38.5z M128.75,34.75L128.75,34.75L128.75,34.75L128.75,34.75L128.75,34.75L128.75,34.75z M128.75,34.75
		L128.75,34.75L128.75,34.75L128.75,34.75L128.75,34.75L128.75,34.75z M128.75,34.75L128.75,34.75L128.75,34.75L128.75,34.75
		L128.75,34.75L128.75,34.75z M128.75,34.75L128.75,34.75L128.75,34.75L128.75,34.75L128.75,34.75L128.75,34.75z M125.75,28
		L125.75,28L125.75,28l2.75,2l2.5,2.25l2.5,2.25l2.25,2.5l4.5,5.5l4,5.25l0,0l0,0V48l0,0v-0.25l0,0l-4-5.25l-4.5-5.5l-2.25-2.5
		l-2.5-2.25L128.5,30L125.75,28L125.75,28z M117,27L117,27L117,27l1,0.75l0,0l5.5,3.25l2.75,1.75l2.25,2l0,0h0.25l0,0h-0.25l0,0
		l-2.25-2L123.5,31l-5.5-3.25l0,0L117,27L117,27L117,27z"/>
	<path class="st3" d="M156.25,79.5L156.25,79.5L156.25,79.5L156.25,79.5L156.25,79.5z M156,77.75L156,77.75l0.25,1.75l0,0L156,77.75
		L156,77.75z"/>
	<path class="st16" d="M134.75,38.5L134.75,38.5L134.75,38.5l-0.25,0.25l0,0L134.75,38.5L134.75,38.5L134.75,38.5L134.75,38.5z
		 M125.75,28L125.75,28L125.75,28L125.75,28l2,1.75l2,1.75l3.5,4.25l0,0l1,2l0.5,0.75l0,0l-0.5-0.75l-1-2l0,0l-3.5-4.25l-2-1.75
		L125.75,28L125.75,28L125.75,28L125.75,28z"/>
	<polygon class="st16" points="125.75,28 125.75,28 128.5,30 131,32.25 133.5,34.5 135.75,37 140.25,42.5 144.25,47.75 
		144.25,47.75 140.25,42.5 135.75,37 133.5,34.5 131,32.25 128.5,30 125.75,28 	"/>
	<polygon class="st12" points="152.25,66 152.25,66 154.25,71.75 156,77.75 156,77.75 156.25,79.5 156.25,79.5 156.25,79.5 
		156.25,79.5 156,77.75 156,77.75 154.25,71.75 152.25,66 	"/>
	<polygon class="st12" points="153.25,67 153.75,67.75 153.25,67 	"/>
	<path class="st7" d="M116.5,184.75L116.5,184.75L116.5,184.75L116.5,184.75L116.5,184.75L116.5,184.75L116.5,184.75z M116.5,184.75
		L116.5,184.75h-2l0,0H116.5L116.5,184.75z M118,184.75L118,184.75L118,184.75L118,184.75L118,184.75L118,184.75z M114,184.75
		L114,184.75L114,184.75L114,184.75L114,184.75L114,184.75z M113.75,184.75L113.75,184.75l-0.25-0.25l0,0L113.75,184.75
		L113.75,184.75z M114.5,184.25L114.5,184.25L114.5,184.25L114.5,184.25L114.5,184.25L114.5,184.25L114.5,184.25z M114.5,184.25
		L114.5,184.25h-0.25l0,0H114.5L114.5,184.25z M113.5,184.5L113.5,184.5l0.75-0.25L113.5,184.5L113.5,184.5z M121.5,183.25
		L121.5,183.25l2.25-0.5l2-0.75l0,0l-2,0.75L121.5,183.25L121.5,183.25z M113.5,184.5L113.5,184.5l-4-0.25l-4-1l-3.75-1L98,181
		l-3.75-1.75L90.5,177l-3.75-2.5l-3.75-3l0,0l3.75,3l3.75,2.5l3.75,2.25L98,181l3.75,1.25l3.75,1l4,1L113.5,184.5L113.5,184.5
		L113.5,184.5z M143,169.25L143,169.25l4.25-5l4-4.5l1.75-2.5l1.75-2.75l1.75-3l1.75-3.25l0,0l-1.75,3.25l-1.75,3l-1.75,2.75
		l-1.75,2.5l-4,4.5L143,169.25L143,169.25z M149.75,160.75L149.75,160.75l3.25-5l3-5l2.75-5l2.5-5.75l0.25-0.75l0,0l2.25-6.75l0,0
		l-2.25,6.75l-0.25,0.75l0,0l-2.5,5.75l-2.75,5l-3,5L149.75,160.75L149.75,160.75z M135,19.25L133.25,18l0.75,0.5L135,19.25
		L135,19.25z M135,19.25l-1-0.75l-0.75-0.5l0.75,0.5L135,19.25L135,19.25z M160.25,82.75L160.25,82.75l-1.25-6L157.5,71l-1.5-5.25
		l-1.5-4.25l0,0l-2-5.75L150,50l-3.25-6l-3.5-5.75l-2-2.75l-2-2.75L137,30l-2.5-2.75l-2.5-2.5l-2.75-2.5l-3-2.25l-3-2l0,0l3,2
		l3,2.25l2.75,2.5l2.5,2.5L137,30l2.25,2.75l2,2.75l2,2.75l3.5,5.75l3.25,6l2.5,5.75l2,5.75l0,0l1.5,4.25l1.5,5.25l1.5,5.75
		L160.25,82.75L160.25,82.75z M132.75,18L132.75,18L132.75,18l1.75,1.5l0.5,0.25l0,0l1.5,1l1,1l1,1l0,0l4.25,3.75l3.5,3.75l3.5,3.75
		l3.25,4l0.5,0.5l0.25,0.5l0,0l3,3.5l0,0l0,0l-1.5-1.75l-1.5-1.75l0,0L153,38l-1-1.25l-2-2.5L148,32l-2-2.25l-1.75-1.5l-2-2.25l0,0
		L140,24l-1.5-1.25l0,0l-4-3.25L132.75,18L132.75,18L132.75,18z M130,16L130,16l-5-2.5l0,0l1.5,0.75l2.75,1.5L130,16L130,16z
		 M130,16l-0.75-0.25l-2.75-1.5l0,0L125,13.5l0,0l1.5,0.75l2.75,1.5L130,16L130,16z M121.5,12L121.5,12L121.5,12l3.75,1.5l0,0
		L126,14l0,0l4.5,2.5l0,0l2,1.25l0,0l-2-1.25l0,0l0,0l2,1.25l0,0l-2-1.25l0,0l-0.5-0.25l-2.75-1.5l0,0L126,14l0,0l-0.75-0.5l0,0
		l-0.75-0.25L121.5,12L121.5,12L121.5,12z M121.5,12L121.5,12l-4.75-1.75L112,8.75l-4.75-1.25l-4.75-0.75l0,0l4.75,0.75L112,8.75
		l4.75,1.5L121.5,12L121.5,12z M121.5,12L121.5,12l-4.75-1.75L112,8.75l-4.75-1.25l-4.75-0.75l0,0l4.75,0.75L112,8.75l4.75,1.5
		L121.5,12L121.5,12z M99,3.75L99,3.75L97,3.5L99,3.75L99,3.75z M97,3.5L97,3.5l2,0.25l0,0L97,3.5L97,3.5z M97,3.5L97,3.5L97,3.5
		l2,0.25l0,0L97,3.5L97,3.5z M96,3.5L96,3.5L96,3.5L96,3.5L96,3.5z M79.25,3.5L79.25,3.5l8-0.25l0,0H91h-2l0,0h-1l0,0h-1.5l0,0
		h-1.25l0,0l0,0l-3,0.25l0,0H82l0,0H79.25L79.25,3.5z M80.75,3.25L80.75,3.25L82.25,3l0,0l0,0h2l0,0L80.75,3.25L80.75,3.25H80l0,0
		H80.75L80.75,3.25z M95,3.5L95,3.5L88,3h1l4,0.25L95,3.5L95,3.5z M88.75,0L88.75,0L81.5,0.25L74.5,1l0,0l-7.25,2.25l-3.5,1.25
		L60.25,6l0,0l6-1.25L72.5,4l0,0l0,0l0,0l0,0l0,0l0,0l0,0l0,0L69,4.75L65.75,5.5l0,0L63,6.25l-1.5,0.5l-0.75,0.5l0,0l0,0l0,0V7.5
		l0,0l2-0.25L67,6.5l0,0L70.25,6l4-0.25l5-0.25l6.25-0.25l0,0h4.25l0,0L96,5.75l6.5,1l0,0l0,0l0,0L96.5,6h-5.75l0,0l0,0l0,0l0,0l0,0
		l-7,0.25L77.5,7l-6,1.25L66,9.75l0,0l0,0l0,0l0,0l0,0L65.75,10l0,0l4.75-0.5l4.75-0.25l0,0l0,0l0,0l5.5-0.5L86.5,8.5l0,0L91,8.75
		L95.5,9l4.75,0.75l4.5,1l0,0l0,0l0,0l3.75,1l0,0l3.75,1.25l3.75,1.25l3.75,1.75l3.5,2l0,0l0,0l3,2l3,2.25l2.75,2.5l2.5,2.5L137,30
		l2.25,2.75l2,2.75l2,2.75l3.5,5.75l3.25,6l2.5,5.75l2,5.75l0,0l1.5,4.25l1.5,5.25l1.5,5.75l1.25,6l0.25,1.5l0,0L160.25,82L160,80
		l0,0l0.75,6.25l0,0v-5l-0.25-5l0,0l0.75,6.25l0.25,6.5l0.25,2l0,0v-5.25l-0.5-5.25l0,0l0.5,5.75l0.25,6l0.75,2.75l0,0l-0.5,5.25
		l-1,5.25l0.25,2.75l0,0l0.25,3.5l0,0l0.75,0.75l0,0l1-4.75l0.75-5l-0.5,5.75l0,0l0.5-4.25L165,100l0,0l-0.5,5.25l-0.75,5.25h0.5
		l0,0L165,107l0,0l0.5-6.5l-0.25-6.5L165,87.5l-0.75-6.25l0,0l1,5.5l0.75,5.5l0,0l0.25,6v6l-0.5,6L165,116.5v2.75l0,0l0.75-4
		l0.5-4.25l0.75-8.25l0.5-7.75l0.25-7l0.25,2.5l0,0l0.25,5.5v5.25l-0.5,4.75l-0.5,5l-0.75,4.75l-1,4.75l-2.25,10.5l-0.25,1.25l0,0
		l1-2.75l1-3.25l1.75-6.75l1.25-6.75l1-6.25l0,0l-1.25,8.75l-0.75,4l-1,4.25l-1.25,4l-1.25,4l-1.25,3.75L160.5,139l-0.25,1.5l0,0
		l-2,4.75L156,150l-2.5,4.75L151,159l-3,4l-3,3.5l-3.5,3.5l-3.5,3l0,0l0,0l-2.75,2l-2.75,1.5l-2.75,1.5l-3,1l-3,0.75l-3,0.75
		l-3,0.25l-3,0.25l0,0l-4-0.25l-4-0.5l-4-1l-4-1.25l-3.5-1.75l-3.5-2l-3.5-2.25l-3-2.5l0,0l2.75,2.75l3,2.25l3,2l3.25,2l0,0l-3.5-1
		l-3.5-1.75L87,174l-3.25-2.25l-3-2.5L78,166.5l-2.5-2.5l-2.25-3l0,0l0,0l-1.5-2.25l0,0l1,2.25l1,2l1.5,2.25l1.5,2l3.5,3.75
		l3.75,3.75l4.25,3.25l4.5,2.75L97.5,183l2.5,1l2.25,0.75l0,0l-3.25-1l-3-1.25l-2.75-1.25l-3-1.5L87.5,178l-2.75-2L82,173.75
		l-2.75-2.5l2,2.25l0,0l-2.5-2.5l-2.5-2.5l-2-2.5l-1.75-2.75l-1.75-2.5l-1.5-2.75l-2.5-5.5l0,0L65,149.75l-1.75-3.25l-1.5-3.25
		l-1.25-3.5l-1-3.75l-1-3.75L58,128.5l-0.25-4l0,0v-2.75v-2.5l0,0L57.5,123l-0.25,3.75l0,0l0.25,2.5l0,0v-2.5l0,0v2.5l0,0l0,0v-2.5
		l0,0l0,0l0,0l0,0l0,0v2l0,0v3.5l0.25,3.5l0.5,3.5l0.75,3.5l0,0v0.75l0,0l0,0l0,0l0,0l0,0l0,0l0.75,3.5l0.75,3.25l1,3.5l1.25,3.25
		l0,0l0,0l0,0l0,0l0,0l0,0l-2-3.75l-1.5-4.25L58,145l-1-4.25l0,0l0.5,4.75l0,0l2,6.25l2.25,5.5l2.25,5l2.5,4.75l0,0l0,0l0,0l0,0l0,0
		l0,0l-2.75-4l-2.5-4.25L59,154.5l-2-4.5l0,0l0,0l0,0l-2.25-5.25l-2-5.5l-1.25,2l0,0l0.25,3l0.5,3.25l0.75,3.75l1.25,3.75l1.75,4.25
		l2,4.25l2.5,4.25l3.25,4.5l0,0l1.75,2l0.5-1.5l0,0l2.25,4l0,0L71.5,179l3.25,2.25l0,0l3.25,2.5l3.25,2.5l0,0l7,2.75l4.25,1.5
		l4.25,1.25l0,0l4.5,1l4.5,1l4.5,0.5h4.5l0,0h0.75l0,0h-2.75l-2.5-0.5l0,0l4.5-0.5l5.25-0.5l0,0l4-0.75l4-1l4-1l3.5-1.5l0,0l2.5-1
		l2.5-1.25l4.75-2.75l0,0l0.75-0.75l-0.25,0.5L146,183l0,0l2.75-2.5l2.75-2.5l2.75-2.75l2.25-2.75l0,0l2.5-3l2.5-3l0,0l-3.25,4l0,0
		l3-3l0,0l-2.75,3.25l-2.75,3.25l0,0l2.75-3.25l2.75-3.25l2.5-3.5l2.25-3.5l0,0l3-5l-0.75,1.5l0,0l3.75-6.5l0,0l3.25-7.25l2.5-7.25
		l0,0l1.25-5.25l0.75-5.25l0,0l-0.5,4.5l-1,4.5l0,0l-1,4.75l0,0l2.25-8l1.5-8l0.5,0.75l0,0l0.75-5l0.75-5.5l0.5-6l0.25-6.25v-0.75
		l0,0l-0.25-7l-1-7.25l0,0l1,6.25l0.5,6.25l1-0.75l0,0l-0.5-6.25l-1-6.25l-1-6.5l-1.5-6.5l0,0l-1.75-6.25l0.25,1.5l0,0l-2-6l-2.25-6
		l0,0l-2.5-4.75l-2.5-4.5L167.5,42l-3-4l0,0l2.25,5.25l0,0L164.5,38l0,0l0,0l0,0l0,0l0,0l0,0l-5.5-7l-5.5-6l-3-3l-3-2.75l-3.25-2.5
		L141,14l0,0l-3.5-2.25l-3.5-2l-3.5-1.5l-3.25-1.5l-3.25-1l-3.25-1L117.5,4l-2.75-0.5l0,0l4,1.25l4,1.5l4,1.75l4,2l3.75,2.25
		l3.5,2.25l3.5,2.5l3,2.5l0,0l4,3.75l3.5,4l3.5,4.25l3.5,4.25l3,4.5l3,4.75l2.75,5l2.5,5l0,0l1.75,4.75l0,0l-4-7.5l-2.25-3.5
		l-2.5-3.5l0.5,0.5l-2.5-3l2,2.5l0,0l-2.5-4.25l-2.5-3.75l-2.5-3.5L153,30.5l-2.75-3.25l-3-3l-6-6l0,0l-3.5-2.75l-3.5-2.5
		l-3.75-2.25l-3.75-2l-4-1.75l-4-1.5l-4-1.5l-4.25-1.25l4.25,0.75l0,0l-6.5-1.5l-6.5-1.25l-6.5-0.5L88.75,0L88.75,0z"/>
	<rect x="164.5" y="38" class="st3" width="0" height="0"/>
	<path class="st3" d="M59,143.5L59,143.5L59,143.5L59,143.5L59,143.5L59,143.5L59,143.5L59,143.5z M59,142.75L59,142.75v0.75l0,0
		l0,0V142.75L59,142.75z M57,140.75L57,140.75L57,140.75l1,4.25l1.25,4l1.5,4.25l2,3.75l0,0l0,0l-2-3.75l-1.5-4.25L58,145L57,140.75
		L57,140.75z M57.75,119.25L57.75,119.25L57.5,123l-0.25,3.75l0,0L57.5,123L57.75,119.25L57.75,119.25L57.75,119.25z"/>
	<polygon class="st2" points="59,143.5 59,143.5 59,143.5 59,143.5 59,143.5 59,143.5 59,143.5 59,143.5 	"/>
	<polygon class="st4" points="108.5,11.75 108.5,11.75 112.25,13 116,14.25 119.75,16 123.25,18 123.25,18 119.75,16 116,14.25 
		112.25,13 108.5,11.75 	"/>
	<polygon class="st3" points="57.5,129.25 57.5,129.25 57.5,129.25 57.5,129.25 57.5,130.5 57.5,130.5 57.5,129.25 57.5,129.25 	"/>
	<path class="st5" d="M130.5,16.5L130.5,16.5l2,1.25l0,0L130.5,16.5L130.5,16.5z M126,14L126,14l1.25,0.75l2.75,1.5l0,0l0.5,0.25
		l0,0L126,14L126,14z M125.25,13.5L125.25,13.5L126,14l0,0L125.25,13.5L125.25,13.5z M121.5,12l3,1.25l0,0l0.75,0.25l0,0L121.5,12
		L121.5,12z"/>
	<polygon class="st5" points="125,13.5 125,13.5 130,16 129.25,15.75 126.5,14.25 126.5,14.25 125,13.5 	"/>
	<path class="st5" d="M153.75,39l1.5,1.75l1.5,1.75l0,0L153.75,39L153.75,39z M153,38L153,38l0.75,1l-0.25-0.5L153,38L153,38z
		 M138.5,22.75L140,24l0,0l2.25,2l2,2.25l1.75,1.5l2,2.25l2,2.25l2,2.5l1,1.25l0,0l-3.25-4l-3.5-3.75l-3.5-3.75L138.5,22.75
		L138.5,22.75z M134.5,19.5L134.5,19.5l4,3.25l-1-1l0,0l-1-1l-1.5-1L134.5,19.5L134.5,19.5z M132.75,18l1.75,1.5l0,0L132.75,18
		L132.75,18z"/>
	<polygon class="st5" points="133.25,18 135,19.25 134,18.5 133.25,18 	"/>
	<polygon class="st18" points="146,182.75 145.25,183.5 145.75,183.25 146,182.75 	"/>
	<polygon class="st12" points="164.5,38 164.5,38 164.5,38 166.75,43.25 166.75,43.25 164.5,38 164.5,38 	"/>
	<path class="st12" d="M57.5,129.25L57.5,129.25L57.5,129.25v1.25l0,0l0,0l0,0l0,0V129.25L57.5,129.25L57.5,129.25z M57.5,126.75
		L57.5,126.75v2.5l0,0l0,0l0,0l0,0l0,0l0,0V126.75L57.5,126.75z"/>
	<polygon class="st12" points="57,140.75 57,140.75 58,145 59.25,149 60.75,153.25 62.75,157 62.75,157 62.75,157 62.75,157 
		62.75,157 62.75,157 60.75,153.25 59.25,149 58,145 57,140.75 	"/>
	<polygon class="st12" points="57,150 57,150 59,154.5 61.25,158.75 63.75,163 66.5,167 66.5,167 66.5,167 66.5,167 66.5,167 
		63.75,163 61.25,158.75 59,154.5 57,150 57,150 	"/>
	<polygon class="st13" points="121.5,12 121.5,12 124.5,13.25 124.5,13.25 125.75,14 127.25,14.75 130,16.25 130,16.25 130.5,16.5 
		130.5,16.5 132.5,17.75 132.5,17.75 130.5,16.5 130.5,16.5 130,16.25 127.25,14.75 127.25,14.75 126,14 126,14 125.25,13.5 
		125.25,13.5 124.5,13.25 121.5,12 	"/>
	<polygon class="st13" points="125,13.5 125,13.5 126.5,14.25 129.25,15.75 130,16 129.25,15.75 126.5,14.25 126.5,14.25 125,13.5 	
		"/>
	<polygon class="st13" points="132.75,18 132.75,18 135,19.75 135,19.75 136.5,20.75 137.5,21.75 140,24 140,24 142.25,26 
		144.25,28.25 146,29.75 148,32 150,34.25 152,36.75 153.5,38.5 155.25,40.75 156.75,42.5 155.25,40.75 153.75,39 153.5,38.5 
		153,38 152,36.75 150,34.25 148,32 146,29.75 144.25,28.25 142.25,26 142.25,26 140,24 138.5,22.75 137.5,21.75 137.5,21.75 
		136.5,20.75 135,19.75 134.5,19.5 132.75,18 	"/>
	<polygon class="st13" points="133.25,18 134,18.5 135,19.25 134,18.5 133.25,18 	"/>
	<polygon class="st13" points="102.5,6.75 102.5,6.75 107.25,7.5 112,8.75 116.75,10.25 121.5,12 121.5,12 116.75,10.25 112,8.75 
		107.25,7.5 102.5,6.75 	"/>
	<polygon class="st13" points="102.5,6.75 102.5,6.75 107.25,7.5 112,8.75 116.75,10.25 121.5,12 121.5,12 116.75,10.25 112,8.75 
		107.25,7.5 102.5,6.75 	"/>
	<polygon class="st16" points="123.25,18 123.25,18 126.25,20 129.25,22.25 132,24.75 134.5,27.25 137,30 139.25,32.75 141.25,35.5 
		143.25,38.25 146.75,44 150,50 152.5,55.75 154.5,61.5 154.5,61.5 156,65.75 157.5,71 159,76.75 160.25,82.75 160.25,82.75 
		159,76.75 157.5,71 156,65.75 154.5,61.5 154.5,61.5 152.5,55.75 150,50 146.75,44 143.25,38.25 141.25,35.5 139.25,32.75 137,30 
		134.5,27.25 132,24.75 129.25,22.25 126.25,20 123.25,18 	"/>
	<polygon class="st16" points="86.5,8.5 86.5,8.5 80.75,8.75 75.25,9.25 75.25,9.25 75.25,9.25 75.25,9.25 75.25,9.25 75.5,9.25 
		75.5,9.25 81,8.75 86.5,8.5 86.5,8.5 86.5,8.5 86.5,8.5 86.5,8.5 86.5,8.5 86.5,8.5 91,8.75 95.5,9 100,9.75 104.5,10.5 
		104.5,10.5 104.75,10.75 104.75,10.75 104.75,10.75 100.25,9.75 95.5,9 91,8.75 86.5,8.5 	"/>
	<polygon class="st5" points="87.25,3.25 87.25,3.25 79.25,3.5 79.25,3.5 82,3.5 82,3.5 82.25,3.5 85.25,3.25 85.25,3.25 
		85.25,3.25 85.25,3.25 86.5,3.25 86.5,3.25 88,3.25 88,3.25 89,3.25 91,3.25 91,3.25 87.25,3.25 	"/>
	<path class="st5" d="M80.75,3.25L80.75,3.25H80l0,0H80.75L80.75,3.25z M82.25,3L82.25,3l-1.5,0.25l0,0L84.25,3H82.25L82.25,3
		L82.25,3L82.25,3z"/>
	<polygon class="st5" points="88,3 88,3 95,3.5 93,3.25 89,3 88,3 	"/>
	<rect x="96" y="3.5" class="st5" width="0" height="0"/>
	<path class="st15" d="M74.5,1L74.5,1l-5,1l-4.75,1l-4.5,1.25l-4.75,1.5L54,6.25l0,0L50.75,7.5l-3,1.5l0,0l4-2l0,0l0,0L51,6.5h-0.25
		l0,0l-3,0.75l-3,0.75l0,0l0,0l-4,1.5l-4,2L33,14l-3.75,2.5l0,0l0,0l-2.5,2l-2.25,2l0,0l-3.25,3.25l-2.5,3l0,0l-1,1.25l0,0l0,0
		l0.75-1.5l0,0L17.75,28l0.75-1.5l0,0L17,29.25l-1.5,3L14,35l-1,3l0,0l2-3.5l2-3.25l2.25-3l2.5-2.75l2.75-2.75l2.75-2.5l3-2.25
		l3.25-2l3-1.75l3.25-1.75l3.5-1.5l3.25-1.25L50,8.5l3.5-1L60.25,6l0,0l0,0l0,0l0,0l0,0l0,0l0,0l0,0l0,0l0,0l3.5-1.5l3.5-1.25
		L74.5,1L74.5,1z M74.5,1L74.5,1L74.5,1l-7.25,2.25l-3.5,1.25L60.25,6l0,0l0,0l3.5-1.5l3.5-1.25L74.5,1L74.5,1z"/>
	<path class="st10" d="M18.75,26.75L18.75,26.75l-1,1.25l0,0l0,0L18.75,26.75L18.75,26.75L18.75,26.75z M29.25,16.5L29.25,16.5
		l-2.5,2l-2.25,2l0,0l-3.25,3.25l-2.5,3l0,0l2.5-3l3.25-3.25l0,0l2.25-2L29.25,16.5L29.25,16.5L29.25,16.5z"/>
	<polygon class="st10" points="18.5,26.5 18.5,26.5 17.75,28 18.5,26.5 	"/>
	<polygon class="st9" points="50.75,6.5 50.75,6.5 51,6.5 51.75,7 50.75,6.5 	"/>
	<polygon class="st10" points="74.5,1 74.5,1 74.5,1 67.25,3.25 63.75,4.5 60.25,6 60.25,6 60.25,6 63.75,4.5 67.25,3.25 74.5,1 
		74.5,1 	"/>
	<polygon class="st15" points="72.5,4 72.5,4 72.5,4 69,4.75 65.75,5.5 65.75,5.5 63,6.25 61.5,6.75 60.75,7.25 60.75,7.25 
		61.5,6.75 63,6.25 65.75,5.5 65.75,5.5 69,4.75 72.5,4 72.5,4 66.25,4.75 60.25,6 60.25,6 60.25,6 60.25,6 60.25,6 60.25,6 
		60.25,6 55.25,7.75 50.25,10 45.25,12.75 40.75,15.75 36.5,19 32.75,22.25 29.75,25.75 28.5,27.5 27.5,29 27.5,29 30.75,26.25 
		34.5,23.5 38.25,21 42.25,18.75 46.5,17 50.75,15.25 54.75,14 58.75,13 58.75,13 61.75,12.25 61.75,12.25 66,11.25 69.5,10.25 
		75.25,9.25 75.25,9.25 70.5,9.5 65.75,10 65.75,10 65.75,10 66,9.75 66,9.75 66,9.75 65.75,10 65.75,10 66,9.75 66,9.75 66,9.75 
		66,9.75 66,9.75 66,9.75 71.5,8.25 77.5,7 83.75,6.25 90.75,6 90.75,6 90.75,6 90.75,6 90.75,6 90.75,6 90.75,6 90.75,6 96.5,6 
		102.5,6.75 102.5,6.75 96.5,6 90.75,6 90.75,6 90.75,6 96.5,6 102.5,6.75 102.5,6.75 102.5,6.75 96,5.75 89.75,5.25 89.75,5.25 
		85.5,5.25 85.5,5.25 79.25,5.5 74.25,5.75 70.25,6 67,6.5 67,6.5 62.75,7.25 60.75,7.5 60.75,7.5 60.75,7.25 60.75,7.25 
		60.75,7.25 60.75,7.25 61.5,6.75 63,6.25 65.75,5.5 65.75,5.5 69,4.75 72.5,4 72.5,4 	"/>
	<path class="st10" d="M66,9.75L66,9.75L65.75,10l0,0L66,9.75L66,9.75z M66,9.75L66,9.75L66,9.75L66,9.75L66,9.75L66,9.75L66,9.75
		L66,9.75L66,9.75z M66,9.75L66,9.75L66,9.75L66,9.75L66,9.75L66,9.75z M90.75,6L90.75,6l-7,0.25L77.5,7l-6,1.25L66,9.75l0,0l0,0
		l5.5-1.5l6-1.25l6.25-0.75L90.75,6L90.75,6L90.75,6z M90.75,6L90.75,6h5.75l6,0.75l0,0L96.5,6H90.75L90.75,6z M90.75,6L90.75,6
		L90.75,6L90.75,6L90.75,6L90.75,6L90.75,6z M90.75,6L90.75,6L90.75,6L90.75,6L90.75,6L90.75,6L90.75,6L90.75,6L90.75,6L90.75,6z"/>
	<polygon class="st10" points="72.5,4 72.5,4 72.5,4 69,4.75 65.75,5.5 65.75,5.5 63,6.25 61.5,6.75 60.75,7.25 60.75,7.25 
		61.5,6.75 63,6.25 65.75,5.5 65.75,5.5 69,4.75 72.5,4 72.5,4 	"/>
	<path class="st0" d="M30.25,30L30.25,30l2.5-2.25l2.5-2l2.5-2L40.5,22l2.75-1.5l3-1.5l3-1.25l3-1l6.25-2l6.25-1.5l6.5-1l6.5-0.75
		l0,0l-6.5,0.75l-6.5,1l-6.25,1.5l-6.25,2l-3,1l-3,1.25l-3,1.5L40.5,22l-2.75,1.75l-2.5,2l-2.5,2L30.25,30L30.25,30z M60.25,6
		L60.25,6L60.25,6l-5,1.75l-5,2.25l-5,2.75l-4.5,3L36.5,19l-3.75,3.25l-3,3.5L28.5,27.5l-1,1.5l0,0l1-1.5l1.25-1.75l3-3.5L36.5,19
		l4.25-3.25l4.5-3l5-2.75l5-2.25L60.25,6L60.25,6L53.5,7.5l-3.5,1l-3.5,1.25L43.25,11l-3.5,1.5l-3.25,1.75l-3,1.75l-3.25,2l-3,2.25
		l-2.75,2.5l-2.75,2.75l-2.5,2.75l-2.25,3l-2,3.25L13,38l0,0l0,0l-1,2.75l-0.75,2.75L10,49l-0.75,5.5L8.75,60l0,0l0,0l5-6l2.5-3.5
		l3-3.25l0,0l0,0l0,0l0,0l0,0l0,0l1-2.5l1-2.5l0,0L23,39l2.25-3.25l2.5-3l2.5-2.75l0,0l0,0l0,0l0,0l0,0l0,0l2.5-2.25l2.5-2l2.5-2
		L40.5,22l2.75-1.5l3-1.5l3-1.25l3-1l6.25-2l6.25-1.5l6.5-1l6.5-0.75l0,0l0,0l0,0l0,0l0,0l5.75-0.25l0,0l0,0l0,0l0,0l0,0l0,0
		l5.75,0.25l5.5,0.5l0,0H95l0,0l0,0l0,0l0,0l0,0h0.25l0,0l6.25,1l6,1.5l6,2l5.75,2.5l2.5,1.5l2.75,1.5l2.5,1.75l2.5,1.75l2.5,2
		l2.25,2l2,2.25l2.25,2.5l0,0l0,0l0,0l-2.25-2.5l-2-2.25l-2.25-2l-2.5-2l-2.5-2l-2.5-1.5l-2.75-1.75L119,19l-5.75-2.5l-5.75-2
		l-6.25-1.5L95,12l0,0l6.25,1l6.25,1.5l5.75,2L119,19l2.75,1.25L124.5,22l2.5,1.5l2.5,2l2.5,2l2.25,2l2,2.25l2.25,2.5L137.75,32l0,0
		l-2-2.25l-2.25-2.25l-2.25-2l-2.25-2l0,0l0,0l-2.5-1.75l-2.5-1.5l-2.5-1.5l-2.5-1.5l0,0l-3.5-1.5l0,0l-5-1.75l-5.25-1.5L100,11.25
		l-5-0.75l0,0l0,0l0,0h-0.25l0,0l0,0l0,0H94.5l0,0L89.75,10L85,9.5l-9.25-0.25l0,0l0,0l0,0l0,0l0,0l0,0l0,0l0,0l0,0l0,0l0,0H75.5
		l0,0l0,0l0,0l0,0l0,0l0,0l0,0l0,0l0,0l0,0l0,0h-0.25l0,0l0,0l0,0l0,0l0,0l0,0l0,0l0,0l0,0l0,0l0,0l-5.75,1l0,0l-3.5,1l-4.25,1l0,0
		l-3,0.75l0,0l0,0l-4,1l-4,1.25L46.5,17l-4.25,1.75l-4,2.25l-3.75,2.5l-3.75,2.75L27.5,29l0,0l0,0l1-1.5l1.25-1.75l3-3.5L36.5,19
		l4.25-3.25l4.5-3l5-2.75l5-2.25L60.25,6L60.25,6L60.25,6z"/>
	<polygon class="st12" points="95,12 95,12 101.25,13 107.5,14.5 113.25,16.5 119,19 121.75,20.25 124.5,22 127,23.5 129.5,25.5 
		132,27.5 134.25,29.5 136.25,31.75 138.5,34.25 138.5,34.25 138.5,34.25 138.5,34.25 136.25,31.75 134.25,29.5 132,27.5 
		129.5,25.5 127,23.5 124.5,22 121.75,20.25 119,19 113.25,16.5 107.5,14.5 101.25,13 95,12 	"/>
	<polygon class="st12" points="77.75,11.5 77.75,11.5 71.25,12.25 64.75,13.25 58.5,14.75 52.25,16.75 49.25,17.75 46.25,19 
		43.25,20.5 40.5,22 37.75,23.75 35.25,25.75 32.75,27.75 30.25,30 30.25,30 32.75,27.75 35.25,25.75 37.75,23.75 40.5,22 
		43.25,20.5 46.25,19 49.25,17.75 52.25,16.75 58.5,14.75 64.75,13.25 71.25,12.25 77.75,11.5 	"/>
	<polygon class="st12" points="95,10.5 95,10.5 95,10.5 100,11.25 105.25,12.5 110.5,14 115.5,15.75 115.5,15.75 119,17.25 
		119,17.25 121.5,18.75 124,20.25 126.5,21.75 129,23.5 129,23.5 129,23.5 126.5,21.75 124,20.25 121.5,18.75 119,17.25 119,17.25 
		115.5,15.75 115.5,15.75 110.5,14 105.25,12.5 100,11.25 95,10.5 	"/>
	
		<rect x="58.704" y="12.625" transform="matrix(0.9701 -0.2425 0.2425 0.9701 -1.2631 14.9897)" class="st9" width="3.092" height="0"/>
	<polygon class="st9" points="60.25,6 60.25,6 60.25,6 55.25,7.75 50.25,10 45.25,12.75 40.75,15.75 36.5,19 32.75,22.25 
		29.75,25.75 28.5,27.5 27.5,29 27.5,29 28.5,27.5 29.75,25.75 32.75,22.25 36.5,19 40.75,15.75 45.25,12.75 50.25,10 55.25,7.75 
		60.25,6 60.25,6 	"/>
	<path class="st17" d="M30.25,30L30.25,30l-2.5,2.75l-2.5,3L23,39l-1.75,3.25l0,0l-1,2.5l-1,2.5l0,0l2-4.75L24,38l3-4.25L30.25,30
		L30.25,30z M30.25,30L30.25,30L30.25,30L27,33.75L24,38l-2.75,4.5l-2,4.75l0,0l0,0l0,0l2-4.75L24,38l3-4.25L30.25,30L30.25,30
		L30.25,30z"/>
	<polygon class="st9" points="30.25,30 30.25,30 30.25,30 27,33.75 24,38 21.25,42.5 19.25,47.25 19.25,47.25 19.25,47.25 
		19.25,47.25 21.25,42.5 24,38 27,33.75 30.25,30 30.25,30 	"/>
	<path class="st5" d="M135,225.25L135,225.25L135,225.25L135,225.25L135,225.25z M162,205.25L162,205.25l-3.25,1l-3.5,1.25
		l-3.75,1.75l-3.5,2l-3.75,2.5l-3.5,2.75l-3.5,3L134,223l0,0l-3,3.75l-2.75,4.25l-2.25,4.25l-2.25,4.25l-1.5,4.5l-1.5,4.5l-1,4.5
		l-0.75,4.25l0,0l-1,6.25l-0.75,6.25l0,0l1.5-5.75l0,0l2-1.5l1.75-1.5l3.75-3.75l0,0l0,0l0,0l0.25-5.5l0.75-5.5l1.25-5.5l0.75-2.75
		l1-2.75l0,0l0,0l1.25-3l1.25-2.75l1.5-3l1.5-2.75l0,0l0,0l0,0l0,0l-0.75,1.5l0,0l3-3.5l4-4l0,0l2-2l2.5-2l0,0l0,0l0,0l0,0l0,0l0,0
		l3.75-2.5l4-2.5l4-2L162,205.25L162,205.25z"/>
	<polygon class="st5" points="177.5,367.75 177.5,367.75 180.25,371.5 183.5,375.25 183.5,375.25 185.5,377.25 187.75,379.5 
		190,381.25 192.25,383 197.25,386.25 202.5,389 208,391.25 213.5,392.75 219,393.75 221.75,394 224.5,394.25 224.5,394.25 
		227,394.25 227,394.25 231.25,394.25 235.75,393.5 240.25,392.75 244.75,391.5 249,389.75 253.25,387.75 257,385.5 260.75,382.75 
		260.75,382.75 263,380.5 262.5,380.75 262.5,380.75 259,383.5 255,385.75 251,388 247,389.75 242.5,391.25 238.25,392.25 
		233.75,392.75 229.25,393 229.25,393 228.75,393 228.75,393 227.75,393 227.75,393 223.5,393 219,392.5 214.5,391.5 210.25,390.5 
		205.75,388.75 201.5,387 197.25,384.5 193.25,381.75 191.75,380.5 191.75,380.5 187.75,377.75 184.25,374.75 180.75,371.25 
		177.5,367.75 	"/>
	<polygon class="st17" points="157.75,328.75 156.75,328.75 156.75,328.75 157.75,334.75 159.25,340.5 160.75,346.25 163,351.75 
		165.5,357.25 168.25,362.5 171.5,367.25 175,372 175,372 173,369.25 171,366.5 167.75,360.75 168.5,362.5 168.5,362.5 165,355.25 
		165,355.25 162.5,348.75 160.25,342 158.75,335.25 158.25,332 157.75,328.75 	"/>
	<polygon class="st17" points="158.75,325.75 158.5,327.75 158.5,327.75 159.75,334.5 161.25,341.25 161.25,341.25 160.5,337.5 
		159.75,333.5 159,329.75 158.75,325.75 	"/>
	<polygon class="st17" points="255.5,363.75 255.5,363.75 253.5,365.25 253,365.75 253,365.75 255.5,363.75 	"/>
	<path class="st17" d="M192.75,329L192.75,329v1.75l0,0V329L192.75,329z M192.75,327.25L192.75,327.25V329l0,0V327.25L192.75,327.25
		z M192.75,326.5L192.75,326.5v0.75l0,0V326.5L192.75,326.5z"/>
	<polygon class="st17" points="192.75,330.75 192.75,331.25 192.75,330.75 	"/>
	<polygon class="st17" points="191.25,258.25 191.25,258.25 187.75,261 187.75,261 191.25,258.25 	"/>
	<polygon class="st17" points="191.5,309.5 191,310.75 191.5,309.5 	"/>
	<polygon class="st17" points="277.5,227 277.5,227 279.75,231 281.75,235.25 281.75,235.25 281.75,235.25 279.75,231 277.5,227 	
		"/>
	<polygon class="st17" points="259.5,360.25 259.5,360.25 255.5,363.75 255.5,363.75 259.5,360.25 	"/>
	<polygon class="st17" points="181.75,265.5 181,266 181,266 177.75,270.25 177.75,270.25 181.75,265.5 	"/>
	<polygon class="st17" points="198.25,253.5 195.75,255 195.75,255 193.5,256.5 191.25,258.25 191.25,258.25 194.75,255.75 
		198.25,253.5 	"/>
	<path class="st17" d="M167.75,286.75l-0.75,1.5l0,0l-1.5,4.75l-1.25,4.5l0,0l1.5-5.25L167.75,286.75L167.75,286.75L167.75,286.75z
		 M167.75,286.75L167.75,286.75L167.75,286.75z M167.75,286.75l-0.75,1.5L167.75,286.75L167.75,286.75z"/>
	<path class="st17" d="M177.75,270.5L179,269L177.75,270.5L177.75,270.5z M177.75,270.5L179,269L177.75,270.5L177.75,270.5z
		 M190.5,257.5L190.5,257.5l-4.5,3.75l-4.25,4.25l0,0l0,0l-4,4.75l0,0l0,0L181,266l0,0l0,0l-3.25,4.25l0,0L181,266l0,0l-2.75,3.5
		l-2.75,3.5l-2.75,3.75l-2.25,3.75l-2.25,4.25L166,289l-1.75,4.5l-1.75,4.5v2l0,0l1.25-4.25l1.5-4.25l1.75-4l1.75-4l0,0l-1.75,4.75
		l0.75-1.5l-0.75,1.5l0,0l0.75-1.5l-0.75,1.5l0,0l0.75-1.5l1.5-3l-1.5,3l0,0l2-3.75l2.25-3.75l2.25-3.75l2.5-3.5l0,0l-4,5.5l0,0l0,0
		l0,0l0,0l0,0l0,0l2.5-3.5l2.5-3.5l0,0l0,0l0,0l-1,1.5l0,0l2.75-3.25l2.75-2.75l0,0l0,0l0,0l4-4.5L190.5,257.5L190.5,257.5z"/>
	<polygon class="st9" points="181,266 181,266 181,266 177.75,270.25 177.75,270.25 181,266 181,266 	"/>
	<polygon class="st9" points="167.75,286.75 167,288.25 167.75,286.75 	"/>
	<polygon class="st17" points="211.5,247.25 211.5,247.25 208.5,248 205.75,249 203,250 200.25,251.25 195.25,254.25 190.5,257.5 
		190.5,257.5 190.5,257.5 186.25,261.5 182.25,266 182.25,266 184.75,263.25 184.75,263.25 184.75,263.25 184.75,263.25 
		184.75,263.25 184.75,263.25 188.25,260.25 192.25,257 196.25,254.25 200.5,251.75 200.5,251.75 200.5,251.75 200.5,251.75 
		200.5,251.75 200.5,251.75 200.5,251.75 203.5,250.25 206.75,248.75 206.75,248.75 203.5,250.25 200.5,251.75 200.5,251.75 
		200.5,251.75 203.5,250.25 206.75,248.75 206.75,248.75 206.75,248.75 209.25,248 211.5,247.25 	"/>
	<polygon class="st17" points="169.25,283.75 169.25,283.75 167.75,286.75 169.25,283.75 167.75,286.75 167.75,286.75 
		169.25,283.75 	"/>
	<polygon class="st9" points="169.25,283.75 169.25,283.75 167.75,286.75 169.25,283.75 	"/>
	<path class="st17" d="M212.75,247l-1.25,0.25l0,0l0,0l-2.25,0.75l-2.5,0.75l0,0l3-0.75l0,0l0,0L212.75,247L212.75,247z
		 M213.5,246.75L213.5,246.75l-0.75,0.25L213.5,246.75L213.5,246.75z"/>
	<polygon class="st17" points="210.75,247.75 210.75,247.75 210.75,247.75 	"/>
	<polygon class="st17" points="208,248.5 208,248.5 205.5,249.5 203.25,250.5 203.25,250.5 200.75,252 198.25,253.5 198.25,253.5 
		203,250.75 205.5,249.5 208,248.5 	"/>
	<polygon class="st9" points="167.75,286.75 167,288.25 167.75,286.75 	"/>
	<path class="st17" d="M208,248.5L208,248.5L208,248.5L208,248.5L208,248.5z M210.75,247.75L210.75,247.75l-1.75,0.5l0,0l0,0
		L210.75,247.75L210.75,247.75L210.75,247.75L210.75,247.75z"/>
	<path class="st17" d="M203.25,250.5L203.25,250.5l2.25-1l2.5-1l0,0l-2.5,1L203.25,250.5L203.25,250.5z M209.75,248L209.75,248
		l-3,0.75l0,0l0,0l-3.25,1.5l-3,1.5l0,0l0,0l3-1.5l3.25-1.5l0,0l-3.25,1.5l-3,1.5l0,0l2.75-1.25l0,0l0,0l0,0l0,0l0,0l0,0l0,0l0,0
		l0,0l0,0l0,0l0,0l2.25-1l2.5-1l0,0l1-0.25l0,0l-1,0.25l0,0l1-0.25L209.75,248L209.75,248z"/>
	<path class="st9" d="M209,248.25L209,248.25l-1,0.25L209,248.25L209,248.25z M210.75,247.75l-1,0.25l-0.75,0.25l0,0l0,0
		L210.75,247.75L210.75,247.75z"/>
	<polygon class="st9" points="208,248.5 208,248.5 205.5,249.5 203.25,250.5 203.25,250.5 205.5,249.5 208,248.5 	"/>
	<polygon class="st9" points="206.75,248.75 206.75,248.75 203.5,250.25 200.5,251.75 200.5,251.75 200.5,251.75 203.5,250.25 
		206.75,248.75 	"/>
	<polygon class="st17" points="203.25,250.5 203.25,250.5 203.25,250.5 203.25,250.5 200.75,252 198.25,253.5 198.25,253.5 
		200.75,252 203.25,250.5 203.25,250.5 199.5,252.75 195.75,255 198.25,253.5 195.75,255 195.75,255 198.25,253.5 198.25,253.5 
		200.75,252 203.25,250.5 203.25,250.5 	"/>
	<polygon class="st9" points="198.25,253.5 195.75,255 198.25,253.5 	"/>
	<polygon class="st9" points="203.25,250.5 203.25,250.5 203.25,250.5 203.25,250.5 200.75,252 198.25,253.5 198.25,253.5 
		200.75,252 203.25,250.5 203.25,250.5 203.25,250.5 	"/>
	<polygon class="st17" points="203.25,250.5 203.25,250.5 203.25,250.5 199.5,252.75 195.75,255 195.75,255 199.5,252.75 
		203.25,250.5 203.25,250.5 200.5,251.75 200.5,251.75 200.5,251.75 200.5,251.75 200.5,251.75 200.5,251.75 199.75,252.25 
		199.75,252.25 195.75,254.75 191.75,257.5 191.75,257.5 195.75,255 195.75,255 199.5,252.75 203.25,250.5 203.25,250.5 	"/>
	<polygon class="st9" points="203.25,250.5 203.25,250.5 203.25,250.5 199.5,252.75 195.75,255 195.75,255 199.5,252.75 
		203.25,250.5 203.25,250.5 	"/>
	<polygon class="st9" points="179,269 177.75,270.5 179,269 	"/>
	<polygon class="st17" points="177.75,270.5 177.75,270.5 176.75,272 177.75,270.5 177.75,270.5 175.25,274 172.75,277.5 
		172.75,277.5 176.75,272 176.75,272 172.75,277.5 172.75,277.5 172.75,277.5 172.75,277.5 176.75,272 177.75,270.5 	"/>
	<polygon class="st9" points="177.75,270.5 177.75,270.5 176.75,272 177.75,270.5 	"/>
	<polygon class="st9" points="176.75,272 176.75,272 172.75,277.5 172.75,277.5 172.75,277.5 172.75,277.5 176.75,272 	"/>
	<polygon class="st17" points="184.75,263.25 184.75,263.25 182.25,266 182.25,266 181.25,267.25 181.25,267.25 184.75,263.25 
		184.75,263.25 	"/>
	<polygon class="st17" points="200.5,251.75 200.5,251.75 199.75,252.25 200.5,251.75 200.5,251.75 199.75,252.25 200.5,251.75 
		200.5,251.75 199.75,252.25 200.5,251.75 200.5,251.75 196.25,254.25 192.25,257 188.25,260.25 184.75,263.25 184.75,263.25 
		184.75,263.25 188.25,260.25 191.75,257.5 195.5,254.75 199.75,252.25 200.5,251.75 	"/>
	<path class="st9" d="M200.5,251.75L200.5,251.75l-0.75,0.5L200.5,251.75L200.5,251.75z M200.5,251.75L200.5,251.75l-0.75,0.5
		L200.5,251.75L200.5,251.75z"/>
	<polygon class="st8" points="200.5,251.75 200.5,251.75 199.75,252.25 200.5,251.75 	"/>
	<polygon class="st17" points="184.25,312.5 184.25,312.5 183.25,318 183,320.75 182.75,323.75 182.75,323.75 183.25,318.75 
		184.25,314 184.25,312.5 	"/>
	<polygon class="st17" points="184.25,316 184.25,316 183.5,318.75 183.25,321.75 183,327.75 183,327.75 183.25,323 184,318.5 
		184,318.5 184,318.5 184.25,316 	"/>
	<polygon class="st17" points="187.25,325.25 187.25,325.25 187.25,325.25 187.25,325.25 188,331.5 188.25,334.75 189,337.75 
		189,337.75 189,337.75 188.75,337.25 188.75,337.25 189.5,340 190.5,343 193,348.5 193,348.5 191,343.25 189.5,337.75 
		188.25,331.75 187.75,328.5 187.25,325.25 187.25,325.25 188,331.5 188.25,334.75 189,337.75 189,337.75 188.25,334.75 188,331.5 
		187.25,325.25 187.25,325.25 	"/>
	<polygon class="st17" points="187.25,325.25 187.25,325.25 187.25,325.25 187.75,331.25 188.25,334.25 188.75,337.25 189,337.75 
		189,337.75 188.25,334.75 188,331.5 187.25,325.25 	"/>
	<polygon class="st9" points="187.25,325.25 187.25,325.25 187.25,325.25 188,331.5 188.25,334.75 189,337.75 189,337.75 
		188.25,334.75 188,331.5 187.25,325.25 187.25,325.25 	"/>
	<polygon class="st17" points="184,318.5 184,318.5 184,318.5 184,321.25 183.75,324.25 184.25,321 184.25,321 184,318.5 184,318.5 
			"/>
	<polygon class="st17" points="190,294.75 190,294.75 188.25,298.5 188.25,298.5 190,294.75 	"/>
	<polygon class="st6" points="252.75,295 252.75,295 251.75,299.75 250.25,304.5 249.25,307 248.25,309.25 247,311.5 245.5,313.75 
		245.5,313.75 244,315.5 242.5,317.25 240.75,318.75 238.75,320 237,321 235,321.75 233,322.25 231.25,322.5 231.25,322.5 
		230.5,322.25 230.5,322.25 227.25,322.75 227.25,322.75 225,323 222.25,323.5 222.25,323.5 225.5,324 228.75,324 228.75,324 
		230.75,324 233,323.75 235,323.25 237,322.5 239,321.5 241,320 242.75,318.5 244.5,316.5 244.5,316.5 243.5,317.5 242.25,318.5 
		242.25,318.5 244.5,315.75 246.5,312.75 248.25,310 249.5,307.25 250.75,304.25 251.5,301.25 252.25,298.25 252.75,295 	"/>
	<polygon class="st17" points="249.75,277.25 250.5,280 249.75,277.25 	"/>
	<polygon class="st17" points="247,313 247,313 245.75,314.75 244.5,316.5 244.5,316.5 245.75,314.75 247,313 	"/>
	<polygon class="st17" points="250.5,280 250.5,280 250.75,282.25 251,284.25 251,284.25 250.75,282.25 250.5,280 	"/>
	<polygon class="st17" points="186.75,295 186.75,295 185,298.75 183.25,302.5 183.25,302.5 185.25,298.75 185.25,298.75 
		185.25,298.75 185.25,298.75 185.25,298.75 185.25,298.75 185.25,298.75 185.25,298.75 187,295 186.75,295 	"/>
	<polygon class="st17" points="187,295 187,295 187,295 185.25,298.75 185.25,298.75 185.25,298.75 187,295 187,295 	"/>
	<polygon class="st17" points="188.75,294.25 187.5,295.25 187.5,295.25 185.25,300 183.5,304.75 183.5,304.75 185.25,301 
		187.25,297.25 187.25,297.25 188.75,294.25 	"/>
	<polygon class="st17" points="188.75,294.25 188.75,294.25 187.25,297.25 189,294.25 188.75,294.25 	"/>
	<polygon class="st17" points="189.5,293.75 189,294.25 187.25,297.25 187.25,297.25 187.25,297.25 185,302.5 185,302.5 187,298 
		189.5,293.75 	"/>
	<path class="st6" d="M183.25,302.5L183.25,302.5l1.75-3.75l1.75-3.75l0,0l-1.75,3.75L183.25,302.5L183.25,302.5z M188,290L188,290
		l-2.25,5l-2,4.75L182,305l-1.25,5.25l0,0l-0.5,3l-0.25,3v3v3.25l0,0l0.25-3l0.25-3l1-6l1.75-6l2-5.75l0,0l0,0l-2,3.75l0,0l0,0
		l1.75-3.75l1.75-3.75l0,0L188,290L188,290z"/>
	<polygon class="st14" points="186.75,295 186.75,295 185,298.75 183.25,302.5 183.25,302.5 185,298.75 186.75,295 	"/>
	<polygon class="st17" points="201,271 201,271 198,273.75 195.25,276.5 192.5,279.5 190,282.75 187.5,286 185.25,289.75 
		183.25,293.5 181.25,297.5 181.25,297.5 184.25,292 188,286 190,283.25 192,280.5 194,278 196,276 195.25,277 195.25,277 
		192.25,281.25 189.25,285.5 186.75,289.75 184.5,293.75 182.5,298.25 180.75,302.75 179.25,307.5 178.25,313 177.75,315.25 
		177.75,315.25 179.75,308.75 182.25,301.5 183.75,297.75 185.5,294 187.25,290.25 189.5,286.75 189.5,286.75 192,282.5 
		194.75,278.5 197.75,274.75 201,271 	"/>
	<polygon class="st17" points="180,301.5 180,301.5 178,305.5 176.5,309.75 176.5,309.75 175.75,313 175.25,316.5 175.25,316.5 
		176,312.5 177.25,308.75 178.5,305.25 180,301.5 	"/>
	<polygon class="st17" points="175.75,337.75 175.75,337.75 176.25,340.75 176.25,340.75 176.25,340 176.25,340 176.25,340 
		175.75,337.75 	"/>
	<path class="st17" d="M175.75,337.75L175.75,337.75l-0.75-5l-0.25-5l0,0l0.25,5L175.75,337.75L175.75,337.75z M175.75,337.75
		L175.75,337.75l-0.75-5l-0.25-5l0,0l0.25,5L175.75,337.75L175.75,337.75z M174.75,324L174.75,324v2.5l0,0v1.25l0,0l0,0l0,0l0,0l0,0
		l0,0l0.25,5l0.75,5l0,0l0,0l0,0l0,0l0,0l0.5,2.25l0,0l-0.75-3.5l-0.25-3.5l-0.5-3.5V326l0,0V324L174.75,324z"/>
	<polygon class="st17" points="176.5,309.75 176.5,309.75 176.5,309.75 175.75,313 175.25,316.5 175.25,316.5 175.75,313 
		176.5,309.75 176.5,309.75 175.5,313.25 174.75,316.75 174.25,320.25 174,324 173.75,327.75 173.75,331.25 174.25,338 174.25,338 
		174.25,338 174.25,338 175.5,342.25 176.75,346.25 178.25,350.5 180,354.25 180,354.25 180,354.25 178.25,350.5 176.75,346.25 
		175.5,342.25 174.25,338 174.25,338 175.5,342.25 176.75,346.25 178.25,350.5 180,354.25 180,354.25 178.75,351 177.75,347.5 
		177,344.25 176.25,340.75 176.25,340.75 175.75,337.75 175.75,337.75 175.75,337.75 175,332.75 174.75,327.75 174.75,327.75 
		174.75,327.75 174.75,326.5 174.75,326.5 174.75,326.5 174.75,326.5 174.75,326.5 174.75,324 174.75,324 174.75,320.25 
		175.25,316.5 175.25,316.5 175.25,316.5 175.25,316.5 175.75,313 176.5,309.75 	"/>
	<polygon class="st9" points="176.5,309.75 176.5,309.75 176.5,309.75 175.75,313 175.25,316.5 175.25,316.5 175.75,313 
		176.5,309.75 176.5,309.75 	"/>
	<polygon class="st9" points="175.75,337.75 175.75,337.75 175.75,337.75 176.25,340.75 176.25,340.75 176.25,340.75 176.25,340.75 
		175.75,337.75 175.75,337.75 175.75,337.75 	"/>
	<polygon class="st9" points="174.75,327.75 174.75,327.75 175,332.75 175.75,337.75 175.75,337.75 175,332.75 174.75,327.75 	"/>
	<polygon class="st9" points="174.75,327.75 174.75,327.75 175,332.75 175.75,337.75 175.75,337.75 175,332.75 174.75,327.75 	"/>
	<polygon class="st17" points="175,342.75 175,342.75 175.25,346 176,349.25 174.5,347.25 174.5,347.25 176.25,351.75 178.5,356 
		181,360.25 184,364.25 184,364.25 181.5,359.75 179,354.5 176.75,349 175,342.75 	"/>
	<polygon class="st17" points="273.25,304.5 273.25,304.5 272.75,307.5 272,310.25 273.5,306.5 273.5,306.5 273.25,304.5 	"/>
	<polygon class="st15" points="181.75,213.75 181.75,213.75 181.5,213.75 181.5,213.75 178,213.75 174.25,214.25 170,215.25 
		165.5,216.5 161,218.25 156.5,220.5 154.25,222 152.25,223.5 150,225 148,227 148,227 148,227 148,227 147.75,227 147.75,227 
		147.75,227 147.75,227 147.75,227.25 147.75,227.25 144.25,231 141.25,235.25 138.75,239.75 136.75,244.5 136.75,244.5 
		139.25,241.75 142,239.25 144.75,236.75 148,234.25 151.25,232.25 155,230.5 159,228.75 163,227.5 163,227.5 165.5,225.75 
		168,224.25 171,222.75 174,221.5 177.25,220.25 180.5,219 184,218 187.5,217.25 187.5,217.25 187.5,217.25 187.5,217.25 
		188.5,216.5 189,215.75 189,215.75 189,215.5 189,215.5 189,215.5 189,215.5 189,215.5 189,215.5 189,215.5 189,215.5 189,215.5 
		189,215.5 189,215.5 188.75,215 188.5,214.75 187,214.25 184.75,213.75 181.75,213.75 181.75,213.75 181.75,213.75 	"/>
	<polygon class="st17" points="232.25,222.75 232.25,222.75 234.25,224.25 234.25,224.25 234.25,224.25 237.25,225.5 239.75,226.75 
		241.75,227.75 243.25,228 243.25,228 239.75,225.5 237,224.25 235,223.75 232.25,222.75 	"/>
	<path class="st1" d="M274.75,279.25L274.75,279.25l-1.5-7.25l-1-3.5l-1-3.5l0,0l1,3.5l1,3.5L274.75,279.25L274.75,279.25z
		 M261.5,245L261.5,245l-3.75-5.25l-4.5-5.25l-2.5-2.75l-2.5-2.25l-2.5-2.25l-2.5-2l0,0l2.5,2l2.5,2.25l2.5,2.25l2.5,2.75l4.5,5.25
		L261.5,245L261.5,245z M243.25,228L243.25,228l-3.5-2.5l-2.75-1.25l-2-0.5l-2.75-1l0,0l2.75,1l2,0.5l2.75,1.25L243.25,228
		L243.25,228z M203.75,205.75L203.75,205.75L203.75,205.75l-5.5,0.25l-5.25,0.5l0,0l-0.5,0.25l0,0l0,0l0,0l0,0l0,0h0.25l0,0l0,0l0,0
		l0,0l0,0l0,0l0,0l0,0l0,0l0,0l0,0H193l0,0l0,0l0,0l0,0l0,0l0,0l0,0l0,0l0,0l0,0h0.25l0,0l0,0l0,0l0,0l0,0h9l4.75,0.5l5,0.5l0,0l0,0
		l0,0h0.25l0,0l0,0l0,0l2.75,0.5l0,0l0,0l0,0l0,0l4.5,0.75l4.5,1l4.5,1.5l4.5,1.75l0,0l3.25,1.5l0,0l4.5,2.25l4.25,2.75l0,0l1.25,1
		l0,0l0,0l0,0l2.5,2l2.25,2l2,2.25l2,2.25l0.75,2.25l0,0l0,0l0,0l0,0l0,0l-2-2.5l-2.25-2.25l-2.25-2l-2.25-2l-2.5-1.75l-2.5-1.75
		l-2.75-1.5l-2.75-1.5l-5.5-2.5l-6-2l-6-1.5l-6-1l0,0h-0.5l0,0h-0.25l0,0l0,0l0,0H212l0,0l0,0l0,0l0,0l0,0l-5.5-0.5l-5.5-0.25l0,0
		h-0.25l0,0l0,0l0,0l-5.5,0.25l0,0H195l0,0l0,0l-6.5,0.75l-6.5,1l-6.25,1.5l-6.25,2l-3,1l-3,1.25l-2.75,1.5l-3,1.5l-2.5,1.75
		l-2.75,2l-2.5,2l-2.25,2.25l0,0l0,0l0,0V227l0,0l0,0l0,0H148l0,0l0,0l0,0l2-2l2.25-1.5l2-1.5l2.25-1.5l4.5-2.25l4.5-1.75l4.5-1.25
		l4.25-1l3.75-0.5h3.5l0,0h0.25l0,0l0,0l0,0l0,0l0,0h3l2.25,0.5l1.5,0.5l0.25,0.5l0.25,0.25l0,0l0,0l0,0l0,0l0,0v0.25l0,0l-0.5,0.75
		l-1,0.75l0,0l0,0l2.75-0.25l2.75-0.5l0,0l5.25-0.25l0,0l3.75,0.25l3.75,0.5l3.25,0.5l2.75,1l0,0l0.25-0.25l-0.25-0.5l-0.5-0.5
		l-0.75-0.5l-2-1l-2.75-1l-3.5-0.75l-4-0.5L194,213h-4.25l0,0h-1.5l0,0l4.25-1.25l4.5-1l0,0h4.25l4,0.25l4,0.75l4,0.5l0,0v0.25
		l0.25,0.25l1.5,0.5l4.25,1.5l2.25,0.75l1.5,0.5l0.5,0.25v0.25l-0.25,0.25h-0.75l0,0l4.25,2l3.75,2l0,0l1,1l0.75,1l0,0l2.75,1l2,0.5
		l2.75,1.25l3.5,2.5l0,0l0,0l-1.5-0.25l-2-1l-2.5-1.25l-3-1.25l0,0l1,0.75l0,0l5.5,3.25l2.75,1.75l2.5,2l0,0l0,0l3.5,3l1.5,0.75
		l0.75,0.5l0,0l0,0L252,236l0,0l0,0l0,0v-0.25l0,0l0,0V236l0,0v-0.25l0,0l-0.25-0.75l-1-1.75l0,0L247,229l-1.75-2l-2-1.75l0,0l0,0
		l0,0l0,0l0,0l0,0l2.5,2l2.5,2.25l2.5,2.25l2.5,2.75l4.5,5.25l3.75,5.25l0,0l0,0l0,0l2.25,3.5l2,3.5l0,0v0.5l0,0l3,6l2.5,6.5l0,0
		l0,0l0,0l0,0l1,3.5l1,3.5l1.5,7.25l0.5,4l0,0l-0.25-4l-0.25-3.75l-1.25-7.75l1.25,1l0,0l1.5,5.5l1.25,5.75l0,0l-1.25-6l-1.25-5.75
		l-1.75-5.25l-1.25-4.25l0,0l-2.25-5.75l-2.5-5.75l-3-5.75l-3.5-6l-2-2.75L256.5,230l-2.25-2.75l-2.5-2.75l-2.5-2.5l-2.75-2.25
		l-2.75-2.5l-3.25-2l0,0l0,0l-3.25-1.75l-3.25-1.75l-3.5-1.25l-3.75-1.25l0,0L222,208l0,0l0,0l0,0l-4.5-1l-4.5-0.75l-4.75-0.25
		L203.75,205.75L203.75,205.75L203.75,205.75L203.75,205.75z"/>
	<path class="st10" d="M147.75,227L147.75,227v0.25l0,0l0,0V227L147.75,227z M147.75,227L147.75,227L147.75,227L147.75,227
		L147.75,227L147.75,227z M148,227L148,227h-0.25l0,0H148L148,227z M148,227L148,227L148,227L148,227L148,227L148,227z M189,215.5
		L189,215.5L189,215.5L189,215.5L189,215.5L189,215.5L189,215.5z M181.5,213.75L181.5,213.75H178l-3.75,0.5l-4.25,1l-4.5,1.25
		l-4.5,1.75l-4.5,2.25l-2.25,1.5l-2,1.5L150,225l-2,2l0,0l2-2l2.25-1.5l2-1.5l2.25-1.5l4.5-2.25l4.5-1.75l4.5-1.25l4.25-1l3.75-0.5
		H181.5L181.5,213.75z M181.75,213.75L181.75,213.75h3l2.25,0.5l1.5,0.5l0.25,0.25l0.25,0.5l0,0l0,0l0,0l0,0l-0.25-0.25l-0.25-0.5
		l-1.5-0.5l-2.25-0.5H181.75L181.75,213.75z M181.75,213.75L181.75,213.75h-0.25l0,0H181.75L181.75,213.75L181.75,213.75z
		 M181.75,213.75L181.75,213.75L181.75,213.75L181.75,213.75L181.75,213.75L181.75,213.75L181.75,213.75z"/>
	<polygon class="st11" points="232.25,222.75 232.25,222.75 235,223.75 237,224.25 239.75,225.5 243.25,228 243.25,228 
		239.75,225.5 237,224.25 235,223.75 232.25,222.75 	"/>
	<polygon class="st17" points="269.5,263.25 269.5,263.25 271.75,272 273,276.5 273.75,281.5 273.75,281.5 273.75,281.5 
		273.75,281.5 274.5,287 275,292.5 275,292.5 275.25,288 275.25,283.25 275.25,283.25 274.75,279.25 274.75,279.25 273.25,272 
		272.25,268.5 271.25,265 271.25,265 270.75,264.25 270.75,264.25 272.5,270.5 273.25,273.5 273.75,276.75 273.75,276.75 
		273.75,276.75 273.75,276.75 273.75,276.75 273.75,276.75 273.75,276.75 273.75,276.75 273.75,276.75 273.25,275 273.25,275 
		271.75,269.25 269.5,263.25 	"/>
	<polygon class="st9" points="271.25,265 271.25,265 272.25,268.5 273.25,272 274.75,279.25 274.75,279.25 273.25,272 272.25,268.5 
		271.25,265 	"/>
	<polygon class="st17" points="232.25,222.75 232.25,222.75 232.5,223.75 232.5,223.75 234.25,224.25 232.25,222.75 	"/>
	<path class="st17" d="M169.25,204.25L169.25,204.25L169.25,204.25z M168.25,203.75L168.25,203.75L168.25,203.75z"/>
	<polygon class="st7" points="232.5,223.75 232.5,223.75 232.5,224.25 232,224.75 231,225.75 230,226.5 229,227.5 228.5,228 
		228.25,228.75 228.25,229.5 228.5,230.25 229,231.25 230,232.25 232.75,235.25 232.75,235.25 232.75,235.25 232.75,235.25 233,235 
		233.25,234.75 233.25,234 233.25,234 233.25,233.25 233.25,233 233.5,233 233.5,233 234.5,233.25 235.75,234 237.75,236 
		237.75,236 237,234 236.5,232.25 236.5,231.5 236.75,231 237,230.5 237.5,230.25 237.5,230.25 239.25,230.5 240.25,231 
		241.75,231.75 243.25,232.75 245,234.25 247.25,236.5 249.5,239.25 250,239.75 250.25,240.25 250.25,240.25 252.5,243.25 254,246 
		255,248.5 255.75,250.75 256.75,255.25 257.25,258 258.25,260.75 258.25,260.75 258,258.75 257.25,256.25 256.75,254 256.75,253 
		256.75,252.5 256.75,252.5 258.75,257.75 260.5,263 260.5,263 260.5,261.25 260,259.25 258.5,254.5 256.75,249.75 255.25,245.75 
		255.25,245.75 257,249.25 258.5,249.75 258.5,249.75 261.5,255.75 264,261.25 265.5,266.5 266.5,271.25 267.25,276 267.5,280.75 
		267.75,290 267.75,290 268,277.5 268,268.25 268,268.25 269.5,270.5 270.5,272.75 270.5,272.75 271.25,276.5 271.75,280.25 
		272,284 272.25,287.5 272.25,287.5 272.75,283.5 273,279.5 273.75,281.5 273.75,281.5 273,276.5 271.75,272 269.5,263.25 
		269.5,263.25 269.5,263.25 269.5,263.25 271.75,269.25 273.25,275 273.25,275 273.25,275 271.75,269.25 269.5,263.25 269.5,263.25 
		271.75,269.25 273.25,275 273.25,275 271.75,269 269.75,263.25 266,253.25 266,253.25 268.5,258.75 270.75,264.25 271.25,265 
		271.25,265 270.75,264.25 271.25,265 271.25,265 268.75,258.5 265.75,252.5 265.75,252.5 265.75,252 265.75,252 263.75,248.5 
		261.5,245 261.5,245 261.5,245 257.75,239.75 253.25,234.5 250.75,231.75 248.25,229.5 245.75,227.25 243.25,225.25 243.25,225.25 
		245.25,227 247,229 250.75,233.25 250.75,233.25 251.75,235 252,235.75 252,235.75 252,235.75 252,235.75 252,236 252,236 252,236 
		252,236 251.75,236.25 251.75,236.25 251.75,236.25 251.75,236.25 251.75,236.25 251,235.75 249.5,235 246,232 246,232 246,232 
		243.5,230 240.75,228.25 235.25,225 235.25,225 234.25,224.25 234.25,224.25 232.5,223.75 	"/>
	<path class="st3" d="M273.75,276.75L273.75,276.75L273.75,276.75L273.75,276.75L273.75,276.75z M273.25,275L273.25,275l0.5,1.75
		l0,0L273.25,275L273.25,275z"/>
	<path class="st16" d="M252,235.75L252,235.75L252,235.75V236l0,0V235.75L252,235.75L252,235.75L252,235.75z M243.25,225.25
		L243.25,225.25L243.25,225.25L243.25,225.25l2,1.75l1.75,2l3.75,4.25l0,0l1,1.75l0.25,0.75l0,0l-0.25-0.75l-1-1.75l0,0L247,229
		l-1.75-2L243.25,225.25L243.25,225.25L243.25,225.25L243.25,225.25z"/>
	<polygon class="st16" points="243.25,225.25 243.25,225.25 245.75,227.25 248.25,229.5 250.75,231.75 253.25,234.5 257.75,239.75 
		261.5,245 261.5,245 257.75,239.75 253.25,234.5 250.75,231.75 248.25,229.5 245.75,227.25 243.25,225.25 	"/>
	<polygon class="st12" points="269.5,263.25 269.5,263.25 271.75,269.25 273.25,275 273.25,275 273.75,276.75 273.75,276.75 
		273.75,276.75 273.75,276.75 273.25,275 273.25,275 271.75,269.25 269.5,263.25 	"/>
	<polygon class="st12" points="270.75,264.25 271.25,265 270.75,264.25 	"/>
	<path class="st7" d="M234,382L234,382L234,382L234,382L234,382L234,382L234,382z M235.25,382L235.25,382h0.25l0,0H235.25
		L235.25,382z M233.75,382L233.75,382h-2l0,0H233.75L233.75,382z M231.5,382L231.5,382h-0.25l0,0H231.5L231.5,382z M231,382L231,382
		L231,382L231,382L231,382L231,382z M232,381.5L232,381.5L232,381.5L232,381.5L232,381.5L232,381.5L232,381.5z M231.75,381.5
		L231.75,381.5L231.75,381.5L231.75,381.5L231.75,381.5L231.75,381.5z M231.75,381.5L231.75,381.5L231.75,381.5L231.75,381.5
		L231.75,381.5L231.75,381.5z M231.75,381.5L231.75,381.5L231.75,381.5L231.75,381.5L231.75,381.5L231.75,381.5z M231,382L231,382
		l0.75-0.5L231,382L231,382z M243.25,380L243.25,380L243.25,380L243.25,380L243.25,380L243.25,380z M239,380.5L239,380.5l2-0.5
		l2-0.75l0,0l-2,0.75L239,380.5L239,380.5z M231,382L231,382l-4.25-0.5l-3.75-0.75l-4-1.25l-3.75-1.25l-3.75-1.75l-3.75-2.25
		l-3.75-2.5l-3.75-3l0,0l3.75,3l3.75,2.5l3.75,2.25l3.75,1.75l3.75,1.25l4,1.25l3.75,0.75L231,382L231,382L231,382z M260.25,366.5
		L260.25,366.5l4.5-5l4-4.5l1.75-2.5l1.75-2.75l1.75-3l1.5-3.25l0,0l-1.5,3.25l-1.75,3l-1.75,2.75l-1.75,2.5l-4,4.5L260.25,366.5
		L260.25,366.5z M267,358.25L267,358.25l3.5-5.25l3-5l2.5-5l2.5-5.75l0.25-0.75l0,0l2.25-6.75l0,0l-2.25,6.75l-0.25,0.75l0,0
		L276,343l-2.5,5l-3,5L267,358.25L267,358.25z M252.25,216.5l-1.5-1.25l0.75,0.5L252.25,216.5L252.25,216.5z M252.25,216.5
		l-0.75-0.75l-0.75-0.5l0.75,0.5L252.25,216.5L252.25,216.5z M277.5,280L277.5,280l-1.25-6l-1.25-5.75l-1.75-5.25l-1.25-4.25l0,0
		l-2.25-5.75l-2.5-5.75l-3-5.75l-3.5-6l-2-2.75L256.5,230l-2.25-2.75l-2.5-2.75l-2.5-2.5l-2.75-2.25l-2.75-2.5l-3.25-2l0,0l3.25,2
		l2.75,2.5l2.75,2.25l2.5,2.5l2.5,2.75l2.25,2.75l2.25,2.75l2,2.75l3.5,6l3,5.75l2.5,5.75l2.25,5.75l0,0l1.25,4.25l1.75,5.25
		l1.25,5.75L277.5,280L277.5,280z M250,215.25L250,215.25L250,215.25l2,1.5l0.5,0.25l0,0l1.25,1l1.25,1l1,1l0,0l4,3.75l3.75,3.75
		l3.5,3.75l3.25,4l0.25,0.5l0.5,0.5l0,0l3,3.5l0,0l0,0l-1.5-1.75l-1.5-1.75l0,0l-0.75-1l-1.25-1.25l-2-2.5l-2-2.25l-2-2.25l-1.5-1.5
		l-2.25-2.25l0,0l-2.25-2L256,220l0,0l-4-3.25L250,215.25L250,215.25L250,215.25z M247.5,213.25L247.5,213.25l-5.25-2.5l0,0
		l1.75,0.75l2.75,1.5L247.5,213.25L247.5,213.25z M247.5,213.25l-0.75-0.25l-2.75-1.5l0,0l-1.75-0.75l0,0l1.75,0.75l2.75,1.5
		L247.5,213.25L247.5,213.25z M239,209.25L239,209.25L239,209.25l3.5,1.5l0,0l1,0.5l0,0l4.25,2.5l0,0l2,1.25l0,0l-2-1.25l0,0l0,0
		l2,1.25l0,0l-2-1.25l0,0l-0.5-0.25l-2.75-1.5l0,0l-1-0.75l0,0l-1-0.5l0,0l-0.75-0.25L239,209.25L239,209.25L239,209.25z
		 M239,209.25L239,209.25l-4.75-1.75l-4.75-1.5l-4.75-1.25l-5-0.75l0,0l5,0.75l4.75,1.25l4.75,1.5L239,209.25L239,209.25z
		 M239,209.25L239,209.25l-4.75-1.75l-4.75-1.5l-4.75-1.25l-5-0.75l0,0l5,0.75l4.75,1.25l4.75,1.5L239,209.25L239,209.25z
		 M216.5,201L216.5,201l-2.25-0.25L216.5,201L216.5,201z M214.25,200.75L214.25,200.75l2.25,0.25l0,0L214.25,200.75L214.25,200.75z
		 M214.25,200.75L214.25,200.75L214.25,200.75l2.25,0.25l0,0L214.25,200.75L214.25,200.75z M213.25,200.75L213.25,200.75
		L213.25,200.75L213.25,200.75L213.25,200.75z M196.5,200.75L196.5,200.75l8.25-0.25l0,0h3.5h-1.75l0,0h-1.25l0,0H204l0,0h-1.25l0,0
		l0,0l-3.25,0.25l0,0l0,0l0,0H196.5L196.5,200.75z M198,200.5L198,200.5l1.5-0.25l0,0l0,0h2.25l0,0L198,200.5L198,200.5h-0.5l0,0
		H198L198,200.5z M212.5,200.75L212.5,200.75l-7.25-0.5h1.25l3.75,0.25L212.5,200.75L212.5,200.75z M206.25,197.25L206.25,197.25
		L199,197.5l-7.25,0.75l0,0l-7.25,2.25l-3.5,1.25l-3.25,1.5l0,0l6-1.25l6-0.75l0,0l0,0l0,0l0,0l0,0l0,0l0,0l0,0l-3.5,0.75
		l-3.25,0.75l0,0l-2.75,1l-1.5,0.5L178,204.5l0,0l0,0l0,0l0.25,0.25l0,0l1.75-0.25l4.25-0.75l0,0l3.25-0.5l4-0.25l5.25-0.25l6-0.25
		l0,0H207l0,0l6.5,0.5l6.25,1l0,0l0,0l0,0l-6-0.5l-5.75-0.25l0,0l0,0l0,0l0,0l0,0l-7,0.25l-6.25,0.75l-6,1.25l-5.5,1.5l0,0
		l-0.25,0.25l0,0l4.75-0.5h4.75l0,0l0,0l0,0L198,206l5.75-0.25l0,0l4.5,0.25l4.75,0.5l4.5,0.5l4.5,1l0,0l0,0l0,0l4.75,1.25l0,0
		l3.75,1.25l3.5,1.25l3.25,1.75l3.25,1.75l0,0l0,0l3.25,2l2.75,2.5l2.75,2.25l2.5,2.5l2.5,2.75l2.25,2.75l2.25,2.75l2,2.75l3.5,6
		l3,5.75l2.5,5.75l2.25,5.75l0,0l1.25,4.25l1.75,5.25l1.25,5.75l1.25,6l0.25,1.5l0,0l-0.25-4.25l0,0l0.75,6.25l0,0l-0.25-5l-0.25-5
		l0,0l0.75,6.25l0.25,6.5l0.5,2l0,0L279,283l-0.5-5.25l0,0l0.75,6l0.25,5.75l0.5,2.75l0,0l-0.5,5.25l-0.75,5.25v2.75l0,0L279,309
		l0,0l0.75,0.75l0,0l1-4.75l0.75-5l-0.5,5.75l0,0l0.75-4.25l0.5-4.25l0,0L282,302.5l-0.75,5.25h0.5l0,0l0.5-3.5l0,0l0.5-6.5v-6.5
		l-0.5-6.5l-0.75-6.25l0,0l1.25,5.5l0.5,5.5l0,0l0.25,6v6l-0.5,6l-0.5,6.25l-0.25,2.75l0,0l0.75-4l0.5-4.25l1-8.25l0.25-7.75
		l0.25-6.75l0.25,2.25l0,0l0.25,5.5v5.25l-0.25,5l-0.75,4.75l-0.75,4.75l-1,4.75l-2.25,10.5l-0.25,1.25l0,0l1-2.75l1-3.25l1.75-6.75
		l1.5-6.75l1-6.25l0,0l-1.25,8.75l-1,4l-1,4.25l-1,4l-1.25,4l-1.5,3.75l-1.5,3.75l-0.5,1.5l0,0l-2,5l-2.25,4.5L271,352l-2.75,4.25
		l-2.75,4l-3.25,3.75l-3.25,3.25l-3.75,3l0,0l0,0l-2.5,2l-3,1.5l-2.75,1.5l-3,1l-2.75,1l-3,0.5l-3,0.25l-3.25,0.25l0,0l-4-0.25
		l-4-0.5l-4-1l-3.75-1.25l-3.75-1.75l-3.5-2l-3.25-2.25l-3-2.5l0,0l2.5,2.75l3,2.25l3,2l3.5,2l0,0l-3.75-1l-3.25-1.75l-3.5-1.75
		L201,369l-3-2.5l-2.75-2.5l-2.5-2.75l-2-2.75l0,0l0,0L189,356l0,0l1,2.25l1.25,2l1.25,2.25l1.5,2l3.5,3.75l4,3.75l4.25,3.25
		l4.5,2.75l4.75,2.25l2.25,1l2.5,0.75l0,0l-3.25-1l-3-1.25l-3-1.25l-2.75-1.5l-2.75-1.75l-2.75-2L199.5,371l-2.75-2.5l1.75,2.25l0,0
		l-2.5-2.5l-2.25-2.5l-2.25-2.5l-1.75-2.75L188,358l-1.25-2.75l-2.5-5.5l0,0L182.5,347l-1.75-3.25l-1.5-3.25l-1.5-3.5l-1-3.5l-1-4
		l-0.5-3.75l-0.25-4l0,0v-2.5l0.25-2.75l0,0l-0.5,3.75V324l0,0v2.5l0,0V324l0,0v2.5l0,0l0,0V324l0,0l0,0l0,0l0,0l0,0v2l0,0v3.5
		l0.5,3.5l0.25,3.5l0.75,3.5l0,0v0.75l0,0l0,0l0,0l0,0l0,0l0,0l0.75,3.5l0.75,3.25l1,3.5l1.25,3.25l0,0l0,0l0,0l0,0l0,0l0,0
		l-1.75-3.75l-1.5-4.25l-1.25-4l-1.25-4.25l0,0l0.75,4.75l0,0l1.75,6.25l2.25,5.5l2.5,5.25l2.5,4.5l0,0l0,0l0,0l0,0l0,0l0,0l-3-4
		l-2.5-4.25l-2.25-4.25l-1.75-4.5l0,0l0,0l0,0L172,342l-2-5.5l-1.25,2l0,0l0.25,3l0.5,3.25l1,3.75l1,3.75l1.75,4.25l2,4.25l2.75,4.5
		l3.25,4.25l0,0l1.5,2l0.75-1.5l0,0l2,4l0,0l3.25,2.25l3.5,2.25l0,0l3,2.5l3.25,2.5l0,0l7.25,2.75l4,1.5L214,389l0,0l4.5,1.25
		L223,391l4.5,0.5l4.75,0.25l0,0l0.5-0.25l0,0H230l-2.5-0.5l0,0l4.5-0.5l5.25-0.5l0,0l4-0.75l4.25-0.75l3.75-1.25l3.75-1.5l0,0
		l2.5-1l2.25-1.25l4.75-2.75l0,0l0.75-0.5L263,380.5l0.25-0.25l0,0l3-2.5l2.75-2.5l2.5-2.75l2.25-2.75l0,0l2.5-3l2.5-3l0,0l-3,4.25
		l0,0l2.75-3.25l0,0L276,368l-3,3.25l0,0l3-3l2.75-3.5l2.5-3.5l2.25-3.5l0,0l2.75-5l-0.5,1.5l0,0l3.5-6.5l0,0l3.25-7.25l2.75-7.25
		l0,0l1-5.25l0.75-5.25l0,0l-0.5,4.5l-0.75,4.5l0,0l-1,4.75l0,0l2-8l1.75-8l0.25,1l0,0l1-5.25l0.75-5.5l0.5-6l0.25-6.25v-0.75l0,0
		l-0.5-7L300,283.5l0,0l0.75,6.25l0.5,6.25l1-0.75l0,0l-0.5-6.25l-0.75-6.25l-1.25-6.5l-1.5-6.5l0,0l-1.75-6.25l0.5,1.5l0,0l-2-6
		l-2.5-6l0,0l-2.25-4.75l-2.75-4.5l-2.75-4.25l-3-4.25l0,0l2.25,5.25l0,0l-2.25-5.25l0,0l0,0l0,0l0,0l0,0l0,0l-5.5-7l-5.5-6l-2.75-3
		l-3-2.75l-3.25-2.5l-3.5-2.75l0,0l-3.5-2.25l-3.5-2l-3.25-1.5l-3.5-1.5l-3.25-1l-3.25-1l-3-0.75l-3-0.5l0,0l4.25,1.25l4,1.5l4,1.75
		l3.75,2l3.75,2.25l3.5,2.25l3.5,2.5l3,2.5l0,0l4,3.75l3.75,4l3.5,4.25l3.25,4.25l3.25,4.5l2.75,4.75l2.75,5l2.5,5l0,0l2,4.75l0,0
		l-4.25-7.5L283,246l-2.25-3.5L281,243l-2.5-3l2.25,2.5l0,0l-2.5-4.25l-2.75-3.75L273,231l-2.75-3.25l-2.75-3.25l-2.75-3l-6.25-6
		l0,0l-3.25-2.75l-3.75-2.5L248,208l-4-1.75l-3.75-2l-4-1.5l-4-1.5L228,200l4,0.75l0,0l-6.5-1.5l-6.5-1l-6.5-0.75L206.25,197.25
		L206.25,197.25z"/>
	<rect x="281.75" y="235.25" class="st3" width="0" height="0"/>
	<path class="st3" d="M176.25,340.75L176.25,340.75L176.25,340.75L176.25,340.75L176.25,340.75L176.25,340.75L176.25,340.75
		L176.25,340.75z M176.25,340L176.25,340v0.75l0,0l0,0V340L176.25,340z M174.25,338L174.25,338L174.25,338l1.25,4.25l1.25,4
		l1.5,4.25l1.75,3.75l0,0l0,0l-1.75-3.75l-1.5-4.25l-1.25-4L174.25,338L174.25,338z M175.25,316.5L175.25,316.5l-0.5,3.75V324l0,0
		v-3.75L175.25,316.5L175.25,316.5L175.25,316.5z"/>
	<polygon class="st2" points="176.25,340.75 176.25,340.75 176.25,340.75 176.25,340.75 176.25,340.75 176.25,340.75 176.25,340.75 
		176.25,340.75 	"/>
	<polygon class="st4" points="226.75,209.25 226.75,209.25 230.5,210.5 234,211.75 237.25,213.5 240.5,215.25 240.5,215.25 
		237.25,213.5 234,211.75 230.5,210.5 226.75,209.25 	"/>
	<polygon class="st3" points="174.75,326.5 174.75,326.5 174.75,326.5 174.75,326.5 174.75,327.75 174.75,327.75 174.75,326.5 
		174.75,326.5 	"/>
	<path class="st5" d="M247.75,213.75L247.75,213.75l2,1.25l0,0L247.75,213.75L247.75,213.75z M243.5,211.25L243.5,211.25l1,0.75
		l2.75,1.5l0,0l0.5,0.25l0,0L243.5,211.25L243.5,211.25z M242.5,210.75L242.5,210.75l1,0.5l0,0L242.5,210.75L242.5,210.75z
		 M239,209.25l2.75,1.25l0,0l0.75,0.25l0,0L239,209.25L239,209.25z"/>
	<polygon class="st5" points="242.25,210.75 242.25,210.75 247.5,213.25 246.75,213 244,211.5 244,211.5 242.25,210.75 	"/>
	<path class="st5" d="M271.25,236.25l1.5,1.75l1.5,1.75l0,0L271.25,236.25L271.25,236.25z M270.5,235.25L270.5,235.25l0.75,1
		l-0.5-0.5L270.5,235.25L270.5,235.25z M256,220l1.25,1.25l0,0l2.25,2l2.25,2.25l1.5,1.5l2,2.25l2,2.25l2,2.5l1.25,1.25l0,0l-3.25-4
		l-3.5-3.75l-3.75-3.75L256,220L256,220z M252,216.75L252,216.75l4,3.25l-1-1l0,0l-1.25-1l-1.25-1L252,216.75L252,216.75z
		 M250,215.25l2,1.5l0,0L250,215.25L250,215.25z"/>
	<polygon class="st5" points="250.75,215.25 252.25,216.5 251.5,215.75 250.75,215.25 	"/>
	<polygon class="st18" points="263.25,380.25 262.5,380.75 263,380.5 263.25,380.25 	"/>
	<polygon class="st12" points="281.75,235.25 281.75,235.25 281.75,235.25 284,240.5 284,240.5 281.75,235.25 281.75,235.25 	"/>
	<path class="st12" d="M174.75,326.5L174.75,326.5L174.75,326.5v1.25l0,0l0,0l0,0l0,0V326.5L174.75,326.5L174.75,326.5z M174.75,324
		L174.75,324v2.5l0,0l0,0l0,0l0,0l0,0l0,0V324L174.75,324z"/>
	<polygon class="st12" points="174.25,338 174.25,338 175.5,342.25 176.75,346.25 178.25,350.5 180,354.25 180,354.25 180,354.25 
		180,354.25 180,354.25 180,354.25 178.25,350.5 176.75,346.25 175.5,342.25 174.25,338 	"/>
	<polygon class="st12" points="174.5,347.25 174.5,347.25 176.25,351.75 178.5,356 181,360.25 184,364.25 184,364.25 184,364.25 
		184,364.25 184,364.25 181,360.25 178.5,356 176.25,351.75 174.5,347.25 174.5,347.25 	"/>
	<polygon class="st13" points="239,209.25 239,209.25 241.75,210.5 241.75,210.5 243.25,211.25 244.5,212 247.25,213.5 
		247.25,213.5 247.75,213.75 247.75,213.75 249.75,215 249.75,215 247.75,213.75 247.75,213.75 247.25,213.5 244.5,212 244.5,212 
		243.5,211.25 243.5,211.25 242.5,210.75 242.5,210.75 241.75,210.5 239,209.25 	"/>
	<polygon class="st13" points="242.25,210.75 242.25,210.75 244,211.5 246.75,213 247.5,213.25 246.75,213 244,211.5 244,211.5 
		242.25,210.75 	"/>
	<polygon class="st13" points="250,215.25 250,215.25 252.5,217 252.5,217 253.75,218 255,219 257.25,221.25 257.25,221.25 
		259.5,223.25 261.75,225.5 263.25,227 265.25,229.25 267.25,231.5 269.25,234 270.75,235.75 272.75,238 274.25,239.75 272.75,238 
		271.25,236.25 270.75,235.75 270.5,235.25 269.25,234 267.25,231.5 265.25,229.25 263.25,227 261.75,225.5 259.5,223.25 
		259.5,223.25 257.25,221.25 256,220 255,219 255,219 253.75,218 252.5,217 252,216.75 250,215.25 	"/>
	<polygon class="st13" points="250.75,215.25 251.5,215.75 252.25,216.5 251.5,215.75 250.75,215.25 	"/>
	<polygon class="st13" points="219.75,204 219.75,204 224.75,204.75 229.5,206 234.25,207.5 239,209.25 239,209.25 234.25,207.5 
		229.5,206 224.75,204.75 219.75,204 	"/>
	<polygon class="st13" points="219.75,204 219.75,204 224.75,204.75 229.5,206 234.25,207.5 239,209.25 239,209.25 234.25,207.5 
		229.5,206 224.75,204.75 219.75,204 	"/>
	<polygon class="st16" points="240.5,215.25 240.5,215.25 243.75,217.25 246.5,219.75 249.25,222 251.75,224.5 254.25,227.25 
		256.5,230 258.75,232.75 260.75,235.5 264.25,241.5 267.25,247.25 269.75,253 272,258.75 272,258.75 273.25,263 275,268.25 
		276.25,274 277.5,280 277.5,280 276.25,274 275,268.25 273.25,263 272,258.75 272,258.75 269.75,253 267.25,247.25 264.25,241.5 
		260.75,235.5 258.75,232.75 256.5,230 254.25,227.25 251.75,224.5 249.25,222 246.5,219.75 243.75,217.25 240.5,215.25 	"/>
	<polygon class="st16" points="203.75,205.75 203.75,205.75 198,206 192.5,206.75 192.5,206.75 192.5,206.75 193,206.5 193,206.5 
		198.25,206 203.75,205.75 203.75,205.75 203.75,205.75 203.75,205.75 203.75,205.75 203.75,205.75 208.25,206 213,206.25 
		217.5,207 222,208 222,208 222,208 222,208 222,208 217.5,207 213,206.5 208.25,206 203.75,205.75 	"/>
	<polygon class="st5" points="204.75,200.5 204.75,200.5 196.5,200.75 196.5,200.75 199.5,200.75 199.5,200.75 199.5,200.75 
		202.75,200.5 202.75,200.5 202.75,200.5 202.75,200.5 204,200.5 204,200.5 205.25,200.5 205.25,200.5 206.5,200.5 208.25,200.5 
		208.25,200.5 204.75,200.5 	"/>
	<path class="st5" d="M198,200.5L198,200.5h-0.5l0,0H198L198,200.5z M199.5,200.25L199.5,200.25l-1.5,0.25l0,0l3.75-0.25H199.5
		L199.5,200.25L199.5,200.25L199.5,200.25z"/>
	<polygon class="st5" points="205.25,200.25 205.25,200.25 212.5,200.75 210.25,200.5 206.5,200.25 205.25,200.25 	"/>
	<rect x="213.25" y="200.75" class="st5" width="0" height="0"/>
	<path class="st15" d="M191.75,198.25L191.75,198.25l-4.75,1l-4.75,1l-4.75,1.25L173,203l-1.5,0.5l0,0l-3.25,1.25l-3.25,1.5l0,0
		l4.25-2l0,0l0,0l-1-0.5l0,0l0,0L165,204.5l-3,0.75l0,0l0,0l-3.75,1.5l-4,2l-4,2.5l-3.75,2.5l0,0l0,0l0,0l-2.5,2l-2,2l0,0l-4,4
		l-3,3.5l0,0l0,0l0,0l0,0l0.75-1.5l0,0l-0.75,1.5l0.75-1.5l0,0l-1.5,2.75l-1.5,3l-1.25,2.75l-1.25,3l0,0l2-3.5l2-3.25l2.5-3
		l2.5-2.75l2.5-2.75l3-2.5l3-2l3-2.25l3.25-1.75l3.25-1.75l3.25-1.5L164,207l3.5-1.25l3.25-1l7-1.5l0,0l0,0l0,0l0,0l0,0l0,0l0,0l0,0
		l0,0l0,0l3.25-1.5l3.5-1.25L191.75,198.25L191.75,198.25z M191.75,198.25L191.75,198.25L191.75,198.25l-7.25,2.25l-3.5,1.25
		l-3.25,1.5l0,0l0,0l3.25-1.5l3.5-1.25L191.75,198.25L191.75,198.25z"/>
	<polygon class="st10" points="146.5,213.75 146.5,213.75 144,215.75 142,217.75 142,217.75 138,221.75 135,225.25 135,225.25 
		135,225.25 135,225.25 135,225.25 135,225.25 135,225.25 138,221.75 142,217.75 142,217.75 144,215.75 146.5,213.75 146.5,213.75 
		146.5,213.75 	"/>
	<polygon class="st10" points="135.75,223.75 135.75,223.75 135,225.25 135.75,223.75 	"/>
	<polygon class="st9" points="168.25,203.75 168.25,203.75 168.25,203.75 169.25,204.25 168.25,203.75 	"/>
	<polygon class="st10" points="191.75,198.25 191.75,198.25 191.75,198.25 184.5,200.5 181,201.75 177.75,203.25 177.75,203.25 
		177.75,203.25 181,201.75 184.5,200.5 191.75,198.25 191.75,198.25 	"/>
	<polygon class="st15" points="189.75,201.25 189.75,201.25 189.75,201.25 186.25,202 183,202.75 183,202.75 180.25,203.75 
		178.75,204.25 178,204.5 178,204.5 178.75,204.25 180.25,203.75 183,202.75 183,202.75 186.25,202 189.75,201.25 189.75,201.25 
		183.75,202 177.75,203.25 177.75,203.25 177.75,203.25 177.75,203.25 177.75,203.25 177.75,203.25 177.75,203.25 172.75,205 
		167.75,207.25 162.75,210 158,213 153.75,216.25 150,219.75 147,223 145.75,224.75 144.75,226.5 144.75,226.5 148,223.5 
		151.75,220.75 155.75,218.25 159.75,216 164,214.25 168,212.75 172.25,211.25 176.25,210.25 176.25,210.25 179.25,209.5 
		179.25,209.5 183.25,208.5 186.75,207.5 192.5,206.75 192.5,206.75 187.75,206.75 183,207.25 183,207.25 183,207.25 183.25,207 
		183.25,207 183.25,207 183,207.25 183,207.25 183.25,207 183.25,207 188.75,205.5 194.75,204.25 201,203.5 208,203.25 208,203.25 
		208,203.25 208,203.25 208,203.25 208,203.25 208,203.25 208,203.25 213.75,203.5 219.75,204 219.75,204 213.75,203.5 208,203.25 
		208,203.25 208,203.25 213.75,203.5 219.75,204 219.75,204 219.75,204 213.5,203 207,202.5 207,202.5 202.75,202.5 202.75,202.5 
		196.75,202.75 191.5,203 187.5,203.25 184.25,203.75 184.25,203.75 180,204.5 178.25,204.75 178.25,204.75 178,204.5 178,204.5 
		178,204.5 178,204.5 178.75,204.25 180.25,203.75 183,202.75 183,202.75 186.25,202 189.75,201.25 189.75,201.25 	"/>
	<path class="st10" d="M183.25,207L183.25,207l-0.25,0.25l0,0L183.25,207L183.25,207z M208,203.25L208,203.25l-7,0.25l-6.25,0.75
		l-6,1.25l-5.5,1.5l0,0l0,0l0,0l5.5-1.5l6-1.25l6.25-0.75L208,203.25L208,203.25L208,203.25z M208,203.25L208,203.25l5.75,0.25
		l6,0.5l0,0l-6-0.5L208,203.25L208,203.25z M208,203.25L208,203.25L208,203.25L208,203.25L208,203.25L208,203.25L208,203.25z
		 M208,203.25L208,203.25L208,203.25L208,203.25L208,203.25L208,203.25L208,203.25L208,203.25L208,203.25L208,203.25z"/>
	<polygon class="st10" points="189.75,201.25 189.75,201.25 189.75,201.25 186.25,202 183,202.75 183,202.75 180.25,203.75 
		178.75,204.25 178,204.5 178,204.5 178.75,204.25 180.25,203.75 183,202.75 183,202.75 186.25,202 189.75,201.25 189.75,201.25 	
		"/>
	<path class="st0" d="M147.75,227.25L147.75,227.25L150,225l2.5-2l2.75-2l2.5-1.75l3-1.5l2.75-1.5l3-1.25l3-1l6.25-2l6.25-1.5l6.5-1
		l6.5-0.75l0,0l-6.5,0.75l-6.5,1l-6.25,1.5l-6.25,2l-3,1l-3,1.25l-2.75,1.5l-3,1.5l-2.5,1.75l-2.75,2l-2.5,2L147.75,227.25
		L147.75,227.25z M177.75,203.25L177.75,203.25L177.75,203.25l-5,1.75l-5,2.25l-5,2.75l-4.75,3l-4.25,3.25l-3.75,3.5l-3,3.25
		l-1.25,1.75l-1,1.75l0,0l1-1.75L147,223l3-3.25l3.75-3.5L158,213l4.75-3l5-2.75l5-2.25L177.75,203.25L177.75,203.25l-7,1.5l-3.25,1
		L164,207l-3.5,1.25l-3.25,1.5L154,211.5l-3.25,1.75l-3,2.25l-3,2l-3,2.5l-2.5,2.75l-2.5,2.75l-2.5,3l-2,3.25l-2,3.5l0,0l0,0
		l-1,2.75l-0.75,2.75l-1.25,5.5l-0.75,5.5l-0.25,5.5l0,0l0,0l4.75-6l2.75-3.5l3-3.25l0,0l0,0l0,0l0,0l0,0l0,0l0.75-2.5l1-2.25l0,0
		l2-3.5l2-3.25l2.5-3l2.75-2.75l0,0l0,0l0,0l0,0l0,0l0,0L150,225l2.5-2l2.75-2l2.5-1.75l3-1.5l2.75-1.5l3-1.25l3-1l6.25-2l6.25-1.5
		l6.5-1l6.5-0.75l0,0l0,0h0.25l0,0l5.5-0.25l0,0l0,0l0,0l0,0H201l0,0l5.5,0.25l5.5,0.5l0,0l0,0l0,0l0,0l0,0h0.25l0,0l0,0l0,0h0.25
		l0,0h0.5l0,0l6,1l6,1.5l6,2l5.5,2.5l2.75,1.5l2.75,1.5l2.5,1.75l2.5,1.75l2.25,2l2.25,2l2.25,2.25l2,2.5l0,0l0,0l0,0l-2-2.5
		l-2.25-2.25l-2.25-2l-2.5-2l-2.5-1.75l-2.5-1.75L239,217.5l-2.75-1.25l-5.5-2.5l-6-2l-6-1.5l-6.25-1l0,0l6.25,1l6,1.5l6,2l5.5,2.5
		l2.75,1.25l2.75,1.75l2.5,1.75l2.5,1.75l2.5,2l2.25,2l2.25,2.25l2,2.5l-0.75-2.25l0,0l-2-2.25l-2-2.25l-2.25-2l-2.5-2l0,0l0,0
		l-1.25-1l0,0l-4.25-2.75l-4.5-2.25l0,0l-3.25-1.5l0,0l-4.5-1.75L224,210l-4.5-1l-4.5-0.75l0,0l0,0l0,0l0,0l0,0l-2.75-0.5l0,0l0,0
		H212l0,0l0,0l0,0l-5-0.5l-4.75-0.5h-9l0,0l0,0l0,0l0,0H193l0,0l0,0l0,0l0,0l0,0l0,0l0,0l0,0l0,0l0,0l0,0h-0.25l0,0l0,0l0,0l0,0l0,0
		l0,0l0,0l0,0l0,0l0,0l0,0h-0.25l0,0l0,0l0,0l0,0l0,0l0,0l-5.75,0.75l0,0l-3.5,1l-4,1l0,0l-3,0.75l0,0l0,0l-4,1l-4.25,1.5l-4,1.5
		l-4.25,1.75l-4,2.25l-4,2.5L148,223.5l-3.25,3l0,0l0,0l1-1.75L147,223l3-3.25l3.75-3.5L158,213l4.75-3l5-2.75l5-2.25L177.75,203.25
		L177.75,203.25L177.75,203.25z"/>
	<polygon class="st12" points="212.5,209.25 212.5,209.25 218.75,210.25 224.75,211.75 230.75,213.75 236.25,216.25 239,217.5 
		241.75,219.25 244.25,221 246.75,222.75 249.25,224.75 251.5,226.75 253.75,229 255.75,231.5 255.75,231.5 255.75,231.5 
		255.75,231.5 253.75,229 251.5,226.75 249.25,224.75 246.75,222.75 244.25,221 241.75,219.25 239,217.5 236.25,216.25 
		230.75,213.75 224.75,211.75 218.75,210.25 212.5,209.25 	"/>
	<polygon class="st12" points="195,208.75 195,208.75 188.5,209.5 182,210.5 175.75,212 169.5,214 166.5,215 163.5,216.25 
		160.75,217.75 157.75,219.25 155.25,221 152.5,223 150,225 147.75,227.25 147.75,227.25 150,225 152.5,223 155.25,221 
		157.75,219.25 160.75,217.75 163.5,216.25 166.5,215 169.5,214 175.75,212 182,210.5 188.5,209.5 195,208.75 	"/>
	<path class="st12" d="M245,219.75L245,219.75L245,219.75l1.25,1l0,0l0,0L245,219.75L245,219.75z M215,208.25L215,208.25l4.5,0.75
		l4.5,1l4.5,1.5l4.5,1.75l0,0l3.25,1.5l0,0l4.5,2.25l4.25,2.75l0,0l-4.25-2.75l-4.5-2.25l0,0l-3.25-1.5l0,0l-4.5-1.75L224,210
		l-4.5-1L215,208.25L215,208.25z M215,208.25L215,208.25L215,208.25L215,208.25L215,208.25L215,208.25L215,208.25z M215,208.25
		L215,208.25L215,208.25L215,208.25L215,208.25L215,208.25z M212.25,207.75L212.25,207.75L212.25,207.75l2.75,0.5l0,0l0,0
		L212.25,207.75L212.25,207.75z"/>
	
		<rect x="176.204" y="209.875" transform="matrix(0.9701 -0.2425 0.2425 0.9701 -45.595 49.3771)" class="st9" width="3.092" height="0"/>
	<polygon class="st9" points="177.75,203.25 177.75,203.25 177.75,203.25 172.75,205 167.75,207.25 162.75,210 158,213 
		153.75,216.25 150,219.75 147,223 145.75,224.75 144.75,226.5 144.75,226.5 145.75,224.75 147,223 150,219.75 153.75,216.25 
		158,213 162.75,210 167.75,207.25 172.75,205 177.75,203.25 177.75,203.25 	"/>
	<path class="st17" d="M147.75,227.25L147.75,227.25L145,230l-2.5,3l-2,3.25l-2,3.5l0,0l-1,2.25l-0.75,2.5l0,0l2-4.75l2.5-4.5
		l3-4.25L147.75,227.25L147.75,227.25z M147.75,227.25L147.75,227.25L147.75,227.25l-3.5,3.75l-3,4.25l-2.5,4.5l-2,4.75l0,0l0,0l0,0
		l2-4.75l2.5-4.5l3-4.25L147.75,227.25L147.75,227.25L147.75,227.25z"/>
	<polygon class="st9" points="147.75,227.25 147.75,227.25 147.75,227.25 144.25,231 141.25,235.25 138.75,239.75 136.75,244.5 
		136.75,244.5 136.75,244.5 136.75,244.5 138.75,239.75 141.25,235.25 144.25,231 147.75,227.25 147.75,227.25 	"/>
</g>
</svg>
