<svg version="1.1" id="Layer_1" xmlns="http://www.w3.org/2000/svg" xmlns:xlink="http://www.w3.org/1999/xlink" x="0px" y="0px"
	 width="571px" height="751px" viewBox="0 0 571 751" style="enable-background:new 0 0 571 751;" xml:space="preserve">
<style type="text/css">
<![CDATA[
	.st0{fill:none;stroke:#000000;stroke-width:3;stroke-miterlimit:10;}
]]>
</style>
<path class="st0" d="M525.051,1.5H285.5H45.949C44.929,25.589,25.588,44.929,1.5,45.949V375.5v329.551
	c24.088,1.02,43.429,20.36,44.449,44.449H285.5h239.551c1.021-24.089,20.361-43.43,44.449-44.449V375.5V45.949
	C545.412,44.929,526.071,25.589,525.051,1.5z"/>
<path class="st0" d="M517.322,10.7H285.5H53.679C51.328,32.675,33.875,50.128,11.9,52.479V375.5v323.022
	c21.975,2.349,39.428,19.803,41.778,41.777H285.5h231.822c2.35-21.975,19.803-39.429,41.777-41.777V375.5V52.479
	C537.125,50.128,519.672,32.675,517.322,10.7z"/>
</svg>