<?xml version="1.0" encoding="utf-8"?>
<!-- Generator: Adobe Illustrator 14.0.0, SVG Export Plug-In . SVG Version: 6.00 Build 43363)  -->
<!DOCTYPE svg PUBLIC "-//W3C//DTD SVG 1.1//EN" "http://www.w3.org/Graphics/SVG/1.1/DTD/svg11.dtd">
<svg version="1.1" id="Layer_1" xmlns="http://www.w3.org/2000/svg" xmlns:xlink="http://www.w3.org/1999/xlink" x="0px" y="0px"
	 width="560px" height="740px" viewBox="0 0 560 740" style="enable-background:new 0 0 560 740;" xml:space="preserve">
<style type="text/css">
<![CDATA[
	.st0{fill:#4D4D4D;}
]]>
</style>
<path class="st0" d="M553.6,733.6H6.4V6.4h547.2V733.6z M554.6,5.4h-1H6.4h-1v1v727.2v1h1h547.2h1v-1V6.4V5.4z"/>
<path class="st0" d="M543,1c0,8.837,7.164,16,16,16v706c-8.836,0-16,7.164-16,16H17c0-8.836-7.164-16-16-16V17
	c8.836,0,16-7.163,16-16H543 M544,0h-1H17h-1v1c0,8.271-6.729,15-15,15H0v1v706v1h1c8.271,0,15,6.729,15,15v1h1h526h1v-1
	c0-8.271,6.729-15,15-15h1v-1V17v-1h-1c-8.271,0-15-6.729-15-15V0z"/>
</svg>