<?xml version="1.0" encoding="utf-8"?>
<!-- Generator: Adobe Illustrator 14.0.0, SVG Export Plug-In . SVG Version: 6.00 Build 43363)  -->
<!DOCTYPE svg PUBLIC "-//W3C//DTD SVG 1.1//EN" "http://www.w3.org/Graphics/SVG/1.1/DTD/svg11.dtd">
<svg version="1.1" id="Layer_1" xmlns="http://www.w3.org/2000/svg" xmlns:xlink="http://www.w3.org/1999/xlink" x="0px" y="0px"
	 width="561.889px" height="741.889px" viewBox="0 0 561.889 741.889" style="enable-background:new 0 0 561.889 741.889;"
	 xml:space="preserve">
<style type="text/css">
<![CDATA[
	.st0{fill:#2a2a2a; fill-opacity: 1; stroke-opacity: 1;fill-rule:evenodd;clip-rule:evenodd;}
	.st1{fill:none;stroke:#181818; fill-opacity: 1; stroke-opacity: 1;stroke-width:0.349;stroke-linecap:round;stroke-miterlimit:10;}
	.st2{fill:none;stroke:#3c3c3c; fill-opacity: 1; stroke-opacity: 1;stroke-width:0.349;stroke-linecap:round;stroke-linejoin:round;stroke-miterlimit:10;}
]]>
</style>
<rect x="0.174" y="0.174" class="st1" width="14.94" height="14.94"/>
<rect x="5.154" y="5.154" class="st0" width="4.98" height="4.98"/>
<rect x="5.154" y="5.154" class="st1" width="4.98" height="4.98"/>
<rect x="546.774" y="0.174" class="st1" width="14.94" height="14.94"/>
<rect x="551.754" y="5.154" class="st0" width="4.979" height="4.98"/>
<rect x="551.754" y="5.154" class="st1" width="4.979" height="4.98"/>
<rect x="0.174" y="726.774" class="st1" width="14.94" height="14.94"/>
<rect x="5.154" y="731.754" class="st0" width="4.98" height="4.979"/>
<rect x="5.154" y="731.754" class="st1" width="4.98" height="4.979"/>
<rect x="546.774" y="726.774" class="st1" width="14.94" height="14.94"/>
<rect x="551.754" y="731.754" class="st0" width="4.979" height="4.979"/>
<rect x="551.754" y="731.754" class="st1" width="4.979" height="4.979"/>
<line class="st2" x1="15.174" y1="7.674" x2="546.774" y2="7.674"/>
<line class="st2" x1="15.174" y1="734.274" x2="546.774" y2="734.274"/>
<line class="st2" x1="7.674" y1="15.174" x2="7.674" y2="726.774"/>
<line class="st2" x1="554.274" y1="15.174" x2="554.274" y2="726.774"/>
</svg>
