<?xml version="1.0" encoding="utf-8"?>
<!-- Generator: Adobe Illustrator 14.0.0, SVG Export Plug-In . SVG Version: 6.00 Build 43363)  -->
<!DOCTYPE svg PUBLIC "-//W3C//DTD SVG 1.1//EN" "http://www.w3.org/Graphics/SVG/1.1/DTD/svg11.dtd">
<svg version="1.1" id="Hand_x5F_Drawn_x5F_1_xA0_Image_1_"
	 xmlns="http://www.w3.org/2000/svg" xmlns:xlink="http://www.w3.org/1999/xlink" x="0px" y="0px" width="729px" height="937px"
	 viewBox="0 0 729 937" style="enable-background:new 0 0 729 937;" xml:space="preserve">
<style type="text/css">
<![CDATA[
	.st0{fill-rule:evenodd;clip-rule:evenodd;fill:none;stroke:#33395d; fill-opacity: 1; stroke-opacity: 1;stroke-width:1.446;stroke-linecap:round;}
	.st1{fill-rule:evenodd;clip-rule:evenodd;fill:none;stroke:#21274b; fill-opacity: 1; stroke-opacity: 1;stroke-width:1.8166;stroke-linecap:round;}
	.st2{fill-rule:evenodd;clip-rule:evenodd;fill:none;stroke:#454b6f; fill-opacity: 1; stroke-opacity: 1;stroke-width:1.5656;stroke-linecap:round;}
	.st3{fill-rule:evenodd;clip-rule:evenodd;fill:none;stroke:#0f1539; fill-opacity: 1; stroke-opacity: 1;stroke-width:2.0354;stroke-linecap:round;}
	.st4{fill-rule:evenodd;clip-rule:evenodd;fill:none;stroke:#575d81; fill-opacity: 1; stroke-opacity: 1;stroke-width:2.5869;stroke-linecap:round;}
	.st5{fill-rule:evenodd;clip-rule:evenodd;fill:none;stroke:#000327; fill-opacity: 1; stroke-opacity: 1;stroke-width:1.4552;stroke-linecap:round;}
	.st6{fill-rule:evenodd;clip-rule:evenodd;fill:none;stroke:#696f93; fill-opacity: 1; stroke-opacity: 1;stroke-width:1.7321;stroke-linecap:round;}
	.st7{fill-rule:evenodd;clip-rule:evenodd;fill:none;stroke:#33395d; fill-opacity: 1; stroke-opacity: 1;stroke-width:1.3801;stroke-linecap:round;}
	.st8{fill-rule:evenodd;clip-rule:evenodd;fill:none;stroke:#21274b; fill-opacity: 1; stroke-opacity: 1;stroke-width:1.5374;stroke-linecap:round;}
	.st9{fill-rule:evenodd;clip-rule:evenodd;fill:none;stroke:#454b6f; fill-opacity: 1; stroke-opacity: 1;stroke-width:1.7559;stroke-linecap:round;}
	.st10{fill-rule:evenodd;clip-rule:evenodd;fill:none;stroke:#0f1539; fill-opacity: 1; stroke-opacity: 1;stroke-width:1.3707;stroke-linecap:round;}
	.st11{fill-rule:evenodd;clip-rule:evenodd;fill:none;stroke:#575d81; fill-opacity: 1; stroke-opacity: 1;stroke-width:1.5933;stroke-linecap:round;}
	.st12{fill-rule:evenodd;clip-rule:evenodd;fill:none;stroke:#000327; fill-opacity: 1; stroke-opacity: 1;stroke-width:1.3416;stroke-linecap:round;}
	.st13{fill-rule:evenodd;clip-rule:evenodd;fill:none;stroke:#696f93; fill-opacity: 1; stroke-opacity: 1;stroke-width:1.2344;stroke-linecap:round;}
	.st14{fill-rule:evenodd;clip-rule:evenodd;fill:none;stroke:#33395d; fill-opacity: 1; stroke-opacity: 1;stroke-width:2.1506;stroke-linecap:round;}
	.st15{fill-rule:evenodd;clip-rule:evenodd;fill:none;stroke:#21274b; fill-opacity: 1; stroke-opacity: 1;stroke-width:1.6787;stroke-linecap:round;}
	.st16{fill-rule:evenodd;clip-rule:evenodd;fill:none;stroke:#454b6f; fill-opacity: 1; stroke-opacity: 1;stroke-width:2.0702;stroke-linecap:round;}
	.st17{fill-rule:evenodd;clip-rule:evenodd;fill:none;stroke:#0f1539; fill-opacity: 1; stroke-opacity: 1;stroke-width:1.3663;stroke-linecap:round;}
	.st18{fill-rule:evenodd;clip-rule:evenodd;fill:none;stroke:#575d81; fill-opacity: 1; stroke-opacity: 1;stroke-width:1.1934;stroke-linecap:round;}
	.st19{fill-rule:evenodd;clip-rule:evenodd;fill:none;stroke:#000327; fill-opacity: 1; stroke-opacity: 1;stroke-width:2.1888;stroke-linecap:round;}
	.st20{fill-rule:evenodd;clip-rule:evenodd;fill:none;stroke:#696f93; fill-opacity: 1; stroke-opacity: 1;stroke-width:2.1794;stroke-linecap:round;}
	.st21{fill-rule:evenodd;clip-rule:evenodd;fill:none;stroke:#33395d; fill-opacity: 1; stroke-opacity: 1;stroke-width:3.4641;stroke-linecap:round;}
	.st22{fill-rule:evenodd;clip-rule:evenodd;fill:none;stroke:#21274b; fill-opacity: 1; stroke-opacity: 1;stroke-width:1.2071;stroke-linecap:round;}
	.st23{fill-rule:evenodd;clip-rule:evenodd;fill:none;stroke:#454b6f; fill-opacity: 1; stroke-opacity: 1;stroke-width:2.3979;stroke-linecap:round;}
	.st24{fill-rule:evenodd;clip-rule:evenodd;fill:none;stroke:#0f1539; fill-opacity: 1; stroke-opacity: 1;stroke-width:1.2724;stroke-linecap:round;}
	.st25{fill-rule:evenodd;clip-rule:evenodd;fill:none;stroke:#575d81; fill-opacity: 1; stroke-opacity: 1;stroke-width:1.6285;stroke-linecap:round;}
	.st26{fill-rule:evenodd;clip-rule:evenodd;fill:none;stroke:#000327; fill-opacity: 1; stroke-opacity: 1;stroke-width:1.3578;stroke-linecap:round;}
	.st27{fill-rule:evenodd;clip-rule:evenodd;fill:none;stroke:#696f93; fill-opacity: 1; stroke-opacity: 1;stroke-width:1.5275;stroke-linecap:round;}
	.st28{fill-rule:evenodd;clip-rule:evenodd;fill:none;stroke:#33395d; fill-opacity: 1; stroke-opacity: 1;stroke-width:3;stroke-linecap:round;}
	.st29{fill-rule:evenodd;clip-rule:evenodd;fill:none;stroke:#21274b; fill-opacity: 1; stroke-opacity: 1;stroke-width:1.3484;stroke-linecap:round;}
	.st30{fill-rule:evenodd;clip-rule:evenodd;fill:none;stroke:#454b6f; fill-opacity: 1; stroke-opacity: 1;stroke-width:1.7657;stroke-linecap:round;}
	.st31{fill-rule:evenodd;clip-rule:evenodd;fill:none;stroke:#0f1539; fill-opacity: 1; stroke-opacity: 1;stroke-width:1.1952;stroke-linecap:round;}
	.st32{fill-rule:evenodd;clip-rule:evenodd;fill:none;stroke:#575d81; fill-opacity: 1; stroke-opacity: 1;stroke-width:2.3697;stroke-linecap:round;}
	.st33{fill-rule:evenodd;clip-rule:evenodd;fill:none;stroke:#000327; fill-opacity: 1; stroke-opacity: 1;stroke-width:1.2536;stroke-linecap:round;}
	.st34{fill-rule:evenodd;clip-rule:evenodd;fill:none;stroke:#696f93; fill-opacity: 1; stroke-opacity: 1;stroke-width:1.7625;stroke-linecap:round;}
	.st35{fill-rule:evenodd;clip-rule:evenodd;fill:none;stroke:#33395d; fill-opacity: 1; stroke-opacity: 1;stroke-width:1.8085;stroke-linecap:round;}
	.st36{fill-rule:evenodd;clip-rule:evenodd;fill:none;stroke:#21274b; fill-opacity: 1; stroke-opacity: 1;stroke-width:1.271;stroke-linecap:round;}
	.st37{fill-rule:evenodd;clip-rule:evenodd;fill:none;stroke:#454b6f; fill-opacity: 1; stroke-opacity: 1;stroke-width:1.3649;stroke-linecap:round;}
	.st38{fill-rule:evenodd;clip-rule:evenodd;fill:none;stroke:#0f1539; fill-opacity: 1; stroke-opacity: 1;stroke-width:3.6056;stroke-linecap:round;}
	.st39{fill-rule:evenodd;clip-rule:evenodd;fill:none;stroke:#575d81; fill-opacity: 1; stroke-opacity: 1;stroke-width:1.3887;stroke-linecap:round;}
	.st40{fill-rule:evenodd;clip-rule:evenodd;fill:none;stroke:#000327; fill-opacity: 1; stroke-opacity: 1;stroke-width:1.5055;stroke-linecap:round;}
	.st41{fill-rule:evenodd;clip-rule:evenodd;fill:none;stroke:#696f93; fill-opacity: 1; stroke-opacity: 1;stroke-width:2.1448;stroke-linecap:round;}
	.st42{fill-rule:evenodd;clip-rule:evenodd;fill:none;stroke:#33395d; fill-opacity: 1; stroke-opacity: 1;stroke-width:1.2089;stroke-linecap:round;}
	.st43{fill-rule:evenodd;clip-rule:evenodd;fill:none;stroke:#21274b; fill-opacity: 1; stroke-opacity: 1;stroke-width:1.5584;stroke-linecap:round;}
	.st44{fill-rule:evenodd;clip-rule:evenodd;fill:none;stroke:#454b6f; fill-opacity: 1; stroke-opacity: 1;stroke-width:1.633;stroke-linecap:round;}
	.st45{fill-rule:evenodd;clip-rule:evenodd;fill:none;stroke:#0f1539; fill-opacity: 1; stroke-opacity: 1;stroke-width:1.6956;stroke-linecap:round;}
	.st46{fill-rule:evenodd;clip-rule:evenodd;fill:none;stroke:#575d81; fill-opacity: 1; stroke-opacity: 1;stroke-width:1.5811;stroke-linecap:round;}
	.st47{fill-rule:evenodd;clip-rule:evenodd;fill:none;stroke:#000327; fill-opacity: 1; stroke-opacity: 1;stroke-width:1.2845;stroke-linecap:round;}
	.st48{fill-rule:evenodd;clip-rule:evenodd;fill:none;stroke:#696f93; fill-opacity: 1; stroke-opacity: 1;stroke-width:2.0976;stroke-linecap:round;}
	.st49{fill-rule:evenodd;clip-rule:evenodd;fill:none;stroke:#33395d; fill-opacity: 1; stroke-opacity: 1;stroke-width:1.2854;stroke-linecap:round;}
	.st50{fill-rule:evenodd;clip-rule:evenodd;fill:none;stroke:#21274b; fill-opacity: 1; stroke-opacity: 1;stroke-width:2.8284;stroke-linecap:round;}
	.st51{fill-rule:evenodd;clip-rule:evenodd;fill:none;stroke:#454b6f; fill-opacity: 1; stroke-opacity: 1;stroke-width:1.8527;stroke-linecap:round;}
	.st52{fill-rule:evenodd;clip-rule:evenodd;fill:none;stroke:#0f1539; fill-opacity: 1; stroke-opacity: 1;stroke-width:1.3282;stroke-linecap:round;}
	.st53{fill-rule:evenodd;clip-rule:evenodd;fill:none;stroke:#575d81; fill-opacity: 1; stroke-opacity: 1;stroke-width:4.0415;stroke-linecap:round;}
	.st54{fill-rule:evenodd;clip-rule:evenodd;fill:none;stroke:#000327; fill-opacity: 1; stroke-opacity: 1;stroke-width:1.422;stroke-linecap:round;}
	.st55{fill-rule:evenodd;clip-rule:evenodd;fill:none;stroke:#696f93; fill-opacity: 1; stroke-opacity: 1;stroke-width:1.3188;stroke-linecap:round;}
	.st56{fill-rule:evenodd;clip-rule:evenodd;fill:none;stroke:#33395d; fill-opacity: 1; stroke-opacity: 1;stroke-width:1.6216;stroke-linecap:round;}
	.st57{fill-rule:evenodd;clip-rule:evenodd;fill:none;stroke:#21274b; fill-opacity: 1; stroke-opacity: 1;stroke-width:1.5403;stroke-linecap:round;}
	.st58{fill-rule:evenodd;clip-rule:evenodd;fill:none;stroke:#454b6f; fill-opacity: 1; stroke-opacity: 1;stroke-width:1.6257;stroke-linecap:round;}
	.st59{fill-rule:evenodd;clip-rule:evenodd;fill:none;stroke:#0f1539; fill-opacity: 1; stroke-opacity: 1;stroke-width:1.3912;stroke-linecap:round;}
	.st60{fill-rule:evenodd;clip-rule:evenodd;fill:none;stroke:#575d81; fill-opacity: 1; stroke-opacity: 1;stroke-width:1.6298;stroke-linecap:round;}
	.st61{fill-rule:evenodd;clip-rule:evenodd;fill:none;stroke:#000327; fill-opacity: 1; stroke-opacity: 1;stroke-width:1.472;stroke-linecap:round;}
	.st62{fill-rule:evenodd;clip-rule:evenodd;fill:none;stroke:#696f93; fill-opacity: 1; stroke-opacity: 1;stroke-width:1.5744;stroke-linecap:round;}
	.st63{fill-rule:evenodd;clip-rule:evenodd;fill:none;stroke:#33395d; fill-opacity: 1; stroke-opacity: 1;stroke-width:1.1239;stroke-linecap:round;}
	.st64{fill-rule:evenodd;clip-rule:evenodd;fill:none;stroke:#21274b; fill-opacity: 1; stroke-opacity: 1;stroke-width:1.669;stroke-linecap:round;}
	.st65{fill-rule:evenodd;clip-rule:evenodd;fill:none;stroke:#454b6f; fill-opacity: 1; stroke-opacity: 1;stroke-width:1.6172;stroke-linecap:round;}
	.st66{fill-rule:evenodd;clip-rule:evenodd;fill:none;stroke:#0f1539; fill-opacity: 1; stroke-opacity: 1;stroke-width:1.6202;stroke-linecap:round;}
	.st67{fill-rule:evenodd;clip-rule:evenodd;fill:none;stroke:#575d81; fill-opacity: 1; stroke-opacity: 1;stroke-width:1.7056;stroke-linecap:round;}
	.st68{fill-rule:evenodd;clip-rule:evenodd;fill:none;stroke:#000327; fill-opacity: 1; stroke-opacity: 1;stroke-width:1.4349;stroke-linecap:round;}
	.st69{fill-rule:evenodd;clip-rule:evenodd;fill:none;stroke:#696f93; fill-opacity: 1; stroke-opacity: 1;stroke-width:3.0332;stroke-linecap:round;}
	.st70{fill-rule:evenodd;clip-rule:evenodd;fill:none;stroke:#33395d; fill-opacity: 1; stroke-opacity: 1;stroke-width:1.2817;stroke-linecap:round;}
	.st71{fill-rule:evenodd;clip-rule:evenodd;fill:none;stroke:#21274b; fill-opacity: 1; stroke-opacity: 1;stroke-width:2.8382;stroke-linecap:round;}
	.st72{fill-rule:evenodd;clip-rule:evenodd;fill:none;stroke:#454b6f; fill-opacity: 1; stroke-opacity: 1;stroke-width:1.6378;stroke-linecap:round;}
	.st73{fill-rule:evenodd;clip-rule:evenodd;fill:none;stroke:#0f1539; fill-opacity: 1; stroke-opacity: 1;stroke-width:1.3868;stroke-linecap:round;}
	.st74{fill-rule:evenodd;clip-rule:evenodd;fill:none;stroke:#575d81; fill-opacity: 1; stroke-opacity: 1;stroke-width:1.3504;stroke-linecap:round;}
	.st75{fill-rule:evenodd;clip-rule:evenodd;fill:none;stroke:#000327; fill-opacity: 1; stroke-opacity: 1;stroke-width:1.2432;stroke-linecap:round;}
	.st76{fill-rule:evenodd;clip-rule:evenodd;fill:none;stroke:#696f93; fill-opacity: 1; stroke-opacity: 1;stroke-width:2.2054;stroke-linecap:round;}
	.st77{fill-rule:evenodd;clip-rule:evenodd;fill:none;stroke:#33395d; fill-opacity: 1; stroke-opacity: 1;stroke-width:1.6408;stroke-linecap:round;}
	.st78{fill-rule:evenodd;clip-rule:evenodd;fill:none;stroke:#21274b; fill-opacity: 1; stroke-opacity: 1;stroke-width:2;stroke-linecap:round;}
	.st79{fill-rule:evenodd;clip-rule:evenodd;fill:none;stroke:#454b6f; fill-opacity: 1; stroke-opacity: 1;stroke-width:1.0247;stroke-linecap:round;}
	.st80{fill-rule:evenodd;clip-rule:evenodd;fill:none;stroke:#0f1539; fill-opacity: 1; stroke-opacity: 1;stroke-linecap:round;}
	.st81{fill-rule:evenodd;clip-rule:evenodd;fill:none;stroke:#575d81; fill-opacity: 1; stroke-opacity: 1;stroke-width:1.9685;stroke-linecap:round;}
	.st82{fill-rule:evenodd;clip-rule:evenodd;fill:none;stroke:#000327; fill-opacity: 1; stroke-opacity: 1;stroke-width:2.1344;stroke-linecap:round;}
	.st83{fill-rule:evenodd;clip-rule:evenodd;fill:none;stroke:#696f93; fill-opacity: 1; stroke-opacity: 1;stroke-width:1.4958;stroke-linecap:round;}
	.st84{fill-rule:evenodd;clip-rule:evenodd;fill:none;stroke:#33395d; fill-opacity: 1; stroke-opacity: 1;stroke-width:1.964;stroke-linecap:round;}
	.st85{fill-rule:evenodd;clip-rule:evenodd;fill:none;stroke:#21274b; fill-opacity: 1; stroke-opacity: 1;stroke-width:1.4832;stroke-linecap:round;}
	.st86{fill-rule:evenodd;clip-rule:evenodd;fill:none;stroke:#454b6f; fill-opacity: 1; stroke-opacity: 1;stroke-width:1.4376;stroke-linecap:round;}
	.st87{fill-rule:evenodd;clip-rule:evenodd;fill:none;stroke:#0f1539; fill-opacity: 1; stroke-opacity: 1;stroke-width:1.6499;stroke-linecap:round;}
	.st88{fill-rule:evenodd;clip-rule:evenodd;fill:none;stroke:#575d81; fill-opacity: 1; stroke-opacity: 1;stroke-width:1.206;stroke-linecap:round;}
	.st89{fill-rule:evenodd;clip-rule:evenodd;fill:none;stroke:#000327; fill-opacity: 1; stroke-opacity: 1;stroke-width:1.4676;stroke-linecap:round;}
	.st90{fill-rule:evenodd;clip-rule:evenodd;fill:none;stroke:#696f93; fill-opacity: 1; stroke-opacity: 1;stroke-width:1.5031;stroke-linecap:round;}
	.st91{fill-rule:evenodd;clip-rule:evenodd;fill:none;stroke:#33395d; fill-opacity: 1; stroke-opacity: 1;stroke-width:1.5986;stroke-linecap:round;}
	.st92{fill-rule:evenodd;clip-rule:evenodd;fill:none;stroke:#21274b; fill-opacity: 1; stroke-opacity: 1;stroke-width:3.0659;stroke-linecap:round;}
	.st93{fill-rule:evenodd;clip-rule:evenodd;fill:none;stroke:#454b6f; fill-opacity: 1; stroke-opacity: 1;stroke-width:1.3572;stroke-linecap:round;}
	.st94{fill-rule:evenodd;clip-rule:evenodd;fill:none;stroke:#0f1539; fill-opacity: 1; stroke-opacity: 1;stroke-width:1.215;stroke-linecap:round;}
	.st95{fill-rule:evenodd;clip-rule:evenodd;fill:none;stroke:#575d81; fill-opacity: 1; stroke-opacity: 1;stroke-width:1.453;stroke-linecap:round;}
	.st96{fill-rule:evenodd;clip-rule:evenodd;fill:none;stroke:#000327; fill-opacity: 1; stroke-opacity: 1;stroke-width:1.75;stroke-linecap:round;}
	.st97{fill-rule:evenodd;clip-rule:evenodd;fill:none;stroke:#696f93; fill-opacity: 1; stroke-opacity: 1;stroke-width:1.0801;stroke-linecap:round;}
	.st98{fill-rule:evenodd;clip-rule:evenodd;fill:none;stroke:#33395d; fill-opacity: 1; stroke-opacity: 1;stroke-width:1.7951;stroke-linecap:round;}
	.st99{fill-rule:evenodd;clip-rule:evenodd;fill:none;stroke:#21274b; fill-opacity: 1; stroke-opacity: 1;stroke-width:1.2042;stroke-linecap:round;}
	.st100{fill-rule:evenodd;clip-rule:evenodd;fill:none;stroke:#454b6f; fill-opacity: 1; stroke-opacity: 1;stroke-width:2.2608;stroke-linecap:round;}
	.st101{fill-rule:evenodd;clip-rule:evenodd;fill:none;stroke:#0f1539; fill-opacity: 1; stroke-opacity: 1;stroke-width:2.0817;stroke-linecap:round;}
	.st102{fill-rule:evenodd;clip-rule:evenodd;fill:none;stroke:#575d81; fill-opacity: 1; stroke-opacity: 1;stroke-width:1.7889;stroke-linecap:round;}
	.st103{fill-rule:evenodd;clip-rule:evenodd;fill:none;stroke:#000327; fill-opacity: 1; stroke-opacity: 1;stroke-width:1.3093;stroke-linecap:round;}
	.st104{fill-rule:evenodd;clip-rule:evenodd;fill:none;stroke:#696f93; fill-opacity: 1; stroke-opacity: 1;stroke-width:1.7795;stroke-linecap:round;}
	.st105{fill-rule:evenodd;clip-rule:evenodd;fill:none;stroke:#33395d; fill-opacity: 1; stroke-opacity: 1;stroke-width:2.1213;stroke-linecap:round;}
	.st106{fill-rule:evenodd;clip-rule:evenodd;fill:none;stroke:#21274b; fill-opacity: 1; stroke-opacity: 1;stroke-width:2.1016;stroke-linecap:round;}
	.st107{fill-rule:evenodd;clip-rule:evenodd;fill:none;stroke:#454b6f; fill-opacity: 1; stroke-opacity: 1;stroke-width:1.2383;stroke-linecap:round;}
	.st108{fill-rule:evenodd;clip-rule:evenodd;fill:none;stroke:#0f1539; fill-opacity: 1; stroke-opacity: 1;stroke-width:1.5411;stroke-linecap:round;}
	.st109{fill-rule:evenodd;clip-rule:evenodd;fill:none;stroke:#575d81; fill-opacity: 1; stroke-opacity: 1;stroke-width:3.1623;stroke-linecap:round;}
	.st110{fill-rule:evenodd;clip-rule:evenodd;fill:none;stroke:#000327; fill-opacity: 1; stroke-opacity: 1;stroke-width:2.0276;stroke-linecap:round;}
	.st111{fill-rule:evenodd;clip-rule:evenodd;fill:none;stroke:#696f93; fill-opacity: 1; stroke-opacity: 1;stroke-width:3.0551;stroke-linecap:round;}
	.st112{fill-rule:evenodd;clip-rule:evenodd;fill:none;stroke:#33395d; fill-opacity: 1; stroke-opacity: 1;stroke-width:1.4142;stroke-linecap:round;}
	.st113{fill-rule:evenodd;clip-rule:evenodd;fill:none;stroke:#21274b; fill-opacity: 1; stroke-opacity: 1;stroke-width:1.7928;stroke-linecap:round;}
	.st114{fill-rule:evenodd;clip-rule:evenodd;fill:none;stroke:#454b6f; fill-opacity: 1; stroke-opacity: 1;stroke-width:1.3817;stroke-linecap:round;}
	.st115{fill-rule:evenodd;clip-rule:evenodd;fill:none;stroke:#0f1539; fill-opacity: 1; stroke-opacity: 1;stroke-width:1.2019;stroke-linecap:round;}
	.st116{fill-rule:evenodd;clip-rule:evenodd;fill:none;stroke:#575d81; fill-opacity: 1; stroke-opacity: 1;stroke-width:1.6036;stroke-linecap:round;}
	.st117{fill-rule:evenodd;clip-rule:evenodd;fill:none;stroke:#000327; fill-opacity: 1; stroke-opacity: 1;stroke-width:1.9272;stroke-linecap:round;}
	.st118{fill:#696f93; fill-opacity: 1; stroke-opacity: 1;fill-rule:evenodd;clip-rule:evenodd;}
	.st119{fill-rule:evenodd;clip-rule:evenodd;fill:none;stroke:#33395d; fill-opacity: 1; stroke-opacity: 1;stroke-width:1.4971;stroke-linecap:round;}
	.st120{fill-rule:evenodd;clip-rule:evenodd;fill:none;stroke:#21274b; fill-opacity: 1; stroke-opacity: 1;stroke-width:1.4577;stroke-linecap:round;}
	.st121{fill-rule:evenodd;clip-rule:evenodd;fill:none;stroke:#454b6f; fill-opacity: 1; stroke-opacity: 1;stroke-width:1.4639;stroke-linecap:round;}
	.st122{fill-rule:evenodd;clip-rule:evenodd;fill:none;stroke:#0f1539; fill-opacity: 1; stroke-opacity: 1;stroke-width:1.8127;stroke-linecap:round;}
	.st123{fill-rule:evenodd;clip-rule:evenodd;fill:none;stroke:#575d81; fill-opacity: 1; stroke-opacity: 1;stroke-width:1.7678;stroke-linecap:round;}
	.st124{fill-rule:evenodd;clip-rule:evenodd;fill:none;stroke:#000327; fill-opacity: 1; stroke-opacity: 1;stroke-width:1.6533;stroke-linecap:round;}
	.st125{fill-rule:evenodd;clip-rule:evenodd;fill:none;stroke:#696f93; fill-opacity: 1; stroke-opacity: 1;stroke-width:1.6771;stroke-linecap:round;}
	.st126{fill-rule:evenodd;clip-rule:evenodd;fill:none;stroke:#33395d; fill-opacity: 1; stroke-opacity: 1;stroke-width:1.1547;stroke-linecap:round;}
	.st127{fill-rule:evenodd;clip-rule:evenodd;fill:none;stroke:#21274b; fill-opacity: 1; stroke-opacity: 1;stroke-width:1.354;stroke-linecap:round;}
	.st128{fill-rule:evenodd;clip-rule:evenodd;fill:none;stroke:#454b6f; fill-opacity: 1; stroke-opacity: 1;stroke-width:1.7614;stroke-linecap:round;}
	.st129{fill-rule:evenodd;clip-rule:evenodd;fill:none;stroke:#0f1539; fill-opacity: 1; stroke-opacity: 1;stroke-width:3.1091;stroke-linecap:round;}
	.st130{fill-rule:evenodd;clip-rule:evenodd;fill:none;stroke:#575d81; fill-opacity: 1; stroke-opacity: 1;stroke-width:1.4907;stroke-linecap:round;}
	.st131{fill-rule:evenodd;clip-rule:evenodd;fill:none;stroke:#000327; fill-opacity: 1; stroke-opacity: 1;stroke-width:1.5;stroke-linecap:round;}
	.st132{fill-rule:evenodd;clip-rule:evenodd;fill:none;stroke:#696f93; fill-opacity: 1; stroke-opacity: 1;stroke-width:1.6583;stroke-linecap:round;}
	.st133{fill-rule:evenodd;clip-rule:evenodd;fill:none;stroke:#33395d; fill-opacity: 1; stroke-opacity: 1;stroke-width:1.2472;stroke-linecap:round;}
	.st134{fill-rule:evenodd;clip-rule:evenodd;fill:none;stroke:#21274b; fill-opacity: 1; stroke-opacity: 1;stroke-width:1.3844;stroke-linecap:round;}
	.st135{fill-rule:evenodd;clip-rule:evenodd;fill:none;stroke:#454b6f; fill-opacity: 1; stroke-opacity: 1;stroke-width:2.1602;stroke-linecap:round;}
	.st136{fill-rule:evenodd;clip-rule:evenodd;fill:none;stroke:#0f1539; fill-opacity: 1; stroke-opacity: 1;stroke-width:1.2834;stroke-linecap:round;}
	.st137{fill-rule:evenodd;clip-rule:evenodd;fill:none;stroke:#575d81; fill-opacity: 1; stroke-opacity: 1;stroke-width:2.5495;stroke-linecap:round;}
	.st138{fill-rule:evenodd;clip-rule:evenodd;fill:none;stroke:#000327; fill-opacity: 1; stroke-opacity: 1;stroke-width:1.8974;stroke-linecap:round;}
	.st139{fill-rule:evenodd;clip-rule:evenodd;fill:none;stroke:#696f93; fill-opacity: 1; stroke-opacity: 1;stroke-width:1.2678;stroke-linecap:round;}
	.st140{fill-rule:evenodd;clip-rule:evenodd;fill:none;stroke:#33395d; fill-opacity: 1; stroke-opacity: 1;stroke-width:2.313;stroke-linecap:round;}
	.st141{fill-rule:evenodd;clip-rule:evenodd;fill:none;stroke:#21274b; fill-opacity: 1; stroke-opacity: 1;stroke-width:2.0207;stroke-linecap:round;}
	.st142{fill-rule:evenodd;clip-rule:evenodd;fill:none;stroke:#454b6f; fill-opacity: 1; stroke-opacity: 1;stroke-width:1.278;stroke-linecap:round;}
	.st143{fill-rule:evenodd;clip-rule:evenodd;fill:none;stroke:#0f1539; fill-opacity: 1; stroke-opacity: 1;stroke-width:1.2978;stroke-linecap:round;}
	.st144{fill-rule:evenodd;clip-rule:evenodd;fill:none;stroke:#575d81; fill-opacity: 1; stroke-opacity: 1;stroke-width:2.5825;stroke-linecap:round;}
	.st145{fill-rule:evenodd;clip-rule:evenodd;fill:none;stroke:#000327; fill-opacity: 1; stroke-opacity: 1;stroke-width:1.9235;stroke-linecap:round;}
	.st146{fill-rule:evenodd;clip-rule:evenodd;fill:none;stroke:#696f93; fill-opacity: 1; stroke-opacity: 1;stroke-width:2.4027;stroke-linecap:round;}
	.st147{fill-rule:evenodd;clip-rule:evenodd;fill:none;stroke:#33395d; fill-opacity: 1; stroke-opacity: 1;stroke-width:1.3333;stroke-linecap:round;}
	.st148{fill-rule:evenodd;clip-rule:evenodd;fill:none;stroke:#21274b; fill-opacity: 1; stroke-opacity: 1;stroke-width:1.8028;stroke-linecap:round;}
	.st149{fill-rule:evenodd;clip-rule:evenodd;fill:none;stroke:#454b6f; fill-opacity: 1; stroke-opacity: 1;stroke-width:1.7838;stroke-linecap:round;}
	.st150{fill-rule:evenodd;clip-rule:evenodd;fill:none;stroke:#0f1539; fill-opacity: 1; stroke-opacity: 1;stroke-width:2.4721;stroke-linecap:round;}
	.st151{fill-rule:evenodd;clip-rule:evenodd;fill:none;stroke:#575d81; fill-opacity: 1; stroke-opacity: 1;stroke-width:2.3452;stroke-linecap:round;}
	.st152{fill-rule:evenodd;clip-rule:evenodd;fill:none;stroke:#000327; fill-opacity: 1; stroke-opacity: 1;stroke-width:1.6008;stroke-linecap:round;}
	.st153{fill-rule:evenodd;clip-rule:evenodd;fill:none;stroke:#696f93; fill-opacity: 1; stroke-opacity: 1;stroke-width:1.6475;stroke-linecap:round;}
	.st154{fill-rule:evenodd;clip-rule:evenodd;fill:none;stroke:#33395d; fill-opacity: 1; stroke-opacity: 1;stroke-width:1.9306;stroke-linecap:round;}
	.st155{fill-rule:evenodd;clip-rule:evenodd;fill:none;stroke:#21274b; fill-opacity: 1; stroke-opacity: 1;stroke-width:1.1551;stroke-linecap:round;}
	.st156{fill-rule:evenodd;clip-rule:evenodd;fill:none;stroke:#454b6f; fill-opacity: 1; stroke-opacity: 1;stroke-width:1.8919;stroke-linecap:round;}
	.st157{fill-rule:evenodd;clip-rule:evenodd;fill:none;stroke:#0f1539; fill-opacity: 1; stroke-opacity: 1;stroke-width:2.1858;stroke-linecap:round;}
	.st158{fill-rule:evenodd;clip-rule:evenodd;fill:none;stroke:#575d81; fill-opacity: 1; stroke-opacity: 1;stroke-width:2.569;stroke-linecap:round;}
	.st159{fill-rule:evenodd;clip-rule:evenodd;fill:none;stroke:#000327; fill-opacity: 1; stroke-opacity: 1;stroke-width:1.2247;stroke-linecap:round;}
	.st160{fill-rule:evenodd;clip-rule:evenodd;fill:none;stroke:#696f93; fill-opacity: 1; stroke-opacity: 1;stroke-width:1.8905;stroke-linecap:round;}
	.st161{fill-rule:evenodd;clip-rule:evenodd;fill:none;stroke:#33395d; fill-opacity: 1; stroke-opacity: 1;stroke-width:1.8708;stroke-linecap:round;}
	.st162{fill-rule:evenodd;clip-rule:evenodd;fill:none;stroke:#21274b; fill-opacity: 1; stroke-opacity: 1;stroke-width:1.1402;stroke-linecap:round;}
	.st163{fill-rule:evenodd;clip-rule:evenodd;fill:none;stroke:#454b6f; fill-opacity: 1; stroke-opacity: 1;stroke-width:1.5492;stroke-linecap:round;}
	.st164{fill-rule:evenodd;clip-rule:evenodd;fill:none;stroke:#0f1539; fill-opacity: 1; stroke-opacity: 1;stroke-width:1.8064;stroke-linecap:round;}
	.st165{fill-rule:evenodd;clip-rule:evenodd;fill:none;stroke:#575d81; fill-opacity: 1; stroke-opacity: 1;stroke-width:4.3012;stroke-linecap:round;}
	.st166{fill-rule:evenodd;clip-rule:evenodd;fill:none;stroke:#000327; fill-opacity: 1; stroke-opacity: 1;stroke-width:1.3628;stroke-linecap:round;}
	.st167{fill-rule:evenodd;clip-rule:evenodd;fill:none;stroke:#696f93; fill-opacity: 1; stroke-opacity: 1;stroke-width:1.4606;stroke-linecap:round;}
	.st168{fill-rule:evenodd;clip-rule:evenodd;fill:none;stroke:#33395d; fill-opacity: 1; stroke-opacity: 1;stroke-width:1.5916;stroke-linecap:round;}
	.st169{fill-rule:evenodd;clip-rule:evenodd;fill:none;stroke:#21274b; fill-opacity: 1; stroke-opacity: 1;stroke-width:1.291;stroke-linecap:round;}
	.st170{fill-rule:evenodd;clip-rule:evenodd;fill:none;stroke:#454b6f; fill-opacity: 1; stroke-opacity: 1;stroke-width:1.1255;stroke-linecap:round;}
	.st171{fill-rule:evenodd;clip-rule:evenodd;fill:none;stroke:#0f1539; fill-opacity: 1; stroke-opacity: 1;stroke-width:1.4491;stroke-linecap:round;}
	.st172{fill-rule:evenodd;clip-rule:evenodd;fill:none;stroke:#575d81; fill-opacity: 1; stroke-opacity: 1;stroke-width:1.9704;stroke-linecap:round;}
	.st173{fill-rule:evenodd;clip-rule:evenodd;fill:none;stroke:#000327; fill-opacity: 1; stroke-opacity: 1;stroke-width:1.5863;stroke-linecap:round;}
	.st174{fill-rule:evenodd;clip-rule:evenodd;fill:none;stroke:#696f93; fill-opacity: 1; stroke-opacity: 1;stroke-width:1.518;stroke-linecap:round;}
	.st175{fill-rule:evenodd;clip-rule:evenodd;fill:none;stroke:#33395d; fill-opacity: 1; stroke-opacity: 1;stroke-width:1.6903;stroke-linecap:round;}
	.st176{fill-rule:evenodd;clip-rule:evenodd;fill:none;stroke:#21274b; fill-opacity: 1; stroke-opacity: 1;stroke-width:1.2336;stroke-linecap:round;}
	.st177{fill-rule:evenodd;clip-rule:evenodd;fill:none;stroke:#454b6f; fill-opacity: 1; stroke-opacity: 1;stroke-width:1.3055;stroke-linecap:round;}
	.st178{fill-rule:evenodd;clip-rule:evenodd;fill:none;stroke:#0f1539; fill-opacity: 1; stroke-opacity: 1;stroke-width:1.8829;stroke-linecap:round;}
	.st179{fill-rule:evenodd;clip-rule:evenodd;fill:none;stroke:#575d81; fill-opacity: 1; stroke-opacity: 1;stroke-width:1.6394;stroke-linecap:round;}
	.st180{fill-rule:evenodd;clip-rule:evenodd;fill:none;stroke:#000327; fill-opacity: 1; stroke-opacity: 1;stroke-width:2.4152;stroke-linecap:round;}
	.st181{fill-rule:evenodd;clip-rule:evenodd;fill:none;stroke:#696f93; fill-opacity: 1; stroke-opacity: 1;stroke-width:2.2361;stroke-linecap:round;}
	.st182{fill-rule:evenodd;clip-rule:evenodd;fill:none;stroke:#33395d; fill-opacity: 1; stroke-opacity: 1;stroke-width:1.8091;stroke-linecap:round;}
	.st183{fill-rule:evenodd;clip-rule:evenodd;fill:none;stroke:#21274b; fill-opacity: 1; stroke-opacity: 1;stroke-width:1.5384;stroke-linecap:round;}
	.st184{fill-rule:evenodd;clip-rule:evenodd;fill:none;stroke:#454b6f; fill-opacity: 1; stroke-opacity: 1;stroke-width:2.3401;stroke-linecap:round;}
	.st185{fill-rule:evenodd;clip-rule:evenodd;fill:none;stroke:#0f1539; fill-opacity: 1; stroke-opacity: 1;stroke-width:2.582;stroke-linecap:round;}
	.st186{fill-rule:evenodd;clip-rule:evenodd;fill:none;stroke:#575d81; fill-opacity: 1; stroke-opacity: 1;stroke-width:1.1832;stroke-linecap:round;}
	.st187{fill-rule:evenodd;clip-rule:evenodd;fill:none;stroke:#000327; fill-opacity: 1; stroke-opacity: 1;stroke-width:1.3229;stroke-linecap:round;}
	.st188{fill-rule:evenodd;clip-rule:evenodd;fill:none;stroke:#696f93; fill-opacity: 1; stroke-opacity: 1;stroke-width:1.3955;stroke-linecap:round;}
	.st189{fill-rule:evenodd;clip-rule:evenodd;fill:none;stroke:#33395d; fill-opacity: 1; stroke-opacity: 1;stroke-width:1.2748;stroke-linecap:round;}
	.st190{fill-rule:evenodd;clip-rule:evenodd;fill:none;stroke:#21274b; fill-opacity: 1; stroke-opacity: 1;stroke-width:1.307;stroke-linecap:round;}
	.st191{fill-rule:evenodd;clip-rule:evenodd;fill:none;stroke:#454b6f; fill-opacity: 1; stroke-opacity: 1;stroke-width:1.5029;stroke-linecap:round;}
	.st192{fill-rule:evenodd;clip-rule:evenodd;fill:none;stroke:#0f1539; fill-opacity: 1; stroke-opacity: 1;stroke-width:3.0822;stroke-linecap:round;}
	.st193{fill-rule:evenodd;clip-rule:evenodd;fill:none;stroke:#575d81; fill-opacity: 1; stroke-opacity: 1;stroke-width:2.1722;stroke-linecap:round;}
	.st194{fill-rule:evenodd;clip-rule:evenodd;fill:none;stroke:#000327; fill-opacity: 1; stroke-opacity: 1;stroke-width:1.6733;stroke-linecap:round;}
	.st195{fill-rule:evenodd;clip-rule:evenodd;fill:none;stroke:#696f93; fill-opacity: 1; stroke-opacity: 1;stroke-width:1.451;stroke-linecap:round;}
	.st196{fill-rule:evenodd;clip-rule:evenodd;fill:none;stroke:#33395d; fill-opacity: 1; stroke-opacity: 1;stroke-width:1.3009;stroke-linecap:round;}
	.st197{fill-rule:evenodd;clip-rule:evenodd;fill:none;stroke:#21274b; fill-opacity: 1; stroke-opacity: 1;stroke-width:2.2835;stroke-linecap:round;}
	.st198{fill-rule:evenodd;clip-rule:evenodd;fill:none;stroke:#454b6f; fill-opacity: 1; stroke-opacity: 1;stroke-width:1.6245;stroke-linecap:round;}
	.st199{fill-rule:evenodd;clip-rule:evenodd;fill:none;stroke:#0f1539; fill-opacity: 1; stroke-opacity: 1;stroke-width:1.3185;stroke-linecap:round;}
	.st200{fill-rule:evenodd;clip-rule:evenodd;fill:none;stroke:#575d81; fill-opacity: 1; stroke-opacity: 1;stroke-width:1.9149;stroke-linecap:round;}
	.st201{fill-rule:evenodd;clip-rule:evenodd;fill:none;stroke:#000327; fill-opacity: 1; stroke-opacity: 1;stroke-width:2.6458;stroke-linecap:round;}
	.st202{fill-rule:evenodd;clip-rule:evenodd;fill:none;stroke:#696f93; fill-opacity: 1; stroke-opacity: 1;stroke-width:1.2434;stroke-linecap:round;}
	.st203{fill-rule:evenodd;clip-rule:evenodd;fill:none;stroke:#33395d; fill-opacity: 1; stroke-opacity: 1;stroke-width:1.854;stroke-linecap:round;}
	.st204{fill-rule:evenodd;clip-rule:evenodd;fill:none;stroke:#21274b; fill-opacity: 1; stroke-opacity: 1;stroke-width:1.8574;stroke-linecap:round;}
	.st205{fill-rule:evenodd;clip-rule:evenodd;fill:none;stroke:#454b6f; fill-opacity: 1; stroke-opacity: 1;stroke-width:1.8439;stroke-linecap:round;}
	.st206{fill-rule:evenodd;clip-rule:evenodd;fill:none;stroke:#0f1539; fill-opacity: 1; stroke-opacity: 1;stroke-width:1.6492;stroke-linecap:round;}
	.st207{fill-rule:evenodd;clip-rule:evenodd;fill:none;stroke:#575d81; fill-opacity: 1; stroke-opacity: 1;stroke-width:1.2702;stroke-linecap:round;}
	.st208{fill-rule:evenodd;clip-rule:evenodd;fill:none;stroke:#000327; fill-opacity: 1; stroke-opacity: 1;stroke-width:1.2049;stroke-linecap:round;}
	.st209{fill-rule:evenodd;clip-rule:evenodd;fill:none;stroke:#696f93; fill-opacity: 1; stroke-opacity: 1;stroke-width:2.9277;stroke-linecap:round;}
	.st210{fill-rule:evenodd;clip-rule:evenodd;fill:none;stroke:#33395d; fill-opacity: 1; stroke-opacity: 1;stroke-width:1.6948;stroke-linecap:round;}
	.st211{fill-rule:evenodd;clip-rule:evenodd;fill:none;stroke:#21274b; fill-opacity: 1; stroke-opacity: 1;stroke-width:3.0414;stroke-linecap:round;}
	.st212{fill-rule:evenodd;clip-rule:evenodd;fill:none;stroke:#454b6f; fill-opacity: 1; stroke-opacity: 1;stroke-width:1.6366;stroke-linecap:round;}
	.st213{fill-rule:evenodd;clip-rule:evenodd;fill:none;stroke:#0f1539; fill-opacity: 1; stroke-opacity: 1;stroke-width:1.2649;stroke-linecap:round;}
	.st214{fill-rule:evenodd;clip-rule:evenodd;fill:none;stroke:#575d81; fill-opacity: 1; stroke-opacity: 1;stroke-width:2.0874;stroke-linecap:round;}
]]>
</style>
<g>
	<g>
		<path class="st118" d="M705,10c0.431-2.236,4.929-0.405,7-1c-0.111,2.555-3.349,1.985-6,2v-1H705z"/>
		<path class="st118" d="M27,15c1.852-1.481,1.498-5.168,5-5C30.725,12.059,30.405,15.072,27,15z"/>
		<path class="st118" d="M52,15c-0.184,0.851,0.39,0.943,1,1c-0.19,0.81-1.003,0.997-1,2c-0.667,0-1.333,0-2,0
			c0.184-0.851-0.39-0.943-1-1c0.19-0.81,1.003-0.997,1-2C50.667,15,51.333,15,52,15z"/>
		<path class="st118" d="M28,24c-0.92,1.747-3.126,2.207-6,2c-5.042-3.029,0.093-12.284,5-8h-1v1c-0.851-0.184-0.943,0.39-1,1
			l-1.5-0.5L24,21c-0.184,0.851,0.39,0.943,1,1l-0.5,1.5L26,23c0.333,0,0.667,0,1,0v1H28z"/>
		<path class="st118" d="M26,21v-1V21h1c0.184,0.851-0.39,0.943-1,1V21z"/>
		<path class="st118" d="M82,18c-0.279,2.318-2.671,2.299-4,1C78.279,16.682,80.671,16.701,82,18z"/>
		<path class="st118" d="M15,25c0.31-1.357,2.504-0.83,4-1c-0.733,0.934-1.818,1.515-3,2v-1H15z"/>
		<path class="st118" d="M14,26h1c-0.226,1.44-2.985,0.349-3,2c-2.491-0.407-0.06-3.877,2-3V26z"/>
		<path class="st118" d="M15,862c0.423,2.09-0.686,2.648-1,4c-1.793,0.127-2.109-1.225-4-1C10.441,861.49,12.108,860.76,15,862z"/>
		<path class="st118" d="M60,905c2.615-0.282,4.301,0.365,4,3c-0.89,0.776-2.258,1.075-4,1C60,907.667,60,906.333,60,905z"/>
		<path class="st118" d="M692,921c3.604-0.957,1.772,4.316,1,5C690.831,926.169,692.547,922.453,692,921z"/>
		<path class="st118" d="M16,926c-0.804-0.529-1.624-1.043-3-1l0.5-0.5L13,924c0.553-1.78,0.514-4.153,2-5
			c0.957,2.043,2.043,3.957,3,6h-1v1l-0.5-1L16,926z"/>
		<path class="st118" d="M5.5,768.5L5,769c0.015-2.631-0.555-6.644,2-4h1v-1c2.995,0.658-0.956,2.138,0,4l-1.5-0.5L7,769
			c-0.333,0-0.667,0-1,0L5.5,768.5z"/>
		<path class="st118" d="M4.5,187.5L4,187c-5.314-0.311-1.396-3.345-1-6l0.5,0.5L4,181c0.333,0,0.667,0,1,0l0.5,0.5L6,181
			c1.325,2.976,1.025,5.074-1,7L4.5,187.5z"/>
		<path class="st118" d="M12,55h-1c0.162-1.172,1.823-0.843,3-1l0.5,1.5L16,55c2.461-1.555,2.94,3.396,1,3v-1h-1
			c-0.933,0.611-3.689,2.327-3-1c-0.333,0-0.667,0-1,0V55z"/>
		<path class="st118" d="M8,43H7c-0.184-0.851,0.39-0.943,1-1l0.5,1L9,42c0.333,0,0.667,0,1,0l0.5,0.5L11,42
			c0.856,5.555-1.752,5.762-3,2V43z"/>
		<path class="st118" d="M13,31.25L12,32v-1h-1c2.451-1.882,4.529-4.138,8-5c-0.575,1.758,1.208,5.875-1,6v-1h-1
			c-0.804,0.529-1.624,1.043-3,1L13,31.25z"/>
		<path class="st118" d="M19,13v-1c0.804-0.529,1.624-1.043,3-1c-1.333-6.709,0.727-0.607,3-2v1h1c0.333,0,0.667,0,1,0v1h1
			c-1.802,4.095-8.039,6.17-10,2H19z"/>
		<path class="st118" d="M34,12h1c0.333,0,0.667,0,1,0l-0.5,1.5L37,14c-0.097,2.57-3.903,1.43-4,4l-0.5-0.5L32,18
			c-7.189-0.481,0.715-5.677,2-7V12z"/>
		<path class="st118" d="M38.5,12.167L37,11c-0.184-0.851,0.39-0.943,1-1l0.5,1.5L40,11c0.851,0.184,0.943-0.39,1-1l1-1l-1-1
			c-0.184-0.851,0.39-0.943,1-1v1h1c2.558-0.044,1.219,0.743,1,2c1,0,2,0,3,0l-0.5,0.5L47,11c0,0.333,0,0.667,0,1l-1.5-0.5L46,13
			c-0.667,0-1.333,0-2,0l-1.643-0.786L42,14c-1,0-2,0-3,0L38.5,12.167z"/>
		<path class="st118" d="M64.5,6.5L64,5c3,0,6,0,9,0l0.5,1.5L74,8c-2.641,0.025-6.266-0.933-5,3l-1-0.5L67,11c-0.667,0-1.333,0-2,0
			V9.75L64,9c0-0.333,0-0.667,0-1L64.5,6.5z M66,9C66.655,9.655,65.581,8.581,66,9L66,9z"/>
		<path class="st118" d="M548.5,5.5L548,5c3.979-0.73,4.021-0.73,8,0l-0.5,0.5L556,6c0,0.667,0,1.333,0,2l-0.5-0.5L555,8
			c-2.854,1.008-6.619,1.067-9,0h1V7c0.851,0.184,0.943-0.39,1-1L548.5,5.5z"/>
		<path class="st118" d="M631.5,7.5L632,7c2.007-0.34,3.129,0.205,3,2l0.5,0.5L636,10c-0.333,0-0.667,0-1,0l-1.5-0.5L633,11l-0.25-2
			L631,8c0-0.333,0-0.667,0-1L631.5,7.5z"/>
		<path class="st118" d="M645,9V8c0.851-0.184,0.943,0.39,1,1l-0.75,1l0.75,1c0,0.333,0,0.667,0,1h-1v1c-3.29-1.009-2.924-1.729-1-4
			H645z"/>
		<path class="st118" d="M715,31h-1c4.358-1.422-1.908-3.088,1-5c2.934,1.733,4.644,4.69,5,9c-2.306,0.306-1.111-2.889-3-3l-0.5-1
			l-0.5,1c-0.333,0-0.667,0-1,0V31z"/>
		<path class="st118" d="M719.167,37.833L720,37c1.759,0.241,2.279,1.721,2,4l-1-0.5l-1,0.5c0.162-1.163-0.221-1.779-1-2
			c0.596,5.263-5.046,4.287-8,6v-1h-1c0.19-0.81,1.003-0.997,1-2l1-0.5l-1-0.5c0-0.333,0-0.667,0-1l0.5-1.5L710,38
			c-0.184-0.851,0.39-0.943,1-1l2.5,0.5L713,35c0.333,0,0.667,0,1,0l1.5,0.5L717,36c-0.162,1.163,0.221,1.779,1,2L719.167,37.833z
			 M713,42C713.655,42.655,712.58,41.581,713,42L713,42z"/>
		<path class="st118" d="M720,43h1c0.263,7.62,0.263,9.38,0,17c-2.425,3.479-1.776,4.085-3,8h-1v1c-1.752,0.066-5.419-5.136-1-5
			c-2.211-4.584,2.366-5.833,3-8c-0.027-0.973-1.225-0.776-2-1v-1h-1c2.965-2.369,2.451-8.215,4-12V43z"/>
		<path class="st118" d="M718,70v-1c1.557,7.11,3.107,14.226,3,23l-0.5-0.5L720,92c-2.3,1.296-4.427,6.073-7,4
			c2.857-7.62-3.086-3.587-1-9l0.5,0.5L713,87c0.81-0.19,0.997-1.003,2-1l1.75,1l0.25-2c1.273-0.226,1.311-2.984,0-3v-2.5V77
			c1.317-3.1-2.964-5.547,0-7H718z M717,90C717.655,90.655,716.58,89.581,717,90L717,90z M715,92
			C715.655,92.655,714.58,91.581,715,92L715,92z"/>
		<path class="st118" d="M720.5,174.5l1.5,0.5c2.487,0.15,0.292,3.386,0,4l-1.5-0.5l0.5,1.5c-0.333,0-0.667,0-1,0l0.5-1.5L719,178
			c-2.487-0.15-0.292-3.386,0-4L720.5,174.5L720,173c0.333,0,0.667,0,1,0L720.5,174.5z M720,177
			C720.655,177.655,719.58,176.581,720,177L720,177z"/>
		<path class="st118" d="M716,906v-1c1.453,0.547,5.169-1.169,5,1c-1.313,0.354-1.573,1.761-3,2v-1h-1c-1.162,0.162-1.779-0.221-2-1
			H716z"/>
		<path class="st118" d="M700,910h1c0,0.333,0,0.667,0,1l-0.5,0.5l0.5,0.5c-2.842,3.479-4.488-2.808-1-3V910z"/>
		<path class="st118" d="M674.5,916.5L674,917c0-0.333,0-0.667,0-1l1.5-0.5L675,914c0.891-0.443,1.788-0.878,2-2l0.5-0.5L677,911
			c4.497-0.163,8.89-0.223,10,3c-4.22,0.959-7.365,0.763-12,3L674.5,916.5z"/>
		<path class="st118" d="M72,20h1c1.991,4.274-0.524,7.489-4,4l-0.5-0.5L68,24c-0.125-2.503-1.909-3.13,1-4
			c1.086,0.247,0.678,1.988,2,2c-0.086-1.419-0.165-2.832,1-3V20z"/>
		<path class="st118" d="M68,26h1c0.279,2.279-0.241,3.759-2,4c0-1.333,0-2.667,0-4H68z"/>
		<path class="st118" d="M60.5,24.5L60,25c-3.572,2.296-5.752,0.116-4-4h1v-1c1.44,0.226,0.349,2.984,2,3
			c0.443-0.89,0.878-1.789,2-2c0,1.333,0,2.667,0,4L60.5,24.5z"/>
		<path class="st118" d="M41,20h1c-0.226,1.44-2.985,0.349-3,2l-2.5,0.5L39,23c0,0.333,0,0.667,0,1l-1.5-0.5L37,25
			c-0.851-0.184-0.943,0.39-1,1l-1-0.5L34,26c-1,0-2,0-3,0v-1h-1c1.02-1.314,0.98-3.686,2-5l0.5,0.5L33,20
			c3.769,0.769,4.78-1.22,8-1V20z"/>
		<path class="st118" d="M18,62v-1c3.388,4.106-1.157,8.805-5,9l-0.5-0.5L12,70c-0.529-0.804-1.043-1.624-1-3
			c2.52-2.19,3.98-0.77,6-2c-0.807-0.86-2.739-0.594-3-2c1.419,0.086,2.832,0.165,3-1H18z"/>
		<path class="st118" d="M17.5,889.5L16,890l0.5-1.5L15,889c0-0.333,0-0.667,0-1l0.5-0.5L15,887c1.419,0.086,2.832,0.165,3-1
			c-2.689,0.688-1.933-2.067-3-3h1v-1c0-0.333,0-0.667,0-1l1,0.5l1-0.5c-0.184,0.851,0.39,0.943,1,1l-0.5,1.5L20,883
			c0.333,0,0.667,0,1,0l0.5,1.5L22,886c-1.163-0.162-1.779,0.221-2,1l-0.5,1.5L20,890c-0.81,0.19-0.997,1.003-2,1L17.5,889.5z"/>
		<path class="st118" d="M14.5,889.5L15,890c-1.496-0.02-4.09,3.715-5,1c0.56-1.44,1.56-2.44,3-3v1h1L14.5,889.5z"/>
		<path class="st118" d="M17,869h-1c1.004-1.329,0.946-3.721,3-4c0,1.667,0,3.333,0,5l-0.5-0.5L18,870c-0.333,0-0.667,0-1,0V869z"/>
		<path class="st118" d="M37,899v-1c1.483,0.85,2.15,2.517,2,5c-1.332-1.001-3.018-1.648-4-3h1v-1H37z"/>
		<path class="st118" d="M25.5,904.5L26,905c0.908,0.274,3.358,3.726,1,4c-1.332-1.001-3.018-1.648-4-3h1v-1
			c0.851,0.184,0.943-0.39,1-1L25.5,904.5z"/>
		<path class="st118" d="M54.5,919.5L55,920c0,0.333,0,0.667,0,1h-1v1c-0.738-1.595-4.895,0.229-4-3c1.667,0,3.333,0,5,0L54.5,919.5
			z"/>
		<path class="st118" d="M73.5,928.5L73,928c2.48-0.147,4.853-0.187,5,2c-2.09-0.424-2.648,0.686-4,1v-1h-1c0-0.333,0-0.667,0-1
			L73.5,928.5z"/>
		<path class="st118" d="M637,892v1c-1.342-0.658-1.862-2.138-2-4c1.71-0.044,2.59,0.743,3,2l0.5,0.5l0.5,0.5c-0.333,0-0.667,0-1,0
			H637z"/>
		<path class="st118" d="M703,880h-1l-0.167-1.167L701,878c0-0.333,0-0.667,0-1l1.167,0.167L702,876c0.667,0,1.333,0,2,0l1,0.5
			l1-0.5c0,0.667,0,1.333,0,2l-0.75,1l0.75,1l-1.167-0.167L705,881c-0.667,0-1.333,0-2,0V880z M703,879
			C703.655,879.655,702.581,878.581,703,879L703,879z"/>
		<path class="st118" d="M660,17v-1c0.933,1.067,3.688,0.311,3,3c-3.149,1.121-2.264,0.09-6,0c-0.575,1.758,1.209,5.875-1,6v-1h-1
			c0-1.667,0-3.333,0-5l1-0.75V17c1,0,2,0,3,0H660z"/>
		<path class="st118" d="M633,13h1c-0.977,1.023-1.977,2.023-3,3c-1.44-0.56-2.44-1.56-3-3l-0.5-0.5L627,12c0.333,0,0.667,0,1,0
			l2,0.25l2-0.25c0.333,0,0.667,0,1,0V13z"/>
		<polygon class="st118" points="629.75,10 630,8 630,10.167 628,11 		"/>
		<path class="st118" d="M16,879v1c-1.633,0.45-1.633-5.45,0-5c0.777,0.89,1.075,2.258,1,4H16z"/>
		<path class="st118" d="M28,891c2.182-0.182,3.182,0.818,3,3c-1.862-0.138-3.342-0.658-4-2h1V891z"/>
		<path class="st118" d="M635,14c1.41-1.641,6.513-3.491,6,1c-1.904,1.874-2.513,0.109-5,0v-1H635z"/>
		<path class="st118" d="M705,55C708.405,56.845,705.375,59.875,705,55L705,55z"/>
		<g>
			<path class="st72" d="M690,18.75c-4.988,1.269-5.95-5.542-3.849-8.737c2.256-2.633,5.997-1.356,8.122,0.721
				C696.427,13.939,694.37,19.751,690,18.75"/>
			<path class="st101" d="M690,18.75c0-0.744,0-1.252,0-1.75"/>
			<path class="st18" d="M690,17c1.618-0.673,3.241-2.381,2.193-4.207c-0.912-1.788-3.378-1.574-4.464-0.062
				C686.847,14.661,688.418,16.247,690,17"/>
			<path class="st213" d="M703.5,10.5c1.029,0.029,1.771-0.229,2.5-0.5"/>
			<path class="st86" d="M77.5,13.5c0.728,0.063,1.22-0.119,1.702-0.313c0.338-1.211-0.199-1.861-0.725-2.136
				C77.76,11.151,77.626,12.371,77.5,13.5"/>
			<path class="st31" d="M85.5,12.5c-0.238-0.104-0.476-0.209-0.714-0.314c-0.209-0.563-0.083-0.997,0.061-1.423
				c1.206-0.341,1.501,0.749,1.329,1.467C85.95,12.32,85.725,12.41,85.5,12.5"/>
			<path class="st95" d="M60.5,16.5c1.149-0.419,2.13-1.807,3.507-1.346c1.65,0.295,2.33,2.363,1.828,3.798
				c-0.545,0.371-1.075,0.839-1.569,1.344c-1.253,0.049-2.295-0.64-3.48-1.083C60.592,18.407,60.563,17.438,60.5,16.5"/>
			<path class="st143" d="M672.5,18.5c2.815-0.18,5.275-1.61,8-2"/>
			<path class="st196" d="M27,19c0.449,0.218,0.849,0.484,1.246,0.754C29.052,21.411,27.775,22.701,27,24"/>
			<path class="st169" d="M23.5,19.5c1.029,0.671,1.771,0.991,2.5,1.5"/>
			<path class="st112" d="M27,19c-0.333-0.333-0.667-0.667-1-1"/>
			<path class="st169" d="M26,21c-0.292,0.649-0.838,1.618-1.5,2.5"/>
			<path class="st169" d="M27,19c-0.321,0.679-0.61,1.39-1,2"/>
			<path class="st170" d="M699.5,18.5c2.183,1.658,4.549,2.856,7,4"/>
			<path class="st49" d="M679.5,29.5c1.079-2.723,3.555-4.636,5-7"/>
			<path class="st77" d="M694,31c-1.086-1.989-1.281-4.284-1.5-6.5"/>
			<path class="st169" d="M14,26c0.679-0.321,1.39-0.61,2-1"/>
			<path class="st31" d="M30.5,33.5c-0.576-0.758-0.878-1.788-1-3"/>
			<path class="st159" d="M20.5,35.5c0-1.333,0-2.667,0-4"/>
			<path class="st147" d="M10.5,855.5c-0.238,0.104-0.476,0.209-0.714,0.313c-0.2,0.558-0.082,0.991,0.051,1.419
				c0.924,0.683,2.243,0.394,2.576-0.83C11.986,855.511,11.148,855.33,10.5,855.5"/>
			<path class="st169" d="M16,859c-0.883-1.412,0.189-2.578,1.239-2.154C17.532,857.935,16.625,858.371,16,859"/>
			<path class="st6" d="M671.5,884.5c0.498,1.446,1.43,2.603,1.75,3.5"/>
			<path class="st112" d="M673.25,888c2.129,0.232,3.844,2.177,3.75,4.333"/>
			<path class="st138" d="M677,892.333c2.298,1.332,6.446,3.51,5,6.667"/>
			<path class="st44" d="M682,899c0.606,0.606,1.057,1.057,1.5,1.5"/>
			<path class="st109" d="M676.5,892.5c0.167-0.056,0.333-0.111,0.5-0.167"/>
			<path class="st98" d="M673.25,888c-0.057,0.164-0.113,0.329-0.171,0.493c0.13,1.973,1.586,3.438,3.421,4.007"/>
			<path class="st17" d="M676.5,892.5c-0.115,0.281-0.23,0.563-0.346,0.843c0.264,3.197,3.674,4.086,5.846,5.657"/>
			<path class="st133" d="M699.5,905.5c0.417-0.916,1.049-1.618,2-2"/>
			<path class="st169" d="M703,914c2.091,0.522,4.024,1.083,6,2"/>
			<path class="st112" d="M682.5,917.5c1.038-0.295,1.85-0.817,3-1"/>
			<path class="st61" d="M79.5,923c-0.734-0.305-0.939-1.044-1.015-1.631c0.619-1.104,1.787-1.115,2.773-0.576
				C81.534,922.205,80.252,922.702,79.5,923"/>
			<path class="st17" d="M88,931c1.065-0.34,1.378-1.411,1.157-2.233C87.717,928.422,87.16,929.685,88,931"/>
			<path class="st204" d="M10,910.5c-0.1-1.941,0.031-3.938,0.799-5.711c0.935-0.691,2.157-0.744,3.201-0.789"/>
			<path class="st179" d="M14,904c1.281-2.686,0.636-6.06,2.5-8.5"/>
			<path class="st109" d="M16.5,895.5c-0.111-0.333-0.222-0.667-0.333-1"/>
			<path class="st128" d="M16.167,894.5c-3.561,0.86-5.114,5.48-9.087,5.422c-1.565-3.594,0.251-7.723-0.58-11.422"/>
			<path class="st34" d="M6.5,888.5C6.492,851.579,5.542,814.672,7,778"/>
			<path class="st43" d="M7,778c-0.999-0.369-1.479-1.257-1.563-2.132c0.563-0.598,0.965-0.737,1.397-1.035"/>
			<path class="st41" d="M6.833,774.833c0.176-0.838,0.115-1.978,0-2.666"/>
			<path class="st43" d="M6.833,772.167c-1.721-0.23-1.615-2.41-1.333-3.667"/>
			<path class="st156" d="M7,758C5.65,568.093,7.324,378.167,4.5,187.5"/>
			<path class="st43" d="M4,173c-0.822-1.017-0.628-2.907,0.833-3.167"/>
			<path class="st105" d="M4.833,169.833C4.95,169.315,4.96,168.228,5,167.25"/>
			<path class="st130" d="M5,167.25c-0.34-0.103-0.672-0.237-1.004-0.373c-0.409-0.629-0.306-1.456-0.173-2.087
				C4.262,164.581,4.633,164.292,5,164"/>
			<path class="st146" d="M5,164c-1.558-31.574-1.177-63.982,0.25-96"/>
			<path class="st120" d="M5.25,68c-0.381-0.616-0.817-0.783-1.269-1.112c-0.394-0.633-0.292-1.46-0.168-2.105
				C4.657,63.994,5.338,63.001,6,62"/>
			<path class="st174" d="M6,62c-0.462-0.956-0.821-1.776-0.956-2.483c-0.079-1.729,1.967-1.919,2.088-3.523
				C8.549,54.945,10.581,56.113,12,55"/>
			<path class="st119" d="M13.833,46.833c-1.848,1.343-3.773,5.647-6.8,3.126C5.766,47.698,6.766,45.033,8,43"/>
			<path class="st197" d="M11.25,39.25c0.281-2.757,1.625-5.262,1.75-8"/>
			<path class="st62" d="M12,31c-1.776,1.215-4.249,1.332-5.959-0.044c-0.498-0.917-0.857-1.737-0.997-2.439
				c0.632-5.014,6.12-5.401,9.761-6.564c0.332-0.622,0.24-1.301,0.045-1.943c-0.558-0.348-1.087-0.804-1.585-1.279
				c-1.988-0.534-3.535-1.864-5.486-2.51c-0.939-0.763-1.559-1.876-1.733-2.707C7.715,7.441,16.254,8.4,19,13"/>
			<path class="st116" d="M18.5,8.5c0.183-2.131,1.485-4.007,3.358-5.05c1.301,0.034,2.358,0.696,3.378,1.314
				c0.438,1.572,1.098,3.082,0.15,4.637C25.258,9.601,25.129,9.8,25,10"/>
			<path class="st211" d="M35.5,13.5c0.782-0.382,1.804-0.833,3-1.333"/>
			<path class="st74" d="M42,8c0.964-2.269,4.022-3.102,6.192-2.183C48.553,6.478,49.05,6.724,49.5,7"/>
			<path class="st184" d="M49.5,7c3.598,0.069,7.261-0.343,10.75,0.75"/>
			<path class="st209" d="M60.25,7.75c1.233-0.801,2.898-1.094,4.25-1.25"/>
			<path class="st71" d="M73.5,6.5c27.272-0.22,54.807,1.102,82-1"/>
			<path class="st100" d="M155.5,5.5c0.699-0.652,1.272-0.98,1.84-1.293c0.737-0.054,1.935,0.429,3.16,1.293"/>
			<path class="st192" d="M160.5,5.5c0.333,0,0.667,0,1,0"/>
			<path class="st194" d="M161.5,5.5c1.499-1.56,4.14-0.841,5.5,0.5"/>
			<path class="st101" d="M167,6c0.333,0,0.667,0,1,0"/>
			<path class="st175" d="M168,6c0.958-0.459,1.765-0.83,2.486-0.965c0.426,0.129,1.048,0.622,1.68,1.132"/>
			<path class="st135" d="M172.167,6.167c0.572-0.107,1.187-0.203,1.667-0.333"/>
			<path class="st145" d="M173.833,5.833c0.11-0.173,0.22-0.345,0.33-0.518c1.79-0.757,3.952-0.079,5.337,1.185"/>
			<line class="st111" x1="179.5" y1="6.5" x2="179.5" y2="6.5"/>
			<path class="st112" d="M179.5,6.5c0.497-0.727,0.855-1.221,1.207-1.704c0.884-0.238,1.685,0.073,2.459,0.371"/>
			<path class="st193" d="M183.167,5.167C301.915,6.557,420.262,5.167,539,6"/>
			<path class="st175" d="M539,6c0.959-0.458,1.76-0.835,2.484-0.967c0.807,0.43,1.367,0.968,2.016,1.467"/>
			<path class="st92" d="M543.5,6.5c0.333,0,0.667,0,1,0"/>
			<path class="st112" d="M544.5,6.5c1.333-0.901,2.667-0.863,4-1"/>
			<path class="st105" d="M559.167,6.833C559.729,6.95,560.43,6.96,561,7"/>
			<path class="st175" d="M561,7c0.316-0.714,0.619-1.351,1.03-1.824c0.449-0.178,1.205,0.32,1.97,0.824"/>
			<path class="st37" d="M564,6c20.374,1.128,41.713-0.431,62.167,1.167"/>
			<path class="st135" d="M626.167,7.167c0.571-0.107,1.187-0.203,1.666-0.333"/>
			<path class="st1" d="M627.833,6.833c0.091-0.611,0.978-1.507,1.646-1.749c0.734,0.244,1.362,0.966,1.834,1.543
				c0.063,0.291,0.125,0.582,0.188,0.872"/>
			<path class="st13" d="M635.5,9.5c2.9-0.849,6.421-1.719,9.5-0.5"/>
			<path class="st153" d="M648,10c0.075-1.261-0.03-3.536,1.504-3.936c2.972,0.05,4.619,2.577,6.246,4.686"/>
			<path class="st192" d="M655.75,10.75c0.53-0.137,1.138-0.195,1.75-0.25"/>
			<path class="st164" d="M657.5,10.5c1.745-3.545,5.935-3.584,9.333-3.667"/>
			<path class="st173" d="M666.833,6.833c0.11-0.173,0.22-0.345,0.33-0.518c12.188,1.194,31.56-3.516,42.785-0.576
				c2.562,0.671,6.351-0.542,5.242,4.475c-1.677,1.677-3.183,3.917-5.69,4.286"/>
			<path class="st10" d="M666.833,6.833c0.59,1.044,1.276,1.678,1.892,2.439c3.775,0.684,7.785-0.306,11.474,0.537
				c0.881,1.097,1.313,3.066-0.145,3.927c-4.477,0.344-9.036,0.462-13.269,2.053c-0.325,0.339-0.686,0.644-1.049,0.947
				c-0.218,1.201-0.596,2.001-0.695,2.744c0.214,0.65,0.36,1.855,0.749,2.734c0.34,0.324,0.641,0.689,0.939,1.056
				c1.131,0.197,2.482,0.217,3.767,0.223c2.838-1.651,6.08-2.629,9.073-3.922c0.449-0.218,0.797-0.538,1.14-0.862
				c0.926-0.201,1.774-0.098,2.492,0.103c0.262,0.845,0.158,1.686-0.009,2.398c-3.384,3.639-8.221,5.638-11.469,9.515
				c-0.183,1.826-0.839,3.764,0.069,5.49c0.338,0.325,0.639,0.69,0.937,1.057c6.026,1.481,9.255-5.063,11.05-9.477
				c1.294-1.309,2.252-4.085,4.423-3.892c0.33,0.274,0.701,0.559,1.074,0.844c-0.156,3.791-0.983,8.162,1.485,11.493
				c1.176,0.683,2.339,1.528,3.722,1.718c6.811-1.951,2.427-9.709,0.212-13.658c-0.341-1.814,1.36-2.722,2.305-2.298"/>
			<path class="st155" d="M697,22c4.213-1.215,6.99,4.089,10.709,5.291c1.19,0.219,2.529,0.228,3.493-0.092
				c0.711-0.619,1.361-1.302,2.073-1.923c0.127-0.571,0.164-1.181,0.198-1.792c-2.387-6.412-10.965-4.353-14.366-9.019
				c0.589-0.67,1.525-0.737,2.393-0.965"/>
			<path class="st76" d="M697,22c1.578,4.168,4.904,7.756,8.5,10.5"/>
			<path class="st61" d="M705.5,32.5c1-0.701,2-0.763,3-1"/>
			<path class="st192" d="M705.5,32.5c0.04,0.667,0.185,1.333,0.333,2"/>
			<path class="st150" d="M705.833,34.5c2.37,0.379,3.896,0.484,5.917,0.5"/>
			<path class="st194" d="M711.75,35c0.102-0.34,0.237-0.672,0.375-1.003c0.336-0.268,0.852-0.386,1.375-0.497"/>
			<path class="st159" d="M713.5,33.5c-0.056-0.722,0.121-1.212,0.309-1.691C714.256,31.59,714.63,31.296,715,31"/>
			<path class="st153" d="M716.5,35c1.577,0.104,2.287,1.497,2.667,2.833"/>
			<path class="st121" d="M720.5,169.5c1.333,1.831,0.989,3.296,0,5"/>
			<path class="st101" d="M716,887c0,0.423,0,1.081,0,1.75"/>
			<path class="st28" d="M692.5,906.5c0.606,0.567,1.057,0.873,1.5,1.167"/>
			<path class="st192" d="M694,907.667c0.167-0.056,0.333-0.111,0.5-0.167"/>
			<path class="st191" d="M694.5,907.5c1.039-8.877,20.018-15.32,13.77-2.229c-0.493,0.173-0.884,0.449-1.27,0.729"/>
			<path class="st183" d="M707,906c1.009,0.981,2.511,2.199,4,1.75"/>
			<path class="st187" d="M711,907.75c0.121-0.702,0.442-1.368,0.768-1.989c1.423-0.319,3.157-0.302,4.232,0.239"/>
			<path class="st127" d="M707,906c-2.478,1.228-4.685,2.583-7,4"/>
			<path class="st60" d="M696.5,917.5c-0.302,0.401-0.603,0.803-0.904,1.204c2.439,4.284,1.352,13.714-5.543,11.241
				c-2.433-3.222-0.125-7.246-0.365-10.585c-0.804-0.063-2,0.08-2.893,0.439c-3.322,2.594-8.005,5.781-12.04,2.438
				c-1.255-1.71-0.673-3.868-0.255-5.738"/>
			<path class="st78" d="M188,934c-1.045,0.98-2.228,0.777-3.5,0.5"/>
			<path class="st206" d="M68,10.5c0.11,0.723,1.541,0.844,2.61,1.131c0.476,1.073-0.955,2.114-0.371,3.133
				c2.035-0.208,3.411,1.144,3.487,3.188C73.019,18.382,72.57,19.266,72,20"/>
			<path class="st147" d="M55.75,15c-3.378-1.482-7.249-1.004-10.25-3.5"/>
			<path class="st210" d="M36.5,22.5c4.329-0.833,10.51,0.45,10.498,5.891C44.453,33.848,36.945,29.181,35,25.5"/>
			<path class="st2" d="M31,25c-0.567,0.614-0.74,1.033-0.895,1.441c1.727,3.485,4.642,6.278,7.171,9.282
				c0.203,2.412,1.526,5.11-0.32,7.236c-1.117,0.649-2.096,0.994-3.354,1.032C28.412,42.431,28.561,37,27.21,32.786
				c-0.717-0.791-1.799-2.049-2.975-1.545c-1.201,3.979,2.373,8.203-0.007,11.998c-0.969,0.67-2.184,1.279-3.2,1.505
				C15.375,42.688,16.016,35.506,18,31"/>
			<path class="st168" d="M13.833,46.833c1.365,2.728,2.129,5.728,0.667,8.667"/>
			<path class="st33" d="M5,173c0.584,1.165,0.513,2.953,0,4"/>
			<path class="st159" d="M5,177c0.543,1.124,0.447,2.887,0.5,4.5"/>
			<path class="st159" d="M7,758c0.449,0.218,0.849,0.484,1.246,0.754c0.26,1.148,0.276,2.499-0.056,3.439
				C7.743,762.411,7.37,762.704,7,763"/>
			<path class="st169" d="M7,763c0.321,0.679,0.61,1.39,1,2"/>
			<path class="st46" d="M6.5,888.5c2.36-0.639,2.994-3.234,5.5-3.5"/>
			<path class="st38" d="M16.167,894.5c0.328-0.462,0.583-0.735,0.833-1"/>
			<path class="st105" d="M17,893.5c-0.074-1.014,0.084-2.552,0.5-4"/>
			<path class="st169" d="M16.5,888.5c-0.667,0.547-1.333,0.781-2,1"/>
			<path class="st159" d="M13,889c0.218-0.449,0.485-0.849,0.755-1.245c0.542-0.124,1.142-0.191,1.745-0.255"/>
			<path class="st147" d="M18.5,869.5c-0.386,3.426,0.903,6.274,1.75,9.5"/>
			<path class="st169" d="M20.25,879c3.501-2.786,8.38-7.109,13.408-5.936c-2.011,4.612-4.453,9.084-7.824,12.769"/>
			<path class="st169" d="M25.833,885.833C31.722,887.741,36.062,892.969,37,899"/>
			<path class="st93" d="M25.25,895c0.211,3.035,0.333,6.342,0.25,9.5"/>
			<path class="st107" d="M14,904c1.359,0.574,2.171,1.82,3.276,2.724c0.385,1.598,0.262,3.248-0.276,4.776"/>
			<path class="st176" d="M17,911.5c2.255,0.617,3.418-2.051,5.543-1.946c0.748,0.494,1.811,0.771,2.658,1.245
				c0.406,1.232,1.16,2.13,1.965,3.368"/>
			<path class="st68" d="M27.167,914.167c2.715-0.719,4.065-3.306,5.833-5.167"/>
			<path class="st207" d="M33,909c-0.513-0.919-1.249-2.287-1.112-3.209c0.718-0.572,1.57-0.376,2.35-0.005
				c0.146,0.837,0.434,1.548,0.762,2.214"/>
			<path class="st6" d="M35,908c1.212-0.634,2.15-0.969,3-0.75"/>
			<path class="st181" d="M38,907.25c0.278-0.139,0.556-0.277,0.833-0.417"/>
			<path class="st112" d="M38.833,906.833c2.281-2.832,6.002-4.647,8.667-7.333"/>
			<path class="st192" d="M47.5,899.5c0-0.333,0-0.667,0-1"/>
			<path class="st44" d="M47.5,898.5c-2.146-0.829-4.647-0.186-6.694-1.309c-0.195-0.799-0.66-1.344-1.109-1.916
				c-0.542-2.447,2.435-3.314,4.304-3.525"/>
			<path class="st127" d="M44,891.75c-0.277-1.121-0.465-2.631-1.309-3.47c-0.308-2.036,2.002-3.795,3.794-4.234
				c1.721,0.242,3.147,0.92,4.514,1.954"/>
			<path class="st67" d="M27.167,914.167c-0.277,2.325-1.999,3.605-4.167,4.083"/>
			<path class="st108" d="M23,918.25c1.276,2.682,2.508,6.424-1.447,7.648c-0.792-0.279-2.527-0.314-3.907-0.545
				c-0.215-0.118-0.431-0.236-0.646-0.354"/>
			<path class="st66" d="M16.5,925c0.003,0.447,0.006,0.895,0.008,1.342C18.123,930.428,23.16,930.921,27,931"/>
			<path class="st20" d="M27,931c1.288-1.128,2.85-0.96,4.5-0.5"/>
			<path class="st151" d="M31.5,930.5c0.321-1,0.61-2,1-3"/>
			<path class="st132" d="M32.5,927.5c-1.885-0.938-1.946-2.523-1.451-3.32c0.904-0.399,1.867,0.934,1.951,2.82"/>
			<path class="st136" d="M33,927c3.073,0.116,3.791-4.262,7-3.5"/>
			<path class="st137" d="M40,923.5c0.167-0.333,0.333-0.667,0.5-1"/>
			<path class="st202" d="M40.5,922.5c-1.879-1.013-2.838-2.373-3.777-3.216c-0.569-1.794,0.903-3.342,2.003-4.558
				c1.137-0.197,2.469-0.198,3.773-0.227"/>
			<path class="st208" d="M42.5,914.5c-0.037-1.37-0.064-2.73,0.319-3.682c0.792-0.204,1.336-0.67,1.906-1.122
				c2.553-0.434,3.694,2.301,4.275,4.304"/>
			<path class="st166" d="M49,914c2.035-0.282,4.225-1.257,6.213-0.207c0.325,0.338,0.69,0.639,1.057,0.937
				c0.217,1.398,0.374,3.29-0.076,4.466c-0.513,0.153-1.102,0.23-1.694,0.305"/>
			<path class="st64" d="M54.833,926.833c0.311,0.543,0.607,0.972,0.903,1.396c2.102,0.132,4.15,1.273,6.263,0.521"/>
			<path class="st213" d="M62,928.75c0.716-3.51,3.592-5.659,5-8.75"/>
			<path class="st182" d="M62,928.75c3.648-0.689,7.713-3.097,11.5-0.25"/>
			<path class="st75" d="M68.5,930.5c1.812-0.206,3.853,0.491,5.5-0.5"/>
			<path class="st51" d="M32,931c12.484,4.923,35.553,2.669,54.945,2.899c25.301,0.301,51.658-0.315,75.555-0.399"/>
			<path class="st91" d="M162.5,933.5c0.101-0.234,0.202-0.47,0.303-0.704c0.642-0.394,1.132-0.626,1.686-0.759
				c0.803,0.428,1.364,0.965,2.011,1.463"/>
			<path class="st192" d="M166.5,933.5c0.333,0,0.667,0,1,0"/>
			<path class="st112" d="M167.5,933.5c1.512-2.46,4.639-2.398,6.5-0.5"/>
			<path class="st12" d="M174,933c0.391-0.979,1.264-1.445,1.982-1.732c0.965,0.149,1.409,1.039,2.018,1.732"/>
			<path class="st9" d="M178,933c1.977-1.4,4.763-1.25,6.5,0.5"/>
			<path class="st132" d="M184.5,933.5c1.062-0.768,1.93-0.688,2.692-0.664c0.219,0.433,0.512,0.8,0.808,1.164"/>
			<path class="st160" d="M188,934c116.296-2.124,232.438-0.338,348.5-1.5"/>
			<path class="st189" d="M536.5,932.5c0.101-0.237,0.202-0.475,0.303-0.711c0.892-0.702,2.088-0.388,3.697,0.711"/>
			<line class="st111" x1="540.5" y1="932.5" x2="540.5" y2="932.5"/>
			<path class="st9" d="M540.5,932.5c1.771-1.679,4.519-1.941,6.5-0.5"/>
			<path class="st175" d="M547,932c1.154-1.697,3.372-0.522,4.5,0.5"/>
			<line class="st111" x1="551.5" y1="932.5" x2="551.5" y2="932.5"/>
			<path class="st78" d="M551.5,932.5c1.27-1.595,4.044-2.194,5.5-0.5"/>
			<path class="st39" d="M557,932c0.659-0.341,1.201-0.799,1.716-1.284c0.919-0.204,1.764-0.098,2.488,0.1
				c0.525,0.86,0.725,1.462,0.963,2.018"/>
			<path class="st19" d="M562.167,932.833c32.872,0.331,66.307,0.77,98.937-1.098c0.599-0.642,0.912-1.403,1.396-2.235"/>
			<path class="st112" d="M662.5,929.5c-0.727-0.496-1.221-0.855-1.704-1.207c-0.238-0.885,0.073-1.686,0.371-2.46"/>
			<path class="st98" d="M661.167,925.833c-0.302-0.774,0.036-1.794,0.787-2.421c0.437,0.036,0.938,0.129,1.442,0.225
				c0.201,0.121,0.402,0.242,0.604,0.363"/>
			<path class="st105" d="M664,924c0.313-0.021,0.574-0.092,0.833-0.167"/>
			<path class="st8" d="M664.833,923.833c0.126-0.465,0.461-1.327,0.947-2.095c1.07-0.351,1.667,0.718,2.72,1.762"/>
			<path class="st87" d="M668.5,923.5c0.619-0.242,1.041-0.421,1.453-0.597c1.127-2.395,0.266-5.313,0.547-7.903"/>
			<path class="st113" d="M670.5,915c-2.808,0.781-4.882-2.16-7.5-1.75"/>
			<path class="st199" d="M663,913.25c0.361,0.998,0.631,2.771,0.197,3.954c-0.873,1.622-2.918,1.84-4.411,0.997
				c-0.767-1.455-1.679-3.129-3.536-3.201"/>
			<path class="st130" d="M655.25,915c-0.324,1.738-0.294,3.584-1.04,5.214c-0.751,0.946-1.866,1.565-2.695,1.739
				c-0.973-0.117-1.925-0.932-2.781-1.688c-0.177-0.878-0.356-1.572-0.482-2.23c0.717-1.472,1.494-2.763,1.249-4.535"/>
			<line class="st28" x1="649.5" y1="913.5" x2="649.5" y2="913.5"/>
			<path class="st93" d="M649.5,913.5c-2.191,1.611-4.394,2.799-6.5,4.5"/>
			<path class="st177" d="M649.5,913.5c-1.946-1.277-5.034-1.256-5.769-4.019c0.376-2.161,2.93-2.522,4.436-3.648"/>
			<path class="st65" d="M648.167,905.833c-1.673-1.656-2.735-3.623-3.667-5.833"/>
			<path class="st94" d="M644.5,900c-1.733-0.35-3.166-1.059-4.701-1.799c-0.882-2.143-2.105-3.965-2.799-6.201"/>
			<path class="st99" d="M657.5,906c0.483-2.693,1.116-5.485,2.5-8"/>
			<path class="st127" d="M660,898c-1.233-1.729,0.507-3.504,0.796-5.204c0.897-0.77,2.094-1.239,3.704-1.296"/>
			<path class="st205" d="M664.5,891.5c0.371-0.667,0.517-1.333,1-2"/>
			<path class="st82" d="M670.5,915c1.667-0.042,3.333-0.065,5,0.5"/>
			<path class="st83" d="M677.5,911.5c-4.818-0.194-9.492-2.477-11.41-7.042c0.479-2.284,2.646-3.763,4.555-4.813
				c7.488-1.031,11.566,7.022,17.321,10.076c0.678-0.16,1.644-0.164,2.534-0.221"/>
			<path class="st159" d="M690.5,909.5c-0.029-1.029,0.229-1.771,0.5-2.5"/>
			<path class="st6" d="M691,907c-1.843-0.575-2.465-2.907-1.5-4.5"/>
			<path class="st212" d="M689.5,902.5c-3.259-2.279-7.841-9.142-3.523-12.379c2.144-0.195,3.953,1.014,5.292,2.61
				c0.676,2.827,1.792,6.548-0.769,8.769"/>
			<path class="st126" d="M690.5,902.5c1.273,0,2.391,0,3.5,0"/>
			<path class="st163" d="M694,902.5c1.209-3.835,3.399-6.958,7-8.75"/>
			<path class="st55" d="M701,893.75c1.016-3.49,4.886-5.721,4.5-9.75"/>
			<path class="st213" d="M705.5,884c-0.711,0.457-2.584,0.663-3.694-0.605c0.229-1.313,0.696-2.49,1.194-3.395"/>
			<path class="st106" d="M701,893.75c4.054-0.104,9.187,1.63,12.5-1.25"/>
			<path class="st0" d="M713.5,892.5c-1.06-0.645-1.934-0.827-2.705-1.281c-0.279-0.472-0.398-0.834-0.511-1.191
				c0.91-0.621,1.893-0.928,2.716-1.277"/>
			<path class="st70" d="M713,888.75c-0.185-1.318-1.36-2.794-0.208-4.008c1.597-0.632,2.512,1.2,3.208,2.258"/>
			<path class="st35" d="M716,887c1.34-0.771,2.398-1.921,4.002-2.137c1.66-36.604,0.643-72.863,0.831-109.696"/>
			<path class="st44" d="M720.833,775.167c-0.437-0.071-1.016-0.573-1.435-1.115c0.052-0.711,0.299-1.431,0.602-2.052"/>
			<path class="st105" d="M720,772c-0.01-0.688,0.076-1.314,0.167-1.833"/>
			<path class="st16" d="M720.167,770.167c-0.673-0.692-0.875-1.148-1.056-1.593c0.374-0.85,0.911-1.41,1.389-2.074"/>
			<path class="st28" d="M720.5,766.5c0-0.333,0-0.667,0-1"/>
			<path class="st44" d="M720.5,765.5c-1.431-0.842-1.878-1.695-2.229-2.479c0.066-0.89,1.121-1.498,2.229-2.521"/>
			<path class="st28" d="M720.5,760.5c0-0.333,0-0.667,0-1"/>
			<path class="st148" d="M720.5,759.5c-1.06-1.333-0.693-2.667,0-4"/>
			<path class="st28" d="M720.5,755.5c0-0.333,0-0.667,0-1"/>
			<path class="st85" d="M720.5,754.5c-1.533-1.315-1.632-3.845,0.5-4.5"/>
			<path class="st172" d="M721,750c0.973-186.058-0.328-373.811,0-562"/>
			<path class="st61" d="M721,188c-0.699-0.305-1.194-0.818-1.575-1.431c0.155-0.835,0.683-1.404,1.075-2.069"/>
			<path class="st194" d="M720.5,184.5c-1.728-1.671-1.84-4.348,0-6"/>
			<path class="st112" d="M720.5,169.5c-1.957-1.655-1.186-4.134,1-5"/>
			<path class="st144" d="M721.5,164.5c-1.961-24.363,1.704-48.946-1-73"/>
			<path class="st84" d="M709,65c0.121-1.601,0.743-3.175,2.5-3.5"/>
			<path class="st78" d="M711.5,61.5c1.222-2.916,3.227-5.313,5.5-7.5"/>
			<path class="st131" d="M720,43c0.458-0.955,0.81-1.772,1-2.5"/>
			<path class="st6" d="M696.5,52.5c-0.179-0.851-0.39-1.382-0.5-2"/>
			<path class="st142" d="M696,50.5c0.573-4.351,7.83-8.753,10.5-4"/>
			<path class="st126" d="M706.5,46.5c0.727,0,1.609,0,2.5,0"/>
			<path class="st205" d="M709,46.5c0.299-0.649,1.236-1.618,2-2.5"/>
			<path class="st169" d="M658.5,14.5c0.672,1.029,0.991,1.771,1.5,2.5"/>
			<path class="st31" d="M648,15c-0.432-1.683-2.537-1.266-3-3"/>
			<path class="st105" d="M625.833,11.833C625.271,11.95,624.57,11.96,624,12"/>
			<path class="st22" d="M624,12c-0.308,0.868-1.357,1.479-2.5,2.5"/>
			<path class="st33" d="M624,12c-1.165-0.501-2.952-0.381-4-1"/>
			<path class="st115" d="M559.167,6.833c-0.774,0.456-1.331,0.928-1.893,1.46c-0.909,0.192-1.366-0.294-1.774-0.793"/>
			<path class="st131" d="M33,909c0.679-0.321,1.39-0.61,2-1"/>
			<path class="st15" d="M51,886c-0.123,1.87,0.801,3.595,0.5,5.5"/>
			<path class="st139" d="M56,891.75c0.154-0.954,0.661-1.79,1.288-2.464c0.205-1.423,0.338-3.284-0.088-4.487
				c-0.573-0.798-1.438-1.273-2.167-1.533c-1.206,0.122-2.981,1.745-4.034,2.734"/>
			<path class="st178" d="M40.5,922.5c1.718-0.494,3.053-1.57,4.5-2.5"/>
			<path class="st48" d="M45,920c0-0.679,0-1.39,0-2"/>
			<path class="st97" d="M42.5,914.5c0.541,1.371,1.926,2.135,2.5,3.5"/>
			<path class="st29" d="M45,918c2.276-0.153,3.17-2.156,4-4"/>
			<path class="st200" d="M663,913.25c-0.788-0.27-1.726-1.089-2.5-1.75"/>
			<path class="st32" d="M660.5,911.5c-2.166-0.847-4.563-0.366-6.833-0.5"/>
			<path class="st109" d="M653.667,911c-0.056,0.167-0.111,0.333-0.167,0.5"/>
			<path class="st92" d="M649.5,913.5c0.941-0.513,2.735-1.375,4-2"/>
			<path class="st158" d="M653.667,911c0.11-0.988,0.323-2.122,0.5-2.833"/>
			<path class="st46" d="M654.167,908.167c-1.276-0.56-2.612-1.711-3.667-2.167"/>
			<path class="st41" d="M650.5,906c-1.039,0.01-1.695-0.076-2.333-0.167"/>
			<path class="st181" d="M705.5,884c0.232-0.19,0.49-0.591,0.75-1"/>
			<path class="st194" d="M706.25,883c-0.286-0.702-0.625-1.958-1.417-3.167"/>
			<path class="st86" d="M10,910.5c-2.238-0.165-3.113-0.324-4.244,0.282c-2.064,5.308,3.435,6.697,1.045,12.418
				c1.566,2.418,4.372,2.587,6.699,1.3"/>
			<path class="st171" d="M155.5,5.5c0.497,0.729,0.854,1.217,1.203,1.694c0.902,0.239,1.816,0.207,2.649,0.152
				c0.419-0.367,0.727-1.108,1.148-1.846"/>
			<path class="st187" d="M161.5,5.5c0.707,2.563,4.53,3.023,5.5,0.5"/>
			<path class="st130" d="M179.5,6.5c1.061,0.768,1.932,0.688,2.698,0.663c0.531-0.841,0.73-1.443,0.969-1.997"/>
			<path class="st134" d="M168,6c0.438,0.893,1.13,1.532,1.74,2.288c0.6,0.159,1.043,0.027,1.479-0.119
				c0.512-0.847,0.711-1.449,0.947-2.003"/>
			<path class="st27" d="M173.833,5.833c0.431,0.804,0.74,1.512,1.195,2.129c1.645,1.398,3.349-0.29,4.472-1.462"/>
			<path class="st130" d="M539,6c0.525,2.198,3.301,2.015,4.5,0.5"/>
			<path class="st169" d="M544.5,6.5c1.029,0.671,1.771,0.991,2.5,1.5"/>
			<path class="st131" d="M559.167,6.833c-0.16-1.81-2.452-1.181-3.667-1.333"/>
			<path class="st175" d="M561,7c0.856,0.741,1.384,0.731,1.983,0.817C563.313,7.261,563.607,6.571,564,6"/>
			<path class="st200" d="M627.833,6.833c0.774,0.909,1.233,1.965,1.917,3.167"/>
			<path class="st21" d="M630,10.167c1.051-0.462,2.057-0.851,2.75-1.167"/>
			<path class="st80" d="M32.5,18.5c0-0.333,0-0.667,0-1"/>
			<path class="st56" d="M34,12c1.086-1.615,1.69-4.403-0.637-5.314C30.282,5.934,28.313,8.71,27,11"/>
			<path class="st192" d="M652.5,13.5c1.015,0.015,1.886-0.114,2.75-0.25"/>
			<path class="st129" d="M655.25,13.25c0.16-0.839,0.305-1.695,0.5-2.5"/>
			<path class="st88" d="M49.5,7c0.011,1.795-0.7,2.398-1.231,3.265c-0.557,0.113-1.162,0.175-1.769,0.235"/>
			<path class="st192" d="M60.25,7.75C60.333,8,60.417,8.25,60.5,8.5"/>
			<path class="st122" d="M60.5,8.5c1.254,0.934,2.893,1.91,4.5,1.25"/>
			<path class="st101" d="M627,10c1.01,0,1.85,0,2.75,0"/>
			<path class="st194" d="M626.167,7.167C626.014,7.702,626.441,8.997,627,10"/>
			<path class="st25" d="M620,11c0.023-0.617-0.319-1.474-0.768-2.247c-0.881-0.232-1.725-0.126-2.438,0.063
				c-0.389,0.633-0.615,1.136-0.761,1.685C616.563,11.887,619.076,12.558,620,11"/>
			<path class="st43" d="M42,9c-1.522,0.061-2.224,0.978-3.5,2.5"/>
			<path class="st203" d="M60.5,8.5c-0.542,2.284-2.68,2.524-4.311,3.537c-0.13,0.93-0.207,2.118-0.439,2.963"/>
			<path class="st58" d="M55.75,15c0.837,1.68-1.739,2.507-1.319,4.131C55.086,19.754,55.906,20.05,57,21"/>
			<path class="st5" d="M60.5,24.5c0.477,0.843,1.006,1.779,1.612,2.404c1.677,0.448,1.211-2.325,2.806-2.499
				C66.03,24.612,66.966,25.398,68,26"/>
			<path class="st159" d="M68,26c0.351-0.649,0.382-1.618,0.5-2.5"/>
			<path class="st53" d="M630,12.25c0-0.57,0-1.322,0-2.083"/>
			<path class="st200" d="M627,10c-0.691,0.86-0.839,1.306-1.167,1.833"/>
			<path class="st169" d="M625.833,11.833c0.484,0.365,1.073,0.521,1.667,0.667"/>
			<path class="st78" d="M633,13c0.98-1.045,0.777-2.228,0.5-3.5"/>
			<path class="st78" d="M648,15c1.614,0.159,3.311-0.387,4.5-1.5"/>
			<path class="st23" d="M652.5,13.5c-0.702-2.219-2.875-2.375-4.5-3.5"/>
			<path class="st101" d="M648,10c-0.97,0-1.862,0-2.75,0"/>
			<path class="st50" d="M655.25,13.25c0.417,0.417,0.833,0.833,1.25,1.25"/>
			<path class="st192" d="M656.5,14.5c0.667,0,1.333,0,2,0"/>
			<path class="st214" d="M658.5,14.5c1.011-0.292,1.801-0.447,2.604-0.788c0.69-0.65,0.825-1.373,0.966-2.109
				c-1.205-0.607-2.944-0.475-4.569-1.103"/>
			<path class="st166" d="M32.5,18.5c1.714,0.047,2.531-0.802,4-1"/>
			<path class="st159" d="M32.5,18.5c0,0.667,0,1.333,0,2"/>
			<path class="st148" d="M41,20c1.292-1.105,3.463-1.544,3.903-3.459c-0.783-1.458-1.582-2.952-2.546-4.327"/>
			<path class="st198" d="M648,15c-0.833,1.883-3.937,1.926-3.958,4.502c0.308,0.726,0.966,1.14,1.429,1.407
				c3.008,0.087,4.948-2.323,7.529-3.243"/>
			<path class="st192" d="M653,17.667c0.394-0.091,0.943-0.13,1.5-0.167"/>
			<path class="st169" d="M654.5,17.5c0.643-1,1.22-2,2-3"/>
			<path class="st181" d="M654.5,17.5c0.5,0.25,1,0.5,1.5,0.75"/>
			<path class="st188" d="M653,17.667c-0.534,2.518-1.094,5.45,0.762,7.585c0.483,0.252,0.849,0.363,1.209,0.468
				c0.341-0.493,0.633-1.17,1.029-1.72"/>
			<path class="st44" d="M39.5,24.5c-0.667-0.12-1.333-0.552-2-1"/>
			<path class="st131" d="M713.5,33.5c0.643,0.299,1.22,1.237,2,2"/>
			<path class="st181" d="M715.5,35.5c0.333-0.167,0.667-0.333,1-0.5"/>
			<path class="st186" d="M716.5,35c0-1.321,0-2.61,0-4"/>
			<path class="st137" d="M711.75,35c0.328,0.6,0.937,1.457,1.75,2.5"/>
			<path class="st140" d="M705.833,34.5c-1.122,1.338-4.802,1.704-3.629,4.164c1.824,0.766,3.929-0.068,5.796,0.586"/>
			<path class="st41" d="M708,39.25c0.883-0.146,2.235-0.301,3.5-0.75"/>
			<path class="st103" d="M708,39.25c-0.237,0.903-0.589,1.938-0.741,2.715c1.546,1.45,2.925-1.246,4.741-0.465"/>
			<path class="st45" d="M10.5,39.5c-0.729,0.49-1.217,0.849-1.694,1.2C8.652,41.338,8.574,42.165,8.5,43"/>
			<path class="st96" d="M13.833,46.833c0.211-2.039-0.514-4.09-0.478-6.18c-0.586-0.553-1.542-0.986-2.105-1.404"/>
			<path class="st109" d="M11.25,39.25c-0.25,0.083-0.5,0.167-0.75,0.25"/>
			<path class="st126" d="M10.5,39.5c0,0.782,0,1.804,0,3"/>
			<path class="st126" d="M699.5,51.5c0.667,0,1.333,0,2,0"/>
			<path class="st169" d="M701.5,51.5c0.606-0.06,1.057-0.276,1.5-0.5"/>
			<path class="st162" d="M703,51c-0.708-0.649-1.162-1.618-1.5-2.5"/>
			<path class="st110" d="M710,51c-0.3-1.498-1.404-2.803-1-4.5"/>
			<path class="st75" d="M706.5,46.5c-0.098,1.676-1.017,3.116-1.667,4.667"/>
			<path class="st114" d="M703,59c2.956,1.787,6.8-0.793,7-4"/>
			<path class="st186" d="M710,55c-0.714-0.283-1.57-0.872-2.218-1.583c0.267-0.755,1.472-1.632,2.218-2.417"/>
			<path class="st175" d="M710,55c0.46-0.957,0.828-1.768,0.964-2.487c-0.106-0.404-0.528-0.955-0.964-1.513"/>
			<path class="st159" d="M696.5,52.5c1.491,0.158,2.496-0.17,3-1"/>
			<path class="st126" d="M699.5,51.5c-0.098-0.233-0.195-0.467-0.293-0.7c-0.774-0.201-1.999-0.234-3.207-0.3"/>
			<path class="st46" d="M696.5,52.5c-0.584,3.661,1.39,8.708,5.897,6.877c0.201-0.125,0.401-0.251,0.603-0.377"/>
			<path class="st159" d="M703,59c0.543-1.082,0.447-2.82,0.5-5"/>
			<path class="st127" d="M703.5,54c-0.525-0.121-1.178-0.443-1.746-0.768c-0.124-0.535-0.19-1.132-0.254-1.732"/>
			<path class="st3" d="M703.5,54c1.315-0.566,1.437-2.039,1.333-2.833"/>
			<path class="st105" d="M704.833,51.167C704.271,51.05,703.57,51.04,703,51"/>
			<path class="st169" d="M718,70c-0.321-0.679-0.61-1.39-1-2"/>
			<path class="st41" d="M711.5,61.5c0.49,1.413,0.389,2.582,0.25,3.5"/>
			<path class="st138" d="M711.75,65c0.09,1.751,1.123,3.274,1.25,5"/>
			<path class="st168" d="M713,70c1.965,2.686,1.289,6.156,2.786,9.071"/>
			<path class="st165" d="M715.786,79.071c0.45,0.128,0.834,0.278,1.214,0.429"/>
			<path class="st101" d="M6,62c0.333,0,0.667,0,1,0"/>
			<path class="st152" d="M5.25,68c2.402-0.618,4.006,0.83,5.423,2.355c0.94,0.155,1.408-0.344,1.827-0.855"/>
			<path class="st42" d="M18,62c-0.339-0.991-1.412-1.25-2.233-1.795C15.581,58.954,16.438,58.05,17,57"/>
			<path class="st26" d="M7,62c0.619,1.312,0.378,3.463,2.405,3.604c1.522,0.009,2.666-1.925,3.01-3.177
				C11.865,59.86,7.896,59.532,7,62"/>
			<path class="st101" d="M709,65c0.97,0,1.862,0,2.75,0"/>
			<path class="st194" d="M710.75,72c0.064-0.951,1.272-1.354,2.25-2"/>
			<path class="st125" d="M709,65c-0.044,1.86-1.469,3.186-1.743,4.972c0.091,0.461,0.306,0.869,0.526,1.274
				c0.612,0.358,1.209,0.575,1.936,0.709c0.344,0.015,0.688,0.03,1.031,0.045"/>
			<path class="st149" d="M710.75,72c1.237,3.216-1.721,6.931,0.299,9.812c0.655,0.139,1.275,0.07,1.784,0.021"/>
			<path class="st180" d="M712.833,81.833c-0.03-0.543,1.496-1.933,2.953-2.762"/>
			<path class="st12" d="M712.833,81.833c1.718,1.838-0.813,3.649-0.333,5.667"/>
			<path class="st98" d="M717,79.5c-1.503,2.322-0.463,4.991-0.25,7.5"/>
			<path class="st3" d="M5,167.25c0.211-0.132,0.423-0.263,0.634-0.395C6.117,166.108,5.782,165.123,5,164"/>
			<line class="st111" x1="720.5" y1="169.5" x2="720.5" y2="169.5"/>
			<path class="st161" d="M720.5,169.5c1.105-1.376,2.026-3.294,1-5"/>
			<path class="st101" d="M4,173c0.333,0,0.667,0,1,0"/>
			<path class="st213" d="M5,173c0.556-0.936,0.318-2.179-0.167-3.167"/>
			<path class="st121" d="M720.5,169.5c-1.48,1.342-1.549,3.677,0,5"/>
			<path class="st101" d="M4,177c0.333,0,0.667,0,1,0"/>
			<path class="st169" d="M4,173c-0.894,1.176-0.899,2.834,0,4"/>
			<path class="st66" d="M4,177c-1.028,1.394-1.033,2.939-0.5,4.5"/>
			<path class="st112" d="M720.5,184.5c1.314-1.669,1.78-4.425,0-6"/>
			<path class="st205" d="M721,188c0.58-0.6,0.752-1.025,0.905-1.443c-0.386-0.837-0.923-1.397-1.405-2.057"/>
			<line class="st111" x1="720.5" y1="184.5" x2="720.5" y2="184.5"/>
			<path class="st200" d="M720.5,754.5c0.568-0.586,1.004-1.22,1.343-1.891c-0.063-0.776-0.388-1.806-0.843-2.609"/>
			<path class="st20" d="M720.5,759.5c2.287-0.562,1.335-3.02,0-4"/>
			<path class="st169" d="M7,758c-0.449,0.218-0.849,0.484-1.246,0.754C4.948,760.411,6.225,761.701,7,763"/>
			<path class="st157" d="M720.5,765.5c2.406-0.832,1.616-3.832,0-5"/>
			<path class="st81" d="M720.167,770.167c0.608-0.093,1.513-0.971,1.755-1.637c-0.398-0.818-0.936-1.378-1.422-2.03"/>
			<path class="st117" d="M6.833,772.167c1.806-1.242,1.142-3.527-0.333-4.667"/>
			<path class="st159" d="M720.833,775.167c0.533-0.827,0.436-1.678,0.34-2.368c-0.438-0.214-0.807-0.504-1.173-0.799"/>
			<path class="st205" d="M7,778c0.575-0.604,0.749-1.028,0.903-1.444c-0.093-0.451-0.572-1.082-1.07-1.723"/>
			<path class="st131" d="M17,881.5c-0.208-0.674-0.524-1.711-1-2.5"/>
			<path class="st169" d="M17,869c-3.278,3.675-5.641,10.629-1,14"/>
			<path class="st3" d="M21.5,884.5c0.307-1.046,1.357-2.228,2.5-3.5"/>
			<path class="st122" d="M20.25,879c-0.292,1.575-0.532,3.313-1.75,4.5"/>
			<path class="st46" d="M705,875c-0.931-1.353-2.773-2.687-4.245-1.229c-0.124,0.534-0.191,1.13-0.255,1.729"/>
			<path class="st44" d="M700.5,875.5c0.413,0.413,1.035,1.035,1.667,1.667"/>
			<path class="st27" d="M707.833,878.833c0.147-0.599,0.624-1.763,1.469-2.563c0.151-0.605,0.017-1.051-0.131-1.488
				c-0.627-0.382-1.123-0.602-1.659-0.733c-0.501,0.121-1.219,0.374-1.913,0.565c-0.199,0.129-0.399,0.258-0.599,0.387"/>
			<path class="st101" d="M705,875c0,0.394,0,0.943,0,1.5"/>
			<path class="st195" d="M700.5,875.5c-1.063-0.063-1.937,0.063-2.695,0.305c-0.272,0.857-0.171,1.699,0.016,2.392
				c1.355,0.392,2.327,0.795,3.527,0.743c0.162-0.035,0.324-0.07,0.485-0.106"/>
			<path class="st65" d="M706.25,883c1.216,0.033,1.954-0.025,2.696-0.147c0.536-0.792,0.536-2.157,0.242-3.049
				c-0.467-0.237-0.912-0.601-1.355-0.971"/>
			<path class="st105" d="M707.833,878.833c-0.519,0.117-1.604,0.128-2.583,0.167"/>
			<path class="st6" d="M44,891.75c2.107-0.081,3.294,2.205,5.5,1.75"/>
			<path class="st133" d="M49.5,893.5c0.417-0.916,1.048-1.618,2-2"/>
			<path class="st181" d="M713,888.75c0.5,0.25,1,0.5,1.5,0.75"/>
			<path class="st137" d="M714.5,889.5c0.5-0.25,1-0.5,1.5-0.75"/>
			<path class="st181" d="M20.75,892c0.268,0.476,0.51,0.743,0.75,1"/>
			<path class="st3" d="M21.5,893c1.426-0.026,3.013,0.766,3.75,2"/>
			<path class="st47" d="M25.25,895c3.939,1.113,6.87,3.908,10.75,5"/>
			<path class="st3" d="M25.833,885.833c-1.629,0.596-3.243-0.074-4.333-1.333"/>
			<path class="st4" d="M21.5,889.5c2.5-0.186,4.73,0.829,6.5,2.5"/>
			<path class="st28" d="M17,893.5c0.167,0,0.333,0,0.5,0"/>
			<path class="st194" d="M17.5,893.5c1.365-0.908,2.247-1.24,3.25-1.5"/>
			<path class="st135" d="M20.75,892c0.146-0.649,0.419-1.618,0.75-2.5"/>
			<path class="st201" d="M21.5,889.5c-0.667-0.333-1.333-0.667-2-1"/>
			<path class="st192" d="M713.5,892.5c0.25-0.083,0.5-0.167,0.75-0.25"/>
			<path class="st109" d="M714.25,892.25c0.083-0.25,0.167-0.5,0.25-0.75"/>
			<path class="st111" d="M714.5,891.5c0-0.667,0-1.333,0-2"/>
			<path class="st126" d="M714.5,891.5c0.781,0,1.804,0,3,0"/>
			<path class="st105" d="M717.5,889c-0.606-0.03-1.057-0.138-1.5-0.25"/>
			<path class="st116" d="M718,894.5c1.362,0.056,2.182,0.14,3.096,0.09c0.513-0.4,0.669-0.736,0.809-1.069
				c-0.093-2.067-1.236-4.352-3.547-4.476c-0.286-0.016-0.571-0.03-0.857-0.045"/>
			<path class="st159" d="M717.5,889c0,0.94,0,1.724,0,2.5"/>
			<path class="st109" d="M689.5,902.5c0.25-0.083,0.5-0.167,0.75-0.25"/>
			<path class="st109" d="M690.25,902.25c0.083-0.25,0.167-0.5,0.25-0.75"/>
			<path class="st159" d="M690.5,901.5c-0.901-1.333-0.863-2.667-1-4"/>
			<path class="st169" d="M52,895c0.321-0.679,0.61-1.39,1-2"/>
			<path class="st126" d="M53,893c-0.292-0.708-0.838-1.162-1.5-1.5"/>
			<path class="st63" d="M644.5,900c0.367-3.61-2.308-8.02-6-8.5"/>
			<path class="st102" d="M718,894.5c-0.008-1.038-0.378-1.85-0.5-3"/>
			<path class="st30" d="M714.25,892.25c1.428,1.108-0.379,2.712,0.568,3.961c0.831,0.563,1.496,0.732,2.177,0.622
				c0.348-0.573,0.593-1.249,0.893-1.8c0.037-0.178,0.075-0.355,0.112-0.533"/>
			<path class="st159" d="M17.5,893.5c2.243,0.711,1.922,3.977,4.475,4.229c1.431-1.546-1.256-2.916-0.475-4.729"/>
			<path class="st123" d="M47.5,898.5c0.53-1.411,0.982-2.911,2.5-3.5"/>
			<path class="st159" d="M50,895c-0.273-0.394-0.391-0.943-0.5-1.5"/>
			<path class="st48" d="M52,895c-0.679,0-1.39,0-2,0"/>
			<path class="st11" d="M47.5,899.5c0.704,1.62,1.192,3.316,2.257,4.743c1.371,0.251,3.256,0.392,4.441-0.053
				c0.705-0.882,0.755-2.082,0.802-3.69"/>
			<path class="st54" d="M55,900.5c-1.552-1.588-1.215-4.054-3-5.5"/>
			<path class="st59" d="M55,900.5c1.822,0.038,3.144,0.045,4.196-0.3c0.335-0.333,0.7-0.637,1.066-0.938
				c0.643-1.831,0.902-3.693-0.052-5.478c-0.339-0.325-0.644-0.686-0.947-1.049c-1.504-0.3-2.382-0.671-3.263-0.986"/>
			<path class="st6" d="M56,891.75c-0.716,0.3-1.979,0.646-3,1.25"/>
			<path class="st24" d="M16.5,895.5c1.447,4.228,4.672,7.242,7.5,10.5"/>
			<path class="st15" d="M696.5,917.5c-1.128-0.916-1.531-2.287-0.527-3.096c1.209,0.049,1.753,1.241,2.027,2.596"/>
			<path class="st40" d="M698,917c6.62-1.369,10.855,8.99,17.238,4.238c0.669-0.979,1.282-2.197,1.497-3.203
				c-1.659-7.021-10.36-8.779-16.235-6.535"/>
			<path class="st187" d="M690.5,909.5c0.242,0.674-0.093,1.711-0.5,2.5"/>
			<path class="st159" d="M655.5,906.5c0.219-2.419-0.024-4.697-1.292-6.708c-0.835-0.221-1.528-0.401-2.175-0.54
				c-0.926,0.217-1.563,0.913-2.307,1.477c-0.128,0.568-0.166,1.178-0.2,1.788c0.556,0.659,0.854,1.859,0.974,3.483"/>
			<line class="st192" x1="692.5" y1="906.5" x2="692.5" y2="906.5"/>
			<path class="st112" d="M692.5,906.5c0.969-1.826,1.207-3.086,1.5-4"/>
			<path class="st105" d="M691,907c0.394-0.06,0.943-0.276,1.5-0.5"/>
			<path class="st61" d="M692.5,906.5c-0.743-1.333-1.033-2.667-2-4"/>
			<path class="st50" d="M690.5,902.5c-0.083-0.083-0.167-0.167-0.25-0.25"/>
			<path class="st105" d="M16,915c0.167,0,0.333,0,0.5,0"/>
			<path class="st189" d="M10,910.5c1.013,1.348,2.529,2.565,4,3.5"/>
			<path class="st131" d="M14,914c0.679,0.321,1.39,0.61,2,1"/>
			<path class="st23" d="M657.5,906c-0.667,0.06-1.333,0.276-2,0.5"/>
			<path class="st185" d="M655.5,906.5c-0.444,0.769-0.889,1.226-1.333,1.667"/>
			<path class="st190" d="M660.5,911.5c1.345-0.891,1.966-1.564,2.77-2.222c0.211-0.912,0.105-1.755-0.076-2.485
				c-0.33-0.328-0.628-0.694-0.924-1.063c-1.594-0.396-3.244-0.265-4.77,0.271"/>
			<path class="st112" d="M38,907.25c0.105,1.258,0.992,2.294,2.132,2.322c0.85-1.091-0.246-1.882-1.299-2.739"/>
			<path class="st89" d="M694,907.667c0.038,1.938,1.126,2.835,2.228,2.496c0.422-1.51-0.424-1.98-1.728-2.663"/>
			<path class="st194" d="M17,911.5c-0.342,0.182-0.437,1.822-0.5,3.5"/>
			<path class="st132" d="M16.5,915c2.472,0.498,3.978,2.775,6.5,3.25"/>
			<path class="st104" d="M655.25,915c-0.259-0.674-0.58-1.913-1.75-3.5"/>
			<path class="st196" d="M690,912c-1.047,1.576,0.228,2.54,1.236,2.156C691.532,913.065,690.625,912.629,690,912"/>
			<path class="st73" d="M48,926c0.659,0.341,1.201,0.799,1.716,1.284c1.721,0.398,3.508,0.256,5.118-0.451"/>
			<path class="st154" d="M54.833,926.833c0.357-1.954,0.293-4.132-0.833-5.833"/>
			<path class="st29" d="M14,914c-0.536,1.004-0.362,2.208,0.065,2.658c0.888-0.08,1.338-0.975,1.935-1.658"/>
			<path class="st69" d="M696.5,917.5c0.606-0.06,1.057-0.276,1.5-0.5"/>
			<path class="st57" d="M643,918c-3.729-0.73-8.221-2.592-11.591-0.041C633.034,921.941,641.134,922.249,643,918"/>
			<path class="st90" d="M40,923.5c-0.114,1.607,0.214,3.244,0.799,4.704c0.762,0.563,1.6,1.097,2.745,1.241
				c0.749-0.493,1.803-0.781,2.66-1.228c0.325-0.628,1.077-1.391,1.796-2.218"/>
			<path class="st64" d="M48,926c-0.052-1.668-0.233-3.503-1.051-4.95C46.305,920.695,45.6,920.4,45,920"/>
			<path class="st200" d="M664.833,923.833c0.938,0.788,1.737,1.119,2.667,1.667"/>
			<path class="st137" d="M667.5,925.5c0.333-0.667,0.667-1.333,1-2"/>
			<path class="st105" d="M661.167,925.833c0.562,0.117,1.263,0.128,1.833,0.167"/>
			<path class="st169" d="M663,926c0.321-0.679,0.61-1.39,1-2"/>
			<path class="st28" d="M32.5,927.5c0.167-0.167,0.333-0.333,0.5-0.5"/>
			<path class="st126" d="M664,927.5c1,0,2,0,3,0"/>
			<path class="st135" d="M667,927.5c0.06-0.667,0.276-1.333,0.5-2"/>
			<path class="st129" d="M662.5,929.5c0.333,0,0.667,0,1,0"/>
			<path class="st151" d="M663.5,929.5c0.273-0.667,0.391-1.333,0.5-2"/>
			<path class="st6" d="M664,927.5c-0.12-0.394-0.553-0.943-1-1.5"/>
			<path class="st89" d="M667.25,929c1.24,0.194,4.016-0.408,2.921-2.206c-0.776-0.142-1.743-0.687-2.671-1.294"/>
			<line class="st109" x1="667.5" y1="925.5" x2="667.5" y2="925.5"/>
			<path class="st175" d="M663.5,929.5c1.01,0.762,1.803,0.897,2.606,1.063c0.611-0.553,0.796-1.04,1.144-1.563"/>
			<path class="st105" d="M667.25,929c-0.137-0.394-0.195-0.943-0.25-1.5"/>
			<path class="st50" d="M32,931c-0.167-0.167-0.333-0.333-0.5-0.5"/>
			<path class="st153" d="M27,931c0.719,1.93,2.854,3.06,4.763,2.769c0.165-0.464,0.182-1.668,0.237-2.769"/>
			<path class="st98" d="M557,933c1.563,0.949,3.861,1.674,5.167-0.167"/>
			<path class="st14" d="M167.5,933.5c0.188,0.328,0.375,0.656,0.563,0.984c1.098,0.532,2.896,0.432,3.937,0.766"/>
			<path class="st135" d="M172,935.25c0.688-0.165,1.314-0.267,1.833-0.417"/>
			<path class="st105" d="M174,933c0.01,0.688-0.076,1.314-0.167,1.833"/>
			<path class="st159" d="M173.833,934.833c0.484,0.365,1.073,0.521,1.667,0.667"/>
			<path class="st33" d="M175.5,935.5c0.722,0.056,1.212-0.121,1.691-0.309c0.219-0.447,0.513-0.821,0.809-1.191"/>
			<path class="st131" d="M536.5,932.5c0.101,0.237,0.202,0.475,0.303,0.711c0.892,0.702,2.088,0.388,3.697-0.711"/>
			<path class="st8" d="M540.5,932.5c1.871,1.236,4.525,2.056,6.5,0.5"/>
			<path class="st101" d="M547,933c0-0.333,0-0.667,0-1"/>
			<path class="st108" d="M547,933c1.374,1.105,3.346,0.771,4.5-0.5"/>
			<path class="st91" d="M551.5,932.5c1.519,1.479,3.789,1.882,5.5,0.5"/>
			<path class="st101" d="M557,933c0-0.333,0-0.667,0-1"/>
			<path class="st6" d="M162.5,933.5c0.101,0.234,0.202,0.47,0.303,0.704c0.642,0.394,1.132,0.626,1.686,0.759
				c0.803-0.428,1.364-0.965,2.011-1.463"/>
			<path class="st141" d="M178,934c1.919,1.186,4.411,1.36,6.5,0.5"/>
			<path class="st101" d="M178,933c0,0.333,0,0.667,0,1"/>
			<path class="st28" d="M184.5,933.5c0,0.333,0,0.667,0,1"/>
			<path class="st167" d="M711,907.75c2.186,0.851,5.739,1.945,7-0.75"/>
			<path class="st88" d="M621.5,14.5c-1.063-0.063-1.937,0.063-2.695,0.305c-0.271,0.856-0.173,1.701,0.008,2.399
				c0.85,0.265,1.694,0.166,2.392-0.017C621.404,16.399,621.436,15.432,621.5,14.5"/>
			<path class="st52" d="M67,920c0.919-0.439,2.297-1.131,3.192-1.733c0.302-2.209,2.305-4.906,0.76-6.907
				c-2.392,0.091-4.211,1.294-5.242,3.351C65.062,916.676,66.528,918.198,67,920"/>
			<path class="st7" d="M660,898c1.901,0.111,2.992-1.652,4.276-2.724c0.194-1.14,0.195-2.472,0.224-3.776"/>
			<path class="st186" d="M636,14c-0.465,0.218-0.854,0.484-1.241,0.754c0.247,1.164,0.766,2.389,1.408,3.413"/>
			<path class="st124" d="M636.167,18.167c1.33-0.795,3.321,0.746,2.027,2.088C636.909,20.992,635.846,19.254,636.167,18.167"/>
			<path class="st79" d="M13.5,14.5c1,0.357,2,0.78,3,1"/>
			<path class="st36" d="M682.5,908.5c-1.9-1.291-4.16-1.596-6-3"/>
		</g>
	</g>
</g>
</svg>
