<?xml version="1.0" encoding="utf-8"?>
<!-- Generator: Adobe Illustrator 14.0.0, SVG Export Plug-In . SVG Version: 6.00 Build 43363)  -->
<!DOCTYPE svg PUBLIC "-//W3C//DTD SVG 1.1//EN" "http://www.w3.org/Graphics/SVG/1.1/DTD/svg11.dtd">
<svg version="1.1" id="Nouveau_x5F_17_xA0_Image_1_"
	 xmlns="http://www.w3.org/2000/svg" xmlns:xlink="http://www.w3.org/1999/xlink" x="0px" y="0px" width="729px" height="969px"
	 viewBox="0 0 729 969" style="enable-background:new 0 0 729 969;" xml:space="preserve">
<style type="text/css">
<![CDATA[
	.st0{fill:#000000;fill-rule:evenodd;clip-rule:evenodd;}
	.st1{fill-rule:evenodd;clip-rule:evenodd;fill:none;stroke:#000000;stroke-width:1.291;stroke-linecap:round;}
]]>
</style>
<g>
	<g>
		<path class="st0" d="M57,5c5.47,15.184-1.872,32.948-13,38c-6.674-7.331,4.828-11.583,2-23C42.892,7.451,12.851,6.911,11,23
			c-0.707,6.147-0.367,13.469,2,22c3.541,2.981,7.016-3.842,10,1c-0.288,5.222-5.194,14.009-15,13c-4.719-7.569-1.43-21.442-2-34
			C5.682,17.986,3.399,11.571,6,6C20.381,5.964,43.741,5.686,57,5z"/>
		<path class="st0" d="M723,6c-0.396,16.273,1.447,36.984-2,53c-10.564,0.897-13.541-5.792-16-13c3.509-3.295,5.398-0.451,10,0
			c2.787-11.888,5.11-28.563-3-33c-8.554-4.68-28.037-2.028-30,8c-1.922,9.821,7.722,13.313,3,21c-9.388,0.677-21.51-25.823-13-37
			C685.252,6.147,708.38,5.386,723,6z"/>
		<path class="st0" d="M62,5c194.696,0.793,393.678-1.056,590,0c4.603,0.025,12.577-2.528,16,3c-3.78,5.524-12.184,3-17,3
			c-188.83,0-383.357,0-574,0c-5.7,0-11.903,1.599-17-2C59.721,6.721,60.241,5.241,62,5z"/>
		<path class="st0" d="M26,69c4.736-1.789,14.612,4.065,16-4c-2.516-14.422-24.758-16.857-27-31c-1.788-11.277,10.229-21.694,21-19
			c8.933,2.234,6.366,17.787-3,17c-3.158-4.484,4.841-7.076,1-12c-3.458-0.792-4.222,1.112-6,2c-0.343,16.487,24.276,20.112,24,38
			c-0.17,11.049-11.565,19.263-27,13C24.873,71.206,26.224,70.891,26,69z"/>
		<path class="st0" d="M703,70c0,1,0,2,0,3c-11.434,4.842-23.967,0.461-26-8c-4.549-18.931,20.832-27.658,24-41
			c-1.129-1.872-1.183-4.817-5-4c-1.313,0.354-1.573,1.761-3,2c-0.822,4.953,5.979,6.043,3,10c-5.931,1.95-11.361-7.659-8-15
			c12.433-6.17,25.244,4.702,26,12c1.703,16.437-26.054,23.016-28,36C687.604,74.135,699.09,65.658,703,70z"/>
		<path class="st0" d="M25,899c1.333,6.262,11.44,10.082,7,16c-5.38,0.396-9.027-6.767-12-12c-3.06-5.385-4.67-12.67-8-17
			c-4.189,8.209,6.104,10.548,6,18c-13.646,4.887-11.984-6.486-12-15C5.638,691.215,7,481.531,7,280c0-64.954,3.002-128.746,0-189
			C6.425,79.459,0.193,56.967,19,65c-1.286,7.047-9.575,7.092-7,18c3.068-5.314,4.899-11.598,8-17c2.745-4.782,5.694-10.84,11-13
			c5.332,4.962-2.456,11.024-6,17c-3.484,5.874-9.457,14.178-11,20c-3.138,11.836-1,30.883-1,48c0,228.109,0,458.019,0,686
			c0,30.439-2.881,57.191,11,74l-0.5,1.5L25,899z"/>
		<path class="st0" d="M26.5,897.5L25,898c0.02-4.608,11.516-5.496,17-4c5.9,1.609,9.823,9.262,10,14
			c0.322,8.634-6.954,15.954-13,22c-5.131,5.132-17.332,12.328-7,19c8.835-2.464-2.579-7.801,1-13c14.948,5.785,8.662,23.479-8,15
			c-4.271-2.174-9.822-7.003-10-13c-0.219-7.358,6.331-11.804,13-18c3.515-3.266,14.92-10.946,14-16c-1.435-7.88-9.959-2.802-16-5
			L26.5,897.5z"/>
		<path class="st0" d="M717,83c3.035-10.383-8.256-11.725-6-18c18.229-6.882,11,23.193,11,37c0,190.436,0,381.639,0,572
			c0,70.363-2.713,140.136,0,208c0.379,9.479,5.254,28.063-11,22c-2.868-7.1,9.019-7.479,6-18c-2.199,1.603-3.662,5.188-5,8
			c-2.711,5.7-4.897,11.737-9,17c-1.352,1.733-3.083,6.258-6,4c-3.192-5.156,3.627-12.24,7-18c3.247-5.545,8.384-11.855,10-18
			c3.128-11.894,2-29.588,2-47c0-209.342,0-423.019,0-632c0-32.679,2.576-65.832,0-97c-1.01-12.218-5.642-22.784-11-32
			c-3.032-5.215-10.474-9.384-9-17c6.891-1.275,9.783,8.188,13,14C711.884,73.21,714.025,78.957,717,83z"/>
		<path class="st0" d="M687,902c0.162,1.162-0.221,1.779-1,2c2.996,13.743,33.316,20.579,27,39c-2.126,6.2-17.203,15.8-26,7
			c-1.028-7.575,2.749-14.959,8-13c3.334,4.187-5.598,8.229,0,12c3.766,0.433,4.554-2.112,6-4c-0.921-12.274-21.339-18.657-24-31
			c-3.374-15.648,8.205-23.365,26-19c0,0.667,0,1.333,0,2C701.74,904.505,688.818,894.62,687,902z"/>
		<path class="st0" d="M9,909c8.356,0.439,13.971,8.52,14,14c-2.83,3.688-4.623,0.009-9,0c-8.442,19.195-1.857,40.188,23,34
			c3.37-0.839,9.79-5.301,10-11c0.243-6.613-9.874-16.809-3-20c5.972-2.772,21.39,25.41,13,38c-17.905-1.688-35.715-1.304-51-1
			c-3.102-5.406-0.453-13.355,0-22C6.616,929.244,2.533,914.754,9,909z"/>
		<path class="st0" d="M716,924c-4.627-2.835-6.954,3.031-11-1c2.026-7.308,5.396-13.27,14-14c7.438,4.216,3.027,14.589,3,23
			c-0.034,10.364,2.995,21.747,1,30c-4.957,3.994-11.617,0.219-18,0c-10.956-0.376-22.857,2.263-34,2
			c-5.509-14.762,3.668-34.109,12-38c3.21-0.877,2.073,2.594,4,3c-1.782,7.621-6.544,11.714-5,19c2.775,13.101,26.811,11.389,34,3
			C717.388,943.693,717.743,931.243,716,924z"/>
		<path class="st0" d="M62,957c194.696,0.793,393.678-1.057,590,0c4.603,0.024,12.577-2.528,16,3c0.791,4.939-5.481,2.881-7,3
			c-20.528,1.609-44.923,0-67,0c-170.662,0.001-345.793-0.001-518,0c-3.133,0-6.928,0.221-10,0c-0.499-0.036-6.005,1.875-5-2
			C61.083,959.416,60.519,957.186,62,957z"/>
		<g>
			<path class="st1" d="M26.5,897.5c-1,0.643-2,1.22-3,2"/>
		</g>
	</g>
</g>
</svg>
