<?xml version="1.0" encoding="utf-8"?>
<!-- Generator: Adobe Illustrator 14.0.0, SVG Export Plug-In . SVG Version: 6.00 Build 43363)  -->
<!DOCTYPE svg PUBLIC "-//W3C//DTD SVG 1.1//EN" "http://www.w3.org/Graphics/SVG/1.1/DTD/svg11.dtd">
<svg version="1.1" id="Layer_1" xmlns="http://www.w3.org/2000/svg" xmlns:xlink="http://www.w3.org/1999/xlink" x="0px" y="0px"
	 width="531.714px" height="711.518px" viewBox="0 0 531.714 711.518" style="enable-background:new 0 0 531.714 711.518;"
	 xml:space="preserve">
<style type="text/css">
<![CDATA[
	.st0{fill:none;stroke:#415FA2;stroke-width:4.8;stroke-linecap:square;}
]]>
</style>
<g>
	<g>
		<g>
			<g>
				<path class="st0" d="M15.561,628.001c0,14.938-4.857,27.821-11.923,34.024c7.066,6.202,11.923,19.092,11.923,34.031"/>
			</g>
		</g>
		<g>
			<g>
				<path class="st0" d="M15.561,559.942c0,14.938-4.857,27.821-11.923,34.024c7.066,6.202,11.923,19.092,11.923,34.031"/>
			</g>
		</g>
		<g>
			<g>
				<path class="st0" d="M15.561,491.881c0,14.939-4.857,27.822-11.923,34.024c7.066,6.203,11.923,19.093,11.923,34.031"/>
			</g>
		</g>
		<g>
			<g>
				<path class="st0" d="M15.561,423.822c0,14.938-4.857,27.821-11.923,34.024c7.066,6.202,11.923,19.092,11.923,34.031"/>
			</g>
		</g>
		<g>
			<g>
				<path class="st0" d="M15.561,355.762c0,14.939-4.857,27.822-11.923,34.025c7.066,6.202,11.923,19.092,11.923,34.03"/>
			</g>
		</g>
		<g>
			<g>
				<path class="st0" d="M15.561,287.702c0,14.938-4.857,27.821-11.923,34.024c7.066,6.203,11.923,19.092,11.923,34.031"/>
			</g>
		</g>
		<g>
			<g>
				<path class="st0" d="M15.561,219.642c0,14.938-4.857,27.822-11.923,34.024c7.066,6.202,11.923,19.092,11.923,34.031"/>
			</g>
		</g>
		<g>
			<g>
				<path class="st0" d="M15.561,151.582c0,14.939-4.857,27.822-11.923,34.024c7.066,6.203,11.923,19.092,11.923,34.031"/>
			</g>
		</g>
		<g>
			<g>
				<path class="st0" d="M15.561,83.522c0,14.939-4.857,27.822-11.923,34.024c7.066,6.203,11.923,19.092,11.923,34.031"/>
			</g>
		</g>
		<g>
			<g>
				<path class="st0" d="M15.561,15.462c0,14.938-4.857,27.821-11.923,34.024c7.066,6.202,11.923,19.092,11.923,34.031"/>
			</g>
		</g>
		<g>
			<g>
				<path class="st0" d="M87.069,15.463c-15.697,0-29.234-4.857-35.751-11.923c-6.517,7.066-20.061,11.923-35.758,11.923"/>
			</g>
		</g>
		<g>
			<g>
				<path class="st0" d="M158.583,15.463c-15.697,0-29.234-4.857-35.751-11.923c-6.517,7.066-20.061,11.923-35.758,11.923"/>
			</g>
		</g>
		<g>
			<g>
				<path class="st0" d="M230.098,15.463c-15.697,0-29.234-4.857-35.751-11.923c-6.517,7.066-20.061,11.923-35.758,11.923"/>
			</g>
		</g>
		<g>
			<g>
				<path class="st0" d="M301.611,15.463c-15.696,0-29.233-4.857-35.751-11.923c-6.517,7.066-20.061,11.923-35.758,11.923"/>
			</g>
		</g>
		<g>
			<g>
				<path class="st0" d="M373.126,15.463c-15.697,0-29.233-4.857-35.751-11.923c-6.518,7.066-20.062,11.923-35.759,11.923"/>
			</g>
		</g>
		<g>
			<g>
				<path class="st0" d="M444.64,15.463c-15.696,0-29.233-4.857-35.751-11.923c-6.517,7.066-20.061,11.923-35.758,11.923"/>
			</g>
		</g>
		<g>
			<g>
				<path class="st0" d="M516.154,15.463c-15.697,0-29.233-4.857-35.751-11.923c-6.518,7.066-20.062,11.923-35.759,11.923"/>
			</g>
		</g>
		<g>
			<g>
				<path class="st0" d="M516.154,83.517c0-14.939,4.856-27.822,11.922-34.024c-7.065-6.203-11.923-19.092-11.923-34.031"/>
			</g>
		</g>
		<g>
			<g>
				<path class="st0" d="M516.154,151.577c0-14.938,4.856-27.821,11.922-34.024c-7.065-6.203-11.923-19.092-11.923-34.031"/>
			</g>
		</g>
		<g>
			<g>
				<path class="st0" d="M516.154,219.637c0-14.938,4.856-27.821,11.922-34.024c-7.065-6.202-11.923-19.092-11.923-34.031"/>
			</g>
		</g>
		<g>
			<g>
				<path class="st0" d="M516.154,287.697c0-14.938,4.856-27.822,11.922-34.024c-7.065-6.202-11.923-19.092-11.923-34.031"/>
			</g>
		</g>
		<g>
			<g>
				<path class="st0" d="M516.154,355.757c0-14.939,4.856-27.822,11.922-34.024c-7.065-6.203-11.923-19.092-11.923-34.031"/>
			</g>
		</g>
		<g>
			<g>
				<path class="st0" d="M516.154,423.817c0-14.938,4.856-27.822,11.922-34.024c-7.065-6.203-11.923-19.092-11.923-34.031"/>
			</g>
		</g>
		<g>
			<g>
				<path class="st0" d="M516.154,491.876c0-14.938,4.856-27.821,11.922-34.024c-7.065-6.202-11.923-19.092-11.923-34.031"/>
			</g>
		</g>
		<g>
			<g>
				<path class="st0" d="M516.154,559.936c0-14.938,4.856-27.821,11.922-34.024c-7.065-6.202-11.923-19.092-11.923-34.03"/>
			</g>
		</g>
		<g>
			<g>
				<path class="st0" d="M516.154,627.997c0-14.938,4.856-27.822,11.922-34.024c-7.065-6.202-11.923-19.092-11.923-34.031"/>
			</g>
		</g>
		<g>
			<g>
				<path class="st0" d="M516.154,696.056c0-14.938,4.856-27.821,11.922-34.024c-7.065-6.202-11.923-19.092-11.923-34.031"/>
			</g>
		</g>
		<g>
			<g>
				<path class="st0" d="M444.646,696.056c15.697,0,29.233,4.856,35.751,11.922c6.518-7.065,20.062-11.923,35.759-11.923"/>
			</g>
		</g>
		<g>
			<g>
				<path class="st0" d="M373.132,696.056c15.696,0,29.233,4.856,35.751,11.922c6.517-7.065,20.061-11.923,35.758-11.923"/>
			</g>
		</g>
		<g>
			<g>
				<path class="st0" d="M301.617,696.056c15.697,0,29.233,4.856,35.751,11.922c6.518-7.065,20.062-11.923,35.759-11.923"/>
			</g>
		</g>
		<g>
			<g>
				<path class="st0" d="M230.103,696.056c15.697,0,29.234,4.856,35.751,11.922c6.517-7.065,20.061-11.923,35.758-11.923"/>
			</g>
		</g>
		<g>
			<g>
				<path class="st0" d="M158.589,696.056c15.697,0,29.234,4.856,35.751,11.922c6.517-7.065,20.061-11.923,35.758-11.923"/>
			</g>
		</g>
		<g>
			<g>
				<path class="st0" d="M87.075,696.056c15.697,0,29.234,4.856,35.751,11.922c6.517-7.065,20.061-11.923,35.758-11.923"/>
			</g>
		</g>
		<g>
			<g>
				<path class="st0" d="M15.561,696.056c15.697,0,29.233,4.856,35.751,11.922c6.518-7.065,20.061-11.923,35.758-11.923"/>
			</g>
		</g>
	</g>
</g>
</svg>
