<?xml version="1.0" encoding="utf-8"?>
<!-- Generator: Adobe Illustrator 14.0.0, SVG Export Plug-In . SVG Version: 6.00 Build 43363)  -->
<!DOCTYPE svg PUBLIC "-//W3C//DTD SVG 1.1//EN" "http://www.w3.org/Graphics/SVG/1.1/DTD/svg11.dtd">
<svg version="1.1" id="Nouveau_x5F_29_xA0_Image_1_"
	 xmlns="http://www.w3.org/2000/svg" xmlns:xlink="http://www.w3.org/1999/xlink" x="0px" y="0px" width="729px" height="969px"
	 viewBox="0 0 729 969" style="enable-background:new 0 0 729 969;" xml:space="preserve">
<style type="text/css">
<![CDATA[
	.st0{fill-rule:evenodd;clip-rule:evenodd;fill:none;stroke:#000000;stroke-width:2.3549;stroke-linecap:round;}
	.st1{fill-rule:evenodd;clip-rule:evenodd;fill:none;stroke:#000000;stroke-width:2.2383;stroke-linecap:round;}
	.st2{fill-rule:evenodd;clip-rule:evenodd;fill:none;stroke:#000000;stroke-width:2.7275;stroke-linecap:round;}
	.st3{fill-rule:evenodd;clip-rule:evenodd;fill:none;stroke:#000000;stroke-width:2.925;stroke-linecap:round;}
	.st4{fill-rule:evenodd;clip-rule:evenodd;fill:none;stroke:#000000;stroke-width:2.8397;stroke-linecap:round;}
	.st5{fill-rule:evenodd;clip-rule:evenodd;fill:none;stroke:#000000;stroke-width:3.0938;stroke-linecap:round;}
	.st6{fill-rule:evenodd;clip-rule:evenodd;fill:none;stroke:#000000;stroke-width:2.9011;stroke-linecap:round;}
	.st7{fill-rule:evenodd;clip-rule:evenodd;fill:none;stroke:#000000;stroke-width:3.2891;stroke-linecap:round;}
	.st8{fill-rule:evenodd;clip-rule:evenodd;fill:none;stroke:#000000;stroke-width:3;stroke-linecap:round;}
	.st9{fill-rule:evenodd;clip-rule:evenodd;fill:none;stroke:#000000;stroke-width:2.9047;stroke-linecap:round;}
	.st10{fill-rule:evenodd;clip-rule:evenodd;fill:none;stroke:#000000;stroke-width:3.0848;stroke-linecap:round;}
	.st11{fill-rule:evenodd;clip-rule:evenodd;fill:none;stroke:#000000;stroke-width:1.5811;stroke-linecap:round;}
	.st12{fill-rule:evenodd;clip-rule:evenodd;fill:none;stroke:#000000;stroke-width:2.9409;stroke-linecap:round;}
	.st13{fill-rule:evenodd;clip-rule:evenodd;fill:none;stroke:#000000;stroke-width:3.6365;stroke-linecap:round;}
	.st14{fill-rule:evenodd;clip-rule:evenodd;fill:none;stroke:#000000;stroke-width:2.8284;stroke-linecap:round;}
	.st15{fill-rule:evenodd;clip-rule:evenodd;fill:none;stroke:#000000;stroke-width:2.6793;stroke-linecap:round;}
	.st16{fill-rule:evenodd;clip-rule:evenodd;fill:none;stroke:#000000;stroke-width:2.0465;stroke-linecap:round;}
	.st17{fill-rule:evenodd;clip-rule:evenodd;fill:none;stroke:#000000;stroke-width:3.0293;stroke-linecap:round;}
	.st18{fill-rule:evenodd;clip-rule:evenodd;fill:none;stroke:#000000;stroke-width:3.2737;stroke-linecap:round;}
	.st19{fill-rule:evenodd;clip-rule:evenodd;fill:none;stroke:#000000;stroke-width:2.9777;stroke-linecap:round;}
	.st20{fill-rule:evenodd;clip-rule:evenodd;fill:none;stroke:#000000;stroke-width:2.4924;stroke-linecap:round;}
	.st21{fill-rule:evenodd;clip-rule:evenodd;fill:none;stroke:#000000;stroke-width:2.49;stroke-linecap:round;}
	.st22{fill-rule:evenodd;clip-rule:evenodd;fill:none;stroke:#000000;stroke-width:2.2913;stroke-linecap:round;}
	.st23{fill-rule:evenodd;clip-rule:evenodd;fill:none;stroke:#000000;stroke-width:3.0847;stroke-linecap:round;}
	.st24{fill-rule:evenodd;clip-rule:evenodd;fill:none;stroke:#000000;stroke-width:2.4495;stroke-linecap:round;}
	.st25{fill-rule:evenodd;clip-rule:evenodd;fill:none;stroke:#000000;stroke-width:3.4053;stroke-linecap:round;}
	.st26{fill-rule:evenodd;clip-rule:evenodd;fill:none;stroke:#000000;stroke-width:2.6602;stroke-linecap:round;}
	.st27{fill-rule:evenodd;clip-rule:evenodd;fill:none;stroke:#000000;stroke-width:2.9506;stroke-linecap:round;}
	.st28{fill-rule:evenodd;clip-rule:evenodd;fill:none;stroke:#000000;stroke-width:2.3604;stroke-linecap:round;}
	.st29{fill:#000000;fill-rule:evenodd;clip-rule:evenodd;}
	.st30{fill-rule:evenodd;clip-rule:evenodd;fill:none;stroke:#000000;stroke-width:2.283;stroke-linecap:round;}
	.st31{fill-rule:evenodd;clip-rule:evenodd;fill:none;stroke:#000000;stroke-width:2.8406;stroke-linecap:round;}
	.st32{fill-rule:evenodd;clip-rule:evenodd;fill:none;stroke:#000000;stroke-width:2.1065;stroke-linecap:round;}
	.st33{fill-rule:evenodd;clip-rule:evenodd;fill:none;stroke:#000000;stroke-width:2.273;stroke-linecap:round;}
	.st34{fill-rule:evenodd;clip-rule:evenodd;fill:none;stroke:#000000;stroke-width:2.6992;stroke-linecap:round;}
	.st35{fill-rule:evenodd;clip-rule:evenodd;fill:none;stroke:#000000;stroke-width:2.9761;stroke-linecap:round;}
	.st36{fill-rule:evenodd;clip-rule:evenodd;fill:none;stroke:#000000;stroke-width:3.5872;stroke-linecap:round;}
	.st37{fill-rule:evenodd;clip-rule:evenodd;fill:none;stroke:#000000;stroke-width:3.0822;stroke-linecap:round;}
	.st38{fill-rule:evenodd;clip-rule:evenodd;fill:none;stroke:#000000;stroke-width:3.0414;stroke-linecap:round;}
	.st39{fill-rule:evenodd;clip-rule:evenodd;fill:none;stroke:#000000;stroke-width:3.0984;stroke-linecap:round;}
]]>
</style>
<g>
	<g>
		<path class="st29" d="M719,938c0.441-6.295-5.847-10.667-7-16c-2.915-13.48,0-33.788,0-52c0-222.635,0-448.352,0-673
			c0-34.96,2.368-69.935,0-103c-0.584-8.148-2.393-18.893-6-25c-4.219-7.143-8.118-4.709-12-12l1.786,0.357L697,56
			c2.396,4.634,6.228-1.902,9,1c11.795,18.872,10.951,50.382,11,81c4.16-9.371,1.759-23.417,1-35c-0.795-12.133-1.186-23.748-4-33
			l1.5-0.5L716,68c1.927,0.407,0.79,3.877,4,3l1.5,0.5L723,71c-0.667,288.995,1.333,580.674-1,868l-1.167-1.5L719,938z"/>
		<path class="st29" d="M691.167,44.5L690,46c-2.164-3.169-4.83-5.836-8-8l1.5-1.167L683,35c3.727-0.061,6.325,1.008,9,2
			c-0.22,3.22,1.769,4.231,1,8L691.167,44.5z"/>
		<path class="st29" d="M668.5,28.5L667,29c-1.26-2.407-2.019-5.314-4-7l1.5-1.167L664,19c6.646-0.113,12.183,5.709,6,10L668.5,28.5
			z"/>
		<path class="st29" d="M645.5,15.167L646,17c-185.342-1.664-377.662-1.667-563,0l0.5-1.833L82,14c8.356-3.644,21.765-2.235,31-5
			l1.5-1.167L114,6c166.664,0,333.337,0,500,0l-0.5,1.833L615,9c9.627,2.706,23.072,1.594,32,5L645.5,15.167z"/>
		<path class="st29" d="M63.643,20.786L65,22c-2.456,2.211-3.947,5.386-5,9l-1.5-0.5L57,31c1.53-4.264-4.59-5.986-1-9
			c2.421-1.246,4.858-2.476,8-3L63.643,20.786z"/>
		<path class="st29" d="M47.5,35.5L48,37c-3.448,2.552-6.768,5.232-10,8l-1.167-1.5L35,44c-0.58-3.247,0.681-4.652,1-7
			c3.754-1.246,7.381-2.619,12-3L47.5,35.5z"/>
		<path class="st29" d="M32.214,57.357L34,57c-2.567,6.177-8.994,5.53-12,10c-2.445,3.636-3.952,13.282-5,22
			c-2.614,21.749-2,54.486-2,79c0,234.957,0,464.684,0,700c0,18.279,2.547,37.948,0,53c-1.165,6.884-5.432,9.15-6,16l-1.833-0.5
			L6,938C3.667,650.991,5.667,359.677,5,71l1.5,0.5L8,71c3.21,0.877,2.073-2.593,4-3l0.5,1.5L14,70c-4.829,18.236-6.647,44.599-4,67
			c1.731-28.603,0.062-60.605,11-80c2.451-2.688,7.167,2.07,10-1L32.214,57.357z"/>
		<path class="st29" d="M96.5,7.833L98,9c-9.512,2.155-19.674,3.659-29,6l-0.5-1.5L67,13c0.013-1.987,2.729-1.271,2-4l1.5-1.167
			L70,6c9,0,18,0,27,0L96.5,7.833z"/>
		<path class="st29" d="M630.5,7.833L630,6c9.333,0,18.667,0,28,0l-0.5,1.833L659,9c-1.146,3.146,1.57,2.43,2,4l-1.5,0.5L660,15
			c-10.037-2.296-20.367-4.3-31-6L630.5,7.833z"/>
		<path class="st29" d="M41,15c0.877-3.21-2.593-2.073-3-4l0.5-1.5L38,8c3.584-2.071,10.753-0.457,12,3c0.163,5.163-3.979,6.021-8,7
			l0.357-1.786L41,15z"/>
		<path class="st29" d="M26.5,18.833L26,17c9.981,3.019,22.75,3.25,28,11c-0.552,4.781-5.648,5.019-11,5l0.5-1.833L42,30
			c-2.226-6.774-12.292-5.708-17-10L26.5,18.833z"/>
		<path class="st29" d="M31.167,41.5L33,41c-0.727,5.606-1.304,11.362-5,14c-8.453-2.88-9.313-13.354-12-22l1.833,0.5L19,32
			c2.658,3.342,4.501,7.499,8,10c1.313-0.354,1.573-1.761,3-2L31.167,41.5z"/>
		<path class="st29" d="M6.833,42.5L8,41c0.89,0.443,1.789,0.878,2,2c3.942,0.275,3.058-4.275,7-4c-0.431,6.902-2.279,12.387-10,12
			c-0.992-2.675-2.061-5.273-2-9L6.833,42.5z"/>
		<path class="st29" d="M16,938c-0.083-1.584,0.481-3.814-1-4c-0.333,0-0.667,0-1,0l-0.5-1.5L12,933c0.3-4.033,1.476-7.19,6-7
			c2.507,1.531,3,10.282,1,13l-1.167-1.5L16,938z"/>
		<path class="st29" d="M57.5,953.167L56,952c46.404-3.568,105.606-2,160-2c97.549,0,197.152,0,296,0c53.565,0,111.057-1.594,159,2
			l-1.5,1.167L670,955c-7.559,1.206-14.889-3.087-21,0c0.606,1.727,4.743-0.077,5,2l-1.5,1.167L653,960c-192.664,0-385.336,0-578,0
			l0.5-1.833L74,957c0.257-2.077,4.394-0.273,5-2c-6.456-3.1-14.191,1.125-22,0L57.5,953.167z"/>
		<path class="st29" d="M713.5,932.167L714,934c-1.615-0.282-1.722,0.945-3,1l-1.167-1.5L708,934c-0.069-3.402-0.312-6.978,2-8
			c3.691-0.357,4.18,2.487,5,5L713.5,932.167z"/>
		<path class="st29" d="M701.5,957.5L701,956c0.667,0,1.333,0,2,0l-0.5,2.5l2.5-0.5c0,0.333,0,0.667,0,1
			c4.51-0.156,9.681,0.348,10-4l1.833,0.5L718,954c1.27,2.397,4.384,2.949,4,7c-11.832,4.955-31.52,3-44,0l1.5-1.167L679,958
			c8.083,0.749,13.477-1.19,21-1L701.5,957.5z"/>
		<path class="st29" d="M49.5,959.833L51,961c-12.548,2.456-34.743,6.139-45-1c1.437-4.563,3.974-8.026,8-10
			c-3.714,7.113,3.341,11.037,9,8l1.5-0.5L24,956c8.39,0.943,16.084,2.583,26,2L49.5,959.833z"/>
		<path class="st29" d="M705,38c1.002-1.332,1.648-3.018,3-4l1.167,1.5L711,35c-1.741,8.259-3.991,16.009-10,20
			c-5.682-0.651-4.581-8.085-6-13l1.833,0.5L698,41c1.162-0.163,1.779,0.221,2,1c1.329-1.004,3.721-0.946,4-3l1.5,0.5L705,38z"/>
		<path class="st29" d="M721.214,42.357L723,42c-0.779,3.887-1.369,7.964-4,10c-4.821-2.179-8.263-5.737-8-13
			c3.607-0.274,2.712,3.955,6,4c1.313-0.354,1.573-1.761,3-2L721.214,42.357z"/>
		<path class="st29" d="M684.5,31.167L685,33c-5.275-0.059-9.762-0.904-12-4c4.312-8.022,15.932-8.735,26-11l-0.5,1.833L700,21
			c-2.232,2.434-6.528,2.805-10,4l-1.5-0.5L689,26c-1.464,0.87-3.17,1.497-3,4L684.5,31.167z"/>
		<path class="st29" d="M689.5,9.5L690,11c-0.805,0.529-1.623,1.043-3,1c0,1,0,2,0,3l-1.5,1.167L686,18c-5.17-0.497-8.651-2.682-8-9
			c3.344-0.039,8.104-3.829,11-1L689.5,9.5z"/>
		<g>
			<path class="st9" d="M695.786,57.357c-2.715-3.88-2.763-8.677-4.619-12.857"/>
			<path class="st15" d="M683.5,36.833c-5.298-2.053-13.171-1.887-15-8.333"/>
			<path class="st28" d="M58.5,30.5c-2.217,3.803-7.032,4.077-11,5"/>
			<path class="st17" d="M9.5,947.5c-2.237-3.354-1.831-7.227-2.333-11"/>
			<path class="st21" d="M6.5,71.5c-0.179-1-0.39-2-0.5-3"/>
			<path class="st30" d="M12.5,69.5c2.7-6.098,4.469-11.994,6.5-18"/>
			<path class="st3" d="M32.214,57.357c2.414-4.331,2.632-9.399,4.619-13.857"/>
			<path class="st12" d="M63.643,20.786c6.141-3.209,13.085-4.583,19.857-5.619"/>
			<path class="st20" d="M52,20c5.329-1.953,11.147-3.712,16.5-6.5"/>
			<path class="st5" d="M70.5,7.833c-1.333-0.3-2.667-0.288-4-0.333"/>
			<path class="st23" d="M96.5,7.833c5.933-0.528,12.071-0.563,18,0"/>
			<path class="st39" d="M657.5,7.833c1-0.234,2-0.254,3-0.333"/>
			<path class="st32" d="M676,20c-5.549-2.174-11.112-3.882-16.5-6.5"/>
			<path class="st10" d="M630.5,7.833c-5.601-0.525-11.404-0.563-17,0"/>
			<path class="st27" d="M645.5,15.167c6.455,1.124,13.137,2.432,19,5.667"/>
			<path class="st22" d="M715.5,69.5c-3.135-6.015-5.051-11.99-6.667-18.333"/>
			<path class="st21" d="M721.5,71.5c0.179-1,0.39-2,0.5-3"/>
			<path class="st9" d="M718,947.5c2.342-2.73,2.301-6.586,2.833-10"/>
			<path class="st19" d="M6.833,42.5c-0.704-6.166-0.77-15.125,5.266-18.421c3.458,1.678,4.393,6.116,5.734,9.421"/>
			<path class="st35" d="M31.167,41.5c0.52-1.996,1.581-3.772,1.395-5.918c2.335-3.804,7.442-2.536,10.938-4.416"/>
			<path class="st2" d="M26.5,18.833c-1.865-0.639-4.239-1.78-4.44-4C25.465,9.719,32.661,9.649,38.5,9.5"/>
			<path class="st38" d="M40.5,17.5c0.649-0.581,1.254-0.939,1.857-1.286"/>
			<path class="st24" d="M34,28c-1.096-0.062-2.842,0.401-4.833-0.167"/>
			<path class="st33" d="M24.5,30.5c0.328,0.188,0.656,0.375,0.984,0.563c0.654,1.282,0.866,3.185,0.016,4.437"/>
			<path class="st4" d="M699.25,954c9.787-1.078,22.191-12.573,14.25-21.833"/>
			<path class="st7" d="M710.5,940.5c-0.877-2.208-1.392-4.666-0.667-7"/>
			<path class="st11" d="M699.25,954c0.643,0.883,1.264,2.235,2.25,3.5"/>
			<path class="st26" d="M710.5,955c-2.836,0.646-5.782,1.495-8,3.5"/>
			<path class="st14" d="M716.833,955.5c-0.262-0.706-0.628-1.518-1-2.333"/>
			<path class="st25" d="M75.5,958.167c-8.627,0.892-17.56-0.348-26,1.666"/>
			<path class="st0" d="M17.5,955c2.397,0.816,5.055,0.669,7,2.5"/>
			<path class="st18" d="M57.5,953.167c-15.689,3.475-50.548,3.837-44-20.667"/>
			<path class="st37" d="M17.5,940.5c-0.02-1,0.152-2,0.333-3"/>
			<path class="st13" d="M652.5,958.167c8.944,1.131,18.13,0.015,27,1.666"/>
			<path class="st36" d="M699.25,954c-9.886,1.194-19.907,0.819-29.75-0.833"/>
			<path class="st6" d="M709.167,35.5c1.808-3.938,2.203-9.367,6.577-11.417c5.85,3.082,6.022,12.217,5.47,18.273"/>
			<path class="st8" d="M687.5,17.5c-0.667-0.587-1.333-0.965-2-1.333"/>
			<path class="st34" d="M689.5,9.5c5.686,0.232,12.778,0.483,16.418,5.249c-0.49,3.265-4.805,4.032-7.418,5.085"/>
			<path class="st1" d="M688.5,24.5c2.44,2.029,8.6,6.147,10.5,2"/>
			<path class="st31" d="M684.5,31.167c2.58,0.974,5.286,1.615,8.01,1.973c3.667,1.668,2.995,6.185,4.323,9.361"/>
			<path class="st16" d="M703.5,30.5c-0.353,0.237-0.706,0.474-1.059,0.711c-0.749,1.803-0.779,4.307,0.326,6.022
				c0.821,0.483,1.791,1.444,2.732,2.267"/>
		</g>
	</g>
</g>
</svg>
