<?xml version="1.0" encoding="utf-8"?>
<!-- Generator: Adobe Illustrator 14.0.0, SVG Export Plug-In . SVG Version: 6.00 Build 43363)  -->
<!DOCTYPE svg PUBLIC "-//W3C//DTD SVG 1.1//EN" "http://www.w3.org/Graphics/SVG/1.1/DTD/svg11.dtd">
<svg version="1.1" id="Layer_1" xmlns="http://www.w3.org/2000/svg" xmlns:xlink="http://www.w3.org/1999/xlink" x="0px" y="0px"
	 width="576.24px" height="756.983px" viewBox="0 0 576.24 756.983" style="enable-background:new 0 0 576.24 756.983;"
	 xml:space="preserve">
<style type="text/css">
<![CDATA[
	.st0{fill:#EF4123;}
	.st1{fill:none;stroke:#000000;stroke-width:4;}
	.st2{fill:#000000;stroke:#BEBEC6;stroke-width:2.8036;}
]]>
</style>
<polygon class="st2" points="123.591,2.044 94.023,32.836 64.437,2.024 73.211,2.013 94.023,23.688 114.817,2.033 "/>
<polygon class="st0" points="67.296,32.62 54.805,20.204 42.314,32.62 "/>
<polygon class="st0" points="104.223,1.349 94.023,11.972 83.612,1.129 78.559,1.094 92.768,15.893 94.023,17.2 95.279,15.893 
	109.285,1.306 "/>
<polygon class="st2" points="161.897,32.593 132.544,2.024 102.957,32.836 111.731,32.848 132.544,11.173 153.123,32.604 "/>
<polygon class="st2" points="201.015,2.044 171.448,32.836 141.862,2.024 150.635,2.013 171.448,23.688 192.241,2.033 "/>
<polygon class="st0" points="144.466,32.62 132.544,20.204 120.622,32.62 "/>
<polygon class="st0" points="181.648,1.514 171.448,12.137 161.036,1.293 155.984,1.259 170.193,16.058 171.448,17.365 
	172.703,16.058 186.71,1.471 "/>
<polygon class="st2" points="54.805,2.024 32.987,23.71 23.806,32.836 1.989,54.523 32.743,85.092 32.754,75.955 11.193,54.523 
	32.999,32.848 54.805,11.173 76.366,32.604 85.559,32.593 "/>
<polygon class="st2" points="2.009,125.83 32.987,95.039 1.989,64.226 1.977,73.364 23.783,95.039 1.998,116.693 "/>
<polygon class="st0" points="32.769,66.939 20.278,54.523 32.769,42.107 "/>
<polygon class="st0" points="2.139,105.662 12.826,95.039 1.917,84.196 1.882,78.933 16.77,93.732 18.085,95.039 16.77,96.346 
	2.095,110.932 "/>
<polygon class="st2" points="45.781,2.024 1.972,2.024 1.972,45.599 8.48,39.146 8.48,8.493 39.289,8.493 "/>
<polygon class="st0" points="31.342,16.195 16.228,16.195 16.228,31.529 12.509,35.275 12.509,14.346 12.509,12.498 14.369,12.498 
	35.122,12.498 "/>
<polygon class="st0" points="508.944,32.62 521.435,20.204 533.927,32.62 "/>
<polygon class="st2" points="521.435,2.024 543.253,23.71 552.434,32.836 574.252,54.523 543.497,85.092 543.486,75.955 
	565.048,54.523 543.241,32.848 521.435,11.173 499.874,32.604 490.681,32.593 "/>
<polygon class="st0" points="543.471,66.939 555.962,54.523 543.471,42.107 "/>
<polygon class="st2" points="530.459,2.024 574.268,2.024 574.268,45.599 567.76,39.146 567.76,8.493 536.951,8.493 "/>
<polygon class="st0" points="544.898,16.195 560.012,16.195 560.012,31.529 563.731,35.275 563.731,14.346 563.731,12.498 
	561.871,12.498 541.118,12.498 "/>
<polygon class="st0" points="67.296,724.304 54.805,736.72 42.314,724.304 "/>
<polygon class="st2" points="54.805,754.9 32.987,733.214 23.806,724.088 1.989,702.402 32.743,671.832 32.754,680.969 
	11.193,702.402 32.999,724.076 54.805,745.752 76.366,724.32 85.559,724.331 "/>
<polygon class="st0" points="32.769,689.986 20.278,702.402 32.769,714.818 "/>
<polygon class="st2" points="45.781,754.9 1.972,754.9 1.972,711.325 8.48,717.778 8.48,748.431 39.289,748.431 "/>
<polygon class="st0" points="31.342,740.729 16.228,740.729 16.228,725.395 12.509,721.649 12.509,742.578 12.509,744.426 
	14.369,744.426 35.122,744.426 "/>
<polygon class="st2" points="32.743,165.724 1.989,135.155 32.987,104.343 32.999,113.48 11.193,135.155 32.754,156.587 "/>
<polygon class="st2" points="2.009,206.463 32.987,175.671 1.989,144.859 1.977,153.996 23.783,175.671 1.998,197.325 "/>
<polygon class="st0" points="32.769,147.571 20.278,135.155 32.769,122.739 "/>
<polygon class="st0" points="2.139,186.294 12.826,175.671 1.917,164.828 1.882,159.566 16.77,174.364 18.085,175.671 
	16.77,176.978 2.095,191.565 "/>
<polygon class="st2" points="32.743,246.743 1.989,216.174 32.987,185.362 32.999,194.499 11.193,216.174 32.754,237.606 "/>
<polygon class="st2" points="2.009,287.482 32.987,256.69 1.989,225.878 1.977,235.015 23.783,256.69 1.998,278.344 "/>
<polygon class="st0" points="32.769,228.59 20.278,216.174 32.769,203.758 "/>
<polygon class="st0" points="2.139,267.313 12.826,256.69 1.917,245.847 1.882,240.584 16.77,255.383 18.085,256.69 16.77,257.997 
	2.095,272.584 "/>
<polygon class="st2" points="32.743,327.762 1.989,297.193 32.987,266.38 32.999,275.518 11.193,297.193 32.754,318.625 "/>
<polygon class="st2" points="2.009,368.5 32.987,337.709 1.989,306.896 1.977,316.033 23.783,337.709 1.998,359.363 "/>
<polygon class="st0" points="32.769,309.609 20.278,297.193 32.769,284.777 "/>
<polygon class="st0" points="2.139,348.332 12.826,337.709 1.917,326.865 1.882,321.603 16.77,336.402 18.085,337.709 
	16.77,339.015 2.095,353.602 "/>
<polygon class="st2" points="32.743,408.781 1.989,378.212 32.987,347.399 32.999,356.536 11.193,378.212 32.754,399.643 "/>
<polygon class="st2" points="2.009,449.519 32.987,418.727 1.989,387.915 1.977,397.052 23.783,418.727 1.998,440.382 "/>
<polygon class="st0" points="32.769,390.628 20.278,378.212 32.769,365.796 "/>
<polygon class="st0" points="2.139,429.35 12.826,418.727 1.917,407.885 1.882,402.622 16.77,417.421 18.085,418.727 16.77,420.034 
	2.095,434.621 "/>
<polygon class="st2" points="32.743,489.8 1.989,459.23 32.987,428.418 32.999,437.555 11.193,459.23 32.754,480.662 "/>
<polygon class="st2" points="2.009,530.538 32.987,499.746 1.989,468.934 1.977,478.071 23.783,499.746 1.998,521.401 "/>
<polygon class="st0" points="32.769,471.646 20.278,459.23 32.769,446.814 "/>
<polygon class="st0" points="2.139,510.369 12.826,499.746 1.917,488.903 1.882,483.64 16.77,498.439 18.085,499.746 16.77,501.053 
	2.095,515.64 "/>
<polygon class="st2" points="32.743,570.818 1.989,540.249 32.987,509.437 32.999,518.574 11.193,540.249 32.754,561.681 "/>
<polygon class="st2" points="2.009,611.557 32.987,580.765 1.989,549.953 1.977,559.09 23.783,580.765 1.998,602.42 "/>
<polygon class="st0" points="32.769,552.665 20.278,540.249 32.769,527.833 "/>
<polygon class="st0" points="2.139,591.388 12.826,580.765 1.917,569.922 1.882,564.659 16.77,579.458 18.085,580.765 
	16.77,582.072 2.095,596.658 "/>
<polygon class="st2" points="32.743,651.837 1.989,621.268 32.987,590.455 32.999,599.593 11.193,621.268 32.754,642.699 "/>
<polygon class="st2" points="2.009,692.575 32.987,661.784 1.989,630.971 1.977,640.109 23.783,661.784 1.998,683.438 "/>
<polygon class="st0" points="32.769,633.684 20.278,621.268 32.769,608.852 "/>
<polygon class="st0" points="2.139,672.406 12.826,661.784 1.917,650.941 1.882,645.678 16.77,660.477 18.085,661.784 
	16.77,663.091 2.095,677.677 "/>
<polygon class="st2" points="239.879,32.593 210.526,2.024 180.939,32.836 189.713,32.848 210.526,11.173 231.105,32.604 "/>
<polygon class="st2" points="278.997,2.044 249.43,32.836 219.844,2.024 228.617,2.013 249.43,23.688 270.223,2.033 "/>
<polygon class="st0" points="222.448,32.62 210.526,20.204 198.604,32.62 "/>
<polygon class="st0" points="259.631,1.514 249.43,12.137 239.018,1.293 233.966,1.259 248.175,16.058 249.43,17.365 
	250.685,16.058 264.692,1.471 "/>
<polygon class="st2" points="317.663,32.593 288.31,2.024 258.723,32.836 267.497,32.848 288.31,11.173 308.889,32.604 "/>
<polygon class="st2" points="356.781,2.044 327.214,32.836 297.628,2.024 306.402,2.013 327.214,23.688 348.008,2.033 "/>
<polygon class="st0" points="300.232,32.62 288.31,20.204 276.388,32.62 "/>
<polygon class="st0" points="337.414,1.514 327.214,12.137 316.802,1.293 311.75,1.259 325.959,16.058 327.214,17.365 
	328.469,16.058 342.476,1.471 "/>
<polygon class="st2" points="395.497,32.593 366.144,2.024 336.557,32.836 345.331,32.848 366.144,11.173 386.723,32.604 "/>
<polygon class="st2" points="434.615,2.044 405.048,32.836 375.462,2.024 384.236,2.013 405.048,23.688 425.841,2.033 "/>
<polygon class="st0" points="378.066,32.62 366.144,20.204 354.222,32.62 "/>
<polygon class="st0" points="415.248,1.514 405.048,12.137 394.636,1.293 389.583,1.259 403.793,16.058 405.048,17.365 
	406.303,16.058 420.309,1.471 "/>
<polygon class="st2" points="473.044,32.593 443.691,2.024 414.104,32.836 422.878,32.848 443.691,11.173 464.27,32.604 "/>
<polygon class="st2" points="512.162,2.044 482.595,32.836 453.009,2.024 461.782,2.013 482.595,23.688 503.388,2.033 "/>
<polygon class="st0" points="455.613,32.62 443.691,20.204 431.768,32.62 "/>
<polygon class="st0" points="492.795,1.514 482.595,12.137 472.183,1.293 467.13,1.259 481.34,16.058 482.595,17.365 483.85,16.058 
	497.856,1.471 "/>
<polygon class="st2" points="452.061,754.939 481.628,724.147 511.215,754.959 502.441,754.97 481.628,733.296 460.835,754.95 "/>
<polygon class="st0" points="508.355,724.364 520.846,736.78 533.338,724.364 "/>
<polygon class="st0" points="471.427,755.634 481.628,745.011 492.039,755.854 497.093,755.889 482.883,741.091 481.628,739.783 
	480.373,741.091 466.366,755.677 "/>
<polygon class="st2" points="413.754,724.39 443.107,754.959 472.694,724.147 463.92,724.135 443.107,745.811 422.528,724.379 "/>
<polygon class="st2" points="374.636,754.939 404.203,724.147 433.79,754.959 425.016,754.97 404.203,733.296 383.41,754.95 "/>
<polygon class="st0" points="431.185,724.364 443.107,736.78 455.03,724.364 "/>
<polygon class="st0" points="394.003,755.469 404.203,744.846 414.615,755.69 419.668,755.724 405.458,740.926 404.203,739.619 
	402.948,740.926 388.942,755.512 "/>
<polygon class="st2" points="520.846,754.959 542.664,733.273 551.845,724.147 573.663,702.461 542.908,671.891 542.897,681.029 
	564.459,702.461 542.653,724.135 520.846,745.811 499.285,724.379 490.093,724.39 "/>
<polygon class="st2" points="573.642,631.153 542.664,661.945 573.663,692.757 573.674,683.62 551.868,661.945 573.654,640.29 "/>
<polygon class="st0" points="542.882,690.045 555.373,702.461 542.882,714.877 "/>
<polygon class="st0" points="573.512,651.322 562.825,661.945 573.734,672.788 573.769,678.05 558.881,663.252 557.566,661.945 
	558.881,660.637 573.556,646.051 "/>
<polygon class="st2" points="529.87,754.959 573.68,754.959 573.68,711.384 567.172,717.837 567.172,748.49 536.362,748.49 "/>
<polygon class="st0" points="544.309,740.788 559.423,740.788 559.423,725.454 563.142,721.709 563.142,742.637 563.142,744.485 
	561.283,744.485 540.529,744.485 "/>
<polygon class="st2" points="542.908,591.259 573.663,621.828 542.664,652.64 542.653,643.503 564.459,621.828 542.897,600.396 "/>
<polygon class="st2" points="573.642,550.52 542.664,581.312 573.663,612.124 573.674,602.987 551.868,581.312 573.654,559.657 "/>
<polygon class="st0" points="542.882,609.412 555.373,621.828 542.882,634.244 "/>
<polygon class="st0" points="573.512,570.689 562.825,581.312 573.734,592.155 573.769,597.418 558.881,582.619 557.566,581.312 
	558.881,580.005 573.556,565.418 "/>
<polygon class="st2" points="542.908,510.24 573.663,540.809 542.664,571.622 542.653,562.484 564.459,540.809 542.897,519.378 "/>
<polygon class="st2" points="573.642,469.502 542.664,500.293 573.663,531.106 573.674,521.969 551.868,500.293 573.654,478.639 "/>
<polygon class="st0" points="542.882,528.393 555.373,540.809 542.882,553.225 "/>
<polygon class="st0" points="573.512,489.671 562.825,500.293 573.734,511.136 573.769,516.399 558.881,501.6 557.566,500.293 
	558.881,498.987 573.556,484.4 "/>
<polygon class="st2" points="542.908,429.221 573.663,459.791 542.664,490.603 542.653,481.466 564.459,459.791 542.897,438.359 "/>
<polygon class="st2" points="573.642,388.483 542.664,419.275 573.663,450.087 573.674,440.949 551.868,419.275 573.654,397.62 "/>
<polygon class="st0" points="542.882,447.375 555.373,459.791 542.882,472.207 "/>
<polygon class="st0" points="573.512,408.652 562.825,419.275 573.734,430.117 573.769,435.38 558.881,420.581 557.566,419.275 
	558.881,417.968 573.556,403.381 "/>
<polygon class="st2" points="542.908,348.202 573.663,378.772 542.664,409.584 542.653,400.447 564.459,378.772 542.897,357.34 "/>
<polygon class="st2" points="573.642,307.464 542.664,338.256 573.663,369.068 573.674,359.931 551.868,338.256 573.654,316.601 "/>
<polygon class="st0" points="542.882,366.356 555.373,378.772 542.882,391.188 "/>
<polygon class="st0" points="573.512,327.633 562.825,338.256 573.734,349.099 573.769,354.361 558.881,339.563 557.566,338.256 
	558.881,336.949 573.556,322.362 "/>
<polygon class="st2" points="542.908,267.184 573.663,297.753 542.664,328.565 542.653,319.428 564.459,297.753 542.897,276.321 "/>
<polygon class="st2" points="573.642,226.445 542.664,257.237 573.663,288.05 573.674,278.912 551.868,257.237 573.654,235.583 "/>
<polygon class="st0" points="542.882,285.337 555.373,297.753 542.882,310.169 "/>
<polygon class="st0" points="573.512,246.614 562.825,257.237 573.734,268.08 573.769,273.343 558.881,258.544 557.566,257.237 
	558.881,255.93 573.556,241.344 "/>
<polygon class="st2" points="542.908,186.165 573.663,216.734 542.664,247.547 542.653,238.409 564.459,216.734 542.897,195.302 "/>
<polygon class="st2" points="573.642,145.427 542.664,176.219 573.663,207.031 573.674,197.893 551.868,176.219 573.654,154.564 "/>
<polygon class="st0" points="542.882,204.318 555.373,216.734 542.882,229.15 "/>
<polygon class="st0" points="573.512,165.595 562.825,176.219 573.734,187.061 573.769,192.324 558.881,177.525 557.566,176.219 
	558.881,174.911 573.556,160.324 "/>
<polygon class="st2" points="542.908,105.146 573.663,135.716 542.664,166.528 542.653,157.39 564.459,135.716 542.897,114.284 "/>
<polygon class="st2" points="573.642,64.408 542.664,95.199 573.663,126.012 573.674,116.875 551.868,95.199 573.654,73.545 "/>
<polygon class="st0" points="542.882,123.3 555.373,135.716 542.882,148.132 "/>
<polygon class="st0" points="573.512,84.577 562.825,95.199 573.734,106.043 573.769,111.305 558.881,96.506 557.566,95.199 
	558.881,93.893 573.556,79.306 "/>
<polygon class="st2" points="335.772,724.39 365.125,754.959 394.712,724.147 385.938,724.135 365.125,745.811 344.546,724.379 "/>
<polygon class="st2" points="296.654,754.939 326.221,724.147 355.807,754.959 347.034,754.97 326.221,733.296 305.428,754.95 "/>
<polygon class="st0" points="353.203,724.364 365.125,736.78 377.048,724.364 "/>
<polygon class="st0" points="316.021,755.469 326.221,744.846 336.633,755.69 341.686,755.724 327.476,740.926 326.221,739.619 
	324.966,740.926 310.96,755.512 "/>
<polygon class="st2" points="257.988,724.39 287.341,754.959 316.927,724.147 308.154,724.135 287.341,745.811 266.762,724.379 "/>
<polygon class="st2" points="218.87,754.939 248.437,724.147 278.024,754.959 269.25,754.97 248.437,733.296 227.644,754.95 "/>
<polygon class="st0" points="275.419,724.364 287.341,736.78 299.263,724.364 "/>
<polygon class="st0" points="238.237,755.469 248.437,744.846 258.848,755.69 263.902,755.724 249.692,740.926 248.437,739.619 
	247.182,740.926 233.176,755.512 "/>
<polygon class="st2" points="180.154,724.39 209.508,754.959 239.094,724.147 230.32,724.135 209.508,745.811 188.928,724.379 "/>
<polygon class="st2" points="141.036,754.939 170.603,724.147 200.19,754.959 191.416,754.97 170.603,733.296 149.81,754.95 "/>
<polygon class="st0" points="197.585,724.364 209.508,736.78 221.429,724.364 "/>
<polygon class="st0" points="160.403,755.469 170.603,744.846 181.015,755.69 186.068,755.724 171.858,740.926 170.603,739.619 
	169.348,740.926 155.342,755.512 "/>
<polygon class="st2" points="102.608,724.39 131.961,754.959 161.547,724.147 152.773,724.135 131.961,745.811 111.381,724.379 "/>
<polygon class="st2" points="63.49,754.939 93.056,724.147 122.643,754.959 113.869,754.97 93.056,733.296 72.263,754.95 "/>
<polygon class="st0" points="120.038,724.364 131.961,736.78 143.883,724.364 "/>
<polygon class="st0" points="82.856,755.469 93.056,744.846 103.468,755.69 108.521,755.724 94.311,740.926 93.056,739.619 
	91.802,740.926 77.795,755.512 "/>
<rect x="40.373" y="40.195" class="st1" width="495.003" height="676.668"/>
</svg>
