<?xml version="1.0" encoding="utf-8"?>
<!-- Generator: Adobe Illustrator 14.0.0, SVG Export Plug-In . SVG Version: 6.00 Build 43363)  -->
<!DOCTYPE svg PUBLIC "-//W3C//DTD SVG 1.1//EN" "http://www.w3.org/Graphics/SVG/1.1/DTD/svg11.dtd">
<svg version="1.1" id="Layer_1" xmlns="http://www.w3.org/2000/svg" xmlns:xlink="http://www.w3.org/1999/xlink" x="0px" y="0px"
	 width="538.867px" height="718.867px" viewBox="0 0 538.867 718.867" style="enable-background:new 0 0 538.867 718.867;"
	 xml:space="preserve">
<style type="text/css">
<![CDATA[
	.st0{fill:#835241;}
	.st1{fill:#FAA74A;}
	.st2{fill:#DF6D35;}
]]>
</style>
<g>
	<g>
		<g>
			<rect x="0.003" y="665.281" class="st0" width="25.862" height="25.938"/>
			<g>
				<rect x="17.677" y="666.983" class="st2" width="6.49" height="6.513"/>
				<polygon class="st1" points="8.194,689.515 8.194,683.005 1.702,683.005 1.702,666.983 24.167,689.515 				"/>
			</g>
		</g>
		<g>
			<rect x="0.003" y="637.558" class="st0" width="25.862" height="25.939"/>
			<g>
				<rect x="17.677" y="639.261" class="st2" width="6.49" height="6.512"/>
				<polygon class="st1" points="8.194,661.792 8.194,655.281 1.702,655.281 1.702,639.261 24.167,661.792 				"/>
			</g>
		</g>
		<g>
			<rect x="0.003" y="609.835" class="st0" width="25.862" height="25.938"/>
			<g>
				<rect x="17.677" y="611.537" class="st2" width="6.49" height="6.513"/>
				<polygon class="st1" points="8.194,634.068 8.194,627.558 1.702,627.558 1.702,611.537 24.167,634.068 				"/>
			</g>
		</g>
		<g>
			<rect x="0.003" y="582.111" class="st0" width="25.862" height="25.939"/>
			<g>
				<rect x="17.677" y="583.813" class="st2" width="6.49" height="6.513"/>
				<polygon class="st1" points="8.194,606.346 8.194,599.835 1.702,599.835 1.702,583.813 24.167,606.346 				"/>
			</g>
		</g>
		<g>
			<rect x="0.003" y="554.389" class="st0" width="25.862" height="25.938"/>
			<g>
				<rect x="17.677" y="556.091" class="st2" width="6.49" height="6.513"/>
				<polygon class="st1" points="8.194,578.622 8.194,572.111 1.702,572.111 1.702,556.091 24.167,578.622 				"/>
			</g>
		</g>
		<g>
			<rect x="0.003" y="526.665" class="st0" width="25.862" height="25.938"/>
			<g>
				<rect x="17.677" y="528.367" class="st2" width="6.49" height="6.513"/>
				<polygon class="st1" points="8.194,550.898 8.194,544.389 1.702,544.389 1.702,528.367 24.167,550.898 				"/>
			</g>
		</g>
		<g>
			<rect x="0.003" y="498.942" class="st0" width="25.862" height="25.938"/>
			<g>
				<rect x="17.677" y="500.645" class="st2" width="6.49" height="6.512"/>
				<polygon class="st1" points="8.194,523.176 8.194,516.665 1.702,516.665 1.702,500.645 24.167,523.176 				"/>
			</g>
		</g>
		<g>
			<rect x="0.003" y="471.219" class="st0" width="25.862" height="25.938"/>
			<g>
				<rect x="17.677" y="472.921" class="st2" width="6.49" height="6.513"/>
				<polygon class="st1" points="8.194,495.452 8.194,488.941 1.702,488.941 1.702,472.921 24.167,495.452 				"/>
			</g>
		</g>
		<g>
			<rect x="0.003" y="443.495" class="st0" width="25.862" height="25.939"/>
			<g>
				<rect x="17.677" y="445.197" class="st2" width="6.49" height="6.513"/>
				<polygon class="st1" points="8.194,467.729 8.194,461.219 1.702,461.219 1.702,445.197 24.167,467.729 				"/>
			</g>
		</g>
		<g>
			<rect x="0.003" y="415.772" class="st0" width="25.862" height="25.938"/>
			<g>
				<rect x="17.677" y="417.475" class="st2" width="6.49" height="6.513"/>
				<polygon class="st1" points="8.194,440.006 8.194,433.495 1.702,433.495 1.702,417.475 24.167,440.006 				"/>
			</g>
		</g>
		<g>
			<rect x="0.003" y="388.049" class="st0" width="25.862" height="25.939"/>
			<g>
				<rect x="17.677" y="389.751" class="st2" width="6.49" height="6.513"/>
				<polygon class="st1" points="8.194,412.282 8.194,405.772 1.702,405.772 1.702,389.751 24.167,412.282 				"/>
			</g>
		</g>
		<g>
			<rect x="0.003" y="360.326" class="st0" width="25.862" height="25.939"/>
			<g>
				<rect x="17.677" y="362.028" class="st2" width="6.49" height="6.512"/>
				<polygon class="st1" points="8.194,384.56 8.194,378.049 1.702,378.049 1.702,362.028 24.167,384.56 				"/>
			</g>
		</g>
		<g>
			<rect x="0.003" y="332.603" class="st0" width="25.862" height="25.939"/>
			<g>
				<rect x="17.677" y="334.305" class="st2" width="6.49" height="6.513"/>
				<polygon class="st1" points="8.194,356.836 8.194,350.326 1.702,350.326 1.702,334.305 24.167,356.836 				"/>
			</g>
		</g>
		<g>
			<rect x="0.003" y="304.879" class="st0" width="25.862" height="25.939"/>
			<g>
				<rect x="17.677" y="306.582" class="st2" width="6.49" height="6.513"/>
				<polygon class="st1" points="8.194,329.113 8.194,322.603 1.702,322.603 1.702,306.582 24.167,329.113 				"/>
			</g>
		</g>
		<g>
			<rect x="0.003" y="277.156" class="st0" width="25.862" height="25.938"/>
			<g>
				<rect x="17.677" y="278.858" class="st2" width="6.49" height="6.512"/>
				<polygon class="st1" points="8.194,301.39 8.194,294.879 1.702,294.879 1.702,278.858 24.167,301.39 				"/>
			</g>
		</g>
		<g>
			<rect x="0.003" y="249.433" class="st0" width="25.862" height="25.938"/>
			<g>
				<rect x="17.677" y="251.135" class="st2" width="6.49" height="6.512"/>
				<polygon class="st1" points="8.194,273.667 8.194,267.156 1.702,267.156 1.702,251.135 24.167,273.667 				"/>
			</g>
		</g>
		<g>
			<rect x="0.003" y="221.709" class="st0" width="25.862" height="25.939"/>
			<g>
				<rect x="17.677" y="223.412" class="st2" width="6.49" height="6.512"/>
				<polygon class="st1" points="8.194,245.943 8.194,239.433 1.702,239.433 1.702,223.412 24.167,245.943 				"/>
			</g>
		</g>
		<g>
			<rect x="0.003" y="193.986" class="st0" width="25.862" height="25.939"/>
			<g>
				<rect x="17.677" y="195.688" class="st2" width="6.49" height="6.513"/>
				<polygon class="st1" points="8.194,218.22 8.194,211.709 1.702,211.709 1.702,195.688 24.167,218.22 				"/>
			</g>
		</g>
		<g>
			<rect x="0.003" y="166.263" class="st0" width="25.862" height="25.939"/>
			<g>
				<rect x="17.677" y="167.965" class="st2" width="6.49" height="6.513"/>
				<polygon class="st1" points="8.194,190.497 8.194,183.986 1.702,183.986 1.702,167.965 24.167,190.497 				"/>
			</g>
		</g>
		<g>
			<rect x="0.003" y="138.54" class="st0" width="25.862" height="25.938"/>
			<g>
				<rect x="17.677" y="140.242" class="st2" width="6.49" height="6.513"/>
				<polygon class="st1" points="8.194,162.773 8.194,156.263 1.702,156.263 1.702,140.242 24.167,162.773 				"/>
			</g>
		</g>
		<g>
			<rect x="0.003" y="110.817" class="st0" width="25.862" height="25.938"/>
			<g>
				<rect x="17.677" y="112.519" class="st2" width="6.49" height="6.512"/>
				<polygon class="st1" points="8.194,135.05 8.194,128.54 1.702,128.54 1.702,112.519 24.167,135.05 				"/>
			</g>
		</g>
		<g>
			<rect x="0.003" y="83.094" class="st0" width="25.862" height="25.938"/>
			<g>
				<rect x="17.677" y="84.796" class="st2" width="6.49" height="6.512"/>
				<polygon class="st1" points="8.194,107.327 8.194,100.817 1.702,100.817 1.702,84.796 24.167,107.327 				"/>
			</g>
		</g>
		<g>
			<rect x="0.003" y="55.37" class="st0" width="25.862" height="25.939"/>
			<g>
				<rect x="17.677" y="57.072" class="st2" width="6.49" height="6.513"/>
				<polygon class="st1" points="8.194,79.604 8.194,73.093 1.702,73.093 1.702,57.072 24.167,79.604 				"/>
			</g>
		</g>
		<g>
			<rect x="0.003" y="27.647" class="st0" width="25.862" height="25.939"/>
			<g>
				<rect x="17.677" y="29.349" class="st2" width="6.49" height="6.513"/>
				<polygon class="st1" points="8.194,51.881 8.194,45.37 1.702,45.37 1.702,29.349 24.167,51.881 				"/>
			</g>
		</g>
		<g>
			<rect x="27.623" y="0.003" class="st0" width="25.229" height="25.862"/>
			<g>
				<rect x="44.862" y="17.677" class="st2" width="6.334" height="6.49"/>
				<polygon class="st1" points="29.281,8.194 35.613,8.194 35.613,1.702 51.196,1.702 29.281,24.167 				"/>
			</g>
		</g>
		<g>
			<rect x="54.587" y="0.003" class="st0" width="25.229" height="25.862"/>
			<g>
				<rect x="71.826" y="17.677" class="st2" width="6.334" height="6.49"/>
				<polygon class="st1" points="56.246,8.194 62.578,8.194 62.578,1.702 78.16,1.702 56.246,24.167 				"/>
			</g>
		</g>
		<g>
			<rect x="81.551" y="0.003" class="st0" width="25.229" height="25.862"/>
			<g>
				<rect x="98.79" y="17.677" class="st2" width="6.334" height="6.49"/>
				<polygon class="st1" points="83.21,8.194 89.542,8.194 89.542,1.702 105.125,1.702 83.21,24.167 				"/>
			</g>
		</g>
		<g>
			<rect x="108.516" y="0.003" class="st0" width="25.229" height="25.862"/>
			<g>
				<rect x="125.754" y="17.677" class="st2" width="6.334" height="6.49"/>
				<polygon class="st1" points="110.174,8.194 116.506,8.194 116.506,1.702 132.089,1.702 110.174,24.167 				"/>
			</g>
		</g>
		<g>
			<rect x="135.48" y="0.003" class="st0" width="25.229" height="25.862"/>
			<g>
				<rect x="152.719" y="17.677" class="st2" width="6.334" height="6.49"/>
				<polygon class="st1" points="137.138,8.194 143.471,8.194 143.471,1.702 159.053,1.702 137.138,24.167 				"/>
			</g>
		</g>
		<g>
			<rect x="162.444" y="0.003" class="st0" width="25.229" height="25.862"/>
			<g>
				<rect x="179.683" y="17.677" class="st2" width="6.334" height="6.49"/>
				<polygon class="st1" points="164.103,8.194 170.435,8.194 170.435,1.702 186.017,1.702 164.103,24.167 				"/>
			</g>
		</g>
		<g>
			<rect x="189.409" y="0.003" class="st0" width="25.229" height="25.862"/>
			<g>
				<rect x="206.647" y="17.677" class="st2" width="6.334" height="6.49"/>
				<polygon class="st1" points="191.067,8.194 197.399,8.194 197.399,1.702 212.981,1.702 191.067,24.167 				"/>
			</g>
		</g>
		<g>
			<rect x="216.373" y="0.003" class="st0" width="25.229" height="25.862"/>
			<g>
				<rect x="233.612" y="17.677" class="st2" width="6.334" height="6.49"/>
				<polygon class="st1" points="218.031,8.194 224.364,8.194 224.364,1.702 239.946,1.702 218.031,24.167 				"/>
			</g>
		</g>
		<g>
			<rect x="243.337" y="0.003" class="st0" width="25.229" height="25.862"/>
			<g>
				<rect x="260.576" y="17.677" class="st2" width="6.334" height="6.49"/>
				<polygon class="st1" points="244.996,8.194 251.328,8.194 251.328,1.702 266.91,1.702 244.996,24.167 				"/>
			</g>
		</g>
		<g>
			<rect x="270.301" y="0.003" class="st0" width="25.229" height="25.862"/>
			<g>
				<rect x="287.54" y="17.677" class="st2" width="6.335" height="6.49"/>
				<polygon class="st1" points="271.96,8.194 278.292,8.194 278.292,1.702 293.875,1.702 271.96,24.167 				"/>
			</g>
		</g>
		<g>
			<rect x="297.266" y="0.003" class="st0" width="25.229" height="25.862"/>
			<g>
				<rect x="314.505" y="17.677" class="st2" width="6.334" height="6.49"/>
				<polygon class="st1" points="298.924,8.194 305.257,8.194 305.257,1.702 320.839,1.702 298.924,24.167 				"/>
			</g>
		</g>
		<g>
			<rect x="324.23" y="0.003" class="st0" width="25.229" height="25.862"/>
			<g>
				<rect x="341.469" y="17.677" class="st2" width="6.334" height="6.49"/>
				<polygon class="st1" points="325.889,8.194 332.221,8.194 332.221,1.702 347.803,1.702 325.889,24.167 				"/>
			</g>
		</g>
		<g>
			<rect x="351.194" y="0.003" class="st0" width="25.229" height="25.862"/>
			<g>
				<rect x="368.434" y="17.677" class="st2" width="6.334" height="6.49"/>
				<polygon class="st1" points="352.853,8.194 359.186,8.194 359.186,1.702 374.768,1.702 352.853,24.167 				"/>
			</g>
		</g>
		<g>
			<rect x="378.158" y="0.003" class="st0" width="25.229" height="25.862"/>
			<g>
				<rect x="395.397" y="17.677" class="st2" width="6.334" height="6.49"/>
				<polygon class="st1" points="379.817,8.194 386.149,8.194 386.149,1.702 401.731,1.702 379.817,24.167 				"/>
			</g>
		</g>
		<g>
			<rect x="405.123" y="0.003" class="st0" width="25.229" height="25.862"/>
			<g>
				<rect x="422.361" y="17.677" class="st2" width="6.335" height="6.49"/>
				<polygon class="st1" points="406.781,8.194 413.113,8.194 413.113,1.702 428.696,1.702 406.781,24.167 				"/>
			</g>
		</g>
		<g>
			<rect x="432.087" y="0.003" class="st0" width="25.229" height="25.862"/>
			<g>
				<rect x="449.326" y="17.677" class="st2" width="6.334" height="6.49"/>
				<polygon class="st1" points="433.746,8.194 440.078,8.194 440.078,1.702 455.66,1.702 433.746,24.167 				"/>
			</g>
		</g>
		<g>
			<rect x="459.052" y="0.003" class="st0" width="25.229" height="25.862"/>
			<g>
				<rect x="476.29" y="17.677" class="st2" width="6.335" height="6.49"/>
				<polygon class="st1" points="460.71,8.194 467.042,8.194 467.042,1.702 482.625,1.702 460.71,24.167 				"/>
			</g>
		</g>
		<g>
			<rect x="486.016" y="0.003" class="st0" width="25.229" height="25.862"/>
			<g>
				<rect x="503.255" y="17.677" class="st2" width="6.334" height="6.49"/>
				<polygon class="st1" points="487.674,8.194 494.007,8.194 494.007,1.702 509.589,1.702 487.674,24.167 				"/>
			</g>
		</g>
		<g>
			<rect x="513.002" y="27.647" class="st0" width="25.862" height="25.939"/>
			<g>
				<rect x="514.7" y="45.371" class="st2" width="6.49" height="6.513"/>
				<polygon class="st1" points="530.673,29.352 530.673,35.863 537.165,35.863 537.165,51.884 514.7,29.352 				"/>
			</g>
		</g>
		<g>
			<rect x="513.002" y="55.37" class="st0" width="25.862" height="25.939"/>
			<g>
				<rect x="514.7" y="73.094" class="st2" width="6.49" height="6.513"/>
				<polygon class="st1" points="530.673,57.075 530.673,63.586 537.165,63.586 537.165,79.607 514.7,57.075 				"/>
			</g>
		</g>
		<g>
			<rect x="513.002" y="83.094" class="st0" width="25.862" height="25.938"/>
			<g>
				<rect x="514.7" y="100.818" class="st2" width="6.49" height="6.512"/>
				<polygon class="st1" points="530.673,84.799 530.673,91.309 537.165,91.309 537.165,107.33 514.7,84.799 				"/>
			</g>
		</g>
		<g>
			<rect x="513.002" y="110.817" class="st0" width="25.862" height="25.938"/>
			<g>
				<rect x="514.7" y="128.541" class="st2" width="6.49" height="6.512"/>
				<polygon class="st1" points="530.673,112.522 530.673,119.032 537.165,119.032 537.165,135.053 514.7,112.522 				"/>
			</g>
		</g>
		<g>
			<rect x="513.002" y="138.54" class="st0" width="25.862" height="25.938"/>
			<g>
				<rect x="514.7" y="156.264" class="st2" width="6.49" height="6.512"/>
				<polygon class="st1" points="530.673,140.245 530.673,146.756 537.165,146.756 537.165,162.776 514.7,140.245 				"/>
			</g>
		</g>
		<g>
			<rect x="513.002" y="166.263" class="st0" width="25.862" height="25.939"/>
			<g>
				<rect x="514.7" y="183.987" class="st2" width="6.49" height="6.513"/>
				<polygon class="st1" points="530.673,167.968 530.673,174.479 537.165,174.479 537.165,190.5 514.7,167.968 				"/>
			</g>
		</g>
		<g>
			<rect x="513.002" y="193.986" class="st0" width="25.862" height="25.939"/>
			<g>
				<rect x="514.7" y="211.71" class="st2" width="6.49" height="6.513"/>
				<polygon class="st1" points="530.673,195.691 530.673,202.202 537.165,202.202 537.165,218.223 514.7,195.691 				"/>
			</g>
		</g>
		<g>
			<rect x="513.002" y="221.709" class="st0" width="25.862" height="25.939"/>
			<g>
				<rect x="514.7" y="239.434" class="st2" width="6.49" height="6.513"/>
				<polygon class="st1" points="530.673,223.415 530.673,229.925 537.165,229.925 537.165,245.946 514.7,223.415 				"/>
			</g>
		</g>
		<g>
			<rect x="513.002" y="249.433" class="st0" width="25.862" height="25.938"/>
			<g>
				<rect x="514.7" y="267.157" class="st2" width="6.49" height="6.512"/>
				<polygon class="st1" points="530.673,251.138 530.673,257.648 537.165,257.648 537.165,273.669 514.7,251.138 				"/>
			</g>
		</g>
		<g>
			<rect x="513.002" y="277.156" class="st0" width="25.862" height="25.938"/>
			<g>
				<rect x="514.7" y="294.88" class="st2" width="6.49" height="6.512"/>
				<polygon class="st1" points="530.673,278.861 530.673,285.372 537.165,285.372 537.165,301.393 514.7,278.861 				"/>
			</g>
		</g>
		<g>
			<rect x="513.002" y="304.879" class="st0" width="25.862" height="25.939"/>
			<g>
				<rect x="514.7" y="322.604" class="st2" width="6.49" height="6.513"/>
				<polygon class="st1" points="530.673,306.584 530.673,313.095 537.165,313.095 537.165,329.116 514.7,306.584 				"/>
			</g>
		</g>
		<g>
			<rect x="513.002" y="332.603" class="st0" width="25.862" height="25.939"/>
			<g>
				<rect x="514.7" y="350.327" class="st2" width="6.49" height="6.513"/>
				<polygon class="st1" points="530.673,334.308 530.673,340.818 537.165,340.818 537.165,356.839 514.7,334.308 				"/>
			</g>
		</g>
		<g>
			<rect x="513.002" y="360.326" class="st0" width="25.862" height="25.939"/>
			<g>
				<rect x="514.7" y="378.05" class="st2" width="6.49" height="6.513"/>
				<polygon class="st1" points="530.673,362.031 530.673,368.541 537.165,368.541 537.165,384.563 514.7,362.031 				"/>
			</g>
		</g>
		<g>
			<rect x="513.002" y="388.049" class="st0" width="25.862" height="25.939"/>
			<g>
				<rect x="514.7" y="405.773" class="st2" width="6.49" height="6.512"/>
				<polygon class="st1" points="530.673,389.754 530.673,396.265 537.165,396.265 537.165,412.285 514.7,389.754 				"/>
			</g>
		</g>
		<g>
			<rect x="513.002" y="415.772" class="st0" width="25.862" height="25.938"/>
			<g>
				<rect x="514.7" y="433.496" class="st2" width="6.49" height="6.513"/>
				<polygon class="st1" points="530.673,417.478 530.673,423.988 537.165,423.988 537.165,440.009 514.7,417.478 				"/>
			</g>
		</g>
		<g>
			<rect x="513.002" y="443.495" class="st0" width="25.862" height="25.939"/>
			<g>
				<rect x="514.7" y="461.22" class="st2" width="6.49" height="6.513"/>
				<polygon class="st1" points="530.673,445.2 530.673,451.711 537.165,451.711 537.165,467.732 514.7,445.2 				"/>
			</g>
		</g>
		<g>
			<rect x="513.002" y="471.219" class="st0" width="25.862" height="25.938"/>
			<g>
				<rect x="514.7" y="488.942" class="st2" width="6.49" height="6.513"/>
				<polygon class="st1" points="530.673,472.924 530.673,479.435 537.165,479.435 537.165,495.455 514.7,472.924 				"/>
			</g>
		</g>
		<g>
			<rect x="513.002" y="498.942" class="st0" width="25.862" height="25.938"/>
			<g>
				<rect x="514.7" y="516.666" class="st2" width="6.49" height="6.513"/>
				<polygon class="st1" points="530.673,500.647 530.673,507.157 537.165,507.157 537.165,523.179 514.7,500.647 				"/>
			</g>
		</g>
		<g>
			<rect x="513.002" y="526.665" class="st0" width="25.862" height="25.938"/>
			<g>
				<rect x="514.7" y="544.39" class="st2" width="6.49" height="6.512"/>
				<polygon class="st1" points="530.673,528.37 530.673,534.881 537.165,534.881 537.165,550.901 514.7,528.37 				"/>
			</g>
		</g>
		<g>
			<rect x="513.002" y="554.389" class="st0" width="25.862" height="25.938"/>
			<g>
				<rect x="514.7" y="572.112" class="st2" width="6.49" height="6.513"/>
				<polygon class="st1" points="530.673,556.094 530.673,562.604 537.165,562.604 537.165,578.625 514.7,556.094 				"/>
			</g>
		</g>
		<g>
			<rect x="513.002" y="582.111" class="st0" width="25.862" height="25.939"/>
			<g>
				<rect x="514.7" y="599.836" class="st2" width="6.49" height="6.513"/>
				<polygon class="st1" points="530.673,583.816 530.673,590.327 537.165,590.327 537.165,606.349 514.7,583.816 				"/>
			</g>
		</g>
		<g>
			<rect x="513.002" y="609.835" class="st0" width="25.862" height="25.938"/>
			<g>
				<rect x="514.7" y="627.559" class="st2" width="6.49" height="6.513"/>
				<polygon class="st1" points="530.673,611.54 530.673,618.051 537.165,618.051 537.165,634.071 514.7,611.54 				"/>
			</g>
		</g>
		<g>
			<rect x="513.002" y="637.558" class="st0" width="25.862" height="25.939"/>
			<g>
				<rect x="514.7" y="655.282" class="st2" width="6.49" height="6.513"/>
				<polygon class="st1" points="530.673,639.264 530.673,645.773 537.165,645.773 537.165,661.795 514.7,639.264 				"/>
			</g>
		</g>
		<g>
			<rect x="513.002" y="665.281" class="st0" width="25.862" height="25.938"/>
			<g>
				<rect x="514.7" y="683.006" class="st2" width="6.49" height="6.512"/>
				<polygon class="st1" points="530.673,666.986 530.673,673.497 537.165,673.497 537.165,689.518 514.7,666.986 				"/>
			</g>
		</g>
		<g>
			<rect x="486.016" y="693.002" class="st0" width="25.229" height="25.862"/>
			<g>
				<rect x="487.672" y="694.7" class="st2" width="6.334" height="6.49"/>
				<polygon class="st1" points="509.586,710.673 503.254,710.673 503.254,717.165 487.672,717.165 509.586,694.7 				"/>
			</g>
		</g>
		<g>
			<rect x="459.052" y="693.002" class="st0" width="25.229" height="25.862"/>
			<g>
				<rect x="460.707" y="694.7" class="st2" width="6.334" height="6.49"/>
				<polygon class="st1" points="482.622,710.673 476.289,710.673 476.289,717.165 460.707,717.165 482.622,694.7 				"/>
			</g>
		</g>
		<g>
			<rect x="432.087" y="693.002" class="st0" width="25.229" height="25.862"/>
			<g>
				<rect x="433.743" y="694.7" class="st2" width="6.334" height="6.49"/>
				<polygon class="st1" points="455.657,710.673 449.325,710.673 449.325,717.165 433.743,717.165 455.657,694.7 				"/>
			</g>
		</g>
		<g>
			<rect x="405.123" y="693.002" class="st0" width="25.229" height="25.862"/>
			<g>
				<rect x="406.778" y="694.7" class="st2" width="6.334" height="6.49"/>
				<polygon class="st1" points="428.693,710.673 422.361,710.673 422.361,717.165 406.778,717.165 428.693,694.7 				"/>
			</g>
		</g>
		<g>
			<rect x="378.158" y="693.002" class="st0" width="25.229" height="25.862"/>
			<g>
				<rect x="379.814" y="694.7" class="st2" width="6.334" height="6.49"/>
				<polygon class="st1" points="401.729,710.673 395.396,710.673 395.396,717.165 379.814,717.165 401.729,694.7 				"/>
			</g>
		</g>
		<g>
			<rect x="351.194" y="693.002" class="st0" width="25.229" height="25.862"/>
			<g>
				<rect x="352.85" y="694.7" class="st2" width="6.334" height="6.49"/>
				<polygon class="st1" points="374.765,710.673 368.433,710.673 368.433,717.165 352.85,717.165 374.765,694.7 				"/>
			</g>
		</g>
		<g>
			<rect x="324.23" y="693.002" class="st0" width="25.229" height="25.862"/>
			<g>
				<rect x="325.886" y="694.7" class="st2" width="6.334" height="6.49"/>
				<polygon class="st1" points="347.8,710.673 341.468,710.673 341.468,717.165 325.886,717.165 347.8,694.7 				"/>
			</g>
		</g>
		<g>
			<rect x="297.266" y="693.002" class="st0" width="25.229" height="25.862"/>
			<g>
				<rect x="298.921" y="694.7" class="st2" width="6.335" height="6.49"/>
				<polygon class="st1" points="320.836,710.673 314.504,710.673 314.504,717.165 298.921,717.165 320.836,694.7 				"/>
			</g>
		</g>
		<g>
			<rect x="270.301" y="693.002" class="st0" width="25.229" height="25.862"/>
			<g>
				<rect x="271.957" y="694.7" class="st2" width="6.334" height="6.49"/>
				<polygon class="st1" points="293.872,710.673 287.539,710.673 287.539,717.165 271.957,717.165 293.872,694.7 				"/>
			</g>
		</g>
		<g>
			<rect x="243.337" y="693.002" class="st0" width="25.229" height="25.862"/>
			<g>
				<rect x="244.993" y="694.7" class="st2" width="6.334" height="6.49"/>
				<polygon class="st1" points="266.907,710.673 260.575,710.673 260.575,717.165 244.993,717.165 266.907,694.7 				"/>
			</g>
		</g>
		<g>
			<rect x="216.373" y="693.002" class="st0" width="25.229" height="25.862"/>
			<g>
				<rect x="218.028" y="694.7" class="st2" width="6.334" height="6.49"/>
				<polygon class="st1" points="239.943,710.673 233.611,710.673 233.611,717.165 218.028,717.165 239.943,694.7 				"/>
			</g>
		</g>
		<g>
			<rect x="189.409" y="693.002" class="st0" width="25.229" height="25.862"/>
			<g>
				<rect x="191.064" y="694.7" class="st2" width="6.334" height="6.49"/>
				<polygon class="st1" points="212.979,710.673 206.646,710.673 206.646,717.165 191.064,717.165 212.979,694.7 				"/>
			</g>
		</g>
		<g>
			<rect x="162.444" y="693.002" class="st0" width="25.229" height="25.862"/>
			<g>
				<rect x="164.1" y="694.7" class="st2" width="6.334" height="6.49"/>
				<polygon class="st1" points="186.015,710.673 179.682,710.673 179.682,717.165 164.1,717.165 186.015,694.7 				"/>
			</g>
		</g>
		<g>
			<rect x="135.48" y="693.002" class="st0" width="25.229" height="25.862"/>
			<g>
				<rect x="137.135" y="694.7" class="st2" width="6.334" height="6.49"/>
				<polygon class="st1" points="159.05,710.673 152.718,710.673 152.718,717.165 137.135,717.165 159.05,694.7 				"/>
			</g>
		</g>
		<g>
			<rect x="108.516" y="693.002" class="st0" width="25.229" height="25.862"/>
			<g>
				<rect x="110.171" y="694.7" class="st2" width="6.334" height="6.49"/>
				<polygon class="st1" points="132.086,710.673 125.753,710.673 125.753,717.165 110.171,717.165 132.086,694.7 				"/>
			</g>
		</g>
		<g>
			<rect x="81.551" y="693.002" class="st0" width="25.229" height="25.862"/>
			<g>
				<rect x="83.207" y="694.7" class="st2" width="6.334" height="6.49"/>
				<polygon class="st1" points="105.122,710.673 98.789,710.673 98.789,717.165 83.207,717.165 105.122,694.7 				"/>
			</g>
		</g>
		<g>
			<rect x="54.587" y="693.002" class="st0" width="25.229" height="25.862"/>
			<g>
				<rect x="56.243" y="694.7" class="st2" width="6.334" height="6.49"/>
				<polygon class="st1" points="78.157,710.673 71.825,710.673 71.825,717.165 56.243,717.165 78.157,694.7 				"/>
			</g>
		</g>
		<g>
			<rect x="27.623" y="693.002" class="st0" width="25.229" height="25.862"/>
			<g>
				<rect x="29.278" y="694.7" class="st2" width="6.334" height="6.49"/>
				<polygon class="st1" points="51.193,710.673 44.861,710.673 44.861,717.165 29.278,717.165 51.193,694.7 				"/>
			</g>
		</g>
		<g>
			<rect x="0.002" class="st0" width="25.863" height="25.866"/>
			<g>
				<rect x="1.701" y="1.699" class="st2" width="6.49" height="6.494"/>
				<polygon class="st1" points="17.673,24.166 17.673,17.673 24.165,17.673 24.165,1.699 1.701,24.166 				"/>
			</g>
		</g>
		<g>
			<rect x="513.001" y="0.002" class="st0" width="25.866" height="25.863"/>
			<g>
				<rect x="530.674" y="1.701" class="st2" width="6.494" height="6.49"/>
				<polygon class="st1" points="514.701,17.673 521.194,17.673 521.194,24.165 537.168,24.165 514.701,1.701 				"/>
			</g>
		</g>
		<g>
			<rect x="513.002" y="693.001" class="st0" width="25.863" height="25.866"/>
			<g>
				<rect x="530.676" y="710.674" class="st2" width="6.49" height="6.494"/>
				<polygon class="st1" points="521.194,694.701 521.194,701.194 514.702,701.194 514.702,717.168 537.166,694.701 				"/>
			</g>
		</g>
		<g>
			<rect y="693.002" class="st0" width="25.866" height="25.863"/>
			<g>
				<rect x="1.699" y="710.676" class="st2" width="6.494" height="6.49"/>
				<polygon class="st1" points="24.166,701.194 17.673,701.194 17.673,694.702 1.699,694.702 24.166,717.166 				"/>
			</g>
		</g>
	</g>
</g>
</svg>
