<?xml version="1.0" encoding="utf-8"?>
<!-- Generator: Adobe Illustrator 14.0.0, SVG Export Plug-In . SVG Version: 6.00 Build 43363)  -->
<!DOCTYPE svg PUBLIC "-//W3C//DTD SVG 1.1//EN" "http://www.w3.org/Graphics/SVG/1.1/DTD/svg11.dtd">
<svg version="1.1" id="Layer_1" xmlns="http://www.w3.org/2000/svg" xmlns:xlink="http://www.w3.org/1999/xlink" x="0px" y="0px"
	 width="576px" height="756px" viewBox="0 0 576 756" style="enable-background:new 0 0 576 756;" xml:space="preserve">
<style type="text/css">
<![CDATA[
	.st0{fill:none;stroke:#FFFFFF;}
	.st1{fill:none;stroke:#FFFFFF;stroke-width:3;}
]]>
</style>
<rect x="1.5" y="1.5" class="st1" width="573" height="753"/>
<line class="st0" x1="11.52" y1="8.956" x2="22.32" y2="8.956"/>
<line class="st0" x1="553.68" y1="8.956" x2="564.48" y2="8.956"/>
<line class="st0" x1="11.52" y1="381.728" x2="22.32" y2="381.728"/>
<line class="st0" x1="553.68" y1="381.728" x2="564.48" y2="381.728"/>
<line class="st0" x1="11.52" y1="158.064" x2="22.32" y2="158.064"/>
<line class="st0" x1="553.68" y1="158.064" x2="564.48" y2="158.064"/>
<line class="st0" x1="11.52" y1="530.837" x2="22.32" y2="530.837"/>
<line class="st0" x1="553.68" y1="530.837" x2="564.48" y2="530.837"/>
<line class="st0" x1="11.52" y1="83.51" x2="22.32" y2="83.51"/>
<line class="st0" x1="553.68" y1="83.51" x2="564.48" y2="83.51"/>
<line class="st0" x1="11.52" y1="456.282" x2="22.32" y2="456.282"/>
<line class="st0" x1="553.68" y1="456.282" x2="564.48" y2="456.282"/>
<line class="st0" x1="11.52" y1="232.619" x2="22.32" y2="232.619"/>
<line class="st0" x1="553.68" y1="232.619" x2="564.48" y2="232.619"/>
<line class="st0" x1="11.52" y1="605.391" x2="22.32" y2="605.391"/>
<line class="st0" x1="553.68" y1="605.391" x2="564.48" y2="605.391"/>
<line class="st0" x1="11.52" y1="307.173" x2="22.32" y2="307.173"/>
<line class="st0" x1="553.68" y1="307.173" x2="564.48" y2="307.173"/>
<line class="st0" x1="11.52" y1="679.945" x2="22.32" y2="679.945"/>
<line class="st0" x1="553.68" y1="679.945" x2="564.48" y2="679.945"/>
<line class="st0" x1="11.52" y1="46.233" x2="22.32" y2="46.233"/>
<line class="st0" x1="553.68" y1="46.233" x2="564.48" y2="46.233"/>
<line class="st0" x1="11.52" y1="419.005" x2="22.32" y2="419.005"/>
<line class="st0" x1="553.68" y1="419.005" x2="564.48" y2="419.005"/>
<line class="st0" x1="11.52" y1="195.342" x2="22.32" y2="195.342"/>
<line class="st0" x1="553.68" y1="195.342" x2="564.48" y2="195.342"/>
<line class="st0" x1="11.52" y1="568.114" x2="22.32" y2="568.114"/>
<line class="st0" x1="553.68" y1="568.114" x2="564.48" y2="568.114"/>
<line class="st0" x1="11.52" y1="120.787" x2="22.32" y2="120.787"/>
<line class="st0" x1="553.68" y1="120.787" x2="564.48" y2="120.787"/>
<line class="st0" x1="11.52" y1="493.56" x2="22.32" y2="493.56"/>
<line class="st0" x1="553.68" y1="493.56" x2="564.48" y2="493.56"/>
<line class="st0" x1="11.52" y1="269.896" x2="22.32" y2="269.896"/>
<line class="st0" x1="553.68" y1="269.896" x2="564.48" y2="269.896"/>
<line class="st0" x1="11.52" y1="642.668" x2="22.32" y2="642.668"/>
<line class="st0" x1="553.68" y1="642.668" x2="564.48" y2="642.668"/>
<line class="st0" x1="11.52" y1="344.451" x2="22.32" y2="344.451"/>
<line class="st0" x1="553.68" y1="344.451" x2="564.48" y2="344.451"/>
<line class="st0" x1="11.52" y1="717.223" x2="22.32" y2="717.223"/>
<line class="st0" x1="553.68" y1="717.223" x2="564.48" y2="717.223"/>
<line class="st0" x1="11.52" y1="16.411" x2="22.32" y2="16.411"/>
<line class="st0" x1="553.68" y1="16.411" x2="564.48" y2="16.411"/>
<line class="st0" x1="11.52" y1="389.184" x2="22.32" y2="389.184"/>
<line class="st0" x1="553.68" y1="389.184" x2="564.48" y2="389.184"/>
<line class="st0" x1="11.52" y1="165.52" x2="22.32" y2="165.52"/>
<line class="st0" x1="553.68" y1="165.52" x2="564.48" y2="165.52"/>
<line class="st0" x1="11.52" y1="538.292" x2="22.32" y2="538.292"/>
<line class="st0" x1="553.68" y1="538.292" x2="564.48" y2="538.292"/>
<line class="st0" x1="11.52" y1="90.965" x2="22.32" y2="90.965"/>
<line class="st0" x1="553.68" y1="90.965" x2="564.48" y2="90.965"/>
<line class="st0" x1="11.52" y1="463.737" x2="22.32" y2="463.737"/>
<line class="st0" x1="553.68" y1="463.737" x2="564.48" y2="463.737"/>
<line class="st0" x1="11.52" y1="240.074" x2="22.32" y2="240.074"/>
<line class="st0" x1="553.68" y1="240.074" x2="564.48" y2="240.074"/>
<line class="st0" x1="11.52" y1="612.847" x2="22.32" y2="612.847"/>
<line class="st0" x1="553.68" y1="612.847" x2="564.48" y2="612.847"/>
<line class="st0" x1="11.52" y1="314.629" x2="22.32" y2="314.629"/>
<line class="st0" x1="553.68" y1="314.629" x2="564.48" y2="314.629"/>
<line class="st0" x1="11.52" y1="687.401" x2="22.32" y2="687.401"/>
<line class="st0" x1="553.68" y1="687.401" x2="564.48" y2="687.401"/>
<line class="st0" x1="11.52" y1="53.688" x2="22.32" y2="53.688"/>
<line class="st0" x1="553.68" y1="53.688" x2="564.48" y2="53.688"/>
<line class="st0" x1="11.52" y1="426.461" x2="22.32" y2="426.461"/>
<line class="st0" x1="553.68" y1="426.461" x2="564.48" y2="426.461"/>
<line class="st0" x1="11.52" y1="202.797" x2="22.32" y2="202.797"/>
<line class="st0" x1="553.68" y1="202.797" x2="564.48" y2="202.797"/>
<line class="st0" x1="11.52" y1="575.569" x2="22.32" y2="575.569"/>
<line class="st0" x1="553.68" y1="575.569" x2="564.48" y2="575.569"/>
<line class="st0" x1="11.52" y1="128.243" x2="22.32" y2="128.243"/>
<line class="st0" x1="553.68" y1="128.243" x2="564.48" y2="128.243"/>
<line class="st0" x1="11.52" y1="501.015" x2="22.32" y2="501.015"/>
<line class="st0" x1="553.68" y1="501.015" x2="564.48" y2="501.015"/>
<line class="st0" x1="11.52" y1="277.352" x2="22.32" y2="277.352"/>
<line class="st0" x1="553.68" y1="277.352" x2="564.48" y2="277.352"/>
<line class="st0" x1="11.52" y1="650.124" x2="22.32" y2="650.124"/>
<line class="st0" x1="553.68" y1="650.124" x2="564.48" y2="650.124"/>
<line class="st0" x1="11.52" y1="351.906" x2="22.32" y2="351.906"/>
<line class="st0" x1="553.68" y1="351.906" x2="564.48" y2="351.906"/>
<line class="st0" x1="11.52" y1="724.678" x2="22.32" y2="724.678"/>
<line class="st0" x1="553.68" y1="724.678" x2="564.48" y2="724.678"/>
<line class="st0" x1="11.52" y1="23.866" x2="22.32" y2="23.866"/>
<line class="st0" x1="553.68" y1="23.866" x2="564.48" y2="23.866"/>
<line class="st0" x1="11.52" y1="396.639" x2="22.32" y2="396.639"/>
<line class="st0" x1="553.68" y1="396.639" x2="564.48" y2="396.639"/>
<line class="st0" x1="11.52" y1="172.976" x2="22.32" y2="172.976"/>
<line class="st0" x1="553.68" y1="172.976" x2="564.48" y2="172.976"/>
<line class="st0" x1="11.52" y1="545.748" x2="22.32" y2="545.748"/>
<line class="st0" x1="553.68" y1="545.748" x2="564.48" y2="545.748"/>
<line class="st0" x1="11.52" y1="98.421" x2="22.32" y2="98.421"/>
<line class="st0" x1="553.68" y1="98.421" x2="564.48" y2="98.421"/>
<line class="st0" x1="11.52" y1="471.193" x2="22.32" y2="471.193"/>
<line class="st0" x1="553.68" y1="471.193" x2="564.48" y2="471.193"/>
<line class="st0" x1="11.52" y1="247.53" x2="22.32" y2="247.53"/>
<line class="st0" x1="553.68" y1="247.53" x2="564.48" y2="247.53"/>
<line class="st0" x1="11.52" y1="620.302" x2="22.32" y2="620.302"/>
<line class="st0" x1="553.68" y1="620.302" x2="564.48" y2="620.302"/>
<line class="st0" x1="11.52" y1="322.084" x2="22.32" y2="322.084"/>
<line class="st0" x1="553.68" y1="322.084" x2="564.48" y2="322.084"/>
<line class="st0" x1="11.52" y1="694.856" x2="22.32" y2="694.856"/>
<line class="st0" x1="553.68" y1="694.856" x2="564.48" y2="694.856"/>
<line class="st0" x1="11.52" y1="61.144" x2="22.32" y2="61.144"/>
<line class="st0" x1="553.68" y1="61.144" x2="564.48" y2="61.144"/>
<line class="st0" x1="11.52" y1="433.916" x2="22.32" y2="433.916"/>
<line class="st0" x1="553.68" y1="433.916" x2="564.48" y2="433.916"/>
<line class="st0" x1="11.52" y1="210.252" x2="22.32" y2="210.252"/>
<line class="st0" x1="553.68" y1="210.252" x2="564.48" y2="210.252"/>
<line class="st0" x1="11.52" y1="583.024" x2="22.32" y2="583.024"/>
<line class="st0" x1="553.68" y1="583.024" x2="564.48" y2="583.024"/>
<line class="st0" x1="11.52" y1="135.698" x2="22.32" y2="135.698"/>
<line class="st0" x1="553.68" y1="135.698" x2="564.48" y2="135.698"/>
<line class="st0" x1="11.52" y1="508.471" x2="22.32" y2="508.471"/>
<line class="st0" x1="553.68" y1="508.471" x2="564.48" y2="508.471"/>
<line class="st0" x1="11.52" y1="284.807" x2="22.32" y2="284.807"/>
<line class="st0" x1="553.68" y1="284.807" x2="564.48" y2="284.807"/>
<line class="st0" x1="11.52" y1="657.579" x2="22.32" y2="657.579"/>
<line class="st0" x1="553.68" y1="657.579" x2="564.48" y2="657.579"/>
<line class="st0" x1="11.52" y1="359.361" x2="22.32" y2="359.361"/>
<line class="st0" x1="553.68" y1="359.361" x2="564.48" y2="359.361"/>
<line class="st0" x1="11.52" y1="732.134" x2="22.32" y2="732.134"/>
<line class="st0" x1="553.68" y1="732.134" x2="564.48" y2="732.134"/>
<line class="st0" x1="11.52" y1="31.322" x2="22.32" y2="31.322"/>
<line class="st0" x1="553.68" y1="31.322" x2="564.48" y2="31.322"/>
<line class="st0" x1="11.52" y1="404.094" x2="22.32" y2="404.094"/>
<line class="st0" x1="553.68" y1="404.094" x2="564.48" y2="404.094"/>
<line class="st0" x1="11.52" y1="180.431" x2="22.32" y2="180.431"/>
<line class="st0" x1="553.68" y1="180.431" x2="564.48" y2="180.431"/>
<line class="st0" x1="11.52" y1="553.203" x2="22.32" y2="553.203"/>
<line class="st0" x1="553.68" y1="553.203" x2="564.48" y2="553.203"/>
<line class="st0" x1="11.52" y1="105.876" x2="22.32" y2="105.876"/>
<line class="st0" x1="553.68" y1="105.876" x2="564.48" y2="105.876"/>
<line class="st0" x1="11.52" y1="478.648" x2="22.32" y2="478.648"/>
<line class="st0" x1="553.68" y1="478.648" x2="564.48" y2="478.648"/>
<line class="st0" x1="11.52" y1="254.985" x2="22.32" y2="254.985"/>
<line class="st0" x1="553.68" y1="254.985" x2="564.48" y2="254.985"/>
<line class="st0" x1="11.52" y1="627.758" x2="22.32" y2="627.758"/>
<line class="st0" x1="553.68" y1="627.758" x2="564.48" y2="627.758"/>
<line class="st0" x1="11.52" y1="329.54" x2="22.32" y2="329.54"/>
<line class="st0" x1="553.68" y1="329.54" x2="564.48" y2="329.54"/>
<line class="st0" x1="11.52" y1="702.312" x2="22.32" y2="702.312"/>
<line class="st0" x1="553.68" y1="702.312" x2="564.48" y2="702.312"/>
<line class="st0" x1="11.52" y1="68.599" x2="22.32" y2="68.599"/>
<line class="st0" x1="553.68" y1="68.599" x2="564.48" y2="68.599"/>
<line class="st0" x1="11.52" y1="441.371" x2="22.32" y2="441.371"/>
<line class="st0" x1="553.68" y1="441.371" x2="564.48" y2="441.371"/>
<line class="st0" x1="11.52" y1="217.708" x2="22.32" y2="217.708"/>
<line class="st0" x1="553.68" y1="217.708" x2="564.48" y2="217.708"/>
<line class="st0" x1="11.52" y1="590.48" x2="22.32" y2="590.48"/>
<line class="st0" x1="553.68" y1="590.48" x2="564.48" y2="590.48"/>
<line class="st0" x1="11.52" y1="143.153" x2="22.32" y2="143.153"/>
<line class="st0" x1="553.68" y1="143.153" x2="564.48" y2="143.153"/>
<line class="st0" x1="11.52" y1="515.926" x2="22.32" y2="515.926"/>
<line class="st0" x1="553.68" y1="515.926" x2="564.48" y2="515.926"/>
<line class="st0" x1="11.52" y1="292.263" x2="22.32" y2="292.263"/>
<line class="st0" x1="553.68" y1="292.263" x2="564.48" y2="292.263"/>
<line class="st0" x1="11.52" y1="665.035" x2="22.32" y2="665.035"/>
<line class="st0" x1="553.68" y1="665.035" x2="564.48" y2="665.035"/>
<line class="st0" x1="11.52" y1="366.817" x2="22.32" y2="366.817"/>
<line class="st0" x1="553.68" y1="366.817" x2="564.48" y2="366.817"/>
<line class="st0" x1="11.52" y1="739.589" x2="22.32" y2="739.589"/>
<line class="st0" x1="553.68" y1="739.589" x2="564.48" y2="739.589"/>
<line class="st0" x1="11.52" y1="38.777" x2="22.32" y2="38.777"/>
<line class="st0" x1="553.68" y1="38.777" x2="564.48" y2="38.777"/>
<line class="st0" x1="11.52" y1="411.55" x2="22.32" y2="411.55"/>
<line class="st0" x1="553.68" y1="411.55" x2="564.48" y2="411.55"/>
<line class="st0" x1="11.52" y1="187.886" x2="22.32" y2="187.886"/>
<line class="st0" x1="553.68" y1="187.886" x2="564.48" y2="187.886"/>
<line class="st0" x1="11.52" y1="560.658" x2="22.32" y2="560.658"/>
<line class="st0" x1="553.68" y1="560.658" x2="564.48" y2="560.658"/>
<line class="st0" x1="11.52" y1="113.332" x2="22.32" y2="113.332"/>
<line class="st0" x1="553.68" y1="113.332" x2="564.48" y2="113.332"/>
<line class="st0" x1="11.52" y1="486.104" x2="22.32" y2="486.104"/>
<line class="st0" x1="553.68" y1="486.104" x2="564.48" y2="486.104"/>
<line class="st0" x1="11.52" y1="262.44" x2="22.32" y2="262.44"/>
<line class="st0" x1="553.68" y1="262.44" x2="564.48" y2="262.44"/>
<line class="st0" x1="11.52" y1="635.213" x2="22.32" y2="635.213"/>
<line class="st0" x1="553.68" y1="635.213" x2="564.48" y2="635.213"/>
<line class="st0" x1="11.52" y1="336.995" x2="22.32" y2="336.995"/>
<line class="st0" x1="553.68" y1="336.995" x2="564.48" y2="336.995"/>
<line class="st0" x1="11.52" y1="709.768" x2="22.32" y2="709.768"/>
<line class="st0" x1="553.68" y1="709.768" x2="564.48" y2="709.768"/>
<line class="st0" x1="11.52" y1="76.055" x2="22.32" y2="76.055"/>
<line class="st0" x1="553.68" y1="76.055" x2="564.48" y2="76.055"/>
<line class="st0" x1="11.52" y1="448.827" x2="22.32" y2="448.827"/>
<line class="st0" x1="553.68" y1="448.827" x2="564.48" y2="448.827"/>
<line class="st0" x1="11.52" y1="225.164" x2="22.32" y2="225.164"/>
<line class="st0" x1="553.68" y1="225.164" x2="564.48" y2="225.164"/>
<line class="st0" x1="11.52" y1="597.936" x2="22.32" y2="597.936"/>
<line class="st0" x1="553.68" y1="597.936" x2="564.48" y2="597.936"/>
<line class="st0" x1="11.52" y1="150.609" x2="22.32" y2="150.609"/>
<line class="st0" x1="553.68" y1="150.609" x2="564.48" y2="150.609"/>
<line class="st0" x1="11.52" y1="523.381" x2="22.32" y2="523.381"/>
<line class="st0" x1="553.68" y1="523.381" x2="564.48" y2="523.381"/>
<line class="st0" x1="11.52" y1="299.718" x2="22.32" y2="299.718"/>
<line class="st0" x1="553.68" y1="299.718" x2="564.48" y2="299.718"/>
<line class="st0" x1="11.52" y1="672.49" x2="22.32" y2="672.49"/>
<line class="st0" x1="553.68" y1="672.49" x2="564.48" y2="672.49"/>
<line class="st0" x1="11.52" y1="374.272" x2="22.32" y2="374.272"/>
<line class="st0" x1="553.68" y1="374.272" x2="564.48" y2="374.272"/>
<line class="st0" x1="11.52" y1="747.045" x2="22.32" y2="747.045"/>
<line class="st0" x1="553.68" y1="747.045" x2="564.48" y2="747.045"/>
</svg>
