<?xml version="1.0" encoding="utf-8"?>
<!-- Generator: Adobe Illustrator 14.0.0, SVG Export Plug-In . SVG Version: 6.00 Build 43363)  -->
<!DOCTYPE svg PUBLIC "-//W3C//DTD SVG 1.1//EN" "http://www.w3.org/Graphics/SVG/1.1/DTD/svg11.dtd">
<svg version="1.1" id="Layer_1" xmlns="http://www.w3.org/2000/svg" xmlns:xlink="http://www.w3.org/1999/xlink" x="0px" y="0px"
	 width="539.04px" height="719.04px" viewBox="0 0 539.04 719.04" style="enable-background:new 0 0 539.04 719.04;"
	 xml:space="preserve">
<style type="text/css">
<![CDATA[
	.st0{fill:none;stroke:#FFC20C;stroke-width:1.1;}
]]>
</style>
<g>
	<g>
		<g>
			<path class="st0" d="M9.546,655.017c-0.955,1.179-2.025,2.425-3.219,3.744c-6.14,6.791-6.634,12.411-4.55,15.691
				c1.297,2.043,4.027,2.943,5.457,2.493c2.378-0.749,3.182-2.891,2.013-4.56c-0.909,1.542-3.111,0.895-2.662-1.401
				c0.649-3.337,5.152-3.023,7.405-1.154c2.973,2.467,5.838,7.26-4.451,19.945"/>
		</g>
		<g>
			<path class="st0" d="M9.546,620.252c-0.955,1.18-2.025,2.426-3.219,3.745c-6.14,6.791-6.634,12.411-4.55,15.691
				c1.297,2.043,4.027,2.943,5.457,2.493c2.378-0.75,3.182-2.891,2.013-4.56c-0.909,1.542-3.111,0.895-2.662-1.401
				c0.649-3.338,5.152-3.023,7.405-1.154c2.973,2.467,5.838,7.26-4.451,19.945"/>
		</g>
		<g>
			<path class="st0" d="M9.546,585.489c-0.955,1.18-2.025,2.426-3.219,3.745c-6.14,6.791-6.634,12.411-4.55,15.691
				c1.297,2.043,4.027,2.943,5.457,2.493c2.378-0.75,3.182-2.891,2.013-4.56c-0.909,1.541-3.111,0.895-2.662-1.401
				c0.649-3.338,5.152-3.023,7.405-1.154c2.973,2.467,5.838,7.26-4.451,19.945"/>
		</g>
		<g>
			<path class="st0" d="M9.546,550.725c-0.955,1.18-2.025,2.426-3.219,3.744c-6.14,6.791-6.634,12.412-4.55,15.692
				c1.297,2.043,4.027,2.942,5.457,2.493c2.378-0.75,3.182-2.891,2.013-4.561c-0.909,1.542-3.111,0.896-2.662-1.4
				c0.649-3.338,5.152-3.023,7.405-1.154c2.973,2.467,5.838,7.259-4.451,19.945"/>
		</g>
		<g>
			<path class="st0" d="M9.546,515.961c-0.955,1.18-2.025,2.426-3.219,3.744c-6.14,6.791-6.634,12.412-4.55,15.692
				c1.297,2.043,4.027,2.942,5.457,2.492c2.378-0.749,3.182-2.89,2.013-4.56c-0.909,1.542-3.111,0.896-2.662-1.401
				c0.649-3.337,5.152-3.022,7.405-1.153c2.973,2.467,5.838,7.259-4.451,19.945"/>
		</g>
		<g>
			<path class="st0" d="M9.546,481.198c-0.955,1.179-2.025,2.426-3.219,3.744c-6.14,6.791-6.634,12.412-4.55,15.691
				c1.297,2.043,4.027,2.943,5.457,2.493c2.378-0.749,3.182-2.891,2.013-4.56c-0.909,1.542-3.111,0.895-2.662-1.401
				c0.649-3.337,5.152-3.022,7.405-1.153c2.973,2.466,5.838,7.259-4.451,19.945"/>
		</g>
		<g>
			<path class="st0" d="M9.546,446.434c-0.955,1.179-2.025,2.425-3.219,3.744c-6.14,6.791-6.634,12.412-4.55,15.691
				c1.297,2.043,4.027,2.943,5.457,2.493c2.378-0.749,3.182-2.891,2.013-4.56c-0.909,1.542-3.111,0.895-2.662-1.401
				c0.649-3.337,5.152-3.023,7.405-1.153c2.973,2.466,5.838,7.259-4.451,19.945"/>
		</g>
		<g>
			<path class="st0" d="M9.546,411.67c-0.955,1.179-2.025,2.425-3.219,3.744c-6.14,6.791-6.634,12.411-4.55,15.691
				c1.297,2.043,4.027,2.943,5.457,2.493c2.378-0.749,3.182-2.891,2.013-4.56c-0.909,1.542-3.111,0.895-2.662-1.401
				c0.649-3.337,5.152-3.023,7.405-1.153c2.973,2.466,5.838,7.259-4.451,19.944"/>
		</g>
		<g>
			<path class="st0" d="M9.546,376.906c-0.955,1.18-2.025,2.426-3.219,3.745c-6.14,6.791-6.634,12.411-4.55,15.691
				c1.297,2.043,4.027,2.943,5.457,2.493c2.378-0.75,3.182-2.891,2.013-4.56c-0.909,1.542-3.111,0.895-2.662-1.401
				c0.649-3.338,5.152-3.023,7.405-1.154c2.973,2.467,5.838,7.26-4.451,19.945"/>
		</g>
		<g>
			<path class="st0" d="M9.546,342.143c-0.955,1.179-2.025,2.425-3.219,3.744c-6.14,6.791-6.634,12.412-4.55,15.692
				c1.297,2.043,4.027,2.943,5.457,2.493c2.378-0.75,3.182-2.891,2.013-4.56c-0.909,1.542-3.111,0.895-2.662-1.401
				c0.649-3.337,5.152-3.023,7.405-1.154c2.973,2.467,5.838,7.26-4.451,19.945"/>
		</g>
		<g>
			<path class="st0" d="M9.546,307.378c-0.955,1.18-2.025,2.426-3.219,3.745c-6.14,6.791-6.634,12.412-4.55,15.692
				c1.297,2.042,4.027,2.943,5.457,2.493c2.378-0.75,3.182-2.891,2.013-4.56c-0.909,1.542-3.111,0.895-2.662-1.401
				c0.649-3.337,5.152-3.023,7.405-1.154c2.973,2.466,5.838,7.259-4.451,19.945"/>
		</g>
		<g>
			<path class="st0" d="M9.546,272.615c-0.955,1.179-2.025,2.426-3.219,3.745c-6.14,6.791-6.634,12.412-4.55,15.691
				c1.297,2.043,4.027,2.943,5.457,2.493c2.378-0.75,3.182-2.891,2.013-4.56c-0.909,1.542-3.111,0.895-2.662-1.401
				c0.649-3.337,5.152-3.023,7.405-1.154c2.973,2.466,5.838,7.259-4.451,19.945"/>
		</g>
		<g>
			<path class="st0" d="M9.546,237.851c-0.955,1.179-2.025,2.425-3.219,3.744c-6.14,6.791-6.634,12.412-4.55,15.692
				c1.297,2.043,4.027,2.943,5.457,2.493c2.378-0.75,3.182-2.891,2.013-4.56c-0.909,1.542-3.111,0.895-2.662-1.401
				c0.649-3.337,5.152-3.023,7.405-1.154c2.973,2.466,5.838,7.259-4.451,19.945"/>
		</g>
		<g>
			<path class="st0" d="M9.546,203.087c-0.955,1.18-2.025,2.426-3.219,3.745c-6.14,6.791-6.634,12.412-4.55,15.692
				c1.297,2.042,4.027,2.943,5.457,2.493c2.378-0.75,3.182-2.89,2.013-4.56c-0.909,1.542-3.111,0.895-2.662-1.401
				c0.649-3.337,5.152-3.023,7.405-1.154c2.973,2.466,5.838,7.259-4.451,19.945"/>
		</g>
		<g>
			<path class="st0" d="M9.546,168.323c-0.955,1.179-2.025,2.426-3.219,3.745c-6.14,6.791-6.634,12.412-4.55,15.691
				c1.297,2.043,4.027,2.943,5.457,2.493c2.378-0.75,3.182-2.891,2.013-4.56c-0.909,1.542-3.111,0.895-2.662-1.401
				c0.649-3.337,5.152-3.023,7.405-1.154c2.973,2.466,5.838,7.259-4.451,19.945"/>
		</g>
		<g>
			<path class="st0" d="M9.546,133.56c-0.955,1.179-2.025,2.425-3.219,3.745c-6.14,6.791-6.634,12.412-4.55,15.691
				c1.297,2.043,4.027,2.943,5.457,2.493c2.378-0.75,3.182-2.891,2.013-4.56c-0.909,1.542-3.111,0.895-2.662-1.401
				c0.649-3.337,5.152-3.023,7.405-1.154c2.973,2.466,5.838,7.259-4.451,19.945"/>
		</g>
		<g>
			<path class="st0" d="M9.546,98.796c-0.955,1.179-2.025,2.425-3.219,3.744c-6.14,6.791-6.634,12.412-4.55,15.692
				c1.297,2.043,4.027,2.943,5.457,2.493c2.378-0.749,3.182-2.89,2.013-4.56c-0.909,1.542-3.111,0.895-2.662-1.401
				c0.649-3.337,5.152-3.023,7.405-1.154c2.973,2.467,5.838,7.259-4.451,19.945"/>
		</g>
		<g>
			<path class="st0" d="M9.546,64.032c-0.955,1.18-2.025,2.426-3.219,3.745c-6.14,6.791-6.634,12.412-4.55,15.692
				c1.297,2.042,4.027,2.943,5.457,2.493c2.378-0.75,3.182-2.891,2.013-4.56C8.338,82.943,6.136,82.296,6.585,80
				c0.649-3.337,5.152-3.023,7.405-1.154c2.973,2.466,5.838,7.259-4.451,19.945"/>
		</g>
		<g>
			<path class="st0" d="M9.546,29.268c-0.955,1.179-2.025,2.426-3.219,3.745c-6.14,6.791-6.634,12.412-4.55,15.691
				c1.297,2.043,4.027,2.943,5.457,2.493c2.378-0.75,3.182-2.891,2.013-4.56c-0.909,1.542-3.111,0.895-2.662-1.401
				c0.649-3.337,5.152-3.023,7.405-1.154c2.973,2.466,5.838,7.259-4.451,19.945"/>
		</g>
		<g>
			<path class="st0" d="M63.582,9.546c-1.165-0.955-2.395-2.025-3.697-3.219c-6.705-6.14-12.254-6.634-15.493-4.55
				c-2.017,1.297-2.906,4.027-2.461,5.457c0.74,2.378,2.854,3.182,4.502,2.013c-1.522-0.909-0.883-3.111,1.383-2.662
				c3.295,0.649,2.985,5.152,1.139,7.405c-2.435,2.973-7.167,5.838-19.692-4.451"/>
		</g>
		<g>
			<path class="st0" d="M97.904,9.546c-1.165-0.955-2.395-2.025-3.697-3.219c-6.705-6.14-12.254-6.634-15.493-4.55
				c-2.017,1.297-2.906,4.027-2.461,5.457c0.74,2.378,2.854,3.182,4.502,2.013c-1.522-0.909-0.883-3.111,1.383-2.662
				c3.295,0.649,2.985,5.152,1.139,7.405c-2.435,2.973-7.167,5.838-19.692-4.451"/>
		</g>
		<g>
			<path class="st0" d="M132.227,9.546c-1.165-0.955-2.395-2.025-3.697-3.219c-6.705-6.14-12.254-6.634-15.493-4.55
				c-2.017,1.297-2.906,4.027-2.461,5.457c0.74,2.378,2.854,3.182,4.501,2.013c-1.522-0.909-0.883-3.111,1.383-2.662
				c3.295,0.649,2.985,5.152,1.139,7.405c-2.435,2.973-7.167,5.838-19.691-4.451"/>
		</g>
		<g>
			<path class="st0" d="M166.549,9.546c-1.165-0.955-2.395-2.025-3.697-3.219c-6.705-6.14-12.254-6.634-15.493-4.55
				c-2.017,1.297-2.905,4.027-2.461,5.457c0.74,2.378,2.854,3.182,4.501,2.013c-1.522-0.909-0.883-3.111,1.383-2.662
				c3.295,0.649,2.985,5.152,1.14,7.405c-2.435,2.973-7.167,5.838-19.692-4.451"/>
		</g>
		<g>
			<path class="st0" d="M200.871,9.546c-1.164-0.955-2.395-2.025-3.697-3.219c-6.705-6.14-12.254-6.634-15.493-4.55
				c-2.017,1.297-2.905,4.027-2.461,5.457c0.74,2.378,2.854,3.182,4.501,2.013c-1.522-0.909-0.883-3.111,1.384-2.662
				c3.295,0.649,2.984,5.152,1.139,7.405c-2.435,2.973-7.167,5.838-19.692-4.451"/>
		</g>
		<g>
			<path class="st0" d="M235.193,9.546c-1.164-0.955-2.395-2.025-3.697-3.219c-6.705-6.14-12.254-6.634-15.492-4.55
				c-2.017,1.297-2.906,4.027-2.461,5.457c0.74,2.378,2.854,3.182,4.501,2.013c-1.522-0.909-0.883-3.111,1.384-2.662
				c3.295,0.649,2.984,5.152,1.139,7.405c-2.435,2.973-7.167,5.838-19.692-4.451"/>
		</g>
		<g>
			<path class="st0" d="M269.516,9.546c-1.164-0.955-2.395-2.025-3.697-3.219c-6.705-6.14-12.254-6.634-15.492-4.55
				c-2.017,1.297-2.906,4.027-2.461,5.457c0.74,2.378,2.854,3.182,4.502,2.013c-1.522-0.909-0.884-3.111,1.383-2.662
				c3.295,0.649,2.985,5.152,1.139,7.405c-2.435,2.973-7.167,5.838-19.692-4.451"/>
		</g>
		<g>
			<path class="st0" d="M303.838,9.546c-1.165-0.955-2.395-2.025-3.697-3.219c-6.705-6.14-12.254-6.634-15.492-4.55
				c-2.017,1.297-2.906,4.027-2.461,5.457c0.739,2.378,2.854,3.182,4.501,2.013c-1.521-0.909-0.883-3.111,1.384-2.662
				c3.295,0.649,2.984,5.152,1.139,7.405c-2.435,2.973-7.166,5.838-19.691-4.451"/>
		</g>
		<g>
			<path class="st0" d="M338.161,9.546c-1.164-0.955-2.395-2.025-3.697-3.219c-6.705-6.14-12.254-6.634-15.492-4.55
				c-2.017,1.297-2.905,4.027-2.461,5.457c0.739,2.378,2.854,3.182,4.501,2.013c-1.521-0.909-0.883-3.111,1.384-2.662
				c3.295,0.649,2.984,5.152,1.14,7.405c-2.436,2.973-7.167,5.838-19.692-4.451"/>
		</g>
		<g>
			<path class="st0" d="M372.483,9.546c-1.164-0.955-2.395-2.025-3.697-3.219c-6.704-6.14-12.254-6.634-15.492-4.55
				c-2.017,1.297-2.905,4.027-2.461,5.457c0.739,2.378,2.854,3.182,4.501,2.013c-1.521-0.909-0.883-3.111,1.384-2.662
				c3.295,0.649,2.984,5.152,1.14,7.405c-2.436,2.973-7.167,5.838-19.692-4.451"/>
		</g>
		<g>
			<path class="st0" d="M406.805,9.546c-1.164-0.955-2.395-2.025-3.697-3.219c-6.704-6.14-12.254-6.634-15.492-4.55
				c-2.017,1.297-2.905,4.027-2.461,5.457c0.739,2.378,2.854,3.182,4.502,2.013c-1.522-0.909-0.884-3.111,1.383-2.662
				c3.295,0.649,2.984,5.152,1.14,7.405c-2.436,2.973-7.167,5.838-19.692-4.451"/>
		</g>
		<g>
			<path class="st0" d="M441.127,9.546c-1.164-0.955-2.395-2.025-3.697-3.219c-6.704-6.14-12.254-6.634-15.492-4.55
				c-2.017,1.297-2.905,4.027-2.461,5.457c0.739,2.378,2.854,3.182,4.502,2.013c-1.522-0.909-0.884-3.111,1.383-2.662
				c3.295,0.649,2.985,5.152,1.14,7.405c-2.436,2.973-7.167,5.838-19.692-4.451"/>
		</g>
		<g>
			<path class="st0" d="M475.45,9.546c-1.164-0.955-2.395-2.025-3.697-3.219c-6.704-6.14-12.254-6.634-15.492-4.55
				c-2.017,1.297-2.905,4.027-2.461,5.457c0.739,2.378,2.854,3.182,4.502,2.013c-1.522-0.909-0.884-3.111,1.383-2.662
				c3.295,0.649,2.985,5.152,1.14,7.405c-2.436,2.973-7.167,5.838-19.692-4.451"/>
		</g>
		<g>
			<path class="st0" d="M509.772,9.546c-1.164-0.955-2.395-2.025-3.697-3.219c-6.704-6.14-12.254-6.634-15.492-4.55
				c-2.017,1.297-2.905,4.027-2.461,5.457c0.739,2.378,2.854,3.182,4.502,2.013c-1.522-0.909-0.884-3.111,1.383-2.662
				c3.295,0.649,2.985,5.152,1.14,7.405c-2.436,2.973-7.167,5.838-19.692-4.451"/>
		</g>
		<g>
			<path class="st0" d="M529.494,64.023c0.955-1.179,2.024-2.426,3.22-3.745c6.14-6.791,6.634-12.412,4.55-15.691
				c-1.298-2.043-4.027-2.943-5.457-2.493c-2.378,0.75-3.182,2.891-2.013,4.56c0.908-1.542,3.11-0.895,2.662,1.401
				c-0.649,3.337-5.152,3.023-7.405,1.154c-2.974-2.466-5.838-7.259,4.451-19.945"/>
		</g>
		<g>
			<path class="st0" d="M529.494,98.787c0.955-1.179,2.024-2.425,3.22-3.745c6.14-6.791,6.634-12.412,4.55-15.691
				c-1.298-2.043-4.027-2.943-5.457-2.493c-2.378,0.75-3.182,2.891-2.013,4.56c0.908-1.542,3.11-0.895,2.662,1.401
				c-0.649,3.337-5.152,3.023-7.405,1.154c-2.974-2.466-5.838-7.259,4.451-19.945"/>
		</g>
		<g>
			<path class="st0" d="M529.494,133.551c0.955-1.18,2.024-2.426,3.22-3.745c6.14-6.791,6.634-12.412,4.55-15.692
				c-1.298-2.043-4.027-2.943-5.457-2.493c-2.378,0.749-3.182,2.89-2.013,4.56c0.908-1.542,3.11-0.895,2.662,1.401
				c-0.649,3.338-5.152,3.023-7.405,1.154c-2.974-2.467-5.838-7.259,4.451-19.945"/>
		</g>
		<g>
			<path class="st0" d="M529.494,168.315c0.955-1.18,2.024-2.426,3.22-3.745c6.14-6.791,6.634-12.412,4.55-15.692
				c-1.298-2.042-4.027-2.943-5.457-2.493c-2.378,0.75-3.182,2.891-2.013,4.56c0.908-1.542,3.11-0.895,2.662,1.401
				c-0.649,3.337-5.152,3.023-7.405,1.154c-2.974-2.466-5.838-7.259,4.451-19.945"/>
		</g>
		<g>
			<path class="st0" d="M529.494,203.079c0.955-1.179,2.024-2.426,3.22-3.745c6.14-6.791,6.634-12.412,4.55-15.691
				c-1.298-2.043-4.027-2.943-5.457-2.493c-2.378,0.75-3.182,2.891-2.013,4.56c0.908-1.542,3.11-0.895,2.662,1.401
				c-0.649,3.337-5.152,3.023-7.405,1.154c-2.974-2.466-5.838-7.259,4.451-19.945"/>
		</g>
		<g>
			<path class="st0" d="M529.494,237.842c0.955-1.179,2.024-2.425,3.22-3.744c6.14-6.791,6.634-12.412,4.55-15.692
				c-1.298-2.043-4.027-2.943-5.457-2.493c-2.378,0.75-3.182,2.891-2.013,4.56c0.908-1.542,3.11-0.895,2.662,1.401
				c-0.649,3.337-5.152,3.023-7.405,1.154c-2.974-2.466-5.838-7.259,4.451-19.945"/>
		</g>
		<g>
			<path class="st0" d="M529.494,272.606c0.955-1.18,2.024-2.426,3.22-3.745c6.14-6.791,6.634-12.412,4.55-15.692
				c-1.298-2.042-4.027-2.943-5.457-2.493c-2.378,0.75-3.182,2.89-2.013,4.56c0.908-1.542,3.11-0.895,2.662,1.401
				c-0.649,3.337-5.152,3.023-7.405,1.154c-2.974-2.466-5.838-7.259,4.451-19.945"/>
		</g>
		<g>
			<path class="st0" d="M529.494,307.37c0.955-1.179,2.024-2.426,3.22-3.745c6.14-6.791,6.634-12.412,4.55-15.691
				c-1.298-2.043-4.027-2.943-5.457-2.493c-2.378,0.75-3.182,2.891-2.013,4.56c0.908-1.542,3.11-0.895,2.662,1.401
				c-0.649,3.337-5.152,3.023-7.405,1.154c-2.974-2.466-5.838-7.259,4.451-19.945"/>
		</g>
		<g>
			<path class="st0" d="M529.494,342.134c0.955-1.179,2.024-2.425,3.22-3.745c6.14-6.791,6.634-12.412,4.55-15.691
				c-1.298-2.043-4.027-2.943-5.457-2.493c-2.378,0.75-3.182,2.891-2.013,4.56c0.908-1.542,3.11-0.895,2.662,1.401
				c-0.649,3.337-5.152,3.023-7.405,1.154c-2.974-2.466-5.838-7.259,4.451-19.945"/>
		</g>
		<g>
			<path class="st0" d="M529.494,376.898c0.955-1.18,2.024-2.426,3.22-3.745c6.14-6.791,6.634-12.411,4.55-15.691
				c-1.298-2.043-4.027-2.943-5.457-2.493c-2.378,0.749-3.182,2.89-2.013,4.56c0.908-1.542,3.11-0.895,2.662,1.401
				c-0.649,3.338-5.152,3.023-7.405,1.154c-2.974-2.467-5.838-7.259,4.451-19.945"/>
		</g>
		<g>
			<path class="st0" d="M529.494,411.662c0.955-1.18,2.024-2.426,3.22-3.744c6.14-6.791,6.634-12.412,4.55-15.692
				c-1.298-2.043-4.027-2.942-5.457-2.493c-2.378,0.75-3.182,2.891-2.013,4.561c0.908-1.542,3.11-0.896,2.662,1.4
				c-0.649,3.338-5.152,3.023-7.405,1.154c-2.974-2.467-5.838-7.259,4.451-19.945"/>
		</g>
		<g>
			<path class="st0" d="M529.494,446.425c0.955-1.18,2.024-2.426,3.22-3.744c6.14-6.791,6.634-12.412,4.55-15.692
				c-1.298-2.043-4.027-2.942-5.457-2.492c-2.378,0.749-3.182,2.89-2.013,4.56c0.908-1.542,3.11-0.896,2.662,1.401
				c-0.649,3.337-5.152,3.022-7.405,1.153c-2.974-2.467-5.838-7.259,4.451-19.945"/>
		</g>
		<g>
			<path class="st0" d="M529.494,481.189c0.955-1.179,2.024-2.426,3.22-3.744c6.14-6.791,6.634-12.412,4.55-15.692
				c-1.298-2.042-4.027-2.942-5.457-2.492c-2.378,0.749-3.182,2.891-2.013,4.56c0.908-1.542,3.11-0.895,2.662,1.401
				c-0.649,3.337-5.152,3.022-7.405,1.153c-2.974-2.466-5.838-7.259,4.451-19.945"/>
		</g>
		<g>
			<path class="st0" d="M529.494,515.953c0.955-1.179,2.024-2.425,3.22-3.744c6.14-6.791,6.634-12.412,4.55-15.691
				c-1.298-2.043-4.027-2.943-5.457-2.493c-2.378,0.749-3.182,2.891-2.013,4.56c0.908-1.542,3.11-0.895,2.662,1.401
				c-0.649,3.337-5.152,3.023-7.405,1.153c-2.974-2.466-5.838-7.259,4.451-19.944"/>
		</g>
		<g>
			<path class="st0" d="M529.494,550.716c0.955-1.179,2.024-2.425,3.22-3.744c6.14-6.791,6.634-12.411,4.55-15.691
				c-1.298-2.043-4.027-2.943-5.457-2.493c-2.378,0.749-3.182,2.891-2.013,4.56c0.908-1.542,3.11-0.895,2.662,1.401
				c-0.649,3.337-5.152,3.023-7.405,1.154c-2.974-2.467-5.838-7.26,4.451-19.945"/>
		</g>
		<g>
			<path class="st0" d="M529.494,585.481c0.955-1.18,2.024-2.426,3.22-3.745c6.14-6.791,6.634-12.411,4.55-15.691
				c-1.298-2.043-4.027-2.943-5.457-2.493c-2.378,0.75-3.182,2.891-2.013,4.56c0.908-1.542,3.11-0.895,2.662,1.401
				c-0.649,3.338-5.152,3.023-7.405,1.154c-2.974-2.467-5.838-7.26,4.451-19.945"/>
		</g>
		<g>
			<path class="st0" d="M529.494,620.245c0.955-1.18,2.024-2.426,3.22-3.745c6.14-6.791,6.634-12.411,4.55-15.691
				c-1.298-2.043-4.027-2.943-5.457-2.493c-2.378,0.75-3.182,2.891-2.013,4.56c0.908-1.541,3.11-0.895,2.662,1.401
				c-0.649,3.338-5.152,3.023-7.405,1.154c-2.974-2.467-5.838-7.26,4.451-19.945"/>
		</g>
		<g>
			<path class="st0" d="M529.494,655.008c0.955-1.18,2.024-2.426,3.22-3.744c6.14-6.791,6.634-12.412,4.55-15.692
				c-1.298-2.043-4.027-2.942-5.457-2.493c-2.378,0.75-3.182,2.891-2.013,4.561c0.908-1.542,3.11-0.896,2.662,1.4
				c-0.649,3.338-5.152,3.023-7.405,1.154c-2.974-2.467-5.838-7.259,4.451-19.945"/>
		</g>
		<g>
			<path class="st0" d="M529.494,689.772c0.955-1.18,2.024-2.426,3.22-3.744c6.14-6.791,6.634-12.412,4.55-15.692
				c-1.298-2.043-4.027-2.942-5.457-2.492c-2.378,0.749-3.182,2.89-2.013,4.56c0.908-1.542,3.11-0.896,2.662,1.401
				c-0.649,3.337-5.152,3.022-7.405,1.153c-2.974-2.467-5.838-7.259,4.451-19.945"/>
		</g>
		<g>
			<path class="st0" d="M475.458,709.494c1.164,0.955,2.395,2.024,3.696,3.22c6.705,6.14,12.254,6.634,15.492,4.55
				c2.018-1.298,2.906-4.027,2.462-5.457c-0.74-2.378-2.854-3.182-4.502-2.013c1.522,0.908,0.884,3.11-1.384,2.662
				c-3.295-0.649-2.984-5.152-1.139-7.405c2.435-2.974,7.167-5.838,19.691,4.451"/>
		</g>
		<g>
			<path class="st0" d="M441.136,709.494c1.164,0.955,2.395,2.024,3.696,3.22c6.705,6.14,12.254,6.634,15.492,4.55
				c2.018-1.298,2.906-4.027,2.462-5.457c-0.74-2.378-2.854-3.182-4.502-2.013c1.522,0.908,0.884,3.11-1.384,2.662
				c-3.295-0.649-2.984-5.152-1.139-7.405c2.435-2.974,7.167-5.838,19.691,4.451"/>
		</g>
		<g>
			<path class="st0" d="M406.813,709.494c1.165,0.955,2.396,2.024,3.697,3.22c6.705,6.14,12.254,6.634,15.492,4.55
				c2.018-1.298,2.906-4.027,2.462-5.457c-0.74-2.378-2.854-3.182-4.502-2.013c1.522,0.908,0.884,3.11-1.384,2.662
				c-3.295-0.649-2.984-5.152-1.139-7.405c2.435-2.974,7.167-5.838,19.691,4.451"/>
		</g>
		<g>
			<path class="st0" d="M372.491,709.494c1.165,0.955,2.396,2.024,3.697,3.22c6.705,6.14,12.254,6.634,15.492,4.55
				c2.018-1.298,2.906-4.027,2.462-5.457c-0.74-2.378-2.854-3.182-4.502-2.013c1.522,0.908,0.884,3.11-1.384,2.662
				c-3.295-0.649-2.984-5.152-1.139-7.405c2.435-2.974,7.167-5.838,19.691,4.451"/>
		</g>
		<g>
			<path class="st0" d="M338.168,709.494c1.165,0.955,2.396,2.024,3.697,3.22c6.705,6.14,12.254,6.634,15.492,4.55
				c2.018-1.298,2.906-4.027,2.462-5.457c-0.74-2.378-2.854-3.182-4.502-2.013c1.522,0.908,0.884,3.11-1.384,2.662
				c-3.295-0.649-2.984-5.152-1.139-7.405c2.435-2.974,7.167-5.838,19.691,4.451"/>
		</g>
		<g>
			<path class="st0" d="M303.846,709.494c1.165,0.955,2.396,2.024,3.697,3.22c6.705,6.14,12.254,6.634,15.492,4.55
				c2.018-1.298,2.906-4.027,2.462-5.457c-0.74-2.378-2.854-3.182-4.502-2.013c1.522,0.908,0.883,3.11-1.384,2.662
				c-3.295-0.649-2.984-5.152-1.139-7.405c2.435-2.974,7.167-5.838,19.691,4.451"/>
		</g>
		<g>
			<path class="st0" d="M269.524,709.494c1.165,0.955,2.394,2.024,3.697,3.22c6.705,6.14,12.254,6.634,15.492,4.55
				c2.018-1.298,2.906-4.027,2.462-5.457c-0.74-2.378-2.854-3.182-4.502-2.013c1.522,0.908,0.883,3.11-1.384,2.662
				c-3.295-0.649-2.984-5.152-1.139-7.405c2.435-2.974,7.166-5.838,19.691,4.451"/>
		</g>
		<g>
			<path class="st0" d="M235.202,709.494c1.165,0.955,2.395,2.024,3.697,3.22c6.705,6.14,12.254,6.634,15.492,4.55
				c2.017-1.298,2.906-4.027,2.461-5.457c-0.74-2.378-2.854-3.182-4.502-2.013c1.522,0.908,0.884,3.11-1.383,2.662
				c-3.295-0.649-2.985-5.152-1.139-7.405c2.435-2.974,7.167-5.838,19.692,4.451"/>
		</g>
		<g>
			<path class="st0" d="M200.879,709.494c1.165,0.955,2.395,2.024,3.697,3.22c6.705,6.14,12.254,6.634,15.492,4.55
				c2.017-1.298,2.906-4.027,2.461-5.457c-0.74-2.378-2.854-3.182-4.502-2.013c1.522,0.908,0.884,3.11-1.383,2.662
				c-3.295-0.649-2.985-5.152-1.139-7.405c2.435-2.974,7.167-5.838,19.692,4.451"/>
		</g>
		<g>
			<path class="st0" d="M166.557,709.494c1.165,0.955,2.395,2.024,3.697,3.22c6.705,6.14,12.254,6.634,15.492,4.55
				c2.017-1.298,2.906-4.027,2.461-5.457c-0.74-2.378-2.854-3.182-4.502-2.013c1.522,0.908,0.883,3.11-1.383,2.662
				c-3.295-0.649-2.985-5.152-1.139-7.405c2.435-2.974,7.167-5.838,19.692,4.451"/>
		</g>
		<g>
			<path class="st0" d="M132.235,709.494c1.165,0.955,2.395,2.024,3.697,3.22c6.705,6.14,12.254,6.634,15.493,4.55
				c2.017-1.298,2.906-4.027,2.461-5.457c-0.74-2.378-2.854-3.182-4.502-2.013c1.522,0.908,0.883,3.11-1.383,2.662
				c-3.295-0.649-2.985-5.152-1.139-7.405c2.435-2.974,7.167-5.838,19.692,4.451"/>
		</g>
		<g>
			<path class="st0" d="M97.913,709.494c1.165,0.955,2.395,2.024,3.697,3.22c6.705,6.14,12.254,6.634,15.493,4.55
				c2.017-1.298,2.906-4.027,2.461-5.457c-0.74-2.378-2.854-3.182-4.502-2.013c1.522,0.908,0.883,3.11-1.383,2.662
				c-3.295-0.649-2.985-5.152-1.139-7.405c2.435-2.974,7.167-5.838,19.692,4.451"/>
		</g>
		<g>
			<path class="st0" d="M63.59,709.494c1.165,0.955,2.395,2.024,3.697,3.22c6.705,6.14,12.254,6.634,15.493,4.55
				c2.017-1.298,2.906-4.027,2.461-5.457c-0.74-2.378-2.854-3.182-4.501-2.013c1.522,0.908,0.883,3.11-1.383,2.662
				c-3.295-0.649-2.985-5.152-1.139-7.405c2.435-2.974,7.167-5.838,19.692,4.451"/>
		</g>
		<g>
			<path class="st0" d="M29.268,709.494c1.164,0.955,2.395,2.024,3.697,3.22c6.705,6.14,12.254,6.634,15.493,4.55
				c2.017-1.298,2.905-4.027,2.461-5.457c-0.74-2.378-2.854-3.182-4.501-2.013c1.522,0.908,0.883,3.11-1.383,2.662
				c-3.295-0.649-2.985-5.152-1.14-7.405c2.435-2.974,7.167-5.838,19.692,4.451"/>
		</g>
		<g>
			<path class="st0" d="M9.55,29.265C19.502,16.984,11.274,6.01,6.538,6.663C4.193,6.985,4.209,9.479,5.933,10.01
				c-1.381,1.521-3.672,1.231-4.95-0.916c-0.768-1.289-0.499-4.153,1.22-5.887c3.207-3.229,9.699-4.093,18.101,0.705
				c1.888,1.003,5.786,3.147,8.963,5.629"/>
		</g>
		<g>
			<path class="st0" d="M509.776,9.55c12.28,9.952,23.254,1.724,22.602-3.012c-0.322-2.344-2.816-2.328-3.348-0.604
				c-1.521-1.381-1.23-3.672,0.915-4.95c1.289-0.768,4.153-0.499,5.887,1.22c3.229,3.207,4.093,9.699-0.704,18.101
				c-1.004,1.888-3.147,5.786-5.629,8.963"/>
		</g>
		<g>
			<path class="st0" d="M529.491,689.776c-9.952,12.28-1.725,23.255,3.012,22.602c2.345-0.322,2.328-2.816,0.604-3.348
				c1.381-1.521,3.673-1.23,4.95,0.915c0.768,1.289,0.499,4.153-1.22,5.887c-3.206,3.229-9.699,4.093-18.101-0.704
				c-1.888-1.004-5.786-3.147-8.963-5.629"/>
		</g>
		<g>
			<path class="st0" d="M29.265,709.491c-12.281-9.952-23.255-1.725-22.602,3.012c0.322,2.345,2.817,2.328,3.348,0.604
				c1.521,1.381,1.231,3.673-0.916,4.95c-1.289,0.768-4.153,0.499-5.887-1.22c-3.229-3.206-4.093-9.699,0.705-18.101
				c1.003-1.888,3.147-5.786,5.629-8.963"/>
		</g>
	</g>
</g>
</svg>
