<?xml version="1.0" encoding="utf-8"?>
<!-- Generator: Adobe Illustrator 14.0.0, SVG Export Plug-In . SVG Version: 6.00 Build 43363)  -->
<!DOCTYPE svg PUBLIC "-//W3C//DTD SVG 1.1//EN" "http://www.w3.org/Graphics/SVG/1.1/DTD/svg11.dtd">
<svg version="1.1" id="Nouveau_x5F_23_xA0_Image_1_"
	 xmlns="http://www.w3.org/2000/svg" xmlns:xlink="http://www.w3.org/1999/xlink" x="0px" y="0px" width="729px" height="969px"
	 viewBox="0 0 729 969" style="enable-background:new 0 0 729 969;" xml:space="preserve">
<style type="text/css">
<![CDATA[
	.st0{fill-rule:evenodd;clip-rule:evenodd;fill:none;stroke:#000000;stroke-width:3.0244;stroke-linecap:round;}
	.st1{fill-rule:evenodd;clip-rule:evenodd;fill:none;stroke:#000000;stroke-width:2.5981;stroke-linecap:round;}
	.st2{fill-rule:evenodd;clip-rule:evenodd;fill:none;stroke:#000000;stroke-width:2.1506;stroke-linecap:round;}
	.st3{fill-rule:evenodd;clip-rule:evenodd;fill:none;stroke:#000000;stroke-width:3.295;stroke-linecap:round;}
	.st4{fill-rule:evenodd;clip-rule:evenodd;fill:none;stroke:#000000;stroke-width:2.7646;stroke-linecap:round;}
	.st5{fill-rule:evenodd;clip-rule:evenodd;fill:none;stroke:#000000;stroke-width:2.6874;stroke-linecap:round;}
	.st6{fill-rule:evenodd;clip-rule:evenodd;fill:none;stroke:#000000;stroke-width:2.1162;stroke-linecap:round;}
	.st7{fill-rule:evenodd;clip-rule:evenodd;fill:none;stroke:#000000;stroke-width:2.952;stroke-linecap:round;}
	.st8{fill-rule:evenodd;clip-rule:evenodd;fill:none;stroke:#000000;stroke-width:4.0484;stroke-linecap:round;}
	.st9{fill-rule:evenodd;clip-rule:evenodd;fill:none;stroke:#000000;stroke-width:3.0571;stroke-linecap:round;}
	.st10{fill-rule:evenodd;clip-rule:evenodd;fill:none;stroke:#000000;stroke-width:2.2937;stroke-linecap:round;}
	.st11{fill-rule:evenodd;clip-rule:evenodd;fill:none;stroke:#000000;stroke-width:3;stroke-linecap:round;}
	.st12{fill-rule:evenodd;clip-rule:evenodd;fill:none;stroke:#000000;stroke-width:2.2458;stroke-linecap:round;}
	.st13{fill-rule:evenodd;clip-rule:evenodd;fill:none;stroke:#000000;stroke-width:3.132;stroke-linecap:round;}
	.st14{fill-rule:evenodd;clip-rule:evenodd;fill:none;stroke:#000000;stroke-width:3.1182;stroke-linecap:round;}
	.st15{fill-rule:evenodd;clip-rule:evenodd;fill:none;stroke:#000000;stroke-width:2.8087;stroke-linecap:round;}
	.st16{fill-rule:evenodd;clip-rule:evenodd;fill:none;stroke:#000000;stroke-width:3.0149;stroke-linecap:round;}
	.st17{fill-rule:evenodd;clip-rule:evenodd;fill:none;stroke:#000000;stroke-width:3.221;stroke-linecap:round;}
	.st18{fill-rule:evenodd;clip-rule:evenodd;fill:none;stroke:#000000;stroke-width:4.9777;stroke-linecap:round;}
	.st19{fill-rule:evenodd;clip-rule:evenodd;fill:none;stroke:#000000;stroke-width:3.1289;stroke-linecap:round;}
	.st20{fill-rule:evenodd;clip-rule:evenodd;fill:none;stroke:#000000;stroke-width:2.7505;stroke-linecap:round;}
	.st21{fill-rule:evenodd;clip-rule:evenodd;fill:none;stroke:#000000;stroke-width:2.4495;stroke-linecap:round;}
	.st22{fill-rule:evenodd;clip-rule:evenodd;fill:none;stroke:#000000;stroke-width:3.1449;stroke-linecap:round;}
	.st23{fill-rule:evenodd;clip-rule:evenodd;fill:none;stroke:#000000;stroke-width:4.0423;stroke-linecap:round;}
	.st24{fill-rule:evenodd;clip-rule:evenodd;fill:none;stroke:#000000;stroke-width:3.1623;stroke-linecap:round;}
	.st25{fill:#000000;fill-rule:evenodd;clip-rule:evenodd;}
	.st26{fill-rule:evenodd;clip-rule:evenodd;fill:none;stroke:#000000;stroke-width:2.5495;stroke-linecap:round;}
	.st27{fill-rule:evenodd;clip-rule:evenodd;fill:none;stroke:#000000;stroke-width:3.6228;stroke-linecap:round;}
	.st28{fill-rule:evenodd;clip-rule:evenodd;fill:none;stroke:#000000;stroke-width:3.2293;stroke-linecap:round;}
	.st29{fill-rule:evenodd;clip-rule:evenodd;fill:none;stroke:#000000;stroke-width:2.9716;stroke-linecap:round;}
	.st30{fill-rule:evenodd;clip-rule:evenodd;fill:none;stroke:#000000;stroke-width:3.1189;stroke-linecap:round;}
	.st31{fill-rule:evenodd;clip-rule:evenodd;fill:none;stroke:#000000;stroke-width:2.8715;stroke-linecap:round;}
	.st32{fill-rule:evenodd;clip-rule:evenodd;fill:none;stroke:#000000;stroke-width:3.9097;stroke-linecap:round;}
	.st33{fill-rule:evenodd;clip-rule:evenodd;fill:none;stroke:#000000;stroke-width:3.5119;stroke-linecap:round;}
	.st34{fill-rule:evenodd;clip-rule:evenodd;fill:none;stroke:#000000;stroke-width:4.9855;stroke-linecap:round;}
	.st35{fill-rule:evenodd;clip-rule:evenodd;fill:none;stroke:#000000;stroke-width:2.582;stroke-linecap:round;}
	.st36{fill-rule:evenodd;clip-rule:evenodd;fill:none;stroke:#000000;stroke-width:1.9149;stroke-linecap:round;}
]]>
</style>
<g>
	<g>
		<path class="st25" d="M24,17c-3.163,5.504-5.808,11.526-11,15c-4.19,1.19-1.785-4.215-4-5c-1.378,1.289-0.99,4.344-1,7l-1.833-0.5
			L5,35c-2.51-6.198,0.162-15.823,4-19c2.91-2.792,3.772,2.104,5,4c3.279-1.387,4.546-4.788,8-6l0.7,1.7L24,17z"/>
		<path class="st25" d="M6.833,940.5L8,939c0.851-0.184,0.943,0.39,1,1c1.717,3.229,0.021-5.197,3-4c6.344,1.989,7.58,9.087,11,14
			l-1.3,1.3L21,953c-2.276-1.391-3.874-3.459-6-5c-3.636,0.73-2.29,7.038-7,4c-1.744-3.256-3.781-6.22-3-12L6.833,940.5z"/>
		<path class="st25" d="M703,12c4.894,1.106,5.93,6.071,10,8c3.342-1.025,2.202-7.126,7-4c2.028,3.305,3.74,6.927,3,13l-1.833-0.5
			L720,30c-0.973-0.027-0.775-1.224-1-2c-1.693-2.587,0.029,6.617-5,4c-4.469-5.197-7.928-11.406-12-17l1.357-1.214L703,12z"/>
		<path class="st25" d="M721.833,936.5L723,935c2.071,5.096-0.403,14.245-4,17c-2.91,2.792-3.772-2.104-5-4
			c-4.213,0.454-4.604,4.729-8,6l-0.7-1.7L704,951c2.843-5.824,5.977-11.357,11-15c4.19-1.19,1.785,4.215,4,5
			c-0.409-2.409,1.826-2.174,1-5L721.833,936.5z"/>
		<path class="st25" d="M13,12c-1.567-2.433-6.608-1.392-6-6c2.819-2.089,8.805-0.662,11,1l-1.5,1.167L17,10c-0.667,0-1.333,0-2,0
			l-1.5,0.5L13,12z"/>
		<path class="st25" d="M710,7c2.195-1.662,8.182-3.089,11-1c-0.343,3.658-3.424,4.576-6,6l-0.5-1.5L713,10c-0.667,0-1.333,0-2,0
			l0.5-1.833L710,7z"/>
		<path class="st25" d="M712.5,12.5L714,13c0.086,1.419,0.165,2.832-1,3c-3.417,0.75-1.271-4.063-5-3c0.15-1.85,3.387-0.614,4-2
			L712.5,12.5z"/>
		<path class="st25" d="M689,12c1.514-3.024,4.389,0.829,7,0c0.033,3.033-3.509,2.492-6,3l0.5-1.833L689,12z"/>
		<path class="st25" d="M52,58c-1.248,2.418-4.099,3.234-7,4c-1.383-2.617-4.832-3.168-5-7c2.925-1.497,6.499,2.338,11,0l-0.5,1.833
			L52,58z"/>
		<path class="st25" d="M677,55c4.359,0.764,9.263-1.237,11,0c-1.216,2.784-2.488,5.512-5,7c-2.983-0.684-6.121-1.212-7-4l1.5-1.167
			L677,55z"/>
		<path class="st25" d="M41,50c4.496-5.692-2.263-8.098-2-15c3.059,0.726,2.941-1.725,6-1l-0.5,1.833L46,37
			c-0.26,3.26,1.187,4.813,4,5c0.354-1.313,1.761-1.573,2-3l2.667-0.333L55,36c0.086-1.419,0.165-2.832-1-3l0.5-1.833L53,30
			c0.31-1.357,2.504-0.83,4-1c5.754,10.985-5.628,20.628-15,23l0.5-1.5L41,50z"/>
		<path class="st25" d="M685,52c-8.307-3.121-20.078-11.999-14-23c1.583,0.083,3.814-0.481,4,1l-1.5,1.167L674,33
			c-1.172,0.162-0.844,1.823-1,3l0.333,2.667L676,39c0.529,0.804,1.043,1.624,1,3c3.562,0.229,5.229-1.438,5-5l1.5-1.167L683,34
			c3.059-0.725,2.941,1.725,6,1c0.139,5.891-6.02,8.25-3,14l-1.357,1.214L685,52z"/>
		<path class="st25" d="M700.5,41.167L699,40c1.444-2.686,4.051-7.972,7-6c0,3.333,0,6.667,0,10l-1.833-0.5L703,45
			c-0.973-0.027-0.775-1.224-1-2c-0.667,0-1.333,0-2,0L700.5,41.167z"/>
		<path class="st25" d="M710.833,55.5L709,56c1.235-3.236-3.235-0.764-2-4c2.492-1.508,4.906-3.094,8-4c0.238,4.239-0.079,7.921-3,9
			L710.833,55.5z"/>
		<path class="st25" d="M29,44c-1.163,0.163-1.779-0.221-2-1c-0.89,0.443-1.789,0.878-2,2l-1.5-0.5L22,44
			c-2.658-2.724,0.257-8.36,1-11c3.245,1.755,4.999,5.001,7,8l-1.357,1.214L29,44z"/>
		<path class="st25" d="M17.167,54.5L16,56c-4.335,0.668-2.692-4.641-3-8c3.341,0.659,4.891,3.109,8,4c0.55,2.217-1.91,1.424-2,3
			L17.167,54.5z"/>
		<path class="st25" d="M25,924c1.987,1.666,1.271-0.091,4,0l-0.357,1.786L30,927c-1.913,2.754-4.087,5.246-6,8
			c-3.485-0.515-1.466-6.533-2-10l1.833,0.5L25,924z"/>
		<path class="st25" d="M17.167,912.5L19,912c-0.423,1.924,0.686,3.609,1,2c3.374,3.766-5.807,3.483-6,7
			c-2.366-2.433-0.868-9.484,2-10L17.167,912.5z"/>
		<path class="st25" d="M700,925c1.615,0.282,1.722-0.945,3-1l1.167,1.5L706,925c2.105,2.225-1.054,4.822,0,9
			c-2.949,1.972-5.556-3.313-7-6l1.5-1.167L700,925z"/>
		<path class="st25" d="M710.833,913.5L712,912c3.723-0.056,2.884,4.449,3,8c-3.341-0.659-4.891-3.109-8-4
			c-0.551-2.218,1.91-1.424,2-3L710.833,913.5z"/>
		<path class="st25" d="M51,913c-4.359-0.764-9.262,1.237-11,0c0.755-6.862,8.49-8.571,12-3l-1.5,1.167L51,913z"/>
		<path class="st25" d="M676,910c3.409-5.992,10.954-3.465,12,3c-1.737,1.237-6.641-0.764-11,0l0.5-1.833L676,910z"/>
		<path class="st25" d="M42,916c7.785,2.549,13.945,6.722,16,15l-1.833-0.5L55,932l-0.333-2.667L52,929
			c-0.924-4.261-6.818-3.288-6,2l-1.5,1.167L45,934c-3.059,0.726-2.941-1.726-6-1c-0.519-5.186,3.134-6.199,4-10
			c-0.429-1.904-2.154-2.513-2-5l1.5-0.5L42,916z"/>
		<path class="st25" d="M687,918c-0.86,0.807-0.594,2.739-2,3c-0.128,5.462,4.128,6.538,4,12c-3.059-0.726-2.941,1.726-6,1
			l0.5-1.833L682,931c-0.564-2.436-0.856-5.144-4-5c-0.354,1.313-1.761,1.573-2,3l-2.667,0.333L673,932
			c-0.086,1.419-0.165,2.832,1,3l-0.5,1.833L675,938c-0.31,1.357-2.504,0.83-4,1c-5.888-11.119,5.647-20.609,15-23l-0.5,1.5L687,918
			z"/>
		<path class="st25" d="M39,956c-1.513,3.024-4.389-0.829-7,0c-0.033-3.033,3.508-2.491,6-3l-0.5,1.833L39,956z"/>
		<path class="st25" d="M15,958c0.667,0,1.333,0,2,0l-0.5,1.833L18,961c-1.507,1.971-9.967,3.719-11,0c0.455-3.211,3.892-3.441,6-5
			l0.5,1.5L15,958z"/>
		<path class="st25" d="M715,957c3.024,0.643,5.771,1.563,6,5c-2.818,2.089-8.805,0.661-11-1l1.5-1.167L711,958
			c1.162,0.162,1.779-0.221,2-1l1,0.5L715,957z"/>
		<g>
			<path class="st16" d="M57.5,957.5c-11.131,9.108-27.003,3.391-35.8-6.2"/>
			<path class="st8" d="M6.833,940.5C8.865,872.98,8,781.371,8,704.5c0-199.524,0-407.055,0-607c0-21.505,1.196-46.133-1.833-64"/>
			<path class="st13" d="M22.7,15.7c8.641-9.094,24.209-13.437,34.8-5.2"/>
			<path class="st0" d="M670.5,957.5c10.611,8.707,25.919,3.625,34.8-5.2"/>
			<path class="st23" d="M721.833,936.5c-3.344-70.884-1.833-160.094-1.833-242c0-179.817,0-363.058,0-544
				c0-41.827-0.818-82.471,1.167-122"/>
			<path class="st29" d="M670.5,10.5c10.007-8.296,23.834-4.235,32.857,3.286"/>
			<path class="st15" d="M21.5,9c-1.667-0.352-3.333-0.439-5-0.833"/>
			<path class="st21" d="M15.5,12.5c-0.809-0.524-1.41-1.257-2-2"/>
			<path class="st26" d="M712.5,12.5c0.81-0.524,1.409-1.257,2-2"/>
			<path class="st15" d="M706.5,9c1.667-0.352,3.333-0.439,5-0.833"/>
			<path class="st34" d="M35.5,12.5c4.738,1.607,13.93,3.433,22.444,3.931c47.845,2.8,99.718,0.069,152.556,0.069
				c98.96,0,205.665,0,306,0c53.304,0,104.689,1.833,151.444-0.08c7.935-0.325,15.926-1.657,22.556-3.254"/>
			<path class="st29" d="M50.5,56.833c10.818-6.555,17.155-19.879,15-32.333"/>
			<path class="st9" d="M677.5,56.833c-10.88-6.302-17.158-19.988-15-32.333"/>
			<path class="st3" d="M44.5,35.833c1.802-1.105,3.848-1.917,6-1.833"/>
			<path class="st33" d="M50.5,34c0.25-1.001,2.429-2.356,4-2.833"/>
			<path class="st10" d="M30.5,54c4.181-0.5,8.349-0.886,12-3.5"/>
			<path class="st32" d="M50.5,34c0.644,2.095,2.49,3.426,4.167,4.667"/>
			<path class="st24" d="M673.5,31.167c1.863,0.202,2.979,1.798,3.857,3.119"/>
			<path class="st17" d="M677.357,34.286c2.197-0.17,4.28,0.41,6.143,1.548"/>
			<path class="st20" d="M689.833,52.167c2.849-4.127,6.582-8.022,10.667-11"/>
			<path class="st22" d="M710.833,55.5c-3.103,3.133-3.187,7.81-4.605,11.528c-1.732,0.812-4.025,0.335-5.528-0.725
				c-0.317-0.467-0.473-0.762-0.62-1.049c2.036-7.015,5.017-14.312,4.088-21.753"/>
			<path class="st2" d="M689.833,52.167c0.11,0.173,0.22,0.345,0.33,0.518c2.67-0.046,4.607,1.721,7.337,1.315"/>
			<path class="st5" d="M689.833,52.167c-1.873-0.214-3.429-1.377-5.19-1.952"/>
			<path class="st32" d="M677.357,34.286c-0.623,1.986-2.466,3.177-4.024,4.381"/>
			<path class="st19" d="M23.5,44.5c0.068,7.088,1.969,14.058,4.432,20.667c-0.732,2.243-4.321,2.823-6.215,1.807
				c-1.349-4.153-2.446-8.495-4.55-12.473"/>
			<path class="st35" d="M35.167,48.833c-2.26-2.119-3.794-5.055-6.523-6.619"/>
			<path class="st1" d="M28.643,925.786c2.644-1.631,4.32-4.471,6.523-6.619"/>
			<path class="st30" d="M17.167,912.5c2.051-3.273,4.102-6.879,3.868-10.878c1.236-1.854,3.722-0.477,5.474-0.473
				c0.818,0.591,1.078,1.159,1.409,1.609c-2.534,7.19-5.26,14.904-4.084,22.741"/>
			<path class="st14" d="M710.833,913.5c-2.547-3.814-2.96-8.512-4.604-12.534c-1.736-0.801-4.025-0.331-5.529,0.731
				c-0.317,0.467-0.473,0.762-0.62,1.049c2.149,7.329,5.189,14.954,4.088,22.754"/>
			<path class="st4" d="M700.5,926.833c-3.227-1.765-5.214-5.048-7.667-7.666"/>
			<path class="st31" d="M65.5,943.5c1.873-12.4-4.115-25.79-15-32.333"/>
			<path class="st7" d="M662.5,943.5c-2.875-12.036,4.342-26.166,15-32.333"/>
			<path class="st6" d="M30.5,914c4.099,0.532,8.454,0.968,12,3.5"/>
			<path class="st28" d="M44.5,932.167c1.782,1.241,4.003,1.652,6.143,1.547"/>
			<path class="st32" d="M50.643,933.714c0.622-1.985,2.465-3.177,4.023-4.381"/>
			<path class="st27" d="M50.643,933.714c0.559,1.927,2.292,2.826,4.108,3.23c2.992-0.632,2.409-4.389,1.416-6.444"/>
			<path class="st12" d="M685.5,917.5c3.436-2.418,7.807-3.236,12-3.5"/>
			<path class="st17" d="M677.357,933.714c2.197,0.171,4.28-0.41,6.143-1.547"/>
			<path class="st24" d="M673.5,936.833c1.863-0.201,2.979-1.798,3.857-3.119"/>
			<path class="st32" d="M677.357,933.714c-0.622-1.985-2.466-3.177-4.024-4.381"/>
			<path class="st18" d="M37.5,954.833c5.488-1.569,14.679-2.967,23.444-3.264c89.964-3.05,195.402-0.067,301.556-0.069
				c104.354-0.002,210.001-2.579,300.444,0.08c11.485,0.337,21.601,1.2,29.556,3.92"/>
			<path class="st15" d="M16.5,959.833c1.667-0.244,3.333-0.61,5-0.833"/>
			<path class="st21" d="M13.5,957.5c0.524-0.81,1.257-1.409,2-2"/>
			<path class="st11" d="M711.5,959.833c-1.667-0.32-3.333-0.231-5-0.833"/>
			<path class="st36" d="M714,957.5c-0.442-0.788-0.99-1.354-1.5-2"/>
		</g>
	</g>
</g>
</svg>
