<?xml version="1.0" encoding="utf-8"?>
<!-- Generator: Adobe Illustrator 14.0.0, SVG Export Plug-In . SVG Version: 6.00 Build 43363)  -->
<!DOCTYPE svg PUBLIC "-//W3C//DTD SVG 1.1//EN" "http://www.w3.org/Graphics/SVG/1.1/DTD/svg11.dtd">
<svg version="1.1" xmlns="http://www.w3.org/2000/svg" xmlns:xlink="http://www.w3.org/1999/xlink" x="0px" y="0px"
	 width="530.334px" height="703.82px" viewBox="0 0 530.334 703.82" style="enable-background:new 0 0 530.334 703.82;"
	 xml:space="preserve">
<style type="text/css">
<![CDATA[
	.st0{fill:#FFDE00;}
	.st1{fill:#302935;}
]]>
</style>
<g id="Layer_2">
</g>
<g id="Layer_1">
	<path class="st1" d="M530.334,0.017h-33.812V0h-57.829h-0.088h-57.74h-0.089h-57.739h-0.089h-57.739h-0.089h-57.74h-0.088h-57.74
		h-0.089H91.724h-0.089H33.807v0.005L0.017,0.001v33.812H0v57.828v0.089v57.74v0.089v57.739v0.089v57.74v0.089v57.74v0.088v57.74
		v0.089v57.739v0.089v57.739v0.089v57.74v0.088v57.74v0.089v57.828h0.005l-0.004,33.79h33.811v0.017h57.829h0.089h57.739h0.089
		h57.739h0.089h57.74h0.089h57.739h0.089h57.739h0.089h57.739h0.089h57.829v-0.005l33.789,0.004v-33.812h0.017V612.18v-0.089
		v-57.739v-0.089v-57.74v-0.089v-57.739v-0.089v-57.739v-0.089v-57.74v-0.089v-57.74v-0.089v-57.739v-0.089v-57.74v-0.089v-57.74
		v-0.089V33.807h-0.005L530.334,0.017z M438.699,674.759h-0.089h-57.739h-0.089h-57.739h-0.089h-57.739h-0.089h-57.74h-0.089
		h-57.739h-0.089H91.729h-0.089H33.899v-0.013h-4.821v-4.831h-0.017v-57.729v-0.089v-57.74v-0.088v-57.74v-0.089V438.7v-0.089
		v-57.739v-0.089v-57.74v-0.088v-57.74v-0.089v-57.74v-0.089v-57.739v-0.089v-57.74v-0.089V33.9h0.013v-4.822h4.83v-0.017h57.73
		h0.089h57.739h0.089h57.74h0.088h57.74h0.089h57.739h0.089h57.739h0.089h57.74h0.088h57.741v0.013h4.821v4.831h0.017v57.73v0.089
		v57.74v0.089v57.74v0.089v57.739v0.089v57.74v0.089v57.74v0.089v57.739v0.089v57.739v0.089v57.74v0.089v57.739v0.089v57.741h-0.013
		v4.821h-4.83v0.017H438.699z"/>
</g>
<g id="Layer_3">
	<path class="st0" d="M530.328,48.271v-9.75h-9.651v-4.714h-0.006v-4.739h9.644v-9.751h-9.652V9.764h9.652V0.013h-9.752v9.651
		h-9.553V0.013h-9.752v9.651h-4.735V9.658h-4.847V0.007h-9.751v9.651h-9.552V0.007h-9.752v9.651h-9.553V0.007h-9.75v9.651h-4.625
		h-0.088h-4.758V0.007h-9.751v9.651h-9.552V0.007h-9.752v9.651h-9.553V0.007h-9.75v9.651h-4.625h-0.089h-4.758V0.007h-9.75v9.651
		h-9.552V0.007h-9.752v9.651h-9.553V0.007h-9.75v9.651h-4.625h-0.089h-4.758V0.007h-9.751v9.651h-9.552V0.007h-9.752v9.651h-9.553
		V0.007h-9.749v9.651h-4.625h-0.089h-4.757V0.007h-9.751v9.651h-9.552V0.007h-9.752v9.651h-9.553V0.007h-9.75v9.651h-4.625h-0.088
		h-4.758V0.007h-9.75v9.651h-9.552V0.007h-9.751v9.651h-9.553V0.007h-9.75v9.651h-4.625h-0.089h-4.758V0.007h-9.75v9.651h-9.552
		V0.007h-9.752v9.651h-9.553V0.007h-9.75v9.651h-4.625h-0.089h-4.757V0.007h-9.75v9.651h-9.552V0.007h-9.752v9.651H48.27V0.007
		h-9.75v9.651h-4.714v0.006h-4.739V0.02h-9.752v9.653H9.763V0.02H0.012v9.751h9.651v9.554H0.012v9.751h9.651v4.736H9.657v4.846
		H0.006v9.75h9.651v9.552H0.006v9.752h9.651v9.552H0.006v9.75h9.651v4.625v0.089v4.758H0.006v9.75h9.651v9.552H0.006v9.752h9.651
		v9.553H0.006v9.75h9.651v4.625v0.089v4.757H0.006v9.751h9.651v9.552H0.006v9.752h9.651v9.553H0.006v9.75h9.651v4.625v0.089v4.758
		H0.006v9.75h9.651v9.552H0.006v9.751h9.651v9.553H0.006v9.75h9.651v4.625v0.089v4.758H0.006v9.75h9.651v9.552H0.006v9.752h9.651
		v9.553H0.006v9.75h9.651v4.625v0.088v4.758H0.006v9.75h9.651v9.552H0.006v9.752h9.651v9.553H0.006v9.75h9.651v4.625v0.089v4.757
		H0.006v9.751h9.651v9.552H0.006v9.752h9.651v9.553H0.006v9.75h9.651v4.625v0.089v4.758H0.006v9.75h9.651v9.553H0.006v9.751h9.651
		v9.553H0.006v9.75h9.651v4.625v0.089v4.758H0.006v9.751h9.651v9.552H0.006v9.752h9.651v9.553H0.006v9.75h9.651v4.625v0.088v4.758
		H0.006v9.751h9.651v9.552H0.006v9.752h9.651v9.553H0.006v9.75h9.651v4.625v0.089v4.758H0.006v9.75h9.651v9.552H0.006v9.752h9.651
		v9.553H0.006v9.75h9.651v4.714h0.006v4.738H0.02v9.752h9.653v9.553H0.02v9.751h9.751v-9.651h9.554v9.651h9.751v-9.651h4.736v0.007
		h4.847v9.65h9.75v-9.65h9.552v9.65h9.751v-9.65h9.553v9.65h9.75v-9.65h4.625h0.089h4.758v9.65h9.75v-9.65h9.552v9.65h9.752v-9.65
		h9.553v9.65h9.75v-9.65h4.625h0.089h4.757v9.65h9.75v-9.65h9.552v9.65h9.752v-9.65h9.552v9.65h9.75v-9.65h4.625h0.089h4.758v9.65
		h9.75v-9.65h9.552v9.65h9.751v-9.65h9.553v9.65h9.75v-9.65h4.625h0.089h4.757v9.65h9.751v-9.65h9.552v9.65h9.752v-9.65h9.553v9.65
		h9.75v-9.65h4.625h0.089h4.758v9.65h9.75v-9.65h9.552v9.65h9.752v-9.65h9.553v9.65h9.75v-9.65h4.625h0.089h4.758v9.65h9.75v-9.65
		h9.553v9.65h9.752v-9.65h9.552v9.65h9.75v-9.65h4.625h0.089h4.758v9.65h9.751v-9.65h9.552v9.65h9.752v-9.65h9.553v9.65h9.75v-9.65
		h4.714v-0.007h4.738v9.645h9.752v-9.653h9.553v9.653h9.75v-9.752h-9.65v-9.554h9.65v-9.751h-9.65v-4.736h0.006v-4.847h9.651v-9.75
		h-9.651v-9.552h9.651v-9.752h-9.651v-9.553h9.651v-9.75h-9.651v-4.625v-0.089v-4.758h9.651v-9.75h-9.651v-9.553h9.651v-9.752
		h-9.651v-9.552h9.651v-9.75h-9.651v-4.625v-0.089v-4.758h9.651v-9.751h-9.651v-9.552h9.651v-9.752h-9.651v-9.553h9.651v-9.75
		h-9.651v-4.625v-0.089v-4.757h9.651v-9.751h-9.651v-9.552h9.651v-9.752h-9.651v-9.553h9.651v-9.75h-9.651v-4.625v-0.089v-4.758
		h9.651v-9.75h-9.651v-9.553h9.651v-9.751h-9.651v-9.553h9.651v-9.75h-9.651v-4.625v-0.089v-4.758h9.651v-9.751h-9.651v-9.552h9.651
		v-9.752h-9.651v-9.552h9.651v-9.75h-9.651v-4.625v-0.089v-4.758h9.651v-9.75h-9.651v-9.552h9.651v-9.752h-9.651v-9.553h9.651v-9.75
		h-9.651v-4.625v-0.089v-4.757h9.651v-9.75h-9.651v-9.552h9.651v-9.752h-9.651v-9.553h9.651v-9.75h-9.651v-4.625v-0.089v-4.758
		h9.651v-9.75h-9.651v-9.552h9.651v-9.751h-9.651v-9.553h9.651v-9.75h-9.651v-4.625v-0.089v-4.757h9.651v-9.751h-9.651v-9.552h9.651
		v-9.752h-9.651v-9.553h9.651v-9.75h-9.651v-4.625v-0.089v-4.757h9.651v-9.75h-9.651v-9.552h9.651v-9.752h-9.651v-9.552H530.328z
		 M443.557,684.512h9.552v9.552h-9.552V684.512z M462.859,684.512h9.553v9.552h-9.553V684.512z M482.164,684.512h9.551v9.552h-9.551
		V684.512z M491.814,684.412v-9.651h-9.75v9.651h-9.553v-9.651h-9.752v9.651h-9.552v-9.651h-9.751v9.651h-4.758h-0.089h-4.625
		v-9.651h-9.75v9.651h-9.552v-9.651h-9.752v9.651h-9.553v-9.651h-9.75v9.651h-4.758h-0.089h-4.625v-9.651h-9.75v9.651h-9.553v-9.651
		h-9.752v9.651h-9.552v-9.651h-9.75v9.651h-4.758h-0.089h-4.625v-9.651h-9.75v9.651h-9.553v-9.651h-9.752v9.651h-9.552v-9.651
		h-9.751v9.651h-4.757h-0.089H260.5v-9.651h-9.75v9.651h-9.553v-9.651h-9.751v9.651h-9.552v-9.651h-9.75v9.651h-4.758h-0.089h-4.625
		v-9.651h-9.75v9.651h-9.552v-9.651h-9.752v9.651h-9.552v-9.651h-9.75v9.651h-4.757h-0.089h-4.625v-9.651h-9.75v9.651h-9.553v-9.651
		h-9.752v9.651h-9.552v-9.651h-9.75v9.651h-4.758H91.64h-4.625v-9.651h-9.75v9.651h-9.553v-9.651h-9.751v9.651h-9.552v-9.651h-9.75
		v9.651h-4.759v-0.008h-4.824v-9.652h-9.662v-4.837h-0.006V665.3h9.651v-9.75h-9.651v-9.553h9.651v-9.752h-9.651v-9.552h9.651v-9.75
		h-9.651v-4.758v-0.089v-4.625h9.651v-9.75h-9.651v-9.553h9.651v-9.752h-9.651v-9.552h9.651v-9.751h-9.651v-4.758v-0.088v-4.625
		h9.651v-9.75h-9.651v-9.553h9.651v-9.752h-9.651v-9.552h9.651v-9.751h-9.651v-4.758v-0.089v-4.625h9.651v-9.75h-9.651v-9.553h9.651
		v-9.751h-9.651v-9.553h9.651v-9.75h-9.651V438.7v-0.089v-4.625h9.651v-9.75h-9.651v-9.553h9.651v-9.752h-9.651v-9.552h9.651v-9.751
		h-9.651v-4.757v-0.089v-4.625h9.651v-9.75h-9.651v-9.553h9.651v-9.752h-9.651v-9.552h9.651v-9.75h-9.651v-4.758v-0.088v-4.625
		h9.651v-9.75h-9.651v-9.553h9.651v-9.752h-9.651v-9.552h9.651v-9.75h-9.651v-4.758v-0.089v-4.625h9.651v-9.75h-9.651v-9.553h9.651
		v-9.751h-9.651v-9.552h9.651v-9.75h-9.651v-4.758v-0.089v-4.625h9.651v-9.75h-9.651v-9.553h9.651v-9.752h-9.651v-9.552h9.651
		v-9.751h-9.651v-4.757v-0.089v-4.625h9.651v-9.75h-9.651v-9.553h9.651v-9.752h-9.651v-9.552h9.651v-9.75h-9.651v-4.758v-0.089
		v-4.625h9.651v-9.75h-9.651v-9.552h9.651v-9.752h-9.651v-9.552h9.651v-9.75h-9.651V33.9h0.007v-4.824h9.652v-9.662h4.837v-0.006
		h4.616v9.651h9.75v-9.651h9.553v9.651h9.752v-9.651h9.552v9.651h9.75v-9.651h4.757h0.089h4.625v9.651h9.75v-9.651h9.553v9.651
		h9.752v-9.651h9.552v9.651h9.75v-9.651h4.758h0.089h4.625v9.651h9.75v-9.651h9.553v9.651h9.751v-9.651h9.552v9.651h9.75v-9.651
		h4.758h0.088h4.625v9.651h9.75v-9.651h9.553v9.651h9.752v-9.651h9.552v9.651h9.751v-9.651h4.757h0.089h4.625v9.651h9.749v-9.651
		h9.553v9.651h9.752v-9.651h9.552v9.651h9.751v-9.651h4.758h0.089h4.625v9.651h9.75v-9.651h9.553v9.651h9.752v-9.651h9.552v9.651
		h9.75v-9.651h4.758h0.089h4.625v9.651h9.75v-9.651h9.553v9.651h9.752v-9.651h9.552v9.651h9.751v-9.651h4.758h0.088h4.625v9.651
		h9.75v-9.651h9.553v9.651h9.752v-9.651h9.552v9.651h9.751v-9.651h4.759v0.008h4.823v9.652h9.662v4.837h0.007v4.616h-9.651v9.75
		h9.651v9.552h-9.651v9.752h9.651v9.552h-9.651v9.75h9.651v4.757v0.089v4.625h-9.651v9.75h9.651v9.553h-9.651v9.752h9.651v9.552
		h-9.651v9.751h9.651v4.757v0.089v4.625h-9.651v9.75h9.651v9.553h-9.651v9.751h9.651v9.552h-9.651v9.75h9.651v4.758v0.089v4.625
		h-9.651v9.75h9.651v9.553h-9.651v9.752h9.651v9.552h-9.651v9.75h9.651v4.757v0.089v4.625h-9.651v9.75h9.651v9.553h-9.651v9.752
		h9.651v9.552h-9.651v9.75h9.651v4.758v0.089v4.625h-9.651v9.75h9.651v9.552h-9.651v9.752h9.651v9.552h-9.651v9.751h9.651v4.758
		v0.089v4.625h-9.651v9.75h9.651v9.553h-9.651v9.751h9.651v9.553h-9.651v9.75h9.651v4.758v0.089v4.625h-9.651v9.75h9.651v9.553
		h-9.651v9.752h9.651v9.552h-9.651v9.751h9.651v4.757v0.089v4.625h-9.651v9.75h9.651v9.553h-9.651v9.752h9.651v9.552h-9.651v9.751
		h9.651v4.758v0.089v4.625h-9.651v9.75h9.651v9.552h-9.651v9.752h9.651v9.553h-9.651v9.75h9.651v4.758v0.089v4.625h-9.651v9.75
		h9.651v9.553h-9.651v9.752h9.651v9.552h-9.651v9.75h9.651v4.76h-0.008v4.823h-9.652v9.662h-4.837v0.006H491.814z M385.729,684.512
		h9.551v9.552h-9.551V684.512z M405.031,684.512h9.553v9.552h-9.553V684.512z M424.335,684.512h9.551v9.552h-9.551V684.512z
		 M327.9,684.512h9.551v9.552H327.9V684.512z M347.202,684.512h9.553v9.552h-9.553V684.512z M366.507,684.512h9.551v9.552h-9.551
		V684.512z M270.071,684.512h9.552v9.552h-9.552V684.512z M289.374,684.512h9.553v9.552h-9.553V684.512z M308.679,684.512h9.551
		v9.552h-9.551V684.512z M212.243,684.512h9.551v9.552h-9.551V684.512z M231.546,684.512h9.552v9.552h-9.552V684.512z
		 M250.85,684.512h9.551v9.552h-9.551V684.512z M154.415,684.512h9.551v9.552h-9.551V684.512z M173.717,684.512h9.553v9.552h-9.553
		V684.512z M193.021,684.512h9.551v9.552h-9.551V684.512z M96.586,684.512h9.551v9.552h-9.551V684.512z M115.889,684.512h9.553
		v9.552h-9.553V684.512z M135.193,684.512h9.551v9.552h-9.551V684.512z M86.777,19.309h-9.551V9.757h9.551V19.309z M67.475,19.309
		h-9.553V9.757h9.553V19.309z M48.17,19.309h-9.55V9.757h9.55V19.309z M19.315,28.966H9.763v-9.541h9.552V28.966z M28.968,9.771
		v9.554h-9.553V9.771H28.968z M19.308,48.31H9.757v-9.551h9.551V48.31z M19.308,67.614H9.757v-9.553h9.551V67.614z M19.308,86.916
		H9.757v-9.551h9.551V86.916z M19.308,106.138H9.757v-9.551h9.551V106.138z M19.308,125.442H9.757v-9.553h9.551V125.442z
		 M19.308,144.745H9.757v-9.551h9.551V144.745z M19.308,163.967H9.757v-9.552h9.551V163.967z M19.308,183.271H9.757v-9.553h9.551
		V183.271z M19.308,202.573H9.757v-9.551h9.551V202.573z M19.308,221.795H9.757v-9.551h9.551V221.795z M19.308,241.099H9.757v-9.552
		h9.551V241.099z M19.308,260.401H9.757v-9.551h9.551V260.401z M19.308,279.624H9.757v-9.551h9.551V279.624z M19.308,298.927H9.757
		v-9.553h9.551V298.927z M19.308,318.23H9.757v-9.551h9.551V318.23z M19.308,337.452H9.757V327.9h9.551V337.452z M19.308,356.756
		H9.757v-9.553h9.551V356.756z M19.308,376.059H9.757v-9.551h9.551V376.059z M19.308,395.28H9.757v-9.552h9.551V395.28z
		 M19.308,414.584H9.757v-9.553h9.551V414.584z M19.308,433.887H9.757v-9.551h9.551V433.887z M19.308,453.108H9.757v-9.551h9.551
		V453.108z M19.308,472.412H9.757v-9.552h9.551V472.412z M19.308,491.715H9.757v-9.551h9.551V491.715z M19.308,510.938H9.757v-9.552
		h9.551V510.938z M19.308,530.241H9.757v-9.553h9.551V530.241z M19.308,549.544H9.757v-9.551h9.551V549.544z M19.308,568.766H9.757
		v-9.552h9.551V568.766z M19.308,588.069H9.757v-9.553h9.551V588.069z M19.308,607.372H9.757v-9.551h9.551V607.372z M19.308,626.594
		H9.757v-9.551h9.551V626.594z M19.308,645.897H9.757v-9.553h9.551V645.897z M19.308,665.2H9.757v-9.551h9.551V665.2z
		 M19.424,694.057v-9.553h9.541v9.553H19.424z M9.771,674.852h9.554v9.553H9.771V674.852z M38.758,684.512h9.551v9.552h-9.551
		V684.512z M58.061,684.512h9.552v9.552h-9.552V684.512z M77.365,684.512h9.551v9.552h-9.551V684.512z M144.605,19.309h-9.551V9.757
		h9.551V19.309z M125.303,19.309h-9.553V9.757h9.553V19.309z M105.999,19.309h-9.551V9.757h9.551V19.309z M202.434,19.309h-9.551
		V9.757h9.551V19.309z M183.131,19.309h-9.552V9.757h9.552V19.309z M163.827,19.309h-9.551V9.757h9.551V19.309z M260.263,19.309
		h-9.552V9.757h9.552V19.309z M240.96,19.309h-9.553V9.757h9.553V19.309z M221.655,19.309h-9.551V9.757h9.551V19.309z
		 M318.091,19.309h-9.552V9.757h9.552V19.309z M298.788,19.309h-9.553V9.757h9.553V19.309z M279.483,19.309h-9.55V9.757h9.55V19.309
		z M375.919,19.309h-9.551V9.757h9.551V19.309z M356.617,19.309h-9.553V9.757h9.553V19.309z M337.313,19.309h-9.551V9.757h9.551
		V19.309z M433.748,19.309h-9.552V9.757h9.552V19.309z M414.445,19.309h-9.553V9.757h9.553V19.309z M395.141,19.309h-9.551V9.757
		h9.551V19.309z M511.026,77.227h9.551v9.551h-9.551V77.227z M511.026,57.922h9.551v9.553h-9.551V57.922z M511.026,38.62h9.551
		v9.551h-9.551V38.62z M510.91,9.764v9.553h-9.541V9.764H510.91z M520.563,28.968h-9.553v-9.552h9.553V28.968z M491.576,19.309
		h-9.552V9.757h9.552V19.309z M472.273,19.309h-9.553V9.757h9.553V19.309z M452.969,19.309h-9.551V9.757h9.551V19.309z
		 M511.026,135.055h9.551v9.552h-9.551V135.055z M511.026,115.751h9.551v9.553h-9.551V115.751z M511.026,96.448h9.551v9.551h-9.551
		V96.448z M511.026,192.883h9.551v9.551h-9.551V192.883z M511.026,173.58h9.551v9.552h-9.551V173.58z M511.026,154.277h9.551v9.551
		h-9.551V154.277z M511.026,250.712h9.551v9.551h-9.551V250.712z M511.026,231.408h9.551v9.553h-9.551V231.408z M511.026,212.105
		h9.551v9.55h-9.551V212.105z M511.026,308.54h9.551v9.551h-9.551V308.54z M511.026,289.236h9.551v9.553h-9.551V289.236z
		 M511.026,269.934h9.551v9.551h-9.551V269.934z M511.026,366.368h9.551v9.552h-9.551V366.368z M511.026,347.064h9.551v9.553h-9.551
		V347.064z M511.026,327.762h9.551v9.551h-9.551V327.762z M511.026,424.197h9.551v9.551h-9.551V424.197z M511.026,404.894h9.551
		v9.552h-9.551V404.894z M511.026,385.591h9.551v9.551h-9.551V385.591z M511.026,482.025h9.551v9.552h-9.551V482.025z
		 M511.026,462.722h9.551v9.553h-9.551V462.722z M511.026,443.419h9.551v9.551h-9.551V443.419z M511.026,539.854h9.551v9.552h-9.551
		V539.854z M511.026,520.55h9.551v9.553h-9.551V520.55z M511.026,501.247h9.551v9.551h-9.551V501.247z M511.026,597.683h9.551v9.551
		h-9.551V597.683z M511.026,578.378h9.551v9.553h-9.551V578.378z M511.026,559.076h9.551v9.551h-9.551V559.076z M511.026,655.511
		h9.551v9.551h-9.551V655.511z M511.026,636.207h9.551v9.553h-9.551V636.207z M511.026,616.904h9.551v9.551h-9.551V616.904z
		 M511.019,674.854h9.553v9.541h-9.553V674.854z M501.366,694.049v-9.554h9.553v9.554H501.366z"/>
</g>
</svg>
