<?xml version="1.0" encoding="utf-8"?>
<!-- Generator: Adobe Illustrator 14.0.0, SVG Export Plug-In . SVG Version: 6.00 Build 43363)  -->
<!DOCTYPE svg PUBLIC "-//W3C//DTD SVG 1.1//EN" "http://www.w3.org/Graphics/SVG/1.1/DTD/svg11.dtd">
<svg version="1.1" id="Nouveau_x5F_32_xA0_Image_1_"
	 xmlns="http://www.w3.org/2000/svg" xmlns:xlink="http://www.w3.org/1999/xlink" x="0px" y="0px" width="729px" height="969px"
	 viewBox="0 0 729 969" style="enable-background:new 0 0 729 969;" xml:space="preserve">
<style type="text/css">
<![CDATA[
	.st0{fill-rule:evenodd;clip-rule:evenodd;fill:none;stroke:#000000;stroke-width:2.1909;stroke-linecap:round;}
	.st1{fill-rule:evenodd;clip-rule:evenodd;fill:none;stroke:#000000;stroke-width:3.0177;stroke-linecap:round;}
	.st2{fill-rule:evenodd;clip-rule:evenodd;fill:none;stroke:#000000;stroke-width:2.8284;stroke-linecap:round;}
	.st3{fill-rule:evenodd;clip-rule:evenodd;fill:none;stroke:#000000;stroke-width:2.3014;stroke-linecap:round;}
	.st4{fill-rule:evenodd;clip-rule:evenodd;fill:none;stroke:#000000;stroke-width:2.1044;stroke-linecap:round;}
	.st5{fill-rule:evenodd;clip-rule:evenodd;fill:none;stroke:#000000;stroke-width:2.3664;stroke-linecap:round;}
	.st6{fill-rule:evenodd;clip-rule:evenodd;fill:none;stroke:#000000;stroke-width:2.4495;stroke-linecap:round;}
	.st7{fill-rule:evenodd;clip-rule:evenodd;fill:none;stroke:#000000;stroke-width:2.2058;stroke-linecap:round;}
	.st8{fill-rule:evenodd;clip-rule:evenodd;fill:none;stroke:#000000;stroke-width:2.8031;stroke-linecap:round;}
	.st9{fill:#000000;fill-rule:evenodd;clip-rule:evenodd;}
	.st10{fill-rule:evenodd;clip-rule:evenodd;fill:none;stroke:#000000;stroke-width:2.7568;stroke-linecap:round;}
	.st11{fill-rule:evenodd;clip-rule:evenodd;fill:none;stroke:#000000;stroke-width:3.0081;stroke-linecap:round;}
	.st12{fill-rule:evenodd;clip-rule:evenodd;fill:none;stroke:#000000;stroke-width:2.2891;stroke-linecap:round;}
	.st13{fill-rule:evenodd;clip-rule:evenodd;fill:none;stroke:#000000;stroke-width:2.1324;stroke-linecap:round;}
	.st14{fill-rule:evenodd;clip-rule:evenodd;fill:none;stroke:#000000;stroke-width:2.9752;stroke-linecap:round;}
	.st15{fill-rule:evenodd;clip-rule:evenodd;fill:none;stroke:#000000;stroke-width:2.6458;stroke-linecap:round;}
]]>
</style>
<g>
	<g>
		<path class="st9" d="M10,884c0.99-12.657-6.77-16.563-5-30c4.375-9.449,20.023-6.157,19,6c4.799-0.201,7.324-2.677,13-2
			c5.062,2.66,12.907,9.574,8,16l-1.167-1.5L42,873c-1.352-3.043-2.236-4.057-5-4c-12.989,0.268,5.025,23.891,7,28l-1.5,0.5L42,899
			c-12.445-9.889-25.45-19.217-29-38c-3.11,6.457,5.801,16.755,0,23l-1.5-0.5L10,884z"/>
		<path class="st9" d="M45.5,925.5L47,926c-0.479,3.188-6.65,0.684-8,3l-1.5-0.5L36,928c-5.989-3.184-6.493-12.985-10-20
			c-1.439-2.879-0.373-2.088-4-2c0.738,8.595,4.509,14.158,7,21l-1.5-0.5L27,928c-0.89-0.776-2.258-1.075-4-1
			c9.844,15.501,21.618,28.048,43,31c22.298,3.079,49.3,0,75,0c145.144,0,299.863,0,447,0c32.581,0,72.068,4.288,93-6
			c10.483-5.153,17.437-12.26,24-25c-1.794-0.127-2.109,1.225-4,1l0.5-1.5L700,926c1.855-6.812,6.506-10.827,6-20
			c-5.437,0.439-5.239,7.733-7,12c-1.785,4.325-3.204,8.866-7,11l-1.5-0.5L689,929c-1.35-2.316-7.521,0.188-8-3l1.5-0.5L682,924
			c9.602-1.188,8.495-13.669,11-21c2.737-8.01,7.279-16.313,17-15c17.79,2.402,4.696,36.887,0,45c-8.652,14.946-26.925,27.644-46,30
			c-22.956,2.836-48.891,0-75,0c-145.19,0.001-302.718-0.001-450,0c-47.888,0-86.728,6.271-111-18c-8.627-8.627-19.79-27.486-19-43
			c0.189-3.708,2.771-12.744,8-14c22.851-5.489,15.087,33.354,29,36L45.5,925.5z"/>
		<path class="st9" d="M685.5,898.5L684,898c2.698-8.893,17.235-18.805,9-29c-4.079-0.412-6.309,1.024-6,5l-1.833-0.5L684,875
			c-8.105-11.079,10.361-22.461,19-14c3.643-5.223,3.079-11.887,9-13c18.935-3.562,8.877,24.171,6,34l-1.833-0.5L715,883
			c-3.874-7.051,2.449-17.32,1-22c-4.111,5.097-3.122,11-6,16c-5.595,9.72-16.904,14.979-24,23L685.5,898.5z"/>
		<path class="st9" d="M13,85c4.636,6.731-0.973,14.938-1,23c4.808-4.713,3.153-10.773,6-16c5.306-9.742,17.014-15.069,24-23
			l0.5,1.5L44,71c-1.388,6.221-18.152,23.468-9,28c2.664,1.319,4.849,0.653,7-3l1.833,0.5L45,95c5.635,12.235-10.602,18.746-20,13
			c-0.507,9.345-10.896,16.066-19,9c-5.594-11.4,5.096-18.976,4-32l1.5,0.5L13,85z"/>
		<path class="st9" d="M45.5,42.5L46,44c-13.908,4.248-6.691,40.564-28,37c-6.821-1.141-9.63-11.884-8-22
			C14.791,29.272,39.121,7.981,68,5c23.55-2.432,49.411,0,75,0c142.173,0,299.817,0,444,0c25.255,0,51.063-2.35,74,0
			c17.795,1.823,38.187,13.93,48,29c4.11,6.312,9.195,19.191,10,26c3.229,27.312-19.889,23.543-26,6c-2.644-7.588-1.55-18.997-10-22
			l0.5-1.5L682,42c0.136-2.864,6.864,0.864,7-2l1.833,0.5L692,39c7.177,5.156,6.96,17.707,13,24c2.536-7.085-3.145-14.03-5-20
			l1.786,0.357L703,42c1.419,0.086,2.832,0.165,3-1c-8.181-10.685-13.82-18.664-24-24c-18.996-9.958-61.703-6-92-6
			c-147.252,0-301.702,0-450,0c-33.542,0-74.615-4.938-95,7c-9.652,5.652-19.219,14.471-21,24c0.162-1.172,1.823-0.843,3-1
			l-0.5,1.833L28,44c-2.271,5.232-6.927,12.841-5,19c7.153-5.513,5.824-19.509,14-24l0.5,1.5L39,41c2.391,0.609,7.255-1.255,8,1
			L45.5,42.5z"/>
		<path class="st9" d="M683.5,67.5L685,67c11.34,12.327,27.454,19.879,30,41c4.949-4.179-4.914-14.672,0-22l1.167,1.5L718,87
			c3.17,11.393,12.344,34.929-5,33c-6.486-0.721-7.15-4.951-9-12c-10.432,6.772-27.639-2.949-20-14l0.5,1.5L686,96
			c1.009,1.991,3.717,2.283,5,4c13.912-9.015-8.039-23.403-9-33L683.5,67.5z"/>
		<g>
			<path class="st15" d="M42.5,875c0.453-0.535,0.927-1.624,1.333-2.5"/>
			<path class="st12" d="M42.5,897.5c5.588,7.471,12.594,18.647,5.359,27.207c-0.556,0.171-1.51,0.455-2.359,0.793"/>
			<path class="st7" d="M682.5,925.5c-9.575-6.266-3.002-20.26,3-27"/>
			<path class="st15" d="M686.5,875.5c-0.587-0.667-0.965-1.333-1.333-2"/>
			<path class="st10" d="M717,885c-0.235-0.883-0.496-2.235-0.833-3.5"/>
			<path class="st5" d="M10.5,886.5c0.458-0.595,0.809-1.796,1-3"/>
			<path class="st1" d="M690.5,928.5c-0.068,0.367-0.137,0.734-0.205,1.101c-9.423,6.908-11.793,15.508-29.795,16.794
				c-44.126,3.154-95.195,0.104-148,0.105c-92.207,0.002-202.249-0.003-296,0c-53.972,0.002-104.535,2.284-147-0.003
				c-12.628-0.68-24.017-8.381-32-17.997"/>
			<path class="st13" d="M701.5,926.5c-9.819,11.62-21.132,24.226-39.381,26.298c-30.162,3.424-68.112,0.445-105.619,0.444
				c-124.033-0.003-270.977,0.003-400,0c-0.333,0-0.667-0.17-1-0.178c-39.224-0.983-86.202,4.486-106.662-6.794
				c-8.976-4.949-17.623-13.696-21.338-19.771"/>
			<path class="st3" d="M42.5,70.5c6.062-7.058,14.059-21.701,3-28"/>
			<path class="st8" d="M716.167,87.5c0.244-1.708,0.61-3.399,0.833-4.5"/>
			<path class="st0" d="M684.5,95.5c0.721-1.218,1.331-1.382,2-2"/>
			<path class="st4" d="M683.5,67.5c-5.083-6.472-8.686-17.364-2.359-24.208c0.556-0.171,1.51-0.454,2.359-0.792"/>
			<path class="st2" d="M43.5,94.5c0.04,0.667,0.184,1.333,0.333,2"/>
			<path class="st6" d="M10.5,82.5c0.458,0.595,0.809,1.796,1,3"/>
			<path class="st14" d="M26.5,42.833c9.337-12.441,22.555-25.911,43-27.232c44.149-2.854,94.371-0.102,147-0.102
				c93.234,0,199.913,0,294,0c51.56,0,101.258-2.235,147,0.002c21.27,1.041,36.529,15.729,44.286,27.854"/>
			<path class="st11" d="M37.5,40.5c10.829-24.648,68.576-19,106-19c115.021,0,248.269,0,365,0c51.111,0,99.698-1.952,146,0.002
				c16.531,0.698,29.061,8.338,36.333,18.998"/>
		</g>
	</g>
</g>
</svg>
