<?xml version="1.0" encoding="utf-8"?>
<!-- Generator: Adobe Illustrator 14.0.0, SVG Export Plug-In . SVG Version: 6.00 Build 43363)  -->
<!DOCTYPE svg PUBLIC "-//W3C//DTD SVG 1.1//EN" "http://www.w3.org/Graphics/SVG/1.1/DTD/svg11.dtd">
<svg version="1.1" xmlns="http://www.w3.org/2000/svg" xmlns:xlink="http://www.w3.org/1999/xlink" x="0px" y="0px" width="540px"
	 height="720px" viewBox="0 0 540 720" style="enable-background:new 0 0 540 720;" xml:space="preserve">
<style type="text/css">
<![CDATA[
	.st0{fill:#009BD0;}
]]>
</style>
<g id="Layer_2">
</g>
<g id="Layer_1">
	<g>
		<path class="st0" d="M540.836,37.652V-0.836h-38.488v-0.001h-58.074h-0.1h-57.976h-0.1h-57.975h-0.1H270.05h-0.1h-57.975h-0.1
			H153.9h-0.1H95.826h-0.1H37.652v0.001H-0.836v38.488h-0.001v58.6v0.1v58.5v0.1v58.5v0.1v58.5v0.1v58.5v0.1v58.5v0.1v58.5v0.1v58.5
			v0.1v58.5v0.1v58.5v0.1v58.6h0.001v38.488h38.488v0.001h58.074h0.1h57.975h0.1h57.976h0.1h57.975h0.1h57.975h0.1h57.975h0.1
			h57.976h0.1h58.074v-0.001h38.488v-38.488h0.001v-58.6v-0.1v-58.5v-0.1v-58.5v-0.1v-58.5v-0.1v-58.5v-0.1v-58.5v-0.1v-58.5v-0.1
			v-58.5v-0.1v-58.5v-0.1v-58.5v-0.1L540.836,37.652L540.836,37.652z M527.894,96.352v58.5v0.1v58.5v0.1v58.5v0.1v58.5v0.1v58.5v0.1
			v58.5v0.1v58.5v0.1v58.5v0.1v58.5v0.1v58.498h-0.004v25.645h-25.642v0.003h-57.975h-0.1h-57.976h-0.1h-57.975h-0.1H270.05h-0.1
			h-57.975h-0.1H153.9h-0.1H95.826h-0.1H37.754v-0.004H12.109v-25.642h-0.003v-58.5v-0.1v-58.5v-0.1v-58.5v-0.1v-58.5v-0.1v-58.5
			v-0.1v-58.5v-0.1v-58.5v-0.1v-58.5v-0.1v-58.5v-0.1v-58.5v-0.1V37.754h0.004V12.109h25.642v-0.003h57.975h0.1h57.975h0.1h57.976
			h0.1h57.975h0.1h57.975h0.1h57.975h0.1h57.976h0.1h57.973v0.004h25.645v25.642h0.003v58.5V96.352z"/>
		<path class="st0" d="M502.246,15.788h-57.973h-0.1h-57.976h-0.1h-57.975h-0.1H270.05h-0.1h-57.975h-0.1H153.9h-0.1H95.826h-0.1
			H37.752v-0.002H15.787v21.968h0.001v58.498v0.1v58.5v0.1v58.5v0.1v58.5v0.1v58.5v0.1v58.5v0.1v58.5v0.1v58.5v0.1v58.5v0.1v58.5
			v0.1v58.5h-0.002v21.965h21.968v-0.001h57.973h0.1h57.975h0.1h57.976h0.1h57.975h0.1h57.975h0.1h57.975h0.1h57.976h0.1h57.975
			v0.002h21.965v-21.968h-0.001v-58.498v-0.1v-58.5v-0.1v-58.5v-0.1v-58.5v-0.1v-58.5v-0.1v-58.5v-0.1v-58.5v-0.1v-58.5v-0.1v-58.5
			v-0.1v-58.5v-0.1v-58.5h0.002V15.787L502.246,15.788L502.246,15.788z M523.103,37.752v58.5v0.1v58.5v0.1v58.5v0.1v58.5v0.1v58.5
			v0.1v58.5v0.1v58.5v0.1v58.5v0.1v58.5v0.1v58.5v0.1v58.498h-0.001v20.856h-20.754h-0.1h-57.975h-0.1h-57.976h-0.1h-57.975h-0.1
			H270.05h-0.1h-57.975h-0.1H153.9h-0.1H95.826h-0.1H37.754v-0.001H16.897v-20.854h-0.001v-58.5v-0.1v-58.5v-0.1v-58.5v-0.1v-58.5
			v-0.1v-58.5v-0.1v-58.5v-0.1v-58.5v-0.1v-58.5v-0.1v-58.5v-0.1v-58.5v-0.1V37.754h0.001V16.897h20.854v-0.001h57.975h0.1h57.975
			h0.1h57.976h0.1h57.975h0.1h57.975h0.1h57.975h0.1h57.976h0.1h57.973v0.001h20.856v20.755V37.752z"/>
	</g>
</g>
</svg>
