<?xml version="1.0" encoding="utf-8"?>
<!-- Generator: Adobe Illustrator 14.0.0, SVG Export Plug-In . SVG Version: 6.00 Build 43363)  -->
<!DOCTYPE svg PUBLIC "-//W3C//DTD SVG 1.1//EN" "http://www.w3.org/Graphics/SVG/1.1/DTD/svg11.dtd">
<svg version="1.1" xmlns="http://www.w3.org/2000/svg" xmlns:xlink="http://www.w3.org/1999/xlink" x="0px" y="0px" width="576px"
	 height="756.229px" viewBox="0 0 576 756.229" style="enable-background:new 0 0 576 756.229;" xml:space="preserve">
<style type="text/css">
<![CDATA[
	.st0{fill:#0D71BA;}
]]>
</style>
<g id="Layer_3">
</g>
<g id="Layer_2">
	<g>
		<polygon class="st0" points="11.448,738.436 2.752,738.436 2.752,725.681 8.715,725.681 8.715,733.052 11.448,733.052 
			11.448,717.15 8.715,717.15 8.715,723.362 2.752,723.362 2.752,711.022 11.448,711.022 11.448,708.289 2.752,708.289 
			2.752,695.535 8.715,695.535 8.715,702.906 11.448,702.906 11.448,687.005 8.715,687.005 8.715,693.216 2.752,693.216 
			2.752,680.876 11.448,680.876 11.448,678.143 2.752,678.143 2.752,665.389 8.715,665.389 8.715,672.76 11.448,672.76 
			11.448,656.859 8.715,656.859 8.715,663.07 2.752,663.07 2.752,650.73 11.448,650.73 11.448,647.997 2.752,647.997 2.752,635.243 
			8.715,635.243 8.715,642.614 11.448,642.614 11.448,626.713 8.715,626.713 8.715,632.925 2.752,632.925 2.752,620.584 
			11.448,620.584 11.448,617.852 2.752,617.852 2.752,605.098 8.715,605.098 8.715,612.469 11.448,612.469 11.448,596.567 
			8.715,596.567 8.715,602.779 2.752,602.779 2.752,590.438 11.448,590.438 11.448,587.706 2.752,587.706 2.752,574.952 
			8.715,574.952 8.715,582.323 11.448,582.323 11.448,566.422 8.715,566.422 8.715,572.633 2.752,572.633 2.752,560.293 
			11.448,560.293 11.448,557.56 2.752,557.56 2.752,544.805 8.715,544.805 8.715,552.176 11.448,552.176 11.448,536.274 
			8.715,536.274 8.715,542.485 2.752,542.485 2.752,530.146 11.448,530.146 11.448,527.537 2.752,527.539 2.752,514.784 
			8.715,514.784 8.715,522.155 11.448,522.155 11.448,506.254 8.715,506.254 8.715,512.465 2.752,512.465 2.752,500.126 
			11.448,500.126 11.448,497.393 2.752,497.393 2.752,484.638 8.715,484.638 8.715,492.01 11.448,492.01 11.448,476.108 
			8.715,476.108 8.715,482.32 2.752,482.32 2.752,469.98 11.448,469.98 11.448,467.248 2.752,467.248 2.752,454.493 8.715,454.493 
			8.715,461.863 11.448,461.863 11.448,445.962 8.715,445.962 8.715,452.174 2.752,452.174 2.752,439.834 11.448,439.834 
			11.448,437.102 2.752,437.102 2.752,424.347 8.715,424.347 8.715,431.719 11.448,431.719 11.448,415.817 8.715,415.817 
			8.715,422.028 2.752,422.028 2.752,409.689 11.448,409.689 11.448,406.956 2.752,406.956 2.752,394.201 8.715,394.201 
			8.715,401.572 11.448,401.572 11.448,385.671 8.715,385.671 8.715,391.882 2.752,391.882 2.752,379.542 11.448,379.542 
			11.448,376.81 2.752,376.81 2.752,364.055 8.715,364.055 8.715,371.426 11.448,371.426 11.448,355.525 8.715,355.525 
			8.715,361.736 2.752,361.736 2.752,349.397 11.448,349.397 11.448,346.664 2.752,346.664 2.752,333.909 8.715,333.909 
			8.715,341.28 11.448,341.28 11.448,325.379 8.715,325.379 8.715,331.59 2.752,331.59 2.752,319.251 11.448,319.251 
			11.448,316.518 2.752,316.518 2.752,303.763 8.715,303.763 8.715,311.135 11.448,311.135 11.448,295.233 8.715,295.233 
			8.715,301.445 2.752,301.445 2.752,289.105 11.448,289.105 11.448,286.373 2.752,286.373 2.752,273.618 8.715,273.618 
			8.715,280.989 11.448,280.989 11.448,265.088 8.715,265.088 8.715,271.299 2.752,271.299 2.752,258.959 11.448,258.959 
			11.448,256.227 2.752,256.227 2.752,243.472 8.715,243.472 8.715,250.843 11.448,250.843 11.448,234.942 8.715,234.942 
			8.715,241.153 2.752,241.153 2.752,228.814 11.448,228.814 11.448,226.081 2.752,226.081 2.752,213.326 8.715,213.326 
			8.715,220.697 11.448,220.697 11.448,204.796 8.715,204.796 8.715,211.008 2.752,211.008 2.752,198.668 11.448,198.668 
			11.448,195.935 2.752,195.935 2.752,183.181 8.715,183.181 8.715,190.552 11.448,190.552 11.448,174.65 8.715,174.65 
			8.715,180.862 2.752,180.862 2.752,168.521 11.448,168.521 11.448,165.789 2.752,165.789 2.752,153.035 8.715,153.035 
			8.715,160.406 11.448,160.406 11.448,144.505 8.715,144.505 8.715,150.716 2.752,150.716 2.752,138.376 11.448,138.376 
			11.448,135.643 2.752,135.643 2.752,122.889 8.715,122.889 8.715,130.26 11.448,130.26 11.448,114.359 8.715,114.359 
			8.715,120.57 2.752,120.57 2.752,108.23 11.448,108.23 11.448,105.497 2.752,105.497 2.752,92.743 8.715,92.743 8.715,100.114 
			11.448,100.114 11.448,84.213 8.715,84.213 8.715,90.425 2.752,90.425 2.752,78.084 11.448,78.084 11.448,75.351 2.752,75.351 
			2.752,62.598 8.715,62.598 8.715,69.969 11.448,69.969 11.448,54.067 8.715,54.067 8.715,60.279 2.752,60.279 2.752,47.938 
			11.448,47.938 11.448,45.206 2.752,45.206 2.752,32.452 8.715,32.452 8.715,39.823 11.448,39.823 11.448,23.922 8.715,23.922 
			8.715,30.133 2.752,30.133 2.752,17.793 11.448,17.793 11.448,17.429 0,17.429 0,738.799 11.448,738.799 		"/>
		<polygon class="st0" points="12.691,19.035 12.691,17.429 12.194,17.429 12.194,18.538 3.498,18.538 3.498,29.388 7.97,29.388 
			7.97,23.176 12.194,23.176 12.194,40.568 7.97,40.568 7.97,33.197 3.498,33.197 3.498,44.46 12.194,44.46 12.194,48.684 
			3.498,48.684 3.498,59.534 7.97,59.534 7.97,53.322 12.194,53.322 12.194,70.714 7.97,70.714 7.97,63.343 3.498,63.343 
			3.498,74.606 12.194,74.606 12.194,78.83 3.498,78.83 3.498,89.679 7.97,89.679 7.97,83.468 12.194,83.468 12.194,100.86 
			7.97,100.86 7.97,93.489 3.498,93.489 3.498,104.751 12.194,104.751 12.194,108.976 3.498,108.976 3.498,119.825 7.97,119.825 
			7.97,113.614 12.194,113.614 12.194,131.005 7.97,131.005 7.97,123.634 3.498,123.634 3.498,134.897 12.194,134.897 
			12.194,139.121 3.498,139.121 3.498,149.971 7.97,149.971 7.97,143.759 12.194,143.759 12.194,161.151 7.97,161.151 7.97,153.78 
			3.498,153.78 3.498,165.043 12.194,165.043 12.194,169.267 3.498,169.267 3.498,180.116 7.97,180.116 7.97,173.905 
			12.194,173.905 12.194,191.297 7.97,191.297 7.97,183.926 3.498,183.926 3.498,195.19 12.194,195.19 12.194,199.414 
			3.498,199.414 3.498,210.262 7.97,210.262 7.97,204.051 12.194,204.051 12.194,221.443 7.97,221.443 7.97,214.072 3.498,214.072 
			3.498,225.335 12.194,225.335 12.194,229.56 3.498,229.56 3.498,240.408 7.97,240.408 7.97,234.196 12.194,234.196 
			12.194,251.588 7.97,251.588 7.97,244.217 3.498,244.217 3.498,255.481 12.194,255.481 12.194,259.705 3.498,259.705 
			3.498,270.554 7.97,270.554 7.97,264.342 12.194,264.342 12.194,281.734 7.97,281.734 7.97,274.363 3.498,274.363 3.498,285.627 
			12.194,285.627 12.194,289.851 3.498,289.851 3.498,300.699 7.97,300.699 7.97,294.488 12.194,294.488 12.194,311.88 7.97,311.88 
			7.97,304.509 3.498,304.509 3.498,315.773 12.194,315.773 12.194,319.997 3.498,319.997 3.498,330.845 7.97,330.845 7.97,324.634 
			12.194,324.634 12.194,342.026 7.97,342.026 7.97,334.654 3.498,334.654 3.498,345.918 12.194,345.918 12.194,350.142 
			3.498,350.142 3.498,360.991 7.97,360.991 7.97,354.779 12.194,354.779 12.194,372.171 7.97,372.171 7.97,364.8 3.498,364.8 
			3.498,376.064 12.194,376.064 12.194,380.288 3.498,380.288 3.498,391.137 7.97,391.137 7.97,384.925 12.194,384.925 
			12.194,402.317 7.97,402.317 7.97,394.947 3.498,394.947 3.498,406.211 12.194,406.211 12.194,410.435 3.498,410.435 
			3.498,421.283 7.97,421.283 7.97,415.072 12.194,415.072 12.194,432.464 7.97,432.464 7.97,425.092 3.498,425.092 3.498,436.355 
			12.194,436.355 12.194,440.579 3.498,440.579 3.498,451.428 7.97,451.428 7.97,445.217 12.194,445.217 12.194,462.608 
			7.97,462.608 7.97,455.238 3.498,455.238 3.498,466.503 12.194,466.503 12.194,470.727 3.498,470.727 3.498,481.575 7.97,481.575 
			7.97,475.363 12.194,475.363 12.194,492.756 7.97,492.756 7.97,485.383 3.498,485.383 3.498,496.647 12.194,496.647 
			12.194,500.871 3.498,500.871 3.498,511.72 7.97,511.72 7.97,505.508 12.194,505.508 12.194,522.9 7.97,522.9 7.97,515.53 
			3.498,515.53 3.498,526.794 12.194,526.792 12.194,530.892 3.498,530.892 3.498,541.74 7.97,541.74 7.97,535.529 12.194,535.529 
			12.194,552.921 7.97,552.921 7.97,545.551 3.498,545.551 3.498,556.814 12.194,556.814 12.194,561.038 3.498,561.038 
			3.498,571.888 7.97,571.888 7.97,565.677 12.194,565.677 12.194,583.068 7.97,583.068 7.97,575.697 3.498,575.697 3.498,586.96 
			12.194,586.96 12.194,591.184 3.498,591.184 3.498,602.033 7.97,602.033 7.97,595.822 12.194,595.822 12.194,613.214 
			7.97,613.214 7.97,605.843 3.498,605.843 3.498,617.106 12.194,617.106 12.194,621.33 3.498,621.33 3.498,632.18 7.97,632.18 
			7.97,625.968 12.194,625.968 12.194,643.36 7.97,643.36 7.97,635.988 3.498,635.988 3.498,647.252 12.194,647.252 12.194,651.476 
			3.498,651.476 3.498,662.325 7.97,662.325 7.97,656.113 12.194,656.113 12.194,673.506 7.97,673.506 7.97,666.135 3.498,666.135 
			3.498,677.397 12.194,677.397 12.194,681.621 3.498,681.621 3.498,692.471 7.97,692.471 7.97,686.26 12.194,686.26 
			12.194,703.651 7.97,703.651 7.97,696.28 3.498,696.28 3.498,707.544 12.194,707.544 12.194,711.768 3.498,711.768 3.498,722.616 
			7.97,722.616 7.97,716.405 12.194,716.405 12.194,733.797 7.97,733.797 7.97,726.426 3.498,726.426 3.498,737.689 12.194,737.689 
			12.194,738.799 12.691,738.799 12.691,737.193 3.995,737.193 3.995,726.923 7.473,726.923 7.473,734.294 12.691,734.294 
			12.691,715.908 7.473,715.908 7.473,722.12 3.995,722.12 3.995,712.265 12.691,712.265 12.691,707.047 3.995,707.047 
			3.995,696.777 7.473,696.777 7.473,704.148 12.691,704.148 12.691,685.763 7.473,685.763 7.473,691.974 3.995,691.974 
			3.995,682.118 12.691,682.118 12.691,676.9 3.995,676.9 3.995,666.631 7.473,666.631 7.473,674.003 12.691,674.003 
			12.691,655.617 7.473,655.617 7.473,661.828 3.995,661.828 3.995,651.973 12.691,651.973 12.691,646.755 3.995,646.755 
			3.995,636.485 7.473,636.485 7.473,643.856 12.691,643.856 12.691,625.471 7.473,625.471 7.473,631.683 3.995,631.683 
			3.995,621.826 12.691,621.826 12.691,616.609 3.995,616.609 3.995,606.34 7.473,606.34 7.473,613.711 12.691,613.711 
			12.691,595.325 7.473,595.325 7.473,601.537 3.995,601.537 3.995,591.681 12.691,591.681 12.691,586.463 3.995,586.463 
			3.995,576.194 7.473,576.194 7.473,583.565 12.691,583.565 12.691,565.18 7.473,565.18 7.473,571.391 3.995,571.391 
			3.995,561.535 12.691,561.535 12.691,556.317 3.995,556.317 3.995,546.048 7.473,546.048 7.473,553.418 12.691,553.418 
			12.691,535.032 7.473,535.032 7.473,541.243 3.995,541.243 3.995,531.389 12.691,531.389 12.691,526.295 3.995,526.297 
			3.995,516.027 7.473,516.027 7.473,523.397 12.691,523.397 12.691,505.012 7.473,505.012 7.473,511.223 3.995,511.223 
			3.995,501.368 12.691,501.368 12.691,496.15 3.995,496.15 3.995,485.88 7.473,485.88 7.473,493.252 12.691,493.252 
			12.691,474.866 7.473,474.866 7.473,481.078 3.995,481.078 3.995,471.223 12.691,471.223 12.691,466.006 3.995,466.006 
			3.995,455.735 7.473,455.735 7.473,463.105 12.691,463.105 12.691,444.72 7.473,444.72 7.473,450.932 3.995,450.932 
			3.995,441.076 12.691,441.076 12.691,435.858 3.995,435.858 3.995,425.589 7.473,425.589 7.473,432.961 12.691,432.961 
			12.691,414.575 7.473,414.575 7.473,420.786 3.995,420.786 3.995,410.932 12.691,410.932 12.691,405.714 3.995,405.714 
			3.995,395.444 7.473,395.444 7.473,402.814 12.691,402.814 12.691,384.429 7.473,384.429 7.473,390.64 3.995,390.64 
			3.995,380.785 12.691,380.785 12.691,375.567 3.995,375.567 3.995,365.297 7.473,365.297 7.473,372.668 12.691,372.668 
			12.691,354.283 7.473,354.283 7.473,360.494 3.995,360.494 3.995,350.639 12.691,350.639 12.691,345.421 3.995,345.421 
			3.995,335.151 7.473,335.151 7.473,342.522 12.691,342.522 12.691,324.137 7.473,324.137 7.473,330.348 3.995,330.348 
			3.995,320.494 12.691,320.494 12.691,315.276 3.995,315.276 3.995,305.006 7.473,305.006 7.473,312.377 12.691,312.377 
			12.691,293.991 7.473,293.991 7.473,300.203 3.995,300.203 3.995,290.348 12.691,290.348 12.691,285.13 3.995,285.13 
			3.995,274.86 7.473,274.86 7.473,282.231 12.691,282.231 12.691,263.845 7.473,263.845 7.473,270.057 3.995,270.057 
			3.995,260.202 12.691,260.202 12.691,254.984 3.995,254.984 3.995,244.714 7.473,244.714 7.473,252.085 12.691,252.085 
			12.691,233.7 7.473,233.7 7.473,239.911 3.995,239.911 3.995,230.056 12.691,230.056 12.691,224.839 3.995,224.839 3.995,214.568 
			7.473,214.568 7.473,221.939 12.691,221.939 12.691,203.554 7.473,203.554 7.473,209.765 3.995,209.765 3.995,199.911 
			12.691,199.911 12.691,194.693 3.995,194.693 3.995,184.423 7.473,184.423 7.473,191.794 12.691,191.794 12.691,173.408 
			7.473,173.408 7.473,179.62 3.995,179.62 3.995,169.764 12.691,169.764 12.691,164.546 3.995,164.546 3.995,154.277 
			7.473,154.277 7.473,161.648 12.691,161.648 12.691,143.262 7.473,143.262 7.473,149.474 3.995,149.474 3.995,139.618 
			12.691,139.618 12.691,134.4 3.995,134.4 3.995,124.131 7.473,124.131 7.473,131.502 12.691,131.502 12.691,113.117 
			7.473,113.117 7.473,119.328 3.995,119.328 3.995,109.472 12.691,109.472 12.691,104.255 3.995,104.255 3.995,93.985 
			7.473,93.985 7.473,101.357 12.691,101.357 12.691,82.971 7.473,82.971 7.473,89.182 3.995,89.182 3.995,79.327 12.691,79.327 
			12.691,74.109 3.995,74.109 3.995,63.84 7.473,63.84 7.473,71.211 12.691,71.211 12.691,52.825 7.473,52.825 7.473,59.037 
			3.995,59.037 3.995,49.181 12.691,49.181 12.691,43.963 3.995,43.963 3.995,33.694 7.473,33.694 7.473,41.065 12.691,41.065 
			12.691,22.679 7.473,22.679 7.473,28.891 3.995,28.891 3.995,19.035 		"/>
		<polygon class="st0" points="13.436,19.78 4.74,19.78 4.74,28.146 6.728,28.146 6.728,21.934 13.436,21.934 13.436,41.811 
			6.728,41.811 6.728,34.439 4.74,34.439 4.74,43.218 13.436,43.218 13.436,49.926 4.74,49.926 4.74,58.291 6.728,58.291 
			6.728,52.08 13.436,52.08 13.436,71.957 6.728,71.957 6.728,64.585 4.74,64.585 4.74,73.364 13.436,73.364 13.436,80.072 
			4.74,80.072 4.74,88.437 6.728,88.437 6.728,82.226 13.436,82.226 13.436,102.102 6.728,102.102 6.728,94.731 4.74,94.731 
			4.74,103.509 13.436,103.509 13.436,110.218 4.74,110.218 4.74,118.583 6.728,118.583 6.728,112.371 13.436,112.371 
			13.436,132.248 6.728,132.248 6.728,124.876 4.74,124.876 4.74,133.655 13.436,133.655 13.436,140.363 4.74,140.363 4.74,148.729 
			6.728,148.729 6.728,142.517 13.436,142.517 13.436,162.394 6.728,162.394 6.728,155.022 4.74,155.022 4.74,163.801 
			13.436,163.801 13.436,170.509 4.74,170.509 4.74,178.874 6.728,178.874 6.728,172.663 13.436,172.663 13.436,192.539 
			6.728,192.539 6.728,185.168 4.74,185.168 4.74,193.948 13.436,193.948 13.436,200.656 4.74,200.656 4.74,209.02 6.728,209.02 
			6.728,202.809 13.436,202.809 13.436,222.685 6.728,222.685 6.728,215.314 4.74,215.314 4.74,224.093 13.436,224.093 
			13.436,230.802 4.74,230.802 4.74,239.166 6.728,239.166 6.728,232.954 13.436,232.954 13.436,252.831 6.728,252.831 
			6.728,245.459 4.74,245.459 4.74,254.239 13.436,254.239 13.436,260.947 4.74,260.947 4.74,269.312 6.728,269.312 6.728,263.1 
			13.436,263.1 13.436,282.977 6.728,282.977 6.728,275.605 4.74,275.605 4.74,284.385 13.436,284.385 13.436,291.093 4.74,291.093 
			4.74,299.457 6.728,299.457 6.728,293.246 13.436,293.246 13.436,313.122 6.728,313.122 6.728,305.751 4.74,305.751 4.74,314.53 
			13.436,314.53 13.436,321.239 4.74,321.239 4.74,329.603 6.728,329.603 6.728,323.392 13.436,323.392 13.436,343.268 
			6.728,343.268 6.728,335.897 4.74,335.897 4.74,344.676 13.436,344.676 13.436,351.385 4.74,351.385 4.74,359.749 6.728,359.749 
			6.728,353.537 13.436,353.537 13.436,373.414 6.728,373.414 6.728,366.042 4.74,366.042 4.74,374.822 13.436,374.822 
			13.436,381.53 4.74,381.53 4.74,389.895 6.728,389.895 6.728,383.683 13.436,383.683 13.436,403.56 6.728,403.56 6.728,396.189 
			4.74,396.189 4.74,404.969 13.436,404.969 13.436,411.677 4.74,411.677 4.74,420.041 6.728,420.041 6.728,413.83 13.436,413.83 
			13.436,433.706 6.728,433.706 6.728,426.334 4.74,426.334 4.74,435.113 13.436,435.113 13.436,441.822 4.74,441.822 4.74,450.186 
			6.728,450.186 6.728,443.975 13.436,443.975 13.436,463.851 6.728,463.851 6.728,456.48 4.74,456.48 4.74,465.26 13.436,465.26 
			13.436,471.969 4.74,471.969 4.74,480.333 6.728,480.333 6.728,474.121 13.436,474.121 13.436,493.998 6.728,493.998 
			6.728,486.626 4.74,486.626 4.74,495.405 13.436,495.405 13.436,502.113 4.74,502.113 4.74,510.478 6.728,510.478 6.728,504.266 
			13.436,504.266 13.436,524.143 6.728,524.143 6.728,516.772 4.74,516.772 4.74,525.552 13.436,525.55 13.436,532.134 
			4.74,532.134 4.74,540.498 6.728,540.498 6.728,534.286 13.436,534.286 13.436,554.163 6.728,554.163 6.728,546.793 4.74,546.793 
			4.74,555.572 13.436,555.572 13.436,562.28 4.74,562.28 4.74,570.646 6.728,570.646 6.728,564.435 13.436,564.435 13.436,584.311 
			6.728,584.311 6.728,576.939 4.74,576.939 4.74,585.718 13.436,585.718 13.436,592.427 4.74,592.427 4.74,600.791 6.728,600.791 
			6.728,594.58 13.436,594.58 13.436,614.456 6.728,614.456 6.728,607.085 4.74,607.085 4.74,615.863 13.436,615.863 
			13.436,622.572 4.74,622.572 4.74,630.938 6.728,630.938 6.728,624.726 13.436,624.726 13.436,644.603 6.728,644.603 
			6.728,637.23 4.74,637.23 4.74,646.01 13.436,646.01 13.436,652.718 4.74,652.718 4.74,661.083 6.728,661.083 6.728,654.871 
			13.436,654.871 13.436,674.748 6.728,674.748 6.728,667.377 4.74,667.377 4.74,676.155 13.436,676.155 13.436,682.863 
			4.74,682.863 4.74,691.229 6.728,691.229 6.728,685.018 13.436,685.018 13.436,704.894 6.728,704.894 6.728,697.522 4.74,697.522 
			4.74,706.302 13.436,706.302 13.436,713.01 4.74,713.01 4.74,721.374 6.728,721.374 6.728,715.163 13.436,715.163 13.436,735.039 
			6.728,735.039 6.728,727.668 4.74,727.668 4.74,736.447 13.436,736.447 13.436,738.799 16.188,738.799 16.188,17.429 
			13.436,17.429 		"/>
		<polygon class="st0" points="557.138,3.584 545.874,3.584 545.874,8.057 553.245,8.057 553.245,12.28 535.853,12.28 
			535.853,8.057 542.064,8.057 542.064,3.584 531.216,3.584 531.216,12.28 527.116,12.28 527.117,3.584 515.854,3.584 
			515.854,8.057 523.225,8.057 523.225,12.28 505.832,12.28 505.832,8.057 512.044,8.057 512.044,3.584 501.195,3.584 
			501.195,12.28 496.972,12.28 496.972,3.584 485.707,3.584 485.707,8.057 493.078,8.057 493.078,12.28 475.687,12.28 
			475.687,8.057 481.898,8.057 481.898,3.584 471.05,3.584 471.05,12.28 466.825,12.28 466.825,3.584 455.562,3.584 455.562,8.057 
			462.933,8.057 462.933,12.28 445.541,12.28 445.541,8.057 451.752,8.057 451.752,3.584 440.903,3.584 440.903,12.28 436.68,12.28 
			436.68,3.584 425.416,3.584 425.416,8.057 432.787,8.057 432.787,12.28 415.396,12.28 415.396,8.057 421.606,8.057 421.606,3.584 
			410.758,3.584 410.758,12.28 406.534,12.28 406.534,3.584 395.271,3.584 395.271,8.057 402.642,8.057 402.642,12.28 
			385.249,12.28 385.249,8.057 391.461,8.057 391.461,3.584 380.612,3.584 380.612,12.28 376.389,12.28 376.389,3.584 
			365.124,3.584 365.124,8.057 372.496,8.057 372.496,12.28 355.104,12.28 355.104,8.057 361.315,8.057 361.315,3.584 
			350.467,3.584 350.467,12.28 346.242,12.28 346.242,3.584 334.979,3.584 334.979,8.057 342.35,8.057 342.35,12.28 324.958,12.28 
			324.958,8.057 331.169,8.057 331.169,3.584 320.32,3.584 320.32,12.28 316.097,12.28 316.097,3.584 304.833,3.584 304.833,8.057 
			312.204,8.057 312.204,12.28 294.813,12.28 294.813,8.057 301.023,8.057 301.023,3.584 290.175,3.584 290.175,12.28 
			285.951,12.28 285.951,3.584 274.687,3.584 274.687,8.057 282.059,8.057 282.059,12.28 264.667,12.28 264.667,8.057 
			270.878,8.057 270.878,3.584 260.029,3.584 260.029,12.28 255.806,12.28 255.806,3.584 244.542,3.584 244.542,8.057 
			251.913,8.057 251.913,12.28 234.521,12.28 234.521,8.057 240.732,8.057 240.732,3.584 229.883,3.584 229.883,12.28 225.66,12.28 
			225.66,3.584 214.396,3.584 214.396,8.057 221.767,8.057 221.767,12.28 204.375,12.28 204.375,8.057 210.586,8.057 210.586,3.584 
			199.738,3.584 199.738,12.28 195.514,12.28 195.514,3.584 184.25,3.584 184.25,8.057 191.621,8.057 191.621,12.28 174.229,12.28 
			174.229,8.057 180.44,8.057 180.44,3.584 169.591,3.584 169.591,12.28 165.367,12.28 165.367,3.584 154.104,3.584 154.104,8.057 
			161.476,8.057 161.476,12.28 144.083,12.28 144.083,8.057 150.295,8.057 150.295,3.584 139.445,3.584 139.445,12.28 
			135.222,12.28 135.222,3.584 123.958,3.584 123.958,8.057 131.33,8.057 131.33,12.28 113.938,12.28 113.938,8.057 120.149,8.057 
			120.149,3.584 109.299,3.584 109.299,12.28 105.076,12.28 105.076,3.584 93.813,3.584 93.813,8.057 101.184,8.057 101.184,12.28 
			83.792,12.28 83.792,8.057 90.003,8.057 90.003,3.584 79.154,3.584 79.154,12.28 74.93,12.28 74.93,3.584 63.667,3.584 
			63.667,8.057 71.038,8.057 71.038,12.28 53.646,12.28 53.646,8.057 59.857,8.057 59.857,3.584 49.008,3.584 49.008,12.28 
			44.784,12.28 44.784,3.584 33.521,3.584 33.521,8.057 40.893,8.057 40.893,12.28 23.5,12.28 23.5,8.057 29.712,8.057 
			29.712,3.584 18.862,3.584 18.862,12.28 17.182,12.28 17.182,12.777 19.359,12.777 19.359,4.081 29.215,4.081 29.215,7.56 
			23.003,7.56 23.003,12.777 41.389,12.777 41.389,7.56 34.018,7.56 34.018,4.081 44.288,4.081 44.288,12.777 49.505,12.777 
			49.505,4.081 59.361,4.081 59.361,7.56 53.149,7.56 53.149,12.777 71.535,12.777 71.535,7.56 64.164,7.56 64.164,4.081 
			74.433,4.081 74.433,12.777 79.651,12.777 79.651,4.081 89.506,4.081 89.506,7.56 83.295,7.56 83.295,12.777 101.681,12.777 
			101.681,7.56 94.31,7.56 94.31,4.081 104.579,4.081 104.579,12.777 109.796,12.777 109.796,4.081 119.652,4.081 119.652,7.56 
			113.441,7.56 113.441,12.777 131.827,12.777 131.827,7.56 124.456,7.56 124.456,4.081 134.725,4.081 134.725,12.777 
			139.942,12.777 139.942,4.081 149.798,4.081 149.798,7.56 143.586,7.56 143.586,12.777 161.972,12.777 161.972,7.56 154.601,7.56 
			154.601,4.081 164.87,4.081 164.87,12.777 170.088,12.777 170.088,4.081 179.944,4.081 179.944,7.56 173.732,7.56 173.732,12.777 
			192.118,12.777 192.118,7.56 184.747,7.56 184.747,4.081 195.017,4.081 195.017,12.777 200.235,12.777 200.235,4.081 
			210.089,4.081 210.089,7.56 203.878,7.56 203.878,12.777 222.264,12.777 222.264,7.56 214.893,7.56 214.893,4.081 225.163,4.081 
			225.163,12.777 230.38,12.777 230.38,4.081 240.235,4.081 240.235,7.56 234.024,7.56 234.024,12.777 252.41,12.777 252.41,7.56 
			245.039,7.56 245.039,4.081 255.309,4.081 255.309,12.777 260.526,12.777 260.526,4.081 270.381,4.081 270.381,7.56 264.169,7.56 
			264.169,12.777 282.555,12.777 282.555,7.56 275.184,7.56 275.184,4.081 285.454,4.081 285.454,12.777 290.672,12.777 
			290.672,4.081 300.526,4.081 300.526,7.56 294.315,7.56 294.315,12.777 312.701,12.777 312.701,7.56 305.33,7.56 305.33,4.081 
			315.6,4.081 315.6,12.777 320.817,12.777 320.817,4.081 330.673,4.081 330.673,7.56 324.461,7.56 324.461,12.777 342.847,12.777 
			342.847,7.56 335.476,7.56 335.476,4.081 345.746,4.081 345.746,12.777 350.963,12.777 350.963,4.081 360.818,4.081 360.818,7.56 
			354.606,7.56 354.606,12.777 372.992,12.777 372.992,7.56 365.621,7.56 365.621,4.081 375.892,4.081 375.892,12.777 
			381.109,12.777 381.109,4.081 390.964,4.081 390.964,7.56 384.753,7.56 384.753,12.777 403.139,12.777 403.139,7.56 395.767,7.56 
			395.767,4.081 406.037,4.081 406.037,12.777 411.255,12.777 411.255,4.081 421.109,4.081 421.109,7.56 414.898,7.56 
			414.898,12.777 433.284,12.777 433.284,7.56 425.913,7.56 425.913,4.081 436.183,4.081 436.183,12.777 441.4,12.777 441.4,4.081 
			451.256,4.081 451.256,7.56 445.044,7.56 445.044,12.777 463.43,12.777 463.43,7.56 456.059,7.56 456.059,4.081 466.329,4.081 
			466.329,12.777 471.546,12.777 471.546,4.081 481.401,4.081 481.401,7.56 475.189,7.56 475.189,12.777 493.575,12.777 
			493.575,7.56 486.204,7.56 486.204,4.081 496.475,4.081 496.475,12.777 501.692,12.777 501.692,4.081 511.547,4.081 511.547,7.56 
			505.336,7.56 505.336,12.777 523.721,12.777 523.721,7.56 516.35,7.56 516.35,4.081 526.62,4.081 526.619,12.777 531.713,12.777 
			531.713,4.081 541.567,4.081 541.567,7.56 535.355,7.56 535.355,12.777 553.742,12.777 553.742,7.56 546.371,7.56 546.371,4.081 
			556.641,4.081 556.641,12.777 558.817,12.777 558.817,12.28 557.138,12.28 		"/>
		<polygon class="st0" points="17.182,11.535 18.117,11.535 18.117,2.839 30.457,2.839 30.457,8.802 24.246,8.802 24.246,11.535 
			40.147,11.535 40.147,8.802 32.776,8.802 32.776,2.839 45.53,2.839 45.53,11.535 48.263,11.535 48.263,2.839 60.603,2.839 
			60.603,8.802 54.392,8.802 54.392,11.535 70.293,11.535 70.293,8.802 62.921,8.802 62.921,2.839 75.675,2.839 75.675,11.535 
			78.408,11.535 78.408,2.839 90.749,2.839 90.749,8.802 84.537,8.802 84.537,11.535 100.438,11.535 100.438,8.802 93.067,8.802 
			93.067,2.839 105.821,2.839 105.821,11.535 108.554,11.535 108.554,2.839 120.895,2.839 120.895,8.802 114.683,8.802 
			114.683,11.535 130.584,11.535 130.584,8.802 123.213,8.802 123.213,2.839 135.967,2.839 135.967,11.535 138.7,11.535 
			138.7,2.839 151.04,2.839 151.04,8.802 144.829,8.802 144.829,11.535 160.73,11.535 160.73,8.802 153.359,8.802 153.359,2.839 
			166.113,2.839 166.113,11.535 168.846,11.535 168.846,2.839 181.186,2.839 181.186,8.802 174.975,8.802 174.975,11.535 
			190.876,11.535 190.876,8.802 183.504,8.802 183.504,2.839 196.259,2.839 196.259,11.535 198.992,11.535 198.992,2.839 
			211.332,2.839 211.332,8.802 205.12,8.802 205.12,11.535 221.021,11.535 221.021,8.802 213.65,8.802 213.65,2.839 226.405,2.839 
			226.405,11.535 229.138,11.535 229.138,2.839 241.478,2.839 241.478,8.802 235.266,8.802 235.266,11.535 251.167,11.535 
			251.167,8.802 243.796,8.802 243.796,2.839 256.551,2.839 256.551,11.535 259.284,11.535 259.284,2.839 271.623,2.839 
			271.623,8.802 265.412,8.802 265.412,11.535 281.313,11.535 281.313,8.802 273.942,8.802 273.942,2.839 286.697,2.839 
			286.697,11.535 289.43,11.535 289.43,2.839 301.769,2.839 301.769,8.802 295.558,8.802 295.558,11.535 311.459,11.535 
			311.459,8.802 304.088,8.802 304.088,2.839 316.843,2.839 316.843,11.535 319.575,11.535 319.575,2.839 331.915,2.839 
			331.915,8.802 325.703,8.802 325.703,11.535 341.604,11.535 341.604,8.802 334.233,8.802 334.233,2.839 346.988,2.839 
			346.988,11.535 349.721,11.535 349.721,2.839 362.061,2.839 362.061,8.802 355.849,8.802 355.849,11.535 371.75,11.535 
			371.75,8.802 364.379,8.802 364.379,2.839 377.134,2.839 377.134,11.535 379.867,11.535 379.867,2.839 392.206,2.839 
			392.206,8.802 385.995,8.802 385.995,11.535 401.896,11.535 401.896,8.802 394.524,8.802 394.524,2.839 407.279,2.839 
			407.279,11.535 410.013,11.535 410.013,2.839 422.352,2.839 422.352,8.802 416.141,8.802 416.141,11.535 432.042,11.535 
			432.042,8.802 424.671,8.802 424.671,2.839 437.425,2.839 437.425,11.535 440.158,11.535 440.158,2.839 452.498,2.839 
			452.498,8.802 446.286,8.802 446.286,11.535 462.188,11.535 462.188,8.802 454.816,8.802 454.816,2.839 467.571,2.839 
			467.571,11.535 470.304,11.535 470.304,2.839 482.644,2.839 482.644,8.802 476.432,8.802 476.432,11.535 492.333,11.535 
			492.333,8.802 484.962,8.802 484.962,2.839 497.717,2.839 497.717,11.535 500.45,11.535 500.45,2.839 512.789,2.839 
			512.789,8.802 506.578,8.802 506.578,11.535 522.479,11.535 522.479,8.802 515.107,8.802 515.107,2.839 527.862,2.839 
			527.861,11.535 530.471,11.535 530.471,2.839 542.81,2.839 542.81,8.802 536.599,8.802 536.599,11.535 552.5,11.535 552.5,8.802 
			545.128,8.802 545.128,2.839 557.883,2.839 557.883,11.535 558.817,11.535 558.817,0 17.182,0 		"/>
		<polygon class="st0" points="555.896,4.827 547.116,4.827 547.116,6.814 554.487,6.814 554.487,13.522 534.61,13.522 
			534.61,6.814 540.822,6.814 540.822,4.827 532.458,4.827 532.458,13.522 525.874,13.522 525.875,4.827 517.096,4.827 
			517.096,6.814 524.467,6.814 524.467,13.522 504.59,13.522 504.59,6.814 510.802,6.814 510.802,4.827 502.438,4.827 
			502.438,13.522 495.729,13.522 495.729,4.827 486.949,4.827 486.949,6.814 494.321,6.814 494.321,13.522 474.444,13.522 
			474.444,6.814 480.655,6.814 480.655,4.827 472.292,4.827 472.292,13.522 465.583,13.522 465.583,4.827 456.804,4.827 
			456.804,6.814 464.175,6.814 464.175,13.522 444.299,13.522 444.299,6.814 450.51,6.814 450.51,4.827 442.146,4.827 
			442.146,13.522 435.438,13.522 435.438,4.827 426.658,4.827 426.658,6.814 434.029,6.814 434.029,13.522 414.152,13.522 
			414.152,6.814 420.364,6.814 420.364,4.827 412,4.827 412,13.522 405.292,13.522 405.292,4.827 396.513,4.827 396.513,6.814 
			403.884,6.814 403.884,13.522 384.007,13.522 384.007,6.814 390.219,6.814 390.219,4.827 381.854,4.827 381.854,13.522 
			375.146,13.522 375.146,4.827 366.367,4.827 366.367,6.814 373.738,6.814 373.738,13.522 353.861,13.522 353.861,6.814 
			360.073,6.814 360.073,4.827 351.709,4.827 351.709,13.522 345,13.522 345,4.827 336.221,4.827 336.221,6.814 343.592,6.814 
			343.592,13.522 323.716,13.522 323.716,6.814 329.927,6.814 329.927,4.827 321.563,4.827 321.563,13.522 314.854,13.522 
			314.854,4.827 306.075,4.827 306.075,6.814 313.446,6.814 313.446,13.522 293.57,13.522 293.57,6.814 299.781,6.814 
			299.781,4.827 291.417,4.827 291.417,13.522 284.709,13.522 284.709,4.827 275.93,4.827 275.93,6.814 283.301,6.814 
			283.301,13.522 263.424,13.522 263.424,6.814 269.636,6.814 269.636,4.827 261.271,4.827 261.271,13.522 254.563,13.522 
			254.563,4.827 245.784,4.827 245.784,6.814 253.155,6.814 253.155,13.522 233.278,13.522 233.278,6.814 239.49,6.814 
			239.49,4.827 231.126,4.827 231.126,13.522 224.417,13.522 224.417,4.827 215.638,4.827 215.638,6.814 223.009,6.814 
			223.009,13.522 203.133,13.522 203.133,6.814 209.344,6.814 209.344,4.827 200.98,4.827 200.98,13.522 194.271,13.522 
			194.271,4.827 185.492,4.827 185.492,6.814 192.863,6.814 192.863,13.522 172.987,13.522 172.987,6.814 179.198,6.814 
			179.198,4.827 170.833,4.827 170.833,13.522 164.125,13.522 164.125,4.827 155.347,4.827 155.347,6.814 162.718,6.814 
			162.718,13.522 142.841,13.522 142.841,6.814 149.053,6.814 149.053,4.827 140.688,4.827 140.688,13.522 133.979,13.522 
			133.979,4.827 125.201,4.827 125.201,6.814 132.572,6.814 132.572,13.522 112.695,13.522 112.695,6.814 118.907,6.814 
			118.907,4.827 110.542,4.827 110.542,13.522 103.833,13.522 103.833,4.827 95.055,4.827 95.055,6.814 102.426,6.814 
			102.426,13.522 82.55,13.522 82.55,6.814 88.761,6.814 88.761,4.827 80.396,4.827 80.396,13.522 73.688,13.522 73.688,4.827 
			64.909,4.827 64.909,6.814 72.28,6.814 72.28,13.522 52.404,13.522 52.404,6.814 58.615,6.814 58.615,4.827 50.25,4.827 
			50.25,13.522 43.542,13.522 43.542,4.827 34.764,4.827 34.764,6.814 42.135,6.814 42.135,13.522 22.258,13.522 22.258,6.814 
			28.47,6.814 28.47,4.827 20.104,4.827 20.104,13.522 17.182,13.522 17.182,16.435 558.817,16.435 558.817,13.522 555.896,13.522 
					"/>
		<polygon class="st0" points="563.249,17.429 563.249,19.035 571.945,19.035 571.945,28.891 568.467,28.891 568.467,22.679 
			563.249,22.679 563.249,41.065 568.467,41.065 568.467,33.694 571.945,33.694 571.945,43.963 563.249,43.963 563.249,49.181 
			571.945,49.181 571.945,59.037 568.467,59.037 568.467,52.825 563.249,52.825 563.249,71.211 568.467,71.211 568.467,63.84 
			571.945,63.84 571.945,74.109 563.249,74.109 563.249,79.327 571.945,79.327 571.945,89.182 568.467,89.182 568.467,82.971 
			563.249,82.971 563.249,101.357 568.467,101.357 568.467,93.985 571.945,93.985 571.945,104.255 563.249,104.255 563.249,109.472 
			571.945,109.472 571.945,119.328 568.467,119.328 568.467,113.117 563.249,113.117 563.249,131.502 568.467,131.502 
			568.467,124.131 571.945,124.131 571.945,134.4 563.249,134.4 563.249,139.618 571.945,139.618 571.945,149.474 568.467,149.474 
			568.467,143.262 563.249,143.262 563.249,161.648 568.467,161.648 568.467,154.277 571.945,154.277 571.945,164.546 
			563.249,164.546 563.249,169.764 571.945,169.764 571.945,179.62 568.467,179.62 568.467,173.408 563.249,173.408 
			563.249,191.794 568.467,191.794 568.467,184.423 571.945,184.423 571.945,194.693 563.249,194.693 563.249,199.911 
			571.945,199.911 571.945,209.765 568.467,209.765 568.467,203.554 563.249,203.554 563.249,221.939 568.467,221.939 
			568.467,214.568 571.945,214.568 571.945,224.839 563.249,224.839 563.249,230.056 571.945,230.056 571.945,239.911 
			568.467,239.911 568.467,233.7 563.249,233.7 563.249,252.085 568.467,252.085 568.467,244.714 571.945,244.714 571.945,254.984 
			563.249,254.984 563.249,260.202 571.945,260.202 571.945,270.057 568.467,270.057 568.467,263.845 563.249,263.845 
			563.249,282.231 568.467,282.231 568.467,274.86 571.945,274.86 571.945,285.13 563.249,285.13 563.249,290.348 571.945,290.348 
			571.945,300.203 568.467,300.203 568.467,293.991 563.249,293.991 563.249,312.377 568.467,312.377 568.467,305.006 
			571.945,305.006 571.945,315.276 563.249,315.276 563.249,320.494 571.945,320.494 571.945,330.348 568.467,330.348 
			568.467,324.137 563.249,324.137 563.249,342.522 568.467,342.522 568.467,335.151 571.945,335.151 571.945,345.421 
			563.249,345.421 563.249,350.639 571.945,350.639 571.945,360.494 568.467,360.494 568.467,354.283 563.249,354.283 
			563.249,372.668 568.467,372.668 568.467,365.297 571.945,365.297 571.945,375.567 563.249,375.567 563.249,380.785 
			571.945,380.785 571.945,390.64 568.467,390.64 568.467,384.429 563.249,384.429 563.249,402.814 568.467,402.814 
			568.467,395.444 571.945,395.444 571.945,405.714 563.249,405.714 563.249,410.932 571.945,410.932 571.945,420.786 
			568.467,420.786 568.467,414.575 563.249,414.575 563.249,432.961 568.467,432.961 568.467,425.589 571.945,425.589 
			571.945,435.858 563.249,435.858 563.249,441.076 571.945,441.076 571.945,450.932 568.467,450.932 568.467,444.72 
			563.249,444.72 563.249,463.105 568.467,463.105 568.467,455.735 571.945,455.735 571.945,466.006 563.249,466.006 
			563.249,471.223 571.945,471.223 571.945,481.078 568.467,481.078 568.467,474.866 563.249,474.866 563.249,493.252 
			568.467,493.252 568.467,485.88 571.945,485.88 571.945,496.15 563.249,496.15 563.249,501.368 571.945,501.368 571.945,511.223 
			568.467,511.223 568.467,505.012 563.249,505.012 563.249,523.397 568.467,523.397 568.467,516.027 571.945,516.027 
			571.945,526.297 563.249,526.295 563.249,531.389 571.945,531.389 571.945,541.243 568.467,541.243 568.467,535.032 
			563.249,535.032 563.249,553.418 568.467,553.418 568.467,546.048 571.945,546.048 571.945,556.317 563.249,556.317 
			563.249,561.535 571.945,561.535 571.945,571.391 568.467,571.391 568.467,565.18 563.249,565.18 563.249,583.565 
			568.467,583.565 568.467,576.194 571.945,576.194 571.945,586.463 563.249,586.463 563.249,591.681 571.945,591.681 
			571.945,601.537 568.467,601.537 568.467,595.325 563.249,595.325 563.249,613.711 568.467,613.711 568.467,606.34 
			571.945,606.34 571.945,616.609 563.249,616.609 563.249,621.826 571.945,621.826 571.945,631.683 568.467,631.683 
			568.467,625.471 563.249,625.471 563.249,643.856 568.467,643.856 568.467,636.485 571.945,636.485 571.945,646.755 
			563.249,646.755 563.249,651.973 571.945,651.973 571.945,661.828 568.467,661.828 568.467,655.617 563.249,655.617 
			563.249,674.003 568.467,674.003 568.467,666.631 571.945,666.631 571.945,676.9 563.249,676.9 563.249,682.118 571.945,682.118 
			571.945,691.974 568.467,691.974 568.467,685.763 563.249,685.763 563.249,704.148 568.467,704.148 568.467,696.777 
			571.945,696.777 571.945,707.047 563.249,707.047 563.249,712.265 571.945,712.265 571.945,722.12 568.467,722.12 
			568.467,715.908 563.249,715.908 563.249,734.294 568.467,734.294 568.467,726.923 571.945,726.923 571.945,737.193 
			563.249,737.193 563.249,738.757 563.746,738.757 563.746,737.689 572.442,737.689 572.442,726.426 567.97,726.426 
			567.97,733.797 563.746,733.797 563.746,716.405 567.97,716.405 567.97,722.616 572.442,722.616 572.442,711.768 563.746,711.768 
			563.746,707.544 572.442,707.544 572.442,696.28 567.97,696.28 567.97,703.651 563.746,703.651 563.746,686.26 567.97,686.26 
			567.97,692.471 572.442,692.471 572.442,681.621 563.746,681.621 563.746,677.397 572.442,677.397 572.442,666.135 
			567.97,666.135 567.97,673.506 563.746,673.506 563.746,656.113 567.97,656.113 567.97,662.325 572.442,662.325 572.442,651.476 
			563.746,651.476 563.746,647.252 572.442,647.252 572.442,635.988 567.97,635.988 567.97,643.36 563.746,643.36 563.746,625.968 
			567.97,625.968 567.97,632.18 572.442,632.18 572.442,621.33 563.746,621.33 563.746,617.106 572.442,617.106 572.442,605.843 
			567.97,605.843 567.97,613.214 563.746,613.214 563.746,595.822 567.97,595.822 567.97,602.033 572.442,602.033 572.442,591.184 
			563.746,591.184 563.746,586.96 572.442,586.96 572.442,575.697 567.97,575.697 567.97,583.068 563.746,583.068 563.746,565.677 
			567.97,565.677 567.97,571.888 572.442,571.888 572.442,561.038 563.746,561.038 563.746,556.814 572.442,556.814 
			572.442,545.551 567.97,545.551 567.97,552.921 563.746,552.921 563.746,535.529 567.97,535.529 567.97,541.74 572.442,541.74 
			572.442,530.892 563.746,530.892 563.746,526.792 572.442,526.794 572.442,515.53 567.97,515.53 567.97,522.9 563.746,522.9 
			563.746,505.508 567.97,505.508 567.97,511.72 572.442,511.72 572.442,500.871 563.746,500.871 563.746,496.647 572.442,496.647 
			572.442,485.383 567.97,485.383 567.97,492.756 563.746,492.756 563.746,475.363 567.97,475.363 567.97,481.575 572.442,481.575 
			572.442,470.727 563.746,470.727 563.746,466.503 572.442,466.503 572.442,455.238 567.97,455.238 567.97,462.608 
			563.746,462.608 563.746,445.217 567.97,445.217 567.97,451.428 572.442,451.428 572.442,440.579 563.746,440.579 
			563.746,436.355 572.442,436.355 572.442,425.092 567.97,425.092 567.97,432.464 563.746,432.464 563.746,415.072 567.97,415.072 
			567.97,421.283 572.442,421.283 572.442,410.435 563.746,410.435 563.746,406.211 572.442,406.211 572.442,394.947 
			567.97,394.947 567.97,402.317 563.746,402.317 563.746,384.925 567.97,384.925 567.97,391.137 572.442,391.137 572.442,380.288 
			563.746,380.288 563.746,376.064 572.442,376.064 572.442,364.8 567.97,364.8 567.97,372.171 563.746,372.171 563.746,354.779 
			567.97,354.779 567.97,360.991 572.442,360.991 572.442,350.142 563.746,350.142 563.746,345.918 572.442,345.918 
			572.442,334.654 567.97,334.654 567.97,342.026 563.746,342.026 563.746,324.634 567.97,324.634 567.97,330.845 572.442,330.845 
			572.442,319.997 563.746,319.997 563.746,315.773 572.442,315.773 572.442,304.509 567.97,304.509 567.97,311.88 563.746,311.88 
			563.746,294.488 567.97,294.488 567.97,300.699 572.442,300.699 572.442,289.851 563.746,289.851 563.746,285.627 
			572.442,285.627 572.442,274.363 567.97,274.363 567.97,281.734 563.746,281.734 563.746,264.342 567.97,264.342 567.97,270.554 
			572.442,270.554 572.442,259.705 563.746,259.705 563.746,255.481 572.442,255.481 572.442,244.217 567.97,244.217 
			567.97,251.588 563.746,251.588 563.746,234.196 567.97,234.196 567.97,240.408 572.442,240.408 572.442,229.56 563.746,229.56 
			563.746,225.335 572.442,225.335 572.442,214.072 567.97,214.072 567.97,221.443 563.746,221.443 563.746,204.051 567.97,204.051 
			567.97,210.262 572.442,210.262 572.442,199.414 563.746,199.414 563.746,195.19 572.442,195.19 572.442,183.926 567.97,183.926 
			567.97,191.297 563.746,191.297 563.746,173.905 567.97,173.905 567.97,180.116 572.442,180.116 572.442,169.267 563.746,169.267 
			563.746,165.043 572.442,165.043 572.442,153.78 567.97,153.78 567.97,161.151 563.746,161.151 563.746,143.759 567.97,143.759 
			567.97,149.971 572.442,149.971 572.442,139.121 563.746,139.121 563.746,134.897 572.442,134.897 572.442,123.634 
			567.97,123.634 567.97,131.005 563.746,131.005 563.746,113.614 567.97,113.614 567.97,119.825 572.442,119.825 572.442,108.976 
			563.746,108.976 563.746,104.751 572.442,104.751 572.442,93.489 567.97,93.489 567.97,100.86 563.746,100.86 563.746,83.468 
			567.97,83.468 567.97,89.679 572.442,89.679 572.442,78.83 563.746,78.83 563.746,74.606 572.442,74.606 572.442,63.343 
			567.97,63.343 567.97,70.714 563.746,70.714 563.746,53.322 567.97,53.322 567.97,59.534 572.442,59.534 572.442,48.684 
			563.746,48.684 563.746,44.46 572.442,44.46 572.442,33.197 567.97,33.197 567.97,40.568 563.746,40.568 563.746,23.176 
			567.97,23.176 567.97,29.388 572.442,29.388 572.442,18.538 563.746,18.538 563.746,17.429 		"/>
		<polygon class="st0" points="564.491,17.793 573.188,17.793 573.188,30.133 567.225,30.133 567.225,23.922 564.491,23.922 
			564.491,39.823 567.225,39.823 567.225,32.452 573.188,32.452 573.188,45.206 564.491,45.206 564.491,47.938 573.188,47.938 
			573.188,60.279 567.225,60.279 567.225,54.067 564.491,54.067 564.491,69.969 567.225,69.969 567.225,62.598 573.188,62.598 
			573.188,75.351 564.491,75.351 564.491,78.084 573.188,78.084 573.188,90.425 567.225,90.425 567.225,84.213 564.491,84.213 
			564.491,100.114 567.225,100.114 567.225,92.743 573.188,92.743 573.188,105.497 564.491,105.497 564.491,108.23 573.188,108.23 
			573.188,120.57 567.225,120.57 567.225,114.359 564.491,114.359 564.491,130.26 567.225,130.26 567.225,122.889 573.188,122.889 
			573.188,135.643 564.491,135.643 564.491,138.376 573.188,138.376 573.188,150.716 567.225,150.716 567.225,144.505 
			564.491,144.505 564.491,160.406 567.225,160.406 567.225,153.035 573.188,153.035 573.188,165.789 564.491,165.789 
			564.491,168.521 573.188,168.521 573.188,180.862 567.225,180.862 567.225,174.65 564.491,174.65 564.491,190.552 
			567.225,190.552 567.225,183.181 573.188,183.181 573.188,195.935 564.491,195.935 564.491,198.668 573.188,198.668 
			573.188,211.008 567.225,211.008 567.225,204.796 564.491,204.796 564.491,220.697 567.225,220.697 567.225,213.326 
			573.188,213.326 573.188,226.081 564.491,226.081 564.491,228.814 573.188,228.814 573.188,241.153 567.225,241.153 
			567.225,234.942 564.491,234.942 564.491,250.843 567.225,250.843 567.225,243.472 573.188,243.472 573.188,256.227 
			564.491,256.227 564.491,258.959 573.188,258.959 573.188,271.299 567.225,271.299 567.225,265.088 564.491,265.088 
			564.491,280.989 567.225,280.989 567.225,273.618 573.188,273.618 573.188,286.373 564.491,286.373 564.491,289.105 
			573.188,289.105 573.188,301.445 567.225,301.445 567.225,295.233 564.491,295.233 564.491,311.135 567.225,311.135 
			567.225,303.763 573.188,303.763 573.188,316.518 564.491,316.518 564.491,319.251 573.188,319.251 573.188,331.59 
			567.225,331.59 567.225,325.379 564.491,325.379 564.491,341.28 567.225,341.28 567.225,333.909 573.188,333.909 573.188,346.664 
			564.491,346.664 564.491,349.397 573.188,349.397 573.188,361.736 567.225,361.736 567.225,355.525 564.491,355.525 
			564.491,371.426 567.225,371.426 567.225,364.055 573.188,364.055 573.188,376.81 564.491,376.81 564.491,379.542 
			573.188,379.542 573.188,391.882 567.225,391.882 567.225,385.671 564.491,385.671 564.491,401.572 567.225,401.572 
			567.225,394.201 573.188,394.201 573.188,406.956 564.491,406.956 564.491,409.689 573.188,409.689 573.188,422.028 
			567.225,422.028 567.225,415.817 564.491,415.817 564.491,431.719 567.225,431.719 567.225,424.347 573.188,424.347 
			573.188,437.102 564.491,437.102 564.491,439.834 573.188,439.834 573.188,452.174 567.225,452.174 567.225,445.962 
			564.491,445.962 564.491,461.863 567.225,461.863 567.225,454.493 573.188,454.493 573.188,467.248 564.491,467.248 
			564.491,469.98 573.188,469.98 573.188,482.32 567.225,482.32 567.225,476.108 564.491,476.108 564.491,492.01 567.225,492.01 
			567.225,484.638 573.188,484.638 573.188,497.393 564.491,497.393 564.491,500.126 573.188,500.126 573.188,512.465 
			567.225,512.465 567.225,506.254 564.491,506.254 564.491,522.155 567.225,522.155 567.225,514.784 573.188,514.784 
			573.188,527.539 564.491,527.537 564.491,530.146 573.188,530.146 573.188,542.485 567.225,542.485 567.225,536.274 
			564.491,536.274 564.491,552.176 567.225,552.176 567.225,544.805 573.188,544.805 573.188,557.56 564.491,557.56 
			564.491,560.293 573.188,560.293 573.188,572.633 567.225,572.633 567.225,566.422 564.491,566.422 564.491,582.323 
			567.225,582.323 567.225,574.952 573.188,574.952 573.188,587.706 564.491,587.706 564.491,590.438 573.188,590.438 
			573.188,602.779 567.225,602.779 567.225,596.567 564.491,596.567 564.491,612.469 567.225,612.469 567.225,605.098 
			573.188,605.098 573.188,617.852 564.491,617.852 564.491,620.584 573.188,620.584 573.188,632.925 567.225,632.925 
			567.225,626.713 564.491,626.713 564.491,642.614 567.225,642.614 567.225,635.243 573.188,635.243 573.188,647.997 
			564.491,647.997 564.491,650.73 573.188,650.73 573.188,663.07 567.225,663.07 567.225,656.859 564.491,656.859 564.491,672.76 
			567.225,672.76 567.225,665.389 573.188,665.389 573.188,678.143 564.491,678.143 564.491,680.876 573.188,680.876 
			573.188,693.216 567.225,693.216 567.225,687.005 564.491,687.005 564.491,702.906 567.225,702.906 567.225,695.535 
			573.188,695.535 573.188,708.289 564.491,708.289 564.491,711.022 573.188,711.022 573.188,723.362 567.225,723.362 
			567.225,717.15 564.491,717.15 564.491,733.052 567.225,733.052 567.225,725.681 573.188,725.681 573.188,738.436 
			564.491,738.436 564.491,738.757 576,738.757 576,17.429 564.491,17.429 		"/>
		<polygon class="st0" points="562.504,736.447 571.199,736.447 571.199,727.668 569.212,727.668 569.212,735.039 562.504,735.039 
			562.504,715.163 569.212,715.163 569.212,721.374 571.199,721.374 571.199,713.01 562.504,713.01 562.504,706.302 
			571.199,706.302 571.199,697.522 569.212,697.522 569.212,704.894 562.504,704.894 562.504,685.018 569.212,685.018 
			569.212,691.229 571.199,691.229 571.199,682.863 562.504,682.863 562.504,676.155 571.199,676.155 571.199,667.377 
			569.212,667.377 569.212,674.748 562.504,674.748 562.504,654.871 569.212,654.871 569.212,661.083 571.199,661.083 
			571.199,652.718 562.504,652.718 562.504,646.01 571.199,646.01 571.199,637.23 569.212,637.23 569.212,644.603 562.504,644.603 
			562.504,624.726 569.212,624.726 569.212,630.938 571.199,630.938 571.199,622.572 562.504,622.572 562.504,615.863 
			571.199,615.863 571.199,607.085 569.212,607.085 569.212,614.456 562.504,614.456 562.504,594.58 569.212,594.58 
			569.212,600.791 571.199,600.791 571.199,592.427 562.504,592.427 562.504,585.718 571.199,585.718 571.199,576.939 
			569.212,576.939 569.212,584.311 562.504,584.311 562.504,564.435 569.212,564.435 569.212,570.646 571.199,570.646 
			571.199,562.28 562.504,562.28 562.504,555.572 571.199,555.572 571.199,546.793 569.212,546.793 569.212,554.163 
			562.504,554.163 562.504,534.286 569.212,534.286 569.212,540.498 571.199,540.498 571.199,532.134 562.504,532.134 
			562.504,525.55 571.199,525.552 571.199,516.772 569.212,516.772 569.212,524.143 562.504,524.143 562.504,504.266 
			569.212,504.266 569.212,510.478 571.199,510.478 571.199,502.113 562.504,502.113 562.504,495.405 571.199,495.405 
			571.199,486.626 569.212,486.626 569.212,493.998 562.504,493.998 562.504,474.121 569.212,474.121 569.212,480.333 
			571.199,480.333 571.199,471.969 562.504,471.969 562.504,465.26 571.199,465.26 571.199,456.48 569.212,456.48 569.212,463.851 
			562.504,463.851 562.504,443.975 569.212,443.975 569.212,450.186 571.199,450.186 571.199,441.822 562.504,441.822 
			562.504,435.113 571.199,435.113 571.199,426.334 569.212,426.334 569.212,433.706 562.504,433.706 562.504,413.83 
			569.212,413.83 569.212,420.041 571.199,420.041 571.199,411.677 562.504,411.677 562.504,404.969 571.199,404.969 
			571.199,396.189 569.212,396.189 569.212,403.56 562.504,403.56 562.504,383.683 569.212,383.683 569.212,389.895 
			571.199,389.895 571.199,381.53 562.504,381.53 562.504,374.822 571.199,374.822 571.199,366.042 569.212,366.042 
			569.212,373.414 562.504,373.414 562.504,353.537 569.212,353.537 569.212,359.749 571.199,359.749 571.199,351.385 
			562.504,351.385 562.504,344.676 571.199,344.676 571.199,335.897 569.212,335.897 569.212,343.268 562.504,343.268 
			562.504,323.392 569.212,323.392 569.212,329.603 571.199,329.603 571.199,321.239 562.504,321.239 562.504,314.53 
			571.199,314.53 571.199,305.751 569.212,305.751 569.212,313.122 562.504,313.122 562.504,293.246 569.212,293.246 
			569.212,299.457 571.199,299.457 571.199,291.093 562.504,291.093 562.504,284.385 571.199,284.385 571.199,275.605 
			569.212,275.605 569.212,282.977 562.504,282.977 562.504,263.1 569.212,263.1 569.212,269.312 571.199,269.312 571.199,260.947 
			562.504,260.947 562.504,254.239 571.199,254.239 571.199,245.459 569.212,245.459 569.212,252.831 562.504,252.831 
			562.504,232.954 569.212,232.954 569.212,239.166 571.199,239.166 571.199,230.802 562.504,230.802 562.504,224.093 
			571.199,224.093 571.199,215.314 569.212,215.314 569.212,222.685 562.504,222.685 562.504,202.809 569.212,202.809 
			569.212,209.02 571.199,209.02 571.199,200.656 562.504,200.656 562.504,193.948 571.199,193.948 571.199,185.168 
			569.212,185.168 569.212,192.539 562.504,192.539 562.504,172.663 569.212,172.663 569.212,178.874 571.199,178.874 
			571.199,170.509 562.504,170.509 562.504,163.801 571.199,163.801 571.199,155.022 569.212,155.022 569.212,162.394 
			562.504,162.394 562.504,142.517 569.212,142.517 569.212,148.729 571.199,148.729 571.199,140.363 562.504,140.363 
			562.504,133.655 571.199,133.655 571.199,124.876 569.212,124.876 569.212,132.248 562.504,132.248 562.504,112.371 
			569.212,112.371 569.212,118.583 571.199,118.583 571.199,110.218 562.504,110.218 562.504,103.509 571.199,103.509 
			571.199,94.731 569.212,94.731 569.212,102.102 562.504,102.102 562.504,82.226 569.212,82.226 569.212,88.437 571.199,88.437 
			571.199,80.072 562.504,80.072 562.504,73.364 571.199,73.364 571.199,64.585 569.212,64.585 569.212,71.957 562.504,71.957 
			562.504,52.08 569.212,52.08 569.212,58.291 571.199,58.291 571.199,49.926 562.504,49.926 562.504,43.218 571.199,43.218 
			571.199,34.439 569.212,34.439 569.212,41.811 562.504,41.811 562.504,21.934 569.212,21.934 569.212,28.146 571.199,28.146 
			571.199,19.78 562.504,19.78 562.504,17.429 559.812,17.429 559.812,738.757 562.504,738.757 		"/>
		<polygon class="st0" points="17.182,742.581 20.104,742.581 20.104,751.277 28.47,751.277 28.47,749.29 22.258,749.29 
			22.258,742.581 42.135,742.581 42.135,749.29 34.764,749.29 34.764,751.277 43.542,751.277 43.542,742.581 50.25,742.581 
			50.25,751.277 58.615,751.277 58.615,749.29 52.404,749.29 52.404,742.581 72.28,742.581 72.28,749.29 64.909,749.29 
			64.909,751.277 73.688,751.277 73.688,742.581 80.396,742.581 80.396,751.277 88.761,751.277 88.761,749.29 82.55,749.29 
			82.55,742.581 102.426,742.581 102.426,749.29 95.055,749.29 95.055,751.277 103.833,751.277 103.833,742.581 110.542,742.581 
			110.542,751.277 118.907,751.277 118.907,749.29 112.695,749.29 112.695,742.581 132.572,742.581 132.572,749.29 125.201,749.29 
			125.201,751.277 133.979,751.277 133.979,742.581 140.688,742.581 140.688,751.277 149.053,751.277 149.053,749.29 
			142.841,749.29 142.841,742.581 162.718,742.581 162.718,749.29 155.347,749.29 155.347,751.277 164.125,751.277 164.125,742.581 
			170.833,742.581 170.833,751.277 179.198,751.277 179.198,749.29 172.987,749.29 172.987,742.581 192.863,742.581 192.863,749.29 
			185.492,749.29 185.492,751.277 194.271,751.277 194.271,742.581 200.98,742.581 200.98,751.277 209.344,751.277 209.344,749.29 
			203.133,749.29 203.133,742.581 223.009,742.581 223.009,749.29 215.638,749.29 215.638,751.277 224.417,751.277 224.417,742.581 
			231.126,742.581 231.126,751.277 239.49,751.277 239.49,749.29 233.278,749.29 233.278,742.581 253.155,742.581 253.155,749.29 
			245.784,749.29 245.784,751.277 254.563,751.277 254.563,742.581 261.271,742.581 261.271,751.277 269.636,751.277 
			269.636,749.29 263.424,749.29 263.424,742.581 283.301,742.581 283.301,749.29 275.93,749.29 275.93,751.277 284.709,751.277 
			284.709,742.581 291.417,742.581 291.417,751.277 299.781,751.277 299.781,749.29 293.57,749.29 293.57,742.581 313.446,742.581 
			313.446,749.29 306.075,749.29 306.075,751.277 314.854,751.277 314.854,742.581 321.563,742.581 321.563,751.277 
			329.927,751.277 329.927,749.29 323.716,749.29 323.716,742.581 343.592,742.581 343.592,749.29 336.221,749.29 336.221,751.277 
			345,751.277 345,742.581 351.709,742.581 351.709,751.277 360.073,751.277 360.073,749.29 353.861,749.29 353.861,742.581 
			373.738,742.581 373.738,749.29 366.367,749.29 366.367,751.277 375.146,751.277 375.146,742.581 381.854,742.581 
			381.854,751.277 390.219,751.277 390.219,749.29 384.007,749.29 384.007,742.581 403.884,742.581 403.884,749.29 396.513,749.29 
			396.513,751.277 405.292,751.277 405.292,742.581 412,742.581 412,751.277 420.364,751.277 420.364,749.29 414.152,749.29 
			414.152,742.581 434.029,742.581 434.029,749.29 426.658,749.29 426.658,751.277 435.438,751.277 435.438,742.581 
			442.146,742.581 442.146,751.277 450.51,751.277 450.51,749.29 444.299,749.29 444.299,742.581 464.175,742.581 464.175,749.29 
			456.804,749.29 456.804,751.277 465.583,751.277 465.583,742.581 472.292,742.581 472.292,751.277 480.655,751.277 
			480.655,749.29 474.444,749.29 474.444,742.581 494.321,742.581 494.321,749.29 486.949,749.29 486.949,751.277 495.729,751.277 
			495.729,742.581 502.438,742.581 502.438,751.277 510.802,751.277 510.802,749.29 504.59,749.29 504.59,742.581 524.467,742.581 
			524.467,749.29 517.096,749.29 517.096,751.277 525.875,751.277 525.874,742.581 532.458,742.581 532.458,751.277 
			540.822,751.277 540.822,749.29 534.61,749.29 534.61,742.581 554.487,742.581 554.487,749.29 547.116,749.29 547.116,751.277 
			555.896,751.277 555.896,742.581 558.817,742.581 558.817,739.793 17.182,739.793 		"/>
		<polygon class="st0" points="557.883,753.265 545.128,753.265 545.128,747.302 552.5,747.302 552.5,744.569 536.599,744.569 
			536.599,747.302 542.81,747.302 542.81,753.265 530.471,753.265 530.471,744.569 527.861,744.569 527.862,753.265 
			515.107,753.265 515.107,747.302 522.479,747.302 522.479,744.569 506.578,744.569 506.578,747.302 512.789,747.302 
			512.789,753.265 500.45,753.265 500.45,744.569 497.717,744.569 497.717,753.265 484.962,753.265 484.962,747.302 
			492.333,747.302 492.333,744.569 476.432,744.569 476.432,747.302 482.644,747.302 482.644,753.265 470.304,753.265 
			470.304,744.569 467.571,744.569 467.571,753.265 454.816,753.265 454.816,747.302 462.188,747.302 462.188,744.569 
			446.286,744.569 446.286,747.302 452.498,747.302 452.498,753.265 440.158,753.265 440.158,744.569 437.425,744.569 
			437.425,753.265 424.671,753.265 424.671,747.302 432.042,747.302 432.042,744.569 416.141,744.569 416.141,747.302 
			422.352,747.302 422.352,753.265 410.013,753.265 410.013,744.569 407.279,744.569 407.279,753.265 394.524,753.265 
			394.524,747.302 401.896,747.302 401.896,744.569 385.995,744.569 385.995,747.302 392.206,747.302 392.206,753.265 
			379.867,753.265 379.867,744.569 377.134,744.569 377.134,753.265 364.379,753.265 364.379,747.302 371.75,747.302 
			371.75,744.569 355.849,744.569 355.849,747.302 362.061,747.302 362.061,753.265 349.721,753.265 349.721,744.569 
			346.988,744.569 346.988,753.265 334.233,753.265 334.233,747.302 341.604,747.302 341.604,744.569 325.703,744.569 
			325.703,747.302 331.915,747.302 331.915,753.265 319.575,753.265 319.575,744.569 316.843,744.569 316.843,753.265 
			304.088,753.265 304.088,747.302 311.459,747.302 311.459,744.569 295.558,744.569 295.558,747.302 301.769,747.302 
			301.769,753.265 289.43,753.265 289.43,744.569 286.697,744.569 286.697,753.265 273.942,753.265 273.942,747.302 
			281.313,747.302 281.313,744.569 265.412,744.569 265.412,747.302 271.623,747.302 271.623,753.265 259.284,753.265 
			259.284,744.569 256.551,744.569 256.551,753.265 243.796,753.265 243.796,747.302 251.167,747.302 251.167,744.569 
			235.266,744.569 235.266,747.302 241.478,747.302 241.478,753.265 229.138,753.265 229.138,744.569 226.405,744.569 
			226.405,753.265 213.65,753.265 213.65,747.302 221.021,747.302 221.021,744.569 205.12,744.569 205.12,747.302 211.332,747.302 
			211.332,753.265 198.992,753.265 198.992,744.569 196.259,744.569 196.259,753.265 183.504,753.265 183.504,747.302 
			190.876,747.302 190.876,744.569 174.975,744.569 174.975,747.302 181.186,747.302 181.186,753.265 168.846,753.265 
			168.846,744.569 166.113,744.569 166.113,753.265 153.359,753.265 153.359,747.302 160.73,747.302 160.73,744.569 
			144.829,744.569 144.829,747.302 151.04,747.302 151.04,753.265 138.7,753.265 138.7,744.569 135.967,744.569 135.967,753.265 
			123.213,753.265 123.213,747.302 130.584,747.302 130.584,744.569 114.683,744.569 114.683,747.302 120.895,747.302 
			120.895,753.265 108.554,753.265 108.554,744.569 105.821,744.569 105.821,753.265 93.067,753.265 93.067,747.302 
			100.438,747.302 100.438,744.569 84.537,744.569 84.537,747.302 90.749,747.302 90.749,753.265 78.408,753.265 78.408,744.569 
			75.675,744.569 75.675,753.265 62.921,753.265 62.921,747.302 70.293,747.302 70.293,744.569 54.392,744.569 54.392,747.302 
			60.603,747.302 60.603,753.265 48.263,753.265 48.263,744.569 45.53,744.569 45.53,753.265 32.776,753.265 32.776,747.302 
			40.147,747.302 40.147,744.569 24.246,744.569 24.246,747.302 30.457,747.302 30.457,753.265 18.117,753.265 18.117,744.569 
			17.182,744.569 17.182,756.229 558.817,756.229 558.817,744.569 557.883,744.569 		"/>
		<polygon class="st0" points="556.641,752.022 546.371,752.022 546.371,748.544 553.742,748.544 553.742,743.327 535.355,743.327 
			535.355,748.544 541.567,748.544 541.567,752.022 531.713,752.022 531.713,743.327 526.619,743.327 526.62,752.022 
			516.35,752.022 516.35,748.544 523.721,748.544 523.721,743.327 505.336,743.327 505.336,748.544 511.547,748.544 
			511.547,752.022 501.692,752.022 501.692,743.327 496.475,743.327 496.475,752.022 486.204,752.022 486.204,748.544 
			493.575,748.544 493.575,743.327 475.189,743.327 475.189,748.544 481.401,748.544 481.401,752.022 471.546,752.022 
			471.546,743.327 466.329,743.327 466.329,752.022 456.059,752.022 456.059,748.544 463.43,748.544 463.43,743.327 
			445.044,743.327 445.044,748.544 451.256,748.544 451.256,752.022 441.4,752.022 441.4,743.327 436.183,743.327 436.183,752.022 
			425.913,752.022 425.913,748.544 433.284,748.544 433.284,743.327 414.898,743.327 414.898,748.544 421.109,748.544 
			421.109,752.022 411.255,752.022 411.255,743.327 406.037,743.327 406.037,752.022 395.767,752.022 395.767,748.544 
			403.139,748.544 403.139,743.327 384.753,743.327 384.753,748.544 390.964,748.544 390.964,752.022 381.109,752.022 
			381.109,743.327 375.892,743.327 375.892,752.022 365.621,752.022 365.621,748.544 372.992,748.544 372.992,743.327 
			354.606,743.327 354.606,748.544 360.818,748.544 360.818,752.022 350.963,752.022 350.963,743.327 345.746,743.327 
			345.746,752.022 335.476,752.022 335.476,748.544 342.847,748.544 342.847,743.327 324.461,743.327 324.461,748.544 
			330.673,748.544 330.673,752.022 320.817,752.022 320.817,743.327 315.6,743.327 315.6,752.022 305.33,752.022 305.33,748.544 
			312.701,748.544 312.701,743.327 294.315,743.327 294.315,748.544 300.526,748.544 300.526,752.022 290.672,752.022 
			290.672,743.327 285.454,743.327 285.454,752.022 275.184,752.022 275.184,748.544 282.555,748.544 282.555,743.327 
			264.169,743.327 264.169,748.544 270.381,748.544 270.381,752.022 260.526,752.022 260.526,743.327 255.309,743.327 
			255.309,752.022 245.039,752.022 245.039,748.544 252.41,748.544 252.41,743.327 234.024,743.327 234.024,748.544 
			240.235,748.544 240.235,752.022 230.38,752.022 230.38,743.327 225.163,743.327 225.163,752.022 214.893,752.022 
			214.893,748.544 222.264,748.544 222.264,743.327 203.878,743.327 203.878,748.544 210.089,748.544 210.089,752.022 
			200.235,752.022 200.235,743.327 195.017,743.327 195.017,752.022 184.747,752.022 184.747,748.544 192.118,748.544 
			192.118,743.327 173.732,743.327 173.732,748.544 179.944,748.544 179.944,752.022 170.088,752.022 170.088,743.327 
			164.87,743.327 164.87,752.022 154.601,752.022 154.601,748.544 161.972,748.544 161.972,743.327 143.586,743.327 
			143.586,748.544 149.798,748.544 149.798,752.022 139.942,752.022 139.942,743.327 134.725,743.327 134.725,752.022 
			124.456,752.022 124.456,748.544 131.827,748.544 131.827,743.327 113.441,743.327 113.441,748.544 119.652,748.544 
			119.652,752.022 109.796,752.022 109.796,743.327 104.579,743.327 104.579,752.022 94.31,752.022 94.31,748.544 101.681,748.544 
			101.681,743.327 83.295,743.327 83.295,748.544 89.506,748.544 89.506,752.022 79.651,752.022 79.651,743.327 74.433,743.327 
			74.433,752.022 64.164,752.022 64.164,748.544 71.535,748.544 71.535,743.327 53.149,743.327 53.149,748.544 59.361,748.544 
			59.361,752.022 49.505,752.022 49.505,743.327 44.288,743.327 44.288,752.022 34.018,752.022 34.018,748.544 41.389,748.544 
			41.389,743.327 23.003,743.327 23.003,748.544 29.215,748.544 29.215,752.022 19.359,752.022 19.359,743.327 17.182,743.327 
			17.182,743.824 18.862,743.824 18.862,752.52 29.712,752.52 29.712,748.048 23.5,748.048 23.5,743.824 40.893,743.824 
			40.893,748.048 33.521,748.048 33.521,752.52 44.784,752.52 44.784,743.824 49.008,743.824 49.008,752.52 59.857,752.52 
			59.857,748.048 53.646,748.048 53.646,743.824 71.038,743.824 71.038,748.048 63.667,748.048 63.667,752.52 74.93,752.52 
			74.93,743.824 79.154,743.824 79.154,752.52 90.003,752.52 90.003,748.048 83.792,748.048 83.792,743.824 101.184,743.824 
			101.184,748.048 93.813,748.048 93.813,752.52 105.076,752.52 105.076,743.824 109.299,743.824 109.299,752.52 120.149,752.52 
			120.149,748.048 113.938,748.048 113.938,743.824 131.33,743.824 131.33,748.048 123.958,748.048 123.958,752.52 135.222,752.52 
			135.222,743.824 139.445,743.824 139.445,752.52 150.295,752.52 150.295,748.048 144.083,748.048 144.083,743.824 
			161.476,743.824 161.476,748.048 154.104,748.048 154.104,752.52 165.367,752.52 165.367,743.824 169.591,743.824 169.591,752.52 
			180.44,752.52 180.44,748.048 174.229,748.048 174.229,743.824 191.621,743.824 191.621,748.048 184.25,748.048 184.25,752.52 
			195.514,752.52 195.514,743.824 199.738,743.824 199.738,752.52 210.586,752.52 210.586,748.048 204.375,748.048 204.375,743.824 
			221.767,743.824 221.767,748.048 214.396,748.048 214.396,752.52 225.66,752.52 225.66,743.824 229.883,743.824 229.883,752.52 
			240.732,752.52 240.732,748.048 234.521,748.048 234.521,743.824 251.913,743.824 251.913,748.048 244.542,748.048 
			244.542,752.52 255.806,752.52 255.806,743.824 260.029,743.824 260.029,752.52 270.878,752.52 270.878,748.048 264.667,748.048 
			264.667,743.824 282.059,743.824 282.059,748.048 274.687,748.048 274.687,752.52 285.951,752.52 285.951,743.824 
			290.175,743.824 290.175,752.52 301.023,752.52 301.023,748.048 294.813,748.048 294.813,743.824 312.204,743.824 
			312.204,748.048 304.833,748.048 304.833,752.52 316.097,752.52 316.097,743.824 320.32,743.824 320.32,752.52 331.169,752.52 
			331.169,748.048 324.958,748.048 324.958,743.824 342.35,743.824 342.35,748.048 334.979,748.048 334.979,752.52 346.242,752.52 
			346.242,743.824 350.467,743.824 350.467,752.52 361.315,752.52 361.315,748.048 355.104,748.048 355.104,743.824 
			372.496,743.824 372.496,748.048 365.124,748.048 365.124,752.52 376.389,752.52 376.389,743.824 380.612,743.824 380.612,752.52 
			391.461,752.52 391.461,748.048 385.249,748.048 385.249,743.824 402.642,743.824 402.642,748.048 395.271,748.048 
			395.271,752.52 406.534,752.52 406.534,743.824 410.758,743.824 410.758,752.52 421.606,752.52 421.606,748.048 415.396,748.048 
			415.396,743.824 432.787,743.824 432.787,748.048 425.416,748.048 425.416,752.52 436.68,752.52 436.68,743.824 440.903,743.824 
			440.903,752.52 451.752,752.52 451.752,748.048 445.541,748.048 445.541,743.824 462.933,743.824 462.933,748.048 
			455.562,748.048 455.562,752.52 466.825,752.52 466.825,743.824 471.05,743.824 471.05,752.52 481.898,752.52 481.898,748.048 
			475.687,748.048 475.687,743.824 493.078,743.824 493.078,748.048 485.707,748.048 485.707,752.52 496.972,752.52 
			496.972,743.824 501.195,743.824 501.195,752.52 512.044,752.52 512.044,748.048 505.832,748.048 505.832,743.824 
			523.225,743.824 523.225,748.048 515.854,748.048 515.854,752.52 527.117,752.52 527.116,743.824 531.216,743.824 531.216,752.52 
			542.064,752.52 542.064,748.048 535.853,748.048 535.853,743.824 553.245,743.824 553.245,748.048 545.874,748.048 
			545.874,752.52 557.138,752.52 557.138,743.824 558.817,743.824 558.817,743.327 556.641,743.327 		"/>
		<path class="st0" d="M5.866,8.876L5.799,8.775L5.696,8.841c-1.463,0.928-2.312,2.477-2.688,3.317L2.872,12.46l0.302-0.14
			c1.469-0.681,2.58-1.575,3.301-2.656l0.039-0.166L6.447,9.455C6.216,9.301,6.021,9.106,5.866,8.876z"/>
		<path class="st0" d="M5.419,8.072L5.55,8.065L5.527,7.855C5.521,7.811,5.515,7.767,5.515,7.721c0-0.045,0.007-0.088,0.013-0.132
			L5.55,7.385L5.418,7.378C4.762,7.347,4.067,7.43,3.502,7.607L3.118,7.728l0.385,0.117C4.017,8,4.561,8.08,5.12,8.08
			C5.222,8.08,5.322,8.077,5.419,8.072z"/>
		<path class="st0" d="M7.43,5.653c0.113-0.015,0.228-0.015,0.336,0l0.071,0.009l0.087-0.006l0.042-0.069l0.017-0.058
			c0.028-0.598-0.059-1.237-0.26-1.898L7.607,3.245L7.487,3.63C7.343,4.09,7.181,4.795,7.222,5.545l0.008,0.132L7.43,5.653z"/>
		<path class="st0" d="M7.854,9.916L7.95,9.833L7.907,9.771L7.761,9.789c-0.106,0.015-0.221,0.015-0.328,0l-0.07-0.009L7.276,9.784
			L7.234,9.853L7.217,9.91c-0.032,0.599,0.058,1.24,0.268,1.907l0.12,0.382l0.117-0.384c0.202-0.661,0.29-1.298,0.263-1.893
			L7.966,9.864L7.854,9.916z"/>
		<path class="st0" d="M9.333,6.575l0.037,0.056h0.067l0.084-0.023c1.092-0.718,1.993-1.833,2.682-3.314l0.141-0.302l-0.304,0.137
			c-0.842,0.377-2.391,1.23-3.319,2.694L8.656,5.924l0.1,0.067C8.986,6.146,9.18,6.343,9.333,6.575z"/>
		<path class="st0" d="M5.69,6.608l0.103,0.068l0.069-0.103c0.153-0.231,0.347-0.427,0.575-0.581l0.099-0.067L6.472,5.823
			C5.545,4.359,3.998,3.506,3.156,3.128L2.853,2.992l0.141,0.302C3.68,4.771,4.588,5.886,5.69,6.608z"/>
		<path class="st0" d="M15.195,0H0v15.441h15.195V0z M10.907,8.979c1.723,1.638,2.363,3.925,2.39,4.021l0.187,0.69l-0.672-0.242
			c-1.645-0.591-2.973-1.409-3.948-2.431l-0.174-0.182L8.65,11.083c-0.113,0.708-0.346,1.442-0.694,2.18L7.652,13.91l-0.355-0.621
			c-0.006-0.01-0.543-0.945-0.753-2.205l-0.041-0.246l-0.172,0.181c-0.975,1.023-2.304,1.841-3.947,2.43L1.71,13.69L1.897,13
			c0.027-0.096,0.667-2.382,2.391-4.021L4.47,8.807l-0.248-0.04C3.507,8.651,2.778,8.42,2.055,8.08L1.408,7.774L2.027,7.42
			c0.01-0.006,0.963-0.542,2.212-0.748l0.247-0.041L4.304,6.459C3.277,5.483,2.456,4.152,1.862,2.501L1.621,1.829l0.69,0.187
			c0.097,0.026,2.382,0.667,4.022,2.392l0.172,0.181l0.041-0.245c0.207-1.223,0.729-2.152,0.75-2.19l0.355-0.621l0.305,0.647
			c0.349,0.74,0.575,1.447,0.692,2.164l0.04,0.248l0.173-0.183c1.638-1.724,3.926-2.365,4.023-2.392l0.689-0.187l-0.241,0.672
			c-0.592,1.651-1.414,2.982-2.441,3.958L10.71,6.632l0.247,0.041c1.247,0.205,2.172,0.725,2.209,0.747l0.621,0.355L13.14,8.079
			c-0.721,0.341-1.451,0.573-2.167,0.688l-0.247,0.04L10.907,8.979z"/>
		<path class="st0" d="M12.074,7.729l-0.381-0.122c-0.564-0.178-1.253-0.261-1.917-0.229L9.644,7.385l0.023,0.204
			C9.673,7.632,9.68,7.676,9.68,7.721c0,0.051-0.007,0.102-0.014,0.151L9.643,8.076L9.77,8.086c0.027,0.002,0.052,0.006,0.079,0.009
			c0.053,0.007,0.106,0.014,0.171,0.014c0.532,0,1.095-0.088,1.672-0.264L12.074,7.729z"/>
		<circle class="st0" cx="7.597" cy="7.721" r="1.337"/>
		<path class="st0" d="M9.498,8.842L9.395,8.776L9.328,8.877C9.174,9.105,8.98,9.3,8.75,9.454L8.686,9.497l0.018,0.119l0.021,0.053
			c0.72,1.078,1.829,1.97,3.295,2.65l0.303,0.141l-0.137-0.304C11.808,11.316,10.957,9.771,9.498,8.842z"/>
		<path class="st0" d="M566.671,8.876l-0.066-0.101l-0.104,0.065c-1.462,0.928-2.312,2.477-2.688,3.317l-0.136,0.303l0.302-0.14
			c1.47-0.681,2.58-1.575,3.301-2.656l0.039-0.166l-0.065-0.043C567.021,9.301,566.826,9.106,566.671,8.876z"/>
		<path class="st0" d="M566.225,8.072l0.131-0.007l-0.023-0.209c-0.006-0.044-0.012-0.088-0.012-0.135
			c0-0.045,0.006-0.088,0.012-0.132l0.023-0.204l-0.132-0.007c-0.656-0.031-1.351,0.052-1.916,0.229l-0.384,0.121l0.385,0.117
			c0.514,0.155,1.058,0.235,1.616,0.235C566.026,8.08,566.128,8.077,566.225,8.072z"/>
		<path class="st0" d="M568.235,5.653c0.113-0.015,0.228-0.015,0.336,0l0.071,0.009l0.087-0.006l0.042-0.069l0.018-0.058
			c0.028-0.598-0.06-1.237-0.26-1.898l-0.117-0.386l-0.12,0.385c-0.144,0.46-0.306,1.166-0.265,1.916l0.008,0.132L568.235,5.653z"/>
		<path class="st0" d="M568.659,9.916l0.096-0.083l-0.043-0.063l-0.146,0.018c-0.106,0.015-0.221,0.015-0.328,0l-0.069-0.009
			l-0.088,0.005l-0.041,0.069l-0.018,0.057c-0.032,0.599,0.058,1.24,0.268,1.907l0.12,0.382l0.117-0.384
			c0.201-0.661,0.29-1.298,0.263-1.893l-0.019-0.059L568.659,9.916z"/>
		<path class="st0" d="M570.139,6.575l0.037,0.056h0.067l0.084-0.023c1.092-0.718,1.993-1.833,2.682-3.314l0.141-0.302l-0.304,0.137
			c-0.842,0.377-2.391,1.23-3.319,2.694l-0.064,0.102l0.1,0.067C569.791,6.146,569.985,6.343,570.139,6.575z"/>
		<path class="st0" d="M566.496,6.608l0.103,0.068l0.068-0.103c0.153-0.231,0.347-0.427,0.575-0.581l0.099-0.067l-0.063-0.102
			c-0.927-1.464-2.475-2.317-3.315-2.695l-0.304-0.136l0.141,0.302C564.485,4.771,565.393,5.886,566.496,6.608z"/>
		<path class="st0" d="M560.806,0v15.441H576V0H560.806z M571.712,8.979c1.723,1.638,2.363,3.925,2.39,4.021l0.188,0.69
			l-0.673-0.242c-1.645-0.591-2.973-1.409-3.948-2.431l-0.174-0.182l-0.038,0.248c-0.113,0.708-0.346,1.442-0.694,2.18l-0.305,0.646
			l-0.355-0.621c-0.006-0.01-0.543-0.945-0.753-2.205l-0.041-0.246l-0.172,0.181c-0.975,1.023-2.304,1.841-3.946,2.43l-0.674,0.242
			l0.188-0.69c0.026-0.096,0.667-2.382,2.391-4.021l0.182-0.173l-0.247-0.04c-0.716-0.115-1.445-0.346-2.168-0.687l-0.646-0.306
			l0.619-0.354c0.01-0.006,0.963-0.542,2.212-0.748l0.246-0.041l-0.182-0.173c-1.026-0.976-1.849-2.307-2.441-3.958l-0.242-0.672
			l0.69,0.187c0.097,0.026,2.383,0.667,4.022,2.392l0.172,0.181l0.041-0.245c0.207-1.223,0.729-2.152,0.75-2.19l0.355-0.621
			l0.305,0.647c0.35,0.74,0.575,1.447,0.692,2.164l0.039,0.248l0.173-0.183c1.639-1.724,3.926-2.365,4.023-2.392l0.688-0.187
			l-0.24,0.672c-0.592,1.651-1.414,2.982-2.441,3.958l-0.181,0.173l0.246,0.041c1.247,0.205,2.172,0.725,2.21,0.747l0.62,0.355
			l-0.646,0.305c-0.721,0.341-1.451,0.573-2.167,0.688l-0.248,0.04L571.712,8.979z"/>
		<path class="st0" d="M572.88,7.729l-0.382-0.122c-0.563-0.178-1.253-0.261-1.918-0.229l-0.131,0.007l0.023,0.204
			c0.006,0.044,0.013,0.087,0.013,0.132c0,0.051-0.007,0.102-0.014,0.151l-0.023,0.204l0.126,0.011
			c0.027,0.002,0.053,0.006,0.079,0.009c0.054,0.007,0.106,0.014,0.171,0.014c0.531,0,1.095-0.088,1.672-0.264L572.88,7.729z"/>
		<circle class="st0" cx="568.402" cy="7.721" r="1.337"/>
		<path class="st0" d="M570.303,8.842L570.2,8.776l-0.067,0.101c-0.153,0.228-0.348,0.422-0.577,0.577l-0.064,0.042l0.018,0.119
			l0.021,0.053c0.721,1.078,1.828,1.97,3.295,2.65l0.303,0.141l-0.137-0.304C572.613,11.316,571.762,9.771,570.303,8.842z"/>
		<path class="st0" d="M5.866,749.663l-0.067-0.101l-0.103,0.065c-1.463,0.928-2.312,2.477-2.688,3.316l-0.136,0.304l0.302-0.141
			c1.469-0.681,2.58-1.575,3.301-2.656l0.039-0.166l-0.066-0.043C6.216,750.088,6.021,749.894,5.866,749.663z"/>
		<path class="st0" d="M3.118,748.515l0.385,0.117c0.514,0.155,1.057,0.234,1.616,0.234c0.102,0,0.203-0.003,0.3-0.008l0.131-0.007
			l-0.023-0.209c-0.006-0.045-0.013-0.089-0.013-0.135c0-0.045,0.007-0.089,0.013-0.133l0.023-0.203l-0.132-0.007
			c-0.656-0.031-1.351,0.053-1.916,0.229L3.118,748.515z"/>
		<path class="st0" d="M7.43,746.44c0.113-0.015,0.228-0.015,0.336,0l0.071,0.009l0.087-0.006l0.042-0.069l0.017-0.058
			c0.028-0.599-0.059-1.236-0.26-1.898l-0.117-0.387l-0.12,0.386c-0.144,0.46-0.306,1.165-0.265,1.915l0.008,0.133L7.43,746.44z"/>
		<path class="st0" d="M7.854,750.703l0.096-0.083l-0.043-0.063l-0.146,0.019c-0.106,0.014-0.221,0.014-0.328,0l-0.07-0.01
			l-0.087,0.005l-0.042,0.068l-0.018,0.058c-0.032,0.599,0.058,1.24,0.268,1.907l0.12,0.382l0.117-0.384
			c0.202-0.661,0.29-1.298,0.263-1.893l-0.018-0.06L7.854,750.703z"/>
		<path class="st0" d="M9.333,747.362l0.037,0.056h0.067l0.084-0.023c1.092-0.719,1.993-1.834,2.682-3.314l0.141-0.302l-0.304,0.137
			c-0.842,0.378-2.391,1.229-3.319,2.694l-0.065,0.102l0.1,0.067C8.986,746.934,9.18,747.13,9.333,747.362z"/>
		<path class="st0" d="M5.69,747.396l0.103,0.067l0.069-0.103c0.153-0.231,0.347-0.427,0.575-0.581l0.099-0.067l-0.064-0.102
			c-0.926-1.465-2.474-2.317-3.315-2.695l-0.304-0.136l0.141,0.302C3.68,745.558,4.588,746.673,5.69,747.396z"/>
		<path class="st0" d="M0,756.229h15.195v-15.441H0V756.229z M4.304,747.246c-1.027-0.976-1.849-2.308-2.442-3.958l-0.242-0.673
			l0.69,0.188c0.097,0.026,2.382,0.667,4.022,2.392l0.172,0.181l0.041-0.245c0.207-1.223,0.729-2.151,0.75-2.19l0.355-0.621
			l0.305,0.647c0.349,0.739,0.575,1.447,0.692,2.163l0.04,0.248l0.173-0.183c1.638-1.724,3.926-2.365,4.023-2.392l0.689-0.188
			l-0.241,0.673c-0.592,1.65-1.414,2.982-2.441,3.958l-0.181,0.173l0.247,0.04c1.247,0.205,2.172,0.726,2.209,0.747l0.621,0.354
			l-0.646,0.305c-0.721,0.341-1.451,0.573-2.167,0.688l-0.247,0.04l0.181,0.173c1.723,1.638,2.363,3.925,2.39,4.021l0.187,0.69
			l-0.672-0.242c-1.645-0.591-2.973-1.409-3.948-2.431l-0.174-0.182L8.65,751.87c-0.113,0.709-0.346,1.442-0.694,2.18l-0.305,0.646
			l-0.355-0.621c-0.006-0.01-0.543-0.945-0.753-2.205l-0.041-0.245l-0.172,0.181c-0.975,1.022-2.304,1.841-3.947,2.43l-0.674,0.242
			l0.188-0.69c0.027-0.096,0.667-2.382,2.391-4.021l0.182-0.173l-0.248-0.04c-0.715-0.115-1.445-0.347-2.168-0.688l-0.646-0.306
			l0.619-0.354c0.01-0.006,0.963-0.543,2.212-0.748l0.247-0.04L4.304,747.246z"/>
		<path class="st0" d="M9.644,748.172l0.023,0.203c0.006,0.044,0.013,0.088,0.013,0.133c0,0.051-0.007,0.102-0.014,0.151
			l-0.023,0.203l0.126,0.011c0.027,0.002,0.052,0.006,0.079,0.009c0.053,0.007,0.106,0.014,0.171,0.014
			c0.532,0,1.095-0.088,1.672-0.264l0.383-0.116l-0.381-0.122c-0.564-0.177-1.253-0.261-1.917-0.229L9.644,748.172z"/>
		<circle class="st0" cx="7.597" cy="748.507" r="1.337"/>
		<path class="st0" d="M9.498,749.629l-0.103-0.065l-0.067,0.101c-0.153,0.229-0.347,0.423-0.577,0.577l-0.064,0.042l0.018,0.119
			l0.021,0.053c0.72,1.078,1.829,1.971,3.295,2.65l0.303,0.142l-0.137-0.304C11.808,752.104,10.957,750.558,9.498,749.629z"/>
		<path class="st0" d="M566.671,749.663l-0.066-0.101l-0.104,0.065c-1.462,0.928-2.312,2.477-2.688,3.316l-0.136,0.304l0.302-0.141
			c1.47-0.681,2.58-1.575,3.301-2.656l0.039-0.166l-0.065-0.043C567.021,750.088,566.826,749.894,566.671,749.663z"/>
		<path class="st0" d="M563.924,748.515l0.385,0.117c0.514,0.155,1.058,0.234,1.616,0.234c0.102,0,0.203-0.003,0.3-0.008
			l0.131-0.007l-0.023-0.209c-0.006-0.045-0.012-0.089-0.012-0.135c0-0.045,0.006-0.089,0.012-0.133l0.023-0.203l-0.132-0.007
			c-0.656-0.031-1.351,0.053-1.916,0.229L563.924,748.515z"/>
		<path class="st0" d="M568.235,746.44c0.113-0.015,0.228-0.015,0.336,0l0.071,0.009l0.087-0.006l0.042-0.069l0.018-0.058
			c0.028-0.599-0.06-1.236-0.26-1.898l-0.117-0.387l-0.12,0.386c-0.144,0.46-0.306,1.165-0.265,1.915l0.008,0.133L568.235,746.44z"
			/>
		<path class="st0" d="M568.659,750.703l0.096-0.083l-0.043-0.063l-0.146,0.019c-0.106,0.014-0.221,0.014-0.328,0l-0.069-0.01
			l-0.088,0.005l-0.041,0.068l-0.018,0.058c-0.032,0.599,0.058,1.24,0.268,1.907l0.12,0.382l0.117-0.384
			c0.201-0.661,0.29-1.298,0.263-1.893l-0.019-0.06L568.659,750.703z"/>
		<path class="st0" d="M570.139,747.362l0.037,0.056h0.067l0.084-0.023c1.092-0.719,1.993-1.834,2.682-3.314l0.141-0.302
			l-0.304,0.137c-0.842,0.378-2.391,1.229-3.319,2.694l-0.064,0.102l0.1,0.067C569.791,746.934,569.985,747.13,570.139,747.362z"/>
		<path class="st0" d="M566.496,747.396l0.103,0.067l0.068-0.103c0.153-0.231,0.347-0.427,0.575-0.581l0.099-0.067l-0.063-0.102
			c-0.927-1.465-2.475-2.317-3.315-2.695l-0.304-0.136l0.141,0.302C564.485,745.558,565.393,746.673,566.496,747.396z"/>
		<path class="st0" d="M560.806,756.229H576v-15.441h-15.194V756.229z M565.109,747.246c-1.026-0.976-1.849-2.308-2.441-3.958
			l-0.242-0.673l0.69,0.188c0.097,0.026,2.383,0.667,4.022,2.392l0.172,0.181l0.041-0.245c0.207-1.223,0.729-2.151,0.75-2.19
			l0.355-0.621l0.305,0.647c0.35,0.739,0.575,1.447,0.692,2.163l0.039,0.248l0.173-0.183c1.639-1.724,3.926-2.365,4.023-2.392
			l0.688-0.188l-0.24,0.673c-0.592,1.65-1.414,2.982-2.441,3.958l-0.181,0.173l0.246,0.04c1.247,0.205,2.172,0.726,2.21,0.747
			l0.62,0.354l-0.646,0.305c-0.721,0.341-1.451,0.573-2.167,0.688l-0.248,0.04l0.182,0.173c1.723,1.638,2.363,3.925,2.39,4.021
			l0.188,0.69l-0.673-0.242c-1.645-0.591-2.973-1.409-3.948-2.431l-0.174-0.182l-0.038,0.247c-0.113,0.709-0.346,1.442-0.694,2.18
			l-0.305,0.646l-0.355-0.621c-0.006-0.01-0.543-0.945-0.753-2.205l-0.041-0.245l-0.172,0.181c-0.975,1.022-2.304,1.841-3.946,2.43
			l-0.674,0.242l0.188-0.69c0.026-0.096,0.667-2.382,2.391-4.021l0.182-0.173l-0.247-0.04c-0.716-0.115-1.445-0.347-2.168-0.688
			l-0.646-0.306l0.619-0.354c0.01-0.006,0.963-0.543,2.212-0.748l0.246-0.04L565.109,747.246z"/>
		<path class="st0" d="M570.449,748.172l0.023,0.203c0.006,0.044,0.013,0.088,0.013,0.133c0,0.051-0.007,0.102-0.014,0.151
			l-0.023,0.203l0.126,0.011c0.027,0.002,0.053,0.006,0.079,0.009c0.054,0.007,0.106,0.014,0.171,0.014
			c0.531,0,1.095-0.088,1.672-0.264l0.384-0.116l-0.382-0.122c-0.563-0.177-1.253-0.261-1.918-0.229L570.449,748.172z"/>
		<circle class="st0" cx="568.402" cy="748.507" r="1.337"/>
		<path class="st0" d="M570.303,749.629l-0.103-0.065l-0.067,0.101c-0.153,0.229-0.348,0.423-0.577,0.577l-0.064,0.042l0.018,0.119
			l0.021,0.053c0.721,1.078,1.828,1.971,3.295,2.65l0.303,0.142l-0.137-0.304C572.613,752.104,571.762,750.558,570.303,749.629z"/>
	</g>
</g>
</svg>
