<?xml version="1.0" encoding="utf-8"?>
<!-- Generator: Adobe Illustrator 14.0.0, SVG Export Plug-In . SVG Version: 6.00 Build 43363)  -->
<!DOCTYPE svg PUBLIC "-//W3C//DTD SVG 1.1//EN" "http://www.w3.org/Graphics/SVG/1.1/DTD/svg11.dtd">
<svg version="1.1" id="Nouveau_x5F_33_xA0_Image_1_"
	 xmlns="http://www.w3.org/2000/svg" xmlns:xlink="http://www.w3.org/1999/xlink" x="0px" y="0px" width="729px" height="969px"
	 viewBox="0 0 729 969" style="enable-background:new 0 0 729 969;" xml:space="preserve">
<style type="text/css">
<![CDATA[
	.st0{fill-rule:evenodd;clip-rule:evenodd;fill:none;stroke:#000000;stroke-width:2.1073;stroke-linecap:round;}
	.st1{fill-rule:evenodd;clip-rule:evenodd;fill:none;stroke:#000000;stroke-width:2.0166;stroke-linecap:round;}
	.st2{fill-rule:evenodd;clip-rule:evenodd;fill:none;stroke:#000000;stroke-width:3.0876;stroke-linecap:round;}
	.st3{fill-rule:evenodd;clip-rule:evenodd;fill:none;stroke:#000000;stroke-width:2.0372;stroke-linecap:round;}
	.st4{fill-rule:evenodd;clip-rule:evenodd;fill:none;stroke:#000000;stroke-width:1.7701;stroke-linecap:round;}
	.st5{fill-rule:evenodd;clip-rule:evenodd;fill:none;stroke:#000000;stroke-width:2.1909;stroke-linecap:round;}
	.st6{fill-rule:evenodd;clip-rule:evenodd;fill:none;stroke:#000000;stroke-width:3.6056;stroke-linecap:round;}
	.st7{fill-rule:evenodd;clip-rule:evenodd;fill:none;stroke:#000000;stroke-width:2.2852;stroke-linecap:round;}
	.st8{fill-rule:evenodd;clip-rule:evenodd;fill:none;stroke:#000000;stroke-width:2.1292;stroke-linecap:round;}
	.st9{fill-rule:evenodd;clip-rule:evenodd;fill:none;stroke:#000000;stroke-width:2.1734;stroke-linecap:round;}
	.st10{fill-rule:evenodd;clip-rule:evenodd;fill:none;stroke:#000000;stroke-width:3.3912;stroke-linecap:round;}
	.st11{fill-rule:evenodd;clip-rule:evenodd;fill:none;stroke:#000000;stroke-width:3.0776;stroke-linecap:round;}
	.st12{fill-rule:evenodd;clip-rule:evenodd;fill:none;stroke:#000000;stroke-width:1.8221;stroke-linecap:round;}
	.st13{fill:#000000;fill-rule:evenodd;clip-rule:evenodd;}
	.st14{fill-rule:evenodd;clip-rule:evenodd;fill:none;stroke:#000000;stroke-width:2.0844;stroke-linecap:round;}
	.st15{fill-rule:evenodd;clip-rule:evenodd;fill:none;stroke:#000000;stroke-width:5.0498;stroke-linecap:round;}
	.st16{fill-rule:evenodd;clip-rule:evenodd;fill:none;stroke:#000000;stroke-width:3.0823;stroke-linecap:round;}
	.st17{fill-rule:evenodd;clip-rule:evenodd;fill:none;stroke:#000000;stroke-width:2.1858;stroke-linecap:round;}
	.st18{fill-rule:evenodd;clip-rule:evenodd;fill:none;stroke:#000000;stroke-width:2.0096;stroke-linecap:round;}
	.st19{fill-rule:evenodd;clip-rule:evenodd;fill:none;stroke:#000000;stroke-width:2.4766;stroke-linecap:round;}
	.st20{fill-rule:evenodd;clip-rule:evenodd;fill:none;stroke:#000000;stroke-width:5.0398;stroke-linecap:round;}
	.st21{fill-rule:evenodd;clip-rule:evenodd;fill:none;stroke:#000000;stroke-width:2.357;stroke-linecap:round;}
]]>
</style>
<g>
	<g>
		<path class="st13" d="M46,50c-8.951-10.319,4.547-28.122-1-38c-1.615-0.282-1.722,0.945-3,1l-0.5-1.5L40,12c0-2.333,0-4.667,0-7
			c8.333,0,16.667,0,25,0c-1.44,18.894-13.909,26.757-17,44l-1.5-0.5L46,50z"/>
		<path class="st13" d="M681.5,50.5L680,51c-1.168-19.499-14.215-27.118-17-45c6.774-2.226,17.588-0.413,26-1c0,2.333,0,4.667,0,7
			l-1.833-0.5L686,13c-0.81-0.19-0.997-1.003-2-1c-5.891,11.242,8.508,29.678-2,40L681.5,50.5z"/>
		<path class="st13" d="M690.5,42.5L689,43c0.916-12.75,1.869-25.464,4-37c3.897-2.103,11.499-0.501,17-1
			c2.857,0.963-2.116,4.956-4,8c-5.304,8.569-10.137,21.684-15,31L690.5,42.5z"/>
		<path class="st13" d="M693.5,48.5L692,49c9.623-15.71,9.871-40.795,32-44c0,15,0,30,0,45l-1.5-0.5L721,50
			c-6.941-1.753-20.014-1.486-27,0L693.5,48.5z"/>
		<path class="st13" d="M679.5,64.5L680,63c2.813,3.164,8.24,7.489,13,3l0.5,1.5L695,67c-0.877,12.562-19.539,9.94-17-3L679.5,64.5z
			"/>
		<path class="st13" d="M699.5,61.5L699,60c8.333,0,16.667,0,25,0c0,13.333,0,26.667,0,40l-1.833-0.5L721,101
			c-2.454-18.213-11.959-29.375-23-39L699.5,61.5z"/>
		<path class="st13" d="M48.5,65.5L50,66c1.872,13.314-17.85,10.417-17,0l1.5,0.5L35,65c3.416,4.443,10.167,2.844,13-1L48.5,65.5z"
			/>
		<path class="st13" d="M29.5,61.5L31,62C19.524,72.191,8.881,83.214,8,104l-1.5-0.5L5,103c0-14.333,0-28.667,0-43
			c8.333,0,16.667,0,25,0L29.5,61.5z"/>
		<path class="st13" d="M35.5,48.5L35,50c-7.3-1.497-20.742-1.749-28,0l-0.5-1.5L5,48C5,33.667,5,19.333,5,5
			c22.177,3.156,21.726,28.94,32,44L35.5,48.5z"/>
		<path class="st13" d="M38.5,43.5L38,45C31.675,31.989,25.091,13.912,18,5c5.501,0.499,13.103-1.103,17,1
			c3.851,10.149,2.803,25.196,5,37L38.5,43.5z"/>
		<g>
			<path class="st8" d="M41,19.5c0.203-2.656-0.483-5.457,0.5-8"/>
			<path class="st15" d="M50.5,54.5c0.333,0,0.667,0,1,0"/>
			<path class="st0" d="M51.5,54.5C60.24,44.376,70.427,9.422,89.882,7.203C109.517,4.963,133.796,7,158.5,7
				c142.448,0,301.224,0,446,0c26.398,0,39.352-2.424,52.197,13.133C666.721,32.272,669.786,45.119,677,54.5"/>
			<path class="st20" d="M677,54.5c0.394,0,0.943,0,1.5,0"/>
			<line class="st6" x1="678.5" y1="54.5" x2="678.5" y2="54.5"/>
			<path class="st5" d="M678.5,54.5c0.973-0.818,2.297-2.542,3-4"/>
			<path class="st2" d="M687.5,19.5c-0.139-2.662,0.327-5.39-0.333-8"/>
			<path class="st4" d="M678.5,54.5c7.233,0.894,10.072-6.453,12-12"/>
			<path class="st14" d="M678.5,54.5c0.643,0.777,1.089,1.398,1.524,2.013c6.173,2.55,10.134-3.974,13.476-8.013"/>
			<path class="st19" d="M720.5,57c3.117-0.894,2.83-5.072,2-7.5"/>
			<path class="st1" d="M677,54.5c-2.25,3.691,1.923,6.557,2.5,10"/>
			<path class="st5" d="M693.5,67.5c1.406-2.312-0.549-5.51,1.208-7.545c1.696,0.096,3.235,0.942,4.792,1.545"/>
			<path class="st16" d="M722.5,948.5c-0.223-282.989,0.444-566.064-0.333-849"/>
			<path class="st7" d="M51.5,54.5c1.497,3.984-1.569,7.52-3,11"/>
			<path class="st9" d="M6.5,948.5c-0.805-281.568-0.854-563.432,0-845"/>
			<path class="st3" d="M29.5,61.5c1.607-0.605,3.008-1.984,4.87-1.583c1.306,1.954-1.372,4.476,0.13,6.583"/>
			<path class="st18" d="M48.5,55.5c-0.188,0.328-0.375,0.656-0.563,0.984C42.271,58.7,38.535,52.266,35.5,48.5"/>
			<path class="st21" d="M7.5,56.5c-0.328-0.188-0.656-0.375-0.984-0.563C5.669,53.662,5.776,50.828,6.5,48.5"/>
			<path class="st12" d="M48.5,55.5c-5.175-2.164-8.126-6.713-10-12"/>
			<path class="st10" d="M48.5,55.5c0.667-0.262,1.333-0.628,2-1"/>
			<path class="st17" d="M50.5,54.5c-1.73-1.754-3.479-3.541-4-6"/>
			<path class="st11" d="M6,955.5c0.085,1.859-0.387,3.998,0.889,5.574c238.242,0.71,477.003,0.71,715.186,0
				c0.801-2.072,0.26-4.399,0.426-6.574"/>
		</g>
	</g>
</g>
</svg>
