<?xml version="1.0" encoding="utf-8"?>
<!-- Generator: Adobe Illustrator 14.0.0, SVG Export Plug-In . SVG Version: 6.00 Build 43363)  -->
<!DOCTYPE svg PUBLIC "-//W3C//DTD SVG 1.1//EN" "http://www.w3.org/Graphics/SVG/1.1/DTD/svg11.dtd">
<svg version="1.1" id="Nouveau_x5F_13_xA0_Image_1_"
	 xmlns="http://www.w3.org/2000/svg" xmlns:xlink="http://www.w3.org/1999/xlink" x="0px" y="0px" width="729px" height="969px"
	 viewBox="0 0 729 969" style="enable-background:new 0 0 729 969;" xml:space="preserve">
<style type="text/css">
<![CDATA[
	.st0{fill-rule:evenodd;clip-rule:evenodd;fill:none;stroke:#000000;stroke-width:3.3274;stroke-linecap:round;}
	.st1{fill-rule:evenodd;clip-rule:evenodd;fill:none;stroke:#000000;stroke-width:1.7321;stroke-linecap:round;}
	.st2{fill-rule:evenodd;clip-rule:evenodd;fill:none;stroke:#000000;stroke-width:2.925;stroke-linecap:round;}
	.st3{fill-rule:evenodd;clip-rule:evenodd;fill:none;stroke:#000000;stroke-width:2.0569;stroke-linecap:round;}
	.st4{fill-rule:evenodd;clip-rule:evenodd;fill:none;stroke:#000000;stroke-width:2.1194;stroke-linecap:round;}
	.st5{fill-rule:evenodd;clip-rule:evenodd;fill:none;stroke:#000000;stroke-width:1.6432;stroke-linecap:round;}
	.st6{fill-rule:evenodd;clip-rule:evenodd;fill:none;stroke:#000000;stroke-width:3.4641;stroke-linecap:round;}
	.st7{fill-rule:evenodd;clip-rule:evenodd;fill:none;stroke:#000000;stroke-width:1.5275;stroke-linecap:round;}
	.st8{fill-rule:evenodd;clip-rule:evenodd;fill:none;stroke:#000000;stroke-width:3;stroke-linecap:round;}
	.st9{fill-rule:evenodd;clip-rule:evenodd;fill:none;stroke:#000000;stroke-width:1.2286;stroke-linecap:round;}
	.st10{fill-rule:evenodd;clip-rule:evenodd;fill:none;stroke:#000000;stroke-width:2.9047;stroke-linecap:round;}
	.st11{fill-rule:evenodd;clip-rule:evenodd;fill:none;stroke:#000000;stroke-width:1.5584;stroke-linecap:round;}
	.st12{fill-rule:evenodd;clip-rule:evenodd;fill:none;stroke:#000000;stroke-width:3.8612;stroke-linecap:round;}
	.st13{fill-rule:evenodd;clip-rule:evenodd;fill:none;stroke:#000000;stroke-width:3.5355;stroke-linecap:round;}
	.st14{fill-rule:evenodd;clip-rule:evenodd;fill:none;stroke:#000000;stroke-width:2.8284;stroke-linecap:round;}
	.st15{fill-rule:evenodd;clip-rule:evenodd;fill:none;stroke:#000000;stroke-width:4.0156;stroke-linecap:round;}
	.st16{fill-rule:evenodd;clip-rule:evenodd;fill:none;stroke:#000000;stroke-width:2.6896;stroke-linecap:round;}
	.st17{fill-rule:evenodd;clip-rule:evenodd;fill:none;stroke:#000000;stroke-width:2.0671;stroke-linecap:round;}
	.st18{fill-rule:evenodd;clip-rule:evenodd;fill:none;stroke:#000000;stroke-width:2.1264;stroke-linecap:round;}
	.st19{fill-rule:evenodd;clip-rule:evenodd;fill:none;stroke:#000000;stroke-width:3.0332;stroke-linecap:round;}
	.st20{fill-rule:evenodd;clip-rule:evenodd;fill:none;stroke:#000000;stroke-width:1.2329;stroke-linecap:round;}
	.st21{fill-rule:evenodd;clip-rule:evenodd;fill:none;stroke:#000000;stroke-width:1.2796;stroke-linecap:round;}
	.st22{fill-rule:evenodd;clip-rule:evenodd;fill:none;stroke:#000000;stroke-width:2.4727;stroke-linecap:round;}
	.st23{fill-rule:evenodd;clip-rule:evenodd;fill:none;stroke:#000000;stroke-width:2.1044;stroke-linecap:round;}
	.st24{fill-rule:evenodd;clip-rule:evenodd;fill:none;stroke:#000000;stroke-width:4.7434;stroke-linecap:round;}
	.st25{fill-rule:evenodd;clip-rule:evenodd;fill:none;stroke:#000000;stroke-width:1.2294;stroke-linecap:round;}
	.st26{fill-rule:evenodd;clip-rule:evenodd;fill:none;stroke:#000000;stroke-width:2.8604;stroke-linecap:round;}
	.st27{fill-rule:evenodd;clip-rule:evenodd;fill:none;stroke:#000000;stroke-width:2.2546;stroke-linecap:round;}
	.st28{fill-rule:evenodd;clip-rule:evenodd;fill:none;stroke:#000000;stroke-width:2.0817;stroke-linecap:round;}
	.st29{fill-rule:evenodd;clip-rule:evenodd;fill:none;stroke:#000000;stroke-width:2.1213;stroke-linecap:round;}
	.st30{fill:#000000;fill-rule:evenodd;clip-rule:evenodd;}
	.st31{fill-rule:evenodd;clip-rule:evenodd;fill:none;stroke:#000000;stroke-width:5.0125;stroke-linecap:round;}
	.st32{fill-rule:evenodd;clip-rule:evenodd;fill:none;stroke:#000000;stroke-width:3.3764;stroke-linecap:round;}
	.st33{fill-rule:evenodd;clip-rule:evenodd;fill:none;stroke:#000000;stroke-width:3.1091;stroke-linecap:round;}
	.st34{fill-rule:evenodd;clip-rule:evenodd;fill:none;stroke:#000000;stroke-width:1.2472;stroke-linecap:round;}
	.st35{fill-rule:evenodd;clip-rule:evenodd;fill:none;stroke:#000000;stroke-width:1.8974;stroke-linecap:round;}
	.st36{fill-rule:evenodd;clip-rule:evenodd;fill:none;stroke:#000000;stroke-width:2.7689;stroke-linecap:round;}
	.st37{fill-rule:evenodd;clip-rule:evenodd;fill:none;stroke:#000000;stroke-width:1.8898;stroke-linecap:round;}
	.st38{fill-rule:evenodd;clip-rule:evenodd;fill:none;stroke:#000000;stroke-width:2.175;stroke-linecap:round;}
	.st39{fill-rule:evenodd;clip-rule:evenodd;fill:none;stroke:#000000;stroke-width:2.8062;stroke-linecap:round;}
	.st40{fill-rule:evenodd;clip-rule:evenodd;fill:none;stroke:#000000;stroke-width:1.6514;stroke-linecap:round;}
	.st41{fill-rule:evenodd;clip-rule:evenodd;fill:none;stroke:#000000;stroke-width:1.2247;stroke-linecap:round;}
	.st42{fill-rule:evenodd;clip-rule:evenodd;fill:none;stroke:#000000;stroke-width:1.5492;stroke-linecap:round;}
	.st43{fill-rule:evenodd;clip-rule:evenodd;fill:none;stroke:#000000;stroke-width:2.582;stroke-linecap:round;}
	.st44{fill-rule:evenodd;clip-rule:evenodd;fill:none;stroke:#000000;stroke-width:2.2764;stroke-linecap:round;}
	.st45{fill-rule:evenodd;clip-rule:evenodd;fill:none;stroke:#000000;stroke-width:3.6236;stroke-linecap:round;}
	.st46{fill-rule:evenodd;clip-rule:evenodd;fill:none;stroke:#000000;stroke-width:1.9149;stroke-linecap:round;}
	.st47{fill-rule:evenodd;clip-rule:evenodd;fill:none;stroke:#000000;stroke-width:2.6458;stroke-linecap:round;}
	.st48{fill-rule:evenodd;clip-rule:evenodd;fill:none;stroke:#000000;stroke-width:1.9584;stroke-linecap:round;}
]]>
</style>
<g>
	<g>
		<path class="st30" d="M11,46c-3.815-1.375-1.752-8.025-2-12c-0.288-4.615-2.483-9.05,0-12c3.899,3.768,9.605,5.729,15,8
			c-0.17,5.496-7.9,3.434-10,7C12.27,39.27,14.385,45.385,11,46z"/>
		<path class="st30" d="M38,34c4.511-3.544,4.599,11.698-2,9l-1.5-0.5L34,44c-0.851,0.184-0.943-0.39-1-1l0.5-1.5L32,41
			c1.2-1.313,0.39-1.573,0-3l-0.5-1L31,36c1.332-1.001,3.018-1.648,4-3l1.5,0.5L38,34z"/>
		<path class="st30" d="M43.833,65.167L44,63c0.333,0,0.667,0,1,0l-0.5,1.5L46,65c-2.335,11.665-7.045,20.955-20,22l0.5-1.833L25,84
			c7.877-3.123,11.607-10.394,14-19l1.5,0.5L41,64c0.333,0,0.667,0,1,0L43.833,65.167z"/>
		<path class="st30" d="M15.7,86.3L17,85c14.175,11.564,28.103-4.73,31-17l1.5,0.5L51,68c1.842,21.939-24.467,37.685-37,19
			L15.7,86.3z"/>
		<path class="st30" d="M57.5,28.5L56,29c-0.824-13.624,23.649-22.536,24-4l-1.833-0.5L77,26c-3.92-8.984-15.393-3.354-18,3
			L57.5,28.5z"/>
		<path class="st30" d="M83.833,23.5L82,24c-1.644-3.25-0.389-6.189,1-9l1.5,0.5L84,14c1.333,0,2.667,0,4,0l-0.5,1.5L89,15
			c0.605,2.395,1.438,4.563,1,8l-1.5-0.5L88,24c-1.615-0.282-1.722,0.945-3,1L83.833,23.5z"/>
		<path class="st30" d="M703,18v-1c4.003,3.069,5.943-2.523,9,0c-0.489,3.156,1.802,3.531,1,7l-1.5-0.5L712,25
			c-5.085,5.478-6.811-4.5-10-7H703z"/>
		<path class="st30" d="M711.5,944.5l1.5-0.5c0.58,3.246-0.681,4.652-1,7c-3.158,3.515-4.842-3.515-8,0v-1h-1
			c2.014-3.865,4.31-11.657,9-7L711.5,944.5z"/>
		<path class="st30" d="M26,950v1c-3.472-3.132-5.292,3.086-8,0c-0.576-2.091-2.479-2.854-2-6l1.5-0.5L17,943
			c5.75-4.813,6.375,4.064,10,7H26z"/>
		<path class="st30" d="M10.833,88.5L12,87c2.755,1.238,1.729,1.81,2,4c2.122,17.125,0,36.186,0,55c0,250.539,0,504.918,0,756
			c0,17.008-1.784,34.519,3,51c3.341,4.313,4.771-4.457,7-1c10.403,4.909,31.397,3,50,3c193.151,0,387.312,0,582,0
			c17.503,0,38.702,2.758,49-4c3.474-0.351,3.797,5.085,7,2c5.078-18.074,3-37.275,3-56c0.001-273.104-0.001-551.273,0-826
			c0-18.37,2.179-37.258-3-55c-1.917-4.887-3.833,1.234-7,1c-8.282-6.487-30.312-4-48-4c-196.264,0-401.485,0-596,0l0.5-1.833L60,10
			c180.745-1.827,374.001-1,558-1c37.834,0,75.71-0.8,107-4c-7.129,19.923-5,50.117-5,79c0,245.146,0,496.456,0,743
			c0,38.145-3.35,77.577,0,114c0.66,7.173,3.732,13.457,5,22c-9.011,1.594-19.874-2.269-28-3c-26.354-2.371-55.017,0-83,0
			c-163.469,0-333.274,0-498,0c-39.673,0-79.502-0.853-112,3c7.149-18.425,5-46.523,5-74C9,624.851,9,352.204,9,88L10.833,88.5z"/>
		<path class="st30" d="M47.214,23.929L50,23c0.333,0,0.667,0,1,0l-0.5,1l0.5,1c0.275,2.693-4.006,4.807,0,3l0.5,1.5L53,29
			c0.975,6.686-10.038,7.855-12,3l1.5-1.167L42,29c0.667,0,1.333,0,2,0c0-0.667,0-1.333,0-2c-0.667,0-1.333,0-2,0l0.5-1.833L41,24
			c1.181-2.645,0.865-3.105,4-2l1.5,0.5L46,21c0.333,0,0.667,0,1,0L47.214,23.929z"/>
		<path class="st30" d="M44.5,19.5L44,21c-0.81-0.19-0.997-1.003-2-1l-1.167-1.5L39,19c-0.35-6.833-13.299-5.785-12-11
			c6.609-0.609,10.252,1.748,17,1l-0.5,1.833L45,12c-0.086,1.419-0.165,2.832,1,3l-0.5,1.5L46,18c0,0.333,0,0.667,0,1L44.5,19.5z"/>
		<path class="st30" d="M37.643,21.786L39,23c0.409,2.409-1.826,2.174-1,5c-3.131-1.62-6.157-7.62,0-8L37.643,21.786z"/>
		<path class="st30" d="M29.3,21.7L28,23c-3.4-0.997-5.296-3.517-10-4c-3.322-0.342-8.15,3.321-9,0c0.816-6.309-2.014-9.629,2-10
			c0.025-0.002,8.219-0.951,8-1c7.049,1.575,2.258,2.363,6,6c1.382,2.951,4.618,4.049,6,7L29.3,21.7z"/>
		<path class="st30" d="M25,43c3.558-0.225,5.992,0.674,7,3h-1v1c0.26,3.26-1.187,4.813-4,5l-1-0.5L25,52
			c-0.027-0.973-1.224-0.776-2-1l-1.5-0.5L21,52c-1.172-0.162-0.843-1.823-1-3l-0.5-0.5L19,48c1.837-1.497,2.493-4.173,5-5l0.5,1.5
			L25,43z"/>
		<path class="st30" d="M19,55.5l1-0.5c7.997-0.225,7.09,10.827,1,12c4.758-1.092,4.081,3.253,4,7c-3.945,4.316-12.305,0.589-9-5
			l1.5,0.5L17,68c0.027-0.973,1.224-0.776,2-1c-3.585-2.983-5.55-8.369-1-12L19,55.5z"/>
		<g>
			<path class="st20" d="M52.5,19.5c2.352-2.093,5.208-2.836,8-4"/>
			<path class="st37" d="M34.5,42.5c1.086,1.913,3.212,2.831,4,5"/>
			<path class="st3" d="M38.5,47.5c1.034-0.758,1.975-1.114,2.852-1.465c0.658,1.096,0.515,2.85,1.148,4.465"/>
			<path class="st38" d="M42.5,50.5c1.462,4.739-0.652,10.043,1.333,14.667"/>
			<path class="st16" d="M44.5,64.5c0.328-0.188,0.656-0.375,0.984-0.563C47.137,55.961,46.915,47.66,46.5,39.5"/>
			<path class="st26" d="M11.5,78.5c0.679,2.926,2.351,5.48,4.2,7.8"/>
			<path class="st22" d="M49.5,68.5c2.845-13.444,3.452-26.854,8-40"/>
			<path class="st12" d="M78.167,24.5c0.491,1.378,1.958,2.604,2.805,2.839c2.093-0.028,2.536-2.219,2.862-3.839"/>
			<path class="st34" d="M84.5,15.5c-1.667-1.086-3.333-0.894-5-1"/>
			<path class="st25" d="M704,950c-1.962,1.087-3.773,2.27-5.706,3.293c-223.119-0.273-446.882,1.582-669.65-0.928
				c-0.75-0.562-1.73-1.513-2.644-2.365"/>
			<path class="st4" d="M17.5,944.5C14,661.817,17,377.725,16,94.5"/>
			<path class="st21" d="M711.5,944.5c0.175-0.199,0.35-0.399,0.525-0.599C714.72,729.278,713.5,500.424,713.5,281.5
				c0-74.635,1.234-149.829-0.398-219.444c-0.285-12.152,1.215-27.412-1.602-38.556"/>
			<path class="st9" d="M703,18c-1.179-1.057-2.004-1.526-2.719-2.272C496.466,13.53,291.168,13.985,87.5,15.5"/>
			<path class="st46" d="M88.5,24.5c0.379-0.471,0.153-1.229,0-2"/>
			<path class="st39" d="M49.5,16c-0.444,2.702-0.719,5.597-2.286,7.929"/>
			<path class="st42" d="M50.5,24c0.526,0.123,1.178,0.441,1.747,0.76c0.404,1.627,0.109,3.021-0.747,4.74"/>
			<path class="st2" d="M42.5,30.833c-2.847-0.722-2.086-4.558,0-5.667"/>
			<path class="st35" d="M46.5,22.5c-0.643-1-1.22-2-2-3"/>
			<path class="st19" d="M37.643,21.786c1.31-0.69,2.43-2.05,3.19-3.286"/>
			<path class="st14" d="M43.5,10.833c0.667-0.242,1.333-0.537,2-0.833"/>
			<path class="st6" d="M45.5,16.5c1.204-0.194,2.228-0.419,4-0.5"/>
			<path class="st15" d="M49.5,16c3.377-2.888,7.885-3.596,12-4.833"/>
			<path class="st48" d="M10.833,88.5c-0.468-3.319-2.945-7.513,0.667-10"/>
			<path class="st13" d="M11.5,78.5c0.08-1,0.564-2,1-3"/>
			<path class="st31" d="M12.5,75.5c-1.081-2.914-1.802-6.703-0.125-9.5"/>
			<path class="st45" d="M12.375,66c-0.973-5.742,0.79-11.823,4.125-16.5"/>
			<path class="st24" d="M16.5,49.5c0.03-0.333,0.138-0.667,0.25-1"/>
			<path class="st0" d="M16.75,48.5c0.863-4.303,3.223-8.356,6.25-11.5"/>
			<path class="st32" d="M23,37c-0.057-0.226,0.568-1.361,1.5-2.5"/>
			<path class="st36" d="M24.5,34.5c1.005-1.57,2.387-3.313,4-5"/>
			<path class="st11" d="M24.5,34.5c1.756,1.204,2.977,0.581,4.833,0.5"/>
			<path class="st44" d="M29.333,35C31.1,32.989,33.09,31.258,36,32"/>
			<path class="st10" d="M36,32c0.04-4.235-4.44-6.96-6.7-10.3"/>
			<path class="st8" d="M36,32c0.273,0.393,0.391,0.943,0.5,1.5"/>
			<path class="st33" d="M29.333,35c0.107,0.679,0.203,1.39,0.333,2"/>
			<path class="st29" d="M29.667,37c0.611,0,1.222,0,1.833,0"/>
			<path class="st17" d="M16.5,49.5c1.88,1.382,2.323,3.835,2.5,6"/>
			<path class="st47" d="M12.5,75.5c3.839,3.827,6.81,11.656,14,9.667"/>
			<path class="st7" d="M23,37c2.314,1.791,1.24,5.003,1.5,7.5"/>
			<path class="st27" d="M29.667,37c-0.095,1.159,0.254,2.984,0.479,3.947c1.017,0.712,1.952,1.05,3.354,0.553"/>
			<path class="st41" d="M16.75,48.5c0.917,0,1.833,0,2.75,0"/>
			<path class="st40" d="M26,53.75c0.677,0.18,1.583,0.202,2.357,0.252c2.693-0.966,5.963-5.225,3.19-7.549
				C31.364,46.302,31.182,46.151,31,46"/>
			<path class="st43" d="M38.5,47.5c0.338,1.667,0.417,3.333,1,5"/>
			<path class="st1" d="M39.5,52.5c1-0.643,2-1.22,3-2"/>
			<path class="st5" d="M21.5,50.5c0.427,1.069,0.75,1.907,1.271,2.735c1.467,0.374,2.353,0.762,3.229,0.515"/>
			<path class="st28" d="M26,53.75c0-0.803,0-1.528,0-2.25"/>
			<path class="st23" d="M12.375,66c2.277,0.428,3.316,2.336,5.125,3.5"/>
			<path class="st18" d="M39.5,52.5c1.319,4.191-0.338,8.818,1,13"/>
		</g>
	</g>
</g>
</svg>
