<?xml version="1.0" encoding="utf-8"?>
<!-- Generator: Adobe Illustrator 14.0.0, SVG Export Plug-In . SVG Version: 6.00 Build 43363)  -->
<!DOCTYPE svg PUBLIC "-//W3C//DTD SVG 1.1//EN" "http://www.w3.org/Graphics/SVG/1.1/DTD/svg11.dtd">
<svg version="1.1" id="Hand_x5F_Drawn_x5F_3_xA0_Image_1_"
	 xmlns="http://www.w3.org/2000/svg" xmlns:xlink="http://www.w3.org/1999/xlink" x="0px" y="0px" width="729px" height="936px"
	 viewBox="0 0 729 936" style="enable-background:new 0 0 729 936;" xml:space="preserve">
<style type="text/css">
<![CDATA[
	.st0{fill-rule:evenodd;clip-rule:evenodd;fill:none;stroke:#000000;stroke-width:1.7321;stroke-linecap:round;}
	.st1{fill-rule:evenodd;clip-rule:evenodd;fill:none;stroke:#000000;stroke-width:1.6432;stroke-linecap:round;}
	.st2{fill-rule:evenodd;clip-rule:evenodd;fill:none;stroke:#000000;stroke-width:2.1794;stroke-linecap:round;}
	.st3{fill-rule:evenodd;clip-rule:evenodd;fill:none;stroke:#000000;stroke-width:1.7854;stroke-linecap:round;}
	.st4{fill-rule:evenodd;clip-rule:evenodd;fill:none;stroke:#000000;stroke-width:1.2536;stroke-linecap:round;}
	.st5{fill-rule:evenodd;clip-rule:evenodd;fill:none;stroke:#000000;stroke-width:1.633;stroke-linecap:round;}
	.st6{fill-rule:evenodd;clip-rule:evenodd;fill:none;stroke:#000000;stroke-width:1.5811;stroke-linecap:round;}
	.st7{fill-rule:evenodd;clip-rule:evenodd;fill:none;stroke:#000000;stroke-width:2.0976;stroke-linecap:round;}
	.st8{fill-rule:evenodd;clip-rule:evenodd;fill:none;stroke:#000000;stroke-width:1.2792;stroke-linecap:round;}
	.st9{fill-rule:evenodd;clip-rule:evenodd;fill:none;stroke:#000000;stroke-width:1.8025;stroke-linecap:round;}
	.st10{fill-rule:evenodd;clip-rule:evenodd;fill:none;stroke:#000000;stroke-width:2;stroke-linecap:round;}
	.st11{fill-rule:evenodd;clip-rule:evenodd;fill:none;stroke:#000000;stroke-width:1.8187;stroke-linecap:round;}
	.st12{fill-rule:evenodd;clip-rule:evenodd;fill:none;stroke:#000000;stroke-width:1.964;stroke-linecap:round;}
	.st13{fill-rule:evenodd;clip-rule:evenodd;fill:none;stroke:#000000;stroke-width:1.815;stroke-linecap:round;}
	.st14{fill-rule:evenodd;clip-rule:evenodd;fill:none;stroke:#000000;stroke-width:2.1213;stroke-linecap:round;}
	.st15{fill-rule:evenodd;clip-rule:evenodd;fill:none;stroke:#000000;stroke-width:3.1623;stroke-linecap:round;}
	.st16{fill-rule:evenodd;clip-rule:evenodd;fill:none;stroke:#000000;stroke-width:1.3693;stroke-linecap:round;}
	.st17{fill:#000000;fill-rule:evenodd;clip-rule:evenodd;}
	.st18{fill-rule:evenodd;clip-rule:evenodd;fill:none;stroke:#000000;stroke-width:1.1547;stroke-linecap:round;}
	.st19{fill-rule:evenodd;clip-rule:evenodd;fill:none;stroke:#000000;stroke-width:2.3489;stroke-linecap:round;}
	.st20{fill-rule:evenodd;clip-rule:evenodd;fill:none;stroke:#000000;stroke-width:1.2472;stroke-linecap:round;}
	.st21{fill-rule:evenodd;clip-rule:evenodd;fill:none;stroke:#000000;stroke-width:2.1602;stroke-linecap:round;}
	.st22{fill-rule:evenodd;clip-rule:evenodd;fill:none;stroke:#000000;stroke-width:1.2247;stroke-linecap:round;}
	.st23{fill-rule:evenodd;clip-rule:evenodd;fill:none;stroke:#000000;stroke-width:1.291;stroke-linecap:round;}
	.st24{fill-rule:evenodd;clip-rule:evenodd;fill:none;stroke:#000000;stroke-width:2.0767;stroke-linecap:round;}
	.st25{fill-rule:evenodd;clip-rule:evenodd;fill:none;stroke:#000000;stroke-width:1.742;stroke-linecap:round;}
	.st26{fill-rule:evenodd;clip-rule:evenodd;fill:none;stroke:#000000;stroke-width:3.0822;stroke-linecap:round;}
	.st27{fill-rule:evenodd;clip-rule:evenodd;fill:none;stroke:#000000;stroke-width:2.0524;stroke-linecap:round;}
	.st28{fill-rule:evenodd;clip-rule:evenodd;fill:none;stroke:#000000;stroke-width:1.2649;stroke-linecap:round;}
]]>
</style>
<g>
	<g>
		<path class="st17" d="M44,10c-2.903,9.639-2.494,11.895,1,19c-1.496,1.585-4.09,0.736-5-1c-2.954,0.87,2.32,1.497,1,4
			c0.807-0.86,2.739-0.594,3-2c3.533,1.918,1.659,6.812-2,7c1.028,2.305,3.442,3.225,3,7c-3.761-0.761-0.69,5.31-5,4
			c2.007,2.85,3.965,10.688-2,11c0.162,1.172,1.823,0.843,3,1c-0.591,2.076-1.924,3.409-4,4c4.97,1.811,2.502,7.536-1,9
			c0.309,1.72,3.473-1.299,3,3c-2.729-0.09-2.013,1.666-4,0l-1-0.5L33,76c-0.515-2.819,1.785-8.452-3-7
			c2.731-4.689-3.083-9.401,1-11c-1.246-4.034-3.969-5.048-2-10c-3.936-1.602-0.348,4.319-3,4c1.704,0.629,1.646,3.021,3,4
			c-3.096,2.735-5.604,11.065-1,13c-0.595,3.405-3.836,4.164-7,5c1.959,2.459,1.558,8.962-2,9c8.292,2.349-3.299,10.803,2,13
			c0.155,2.822-2.827,2.506-4,4v-1h-1c-1.067-0.933-0.311-3.689-3-3c-0.147-2.48-0.186-4.853,2-5c-0.309-2.358-3.473-1.86-3-5
			c1.479-0.521,2.521-1.479,4-2c-5.384-5.379-2.649-14.392-5-20c2.447-3.3,2.928-9.946-1-12c2.56-10.633,3.75-22.616,4-31
			c-2.352,0.315-0.593,4.74-4,4C7.966,20.396,5.679,8.645,12,7c5.564,3.151,9.494-2.747,17,1c1.172-0.162,0.843-1.823,1-3
			c2.635-0.301,3.282,1.385,3,4c1.177-1.49,2.51-2.823,4-4c1.759,0.241,2.279,1.721,2,4c0.983-2.681,4.296-1.839,6,0h-1V10z M27,43
			c-1.101-6.399-1.697-13.056,1-19c-0.211-1.122-1.11-1.557-2-2C22.457,26.146,20.651,38.683,27,43z M24,68
			c-1.177,0.157-2.838-0.172-3,1C22.177,68.843,23.838,69.172,24,68z"/>
		<path class="st17" d="M50,20c-5.147,0.479-5.933-12.43-1-13C48.402,12.265,49.742,15.592,50,20z"/>
		<path class="st17" d="M29,72c1,0,2,0,3,0c0.423,2.09-0.686,2.648-1,4C29.241,75.759,28.721,74.279,29,72z"/>
		<path class="st17" d="M690,81c1.841,4.853-5.764-0.529-2-1C687.979,80.002,690.008,81.021,690,81z"/>
		<path class="st17" d="M34,82c1.23,0.437,2.054,1.28,2,3C32.53,85.873,32.569,83.461,34,82z"/>
		<path class="st17" d="M691,85c1,0,2,0,3,0c0.282,2.615-0.365,4.301-3,4C691,87.667,691,86.333,691,85z"/>
		<path class="st17" d="M708,85c0.282,2.615-0.365,4.301-3,4c-0.529-0.804-1.043-1.624-1-3C704.89,85.223,706.258,84.925,708,85z"/>
		<path class="st17" d="M712,94c3.674-0.609,2.676,8.593-1,7C709.675,98.024,709.975,95.926,712,94z"/>
		<path class="st17" d="M715,837c0,0.667,0,1.333,0,2C710.124,840.002,713.155,833.679,715,837z"/>
		<path class="st17" d="M674,923c-1.357-0.31-0.829-2.504-1-4c-1.689,1.645-1.241,5.426-3,7c-3.823,1.022-5.414-3.213-9-2
			c0.802-3.469-1.489-3.844-1-7c3.555-1.555,0.604,3.396,3,3c2.375-0.625-0.155-6.155,2-7c1.975,0.691,2.666,2.667,3,5
			c1.172-0.161,0.844-1.823,1-3c3.456,2.981,6.141,1.726,10,3c0.022-2.355-1.723-2.944-1-6c3.514,3.293,1.216,2.087,5,0
			c-0.898,2.928-0.898,3.072,0,6c2.169,0.169,0.453-3.547,1-5c3.655,2.004,3.975-0.073,5-3c2.908,0.869,1.125,1.497,1,4
			c2.306,0.306,1.111-2.889,3-3c-4.147-3.22-2.441-9.791-3-14c1.987-1.666,1.271,0.091,4,0c0.091-2.729-1.666-2.013,0-4
			c-0.554-2.78-3.866-2.8-6-4c1.566-1.434,0.787-5.213,4-5c0.139-4.324-1.371-3.95-4-7c-0.222-3.571,5.196-4.51,7-3
			c-5.011-4.375,1.368-6.825-2-10c2.615-2.385,4.076-5.924,7-8c2.064,1.102-5.216,9.328,3,8c0.072,3.405-2.941,3.725-5,5
			c1.241,0.409,2.908,1.141,5,3c-0.122,2.545-1.455,3.878-4,4c0.279,2.055,2.671,1.996,4,3c0.072,3.405-2.941,3.725-5,5
			c0.91,2.735,3.504-1.774,5,1c-3.768,5.279,2.431,14.383-5,16c0.67,2.996,5.818,1.515,7,4c0.826,2.826-1.409,2.591-1,5
			c0.31,1.357,2.504,0.83,4,1c-2.064-6.128-2.098-11.154,1-16c-1.185-2.238-4.666-10.925,1-11c-1.161-3.839-3.735-6.265-3-12
			c4.704-0.697,0.546-9.952,5-13c-0.658-2.995-2.138,0.956-4,0c-1.468-5.468,2.551-5.449,4-8c-2.613-1.054-1.89-5.443-3-8
			c3.09-0.159,1.689-1.601,6-2c-0.47,6.996,7.48,10.995,1,16c1.5,2.146,2.445-0.716,5,1c-1.265,5.89-2.855,14.506,2,19
			c-0.902,3.521-2.418,2.871-2,6c0.246,1.847-2.023,2.546-2,3c0.067,1.302,2.1,1.591,2,3c-0.084,1.191-1.813,2.215-2,4
			c-0.199,1.894,3.016,4.29-1,4c2.597,5.701,5.812,10.513,3,18c3.67,0.997,4.609,4.725,4,10c-6.986-1.274-11.707,6.791-17,1
			c-3.675,0.325-5.533,2.467-9,3c-6.249-10.25-14.952,3.164-22-4l-0.5-0.5L676,924c2.355-0.535,0.611-4.731-1-2h-1V923z M693,915
			c-0.775,0.225-1.973,0.027-2,1C691.775,915.775,692.973,915.973,693,915z"/>
		<path class="st17" d="M697,852c2.078,0.56,2.119,1.56,1,3c-0.667,0-1.333,0-2,0C695.718,853.385,696.945,853.278,697,852z"/>
		<path class="st17" d="M697,859c-1,0-2,0-3,0c0-1,0-2,0-3C696.182,855.818,697.182,856.818,697,859z"/>
		<path class="st17" d="M31,904C32.158,900.049,32.158,907.951,31,904L31,904z"/>
		<path class="st17" d="M33,904C36.032,900.303,36.369,907.037,33,904L33,904z"/>
		<path class="st17" d="M36,907c3.704-0.58,6.187,2.695,4,5C37.187,911.813,35.74,910.261,36,907z"/>
		<path class="st17" d="M40,914c2.134-0.468,1.905,1.429,2,3c-0.81-0.19-0.997-1.003-2-1C40,915.333,40,914.667,40,914z"/>
		<path class="st17" d="M44,915c0.247-1.258,1.988-1.009,2,0C45.11,915.615,44.211,916.209,44,915z"/>
		<path class="st17" d="M30,918c1,0,2,0,3,0C33.541,921.622,29.459,921.622,30,918z"/>
		<path class="st17" d="M657,919c1.486,0.848,1.447,3.22,2,5C655.64,925.026,657.443,920.89,657,919z"/>
		<path class="st17" d="M69,920c3.944-0.61,1.176,5.49,2,8c-2.111-1.328-2.956,0.493-6-1C65.754,924.087,67.375,922.041,69,920z"/>
		<path class="st17" d="M74,929c-2.007,2.23-2.635-5.97-1-8c2.86,0.14,1.829,4.171,2,7h-1V929z"/>
		<path class="st17" d="M81,923c2.236,0.431,0.405,4.929,1,7c-0.89-0.776-2.258-1.075-4-1C77.398,925.398,81.053,926.053,81,923z"/>
		<path class="st17" d="M85,924c4.514-0.129,4.769,5.089,2,7C85.453,929.547,84.9,927.1,85,924z"/>
		<path class="st17" d="M10,912c-1.769-2.121-3.113-7.172,1-8c-1.494-1.173-1.178-4.155-4-4c1.976-6.836,0.878-8.331,1-14
			c1.667,0,3.333,0,5,0c-8.004,0.522,1.592-11.365-6-12c-0.041-3.04-0.582-6.582,3-6c-5.458-11.03,0.34-17.053-1-28
			c1.615-0.282,1.722,0.945,3,1c2.513-1.519-3.294-6.481-1-8c3.781-1.447,1.919,2.748,5,2c-1.218,3.63,2,7.895,0,9
			c0.241,2.578,1.721-1.373,4,0c0,1.333,0,2.667,0,4c-2.09,0.424-2.648-0.686-4-1c-0.492,4.158,1.186,6.147,4,7
			c0.182,2.182-0.818,3.182-3,3c1.681,5.319,9.557,4.443,9,12c0.982,1.352,2.668,1.998,4,3c0.423,2.09-0.686,2.648-1,4l-0.5-0.5
			L28,876c-0.973,0.027-0.776,1.225-1,2l0.5,1l0.5,1c-2.952,2.375,1.209,6.058,1,9l-0.5,1l0.5,1c-1.656-0.428,0.089,3.729,1,4
			l-0.5,0.5L30,896c-0.766,4.492-0.691,12.17,2,16c-2.343,4.88-10.898,10.048-6,16c-1.71-0.044-2.59,0.743-3,2
			c-1.386-1.614-2.833-3.166-4-5c-2.979,0.021-1.283,4.718-3,6c-2.35-2.978-1.66-2.772-5-1c-2.436-2.838-3.694-15.455-1-17v1h1
			c0.873,2.709,3.347-2.286,0-2l-0.5-0.5L10,912z M23,871c-0.228-1.772,1.008-5.008-2-4C20.721,869.279,21.241,870.759,23,871z
			 M24,903C19.045,904.33,22.438,907.723,24,903L24,903z M27,903c-0.776,0.225-1.973,0.027-2,1
			C25.776,903.775,26.973,903.973,27,903z M23,909c-1.322-0.012-0.914-1.753-2-2C19.854,909.052,22.57,911.767,23,909z"/>
		<path class="st17" d="M51.5,917.5L53,917L51.5,917.5L52,919c-0.333,0-0.667,0-1,0L51.5,917.5z"/>
		<path class="st17" d="M55.5,919l-0.5-1c2.136-3.531,3.554-7.779,7-10c-1.094,4.428,1.694,4.973,2,8l-0.5,1l0.5,1
			c-1.357,0.31-0.83,2.504-1,4l-0.5,1l0.5,1c-0.333,0-0.667,0-1,0c0.013,1.987,2.729,1.271,2,4c-7.589,0.772-8.225-4.35-12-5
			c-0.306-2.306,2.889-1.111,3-3L55.5,919z"/>
		<path class="st17" d="M48.5,919l0.5,1l-1.5-0.5L48,921c-1,0-2,0-3,0l0.5-0.5L45,920c-0.529-0.805-1.043-1.623-1-3
			c1.793,0.127,2.109-1.225,4-1c-1.117,1.23-0.871,2.054,1,2L48.5,919z"/>
		<path class="st17" d="M51.5,926.5L52,925c0.89,0.443,1.789,0.878,2,2h-1v1c3.239,3.149-2.605,0.749-3,3
			c-2.077-0.257-0.273-4.394-2-5l1.167-0.167L50,925c0.333,0,0.667,0,1,0L51.5,926.5z"/>
		<path class="st17" d="M55,928v-1c1.464,0.869,3.169,1.497,3,4c-3.206,0.872-3.127-1.539-4-3H55z"/>
		<path class="st17" d="M43.5,921.5L44,923c-1.583-0.083-3.814,0.48-4-1l1.5-0.5L41,920c0.667,0,1.333,0,2,0L43.5,921.5z"/>
		<path class="st17" d="M38.5,920.5L39,921c-1.554,1.207-3.897,3.195-6,1c1.241-3.47,3.149-1.601,3-5c0.933,1.067,3.689,0.312,3,3
			L38.5,920.5z"/>
		<path class="st17" d="M32,896v-1c1.342,0.658,1.862,2.138,2,4c-2.182,0.182-3.182-0.818-3-3H32z"/>
		<path class="st17" d="M679,9c3.869-2.44,10.205-2.313,13,1c9.137-3.793,18.606-3.109,28-3c0.798,1.869,1.671,3.663,2,6
			c-6.552,4.823,2.853,18.135-4,25c0.306,3.027,3.094,3.573,2,8c-6.714-0.526-1.653,6.485-2,9c-0.151,1.1-2.885,1.607-3,2
			c-0.449,1.528-0.047,8.754,0,9c0.144,0.76,5.008,4.111,0,6c0.732,0.934,1.818,1.515,3,2c-1.542,3.125,0.057,9.39-4,10
			c0.279,2.099,2.671-1.449,4,1c-2.547,4.453-5.194,8.806-10,11c-0.064-5.702,3.545-7.337,1-13c-2.409-0.409-2.174,1.826-5,1
			c3.058-9.63-0.186-10.479-2-19c1.794,0.127,2.109-1.224,4-1c-0.774-3.807-2.22-9.769,1-12c-1.389-1.702-4.037-7.881,0-9
			c-0.279-2.099-2.671,1.449-4-1c-0.197-2.863-0.124-5.458,3-5c-6.025-6.599-0.084-13.65-7-20c-0.805,0.529-1.623,1.043-3,1
			c1.707,4.02-1.001,6.274,3,8c0.475,3.141-1.247,4.086-3,5c0.111,2.555,1.833,3.5,3,5c-1.181,1.486-0.865,4.468-4,4
			c3.443,0.557,3.068,4.931,4,8c-4.738,0.871-5.026,7.108-1,9c-0.755,4.883-4.678,6.204-2,12c-1.313,1.2-1.573,0.39-3,0c0,1,0,2,0,3
			l-1-0.5l-1,0.5c-1.313-1.02-3.687-0.98-5-2c-0.537-3.537,0.848-5.152,3-6c-6.269-2.47,0.087-12.783-3-15
			c3.737-6.469-4.031-7.216-3-14c2.322-0.344,4.687-0.647,4-4c-0.914-2.719-1.859,2.664-5,1c0.729-2.729-1.987-2.013-2-4
			c0.441-2.892,2.108-4.559,5-5c0.537-3.537-0.848-5.152-3-6l-1-0.5l-1,0.5c-0.319-4.88-1.58,0.964-1,3l-0.5-0.5L678,20
			c-0.81,0.19-0.997,1.003-2,1l-0.5-1.5L675,21c-1,0-2,0-3,0v-1h-1c-0.027-0.973-1.225-0.776-2-1l0.5-1.5L669,16
			c0-0.667,0-1.333,0-2l1.5,0.5L670,13c1.926-1.407,4.023-2.643,7-3l-0.5,1.5L678,11c1.162,0.163,1.779-0.221,2-1V9H679z M673,18
			c0.272-1.361-0.619-3.903-1-2C671.728,17.361,672.619,19.904,673,18z M708,67C707.155,72.915,708.573,62.988,708,67L708,67z"/>
		<path class="st17" d="M692,74.5l1-0.5c1.615-0.282,1.722,0.945,3,1c-0.776,0.89-1.075,2.258-1,4c-1.615,0.282-1.722-0.945-3-1
			l-1-0.75L690,78c-1.479,1.158-2.521,1.158-4,0c-0.127-1.794,1.225-2.109,1-4c2.232-0.776,3.565,4.996,4,0L692,74.5z"/>
		<g>
			<path class="st14" d="M35.5,79c-0.317-0.049-0.634-0.098-0.952-0.147C34.061,78.097,34.072,76.746,34,75.5"/>
			<path class="st28" d="M17,102c-0.53-0.962-0.346-2.15,0-3"/>
			<path class="st20" d="M44.5,13.5c0.042-1.708,0.066-3.399-0.5-4.5"/>
			<path class="st18" d="M676.5,924.5c-1.185-0.482-1.806-1.527-2.5-2.5"/>
			<path class="st13" d="M39.5,905.5c3.755-0.33,3.739,5.138,7,5.5"/>
			<path class="st20" d="M74,928c0.711,0.417,1.558,0.315,2.208,0.181c0.146-0.506,0.22-1.092,0.292-1.681"/>
			<path class="st19" d="M30.5,928c0.324-0.365,0.676-0.707,1.044-0.909C35.86,929.673,41.327,924.579,45,928"/>
			<path class="st9" d="M51.5,13.5c-0.1-1.42,0.115-2.663,0.637-3.379c0.611-0.106,1.187-0.013,1.597,0.111
				c0.577,2.719,0.025,6.05,1.327,8.418c2.698-1.814,1.776-5.399,1.94-8.15"/>
			<path class="st15" d="M29.333,879c0.111,0.333,0.222,0.667,0.333,1"/>
			<path class="st25" d="M29.667,880c5.193,1.48,9.288,7.038,11.333,12"/>
			<path class="st27" d="M41,892c4.574,6.209,11.222,12.498,11.844,20.504c-1.606,1.261-1.476,3.134-1.344,4.996"/>
			<path class="st21" d="M51.5,917.5c1.43,1.253,2.334,1.404,4,1.5"/>
			<path class="st2" d="M51.5,917.5c-1.24,0.986-1.865,1.287-3,1.5"/>
			<path class="st23" d="M53,927c0.679,0.321,1.39,0.61,2,1"/>
			<line class="st26" x1="43.5" y1="921.5" x2="43.5" y2="921.5"/>
			<path class="st0" d="M38.5,920.5c1.038,0.209,1.85,0.524,3,1"/>
			<path class="st5" d="M43.5,921.5c0.667-0.547,1.333-0.781,2-1"/>
			<path class="st12" d="M41,892c-0.694,0.353-1.435,0.649-2.036,0.979c-2.752-0.125-2.822-4.263-5.797-4.146"/>
			<path class="st23" d="M33.167,888.833C32.729,889.629,32.43,890.351,32,891"/>
			<path class="st18" d="M32,891c0.292,0.708,0.838,1.162,1.5,1.5"/>
			<path class="st10" d="M32,891c-0.862-0.14-2.09-0.979-3.5-1"/>
			<path class="st22" d="M29.5,895.5c1.029-0.029,1.771,0.229,2.5,0.5"/>
			<path class="st22" d="M10,914c0.351-0.649,0.382-1.618,0.5-2.5"/>
			<path class="st7" d="M29.333,879c-0.081-1.171-0.648-2.084-0.833-3.5"/>
			<path class="st14" d="M29.333,879c-0.611,0-1.222,0-1.833,0"/>
			<path class="st24" d="M29.667,880c-0.339,3.611,1.324,6.183,3.5,8.833"/>
			<path class="st3" d="M62.5,923c0.62,0.037,1.041-0.053,1.453-0.148c0.173-1.58,2.488-5.762-0.453-5.852"/>
			<path class="st8" d="M51.5,926.5c0.618-3.23-2.483-4.748-4-7"/>
			<path class="st1" d="M43.5,921.5c1.526,1.971,4.012,2.701,5.667,4.333"/>
			<path class="st7" d="M691,80c0-0.635,0-1.732,0-2.75"/>
			<path class="st7" d="M692,74.5c0-1,0-2,0-3"/>
			<path class="st22" d="M675.5,23.5c0-1.546,0-2.863,0-4"/>
			<path class="st20" d="M671.5,24.5c-0.042-1.708-0.066-3.399,0.5-4.5"/>
			<path class="st6" d="M669.5,17.5c-0.547,0.667-0.781,1.333-1,2"/>
			<path class="st2" d="M665,17c0.542-0.053,1.09-0.707,1.833-1.167"/>
			<path class="st16" d="M666.833,15.833c1.056-1.269-0.213-5.007,2.376-4.001c0.139,0.774,0.684,1.74,1.291,2.667"/>
			<path class="st4" d="M680,9c-1.358,0.225-2.261,0.94-3.5,2.5"/>
			<path class="st23" d="M666.833,15.833c0.767,0.409,1.746,0.965,2.667,1.667"/>
			<path class="st11" d="M678.5,19.5c0.215,1.208,0.909,1.344,1.502,1.327c0.938-1.25,1.086-2.81,0.998-4.327"/>
		</g>
	</g>
</g>
</svg>
