<?xml version="1.0" encoding="utf-8"?>
<!-- Generator: Adobe Illustrator 14.0.0, SVG Export Plug-In . SVG Version: 6.00 Build 43363)  -->
<!DOCTYPE svg PUBLIC "-//W3C//DTD SVG 1.1//EN" "http://www.w3.org/Graphics/SVG/1.1/DTD/svg11.dtd">
<svg version="1.1" id="Nouveau_x5F_24_xA0_Image_1_"
	 xmlns="http://www.w3.org/2000/svg" xmlns:xlink="http://www.w3.org/1999/xlink" x="0px" y="0px" width="729px" height="969px"
	 viewBox="0 0 729 969" style="enable-background:new 0 0 729 969;" xml:space="preserve">
<style type="text/css">
<![CDATA[
	.st0{fill-rule:evenodd;clip-rule:evenodd;fill:none;stroke:#000000;stroke-width:3.0938;stroke-linecap:round;}
	.st1{fill-rule:evenodd;clip-rule:evenodd;fill:none;stroke:#000000;stroke-width:2.6874;stroke-linecap:round;}
	.st2{fill-rule:evenodd;clip-rule:evenodd;fill:none;stroke:#000000;stroke-width:2.0702;stroke-linecap:round;}
	.st3{fill-rule:evenodd;clip-rule:evenodd;fill:none;stroke:#000000;stroke-width:3.4641;stroke-linecap:round;}
	.st4{fill-rule:evenodd;clip-rule:evenodd;fill:none;stroke:#000000;stroke-width:3.6056;stroke-linecap:round;}
	.st5{fill-rule:evenodd;clip-rule:evenodd;fill:none;stroke:#000000;stroke-width:3.2787;stroke-linecap:round;}
	.st6{fill-rule:evenodd;clip-rule:evenodd;fill:none;stroke:#000000;stroke-width:3.3868;stroke-linecap:round;}
	.st7{fill-rule:evenodd;clip-rule:evenodd;fill:none;stroke:#000000;stroke-width:2.4083;stroke-linecap:round;}
	.st8{fill-rule:evenodd;clip-rule:evenodd;fill:none;stroke:#000000;stroke-width:3.0865;stroke-linecap:round;}
	.st9{fill-rule:evenodd;clip-rule:evenodd;fill:none;stroke:#000000;stroke-width:3.087;stroke-linecap:round;}
	.st10{fill:#000000;fill-rule:evenodd;clip-rule:evenodd;}
	.st11{fill-rule:evenodd;clip-rule:evenodd;fill:none;stroke:#000000;stroke-width:2.5495;stroke-linecap:round;}
	.st12{fill-rule:evenodd;clip-rule:evenodd;fill:none;stroke:#000000;stroke-width:3.4132;stroke-linecap:round;}
	.st13{fill-rule:evenodd;clip-rule:evenodd;fill:none;stroke:#000000;stroke-width:2.6458;stroke-linecap:round;}
	.st14{fill-rule:evenodd;clip-rule:evenodd;fill:none;stroke:#000000;stroke-width:2.7839;stroke-linecap:round;}
	.st15{fill-rule:evenodd;clip-rule:evenodd;fill:none;stroke:#000000;stroke-width:2.8723;stroke-linecap:round;}
	.st16{fill-rule:evenodd;clip-rule:evenodd;fill:none;stroke:#000000;stroke-width:3.0984;stroke-linecap:round;}
]]>
</style>
<g>
	<g>
		<path class="st10" d="M710,852c2.216,28.457,6.106,56.067,11,84c1.449,8.273,4.753,17.387,0,25c-13.299,5.777-28.089,2.146-42,2
			c-160.384-1.68-332.063-1-496-1c-45.983,0-90.52,1-135,1c-13.565,0-27.991,3.696-41-2c-5.507-16.619,2.302-34.466,5-52
			c2.781-18.074,5.067-37.415,6-57c1.887-39.626-2.944-82.203-1-125c3.573-78.668-2.775-162.895,1-246
			c1.848-40.691-1.574-81.98,0-124c1.511-40.348-0.996-82.42,0-124c0.473-19.748-1-40.623-1-62c0-29.759,0.578-65.588-3-92
			c-2.172-16.031-6.202-34.164-9-53C2.922,12.014,6.192,5.369,17,4c12.61-1.597,28.493,1.596,43,2c101.788,2.832,208.629,0,311,0
			c82.077,0,178.424,0,267,0c12.226,0,26.752,0.729,45,0c15.949-0.638,34.91-2.862,39,3c5.07,7.266-2.781,32.105-5,46
			c-7.188,45.008-7,105.434-7,155c0,69.655,1.027,144.734,0,212c-1.118,73.217,2.073,143.703,1,214
			c-1.071,70.175-0.322,140.315-1,213l-1.833-0.5L707,850c-0.667,0-1.333,0-2,0c0.516,8.949-1.121,24.264,0,36
			c0.4,4.188,0.455,10.311,4,12c-1.24-14.474-3.956-32.647-2-47l1.5,0.5L710,852z M52,16c5.684-2.983,18.316,0.983,24-2
			c-20.884,1.031-58.175-8.733-63,10c-1.492,5.794,1.487,24.75,4,31c1.951,4.852,7.312,8.093,9,13c2.345,6.815-1.672,14.125,6,18
			c11.716-4.833,5.256-27.127-5-28l0.5-1.5L27,55c3.692-2.211-2.931-8.792,3-8c3.397,4.269,2.621,12.712,10,13
			c3.049-4.101-8.586-7.361-4-13c4.121-0.788,1.879,4.788,6,4c1.419-2.248,1.477-5.856,5-6c6.355,6.576-1.76,13.79-3,20
			c-1.206,6.039,1.533,12.798,0,18c-1.975,6.702-9.272,7.8-13,11c0,260.337,0,520.663,0,781c12.372,1.962,14.512,14.155,13,30
			c3.328,4.004,7.488,12.017,3,18c-6.072,2.072-1.542-6.459-7-5l-1.3-1.3L37,916c0.932-2.342,6.149-6.671,2-8
			c-6.005,2.34-11.781,24.93-11,6c-0.333,0-0.667,0-1,0l0.5-1.833L26,911c4.538-2.795,9.169-5.497,12-10
			c-0.021-8.313,1.157-17.823-7-18c-4.675,3.324-4.225,11.774-5,19c-6.28,5.797-9.955,13.372-12,26c-0.877,5.415-1.686,12.838-1,16
			c4.374,20.16,42.794,9.113,63,10c-8.1-1.9-19.358-0.642-29-1l0.5-1.833L46,950c10.607-1.47,21.505-1.477,32-1
			c95.667,4.346,192.925-3.268,290,1c30.055,1.321,59.741-1.33,90,0c29.961,1.317,60.177-1.311,90,0c35.58,1.564,68.848-1,105-1
			c11.879,0,25.024-2.31,36,3c-10.366,2.967-28.3-1.633-37,3c20.642-1.647,58.667,8.429,63-11c1.181-5.292-1.575-23.468-4-30
			c-2.207-5.946-7.49-9.559-9-14c-2.026-5.961,0.755-16.921-7-17c-6.382,1.285-4.818,10.515-5,18c2.831,4.503,7.462,7.205,12,10
			l-1.5,1.167L701,914c-3.594,1.95,2.683,7.555-2,8c-4.842-3.492-3.85-12.817-11-14c-2.005,2.123,1.42,4.456,2,7l-1.7,0.7L687,917
			c-0.333,0-0.667,0-1,0c-1.449,2.551-0.407,7.593-6,6c-4.577-5.879,2.488-11.677,4-20c1.264-6.958-1.472-14.863,1-20
			c2.574-5.351,9.466-4.82,12-9c0-259.997,0-520,0-780c-11.375-2.958-15.007-13.66-13-30c-3.56-3.718-8.181-14.406-2-19
			c3.377,0.29,1.653,5.68,5,6c2.84-0.493,1.439-5.227,6-4c2.178,6.786-9.46,9.496-4,13c7.164-0.502,4.575-10.758,10-13
			c4.243,0.006-1.561,6.084,2,8l-0.5,1.5L701,58c-10.343,0.604-17.275,24.686-4,28c5.585-2.966,2.599-12.607,5-19
			c1.346-3.582,6.908-6.659,9-12c1.707-4.357,5.139-24.678,4-30c-3.942-18.428-40.955-11.725-63-10c8.008,0.659,18.657-1.324,25,1
			l-1.5,1.167L676,19c-207.668,0-415.333,0-623,0l0.5-1.833L52,16z M22,108c0.155,3.896-1.9,8.66,1,11
			c-1.193-16.474,3.088-38.421-4-49C19.946,81.139,21.531,96.241,22,108z M705,118c0.342,1.067,0.907,0.767,1-1
			c0.693-13.252,2.015-34.708,2-47C703.344,83.662,704.362,101.301,705,118z M20,898c4.306-10.815,3.607-37.516,2-47
			C22.21,866.881,19.206,884.867,20,898z"/>
		<path class="st10" d="M39,24c-2.79,2.672-4.939-0.937-8-1c0.006-2.727,6.084-4.493,8-2l-0.5,1.5L39,24z"/>
		<path class="st10" d="M697,22c-3.728,3.146-7.074,2.746-13,2C685.943,20.156,693.436,18.612,697,22z"/>
		<path class="st10" d="M24,27c1.171-2.824,7.409-4.208,9-1c0.668,4.335-4.641,2.692-8,3l0.5-1.5L24,27z"/>
		<path class="st10" d="M703,29c-4.521,0.664-10.688-0.582-8-4c2.048-1.93,6.553-0.677,8,1l-0.5,1.5L703,29z"/>
		<path class="st10" d="M47,25c14.964-3.749,16.311,22.182,1,19C53.151,38.026,48.737,31.825,47,25z"/>
		<path class="st10" d="M681,25c-1.946,5.343-4.63,12-2,19C664.453,46.385,666.318,20.903,681,25z"/>
		<path class="st10" d="M38,45c0.605-2.395,1.438-4.563,1-8c0.847-4.821-5.129-5.2-5-7c0.584-8.167,19.506-3.382,14,10
			C44.712,41.712,43.777,45.777,38,45z"/>
		<path class="st10" d="M694,29c-3.748,3.252-6.09,7.91-5,16C672.197,45.492,682.378,16.219,694,29z"/>
		<path class="st10" d="M23,33c3.985-3.324,9.015-3.324,13,0C43.817,48.756,15.629,47.947,23,33z"/>
		<path class="st10" d="M697,31c8.858-2.483,11.858,11.522,4,14C691.822,47.894,685.166,34.317,697,31z"/>
		<path class="st10" d="M34,924c11.331,11.506-10.521,20.056-12,8C21.373,926.885,25.27,922.633,34,924z"/>
		<path class="st10" d="M38,925c16.016-5.947,10.298,26.83-3,16C33.64,937.662,42.664,931.569,38,925z"/>
		<path class="st10" d="M690,924c-2.53,5.21-0.472,13.552,4,15C683.38,953.2,670.245,922.479,690,924z"/>
		<path class="st10" d="M695,938c-0.437-1.23-1.279-2.054-3-2c-6.877-14.854,14.07-15.472,14-5
			C705.972,935.205,702.743,938.757,695,938z"/>
		<path class="st10" d="M48,926c0.431-2.236,4.928-0.405,7-1c7.835,5.977,2.711,23.383-9,18C48.662,940.099,52.972,930.092,48,926z"
			/>
		<path class="st10" d="M679,925c-3.592,6.296-0.229,12.259,2,18C668.382,949.783,663.097,922.171,679,925z"/>
		<path class="st10" d="M27,940c3.318-0.318,6.151-0.151,7,2c0.276,2.688-7.044,2.85-8,1l1.5-1.167L27,940z"/>
		<path class="st10" d="M702,943c-0.859,2.065-6.961,1.055-8,0c0.181-3.152,3.289-3.378,7-3l-0.5,1.833L702,943z"/>
		<path class="st10" d="M39,948c-2.322,2.203-5.678-0.198-8-1c1.357-1.376,5.867-4.71,8-2l-0.5,1.5L39,948z"/>
		<path class="st10" d="M689,945c2.79-2.672,4.939,0.937,8,1c-0.506,1.906-5.712,4.182-7,2l-0.5-1.5L689,945z"/>
		<g>
			<path class="st5" d="M20.5,46.5c0.205,4.274,2.218,9.29,7,10"/>
			<path class="st4" d="M37.3,918.3c0.472-0.528,0.956-1.044,1.4-1.6"/>
			<path class="st6" d="M20.5,921.5c0.583-4.031,2.236-8.803,7-9.333"/>
			<path class="st0" d="M47.5,951.167c-1.333,0.3-2.667,0.287-4,0.333"/>
			<path class="st3" d="M707.5,921.5c-0.557-4.085-2.329-8.608-7-9.333"/>
			<path class="st4" d="M690.3,917.7c-0.716-0.617-1.39-1.276-2-2"/>
			<path class="st12" d="M700.5,56.5c4.938-0.793,6.577-5.751,7-10"/>
			<path class="st9" d="M675.5,17.167c2.946,0.636,6.007,0.203,9,0.333"/>
			<path class="st8" d="M53.5,17.167c-3.278,0.656-6.674,0.192-10,0.333"/>
			<path class="st16" d="M708.5,851.5c0.02-1-0.152-2-0.333-3"/>
			<path class="st15" d="M38.5,22.5c0.667,0.06,1.333,0.276,2,0.5"/>
			<path class="st2" d="M22,30.5c0.67-1.407,2.307-2.073,3.5-3"/>
			<path class="st7" d="M702.5,27.5c1.351,0.884,2.004,1.526,2.667,2.333"/>
			<path class="st1" d="M27.5,941.833c-2.196-0.315-3.99-1.818-5.5-3.333"/>
			<path class="st14" d="M700.5,941.833c1.985-0.81,4.069-1.674,5.5-3.333"/>
			<path class="st11" d="M38.5,946.5c1.405-0.209,2.204-0.524,3-1"/>
			<path class="st13" d="M686.5,945.5c0.595,0.458,1.796,0.81,3,1"/>
		</g>
	</g>
</g>
</svg>
