<?xml version="1.0" encoding="utf-8"?>
<!-- Generator: Adobe Illustrator 14.0.0, SVG Export Plug-In . SVG Version: 6.00 Build 43363)  -->
<!DOCTYPE svg PUBLIC "-//W3C//DTD SVG 1.1//EN" "http://www.w3.org/Graphics/SVG/1.1/DTD/svg11.dtd">
<svg version="1.1" id="Layer_2" xmlns="http://www.w3.org/2000/svg" xmlns:xlink="http://www.w3.org/1999/xlink" x="0px" y="0px"
	 width="558px" height="749.208px" viewBox="0 0 558 749.208" style="enable-background:new 0 0 558 749.208;" xml:space="preserve"
	>
<style type="text/css">
<![CDATA[
	.st0{fill:#BCBEC0;}
]]>
</style>
<g>
	<path class="st0" d="M234.337,16.359c-0.04,0.114,0.022,0.239,0.138,0.28c5.032,1.721,10.75,3.369,16.411,3.369
		c1.481,0,2.957-0.115,4.416-0.368c1.941-0.337,4.146-0.855,5.892-1.82c2.308-1.27,4.646-3.064,4.738-6.479
		c0.04-1.479-0.948-2.567-1.795-3.229c-0.099-0.074-0.235-0.061-0.312,0.038c-0.075,0.097-0.058,0.236,0.038,0.312
		c1.011,0.789,1.655,1.703,1.624,2.867c-0.085,3.173-2.167,4.815-4.509,6.102c-1.703,0.94-3.858,1.446-5.753,1.771
		c-6.946,1.201-14.313-0.832-20.606-2.982C234.499,16.179,234.377,16.241,234.337,16.359z"/>
	<path class="st0" d="M267.01,2.581c-1.631-1.059-3.863-1.212-5.828-0.386c-1.851,0.773-2.93,2.297-3.396,4.794
		c-0.023,0.12,0.057,0.236,0.176,0.259s0.236-0.058,0.261-0.178c0.442-2.368,1.408-3.745,3.129-4.466
		c1.833-0.767,3.904-0.634,5.415,0.35c5.283,3.438,3.966,11.002-0.302,14.678c-4.565,3.932-11.062,5.359-16.916,5.412
		c-3.618,0.032-7.575-0.328-10.998-1.602c-2.765-1.029-5.414-2.395-7.962-3.873c-0.108-0.063-0.243-0.027-0.305,0.077
		c-0.062,0.107-0.027,0.242,0.079,0.305c2.013,1.183,4.793,2.63,7.984,3.871c0.023,0.073,0.068,0.132,0.148,0.149
		c0.154,0.034,0.299,0.056,0.452,0.09c3.755,1.405,8.05,2.491,12.433,2.491c1.41,0,2.829-0.115,4.239-0.361
		c2.673-0.472,5.187-1.266,7.077-2.237c4.556-2.349,7.56-6.441,8.035-10.951C271.075,7.751,269.511,4.209,267.01,2.581z"/>
	<path class="st0" d="M231.212,15.385c0.044,0.048,0.248,0.052,0.285,0.027c0.015,0,0.03,0.007,0.045,0.003
		c0.265-0.027,0.897-0.208,1.036-1.238c0.123-0.908-0.28-1.793-0.902-2.541c0.325-0.296,0.717-0.521,1.14-0.627
		c0.896-0.225,1.667-0.316,2.577-0.267c0.29,0.017,0.828,0.185,1.101,0.301c0.079,0.033,0.795,0.522,0.783,0.533
		c-0.115,0.121-0.225,0.253-0.327,0.395c-0.356,0.493-0.572,1.485-0.3,2.23c0.158,0.431,0.461,0.715,0.873,0.815
		c0.6,0.149,0.916-0.097,1.077-0.329c0.458-0.666,0.144-2.047-0.2-2.54c-0.058-0.083-0.129-0.155-0.191-0.231
		c0.118-0.066,0.394-0.34,0.523-0.374c0.338-0.091,0.689-0.151,1.04-0.116c0.182,0.018,0.358,0.061,0.53,0.121
		c0.348,0.125,0.623,0.313,0.904,0.553c0.525,0.447,1.068,0.908,1.834,1.037c1.013,0.173,1.717-0.091,2.609-0.424l-0.157-0.412
		c-0.859,0.319-1.485,0.552-2.378,0.398c-0.646-0.11-1.119-0.514-1.621-0.939c-0.375-0.317-0.762-0.645-1.232-0.857
		c-0.893-0.402-1.865-0.249-2.654,0.374c-1.264-1.087-3.122-1.61-4.799-1.271c-0.573,0.115-1.287,0.392-1.903,0.844
		c-0.346-0.286-0.719-0.533-1.091-0.729c-1.726-0.907-3.935-1.1-5.765-0.502c-0.389,0.127-0.774,0.354-1.132,0.648
		c-1.419-1.142-4.03-1.742-5.528-1.806c-1.979-0.086-3.977,0.672-5.456,2.073c-1.44,1.365-2.246,3.176-2.269,5.091
		c-0.049,4.131,3.993,7.319,7.765,7.901c0.376,0.06,0.738,0.087,1.089,0.087c2.104,0,3.794-0.992,5.717-2.262
		c0.102-0.069,0.131-0.208,0.063-0.309c-0.068-0.104-0.207-0.128-0.308-0.063c-2.164,1.429-4.017,2.487-6.494,2.109
		c-1.264-0.194-2.546-0.722-3.688-1.468c-0.014-0.045-0.035-0.09-0.077-0.121c-1.972-1.384-2.42-4.475-2.002-6.761
		c0.279-1.526,1.277-2.967,2.698-4.009c2.357-1.729,5.401-1.324,5.434-1.396c1.041,0.293,2.048,0.716,2.722,1.235
		c-0.8,0.795-1.412,1.922-1.537,2.997c-0.132,1.135,0.304,2.071,1.227,2.633c0.645,0.393,1.347,0.371,1.925-0.065
		c0.752-0.569,1.148-1.721,0.9-2.623c-0.229-0.839-0.795-1.728-1.379-2.424c-0.148-0.176,2.199-0.868,2.369-0.887
		c1.503-0.169,3.247-0.047,4.462,0.941c-0.26,0.239-0.491,0.518-0.668,0.836c-0.371,0.67-0.424,1.405-0.153,2.13
		C229.987,14.798,230.592,15.291,231.212,15.385z M237.851,12.179c0.061,0.073,0.129,0.143,0.185,0.223
		c0.302,0.434,0.511,1.578,0.198,2.032c-0.07,0.104-0.219,0.208-0.537,0.153c-0.392-0.496-0.521-1.065-0.35-1.617
		C237.442,12.665,237.622,12.395,237.851,12.179z M224.669,13.629c0.2,0.729-0.132,1.693-0.739,2.15
		c-0.207,0.156-0.509,0.281-0.875,0.233c-1.081-1.177-1.054-2.294-0.835-3.025c0.188-0.631,0.604-1.196,1.134-1.642
		C223.905,11.999,224.456,12.849,224.669,13.629z M230.927,12.782c0.089-0.294,0.257-0.565,0.455-0.812
		c0.512,0.628,0.859,1.374,0.755,2.147c-0.049,0.364-0.201,0.809-0.646,0.856c-0.01,0.004-0.024-0.003-0.035-0.003
		C230.898,14.299,230.702,13.528,230.927,12.782z"/>
	<path class="st0" d="M285.493,4.919c-0.717-0.435-1.412-0.526-2.067-0.268c-1.28,0.503-2.329,2.259-3.207,5.367
		c-0.024,0.086-0.04,0.178-0.063,0.266c-0.294-0.062-0.6-0.101-0.918-0.113V6.582C280.431,0.014,279.032,0,279.032,0h-0.031
		c0,0-1.395,0.013-0.208,6.563v3.608c-0.328,0.013-0.644,0.056-0.946,0.121c-0.023-0.091-0.04-0.186-0.065-0.275
		c-0.877-3.107-1.927-4.864-3.206-5.367c-0.656-0.258-1.352-0.167-2.067,0.268c-1.216,0.741-1.052,2.001-0.729,3.134
		c0.032,0.117,0.146,0.188,0.273,0.153c0.118-0.033,0.186-0.156,0.152-0.274c-0.334-1.182-0.372-2.082,0.535-2.633
		c0.596-0.367,1.146-0.442,1.673-0.234c1.126,0.442,2.116,2.149,2.942,5.074c0.023,0.083,0.039,0.171,0.061,0.255
		c-1.404,0.433-2.391,1.41-2.391,2.548c0,0.132,0.031,0.257,0.056,0.383l-0.016,0.011c0.007,0.009,0.014,0.016,0.021,0.026
		c0.228,1.039,1.28,1.885,2.675,2.212c-0.109,1.033-0.315,2.053-0.627,3.011c-0.333,1.03-1.091,1.475-1.726,1.475
		c-0.029,0-0.061,0-0.09-0.004c-0.719-0.048-1.244-0.617-1.407-1.522c-0.021-0.118-0.128-0.198-0.259-0.177
		c-0.119,0.021-0.201,0.135-0.178,0.256c0.237,1.315,1.093,1.839,1.813,1.888c0.04,0,0.078,0.003,0.12,0.003
		c0.8,0,1.745-0.537,2.148-1.779c0.316-0.976,0.526-2.014,0.64-3.064c0.193,0.029,0.393,0.042,0.596,0.051v4.603h-0.926v0.963h0.926
		v3.161c0,0.124,0.101,0.223,0.222,0.223c0.125,0,0.223-0.099,0.223-0.223v-3.161h0.926v-0.963h-0.926V15.71
		c0.191-0.007,0.384-0.015,0.567-0.04c0.112,1.047,0.322,2.081,0.638,3.054c0.404,1.242,1.35,1.779,2.149,1.779
		c0.041,0,0.079-0.003,0.119-0.003c0.722-0.049,1.577-0.572,1.814-1.888c0.022-0.121-0.06-0.235-0.179-0.256
		c-0.13-0.021-0.237,0.059-0.259,0.177c-0.163,0.905-0.688,1.475-1.406,1.522c-0.029,0.004-0.061,0.004-0.09,0.004
		c-0.635,0-1.394-0.444-1.726-1.475c-0.312-0.957-0.518-1.976-0.627-3.007c1.605-0.361,2.778-1.399,2.778-2.637
		c0-1.149-1.003-2.137-2.43-2.563c0.021-0.079,0.035-0.162,0.058-0.241c0.825-2.925,1.815-4.632,2.941-5.074
		c0.527-0.208,1.077-0.133,1.674,0.234c0.907,0.551,0.869,1.451,0.534,2.633c-0.033,0.118,0.035,0.241,0.152,0.274
		c0.129,0.035,0.241-0.036,0.274-0.153C286.544,6.92,286.709,5.66,285.493,4.919z M275.503,13.159
		c-0.011-0.073-0.033-0.143-0.033-0.217c0-0.937,0.843-1.741,2.049-2.116c0.25,1.13,0.362,2.338,0.326,3.557
		C276.87,14.272,276.094,13.945,275.503,13.159z M278.286,14.418c0.039-1.267-0.077-2.523-0.338-3.698
		c0.27-0.057,0.552-0.094,0.845-0.106v3.817C278.619,14.431,278.45,14.427,278.286,14.418z M279.237,14.427v-3.814
		c0.283,0.012,0.556,0.046,0.816,0.099c-0.261,1.176-0.378,2.432-0.34,3.7C279.555,14.418,279.396,14.424,279.237,14.427z
		 M282.569,12.907c-0.371,1.084-1.347,1.383-2.413,1.477c-0.036-1.224,0.077-2.436,0.329-3.57
		C281.696,11.179,282.547,11.976,282.569,12.907z"/>
	<path class="st0" d="M292.513,11.33c-0.031-1.164,0.613-2.078,1.625-2.867c0.096-0.075,0.112-0.215,0.038-0.312
		c-0.076-0.099-0.214-0.112-0.313-0.038c-0.847,0.661-1.834,1.75-1.794,3.229c0.092,3.414,2.431,5.209,4.737,6.479
		c1.747,0.965,3.951,1.483,5.892,1.82c1.459,0.253,2.935,0.368,4.416,0.368c5.661,0,11.379-1.648,16.411-3.369
		c0.116-0.041,0.178-0.166,0.138-0.28c-0.039-0.118-0.162-0.181-0.281-0.139c-6.294,2.15-13.66,4.184-20.607,2.982
		c-1.894-0.325-4.05-0.831-5.753-1.771C294.681,16.146,292.598,14.503,292.513,11.33z"/>
	<path class="st0" d="M327.412,17.569c-2.549,1.479-5.197,2.844-7.963,3.873c-3.422,1.273-7.38,1.634-10.997,1.602
		c-5.854-0.053-12.352-1.48-16.916-5.412c-4.269-3.676-5.586-11.24-0.302-14.678c1.511-0.983,3.581-1.117,5.415-0.35
		c1.72,0.721,2.687,2.098,3.128,4.466c0.024,0.12,0.143,0.2,0.261,0.178c0.119-0.022,0.199-0.139,0.177-0.259
		c-0.467-2.497-1.545-4.021-3.396-4.794c-1.966-0.826-4.197-0.673-5.828,0.386c-2.501,1.629-4.065,5.17-3.722,8.422
		c0.475,4.51,3.479,8.603,8.035,10.951c1.891,0.972,4.403,1.766,7.076,2.237c1.41,0.246,2.829,0.361,4.239,0.361
		c4.383,0,8.678-1.086,12.434-2.491c0.152-0.034,0.298-0.056,0.452-0.09c0.079-0.018,0.124-0.076,0.148-0.149
		c3.19-1.241,5.971-2.688,7.983-3.871c0.106-0.063,0.141-0.197,0.079-0.305C327.655,17.542,327.52,17.507,327.412,17.569z"/>
	<path class="st0" d="M340.572,23.525c3.772-0.582,7.814-3.771,7.765-7.901c-0.022-1.915-0.828-3.726-2.269-5.091
		c-1.479-1.401-3.478-2.159-5.455-2.073c-1.499,0.063-4.11,0.664-5.528,1.806c-0.358-0.295-0.743-0.521-1.133-0.648
		c-1.83-0.598-4.039-0.405-5.765,0.502c-0.372,0.196-0.745,0.443-1.091,0.729c-0.616-0.452-1.33-0.729-1.903-0.844
		c-1.678-0.339-3.535,0.185-4.8,1.271c-0.789-0.623-1.761-0.776-2.653-0.374c-0.472,0.213-0.858,0.54-1.232,0.857
		c-0.502,0.426-0.977,0.829-1.621,0.939c-0.894,0.153-1.519-0.079-2.378-0.398l-0.158,0.412c0.893,0.333,1.598,0.597,2.61,0.424
		c0.765-0.129,1.309-0.59,1.834-1.037c0.28-0.239,0.557-0.428,0.903-0.553c0.172-0.061,0.35-0.104,0.53-0.121
		c0.352-0.035,0.702,0.025,1.041,0.116c0.13,0.034,0.404,0.308,0.523,0.374c-0.063,0.076-0.134,0.148-0.191,0.231
		c-0.345,0.493-0.658,1.874-0.2,2.54c0.16,0.232,0.478,0.479,1.077,0.329c0.412-0.101,0.714-0.385,0.873-0.815
		c0.272-0.745,0.057-1.737-0.3-2.23c-0.103-0.142-0.213-0.273-0.328-0.395c-0.011-0.011,0.705-0.5,0.783-0.533
		c0.274-0.116,0.812-0.284,1.102-0.301c0.91-0.05,1.682,0.042,2.577,0.267c0.422,0.105,0.814,0.331,1.14,0.627
		c-0.622,0.748-1.025,1.633-0.902,2.541c0.139,1.03,0.771,1.211,1.035,1.238c0.016,0.004,0.031-0.003,0.046-0.003
		c0.037,0.024,0.241,0.021,0.285-0.027c0.619-0.094,1.225-0.587,1.482-1.277c0.271-0.725,0.219-1.46-0.152-2.13
		c-0.177-0.318-0.407-0.597-0.668-0.836c1.216-0.988,2.958-1.11,4.462-0.941c0.171,0.019,2.518,0.711,2.369,0.887
		c-0.584,0.696-1.149,1.585-1.38,2.424c-0.248,0.902,0.147,2.054,0.9,2.623c0.579,0.437,1.281,0.458,1.926,0.065
		c0.923-0.562,1.358-1.498,1.227-2.633c-0.125-1.075-0.736-2.202-1.536-2.997c0.674-0.52,1.681-0.942,2.722-1.235
		c0.033,0.072,3.077-0.333,5.434,1.396c1.421,1.042,2.419,2.482,2.698,4.009c0.418,2.286-0.03,5.377-2.002,6.761
		c-0.043,0.031-0.063,0.076-0.077,0.121c-1.143,0.746-2.425,1.273-3.688,1.468c-2.477,0.378-4.33-0.681-6.494-2.109
		c-0.102-0.065-0.239-0.042-0.308,0.063c-0.067,0.101-0.039,0.239,0.063,0.309c1.922,1.27,3.612,2.262,5.717,2.262
		C339.834,23.612,340.196,23.585,340.572,23.525z M320.304,14.587c-0.317,0.055-0.467-0.049-0.537-0.153
		c-0.312-0.454-0.104-1.599,0.199-2.032c0.056-0.08,0.124-0.149,0.185-0.223c0.229,0.216,0.408,0.486,0.504,0.791
		C320.826,13.521,320.695,14.091,320.304,14.587z M326.544,14.972c-0.011,0-0.024,0.007-0.035,0.003
		c-0.445-0.048-0.597-0.492-0.646-0.856c-0.104-0.773,0.243-1.52,0.755-2.147c0.197,0.246,0.366,0.518,0.455,0.812
		C327.299,13.528,327.103,14.299,326.544,14.972z M335.78,12.987c0.218,0.731,0.245,1.849-0.835,3.025
		c-0.366,0.048-0.668-0.077-0.875-0.233c-0.607-0.457-0.939-1.422-0.739-2.15c0.214-0.78,0.764-1.63,1.314-2.283
		C335.177,11.791,335.592,12.356,335.78,12.987z"/>
	<path class="st0" d="M2,250.548c-1.11,0-2,0.89-2,2c0,1.1,0.89,2,2,2c1.11,0,2-0.9,2-2C4,251.438,3.11,250.548,2,250.548z"/>
	<path class="st0" d="M2,258.528c-1.11,0-2,0.89-2,1.99c0,1.11,0.89,2.01,2,2.01c1.11,0,2-0.9,2-2.01
		C4,259.418,3.11,258.528,2,258.528z"/>
	<path class="st0" d="M2,242.568c-1.11,0-2,0.89-2,2c0,1.1,0.89,2,2,2c1.11,0,2-0.9,2-2C4,243.458,3.11,242.568,2,242.568z"/>
	<path class="st0" d="M2,274.479c-1.11,0-2,0.9-2,2s0.89,2,2,2c1.11,0,2-0.9,2-2S3.11,274.479,2,274.479z"/>
	<path class="st0" d="M2,266.499c-1.11,0-2,0.9-2,2c0,1.11,0.89,2,2,2c1.11,0,2-0.89,2-2C4,267.398,3.11,266.499,2,266.499z"/>
	<path class="st0" d="M2,234.588c-1.11,0-2,0.9-2,2c0,1.11,0.89,2,2,2c1.11,0,2-0.89,2-2C4,235.488,3.11,234.588,2,234.588z"/>
	<path class="st0" d="M2,202.678c-1.11,0-2,0.9-2,2c0,1.1,0.89,2,2,2c1.11,0,2-0.9,2-2C4,203.579,3.11,202.678,2,202.678z"/>
	<path class="st0" d="M2,210.658c-1.11,0-2,0.89-2,2c0,1.1,0.89,2,2,2c1.11,0,2-0.9,2-2C4,211.548,3.11,210.658,2,210.658z"/>
	<path class="st0" d="M2,194.698c-1.11,0-2,0.9-2,2c0,1.11,0.89,2,2,2c1.11,0,2-0.89,2-2C4,195.598,3.11,194.698,2,194.698z"/>
	<path class="st0" d="M2,218.638c-1.11,0-2,0.89-2,2c0,1.1,0.89,2,2,2c1.11,0,2-0.9,2-2C4,219.528,3.11,218.638,2,218.638z"/>
	<path class="st0" d="M2,226.608c-1.11,0-2,0.9-2,2c0,1.11,0.89,2,2,2c1.11,0,2-0.89,2-2C4,227.508,3.11,226.608,2,226.608z"/>
	<path class="st0" d="M2,282.458c-1.11,0-2,0.89-2,2c0,1.1,0.89,2,2,2c1.11,0,2-0.9,2-2C4,283.348,3.11,282.458,2,282.458z"/>
	<path class="st0" d="M2,290.438c-1.11,0-2,0.89-2,2c0,1.1,0.89,2,2,2c1.11,0,2-0.9,2-2C4,291.329,3.11,290.438,2,290.438z"/>
	<path class="st0" d="M2,338.298c-1.11,0-2,0.9-2,2.01c0,1.1,0.89,1.99,2,1.99c1.11,0,2-0.891,2-1.99
		C4,339.199,3.11,338.298,2,338.298z"/>
	<path class="st0" d="M2,330.328c-1.11,0-2,0.891-2,2c0,1.102,0.89,2,2,2c1.11,0,2-0.898,2-2C4,331.218,3.11,330.328,2,330.328z"/>
	<path class="st0" d="M2,370.218c-1.11,0-2,0.891-2,2c0,1.1,0.89,2,2,2c1.11,0,2-0.9,2-2C4,371.109,3.11,370.218,2,370.218z"/>
	<path class="st0" d="M2,354.259c-1.11,0-2,0.898-2,2c0,1.109,0.89,2,2,2c1.11,0,2-0.891,2-2C4,355.158,3.11,354.259,2,354.259z"/>
	<path class="st0" d="M2,378.189c-1.11,0-2,0.898-2,2.01c0,1.1,0.89,1.99,2,1.99c1.11,0,2-0.891,2-1.99
		C4,379.087,3.11,378.189,2,378.189z"/>
	<path class="st0" d="M2,298.418c-1.11,0-2,0.89-2,2c0,1.1,0.89,2,2,2c1.11,0,2-0.9,2-2C4,299.309,3.11,298.418,2,298.418z"/>
	<path class="st0" d="M2,306.388c-1.11,0-2,0.9-2,2c0,1.11,0.89,2,2,2c1.11,0,2-0.89,2-2C4,307.289,3.11,306.388,2,306.388z"/>
	<path class="st0" d="M2,314.369c-1.11,0-2,0.9-2,2c0,1.109,0.89,2,2,2c1.11,0,2-0.891,2-2C4,315.269,3.11,314.369,2,314.369z"/>
	<path class="st0" d="M2,322.349c-1.11,0-2,0.889-2,2c0,1.1,0.89,2,2,2c1.11,0,2-0.9,2-2C4,323.238,3.11,322.349,2,322.349z"/>
	<path class="st0" d="M2,346.279c-1.11,0-2,0.9-2,2c0,1.109,0.89,2,2,2c1.11,0,2-0.891,2-2C4,347.179,3.11,346.279,2,346.279z"/>
	<path class="st0" d="M2,67.048c-1.11,0-2,0.9-2,2c0,1.11,0.89,2,2,2c1.11,0,2-0.89,2-2C4,67.948,3.11,67.048,2,67.048z"/>
	<path class="st0" d="M2,59.079c-1.11,0-2,0.89-2,2c0,1.1,0.89,2,2,2c1.11,0,2-0.9,2-2C4,59.968,3.11,59.079,2,59.079z"/>
	<path class="st0" d="M2,75.028c-1.11,0-2,0.9-2,2c0,1.11,0.89,2,2,2c1.11,0,2-0.89,2-2C4,75.928,3.11,75.028,2,75.028z"/>
	<path class="st0" d="M2,83.008c-1.11,0-2,0.89-2,2c0,1.1,0.89,2,2,2c1.11,0,2-0.9,2-2C4,83.898,3.11,83.008,2,83.008z"/>
	<path class="st0" d="M2,90.988c-1.11,0-2,0.89-2,2c0,1.1,0.89,2,2,2c1.11,0,2-0.9,2-2C4,91.878,3.11,90.988,2,90.988z"/>
	<path class="st0" d="M2,43.118c-1.11,0-2,0.9-2,2c0,1.1,0.89,2,2,2c1.11,0,2-0.9,2-2C4,44.019,3.11,43.118,2,43.118z"/>
	<path class="st0" d="M2,19.188c-1.11,0-2,0.89-2,2c0,1.1,0.89,2,2,2c1.11,0,2-0.9,2-2C4,20.079,3.11,19.188,2,19.188z"/>
	<path class="st0" d="M2,27.158c-1.11,0-2,0.9-2,2c0,1.11,0.89,2,2,2c1.11,0,2-0.89,2-2C4,28.059,3.11,27.158,2,27.158z"/>
	<path class="st0" d="M2,51.098c-1.11,0-2,0.89-2,2c0,1.1,0.89,2,2,2c1.11,0,2-0.9,2-2C4,51.988,3.11,51.098,2,51.098z"/>
	<path class="st0" d="M2,186.718c-1.11,0-2,0.9-2,2c0,1.11,0.89,2,2,2c1.11,0,2-0.89,2-2C4,187.618,3.11,186.718,2,186.718z"/>
	<path class="st0" d="M2,98.968c-1.11,0-2,0.89-2,1.99c0,1.11,0.89,2.01,2,2.01c1.11,0,2-0.9,2-2.01C4,99.858,3.11,98.968,2,98.968z
		"/>
	<path class="st0" d="M2,35.138c-1.11,0-2,0.9-2,2c0,1.11,0.89,2,2,2c1.11,0,2-0.89,2-2C4,36.039,3.11,35.138,2,35.138z"/>
	<path class="st0" d="M2,162.789c-1.11,0-2,0.89-2,2c0,1.1,0.89,2,2,2c1.11,0,2-0.9,2-2C4,163.678,3.11,162.789,2,162.789z"/>
	<path class="st0" d="M2,154.809c-1.11,0-2,0.9-2,2c0,1.11,0.89,2,2,2c1.11,0,2-0.89,2-2C4,155.708,3.11,154.809,2,154.809z"/>
	<path class="st0" d="M2,146.829c-1.11,0-2,0.9-2,2c0,1.11,0.89,2,2,2c1.11,0,2-0.89,2-2C4,147.729,3.11,146.829,2,146.829z"/>
	<path class="st0" d="M2,170.769c-1.11,0-2,0.89-2,2c0,1.1,0.89,2,2,2c1.11,0,2-0.9,2-2C4,171.658,3.11,170.769,2,170.769z"/>
	<path class="st0" d="M2,178.738c-1.11,0-2,0.9-2,2.01c0,1.1,0.89,1.99,2,1.99c1.11,0,2-0.89,2-1.99
		C4,179.638,3.11,178.738,2,178.738z"/>
	<path class="st0" d="M2,130.878c-1.11,0-2,0.89-2,2c0,1.1,0.89,2,2,2c1.11,0,2-0.9,2-2C4,131.769,3.11,130.878,2,130.878z"/>
	<path class="st0" d="M2,114.918c-1.11,0-2,0.9-2,2c0,1.11,0.89,2,2,2c1.11,0,2-0.89,2-2C4,115.818,3.11,114.918,2,114.918z"/>
	<path class="st0" d="M2,138.858c-1.11,0-2,0.89-2,2c0,1.1,0.89,2,2,2c1.11,0,2-0.9,2-2C4,139.749,3.11,138.858,2,138.858z"/>
	<path class="st0" d="M2,122.898c-1.11,0-2,0.89-2,2c0,1.1,0.89,2,2,2c1.11,0,2-0.9,2-2C4,123.789,3.11,122.898,2,122.898z"/>
	<path class="st0" d="M2,106.938c-1.11,0-2,0.9-2,2c0,1.11,0.89,2,2,2c1.11,0,2-0.89,2-2C4,107.838,3.11,106.938,2,106.938z"/>
	<path class="st0" d="M2,362.238c-1.11,0-2,0.891-2,2c0,1.1,0.89,2,2,2c1.11,0,2-0.9,2-2C4,363.128,3.11,362.238,2,362.238z"/>
	<path class="st0" d="M2,633.488c-1.11,0-2,0.891-2,2c0,1.111,0.89,2,2,2c1.11,0,2-0.889,2-2C4,634.378,3.11,633.488,2,633.488z"/>
	<path class="st0" d="M2,625.509c-1.11,0-2,0.898-2,2c0,1.109,0.89,2,2,2c1.11,0,2-0.891,2-2C4,626.408,3.11,625.509,2,625.509z"/>
	<path class="st0" d="M2,617.539c-1.11,0-2,0.891-2,1.99c0,1.109,0.89,2.01,2,2.01c1.11,0,2-0.9,2-2.01
		C4,618.429,3.11,617.539,2,617.539z"/>
	<path class="st0" d="M2,649.449c-1.11,0-2,0.889-2,2c0,1.1,0.89,2,2,2c1.11,0,2-0.9,2-2C4,650.337,3.11,649.449,2,649.449z"/>
	<path class="st0" d="M2,561.689c-1.11,0-2,0.889-2,2c0,1.1,0.89,2,2,2c1.11,0,2-0.9,2-2C4,562.578,3.11,561.689,2,561.689z"/>
	<path class="st0" d="M2,593.599c-1.11,0-2,0.898-2,2c0,1.1,0.89,2,2,2c1.11,0,2-0.9,2-2C4,594.498,3.11,593.599,2,593.599z"/>
	<path class="st0" d="M2,577.638c-1.11,0-2,0.9-2,2c0,1.109,0.89,2,2,2c1.11,0,2-0.891,2-2C4,578.539,3.11,577.638,2,577.638z"/>
	<path class="st0" d="M2,569.667c-1.11,0-2,0.891-2,2c0,1.102,0.89,2,2,2c1.11,0,2-0.898,2-2C4,570.558,3.11,569.667,2,569.667z"/>
	<path class="st0" d="M2,601.578c-1.11,0-2,0.891-2,2c0,1.102,0.89,2,2,2c1.11,0,2-0.898,2-2C4,602.468,3.11,601.578,2,601.578z"/>
	<path class="st0" d="M2,609.558c-1.11,0-2,0.891-2,2c0,1.1,0.89,2,2,2c1.11,0,2-0.9,2-2C4,610.449,3.11,609.558,2,609.558z"/>
	<path class="st0" d="M2,657.417c-1.11,0-2,0.9-2,2c0,1.111,0.89,2,2,2c1.11,0,2-0.889,2-2C4,658.318,3.11,657.417,2,657.417z"/>
	<path class="st0" d="M2,641.468c-1.11,0-2,0.891-2,2c0,1.1,0.89,2,2,2c1.11,0,2-0.9,2-2C4,642.359,3.11,641.468,2,641.468z"/>
	<path class="st0" d="M2,713.269c-1.11,0-2,0.889-2,2c0,1.1,0.89,2,2,2c1.11,0,2-0.9,2-2C4,714.158,3.11,713.269,2,713.269z"/>
	<path class="st0" d="M2,729.228c-1.11,0-2,0.891-2,2c0,1.1,0.89,2,2,2c1.11,0,2-0.9,2-2C4,730.119,3.11,729.228,2,729.228z"/>
	<path class="st0" d="M2,721.248c-1.11,0-2,0.891-2,2c0,1.102,0.89,2,2,2c1.11,0,2-0.898,2-2C4,722.138,3.11,721.248,2,721.248z"/>
	<path class="st0" d="M2,737.208c-1.11,0-2,0.891-2,1.99c0,1.109,0.89,2.01,2,2.01c1.11,0,2-0.9,2-2.01
		C4,738.099,3.11,737.208,2,737.208z"/>
	<path class="st0" d="M2,386.167c-1.11,0-2,0.9-2,2c0,1.111,0.89,2,2,2c1.11,0,2-0.889,2-2C4,387.068,3.11,386.167,2,386.167z"/>
	<path class="st0" d="M2,689.337c-1.11,0-2,0.891-2,2c0,1.102,0.89,1.99,2,1.99c1.11,0,2-0.889,2-1.99
		C4,690.228,3.11,689.337,2,689.337z"/>
	<path class="st0" d="M2,673.378c-1.11,0-2,0.891-2,2s0.89,2,2,2c1.11,0,2-0.891,2-2S3.11,673.378,2,673.378z"/>
	<path class="st0" d="M2,681.359c-1.11,0-2,0.889-2,2c0,1.1,0.89,2,2,2c1.11,0,2-0.9,2-2C4,682.248,3.11,681.359,2,681.359z"/>
	<path class="st0" d="M2,697.308c-1.11,0-2,0.9-2,2c0,1.109,0.89,2,2,2c1.11,0,2-0.891,2-2C4,698.208,3.11,697.308,2,697.308z"/>
	<path class="st0" d="M2,705.289c-1.11,0-2,0.9-2,2c0,1.109,0.89,2,2,2c1.11,0,2-0.891,2-2C4,706.189,3.11,705.289,2,705.289z"/>
	<path class="st0" d="M2,665.398c-1.11,0-2,0.9-2,2c0,1.111,0.89,2,2,2c1.11,0,2-0.889,2-2C4,666.298,3.11,665.398,2,665.398z"/>
	<path class="st0" d="M2,585.619c-1.11,0-2,0.9-2,2c0,1.109,0.89,2,2,2c1.11,0,2-0.891,2-2C4,586.519,3.11,585.619,2,585.619z"/>
	<path class="st0" d="M2,449.998c-1.11,0-2,0.891-2,2c0,1.102,0.89,2,2,2c1.11,0,2-0.898,2-2C4,450.888,3.11,449.998,2,449.998z"/>
	<path class="st0" d="M2,442.019c-1.11,0-2,0.889-2,2c0,1.1,0.89,2,2,2c1.11,0,2-0.9,2-2C4,442.908,3.11,442.019,2,442.019z"/>
	<path class="st0" d="M2,434.039c-1.11,0-2,0.9-2,2s0.89,2,2,2c1.11,0,2-0.9,2-2S3.11,434.039,2,434.039z"/>
	<path class="st0" d="M2,473.929c-1.11,0-2,0.898-2,2c0,1.1,0.89,2,2,2c1.11,0,2-0.9,2-2C4,474.828,3.11,473.929,2,473.929z"/>
	<path class="st0" d="M2,465.949c-1.11,0-2,0.9-2,2c0,1.109,0.89,2,2,2c1.11,0,2-0.891,2-2C4,466.849,3.11,465.949,2,465.949z"/>
	<path class="st0" d="M2,457.968c-1.11,0-2,0.9-2,2.01c0,1.1,0.89,1.99,2,1.99c1.11,0,2-0.891,2-1.99
		C4,458.869,3.11,457.968,2,457.968z"/>
	<path class="st0" d="M2,394.148c-1.11,0-2,0.9-2,2s0.89,2,2,2c1.11,0,2-0.9,2-2S3.11,394.148,2,394.148z"/>
	<path class="st0" d="M2,402.128c-1.11,0-2,0.891-2,2c0,1.1,0.89,2,2,2c1.11,0,2-0.9,2-2C4,403.019,3.11,402.128,2,402.128z"/>
	<path class="st0" d="M2,418.087c-1.11,0-2,0.891-2,1.99c0,1.111,0.89,2.01,2,2.01c1.11,0,2-0.898,2-2.01
		C4,418.978,3.11,418.087,2,418.087z"/>
	<path class="st0" d="M2,410.109c-1.11,0-2,0.889-2,2c0,1.1,0.89,2,2,2c1.11,0,2-0.9,2-2C4,410.998,3.11,410.109,2,410.109z"/>
	<path class="st0" d="M2,426.058c-1.11,0-2,0.9-2,2c0,1.109,0.89,2,2,2c1.11,0,2-0.891,2-2C4,426.958,3.11,426.058,2,426.058z"/>
	<path class="st0" d="M2,545.728c-1.11,0-2,0.9-2,2c0,1.109,0.89,2,2,2c1.11,0,2-0.891,2-2C4,546.628,3.11,545.728,2,545.728z"/>
	<path class="st0" d="M2,521.798c-1.11,0-2,0.891-2,2c0,1.1,0.89,2,2,2c1.11,0,2-0.9,2-2C4,522.689,3.11,521.798,2,521.798z"/>
	<path class="st0" d="M2,537.748c-1.11,0-2,0.9-2,2c0,1.111,0.89,2,2,2c1.11,0,2-0.889,2-2C4,538.648,3.11,537.748,2,537.748z"/>
	<path class="st0" d="M2,481.908c-1.11,0-2,0.891-2,2c0,1.102,0.89,2,2,2c1.11,0,2-0.898,2-2C4,482.798,3.11,481.908,2,481.908z"/>
	<path class="st0" d="M2,553.708c-1.11,0-2,0.891-2,2c0,1.1,0.89,2,2,2c1.11,0,2-0.9,2-2C4,554.599,3.11,553.708,2,553.708z"/>
	<path class="st0" d="M2,529.779c-1.11,0-2,0.889-2,2c0,1.1,0.89,2,2,2c1.11,0,2-0.9,2-2C4,530.667,3.11,529.779,2,529.779z"/>
	<path class="st0" d="M2,489.888c-1.11,0-2,0.891-2,2c0,1.1,0.89,2,2,2c1.11,0,2-0.9,2-2C4,490.779,3.11,489.888,2,489.888z"/>
	<path class="st0" d="M2,497.859c-1.11,0-2,0.9-2,2.01c0,1.1,0.89,1.99,2,1.99c1.11,0,2-0.891,2-1.99
		C4,498.759,3.11,497.859,2,497.859z"/>
	<path class="st0" d="M2,505.837c-1.11,0-2,0.9-2,2c0,1.111,0.89,2,2,2c1.11,0,2-0.889,2-2C4,506.738,3.11,505.837,2,505.837z"/>
	<path class="st0" d="M2,513.818c-1.11,0-2,0.891-2,2c0,1.111,0.89,2,2,2c1.11,0,2-0.889,2-2C4,514.708,3.11,513.818,2,513.818z"/>
	<path class="st0" d="M242.87,745.208c-1.11,0-2,0.891-2,2c0,1.1,0.89,2,2,2c1.1,0,2-0.9,2-2
		C244.87,746.099,243.97,745.208,242.87,745.208z"/>
	<path class="st0" d="M266.96,745.208c-1.11,0-2,0.891-2,2c0,1.1,0.89,2,2,2c1.1,0,2-0.9,2-2
		C268.96,746.099,268.06,745.208,266.96,745.208z"/>
	<path class="st0" d="M250.9,745.208c-1.11,0-2,0.891-2,2c0,1.1,0.89,2,2,2c1.1,0,2-0.9,2-2
		C252.9,746.099,252,745.208,250.9,745.208z"/>
	<path class="st0" d="M258.93,745.208c-1.11,0-2,0.891-2,2c0,1.1,0.89,2,2,2c1.1,0,2-0.9,2-2
		C260.93,746.099,260.03,745.208,258.93,745.208z"/>
	<path class="st0" d="M234.84,745.208c-1.1,0-2,0.891-2,2c0,1.1,0.9,2,2,2s2-0.9,2-2C236.84,746.099,235.94,745.208,234.84,745.208z
		"/>
	<path class="st0" d="M226.81,745.208c-1.1,0-2,0.891-2,2c0,1.1,0.9,2,2,2c1.11,0,2-0.9,2-2
		C228.81,746.099,227.92,745.208,226.81,745.208z"/>
	<path class="st0" d="M194.69,745.208c-1.1,0-1.99,0.891-1.99,2c0,1.1,0.89,2,1.99,2c1.11,0,2.01-0.9,2.01-2
		C196.7,746.099,195.8,745.208,194.69,745.208z"/>
	<path class="st0" d="M274.979,745.208c-1.1,0-1.989,0.891-1.989,2c0,1.1,0.89,2,1.989,2c1.11,0,2.011-0.9,2.011-2
		C276.99,746.099,276.09,745.208,274.979,745.208z"/>
	<path class="st0" d="M202.72,745.208c-1.1,0-1.99,0.891-1.99,2c0,1.1,0.89,2,1.99,2c1.11,0,2-0.9,2-2
		C204.72,746.099,203.83,745.208,202.72,745.208z"/>
	<path class="st0" d="M210.75,745.208c-1.1,0-2,0.891-2,2c0,1.1,0.9,2,2,2c1.11,0,2-0.9,2-2
		C212.75,746.099,211.86,745.208,210.75,745.208z"/>
	<path class="st0" d="M218.78,745.208c-1.1,0-2,0.891-2,2c0,1.1,0.9,2,2,2c1.11,0,2-0.9,2-2
		C220.78,746.099,219.89,745.208,218.78,745.208z"/>
	<path class="st0" d="M347.25,745.208c-1.11,0-2,0.891-2,2c0,1.1,0.89,2,2,2c1.1,0,2-0.9,2-2
		C349.25,746.099,348.35,745.208,347.25,745.208z"/>
	<path class="st0" d="M339.22,745.208c-1.11,0-2,0.891-2,2c0,1.1,0.89,2,2,2c1.1,0,2-0.9,2-2
		C341.22,746.099,340.319,745.208,339.22,745.208z"/>
	<path class="st0" d="M355.27,745.208c-1.1,0-2,0.891-2,2c0,1.1,0.9,2,2,2c1.11,0,2.011-0.9,2.011-2
		C357.28,746.099,356.38,745.208,355.27,745.208z"/>
	<path class="st0" d="M186.67,745.208c-1.11,0-2,0.891-2,2c0,1.1,0.89,2,2,2c1.1,0,2-0.9,2-2
		C188.67,746.099,187.77,745.208,186.67,745.208z"/>
	<path class="st0" d="M331.189,745.208c-1.109,0-2,0.891-2,2c0,1.1,0.891,2,2,2c1.101,0,2-0.9,2-2
		C333.189,746.099,332.29,745.208,331.189,745.208z"/>
	<path class="st0" d="M291.04,745.208c-1.101,0-2,0.891-2,2c0,1.1,0.899,2,2,2c1.109,0,2-0.9,2-2
		C293.04,746.099,292.149,745.208,291.04,745.208z"/>
	<path class="st0" d="M299.069,745.208c-1.1,0-2,0.891-2,2c0,1.1,0.9,2,2,2c1.11,0,2-0.9,2-2
		C301.069,746.099,300.18,745.208,299.069,745.208z"/>
	<path class="st0" d="M323.16,745.208c-1.11,0-2,0.891-2,2c0,1.1,0.89,2,2,2c1.1,0,2-0.9,2-2
		C325.16,746.099,324.26,745.208,323.16,745.208z"/>
	<path class="st0" d="M283.01,745.208c-1.1,0-2,0.891-2,2c0,1.1,0.9,2,2,2c1.11,0,2.01-0.9,2.01-2
		C285.02,746.099,284.12,745.208,283.01,745.208z"/>
	<path class="st0" d="M315.13,745.208c-1.11,0-2,0.891-2,2c0,1.1,0.89,2,2,2c1.1,0,2-0.9,2-2
		C317.13,746.099,316.229,745.208,315.13,745.208z"/>
	<path class="st0" d="M307.1,745.208c-1.109,0-2,0.891-2,2c0,1.1,0.891,2,2,2c1.11,0,2-0.9,2-2
		C309.1,746.099,308.21,745.208,307.1,745.208z"/>
	<path class="st0" d="M170.61,745.208c-1.11,0-2,0.891-2,2c0,1.1,0.89,2,2,2c1.1,0,2-0.9,2-2
		C172.61,746.099,171.71,745.208,170.61,745.208z"/>
	<path class="st0" d="M58.2,745.208c-1.1,0-2,0.891-2,2c0,1.1,0.9,2,2,2c1.11,0,2-0.9,2-2C60.2,746.099,59.31,745.208,58.2,745.208z
		"/>
	<path class="st0" d="M50.17,745.208c-1.1,0-2,0.891-2,2c0,1.1,0.9,2,2,2c1.11,0,2-0.9,2-2
		C52.17,746.099,51.28,745.208,50.17,745.208z"/>
	<path class="st0" d="M178.64,745.208c-1.11,0-2,0.891-2,2c0,1.1,0.89,2,2,2c1.1,0,2-0.9,2-2
		C180.64,746.099,179.74,745.208,178.64,745.208z"/>
	<path class="st0" d="M74.26,745.208c-1.11,0-2,0.891-2,2c0,1.1,0.89,2,2,2s2-0.9,2-2C76.26,746.099,75.37,745.208,74.26,745.208z"
		/>
	<path class="st0" d="M82.29,745.208c-1.11,0-2,0.891-2,2c0,1.1,0.89,2,2,2c1.11,0,2-0.9,2-2
		C84.29,746.099,83.4,745.208,82.29,745.208z"/>
	<path class="st0" d="M90.32,745.208c-1.11,0-2,0.891-2,2c0,1.1,0.89,2,2,2c1.1,0,2-0.9,2-2
		C92.32,746.099,91.42,745.208,90.32,745.208z"/>
	<path class="st0" d="M10.03,745.208c-1.11,0-2,0.891-2,2c0,1.1,0.89,2,2,2c1.1,0,2-0.9,2-2
		C12.03,746.099,11.13,745.208,10.03,745.208z"/>
	<path class="st0" d="M42.15,745.208c-1.11,0-2.01,0.891-2.01,2c0,1.1,0.9,2,2.01,2c1.1,0,1.99-0.9,1.99-2
		C44.14,746.099,43.25,745.208,42.15,745.208z"/>
	<path class="st0" d="M18.06,745.208c-1.11,0-2,0.891-2,2c0,1.1,0.89,2,2,2c1.1,0,2-0.9,2-2
		C20.06,746.099,19.16,745.208,18.06,745.208z"/>
	<path class="st0" d="M34.12,745.208c-1.11,0-2,0.891-2,2c0,1.1,0.89,2,2,2c1.1,0,1.99-0.9,1.99-2
		C36.11,746.099,35.22,745.208,34.12,745.208z"/>
	<path class="st0" d="M26.09,745.208c-1.11,0-2,0.891-2,2c0,1.1,0.89,2,2,2c1.1,0,2-0.9,2-2
		C28.09,746.099,27.19,745.208,26.09,745.208z"/>
	<path class="st0" d="M66.23,745.208c-1.1,0-2,0.891-2,2c0,1.1,0.9,2,2,2c1.11,0,2-0.9,2-2
		C68.23,746.099,67.34,745.208,66.23,745.208z"/>
	<path class="st0" d="M146.52,745.208c-1.1,0-2,0.891-2,2c0,1.1,0.9,2,2,2c1.11,0,2-0.9,2-2
		C148.52,746.099,147.63,745.208,146.52,745.208z"/>
	<path class="st0" d="M154.55,745.208c-1.1,0-2,0.891-2,2c0,1.1,0.9,2,2,2c1.11,0,2-0.9,2-2
		C156.55,746.099,155.66,745.208,154.55,745.208z"/>
	<path class="st0" d="M162.58,745.208c-1.11,0-2,0.891-2,2c0,1.1,0.89,2,2,2c1.11,0,2-0.9,2-2
		C164.58,746.099,163.69,745.208,162.58,745.208z"/>
	<path class="st0" d="M138.49,745.208c-1.1,0-2,0.891-2,2c0,1.1,0.9,2,2,2c1.11,0,2-0.9,2-2
		C140.49,746.099,139.6,745.208,138.49,745.208z"/>
	<path class="st0" d="M363.3,745.208c-1.1,0-2,0.891-2,2c0,1.1,0.9,2,2,2c1.11,0,2-0.9,2-2
		C365.3,746.099,364.41,745.208,363.3,745.208z"/>
	<path class="st0" d="M106.38,745.208c-1.11,0-2,0.891-2,2c0,1.1,0.89,2,2,2c1.1,0,2-0.9,2-2
		C108.38,746.099,107.48,745.208,106.38,745.208z"/>
	<path class="st0" d="M130.46,745.208c-1.1,0-2,0.891-2,2c0,1.1,0.9,2,2,2c1.11,0,2-0.9,2-2
		C132.46,746.099,131.57,745.208,130.46,745.208z"/>
	<path class="st0" d="M114.41,745.208c-1.11,0-2,0.891-2,2c0,1.1,0.89,2,2,2c1.1,0,2-0.9,2-2
		C116.41,746.099,115.51,745.208,114.41,745.208z"/>
	<path class="st0" d="M98.35,745.208c-1.11,0-2,0.891-2,2c0,1.1,0.89,2,2,2c1.1,0,2-0.9,2-2
		C100.35,746.099,99.45,745.208,98.35,745.208z"/>
	<path class="st0" d="M122.44,745.208c-1.11,0-2,0.891-2,2c0,1.1,0.89,2,2,2c1.1,0,1.99-0.9,1.99-2
		C124.43,746.099,123.54,745.208,122.44,745.208z"/>
	<path class="st0" d="M443.59,745.208c-1.1,0-2,0.891-2,2c0,1.1,0.9,2,2,2c1.11,0,2-0.9,2-2
		C445.59,746.099,444.7,745.208,443.59,745.208z"/>
	<path class="st0" d="M459.649,745.208c-1.1,0-2,0.891-2,2c0,1.1,0.9,2,2,2c1.101,0,2-0.9,2-2
		C461.649,746.099,460.75,745.208,459.649,745.208z"/>
	<path class="st0" d="M483.74,745.208c-1.11,0-2,0.891-2,2c0,1.1,0.89,2,2,2c1.1,0,2-0.9,2-2
		C485.74,746.099,484.84,745.208,483.74,745.208z"/>
	<path class="st0" d="M475.71,745.208c-1.11,0-2,0.891-2,2c0,1.1,0.89,2,2,2c1.1,0,2-0.9,2-2
		C477.71,746.099,476.81,745.208,475.71,745.208z"/>
	<path class="st0" d="M451.62,745.208c-1.101,0-2,0.891-2,2c0,1.1,0.899,2,2,2c1.109,0,2-0.9,2-2
		C453.62,746.099,452.729,745.208,451.62,745.208z"/>
	<path class="st0" d="M467.68,745.208c-1.1,0-2,0.891-2,2c0,1.1,0.9,2,2,2c1.11,0,2-0.9,2-2
		C469.68,746.099,468.79,745.208,467.68,745.208z"/>
	<path class="st0" d="M411.479,745.208c-1.109,0-2,0.891-2,2c0,1.1,0.891,2,2,2c1.101,0,2-0.9,2-2
		C413.479,746.099,412.58,745.208,411.479,745.208z"/>
	<path class="st0" d="M427.54,745.208c-1.11,0-2,0.891-2,2c0,1.1,0.89,2,2,2c1.1,0,2-0.9,2-2
		C429.54,746.099,428.64,745.208,427.54,745.208z"/>
	<path class="st0" d="M435.56,745.208c-1.1,0-2,0.891-2,2c0,1.1,0.9,2,2,2c1.11,0,2-0.9,2-2
		C437.56,746.099,436.67,745.208,435.56,745.208z"/>
	<path class="st0" d="M419.51,745.208c-1.11,0-2,0.891-2,2c0,1.1,0.89,2,2,2c1.1,0,2-0.9,2-2
		C421.51,746.099,420.609,745.208,419.51,745.208z"/>
	<path class="st0" d="M523.88,745.208c-1.1,0-2,0.891-2,2c0,1.1,0.9,2,2,2c1.11,0,2-0.9,2-2
		C525.88,746.099,524.99,745.208,523.88,745.208z"/>
	<path class="st0" d="M491.77,745.208c-1.109,0-2,0.891-2,2c0,1.1,0.891,2,2,2c1.101,0,2-0.9,2-2
		C493.77,746.099,492.87,745.208,491.77,745.208z"/>
	<path class="st0" d="M531.91,745.208c-1.101,0-2,0.891-2,2c0,1.1,0.899,2,2,2c1.109,0,2-0.9,2-2
		C533.91,746.099,533.02,745.208,531.91,745.208z"/>
	<path class="st0" d="M547.97,745.208c-1.1,0-2,0.891-2,2c0,1.1,0.9,2,2,2s2-0.9,2-2C549.97,746.099,549.069,745.208,547.97,745.208
		z"/>
	<path class="st0" d="M539.939,745.208c-1.1,0-2,0.891-2,2c0,1.1,0.9,2,2,2c1.11,0,2-0.9,2-2
		C541.939,746.099,541.05,745.208,539.939,745.208z"/>
	<path class="st0" d="M499.8,745.208c-1.11,0-2,0.891-2,2c0,1.1,0.89,2,2,2c1.1,0,2-0.9,2-2
		C501.8,746.099,500.899,745.208,499.8,745.208z"/>
	<path class="st0" d="M507.819,745.208c-1.1,0-1.989,0.891-1.989,2c0,1.1,0.89,2,1.989,2c1.11,0,2.011-0.9,2.011-2
		C509.83,746.099,508.93,745.208,507.819,745.208z"/>
	<path class="st0" d="M515.85,745.208c-1.1,0-2,0.891-2,2c0,1.1,0.9,2,2,2c1.11,0,2-0.9,2-2
		C517.85,746.099,516.96,745.208,515.85,745.208z"/>
	<path class="st0" d="M403.45,745.208c-1.11,0-2,0.891-2,2c0,1.1,0.89,2,2,2c1.1,0,2-0.9,2-2
		C405.45,746.099,404.55,745.208,403.45,745.208z"/>
	<path class="st0" d="M387.39,745.208c-1.109,0-2,0.891-2,2c0,1.1,0.891,2,2,2c1.11,0,2-0.9,2-2
		C389.39,746.099,388.5,745.208,387.39,745.208z"/>
	<path class="st0" d="M395.42,745.208c-1.11,0-2,0.891-2,2c0,1.1,0.89,2,2,2c1.1,0,2-0.9,2-2
		C397.42,746.099,396.52,745.208,395.42,745.208z"/>
	<path class="st0" d="M379.359,745.208c-1.1,0-2,0.891-2,2c0,1.1,0.9,2,2,2c1.11,0,2-0.9,2-2
		C381.359,746.099,380.47,745.208,379.359,745.208z"/>
	<path class="st0" d="M371.33,745.208c-1.101,0-2,0.891-2,2c0,1.1,0.899,2,2,2c1.109,0,2-0.9,2-2
		C373.33,746.099,372.439,745.208,371.33,745.208z"/>
	<path class="st0" d="M556,481.929c-1.101,0-2,0.898-2,2c0,1.109,0.899,2,2,2c1.1,0,2-0.891,2-2
		C558,482.828,557.1,481.929,556,481.929z"/>
	<path class="st0" d="M556,473.958c-1.101,0-2,0.891-2,1.99c0,1.109,0.899,2.01,2,2.01c1.1,0,2-0.9,2-2.01
		C558,474.849,557.1,473.958,556,473.958z"/>
	<path class="st0" d="M556,465.978c-1.101,0-2,0.891-2,2c0,1.1,0.899,2,2,2c1.1,0,2-0.9,2-2C558,466.869,557.1,465.978,556,465.978z
		"/>
	<path class="st0" d="M556,689.359c-1.101,0-2,0.9-2,2c0,1.109,0.899,2,2,2c1.1,0,2-0.891,2-2
		C558,690.259,557.1,689.359,556,689.359z"/>
	<path class="st0" d="M556,729.248c-1.101,0-2,0.891-2,2c0,1.111,0.899,2,2,2c1.1,0,2-0.889,2-2
		C558,730.138,557.1,729.248,556,729.248z"/>
	<path class="st0" d="M556,705.318c-1.101,0-2,0.891-2,2c0,1.1,0.899,2,2,2c1.1,0,2-0.9,2-2C558,706.208,557.1,705.318,556,705.318z
		"/>
	<path class="st0" d="M556,697.337c-1.101,0-2,0.891-2,2c0,1.102,0.899,2,2,2c1.1,0,2-0.898,2-2
		C558,698.228,557.1,697.337,556,697.337z"/>
	<path class="st0" d="M556,721.269c-1.101,0-2,0.898-2,2c0,1.109,0.899,2,2,2c1.1,0,2-0.891,2-2
		C558,722.167,557.1,721.269,556,721.269z"/>
	<path class="st0" d="M556,713.289c-1.101,0-2,0.9-2,2c0,1.109,0.899,2,2,2c1.1,0,2-0.891,2-2
		C558,714.189,557.1,713.289,556,713.289z"/>
	<path class="st0" d="M556,457.998c-1.101,0-2,0.891-2,2c0,1.102,0.899,2,2,2c1.1,0,2-0.898,2-2
		C558,458.888,557.1,457.998,556,457.998z"/>
	<path class="st0" d="M556,737.228c-1.101,0-2,0.891-2,2c0,1.1,0.899,2,2,2c1.1,0,2-0.9,2-2C558,738.119,557.1,737.228,556,737.228z
		"/>
	<path class="st0" d="M556,386.199c-1.101,0-2,0.889-2,2c0,1.1,0.899,2,2,2c1.1,0,2-0.9,2-2C558,387.087,557.1,386.199,556,386.199z
		"/>
	<path class="st0" d="M556,394.179c-1.101,0-2,0.889-2,1.988c0,1.111,0.899,2.012,2,2.012c1.1,0,2-0.9,2-2.012
		C558,395.068,557.1,394.179,556,394.179z"/>
	<path class="st0" d="M556,378.218c-1.101,0-2,0.891-2,2c0,1.1,0.899,2,2,2c1.1,0,2-0.9,2-2C558,379.109,557.1,378.218,556,378.218z
		"/>
	<path class="st0" d="M556,370.238c-1.101,0-2,0.891-2,2c0,1.111,0.899,2,2,2c1.1,0,2-0.889,2-2
		C558,371.128,557.1,370.238,556,370.238z"/>
	<path class="st0" d="M556,402.148c-1.101,0-2,0.9-2,2c0,1.111,0.899,2,2,2c1.1,0,2-0.889,2-2
		C558,403.048,557.1,402.148,556,402.148z"/>
	<path class="st0" d="M556,426.087c-1.101,0-2,0.891-2,2c0,1.102,0.899,2,2,2c1.1,0,2-0.898,2-2
		C558,426.978,557.1,426.087,556,426.087z"/>
	<path class="st0" d="M556,442.039c-1.101,0-2,0.9-2,2c0,1.109,0.899,2,2,2c1.1,0,2-0.891,2-2
		C558,442.939,557.1,442.039,556,442.039z"/>
	<path class="st0" d="M556,434.068c-1.101,0-2,0.891-2,1.99c0,1.109,0.899,2.01,2,2.01c1.1,0,2-0.9,2-2.01
		C558,434.958,557.1,434.068,556,434.068z"/>
	<path class="st0" d="M556,410.128c-1.101,0-2,0.9-2,2c0,1.109,0.899,2,2,2c1.1,0,2-0.891,2-2
		C558,411.029,557.1,410.128,556,410.128z"/>
	<path class="st0" d="M556,450.019c-1.101,0-2,0.898-2,2c0,1.1,0.899,2,2,2c1.1,0,2-0.9,2-2C558,450.917,557.1,450.019,556,450.019z
		"/>
	<path class="st0" d="M556,418.109c-1.101,0-2,0.889-2,2c0,1.1,0.899,2,2,2c1.1,0,2-0.9,2-2C558,418.998,557.1,418.109,556,418.109z
		"/>
	<path class="st0" d="M556,633.509c-1.101,0-2,0.898-2,2c0,1.109,0.899,2,2,2c1.1,0,2-0.891,2-2
		C558,634.408,557.1,633.509,556,633.509z"/>
	<path class="st0" d="M556,553.728c-1.101,0-2,0.9-2,2.01c0,1.1,0.899,1.99,2,1.99c1.1,0,2-0.891,2-1.99
		C558,554.628,557.1,553.728,556,553.728z"/>
	<path class="st0" d="M556,585.648c-1.101,0-2,0.891-2,2c0,1.1,0.899,2,2,2c1.1,0,2-0.9,2-2C558,586.539,557.1,585.648,556,585.648z
		"/>
	<path class="st0" d="M556,545.759c-1.101,0-2,0.889-2,2c0,1.1,0.899,2,2,2c1.1,0,2-0.9,2-2C558,546.648,557.1,545.759,556,545.759z
		"/>
	<path class="st0" d="M556,569.689c-1.101,0-2,0.889-2,2c0,1.109,0.899,2,2,2c1.1,0,2-0.891,2-2
		C558,570.578,557.1,569.689,556,569.689z"/>
	<path class="st0" d="M556,537.779c-1.101,0-2,0.889-2,2c0,1.1,0.899,2,2,2c1.1,0,2-0.9,2-2C558,538.667,557.1,537.779,556,537.779z
		"/>
	<path class="st0" d="M556,577.667c-1.101,0-2,0.891-2,2c0,1.102,0.899,2,2,2c1.1,0,2-0.898,2-2
		C558,578.558,557.1,577.667,556,577.667z"/>
	<path class="st0" d="M556,561.708c-1.101,0-2,0.9-2,2c0,1.109,0.899,2,2,2c1.1,0,2-0.891,2-2
		C558,562.609,557.1,561.708,556,561.708z"/>
	<path class="st0" d="M556,529.798c-1.101,0-2,0.9-2,2s0.899,2,2,2c1.1,0,2-0.9,2-2S557.1,529.798,556,529.798z"/>
	<path class="st0" d="M556,505.869c-1.101,0-2,0.891-2,2c0,1.1,0.899,2,2,2c1.1,0,2-0.9,2-2C558,506.759,557.1,505.869,556,505.869z
		"/>
	<path class="st0" d="M556,497.888c-1.101,0-2,0.891-2,2s0.899,2,2,2c1.1,0,2-0.891,2-2S557.1,497.888,556,497.888z"/>
	<path class="st0" d="M556,513.837c-1.101,0-2,0.9-2,2c0,1.111,0.899,2,2,2c1.1,0,2-0.889,2-2
		C558,514.738,557.1,513.837,556,513.837z"/>
	<path class="st0" d="M556,521.818c-1.101,0-2,0.9-2,2c0,1.111,0.899,2,2,2c1.1,0,2-0.889,2-2
		C558,522.718,557.1,521.818,556,521.818z"/>
	<path class="st0" d="M556,593.619c-1.101,0-2,0.9-2,2c0,1.109,0.899,2,2,2c1.1,0,2-0.891,2-2
		C558,594.519,557.1,593.619,556,593.619z"/>
	<path class="st0" d="M556,649.468c-1.101,0-2,0.891-2,2c0,1.1,0.899,2,2,2c1.1,0,2-0.9,2-2C558,650.359,557.1,649.468,556,649.468z
		"/>
	<path class="st0" d="M556,641.488c-1.101,0-2,0.9-2,2c0,1.111,0.899,2,2,2c1.1,0,2-0.889,2-2
		C558,642.388,557.1,641.488,556,641.488z"/>
	<path class="st0" d="M556,657.449c-1.101,0-2,0.889-2,2c0,1.1,0.899,2,2,2c1.1,0,2-0.9,2-2C558,658.337,557.1,657.449,556,657.449z
		"/>
	<path class="st0" d="M556,673.408c-1.101,0-2,0.891-2,1.99c0,1.111,0.899,2.01,2,2.01c1.1,0,2-0.898,2-2.01
		C558,674.298,557.1,673.408,556,673.408z"/>
	<path class="st0" d="M556,665.429c-1.101,0-2,0.889-2,2c0,1.1,0.899,2,2,2c1.1,0,2-0.9,2-2C558,666.318,557.1,665.429,556,665.429z
		"/>
	<path class="st0" d="M556,625.539c-1.101,0-2,0.891-2,2c0,1.1,0.899,2,2,2c1.1,0,2-0.9,2-2C558,626.429,557.1,625.539,556,625.539z
		"/>
	<path class="st0" d="M556,362.259c-1.101,0-2,0.898-2,2c0,1.109,0.899,2,2,2c1.1,0,2-0.891,2-2
		C558,363.158,557.1,362.259,556,362.259z"/>
	<path class="st0" d="M556,609.578c-1.101,0-2,0.891-2,2c0,1.102,0.899,2,2,2c1.1,0,2-0.898,2-2
		C558,610.468,557.1,609.578,556,609.578z"/>
	<path class="st0" d="M556,601.599c-1.101,0-2,0.898-2,2c0,1.109,0.899,2,2,2c1.1,0,2-0.891,2-2
		C558,602.498,557.1,601.599,556,601.599z"/>
	<path class="st0" d="M556,681.378c-1.101,0-2,0.9-2,2c0,1.109,0.899,2,2,2c1.1,0,2-0.891,2-2
		C558,682.279,557.1,681.378,556,681.378z"/>
	<path class="st0" d="M556,617.558c-1.101,0-2,0.891-2,2c0,1.1,0.899,2,2,2c1.1,0,2-0.9,2-2C558,618.449,557.1,617.558,556,617.558z
		"/>
	<path class="st0" d="M556,322.369c-1.101,0-2,0.9-2,2c0,1.109,0.899,2,2,2c1.1,0,2-0.891,2-2
		C558,323.269,557.1,322.369,556,322.369z"/>
	<path class="st0" d="M556,98.988c-1.101,0-2,0.89-2,2s0.899,2,2,2c1.1,0,2-0.89,2-2S557.1,98.988,556,98.988z"/>
	<path class="st0" d="M556,122.918c-1.101,0-2,0.9-2,2c0,1.11,0.899,2,2,2c1.1,0,2-0.89,2-2C558,123.818,557.1,122.918,556,122.918z
		"/>
	<path class="st0" d="M556,138.878c-1.101,0-2,0.9-2,2s0.899,2,2,2c1.1,0,2-0.9,2-2S557.1,138.878,556,138.878z"/>
	<path class="st0" d="M556,114.948c-1.101,0-2,0.89-2,2c0,1.1,0.899,2,2,2c1.1,0,2-0.9,2-2C558,115.838,557.1,114.948,556,114.948z"
		/>
	<path class="st0" d="M556,106.968c-1.101,0-2,0.89-2,2c0,1.1,0.899,2,2,2c1.1,0,2-0.9,2-2C558,107.858,557.1,106.968,556,106.968z"
		/>
	<path class="st0" d="M556,130.898c-1.101,0-2,0.9-2,2c0,1.11,0.899,2,2,2c1.1,0,2-0.89,2-2C558,131.798,557.1,130.898,556,130.898z
		"/>
	<path class="st0" d="M556,162.809c-1.101,0-2,0.9-2,2c0,1.11,0.899,2,2,2c1.1,0,2-0.89,2-2C558,163.708,557.1,162.809,556,162.809z
		"/>
	<path class="st0" d="M556,170.789c-1.101,0-2,0.9-2,2c0,1.11,0.899,2,2,2c1.1,0,2-0.89,2-2C558,171.688,557.1,170.789,556,170.789z
		"/>
	<path class="st0" d="M556,154.829c-1.101,0-2,0.9-2,2.01c0,1.1,0.899,1.99,2,1.99c1.1,0,2-0.89,2-1.99
		C558,155.729,557.1,154.829,556,154.829z"/>
	<path class="st0" d="M556,146.858c-1.101,0-2,0.89-2,2c0,1.1,0.899,2,2,2c1.1,0,2-0.9,2-2C558,147.749,557.1,146.858,556,146.858z"
		/>
	<path class="st0" d="M556,91.008c-1.101,0-2,0.9-2,2c0,1.11,0.899,2,2,2c1.1,0,2-0.89,2-2C558,91.908,557.1,91.008,556,91.008z"/>
	<path class="st0" d="M556,43.138c-1.101,0-2,0.9-2,2c0,1.11,0.899,2,2,2c1.1,0,2-0.89,2-2C558,44.039,557.1,43.138,556,43.138z"/>
	<path class="st0" d="M556,354.279c-1.101,0-2,0.9-2,2.01c0,1.1,0.899,1.99,2,1.99c1.1,0,2-0.891,2-1.99
		C558,355.179,557.1,354.279,556,354.279z"/>
	<path class="st0" d="M556,35.168c-1.101,0-2,0.89-2,2c0,1.1,0.899,2,2,2c1.1,0,2-0.9,2-2C558,36.059,557.1,35.168,556,35.168z"/>
	<path class="st0" d="M556,27.188c-1.101,0-2,0.89-2,2c0,1.1,0.899,2,2,2c1.1,0,2-0.9,2-2C558,28.079,557.1,27.188,556,27.188z"/>
	<path class="st0" d="M556,19.208c-1.101,0-2,0.89-2,2c0,1.1,0.899,2,2,2c1.1,0,2-0.9,2-2C558,20.098,557.1,19.208,556,19.208z"/>
	<path class="st0" d="M556,83.028c-1.101,0-2,0.9-2,2c0,1.11,0.899,2,2,2c1.1,0,2-0.89,2-2C558,83.928,557.1,83.028,556,83.028z"/>
	<path class="st0" d="M556,178.769c-1.101,0-2,0.9-2,2c0,1.1,0.899,2,2,2c1.1,0,2-0.9,2-2C558,179.668,557.1,178.769,556,178.769z"
		/>
	<path class="st0" d="M556,59.098c-1.101,0-2,0.89-2,2c0,1.11,0.899,2,2,2c1.1,0,2-0.89,2-2C558,59.988,557.1,59.098,556,59.098z"/>
	<path class="st0" d="M556,75.059c-1.101,0-2,0.89-2,2c0,1.1,0.899,2,2,2c1.1,0,2-0.9,2-2C558,75.948,557.1,75.059,556,75.059z"/>
	<path class="st0" d="M556,67.079c-1.101,0-2,0.89-2,2c0,1.1,0.899,2,2,2c1.1,0,2-0.9,2-2C558,67.968,557.1,67.079,556,67.079z"/>
	<path class="st0" d="M556,51.118c-1.101,0-2,0.9-2,2c0,1.11,0.899,2,2,2c1.1,0,2-0.89,2-2C558,52.019,557.1,51.118,556,51.118z"/>
	<path class="st0" d="M556,298.438c-1.101,0-2,0.89-2,2c0,1.1,0.899,2,2,2c1.1,0,2-0.9,2-2C558,299.329,557.1,298.438,556,298.438z"
		/>
	<path class="st0" d="M556,306.418c-1.101,0-2,0.89-2,2c0,1.1,0.899,2,2,2c1.1,0,2-0.9,2-2C558,307.309,557.1,306.418,556,306.418z"
		/>
	<path class="st0" d="M556,314.388c-1.101,0-2,0.9-2,2.01c0,1.1,0.899,1.99,2,1.99c1.1,0,2-0.891,2-1.99
		C558,315.289,557.1,314.388,556,314.388z"/>
	<path class="st0" d="M556,290.458c-1.101,0-2,0.9-2,2c0,1.11,0.899,2,2,2c1.1,0,2-0.89,2-2C558,291.358,557.1,290.458,556,290.458z
		"/>
	<path class="st0" d="M556,186.749c-1.101,0-2,0.89-2,2c0,1.1,0.899,2,2,2c1.1,0,2-0.9,2-2C558,187.638,557.1,186.749,556,186.749z"
		/>
	<path class="st0" d="M556,489.908c-1.101,0-2,0.9-2,2c0,1.102,0.899,2,2,2c1.1,0,2-0.898,2-2
		C558,490.808,557.1,489.908,556,489.908z"/>
	<path class="st0" d="M556,346.308c-1.101,0-2,0.891-2,2c0,1.1,0.899,2,2,2c1.1,0,2-0.9,2-2C558,347.199,557.1,346.308,556,346.308z
		"/>
	<path class="st0" d="M556,338.328c-1.101,0-2,0.891-2,2c0,1.102,0.899,2,2,2c1.1,0,2-0.898,2-2
		C558,339.218,557.1,338.328,556,338.328z"/>
	<path class="st0" d="M556,274.508c-1.101,0-2,0.89-2,1.99c0,1.11,0.899,2.01,2,2.01c1.1,0,2-0.9,2-2.01
		C558,275.398,557.1,274.508,556,274.508z"/>
	<path class="st0" d="M556,330.349c-1.101,0-2,0.898-2,2c0,1.109,0.899,2,2,2c1.1,0,2-0.891,2-2
		C558,331.248,557.1,330.349,556,330.349z"/>
	<path class="st0" d="M556,282.479c-1.101,0-2,0.9-2,2c0,1.11,0.899,2,2,2c1.1,0,2-0.89,2-2C558,283.378,557.1,282.479,556,282.479z
		"/>
	<path class="st0" d="M556,210.678c-1.101,0-2,0.9-2,2c0,1.11,0.899,2,2,2c1.1,0,2-0.89,2-2C558,211.579,557.1,210.678,556,210.678z
		"/>
	<path class="st0" d="M556,226.638c-1.101,0-2,0.89-2,2c0,1.1,0.899,2,2,2c1.1,0,2-0.9,2-2C558,227.528,557.1,226.638,556,226.638z"
		/>
	<path class="st0" d="M556,218.658c-1.101,0-2,0.9-2,2c0,1.1,0.899,2,2,2c1.1,0,2-0.9,2-2C558,219.559,557.1,218.658,556,218.658z"
		/>
	<path class="st0" d="M556,266.528c-1.101,0-2,0.89-2,2c0,1.1,0.899,2,2,2c1.1,0,2-0.9,2-2C558,267.418,557.1,266.528,556,266.528z"
		/>
	<path class="st0" d="M556,194.729c-1.101,0-2,0.89-2,2c0,1.1,0.899,2,2,2c1.1,0,2-0.9,2-2C558,195.618,557.1,194.729,556,194.729z"
		/>
	<path class="st0" d="M556,202.708c-1.101,0-2,0.89-2,1.99c0,1.11,0.899,2.01,2,2.01c1.1,0,2-0.9,2-2.01
		C558,203.598,557.1,202.708,556,202.708z"/>
	<path class="st0" d="M556,234.618c-1.101,0-2,0.89-2,2c0,1.1,0.899,2,2,2c1.1,0,2-0.9,2-2C558,235.508,557.1,234.618,556,234.618z"
		/>
	<path class="st0" d="M556,250.568c-1.101,0-2,0.9-2,2s0.899,2,2,2c1.1,0,2-0.9,2-2S557.1,250.568,556,250.568z"/>
	<path class="st0" d="M556,258.548c-1.101,0-2,0.89-2,2c0,1.1,0.899,2,2,2c1.1,0,2-0.9,2-2C558,259.438,557.1,258.548,556,258.548z"
		/>
	<path class="st0" d="M556,242.588c-1.101,0-2,0.9-2,2c0,1.11,0.899,2,2,2c1.1,0,2-0.89,2-2C558,243.488,557.1,242.588,556,242.588z
		"/>
	<path class="st0" d="M427.53,15.208c1.109,0,2-0.9,2-2c0-1.11-0.891-2-2-2c-1.101,0-1.99,0.89-1.99,2
		C425.54,14.309,426.43,15.208,427.53,15.208z"/>
	<path class="st0" d="M403.45,11.208c-1.11,0-2,0.89-2,2c0,1.1,0.89,2,2,2c1.1,0,2-0.9,2-2
		C405.45,12.098,404.55,11.208,403.45,11.208z"/>
	<path class="st0" d="M355.27,15.208c1.11,0,2-0.9,2-2c0-1.11-0.89-2-2-2c-1.1,0-2,0.89-2,2
		C353.27,14.309,354.17,15.208,355.27,15.208z"/>
	<path class="st0" d="M467.68,11.208c-1.11,0-2,0.89-2,2c0,1.1,0.89,2,2,2s2-0.9,2-2C469.68,12.098,468.79,11.208,467.68,11.208z"/>
	<path class="st0" d="M178.64,11.208c-1.11,0-2,0.89-2,2c0,1.1,0.89,2,2,2c1.1,0,2-0.9,2-2
		C180.64,12.098,179.74,11.208,178.64,11.208z"/>
	<path class="st0" d="M451.62,11.208c-1.101,0-2,0.89-2,2c0,1.1,0.899,2,2,2c1.109,0,2-0.9,2-2
		C453.62,12.098,452.729,11.208,451.62,11.208z"/>
	<path class="st0" d="M186.67,11.208c-1.11,0-2,0.89-2,2c0,1.1,0.89,2,2,2c1.1,0,2-0.9,2-2
		C188.67,12.098,187.77,11.208,186.67,11.208z"/>
	<path class="st0" d="M202.72,11.208c-1.1,0-2,0.89-2,2c0,1.1,0.9,2,2,2c1.11,0,2-0.9,2-2
		C204.72,12.098,203.83,11.208,202.72,11.208z"/>
	<path class="st0" d="M194.7,11.208c-1.11,0-2,0.89-2,2c0,1.1,0.89,2,2,2c1.1,0,2-0.9,2-2C196.7,12.098,195.8,11.208,194.7,11.208z"
		/>
	<path class="st0" d="M459.649,11.208c-1.1,0-2,0.89-2,2c0,1.1,0.9,2,2,2c1.11,0,2-0.9,2-2
		C461.649,12.098,460.76,11.208,459.649,11.208z"/>
	<path class="st0" d="M387.39,11.208c-1.1,0-2,0.89-2,2c0,1.1,0.9,2,2,2c1.101,0,2-0.9,2-2
		C389.39,12.098,388.49,11.208,387.39,11.208z"/>
	<path class="st0" d="M154.55,11.208c-1.11,0-2,0.89-2,2c0,1.1,0.89,2,2,2c1.1,0,2-0.9,2-2
		C156.55,12.098,155.65,11.208,154.55,11.208z"/>
	<path class="st0" d="M170.61,11.208c-1.11,0-2,0.89-2,2c0,1.1,0.89,2,2,2c1.1,0,2-0.9,2-2
		C172.61,12.098,171.71,11.208,170.61,11.208z"/>
	<path class="st0" d="M146.52,11.208c-1.1,0-2,0.89-2,2c0,1.1,0.9,2,2,2c1.11,0,2-0.9,2-2
		C148.52,12.098,147.63,11.208,146.52,11.208z"/>
	<path class="st0" d="M475.71,11.208c-1.11,0-2,0.89-2,2c0,1.1,0.89,2,2,2c1.1,0,2-0.9,2-2
		C477.71,12.098,476.81,11.208,475.71,11.208z"/>
	<path class="st0" d="M162.58,11.208c-1.11,0-2,0.89-2,2c0,1.1,0.89,2,2,2c1.1,0,2-0.9,2-2
		C164.58,12.098,163.68,11.208,162.58,11.208z"/>
	<path class="st0" d="M419.51,11.208c-1.11,0-2,0.89-2,2c0,1.1,0.89,2,2,2c1.1,0,2-0.9,2-2
		C421.51,12.098,420.609,11.208,419.51,11.208z"/>
	<path class="st0" d="M363.3,11.208c-1.1,0-2,0.89-2,2c0,1.1,0.9,2,2,2c1.11,0,2-0.9,2-2C365.3,12.098,364.41,11.208,363.3,11.208z"
		/>
	<path class="st0" d="M411.479,11.208c-1.109,0-2,0.89-2,2c0,1.1,0.891,2,2,2c1.101,0,2-0.9,2-2
		C413.479,12.098,412.58,11.208,411.479,11.208z"/>
	<path class="st0" d="M443.59,11.208c-1.1,0-2,0.89-2,2c0,1.1,0.9,2,2,2c1.11,0,2-0.9,2-2C445.59,12.098,444.7,11.208,443.59,11.208
		z"/>
	<path class="st0" d="M395.42,11.208c-1.11,0-2,0.89-2,2c0,1.1,0.89,2,2,2c1.1,0,2-0.9,2-2
		C397.42,12.098,396.52,11.208,395.42,11.208z"/>
	<path class="st0" d="M435.56,11.208c-1.1,0-2,0.89-2,2c0,1.1,0.9,2,2,2c1.11,0,2-0.9,2-2
		C437.56,12.098,436.67,11.208,435.56,11.208z"/>
	<path class="st0" d="M483.74,11.208c-1.11,0-2,0.89-2,2c0,1.1,0.89,2,2,2c1.1,0,2-0.9,2-2
		C485.74,12.098,484.84,11.208,483.74,11.208z"/>
	<path class="st0" d="M50.17,11.208c-1.1,0-2,0.89-2,2c0,1.1,0.9,2,2,2c1.11,0,2-0.9,2-2C52.17,12.098,51.28,11.208,50.17,11.208z"
		/>
	<path class="st0" d="M42.14,11.208c-1.1,0-2,0.89-2,2c0,1.1,0.9,2,2,2c1.11,0,2.01-0.9,2.01-2
		C44.15,12.098,43.25,11.208,42.14,11.208z"/>
	<path class="st0" d="M58.2,11.208c-1.1,0-2,0.89-2,2c0,1.1,0.9,2,2,2c1.11,0,2-0.9,2-2C60.2,12.098,59.31,11.208,58.2,11.208z"/>
	<path class="st0" d="M74.26,11.208c-1.11,0-2,0.89-2,2c0,1.1,0.89,2,2,2s2-0.9,2-2C76.26,12.098,75.37,11.208,74.26,11.208z"/>
	<path class="st0" d="M523.88,11.208c-1.1,0-2,0.89-2,2c0,1.1,0.9,2,2,2c1.11,0,2-0.9,2-2
		C525.88,12.098,524.99,11.208,523.88,11.208z"/>
	<path class="st0" d="M66.23,11.208c-1.1,0-2,0.89-2,2c0,1.1,0.9,2,2,2c1.11,0,2-0.9,2-2C68.23,12.098,67.34,11.208,66.23,11.208z"
		/>
	<path class="st0" d="M531.91,11.208c-1.101,0-2,0.89-2,2c0,1.1,0.899,2,2,2c1.109,0,2-0.9,2-2
		C533.91,12.098,533.02,11.208,531.91,11.208z"/>
	<path class="st0" d="M547.97,11.208c-1.11,0-2,0.89-2,2c0,1.1,0.89,2,2,2s2-0.9,2-2C549.97,12.098,549.08,11.208,547.97,11.208z"/>
	<path class="st0" d="M371.33,11.208c-1.101,0-2,0.89-2,2c0,1.1,0.899,2,2,2c1.109,0,2-0.9,2-2
		C373.33,12.098,372.439,11.208,371.33,11.208z"/>
	<path class="st0" d="M18.06,11.208c-1.11,0-2,0.89-2,2c0,1.1,0.89,2,2,2c1.1,0,2-0.9,2-2C20.06,12.098,19.16,11.208,18.06,11.208z"
		/>
	<path class="st0" d="M10.03,11.208c-1.11,0-2,0.89-2,2c0,1.1,0.89,2,2,2c1.1,0,2-0.9,2-2C12.03,12.098,11.13,11.208,10.03,11.208z"
		/>
	<path class="st0" d="M34.11,11.208c-1.1,0-2,0.89-2,2c0,1.1,0.9,2,2,2c1.11,0,2.01-0.9,2.01-2
		C36.12,12.098,35.22,11.208,34.11,11.208z"/>
	<path class="st0" d="M539.939,11.208c-1.1,0-2,0.89-2,2c0,1.1,0.9,2,2,2c1.11,0,2-0.9,2-2
		C541.939,12.098,541.05,11.208,539.939,11.208z"/>
	<path class="st0" d="M26.09,11.208c-1.11,0-2,0.89-2,2c0,1.1,0.89,2,2,2c1.1,0,2-0.9,2-2C28.09,12.098,27.19,11.208,26.09,11.208z"
		/>
	<path class="st0" d="M114.41,11.208c-1.11,0-2.01,0.89-2.01,2c0,1.1,0.9,2,2.01,2c1.1,0,2-0.9,2-2
		C116.41,12.098,115.51,11.208,114.41,11.208z"/>
	<path class="st0" d="M138.49,11.208c-1.1,0-2,0.89-2,2c0,1.1,0.9,2,2,2c1.11,0,2-0.9,2-2C140.49,12.098,139.6,11.208,138.49,11.208
		z"/>
	<path class="st0" d="M106.38,11.208c-1.11,0-2,0.89-2,2c0,1.1,0.89,2,2,2c1.1,0,2-0.9,2-2
		C108.38,12.098,107.48,11.208,106.38,11.208z"/>
	<path class="st0" d="M515.85,11.208c-1.1,0-2,0.89-2,2c0,1.1,0.9,2,2,2c1.11,0,2-0.9,2-2
		C517.85,12.098,516.96,11.208,515.85,11.208z"/>
	<path class="st0" d="M499.8,11.208c-1.11,0-2,0.89-2,2c0,1.1,0.89,2,2,2c1.1,0,2-0.9,2-2C501.8,12.098,500.899,11.208,499.8,11.208
		z"/>
	<path class="st0" d="M130.46,11.208c-1.1,0-2,0.89-2,2c0,1.1,0.9,2,2,2c1.11,0,2-0.9,2-2
		C132.46,12.098,131.57,11.208,130.46,11.208z"/>
	<path class="st0" d="M491.77,11.208c-1.109,0-2,0.89-2,2c0,1.1,0.891,2,2,2c1.101,0,2-0.9,2-2
		C493.77,12.098,492.87,11.208,491.77,11.208z"/>
	<path class="st0" d="M122.44,11.208c-1.11,0-2.01,0.89-2.01,2c0,1.1,0.9,2,2.01,2c1.1,0,1.99-0.9,1.99-2
		C124.43,12.098,123.54,11.208,122.44,11.208z"/>
	<path class="st0" d="M90.32,11.208c-1.11,0-2,0.89-2,2c0,1.1,0.89,2,2,2c1.1,0,2-0.9,2-2C92.32,12.098,91.42,11.208,90.32,11.208z"
		/>
	<path class="st0" d="M82.29,11.208c-1.11,0-2,0.89-2,2c0,1.1,0.89,2,2,2c1.1,0,2-0.9,2-2C84.29,12.098,83.39,11.208,82.29,11.208z"
		/>
	<path class="st0" d="M379.359,11.208c-1.1,0-2,0.89-2,2c0,1.1,0.9,2,2,2c1.11,0,2-0.9,2-2
		C381.359,12.098,380.47,11.208,379.359,11.208z"/>
	<path class="st0" d="M507.819,11.208c-1.1,0-2,0.89-2,2c0,1.1,0.9,2,2,2c1.11,0,2.011-0.9,2.011-2
		C509.83,12.098,508.93,11.208,507.819,11.208z"/>
	<path class="st0" d="M98.35,11.208c-1.11,0-2,0.89-2,2c0,1.1,0.89,2,2,2c1.1,0,2-0.9,2-2C100.35,12.098,99.45,11.208,98.35,11.208z
		"/>
	<path class="st0" d="M0.59,11.789C0.21,12.168,0,12.678,0,13.208c0,0.52,0.21,1.04,0.59,1.41c0.37,0.37,0.88,0.59,1.41,0.59
		c0.52,0,1.04-0.22,1.42-0.59c0.37-0.37,0.58-0.89,0.58-1.41c0-0.53-0.21-1.04-0.58-1.42C2.67,11.048,1.33,11.048,0.59,11.789z"/>
	<path class="st0" d="M556,15.208c0.53,0,1.04-0.22,1.41-0.59c0.38-0.37,0.59-0.89,0.59-1.41c0-0.53-0.21-1.05-0.59-1.42
		c-0.74-0.74-2.08-0.74-2.82,0c-0.38,0.38-0.59,0.89-0.59,1.42c0,0.52,0.21,1.04,0.59,1.41C554.96,14.988,555.47,15.208,556,15.208z
		"/>
	<path class="st0" d="M554.58,745.789c-0.37,0.379-0.58,0.891-0.58,1.42c0,0.52,0.21,1.039,0.59,1.41
		c0.37,0.369,0.88,0.59,1.41,0.59s1.04-0.221,1.41-0.59c0.38-0.371,0.59-0.891,0.59-1.41c0-0.529-0.21-1.051-0.59-1.42
		C556.67,745.048,555.33,745.048,554.58,745.789z"/>
	<path class="st0" d="M0.58,745.789c-0.37,0.379-0.58,0.891-0.58,1.42c0,0.52,0.21,1.039,0.59,1.41c0.37,0.369,0.88,0.59,1.41,0.59
		c0.53,0,1.04-0.221,1.41-0.59c0.38-0.371,0.59-0.891,0.59-1.41c0-0.529-0.21-1.051-0.59-1.42
		C2.67,745.048,1.33,745.048,0.58,745.789z"/>
</g>
</svg>
