<?xml version="1.0" encoding="utf-8"?>
<!-- Generator: Adobe Illustrator 14.0.0, SVG Export Plug-In . SVG Version: 6.00 Build 43363)  -->
<!DOCTYPE svg PUBLIC "-//W3C//DTD SVG 1.1//EN" "http://www.w3.org/Graphics/SVG/1.1/DTD/svg11.dtd">
<svg version="1.1" id="Nouveau_x5F_7_xA0_Image_1_" xmlns="http://www.w3.org/2000/svg" xmlns:xlink="http://www.w3.org/1999/xlink"
	 x="0px" y="0px" width="729px" height="969px" viewBox="0 0 729 969" style="enable-background:new 0 0 729 969;"
	 xml:space="preserve">
<style type="text/css">
<![CDATA[
	.st0{fill-rule:evenodd;clip-rule:evenodd;fill:none;stroke:#000000;stroke-width:1.9341;stroke-linecap:round;}
	.st1{fill-rule:evenodd;clip-rule:evenodd;fill:none;stroke:#000000;stroke-width:1.7321;stroke-linecap:round;}
	.st2{fill-rule:evenodd;clip-rule:evenodd;fill:none;stroke:#000000;stroke-width:2.0237;stroke-linecap:round;}
	.st3{fill-rule:evenodd;clip-rule:evenodd;fill:none;stroke:#000000;stroke-width:2.5761;stroke-linecap:round;}
	.st4{fill-rule:evenodd;clip-rule:evenodd;fill:none;stroke:#000000;stroke-width:2.1297;stroke-linecap:round;}
	.st5{fill-rule:evenodd;clip-rule:evenodd;fill:none;stroke:#000000;stroke-width:2.3979;stroke-linecap:round;}
	.st6{fill-rule:evenodd;clip-rule:evenodd;fill:none;stroke:#000000;stroke-width:3;stroke-linecap:round;}
	.st7{fill-rule:evenodd;clip-rule:evenodd;fill:none;stroke:#000000;stroke-width:2.1304;stroke-linecap:round;}
	.st8{fill-rule:evenodd;clip-rule:evenodd;fill:none;stroke:#000000;stroke-width:1.8415;stroke-linecap:round;}
	.st9{fill-rule:evenodd;clip-rule:evenodd;fill:none;stroke:#000000;stroke-width:1.6697;stroke-linecap:round;}
	.st10{fill-rule:evenodd;clip-rule:evenodd;fill:none;stroke:#000000;stroke-width:2.8284;stroke-linecap:round;}
	.st11{fill-rule:evenodd;clip-rule:evenodd;fill:none;stroke:#000000;stroke-width:2.1672;stroke-linecap:round;}
	.st12{fill-rule:evenodd;clip-rule:evenodd;fill:none;stroke:#000000;stroke-width:2.3905;stroke-linecap:round;}
	.st13{fill-rule:evenodd;clip-rule:evenodd;fill:none;stroke:#000000;stroke-width:2.0939;stroke-linecap:round;}
	.st14{fill-rule:evenodd;clip-rule:evenodd;fill:none;stroke:#000000;stroke-width:2.1958;stroke-linecap:round;}
	.st15{fill-rule:evenodd;clip-rule:evenodd;fill:none;stroke:#000000;stroke-width:2;stroke-linecap:round;}
	.st16{fill-rule:evenodd;clip-rule:evenodd;fill:none;stroke:#000000;stroke-width:1.5604;stroke-linecap:round;}
	.st17{fill-rule:evenodd;clip-rule:evenodd;fill:none;stroke:#000000;stroke-width:2.4495;stroke-linecap:round;}
	.st18{fill-rule:evenodd;clip-rule:evenodd;fill:none;stroke:#000000;stroke-width:2.1071;stroke-linecap:round;}
	.st19{fill-rule:evenodd;clip-rule:evenodd;fill:none;stroke:#000000;stroke-width:2.2278;stroke-linecap:round;}
	.st20{fill-rule:evenodd;clip-rule:evenodd;fill:none;stroke:#000000;stroke-width:2.4;stroke-linecap:round;}
	.st21{fill-rule:evenodd;clip-rule:evenodd;fill:none;stroke:#000000;stroke-width:2.1213;stroke-linecap:round;}
	.st22{fill:#000000;fill-rule:evenodd;clip-rule:evenodd;}
	.st23{fill-rule:evenodd;clip-rule:evenodd;fill:none;stroke:#000000;stroke-width:3.1091;stroke-linecap:round;}
	.st24{fill-rule:evenodd;clip-rule:evenodd;fill:none;stroke:#000000;stroke-width:1.8997;stroke-linecap:round;}
	.st25{fill-rule:evenodd;clip-rule:evenodd;fill:none;stroke:#000000;stroke-width:2.7689;stroke-linecap:round;}
	.st26{fill-rule:evenodd;clip-rule:evenodd;fill:none;stroke:#000000;stroke-width:1.7506;stroke-linecap:round;}
	.st27{fill-rule:evenodd;clip-rule:evenodd;fill:none;stroke:#000000;stroke-width:2.3805;stroke-linecap:round;}
	.st28{fill-rule:evenodd;clip-rule:evenodd;fill:none;stroke:#000000;stroke-width:2.031;stroke-linecap:round;}
	.st29{fill-rule:evenodd;clip-rule:evenodd;fill:none;stroke:#000000;stroke-width:1.6143;stroke-linecap:round;}
	.st30{fill-rule:evenodd;clip-rule:evenodd;fill:none;stroke:#000000;stroke-width:1.6475;stroke-linecap:round;}
	.st31{fill-rule:evenodd;clip-rule:evenodd;fill:none;stroke:#000000;stroke-width:2.569;stroke-linecap:round;}
	.st32{fill-rule:evenodd;clip-rule:evenodd;fill:none;stroke:#000000;stroke-width:2.0396;stroke-linecap:round;}
	.st33{fill-rule:evenodd;clip-rule:evenodd;fill:none;stroke:#000000;stroke-width:2.0458;stroke-linecap:round;}
	.st34{fill-rule:evenodd;clip-rule:evenodd;fill:none;stroke:#000000;stroke-width:2.0955;stroke-linecap:round;}
	.st35{fill-rule:evenodd;clip-rule:evenodd;fill:none;stroke:#000000;stroke-width:1.6944;stroke-linecap:round;}
	.st36{fill-rule:evenodd;clip-rule:evenodd;fill:none;stroke:#000000;stroke-width:2.4152;stroke-linecap:round;}
	.st37{fill-rule:evenodd;clip-rule:evenodd;fill:none;stroke:#000000;stroke-width:1.5943;stroke-linecap:round;}
	.st38{fill-rule:evenodd;clip-rule:evenodd;fill:none;stroke:#000000;stroke-width:2.7988;stroke-linecap:round;}
	.st39{fill-rule:evenodd;clip-rule:evenodd;fill:none;stroke:#000000;stroke-width:3.0822;stroke-linecap:round;}
	.st40{fill-rule:evenodd;clip-rule:evenodd;fill:none;stroke:#000000;stroke-width:2.2835;stroke-linecap:round;}
	.st41{fill-rule:evenodd;clip-rule:evenodd;fill:none;stroke:#000000;stroke-width:2.6458;stroke-linecap:round;}
	.st42{fill-rule:evenodd;clip-rule:evenodd;fill:none;stroke:#000000;stroke-width:3.0414;stroke-linecap:round;}
	.st43{fill-rule:evenodd;clip-rule:evenodd;fill:none;stroke:#000000;stroke-width:2.8723;stroke-linecap:round;}
	.st44{fill-rule:evenodd;clip-rule:evenodd;fill:none;stroke:#000000;stroke-width:2.6112;stroke-linecap:round;}
]]>
</style>
<g>
	<g>
		<path class="st22" d="M16,6c-4.536,3.13-7.645,7.688-12,11l-1.5-0.5L1,17c0-4.333,0-8.667,0-13c4.667,0,9.333,0,14,0l-0.5,1.5
			L16,6z"/>
		<path class="st22" d="M27,7c-7.447,6.886-14.326,14.341-13,30c-4,0-8,0-12,0C1.584,18.251,10.635,8.968,25,5l0.5,1.5L27,7z"/>
		<path class="st22" d="M70,6c-14.09,0.909-23.11,6.89-34,11c0-4.667,0-9.333,0-14c11,0,22,0,33,0l0.5,1.5L70,6z"/>
		<path class="st22" d="M86,3c2.667,0,5.333,0,8,0c0,6,0,12,0,18c-2.667,0-5.333,0-8,0C86,15,86,9,86,3z"/>
		<path class="st22" d="M196,3c2.667,0,5.333,0,8,0c0,6,0,12,0,18c-2.667,0-5.333,0-8,0C196,15,196,9,196,3z"/>
		<path class="st22" d="M306,3c2.667,0,5.333,0,8,0c0,6,0,12,0,18c-2.667,0-5.333,0-8,0C306,15,306,9,306,3z"/>
		<path class="st22" d="M416,3c2.667,0,5.333,0,8,0c0,6,0,12,0,18c-2.667,0-5.333,0-8,0C416,15,416,9,416,3z"/>
		<path class="st22" d="M526,3c2.667,0,5.333,0,8,0c0,6,0,12,0,18c-2.667,0-5.333,0-8,0C526,15,526,9,526,3z"/>
		<path class="st22" d="M636,3c2.667,0,5.333,0,8,0c0,6,0,12,0,18c-2.667,0-5.333,0-8,0C636,15,636,9,636,3z"/>
		<path class="st22" d="M666,4c10.428,0.761,18.083-1.251,28-1c0,4.667,0,9.333,0,14c-9.215-4.118-18.453-8.213-29-11l1.5-0.5L666,4
			z"/>
		<path class="st22" d="M729,31c0,2,0,4,0,6c-4.024-0.642-10.634,1.3-13-1c1.43-14.429-5.044-20.956-11-28l1.357-1.214L706,5
			C718.896,8.437,725.78,17.887,729,31z"/>
		<path class="st22" d="M729,4c0,4.333,0,8.667,0,13l-1.5-0.5L726,17c-3.17-4.164-7.446-7.221-11-11l1.5-0.5L716,4
			C720.333,4,724.667,4,729,4z"/>
		<path class="st22" d="M117,4c9,0,18,0,27,0c0,4.333,0,8.667,0,13c-8.159-4.841-18.105-7.895-28-11l1.5-0.5L117,4z"/>
		<path class="st22" d="M174,6c-10.009,2.991-19.543,6.457-28,11c0-4.333,0-8.667,0-13c9,0,18,0,27,0l-0.5,1.5L174,6z"/>
		<path class="st22" d="M227,4c9,0,18,0,27,0c0,4.333,0,8.667,0,13c-8.159-4.841-18.105-7.895-28-11l1.5-0.5L227,4z"/>
		<path class="st22" d="M284,6c-10.009,2.991-19.543,6.457-28,11c0-4.333,0-8.667,0-13c9,0,18,0,27,0l-0.5,1.5L284,6z"/>
		<path class="st22" d="M337,4c9,0,18,0,27,0c0,4.333,0,8.667,0,13c-8.159-4.841-18.105-7.895-28-11l1.5-0.5L337,4z"/>
		<path class="st22" d="M394,6c-10.009,2.991-19.544,6.457-28,11c0-4.333,0-8.667,0-13c9,0,18,0,27,0l-0.5,1.5L394,6z"/>
		<path class="st22" d="M447,4c9,0,18,0,27,0c0,4.333,0,8.667,0,13c-8.159-4.841-18.105-7.895-28-11l1.5-0.5L447,4z"/>
		<path class="st22" d="M504,6c-10.009,2.991-19.544,6.457-28,11c0-4.333,0-8.667,0-13c9,0,18,0,27,0l-0.5,1.5L504,6z"/>
		<path class="st22" d="M557,4c9,0,18,0,27,0c0,4.333,0,8.667,0,13c-8.159-4.841-18.105-7.895-28-11l1.5-0.5L557,4z"/>
		<path class="st22" d="M614,6c-10.009,2.991-19.544,6.457-28,11c0-4.333,0-8.667,0-13c9,0,18,0,27,0l-0.5,1.5L614,6z"/>
		<path class="st22" d="M68,11c-8.511,4.885-16.712,15.203-32,10c7.921-6.079,17.861-10.139,30-12l0.5,1.5L68,11z"/>
		<path class="st22" d="M664,9c10.045,1.288,18.104,4.563,25,9l-0.5,1.5L689,21c-13.446,5.006-17.86-7.394-27-10l1.5-0.5L664,9z"/>
		<path class="st22" d="M16,32c1.083-13.25,6.971-21.695,18-25c0,4.333,0,8.667,0,13c-6.727,2.606-10.349,8.318-15,13l-1.167-1.5
			L16,32z"/>
		<path class="st22" d="M113,9c11.197,0.803,19.029,4.971,27,9l-1.5,1.167L139,21c-15.054,2.72-17.592-7.075-27-10l1.5-0.5L113,9z"
			/>
		<path class="st22" d="M178,11c-8.741,3.259-11.734,12.266-26,10l0.5-1.833L151,18c6.713-4.62,15-7.667,25-9l0.5,1.5L178,11z"/>
		<path class="st22" d="M223,9c11.197,0.803,19.029,4.971,27,9l-1.5,1.167L249,21c-15.054,2.72-17.592-7.075-27-10l1.5-0.5L223,9z"
			/>
		<path class="st22" d="M288,11c-8.741,3.259-11.734,12.266-26,10l0.5-1.833L261,18c6.713-4.62,15-7.667,25-9l0.5,1.5L288,11z"/>
		<path class="st22" d="M333,9c11.197,0.803,19.029,4.971,27,9l-1.5,1.167L359,21c-15.054,2.72-17.592-7.075-27-10l1.5-0.5L333,9z"
			/>
		<path class="st22" d="M398,11c-8.741,3.259-11.734,12.266-26,10l0.5-1.833L371,18c6.713-4.62,15-7.667,25-9l0.5,1.5L398,11z"/>
		<path class="st22" d="M443,9c11.197,0.803,19.029,4.971,27,9l-1.5,1.167L469,21c-15.054,2.72-17.592-7.075-27-10l1.5-0.5L443,9z"
			/>
		<path class="st22" d="M508,11c-8.741,3.259-11.734,12.266-26,10l0.5-1.833L481,18c6.713-4.62,15-7.667,25-9l0.5,1.5L508,11z"/>
		<path class="st22" d="M553,9c11.197,0.803,19.029,4.971,27,9l-1.5,1.167L579,21c-15.054,2.72-17.592-7.075-27-10l1.5-0.5L553,9z"
			/>
		<path class="st22" d="M618,11c-8.741,3.259-11.734,12.266-26,10l0.5-1.833L591,18c6.713-4.62,15-7.667,25-9l0.5,1.5L618,11z"/>
		<path class="st22" d="M711,32c-5.492-3.508-8.055-9.945-15-12c0-4.333,0-8.667,0-13c10.95,3.05,17.093,10.907,18,24l-1.833-0.5
			L711,32z"/>
		<path class="st22" d="M60,19c5.219-5.781,14.202-7.798,24-9c0,3.667,0,7.333,0,11c-8.778-0.778-14.533,1.467-23,1l0.5-1.833L60,19
			z"/>
		<path class="st22" d="M118,21c-7,0-14,0-21,0c0-3.667,0-7.333,0-11c9.004,0.996,17.192,2.808,22,8l-1.5,1.167L118,21z"/>
		<path class="st22" d="M171,18c4.444-4.89,12.525-6.142,20-8c3.506,1.161,2.537,6.796,3,11c-7.333,0-14.667,0-22,0l0.5-1.833
			L171,18z"/>
		<path class="st22" d="M228,21c-7,0-14,0-21,0c0-3.667,0-7.333,0-11c9.004,0.996,17.192,2.808,22,8l-1.5,1.167L228,21z"/>
		<path class="st22" d="M281,18c4.444-4.89,12.525-6.142,20-8c3.506,1.161,2.537,6.796,3,11c-7.333,0-14.667,0-22,0l0.5-1.833
			L281,18z"/>
		<path class="st22" d="M338,21c-7,0-14,0-21,0c0-3.667,0-7.333,0-11c9.004,0.996,17.192,2.808,22,8l-1.5,1.167L338,21z"/>
		<path class="st22" d="M391,18c4.443-4.89,12.525-6.142,20-8c3.506,1.161,2.537,6.796,3,11c-7.333,0-14.667,0-22,0l0.5-1.833
			L391,18z"/>
		<path class="st22" d="M448,21c-7,0-14,0-21,0c0-3.667,0-7.333,0-11c9.004,0.996,17.192,2.808,22,8l-1.5,1.167L448,21z"/>
		<path class="st22" d="M501,18c4.443-4.89,12.525-6.142,20-8c3.506,1.161,2.537,6.796,3,11c-7.333,0-14.667,0-22,0l0.5-1.833
			L501,18z"/>
		<path class="st22" d="M558,21c-7,0-14,0-21,0c0-3.667,0-7.333,0-11c9.004,0.996,17.192,2.808,22,8l-1.5,1.167L558,21z"/>
		<path class="st22" d="M611,18c4.443-4.89,12.525-6.142,20-8c3.506,1.161,2.537,6.796,3,11c-7.333,0-14.667,0-22,0l0.5-1.833
			L611,18z"/>
		<path class="st22" d="M646,10c12.024,0.975,20.813,5.188,28,11c-7.623,2.275-17.984-1.338-28,0C646,17.333,646,13.667,646,10z"/>
		<path class="st22" d="M33,22c2.308,3.025,0.353,10.314,1,15c-5.429,0.762-8.1-1.234-13-1C23.806,30.139,28.541,26.208,33,22z"/>
		<path class="st22" d="M696,22c6.483,2.517,8.776,9.224,14,13c-3.624,1.709-8.56,2.107-14,2C696,32,696,27,696,22z"/>
		<path class="st22" d="M1,71c0-10.667,0-21.333,0-32c4.667,0,9.333,0,14,0C9.364,48.697,5.823,60.49,3,73l-0.5-1.5L1,71z"/>
		<path class="st22" d="M19,44c2.635,15.969-8.148,18.519-11,29l-0.5-1.5L6,72c1.66-11.34,5.381-20.619,10-29l1.167,1.5L19,44z"/>
		<path class="st22" d="M714,43c4.885,7.782,8.368,16.965,10,28l-1.5-0.5L722,72c-3.543-9.457-13.057-12.944-11-28l1.833,0.5L714,43
			z"/>
		<path class="st22" d="M729,39c0,10.333,0,20.667,0,31l-1.5-0.5L727,71c-2.935-11.732-6.563-22.77-12-32
			C719.667,39,724.333,39,729,39z"/>
		<path class="st22" d="M714,63c4.537,6.13,7.85,13.484,8,24c-3.667,0-7.333,0-11,0c0-7.667,0-15.333,0-23l1.833,0.5L714,63z"/>
		<path class="st22" d="M19,65c0,7.333,0,14.667,0,22c-3.667,0-7.333,0-11,0c1.012-9.321,2.752-17.915,8-23l1.167,1.5L19,65z"/>
		<path class="st22" d="M1,89c6,0,12,0,18,0c0,2.667,0,5.333,0,8c-6,0-12,0-18,0C1,94.333,1,91.667,1,89z"/>
		<path class="st22" d="M729,89c0,2.667,0,5.333,0,8c-6.355-1.364-15.946,2.463-18-1c0-2.333,0-4.667,0-7C717,89,723,89,729,89z"/>
		<path class="st22" d="M4,120c3.112,9.888,6.279,19.721,11,28c-4.565-0.435-11.011,1.011-14-1c1.233-7.767,1.075-16.925,1-26
			l1.5,0.5L4,120z"/>
		<path class="st22" d="M9,116c3.797,8.536,12.354,12.313,10,27l-1.833-0.5L16,144c-4.029-7.971-8.197-15.803-9-27l1.5,0.5L9,116z"
			/>
		<path class="st22" d="M16,123c-4.794-5.539-7.285-13.382-8-23c3.667,0,7.333,0,11,0c0,7.333,0,14.667,0,22l-1.833-0.5L16,123z"/>
		<path class="st22" d="M711,122c0-7.333,0-14.667,0-22c3.667,0,7.333,0,11,0c0.038,10.371-3.187,17.48-8,23l-1.167-1.5L711,122z"/>
		<path class="st22" d="M724,115c-1.629,11.371-4.866,21.133-10,29l-1.167-1.5L711,143c-2.654-15.987,8.043-18.624,11-29l0.5,1.5
			L724,115z"/>
		<path class="st22" d="M729,118c0,10,0,20,0,30c-4.355-0.645-11.305,1.304-14-1c6.228-8.106,8.873-19.793,12-31l0.5,1.5L729,118z"
			/>
		<path class="st22" d="M2,177c0.075-9.075,0.233-18.233-1-26c2.989-2.011,9.435-0.565,14-1c-4.721,8.279-7.888,18.112-11,28
			l-0.5-1.5L2,177z"/>
		<path class="st22" d="M19,155c2.354,14.688-6.203,18.464-10,27l-0.5-1.5L7,181c0.803-11.197,4.971-19.029,9-27l1.167,1.5L19,155z"
			/>
		<path class="st22" d="M714,154c5.314,7.352,7.912,17.421,10,28l-1.5-0.5L722,183c-3.596-9.405-13.487-12.513-11-28l1.833,0.5
			L714,154z"/>
		<path class="st22" d="M729,150c0,10.333,0,20.667,0,31l-1.5-0.5L727,182c-2.153-11.519-8.059-24.602-11-32
			C720.333,150,724.667,150,729,150z"/>
		<path class="st22" d="M18,171c2.325,7.008,0.34,18.327,1,27c-3.667,0-7.333,0-11,0C8.315,185.982,13.399,178.732,18,171z"/>
		<path class="st22" d="M714,175c5.084,5.249,7.891,12.776,8,23c-3.667,0-7.333,0-11,0c0-7.333,0-14.667,0-22l1.833,0.5L714,175z"/>
		<path class="st22" d="M729,200c0,3,0,6,0,9c-6.321-0.712-14.531,1.089-18,0c0-3,0-6,0-9C717,200,723,200,729,200z"/>
		<path class="st22" d="M1,201c6,0,12,0,18,0c0,2.667,0,5.333,0,8c-6,0-12,0-18,0C1,206.333,1,203.667,1,201z"/>
		<path class="st22" d="M4,232c3.112,9.888,6.279,19.721,11,28c-4.565-0.435-11.011,1.011-14-1c1.233-7.767,1.075-16.925,1-26
			l1.5,0.5L4,232z"/>
		<path class="st22" d="M9,228c3.797,8.536,12.354,12.313,10,27l-1.833-0.5L16,256c-4.029-7.971-8.197-15.803-9-27l1.5,0.5L9,228z"
			/>
		<path class="st22" d="M16,235c-4.794-5.539-7.285-13.382-8-23c3.667,0,7.333,0,11,0c0,7.333,0,14.667,0,22l-1.833-0.5L16,235z"/>
		<path class="st22" d="M711,234c0-7.333,0-14.667,0-22c3.667,0,7.333,0,11,0c0.038,10.371-3.187,17.48-8,23l-1.167-1.5L711,234z"/>
		<path class="st22" d="M724,227c-1.629,11.371-4.866,21.133-10,29l-1.167-1.5L711,255c-2.654-15.987,8.043-18.624,11-29l0.5,1.5
			L724,227z"/>
		<path class="st22" d="M729,230c0,10,0,20,0,30c-4.355-0.645-11.305,1.304-14-1c6.228-8.106,8.873-19.793,12-31l0.5,1.5L729,230z"
			/>
		<path class="st22" d="M2,289c0.075-9.075,0.233-18.233-1-26c2.989-2.011,9.435-0.565,14-1c-4.721,8.279-7.888,18.112-11,28
			l-0.5-1.5L2,289z"/>
		<path class="st22" d="M19,267c2.354,14.688-6.203,18.464-10,27l-0.5-1.5L7,293c0.803-11.197,4.971-19.029,9-27l1.167,1.5L19,267z"
			/>
		<path class="st22" d="M714,266c5.314,7.352,7.912,17.421,10,28l-1.5-0.5L722,295c-3.596-9.405-13.487-12.513-11-28l1.833,0.5
			L714,266z"/>
		<path class="st22" d="M729,262c0,10.333,0,20.667,0,31l-1.5-0.5L727,294c-2.153-11.519-8.059-24.602-11-32
			C720.333,262,724.667,262,729,262z"/>
		<path class="st22" d="M18,283c2.325,7.008,0.34,18.327,1,27c-3.667,0-7.333,0-11,0C8.315,297.982,13.399,290.732,18,283z"/>
		<path class="st22" d="M714,287c5.084,5.249,7.891,12.776,8,23c-3.667,0-7.333,0-11,0c0-7.333,0-14.667,0-22l1.833,0.5L714,287z"/>
		<path class="st22" d="M729,312c0,3,0,6,0,9c-6.321-0.712-14.531,1.089-18,0c0-3,0-6,0-9C717,312,723,312,729,312z"/>
		<path class="st22" d="M1,313c6,0,12,0,18,0c0,2.667,0,5.333,0,8c-6,0-12,0-18,0C1,318.333,1,315.667,1,313z"/>
		<path class="st22" d="M4,344c3.112,9.888,6.279,19.721,11,28c-4.565-0.435-11.011,1.011-14-1c1.233-7.767,1.075-16.925,1-26
			l1.5,0.5L4,344z"/>
		<path class="st22" d="M9,340c3.797,8.536,12.354,12.313,10,27l-1.833-0.5L16,368c-4.029-7.971-8.197-15.803-9-27l1.5,0.5L9,340z"
			/>
		<path class="st22" d="M16,347c-4.794-5.539-7.285-13.382-8-23c3.667,0,7.333,0,11,0c0,7.333,0,14.667,0,22l-1.833-0.5L16,347z"/>
		<path class="st22" d="M711,346c0-7.333,0-14.667,0-22c3.667,0,7.333,0,11,0c0.038,10.371-3.187,17.48-8,23l-1.167-1.5L711,346z"/>
		<path class="st22" d="M724,339c-1.629,11.371-4.866,21.133-10,29l-1.167-1.5L711,367c-2.654-15.987,8.043-18.624,11-29l0.5,1.5
			L724,339z"/>
		<path class="st22" d="M729,342c0,10,0,20,0,30c-4.355-0.645-11.305,1.304-14-1c6.228-8.106,8.873-19.793,12-31l0.5,1.5L729,342z"
			/>
		<path class="st22" d="M2,401c0.075-9.075,0.233-18.233-1-26c2.989-2.011,9.435-0.565,14-1c-4.721,8.279-7.888,18.112-11,28
			l-0.5-1.5L2,401z"/>
		<path class="st22" d="M19,379c2.354,14.688-6.203,18.464-10,27l-0.5-1.5L7,405c0.803-11.197,4.971-19.029,9-27l1.167,1.5L19,379z"
			/>
		<path class="st22" d="M714,378c5.314,7.352,7.912,17.421,10,28l-1.5-0.5L722,407c-3.596-9.405-13.487-12.513-11-28l1.833,0.5
			L714,378z"/>
		<path class="st22" d="M729,374c0,10.333,0,20.667,0,31l-1.5-0.5L727,406c-2.153-11.519-8.059-24.602-11-32
			C720.333,374,724.667,374,729,374z"/>
		<path class="st22" d="M18,395c2.325,7.008,0.34,18.327,1,27c-3.667,0-7.333,0-11,0C8.315,409.982,13.399,402.732,18,395z"/>
		<path class="st22" d="M714,399c5.084,5.249,7.891,12.776,8,23c-3.667,0-7.333,0-11,0c0-7.333,0-14.667,0-22l1.833,0.5L714,399z"/>
		<path class="st22" d="M729,424c0,3,0,6,0,9c-6.321-0.712-14.531,1.089-18,0c0-3,0-6,0-9C717,424,723,424,729,424z"/>
		<path class="st22" d="M1,425c6,0,12,0,18,0c0,2.667,0,5.333,0,8c-6,0-12,0-18,0C1,430.333,1,427.667,1,425z"/>
		<path class="st22" d="M4,456c3.112,9.888,6.279,19.721,11,28c-4.565-0.435-11.011,1.011-14-1c1.233-7.767,1.075-16.925,1-26
			l1.5,0.5L4,456z"/>
		<path class="st22" d="M9,452c3.797,8.536,12.354,12.313,10,27l-1.833-0.5L16,480c-4.029-7.971-8.197-15.803-9-27l1.5,0.5L9,452z"
			/>
		<path class="st22" d="M16,459c-4.794-5.539-7.285-13.382-8-23c3.667,0,7.333,0,11,0c0,7.333,0,14.667,0,22l-1.833-0.5L16,459z"/>
		<path class="st22" d="M711,458c0-7.333,0-14.667,0-22c3.667,0,7.333,0,11,0c0.038,10.371-3.187,17.48-8,23l-1.167-1.5L711,458z"/>
		<path class="st22" d="M724,451c-1.629,11.371-4.866,21.133-10,29l-1.167-1.5L711,479c-2.654-15.987,8.043-18.624,11-29l0.5,1.5
			L724,451z"/>
		<path class="st22" d="M729,454c0,10,0,20,0,30c-4.355-0.645-11.305,1.304-14-1c6.228-8.106,8.873-19.793,12-31l0.5,1.5L729,454z"
			/>
		<path class="st22" d="M2,513c0.075-9.075,0.233-18.233-1-26c2.989-2.011,9.435-0.565,14-1c-4.721,8.278-7.888,18.111-11,28
			l-0.5-1.5L2,513z"/>
		<path class="st22" d="M19,491c2.354,14.688-6.203,18.464-10,27l-0.5-1.5L7,517c0.803-11.197,4.971-19.029,9-27l1.167,1.5L19,491z"
			/>
		<path class="st22" d="M714,490c5.314,7.353,7.912,17.421,10,28l-1.5-0.5L722,519c-3.596-9.404-13.487-12.513-11-28l1.833,0.5
			L714,490z"/>
		<path class="st22" d="M729,486c0,10.333,0,20.667,0,31l-1.5-0.5L727,518c-2.153-11.519-8.059-24.602-11-32
			C720.333,486,724.667,486,729,486z"/>
		<path class="st22" d="M18,507c2.325,7.009,0.34,18.327,1,27c-3.667,0-7.333,0-11,0C8.315,521.982,13.399,514.732,18,507z"/>
		<path class="st22" d="M714,511c5.084,5.249,7.891,12.776,8,23c-3.667,0-7.333,0-11,0c0-7.333,0-14.667,0-22l1.833,0.5L714,511z"/>
		<path class="st22" d="M729,536c0,3,0,6,0,9c-6.321-0.712-14.531,1.089-18,0c0-3,0-6,0-9C717,536,723,536,729,536z"/>
		<path class="st22" d="M1,537c6,0,12,0,18,0c0,2.667,0,5.333,0,8c-6,0-12,0-18,0C1,542.333,1,539.667,1,537z"/>
		<path class="st22" d="M4,568c3.112,9.889,6.279,19.722,11,28c-4.565-0.435-11.011,1.011-14-1c1.233-7.767,1.075-16.925,1-26
			l1.5,0.5L4,568z"/>
		<path class="st22" d="M9,564c3.797,8.536,12.354,12.313,10,27l-1.833-0.5L16,592c-4.029-7.971-8.197-15.803-9-27l1.5,0.5L9,564z"
			/>
		<path class="st22" d="M16,571c-4.794-5.539-7.285-13.382-8-23c3.667,0,7.333,0,11,0c0,7.333,0,14.667,0,22l-1.833-0.5L16,571z"/>
		<path class="st22" d="M711,570c0-7.333,0-14.667,0-22c3.667,0,7.333,0,11,0c0.038,10.371-3.187,17.48-8,23l-1.167-1.5L711,570z"/>
		<path class="st22" d="M724,563c-1.629,11.371-4.866,21.134-10,29l-1.167-1.5L711,591c-2.654-15.987,8.043-18.624,11-29l0.5,1.5
			L724,563z"/>
		<path class="st22" d="M729,566c0,10,0,20,0,30c-4.355-0.645-11.305,1.305-14-1c6.228-8.106,8.873-19.793,12-31l0.5,1.5L729,566z"
			/>
		<path class="st22" d="M2,625c0.075-9.075,0.233-18.233-1-26c2.989-2.011,9.435-0.565,14-1c-4.721,8.278-7.888,18.111-11,28
			l-0.5-1.5L2,625z"/>
		<path class="st22" d="M19,603c2.354,14.688-6.203,18.464-10,27l-0.5-1.5L7,629c0.803-11.197,4.971-19.029,9-27l1.167,1.5L19,603z"
			/>
		<path class="st22" d="M714,602c5.314,7.353,7.912,17.421,10,28l-1.5-0.5L722,631c-3.596-9.404-13.487-12.513-11-28l1.833,0.5
			L714,602z"/>
		<path class="st22" d="M729,598c0,10.333,0,20.667,0,31l-1.5-0.5L727,630c-2.153-11.519-8.059-24.602-11-32
			C720.333,598,724.667,598,729,598z"/>
		<path class="st22" d="M18,619c2.325,7.009,0.34,18.327,1,27c-3.667,0-7.333,0-11,0C8.315,633.982,13.399,626.732,18,619z"/>
		<path class="st22" d="M714,623c5.084,5.249,7.891,12.776,8,23c-3.667,0-7.333,0-11,0c0-7.333,0-14.667,0-22l1.833,0.5L714,623z"/>
		<path class="st22" d="M729,648c0,3,0,6,0,9c-6.321-0.712-14.531,1.089-18,0c0-3,0-6,0-9C717,648,723,648,729,648z"/>
		<path class="st22" d="M1,649c6,0,12,0,18,0c0,2.667,0,5.333,0,8c-6,0-12,0-18,0C1,654.333,1,651.667,1,649z"/>
		<path class="st22" d="M4,680c3.112,9.889,6.279,19.722,11,28c-4.565-0.435-11.011,1.011-14-1c1.233-7.767,1.075-16.925,1-26
			l1.5,0.5L4,680z"/>
		<path class="st22" d="M9,676c3.797,8.536,12.354,12.313,10,27l-1.833-0.5L16,704c-4.029-7.971-8.197-15.803-9-27l1.5,0.5L9,676z"
			/>
		<path class="st22" d="M16,683c-4.794-5.539-7.285-13.382-8-23c3.667,0,7.333,0,11,0c0,7.333,0,14.667,0,22l-1.833-0.5L16,683z"/>
		<path class="st22" d="M711,682c0-7.333,0-14.667,0-22c3.667,0,7.333,0,11,0c0.038,10.371-3.187,17.48-8,23l-1.167-1.5L711,682z"/>
		<path class="st22" d="M724,675c-1.629,11.371-4.866,21.134-10,29l-1.167-1.5L711,703c-2.654-15.987,8.043-18.624,11-29l0.5,1.5
			L724,675z"/>
		<path class="st22" d="M729,678c0,10,0,20,0,30c-4.355-0.645-11.305,1.305-14-1c6.228-8.106,8.873-19.793,12-31l0.5,1.5L729,678z"
			/>
		<path class="st22" d="M2,737c0.075-9.075,0.233-18.233-1-26c2.989-2.011,9.435-0.565,14-1c-4.721,8.278-7.888,18.111-11,28
			l-0.5-1.5L2,737z"/>
		<path class="st22" d="M19,715c2.354,14.688-6.203,18.464-10,27l-0.5-1.5L7,741c0.803-11.197,4.971-19.029,9-27l1.167,1.5L19,715z"
			/>
		<path class="st22" d="M714,714c5.314,7.353,7.912,17.421,10,28l-1.5-0.5L722,743c-3.596-9.404-13.487-12.513-11-28l1.833,0.5
			L714,714z"/>
		<path class="st22" d="M729,710c0,10.333,0,20.667,0,31l-1.5-0.5L727,742c-2.153-11.519-8.059-24.602-11-32
			C720.333,710,724.667,710,729,710z"/>
		<path class="st22" d="M18,731c2.325,7.009,0.34,18.327,1,27c-3.667,0-7.333,0-11,0C8.315,745.982,13.399,738.732,18,731z"/>
		<path class="st22" d="M714,735c5.084,5.249,7.891,12.776,8,23c-3.667,0-7.333,0-11,0c0-7.333,0-14.667,0-22l1.833,0.5L714,735z"/>
		<path class="st22" d="M729,760c0,3,0,6,0,9c-6.321-0.712-14.531,1.089-18,0c0-3,0-6,0-9C717,760,723,760,729,760z"/>
		<path class="st22" d="M1,761c6,0,12,0,18,0c0,2.667,0,5.333,0,8c-6,0-12,0-18,0C1,766.333,1,763.667,1,761z"/>
		<path class="st22" d="M4,792c3.112,9.889,6.279,19.722,11,28c-4.565-0.435-11.011,1.011-14-1c1.233-7.767,1.075-16.925,1-26
			l1.5,0.5L4,792z"/>
		<path class="st22" d="M9,788c3.797,8.536,12.354,12.313,10,27l-1.833-0.5L16,816c-4.029-7.971-8.197-15.803-9-27l1.5,0.5L9,788z"
			/>
		<path class="st22" d="M16,795c-4.794-5.539-7.285-13.382-8-23c3.667,0,7.333,0,11,0c0,7.333,0,14.667,0,22l-1.833-0.5L16,795z"/>
		<path class="st22" d="M711,794c0-7.333,0-14.667,0-22c3.667,0,7.333,0,11,0c0.038,10.371-3.187,17.48-8,23l-1.167-1.5L711,794z"/>
		<path class="st22" d="M724,787c-1.629,11.371-4.866,21.134-10,29l-1.167-1.5L711,815c-2.654-15.987,8.043-18.624,11-29l0.5,1.5
			L724,787z"/>
		<path class="st22" d="M729,790c0,10,0,20,0,30c-4.355-0.645-11.305,1.305-14-1c6.228-8.106,8.873-19.793,12-31l0.5,1.5L729,790z"
			/>
		<path class="st22" d="M2,849c0.075-9.075,0.233-18.233-1-26c2.989-2.011,9.435-0.565,14-1c-4.721,8.278-7.888,18.111-11,28
			l-0.5-1.5L2,849z"/>
		<path class="st22" d="M19,827c2.354,14.688-6.203,18.464-10,27l-0.5-1.5L7,853c0.803-11.197,4.971-19.029,9-27l1.167,1.5L19,827z"
			/>
		<path class="st22" d="M714,826c5.314,7.353,7.912,17.421,10,28l-1.5-0.5L722,855c-3.596-9.404-13.487-12.513-11-28l1.833,0.5
			L714,826z"/>
		<path class="st22" d="M729,822c0,10.333,0,20.667,0,31l-1.5-0.5L727,854c-2.153-11.519-8.059-24.602-11-32
			C720.333,822,724.667,822,729,822z"/>
		<path class="st22" d="M18,843c2.325,7.009,0.34,18.327,1,27c-3.667,0-7.333,0-11,0C8.315,857.982,13.399,850.732,18,843z"/>
		<path class="st22" d="M714,847c5.084,5.249,7.891,12.776,8,23c-3.667,0-7.333,0-11,0c0-7.333,0-14.667,0-22l1.833,0.5L714,847z"/>
		<path class="st22" d="M729,872c0,3,0,6,0,9c-5.681-0.653-13.981,1.315-18-1c0-2.667,0-5.333,0-8C717,872,723,872,729,872z"/>
		<path class="st22" d="M1,873c6,0,12,0,18,0c0,2.667,0,5.333,0,8c-6,0-12,0-18,0C1,878.333,1,875.667,1,873z"/>
		<path class="st22" d="M3,897c3.023,11.978,5.7,24.3,12,33c-2.696,2.305-9.645,0.355-14,1c-0.228-12.661,0.772-20.613,0-32l1.5-0.5
			L3,897z"/>
		<path class="st22" d="M8,897c2.852,10.481,13.635,13.031,11,29l-1.833-0.5L16,927c-4.619-8.381-8.34-17.659-10-29l1.5,0.5L8,897z"
			/>
		<path class="st22" d="M16,906c-5.248-5.085-6.988-13.679-8-23c3.667,0,7.333,0,11,0c0,7.333,0,14.667,0,22l-1.833-0.5L16,906z"/>
		<path class="st22" d="M711,883c3.667,0,7.333,0,11,0c0.058,12.391-4.803,19.864-10,27C709.675,902.991,711.66,891.673,711,883z"/>
		<path class="st22" d="M724,900c-2.053,10.28-5.109,19.557-10,27l-1.167-1.5L711,926c-2.534-14.534,6.292-17.708,10-26l1.5,0.5
			L724,900z"/>
		<path class="st22" d="M729,900c0,10.333,0,20.667,0,31c-4.355-0.645-11.305,1.305-14-1c6.152-8.514,9.108-20.225,12-32l0.5,1.5
			L729,900z"/>
		<path class="st22" d="M25,965c-14.545-3.788-22.392-14.275-24-31c2.698-1.969,8.738-0.595,13-1c-1.669,16.002,6.125,22.542,13,30
			l-1.5,0.5L25,965z"/>
		<path class="st22" d="M19,937c4.416,4.917,8.711,9.955,15,13c0,4.333,0,8.667,0,13c-10.735-3.598-17.293-11.374-18-25l1.833,0.5
			L19,937z"/>
		<path class="st22" d="M20,934c3.689-2.972,9.407,0.555,14,0c0,4.667,0,9.333,0,14C28.427,944.239,24.423,938.91,20,934z"/>
		<path class="st22" d="M696,933c4.667,0,9.333,0,14,0c-3.258,6.075-8.04,10.627-13,15C694.692,944.975,696.647,937.686,696,933z"/>
		<path class="st22" d="M714,938c-0.4,13.933-7.221,21.446-18,25c0-4.333,0-8.667,0-13c6.561-2.772,10.467-8.199,15-13l1.167,1.5
			L714,938z"/>
		<path class="st22" d="M729,933c0,1.667,0,3.333,0,5c-2.812,14.188-10.342,23.658-24,27l-0.5-1.5L703,963
			c7.525-6.808,14.47-14.197,13-30C720.333,933,724.667,933,729,933z"/>
		<path class="st22" d="M3,951c3.51,4.156,7.625,7.709,11,12l-1.5,1.167L13,966c-4,0-8,0-12,0c0-4.667,0-9.333,0-14l1.5,0.5L3,951z"
			/>
		<path class="st22" d="M729,953c0,4.333,0,8.667,0,13c-4,0-8,0-12,0l0.5-1.833L716,963c3.037-3.63,6.848-6.485,10-10l1.5,0.5
			L729,953z"/>
		<path class="st22" d="M86,948c4.118-0.785,5.132,1.535,9,1c-1.874,5.416-0.488,11.205,0,17c-3,0-6,0-9,0C86,960,86,954,86,948z"/>
		<path class="st22" d="M124,948c-5.667,7.333-15.473,10.526-27,12c-2.613-3.113,1.066-6.339,0-11
			C106.865,949.531,115.067,948.4,124,948z"/>
		<path class="st22" d="M113,959c8.392-3.024,12.899-14.988,26-10l-0.5,1.5l0.5,1.5c-6.528,4.472-14.532,7.468-24,9l-0.5-1.5
			L113,959z"/>
		<path class="st22" d="M178,961c-13.087-1.58-23.489-5.844-32-12c3.356-2.311,10.983-0.351,16-1c5.696,3.637,10.189,8.478,17,11
			l-1.5,0.5L178,961z"/>
		<path class="st22" d="M167,949c8.119-3.104,17.559,1.096,27,0c0.783,4.449-1.332,6.002-1,10
			C180.51,959.489,173.95,954.051,167,949z"/>
		<path class="st22" d="M196,948c4.118-0.785,5.132,1.535,9,1c-1.874,5.416-0.488,11.205,0,17c-3,0-6,0-9,0C196,960,196,954,196,948
			z"/>
		<path class="st22" d="M234,948c-5.667,7.333-15.473,10.526-27,12c-2.613-3.113,1.066-6.339,0-11
			C216.865,949.531,225.067,948.4,234,948z"/>
		<path class="st22" d="M223,959c8.392-3.024,12.899-14.988,26-10l-0.5,1.5l0.5,1.5c-6.528,4.472-14.532,7.468-24,9l-0.5-1.5
			L223,959z"/>
		<path class="st22" d="M288,961c-13.087-1.58-23.489-5.844-32-12c3.356-2.311,10.983-0.351,16-1c5.696,3.637,10.189,8.478,17,11
			l-1.5,0.5L288,961z"/>
		<path class="st22" d="M277,949c8.119-3.104,17.559,1.096,27,0c0.783,4.449-1.332,6.002-1,10
			C290.51,959.489,283.95,954.051,277,949z"/>
		<path class="st22" d="M306,948c4.118-0.785,5.132,1.535,9,1c-1.874,5.416-0.488,11.205,0,17c-3,0-6,0-9,0C306,960,306,954,306,948
			z"/>
		<path class="st22" d="M344,948c-5.667,7.333-15.473,10.526-27,12c-2.613-3.113,1.066-6.339,0-11
			C326.865,949.531,335.067,948.4,344,948z"/>
		<path class="st22" d="M333,959c8.392-3.024,12.899-14.988,26-10l-0.5,1.5l0.5,1.5c-6.528,4.472-14.532,7.468-24,9l-0.5-1.5
			L333,959z"/>
		<path class="st22" d="M398,961c-13.087-1.58-23.489-5.844-32-12c3.356-2.311,10.983-0.351,16-1c5.696,3.637,10.189,8.478,17,11
			l-1.5,0.5L398,961z"/>
		<path class="st22" d="M387,949c8.119-3.104,17.559,1.096,27,0c0.782,4.449-1.332,6.002-1,10
			C400.511,959.489,393.949,954.051,387,949z"/>
		<path class="st22" d="M416,948c4.118-0.785,5.132,1.535,9,1c-1.874,5.416-0.488,11.205,0,17c-3,0-6,0-9,0C416,960,416,954,416,948
			z"/>
		<path class="st22" d="M454,948c-5.667,7.333-15.474,10.526-27,12c-2.613-3.113,1.065-6.339,0-11
			C436.865,949.531,445.067,948.4,454,948z"/>
		<path class="st22" d="M443,959c8.392-3.024,12.899-14.988,26-10l-0.5,1.5l0.5,1.5c-6.528,4.472-14.532,7.468-24,9l-0.5-1.5
			L443,959z"/>
		<path class="st22" d="M508,961c-13.087-1.58-23.489-5.844-32-12c3.356-2.311,10.983-0.351,16-1c5.696,3.637,10.189,8.478,17,11
			l-1.5,0.5L508,961z"/>
		<path class="st22" d="M497,949c8.119-3.104,17.559,1.096,27,0c0.782,4.449-1.332,6.002-1,10
			C510.511,959.489,503.949,954.051,497,949z"/>
		<path class="st22" d="M526,948c4.118-0.785,5.132,1.535,9,1c-1.874,5.416-0.488,11.205,0,17c-3,0-6,0-9,0C526,960,526,954,526,948
			z"/>
		<path class="st22" d="M564,948c-5.667,7.333-15.474,10.526-27,12c-2.613-3.113,1.065-6.339,0-11
			C546.865,949.531,555.067,948.4,564,948z"/>
		<path class="st22" d="M553,959c8.392-3.024,12.899-14.988,26-10l-0.5,1.5l0.5,1.5c-6.528,4.472-14.532,7.468-24,9l-0.5-1.5
			L553,959z"/>
		<path class="st22" d="M618,961c-13.087-1.58-23.489-5.844-32-12c3.356-2.311,10.983-0.351,16-1c5.696,3.637,10.189,8.478,17,11
			l-1.5,0.5L618,961z"/>
		<path class="st22" d="M607,949c8.119-3.104,17.559,1.096,27,0c0.782,4.449-1.332,6.002-1,10
			C620.511,959.489,613.949,954.051,607,949z"/>
		<path class="st22" d="M636,948c3.769-0.769,4.78,1.22,8,1c0,5.667,0,11.333,0,17c-2.667,0-5.333,0-8,0C636,960,636,954,636,948z"
			/>
		<path class="st22" d="M670,951c-5.71,4.957-13.079,8.255-24,8c0-3.333,0-6.667,0-10c7.67-0.33,14.436-1.564,23-1l-0.5,1.833
			L670,951z"/>
		<path class="st22" d="M664,958c8.083-3.584,10.983-12.35,25-10l-0.5,1.833L690,951c-7.089,4.911-15.832,8.168-26,10l0.5-1.5
			L664,958z"/>
		<path class="st22" d="M42,949c14.471-2.471,17.514,6.486,26,10l-1.5,0.5L67,961c-10.527-1.14-18.911-4.423-26-9l1.5-1.167L42,949z
			"/>
		<path class="st22" d="M63,949c7,0,14,0,21,0c0,3.667,0,7.333,0,11c-9.004-0.996-17.192-2.808-22-8l1.5-1.167L63,949z"/>
		<path class="st22" d="M175,966c-9.667,0-19.333,0-29,0c0-4.667,0-9.333,0-14c8.098,5.902,19.059,8.941,30,12l-1.5,0.5L175,966z"/>
		<path class="st22" d="M285,966c-9.667,0-19.333,0-29,0c0-4.667,0-9.333,0-14c8.098,5.902,19.059,8.941,30,12l-1.5,0.5L285,966z"/>
		<path class="st22" d="M395,966c-9.667,0-19.333,0-29,0c0-4.667,0-9.333,0-14c8.098,5.902,19.059,8.941,30,12l-1.5,0.5L395,966z"/>
		<path class="st22" d="M505,966c-9.667,0-19.333,0-29,0c0-4.667,0-9.333,0-14c8.098,5.902,19.059,8.941,30,12l-1.5,0.5L505,966z"/>
		<path class="st22" d="M615,966c-9.667,0-19.333,0-29,0c0-4.667,0-9.333,0-14c8.098,5.902,19.059,8.941,30,12l-1.5,0.5L615,966z"/>
		<path class="st22" d="M664,964c10.135-3.532,21.759-5.575,29-12c2.308,3.025,0.353,10.314,1,15c-7.755-2.245-19.602-0.398-29-1
			l0.5-1.5L664,964z"/>
		<path class="st22" d="M64,966c-9.333,0-18.667,0-28,0c0-4.333,0-8.667,0-13c9.326,4.008,18.001,8.665,29,11l-1.5,0.5L64,966z"/>
		<path class="st22" d="M116,964c9.171-3.162,18.963-5.704,26-11c4.354,0.979,0.893,9.774,2,14c-7.489-1.845-17.987-0.68-27-1
			l0.5-1.5L116,964z"/>
		<path class="st22" d="M226,964c9.171-3.162,18.963-5.704,26-11c4.354,0.979,0.893,9.774,2,14c-7.489-1.845-17.987-0.68-27-1
			l0.5-1.5L226,964z"/>
		<path class="st22" d="M336,964c9.171-3.162,18.963-5.704,26-11c4.354,0.979,0.893,9.774,2,14c-7.489-1.845-17.987-0.68-27-1
			l0.5-1.5L336,964z"/>
		<path class="st22" d="M446,964c9.171-3.162,18.963-5.704,26-11c4.354,0.979,0.893,9.774,2,14c-7.488-1.845-17.987-0.68-27-1
			l0.5-1.5L446,964z"/>
		<path class="st22" d="M556,964c9.171-3.162,18.963-5.704,26-11c4.354,0.979,0.893,9.774,2,14c-7.488-1.845-17.987-0.68-27-1
			l0.5-1.5L556,964z"/>
		<g>
			<path class="st36" d="M2,20c0.007-0.883,0.378-2.235,0.5-3.5"/>
			<path class="st1" d="M14.5,5.5C15.759,4.929,16.926,4.63,18,4"/>
			<path class="st31" d="M25.5,6.5C26.986,4.864,29.568,5.668,31,4"/>
			<path class="st16" d="M69.5,4.5c3.488-0.388,7.35,0.257,11,0"/>
			<path class="st29" d="M649.5,4.5c5.719-0.087,11.422,0.058,17,1"/>
			<path class="st44" d="M699.5,4c1.8,1.616,4.797,1.237,6.857,2.786"/>
			<path class="st17" d="M728.5,19.5c-0.458-0.595-0.81-1.796-1-3"/>
			<path class="st28" d="M712,4c1.502,0.389,2.922,1.147,4.5,1.5"/>
			<path class="st9" d="M100.5,4.5c5.716-0.07,11.406,0.187,17,1"/>
			<path class="st30" d="M172.5,5.5c5.924-0.84,11.948-1.102,18-1"/>
			<path class="st9" d="M210.5,4.5c5.716-0.07,11.406,0.187,17,1"/>
			<path class="st30" d="M282.5,5.5c5.924-0.84,11.948-1.102,18-1"/>
			<path class="st9" d="M320.5,4.5c5.716-0.07,11.406,0.187,17,1"/>
			<path class="st30" d="M392.5,5.5c5.924-0.84,11.948-1.102,18-1"/>
			<path class="st9" d="M430.5,4.5c5.716-0.07,11.406,0.187,17,1"/>
			<path class="st30" d="M502.5,5.5c5.924-0.84,11.948-1.102,18-1"/>
			<path class="st9" d="M540.5,4.5c5.716-0.07,11.406,0.187,17,1"/>
			<path class="st30" d="M612.5,5.5c5.924-0.84,11.948-1.102,18-1"/>
			<path class="st12" d="M66.5,10.5c4.297-2.196,9.265-2.495,14-3"/>
			<path class="st43" d="M688.5,19.5c0.667,0.06,1.333,0.276,2,0.5"/>
			<path class="st19" d="M649.5,7.5c4.719,0.398,9.795,0.673,14,3"/>
			<path class="st42" d="M17.5,33.5c0.04-0.667,0.184-1.333,0.333-2"/>
			<path class="st10" d="M138.5,19.167c0.667,0.242,1.333,0.537,2,0.833"/>
			<path class="st15" d="M99.5,7.5c4.83,0.319,9.518,1.15,14,3"/>
			<path class="st39" d="M150.5,19.5c0.667-0.04,1.333-0.184,2-0.333"/>
			<path class="st14" d="M176.5,10.5c4.562-1.744,9.173-2.573,14-3"/>
			<path class="st10" d="M248.5,19.167c0.667,0.242,1.333,0.537,2,0.833"/>
			<path class="st15" d="M209.5,7.5c4.83,0.319,9.518,1.15,14,3"/>
			<path class="st39" d="M260.5,19.5c0.667-0.04,1.333-0.184,2-0.333"/>
			<path class="st14" d="M286.5,10.5c4.562-1.744,9.173-2.573,14-3"/>
			<path class="st10" d="M358.5,19.167c0.667,0.242,1.333,0.537,2,0.833"/>
			<path class="st15" d="M319.5,7.5c4.83,0.319,9.518,1.15,14,3"/>
			<path class="st39" d="M370.5,19.5c0.667-0.04,1.333-0.184,2-0.333"/>
			<path class="st14" d="M396.5,10.5c4.563-1.744,9.173-2.573,14-3"/>
			<path class="st10" d="M468.5,19.167c0.667,0.242,1.333,0.537,2,0.833"/>
			<path class="st15" d="M429.5,7.5c4.829,0.319,9.518,1.15,14,3"/>
			<path class="st39" d="M480.5,19.5c0.667-0.04,1.333-0.184,2-0.333"/>
			<path class="st14" d="M506.5,10.5c4.563-1.744,9.173-2.573,14-3"/>
			<path class="st10" d="M578.5,19.167c0.667,0.242,1.333,0.537,2,0.833"/>
			<path class="st15" d="M539.5,7.5c4.829,0.319,9.518,1.15,14,3"/>
			<path class="st39" d="M590.5,19.5c0.667-0.04,1.333-0.184,2-0.333"/>
			<path class="st14" d="M616.5,10.5c4.563-1.744,9.173-2.573,14-3"/>
			<path class="st10" d="M713,33.5c-0.331-1-0.534-2-0.833-3"/>
			<path class="st39" d="M59.5,20.5c0.667-0.04,1.333-0.184,2-0.333"/>
			<path class="st23" d="M117.5,19.167c0.667,0.183,1.333,0.26,2,0.333"/>
			<path class="st41" d="M170,20c0.649-0.159,1.619-0.542,2.5-0.833"/>
			<path class="st23" d="M227.5,19.167c0.667,0.183,1.333,0.26,2,0.333"/>
			<path class="st41" d="M280,20c0.649-0.159,1.618-0.542,2.5-0.833"/>
			<path class="st23" d="M337.5,19.167c0.667,0.183,1.333,0.26,2,0.333"/>
			<path class="st41" d="M390,20c0.649-0.159,1.618-0.542,2.5-0.833"/>
			<path class="st23" d="M447.5,19.167c0.667,0.183,1.333,0.26,2,0.333"/>
			<path class="st41" d="M500,20c0.649-0.159,1.618-0.542,2.5-0.833"/>
			<path class="st23" d="M557.5,19.167c0.667,0.183,1.333,0.26,2,0.333"/>
			<path class="st41" d="M610,20c0.649-0.159,1.618-0.542,2.5-0.833"/>
			<path class="st37" d="M2.5,83.5c0.576-4.048-0.974-8.115,0-12"/>
			<path class="st2" d="M5,83.5c1.413-3.907,0.544-8.204,2.5-12"/>
			<path class="st6" d="M17.167,44.5c0.183-0.667,0.26-1.333,0.333-2"/>
			<path class="st34" d="M725,83.5c-0.211-4.425-1.104-8.767-2.5-13"/>
			<path class="st23" d="M712.833,44.5c-0.182-0.667-0.26-1.333-0.333-2"/>
			<path class="st0" d="M728.5,83.5c-0.803-4.599,0.006-9.437-1-14"/>
			<path class="st10" d="M712.833,64.5c-0.242-0.667-0.536-1.333-0.833-2"/>
			<path class="st6" d="M17.167,65.5c0.183-0.667,0.26-1.333,0.333-2"/>
			<path class="st11" d="M3.5,121.5c-0.922-5.938-1.916-11.873-1.5-18"/>
			<path class="st25" d="M18,144.5c-0.313-0.667-0.575-1.333-0.833-2"/>
			<path class="st18" d="M8.5,117.5c-1.744-4.562-2.573-9.173-3-14"/>
			<path class="st41" d="M18,124c-0.159-0.649-0.542-1.618-0.833-2.5"/>
			<path class="st25" d="M712,123.5c0.313-0.667,0.574-1.333,0.833-2"/>
			<path class="st6" d="M712.5,144.5c0.04-0.667,0.185-1.333,0.333-2"/>
			<path class="st8" d="M722.5,115.5c1.56-3.998,1.586-8.296,2.5-12.5"/>
			<path class="st4" d="M727.5,117.5c1.399-4.496-0.438-9.6,1-14"/>
			<path class="st11" d="M2,194.5c-0.401-6.129,0.555-12.055,1.5-18"/>
			<path class="st21" d="M5.5,194.5c0.461-4.798,1.199-9.448,3-14"/>
			<path class="st25" d="M17.167,155.5c0.242-0.667,0.537-1.333,0.833-2"/>
			<path class="st24" d="M725,195c-0.988-4.424-0.965-9.122-2.5-13.5"/>
			<path class="st23" d="M712.833,155.5c-0.182-0.667-0.26-1.333-0.333-2"/>
			<path class="st33" d="M728.5,194.5c-1.321-4.529,0.342-9.482-1-14"/>
			<path class="st23" d="M712.833,176.5c-0.182-0.667-0.26-1.333-0.333-2"/>
			<path class="st11" d="M3.5,233.5c-0.922-5.938-1.916-11.873-1.5-18"/>
			<path class="st25" d="M18,256.5c-0.313-0.667-0.575-1.333-0.833-2"/>
			<path class="st18" d="M8.5,229.5c-1.744-4.562-2.573-9.173-3-14"/>
			<path class="st41" d="M18,236c-0.159-0.649-0.542-1.618-0.833-2.5"/>
			<path class="st25" d="M712,235.5c0.313-0.667,0.574-1.333,0.833-2"/>
			<path class="st6" d="M712.5,256.5c0.04-0.667,0.185-1.333,0.333-2"/>
			<path class="st8" d="M722.5,227.5c1.56-3.998,1.586-8.296,2.5-12.5"/>
			<path class="st4" d="M727.5,229.5c1.399-4.496-0.438-9.6,1-14"/>
			<path class="st11" d="M2,306.5c-0.401-6.129,0.555-12.055,1.5-18"/>
			<path class="st21" d="M5.5,306.5c0.461-4.798,1.199-9.448,3-14"/>
			<path class="st25" d="M17.167,267.5c0.242-0.667,0.537-1.333,0.833-2"/>
			<path class="st24" d="M725,307c-0.987-4.424-0.965-9.122-2.5-13.5"/>
			<path class="st23" d="M712.833,267.5c-0.182-0.667-0.26-1.333-0.333-2"/>
			<path class="st33" d="M728.5,306.5c-1.321-4.529,0.342-9.482-1-14"/>
			<path class="st23" d="M712.833,288.5c-0.182-0.667-0.26-1.333-0.333-2"/>
			<path class="st11" d="M3.5,345.5c-0.922-5.938-1.916-11.873-1.5-18"/>
			<path class="st25" d="M18,368.5c-0.313-0.667-0.575-1.333-0.833-2"/>
			<path class="st18" d="M8.5,341.5c-1.744-4.562-2.573-9.173-3-14"/>
			<path class="st41" d="M18,348c-0.159-0.649-0.542-1.618-0.833-2.5"/>
			<path class="st25" d="M712,347.5c0.313-0.667,0.574-1.333,0.833-2"/>
			<path class="st6" d="M712.5,368.5c0.04-0.667,0.185-1.333,0.333-2"/>
			<path class="st8" d="M722.5,339.5c1.56-3.998,1.586-8.296,2.5-12.5"/>
			<path class="st4" d="M727.5,341.5c1.399-4.496-0.438-9.6,1-14"/>
			<path class="st11" d="M2,418.5c-0.401-6.129,0.555-12.055,1.5-18"/>
			<path class="st21" d="M5.5,418.5c0.461-4.798,1.199-9.448,3-14"/>
			<path class="st25" d="M17.167,379.5c0.242-0.667,0.537-1.333,0.833-2"/>
			<path class="st24" d="M725,419c-0.987-4.424-0.965-9.122-2.5-13.5"/>
			<path class="st23" d="M712.833,379.5c-0.182-0.667-0.26-1.333-0.333-2"/>
			<path class="st33" d="M728.5,418.5c-1.321-4.529,0.342-9.482-1-14"/>
			<path class="st23" d="M712.833,400.5c-0.182-0.667-0.26-1.333-0.333-2"/>
			<path class="st11" d="M3.5,457.5c-0.922-5.938-1.916-11.873-1.5-18"/>
			<path class="st25" d="M18,480.5c-0.313-0.667-0.575-1.333-0.833-2"/>
			<path class="st18" d="M8.5,453.5c-1.744-4.562-2.573-9.173-3-14"/>
			<path class="st41" d="M18,460c-0.159-0.649-0.542-1.618-0.833-2.5"/>
			<path class="st25" d="M712,459.5c0.313-0.667,0.574-1.333,0.833-2"/>
			<path class="st6" d="M712.5,480.5c0.04-0.667,0.185-1.333,0.333-2"/>
			<path class="st8" d="M722.5,451.5c1.56-3.998,1.586-8.296,2.5-12.5"/>
			<path class="st4" d="M727.5,453.5c1.399-4.496-0.438-9.6,1-14"/>
			<path class="st11" d="M2,530.5c-0.401-6.13,0.555-12.055,1.5-18"/>
			<path class="st21" d="M5.5,530.5c0.461-4.799,1.199-9.447,3-14"/>
			<path class="st25" d="M17.167,491.5c0.242-0.667,0.537-1.333,0.833-2"/>
			<path class="st24" d="M725,531c-0.987-4.424-0.965-9.121-2.5-13.5"/>
			<path class="st23" d="M712.833,491.5c-0.182-0.667-0.26-1.333-0.333-2"/>
			<path class="st33" d="M728.5,530.5c-1.321-4.529,0.342-9.481-1-14"/>
			<path class="st23" d="M712.833,512.5c-0.182-0.667-0.26-1.333-0.333-2"/>
			<path class="st11" d="M3.5,569.5c-0.922-5.938-1.916-11.873-1.5-18"/>
			<path class="st25" d="M18,592.5c-0.313-0.667-0.575-1.333-0.833-2"/>
			<path class="st18" d="M8.5,565.5c-1.744-4.563-2.573-9.173-3-14"/>
			<path class="st41" d="M18,572c-0.159-0.649-0.542-1.618-0.833-2.5"/>
			<path class="st25" d="M712,571.5c0.313-0.667,0.574-1.333,0.833-2"/>
			<path class="st6" d="M712.5,592.5c0.04-0.667,0.185-1.333,0.333-2"/>
			<path class="st8" d="M722.5,563.5c1.56-3.997,1.586-8.296,2.5-12.5"/>
			<path class="st4" d="M727.5,565.5c1.399-4.496-0.438-9.6,1-14"/>
			<path class="st11" d="M2,642.5c-0.401-6.13,0.555-12.055,1.5-18"/>
			<path class="st21" d="M5.5,642.5c0.461-4.799,1.199-9.447,3-14"/>
			<path class="st25" d="M17.167,603.5c0.242-0.667,0.537-1.333,0.833-2"/>
			<path class="st24" d="M725,643c-0.987-4.424-0.965-9.121-2.5-13.5"/>
			<path class="st23" d="M712.833,603.5c-0.182-0.667-0.26-1.333-0.333-2"/>
			<path class="st33" d="M728.5,642.5c-1.321-4.529,0.342-9.481-1-14"/>
			<path class="st23" d="M712.833,624.5c-0.182-0.667-0.26-1.333-0.333-2"/>
			<path class="st11" d="M3.5,681.5c-0.922-5.938-1.916-11.873-1.5-18"/>
			<path class="st25" d="M18,704.5c-0.313-0.667-0.575-1.333-0.833-2"/>
			<path class="st18" d="M8.5,677.5c-1.744-4.563-2.573-9.173-3-14"/>
			<path class="st41" d="M18,684c-0.159-0.649-0.542-1.618-0.833-2.5"/>
			<path class="st25" d="M712,683.5c0.313-0.667,0.574-1.333,0.833-2"/>
			<path class="st6" d="M712.5,704.5c0.04-0.667,0.185-1.333,0.333-2"/>
			<path class="st8" d="M722.5,675.5c1.56-3.997,1.586-8.296,2.5-12.5"/>
			<path class="st4" d="M727.5,677.5c1.399-4.496-0.438-9.6,1-14"/>
			<path class="st11" d="M2,754.5c-0.401-6.13,0.555-12.055,1.5-18"/>
			<path class="st21" d="M5.5,754.5c0.461-4.799,1.199-9.447,3-14"/>
			<path class="st25" d="M17.167,715.5c0.242-0.667,0.537-1.333,0.833-2"/>
			<path class="st24" d="M725,755c-0.987-4.424-0.965-9.121-2.5-13.5"/>
			<path class="st23" d="M712.833,715.5c-0.182-0.667-0.26-1.333-0.333-2"/>
			<path class="st33" d="M728.5,754.5c-1.321-4.529,0.342-9.481-1-14"/>
			<path class="st23" d="M712.833,736.5c-0.182-0.667-0.26-1.333-0.333-2"/>
			<path class="st11" d="M3.5,793.5c-0.922-5.938-1.916-11.873-1.5-18"/>
			<path class="st25" d="M18,816.5c-0.313-0.667-0.575-1.333-0.833-2"/>
			<path class="st18" d="M8.5,789.5c-1.744-4.563-2.573-9.173-3-14"/>
			<path class="st41" d="M18,796c-0.159-0.649-0.542-1.618-0.833-2.5"/>
			<path class="st25" d="M712,795.5c0.313-0.667,0.574-1.333,0.833-2"/>
			<path class="st6" d="M712.5,816.5c0.04-0.667,0.185-1.333,0.333-2"/>
			<path class="st8" d="M722.5,787.5c1.56-3.997,1.586-8.296,2.5-12.5"/>
			<path class="st4" d="M727.5,789.5c1.399-4.496-0.438-9.6,1-14"/>
			<path class="st11" d="M2,866.5c-0.401-6.13,0.555-12.055,1.5-18"/>
			<path class="st21" d="M5.5,866.5c0.461-4.799,1.199-9.447,3-14"/>
			<path class="st25" d="M17.167,827.5c0.242-0.667,0.537-1.333,0.833-2"/>
			<path class="st24" d="M725,867c-0.987-4.424-0.965-9.121-2.5-13.5"/>
			<path class="st23" d="M712.833,827.5c-0.182-0.667-0.26-1.333-0.333-2"/>
			<path class="st33" d="M728.5,866.5c-1.321-4.529,0.342-9.481-1-14"/>
			<path class="st23" d="M712.833,848.5c-0.182-0.667-0.26-1.333-0.333-2"/>
			<path class="st37" d="M2.5,898.5c-0.917-3.88,0.536-7.961,0-12"/>
			<path class="st23" d="M17.5,927.5c-0.04-0.667-0.184-1.333-0.333-2"/>
			<path class="st2" d="M7.5,898.5c-1.942-3.792-1.087-8.09-2.5-12"/>
			<path class="st23" d="M17.5,906.5c-0.04-0.667-0.184-1.333-0.333-2"/>
			<path class="st6" d="M712.5,927.5c0.04-0.667,0.185-1.333,0.333-2"/>
			<path class="st20" d="M722.5,900.5c0.53-4.85,2.605-9.181,2.5-14"/>
			<path class="st7" d="M727.5,899.5c1.385-4.164-0.428-8.933,1-13"/>
			<path class="st3" d="M31,965c-1.904,0.07-4.039-0.141-5.5-1.5"/>
			<path class="st6" d="M17.5,936.5c0.04,0.667,0.184,1.333,0.333,2"/>
			<path class="st25" d="M712.167,938.5c0.242-0.667,0.536-1.333,0.833-2"/>
			<path class="st27" d="M698.5,965.5c1.995-0.636,4.381-0.442,6-2"/>
			<path class="st41" d="M17,965c-1.124-0.042-2.887-0.445-4.5-0.833"/>
			<path class="st21" d="M2.5,952.5c-0.451-1.412-0.432-2.582-0.5-3.5"/>
			<path class="st38" d="M714,965c0.883-0.235,2.235-0.496,3.5-0.833"/>
			<path class="st36" d="M727.5,953.5c0.288-1.412,0.439-2.582,0.5-3.5"/>
			<path class="st10" d="M140.5,950c-0.667,0.273-1.333,0.391-2,0.5"/>
			<path class="st40" d="M100,963c4.834-1.504,9.952-1.092,14.5-3.5"/>
			<path class="st32" d="M177.5,959.5c4.028,2.043,8.719,1.741,13,3"/>
			<path class="st10" d="M250.5,950c-0.667,0.273-1.333,0.391-2,0.5"/>
			<path class="st40" d="M210,963c4.834-1.504,9.952-1.092,14.5-3.5"/>
			<path class="st32" d="M287.5,959.5c4.028,2.043,8.719,1.741,13,3"/>
			<path class="st10" d="M360.5,950c-0.667,0.273-1.333,0.391-2,0.5"/>
			<path class="st40" d="M320,963c4.834-1.504,9.952-1.092,14.5-3.5"/>
			<path class="st32" d="M397.5,959.5c4.028,2.043,8.719,1.741,13,3"/>
			<path class="st10" d="M470.5,950c-0.667,0.273-1.333,0.391-2,0.5"/>
			<path class="st40" d="M430,963c4.834-1.504,9.952-1.092,14.5-3.5"/>
			<path class="st32" d="M507.5,959.5c4.028,2.043,8.719,1.741,13,3"/>
			<path class="st10" d="M580.5,950c-0.667,0.273-1.333,0.391-2,0.5"/>
			<path class="st40" d="M540,963c4.834-1.504,9.952-1.092,14.5-3.5"/>
			<path class="st32" d="M617.5,959.5c4.028,2.043,8.719,1.741,13,3"/>
			<path class="st10" d="M668.5,949.833c0.667-0.242,1.333-0.536,2-0.833"/>
			<path class="st39" d="M688.5,949.833c0.667-0.182,1.333-0.26,2-0.333"/>
			<path class="st5" d="M664.5,959.5c-4.749,1.411-9.333,2.105-14,3"/>
			<path class="st13" d="M66.5,959.5c4.526,1.662,9.25,2.473,14,3"/>
			<path class="st39" d="M40.5,950.5c0.667,0.04,1.333,0.185,2,0.333"/>
			<path class="st39" d="M61.5,950.5c0.667,0.04,1.333,0.185,2,0.333"/>
			<path class="st26" d="M174.5,964.5c5.278,0.688,10.631,0.955,16,1"/>
			<path class="st26" d="M284.5,964.5c5.278,0.688,10.631,0.955,16,1"/>
			<path class="st26" d="M394.5,964.5c5.278,0.688,10.631,0.955,16,1"/>
			<path class="st26" d="M504.5,964.5c5.278,0.688,10.631,0.955,16,1"/>
			<path class="st26" d="M614.5,964.5c5.278,0.688,10.631,0.955,16,1"/>
			<path class="st35" d="M649.5,965.5c5.379,0.043,10.734-0.234,16-1"/>
			<path class="st29" d="M63.5,964.5c5.58,0.914,11.282,1.107,17,1"/>
			<path class="st29" d="M100.5,965.5c5.719,0.087,11.422-0.058,17-1"/>
			<path class="st29" d="M210.5,965.5c5.719,0.087,11.422-0.058,17-1"/>
			<path class="st29" d="M320.5,965.5c5.719,0.087,11.422-0.058,17-1"/>
			<path class="st29" d="M430.5,965.5c5.719,0.087,11.422-0.058,17-1"/>
			<path class="st29" d="M540.5,965.5c5.719,0.087,11.422-0.058,17-1"/>
		</g>
	</g>
</g>
</svg>
