<?xml version="1.0" encoding="utf-8"?>
<!-- Generator: Adobe Illustrator 14.0.0, SVG Export Plug-In . SVG Version: 6.00 Build 43363)  -->
<!DOCTYPE svg PUBLIC "-//W3C//DTD SVG 1.1//EN" "http://www.w3.org/Graphics/SVG/1.1/DTD/svg11.dtd">
<svg version="1.1" id="Nouveau_x5F_19_xA0_Image_1_"
	 xmlns="http://www.w3.org/2000/svg" xmlns:xlink="http://www.w3.org/1999/xlink" x="0px" y="0px" width="729px" height="969px"
	 viewBox="0 0 729 969" style="enable-background:new 0 0 729 969;" xml:space="preserve">
<style type="text/css">
<![CDATA[
	.st0{fill-rule:evenodd;clip-rule:evenodd;fill:none;stroke:#000000;stroke-width:2.689;stroke-linecap:round;}
	.st1{fill-rule:evenodd;clip-rule:evenodd;fill:none;stroke:#000000;stroke-width:1.7321;stroke-linecap:round;}
	.st2{fill-rule:evenodd;clip-rule:evenodd;fill:none;stroke:#000000;stroke-width:2.6815;stroke-linecap:round;}
	.st3{fill-rule:evenodd;clip-rule:evenodd;fill:none;stroke:#000000;stroke-width:2.8709;stroke-linecap:round;}
	.st4{fill-rule:evenodd;clip-rule:evenodd;fill:none;stroke:#000000;stroke-width:3.0844;stroke-linecap:round;}
	.st5{fill-rule:evenodd;clip-rule:evenodd;fill:none;stroke:#000000;stroke-width:2.1391;stroke-linecap:round;}
	.st6{fill-rule:evenodd;clip-rule:evenodd;fill:none;stroke:#000000;stroke-width:2.5761;stroke-linecap:round;}
	.st7{fill-rule:evenodd;clip-rule:evenodd;fill:none;stroke:#000000;stroke-width:3.3457;stroke-linecap:round;}
	.st8{fill-rule:evenodd;clip-rule:evenodd;fill:none;stroke:#000000;stroke-width:4.2131;stroke-linecap:round;}
	.st9{fill-rule:evenodd;clip-rule:evenodd;fill:none;stroke:#000000;stroke-width:2.1794;stroke-linecap:round;}
	.st10{fill-rule:evenodd;clip-rule:evenodd;fill:none;stroke:#000000;stroke-width:3.4641;stroke-linecap:round;}
	.st11{fill-rule:evenodd;clip-rule:evenodd;fill:none;stroke:#000000;stroke-width:3.084;stroke-linecap:round;}
	.st12{fill-rule:evenodd;clip-rule:evenodd;fill:none;stroke:#000000;stroke-width:2.4375;stroke-linecap:round;}
	.st13{fill-rule:evenodd;clip-rule:evenodd;fill:none;stroke:#000000;stroke-width:1.2536;stroke-linecap:round;}
	.st14{fill-rule:evenodd;clip-rule:evenodd;fill:none;stroke:#000000;stroke-width:1.8676;stroke-linecap:round;}
	.st15{fill-rule:evenodd;clip-rule:evenodd;fill:none;stroke:#000000;stroke-width:2.835;stroke-linecap:round;}
	.st16{fill-rule:evenodd;clip-rule:evenodd;fill:none;stroke:#000000;stroke-width:2.1448;stroke-linecap:round;}
	.st17{fill-rule:evenodd;clip-rule:evenodd;fill:none;stroke:#000000;stroke-width:2.8431;stroke-linecap:round;}
	.st18{fill-rule:evenodd;clip-rule:evenodd;fill:none;stroke:#000000;stroke-width:1.5811;stroke-linecap:round;}
	.st19{fill-rule:evenodd;clip-rule:evenodd;fill:none;stroke:#000000;stroke-width:2.1269;stroke-linecap:round;}
	.st20{fill-rule:evenodd;clip-rule:evenodd;fill:none;stroke:#000000;stroke-width:2.9562;stroke-linecap:round;}
	.st21{fill-rule:evenodd;clip-rule:evenodd;fill:none;stroke:#000000;stroke-width:2.5792;stroke-linecap:round;}
	.st22{fill-rule:evenodd;clip-rule:evenodd;fill:none;stroke:#000000;stroke-width:3.0811;stroke-linecap:round;}
	.st23{fill-rule:evenodd;clip-rule:evenodd;fill:none;stroke:#000000;stroke-width:1.6172;stroke-linecap:round;}
	.st24{fill-rule:evenodd;clip-rule:evenodd;fill:none;stroke:#000000;stroke-width:2.3708;stroke-linecap:round;}
	.st25{fill-rule:evenodd;clip-rule:evenodd;fill:none;stroke:#000000;stroke-width:2;stroke-linecap:round;}
	.st26{fill-rule:evenodd;clip-rule:evenodd;fill:none;stroke:#000000;stroke-width:3.5824;stroke-linecap:round;}
	.st27{fill-rule:evenodd;clip-rule:evenodd;fill:none;stroke:#000000;stroke-width:2.1282;stroke-linecap:round;}
	.st28{fill-rule:evenodd;clip-rule:evenodd;fill:none;stroke:#000000;stroke-width:2.3238;stroke-linecap:round;}
	.st29{fill-rule:evenodd;clip-rule:evenodd;fill:none;stroke:#000000;stroke-width:2.9575;stroke-linecap:round;}
	.st30{fill-rule:evenodd;clip-rule:evenodd;fill:none;stroke:#000000;stroke-width:3.0059;stroke-linecap:round;}
	.st31{fill-rule:evenodd;clip-rule:evenodd;fill:none;stroke:#000000;stroke-width:1.4832;stroke-linecap:round;}
	.st32{fill-rule:evenodd;clip-rule:evenodd;fill:none;stroke:#000000;stroke-width:2.708;stroke-linecap:round;}
	.st33{fill-rule:evenodd;clip-rule:evenodd;fill:none;stroke:#000000;stroke-width:2.1985;stroke-linecap:round;}
	.st34{fill-rule:evenodd;clip-rule:evenodd;fill:none;stroke:#000000;stroke-width:4.0455;stroke-linecap:round;}
	.st35{fill-rule:evenodd;clip-rule:evenodd;fill:none;stroke:#000000;stroke-width:2.4875;stroke-linecap:round;}
	.st36{fill-rule:evenodd;clip-rule:evenodd;fill:none;stroke:#000000;stroke-width:2.1213;stroke-linecap:round;}
	.st37{fill-rule:evenodd;clip-rule:evenodd;fill:none;stroke:#000000;stroke-width:3.0551;stroke-linecap:round;}
	.st38{fill-rule:evenodd;clip-rule:evenodd;fill:none;stroke:#000000;stroke-width:3.6515;stroke-linecap:round;}
	.st39{fill-rule:evenodd;clip-rule:evenodd;fill:none;stroke:#000000;stroke-width:1.4142;stroke-linecap:round;}
	.st40{fill-rule:evenodd;clip-rule:evenodd;fill:none;stroke:#000000;stroke-width:3.6588;stroke-linecap:round;}
	.st41{fill-rule:evenodd;clip-rule:evenodd;fill:none;stroke:#000000;stroke-width:1.9272;stroke-linecap:round;}
	.st42{fill:#000000;fill-rule:evenodd;clip-rule:evenodd;}
	.st43{fill-rule:evenodd;clip-rule:evenodd;fill:none;stroke:#000000;stroke-width:2.9288;stroke-linecap:round;}
	.st44{fill-rule:evenodd;clip-rule:evenodd;fill:none;stroke:#000000;stroke-width:1.8127;stroke-linecap:round;}
	.st45{fill-rule:evenodd;clip-rule:evenodd;fill:none;stroke:#000000;stroke-width:2.1034;stroke-linecap:round;}
	.st46{fill-rule:evenodd;clip-rule:evenodd;fill:none;stroke:#000000;stroke-width:1.8427;stroke-linecap:round;}
	.st47{fill-rule:evenodd;clip-rule:evenodd;fill:none;stroke:#000000;stroke-width:1.5958;stroke-linecap:round;}
	.st48{fill-rule:evenodd;clip-rule:evenodd;fill:none;stroke:#000000;stroke-width:2.1602;stroke-linecap:round;}
	.st49{fill-rule:evenodd;clip-rule:evenodd;fill:none;stroke:#000000;stroke-width:2.0271;stroke-linecap:round;}
	.st50{fill-rule:evenodd;clip-rule:evenodd;fill:none;stroke:#000000;stroke-width:2.6629;stroke-linecap:round;}
	.st51{fill-rule:evenodd;clip-rule:evenodd;fill:none;stroke:#000000;stroke-width:3.0823;stroke-linecap:round;}
	.st52{fill-rule:evenodd;clip-rule:evenodd;fill:none;stroke:#000000;stroke-width:2.1764;stroke-linecap:round;}
	.st53{fill-rule:evenodd;clip-rule:evenodd;fill:none;stroke:#000000;stroke-width:2.8062;stroke-linecap:round;}
	.st54{fill-rule:evenodd;clip-rule:evenodd;fill:none;stroke:#000000;stroke-width:3.0873;stroke-linecap:round;}
	.st55{fill-rule:evenodd;clip-rule:evenodd;fill:none;stroke:#000000;stroke-width:3.0738;stroke-linecap:round;}
	.st56{fill-rule:evenodd;clip-rule:evenodd;fill:none;stroke:#000000;stroke-width:3.6878;stroke-linecap:round;}
	.st57{fill-rule:evenodd;clip-rule:evenodd;fill:none;stroke:#000000;stroke-width:1.2247;stroke-linecap:round;}
	.st58{fill-rule:evenodd;clip-rule:evenodd;fill:none;stroke:#000000;stroke-width:1.8323;stroke-linecap:round;}
	.st59{fill-rule:evenodd;clip-rule:evenodd;fill:none;stroke:#000000;stroke-width:2.8048;stroke-linecap:round;}
	.st60{fill-rule:evenodd;clip-rule:evenodd;fill:none;stroke:#000000;stroke-width:1.291;stroke-linecap:round;}
	.st61{fill-rule:evenodd;clip-rule:evenodd;fill:none;stroke:#000000;stroke-width:2.9326;stroke-linecap:round;}
	.st62{fill-rule:evenodd;clip-rule:evenodd;fill:none;stroke:#000000;stroke-width:3.6635;stroke-linecap:round;}
	.st63{fill-rule:evenodd;clip-rule:evenodd;fill:none;stroke:#000000;stroke-width:2.0458;stroke-linecap:round;}
	.st64{fill-rule:evenodd;clip-rule:evenodd;fill:none;stroke:#000000;stroke-width:2.2093;stroke-linecap:round;}
	.st65{fill-rule:evenodd;clip-rule:evenodd;fill:none;stroke:#000000;stroke-width:3.2233;stroke-linecap:round;}
	.st66{fill-rule:evenodd;clip-rule:evenodd;fill:none;stroke:#000000;stroke-width:2.2361;stroke-linecap:round;}
	.st67{fill-rule:evenodd;clip-rule:evenodd;fill:none;stroke:#000000;stroke-width:1.797;stroke-linecap:round;}
	.st68{fill-rule:evenodd;clip-rule:evenodd;fill:none;stroke:#000000;stroke-width:3.6218;stroke-linecap:round;}
	.st69{fill-rule:evenodd;clip-rule:evenodd;fill:none;stroke:#000000;stroke-width:2.6046;stroke-linecap:round;}
	.st70{fill-rule:evenodd;clip-rule:evenodd;fill:none;stroke:#000000;stroke-width:1.7246;stroke-linecap:round;}
	.st71{fill-rule:evenodd;clip-rule:evenodd;fill:none;stroke:#000000;stroke-width:2.7988;stroke-linecap:round;}
	.st72{fill-rule:evenodd;clip-rule:evenodd;fill:none;stroke:#000000;stroke-width:3.5393;stroke-linecap:round;}
	.st73{fill-rule:evenodd;clip-rule:evenodd;fill:none;stroke:#000000;stroke-width:3.0822;stroke-linecap:round;}
	.st74{fill-rule:evenodd;clip-rule:evenodd;fill:none;stroke:#000000;stroke-width:1.6733;stroke-linecap:round;}
	.st75{fill-rule:evenodd;clip-rule:evenodd;fill:none;stroke:#000000;stroke-width:3.0863;stroke-linecap:round;}
	.st76{fill-rule:evenodd;clip-rule:evenodd;fill:none;stroke:#000000;stroke-width:1.9149;stroke-linecap:round;}
	.st77{fill-rule:evenodd;clip-rule:evenodd;fill:none;stroke:#000000;stroke-width:3.085;stroke-linecap:round;}
	.st78{fill-rule:evenodd;clip-rule:evenodd;fill:none;stroke:#000000;stroke-width:2.6458;stroke-linecap:round;}
	.st79{fill-rule:evenodd;clip-rule:evenodd;fill:none;stroke:#000000;stroke-width:3.3403;stroke-linecap:round;}
	.st80{fill-rule:evenodd;clip-rule:evenodd;fill:none;stroke:#000000;stroke-width:2.7871;stroke-linecap:round;}
	.st81{fill-rule:evenodd;clip-rule:evenodd;fill:none;stroke:#000000;stroke-width:3.6286;stroke-linecap:round;}
	.st82{fill-rule:evenodd;clip-rule:evenodd;fill:none;stroke:#000000;stroke-width:2.6799;stroke-linecap:round;}
	.st83{fill-rule:evenodd;clip-rule:evenodd;fill:none;stroke:#000000;stroke-width:2.8723;stroke-linecap:round;}
	.st84{fill-rule:evenodd;clip-rule:evenodd;fill:none;stroke:#000000;stroke-width:3.0984;stroke-linecap:round;}
	.st85{fill-rule:evenodd;clip-rule:evenodd;fill:none;stroke:#000000;stroke-width:2.9483;stroke-linecap:round;}
]]>
</style>
<g>
	<g>
		<path class="st42" d="M34,16c-2.319,0.319-3.839-0.161-5-1c-0.163-1.163,0.221-1.779,1-2c0.606-0.576,4.743-2.34,5,0l-1.5,1.167
			L34,16z"/>
		<path class="st42" d="M14,57c-2.544,0.122-3.878,1.456-4,4c-4.61-7.308,3.951-17.783,9-22l1.5,0.5L22,40c0,1,0,2,0,3l-3.3,1.3
			L21,47c0,0.667,0,1.333,0,2l-1.5-0.5L20,50c-0.352,3.315-2.995,4.338-5,6l-1.5-0.5L14,57z"/>
		<path class="st42" d="M25.5,39.5L25,38c4.589-0.237,9.378,7.941,11,14c-2.803-3.53-11.585-1.082-13-6l-0.5-1.5L22,43
			c1.85-0.15,0.614-3.386,2-4L25.5,39.5z"/>
		<path class="st42" d="M19.5,55.5L21,55c2.915,3.085,8.059,3.941,10,8l-1.5,0.5L30,65c-7.724,0.925-16.316-5.219-11-11L19.5,55.5z"
			/>
		<path class="st42" d="M21,75v1c-2.86-0.14-1.829-4.171-2-7c3.007-0.595,5.673,4.221,3,6H21z"/>
		<path class="st42" d="M713,65c-0.333,0-0.667,0-1,0l0.5-1.833L711,62c1.617-1.383,1.243-4.757,5-4c0,2,0,4,0,6l-1.833-0.5L713,65z
			"/>
		<path class="st42" d="M16,30c1,0,2,0,3,0l1.643,0.786L21,29c2.182-0.182,3.182,0.818,3,3c-6.635,1.699-8.743,7.923-16,9
			c-1.545-3.578,2.905-9.737,6-12l1,0.5L16,30z"/>
		<path class="st42" d="M715,30c4.724,1.276,5.138,6.862,7,11c-8.353-0.313-10.152-7.182-17-9c-0.182-2.182,0.818-3.182,3-3
			l0.357,1.786L710,30c1.419,0.086,2.832,0.165,3-1l1,0.5L715,30z"/>
		<path class="st42" d="M40,27c7.446-0.779,8.477,4.856,11,9c-7.237,0.237-8.868-5.132-15-6c0.733-0.934,1.818-1.515,3-2l1.5,0.5
			L40,27z"/>
		<path class="st42" d="M708,69c2.906,0.019,2.364,5.651,1,7c-0.805-0.529-1.623-1.043-3-1C705.208,71.542,707.111,70.778,708,69z"
			/>
		<path class="st42" d="M15,109c3.369-1.631,4.268-5.732,9-6l1.167,1.5L27,104c-1.566,8.434-7.965,12.035-18,12
			c0.352-3.315,2.995-4.338,5-6l1.5,0.5L15,109z"/>
		<path class="st42" d="M15.167,86.5L14,88c-1.96-1.704-1.647-9.59,2-9c1.546,1.454,0.881,5.119,1,8L15.167,86.5z"/>
		<path class="st42" d="M19,86c1.479,0.521,2.521,1.479,4,2c-0.609,2.391,1.255,7.255-1,8C17.109,96.557,19.612,89.722,19,86z"/>
		<path class="st42" d="M37,95c-3.418,0.418-5.698-0.302-5-4C34.005,89.113,36.648,92.228,37,95z"/>
		<path class="st42" d="M692,95c0.352-2.772,2.995-5.887,5-4C697.698,94.698,695.418,95.418,692,95z"/>
		<path class="st42" d="M39,95c1.008,3.008-2.228,1.772-4,2C35.658,95.658,37.138,95.138,39,95z"/>
		<path class="st42" d="M703,102c7.502,2.832,13.016,7.651,17,14c-7.787,1.303-16.053-3.365-18-11l1.357-1.214L703,102z"/>
		<path class="st42" d="M38,98c8.262,2.995,7.333,15.82,1,20C35.005,112.388,35.343,104.472,38,98z"/>
		<path class="st42" d="M689,98c5.977,4.354,4.423,14.119,1,20C683.508,113.599,683.811,103.478,689,98z"/>
		<path class="st42" d="M37,950c-2.997,0.072-5.074-2.941-3-5c5.365-0.468,7.296-6.721,11-1l-1.5,1.167L44,947c-1.333,0-2.667,0-4,0
			c0,0.667,0,1.333,0,2l-1.833-0.5L37,950z"/>
		<path class="st42" d="M685.5,945.167L684,944c3.73-5.902,6.949,1.003,12,2c-0.229,3.438-2.976,4.357-6,5l0.357-1.786L689,948
			c0-0.333,0-0.667,0-1c-1.333,0-2.667,0-4,0L685.5,945.167z"/>
		<path class="st42" d="M704.5,946.167L703,945c0.595-2.071-1.236-6.569,1-7l1.167,1.5L707,939c-0.076,5.294,4.444,8.711-3,9
			L704.5,946.167z"/>
		<path class="st42" d="M712.833,920.5L714,919c3.444-0.512,4.442,6.527,1,7c-4.827,1.493-4.174-2.493-4-6L712.833,920.5z"/>
		<path class="st42" d="M713.833,955.5L715,954c2.889,0.444-0.889,7.556,2,8c-1.209,2.09-13.063-0.375-18-1l-0.5-1l-0.5-1
			c3.296-2.704,13.403,1.403,14-4L713.833,955.5z"/>
		<path class="st42" d="M30.5,960l0.5,1c-4.969,2.03-13.685,0.314-19,2c2.61-2.057-0.705-10.038,2-12l1.167,1.5L17,952
			c0,1.667,0,3.333,0,5c2.344,2.656,10.739-0.739,13,2L30.5,960z"/>
		<path class="st42" d="M15.5,924.5L15,926c-4.486,0.017-3.611-7.726,0-8l1.167,1.5L18,919c-0.729,2.271,1.802,7.802-2,7L15.5,924.5
			z"/>
		<path class="st42" d="M23.833,939.5L25,938c2.355,1.312-0.437,7.771,3,8l-1.5,1.167L27,949c-4.351,0.684-5.535-1.799-7-4
			c0.888-1.778,2.792-2.542,2-6L23.833,939.5z"/>
		<path class="st42" d="M700,28c3.338-1.004,3.279,1.388,3,4c-0.933,0.611-3.688,2.327-3-1l-0.5-1.5L700,28z"/>
		<path class="st42" d="M697.5,31.5L699,32c1.193,4.317-2.887,5.995-5,4l0.5-1.5L693,34c-0.698-3.698,1.582-4.418,5-4L697.5,31.5z"
			/>
		<path class="st42" d="M689.167,44.5L691,44c-0.35,8.65-4.608,13.392-11,16c0.064-8.27,3.423-13.244,8-17L689.167,44.5z"/>
		<path class="st42" d="M691.214,36.643L690,38c-0.333,0-0.667,0-1,0l-0.5-1.833L687,35c1.429-3.73,3.211-2.581,5,0L691.214,36.643z
			"/>
		<path class="st42" d="M697.5,23.5L698,25c-0.333,0-0.667,0-1,0l-1.214-1.357L694,24c3.925-6.409,8.23-12.437,16-15
			c2.565,7.249-5.951,12.036-11,15L697.5,23.5z"/>
		<path class="st42" d="M714.5,9.5L714,11c-1.23-0.437-2.054-1.28-2-3l1.5-1.167L713,5c1.162,0.163,1.779-0.221,2-1
			c2.209,0.125,0.425,4.242,1,6L714.5,9.5z"/>
		<path class="st42" d="M19.5,6.167L20,8c-1,0-2,0-3,0l-2,0.25L16,10c0.184,0.851-0.39,0.943-1,1v-1h-1c-1.486-0.847-1.447-3.22-2-5
			c1.265-1.147,7.885-2.009,9,0L19.5,6.167z"/>
		<path class="st42" d="M19.5,11.5L19,10c10.192,1.809,13.83,10.17,18,18c-4.097-1.57-7.522-3.812-11-6l0.5-1.5L25,21
			c-3.469-2.197-6.014-5.319-7-10L19.5,11.5z"/>
		<path class="st42" d="M31.5,31.5L32,30c3.762-1.35,5.279,4.615,3,6c-3.257,3.336-7.68-2.399-5-5L31.5,31.5z"/>
		<path class="st42" d="M720,54c1.043,2.833,1.043,4.167,0,7c-3.519-4.815-10.919-5.748-12-13l0.5-1.5L707,47c0-2,0-4,0-6l0.5-1.5
			L706,40c-0.86-0.807-0.594-2.739-2-3c0.649-1.017,2.3-1.034,2-3c3.044-0.044,3.889,2.111,6,3c-1.397,5.719,6.484,9.045,7,16
			l-0.5,1.5L720,54z"/>
		<path class="st42" d="M709,55v-1c7.159,4.342-1.952,12.521-10,11l0.5-1.5L698,63c1.941-4.059,7.085-4.915,10-8H709z"/>
		<path class="st42" d="M704.5,41.5L706,41c0,2,0,4,0,6c-2.201,3.465-10.034,1.299-12,5c-2.018-5.043,4.629-10.019,7-14l1.5,0.5
			L703,37c0.934,0.733,1.515,1.818,2,3L704.5,41.5z"/>
		<path class="st42" d="M37,36c-1.236-3.236,3.236-0.764,2-4c4.301,4.699,12.84,5.16,14,13l-1.3,1.3L51,48
			c-2.632-1.035-3.368-3.965-6-5l-1-1.75L43,43c-1.875-1.125-2.125-3.875-4-5v-2H37z"/>
		<path class="st42" d="M39.833,44.5L41,43c4.245,4.089,8.141,8.526,8,17c-6.478-2.522-10.769-7.231-11-16L39.833,44.5z"/>
		<path class="st42" d="M62,102c-9.802,2.671-16.311-6.259-23-10l0.5-1.5L38,91c-4.299,0.473-1.28-2.691-3-3
			c0.31-1.357,2.504-0.83,4-1l1.5,0.5L40,86c2.611-0.389,5.487-0.514,7-2c-3.469-0.802-3.844,1.489-7,1l0.5-1.5L39,83
			c3.031-4.473,9.386-10.382,16-8l-0.5,1.5L56,77c-1.275,2.059-1.595,5.072-5,5c2.787,1.547,7.308,1.359,8,5l-1.5,0.5L58,89
			c-2.444,0.89-4.336,2.331-8,2c5.311,1.689,10.501,3.499,13,8l-1.5,1.167L62,102z"/>
		<path class="st42" d="M690,92c-6.869,3.561-13.45,12.418-23,10l0.5-1.833L666,99c2.432-4.901,8.031-6.636,14-8
			c-2.756,0.467-7.663-2.101-13-2c3.019-3.005,7.144-7.882,13-5l-0.5,1.5L681,85c3.769-0.769,4.78,1.22,8,1l-0.5,1.5L690,87
			c5.34-1.069-0.129,2.483,4,2c-0.437,1.23-1.279,2.054-3,2l-1.5-0.5L690,92z"/>
		<path class="st42" d="M681.5,82.5L680,83c-3.572-0.428-5.488-2.512-7-5l1.5-1.167L674,75c6.614-2.382,12.97,3.527,16,8l-1.5,0.5
			L689,85c-3.22,0.22-4.231-1.769-8-1L681.5,82.5z"/>
		<g>
			<path class="st4" d="M33.5,14.167c6.276,0.735,12.676,0.142,19,0.333"/>
			<path class="st1" d="M9,49c0.925-5.179,6.098-9.581,10.5-11.5"/>
			<path class="st13" d="M19.5,37.5c0.357-0.643,0.78-1.22,1-2"/>
			<path class="st57" d="M19.5,37.5c0.12,0.667,0.552,1.333,1,2"/>
			<path class="st25" d="M20.5,39.5c0.762-0.479,1.219-0.858,1.661-1.231c0.852-0.162,2.091,0.378,3.339,1.231"/>
			<path class="st58" d="M19.5,48.5c1.07,0.665,1.726,0.994,2.293,1.526c0.26,0.9,0.302,1.849,0.005,2.624
				C21.11,52.778,20.69,53.948,19.5,55.5"/>
			<path class="st28" d="M29.5,63.5c1.844,1.087,3.938,1.587,6,2"/>
			<path class="st82" d="M15.167,63c5.046,3.746,11.28,4.958,17.333,5.5"/>
			<path class="st20" d="M15.167,63c-0.979,3.164-0.32,6.63-2.113,9.674c1.657,2.044,3.879,3.665,5.78,5.493"/>
			<path class="st31" d="M18.833,78.167c1.245-0.603,2.585-0.557,3.667-0.667"/>
			<path class="st60" d="M22.5,77.5c-0.671-1.029-0.992-1.771-1.5-2.5"/>
			<path class="st30" d="M22.5,77.5c11.528-1.702,20.292-10.996,30-17"/>
			<path class="st29" d="M52.5,60.5c15.083-10.354,10.714-30.517,7-44"/>
			<path class="st44" d="M52.5,60.5c1.184,1.253,1.454,2.872,1.5,4.5"/>
			<path class="st2" d="M18.833,78.167c1.881,4.211,5.297,7.658,9.667,9.333"/>
			<path class="st6" d="M15.167,63c-1.583-2.354,0.935-5.483-1.667-7.5"/>
			<path class="st10" d="M18.7,44.3c1.438,0.139,2.563,0.146,3.8,0.2"/>
			<path class="st59" d="M696,68c5.979,0.218,11.957-0.589,16.5-4.833"/>
			<path class="st21" d="M710.167,78.167c-2.211,4.118-5.313,7.432-9.667,9.333"/>
			<path class="st32" d="M676.75,61.25c-0.596,0.983-1.004,1.816-1.75,3.25"/>
			<path class="st3" d="M676.75,61.25c-11.594-9.324-14.363-25.562-7.75-38.5"/>
			<path class="st56" d="M669,22.75c-0.658-1.659-1.184-2.876-1.373-3.719c0.212-0.725,1.15-1.708,1.873-2.531"/>
			<path class="st69" d="M669,22.75c0.894-0.72,2.254-1.386,3.41-1.611c6.274,4.452,1.78,11.691-1.91,16.361"/>
			<path class="st80" d="M676.75,61.25c10.838,6.375,20.365,16.259,33.417,16.917"/>
			<path class="st17" d="M710.167,78.167c1.698-1.624,3.609-3.078,5.155-4.824c-0.799-3.167-0.792-6.535-1.155-9.843"/>
			<path class="st75" d="M676.5,14.5c6.664,0.014,13.351-0.019,20,0"/>
			<path class="st5" d="M65.5,14.5c199.231-0.831,398.774-0.835,598,0"/>
			<path class="st36" d="M20.643,30.786c-0.451-1.2-0.491-2.218-0.643-3.286"/>
			<path class="st79" d="M14,18.5c1.581,3.532,0.348,7.355,1,11"/>
			<path class="st36" d="M708.357,30.786c0.45-1.2,0.49-2.218,0.643-3.286"/>
			<path class="st72" d="M715.214,18.357c-2.588,3.316-0.152,7.503-1.214,11.143"/>
			<path class="st27" d="M40.5,28.5c-0.919-1.413-1.263-2.218-1.403-2.931C41.922,19.872,48.541,20.876,53,18"/>
			<path class="st53" d="M57.833,36.167c-2.412-2.953-4.539-6.357-4.792-10.27C53.58,24.774,54.884,23.846,55,22.5"/>
			<path class="st71" d="M25.167,104.5c1.337-2.173,4.9-2.013,5.833-4.5"/>
			<path class="st33" d="M10.5,109.5c0.78-0.354,1.289-0.939,3-2"/>
			<path class="st81" d="M13.5,107.5c0.884-1.833,1.76-3.811,3.5-5"/>
			<path class="st15" d="M17,102.5c-3.648-4.544-0.196-10.729-1.833-16"/>
			<path class="st62" d="M17,102.5c4.131-3.217,10.593-3.412,12.5-9"/>
			<path class="st60" d="M13.5,107.5c0.643,1,1.22,2,2,3"/>
			<path class="st77" d="M713.5,96.5c0-4.667,0-9.333,0-14"/>
			<path class="st73" d="M707.5,92.5c0-1,0-2,0-3"/>
			<path class="st40" d="M718,109.5c-4.105-7.602-13.81-9.058-18-15.5"/>
			<path class="st53" d="M698,100c0.696,2.191,3.691,2.475,5.357,3.786"/>
			<path class="st65" d="M43.5,945.167c23.745,10.637,59.344,5.821,91.566,5.887c143.955,0.294,309.748-0.296,455,0
				c25.087,0.052,74.744,4.193,95.434-5.887"/>
			<path class="st37" d="M690.357,949.214c-0.908,0.542-1.826,1.129-2.715,1.572"/>
			<path class="st9" d="M40.5,956.5c1.429,0.348,2.05,0.671,2.667,1.333"/>
			<path class="st54" d="M43.167,957.833c0.574,0.5,7.703,2.414,11.394,2.587c47.514,2.224,100.444,0.079,154.939,0.08
				c100.09,0.002,207.928-0.002,309,0c54.691,0.001,108.795,2.205,155.323-0.441c9.191-0.522,17.332-2.331,26.723-12.241
				c1.421-0.522,2.753-1.236,3.954-1.65"/>
			<path class="st55" d="M709.5,910.5c-3.587-66.457-2-139.014-2-210c0-191.14,0-394.547,0-583"/>
			<path class="st37" d="M709.5,910.5c1.371,3.282,1.831,6.768,3.333,10"/>
			<path class="st43" d="M709.5,910.5c-4.854,3.335-6.956,9.678-10.585,14.428c0.063,0.242,0.448,1.227,0.787,2.064
				c3.069,1.613,7.113-0.993,9.798,1.508"/>
			<path class="st68" d="M709.5,928.5c1.562-0.09,2.834,0.836,3.987,1.744c1.806,8.331-1.513,16.938,0.346,25.256"/>
			<path class="st19" d="M688.5,960c3.333,0,6.667,0,10,0"/>
			<path class="st12" d="M709.5,928.5c-1.619,3.577-3.7,6.997-4.333,11"/>
			<path class="st63" d="M43.167,957.833c-0.431,0.835-0.74,1.475-1.195,1.973c-3.794,0.426-7.653,0.084-11.472,0.194"/>
			<path class="st31" d="M16.833,929.167c-1.13-1.304-1.242-3.379-1.333-4.667"/>
			<path class="st7" d="M19.5,910.5c4.847-70.078-0.142-146.021,1.554-218.565c2.798-119.71-2.743-242.656,0-360
				c1.69-72.309-0.669-143.263,0.446-214.435"/>
			<path class="st35" d="M19.357,928.214c1.826,3.586,3.517,7.341,4.477,11.286"/>
			<path class="st0" d="M26.5,947.167c4.958,2.769,8.017,8.244,14,9.333"/>
			<path class="st83" d="M40.5,956.5c1.22-1.468,2.581-4.006,0.731-5.544c-1.196-0.263-2.32-1.32-3.064-2.456"/>
			<path class="st38" d="M16.833,929.167c0.221-0.106,1.363-0.542,2.523-0.953"/>
			<path class="st37" d="M19.357,928.214c2.429-1.994,5.641-0.587,8.393-0.25c1.297-0.607,2.175-2.672,2.327-2.893
				C26.286,920.35,24.42,913.946,19.5,910.5"/>
			<path class="st85" d="M19.5,910.5c-1.208,2.99-1.699,6.19-3.333,9"/>
			<path class="st34" d="M16.833,929.167c-0.571,0.501-0.944,0.784-1.307,1.057c-1.599,7.272,0.335,15.25-0.36,22.276"/>
			<path class="st11" d="M16.167,902.833C14.608,642.472,15.946,381.209,15.5,120.5"/>
			<path class="st22" d="M712,902.5c0.107-0.107,0.215-0.216,0.321-0.324c1.562-1.727,1.364-3.759,1.257-5.746
				c-3.447-63.598-0.078-129.022-0.078-193.93c0-192.18,0-389.708,0-582"/>
			<path class="st50" d="M689.167,44.5c1.511-2.308,2.135-5.142,2.047-7.857"/>
			<path class="st70" d="M688.5,36.167c-0.709,7.22-10.134,10.562-10.5,18.333"/>
			<path class="st26" d="M674,51.5c3.298-6.041,7.244-13.269,14.5-15.333"/>
			<path class="st1" d="M691.214,36.643c0.69-0.546,2.051-1.172,3.286-2.143"/>
			<path class="st66" d="M697.5,31.5c0.667-0.667,1.333-1.333,2-2"/>
			<path class="st16" d="M699.5,29.5c-0.637-1.756-0.535-2.597-0.5-3.5"/>
			<path class="st60" d="M699,26c-0.292-0.649-0.838-1.618-1.5-2.5"/>
			<path class="st8" d="M688.25,29c-3.368-0.396-4.113,3.535-6.75,4.5"/>
			<path class="st45" d="M676,18c4.181,3.428,11.641,1.626,13.646,7.897c-0.114,1.053-0.921,2.24-1.396,3.103"/>
			<path class="st52" d="M688.25,29c1.221,0.65,2.795,1.372,3.985,0.222c0.224-2.365,2.266-3.825,3.551-5.579"/>
			<path class="st64" d="M699,26c8.233-1.663,13.455-9.429,15.5-16.5"/>
			<path class="st39" d="M15,8.25c1.551,1.237,3.642,1.158,4.5,3.25"/>
			<path class="st23" d="M24.5,23.5c1.768,0.5,3.061,1.727,4.722,2.292c0.269,0.486,0.502,0.88,0.734,1.269
				c0.024,0.393,0.009,0.844-0.008,1.297c-0.038,0.159-0.076,0.317-0.114,0.475"/>
			<path class="st18" d="M29.833,28.833c0.409,0.766,0.965,1.746,1.667,2.667"/>
			<path class="st49" d="M29.833,28.833c-0.595,0.042-1.429,0.39-2.033,0.871c-0.282,1.729-1.017,3.367-1.3,4.796"/>
			<path class="st24" d="M24.5,23.5c-5.378-1.921-8.397-9.129-9.5-13.5"/>
			<path class="st51" d="M19.5,6.167c231.262,1,462.75-0.333,694,0.667"/>
			<path class="st60" d="M24.5,23.5c0.643-1,1.22-2,2-3"/>
			<path class="st25" d="M693.5,65.5c2.248-0.189,3.889-1.355,6-2"/>
			<path class="st47" d="M709,55c-1.87-2.338-4.024-6.091-0.5-8.5"/>
			<path class="st60" d="M707.5,39.5c-1,0.643-2,1.22-3,2"/>
			<path class="st74" d="M702.5,38.5c-0.908-1.405-1.24-2.204-1.5-3"/>
			<path class="st14" d="M714.5,40.5c3.178,3.43,8.963,9.527,4,14"/>
			<path class="st84" d="M53.5,49.5c-0.499-1.435-1.182-2.447-1.8-3.2"/>
			<path class="st41" d="M44,41.25c0.343,4.916,6.616,7.029,6.5,12.25"/>
			<path class="st61" d="M39.833,44.5C38.489,41.984,36.225,38.41,39,36"/>
			<path class="st67" d="M58.5,105c-7.604-1.012-18.5-6.765-19-14.5"/>
			<path class="st1" d="M40.5,87.5c-0.723-1.025-1.029-1.839-1.408-2.632c0.224-0.464,0.808-0.916,1.408-1.368"/>
			<path class="st76" d="M54.5,76.5c0.851-0.321,1.382-0.61,2-1"/>
			<path class="st48" d="M57.5,87.5c0.667,0.273,1.333,0.391,2,0.5"/>
			<path class="st61" d="M64.5,101c-1-0.331-2-0.534-3-0.833"/>
			<path class="st61" d="M664.5,101c1-0.331,2-0.534,3-0.833"/>
			<path class="st60" d="M679.5,85.5c0.643-1,1.22-2,2-3"/>
			<path class="st78" d="M674.5,76.833c-0.667-0.302-1.333-0.813-2-1.333"/>
			<path class="st46" d="M670.5,105c7.188-1.662,19.099-6.476,19-14.5"/>
			<path class="st1" d="M688.5,87.5c0.724-1.025,1.028-1.839,1.407-2.632c-0.224-0.464-0.807-0.916-1.407-1.368"/>
		</g>
	</g>
</g>
</svg>
