<?xml version="1.0" encoding="utf-8"?>
<!-- Generator: Adobe Illustrator 14.0.0, SVG Export Plug-In . SVG Version: 6.00 Build 43363)  -->
<!DOCTYPE svg PUBLIC "-//W3C//DTD SVG 1.1//EN" "http://www.w3.org/Graphics/SVG/1.1/DTD/svg11.dtd">
<svg version="1.1" id="Layer_1" xmlns="http://www.w3.org/2000/svg" xmlns:xlink="http://www.w3.org/1999/xlink" x="0px" y="0px"
	 width="2148px" height="2808px" viewBox="56.5 56.5 2148 2808" style="enable-background:new 56.5 56.5 2148 2808;"
	 xml:space="preserve">
<style type="text/css">
<![CDATA[
	.st0{fill:none;stroke:#464646;stroke-width:7;stroke-linecap:square;}
]]>
</style>
<title>ramen-portrait</title>
<g id="ramen-portrait">
	<polygon id="Rectangle" class="st0" points="60,60 2201,60 2201,2861 60,2861 	"/>
	<line id="Line" class="st0" x1="60.5" y1="160.5" x2="2200.5" y2="160.5"/>
	<g id="Group" transform="translate(60.500000, 260.000000)">
		<line id="Line-Copy-3" class="st0" x1="0" y1="500.5" x2="100" y2="500.5"/>
		<line id="Line-Copy-2" class="st0" x1="0" y1="0.5" x2="100" y2="0.5"/>
		<line id="Line-Copy-4" class="st0" x1="0" y1="600.5" x2="100" y2="600.5"/>
		<line id="Line-Copy-2_1_" class="st0" x1="0" y1="100.5" x2="100" y2="100.5"/>
		<line id="Line-Copy-5" class="st0" x1="0" y1="700.5" x2="100" y2="700.5"/>
		<line id="Line-Copy-2_2_" class="st0" x1="0" y1="200.5" x2="100" y2="200.5"/>
		<line id="Line-Copy-6" class="st0" x1="0" y1="800.5" x2="100" y2="800.5"/>
		<line id="Line-Copy-2_3_" class="st0" x1="0" y1="300.5" x2="100" y2="300.5"/>
		<line id="Line-Copy-7" class="st0" x1="0" y1="900.5" x2="100" y2="900.5"/>
		<line id="Line-Copy-2_4_" class="st0" x1="0" y1="400.5" x2="100" y2="400.5"/>
		<line id="Line-Copy-8" class="st0" x1="0" y1="1000.5" x2="100" y2="1000.5"/>
		<line id="Line_1_" class="st0" x1="0" y1="1100.5" x2="100" y2="1100.5"/>
		<line id="Line-Copy-3_1_" class="st0" x1="0" y1="1700.5" x2="100" y2="1700.5"/>
		<line id="Line-Copy-2_5_" class="st0" x1="0" y1="1200.5" x2="100" y2="1200.5"/>
		<line id="Line-Copy-4_1_" class="st0" x1="0" y1="1800.5" x2="100" y2="1800.5"/>
		<line id="Line-Copy-2_6_" class="st0" x1="0" y1="1300.5" x2="100" y2="1300.5"/>
		<line id="Line-Copy-5_1_" class="st0" x1="0" y1="1900.5" x2="100" y2="1900.5"/>
		<line id="Line-Copy-2_7_" class="st0" x1="0" y1="1400.5" x2="100" y2="1400.5"/>
		<line id="Line-Copy-6_1_" class="st0" x1="0" y1="2000.5" x2="100" y2="2000.5"/>
		<line id="Line-Copy-2_8_" class="st0" x1="0" y1="1500.5" x2="100" y2="1500.5"/>
		<line id="Line-Copy-7_1_" class="st0" x1="0" y1="2100.5" x2="100" y2="2100.5"/>
		<line id="Line-Copy-2_9_" class="st0" x1="0" y1="1600.5" x2="100" y2="1600.5"/>
		<line id="Line-Copy-8_1_" class="st0" x1="0" y1="2200.5" x2="100" y2="2200.5"/>
		<line id="Line-Copy-6_2_" class="st0" x1="0" y1="2300.5" x2="100" y2="2300.5"/>
		<line id="Line-Copy-7_2_" class="st0" x1="0" y1="2400.5" x2="100" y2="2400.5"/>
	</g>
	
		<g id="Group_1_" transform="translate(1132.033691, 110.662231) rotate(-90.000000) translate(-1132.033691, -110.662231) translate(1082.033691, -769.837769)">
		<line id="Line-Copy-3_2_" class="st0" x1="0.662" y1="264.966" x2="99.662" y2="264.966"/>
		<line id="Line-Copy-4_2_" class="st0" x1="0.662" y1="352.966" x2="99.662" y2="352.966"/>
		<line id="Line-Copy-5_2_" class="st0" x1="0.662" y1="440.966" x2="99.662" y2="440.966"/>
		<line id="Line-Copy-2_10_" class="st0" x1="0.662" y1="0.966" x2="99.662" y2="0.966"/>
		<line id="Line-Copy-6_3_" class="st0" x1="0.662" y1="529.966" x2="99.662" y2="529.966"/>
		<line id="Line-Copy-2_11_" class="st0" x1="0.662" y1="87.966" x2="99.662" y2="87.966"/>
		<line id="Line-Copy-7_3_" class="st0" x1="0.662" y1="616.966" x2="99.662" y2="616.966"/>
		<line id="Line-Copy-2_12_" class="st0" x1="0.662" y1="176.966" x2="99.662" y2="176.966"/>
		<line id="Line-Copy-8_2_" class="st0" x1="0.662" y1="704.966" x2="99.662" y2="704.966"/>
		<line id="Line_2_" class="st0" x1="0.662" y1="792.966" x2="99.662" y2="792.966"/>
		<line id="Line-Copy-3_3_" class="st0" x1="0.662" y1="1320.966" x2="99.662" y2="1320.966"/>
		<line id="Line-Copy-2_13_" class="st0" x1="0.662" y1="880.966" x2="99.662" y2="880.966"/>
		<line id="Line-Copy-4_3_" class="st0" x1="0.662" y1="1408.966" x2="99.662" y2="1408.966"/>
		<line id="Line-Copy-2_14_" class="st0" x1="0.662" y1="968.966" x2="99.662" y2="968.966"/>
		<line id="Line-Copy-5_3_" class="st0" x1="0.662" y1="1495.966" x2="99.662" y2="1495.966"/>
		<line id="Line-Copy-2_15_" class="st0" x1="0.662" y1="1056.966" x2="99.662" y2="1056.966"/>
		<line id="Line-Copy-6_4_" class="st0" x1="0.662" y1="1583.966" x2="99.662" y2="1583.966"/>
		<line id="Line-Copy-2_16_" class="st0" x1="0.662" y1="1144.966" x2="99.662" y2="1144.966"/>
		<line id="Line-Copy-7_4_" class="st0" x1="0.662" y1="1671.966" x2="99.662" y2="1671.966"/>
		<line id="Line-Copy-2_17_" class="st0" x1="0.662" y1="1231.966" x2="99.662" y2="1231.966"/>
		<line id="Line-Copy-8_3_" class="st0" x1="0.662" y1="1759.966" x2="99.662" y2="1759.966"/>
	</g>
	
		<g id="Group-Copy" transform="translate(1132.033691, 2810.662231) rotate(-90.000000) translate(-1132.033691, -2810.662231) translate(1082.033691, 1930.162231)">
		<line id="Line-Copy-3_4_" class="st0" x1="0.662" y1="264.966" x2="99.662" y2="264.966"/>
		<line id="Line-Copy-4_4_" class="st0" x1="0.662" y1="352.966" x2="99.662" y2="352.966"/>
		<line id="Line-Copy-5_4_" class="st0" x1="0.662" y1="440.966" x2="99.662" y2="440.966"/>
		<line id="Line-Copy-2_18_" class="st0" x1="0.662" y1="0.966" x2="99.662" y2="0.966"/>
		<line id="Line-Copy-6_5_" class="st0" x1="0.662" y1="529.966" x2="99.662" y2="529.966"/>
		<line id="Line-Copy-2_19_" class="st0" x1="0.662" y1="87.966" x2="99.662" y2="87.966"/>
		<line id="Line-Copy-7_5_" class="st0" x1="0.662" y1="616.966" x2="99.662" y2="616.966"/>
		<line id="Line-Copy-2_20_" class="st0" x1="0.662" y1="176.966" x2="99.662" y2="176.966"/>
		<line id="Line-Copy-8_4_" class="st0" x1="0.662" y1="704.966" x2="99.662" y2="704.966"/>
		<line id="Line_3_" class="st0" x1="0.662" y1="792.966" x2="99.662" y2="792.966"/>
		<line id="Line-Copy-3_5_" class="st0" x1="0.662" y1="1320.966" x2="99.662" y2="1320.966"/>
		<line id="Line-Copy-2_21_" class="st0" x1="0.662" y1="880.966" x2="99.662" y2="880.966"/>
		<line id="Line-Copy-4_5_" class="st0" x1="0.662" y1="1408.966" x2="99.662" y2="1408.966"/>
		<line id="Line-Copy-2_22_" class="st0" x1="0.662" y1="968.966" x2="99.662" y2="968.966"/>
		<line id="Line-Copy-5_5_" class="st0" x1="0.662" y1="1495.966" x2="99.662" y2="1495.966"/>
		<line id="Line-Copy-2_23_" class="st0" x1="0.662" y1="1056.966" x2="99.662" y2="1056.966"/>
		<line id="Line-Copy-6_6_" class="st0" x1="0.662" y1="1583.966" x2="99.662" y2="1583.966"/>
		<line id="Line-Copy-2_24_" class="st0" x1="0.662" y1="1144.966" x2="99.662" y2="1144.966"/>
		<line id="Line-Copy-7_6_" class="st0" x1="0.662" y1="1671.966" x2="99.662" y2="1671.966"/>
		<line id="Line-Copy-2_25_" class="st0" x1="0.662" y1="1231.966" x2="99.662" y2="1231.966"/>
		<line id="Line-Copy-8_5_" class="st0" x1="0.662" y1="1759.966" x2="99.662" y2="1759.966"/>
	</g>
	<line id="Line-Copy-3_6_" class="st0" x1="2100.5" y1="760.5" x2="2200.5" y2="760.5"/>
	<line id="Line-Copy-2_26_" class="st0" x1="2100.5" y1="260.5" x2="2200.5" y2="260.5"/>
	<line id="Line-Copy-4_6_" class="st0" x1="2100.5" y1="860.5" x2="2200.5" y2="860.5"/>
	<line id="Line-Copy-2_27_" class="st0" x1="2100.5" y1="360.5" x2="2200.5" y2="360.5"/>
	<line id="Line-Copy-5_6_" class="st0" x1="2100.5" y1="960.5" x2="2200.5" y2="960.5"/>
	<line id="Line-Copy-2_28_" class="st0" x1="2100.5" y1="460.5" x2="2200.5" y2="460.5"/>
	<line id="Line-Copy-6_7_" class="st0" x1="2100.5" y1="1060.5" x2="2200.5" y2="1060.5"/>
	<line id="Line-Copy-2_29_" class="st0" x1="2100.5" y1="560.5" x2="2200.5" y2="560.5"/>
	<line id="Line-Copy-7_7_" class="st0" x1="2100.5" y1="1160.5" x2="2200.5" y2="1160.5"/>
	<line id="Line-Copy-2_30_" class="st0" x1="2100.5" y1="660.5" x2="2200.5" y2="660.5"/>
	<line id="Line-Copy-8_6_" class="st0" x1="2100.5" y1="1260.5" x2="2200.5" y2="1260.5"/>
	<line id="Line_4_" class="st0" x1="2100.5" y1="1360.5" x2="2200.5" y2="1360.5"/>
	<line id="Line-Copy-3_7_" class="st0" x1="2100.5" y1="1960.5" x2="2200.5" y2="1960.5"/>
	<line id="Line-Copy-2_31_" class="st0" x1="2100.5" y1="1460.5" x2="2200.5" y2="1460.5"/>
	<line id="Line-Copy-4_7_" class="st0" x1="2100.5" y1="2060.5" x2="2200.5" y2="2060.5"/>
	<line id="Line-Copy-2_32_" class="st0" x1="2100.5" y1="1560.5" x2="2200.5" y2="1560.5"/>
	<line id="Line-Copy-5_7_" class="st0" x1="2100.5" y1="2160.5" x2="2200.5" y2="2160.5"/>
	<line id="Line-Copy-2_33_" class="st0" x1="2100.5" y1="1660.5" x2="2200.5" y2="1660.5"/>
	<line id="Line-Copy-6_8_" class="st0" x1="2100.5" y1="2260.5" x2="2200.5" y2="2260.5"/>
	<line id="Line-Copy-2_34_" class="st0" x1="2100.5" y1="1760.5" x2="2200.5" y2="1760.5"/>
	<line id="Line-Copy-7_8_" class="st0" x1="2100.5" y1="2360.5" x2="2200.5" y2="2360.5"/>
	<line id="Line-Copy-2_35_" class="st0" x1="2100.5" y1="1860.5" x2="2200.5" y2="1860.5"/>
	<line id="Line-Copy-8_7_" class="st0" x1="2100.5" y1="2460.5" x2="2200.5" y2="2460.5"/>
	<line id="Line-Copy-6_9_" class="st0" x1="2100.5" y1="2560.5" x2="2200.5" y2="2560.5"/>
	<line id="Line-Copy-7_9_" class="st0" x1="2100.5" y1="2660.5" x2="2200.5" y2="2660.5"/>
	<line id="Line-Copy-8_8_" class="st0" x1="60.5" y1="2760.5" x2="2200.5" y2="2760.5"/>
	<line id="Line-2" class="st0" x1="160.5" y1="60.5" x2="160.5" y2="2860.5"/>
	<line id="Line-2-Copy" class="st0" x1="2100.5" y1="60.5" x2="2100.5" y2="2860.5"/>
</g>
</svg>
