<?xml version="1.0" encoding="utf-8"?>
<!-- Generator: Adobe Illustrator 14.0.0, SVG Export Plug-In . SVG Version: 6.00 Build 43363)  -->
<!DOCTYPE svg PUBLIC "-//W3C//DTD SVG 1.1//EN" "http://www.w3.org/Graphics/SVG/1.1/DTD/svg11.dtd">
<svg version="1.1" id="Layer_1" xmlns="http://www.w3.org/2000/svg" xmlns:xlink="http://www.w3.org/1999/xlink" x="0px" y="0px"
	 width="562.039px" height="742.039px" viewBox="0 0 562.039 742.039" style="enable-background:new 0 0 562.039 742.039;"
	 xml:space="preserve">
<style type="text/css">
<![CDATA[
	.st0{fill:#000000;fill-rule:evenodd;clip-rule:evenodd;}
	.st1{fill:none;stroke:#000000;stroke-width:0.499;stroke-linecap:round;stroke-miterlimit:10;}
]]>
</style>
<path class="st1" d="M15.189,0.25H0.25v14.94h14.94V0.25z M554.29,7.75H7.75v726.54h546.54V7.75z"/>
<rect x="0.25" y="0.25" class="st0" width="7.44" height="7.44"/>
<rect x="0.25" y="0.25" class="st1" width="7.44" height="7.44"/>
<rect x="7.75" y="7.75" class="st0" width="7.44" height="7.44"/>
<rect x="7.75" y="7.75" class="st1" width="7.44" height="7.44"/>
<rect x="15.309" y="0.25" class="st1" width="14.94" height="14.94"/>
<rect x="15.309" y="0.25" class="st0" width="7.44" height="7.44"/>
<rect x="15.309" y="0.25" class="st1" width="7.44" height="7.44"/>
<rect x="22.809" y="7.75" class="st0" width="7.44" height="7.44"/>
<rect x="22.809" y="7.75" class="st1" width="7.44" height="7.44"/>
<rect x="30.369" y="0.25" class="st1" width="14.94" height="14.94"/>
<rect x="30.369" y="0.25" class="st0" width="7.44" height="7.44"/>
<rect x="30.369" y="0.25" class="st1" width="7.44" height="7.44"/>
<rect x="37.869" y="7.75" class="st0" width="7.44" height="7.44"/>
<rect x="37.869" y="7.75" class="st1" width="7.44" height="7.44"/>
<rect x="45.429" y="0.25" class="st1" width="14.94" height="14.94"/>
<rect x="45.429" y="0.25" class="st0" width="7.44" height="7.44"/>
<rect x="45.429" y="0.25" class="st1" width="7.44" height="7.44"/>
<rect x="52.929" y="7.75" class="st0" width="7.44" height="7.44"/>
<rect x="52.929" y="7.75" class="st1" width="7.44" height="7.44"/>
<rect x="0.25" y="15.25" class="st1" width="14.94" height="14.94"/>
<rect x="0.25" y="15.25" class="st0" width="7.44" height="7.44"/>
<rect x="0.25" y="15.25" class="st1" width="7.44" height="7.44"/>
<rect x="7.75" y="22.75" class="st0" width="7.44" height="7.44"/>
<rect x="7.75" y="22.75" class="st1" width="7.44" height="7.44"/>
<rect x="0.25" y="30.25" class="st1" width="14.94" height="14.94"/>
<rect x="0.25" y="30.25" class="st0" width="7.44" height="7.44"/>
<rect x="0.25" y="30.25" class="st1" width="7.44" height="7.44"/>
<rect x="7.75" y="37.75" class="st0" width="7.44" height="7.44"/>
<rect x="7.75" y="37.75" class="st1" width="7.44" height="7.44"/>
<rect x="0.25" y="45.25" class="st1" width="14.94" height="14.94"/>
<rect x="0.25" y="45.25" class="st0" width="7.44" height="7.44"/>
<rect x="0.25" y="45.25" class="st1" width="7.44" height="7.44"/>
<rect x="7.75" y="52.75" class="st0" width="7.44" height="7.44"/>
<rect x="7.75" y="52.75" class="st1" width="7.44" height="7.44"/>
<rect x="546.849" y="0.25" class="st1" width="14.94" height="14.94"/>
<rect x="546.849" y="0.25" class="st0" width="7.44" height="7.44"/>
<rect x="546.849" y="0.25" class="st1" width="7.44" height="7.44"/>
<rect x="554.349" y="7.75" class="st0" width="7.44" height="7.44"/>
<rect x="554.349" y="7.75" class="st1" width="7.44" height="7.44"/>
<rect x="531.79" y="0.25" class="st1" width="14.939" height="14.94"/>
<rect x="531.79" y="0.25" class="st0" width="7.439" height="7.44"/>
<rect x="531.79" y="0.25" class="st1" width="7.439" height="7.44"/>
<rect x="539.29" y="7.75" class="st0" width="7.439" height="7.44"/>
<rect x="539.29" y="7.75" class="st1" width="7.439" height="7.44"/>
<rect x="516.729" y="0.25" class="st1" width="14.94" height="14.94"/>
<rect x="516.729" y="0.25" class="st0" width="7.44" height="7.44"/>
<rect x="516.729" y="0.25" class="st1" width="7.44" height="7.44"/>
<rect x="524.229" y="7.75" class="st0" width="7.44" height="7.44"/>
<rect x="524.229" y="7.75" class="st1" width="7.44" height="7.44"/>
<rect x="501.729" y="0.25" class="st1" width="14.94" height="14.94"/>
<rect x="501.729" y="0.25" class="st0" width="7.44" height="7.44"/>
<rect x="501.729" y="0.25" class="st1" width="7.44" height="7.44"/>
<rect x="509.229" y="7.75" class="st0" width="7.44" height="7.44"/>
<rect x="509.229" y="7.75" class="st1" width="7.44" height="7.44"/>
<rect x="546.849" y="15.25" class="st1" width="14.94" height="14.94"/>
<rect x="546.849" y="15.25" class="st0" width="7.44" height="7.44"/>
<rect x="546.849" y="15.25" class="st1" width="7.44" height="7.44"/>
<rect x="554.349" y="22.75" class="st0" width="7.44" height="7.44"/>
<rect x="554.349" y="22.75" class="st1" width="7.44" height="7.44"/>
<rect x="546.849" y="30.25" class="st1" width="14.94" height="14.94"/>
<rect x="546.849" y="30.25" class="st0" width="7.44" height="7.44"/>
<rect x="546.849" y="30.25" class="st1" width="7.44" height="7.44"/>
<rect x="554.349" y="37.75" class="st0" width="7.44" height="7.44"/>
<rect x="554.349" y="37.75" class="st1" width="7.44" height="7.44"/>
<rect x="546.849" y="45.25" class="st1" width="14.94" height="14.94"/>
<rect x="546.849" y="45.25" class="st0" width="7.44" height="7.44"/>
<rect x="546.849" y="45.25" class="st1" width="7.44" height="7.44"/>
<rect x="554.349" y="52.75" class="st0" width="7.44" height="7.44"/>
<rect x="554.349" y="52.75" class="st1" width="7.44" height="7.44"/>
<rect x="546.849" y="726.849" class="st1" width="14.94" height="14.94"/>
<rect x="546.849" y="726.849" class="st0" width="7.44" height="7.44"/>
<rect x="546.849" y="726.849" class="st1" width="7.44" height="7.44"/>
<rect x="554.349" y="734.349" class="st0" width="7.44" height="7.44"/>
<rect x="554.349" y="734.349" class="st1" width="7.44" height="7.44"/>
<rect x="531.79" y="726.849" class="st1" width="14.939" height="14.94"/>
<rect x="531.79" y="726.849" class="st0" width="7.439" height="7.44"/>
<rect x="531.79" y="726.849" class="st1" width="7.439" height="7.44"/>
<rect x="539.29" y="734.349" class="st0" width="7.439" height="7.44"/>
<rect x="539.29" y="734.349" class="st1" width="7.439" height="7.44"/>
<rect x="516.729" y="726.849" class="st1" width="14.94" height="14.94"/>
<rect x="516.729" y="726.849" class="st0" width="7.44" height="7.44"/>
<rect x="516.729" y="726.849" class="st1" width="7.44" height="7.44"/>
<rect x="524.229" y="734.349" class="st0" width="7.44" height="7.44"/>
<rect x="524.229" y="734.349" class="st1" width="7.44" height="7.44"/>
<rect x="501.729" y="726.849" class="st1" width="14.94" height="14.94"/>
<rect x="501.729" y="726.849" class="st0" width="7.44" height="7.44"/>
<rect x="501.729" y="726.849" class="st1" width="7.44" height="7.44"/>
<rect x="509.229" y="734.349" class="st0" width="7.44" height="7.44"/>
<rect x="509.229" y="734.349" class="st1" width="7.44" height="7.44"/>
<rect x="546.849" y="711.849" class="st1" width="14.94" height="14.94"/>
<rect x="546.849" y="711.849" class="st0" width="7.44" height="7.44"/>
<rect x="546.849" y="711.849" class="st1" width="7.44" height="7.44"/>
<rect x="554.349" y="719.349" class="st0" width="7.44" height="7.44"/>
<rect x="554.349" y="719.349" class="st1" width="7.44" height="7.44"/>
<rect x="546.849" y="696.849" class="st1" width="14.94" height="14.94"/>
<rect x="546.849" y="696.849" class="st0" width="7.44" height="7.44"/>
<rect x="546.849" y="696.849" class="st1" width="7.44" height="7.44"/>
<rect x="554.349" y="704.349" class="st0" width="7.44" height="7.44"/>
<rect x="554.349" y="704.349" class="st1" width="7.44" height="7.44"/>
<rect x="546.849" y="681.849" class="st1" width="14.94" height="14.94"/>
<rect x="546.849" y="681.849" class="st0" width="7.44" height="7.44"/>
<rect x="546.849" y="681.849" class="st1" width="7.44" height="7.44"/>
<rect x="554.349" y="689.349" class="st0" width="7.44" height="7.44"/>
<rect x="554.349" y="689.349" class="st1" width="7.44" height="7.44"/>
<rect x="0.25" y="726.849" class="st1" width="14.94" height="14.94"/>
<rect x="0.25" y="726.849" class="st0" width="7.44" height="7.44"/>
<rect x="0.25" y="726.849" class="st1" width="7.44" height="7.44"/>
<rect x="7.75" y="734.349" class="st0" width="7.44" height="7.44"/>
<rect x="7.75" y="734.349" class="st1" width="7.44" height="7.44"/>
<rect x="15.309" y="726.849" class="st1" width="14.94" height="14.94"/>
<rect x="15.309" y="726.849" class="st0" width="7.44" height="7.44"/>
<rect x="15.309" y="726.849" class="st1" width="7.44" height="7.44"/>
<rect x="22.809" y="734.349" class="st0" width="7.44" height="7.44"/>
<rect x="22.809" y="734.349" class="st1" width="7.44" height="7.44"/>
<rect x="30.369" y="726.849" class="st1" width="14.94" height="14.94"/>
<rect x="30.369" y="726.849" class="st0" width="7.44" height="7.44"/>
<rect x="30.369" y="726.849" class="st1" width="7.44" height="7.44"/>
<rect x="37.869" y="734.349" class="st0" width="7.44" height="7.44"/>
<rect x="37.869" y="734.349" class="st1" width="7.44" height="7.44"/>
<rect x="45.429" y="726.849" class="st1" width="14.94" height="14.94"/>
<rect x="45.429" y="726.849" class="st0" width="7.44" height="7.44"/>
<rect x="45.429" y="726.849" class="st1" width="7.44" height="7.44"/>
<rect x="52.929" y="734.349" class="st0" width="7.44" height="7.44"/>
<rect x="52.929" y="734.349" class="st1" width="7.44" height="7.44"/>
<rect x="0.25" y="711.849" class="st1" width="14.94" height="14.94"/>
<rect x="0.25" y="711.849" class="st0" width="7.44" height="7.44"/>
<rect x="0.25" y="711.849" class="st1" width="7.44" height="7.44"/>
<rect x="7.75" y="719.349" class="st0" width="7.44" height="7.44"/>
<rect x="7.75" y="719.349" class="st1" width="7.44" height="7.44"/>
<rect x="0.25" y="696.849" class="st1" width="14.94" height="14.94"/>
<rect x="0.25" y="696.849" class="st0" width="7.44" height="7.44"/>
<rect x="0.25" y="696.849" class="st1" width="7.44" height="7.44"/>
<rect x="7.75" y="704.349" class="st0" width="7.44" height="7.44"/>
<rect x="7.75" y="704.349" class="st1" width="7.44" height="7.44"/>
<rect x="0.25" y="681.849" class="st1" width="14.94" height="14.94"/>
<rect x="0.25" y="681.849" class="st0" width="7.44" height="7.44"/>
<rect x="0.25" y="681.849" class="st1" width="7.44" height="7.44"/>
<rect x="7.75" y="689.349" class="st0" width="7.44" height="7.44"/>
<rect x="7.75" y="689.349" class="st1" width="7.44" height="7.44"/>
</svg>
