<?xml version="1.0" encoding="utf-8"?>
<!-- Generator: Adobe Illustrator 14.0.0, SVG Export Plug-In . SVG Version: 6.00 Build 43363)  -->
<!DOCTYPE svg PUBLIC "-//W3C//DTD SVG 1.1//EN" "http://www.w3.org/Graphics/SVG/1.1/DTD/svg11.dtd">
<svg version="1.1" id="Nouveau_x5F_36_xA0_Image_1_"
	 xmlns="http://www.w3.org/2000/svg" xmlns:xlink="http://www.w3.org/1999/xlink" x="0px" y="0px" width="729px" height="969px"
	 viewBox="0 0 729 969" style="enable-background:new 0 0 729 969;" xml:space="preserve">
<style type="text/css">
<![CDATA[
	.st0{fill-rule:evenodd;clip-rule:evenodd;fill:none;stroke:#000000;stroke-width:3.0835;stroke-linecap:round;}
	.st1{fill-rule:evenodd;clip-rule:evenodd;fill:none;stroke:#000000;stroke-width:3.1098;stroke-linecap:round;}
	.st2{fill-rule:evenodd;clip-rule:evenodd;fill:none;stroke:#000000;stroke-width:3.0803;stroke-linecap:round;}
	.st3{fill-rule:evenodd;clip-rule:evenodd;fill:none;stroke:#000000;stroke-width:3.0221;stroke-linecap:round;}
	.st4{fill-rule:evenodd;clip-rule:evenodd;fill:none;stroke:#000000;stroke-width:4.2131;stroke-linecap:round;}
	.st5{fill-rule:evenodd;clip-rule:evenodd;fill:none;stroke:#000000;stroke-width:3.3166;stroke-linecap:round;}
	.st6{fill-rule:evenodd;clip-rule:evenodd;fill:none;stroke:#000000;stroke-width:3.0821;stroke-linecap:round;}
	.st7{fill-rule:evenodd;clip-rule:evenodd;fill:none;stroke:#000000;stroke-width:3.4641;stroke-linecap:round;}
	.st8{fill-rule:evenodd;clip-rule:evenodd;fill:none;stroke:#000000;stroke-width:3;stroke-linecap:round;}
	.st9{fill-rule:evenodd;clip-rule:evenodd;fill:none;stroke:#000000;stroke-width:4.1833;stroke-linecap:round;}
	.st10{fill-rule:evenodd;clip-rule:evenodd;fill:none;stroke:#000000;stroke-width:3.1473;stroke-linecap:round;}
	.st11{fill-rule:evenodd;clip-rule:evenodd;fill:none;stroke:#000000;stroke-width:3.1535;stroke-linecap:round;}
	.st12{fill-rule:evenodd;clip-rule:evenodd;fill:none;stroke:#000000;stroke-width:3.182;stroke-linecap:round;}
	.st13{fill-rule:evenodd;clip-rule:evenodd;fill:none;stroke:#000000;stroke-width:3.4157;stroke-linecap:round;}
	.st14{fill-rule:evenodd;clip-rule:evenodd;fill:none;stroke:#000000;stroke-width:4.3589;stroke-linecap:round;}
	.st15{fill-rule:evenodd;clip-rule:evenodd;fill:none;stroke:#000000;stroke-width:3.3912;stroke-linecap:round;}
	.st16{fill-rule:evenodd;clip-rule:evenodd;fill:none;stroke:#000000;stroke-width:3.1042;stroke-linecap:round;}
	.st17{fill-rule:evenodd;clip-rule:evenodd;fill:none;stroke:#000000;stroke-width:3.0426;stroke-linecap:round;}
	.st18{fill-rule:evenodd;clip-rule:evenodd;fill:none;stroke:#000000;stroke-width:3.1145;stroke-linecap:round;}
	.st19{fill-rule:evenodd;clip-rule:evenodd;fill:none;stroke:#000000;stroke-width:3.0332;stroke-linecap:round;}
	.st20{fill-rule:evenodd;clip-rule:evenodd;fill:none;stroke:#000000;stroke-width:2.9889;stroke-linecap:round;}
	.st21{fill-rule:evenodd;clip-rule:evenodd;fill:none;stroke:#000000;stroke-width:2.7775;stroke-linecap:round;}
	.st22{fill-rule:evenodd;clip-rule:evenodd;fill:none;stroke:#000000;stroke-width:3.087;stroke-linecap:round;}
	.st23{fill-rule:evenodd;clip-rule:evenodd;fill:none;stroke:#000000;stroke-width:3.1623;stroke-linecap:round;}
	.st24{fill:#000000;fill-rule:evenodd;clip-rule:evenodd;}
	.st25{fill-rule:evenodd;clip-rule:evenodd;fill:none;stroke:#000000;stroke-width:2.9485;stroke-linecap:round;}
	.st26{fill-rule:evenodd;clip-rule:evenodd;fill:none;stroke:#000000;stroke-width:3.1009;stroke-linecap:round;}
	.st27{fill-rule:evenodd;clip-rule:evenodd;fill:none;stroke:#000000;stroke-width:3.2692;stroke-linecap:round;}
	.st28{fill-rule:evenodd;clip-rule:evenodd;fill:none;stroke:#000000;stroke-width:5.0498;stroke-linecap:round;}
	.st29{fill-rule:evenodd;clip-rule:evenodd;fill:none;stroke:#000000;stroke-width:3.0828;stroke-linecap:round;}
	.st30{fill-rule:evenodd;clip-rule:evenodd;fill:none;stroke:#000000;stroke-width:3.1194;stroke-linecap:round;}
	.st31{fill-rule:evenodd;clip-rule:evenodd;fill:none;stroke:#000000;stroke-width:3.0509;stroke-linecap:round;}
	.st32{fill-rule:evenodd;clip-rule:evenodd;fill:none;stroke:#000000;stroke-width:3.0827;stroke-linecap:round;}
	.st33{fill-rule:evenodd;clip-rule:evenodd;fill:none;stroke:#000000;stroke-width:3.5084;stroke-linecap:round;}
	.st34{fill-rule:evenodd;clip-rule:evenodd;fill:none;stroke:#000000;stroke-width:3.0648;stroke-linecap:round;}
	.st35{fill-rule:evenodd;clip-rule:evenodd;fill:none;stroke:#000000;stroke-width:3.076;stroke-linecap:round;}
	.st36{fill-rule:evenodd;clip-rule:evenodd;fill:none;stroke:#000000;stroke-width:3.4351;stroke-linecap:round;}
	.st37{fill-rule:evenodd;clip-rule:evenodd;fill:none;stroke:#000000;stroke-width:3.3403;stroke-linecap:round;}
	.st38{fill-rule:evenodd;clip-rule:evenodd;fill:none;stroke:#000000;stroke-width:3.5276;stroke-linecap:round;}
	.st39{fill-rule:evenodd;clip-rule:evenodd;fill:none;stroke:#000000;stroke-width:3.3806;stroke-linecap:round;}
	.st40{fill-rule:evenodd;clip-rule:evenodd;fill:none;stroke:#000000;stroke-width:3.0414;stroke-linecap:round;}
	.st41{fill-rule:evenodd;clip-rule:evenodd;fill:none;stroke:#000000;stroke-width:3.0496;stroke-linecap:round;}
	.st42{fill-rule:evenodd;clip-rule:evenodd;fill:none;stroke:#000000;stroke-width:3.1204;stroke-linecap:round;}
]]>
</style>
<g>
	<g>
		<path class="st24" d="M678,950c-0.127-1.794,1.225-2.109,1-4c-1.794,0.127-2.109-1.225-4-1l0.5-1.833L674,942
			c1.935-1.543,11.487-2.197,12,1c0.846,6.513-3.409,7.925-7,10l-0.5-1.5L678,950z"/>
		<path class="st24" d="M656.5,948.833L658,950c-1.438,1.759-0.918,2.279,2,2l-0.5,1.833L661,955c-3.005,5.154-13.198,4.983-15-1
			l-0.5-1.5L645,951c3.234-3.766,5.239-8.761,11-10l1.3,1.3l1.7,0.7c0.286,1.763-4.709,3.097-2,4L656.5,948.833z"/>
		<path class="st24" d="M667.5,950.167L666,949c0.956-1.85,8.276-1.688,8,1c-1.025,5.668-2.771,2.449-7,2L667.5,950.167z"/>
		<path class="st24" d="M83.5,952.5L84,954c-2.071,5.567-12.156,6.529-15,1l1.5-1.167L70,952c1,0,2,0,3,0
			c-0.248-1.086-1.988-0.678-2-2l1.5-1.167L72,947c1.781-0.733,0.144-1.818,0-3l1.7-0.7L75,942c4.486,1.514,6.889,5.111,9,9
			L83.5,952.5z"/>
		<path class="st24" d="M62.5,950.167L63,952c-4.893-0.484-4.85,3.871-7-1c-1.268-4.001,6.756-3.82,8-2L62.5,950.167z"/>
		<path class="st24" d="M54.5,943.167L55,945c-1,0-2,0-3,0c-0.777,0.89-1.075,2.258-1,4l-1.357,1.214L50,952
			c-3.793-1.209-8.936-5.27-6-10c2.057-1.326,10.038-1.896,12,0L54.5,943.167z"/>
		<path class="st24" d="M52.5,959.833L54,961c-6.751,2.111-14.887,0.596-23,1c-8.897,0.443-18.117,4.24-23-1
			c-2.562-8.395,6.859-13.019,8-21l1.167,1.5L19,941c-0.309,3.643,0.159,6.508,1,9c8.764,4.902,18.898,8.436,33,8L52.5,959.833z"/>
		<path class="st24" d="M17.833,909.5L16,910c0.865-4.802-2-13.333,2-15c6.269,0.397,4.061,9.272,6,14l-1.833-0.5L21,910
			c-0.81,0.19-0.997,1.003-2,1L17.833,909.5z"/>
		<path class="st24" d="M23.833,913.5L25,912c4.672,5.765,7.021-4.758,6-11l1.833,0.5L34,900c3.986,10.533,2.793,34.35-8,33
			c-4.853-3.146-1.796-14.204-4-20L23.833,913.5z"/>
		<path class="st24" d="M25.167,893.5L27,893c-1.592,4.71,7.172,8.204,1,11c-5.746,1.049-5.96-8.666-4-12L25.167,893.5z"/>
		<path class="st24" d="M19.167,60.5L18,62C5.206,63.877,3.976,44.874,12,40l0.7,1.7L14,43c-2.085,4.816-1.222,12.47,4,13
			c0.547-1.453-1.168-5.168,1-5l1.167,1.5L22,52c0,1.333,0,2.667,0,4l-0.786,1.929L23,59c-0.248,1.086-1.988,0.678-2,2L19.167,60.5z
			"/>
		<path class="st24" d="M15.7,27.3L15,29C9.845,23.821,3.644,19.689,5,8c9.735-8.384,26.503,0.081,35,5l-1.5,1.167L39,16
			c-8.688-3.364-28.392-4.121-22,10L15.7,27.3z"/>
		<path class="st24" d="M693.5,13.167L692,12c7.552-4.48,23.663-12.331,32-4c3.671,10.477-5.561,16.337-10,22l-0.7-1.7L712,27
			c0.152-3.181,2.268-4.399,2-8c-2.307-6.843-13.456-5.011-21-4L693.5,13.167z"/>
		<path class="st24" d="M717.833,43.5L719,42c7.363,5.517,4.236,21.496-7,20l-1.5-0.5L709,62c0.306-2.306-2.889-1.111-3-3l1.75-1
			l0.25-2c0-0.333,0-0.667,0-1l1.833,0.5L711,54c1.086,0.247,0.678,1.988,2,2c3.931-2.679,4.376-7.308,3-13L717.833,43.5z"/>
		<path class="st24" d="M704.167,898.5L706,898c0.564,11.561-12.6,2.412-3-1L704.167,898.5z"/>
		<path class="st24" d="M696.167,904.5L698,904c-0.23,4.563,1.683,6.984,3,10c1.615,0.282,1.722-0.945,3-1l1.167,1.5L707,914
			c-0.427,7.906,1.063,17.73-5,20c-8.9-3.105-9.262-20.063-7-31L696.167,904.5z"/>
		<path class="st24" d="M707.833,908.5L706,909c0.945-5.388-0.115-12.781,5-14c5.721,1.612,1.872,12.794,3,19l-1.833-0.5L711,915
			c-2.784,0.45,0.784-5.45-2-5L707.833,908.5z"/>
		<path class="st24" d="M712.833,943.5L714,942c2.215,6.785,8.545,9.455,8,19c-10.089,5.123-31.395-0.117-46,0l1.5-1.167L677,958
			c15.174-1.16,31.747-0.919,34-15L712.833,943.5z"/>
		<polygon class="st24" points="709,33 709,30 709,33 709,36 		"/>
		<path class="st24" d="M27,36c1.478-3.772,12.224-6.475,14-1c2.549,4.344-0.681,10.317-3,13l-1.167-1.5L35,47
			c0.784-5.784-0.969-9.031-7-8l0.5-1.833L27,36z"/>
		<path class="st24" d="M41.5,934.833L43,936c-4.963,1.971-7.363,2.267-8,6c-1.301,7.628,5.785,2.38,7,8
			c-6.35,6.037-18.266,1.391-19-7c2.784-6.883,9.665-9.669,19-10L41.5,934.833z"/>
		<path class="st24" d="M688.5,934.833L688,933c9.432,0.973,18.25,3.013,18,11c-0.251,8.026-13.732,12.997-19,4
			c9.412,2.456,10.271-11.75,0-12L688.5,934.833z"/>
		<path class="st24" d="M692.7,46.3L692,48c-3.551-2.116-4.431-6.902-4-13c4.218-6.045,12.447-1.278,17,1l1.214,1.357L708,37
			c0.127,1.794-1.225,2.109-1,4l-2.5-0.5L704,43l-1.167-1.5L701,42c0-1,0-2,0-3c-5.203-0.87-7.095,1.572-7,6L692.7,46.3z"/>
		<g>
			<path class="st31" d="M659.5,953.833c2.627-1.311,5.12-2.982,8-3.666"/>
			<path class="st18" d="M62.5,950.167c2.986,0.479,5.183,2.759,8,3.666"/>
			<path class="st37" d="M49.643,950.214c3.531,1.628,10.122,8.056,2.857,9.619"/>
			<path class="st0" d="M17.167,941.5c0.977-10.599-0.312-21.406,0.667-32"/>
			<path class="st5" d="M27.667,888.333c-1.713,1.23-2.101,3.241-2.5,5.167"/>
			<path class="st6" d="M27.5,882.5c-3.67-2.128-7.033-14.431-7.797-21c-3.621-31.134-0.203-66.178-0.203-100
				c0-165.092,0-334.725,0-500c0-68.922,0.275-136.19-0.333-201"/>
			<path class="st26" d="M12.7,41.7c1.887-3.033,4.104-5.797,6.8-8.2"/>
			<path class="st12" d="M19.5,33.5c-0.883-2.289-2.076-4.414-3.8-6.2"/>
			<path class="st1" d="M49.5,18.5c210.123,0,420.881,0,631,0"/>
			<path class="st23" d="M680.5,18.5c3.653-3.221,8.792-3.133,13-5.333"/>
			<path class="st3" d="M709,33c3.348,3.089,7.254,6.05,8.833,10.5"/>
			<path class="st4" d="M702.286,882.357c-0.368,1.972-0.257,3.999-0.619,5.976"/>
			<path class="st7" d="M701.667,888.333c2.821,2.287,3.405,6.776,2.5,10.167"/>
			<path class="st30" d="M701.667,888.333c-4.156,4.306-4.666,10.556-5.5,16.167"/>
			<path class="st40" d="M705.167,914.5c1.236-1.874,1.428-4.115,2.666-6"/>
			<path class="st11" d="M677.5,959.833c-6.432-0.042-3.357-7.233,1-8.333"/>
			<path class="st28" d="M19.5,33.5c0.333,0,0.667,0,1,0"/>
			<path class="st8" d="M20.5,33.5c8.139-7.71,19.373-10.093,29-15"/>
			<path class="st23" d="M49.5,18.5c-3.108-2.501-7.254-3.149-11-4.333"/>
			<path class="st25" d="M680.5,18.5c9.293,4.861,20.17,7.571,28.5,14.5"/>
			<path class="st39" d="M709,33c1.595-1.422,2.923-3.092,4.3-4.7"/>
			<path class="st14" d="M32.333,51.333c-0.231,0.819-0.503,1.786-0.69,2.381"/>
			<path class="st32" d="M31.643,53.714C34.961,82.535,33.5,125.082,33.5,158.5c0,197.823,0,405.884,0,605
				c0,34.203,3.545,71.231-0.798,102.798c-0.556,4.045-1.981,13.075-5.202,16.202"/>
			<path class="st28" d="M27.5,882.5c0.056,1.943-0.143,3.904,0.167,5.833"/>
			<path class="st42" d="M27.667,888.333c4.122,2.729,4.326,8.668,5.167,13.167"/>
			<path class="st19" d="M23.833,913.5c-0.475-1.667-1.232-3.333-1.667-5"/>
			<path class="st20" d="M54.5,943.167c6.219,1.03,11.939,3.973,18,5.666"/>
			<path class="st10" d="M41.5,934.833c11.271-1.321,23.417,1.007,32.2,8.467"/>
			<path class="st2" d="M83.5,952.5c44.13,3.562,98.052,1.999,145,2c87.927,0.002,183.379-0.002,272,0
				c46.854,0.001,93.122,3.206,135.005-0.005c2.224-0.171,5.907-1.331,9.995-1.995"/>
			<path class="st34" d="M657.3,942.3c8.89-6.68,20.32-8.8,31.2-7.467"/>
			<path class="st17" d="M656.5,948.833c6.584-1.01,12.308-5.161,19-5.666"/>
			<path class="st33" d="M712.833,943.5c-2.276-9.897,0.799-20.027-0.666-30"/>
			<path class="st5" d="M20.5,33.5c1.524,1.852,2.651,4.035,5,5"/>
			<path class="st15" d="M25.5,38.5c1.281-0.658,2.048-0.925,3-1.333"/>
			<path class="st36" d="M709,33c-0.837,1.135-2.006,2.905-2.786,4.357"/>
			<path class="st28" d="M25.5,38.5c0.01,1.01-0.076,1.924-0.167,2.833"/>
			<path class="st16" d="M25.333,41.333c3.158,2.745,4.227,6.988,7,10"/>
			<path class="st13" d="M32.333,51.333c2.454-0.437,3.506-2.837,4.5-4.833"/>
			<path class="st36" d="M692.7,46.3c0.928,2.214,2.435,4.396,4.967,5.034"/>
			<path class="st21" d="M697.667,51.333c2.151-3.014,3.671-6.455,5.166-9.833"/>
			<path class="st41" d="M709.833,55.5c-0.577-5.28-1.391-10.998-5.333-15"/>
			<path class="st9" d="M697.667,51.333c0.197,0.654,0.314,1.87,0.47,2.712"/>
			<path class="st35" d="M698.137,54.045c3.43,0.752,6.234,3.072,9.613,3.955"/>
			<path class="st27" d="M25.333,41.333c-4.049,2.103-4.242,7.235-5.167,11.167"/>
			<path class="st22" d="M31.643,53.714c-3.522,1.318-6.627,3.619-10.429,4.214"/>
			<path class="st38" d="M698.137,54.045c-0.249,0.326-0.497,0.651-0.745,0.976c0.158,116.375-4.141,236.04-1.338,356.044
				c2.764,118.3-2.773,241.245,0,360c0.694,29.736-1.646,59.649,0.002,89.01c0.418,7.452,1.907,16.021,6.23,22.282"/>
			<path class="st29" d="M702.286,882.357c0.088-0.034,0.177-0.067,0.266-0.101c5.395-7.632,6.828-15.466,7.746-23.757
				c3.446-31.139,0.202-66.071,0.202-100c0.001-226.087-0.001-474.983,0-697"/>
		</g>
	</g>
</g>
</svg>
