<?xml version="1.0" encoding="utf-8"?>
<!-- Generator: Adobe Illustrator 14.0.0, SVG Export Plug-In . SVG Version: 6.00 Build 43363)  -->
<!DOCTYPE svg PUBLIC "-//W3C//DTD SVG 1.1//EN" "http://www.w3.org/Graphics/SVG/1.1/DTD/svg11.dtd">
<svg version="1.1" id="Nouveau_x5F_42_xA0_Image_1_"
	 xmlns="http://www.w3.org/2000/svg" xmlns:xlink="http://www.w3.org/1999/xlink" x="0px" y="0px" width="729px" height="969px"
	 viewBox="0 0 729 969" style="enable-background:new 0 0 729 969;" xml:space="preserve">
<style type="text/css">
<![CDATA[
	.st0{fill-rule:evenodd;clip-rule:evenodd;fill:none;stroke:#000000;stroke-width:1.446;stroke-linecap:round;}
	.st1{fill-rule:evenodd;clip-rule:evenodd;fill:none;stroke:#000000;stroke-width:3.4481;stroke-linecap:round;}
	.st2{fill-rule:evenodd;clip-rule:evenodd;fill:none;stroke:#000000;stroke-width:1.7321;stroke-linecap:round;}
	.st3{fill-rule:evenodd;clip-rule:evenodd;fill:none;stroke:#000000;stroke-width:1.3904;stroke-linecap:round;}
	.st4{fill-rule:evenodd;clip-rule:evenodd;fill:none;stroke:#000000;stroke-width:1.3292;stroke-linecap:round;}
	.st5{fill-rule:evenodd;clip-rule:evenodd;fill:none;stroke:#000000;stroke-width:1.3519;stroke-linecap:round;}
	.st6{fill-rule:evenodd;clip-rule:evenodd;fill:none;stroke:#000000;stroke-width:1.3363;stroke-linecap:round;}
	.st7{fill-rule:evenodd;clip-rule:evenodd;fill:none;stroke:#000000;stroke-width:2.1712;stroke-linecap:round;}
	.st8{fill-rule:evenodd;clip-rule:evenodd;fill:none;stroke:#000000;stroke-width:2.7749;stroke-linecap:round;}
	.st9{fill-rule:evenodd;clip-rule:evenodd;fill:none;stroke:#000000;stroke-width:1.6432;stroke-linecap:round;}
	.st10{fill-rule:evenodd;clip-rule:evenodd;fill:none;stroke:#000000;stroke-width:2.1909;stroke-linecap:round;}
	.st11{fill-rule:evenodd;clip-rule:evenodd;fill:none;stroke:#000000;stroke-width:3.3166;stroke-linecap:round;}
	.st12{fill-rule:evenodd;clip-rule:evenodd;fill:none;stroke:#000000;stroke-width:1.7607;stroke-linecap:round;}
	.st13{fill-rule:evenodd;clip-rule:evenodd;fill:none;stroke:#000000;stroke-width:3.4641;stroke-linecap:round;}
	.st14{fill-rule:evenodd;clip-rule:evenodd;fill:none;stroke:#000000;stroke-width:1.2071;stroke-linecap:round;}
	.st15{fill-rule:evenodd;clip-rule:evenodd;fill:none;stroke:#000000;stroke-width:2.3979;stroke-linecap:round;}
	.st16{fill-rule:evenodd;clip-rule:evenodd;fill:none;stroke:#000000;stroke-width:1.5275;stroke-linecap:round;}
	.st17{fill-rule:evenodd;clip-rule:evenodd;fill:none;stroke:#000000;stroke-width:3;stroke-linecap:round;}
	.st18{fill-rule:evenodd;clip-rule:evenodd;fill:none;stroke:#000000;stroke-width:1.3484;stroke-linecap:round;}
	.st19{fill-rule:evenodd;clip-rule:evenodd;fill:none;stroke:#000000;stroke-width:3.4059;stroke-linecap:round;}
	.st20{fill-rule:evenodd;clip-rule:evenodd;fill:none;stroke:#000000;stroke-width:2.7735;stroke-linecap:round;}
	.st21{fill-rule:evenodd;clip-rule:evenodd;fill:none;stroke:#000000;stroke-width:1.2536;stroke-linecap:round;}
	.st22{fill-rule:evenodd;clip-rule:evenodd;fill:none;stroke:#000000;stroke-width:3.6056;stroke-linecap:round;}
	.st23{fill-rule:evenodd;clip-rule:evenodd;fill:none;stroke:#000000;stroke-width:4.1833;stroke-linecap:round;}
	.st24{fill-rule:evenodd;clip-rule:evenodd;fill:none;stroke:#000000;stroke-width:2.0138;stroke-linecap:round;}
	.st25{fill-rule:evenodd;clip-rule:evenodd;fill:none;stroke:#000000;stroke-width:1.3887;stroke-linecap:round;}
	.st26{fill-rule:evenodd;clip-rule:evenodd;fill:none;stroke:#000000;stroke-width:2.1448;stroke-linecap:round;}
	.st27{fill-rule:evenodd;clip-rule:evenodd;fill:none;stroke:#000000;stroke-width:1.5584;stroke-linecap:round;}
	.st28{fill-rule:evenodd;clip-rule:evenodd;fill:none;stroke:#000000;stroke-width:1.633;stroke-linecap:round;}
	.st29{fill-rule:evenodd;clip-rule:evenodd;fill:none;stroke:#000000;stroke-width:1.4771;stroke-linecap:round;}
	.st30{fill-rule:evenodd;clip-rule:evenodd;fill:none;stroke:#000000;stroke-width:1.5811;stroke-linecap:round;}
	.st31{fill-rule:evenodd;clip-rule:evenodd;fill:none;stroke:#000000;stroke-width:3.2016;stroke-linecap:round;}
	.st32{fill-rule:evenodd;clip-rule:evenodd;fill:none;stroke:#000000;stroke-width:1.5396;stroke-linecap:round;}
	.st33{fill-rule:evenodd;clip-rule:evenodd;fill:none;stroke:#000000;stroke-width:2.8284;stroke-linecap:round;}
	.st34{fill-rule:evenodd;clip-rule:evenodd;fill:none;stroke:#000000;stroke-width:1.8371;stroke-linecap:round;}
	.st35{fill-rule:evenodd;clip-rule:evenodd;fill:none;stroke:#000000;stroke-width:3.3541;stroke-linecap:round;}
	.st36{fill-rule:evenodd;clip-rule:evenodd;fill:none;stroke:#000000;stroke-width:2.22;stroke-linecap:round;}
	.st37{fill-rule:evenodd;clip-rule:evenodd;fill:none;stroke:#000000;stroke-width:3.1885;stroke-linecap:round;}
	.st38{fill-rule:evenodd;clip-rule:evenodd;fill:none;stroke:#000000;stroke-width:2.1381;stroke-linecap:round;}
	.st39{fill-rule:evenodd;clip-rule:evenodd;fill:none;stroke:#000000;stroke-width:3.2863;stroke-linecap:round;}
	.st40{fill-rule:evenodd;clip-rule:evenodd;fill:none;stroke:#000000;stroke-width:2.6667;stroke-linecap:round;}
	.st41{fill-rule:evenodd;clip-rule:evenodd;fill:none;stroke:#000000;stroke-width:2.6926;stroke-linecap:round;}
	.st42{fill-rule:evenodd;clip-rule:evenodd;fill:none;stroke:#000000;stroke-width:2.7386;stroke-linecap:round;}
	.st43{fill-rule:evenodd;clip-rule:evenodd;fill:none;stroke:#000000;stroke-width:1.472;stroke-linecap:round;}
	.st44{fill-rule:evenodd;clip-rule:evenodd;fill:none;stroke:#000000;stroke-width:2.7157;stroke-linecap:round;}
	.st45{fill-rule:evenodd;clip-rule:evenodd;fill:none;stroke:#000000;stroke-width:1.4402;stroke-linecap:round;}
	.st46{fill-rule:evenodd;clip-rule:evenodd;fill:none;stroke:#000000;stroke-width:1.7638;stroke-linecap:round;}
	.st47{fill-rule:evenodd;clip-rule:evenodd;fill:none;stroke:#000000;stroke-width:4.0277;stroke-linecap:round;}
	.st48{fill-rule:evenodd;clip-rule:evenodd;fill:none;stroke:#000000;stroke-width:2.7819;stroke-linecap:round;}
	.st49{fill-rule:evenodd;clip-rule:evenodd;fill:none;stroke:#000000;stroke-width:3.0332;stroke-linecap:round;}
	.st50{fill-rule:evenodd;clip-rule:evenodd;fill:none;stroke:#000000;stroke-width:2.9848;stroke-linecap:round;}
	.st51{fill-rule:evenodd;clip-rule:evenodd;fill:none;stroke:#000000;stroke-width:3.4017;stroke-linecap:round;}
	.st52{fill-rule:evenodd;clip-rule:evenodd;fill:none;stroke:#000000;stroke-width:2;stroke-linecap:round;}
	.st53{fill-rule:evenodd;clip-rule:evenodd;fill:none;stroke:#000000;stroke-width:3.383;stroke-linecap:round;}
	.st54{fill-rule:evenodd;clip-rule:evenodd;fill:none;stroke:#000000;stroke-width:2.1044;stroke-linecap:round;}
	.st55{fill-rule:evenodd;clip-rule:evenodd;fill:none;stroke:#000000;stroke-linecap:round;}
	.st56{fill-rule:evenodd;clip-rule:evenodd;fill:none;stroke:#000000;stroke-width:1.3607;stroke-linecap:round;}
	.st57{fill-rule:evenodd;clip-rule:evenodd;fill:none;stroke:#000000;stroke-width:2.3664;stroke-linecap:round;}
	.st58{fill-rule:evenodd;clip-rule:evenodd;fill:none;stroke:#000000;stroke-width:1.2306;stroke-linecap:round;}
	.st59{fill-rule:evenodd;clip-rule:evenodd;fill:none;stroke:#000000;stroke-width:2.2913;stroke-linecap:round;}
	.st60{fill-rule:evenodd;clip-rule:evenodd;fill:none;stroke:#000000;stroke-width:2.3238;stroke-linecap:round;}
	.st61{fill-rule:evenodd;clip-rule:evenodd;fill:none;stroke:#000000;stroke-width:2.3932;stroke-linecap:round;}
	.st62{fill-rule:evenodd;clip-rule:evenodd;fill:none;stroke:#000000;stroke-width:1.4832;stroke-linecap:round;}
	.st63{fill-rule:evenodd;clip-rule:evenodd;fill:none;stroke:#000000;stroke-width:1.4376;stroke-linecap:round;}
	.st64{fill-rule:evenodd;clip-rule:evenodd;fill:none;stroke:#000000;stroke-width:1.6073;stroke-linecap:round;}
	.st65{fill-rule:evenodd;clip-rule:evenodd;fill:none;stroke:#000000;stroke-width:2.4495;stroke-linecap:round;}
	.st66{fill-rule:evenodd;clip-rule:evenodd;fill:none;stroke:#000000;stroke-width:2.1985;stroke-linecap:round;}
	.st67{fill-rule:evenodd;clip-rule:evenodd;fill:none;stroke:#000000;stroke-width:1.5986;stroke-linecap:round;}
	.st68{fill-rule:evenodd;clip-rule:evenodd;fill:none;stroke:#000000;stroke-width:3.1305;stroke-linecap:round;}
	.st69{fill-rule:evenodd;clip-rule:evenodd;fill:none;stroke:#000000;stroke-width:3.0659;stroke-linecap:round;}
	.st70{fill-rule:evenodd;clip-rule:evenodd;fill:none;stroke:#000000;stroke-width:1.5425;stroke-linecap:round;}
	.st71{fill-rule:evenodd;clip-rule:evenodd;fill:none;stroke:#000000;stroke-width:1.6279;stroke-linecap:round;}
	.st72{fill-rule:evenodd;clip-rule:evenodd;fill:none;stroke:#000000;stroke-width:1.453;stroke-linecap:round;}
	.st73{fill-rule:evenodd;clip-rule:evenodd;fill:none;stroke:#000000;stroke-width:1.2042;stroke-linecap:round;}
	.st74{fill-rule:evenodd;clip-rule:evenodd;fill:none;stroke:#000000;stroke-width:2.8031;stroke-linecap:round;}
	.st75{fill-rule:evenodd;clip-rule:evenodd;fill:none;stroke:#000000;stroke-width:2.1213;stroke-linecap:round;}
	.st76{fill-rule:evenodd;clip-rule:evenodd;fill:none;stroke:#000000;stroke-width:3.1623;stroke-linecap:round;}
	.st77{fill-rule:evenodd;clip-rule:evenodd;fill:none;stroke:#000000;stroke-width:3.0551;stroke-linecap:round;}
	.st78{fill-rule:evenodd;clip-rule:evenodd;fill:none;stroke:#000000;stroke-width:1.4142;stroke-linecap:round;}
	.st79{fill-rule:evenodd;clip-rule:evenodd;fill:none;stroke:#000000;stroke-width:1.3693;stroke-linecap:round;}
	.st80{fill-rule:evenodd;clip-rule:evenodd;fill:none;stroke:#000000;stroke-width:1.2019;stroke-linecap:round;}
	.st81{fill-rule:evenodd;clip-rule:evenodd;fill:none;stroke:#000000;stroke-width:1.6036;stroke-linecap:round;}
	.st82{fill-rule:evenodd;clip-rule:evenodd;fill:none;stroke:#000000;stroke-width:2.3604;stroke-linecap:round;}
	.st83{fill:#000000;fill-rule:evenodd;clip-rule:evenodd;}
	.st84{fill-rule:evenodd;clip-rule:evenodd;fill:none;stroke:#000000;stroke-width:1.6627;stroke-linecap:round;}
	.st85{fill-rule:evenodd;clip-rule:evenodd;fill:none;stroke:#000000;stroke-width:1.4577;stroke-linecap:round;}
	.st86{fill-rule:evenodd;clip-rule:evenodd;fill:none;stroke:#000000;stroke-width:1.8127;stroke-linecap:round;}
	.st87{fill-rule:evenodd;clip-rule:evenodd;fill:none;stroke:#000000;stroke-width:1.7678;stroke-linecap:round;}
	.st88{fill-rule:evenodd;clip-rule:evenodd;fill:none;stroke:#000000;stroke-width:1.9437;stroke-linecap:round;}
	.st89{fill-rule:evenodd;clip-rule:evenodd;fill:none;stroke:#000000;stroke-width:1.4877;stroke-linecap:round;}
	.st90{fill-rule:evenodd;clip-rule:evenodd;fill:none;stroke:#000000;stroke-width:1.1547;stroke-linecap:round;}
	.st91{fill-rule:evenodd;clip-rule:evenodd;fill:none;stroke:#000000;stroke-width:1.6833;stroke-linecap:round;}
	.st92{fill-rule:evenodd;clip-rule:evenodd;fill:none;stroke:#000000;stroke-width:3.1091;stroke-linecap:round;}
	.st93{fill-rule:evenodd;clip-rule:evenodd;fill:none;stroke:#000000;stroke-width:4.1231;stroke-linecap:round;}
	.st94{fill-rule:evenodd;clip-rule:evenodd;fill:none;stroke:#000000;stroke-width:1.5076;stroke-linecap:round;}
	.st95{fill-rule:evenodd;clip-rule:evenodd;fill:none;stroke:#000000;stroke-width:1.8997;stroke-linecap:round;}
	.st96{fill-rule:evenodd;clip-rule:evenodd;fill:none;stroke:#000000;stroke-width:1.5;stroke-linecap:round;}
	.st97{fill-rule:evenodd;clip-rule:evenodd;fill:none;stroke:#000000;stroke-width:1.2472;stroke-linecap:round;}
	.st98{fill-rule:evenodd;clip-rule:evenodd;fill:none;stroke:#000000;stroke-width:1.2275;stroke-linecap:round;}
	.st99{fill-rule:evenodd;clip-rule:evenodd;fill:none;stroke:#000000;stroke-width:1.3844;stroke-linecap:round;}
	.st100{fill-rule:evenodd;clip-rule:evenodd;fill:none;stroke:#000000;stroke-width:2.1602;stroke-linecap:round;}
	.st101{fill-rule:evenodd;clip-rule:evenodd;fill:none;stroke:#000000;stroke-width:1.6125;stroke-linecap:round;}
	.st102{fill-rule:evenodd;clip-rule:evenodd;fill:none;stroke:#000000;stroke-width:2.5495;stroke-linecap:round;}
	.st103{fill-rule:evenodd;clip-rule:evenodd;fill:none;stroke:#000000;stroke-width:1.8974;stroke-linecap:round;}
	.st104{fill-rule:evenodd;clip-rule:evenodd;fill:none;stroke:#000000;stroke-width:3.9196;stroke-linecap:round;}
	.st105{fill-rule:evenodd;clip-rule:evenodd;fill:none;stroke:#000000;stroke-width:2.3184;stroke-linecap:round;}
	.st106{fill-rule:evenodd;clip-rule:evenodd;fill:none;stroke:#000000;stroke-width:2.0207;stroke-linecap:round;}
	.st107{fill-rule:evenodd;clip-rule:evenodd;fill:none;stroke:#000000;stroke-width:2.7689;stroke-linecap:round;}
	.st108{fill-rule:evenodd;clip-rule:evenodd;fill:none;stroke:#000000;stroke-width:1.2884;stroke-linecap:round;}
	.st109{fill-rule:evenodd;clip-rule:evenodd;fill:none;stroke:#000000;stroke-width:2.2039;stroke-linecap:round;}
	.st110{fill-rule:evenodd;clip-rule:evenodd;fill:none;stroke:#000000;stroke-width:1.5456;stroke-linecap:round;}
	.st111{fill-rule:evenodd;clip-rule:evenodd;fill:none;stroke:#000000;stroke-width:1.8028;stroke-linecap:round;}
	.st112{fill-rule:evenodd;clip-rule:evenodd;fill:none;stroke:#000000;stroke-width:2.0683;stroke-linecap:round;}
	.st113{fill-rule:evenodd;clip-rule:evenodd;fill:none;stroke:#000000;stroke-width:2.3452;stroke-linecap:round;}
	.st114{fill-rule:evenodd;clip-rule:evenodd;fill:none;stroke:#000000;stroke-width:2.1858;stroke-linecap:round;}
	.st115{fill-rule:evenodd;clip-rule:evenodd;fill:none;stroke:#000000;stroke-width:2.2804;stroke-linecap:round;}
	.st116{fill-rule:evenodd;clip-rule:evenodd;fill:none;stroke:#000000;stroke-width:4.1473;stroke-linecap:round;}
	.st117{fill-rule:evenodd;clip-rule:evenodd;fill:none;stroke:#000000;stroke-width:1.2247;stroke-linecap:round;}
	.st118{fill-rule:evenodd;clip-rule:evenodd;fill:none;stroke:#000000;stroke-width:1.3298;stroke-linecap:round;}
	.st119{fill-rule:evenodd;clip-rule:evenodd;fill:none;stroke:#000000;stroke-width:1.9365;stroke-linecap:round;}
	.st120{fill-rule:evenodd;clip-rule:evenodd;fill:none;stroke:#000000;stroke-width:1.3628;stroke-linecap:round;}
	.st121{fill-rule:evenodd;clip-rule:evenodd;fill:none;stroke:#000000;stroke-width:1.4606;stroke-linecap:round;}
	.st122{fill-rule:evenodd;clip-rule:evenodd;fill:none;stroke:#000000;stroke-width:2.8868;stroke-linecap:round;}
	.st123{fill-rule:evenodd;clip-rule:evenodd;fill:none;stroke:#000000;stroke-width:3.7148;stroke-linecap:round;}
	.st124{fill-rule:evenodd;clip-rule:evenodd;fill:none;stroke:#000000;stroke-width:1.291;stroke-linecap:round;}
	.st125{fill-rule:evenodd;clip-rule:evenodd;fill:none;stroke:#000000;stroke-width:1.6147;stroke-linecap:round;}
	.st126{fill-rule:evenodd;clip-rule:evenodd;fill:none;stroke:#000000;stroke-width:3.0827;stroke-linecap:round;}
	.st127{fill-rule:evenodd;clip-rule:evenodd;fill:none;stroke:#000000;stroke-width:2.958;stroke-linecap:round;}
	.st128{fill-rule:evenodd;clip-rule:evenodd;fill:none;stroke:#000000;stroke-width:2.273;stroke-linecap:round;}
	.st129{fill-rule:evenodd;clip-rule:evenodd;fill:none;stroke:#000000;stroke-width:3.0774;stroke-linecap:round;}
	.st130{fill-rule:evenodd;clip-rule:evenodd;fill:none;stroke:#000000;stroke-width:1.4697;stroke-linecap:round;}
	.st131{fill-rule:evenodd;clip-rule:evenodd;fill:none;stroke:#000000;stroke-width:3.8964;stroke-linecap:round;}
	.st132{fill-rule:evenodd;clip-rule:evenodd;fill:none;stroke:#000000;stroke-width:2.2361;stroke-linecap:round;}
	.st133{fill-rule:evenodd;clip-rule:evenodd;fill:none;stroke:#000000;stroke-width:3.3417;stroke-linecap:round;}
	.st134{fill-rule:evenodd;clip-rule:evenodd;fill:none;stroke:#000000;stroke-width:3.6912;stroke-linecap:round;}
	.st135{fill-rule:evenodd;clip-rule:evenodd;fill:none;stroke:#000000;stroke-width:1.1106;stroke-linecap:round;}
	.st136{fill-rule:evenodd;clip-rule:evenodd;fill:none;stroke:#000000;stroke-width:2.6646;stroke-linecap:round;}
	.st137{fill-rule:evenodd;clip-rule:evenodd;fill:none;stroke:#000000;stroke-width:3.0822;stroke-linecap:round;}
	.st138{fill-rule:evenodd;clip-rule:evenodd;fill:none;stroke:#000000;stroke-width:1.6733;stroke-linecap:round;}
	.st139{fill-rule:evenodd;clip-rule:evenodd;fill:none;stroke:#000000;stroke-width:1.3009;stroke-linecap:round;}
	.st140{fill-rule:evenodd;clip-rule:evenodd;fill:none;stroke:#000000;stroke-width:3.6401;stroke-linecap:round;}
	.st141{fill-rule:evenodd;clip-rule:evenodd;fill:none;stroke:#000000;stroke-width:1.4516;stroke-linecap:round;}
	.st142{fill-rule:evenodd;clip-rule:evenodd;fill:none;stroke:#000000;stroke-width:1.9149;stroke-linecap:round;}
	.st143{fill-rule:evenodd;clip-rule:evenodd;fill:none;stroke:#000000;stroke-width:1.4422;stroke-linecap:round;}
	.st144{fill-rule:evenodd;clip-rule:evenodd;fill:none;stroke:#000000;stroke-width:1.3744;stroke-linecap:round;}
	.st145{fill-rule:evenodd;clip-rule:evenodd;fill:none;stroke:#000000;stroke-width:1.8439;stroke-linecap:round;}
	.st146{fill-rule:evenodd;clip-rule:evenodd;fill:none;stroke:#000000;stroke-width:1.169;stroke-linecap:round;}
	.st147{fill-rule:evenodd;clip-rule:evenodd;fill:none;stroke:#000000;stroke-width:3.5473;stroke-linecap:round;}
	.st148{fill-rule:evenodd;clip-rule:evenodd;fill:none;stroke:#000000;stroke-width:3.0778;stroke-linecap:round;}
	.st149{fill-rule:evenodd;clip-rule:evenodd;fill:none;stroke:#000000;stroke-width:2.5166;stroke-linecap:round;}
	.st150{fill-rule:evenodd;clip-rule:evenodd;fill:none;stroke:#000000;stroke-width:3.0984;stroke-linecap:round;}
	.st151{fill-rule:evenodd;clip-rule:evenodd;fill:none;stroke:#000000;stroke-width:1.2649;stroke-linecap:round;}
	.st152{fill-rule:evenodd;clip-rule:evenodd;fill:none;stroke:#000000;stroke-width:2.7889;stroke-linecap:round;}
]]>
</style>
<g>
	<g>
		<path class="st83" d="M704,6c-1.615,0.282-1.722-0.945-3-1c0.658-1.342,2.138-1.862,4-2C704.471,3.804,703.957,4.624,704,6z"/>
		<path class="st83" d="M37,964c0.319,1.766-5.602,1.785-4-1C35.039,960.991,34.961,963.442,37,964z"/>
		<path class="st83" d="M63,9c-2.686-1.444-7.972-4.05-6-7c2,0,4,0,6,0l-0.5,1.833L64,5c0,0.333,0,0.667,0,1l-0.5,1.5L63,9z"/>
		<path class="st83" d="M70.5,13.5L70,12c0.333,0,0.667,0,1,0L70.5,13.5L71,15c-0.333,0-0.667,0-1,0L70.5,13.5z"/>
		<path class="st83" d="M75.5,11.5L74,11c-0.894-0.758-0.856-3.192-1-7c7.867-5.066,11.229-0.935,6,6l0.5,1l0.5,1
			c-1.161,0.839-2.681,1.319-5,1L75.5,11.5z"/>
		<path class="st83" d="M649,11v-1c-0.995-1.738-3.505-7.072-2-8c5.622-0.956,7.922,1.411,9,5c2.574-3.446,9.994-7.312,16-4
			l-1.5,0.5L671,5c-3.979,3.354-7.484,7.183-16,6l-1.5,0.5L654,13c-2.651-0.015-5.889,0.555-6-2H649z"/>
		<path class="st83" d="M672.5,4.5L672,3c0.333,0,0.667,0,1,0l-0.25,1.75L671,5L672.5,4.5z"/>
		<path class="st83" d="M694,4.5l1-0.5c4.888-0.693,4.122-0.22,7,4l-0.5,1.5L701,11c-1.162-0.163-1.779,0.221-2,1l-1.5-0.5L696,12
			c-1.57-0.43-0.854-3.146-4-2l0.167-2.167L690,8c0-0.333,0-0.667,0-1l1.5,0.5L691,6c0.247-1.086,1.988-0.678,2-2L694,4.5z"/>
		<path class="st83" d="M717,6V5c3.186-2.704-0.666,2.684,4,0c-1.976,1.98-1.976,4.397,0,1c1.342,0.658,1.862,2.138,2,4l-1.5,0.5
			L722,12c-1,0-2,0-3,0l-1.5-2L716,8c0-0.667,0-1.333,0-2H717z"/>
		<path class="st83" d="M716.5,30.5L718,30c2.828,0.838,3.403,3.93,5,6c-0.729,2.271-3.009,2.991-5,4c1.028,2.305,3.442,3.225,3,7
			l-1.833-0.5L718,48c-3.866-0.134-3.944-4.056-7-5l0.5-1.833L710,40c-0.127-1.794,1.225-2.109,1-4l1.5,0.5L713,35
			c2.578-0.241-1.373-1.721,0-4l1.5-0.5L714,29c1,0,2,0,3,0L716.5,30.5z"/>
		<path class="st83" d="M719.167,921.5L721,921c0.049,3.049-0.908,5.092-3,6c0.789,2.211,3.497,2.503,5,4
			c-0.703,3.631-3.223,5.443-5,8l-1.5,0.5l0.5,1.5c-1.333,0-2.667,0-4,0l-2.167,0.167L709,940c0-0.333,0-0.667,0-1l0.9-1.9l0.1-2.1
			l0.5,1.5l1.5-0.5c0.203,3.198,2.907-4.088,1-3l-0.5-1.5L711,932c-0.138-1.862-0.658-3.342-2-4l0.5-1.5L708,926
			c-0.086-1.419-0.165-2.832,1-3l1.5,0.5l1.5-0.5c1.662,2.556,2.686-3.902,6-3L719.167,921.5z"/>
		<path class="st83" d="M721.5,957.5l1.5,0.5c0.826,2.826-1.409,2.591-1,5c-1.78-0.598-4.153,2.931-5,0l0.5-1.5L716,962c0-1,0-2,0-3
			l0.5-1.5L715,958c0-0.333,0-0.667,0-1l2.167,0.167L719,956c1,0,2,0,3,0L721.5,957.5z"/>
		<path class="st83" d="M701.5,958.5l0.5,1.5c-2.208,2.627-2.367,6.373-6,3l1.333-1L696,961c0-0.333,0-0.667,0-1l1.167-1.833
			L697,956c1.44-0.227,0.349-2.984,2-3l1.071,1.786L702,954c0.891,0.443,1.788,0.878,2,2h-1v1c0,0.667,0,1.333,0,2L701.5,958.5z"/>
		<path class="st83" d="M660.25,954.25L660,956c-0.667,0-1.333,0-2,0l0.5-1.5L658,953c0.333,0,0.667,0,1,0
			c-3.354-0.563-16.578,3.625-15-9l1.5-0.5L645,942c4.311,0.356,7.267,2.066,9,5c-0.827-0.606-0.173-7.972-1-10
			c4.282-2.616,9.484,5.6,6,11c2.349-3.985,6.634-6.033,11-8l0.5,1.5l1.5-0.5c0.511,4.178-0.558,6.775-2,9l-1.5-0.5l0.5,1.5
			c-1.926,1.407-4.023,2.643-7,3L660.25,954.25z"/>
		<path class="st83" d="M653.5,956.5l1.5,0.5c9.495-0.828,14.412,2.922,17,9c-7.224,0.557-13.166-0.167-15-5
			c-2.944,1.723-2.838,6.496-9,5c-3.698,0.856-0.162-4.477,0-6c-0.443-1.453-0.878,0.102-2,0l-0.7-1.7L644,957
			c0.122-2.545,1.455-3.878,4-4c0.426,4.133,0.25,1.641,6,2L653.5,956.5z"/>
		<path class="st83" d="M79.5,957l0.5,1c-1.545,0.013,3.292,7.241,1,8c-2.465,0.132-4.818,0.151-6-1l0.5-1.5L75,962
			c3.142-0.697-3.892-4.553-1-5l2.167,0.167L76,955c1.419-0.086,2.832-0.165,3,1L79.5,957z"/>
		<path class="st83" d="M66.5,958.5L66,957c2.656,0.01,5.711-0.378,7,1c-1.628,6.705-7.704,8.963-17,8c1.242-4.425,4.916-6.417,9-8
			L66.5,958.5z"/>
		<path class="st83" d="M37,962v1c-0.89-0.443-1.789-0.878-2-2l1.5-1.167L36,958c0.89-0.776,2.258-1.075,4-1
			c0.553-1.78,0.514-4.153,2-5c2.09,0.423,2.648-0.686,4-1l0.7,1.7L48,954c0,0.333,0,0.667,0,1l-0.5,1l0.5,1
			c-1.889,0.111-0.694,3.306-3,3l-0.5-1.5L44,960c-1.778,0.889-2.542,2.792-6,2H37z"/>
		<path class="st83" d="M32,959l1,2l-1.5-2l1.5-2c0.851-0.184,0.943,0.39,1,1L32,959z"/>
		<path class="st83" d="M13.5,958.5L14,959c-1.999,1.334-0.13,6.536-5,5c-3.781-0.945,1.874-6.239-2-2c-1.151-0.325-3.443-4.362-1-5
			l1.5,0.5L7,956c0.667,0,1.333,0,2,0l1.75,1.5L13,957c0,0.333,0,0.667,0,1L13.5,958.5z"/>
		<path class="st83" d="M11.5,937.5L10,938c-3.415-0.252-2.036-5.297-5-6c0.803-2.53,4.117-2.55,6-4c-3.155-2.179-3.725-6.941-5-11
			c1,0,2,0,3,0v2h2c1.382,2.951,4.618,4.049,6,7l-0.5,1.5L18,927c-0.044,1.71,0.743,2.59,2,3v1h1c0.534,1.44-3.897,2.44-1,3
			l-0.333,2.667L22,938c-0.839,1.161-1.319,2.681-1,5l-2,0.25L17,943c-0.333,0-0.667,0-1,0l0.5-1.5L15,942c0-0.333,0-0.667,0-1
			l1.5-0.5L15,940c0.292-0.613,2.487-3.85,0-4c1.004,3.338-1.388,3.279-4,3L11.5,937.5z"/>
		<path class="st83" d="M11.5,917.5L10,917c-1.221-1.62-4.548-10.082-2-9l0.5,1.5L10,909c3.558-0.225,5.992,0.675,7,3l-1.5,1.167
			L16,915c-0.851-0.184-0.943,0.39-1,1l-2.5,0.5L12,919c-0.333,0-0.667,0-1,0L11.5,917.5z"/>
		<path class="st83" d="M9.833,86.5L8,87c1.083-8.583-2.323-21.656,2-27c3.637,0.999,1.915,7.413,2,12
			c0.107,5.778,0.763,12.364-1,16L9.833,86.5z"/>
		<path class="st83" d="M23.5,916.5L23,915c2.223-0.777,3.899-2.101,7-2l-0.5,1.5L31,915c-0.777,0.89-1.075,2.258-1,4
			c1.233,1.489,3.036-4.906,7-4l-0.5,1.5L38,917c3.548,2.016-3.201,7.331-1,8l-0.5,1.5L37,928c-0.873,1.742-3.347,3.852,0,2
			l1.167,1.5L40,931c1.669,2.246,8.611,1.345,8-2l1.5-0.5L49,927c4.429-0.43,6.333,1.668,7,5c-3.059-0.726-2.941,1.726-6,1
			c0.354,1.313,1.761,1.573,2,3l-1.5,1.167L51,939c-0.667,0-1.333,0-2,0l-1.5-0.5L48,940c-4.665-0.708-4.665,1.708,0,1l1.5,0.5
			L49,940c2.09-0.424,2.648,0.686,4,1l-0.5,1.833L54,944c-0.31,1.357-2.504,0.83-4,1c0.19,0.81,1.003,0.997,1,2l-1.75,1l1.75,1
			c0.163,1.162-0.221,1.779-1,2c-0.19-1.135-1.003-0.556-1,0l-1.5-0.5L46,950c-1.862-3.589-4.459-5.508-9-4l0.5-1.5L36,944
			c0-1.667,0-3.333,0-5c-2.549-3.354-5.833-0.028-8-3l0.5-1.833L27,933c0.297-2.036,2.003-2.664,3-4c-2.465-0.132-4.818-0.151-6,1
			v-1h-1c-4.272-0.525,0.503-10.855-3-5l-1.5-0.5L18,925c-1.44-0.56-2.44-1.56-3-3l2.333-1.333L17,918c0-0.333,0-0.667,0-1l1.5,0.5
			L20,918c1.086-0.247,0.678-1.988,2-2L23.5,916.5z"/>
		<path class="st83" d="M38.5,925.5L38,924c2.556-4.682,10.782-2.711,15-1c-0.905,1.762-3.681,1.652-4,4l-1.5,0.5L48,929
			c-2.194,1.14-4.086,2.581-8,2l0.5-1.833L39,928c0.184-0.851-0.39-0.943-1-1L38.5,925.5z"/>
		<path class="st83" d="M61.5,950.5L60,951c-2.842-0.868-5.515-7.094-3-10h1v-1c3.325,2.342,8.71,2.623,10,7
			c-0.269-3.811,0.997-9.721,6-11c1.963,1.387,1.22,8.486,0,10c3.33-1.337,5.219-4.114,10-4l-0.5,1.5L85,944
			c-1.648,2.352-0.314,7.686-4,8l-1.5-0.5L80,953c-2.409-0.409-2.174,1.826-5,1c0.104-1.836-5.193-3.935-6-1l-1.5-0.5L67,954
			c-3.146,0.479-3.909-1.424-6-2L61.5,950.5z"/>
		<path class="st83" d="M670.5,952.5L670,951c1.333,0,2.667,0,4,0l-0.5,1.5l1.5-0.5c0,1.333,0,2.667,0,4l-1-0.5l-1,0.5
			c-2.555-0.445-4.598-1.402-6-3c0.81-0.19,0.997-1.003,2-1L670.5,952.5z"/>
		<path class="st83" d="M675,950h-1c-0.184-0.851,0.39-0.943,1-1V950h1c0.184,0.851-0.39,0.943-1,1V950z"/>
		<path class="st83" d="M677,948h-1c0.443-0.891,0.878-1.788,2-2c-1.463-1.87-5.487-1.18-5-5c1.834,1.926,3.386-0.853,5-2l1.5-2.5
			L677,935c0.19-0.81,1.003-0.997,1-2l1.833,0.5L681,932c2.667,0,5.333,0,8,0l1,0.5l1-0.5c0.903,2.709,2.237-2.286,4-2v1h1
			c3.552-1.88,5.758,0.876,9,2l-1.5,1.167L704,936c-5.836,1.879-11.865-0.697-12,8l-1.5,0.5l0.5,1.5c-3.915-1.82-8.748,0.257-8,6
			l-1.833-0.5L680,953c-2.055-0.279-1.996-2.671-3-4V948z M685,940c-1.453,0.547-5.169-1.169-5,1
			C681.453,940.453,685.169,942.169,685,940z"/>
		<path class="st83" d="M679.167,931.5L678,933c-3.146,0.479-3.909-1.424-6-2c0.73-2.543,6.592-6.229,8-2l-0.5,1.5l1.5-0.5
			c0,0.667,0,1.333,0,2L679.167,931.5z"/>
		<path class="st83" d="M682.5,928.5L681,929c-0.358-2.699-6.499-4.758-5-6c3.069-2.044,10.24-3.15,13,0l-0.5,1.5l0.5,1.5
			c-1.453,0.443,0.102,0.878,0,2l-0.5,1.5l0.5,1.5c-2.656-0.01-5.711,0.378-7-1L682.5,928.5z"/>
		<path class="st83" d="M694.167,923.5L693,925c-3.223-1.11-3.163-5.503-3-10l1,0.5l1-0.5c2.375,0.625,4.655,1.345,5,4l-0.5,1l0.5,1
			c-1.172,0.161-0.844,1.823-1,3L694.167,923.5z"/>
		<path class="st83" d="M698.5,923.5L698,922c2.964-1.453-1.317-3.9,0-7l1.5-0.5L699,913c2.409-0.409,2.174,1.826,5,1l0.5,1.5
			l1.5-0.5c3.116,2.163,1.743,7.273,1,11l-1.5,0.5l0.5,1.5c-0.333,0-0.667,0-1,0h-1.667L702,927c-0.437-1.23-1.279-2.054-3-2
			L698.5,923.5L697,924c0-0.333,0-0.667,0-1L698.5,923.5z"/>
		<path class="st83" d="M704.5,52.5L704,54c-2.826-0.826-2.591,1.409-5,1l0.5-1.5L698,53c-0.802-3.469,1.489-3.844,1-7l1.5,0.5
			L700,45c-0.729-2.729,1.987-2.013,2-4l0.5-1l-0.5-1c0.805-0.529,1.623-1.043,3-1l-0.5,1.5L706,40c0.333,0,0.667,0,1,0l-0.5,1
			l0.5,1c-0.489,3.156,1.802,3.531,1,7l-1.5,0.5L708,50c-0.354,1.313-1.761,1.573-2,3L704.5,52.5z"/>
		<path class="st83" d="M697,48h1c-1.049,2.617-2.877,4.457-6,5l-1-0.5l-1,0.5c0.119-2.881-0.546-6.546,1-8
			c-1.878,1.072-11.35,3.403-16,0c5.636-1.698,4.959-9.708,14-8l1.5,0.5L691,36c0.955,1.712,3.318,2.015,4,4l-0.5,1.5L696,41
			c0.575,1.758-1.209,5.875,1,6V48z"/>
		<path class="st83" d="M690,35.5l-1,0.5c-2.667,0-5.333,0-8,0l-1.167-1.5L678,35c-0.19-0.81-1.003-0.997-1-2l2.333-1.333L679,29
			l1.5,0.5L680,28c5.71,0.701,5.71-1.701,0-1l-1.5-0.5L679,28c-3.141,1.664-4.086-3.719-5-1c-2.498-1.292,1.058-4.848,4-4
			c-0.354-1.313-1.761-1.573-2-3h1v-1c1.004-1.593,0.945-4.024,3-2l1.167,1.5L683,18c0.498,4.059,4.521,5.699,8,4l-0.5,1.5L692,24
			c0,0.667,0,1.333,0,2l-2.5-0.5L690,28c-5.765-1.267-0.327,3.419,0,1l1.5,0.5L692,28c3.886,3.339,5.601,2.761,11,4l-0.5,1.833
			L704,35c-2.708,1.491-4.527,3.865-8,2h-1v1c-1.763,0.286-3.097-4.709-4-2L690,35.5z"/>
		<path class="st83" d="M679.167,36.5L681,36c0.609,6.978-6.687,4.898-9,2c-0.364-3.364,4.333-1.667,6-3L679.167,36.5z"/>
		<path class="st83" d="M660.5,15.5L661,14c6.058-0.058,8.25,3.75,11,7c0,2,0,4,0,6l-1.5-0.5L670,28c-3.617-2.383-9.161-2.839-10-8
			c0.051,3.978,0.063,12.293-7,12c2.538-2.597-2.309-8.118,2-10c-2.063-1.344-5.062,4.9-10,4l0.5-1.5L644,24
			c-1.202-11.382,9.457-9.183,15-9L660.5,15.5z"/>
		<path class="st83" d="M79.5,16.5L81,16c2.576,0.758,3.475,3.192,3,7l-0.5,1.5L84,26c-4.423,0.09-7.217-1.45-9-4
			c-1.092,0.515,0.733,6.534,0,10c-4.891-0.861-8.76-5.508-6-11c-2.664,3.336-6.723,5.277-11,7v-1h-1c-1.75-3.672-0.371-8.603,3-10
			l1.5,0.5L61,16c1.869-0.798,3.663-1.671,6-2l0.5,1.5L69,15c1.152,4.574,4.72-2.446,6,2c-0.969-4.844,2.896-2.314,5-2L79.5,16.5z"
			/>
		<path class="st83" d="M51,20h1c-0.443,0.89-0.878,1.789-2,2c0.257,2.077,4.394,0.273,5,2c0.144,3.144-2.564,3.436-5,4
			c-0.184,0.851,0.39,0.943,1,1l-0.5,1.833L52,32c-0.354,1.313-1.761,1.573-2,3l-1.5-0.5L48,36c-2.667,0-5.333,0-8,0l0.5-1.5L39,34
			c0.19-0.81,1.003-0.997,1-2l-0.5-1L39,30c0.333,0,0.667,0,1,0c2.483-1.736,1.635-2.585-1-1c-0.319-2.319,0.161-3.839,1-5l1.5,0.5
			L41,23c1.977-1.356,4.653-2.013,5-5l1.5,0.5L49,18c1.23-1.117,2.054-0.871,2,1V20z M48,27C41.595,25.846,45.804,30.055,48,27
			L48,27z"/>
		<path class="st83" d="M49.5,36.5L50,35c3.059-0.725,2.941,1.725,6,1c-0.667,3.333-2.571,5.429-7,5l0.5-1.5L48,39
			c-1.2-1.313-0.39-1.573,0-3L49.5,36.5z"/>
		<path class="st83" d="M47.5,40.5L49,41c0.87,1.464,1.497,3.169,4,3c-2.928,3.638-12.284,4.132-15,0l0.5-1.5L38,41
			c1.454-0.443-0.102-0.878,0-2l1.5-0.5L39,37c4.178-0.511,6.776,0.558,9,2L47.5,40.5z"/>
		<path class="st83" d="M36.5,41.5L37,43c-1.416,1.373,4.212,5.292,1,9l-1.5-0.5L36,53c-3.511,0.178-3.289-3.378-6-4
			c-0.826,2.826,1.409,2.591,1,5l-1.5-0.5L30,55c-2.981,0.887-6.089-3.117-7-1l-1.3,1.3L21,57c-1.23-0.437-2.054-1.28-2-3
			l1.357-3.071L17,51c-0.027-0.973-1.224-0.776-2-1l-0.5-1.5L13,48c1.242-2.092,2.908-3.758,5-5l0.5,1.5L20,44
			c3.543,5.386-0.895-2.418,2-4l0.5,1.5L24,41c3.14-0.473,2.642,2.691,5,3c0.55-2.217-1.91-1.424-2-3l1.5-0.5L28,39
			c2.337-0.329,4.131-1.202,6-2v1h1c0.89,0.443,1.789,0.878,2,2L36.5,41.5z"/>
		<path class="st83" d="M12.5,56.833L14,58c-0.904,2.096-5.645,0.355-6,3c-2.319-1.742-0.08-7.346,2-8l0.5,1.5L12,55
			c0.333,0,0.667,0,1,0L12.5,56.833z"/>
		<path class="st83" d="M9,49v2c-1,0-2,0-3,0c1.646-3.354,0.924-9.076,5-10c-1.603-1.73-3.737-2.929-6-4
			c2.142-1.858,1.805-6.195,5-7l1.5,0.5L11,29c1.333,0,2.667,0,4,0c0,1,0,2,0,3l-1.5,0.5L15,33c-1.56,2.121-4.421,3.899,0,2l0.5,1.5
			L16,38c1.056,1.61,3.963-1.628,2,3l-1.5-0.5L17,42c-1.382,2.951-4.618,4.049-6,7H9z"/>
		<path class="st83" d="M7.5,10.5L6,11C2.549,9.026,8.556,5.009,7,6c1.975-1.258,3.353-3.577,5-1l-0.5,1.5L13,6c0,1,0,2,0,3
			l-2.75,0.5L9,12c-0.667,0-1.333,0-2,0L7.5,10.5z"/>
		<path class="st83" d="M35.75,8L36,6c-0.184-0.851,0.39-0.943,1-1v1h1c3.458-0.792,4.222,1.112,6,2l0.5,1.5L45,8
			c2.306-0.306,1.111,2.889,3,3v1h1c-0.19,0.81-1.003,0.997-1,2l-1.3,1.3L46,17c-3.19-0.81-6.271-1.729-6-6c-0.667,0-1.333,0-2,0
			l0.5-1.5L37,10c-0.333,0-0.667,0-1,0L35.75,8z"/>
		<path class="st83" d="M44.5,7.5L44,8c0.534-1.44-3.897-2.44-1-3c1.23,0.437,2.054,1.28,2,3L44.5,7.5z"/>
		<path class="st83" d="M681,11c-0.173-2.506,2.239-2.428,3-4l0.5,1.5L686,9c0.667,0,1.333,0,2,0l-0.5,1.5L689,11
			c-2.166,1.5-0.948,6.385-6,5l-1.167-1.5L680,15c0-1,0-2,0-3l1.5,0.5L681,11z"/>
		<path class="st83" d="M683,959c-1.701,0.368-1.887-0.78-2-2l0.5-1.5L680,956c0-1,0-2,0-3l1.833,0.5L683,952
			c5.052-1.385,3.834,3.499,6,5l-1.5,0.5l0.5,1.5c-0.667,0-1.333,0-2,0l-1.5-0.5L683,959z"/>
		<path class="st83" d="M16,11c3.887,0.779,7.614,1.719,10,4v2v2c-1.314,1.02-3.686,0.98-5,2l-0.5-1.5L19,19
			c-1.686-1.647-4.494-2.173-6-4c1.163,0.163,1.779-0.221,2-1l1.357-1.214L16,11z"/>
		<path class="st83" d="M37,22c0.333,0,0.667,0,1,0l-0.5,1.5L39,24c0.184,0.851-0.39,0.943-1,1l-0.5-1.5L37,22z"/>
		<path class="st83" d="M702,16c2.709-1.292,3.555-4.445,8-4l-0.5,1.833L711,15c0.247,1.086,1.988,0.678,2,2
			c-2.503-0.169-3.131,1.536-4,3l-1.5-0.5L707,21c-1.904-0.429-2.513-2.154-5-2l-0.5-1.5L702,16z"/>
		<path class="st83" d="M17.5,27L16,25c0-0.333,0-0.667,0-1l1.5,0.5L17,23c0.81-0.19,0.997-1.003,2-1l0.5,1.5L21,24
			c0.132,2.465,0.151,4.818-1,6c0.851-0.184,0.943,0.39,1,1l-1.5,1.167L20,34c-0.333,0-0.667,0-1,0l-0.167-2.167L17,33l0.5-1.5
			L16,32c0-1,0-2,0-3L17.5,27z"/>
		<path class="st83" d="M709.5,23.5L710,22c0.851-0.184,0.943,0.39,1,1l-0.5,1.5L712,24c0,0.333,0,0.667,0,1l-1.167,1.833L713,27
			c0,0.667,0,1.333,0,2l-2,0.25l1,1.75c0,0.667,0,1.333,0,2l-1.833-0.5L709,34c-0.89,0.777-2.258,1.075-4,1l0.5-1.833L704,32
			c1.035-3.025,3.965-3.439,5-4c-2.169,0.168-0.453-3.547-1-5L709.5,23.5z"/>
		<path class="st83" d="M26.5,33.833L26,32c4.678-0.171,3.322-2.572,8-1c0.354-1.313,1.761-1.573,2-3l1,0.5l1-0.5
			c0,0.333,0,0.667,0,1l-1,2l2,1c-0.013,1.987-2.729,1.271-2,4l-1.5-0.5L34,36c-1.869,0.798-3.663,1.671-6,2
			c1.555-3.555-3.396-0.604-3-3L26.5,33.833z"/>
		<path class="st83" d="M710.5,34.5L709,34L710.5,34.5L711,36c-0.333,0-0.667,0-1,0L710.5,34.5z"/>
		<path class="st83" d="M20.5,948.5L22,948c2.09-0.424,2.648,0.686,4,1v2v2c-2.682,2.318-6.41,3.59-11,4l0.5-1.833L14,954
			c-2.671-3.172,4.94-2.464,5-6L20.5,948.5z"/>
		<path class="st83" d="M703.5,950.5L703,949c1.479-0.521,2.521-1.479,4-2l0.5,1.5l1.5,0.5c1.896,1.647,5.525,2.173,2,4l-1.5,1.167
			L710,956c-4.351,0.684-5.535-1.799-7-4L703.5,950.5z"/>
		<g>
			<path class="st151" d="M65,12c0.883,0.292,2.235,0.602,3.5,1.5"/>
			<path class="st137" d="M68.5,13.5c0.667,0,1.333,0,2,0"/>
			<path class="st114" d="M70.5,13.5c1.745-0.572,3.779-0.287,5-2"/>
			<path class="st148" d="M83.167,9.5c1.642-2.023,2.844-4.537,5.317-5.714C272.433,3.322,456.598,3.284,640.5,3.805
				c2.357,1.266,3.058,3.947,4.716,5.821c1.243,0.436,2.753,0.758,3.784,1.374"/>
			<path class="st132" d="M670.5,3.5c0.667,0.333,1.333,0.667,2,1"/>
			<path class="st106" d="M672.75,4.75c1.757-0.21,5.306-3.417,5.75-0.25"/>
			<path class="st73" d="M678.5,4.5c2.591-1.105,5.836-1.526,8.5-0.5"/>
			<path class="st89" d="M687,4c2.283,1.607,5.37-1.919,7,0.5"/>
			<path class="st118" d="M701.5,9.5c3.872-4.341,10.042-7.085,15.5-3.5"/>
			<path class="st41" d="M718.5,25.5c0.107,0.271,0.216,0.542,0.324,0.813c-0.217,0.913-1.179,2.578-2.324,4.187"/>
			<path class="st8" d="M718,911.5c0.943,3.224-3.722,3.457-3.333,6.5"/>
			<path class="st106" d="M714.667,918c2.109-0.036,3.128-0.678,4.853-0.181c0.338,1.146-0.181,2.529-0.353,3.681"/>
			<path class="st70" d="M718.5,942.5c4.055,3.715,6.73,9.839,3,15"/>
			<path class="st95" d="M671.5,960.5c-3.342-2.862-7.521-4.244-11.25-6.25"/>
			<path class="st15" d="M75.5,963.5c-0.994-0.558-1.147-0.997-1.5-1.5"/>
			<path class="st124" d="M65,956c0.292,0.649,0.838,1.618,1.5,2.5"/>
			<path class="st145" d="M56.5,960.5c-0.638,2.184-2.526,3.631-4.5,4.5"/>
			<path class="st150" d="M36.5,959.833c-1.254-0.221-2.751-0.372-4.5-0.833"/>
			<path class="st143" d="M26.5,959.5c-2.603,2.806-5.933,4.639-10,4"/>
			<path class="st74" d="M9,943.5c-0.247-1.046-0.314-1.816-0.162-2.532c0.221-0.156,0.441-0.312,0.662-0.468"/>
			<path class="st124" d="M9.5,940.5c0.643-1,1.22-2,2-3"/>
			<path class="st102" d="M9,919c0.936-0.641,1.684-1.024,2.5-1.5"/>
			<path class="st1" d="M8.5,909.5c0.238-0.333,0.476-0.667,0.713-1c1.198-273.573-0.04-548.07,0.62-822"/>
			<path class="st109" d="M17.5,915.5c1.356-0.871,2.643-1.667,3.857-2.286"/>
			<path class="st133" d="M21.357,913.214c0.739-0.794,1.563-1.534,2.143-2.714"/>
			<path class="st30" d="M21.357,913.214c0.546,0.69,1.172,2.051,2.143,3.286"/>
			<path class="st28" d="M31.5,913.5c-0.667,0.12-1.333,0.553-2,1"/>
			<path class="st111" d="M36.5,916.5c0.572-0.572,1.249-1.249,2-2"/>
			<path class="st107" d="M36.5,926.5c0.667-0.333,1.333-0.667,2-1"/>
			<path class="st132" d="M47.5,927.5c0.667,0.333,1.333,0.667,2,1"/>
			<path class="st25" d="M54.5,951.5c2.405-0.957,3.682,1.196,5.501,1.346c0.289-0.548,0.838-1.497,1.499-2.346"/>
			<path class="st21" d="M58,941c-0.451-0.883-0.432-2.235-0.5-3.5"/>
			<path class="st142" d="M83.5,943.5c0.821-0.292,1.61-0.838,2.5-1.5"/>
			<path class="st126" d="M83.167,958.5c1.672,2.012,2.987,4.486,5.367,5.756c183.943,0.366,368.079,0.488,551.966-0.061
				c2.107-1.208,3.026-3.46,4.3-5.384c0.167-0.171,0.334-0.341,0.5-0.512"/>
			<path class="st114" d="M653.5,956.5c1.169-1.721,3.346-1.206,5-2"/>
			<path class="st142" d="M643,942c0.821,0.672,1.61,0.991,2.5,1.5"/>
			<path class="st30" d="M670.5,941.5c0.473-1.218-0.042-2.36,0-4"/>
			<path class="st124" d="M673.5,952.5c0.672-1.029,0.991-1.771,1.5-2.5"/>
			<path class="st151" d="M675,950c0.387-0.947,1.272-1.395,2-2"/>
			<path class="st39" d="M676.5,937.5c0.75-0.306,1.806-0.646,3-1"/>
			<path class="st136" d="M688.5,924.5c1.663,0.734,2.556,2.716,4.438,3.021c0.434-0.142,0.995-0.574,1.563-1.021"/>
			<path class="st137" d="M694.5,926.5c0.02-1-0.152-2-0.333-3"/>
			<path class="st96" d="M689.5,914.5c0.879,0.149,1.153,0.618,1.5,1"/>
			<path class="st78" d="M696.5,920c0.168,0.049,0.335,0.098,0.503,0.147c0.287,0.755,0.6,2.106,1.497,3.353"/>
			<path class="st119" d="M697,913c0.821,0.672,1.61,0.991,2.5,1.5"/>
			<path class="st13" d="M706.333,912.667c-0.97-1.174-2.069-2.614-2.333-3.667"/>
			<path class="st44" d="M706.333,912.667c1.528,0.967,1.818,3.032,3.834,3.5"/>
			<path class="st37" d="M710.167,916.167c1.898-2.341,4.271-5.887,7.833-4.667"/>
			<path class="st129" d="M718,911.5c0.223-0.149,0.446-0.299,0.669-0.448C717.94,627.115,719.279,339.875,718,56.5"/>
			<path class="st133" d="M718,56.5c-3.673,1.371-6.189-2.076-7.5-5"/>
			<path class="st40" d="M710.5,51.5c-2.158,0.528-2.484,2.767-4.167,3.833"/>
			<path class="st11" d="M706.333,55.333c-0.28,1.543-2.19,2.056-2.333,3.667"/>
			<path class="st102" d="M706.333,55.333c-0.871-1.167-1.267-1.927-1.833-2.833"/>
			<path class="st119" d="M697,55c0.821-0.671,1.61-0.991,2.5-1.5"/>
			<path class="st151" d="M698,45c-0.371,0.962-0.517,2.15-1,3"/>
			<path class="st96" d="M689.5,53.5c0.879-0.149,1.153-0.618,1.5-1"/>
			<path class="st75" d="M690.5,37.5c-0.273-0.667-0.391-1.333-0.5-2"/>
			<path class="st76" d="M679.833,34.5c-0.222,0.667-0.444,1.333-0.666,2"/>
			<path class="st123" d="M676.5,30.5c1.009,0.39,1.81,0.706,2.833,1.167"/>
			<path class="st124" d="M680.5,29.5c-0.643-1-1.22-2-2-3"/>
			<path class="st132" d="M659.5,13.5c0.333,0.667,0.667,1.333,1,2"/>
			<path class="st27" d="M670.5,30.5c0.111-1.714,0.555-2.531,0-4"/>
			<path class="st52" d="M642,26c0.861-0.099,2.09-0.912,3.5-1.5"/>
			<path class="st103" d="M83.167,9.5c0.541,2.933-2.708,4.53-3.667,7"/>
			<path class="st65" d="M83.5,24.5c1.034,0.696,1.43,1.105,2,1.5"/>
			<path class="st117" d="M57.5,30.5c-0.079-1.413,0.085-2.582,0.5-3.5"/>
			<path class="st18" d="M54.5,16.5c-1.019,1.334-1.907,2.796-3.5,3.5"/>
			<path class="st41" d="M50.5,30.833c1.168-0.453,1.88-0.927,2.5-1.333"/>
			<path class="st132" d="M48.5,34.5c0.333,0.667,0.667,1.333,1,2"/>
			<path class="st132" d="M49.5,39.5c-0.667,0.333-1.333,0.667-2,1"/>
			<path class="st52" d="M36.5,51.5c0.721,1.218,1.331,1.382,2,2"/>
			<path class="st117" d="M31.5,54.5c-0.667-0.12-1.333-0.552-2-1"/>
			<path class="st19" d="M23.5,57.5c-0.464-0.915-1.103-1.562-1.8-2.2"/>
			<path class="st50" d="M26.214,6.643c0.996-0.778,2.449-1.52,3.676-1.441C31.171,6.075,30.861,7.77,31.5,9"/>
			<path class="st19" d="M31.5,9c1.565-0.287,3.469-0.67,4.25-1"/>
			<path class="st30" d="M35.75,8c-0.533-0.649-0.971-1.618-1.25-2.5"/>
			<path class="st56" d="M37,6c0.115-0.219,0.229-0.437,0.344-0.655c4.125-2.64,12.213-3.793,13.822,2.489"/>
			<path class="st138" d="M51.167,7.833C51.702,8.043,52.998,8.405,54,9"/>
			<path class="st30" d="M54,9c0.649-0.292,1.618-0.838,2.5-1.5"/>
			<path class="st9" d="M56.5,7.5c-0.742-2.091-2.533-4.327-5-4"/>
			<path class="st112" d="M56.5,7.5c2.711,1.685,5.308,3.92,8.5,4.5"/>
			<path class="st124" d="M65,12c0.292-0.649,0.838-1.618,1.5-2.5"/>
			<path class="st127" d="M66.5,9.5c-1-0.643-2-1.22-3-2"/>
			<path class="st55" d="M44.5,7.5c0,0.667,0,1.333,0,2"/>
			<path class="st85" d="M677.5,7.5c0.56,2.235,2.093,3.847,4,5"/>
			<path class="st135" d="M687,4c-1.463,1.122-2.344,3.23-2.5,4.5"/>
			<path class="st6" d="M684.5,8.5c2.121-0.997,4.766-3.273,7-1"/>
			<path class="st5" d="M702,13c4.24-3.532,10.145-4.294,15.5-3"/>
			<path class="st151" d="M716.5,957.5c-4.336,2.271-9.51,0.803-13.5-1.5"/>
			<path class="st98" d="M701.5,958.5c3.701,4.637,10.806,7.231,16,3"/>
			<path class="st130" d="M687,964c2.191-1.101,4.147,0.572,6.355,0.335c1.126-1.08,2.087-2.591,3.978-2.335"/>
			<path class="st121" d="M679,964c2.559,0.427,5.599,1.649,8,0"/>
			<path class="st58" d="M687,964c-1.256-1.521-4.631-3.268-2.5-5.5"/>
			<path class="st43" d="M671.5,7.5c1.412,0.822,2.582,0.948,3.5,1.5"/>
			<path class="st10" d="M675,9c0.821-0.671,1.61-0.991,2.5-1.5"/>
			<path class="st142" d="M677.5,7.5c0.458-1.038,0.81-1.85,1-3"/>
			<path class="st45" d="M10.25,9.5c5.759-0.365,11.389-0.222,16.25,3"/>
			<line class="st33" x1="26.5" y1="12.5" x2="26.5" y2="12.5"/>
			<path class="st128" d="M26.5,12.5c-0.066-1.951,0.2-3.942-0.286-5.857"/>
			<path class="st125" d="M26.214,6.643C21.664,5.208,15.669,2.38,11.5,6.5"/>
			<path class="st48" d="M66.5,9.5c1.366,0.552,2.742,0.4,3.704-0.213C70.081,5.73,65.729,3.37,62.5,3.833"/>
			<path class="st65" d="M653.5,11.5c1.448,1.804,3.965,1.498,6,2"/>
			<path class="st111" d="M659.5,13.5c4.232-1.284,8.444-3.116,12-6"/>
			<path class="st107" d="M671.5,7.5c0.377-0.768,0.798-1.699,1.25-2.75"/>
			<path class="st75" d="M26.5,12.5c1.557-0.452,3.083-0.418,4.375-0.5"/>
			<path class="st23" d="M30.875,12c0.077-0.962,0.339-2.15,0.625-3"/>
			<path class="st7" d="M687.5,10.5c1.507-0.135,3.201-1.298,4.667-2.667"/>
			<path class="st144" d="M51.167,7.833C50.252,9.35,49.762,11.26,48,12"/>
			<path class="st63" d="M54,9c0.652,2.419,0.497,4.984,0.5,7.5"/>
			<path class="st3" d="M54.5,16.5c2.405,0.957,3.682-1.196,5.501-1.345c0.289,0.548,0.838,1.497,1.499,2.345"/>
			<path class="st150" d="M681.167,18.5c0.247-1.333,0.344-2.667,0.666-4"/>
			<path class="st27" d="M675,9c-0.426,1.283-0.76,2.64-1,3.5"/>
			<path class="st54" d="M674,12.5c0,1.413,0,2.582,0,3.5"/>
			<path class="st79" d="M674,16c0.751,1.524,1.328,3.283,3,4"/>
			<path class="st13" d="M10.25,9.5c0.375,0.901,0.834,1.732,1.351,2.547c1.406,0.461,3.298,0.37,4.756,0.738"/>
			<path class="st62" d="M37.5,23.5c1.013-0.147,2.552,0.168,4,1"/>
			<path class="st39" d="M47.5,18.5c0.092-1.706-0.253-2.475-0.8-3.2"/>
			<path class="st2" d="M32.833,18.833c1.86,1.316,3.111,3.013,4.667,4.667"/>
			<path class="st140" d="M30.875,12c0.118,0.303,0.796,1.889,1.339,2.643"/>
			<path class="st108" d="M32.214,14.643c1.811-2.102,4.371-3.176,6.286-5.143"/>
			<path class="st85" d="M690.5,23.5c2.364-1.053,3.288-3.723,5.5-4.75"/>
			<path class="st75" d="M696,18.75c0.014-1.994,0.022-3.645-0.167-4.583"/>
			<path class="st101" d="M695.833,14.167c-0.728-0.016-1.139-1.264-2.333-1.667"/>
			<path class="st30" d="M695.833,14.167c0.409-0.766,0.966-1.746,1.667-2.667"/>
			<path class="st102" d="M68.5,13.5c-0.333,0.667-0.667,1.333-1,2"/>
			<path class="st66" d="M83.167,9.5c-1.276,0.145-2.612,1.109-3.667,1.5"/>
			<path class="st81" d="M697.5,11.5c0.768,1.902,1.388,2.708,3,4"/>
			<path class="st60" d="M700.5,15.5c0.986-1.319,1.287-1.78,1.5-2.5"/>
			<path class="st117" d="M702,13c-0.452-1.094-0.418-2.446-0.5-3.5"/>
			<path class="st25" d="M7.5,10.5c-0.694,1.012-1.178,1.58-1.77,2.202C4.849,17.153,5.361,21.511,9,24.5"/>
			<path class="st139" d="M9,24.5c2.806,0.806,5.95,0.661,8.5,2.5"/>
			<path class="st146" d="M17.5,24.5c-1.333-0.743-2.667-1.033-4-2"/>
			<path class="st82" d="M19.5,23.5c0.372-1.333,0.517-2.667,1-4"/>
			<path class="st14" d="M714.5,22.5c-1.333,0.743-2.667,1.033-4,2"/>
			<path class="st16" d="M710.833,26.833c2.099-1.588,5.227-1.795,7.667-1.333"/>
			<path class="st84" d="M718.5,25.5c4.089-3.606,6.369-9.866,3-15"/>
			<path class="st131" d="M717.5,10c-0.154,0.522-0.454,1.252-0.761,1.993c-2.013,1.621-4.908,0.821-7.239,1.841"/>
			<path class="st91" d="M26,17c1.469,2.186,4.632,1.311,6.833,1.833"/>
			<path class="st65" d="M32.833,18.833c0.322-0.955-0.126-2.756-0.619-4.19"/>
			<path class="st115" d="M26.5,12.5c0.609,1.341,0.261,3.044-0.5,4.5"/>
			<path class="st110" d="M674,12.5c-1.852-0.64-2.53,1.183-3.846,1.874c-0.224,0.593-0.092,1.099-0.014,1.627
				c0.778,0.465,2.14,0.46,3.215,0.345c0.215-0.115,0.43-0.23,0.645-0.346"/>
			<path class="st12" d="M696,18.75c1.736-0.123,4.164,0.21,5.5-1.25"/>
			<path class="st132" d="M701.5,17.5c-0.333-0.667-0.667-1.333-1-2"/>
			<path class="st52" d="M709.5,23.5c-0.642-1.405-1.359-2.537-2-4"/>
			<path class="st92" d="M702.5,33.833c1-0.214,2-0.407,3-0.667"/>
			<path class="st120" d="M37.5,23.5c0.049,1.692,0.085,3.398-0.5,5"/>
			<path class="st74" d="M9,24.5c-0.247,1.046-0.314,1.817-0.162,2.532C9.059,27.188,9.279,27.344,9.5,27.5"/>
			<path class="st0" d="M9.5,27.5c2.662-0.137,5.429,0.389,8-0.5"/>
			<path class="st117" d="M13.5,32.5c1.013,0.147,2.552-0.168,4-1"/>
			<path class="st124" d="M9.5,27.5c0.643,1,1.22,2,2,3"/>
			<path class="st113" d="M691.5,29.5c-0.3-1.333-0.979-2.667-2-4"/>
			<path class="st100" d="M714.5,30.5c-0.971-0.307-2.229-0.724-3.5-1.25"/>
			<path class="st142" d="M35.5,35.5c0.796,0.771,1.662,1.271,2.333,1.667"/>
			<path class="st138" d="M37.833,37.167c0.593-1.511,1.266-1.986,2.667-2.667"/>
			<path class="st149" d="M39.5,31c-0.833,0-1.667,0-2.5,0"/>
			<path class="st69" d="M15.5,36.5c0.667-0.547,1.333-0.781,2-1"/>
			<path class="st100" d="M17.5,35.5c0.477-1.537,0.907-2.668,1.333-3.667"/>
			<path class="st30" d="M34,38c0.292-0.649,0.838-1.618,1.5-2.5"/>
			<path class="st137" d="M26.5,33.833c-2.384-0.647-4.932,0.046-7-1.667"/>
			<path class="st94" d="M17.5,35.5c2.354,0.969,4.01,2.959,6.5,3.5"/>
			<path class="st34" d="M24,39c1.581,0.114,3.032,0.947,4.5,1.5"/>
			<path class="st62" d="M704.5,39.5c2.282-1.347,4.715-2.552,6-5"/>
			<path class="st137" d="M710.5,34.5c-0.04-0.667-0.185-1.333-0.333-2"/>
			<path class="st90" d="M695,37c0.448,1.219,2.051,1.282,2.5,2.5"/>
			<path class="st46" d="M697.5,39.5c1.707-0.091,3.262,0.79,5,0.5"/>
			<path class="st132" d="M37.833,37.167c0.342,0.445,0.997,0.889,1.667,1.333"/>
			<path class="st76" d="M709.75,41.75c0.583-0.194,1.167-0.389,1.75-0.583"/>
			<path class="st132" d="M712.5,36.5c-0.524-0.809-1.257-1.41-2-2"/>
			<path class="st107" d="M36.5,41.5c0.667,0.333,1.333,0.667,2,1"/>
			<path class="st30" d="M24,39c-0.292,0.649-0.838,1.618-1.5,2.5"/>
			<path class="st124" d="M697.5,39.5c0,0.333,0,0.667,0,1"/>
			<path class="st88" d="M697.5,40.5c0.466,1.457,0.563,2.965,0.5,4.5"/>
			<path class="st124" d="M698,45c0.649,0.292,1.618,0.838,2.5,1.5"/>
			<path class="st117" d="M697.5,40.5c-1-0.059-2,0.457-3,1"/>
			<path class="st115" d="M9,49c1.15,0.928,3.156,0.917,4.333,1"/>
			<path class="st17" d="M13.333,50c0.21-0.393,0.682-0.943,1.167-1.5"/>
			<path class="st86" d="M18.5,44.5c0.387-1.042,0.354-1.762,0.338-2.439c-0.543-0.334-1.491-0.886-2.338-1.561"/>
			<path class="st113" d="M710,49.5c0.144-1.023,0.664-1.817,1.1-2.6"/>
			<path class="st31" d="M711.1,46.9c-0.729-1.609-1.793-3.303-1.35-5.15"/>
			<path class="st115" d="M709.75,41.75c-0.658-0.513-2.02-0.655-3.25-0.75"/>
			<path class="st38" d="M714.5,49.5c1.654,0.222,3.354,1.491,5.021,0.68c0.336-1.146-0.183-2.529-0.354-3.68"/>
			<path class="st61" d="M718,56.5c1.323-3.764-5.446-3.383-3.5-7"/>
			<path class="st68" d="M714.5,49.5c-1.429-1.439-2.564-2.038-3.4-2.6"/>
			<path class="st53" d="M12.5,56.833c3.33-1.02,4.565-4.72,7.857-5.905"/>
			<path class="st105" d="M13.333,50c0.372,2.239-2.207,2.726-2.833,4.5"/>
			<path class="st75" d="M710.5,51.5c-0.273-0.667-0.391-1.333-0.5-2"/>
			<path class="st90" d="M710,49.5c-1.06,0-2.276,0-3.5,0"/>
			<path class="st100" d="M710.167,916.167c-0.661,1.765,0.229,3.444,1.583,4.583"/>
			<path class="st49" d="M711.75,920.75c1.24-0.736,2.31-1.935,2.917-2.75"/>
			<path class="st122" d="M17.5,915.5c-0.419-0.744-1.11-1.525-2-2.333"/>
			<path class="st42" d="M17.5,915.5c0.333,0.667,0.667,1.333,1,2"/>
			<path class="st26" d="M705.5,926.5c1.333,0.529,2.667,0.347,4,0"/>
			<path class="st102" d="M706.333,912.667c-0.871,1.166-1.267,1.927-1.833,2.833"/>
			<path class="st17" d="M711.75,920.75c-0.533,0.825-0.971,1.81-1.25,2.75"/>
			<path class="st86" d="M16.5,927.5c1.069-0.667,1.728-0.993,2.304-1.519c0.164-0.639-0.075-1.604-0.304-2.481"/>
			<path class="st134" d="M17.333,920.667c-2.187-0.624-3.929-2.049-4.833-4.167"/>
			<path class="st62" d="M694.5,926.5c1,0.701,2,0.764,3,1"/>
			<path class="st86" d="M697.5,927.5c0.338-1.218,0.418-2.36,1-4"/>
			<path class="st97" d="M20,931c1.232-1.038,2.554-1.398,4-2"/>
			<path class="st55" d="M697.5,927.5c0,0.333,0,0.667,0,1"/>
			<path class="st46" d="M697.5,928.5c1.957-0.083,3.827-0.746,5.833-0.5"/>
			<path class="st57" d="M688.5,929.5c1.438,0.93,1.328,1.854,1.5,3"/>
			<path class="st103" d="M703.333,928c2.521,1.563,5.101,3.406,7.667,5.25"/>
			<path class="st132" d="M711,933.25c0.536-0.388,1.02-1.062,1.5-1.75"/>
			<path class="st147" d="M19.667,936.667c2.464-2.221,5.811-1.963,8.833-2.5"/>
			<path class="st77" d="M40.5,929.167c-1.039,0.532-1.696,1.491-2.333,2.333"/>
			<path class="st97" d="M697.5,928.5c-0.857,0.81-1.88,1.453-2.5,2.5"/>
			<path class="st76" d="M679.167,931.5c0.222,0.667,0.444,1.333,0.666,2"/>
			<path class="st124" d="M682.5,928.5c-1,0.643-2,1.22-3,2"/>
			<path class="st75" d="M711,933.25c0.029,1.175-0.229,2.19-0.5,3.25"/>
			<path class="st80" d="M9.5,940.5c2.333,0,4.667,0,7,0"/>
			<path class="st40" d="M19,943.25c1.051,1.595,0.739,3.563,1.5,5.25"/>
			<path class="st91" d="M26,951c1.469-2.186,4.632-1.311,6.833-1.833"/>
			<path class="st87" d="M32.833,949.167c1.555-1.556,3.111-3.111,4.667-4.667"/>
			<path class="st67" d="M696,949.25c1.736,0.123,4.164-0.21,5.5,1.25"/>
			<path class="st77" d="M701.5,950.5c0.667,0,1.333,0,2,0"/>
			<path class="st93" d="M710,943c0.021-0.55,0.435-1.206,0.833-1.833"/>
			<path class="st47" d="M709.9,937.1c-2.565,0.132-3.849-2.723-6.4-2.933"/>
			<path class="st7" d="M52.5,942.833c1.518-0.77,1.802-2.145,1.656-3.029c-1.213-0.894-1.891-2.423-3.656-2.637"/>
			<path class="st124" d="M49.5,941.5c-0.643-1-1.22-2-2-3"/>
			<path class="st117" d="M9,943.5c2.452-0.731,5.227-0.609,7.5-2"/>
			<path class="st16" d="M710.833,941.167c2.099,1.588,5.226,1.795,7.667,1.333"/>
			<path class="st17" d="M718.5,942.5c0.288-0.584,0.318-0.995,0.336-1.397c-0.844-0.719-1.568-1.1-2.336-1.603"/>
			<path class="st32" d="M9,943.5c-3.62,3.626-5.636,9.975-1.5,14"/>
			<path class="st51" d="M10.75,957.5c0.184-0.529,0.519-1.044,0.86-1.559c1.072-0.338,2.579-0.439,3.89-0.774"/>
			<path class="st4" d="M19,943.25c-1.819,1.578-4.416,1.182-6.5,2.25"/>
			<path class="st104" d="M709.5,954.167c2.524,1.532,6.313-0.485,7.667,3"/>
			<path class="st71" d="M710,943c1.123,1.219,2.887,1.282,4.5,2.5"/>
			<path class="st132" d="M710,943c-1.05,1.713-1.417,3.745-2.5,5.5"/>
			<path class="st35" d="M46.7,952.7c0.492-0.3,0.614-1.225,0.8-2.2"/>
			<path class="st152" d="M32.833,949.167c0.643,1.774-0.597,3.384-0.833,5.083"/>
			<path class="st28" d="M32,954.25c0.649,0.533,1.618,0.971,2.5,1.25"/>
			<path class="st76" d="M681.167,951.5c0.222,0.667,0.444,1.333,0.666,2"/>
			<path class="st3" d="M690.833,958.167c1.399-1.675,3.331-2.895,5-4.334"/>
			<path class="st75" d="M695.833,953.833c0.182-0.922,0.149-2.704,0.167-4.583"/>
			<path class="st29" d="M696,949.25c-2.136-1.055-3.216-3.681-5.5-4.75"/>
			<path class="st138" d="M51.167,960.167c0.535-0.21,1.831-0.572,2.833-1.167"/>
			<path class="st63" d="M54,959c0.652-2.419,0.497-4.984,0.5-7.5"/>
			<path class="st78" d="M54.5,951.5c-1.234-1.797-2.696-3.865-5.25-3.5"/>
			<path class="st10" d="M675,959c0.821,0.672,1.61,0.991,2.5,1.5"/>
			<path class="st64" d="M677.5,960.5c0.56-2.234,2.093-3.848,4-5"/>
			<path class="st75" d="M27,955c1.321-0.044,2.61,0.342,4,0.75"/>
			<path class="st22" d="M31,955.75c0.333-0.5,0.667-1,1-1.5"/>
			<path class="st66" d="M79.5,957c1.081,0.641,2.441,1.28,3.667,1.5"/>
			<path class="st103" d="M83.167,958.5c0.541-2.934-2.708-4.529-3.667-7"/>
			<path class="st36" d="M68.5,954.5c2.637,0.944,5.944-0.337,7.667,2.667"/>
			<path class="st43" d="M671.5,960.5c1.412-0.822,2.582-0.948,3.5-1.5"/>
			<path class="st78" d="M675,959c-0.426-1.282-0.76-2.64-1-3.5"/>
			<path class="st124" d="M670.5,952.5c-0.643-1-1.22-2-2-3"/>
			<path class="st124" d="M54,959c0.649,0.292,1.618,0.838,2.5,1.5"/>
			<path class="st24" d="M56.5,960.5c2.959-1.229,5.159-4.172,8.5-4.5"/>
			<path class="st2" d="M65,956c0.883-0.292,2.235-0.602,3.5-1.5"/>
			<path class="st132" d="M68.5,954.5c-0.333-0.667-0.667-1.333-1-2"/>
			<path class="st122" d="M701.5,950.5c-0.467,0.972-0.901,2.6-1.429,4.286"/>
			<path class="st141" d="M13.5,958.5c4.763,0.662,8.983-0.702,13-3"/>
			<path class="st17" d="M26.5,955.5c0.167-0.167,0.333-0.333,0.5-0.5"/>
			<path class="st59" d="M27,955c0.147-0.798-0.168-2.501-1-4"/>
			<path class="st17" d="M692.1,960.1c1.586-0.912,3.456-1.08,5.067-1.933"/>
			<path class="st138" d="M697.167,958.167c-0.495-1.661-0.689-3.201-1.334-4.334"/>
			<path class="st2" d="M26.5,955.5c0,1.333,0,2.667,0,4"/>
			<path class="st20" d="M26.5,959.5c0.426,1.069,0.758,1.897,1.268,2.745c0.465,0.223,0.84,0.433,1.211,0.641
				c2.104,0,1.885-2.528,2.521-3.886"/>
			<path class="st116" d="M31.5,959c-0.369-0.922-0.435-2.192-0.5-3.25"/>
			<path class="st99" d="M37,962c0.115,0.219,0.229,0.438,0.344,0.655c2.954,2.001,7.324,2.253,10.856,1.545
				c1.321-1.102,2.568-2.292,2.966-4.033"/>
			<path class="st72" d="M51.167,960.167c-0.974-1.58-1.492-3.901-3.667-4.167"/>
			<path class="st117" d="M44.5,961.5c0-1.281,0-2.049,0-3"/>
			<path class="st30" d="M684.5,958.5c1.421,2.57,5.273,4.184,7.6,1.6"/>
			<path class="st102" d="M692.1,960.1c-0.408-0.487-0.836-1.205-1.267-1.933"/>
			<path class="st26" d="M690.833,958.167c-0.732-0.071-2.091-0.229-3.333-0.667"/>
			<path class="st2" d="M679,964c-0.571-1.171-0.87-2.084-1.5-3.5"/>
			<path class="st103" d="M671.5,960.5c1.2,2.545,4.822,5.835,7.5,3.5"/>
		</g>
	</g>
</g>
</svg>
