<?xml version="1.0" encoding="utf-8"?>
<!-- Generator: Adobe Illustrator 14.0.0, SVG Export Plug-In . SVG Version: 6.00 Build 43363)  -->
<!DOCTYPE svg PUBLIC "-//W3C//DTD SVG 1.1//EN" "http://www.w3.org/Graphics/SVG/1.1/DTD/svg11.dtd">
<svg version="1.1" xmlns="http://www.w3.org/2000/svg" xmlns:xlink="http://www.w3.org/1999/xlink" x="0px" y="0px" width="540px"
	 height="720px" viewBox="0 0 540 720" style="enable-background:new 0 0 540 720;" xml:space="preserve">
<style type="text/css">
<![CDATA[
	.st0{fill:#221E1F;}
]]>
</style>
<g id="Layer_2">
</g>
<g id="Layer_1">
	<path class="st0" d="M538.552,692.503l0.055-0.055h-0.109l-8.24-8.257l8.262-8.234l0.035-0.035l-8.297-8.314l8.243-8.303h0.104
		l-0.052-0.052l0.052-0.052H538.5l-8.243-8.26l8.262-8.234l0.035-0.035l-8.297-8.314l8.243-8.303h0.104l-0.052-0.052l0.052-0.052
		H538.5l-8.243-8.26l8.262-8.234l0.035-0.035l-8.297-8.314l8.243-8.303h0.104l-0.052-0.052l0.052-0.052H538.5l-8.243-8.26
		l8.262-8.234l0.035-0.035l-8.297-8.314l8.243-8.303h0.104l-0.052-0.052l0.052-0.052H538.5l-8.243-8.26l8.262-8.234l0.035-0.035
		l-8.297-8.314l8.242-8.303h0.104l-0.052-0.053l0.052-0.052h-0.104l-8.242-8.259l8.262-8.234l0.035-0.035l-8.297-8.314l8.243-8.304
		h0.104l-0.052-0.052l0.052-0.052H538.5l-8.243-8.259l8.262-8.235l0.035-0.035l-8.297-8.313l8.243-8.304h0.104l-0.052-0.052
		l0.052-0.052H538.5l-8.243-8.259l8.262-8.235l0.035-0.035l-8.297-8.313l8.243-8.304h0.104l-0.052-0.052l0.052-0.052H538.5
		l-8.243-8.26l8.262-8.234l0.035-0.035l-8.297-8.314l8.243-8.303h0.104l-0.052-0.052l0.052-0.052H538.5l-8.243-8.26l8.262-8.234
		l0.035-0.035l-8.297-8.314l8.243-8.303h0.104l-0.052-0.052l0.052-0.052H538.5l-8.243-8.26l8.262-8.234l0.035-0.036l-8.297-8.314
		l8.243-8.303h0.104l-0.052-0.052l0.052-0.052H538.5l-8.243-8.26l8.262-8.234l0.035-0.036l-8.297-8.314l8.243-8.303h0.104
		l-0.052-0.052l0.052-0.052H538.5l-8.243-8.26l8.262-8.234l0.035-0.036l-8.297-8.314l8.243-8.303h0.104l-0.052-0.052l0.052-0.052
		H538.5l-8.243-8.259l8.262-8.234l0.035-0.036l-8.297-8.314l8.243-8.303h0.104l-0.052-0.052l0.052-0.052H538.5l-8.243-8.259
		l8.262-8.234l0.035-0.036l-8.297-8.314l8.243-8.303h0.104l-0.052-0.052l0.052-0.052H538.5l-8.243-8.259l8.262-8.234l0.035-0.036
		l-8.297-8.314l8.243-8.303h0.104l-0.052-0.052l0.052-0.052H538.5l-8.243-8.26l8.262-8.234l0.035-0.036l-8.297-8.314l8.243-8.303
		h0.104l-0.052-0.052l0.052-0.052H538.5l-8.243-8.26l8.262-8.234l0.035-0.036l-8.297-8.314l8.243-8.303h0.104l-0.052-0.052
		l0.052-0.052H538.5l-8.243-8.259l8.262-8.234l0.035-0.036l-8.297-8.314l8.243-8.303h0.104l-0.052-0.052l0.052-0.052H538.5
		l-8.243-8.259l8.262-8.234l0.035-0.036l-8.297-8.314l8.242-8.302h0.104l-0.053-0.052l0.053-0.052h-0.104l-6.935-6.937l0.001-12.08
		l-12.086-0.005l-6.925-6.927V1.394l-0.053,0.054l-0.054-0.054v0.109l-8.027,8.239l-8.006-8.26l-0.036-0.037l-8.085,8.297
		l-8.073-8.243V1.394l-0.051,0.053l-0.052-0.052v0.105l-8.031,8.243l-8.005-8.26l-0.036-0.037l-8.085,8.297L447.888,1.5V1.394
		l-0.052,0.053l-0.052-0.053V1.5l-8.03,8.242l-8.006-8.26l-0.036-0.037l-8.085,8.297l-8.073-8.243V1.394l-0.052,0.053l-0.051-0.052
		v0.105l-8.031,8.243l-8.005-8.26l-0.036-0.037l-8.085,8.297L383.221,1.5V1.394l-0.052,0.053l-0.052-0.053V1.5l-8.03,8.242
		l-8.006-8.26l-0.036-0.037l-8.085,8.297L350.888,1.5V1.394l-0.052,0.053l-0.052-0.053V1.5l-8.031,8.242l-8.005-8.26l-0.036-0.037
		l-8.085,8.297L318.554,1.5V1.394l-0.052,0.053l-0.052-0.053V1.5l-8.03,8.242l-8.006-8.26l-0.036-0.037l-8.085,8.297L286.221,1.5
		V1.394l-0.052,0.053l-0.052-0.053V1.5l-8.03,8.242l-8.006-8.26l-0.036-0.037l-8.086,8.297L253.887,1.5V1.394l-0.052,0.053
		l-0.052-0.053v0.105l-8.03,8.243l-8.006-8.26l-0.036-0.037l-8.085,8.297L221.553,1.5V1.394l-0.052,0.053l-0.051-0.053v0.105
		l-8.031,8.243l-8.005-8.26l-0.036-0.037l-8.085,8.297L189.22,1.5V1.394l-0.052,0.053l-0.052-0.053v0.105l-8.03,8.243l-8.006-8.26
		l-0.036-0.037l-8.085,8.297L156.887,1.5V1.394l-0.052,0.053l-0.052-0.053V1.5l-8.031,8.242l-8.005-8.26l-0.036-0.037l-8.085,8.297
		L124.553,1.5V1.394l-0.052,0.053l-0.052-0.053V1.5l-8.03,8.242l-8.006-8.26l-0.036-0.037l-8.085,8.297L92.22,1.5V1.394
		l-0.052,0.053l-0.052-0.053V1.5l-8.031,8.242l-8.005-8.26l-0.036-0.037l-8.085,8.297L59.886,1.5V1.394l-0.052,0.053l-0.052-0.053
		V1.5l-8.03,8.242l-8.006-8.26L43.71,1.445l-8.085,8.297l-8.071-8.241V1.397l-0.052,0.051l-0.053-0.054v0.107l-6.937,6.934
		L8.433,8.435L8.428,20.521l-6.927,6.925H1.396l0.053,0.052l-0.055,0.054h0.108l8.24,8.257l-8.261,8.234l-0.036,0.036l8.298,8.314
		l-8.244,8.303H1.396l0.052,0.052l-0.051,0.052h0.103l8.243,8.26l-8.261,8.234l-0.036,0.036l8.298,8.314l-8.244,8.303H1.396
		l0.052,0.052l-0.051,0.052h0.103l8.243,8.26l-8.261,8.234l-0.036,0.036l8.298,8.314l-8.244,8.303H1.396l0.052,0.052l-0.051,0.052
		h0.103l8.243,8.259l-8.261,8.234l-0.036,0.036l8.298,8.314l-8.244,8.303H1.396l0.052,0.052l-0.051,0.052h0.103l8.243,8.259
		l-8.261,8.234l-0.036,0.036l8.298,8.314l-8.244,8.303H1.396l0.052,0.052l-0.051,0.052h0.103l8.243,8.259l-8.261,8.234l-0.036,0.036
		l8.298,8.314l-8.244,8.303H1.396l0.052,0.052l-0.051,0.052h0.103l8.243,8.26l-8.261,8.234l-0.036,0.036l8.298,8.314l-8.244,8.303
		H1.396l0.052,0.052l-0.051,0.052h0.103l8.243,8.26l-8.261,8.234l-0.036,0.036l8.298,8.314l-8.244,8.303H1.396l0.052,0.052
		l-0.051,0.052h0.103l8.243,8.259l-8.261,8.234l-0.036,0.036l8.298,8.314l-8.244,8.303H1.396l0.052,0.052L1.396,326.8h0.103
		l8.243,8.259l-8.261,8.234l-0.036,0.036l8.298,8.314l-8.244,8.303H1.396l0.052,0.052l-0.051,0.052h0.103l8.243,8.26l-8.261,8.234
		l-0.036,0.035l8.298,8.314l-8.244,8.303H1.396l0.052,0.052L1.396,393.3h0.103l8.243,8.26l-8.261,8.234l-0.036,0.035l8.298,8.314
		l-8.244,8.303H1.396l0.052,0.052l-0.051,0.052h0.103l8.243,8.26l-8.261,8.234l-0.036,0.035l8.298,8.314l-8.244,8.303H1.396
		l0.052,0.052L1.396,459.8h0.103l8.243,8.26l-8.261,8.234l-0.036,0.035l8.298,8.314l-8.244,8.303H1.396l0.052,0.052l-0.051,0.052
		h0.103l8.243,8.26l-8.261,8.234l-0.036,0.035l8.298,8.314l-8.244,8.303H1.396l0.052,0.052L1.396,526.3h0.103l8.243,8.26
		l-8.261,8.234l-0.036,0.035l8.298,8.314l-8.244,8.304H1.396l0.052,0.052l-0.051,0.052h0.103l8.243,8.259l-8.261,8.235l-0.036,0.035
		l8.298,8.313l-8.244,8.304H1.396l0.052,0.052l-0.051,0.052h0.103l8.243,8.259l-8.261,8.235l-0.036,0.035l8.298,8.313l-8.244,8.304
		H1.396l0.052,0.052l-0.051,0.052h0.103l8.243,8.26l-8.261,8.234l-0.036,0.035l8.298,8.314l-8.244,8.303H1.396l0.052,0.052
		l-0.051,0.052h0.103l8.243,8.26l-8.261,8.234l-0.036,0.035l8.298,8.314L1.5,692.446H1.396l0.052,0.052l-0.052,0.053h0.104
		l6.935,6.937l-0.001,12.08l12.086,0.005l6.925,6.927v0.107l0.053-0.054l0.054,0.054v-0.109l8.027-8.239l8.006,8.261l0.036,0.036
		l8.085-8.297l8.072,8.242v0.106l0.053-0.054l0.051,0.053V718.5l8.03-8.242l8.006,8.261l0.036,0.036l8.085-8.297l8.073,8.242v0.106
		l0.052-0.054l0.052,0.053V718.5l8.03-8.242l8.006,8.261l0.036,0.036l8.085-8.297l8.072,8.242v0.106l0.053-0.054l0.051,0.053V718.5
		l8.03-8.242l8.006,8.261l0.036,0.036l8.085-8.297l8.073,8.242v0.106l0.052-0.054l0.052,0.053V718.5l8.03-8.242l8.006,8.261
		l0.036,0.036l8.085-8.297l8.072,8.242v0.106l0.053-0.054l0.051,0.053V718.5l8.03-8.242l8.006,8.261l0.036,0.036l8.085-8.297
		l8.073,8.242v0.106l0.052-0.054l0.052,0.053V718.5l8.03-8.242l8.005,8.261l0.036,0.036l8.086-8.297l8.072,8.242v0.106l0.053-0.054
		l0.051,0.053V718.5l8.03-8.242l8.006,8.261l0.036,0.036l8.085-8.297l8.073,8.243v0.105l0.052-0.054l0.052,0.053V718.5l8.03-8.242
		l8.006,8.261l0.036,0.036l8.085-8.297l8.072,8.243v0.105l0.052-0.054l0.052,0.053V718.5l8.03-8.242l8.006,8.261l0.036,0.036
		l8.085-8.297l8.073,8.243v0.105l0.052-0.054l0.052,0.053V718.5l8.03-8.242l8.006,8.261l0.036,0.036l8.085-8.297l8.072,8.243v0.105
		l0.052-0.054l0.052,0.053V718.5l8.03-8.242l8.006,8.261l0.036,0.036l8.085-8.297l8.073,8.243v0.105l0.052-0.054l0.052,0.053V718.5
		l8.03-8.242l8.006,8.261l0.036,0.036l8.085-8.297l8.072,8.243v0.105l0.052-0.054l0.052,0.053V718.5l8.03-8.242l8.006,8.261
		l0.036,0.036l8.085-8.297l8.073,8.243v0.105l0.052-0.054l0.052,0.053V718.5l8.03-8.242l8.005,8.261l0.036,0.036l8.086-8.297
		l8.071,8.242v0.104l0.052-0.052l0.053,0.054v-0.106l6.937-6.935l12.08,0.001l0.005-12.086l6.927-6.925h0.104L538.552,692.503z
		 M25.115,659.301v-0.1v-33.15v-0.1v-33.15v-0.1v-33.15v-0.1V526.3v-0.1v-33.15v-0.1V459.8v-0.1v-33.15v-0.1V393.3v-0.1v-33.15v-0.1
		V326.8v-0.1v-33.15v-0.1v-33.151v-0.1v-33.15v-0.1v-33.15v-0.1v-33.15v-0.1v-33.15v-0.1V94.049v-0.1v-33.15v-0.1V27.552h0.001
		v-2.436h2.438v-0.001h32.229h0.1h32.234h0.1h32.233h0.1h32.234h0.1h32.233h0.1h32.234h0.1h32.233h0.1h32.234h0.1h32.233h0.1h32.234
		h0.1h32.233h0.1h32.234h0.1h32.233h0.1h32.234h0.1h32.23v0.001h2.436v2.438h0.001v33.146v0.1v33.15v0.1V127.2v0.1v33.15v0.1v33.15
		v0.1v33.15v0.1v33.15v0.1v33.151v0.1v33.15v0.1v33.15v0.1v33.15v0.1v33.15v0.1v33.15v0.1v33.15v0.1v33.15v0.1v33.151v0.1v33.15v0.1
		v33.15v0.1v33.15v0.1v33.147h-0.001v2.436h-2.438v0.001h-32.229h-0.1h-32.234h-0.1h-32.233h-0.1h-32.234h-0.1h-32.233h-0.1H318.55
		h-0.1h-32.233h-0.1h-32.234h-0.1H221.55h-0.1h-32.234h-0.1h-32.233h-0.1h-32.234h-0.1H92.216h-0.1H59.882h-0.1h-32.23v-0.001
		h-2.436v-2.438h-0.001V659.301z"/>
</g>
</svg>
