<?xml version="1.0" encoding="utf-8"?>
<!-- Generator: Adobe Illustrator 14.0.0, SVG Export Plug-In . SVG Version: 6.00 Build 43363)  -->
<!DOCTYPE svg PUBLIC "-//W3C//DTD SVG 1.1//EN" "http://www.w3.org/Graphics/SVG/1.1/DTD/svg11.dtd">
<svg version="1.1" id="Layer_1" xmlns="http://www.w3.org/2000/svg" xmlns:xlink="http://www.w3.org/1999/xlink" x="0px" y="0px"
	 width="538.514px" height="718.514px" viewBox="0 0 538.514 718.514" style="enable-background:new 0 0 538.514 718.514;"
	 xml:space="preserve">
<style type="text/css">
<![CDATA[
	.st0{fill:#ED193A;}
	.st1{fill:#F79447;}
]]>
</style>
<g>
	<g>
		<g>
			<polygon class="st0" points="25.514,680.164 25.514,693 12.756,693 			"/>
			<polygon class="st1" points="12.756,693 12.756,680.164 25.514,680.164 			"/>
			<polygon class="st0" points="12.756,680.164 12.756,693 0,693 			"/>
			<polygon class="st1" points="0,693 0,680.164 12.756,680.164 			"/>
			<polygon class="st0" points="25.514,667.327 25.514,680.164 12.756,680.164 			"/>
			<polygon class="st1" points="12.756,680.164 12.756,667.327 25.514,667.327 			"/>
			<polygon class="st0" points="12.756,667.327 12.756,680.164 0,680.164 			"/>
			<polygon class="st1" points="0,680.164 0,667.327 12.756,667.327 			"/>
		</g>
		<g>
			<polygon class="st0" points="25.514,654.491 25.514,667.327 12.756,667.327 			"/>
			<polygon class="st1" points="12.756,667.327 12.756,654.491 25.514,654.491 			"/>
			<polygon class="st0" points="12.756,654.491 12.756,667.327 0,667.327 			"/>
			<polygon class="st1" points="0,667.327 0,654.491 12.756,654.491 			"/>
			<polygon class="st0" points="25.514,641.655 25.514,654.491 12.756,654.491 			"/>
			<polygon class="st1" points="12.756,654.491 12.756,641.655 25.514,641.655 			"/>
			<polygon class="st0" points="12.756,641.655 12.756,654.491 0,654.491 			"/>
			<polygon class="st1" points="0,654.491 0,641.655 12.756,641.655 			"/>
		</g>
		<g>
			<polygon class="st0" points="25.514,628.818 25.514,641.655 12.756,641.655 			"/>
			<polygon class="st1" points="12.756,641.655 12.756,628.818 25.514,628.818 			"/>
			<polygon class="st0" points="12.756,628.818 12.756,641.655 0,641.655 			"/>
			<polygon class="st1" points="0,641.655 0,628.818 12.756,628.818 			"/>
			<polygon class="st0" points="25.514,615.982 25.514,628.818 12.756,628.818 			"/>
			<polygon class="st1" points="12.756,628.818 12.756,615.982 25.514,615.982 			"/>
			<polygon class="st0" points="12.756,615.982 12.756,628.818 0,628.818 			"/>
			<polygon class="st1" points="0,628.818 0,615.982 12.756,615.982 			"/>
		</g>
		<g>
			<polygon class="st0" points="25.514,603.146 25.514,615.982 12.756,615.982 			"/>
			<polygon class="st1" points="12.756,615.982 12.756,603.146 25.514,603.146 			"/>
			<polygon class="st0" points="12.756,603.146 12.756,615.982 0,615.982 			"/>
			<polygon class="st1" points="0,615.982 0,603.146 12.756,603.146 			"/>
			<polygon class="st0" points="25.514,590.31 25.514,603.146 12.756,603.146 			"/>
			<polygon class="st1" points="12.756,603.146 12.756,590.31 25.514,590.31 			"/>
			<polygon class="st0" points="12.756,590.31 12.756,603.146 0,603.146 			"/>
			<polygon class="st1" points="0,603.146 0,590.31 12.756,590.31 			"/>
		</g>
		<g>
			<polygon class="st0" points="25.514,577.474 25.514,590.31 12.756,590.31 			"/>
			<polygon class="st1" points="12.756,590.31 12.756,577.474 25.514,577.474 			"/>
			<polygon class="st0" points="12.756,577.474 12.756,590.31 0,590.31 			"/>
			<polygon class="st1" points="0,590.31 0,577.474 12.756,577.474 			"/>
			<polygon class="st0" points="25.514,564.638 25.514,577.474 12.756,577.474 			"/>
			<polygon class="st1" points="12.756,577.474 12.756,564.638 25.514,564.638 			"/>
			<polygon class="st0" points="12.756,564.638 12.756,577.474 0,577.474 			"/>
			<polygon class="st1" points="0,577.474 0,564.638 12.756,564.638 			"/>
		</g>
		<g>
			<polygon class="st0" points="25.514,551.801 25.514,564.638 12.756,564.638 			"/>
			<polygon class="st1" points="12.756,564.638 12.756,551.801 25.514,551.801 			"/>
			<polygon class="st0" points="12.756,551.801 12.756,564.638 0,564.638 			"/>
			<polygon class="st1" points="0,564.638 0,551.801 12.756,551.801 			"/>
			<polygon class="st0" points="25.514,538.965 25.514,551.801 12.756,551.801 			"/>
			<polygon class="st1" points="12.756,551.801 12.756,538.965 25.514,538.965 			"/>
			<polygon class="st0" points="12.756,538.965 12.756,551.801 0,551.801 			"/>
			<polygon class="st1" points="0,551.801 0,538.965 12.756,538.965 			"/>
		</g>
		<g>
			<polygon class="st0" points="25.514,526.128 25.514,538.965 12.756,538.965 			"/>
			<polygon class="st1" points="12.756,538.965 12.756,526.128 25.514,526.128 			"/>
			<polygon class="st0" points="12.756,526.128 12.756,538.965 0,538.965 			"/>
			<polygon class="st1" points="0,538.965 0,526.128 12.756,526.128 			"/>
			<polygon class="st0" points="25.514,513.292 25.514,526.128 12.756,526.128 			"/>
			<polygon class="st1" points="12.756,526.128 12.756,513.292 25.514,513.292 			"/>
			<polygon class="st0" points="12.756,513.292 12.756,526.128 0,526.128 			"/>
			<polygon class="st1" points="0,526.128 0,513.292 12.756,513.292 			"/>
		</g>
		<g>
			<polygon class="st0" points="25.514,500.456 25.514,513.292 12.756,513.292 			"/>
			<polygon class="st1" points="12.756,513.292 12.756,500.456 25.514,500.456 			"/>
			<polygon class="st0" points="12.756,500.456 12.756,513.292 0,513.292 			"/>
			<polygon class="st1" points="0,513.292 0,500.456 12.756,500.456 			"/>
			<polygon class="st0" points="25.514,487.619 25.514,500.456 12.756,500.456 			"/>
			<polygon class="st1" points="12.756,500.456 12.756,487.619 25.514,487.619 			"/>
			<polygon class="st0" points="12.756,487.619 12.756,500.456 0,500.456 			"/>
			<polygon class="st1" points="0,500.456 0,487.619 12.756,487.619 			"/>
		</g>
		<g>
			<polygon class="st0" points="25.514,474.783 25.514,487.619 12.756,487.619 			"/>
			<polygon class="st1" points="12.756,487.619 12.756,474.783 25.514,474.783 			"/>
			<polygon class="st0" points="12.756,474.783 12.756,487.619 0,487.619 			"/>
			<polygon class="st1" points="0,487.619 0,474.783 12.756,474.783 			"/>
			<polygon class="st0" points="25.514,461.947 25.514,474.783 12.756,474.783 			"/>
			<polygon class="st1" points="12.756,474.783 12.756,461.947 25.514,461.947 			"/>
			<polygon class="st0" points="12.756,461.947 12.756,474.783 0,474.783 			"/>
			<polygon class="st1" points="0,474.783 0,461.947 12.756,461.947 			"/>
		</g>
		<g>
			<polygon class="st0" points="25.514,449.11 25.514,461.947 12.756,461.947 			"/>
			<polygon class="st1" points="12.756,461.947 12.756,449.11 25.514,449.11 			"/>
			<polygon class="st0" points="12.756,449.11 12.756,461.947 0,461.947 			"/>
			<polygon class="st1" points="0,461.947 0,449.11 12.756,449.11 			"/>
			<polygon class="st0" points="25.514,436.274 25.514,449.11 12.756,449.11 			"/>
			<polygon class="st1" points="12.756,449.11 12.756,436.274 25.514,436.274 			"/>
			<polygon class="st0" points="12.756,436.274 12.756,449.11 0,449.11 			"/>
			<polygon class="st1" points="0,449.11 0,436.274 12.756,436.274 			"/>
		</g>
		<g>
			<polygon class="st0" points="25.514,423.438 25.514,436.274 12.756,436.274 			"/>
			<polygon class="st1" points="12.756,436.274 12.756,423.438 25.514,423.438 			"/>
			<polygon class="st0" points="12.756,423.438 12.756,436.274 0,436.274 			"/>
			<polygon class="st1" points="0,436.274 0,423.438 12.756,423.438 			"/>
			<polygon class="st0" points="25.514,410.602 25.514,423.438 12.756,423.438 			"/>
			<polygon class="st1" points="12.756,423.438 12.756,410.602 25.514,410.602 			"/>
			<polygon class="st0" points="12.756,410.602 12.756,423.438 0,423.438 			"/>
			<polygon class="st1" points="0,423.438 0,410.602 12.756,410.602 			"/>
		</g>
		<g>
			<polygon class="st0" points="25.514,397.766 25.514,410.602 12.756,410.602 			"/>
			<polygon class="st1" points="12.756,410.602 12.756,397.766 25.514,397.766 			"/>
			<polygon class="st0" points="12.756,397.766 12.756,410.602 0,410.602 			"/>
			<polygon class="st1" points="0,410.602 0,397.766 12.756,397.766 			"/>
			<polygon class="st0" points="25.514,384.93 25.514,397.766 12.756,397.766 			"/>
			<polygon class="st1" points="12.756,397.766 12.756,384.93 25.514,384.93 			"/>
			<polygon class="st0" points="12.756,384.93 12.756,397.766 0,397.766 			"/>
			<polygon class="st1" points="0,397.766 0,384.93 12.756,384.93 			"/>
		</g>
		<g>
			<polygon class="st0" points="25.514,372.093 25.514,384.93 12.756,384.93 			"/>
			<polygon class="st1" points="12.756,384.93 12.756,372.093 25.514,372.093 			"/>
			<polygon class="st0" points="12.756,372.093 12.756,384.93 0,384.93 			"/>
			<polygon class="st1" points="0,384.93 0,372.093 12.756,372.093 			"/>
			<polygon class="st0" points="25.514,359.257 25.514,372.093 12.756,372.093 			"/>
			<polygon class="st1" points="12.756,372.093 12.756,359.257 25.514,359.257 			"/>
			<polygon class="st0" points="12.756,359.257 12.756,372.093 0,372.093 			"/>
			<polygon class="st1" points="0,372.093 0,359.257 12.756,359.257 			"/>
		</g>
		<g>
			<polygon class="st0" points="25.514,346.42 25.514,359.257 12.756,359.257 			"/>
			<polygon class="st1" points="12.756,359.257 12.756,346.42 25.514,346.42 			"/>
			<polygon class="st0" points="12.756,346.42 12.756,359.257 0,359.257 			"/>
			<polygon class="st1" points="0,359.257 0,346.42 12.756,346.42 			"/>
			<polygon class="st0" points="25.514,333.584 25.514,346.42 12.756,346.42 			"/>
			<polygon class="st1" points="12.756,346.42 12.756,333.584 25.514,333.584 			"/>
			<polygon class="st0" points="12.756,333.584 12.756,346.42 0,346.42 			"/>
			<polygon class="st1" points="0,346.42 0,333.584 12.756,333.584 			"/>
		</g>
		<g>
			<polygon class="st0" points="25.514,320.748 25.514,333.584 12.756,333.584 			"/>
			<polygon class="st1" points="12.756,333.584 12.756,320.748 25.514,320.748 			"/>
			<polygon class="st0" points="12.756,320.748 12.756,333.584 0,333.584 			"/>
			<polygon class="st1" points="0,333.584 0,320.748 12.756,320.748 			"/>
			<polygon class="st0" points="25.514,307.912 25.514,320.748 12.756,320.748 			"/>
			<polygon class="st1" points="12.756,320.748 12.756,307.912 25.514,307.912 			"/>
			<polygon class="st0" points="12.756,307.912 12.756,320.748 0,320.748 			"/>
			<polygon class="st1" points="0,320.748 0,307.912 12.756,307.912 			"/>
		</g>
		<g>
			<polygon class="st0" points="25.514,295.076 25.514,307.912 12.756,307.912 			"/>
			<polygon class="st1" points="12.756,307.912 12.756,295.076 25.514,295.076 			"/>
			<polygon class="st0" points="12.756,295.076 12.756,307.912 0,307.912 			"/>
			<polygon class="st1" points="0,307.912 0,295.076 12.756,295.076 			"/>
			<polygon class="st0" points="25.514,282.239 25.514,295.076 12.756,295.076 			"/>
			<polygon class="st1" points="12.756,295.076 12.756,282.239 25.514,282.239 			"/>
			<polygon class="st0" points="12.756,282.239 12.756,295.076 0,295.076 			"/>
			<polygon class="st1" points="0,295.076 0,282.239 12.756,282.239 			"/>
		</g>
		<g>
			<polygon class="st0" points="25.514,269.403 25.514,282.239 12.756,282.239 			"/>
			<polygon class="st1" points="12.756,282.239 12.756,269.403 25.514,269.403 			"/>
			<polygon class="st0" points="12.756,269.403 12.756,282.239 0,282.239 			"/>
			<polygon class="st1" points="0,282.239 0,269.403 12.756,269.403 			"/>
			<polygon class="st0" points="25.514,256.566 25.514,269.403 12.756,269.403 			"/>
			<polygon class="st1" points="12.756,269.403 12.756,256.566 25.514,256.566 			"/>
			<polygon class="st0" points="12.756,256.566 12.756,269.403 0,269.403 			"/>
			<polygon class="st1" points="0,269.403 0,256.566 12.756,256.566 			"/>
		</g>
		<g>
			<polygon class="st0" points="25.514,243.73 25.514,256.566 12.756,256.566 			"/>
			<polygon class="st1" points="12.756,256.566 12.756,243.73 25.514,243.73 			"/>
			<polygon class="st0" points="12.756,243.73 12.756,256.566 0,256.566 			"/>
			<polygon class="st1" points="0,256.566 0,243.73 12.756,243.73 			"/>
			<polygon class="st0" points="25.514,230.894 25.514,243.73 12.756,243.73 			"/>
			<polygon class="st1" points="12.756,243.73 12.756,230.894 25.514,230.894 			"/>
			<polygon class="st0" points="12.756,230.894 12.756,243.73 0,243.73 			"/>
			<polygon class="st1" points="0,243.73 0,230.894 12.756,230.894 			"/>
		</g>
		<g>
			<polygon class="st0" points="25.514,218.058 25.514,230.894 12.756,230.894 			"/>
			<polygon class="st1" points="12.756,230.894 12.756,218.058 25.514,218.058 			"/>
			<polygon class="st0" points="12.756,218.058 12.756,230.894 0,230.894 			"/>
			<polygon class="st1" points="0,230.894 0,218.058 12.756,218.058 			"/>
			<polygon class="st0" points="25.514,205.222 25.514,218.058 12.756,218.058 			"/>
			<polygon class="st1" points="12.756,218.058 12.756,205.222 25.514,205.222 			"/>
			<polygon class="st0" points="12.756,205.222 12.756,218.058 0,218.058 			"/>
			<polygon class="st1" points="0,218.058 0,205.222 12.756,205.222 			"/>
		</g>
		<g>
			<polygon class="st0" points="25.514,192.385 25.514,205.222 12.756,205.222 			"/>
			<polygon class="st1" points="12.756,205.222 12.756,192.385 25.514,192.385 			"/>
			<polygon class="st0" points="12.756,192.385 12.756,205.222 0,205.222 			"/>
			<polygon class="st1" points="0,205.222 0,192.385 12.756,192.385 			"/>
			<polygon class="st0" points="25.514,179.549 25.514,192.385 12.756,192.385 			"/>
			<polygon class="st1" points="12.756,192.385 12.756,179.549 25.514,179.549 			"/>
			<polygon class="st0" points="12.756,179.549 12.756,192.385 0,192.385 			"/>
			<polygon class="st1" points="0,192.385 0,179.549 12.756,179.549 			"/>
		</g>
		<g>
			<polygon class="st0" points="25.514,166.713 25.514,179.549 12.756,179.549 			"/>
			<polygon class="st1" points="12.756,179.549 12.756,166.713 25.514,166.713 			"/>
			<polygon class="st0" points="12.756,166.713 12.756,179.549 0,179.549 			"/>
			<polygon class="st1" points="0,179.549 0,166.713 12.756,166.713 			"/>
			<polygon class="st0" points="25.514,153.876 25.514,166.713 12.756,166.713 			"/>
			<polygon class="st1" points="12.756,166.713 12.756,153.876 25.514,153.876 			"/>
			<polygon class="st0" points="12.756,153.876 12.756,166.713 0,166.713 			"/>
			<polygon class="st1" points="0,166.713 0,153.876 12.756,153.876 			"/>
		</g>
		<g>
			<polygon class="st0" points="25.514,141.04 25.514,153.876 12.756,153.876 			"/>
			<polygon class="st1" points="12.756,153.876 12.756,141.04 25.514,141.04 			"/>
			<polygon class="st0" points="12.756,141.04 12.756,153.876 0,153.876 			"/>
			<polygon class="st1" points="0,153.876 0,141.04 12.756,141.04 			"/>
			<polygon class="st0" points="25.514,128.204 25.514,141.04 12.756,141.04 			"/>
			<polygon class="st1" points="12.756,141.04 12.756,128.204 25.514,128.204 			"/>
			<polygon class="st0" points="12.756,128.204 12.756,141.04 0,141.04 			"/>
			<polygon class="st1" points="0,141.04 0,128.204 12.756,128.204 			"/>
		</g>
		<g>
			<polygon class="st0" points="25.514,115.368 25.514,128.204 12.756,128.204 			"/>
			<polygon class="st1" points="12.756,128.204 12.756,115.368 25.514,115.368 			"/>
			<polygon class="st0" points="12.756,115.368 12.756,128.204 0,128.204 			"/>
			<polygon class="st1" points="0,128.204 0,115.368 12.756,115.368 			"/>
			<polygon class="st0" points="25.514,102.531 25.514,115.368 12.756,115.368 			"/>
			<polygon class="st1" points="12.756,115.368 12.756,102.531 25.514,102.531 			"/>
			<polygon class="st0" points="12.756,102.531 12.756,115.368 0,115.368 			"/>
			<polygon class="st1" points="0,115.368 0,102.531 12.756,102.531 			"/>
		</g>
		<g>
			<polygon class="st0" points="25.514,89.695 25.514,102.531 12.756,102.531 			"/>
			<polygon class="st1" points="12.756,102.531 12.756,89.695 25.514,89.695 			"/>
			<polygon class="st0" points="12.756,89.695 12.756,102.531 0,102.531 			"/>
			<polygon class="st1" points="0,102.531 0,89.695 12.756,89.695 			"/>
			<polygon class="st0" points="25.514,76.859 25.514,89.695 12.756,89.695 			"/>
			<polygon class="st1" points="12.756,89.695 12.756,76.859 25.514,76.859 			"/>
			<polygon class="st0" points="12.756,76.859 12.756,89.695 0,89.695 			"/>
			<polygon class="st1" points="0,89.695 0,76.859 12.756,76.859 			"/>
		</g>
		<g>
			<polygon class="st0" points="25.514,64.022 25.514,76.859 12.756,76.859 			"/>
			<polygon class="st1" points="12.756,76.859 12.756,64.022 25.514,64.022 			"/>
			<polygon class="st0" points="12.756,64.022 12.756,76.859 0,76.859 			"/>
			<polygon class="st1" points="0,76.859 0,64.022 12.756,64.022 			"/>
			<polygon class="st0" points="25.514,51.186 25.514,64.022 12.756,64.022 			"/>
			<polygon class="st1" points="12.756,64.022 12.756,51.186 25.514,51.186 			"/>
			<polygon class="st0" points="12.756,51.186 12.756,64.022 0,64.022 			"/>
			<polygon class="st1" points="0,64.022 0,51.186 12.756,51.186 			"/>
		</g>
		<g>
			<polygon class="st0" points="25.514,38.35 25.514,51.186 12.756,51.186 			"/>
			<polygon class="st1" points="12.756,51.186 12.756,38.35 25.514,38.35 			"/>
			<polygon class="st0" points="12.756,38.35 12.756,51.186 0,51.186 			"/>
			<polygon class="st1" points="0,51.186 0,38.35 12.756,38.35 			"/>
			<polygon class="st0" points="25.514,25.514 25.514,38.35 12.756,38.35 			"/>
			<polygon class="st1" points="12.756,38.35 12.756,25.514 25.514,25.514 			"/>
			<polygon class="st0" points="12.756,25.514 12.756,38.35 0,38.35 			"/>
			<polygon class="st1" points="0,38.35 0,25.514 12.756,25.514 			"/>
		</g>
		<g>
			<polygon class="st0" points="38.342,25.514 25.514,25.514 25.514,12.756 			"/>
			<polygon class="st1" points="25.514,12.756 38.342,12.756 38.342,25.514 			"/>
			<polygon class="st0" points="38.342,12.756 25.514,12.756 25.514,0 			"/>
			<polygon class="st1" points="25.514,0 38.342,0 38.342,12.756 			"/>
			<polygon class="st0" points="51.171,25.514 38.342,25.514 38.342,12.756 			"/>
			<polygon class="st1" points="38.342,12.756 51.171,12.756 51.171,25.514 			"/>
			<polygon class="st0" points="51.171,12.756 38.342,12.756 38.342,0 			"/>
			<polygon class="st1" points="38.342,0 51.171,0 51.171,12.756 			"/>
		</g>
		<g>
			<polygon class="st0" points="64,25.514 51.171,25.514 51.171,12.756 			"/>
			<polygon class="st1" points="51.171,12.756 64,12.756 64,25.514 			"/>
			<polygon class="st0" points="64,12.756 51.171,12.756 51.171,0 			"/>
			<polygon class="st1" points="51.171,0 64,0 64,12.756 			"/>
			<polygon class="st0" points="76.828,25.514 64,25.514 64,12.756 			"/>
			<polygon class="st1" points="64,12.756 76.828,12.756 76.828,25.514 			"/>
			<polygon class="st0" points="76.828,12.756 64,12.756 64,0 			"/>
			<polygon class="st1" points="64,0 76.828,0 76.828,12.756 			"/>
		</g>
		<g>
			<polygon class="st0" points="89.657,25.514 76.828,25.514 76.828,12.756 			"/>
			<polygon class="st1" points="76.828,12.756 89.657,12.756 89.657,25.514 			"/>
			<polygon class="st0" points="89.657,12.756 76.828,12.756 76.828,0 			"/>
			<polygon class="st1" points="76.828,0 89.657,0 89.657,12.756 			"/>
			<polygon class="st0" points="102.485,25.514 89.657,25.514 89.657,12.756 			"/>
			<polygon class="st1" points="89.657,12.756 102.485,12.756 102.485,25.514 			"/>
			<polygon class="st0" points="102.485,12.756 89.657,12.756 89.657,0 			"/>
			<polygon class="st1" points="89.657,0 102.485,0 102.485,12.756 			"/>
		</g>
		<g>
			<polygon class="st0" points="115.314,25.514 102.485,25.514 102.485,12.756 			"/>
			<polygon class="st1" points="102.485,12.756 115.314,12.756 115.314,25.514 			"/>
			<polygon class="st0" points="115.314,12.756 102.485,12.756 102.485,0 			"/>
			<polygon class="st1" points="102.485,0 115.314,0 115.314,12.756 			"/>
			<polygon class="st0" points="128.143,25.514 115.314,25.514 115.314,12.756 			"/>
			<polygon class="st1" points="115.314,12.756 128.143,12.756 128.143,25.514 			"/>
			<polygon class="st0" points="128.143,12.756 115.314,12.756 115.314,0 			"/>
			<polygon class="st1" points="115.314,0 128.143,0 128.143,12.756 			"/>
		</g>
		<g>
			<polygon class="st0" points="140.971,25.514 128.143,25.514 128.143,12.756 			"/>
			<polygon class="st1" points="128.143,12.756 140.971,12.756 140.971,25.514 			"/>
			<polygon class="st0" points="140.971,12.756 128.143,12.756 128.143,0 			"/>
			<polygon class="st1" points="128.143,0 140.971,0 140.971,12.756 			"/>
			<polygon class="st0" points="153.799,25.514 140.971,25.514 140.971,12.756 			"/>
			<polygon class="st1" points="140.971,12.756 153.799,12.756 153.799,25.514 			"/>
			<polygon class="st0" points="153.799,12.756 140.971,12.756 140.971,0 			"/>
			<polygon class="st1" points="140.971,0 153.799,0 153.799,12.756 			"/>
		</g>
		<g>
			<polygon class="st0" points="166.628,25.514 153.799,25.514 153.799,12.756 			"/>
			<polygon class="st1" points="153.799,12.756 166.628,12.756 166.628,25.514 			"/>
			<polygon class="st0" points="166.628,12.756 153.799,12.756 153.799,0 			"/>
			<polygon class="st1" points="153.799,0 166.628,0 166.628,12.756 			"/>
			<polygon class="st0" points="179.457,25.514 166.628,25.514 166.628,12.756 			"/>
			<polygon class="st1" points="166.628,12.756 179.457,12.756 179.457,25.514 			"/>
			<polygon class="st0" points="179.457,12.756 166.628,12.756 166.628,0 			"/>
			<polygon class="st1" points="166.628,0 179.457,0 179.457,12.756 			"/>
		</g>
		<g>
			<polygon class="st0" points="192.285,25.514 179.457,25.514 179.457,12.756 			"/>
			<polygon class="st1" points="179.457,12.756 192.285,12.756 192.285,25.514 			"/>
			<polygon class="st0" points="192.285,12.756 179.457,12.756 179.457,0 			"/>
			<polygon class="st1" points="179.457,0 192.285,0 192.285,12.756 			"/>
			<polygon class="st0" points="205.114,25.514 192.285,25.514 192.285,12.756 			"/>
			<polygon class="st1" points="192.285,12.756 205.114,12.756 205.114,25.514 			"/>
			<polygon class="st0" points="205.114,12.756 192.285,12.756 192.285,0 			"/>
			<polygon class="st1" points="192.285,0 205.114,0 205.114,12.756 			"/>
		</g>
		<g>
			<polygon class="st0" points="217.942,25.514 205.114,25.514 205.114,12.756 			"/>
			<polygon class="st1" points="205.114,12.756 217.942,12.756 217.942,25.514 			"/>
			<polygon class="st0" points="217.942,12.756 205.114,12.756 205.114,0 			"/>
			<polygon class="st1" points="205.114,0 217.942,0 217.942,12.756 			"/>
			<polygon class="st0" points="230.771,25.514 217.942,25.514 217.942,12.756 			"/>
			<polygon class="st1" points="217.942,12.756 230.771,12.756 230.771,25.514 			"/>
			<polygon class="st0" points="230.771,12.756 217.942,12.756 217.942,0 			"/>
			<polygon class="st1" points="217.942,0 230.771,0 230.771,12.756 			"/>
		</g>
		<g>
			<polygon class="st0" points="243.6,25.514 230.771,25.514 230.771,12.756 			"/>
			<polygon class="st1" points="230.771,12.756 243.6,12.756 243.6,25.514 			"/>
			<polygon class="st0" points="243.6,12.756 230.771,12.756 230.771,0 			"/>
			<polygon class="st1" points="230.771,0 243.6,0 243.6,12.756 			"/>
			<polygon class="st0" points="256.428,25.514 243.6,25.514 243.6,12.756 			"/>
			<polygon class="st1" points="243.6,12.756 256.428,12.756 256.428,25.514 			"/>
			<polygon class="st0" points="256.428,12.756 243.6,12.756 243.6,0 			"/>
			<polygon class="st1" points="243.6,0 256.428,0 256.428,12.756 			"/>
		</g>
		<g>
			<polygon class="st0" points="269.257,25.514 256.428,25.514 256.428,12.756 			"/>
			<polygon class="st1" points="256.428,12.756 269.257,12.756 269.257,25.514 			"/>
			<polygon class="st0" points="269.257,12.756 256.428,12.756 256.428,0 			"/>
			<polygon class="st1" points="256.428,0 269.257,0 269.257,12.756 			"/>
			<polygon class="st0" points="282.085,25.514 269.257,25.514 269.257,12.756 			"/>
			<polygon class="st1" points="269.257,12.756 282.085,12.756 282.085,25.514 			"/>
			<polygon class="st0" points="282.085,12.756 269.257,12.756 269.257,0 			"/>
			<polygon class="st1" points="269.257,0 282.085,0 282.085,12.756 			"/>
		</g>
		<g>
			<polygon class="st0" points="294.914,25.514 282.085,25.514 282.085,12.756 			"/>
			<polygon class="st1" points="282.085,12.756 294.914,12.756 294.914,25.514 			"/>
			<polygon class="st0" points="294.914,12.756 282.085,12.756 282.085,0 			"/>
			<polygon class="st1" points="282.085,0 294.914,0 294.914,12.756 			"/>
			<polygon class="st0" points="307.742,25.514 294.914,25.514 294.914,12.756 			"/>
			<polygon class="st1" points="294.914,12.756 307.742,12.756 307.742,25.514 			"/>
			<polygon class="st0" points="307.742,12.756 294.914,12.756 294.914,0 			"/>
			<polygon class="st1" points="294.914,0 307.742,0 307.742,12.756 			"/>
		</g>
		<g>
			<polygon class="st0" points="320.571,25.514 307.742,25.514 307.742,12.756 			"/>
			<polygon class="st1" points="307.742,12.756 320.571,12.756 320.571,25.514 			"/>
			<polygon class="st0" points="320.571,12.756 307.742,12.756 307.742,0 			"/>
			<polygon class="st1" points="307.742,0 320.571,0 320.571,12.756 			"/>
			<polygon class="st0" points="333.399,25.514 320.571,25.514 320.571,12.756 			"/>
			<polygon class="st1" points="320.571,12.756 333.399,12.756 333.399,25.514 			"/>
			<polygon class="st0" points="333.399,12.756 320.571,12.756 320.571,0 			"/>
			<polygon class="st1" points="320.571,0 333.399,0 333.399,12.756 			"/>
		</g>
		<g>
			<polygon class="st0" points="346.229,25.514 333.399,25.514 333.399,12.756 			"/>
			<polygon class="st1" points="333.399,12.756 346.229,12.756 346.229,25.514 			"/>
			<polygon class="st0" points="346.229,12.756 333.399,12.756 333.399,0 			"/>
			<polygon class="st1" points="333.399,0 346.229,0 346.229,12.756 			"/>
			<polygon class="st0" points="359.057,25.514 346.229,25.514 346.229,12.756 			"/>
			<polygon class="st1" points="346.229,12.756 359.057,12.756 359.057,25.514 			"/>
			<polygon class="st0" points="359.057,12.756 346.229,12.756 346.229,0 			"/>
			<polygon class="st1" points="346.229,0 359.057,0 359.057,12.756 			"/>
		</g>
		<g>
			<polygon class="st0" points="371.886,25.514 359.057,25.514 359.057,12.756 			"/>
			<polygon class="st1" points="359.057,12.756 371.886,12.756 371.886,25.514 			"/>
			<polygon class="st0" points="371.886,12.756 359.057,12.756 359.057,0 			"/>
			<polygon class="st1" points="359.057,0 371.886,0 371.886,12.756 			"/>
			<polygon class="st0" points="384.714,25.514 371.886,25.514 371.886,12.756 			"/>
			<polygon class="st1" points="371.886,12.756 384.714,12.756 384.714,25.514 			"/>
			<polygon class="st0" points="384.714,12.756 371.886,12.756 371.886,0 			"/>
			<polygon class="st1" points="371.886,0 384.714,0 384.714,12.756 			"/>
		</g>
		<g>
			<polygon class="st0" points="397.543,25.514 384.714,25.514 384.714,12.756 			"/>
			<polygon class="st1" points="384.714,12.756 397.543,12.756 397.543,25.514 			"/>
			<polygon class="st0" points="397.543,12.756 384.714,12.756 384.714,0 			"/>
			<polygon class="st1" points="384.714,0 397.543,0 397.543,12.756 			"/>
			<polygon class="st0" points="410.371,25.514 397.543,25.514 397.543,12.756 			"/>
			<polygon class="st1" points="397.543,12.756 410.371,12.756 410.371,25.514 			"/>
			<polygon class="st0" points="410.371,12.756 397.543,12.756 397.543,0 			"/>
			<polygon class="st1" points="397.543,0 410.371,0 410.371,12.756 			"/>
		</g>
		<g>
			<polygon class="st0" points="423.2,25.514 410.371,25.514 410.371,12.756 			"/>
			<polygon class="st1" points="410.371,12.756 423.2,12.756 423.2,25.514 			"/>
			<polygon class="st0" points="423.2,12.756 410.371,12.756 410.371,0 			"/>
			<polygon class="st1" points="410.371,0 423.2,0 423.2,12.756 			"/>
			<polygon class="st0" points="436.028,25.514 423.2,25.514 423.2,12.756 			"/>
			<polygon class="st1" points="423.2,12.756 436.028,12.756 436.028,25.514 			"/>
			<polygon class="st0" points="436.028,12.756 423.2,12.756 423.2,0 			"/>
			<polygon class="st1" points="423.2,0 436.028,0 436.028,12.756 			"/>
		</g>
		<g>
			<polygon class="st0" points="448.857,25.514 436.028,25.514 436.028,12.756 			"/>
			<polygon class="st1" points="436.028,12.756 448.857,12.756 448.857,25.514 			"/>
			<polygon class="st0" points="448.857,12.756 436.028,12.756 436.028,0 			"/>
			<polygon class="st1" points="436.028,0 448.857,0 448.857,12.756 			"/>
			<polygon class="st0" points="461.686,25.514 448.857,25.514 448.857,12.756 			"/>
			<polygon class="st1" points="448.857,12.756 461.686,12.756 461.686,25.514 			"/>
			<polygon class="st0" points="461.686,12.756 448.857,12.756 448.857,0 			"/>
			<polygon class="st1" points="448.857,0 461.686,0 461.686,12.756 			"/>
		</g>
		<g>
			<polygon class="st0" points="474.515,25.514 461.686,25.514 461.686,12.756 			"/>
			<polygon class="st1" points="461.686,12.756 474.515,12.756 474.515,25.514 			"/>
			<polygon class="st0" points="474.515,12.756 461.686,12.756 461.686,0 			"/>
			<polygon class="st1" points="461.686,0 474.515,0 474.515,12.756 			"/>
			<polygon class="st0" points="487.343,25.514 474.515,25.514 474.515,12.756 			"/>
			<polygon class="st1" points="474.515,12.756 487.343,12.756 487.343,25.514 			"/>
			<polygon class="st0" points="487.343,12.756 474.515,12.756 474.515,0 			"/>
			<polygon class="st1" points="474.515,0 487.343,0 487.343,12.756 			"/>
		</g>
		<g>
			<polygon class="st0" points="500.172,25.514 487.343,25.514 487.343,12.756 			"/>
			<polygon class="st1" points="487.343,12.756 500.172,12.756 500.172,25.514 			"/>
			<polygon class="st0" points="500.172,12.756 487.343,12.756 487.343,0 			"/>
			<polygon class="st1" points="487.343,0 500.172,0 500.172,12.756 			"/>
			<polygon class="st0" points="513,25.514 500.172,25.514 500.172,12.756 			"/>
			<polygon class="st1" points="500.172,12.756 513,12.756 513,25.514 			"/>
			<polygon class="st0" points="513,12.756 500.172,12.756 500.172,0 			"/>
			<polygon class="st1" points="500.172,0 513,0 513,12.756 			"/>
		</g>
		<g>
			<polygon class="st0" points="513,38.35 513,25.514 525.758,25.514 			"/>
			<polygon class="st1" points="525.758,25.514 525.758,38.35 513,38.35 			"/>
			<polygon class="st0" points="525.758,38.35 525.758,25.514 538.514,25.514 			"/>
			<polygon class="st1" points="538.514,25.514 538.514,38.35 525.758,38.35 			"/>
			<polygon class="st0" points="513,51.186 513,38.35 525.758,38.35 			"/>
			<polygon class="st1" points="525.758,38.35 525.758,51.186 513,51.186 			"/>
			<polygon class="st0" points="525.758,51.186 525.758,38.35 538.514,38.35 			"/>
			<polygon class="st1" points="538.514,38.35 538.514,51.186 525.758,51.186 			"/>
		</g>
		<g>
			<polygon class="st0" points="513,64.022 513,51.186 525.758,51.186 			"/>
			<polygon class="st1" points="525.758,51.186 525.758,64.022 513,64.022 			"/>
			<polygon class="st0" points="525.758,64.022 525.758,51.186 538.514,51.186 			"/>
			<polygon class="st1" points="538.514,51.186 538.514,64.022 525.758,64.022 			"/>
			<polygon class="st0" points="513,76.859 513,64.022 525.758,64.022 			"/>
			<polygon class="st1" points="525.758,64.022 525.758,76.859 513,76.859 			"/>
			<polygon class="st0" points="525.758,76.859 525.758,64.022 538.514,64.022 			"/>
			<polygon class="st1" points="538.514,64.022 538.514,76.859 525.758,76.859 			"/>
		</g>
		<g>
			<polygon class="st0" points="513,89.695 513,76.859 525.758,76.859 			"/>
			<polygon class="st1" points="525.758,76.859 525.758,89.695 513,89.695 			"/>
			<polygon class="st0" points="525.758,89.695 525.758,76.859 538.514,76.859 			"/>
			<polygon class="st1" points="538.514,76.859 538.514,89.695 525.758,89.695 			"/>
			<polygon class="st0" points="513,102.531 513,89.695 525.758,89.695 			"/>
			<polygon class="st1" points="525.758,89.695 525.758,102.531 513,102.531 			"/>
			<polygon class="st0" points="525.758,102.531 525.758,89.695 538.514,89.695 			"/>
			<polygon class="st1" points="538.514,89.695 538.514,102.531 525.758,102.531 			"/>
		</g>
		<g>
			<polygon class="st0" points="513,115.368 513,102.531 525.758,102.531 			"/>
			<polygon class="st1" points="525.758,102.531 525.758,115.368 513,115.368 			"/>
			<polygon class="st0" points="525.758,115.368 525.758,102.531 538.514,102.531 			"/>
			<polygon class="st1" points="538.514,102.531 538.514,115.368 525.758,115.368 			"/>
			<polygon class="st0" points="513,128.204 513,115.368 525.758,115.368 			"/>
			<polygon class="st1" points="525.758,115.368 525.758,128.204 513,128.204 			"/>
			<polygon class="st0" points="525.758,128.204 525.758,115.368 538.514,115.368 			"/>
			<polygon class="st1" points="538.514,115.368 538.514,128.204 525.758,128.204 			"/>
		</g>
		<g>
			<polygon class="st0" points="513,141.04 513,128.204 525.758,128.204 			"/>
			<polygon class="st1" points="525.758,128.204 525.758,141.04 513,141.04 			"/>
			<polygon class="st0" points="525.758,141.04 525.758,128.204 538.514,128.204 			"/>
			<polygon class="st1" points="538.514,128.204 538.514,141.04 525.758,141.04 			"/>
			<polygon class="st0" points="513,153.876 513,141.04 525.758,141.04 			"/>
			<polygon class="st1" points="525.758,141.04 525.758,153.876 513,153.876 			"/>
			<polygon class="st0" points="525.758,153.876 525.758,141.04 538.514,141.04 			"/>
			<polygon class="st1" points="538.514,141.04 538.514,153.876 525.758,153.876 			"/>
		</g>
		<g>
			<polygon class="st0" points="513,166.713 513,153.876 525.758,153.876 			"/>
			<polygon class="st1" points="525.758,153.876 525.758,166.713 513,166.713 			"/>
			<polygon class="st0" points="525.758,166.713 525.758,153.876 538.514,153.876 			"/>
			<polygon class="st1" points="538.514,153.876 538.514,166.713 525.758,166.713 			"/>
			<polygon class="st0" points="513,179.549 513,166.713 525.758,166.713 			"/>
			<polygon class="st1" points="525.758,166.713 525.758,179.549 513,179.549 			"/>
			<polygon class="st0" points="525.758,179.549 525.758,166.713 538.514,166.713 			"/>
			<polygon class="st1" points="538.514,166.713 538.514,179.549 525.758,179.549 			"/>
		</g>
		<g>
			<polygon class="st0" points="513,192.385 513,179.549 525.758,179.549 			"/>
			<polygon class="st1" points="525.758,179.549 525.758,192.385 513,192.385 			"/>
			<polygon class="st0" points="525.758,192.385 525.758,179.549 538.514,179.549 			"/>
			<polygon class="st1" points="538.514,179.549 538.514,192.385 525.758,192.385 			"/>
			<polygon class="st0" points="513,205.222 513,192.385 525.758,192.385 			"/>
			<polygon class="st1" points="525.758,192.385 525.758,205.222 513,205.222 			"/>
			<polygon class="st0" points="525.758,205.222 525.758,192.385 538.514,192.385 			"/>
			<polygon class="st1" points="538.514,192.385 538.514,205.222 525.758,205.222 			"/>
		</g>
		<g>
			<polygon class="st0" points="513,218.058 513,205.222 525.758,205.222 			"/>
			<polygon class="st1" points="525.758,205.222 525.758,218.058 513,218.058 			"/>
			<polygon class="st0" points="525.758,218.058 525.758,205.222 538.514,205.222 			"/>
			<polygon class="st1" points="538.514,205.222 538.514,218.058 525.758,218.058 			"/>
			<polygon class="st0" points="513,230.894 513,218.058 525.758,218.058 			"/>
			<polygon class="st1" points="525.758,218.058 525.758,230.894 513,230.894 			"/>
			<polygon class="st0" points="525.758,230.894 525.758,218.058 538.514,218.058 			"/>
			<polygon class="st1" points="538.514,218.058 538.514,230.894 525.758,230.894 			"/>
		</g>
		<g>
			<polygon class="st0" points="513,243.73 513,230.894 525.758,230.894 			"/>
			<polygon class="st1" points="525.758,230.894 525.758,243.73 513,243.73 			"/>
			<polygon class="st0" points="525.758,243.73 525.758,230.894 538.514,230.894 			"/>
			<polygon class="st1" points="538.514,230.894 538.514,243.73 525.758,243.73 			"/>
			<polygon class="st0" points="513,256.566 513,243.73 525.758,243.73 			"/>
			<polygon class="st1" points="525.758,243.73 525.758,256.566 513,256.566 			"/>
			<polygon class="st0" points="525.758,256.566 525.758,243.73 538.514,243.73 			"/>
			<polygon class="st1" points="538.514,243.73 538.514,256.566 525.758,256.566 			"/>
		</g>
		<g>
			<polygon class="st0" points="513,269.403 513,256.566 525.758,256.566 			"/>
			<polygon class="st1" points="525.758,256.566 525.758,269.403 513,269.403 			"/>
			<polygon class="st0" points="525.758,269.403 525.758,256.566 538.514,256.566 			"/>
			<polygon class="st1" points="538.514,256.566 538.514,269.403 525.758,269.403 			"/>
			<polygon class="st0" points="513,282.239 513,269.403 525.758,269.403 			"/>
			<polygon class="st1" points="525.758,269.403 525.758,282.239 513,282.239 			"/>
			<polygon class="st0" points="525.758,282.239 525.758,269.403 538.514,269.403 			"/>
			<polygon class="st1" points="538.514,269.403 538.514,282.239 525.758,282.239 			"/>
		</g>
		<g>
			<polygon class="st0" points="513,295.076 513,282.239 525.758,282.239 			"/>
			<polygon class="st1" points="525.758,282.239 525.758,295.076 513,295.076 			"/>
			<polygon class="st0" points="525.758,295.076 525.758,282.239 538.514,282.239 			"/>
			<polygon class="st1" points="538.514,282.239 538.514,295.076 525.758,295.076 			"/>
			<polygon class="st0" points="513,307.912 513,295.076 525.758,295.076 			"/>
			<polygon class="st1" points="525.758,295.076 525.758,307.912 513,307.912 			"/>
			<polygon class="st0" points="525.758,307.912 525.758,295.076 538.514,295.076 			"/>
			<polygon class="st1" points="538.514,295.076 538.514,307.912 525.758,307.912 			"/>
		</g>
		<g>
			<polygon class="st0" points="513,320.748 513,307.912 525.758,307.912 			"/>
			<polygon class="st1" points="525.758,307.912 525.758,320.748 513,320.748 			"/>
			<polygon class="st0" points="525.758,320.748 525.758,307.912 538.514,307.912 			"/>
			<polygon class="st1" points="538.514,307.912 538.514,320.748 525.758,320.748 			"/>
			<polygon class="st0" points="513,333.584 513,320.748 525.758,320.748 			"/>
			<polygon class="st1" points="525.758,320.748 525.758,333.584 513,333.584 			"/>
			<polygon class="st0" points="525.758,333.584 525.758,320.748 538.514,320.748 			"/>
			<polygon class="st1" points="538.514,320.748 538.514,333.584 525.758,333.584 			"/>
		</g>
		<g>
			<polygon class="st0" points="513,346.42 513,333.584 525.758,333.584 			"/>
			<polygon class="st1" points="525.758,333.584 525.758,346.42 513,346.42 			"/>
			<polygon class="st0" points="525.758,346.42 525.758,333.584 538.514,333.584 			"/>
			<polygon class="st1" points="538.514,333.584 538.514,346.42 525.758,346.42 			"/>
			<polygon class="st0" points="513,359.257 513,346.42 525.758,346.42 			"/>
			<polygon class="st1" points="525.758,346.42 525.758,359.257 513,359.257 			"/>
			<polygon class="st0" points="525.758,359.257 525.758,346.42 538.514,346.42 			"/>
			<polygon class="st1" points="538.514,346.42 538.514,359.257 525.758,359.257 			"/>
		</g>
		<g>
			<polygon class="st0" points="513,372.093 513,359.257 525.758,359.257 			"/>
			<polygon class="st1" points="525.758,359.257 525.758,372.093 513,372.093 			"/>
			<polygon class="st0" points="525.758,372.093 525.758,359.257 538.514,359.257 			"/>
			<polygon class="st1" points="538.514,359.257 538.514,372.093 525.758,372.093 			"/>
			<polygon class="st0" points="513,384.93 513,372.093 525.758,372.093 			"/>
			<polygon class="st1" points="525.758,372.093 525.758,384.93 513,384.93 			"/>
			<polygon class="st0" points="525.758,384.93 525.758,372.093 538.514,372.093 			"/>
			<polygon class="st1" points="538.514,372.093 538.514,384.93 525.758,384.93 			"/>
		</g>
		<g>
			<polygon class="st0" points="513,397.766 513,384.93 525.758,384.93 			"/>
			<polygon class="st1" points="525.758,384.93 525.758,397.766 513,397.766 			"/>
			<polygon class="st0" points="525.758,397.766 525.758,384.93 538.514,384.93 			"/>
			<polygon class="st1" points="538.514,384.93 538.514,397.766 525.758,397.766 			"/>
			<polygon class="st0" points="513,410.602 513,397.766 525.758,397.766 			"/>
			<polygon class="st1" points="525.758,397.766 525.758,410.602 513,410.602 			"/>
			<polygon class="st0" points="525.758,410.602 525.758,397.766 538.514,397.766 			"/>
			<polygon class="st1" points="538.514,397.766 538.514,410.602 525.758,410.602 			"/>
		</g>
		<g>
			<polygon class="st0" points="513,423.438 513,410.602 525.758,410.602 			"/>
			<polygon class="st1" points="525.758,410.602 525.758,423.438 513,423.438 			"/>
			<polygon class="st0" points="525.758,423.438 525.758,410.602 538.514,410.602 			"/>
			<polygon class="st1" points="538.514,410.602 538.514,423.438 525.758,423.438 			"/>
			<polygon class="st0" points="513,436.274 513,423.438 525.758,423.438 			"/>
			<polygon class="st1" points="525.758,423.438 525.758,436.274 513,436.274 			"/>
			<polygon class="st0" points="525.758,436.274 525.758,423.438 538.514,423.438 			"/>
			<polygon class="st1" points="538.514,423.438 538.514,436.274 525.758,436.274 			"/>
		</g>
		<g>
			<polygon class="st0" points="513,449.11 513,436.274 525.758,436.274 			"/>
			<polygon class="st1" points="525.758,436.274 525.758,449.11 513,449.11 			"/>
			<polygon class="st0" points="525.758,449.11 525.758,436.274 538.514,436.274 			"/>
			<polygon class="st1" points="538.514,436.274 538.514,449.11 525.758,449.11 			"/>
			<polygon class="st0" points="513,461.947 513,449.11 525.758,449.11 			"/>
			<polygon class="st1" points="525.758,449.11 525.758,461.947 513,461.947 			"/>
			<polygon class="st0" points="525.758,461.947 525.758,449.11 538.514,449.11 			"/>
			<polygon class="st1" points="538.514,449.11 538.514,461.947 525.758,461.947 			"/>
		</g>
		<g>
			<polygon class="st0" points="513,474.783 513,461.947 525.758,461.947 			"/>
			<polygon class="st1" points="525.758,461.947 525.758,474.783 513,474.783 			"/>
			<polygon class="st0" points="525.758,474.783 525.758,461.947 538.514,461.947 			"/>
			<polygon class="st1" points="538.514,461.947 538.514,474.783 525.758,474.783 			"/>
			<polygon class="st0" points="513,487.619 513,474.783 525.758,474.783 			"/>
			<polygon class="st1" points="525.758,474.783 525.758,487.619 513,487.619 			"/>
			<polygon class="st0" points="525.758,487.619 525.758,474.783 538.514,474.783 			"/>
			<polygon class="st1" points="538.514,474.783 538.514,487.619 525.758,487.619 			"/>
		</g>
		<g>
			<polygon class="st0" points="513,500.456 513,487.619 525.758,487.619 			"/>
			<polygon class="st1" points="525.758,487.619 525.758,500.456 513,500.456 			"/>
			<polygon class="st0" points="525.758,500.456 525.758,487.619 538.514,487.619 			"/>
			<polygon class="st1" points="538.514,487.619 538.514,500.456 525.758,500.456 			"/>
			<polygon class="st0" points="513,513.292 513,500.456 525.758,500.456 			"/>
			<polygon class="st1" points="525.758,500.456 525.758,513.292 513,513.292 			"/>
			<polygon class="st0" points="525.758,513.292 525.758,500.456 538.514,500.456 			"/>
			<polygon class="st1" points="538.514,500.456 538.514,513.292 525.758,513.292 			"/>
		</g>
		<g>
			<polygon class="st0" points="513,526.128 513,513.292 525.758,513.292 			"/>
			<polygon class="st1" points="525.758,513.292 525.758,526.128 513,526.128 			"/>
			<polygon class="st0" points="525.758,526.128 525.758,513.292 538.514,513.292 			"/>
			<polygon class="st1" points="538.514,513.292 538.514,526.128 525.758,526.128 			"/>
			<polygon class="st0" points="513,538.965 513,526.128 525.758,526.128 			"/>
			<polygon class="st1" points="525.758,526.128 525.758,538.965 513,538.965 			"/>
			<polygon class="st0" points="525.758,538.965 525.758,526.128 538.514,526.128 			"/>
			<polygon class="st1" points="538.514,526.128 538.514,538.965 525.758,538.965 			"/>
		</g>
		<g>
			<polygon class="st0" points="513,551.801 513,538.965 525.758,538.965 			"/>
			<polygon class="st1" points="525.758,538.965 525.758,551.801 513,551.801 			"/>
			<polygon class="st0" points="525.758,551.801 525.758,538.965 538.514,538.965 			"/>
			<polygon class="st1" points="538.514,538.965 538.514,551.801 525.758,551.801 			"/>
			<polygon class="st0" points="513,564.638 513,551.801 525.758,551.801 			"/>
			<polygon class="st1" points="525.758,551.801 525.758,564.638 513,564.638 			"/>
			<polygon class="st0" points="525.758,564.638 525.758,551.801 538.514,551.801 			"/>
			<polygon class="st1" points="538.514,551.801 538.514,564.638 525.758,564.638 			"/>
		</g>
		<g>
			<polygon class="st0" points="513,577.474 513,564.638 525.758,564.638 			"/>
			<polygon class="st1" points="525.758,564.638 525.758,577.474 513,577.474 			"/>
			<polygon class="st0" points="525.758,577.474 525.758,564.638 538.514,564.638 			"/>
			<polygon class="st1" points="538.514,564.638 538.514,577.474 525.758,577.474 			"/>
			<polygon class="st0" points="513,590.31 513,577.474 525.758,577.474 			"/>
			<polygon class="st1" points="525.758,577.474 525.758,590.31 513,590.31 			"/>
			<polygon class="st0" points="525.758,590.31 525.758,577.474 538.514,577.474 			"/>
			<polygon class="st1" points="538.514,577.474 538.514,590.31 525.758,590.31 			"/>
		</g>
		<g>
			<polygon class="st0" points="513,603.146 513,590.31 525.758,590.31 			"/>
			<polygon class="st1" points="525.758,590.31 525.758,603.146 513,603.146 			"/>
			<polygon class="st0" points="525.758,603.146 525.758,590.31 538.514,590.31 			"/>
			<polygon class="st1" points="538.514,590.31 538.514,603.146 525.758,603.146 			"/>
			<polygon class="st0" points="513,615.982 513,603.146 525.758,603.146 			"/>
			<polygon class="st1" points="525.758,603.146 525.758,615.982 513,615.982 			"/>
			<polygon class="st0" points="525.758,615.982 525.758,603.146 538.514,603.146 			"/>
			<polygon class="st1" points="538.514,603.146 538.514,615.982 525.758,615.982 			"/>
		</g>
		<g>
			<polygon class="st0" points="513,628.818 513,615.982 525.758,615.982 			"/>
			<polygon class="st1" points="525.758,615.982 525.758,628.818 513,628.818 			"/>
			<polygon class="st0" points="525.758,628.818 525.758,615.982 538.514,615.982 			"/>
			<polygon class="st1" points="538.514,615.982 538.514,628.818 525.758,628.818 			"/>
			<polygon class="st0" points="513,641.655 513,628.818 525.758,628.818 			"/>
			<polygon class="st1" points="525.758,628.818 525.758,641.655 513,641.655 			"/>
			<polygon class="st0" points="525.758,641.655 525.758,628.818 538.514,628.818 			"/>
			<polygon class="st1" points="538.514,628.818 538.514,641.655 525.758,641.655 			"/>
		</g>
		<g>
			<polygon class="st0" points="513,654.491 513,641.655 525.758,641.655 			"/>
			<polygon class="st1" points="525.758,641.655 525.758,654.491 513,654.491 			"/>
			<polygon class="st0" points="525.758,654.491 525.758,641.655 538.514,641.655 			"/>
			<polygon class="st1" points="538.514,641.655 538.514,654.491 525.758,654.491 			"/>
			<polygon class="st0" points="513,667.327 513,654.491 525.758,654.491 			"/>
			<polygon class="st1" points="525.758,654.491 525.758,667.327 513,667.327 			"/>
			<polygon class="st0" points="525.758,667.327 525.758,654.491 538.514,654.491 			"/>
			<polygon class="st1" points="538.514,654.491 538.514,667.327 525.758,667.327 			"/>
		</g>
		<g>
			<polygon class="st0" points="513,680.164 513,667.327 525.758,667.327 			"/>
			<polygon class="st1" points="525.758,667.327 525.758,680.164 513,680.164 			"/>
			<polygon class="st0" points="525.758,680.164 525.758,667.327 538.514,667.327 			"/>
			<polygon class="st1" points="538.514,667.327 538.514,680.164 525.758,680.164 			"/>
			<polygon class="st0" points="513,693 513,680.164 525.758,680.164 			"/>
			<polygon class="st1" points="525.758,680.164 525.758,693 513,693 			"/>
			<polygon class="st0" points="525.758,693 525.758,680.164 538.514,680.164 			"/>
			<polygon class="st1" points="538.514,680.164 538.514,693 525.758,693 			"/>
		</g>
		<g>
			<polygon class="st0" points="500.172,693 513,693 513,705.758 			"/>
			<polygon class="st1" points="513,705.758 500.172,705.758 500.172,693 			"/>
			<polygon class="st0" points="500.172,705.758 513,705.758 513,718.514 			"/>
			<polygon class="st1" points="513,718.514 500.172,718.514 500.172,705.758 			"/>
			<polygon class="st0" points="487.343,693 500.172,693 500.172,705.758 			"/>
			<polygon class="st1" points="500.172,705.758 487.343,705.758 487.343,693 			"/>
			<polygon class="st0" points="487.343,705.758 500.172,705.758 500.172,718.514 			"/>
			<polygon class="st1" points="500.172,718.514 487.343,718.514 487.343,705.758 			"/>
		</g>
		<g>
			<polygon class="st0" points="474.515,693 487.343,693 487.343,705.758 			"/>
			<polygon class="st1" points="487.343,705.758 474.515,705.758 474.515,693 			"/>
			<polygon class="st0" points="474.515,705.758 487.343,705.758 487.343,718.514 			"/>
			<polygon class="st1" points="487.343,718.514 474.515,718.514 474.515,705.758 			"/>
			<polygon class="st0" points="461.686,693 474.515,693 474.515,705.758 			"/>
			<polygon class="st1" points="474.515,705.758 461.686,705.758 461.686,693 			"/>
			<polygon class="st0" points="461.686,705.758 474.515,705.758 474.515,718.514 			"/>
			<polygon class="st1" points="474.515,718.514 461.686,718.514 461.686,705.758 			"/>
		</g>
		<g>
			<polygon class="st0" points="448.857,693 461.686,693 461.686,705.758 			"/>
			<polygon class="st1" points="461.686,705.758 448.857,705.758 448.857,693 			"/>
			<polygon class="st0" points="448.857,705.758 461.686,705.758 461.686,718.514 			"/>
			<polygon class="st1" points="461.686,718.514 448.857,718.514 448.857,705.758 			"/>
			<polygon class="st0" points="436.028,693 448.857,693 448.857,705.758 			"/>
			<polygon class="st1" points="448.857,705.758 436.028,705.758 436.028,693 			"/>
			<polygon class="st0" points="436.028,705.758 448.857,705.758 448.857,718.514 			"/>
			<polygon class="st1" points="448.857,718.514 436.028,718.514 436.028,705.758 			"/>
		</g>
		<g>
			<polygon class="st0" points="423.2,693 436.028,693 436.028,705.758 			"/>
			<polygon class="st1" points="436.028,705.758 423.2,705.758 423.2,693 			"/>
			<polygon class="st0" points="423.2,705.758 436.028,705.758 436.028,718.514 			"/>
			<polygon class="st1" points="436.028,718.514 423.2,718.514 423.2,705.758 			"/>
			<polygon class="st0" points="410.371,693 423.2,693 423.2,705.758 			"/>
			<polygon class="st1" points="423.2,705.758 410.371,705.758 410.371,693 			"/>
			<polygon class="st0" points="410.371,705.758 423.2,705.758 423.2,718.514 			"/>
			<polygon class="st1" points="423.2,718.514 410.371,718.514 410.371,705.758 			"/>
		</g>
		<g>
			<polygon class="st0" points="397.543,693 410.371,693 410.371,705.758 			"/>
			<polygon class="st1" points="410.371,705.758 397.543,705.758 397.543,693 			"/>
			<polygon class="st0" points="397.543,705.758 410.371,705.758 410.371,718.514 			"/>
			<polygon class="st1" points="410.371,718.514 397.543,718.514 397.543,705.758 			"/>
			<polygon class="st0" points="384.714,693 397.543,693 397.543,705.758 			"/>
			<polygon class="st1" points="397.543,705.758 384.714,705.758 384.714,693 			"/>
			<polygon class="st0" points="384.714,705.758 397.543,705.758 397.543,718.514 			"/>
			<polygon class="st1" points="397.543,718.514 384.714,718.514 384.714,705.758 			"/>
		</g>
		<g>
			<polygon class="st0" points="371.886,693 384.714,693 384.714,705.758 			"/>
			<polygon class="st1" points="384.714,705.758 371.886,705.758 371.886,693 			"/>
			<polygon class="st0" points="371.886,705.758 384.714,705.758 384.714,718.514 			"/>
			<polygon class="st1" points="384.714,718.514 371.886,718.514 371.886,705.758 			"/>
			<polygon class="st0" points="359.057,693 371.886,693 371.886,705.758 			"/>
			<polygon class="st1" points="371.886,705.758 359.057,705.758 359.057,693 			"/>
			<polygon class="st0" points="359.057,705.758 371.886,705.758 371.886,718.514 			"/>
			<polygon class="st1" points="371.886,718.514 359.057,718.514 359.057,705.758 			"/>
		</g>
		<g>
			<polygon class="st0" points="346.229,693 359.057,693 359.057,705.758 			"/>
			<polygon class="st1" points="359.057,705.758 346.229,705.758 346.229,693 			"/>
			<polygon class="st0" points="346.229,705.758 359.057,705.758 359.057,718.514 			"/>
			<polygon class="st1" points="359.057,718.514 346.229,718.514 346.229,705.758 			"/>
			<polygon class="st0" points="333.399,693 346.229,693 346.229,705.758 			"/>
			<polygon class="st1" points="346.229,705.758 333.399,705.758 333.399,693 			"/>
			<polygon class="st0" points="333.399,705.758 346.229,705.758 346.229,718.514 			"/>
			<polygon class="st1" points="346.229,718.514 333.399,718.514 333.399,705.758 			"/>
		</g>
		<g>
			<polygon class="st0" points="320.571,693 333.399,693 333.399,705.758 			"/>
			<polygon class="st1" points="333.399,705.758 320.571,705.758 320.571,693 			"/>
			<polygon class="st0" points="320.571,705.758 333.399,705.758 333.399,718.514 			"/>
			<polygon class="st1" points="333.399,718.514 320.571,718.514 320.571,705.758 			"/>
			<polygon class="st0" points="307.742,693 320.571,693 320.571,705.758 			"/>
			<polygon class="st1" points="320.571,705.758 307.742,705.758 307.742,693 			"/>
			<polygon class="st0" points="307.742,705.758 320.571,705.758 320.571,718.514 			"/>
			<polygon class="st1" points="320.571,718.514 307.742,718.514 307.742,705.758 			"/>
		</g>
		<g>
			<polygon class="st0" points="294.914,693 307.742,693 307.742,705.758 			"/>
			<polygon class="st1" points="307.742,705.758 294.914,705.758 294.914,693 			"/>
			<polygon class="st0" points="294.914,705.758 307.742,705.758 307.742,718.514 			"/>
			<polygon class="st1" points="307.742,718.514 294.914,718.514 294.914,705.758 			"/>
			<polygon class="st0" points="282.085,693 294.914,693 294.914,705.758 			"/>
			<polygon class="st1" points="294.914,705.758 282.085,705.758 282.085,693 			"/>
			<polygon class="st0" points="282.085,705.758 294.914,705.758 294.914,718.514 			"/>
			<polygon class="st1" points="294.914,718.514 282.085,718.514 282.085,705.758 			"/>
		</g>
		<g>
			<polygon class="st0" points="269.257,693 282.085,693 282.085,705.758 			"/>
			<polygon class="st1" points="282.085,705.758 269.257,705.758 269.257,693 			"/>
			<polygon class="st0" points="269.257,705.758 282.085,705.758 282.085,718.514 			"/>
			<polygon class="st1" points="282.085,718.514 269.257,718.514 269.257,705.758 			"/>
			<polygon class="st0" points="256.428,693 269.257,693 269.257,705.758 			"/>
			<polygon class="st1" points="269.257,705.758 256.428,705.758 256.428,693 			"/>
			<polygon class="st0" points="256.428,705.758 269.257,705.758 269.257,718.514 			"/>
			<polygon class="st1" points="269.257,718.514 256.428,718.514 256.428,705.758 			"/>
		</g>
		<g>
			<polygon class="st0" points="243.6,693 256.428,693 256.428,705.758 			"/>
			<polygon class="st1" points="256.428,705.758 243.6,705.758 243.6,693 			"/>
			<polygon class="st0" points="243.6,705.758 256.428,705.758 256.428,718.514 			"/>
			<polygon class="st1" points="256.428,718.514 243.6,718.514 243.6,705.758 			"/>
			<polygon class="st0" points="230.771,693 243.6,693 243.6,705.758 			"/>
			<polygon class="st1" points="243.6,705.758 230.771,705.758 230.771,693 			"/>
			<polygon class="st0" points="230.771,705.758 243.6,705.758 243.6,718.514 			"/>
			<polygon class="st1" points="243.6,718.514 230.771,718.514 230.771,705.758 			"/>
		</g>
		<g>
			<polygon class="st0" points="217.942,693 230.771,693 230.771,705.758 			"/>
			<polygon class="st1" points="230.771,705.758 217.942,705.758 217.942,693 			"/>
			<polygon class="st0" points="217.942,705.758 230.771,705.758 230.771,718.514 			"/>
			<polygon class="st1" points="230.771,718.514 217.942,718.514 217.942,705.758 			"/>
			<polygon class="st0" points="205.114,693 217.942,693 217.942,705.758 			"/>
			<polygon class="st1" points="217.942,705.758 205.114,705.758 205.114,693 			"/>
			<polygon class="st0" points="205.114,705.758 217.942,705.758 217.942,718.514 			"/>
			<polygon class="st1" points="217.942,718.514 205.114,718.514 205.114,705.758 			"/>
		</g>
		<g>
			<polygon class="st0" points="192.285,693 205.114,693 205.114,705.758 			"/>
			<polygon class="st1" points="205.114,705.758 192.285,705.758 192.285,693 			"/>
			<polygon class="st0" points="192.285,705.758 205.114,705.758 205.114,718.514 			"/>
			<polygon class="st1" points="205.114,718.514 192.285,718.514 192.285,705.758 			"/>
			<polygon class="st0" points="179.457,693 192.285,693 192.285,705.758 			"/>
			<polygon class="st1" points="192.285,705.758 179.457,705.758 179.457,693 			"/>
			<polygon class="st0" points="179.457,705.758 192.285,705.758 192.285,718.514 			"/>
			<polygon class="st1" points="192.285,718.514 179.457,718.514 179.457,705.758 			"/>
		</g>
		<g>
			<polygon class="st0" points="166.628,693 179.457,693 179.457,705.758 			"/>
			<polygon class="st1" points="179.457,705.758 166.628,705.758 166.628,693 			"/>
			<polygon class="st0" points="166.628,705.758 179.457,705.758 179.457,718.514 			"/>
			<polygon class="st1" points="179.457,718.514 166.628,718.514 166.628,705.758 			"/>
			<polygon class="st0" points="153.799,693 166.628,693 166.628,705.758 			"/>
			<polygon class="st1" points="166.628,705.758 153.799,705.758 153.799,693 			"/>
			<polygon class="st0" points="153.799,705.758 166.628,705.758 166.628,718.514 			"/>
			<polygon class="st1" points="166.628,718.514 153.799,718.514 153.799,705.758 			"/>
		</g>
		<g>
			<polygon class="st0" points="140.971,693 153.799,693 153.799,705.758 			"/>
			<polygon class="st1" points="153.799,705.758 140.971,705.758 140.971,693 			"/>
			<polygon class="st0" points="140.971,705.758 153.799,705.758 153.799,718.514 			"/>
			<polygon class="st1" points="153.799,718.514 140.971,718.514 140.971,705.758 			"/>
			<polygon class="st0" points="128.143,693 140.971,693 140.971,705.758 			"/>
			<polygon class="st1" points="140.971,705.758 128.143,705.758 128.143,693 			"/>
			<polygon class="st0" points="128.143,705.758 140.971,705.758 140.971,718.514 			"/>
			<polygon class="st1" points="140.971,718.514 128.143,718.514 128.143,705.758 			"/>
		</g>
		<g>
			<polygon class="st0" points="115.314,693 128.143,693 128.143,705.758 			"/>
			<polygon class="st1" points="128.143,705.758 115.314,705.758 115.314,693 			"/>
			<polygon class="st0" points="115.314,705.758 128.143,705.758 128.143,718.514 			"/>
			<polygon class="st1" points="128.143,718.514 115.314,718.514 115.314,705.758 			"/>
			<polygon class="st0" points="102.485,693 115.314,693 115.314,705.758 			"/>
			<polygon class="st1" points="115.314,705.758 102.485,705.758 102.485,693 			"/>
			<polygon class="st0" points="102.485,705.758 115.314,705.758 115.314,718.514 			"/>
			<polygon class="st1" points="115.314,718.514 102.485,718.514 102.485,705.758 			"/>
		</g>
		<g>
			<polygon class="st0" points="89.657,693 102.485,693 102.485,705.758 			"/>
			<polygon class="st1" points="102.485,705.758 89.657,705.758 89.657,693 			"/>
			<polygon class="st0" points="89.657,705.758 102.485,705.758 102.485,718.514 			"/>
			<polygon class="st1" points="102.485,718.514 89.657,718.514 89.657,705.758 			"/>
			<polygon class="st0" points="76.828,693 89.657,693 89.657,705.758 			"/>
			<polygon class="st1" points="89.657,705.758 76.828,705.758 76.828,693 			"/>
			<polygon class="st0" points="76.828,705.758 89.657,705.758 89.657,718.514 			"/>
			<polygon class="st1" points="89.657,718.514 76.828,718.514 76.828,705.758 			"/>
		</g>
		<g>
			<polygon class="st0" points="64,693 76.828,693 76.828,705.758 			"/>
			<polygon class="st1" points="76.828,705.758 64,705.758 64,693 			"/>
			<polygon class="st0" points="64,705.758 76.828,705.758 76.828,718.514 			"/>
			<polygon class="st1" points="76.828,718.514 64,718.514 64,705.758 			"/>
			<polygon class="st0" points="51.171,693 64,693 64,705.758 			"/>
			<polygon class="st1" points="64,705.758 51.171,705.758 51.171,693 			"/>
			<polygon class="st0" points="51.171,705.758 64,705.758 64,718.514 			"/>
			<polygon class="st1" points="64,718.514 51.171,718.514 51.171,705.758 			"/>
		</g>
		<g>
			<polygon class="st0" points="38.342,693 51.171,693 51.171,705.758 			"/>
			<polygon class="st1" points="51.171,705.758 38.342,705.758 38.342,693 			"/>
			<polygon class="st0" points="38.342,705.758 51.171,705.758 51.171,718.514 			"/>
			<polygon class="st1" points="51.171,718.514 38.342,718.514 38.342,705.758 			"/>
			<polygon class="st0" points="25.514,693 38.342,693 38.342,705.758 			"/>
			<polygon class="st1" points="38.342,705.758 25.514,705.758 25.514,693 			"/>
			<polygon class="st0" points="25.514,705.758 38.342,705.758 38.342,718.514 			"/>
			<polygon class="st1" points="38.342,718.514 25.514,718.514 25.514,705.758 			"/>
		</g>
		<g>
			<polygon class="st0" points="12.757,25.514 0,25.514 0,12.756 			"/>
			<polygon class="st1" points="0,12.756 12.757,12.756 12.757,25.514 			"/>
			<polygon class="st0" points="12.757,12.756 0,12.756 0,0 			"/>
			<polygon class="st1" points="0,0 12.757,0 12.757,12.756 			"/>
			<polygon class="st0" points="25.514,25.514 12.757,25.514 12.757,12.756 			"/>
			<polygon class="st1" points="12.757,12.756 25.514,12.756 25.514,25.514 			"/>
			<polygon class="st0" points="25.514,12.756 12.757,12.756 12.757,0 			"/>
			<polygon class="st1" points="12.757,0 25.514,0 25.514,12.756 			"/>
		</g>
		<g>
			<polygon class="st0" points="513,12.757 513,0 525.758,0 			"/>
			<polygon class="st1" points="525.758,0 525.758,12.757 513,12.757 			"/>
			<polygon class="st0" points="525.758,12.757 525.758,0 538.514,0 			"/>
			<polygon class="st1" points="538.514,0 538.514,12.757 525.758,12.757 			"/>
			<polygon class="st0" points="513,25.514 513,12.757 525.758,12.757 			"/>
			<polygon class="st1" points="525.758,12.757 525.758,25.514 513,25.514 			"/>
			<polygon class="st0" points="525.758,25.514 525.758,12.757 538.514,12.757 			"/>
			<polygon class="st1" points="538.514,12.757 538.514,25.514 525.758,25.514 			"/>
		</g>
		<g>
			<polygon class="st0" points="525.757,693 538.514,693 538.514,705.758 			"/>
			<polygon class="st1" points="538.514,705.758 525.757,705.758 525.757,693 			"/>
			<polygon class="st0" points="525.757,705.758 538.514,705.758 538.514,718.514 			"/>
			<polygon class="st1" points="538.514,718.514 525.757,718.514 525.757,705.758 			"/>
			<polygon class="st0" points="513,693 525.757,693 525.757,705.758 			"/>
			<polygon class="st1" points="525.757,705.758 513,705.758 513,693 			"/>
			<polygon class="st0" points="513,705.758 525.757,705.758 525.757,718.514 			"/>
			<polygon class="st1" points="525.757,718.514 513,718.514 513,705.758 			"/>
		</g>
		<g>
			<polygon class="st0" points="25.514,705.757 25.514,718.514 12.756,718.514 			"/>
			<polygon class="st1" points="12.756,718.514 12.756,705.757 25.514,705.757 			"/>
			<polygon class="st0" points="12.756,705.757 12.756,718.514 0,718.514 			"/>
			<polygon class="st1" points="0,718.514 0,705.757 12.756,705.757 			"/>
			<polygon class="st0" points="25.514,693 25.514,705.757 12.756,705.757 			"/>
			<polygon class="st1" points="12.756,705.757 12.756,693 25.514,693 			"/>
			<polygon class="st0" points="12.756,693 12.756,705.757 0,705.757 			"/>
			<polygon class="st1" points="0,705.757 0,693 12.756,693 			"/>
		</g>
	</g>
</g>
</svg>
