<?xml version="1.0" encoding="utf-8"?>
<!-- Generator: Adobe Illustrator 14.0.0, SVG Export Plug-In . SVG Version: 6.00 Build 43363)  -->
<!DOCTYPE svg PUBLIC "-//W3C//DTD SVG 1.1//EN" "http://www.w3.org/Graphics/SVG/1.1/DTD/svg11.dtd">
<svg version="1.1" id="Layer_1" xmlns="http://www.w3.org/2000/svg" xmlns:xlink="http://www.w3.org/1999/xlink" x="0px" y="0px"
	 width="576.362px" height="756.735px" viewBox="0 0 576.362 756.735" style="enable-background:new 0 0 576.362 756.735;"
	 xml:space="preserve">
<style type="text/css">
<![CDATA[
	.st0{fill:#EF4123;}
	.st1{fill:#F3C727;}
	.st2{fill:#00904C;}
	.st3{fill:#D2232A;}
]]>
</style>
<g>
	<polygon class="st3" points="551.519,199.778 560.797,199.816 574.507,220.371 565.229,220.333 	"/>
	<path class="st1" d="M569.341,180.159c8.615,9.326-1.33,23.496-9.882,28.414c-8.615,4.954-11.402,13.842-4.814,25.208
		c-4.308-13.114,6.692-18.285,11.149-21.419C573.173,207.17,581.756,192.107,569.341,180.159z"/>
	<polygon class="st3" points="551.519,240.887 560.797,240.925 574.507,261.48 565.229,261.442 	"/>
	<path class="st1" d="M569.341,221.268c8.615,9.325-1.33,23.496-9.882,28.414c-8.615,4.954-11.402,13.843-4.814,25.208
		c-4.308-13.114,6.692-18.285,11.149-21.419C573.173,248.279,581.756,233.216,569.341,221.268z"/>
	<polygon class="st2" points="551.519,240.963 560.797,240.925 574.507,220.371 565.229,220.409 	"/>
	<polygon class="st3" points="551.519,281.996 560.797,282.034 574.507,302.589 565.229,302.551 	"/>
	<path class="st1" d="M569.341,262.377c8.615,9.326-1.33,23.496-9.882,28.414c-8.615,4.954-11.402,13.842-4.814,25.208
		c-4.308-13.114,6.692-18.285,11.149-21.42C573.173,289.388,581.756,274.325,569.341,262.377z"/>
	<polygon class="st2" points="551.519,282.072 560.797,282.034 574.507,261.48 565.229,261.518 	"/>
	<polygon class="st3" points="551.519,323.105 560.797,323.144 574.507,343.698 565.229,343.66 	"/>
	<path class="st1" d="M569.341,303.486c8.615,9.326-1.33,23.496-9.882,28.414c-8.615,4.954-11.402,13.842-4.814,25.208
		c-4.308-13.114,6.692-18.285,11.149-21.419C573.173,330.497,581.756,315.435,569.341,303.486z"/>
	<polygon class="st2" points="551.519,323.182 560.797,323.144 574.507,302.589 565.229,302.627 	"/>
	<polygon class="st3" points="551.519,364.214 560.797,364.252 574.507,384.807 565.229,384.769 	"/>
	<path class="st1" d="M569.341,344.595c8.615,9.325-1.33,23.496-9.882,28.414c-8.615,4.954-11.402,13.843-4.814,25.208
		c-4.308-13.114,6.692-18.285,11.149-21.419C573.173,371.606,581.756,356.543,569.341,344.595z"/>
	<polygon class="st2" points="551.519,364.291 560.797,364.252 574.507,343.698 565.229,343.736 	"/>
	<polygon class="st3" points="551.519,405.323 560.797,405.362 574.507,425.916 565.229,425.878 	"/>
	<path class="st1" d="M569.341,385.704c8.615,9.326-1.33,23.496-9.882,28.414c-8.615,4.955-11.402,13.843-4.814,25.208
		c-4.308-13.114,6.692-18.285,11.149-21.42C573.173,412.715,581.756,397.652,569.341,385.704z"/>
	<polygon class="st2" points="551.519,405.4 560.797,405.362 574.507,384.807 565.229,384.845 	"/>
	<polygon class="st3" points="551.519,446.433 560.797,446.471 574.507,467.025 565.229,466.987 	"/>
	<path class="st1" d="M569.341,426.813c8.615,9.326-1.33,23.496-9.882,28.414c-8.615,4.954-11.402,13.842-4.814,25.208
		c-4.308-13.114,6.692-18.285,11.149-21.419C573.173,453.825,581.756,438.762,569.341,426.813z"/>
	<polygon class="st2" points="551.519,446.509 560.797,446.471 574.507,425.916 565.229,425.954 	"/>
	<polygon class="st3" points="551.519,487.542 560.797,487.58 574.507,508.134 565.229,508.096 	"/>
	<path class="st1" d="M569.341,467.922c8.615,9.326-1.33,23.496-9.882,28.414c-8.615,4.954-11.402,13.843-4.814,25.208
		c-4.308-13.114,6.692-18.285,11.149-21.419C573.173,494.934,581.756,479.871,569.341,467.922z"/>
	<polygon class="st2" points="551.519,487.618 560.797,487.58 574.507,467.025 565.229,467.063 	"/>
	<polygon class="st3" points="551.519,528.65 560.797,528.688 574.507,549.243 565.229,549.205 	"/>
	<path class="st1" d="M569.341,509.031c8.615,9.326-1.33,23.496-9.882,28.414c-8.615,4.954-11.402,13.842-4.814,25.208
		c-4.308-13.114,6.692-18.285,11.149-21.42C573.173,536.042,581.756,520.979,569.341,509.031z"/>
	<polygon class="st2" points="551.519,528.727 560.797,528.688 574.507,508.134 565.229,508.172 	"/>
	<polygon class="st3" points="551.519,569.76 560.797,569.798 574.507,590.353 565.229,590.314 	"/>
	<path class="st1" d="M569.341,550.141c8.615,9.325-1.33,23.496-9.882,28.414c-8.615,4.954-11.402,13.843-4.814,25.208
		c-4.308-13.114,6.692-18.285,11.149-21.419C573.173,577.152,581.756,562.089,569.341,550.141z"/>
	<polygon class="st2" points="551.519,569.836 560.797,569.798 574.507,549.243 565.229,549.281 	"/>
	<polygon class="st3" points="551.519,610.869 560.797,610.907 574.507,631.461 565.229,631.423 	"/>
	<path class="st1" d="M569.341,591.25c8.615,9.326-1.33,23.496-9.882,28.414c-8.615,4.954-11.402,13.843-4.814,25.208
		c-4.308-13.114,6.692-18.285,11.149-21.42C573.173,618.261,581.756,603.198,569.341,591.25z"/>
	<polygon class="st2" points="551.519,610.945 560.797,610.907 574.507,590.353 565.229,590.391 	"/>
	<polygon class="st3" points="551.519,651.978 560.797,652.016 574.507,672.57 565.229,672.532 	"/>
	<path class="st1" d="M569.341,632.358c8.615,9.326-1.33,23.496-9.882,28.414c-8.615,4.954-11.402,13.842-4.814,25.208
		c-4.308-13.114,6.692-18.285,11.149-21.42C573.173,659.37,581.756,644.307,569.341,632.358z"/>
	<polygon class="st2" points="551.519,652.054 560.797,652.016 574.507,631.461 565.229,631.5 	"/>
	<polygon class="st3" points="551.519,693.087 560.797,693.125 574.507,713.68 565.229,713.642 	"/>
	<path class="st1" d="M569.341,673.468c8.615,9.325-1.33,23.496-9.882,28.414c-8.615,4.954-11.402,13.843-4.814,25.208
		c-4.308-13.114,6.692-18.285,11.149-21.419C573.173,700.479,581.756,685.416,569.341,673.468z"/>
	<polygon class="st2" points="551.519,693.163 560.797,693.125 574.507,672.57 565.229,672.608 	"/>
	<polygon class="st2" points="551.519,734.272 560.797,734.234 574.507,713.68 565.229,713.718 	"/>
</g>
<g>
	<polygon class="st3" points="24.564,199.778 15.286,199.816 1.576,220.371 10.854,220.333 	"/>
	<path class="st1" d="M6.743,180.159c-8.615,9.326,1.33,23.496,9.882,28.414c8.615,4.954,11.402,13.842,4.814,25.208
		c4.307-13.114-6.693-18.285-11.149-21.419C2.91,207.17-5.673,192.107,6.743,180.159z"/>
	<polygon class="st3" points="24.564,240.887 15.286,240.925 1.576,261.48 10.854,261.442 	"/>
	<path class="st1" d="M6.743,221.268c-8.615,9.325,1.33,23.496,9.882,28.414c8.615,4.954,11.402,13.843,4.814,25.208
		c4.307-13.114-6.693-18.285-11.149-21.419C2.91,248.279-5.673,233.216,6.743,221.268z"/>
	<polygon class="st2" points="24.564,240.963 15.286,240.925 1.576,220.371 10.854,220.409 	"/>
	<polygon class="st3" points="24.564,281.996 15.286,282.034 1.576,302.589 10.854,302.551 	"/>
	<path class="st1" d="M6.743,262.377c-8.615,9.326,1.33,23.496,9.882,28.414c8.615,4.954,11.402,13.842,4.814,25.208
		c4.307-13.114-6.693-18.285-11.149-21.42C2.91,289.388-5.673,274.325,6.743,262.377z"/>
	<polygon class="st2" points="24.564,282.072 15.286,282.034 1.576,261.48 10.854,261.518 	"/>
	<polygon class="st3" points="24.564,323.105 15.286,323.144 1.576,343.698 10.854,343.66 	"/>
	<path class="st1" d="M6.743,303.486c-8.615,9.326,1.33,23.496,9.882,28.414c8.615,4.954,11.402,13.842,4.814,25.208
		c4.307-13.114-6.693-18.285-11.149-21.419C2.91,330.497-5.673,315.435,6.743,303.486z"/>
	<polygon class="st2" points="24.564,323.182 15.286,323.144 1.576,302.589 10.854,302.627 	"/>
	<polygon class="st3" points="24.564,364.214 15.286,364.252 1.576,384.807 10.854,384.769 	"/>
	<path class="st1" d="M6.743,344.595c-8.615,9.325,1.33,23.496,9.882,28.414c8.615,4.954,11.402,13.843,4.814,25.208
		c4.307-13.114-6.693-18.285-11.149-21.419C2.91,371.606-5.673,356.543,6.743,344.595z"/>
	<polygon class="st2" points="24.564,364.291 15.286,364.252 1.576,343.698 10.854,343.736 	"/>
	<polygon class="st3" points="24.564,405.323 15.286,405.362 1.576,425.916 10.854,425.878 	"/>
	<path class="st1" d="M6.743,385.704c-8.615,9.326,1.33,23.496,9.882,28.414c8.615,4.955,11.402,13.843,4.814,25.208
		c4.307-13.114-6.693-18.285-11.149-21.42C2.91,412.715-5.673,397.652,6.743,385.704z"/>
	<polygon class="st2" points="24.564,405.4 15.286,405.362 1.576,384.807 10.854,384.845 	"/>
	<polygon class="st3" points="24.564,446.433 15.286,446.471 1.576,467.025 10.854,466.987 	"/>
	<path class="st1" d="M6.743,426.813c-8.615,9.326,1.33,23.496,9.882,28.414c8.615,4.954,11.402,13.842,4.814,25.208
		c4.307-13.114-6.693-18.285-11.149-21.419C2.91,453.825-5.673,438.762,6.743,426.813z"/>
	<polygon class="st2" points="24.564,446.509 15.286,446.471 1.576,425.916 10.854,425.954 	"/>
	<polygon class="st3" points="24.564,487.542 15.286,487.58 1.576,508.134 10.854,508.096 	"/>
	<path class="st1" d="M6.743,467.922c-8.615,9.326,1.33,23.496,9.882,28.414c8.615,4.954,11.402,13.843,4.814,25.208
		c4.307-13.114-6.693-18.285-11.149-21.419C2.91,494.934-5.673,479.871,6.743,467.922z"/>
	<polygon class="st2" points="24.564,487.618 15.286,487.58 1.576,467.025 10.854,467.063 	"/>
	<polygon class="st3" points="24.564,528.65 15.286,528.688 1.576,549.243 10.854,549.205 	"/>
	<path class="st1" d="M6.743,509.031c-8.615,9.326,1.33,23.496,9.882,28.414c8.615,4.954,11.402,13.842,4.814,25.208
		c4.307-13.114-6.693-18.285-11.149-21.42C2.91,536.042-5.673,520.979,6.743,509.031z"/>
	<polygon class="st2" points="24.564,528.727 15.286,528.688 1.576,508.134 10.854,508.172 	"/>
	<polygon class="st3" points="24.564,569.76 15.286,569.798 1.576,590.353 10.854,590.314 	"/>
	<path class="st1" d="M6.743,550.141c-8.615,9.325,1.33,23.496,9.882,28.414c8.615,4.954,11.402,13.843,4.814,25.208
		c4.307-13.114-6.693-18.285-11.149-21.419C2.91,577.152-5.673,562.089,6.743,550.141z"/>
	<polygon class="st2" points="24.564,569.836 15.286,569.798 1.576,549.243 10.854,549.281 	"/>
	<polygon class="st3" points="24.564,610.869 15.286,610.907 1.576,631.461 10.854,631.423 	"/>
	<path class="st1" d="M6.743,591.25c-8.615,9.326,1.33,23.496,9.882,28.414c8.615,4.954,11.402,13.843,4.814,25.208
		c4.307-13.114-6.693-18.285-11.149-21.42C2.91,618.261-5.673,603.198,6.743,591.25z"/>
	<polygon class="st2" points="24.564,610.945 15.286,610.907 1.576,590.353 10.854,590.391 	"/>
	<polygon class="st3" points="24.564,651.978 15.286,652.016 1.576,672.57 10.854,672.532 	"/>
	<path class="st1" d="M6.743,632.358c-8.615,9.326,1.33,23.496,9.882,28.414c8.615,4.954,11.402,13.842,4.814,25.208
		c4.307-13.114-6.693-18.285-11.149-21.42C2.91,659.37-5.673,644.307,6.743,632.358z"/>
	<polygon class="st2" points="24.564,652.054 15.286,652.016 1.576,631.461 10.854,631.5 	"/>
	<polygon class="st3" points="24.564,693.087 15.286,693.125 1.576,713.68 10.854,713.642 	"/>
	<path class="st1" d="M6.743,673.468c-8.615,9.325,1.33,23.496,9.882,28.414c8.615,4.954,11.402,13.843,4.814,25.208
		c4.307-13.114-6.693-18.285-11.149-21.419C2.91,700.479-5.673,685.416,6.743,673.468z"/>
	<polygon class="st2" points="24.564,693.163 15.286,693.125 1.576,672.57 10.854,672.608 	"/>
	<polygon class="st2" points="24.564,734.272 15.286,734.234 1.576,713.68 10.854,713.718 	"/>
</g>
<g>
	<polygon class="st3" points="24.564,35.342 15.286,35.38 1.576,55.935 10.854,55.896 	"/>
	<path class="st1" d="M6.743,15.722c-8.615,9.326,1.33,23.496,9.882,28.414c8.615,4.954,11.402,13.843,4.814,25.208
		c4.307-13.114-6.693-18.285-11.149-21.42C2.91,42.734-5.673,27.671,6.743,15.722z"/>
	<polygon class="st2" points="24.564,35.418 15.286,35.38 1.576,14.825 10.854,14.864 	"/>
	<polygon class="st3" points="24.564,76.451 15.286,76.489 1.576,97.044 10.854,97.005 	"/>
	<path class="st1" d="M6.743,56.832c-8.615,9.326,1.33,23.496,9.882,28.414c8.615,4.954,11.402,13.843,4.814,25.208
		c4.307-13.114-6.693-18.285-11.149-21.42C2.91,83.843-5.673,68.78,6.743,56.832z"/>
	<polygon class="st2" points="24.564,76.527 15.286,76.489 1.576,55.935 10.854,55.973 	"/>
	<polygon class="st3" points="24.564,117.56 15.286,117.598 1.576,138.153 10.854,138.115 	"/>
	<path class="st1" d="M6.743,97.941c-8.615,9.325,1.33,23.496,9.882,28.414c8.615,4.954,11.402,13.843,4.814,25.208
		c4.307-13.114-6.693-18.285-11.149-21.419C2.91,124.952-5.673,109.889,6.743,97.941z"/>
	<polygon class="st2" points="24.564,117.636 15.286,117.598 1.576,97.044 10.854,97.082 	"/>
	<polygon class="st3" points="24.564,158.669 15.286,158.707 1.576,179.262 10.854,179.224 	"/>
	<path class="st1" d="M6.743,139.05c-8.615,9.325,1.33,23.496,9.882,28.414c8.615,4.955,11.402,13.843,4.814,25.208
		c4.307-13.114-6.693-18.285-11.149-21.42C2.91,166.061-5.673,150.998,6.743,139.05z"/>
	<polygon class="st2" points="24.564,158.745 15.286,158.707 1.576,138.153 10.854,138.191 	"/>
	<polygon class="st2" points="24.564,199.854 15.286,199.816 1.576,179.262 10.854,179.3 	"/>
</g>
<g>
	<polygon class="st3" points="551.519,35.342 560.797,35.38 574.507,55.935 565.229,55.896 	"/>
	<path class="st1" d="M569.341,15.722c8.615,9.326-1.33,23.496-9.882,28.414c-8.615,4.954-11.402,13.843-4.814,25.208
		c-4.308-13.114,6.692-18.285,11.149-21.42C573.173,42.734,581.756,27.671,569.341,15.722z"/>
	<polygon class="st2" points="551.519,35.418 560.797,35.38 574.507,14.825 565.229,14.864 	"/>
	<polygon class="st3" points="551.519,76.451 560.797,76.489 574.507,97.044 565.229,97.005 	"/>
	<path class="st1" d="M569.341,56.832c8.615,9.326-1.33,23.496-9.882,28.414c-8.615,4.954-11.402,13.843-4.814,25.208
		c-4.308-13.114,6.692-18.285,11.149-21.42C573.173,83.843,581.756,68.78,569.341,56.832z"/>
	<polygon class="st2" points="551.519,76.527 560.797,76.489 574.507,55.935 565.229,55.973 	"/>
	<polygon class="st3" points="551.519,117.56 560.797,117.598 574.507,138.153 565.229,138.115 	"/>
	<path class="st1" d="M569.341,97.941c8.615,9.325-1.33,23.496-9.882,28.414c-8.615,4.954-11.402,13.843-4.814,25.208
		c-4.308-13.114,6.692-18.285,11.149-21.419C573.173,124.952,581.756,109.889,569.341,97.941z"/>
	<polygon class="st2" points="551.519,117.636 560.797,117.598 574.507,97.044 565.229,97.082 	"/>
	<polygon class="st3" points="551.519,158.669 560.797,158.707 574.507,179.262 565.229,179.224 	"/>
	<path class="st1" d="M569.341,139.05c8.615,9.325-1.33,23.496-9.882,28.414c-8.615,4.955-11.402,13.843-4.814,25.208
		c-4.308-13.114,6.692-18.285,11.149-21.42C573.173,166.061,581.756,150.998,569.341,139.05z"/>
	<polygon class="st2" points="551.519,158.745 560.797,158.707 574.507,138.153 565.229,138.191 	"/>
	<polygon class="st2" points="551.519,199.854 560.797,199.816 574.507,179.262 565.229,179.3 	"/>
</g>
<g>
	<polygon class="st3" points="556.347,27.404 556.309,18.125 535.754,4.415 535.792,13.693 	"/>
	<path class="st1" d="M575.966,9.582c-9.326-8.615-23.496,1.33-28.414,9.882c-4.954,8.615-13.843,11.402-25.208,4.814
		c13.114,4.308,18.285-6.692,21.419-11.149C548.955,5.749,564.018-2.834,575.966,9.582z"/>
	<polygon class="st3" points="515.238,27.404 515.2,18.125 494.645,4.415 494.683,13.693 	"/>
	<path class="st1" d="M534.857,9.582c-9.325-8.615-23.496,1.33-28.414,9.882c-4.954,8.615-13.843,11.402-25.208,4.814
		c13.114,4.308,18.285-6.692,21.419-11.149C507.846,5.749,522.909-2.834,534.857,9.582z"/>
	<polygon class="st2" points="515.162,27.404 515.2,18.125 535.754,4.415 535.716,13.693 	"/>
	<polygon class="st3" points="474.129,27.404 474.091,18.125 453.536,4.415 453.574,13.693 	"/>
	<path class="st1" d="M493.748,9.582c-9.326-8.615-23.496,1.33-28.414,9.882c-4.954,8.615-13.842,11.402-25.208,4.814
		c13.114,4.308,18.285-6.692,21.42-11.149C466.737,5.749,481.8-2.834,493.748,9.582z"/>
	<polygon class="st2" points="474.053,27.404 474.091,18.125 494.645,4.415 494.607,13.693 	"/>
	<polygon class="st3" points="433.02,27.404 432.981,18.125 412.427,4.415 412.465,13.693 	"/>
	<path class="st1" d="M452.639,9.582c-9.326-8.615-23.496,1.33-28.414,9.882c-4.954,8.615-13.842,11.402-25.208,4.814
		c13.114,4.308,18.285-6.692,21.419-11.149C425.628,5.749,440.69-2.834,452.639,9.582z"/>
	<polygon class="st2" points="432.943,27.404 432.981,18.125 453.536,4.415 453.498,13.693 	"/>
	<polygon class="st3" points="391.911,27.404 391.873,18.125 371.318,4.415 371.356,13.693 	"/>
	<path class="st1" d="M411.53,9.582c-9.325-8.615-23.496,1.33-28.414,9.882c-4.954,8.615-13.843,11.402-25.208,4.814
		c13.114,4.308,18.285-6.692,21.419-11.149C384.519,5.749,399.582-2.834,411.53,9.582z"/>
	<polygon class="st2" points="391.834,27.404 391.873,18.125 412.427,4.415 412.389,13.693 	"/>
	<polygon class="st3" points="350.802,27.404 350.763,18.125 330.209,4.415 330.247,13.693 	"/>
	<path class="st1" d="M370.421,9.582c-9.326-8.615-23.496,1.33-28.414,9.882c-4.954,8.615-13.842,11.402-25.208,4.814
		c13.114,4.308,18.285-6.692,21.42-11.149C343.41,5.749,358.473-2.834,370.421,9.582z"/>
	<polygon class="st2" points="350.725,27.404 350.763,18.125 371.318,4.415 371.28,13.693 	"/>
	<polygon class="st3" points="309.692,27.404 309.654,18.125 289.1,4.415 289.138,13.693 	"/>
	<path class="st1" d="M329.312,9.582c-9.326-8.615-23.496,1.33-28.414,9.882c-4.954,8.615-13.843,11.402-25.208,4.814
		c13.114,4.308,18.285-6.692,21.419-11.149C302.3,5.749,317.363-2.834,329.312,9.582z"/>
	<polygon class="st2" points="309.616,27.404 309.654,18.125 330.209,4.415 330.171,13.693 	"/>
	<polygon class="st3" points="268.583,27.404 268.545,18.125 247.991,4.415 248.029,13.693 	"/>
	<path class="st1" d="M288.203,9.582c-9.326-8.615-23.496,1.33-28.414,9.882c-4.955,8.615-13.843,11.402-25.208,4.814
		c13.114,4.308,18.285-6.692,21.42-11.149C261.191,5.749,276.254-2.834,288.203,9.582z"/>
	<polygon class="st2" points="268.507,27.404 268.545,18.125 289.1,4.415 289.062,13.693 	"/>
	<polygon class="st3" points="227.475,27.404 227.436,18.125 206.882,4.415 206.92,13.693 	"/>
	<path class="st1" d="M247.094,9.582c-9.326-8.615-23.496,1.33-28.414,9.882c-4.954,8.615-13.842,11.402-25.208,4.814
		c13.114,4.308,18.285-6.692,21.42-11.149C220.083,5.749,235.146-2.834,247.094,9.582z"/>
	<polygon class="st2" points="227.398,27.404 227.436,18.125 247.991,4.415 247.953,13.693 	"/>
	<polygon class="st3" points="186.365,27.404 186.327,18.125 165.772,4.415 165.811,13.693 	"/>
	<path class="st1" d="M205.984,9.582c-9.325-8.615-23.496,1.33-28.414,9.882c-4.954,8.615-13.843,11.402-25.208,4.814
		c13.114,4.308,18.285-6.692,21.419-11.149C178.973,5.749,194.036-2.834,205.984,9.582z"/>
	<polygon class="st2" points="186.289,27.404 186.327,18.125 206.882,4.415 206.844,13.693 	"/>
	<polygon class="st3" points="145.256,27.404 145.218,18.125 124.664,4.415 124.702,13.693 	"/>
	<path class="st1" d="M164.875,9.582c-9.326-8.615-23.496,1.33-28.414,9.882c-4.955,8.615-13.843,11.402-25.208,4.814
		c13.114,4.308,18.285-6.692,21.42-11.149C137.864,5.749,152.927-2.834,164.875,9.582z"/>
	<polygon class="st2" points="145.18,27.404 145.218,18.125 165.772,4.415 165.734,13.693 	"/>
	<polygon class="st3" points="104.147,27.404 104.109,18.125 83.555,4.415 83.593,13.693 	"/>
	<path class="st1" d="M123.767,9.582c-9.326-8.615-23.496,1.33-28.414,9.882c-4.954,8.615-13.842,11.402-25.208,4.814
		c13.114,4.308,18.285-6.692,21.419-11.149C96.755,5.749,111.818-2.834,123.767,9.582z"/>
	<polygon class="st2" points="104.071,27.404 104.109,18.125 124.664,4.415 124.625,13.693 	"/>
	<polygon class="st3" points="63.038,27.404 63,18.125 42.446,4.415 42.484,13.693 	"/>
	<path class="st1" d="M82.657,9.582c-9.325-8.615-23.495,1.33-28.414,9.882c-4.954,8.615-13.843,11.402-25.208,4.814
		c13.114,4.308,18.285-6.692,21.42-11.149C55.646,5.749,70.709-2.834,82.657,9.582z"/>
	<polygon class="st2" points="62.962,27.404 63,18.125 83.555,4.415 83.517,13.693 	"/>
	<polygon class="st2" points="21.853,27.404 21.891,18.125 42.446,4.415 42.407,13.693 	"/>
</g>
<g>
	<polygon class="st2" points="0,0 4.531,4.531 4.531,16.313 0,16.313 	"/>
	<polygon class="st0" points="0,0 15.563,0 15.563,4.875 5.188,5.188 	"/>
	<path class="st1" d="M37.591,3.967c0.154,1.234,0.234,2.492,0.234,3.768c0,16.609-13.465,30.073-30.073,30.073
		c-1.28,0-2.542-0.08-3.78-0.235L3.938,3.938L37.591,3.967z"/>
	<g>
		<polygon class="st2" points="15.285,28.16 0.056,43.067 0.056,15.296 15.285,0.388 		"/>
		<polygon class="st0" points="15.312,0.041 0.404,15.269 28.176,15.269 43.083,0.041 		"/>
		<path class="st1" d="M22.649,3.762c0.337,1.268,0.517,2.599,0.517,3.973c0,8.513-6.902,15.415-15.415,15.415
			c-1.453,0-2.86-0.201-4.193-0.577L7.751,7.735L22.649,3.762z"/>
		<polygon class="st2" points="41.734,7.735 49.107,0.041 15.125,0.041 7.751,7.735 		"/>
		<polygon class="st0" points="7.751,41.718 0.056,49.092 0.056,15.108 7.751,7.735 		"/>
	</g>
</g>
<g>
	<polygon class="st2" points="576.362,0 571.831,4.531 571.831,16.313 576.362,16.313 	"/>
	<polygon class="st0" points="576.362,0 560.799,0 560.799,4.875 571.174,5.188 	"/>
	<path class="st1" d="M538.771,3.967c-0.154,1.234-0.234,2.492-0.234,3.768c0,16.609,13.465,30.073,30.074,30.073
		c1.28,0,2.542-0.08,3.78-0.235l0.033-33.635L538.771,3.967z"/>
	<g>
		<polygon class="st2" points="561.077,28.16 576.305,43.067 576.305,15.296 561.077,0.388 		"/>
		<polygon class="st0" points="561.05,0.041 575.958,15.269 548.186,15.269 533.278,0.041 		"/>
		<path class="st1" d="M553.713,3.762c-0.337,1.268-0.517,2.599-0.517,3.973c0,8.513,6.902,15.415,15.416,15.415
			c1.453,0,2.86-0.201,4.193-0.577l-4.193-14.838L553.713,3.762z"/>
		<polygon class="st2" points="534.628,7.735 527.254,0.041 561.237,0.041 568.611,7.735 		"/>
		<polygon class="st0" points="568.611,41.718 576.305,49.092 576.305,15.108 568.611,7.735 		"/>
	</g>
</g>
<g>
	<polygon class="st3" points="556.347,729.331 556.309,738.61 535.754,752.32 535.792,743.042 	"/>
	<path class="st1" d="M575.966,747.153c-9.326,8.615-23.496-1.33-28.414-9.882c-4.954-8.615-13.843-11.402-25.208-4.814
		c13.114-4.308,18.285,6.692,21.419,11.149C548.955,750.985,564.018,759.569,575.966,747.153z"/>
	<polygon class="st3" points="515.238,729.331 515.2,738.61 494.645,752.32 494.683,743.042 	"/>
	<path class="st1" d="M534.857,747.153c-9.325,8.615-23.496-1.33-28.414-9.882c-4.954-8.615-13.843-11.402-25.208-4.814
		c13.114-4.308,18.285,6.692,21.419,11.149C507.846,750.985,522.909,759.569,534.857,747.153z"/>
	<polygon class="st2" points="515.162,729.331 515.2,738.61 535.754,752.32 535.716,743.042 	"/>
	<polygon class="st3" points="474.129,729.331 474.091,738.61 453.536,752.32 453.574,743.042 	"/>
	<path class="st1" d="M493.748,747.153c-9.326,8.615-23.496-1.33-28.414-9.882c-4.954-8.615-13.842-11.402-25.208-4.814
		c13.114-4.308,18.285,6.692,21.42,11.149C466.737,750.985,481.8,759.569,493.748,747.153z"/>
	<polygon class="st2" points="474.053,729.331 474.091,738.61 494.645,752.32 494.607,743.042 	"/>
	<polygon class="st3" points="433.02,729.331 432.981,738.61 412.427,752.32 412.465,743.042 	"/>
	<path class="st1" d="M452.639,747.153c-9.326,8.615-23.496-1.33-28.414-9.882c-4.954-8.615-13.842-11.402-25.208-4.814
		c13.114-4.308,18.285,6.692,21.419,11.149C425.628,750.985,440.69,759.569,452.639,747.153z"/>
	<polygon class="st2" points="432.943,729.331 432.981,738.61 453.536,752.32 453.498,743.042 	"/>
	<polygon class="st3" points="391.911,729.331 391.873,738.61 371.318,752.32 371.356,743.042 	"/>
	<path class="st1" d="M411.53,747.153c-9.325,8.615-23.496-1.33-28.414-9.882c-4.954-8.615-13.843-11.402-25.208-4.814
		c13.114-4.308,18.285,6.692,21.419,11.149C384.519,750.985,399.582,759.569,411.53,747.153z"/>
	<polygon class="st2" points="391.834,729.331 391.873,738.61 412.427,752.32 412.389,743.042 	"/>
	<polygon class="st3" points="350.802,729.331 350.763,738.61 330.209,752.32 330.247,743.042 	"/>
	<path class="st1" d="M370.421,747.153c-9.326,8.615-23.496-1.33-28.414-9.882c-4.954-8.615-13.842-11.402-25.208-4.814
		c13.114-4.308,18.285,6.692,21.42,11.149C343.41,750.985,358.473,759.569,370.421,747.153z"/>
	<polygon class="st2" points="350.725,729.331 350.763,738.61 371.318,752.32 371.28,743.042 	"/>
	<polygon class="st3" points="309.692,729.331 309.654,738.61 289.1,752.32 289.138,743.042 	"/>
	<path class="st1" d="M329.312,747.153c-9.326,8.615-23.496-1.33-28.414-9.882c-4.954-8.615-13.843-11.402-25.208-4.814
		c13.114-4.308,18.285,6.692,21.419,11.149C302.3,750.985,317.363,759.569,329.312,747.153z"/>
	<polygon class="st2" points="309.616,729.331 309.654,738.61 330.209,752.32 330.171,743.042 	"/>
	<polygon class="st3" points="268.583,729.331 268.545,738.61 247.991,752.32 248.029,743.042 	"/>
	<path class="st1" d="M288.203,747.153c-9.326,8.615-23.496-1.33-28.414-9.882c-4.955-8.615-13.843-11.402-25.208-4.814
		c13.114-4.308,18.285,6.692,21.42,11.149C261.191,750.985,276.254,759.569,288.203,747.153z"/>
	<polygon class="st2" points="268.507,729.331 268.545,738.61 289.1,752.32 289.062,743.042 	"/>
	<polygon class="st3" points="227.475,729.331 227.436,738.61 206.882,752.32 206.92,743.042 	"/>
	<path class="st1" d="M247.094,747.153c-9.326,8.615-23.496-1.33-28.414-9.882c-4.954-8.615-13.842-11.402-25.208-4.814
		c13.114-4.308,18.285,6.692,21.42,11.149C220.083,750.985,235.146,759.569,247.094,747.153z"/>
	<polygon class="st2" points="227.398,729.331 227.436,738.61 247.991,752.32 247.953,743.042 	"/>
	<polygon class="st3" points="186.365,729.331 186.327,738.61 165.772,752.32 165.811,743.042 	"/>
	<path class="st1" d="M205.984,747.153c-9.325,8.615-23.496-1.33-28.414-9.882c-4.954-8.615-13.843-11.402-25.208-4.814
		c13.114-4.308,18.285,6.692,21.419,11.149C178.973,750.985,194.036,759.569,205.984,747.153z"/>
	<polygon class="st2" points="186.289,729.331 186.327,738.61 206.882,752.32 206.844,743.042 	"/>
	<polygon class="st3" points="145.256,729.331 145.218,738.61 124.664,752.32 124.702,743.042 	"/>
	<path class="st1" d="M164.875,747.153c-9.326,8.615-23.496-1.33-28.414-9.882c-4.955-8.615-13.843-11.402-25.208-4.814
		c13.114-4.308,18.285,6.692,21.42,11.149C137.864,750.985,152.927,759.569,164.875,747.153z"/>
	<polygon class="st2" points="145.18,729.331 145.218,738.61 165.772,752.32 165.734,743.042 	"/>
	<polygon class="st3" points="104.147,729.331 104.109,738.61 83.555,752.32 83.593,743.042 	"/>
	<path class="st1" d="M123.767,747.153c-9.326,8.615-23.496-1.33-28.414-9.882c-4.954-8.615-13.842-11.402-25.208-4.814
		c13.114-4.308,18.285,6.692,21.419,11.149C96.755,750.985,111.818,759.569,123.767,747.153z"/>
	<polygon class="st2" points="104.071,729.331 104.109,738.61 124.664,752.32 124.625,743.042 	"/>
	<polygon class="st3" points="63.038,729.331 63,738.61 42.446,752.32 42.484,743.042 	"/>
	<path class="st1" d="M82.657,747.153c-9.325,8.615-23.495-1.33-28.414-9.882c-4.954-8.615-13.843-11.402-25.208-4.814
		c13.114-4.308,18.285,6.692,21.42,11.149C55.646,750.985,70.709,759.569,82.657,747.153z"/>
	<polygon class="st2" points="62.962,729.331 63,738.61 83.555,752.32 83.517,743.042 	"/>
	<polygon class="st2" points="21.853,729.331 21.891,738.61 42.446,752.32 42.407,743.042 	"/>
</g>
<g>
	<polygon class="st2" points="0,756.735 4.531,752.204 4.531,740.422 0,740.422 	"/>
	<polygon class="st0" points="0,756.735 15.563,756.735 15.563,751.86 5.188,751.547 	"/>
	<path class="st1" d="M37.591,752.768c0.154-1.234,0.234-2.492,0.234-3.768c0-16.609-13.465-30.074-30.073-30.074
		c-1.28,0-2.542,0.08-3.78,0.236l-0.033,33.635L37.591,752.768z"/>
	<g>
		<polygon class="st2" points="15.285,728.575 0.056,713.667 0.056,741.439 15.285,756.347 		"/>
		<polygon class="st0" points="15.312,756.694 0.404,741.466 28.176,741.466 43.083,756.694 		"/>
		<path class="st1" d="M22.649,752.973c0.337-1.268,0.517-2.599,0.517-3.973c0-8.514-6.902-15.415-15.415-15.415
			c-1.453,0-2.86,0.201-4.193,0.577L7.751,749L22.649,752.973z"/>
		<polygon class="st2" points="41.734,749 49.107,756.694 15.125,756.694 7.751,749 		"/>
		<polygon class="st0" points="7.751,715.017 0.056,707.644 0.056,741.626 7.751,749 		"/>
	</g>
</g>
<g>
	<polygon class="st2" points="576.362,756.735 571.831,752.204 571.831,740.422 576.362,740.422 	"/>
	<polygon class="st0" points="576.362,756.735 560.799,756.735 560.799,751.86 571.174,751.547 	"/>
	<path class="st1" d="M538.771,752.768c-0.154-1.234-0.234-2.492-0.234-3.768c0-16.609,13.465-30.074,30.074-30.074
		c1.28,0,2.542,0.08,3.78,0.236l0.033,33.635L538.771,752.768z"/>
	<g>
		<polygon class="st2" points="561.077,728.575 576.305,713.667 576.305,741.439 561.077,756.347 		"/>
		<polygon class="st0" points="561.05,756.694 575.958,741.466 548.186,741.466 533.278,756.694 		"/>
		<path class="st1" d="M553.713,752.973c-0.337-1.268-0.517-2.599-0.517-3.973c0-8.514,6.902-15.415,15.416-15.415
			c1.453,0,2.86,0.201,4.193,0.577L568.611,749L553.713,752.973z"/>
		<polygon class="st2" points="534.628,749 527.254,756.694 561.237,756.694 568.611,749 		"/>
		<polygon class="st0" points="568.611,715.017 576.305,707.644 576.305,741.626 568.611,749 		"/>
	</g>
</g>
</svg>
