<?xml version="1.0" encoding="utf-8"?>
<!-- Generator: Adobe Illustrator 14.0.0, SVG Export Plug-In . SVG Version: 6.00 Build 43363)  -->
<!DOCTYPE svg PUBLIC "-//W3C//DTD SVG 1.1//EN" "http://www.w3.org/Graphics/SVG/1.1/DTD/svg11.dtd">
<svg version="1.1" id="Hand_x5F_Drawn_x5F_2_xA0_Image_1_"
	 xmlns="http://www.w3.org/2000/svg" xmlns:xlink="http://www.w3.org/1999/xlink" x="0px" y="0px" width="729px" height="930px"
	 viewBox="0 0 729 930" style="enable-background:new 0 0 729 930;" xml:space="preserve">
<style type="text/css">
<![CDATA[
	.st0{fill-rule:evenodd;clip-rule:evenodd;fill:none;stroke:#000000;stroke-width:1.2887;stroke-linecap:round;}
	.st1{fill-rule:evenodd;clip-rule:evenodd;fill:none;stroke:#000000;stroke-width:1.6011;stroke-linecap:round;}
	.st2{fill-rule:evenodd;clip-rule:evenodd;fill:none;stroke:#000000;stroke-width:1.7321;stroke-linecap:round;}
	.st3{fill-rule:evenodd;clip-rule:evenodd;fill:none;stroke:#000000;stroke-width:1.3166;stroke-linecap:round;}
	.st4{fill-rule:evenodd;clip-rule:evenodd;fill:none;stroke:#000000;stroke-width:1.6432;stroke-linecap:round;}
	.st5{fill-rule:evenodd;clip-rule:evenodd;fill:none;stroke:#000000;stroke-width:1.2071;stroke-linecap:round;}
	.st6{fill-rule:evenodd;clip-rule:evenodd;fill:none;stroke:#000000;stroke-width:1.5992;stroke-linecap:round;}
	.st7{fill-rule:evenodd;clip-rule:evenodd;fill:none;stroke:#000000;stroke-width:1.118;stroke-linecap:round;}
	.st8{fill-rule:evenodd;clip-rule:evenodd;fill:none;stroke:#000000;stroke-width:1.9386;stroke-linecap:round;}
	.st9{fill-rule:evenodd;clip-rule:evenodd;fill:none;stroke:#000000;stroke-width:1.1952;stroke-linecap:round;}
	.st10{fill-rule:evenodd;clip-rule:evenodd;fill:none;stroke:#000000;stroke-width:1.8438;stroke-linecap:round;}
	.st11{fill-rule:evenodd;clip-rule:evenodd;fill:none;stroke:#000000;stroke-width:1.271;stroke-linecap:round;}
	.st12{fill-rule:evenodd;clip-rule:evenodd;fill:none;stroke:#000000;stroke-width:2.1448;stroke-linecap:round;}
	.st13{fill-rule:evenodd;clip-rule:evenodd;fill:none;stroke:#000000;stroke-width:1.5584;stroke-linecap:round;}
	.st14{fill-rule:evenodd;clip-rule:evenodd;fill:none;stroke:#000000;stroke-width:1.5811;stroke-linecap:round;}
	.st15{fill-rule:evenodd;clip-rule:evenodd;fill:none;stroke:#000000;stroke-width:1.2689;stroke-linecap:round;}
	.st16{fill-rule:evenodd;clip-rule:evenodd;fill:none;stroke:#000000;stroke-width:2.0976;stroke-linecap:round;}
	.st17{fill-rule:evenodd;clip-rule:evenodd;fill:none;stroke:#000000;stroke-width:1.4198;stroke-linecap:round;}
	.st18{fill-rule:evenodd;clip-rule:evenodd;fill:none;stroke:#000000;stroke-width:1.7755;stroke-linecap:round;}
	.st19{fill-rule:evenodd;clip-rule:evenodd;fill:none;stroke:#000000;stroke-width:1.4434;stroke-linecap:round;}
	.st20{fill-rule:evenodd;clip-rule:evenodd;fill:none;stroke:#000000;stroke-width:1.6202;stroke-linecap:round;}
	.st21{fill-rule:evenodd;clip-rule:evenodd;fill:none;stroke:#000000;stroke-linecap:round;}
	.st22{fill-rule:evenodd;clip-rule:evenodd;fill:none;stroke:#000000;stroke-width:1.4729;stroke-linecap:round;}
	.st23{fill-rule:evenodd;clip-rule:evenodd;fill:none;stroke:#000000;stroke-width:1.2294;stroke-linecap:round;}
	.st24{fill-rule:evenodd;clip-rule:evenodd;fill:none;stroke:#000000;stroke-width:1.2104;stroke-linecap:round;}
	.st25{fill-rule:evenodd;clip-rule:evenodd;fill:none;stroke:#000000;stroke-width:2.0817;stroke-linecap:round;}
	.st26{fill-rule:evenodd;clip-rule:evenodd;fill:none;stroke:#000000;stroke-width:1.6059;stroke-linecap:round;}
	.st27{fill-rule:evenodd;clip-rule:evenodd;fill:none;stroke:#000000;stroke-width:2.1213;stroke-linecap:round;}
	.st28{fill-rule:evenodd;clip-rule:evenodd;fill:none;stroke:#000000;stroke-width:1.7337;stroke-linecap:round;}
	.st29{fill-rule:evenodd;clip-rule:evenodd;fill:none;stroke:#000000;stroke-width:2.1192;stroke-linecap:round;}
	.st30{fill-rule:evenodd;clip-rule:evenodd;fill:none;stroke:#000000;stroke-width:1.4142;stroke-linecap:round;}
	.st31{fill-rule:evenodd;clip-rule:evenodd;fill:none;stroke:#000000;stroke-width:1.3693;stroke-linecap:round;}
	.st32{fill-rule:evenodd;clip-rule:evenodd;fill:none;stroke:#000000;stroke-width:1.2019;stroke-linecap:round;}
	.st33{fill:#000000;fill-rule:evenodd;clip-rule:evenodd;}
	.st34{fill-rule:evenodd;clip-rule:evenodd;fill:none;stroke:#000000;stroke-width:1.8127;stroke-linecap:round;}
	.st35{fill-rule:evenodd;clip-rule:evenodd;fill:none;stroke:#000000;stroke-width:1.354;stroke-linecap:round;}
	.st36{fill-rule:evenodd;clip-rule:evenodd;fill:none;stroke:#000000;stroke-width:1.5;stroke-linecap:round;}
	.st37{fill-rule:evenodd;clip-rule:evenodd;fill:none;stroke:#000000;stroke-width:1.2472;stroke-linecap:round;}
	.st38{fill-rule:evenodd;clip-rule:evenodd;fill:none;stroke:#000000;stroke-width:1.2247;stroke-linecap:round;}
	.st39{fill-rule:evenodd;clip-rule:evenodd;fill:none;stroke:#000000;stroke-width:1.1402;stroke-linecap:round;}
	.st40{fill-rule:evenodd;clip-rule:evenodd;fill:none;stroke:#000000;stroke-width:1.4606;stroke-linecap:round;}
	.st41{fill-rule:evenodd;clip-rule:evenodd;fill:none;stroke:#000000;stroke-width:1.291;stroke-linecap:round;}
	.st42{fill-rule:evenodd;clip-rule:evenodd;fill:none;stroke:#000000;stroke-width:1.2198;stroke-linecap:round;}
	.st43{fill-rule:evenodd;clip-rule:evenodd;fill:none;stroke:#000000;stroke-width:1.9149;stroke-linecap:round;}
	.st44{fill-rule:evenodd;clip-rule:evenodd;fill:none;stroke:#000000;stroke-width:1.8439;stroke-linecap:round;}
	.st45{fill-rule:evenodd;clip-rule:evenodd;fill:none;stroke:#000000;stroke-width:1.1339;stroke-linecap:round;}
]]>
</style>
<g>
	<g>
		<path class="st33" d="M363,2c0,2.667,0,5.333,0,8c-0.667,0-1.333,0-2,0C361.824,7.49,359.056,1.389,363,2z"/>
		<path class="st33" d="M352,3c4.18-0.513,2.744,4.589,5,6C354.368,11.888,353.084,4.973,352,3z"/>
		<path class="st33" d="M363,16c0-0.667,0-1.333,0-2c0.667,0,1.333,0,2,0c0,0.667,0,1.333,0,2C364.333,16,363.667,16,363,16z"/>
		<path class="st33" d="M349,19c0.667,0,1.333,0,2,0c0,0.667,0,1.333,0,2c-0.667,0-1.333,0-2,0C349,20.333,349,19.667,349,19z"/>
		<path class="st33" d="M359,19c2.319-0.319,3.839,0.161,5,1C363.056,22.37,359.134,22.927,359,19z"/>
		<path class="st33" d="M668,25c0-1,0-2,0-3c1.464,0.87,3.17,1.497,3,4C670.195,25.471,669.377,24.957,668,25z"/>
		<path class="st33" d="M56,24c3.887,1.167,0.271,2.614-1,4C51.934,27.018,56.149,25.332,56,24z"/>
		<path class="st33" d="M705,25c-0.147,2.186-2.52,2.147-5,2C698.974,23.64,703.11,25.443,705,25z"/>
		<path class="st33" d="M31,29c-3.059,0.725-2.941-1.725-6-1C26.411,26.359,31.513,24.509,31,29z"/>
		<path class="st33" d="M65,26c0,1,0,2,0,3c-1.333,0-2.667,0-4,0C61.87,27.536,62.497,25.831,65,26z"/>
		<path class="st33" d="M663,26c2.729-0.729,2.013,1.987,4,2c-0.31,1.357-2.504,0.83-4,1C663,28,663,27,663,26z"/>
		<path class="st33" d="M672,26c1.912,0.421,4.305,0.362,4,3C674.088,28.579,671.695,28.638,672,26z"/>
		<path class="st33" d="M51,27c3.613,2.103-1.991,3.227-2,5C45.875,30.386,51.052,28.833,51,27z"/>
		<path class="st33" d="M679,28c3.19-0.857,3.093,1.574,5,2C683.625,33.34,678.684,31.122,679,28z"/>
		<path class="st33" d="M693,28c1.667,0,3.333,0,5,0C699.53,31.073,691.47,31.073,693,28z"/>
		<path class="st33" d="M686,29c1.912,0.421,4.305,0.362,4,3C687.385,32.282,685.698,31.635,686,29z"/>
		<path class="st33" d="M35,30c-0.147,2.186-2.52,2.147-5,2C30.147,29.814,32.52,29.853,35,30z"/>
		<path class="st33" d="M705,30c2.673,1.163,0.089,5.307-3,4C701.123,30.79,704.594,31.927,705,30z"/>
		<path class="st33" d="M61,31c1.008,3.008-2.228,1.772-4,2C57.241,31.241,58.721,30.721,61,31z"/>
		<path class="st33" d="M672,31c0.957,3.604-4.316,1.772-5,1C666.831,29.832,670.547,31.547,672,31z"/>
		<path class="st33" d="M23,33c0.945-2.455,3.934,1.285,4,3C23.79,36.877,24.927,33.407,23,33z"/>
		<path class="st33" d="M56,35c-0.914,3.357-1.859,0.495-5,1C51.102,33.456,54.727,33.637,56,35z"/>
		<path class="st33" d="M673,35c-0.169-2.168,3.547-0.453,5-1C677.898,36.544,674.273,36.363,673,35z"/>
		<path class="st33" d="M699,34c-0.122,2.544-1.455,3.878-4,4C694.313,34.647,696.678,34.344,699,34z"/>
		<path class="st33" d="M685,36c-0.102,2.544-3.727,2.363-5,1C680.691,33.865,682.667,35.696,685,36z"/>
		<path class="st33" d="M29,37c0.798-1.691,6.705-0.117,6,3C31.956,40.044,31.111,37.889,29,37z"/>
		<path class="st33" d="M49,39c-2.409,0.409-2.174-1.826-5-1C44.887,35.824,49.583,34.945,49,39z"/>
		<path class="st33" d="M692,36c0.302,2.635-1.385,3.282-4,3C687.698,36.365,689.385,35.718,692,36z"/>
		<path class="st33" d="M37,37c2.108,2.222,5.545-1.776,6,3C40.02,39.98,36.907,40.093,37,37z"/>
		<path class="st33" d="M698,40c1.766-0.319,1.785,5.602-1,4C696.576,41.91,697.686,41.352,698,40z"/>
		<path class="st33" d="M702,40c2.635-0.301,3.282,1.385,3,4C703.536,43.13,701.83,42.503,702,40z"/>
		<path class="st33" d="M28,42c1.765-0.319,1.785,5.602-1,4C26.873,44.206,28.224,43.891,28,42z"/>
		<path class="st33" d="M699,46c2.296,0.785,0.973,6.19-2,5C696.143,47.81,698.574,47.907,699,46z"/>
		<path class="st33" d="M704,46c2.055,0.591,4.165,1.924,2,4C704.658,49.342,704.138,47.862,704,46z"/>
		<path class="st33" d="M26,51c-0.182-2.182,0.818-3.182,3-3C29.182,50.182,28.182,51.182,26,51z"/>
		<path class="st33" d="M706,52c1.313,0.354,1.573,1.761,3,2C708.594,56.491,705.123,54.06,706,52z"/>
		<path class="st33" d="M700,53c3.253,0.187,0.723,1.74,2,5C698.64,59.027,700.443,54.89,700,53z"/>
		<path class="st33" d="M26,54c0.182,2.182-0.818,3.182-3,3C24.067,56.067,23.311,53.311,26,54z"/>
		<path class="st33" d="M708,57c1.683,1.242,5.107,2.908,3,5C709.025,61.309,708.334,59.333,708,57z"/>
		<path class="st33" d="M702,59c3.523,0.122,0.273,1.456,2,4C702.241,62.759,701.721,61.279,702,59z"/>
		<path class="st33" d="M27,61c2.487,0.15,0.292,3.386,0,4C24.005,64.342,27.956,62.862,27,61z"/>
		<path class="st33" d="M701,869c3.492-0.895,1.708,3.262,1,4C700.643,872.69,701.171,870.496,701,869z"/>
		<path class="st33" d="M699,872c2.326,1.5,1.526,2.445,1,5C698.264,876.09,697.415,873.496,699,872z"/>
		<path class="st33" d="M25,874c2.812-0.146,2.884,2.449,3,5C26.317,877.758,22.893,876.092,25,874z"/>
		<path class="st33" d="M706,874c2.487,0.15,0.292,3.387,0,4C703.513,877.85,705.708,874.613,706,874z"/>
		<path class="st33" d="M696,876c2.555,0.111,1.984,3.349,2,6C695.879,881.196,694.101,877.884,696,876z"/>
		<path class="st33" d="M704,879c2.487,0.15,0.292,3.387,0,4C701.513,882.85,703.708,879.613,704,879z"/>
		<path class="st33" d="M694,883c3.555-1.555,0.604,3.396,3,3C695.883,888.922,693.749,884.728,694,883z"/>
		<path class="st33" d="M24,886c2.09-0.424,2.648,0.686,4,1C27.88,889.84,23.736,888.922,24,886z"/>
		<path class="st33" d="M701,886c3.492-0.895,1.708,3.262,1,4C700.643,889.69,701.171,887.496,701,886z"/>
		<path class="st33" d="M693,888c3.034-0.367,2.076,3.258,3,5C693.188,893.146,693.116,890.551,693,888z"/>
		<path class="st33" d="M27,890c2.638-0.305,2.579,2.088,3,4C27.362,894.305,27.421,891.912,27,890z"/>
		<path class="st33" d="M35,890c2.136,0.625,0.937,6.155,0,7C33.973,895.465,33.743,892.557,35,890z"/>
		<path class="st33" d="M702,892c2.487,0.15,0.292,3.387,0,4C699.513,895.85,701.708,892.613,702,892z"/>
		<path class="st33" d="M27,895c2.729-0.729,2.013,1.987,4,2C30.685,899.12,26.26,897.217,27,895z"/>
		<path class="st33" d="M51,897c0.364,3.363-4.333,1.667-6,3C45.909,897.908,47.951,896.951,51,897z"/>
		<path class="st33" d="M684,897c2.09-0.424,2.648,0.686,4,1C688.318,899.766,682.398,899.785,684,897z"/>
		<path class="st33" d="M58,898c-0.187,4.351-1.74,1.82-5,2C53.85,898.517,55.517,897.85,58,898z"/>
		<path class="st33" d="M703,898c3.492-0.895,1.708,3.262,1,4C702.643,901.69,703.171,899.496,703,898z"/>
		<path class="st33" d="M679,899c-0.847,1.486-3.22,1.447-5,2C672.974,897.64,677.11,899.443,679,899z"/>
		<path class="st33" d="M28,900c2.974-0.213,3.526,3.566,2,5C28.517,904.15,27.85,902.483,28,900z"/>
		<path class="st33" d="M60,902c0.257-2.341,4.394-0.576,5,0C64.743,904.341,60.606,902.576,60,902z"/>
		<path class="st33" d="M672,902c-0.85,1.483-2.517,2.15-5,2C666.787,901.026,670.566,900.474,672,902z"/>
		<path class="st33" d="M695,902c2.182-0.182,3.182,0.818,3,3C697.067,903.933,694.312,904.688,695,902z"/>
		<path class="st33" d="M691,903c0.146,2.812-2.449,2.884-5,3C685.854,903.188,688.449,903.116,691,903z"/>
		<path class="st33" d="M705,903c3.604-0.957,1.772,4.316,1,5C703.831,908.169,705.547,904.453,705,903z"/>
		<path class="st33" d="M44,907c-2.826,0.826-2.591-1.409-5-1C38.708,903.404,45.762,902.525,44,907z"/>
		<path class="st33" d="M45,905c0.42-2.226,5.306-0.783,6,0C49.933,908.954,47.967,904.746,45,905z"/>
		<path class="st33" d="M52,905c1.394-2.904,4.935,0.283,6,1C56.606,908.904,53.065,905.717,52,905z"/>
		<path class="st33" d="M65,905c0.627-2.433,5.053-0.529,4,2C66.271,907.729,66.987,905.013,65,905z"/>
		<path class="st33" d="M683,904c-0.869,1.464-1.497,3.17-4,3C678.698,904.365,680.385,903.718,683,904z"/>
		<path class="st33" d="M667,905c-1.232,1.434-3.438,1.895-6,2C661.111,904.445,664.349,905.016,667,905z"/>
		<path class="st33" d="M676,905c2.516,1.005-0.796,4.422-3,4C672.123,905.79,675.594,906.927,676,905z"/>
		<path class="st33" d="M28,911c-1.483-0.85-2.15-2.517-2-5C29.462,905.299,29.586,909.506,28,911z"/>
		<path class="st33" d="M60,906c1.464,0.869,3.169,1.497,3,4C60.365,910.302,59.718,908.615,60,906z"/>
		<path class="st33" d="M33,907c4.451-0.152,0.598,4.055,0,5C30.066,911.15,34.301,909.483,33,907z"/>
		<path class="st33" d="M698,907c2.638-0.305,2.579,2.088,3,4C699.536,910.131,697.83,909.503,698,907z"/>
		<path class="st33" d="M68,909C72.683,905.514,72.027,914.046,68,909L68,909z"/>
		<path class="st33" d="M670,908c3.183,1.568-1.252,6.002-3,3C666.694,908.694,669.889,909.889,670,908z"/>
		<path class="st33" d="M66,914c-1.759-0.241-2.279-1.721-2-4C65.743,910.903,67.852,912.237,66,914z"/>
		<path class="st33" d="M366,913c-0.122,3.704-1.456,2.516-4,2C362.122,911.296,363.456,912.484,366,913z"/>
		<path class="st33" d="M354,916c0-0.667,0-1.333,0-2c2.134-0.468,1.905,1.429,2,3C355.19,916.81,355.003,915.997,354,916z"/>
		<path class="st33" d="M381,917c-0.85,2.934-2.517-1.301-5,0C376.257,914.659,380.394,916.424,381,917z"/>
		<path class="st33" d="M692,897c1.491-4.38,3.158,0.129,5,1C696.309,900.497,694.333,896.145,692,897z"/>
		<g>
			<path class="st30" d="M368.5,7.5c0.58-0.753,1.041-1.626,2-2"/>
			<path class="st21" d="M349.5,8.5c-0.357-0.643-0.78-1.22-1-2"/>
			<path class="st34" d="M341.5,11.5c1.213,1.26,2.15,1.348,3,2"/>
			<path class="st6" d="M374.5,18.5c-5.922-8.766-23.19-9.122-27.5,1"/>
			<path class="st13" d="M354.5,19.5c0.101-0.232,0.202-0.465,0.303-0.697c3.509-2.506,8.791-2.299,12.197,0.197"/>
			<path class="st38" d="M340.5,17.5c0.667,0,1.333,0,2,0"/>
			<path class="st10" d="M68.5,22.5c90.62-0.863,181.945-0.662,272-1.5"/>
			<path class="st19" d="M667.5,26.5c10.57,9.109,26.788,9.474,38,2"/>
			<path class="st40" d="M37.5,32.5c2.264-0.885,4.664,0.704,6.5-1.5"/>
			<path class="st24" d="M706.5,59.5c-3.495-6.439-5.673-13.553-6-21"/>
			<path class="st18" d="M22,871.5c1.476-268.313-0.672-535.857,0-805"/>
			<path class="st28" d="M707.5,864.5c1.025-266.065,1.564-530.837,1.5-795"/>
			<path class="st11" d="M703.5,909.5c-6.867-10.808-6.097-25.145,0-36"/>
			<path class="st0" d="M41,899c-0.119,0.219-0.238,0.438-0.357,0.657c-0.134,0.962,0.131,1.606,0.412,2.15
				c8.446-0.734,19.269-0.889,24.445,6.692"/>
			<path class="st22" d="M665.5,909.5c7.092-5.933,15.77-8.725,25-9"/>
			<path class="st27" d="M355,920c0.688,0.01,1.314-0.076,1.833-0.167"/>
			<path class="st4" d="M356.833,919.833c0.022-0.497,1.085-1.732,2.05-2.401c1.05,0.003,1.496,0.896,2.116,1.568"/>
			<path class="st20" d="M361,919c1.468-1.148,3.144,0.319,4.75,0"/>
			<path class="st34" d="M365.75,919c0.101-0.341,0.239-0.67,0.38-0.997c1.09-0.601,2.054-0.917,2.703-1.17"/>
			<path class="st44" d="M368.833,916.833c0.485-2.561,3.629-1.932,5.167-0.833"/>
			<path class="st17" d="M374,916c0.282-0.284,0.564-0.568,0.848-0.853c94.564-3.866,190.525-0.453,284.652-2.147"/>
			<path class="st31" d="M374,916c-0.642,1.025-1.359,1.975-2,3"/>
			<path class="st7" d="M372,919c1.486,0.982,2.911,1.812,4.5,2.5"/>
			<path class="st9" d="M370,921c0.308,1.358,1.072,2.261,1.5,3.5"/>
			<path class="st38" d="M362.5,922.5c0,0.667,0,1.333,0,2"/>
			<path class="st38" d="M358,922c-0.351,0.649-0.382,1.618-0.5,2.5"/>
			<path class="st37" d="M355,920c-0.6,1.066-1.293,2.04-2.5,2.5"/>
			<path class="st37" d="M353,917c-0.984,0.684-1.908,1.425-3.5,1.5"/>
			<path class="st8" d="M74.5,914c92.782,1.159,185.643-2.236,277.45,1.154c0.355,0.577,0.649,1.269,1.05,1.846"/>
			<path class="st35" d="M353,917c0.642,1.025,1.359,1.975,2,3"/>
			<path class="st25" d="M370.25,919c0.743,0,1.252,0,1.75,0"/>
			<path class="st43" d="M368.833,916.833c0.803,0.968,1.005,1.509,1.417,2.167"/>
			<path class="st41" d="M356.833,919.833c0.438,0.796,0.737,1.518,1.167,2.167"/>
			<path class="st27" d="M358,922c0.962,0.039,2.15-0.043,3-0.25"/>
			<path class="st12" d="M365.75,919c0.199,0.988,0.244,2.122,0.417,2.833"/>
			<path class="st13" d="M366.167,921.833c1.23-0.019,2.695-0.224,3.833-0.833"/>
			<path class="st27" d="M370,921c-0.015-0.679,0.114-1.39,0.25-2"/>
			<path class="st43" d="M361,921.75c0.5,0.146,1,0.419,1.5,0.75"/>
			<path class="st38" d="M362.5,922.5c1.386,0.105,2.61-0.113,3.667-0.667"/>
			<path class="st16" d="M361,919c0,0.635,0,1.732,0,2.75"/>
			<path class="st5" d="M373.5,10.5c0.643-0.299,1.22-1.237,2-2"/>
			<path class="st37" d="M378.5,13.5c0.916-0.417,1.618-1.048,2-2"/>
			<path class="st29" d="M382.5,19.5c91.922,3.152,186.321,0.764,279,1.5"/>
			<path class="st14" d="M382.5,19.5c-0.667,0.547-1.333,0.781-2,1"/>
			<path class="st15" d="M382.5,19.5c-1.635-1.113-3.51-0.724-4.704-1.316c0.094-2.591,3.619-0.823,4.704-2.684"/>
			<path class="st23" d="M24.5,29.5c9.521,10.524,27.467,5.992,36-3"/>
			<path class="st3" d="M25.5,60.5c1.012-1.915,2.319-3.687,3.5-5.5"/>
			<path class="st4" d="M29,55c0.363-1.77,0.341-3.815,2-5"/>
			<path class="st26" d="M31,50c-0.094-2.112,0.308-4.226,0.815-6.213c0.557-0.203,0.984-0.084,1.404,0.049
				c0.204,0.433,0.49,0.8,0.78,1.164"/>
			<path class="st2" d="M31,50c1.372,0.454,1.903,1.183,2,2"/>
			<path class="st39" d="M29,55c0.708,0.649,1.162,1.618,1.5,2.5"/>
			<path class="st32" d="M26.5,882.5c4.611,4.346,6.264,11.534,6,18"/>
			<path class="st20" d="M32.5,900.5c1.706-0.108,2.856-0.583,3.378,0.062c0.001,0.299-0.184,0.618-0.378,0.938"/>
			<path class="st42" d="M32.5,900.5c0.25,3.67-0.612,7.189-3,10"/>
			<path class="st36" d="M24.5,883c0.471-0.179,1.229-0.39,2-0.5"/>
			<path class="st45" d="M26.5,882.5c-0.14-1.527-0.979-2.354-1-4"/>
			<path class="st1" d="M30,881c0.688,2.159,2.807,3.36,3.5,5.5"/>
		</g>
	</g>
</g>
</svg>
