<?xml version="1.0" encoding="utf-8"?>
<!-- Generator: Adobe Illustrator 14.0.0, SVG Export Plug-In . SVG Version: 6.00 Build 43363)  -->
<!DOCTYPE svg PUBLIC "-//W3C//DTD SVG 1.1//EN" "http://www.w3.org/Graphics/SVG/1.1/DTD/svg11.dtd">
<svg version="1.1" id="Layer_1" xmlns="http://www.w3.org/2000/svg" xmlns:xlink="http://www.w3.org/1999/xlink" x="0px" y="0px"
	 width="562.938px" height="742.938px" viewBox="0 0 562.938 742.938" style="enable-background:new 0 0 562.938 742.938;"
	 xml:space="preserve">
<style type="text/css">
<![CDATA[
	.st0{fill:#000000;fill-rule:evenodd;clip-rule:evenodd;}
	.st1{fill:none;stroke:#000000;stroke-width:1.398;stroke-linecap:round;stroke-miterlimit:10;}
]]>
</style>
<path class="st1" d="M24.639,0.699H0.699v23.94h23.94V0.699z M550.239,12.699H12.699v717.54h537.54V12.699z"/>
<rect x="0.699" y="0.699" class="st0" width="11.94" height="11.94"/>
<rect x="0.699" y="0.699" class="st1" width="11.94" height="11.94"/>
<rect x="12.699" y="12.699" class="st0" width="11.94" height="11.94"/>
<rect x="12.699" y="12.699" class="st1" width="11.94" height="11.94"/>
<rect x="24.759" y="0.699" class="st1" width="23.94" height="23.94"/>
<rect x="24.759" y="0.699" class="st0" width="11.94" height="11.94"/>
<rect x="24.759" y="0.699" class="st1" width="11.94" height="11.94"/>
<rect x="36.759" y="12.699" class="st0" width="11.94" height="11.94"/>
<rect x="36.759" y="12.699" class="st1" width="11.94" height="11.94"/>
<rect x="48.819" y="0.699" class="st1" width="23.94" height="23.94"/>
<rect x="48.819" y="0.699" class="st0" width="11.94" height="11.94"/>
<rect x="48.819" y="0.699" class="st1" width="11.94" height="11.94"/>
<rect x="60.819" y="12.699" class="st0" width="11.94" height="11.94"/>
<rect x="60.819" y="12.699" class="st1" width="11.94" height="11.94"/>
<rect x="72.879" y="0.699" class="st1" width="23.94" height="23.94"/>
<rect x="72.879" y="0.699" class="st0" width="11.94" height="11.94"/>
<rect x="72.879" y="0.699" class="st1" width="11.94" height="11.94"/>
<rect x="84.879" y="12.699" class="st0" width="11.94" height="11.94"/>
<rect x="84.879" y="12.699" class="st1" width="11.94" height="11.94"/>
<rect x="0.699" y="24.699" class="st1" width="23.94" height="23.94"/>
<rect x="0.699" y="24.699" class="st0" width="11.94" height="11.94"/>
<rect x="0.699" y="24.699" class="st1" width="11.94" height="11.94"/>
<rect x="12.699" y="36.699" class="st0" width="11.94" height="11.94"/>
<rect x="12.699" y="36.699" class="st1" width="11.94" height="11.94"/>
<rect x="0.699" y="48.699" class="st1" width="23.94" height="23.94"/>
<rect x="0.699" y="48.699" class="st0" width="11.94" height="11.94"/>
<rect x="0.699" y="48.699" class="st1" width="11.94" height="11.94"/>
<rect x="12.699" y="60.699" class="st0" width="11.94" height="11.94"/>
<rect x="12.699" y="60.699" class="st1" width="11.94" height="11.94"/>
<rect x="0.699" y="72.699" class="st1" width="23.94" height="23.94"/>
<rect x="0.699" y="72.699" class="st0" width="11.94" height="11.94"/>
<rect x="0.699" y="72.699" class="st1" width="11.94" height="11.94"/>
<rect x="12.699" y="84.699" class="st0" width="11.94" height="11.94"/>
<rect x="12.699" y="84.699" class="st1" width="11.94" height="11.94"/>
<rect x="538.299" y="0.699" class="st1" width="23.94" height="23.94"/>
<rect x="538.299" y="0.699" class="st0" width="11.94" height="11.94"/>
<rect x="538.299" y="0.699" class="st1" width="11.94" height="11.94"/>
<rect x="550.299" y="12.699" class="st0" width="11.94" height="11.94"/>
<rect x="550.299" y="12.699" class="st1" width="11.94" height="11.94"/>
<rect x="514.239" y="0.699" class="st1" width="23.939" height="23.94"/>
<rect x="514.239" y="0.699" class="st0" width="11.939" height="11.94"/>
<rect x="514.239" y="0.699" class="st1" width="11.939" height="11.94"/>
<rect x="526.239" y="12.699" class="st0" width="11.939" height="11.94"/>
<rect x="526.239" y="12.699" class="st1" width="11.939" height="11.94"/>
<rect x="490.179" y="0.699" class="st1" width="23.94" height="23.94"/>
<rect x="490.179" y="0.699" class="st0" width="11.94" height="11.94"/>
<rect x="490.179" y="0.699" class="st1" width="11.94" height="11.94"/>
<rect x="502.179" y="12.699" class="st0" width="11.94" height="11.94"/>
<rect x="502.179" y="12.699" class="st1" width="11.94" height="11.94"/>
<rect x="466.179" y="0.699" class="st1" width="23.94" height="23.94"/>
<rect x="466.179" y="0.699" class="st0" width="11.94" height="11.94"/>
<rect x="466.179" y="0.699" class="st1" width="11.94" height="11.94"/>
<rect x="478.179" y="12.699" class="st0" width="11.94" height="11.94"/>
<rect x="478.179" y="12.699" class="st1" width="11.94" height="11.94"/>
<rect x="538.299" y="24.699" class="st1" width="23.94" height="23.94"/>
<rect x="538.299" y="24.699" class="st0" width="11.94" height="11.94"/>
<rect x="538.299" y="24.699" class="st1" width="11.94" height="11.94"/>
<rect x="550.299" y="36.699" class="st0" width="11.94" height="11.94"/>
<rect x="550.299" y="36.699" class="st1" width="11.94" height="11.94"/>
<rect x="538.299" y="48.699" class="st1" width="23.94" height="23.94"/>
<rect x="538.299" y="48.699" class="st0" width="11.94" height="11.94"/>
<rect x="538.299" y="48.699" class="st1" width="11.94" height="11.94"/>
<rect x="550.299" y="60.699" class="st0" width="11.94" height="11.94"/>
<rect x="550.299" y="60.699" class="st1" width="11.94" height="11.94"/>
<rect x="538.299" y="72.699" class="st1" width="23.94" height="23.94"/>
<rect x="538.299" y="72.699" class="st0" width="11.94" height="11.94"/>
<rect x="538.299" y="72.699" class="st1" width="11.94" height="11.94"/>
<rect x="550.299" y="84.699" class="st0" width="11.94" height="11.94"/>
<rect x="550.299" y="84.699" class="st1" width="11.94" height="11.94"/>
<rect x="538.299" y="718.299" class="st1" width="23.94" height="23.94"/>
<rect x="538.299" y="718.299" class="st0" width="11.94" height="11.94"/>
<rect x="538.299" y="718.299" class="st1" width="11.94" height="11.94"/>
<rect x="550.299" y="730.299" class="st0" width="11.94" height="11.94"/>
<rect x="550.299" y="730.299" class="st1" width="11.94" height="11.94"/>
<rect x="514.239" y="718.299" class="st1" width="23.939" height="23.94"/>
<rect x="514.239" y="718.299" class="st0" width="11.939" height="11.94"/>
<rect x="514.239" y="718.299" class="st1" width="11.939" height="11.94"/>
<rect x="526.239" y="730.299" class="st0" width="11.939" height="11.94"/>
<rect x="526.239" y="730.299" class="st1" width="11.939" height="11.94"/>
<rect x="490.179" y="718.299" class="st1" width="23.94" height="23.94"/>
<rect x="490.179" y="718.299" class="st0" width="11.94" height="11.94"/>
<rect x="490.179" y="718.299" class="st1" width="11.94" height="11.94"/>
<rect x="502.179" y="730.299" class="st0" width="11.94" height="11.94"/>
<rect x="502.179" y="730.299" class="st1" width="11.94" height="11.94"/>
<rect x="466.179" y="718.299" class="st1" width="23.94" height="23.94"/>
<rect x="466.179" y="718.299" class="st0" width="11.94" height="11.94"/>
<rect x="466.179" y="718.299" class="st1" width="11.94" height="11.94"/>
<rect x="478.179" y="730.299" class="st0" width="11.94" height="11.94"/>
<rect x="478.179" y="730.299" class="st1" width="11.94" height="11.94"/>
<rect x="538.299" y="694.299" class="st1" width="23.94" height="23.94"/>
<rect x="538.299" y="694.299" class="st0" width="11.94" height="11.94"/>
<rect x="538.299" y="694.299" class="st1" width="11.94" height="11.94"/>
<rect x="550.299" y="706.299" class="st0" width="11.94" height="11.94"/>
<rect x="550.299" y="706.299" class="st1" width="11.94" height="11.94"/>
<rect x="538.299" y="670.299" class="st1" width="23.94" height="23.94"/>
<rect x="538.299" y="670.299" class="st0" width="11.94" height="11.94"/>
<rect x="538.299" y="670.299" class="st1" width="11.94" height="11.94"/>
<rect x="550.299" y="682.299" class="st0" width="11.94" height="11.94"/>
<rect x="550.299" y="682.299" class="st1" width="11.94" height="11.94"/>
<rect x="538.299" y="646.299" class="st1" width="23.94" height="23.94"/>
<rect x="538.299" y="646.299" class="st0" width="11.94" height="11.94"/>
<rect x="538.299" y="646.299" class="st1" width="11.94" height="11.94"/>
<rect x="550.299" y="658.299" class="st0" width="11.94" height="11.94"/>
<rect x="550.299" y="658.299" class="st1" width="11.94" height="11.94"/>
<rect x="0.699" y="718.299" class="st1" width="23.94" height="23.94"/>
<rect x="0.699" y="718.299" class="st0" width="11.94" height="11.94"/>
<rect x="0.699" y="718.299" class="st1" width="11.94" height="11.94"/>
<rect x="12.699" y="730.299" class="st0" width="11.94" height="11.94"/>
<rect x="12.699" y="730.299" class="st1" width="11.94" height="11.94"/>
<rect x="24.759" y="718.299" class="st1" width="23.94" height="23.94"/>
<rect x="24.759" y="718.299" class="st0" width="11.94" height="11.94"/>
<rect x="24.759" y="718.299" class="st1" width="11.94" height="11.94"/>
<rect x="36.759" y="730.299" class="st0" width="11.94" height="11.94"/>
<rect x="36.759" y="730.299" class="st1" width="11.94" height="11.94"/>
<rect x="48.819" y="718.299" class="st1" width="23.94" height="23.94"/>
<rect x="48.819" y="718.299" class="st0" width="11.94" height="11.94"/>
<rect x="48.819" y="718.299" class="st1" width="11.94" height="11.94"/>
<rect x="60.819" y="730.299" class="st0" width="11.94" height="11.94"/>
<rect x="60.819" y="730.299" class="st1" width="11.94" height="11.94"/>
<rect x="72.879" y="718.299" class="st1" width="23.94" height="23.94"/>
<rect x="72.879" y="718.299" class="st0" width="11.94" height="11.94"/>
<rect x="72.879" y="718.299" class="st1" width="11.94" height="11.94"/>
<rect x="84.879" y="730.299" class="st0" width="11.94" height="11.94"/>
<rect x="84.879" y="730.299" class="st1" width="11.94" height="11.94"/>
<rect x="0.699" y="694.299" class="st1" width="23.94" height="23.94"/>
<rect x="0.699" y="694.299" class="st0" width="11.94" height="11.94"/>
<rect x="0.699" y="694.299" class="st1" width="11.94" height="11.94"/>
<rect x="12.699" y="706.299" class="st0" width="11.94" height="11.94"/>
<rect x="12.699" y="706.299" class="st1" width="11.94" height="11.94"/>
<rect x="0.699" y="670.299" class="st1" width="23.94" height="23.94"/>
<rect x="0.699" y="670.299" class="st0" width="11.94" height="11.94"/>
<rect x="0.699" y="670.299" class="st1" width="11.94" height="11.94"/>
<rect x="12.699" y="682.299" class="st0" width="11.94" height="11.94"/>
<rect x="12.699" y="682.299" class="st1" width="11.94" height="11.94"/>
<rect x="0.699" y="646.299" class="st1" width="23.94" height="23.94"/>
<rect x="0.699" y="646.299" class="st0" width="11.94" height="11.94"/>
<rect x="0.699" y="646.299" class="st1" width="11.94" height="11.94"/>
<rect x="12.699" y="658.299" class="st0" width="11.94" height="11.94"/>
<rect x="12.699" y="658.299" class="st1" width="11.94" height="11.94"/>
</svg>
