<?xml version="1.0" encoding="utf-8"?>
<!-- Generator: Adobe Illustrator 14.0.0, SVG Export Plug-In . SVG Version: 6.00 Build 43363)  -->
<!DOCTYPE svg PUBLIC "-//W3C//DTD SVG 1.1//EN" "http://www.w3.org/Graphics/SVG/1.1/DTD/svg11.dtd">
<svg version="1.1" id="Nouveau_x5F_41_xA0_Image_1_"
	 xmlns="http://www.w3.org/2000/svg" xmlns:xlink="http://www.w3.org/1999/xlink" x="0px" y="0px" width="729px" height="969px"
	 viewBox="0 0 729 969" style="enable-background:new 0 0 729 969;" xml:space="preserve">
<style type="text/css">
<![CDATA[
	.st0{fill-rule:evenodd;clip-rule:evenodd;fill:none;stroke:#000000;stroke-width:2.5635;stroke-linecap:round;}
	.st1{fill-rule:evenodd;clip-rule:evenodd;fill:none;stroke:#000000;stroke-width:3.4641;stroke-linecap:round;}
	.st2{fill:#000000;fill-rule:evenodd;clip-rule:evenodd;}
	.st3{fill-rule:evenodd;clip-rule:evenodd;fill:none;stroke:#000000;stroke-width:2.9326;stroke-linecap:round;}
]]>
</style>
<g>
	<g>
		<path class="st2" d="M12,2c235.338,0,470.656,0,706,0c-3.171,7.175,0.374,8.259,5,12c4.229,10.295-4.392,11.113-7,17
			c-0.885,1.998-0.524,3.164-1,7c-2.261,18.234,0,38.88,0,59c0.001,270.745-0.001,540.059,0,814c0,18.068,2.124,49.521-4,54
			c-4.094,2.994-9.967,1.165-18,0c-17.628-2.558-47.377-1-65-1c-194.617,0-375.755,0-572,0c-7.022,0-14.259,0.007-21,1
			c-5.43,0.8-12.615,3.822-18,0c-6.542-4.643-5-33.989-5-54c0-272.486,0-543.197,0-815c0-19.292,1.81-39.753,0-58
			c-0.377-3.807,0.697-6.241,0-8c-1.426-3.599-9.166-5.036-8-13c0.575-3.928,10.136-7.066,6-12C9.956,3.29,10.743,2.41,12,2z
			 M710,25c2.867-3.7-7.652-7.475-13-8c-19.01-1.866-47.344,15.296-67,13c-5.608-0.655-21.559-4.531-14-18
			c4.396,1.725,2.807,4.497,9,6c3.339,0.811,8.052,0.331,12,0c25.074-2.101,59.29-16.344,77,1c0.013,1.531,2.729,3.287,2,0
			c-0.476-7.524-9.432-6.568-13-11C476.664,8,250.335,8,24,8c-0.057,4.553-13.017,3.211-12,12c7.973-7.098,19.088-10.534,39-9
			c18.709,1.441,39.866,9.735,52,7c2.511-0.566,4.447-0.578,6-2c1.335-1.222-0.48-6.851,4-4c6.068,15.155-11.763,17.792-19,18
			c-20.549,0.59-44.513-14.75-63-13c-3.907,0.37-13.243,1.885-12,7c18.207-9.722,44.567,2.139,62,6l-0.5,1.5L81,33
			c-23.721,6.754-40.048-12.229-61-5c-1.83,292.747-1,593.268-1,892c0,7.979-3.561,38.296,5,40c0.851,0.169,6.731,1.725,8-6
			c-3.854-3.049-8.731,4.438-11-4c-4.68-17.408,26.072-19.988,39-15c10.485,4.045,18.462,19.695,32,23c16.653,4.064,46.771,1,69,1
			c132.595,0,273.819-0.001,410,0c24.713,0,51.116,3.663,67-1c10.825-3.178,18.683-19.995,33-24c12.975-3.629,39.605-2.9,35,18
			c-2.596,7.326-6.492-1.979-10,1c0.56,8.819,7.17,7.162,8,7c5.104-0.997,4.331-5.127,5-10c1.163-8.476,0-25.156,0-30
			c0.001-280.324-0.001-555.489,0-836c0-19.277,1.638-38.405-2-57l1.7-0.7L710,25z"/>
		<path class="st2" d="M706.3,24.7L705,26c-21.79-1.095-34.484,12.144-57,7l0.5-1.833L647,30c16.633-3.162,44.723-16.284,61-6
			L706.3,24.7z"/>
		<path class="st2" d="M88,12c1.011-3.93,7.278-1.369,9,0c0,1.667,0,3.333,0,5C88.827,18.512,90.924,14.224,88,12z"/>
		<path class="st2" d="M638,17c-2.656-0.01-5.711,0.378-7-1c-1.547-5.96,5.576-7.185,9-5C636.592,12.302,639.528,15.278,638,17z"/>
		<g>
			<path class="st0" d="M80.5,31.5c1.413-0.288,2.582-0.439,3.5-0.5"/>
			<path class="st1" d="M708.7,26.3c-0.833-0.535-1.756-1.073-2.4-1.6"/>
			<path class="st3" d="M645.5,31c1,0.37,2,0.229,3,0.167"/>
		</g>
	</g>
</g>
</svg>
