<?xml version="1.0" encoding="utf-8"?>
<!-- Generator: Adobe Illustrator 14.0.0, SVG Export Plug-In . SVG Version: 6.00 Build 43363)  -->
<!DOCTYPE svg PUBLIC "-//W3C//DTD SVG 1.1//EN" "http://www.w3.org/Graphics/SVG/1.1/DTD/svg11.dtd">
<svg version="1.1" id="Layer_1" xmlns="http://www.w3.org/2000/svg" xmlns:xlink="http://www.w3.org/1999/xlink" x="0px" y="0px"
	 width="563.854px" height="742.713px" viewBox="0 0 563.854 742.713" style="enable-background:new 0 0 563.854 742.713;"
	 xml:space="preserve">
<style type="text/css">
<![CDATA[
	.st0{fill:none;stroke:#000000;stroke-width:0.5;stroke-miterlimit:10;}
]]>
</style>
<g>
	<rect x="16.25" y="15.68" class="st0" width="531" height="711"/>
	<g>
		<g>
			<line class="st0" x1="0.833" y1="6.25" x2="11.417" y2="16.834"/>
			<line class="st0" x1="0" y1="0" x2="10.833" y2="10.834"/>
			<line class="st0" x1="5.417" y1="0" x2="16.25" y2="10.834"/>
			<line class="st0" x1="10.833" y1="0" x2="21.667" y2="10.834"/>
			<line class="st0" x1="16.25" y1="0" x2="27.083" y2="10.834"/>
			<line class="st0" x1="21.667" y1="0" x2="32.5" y2="10.834"/>
			<line class="st0" x1="27.083" y1="0" x2="37.917" y2="10.834"/>
			<line class="st0" x1="32.5" y1="0" x2="43.333" y2="10.834"/>
			<line class="st0" x1="37.917" y1="0" x2="48.75" y2="10.834"/>
			<line class="st0" x1="43.333" y1="0" x2="54.167" y2="10.834"/>
			<line class="st0" x1="48.75" y1="0" x2="59.583" y2="10.834"/>
			<line class="st0" x1="54.167" y1="0" x2="65" y2="10.834"/>
			<line class="st0" x1="59.583" y1="0" x2="70.417" y2="10.834"/>
			<line class="st0" x1="65" y1="0" x2="75.833" y2="10.834"/>
			<line class="st0" x1="70.417" y1="0" x2="81.25" y2="10.834"/>
			<line class="st0" x1="75.833" y1="0" x2="86.667" y2="10.834"/>
			<line class="st0" x1="81.25" y1="0" x2="92.083" y2="10.834"/>
			<line class="st0" x1="86.667" y1="0" x2="97.5" y2="10.834"/>
			<line class="st0" x1="92.083" y1="0" x2="102.917" y2="10.834"/>
			<line class="st0" x1="97.5" y1="0" x2="108.333" y2="10.834"/>
			<line class="st0" x1="102.917" y1="0" x2="113.75" y2="10.834"/>
			<line class="st0" x1="108.333" y1="0" x2="119.167" y2="10.834"/>
			<line class="st0" x1="113.75" y1="0" x2="124.583" y2="10.834"/>
			<line class="st0" x1="119.167" y1="0" x2="130" y2="10.834"/>
			<line class="st0" x1="124.583" y1="0" x2="135.417" y2="10.834"/>
			<line class="st0" x1="130" y1="0" x2="140.833" y2="10.834"/>
			<line class="st0" x1="135.417" y1="0" x2="146.25" y2="10.834"/>
			<line class="st0" x1="140.833" y1="0" x2="151.667" y2="10.834"/>
			<line class="st0" x1="146.25" y1="0" x2="157.083" y2="10.834"/>
			<line class="st0" x1="151.667" y1="0" x2="162.5" y2="10.834"/>
			<line class="st0" x1="157.083" y1="0" x2="167.917" y2="10.834"/>
			<line class="st0" x1="162.5" y1="0" x2="173.333" y2="10.834"/>
			<line class="st0" x1="167.917" y1="0" x2="178.75" y2="10.834"/>
			<line class="st0" x1="173.333" y1="0" x2="184.167" y2="10.834"/>
			<line class="st0" x1="178.75" y1="0" x2="189.583" y2="10.834"/>
			<line class="st0" x1="184.167" y1="0" x2="195" y2="10.834"/>
			<line class="st0" x1="189.583" y1="0" x2="200.417" y2="10.834"/>
			<line class="st0" x1="195" y1="0" x2="205.833" y2="10.834"/>
			<line class="st0" x1="200.417" y1="0" x2="211.25" y2="10.834"/>
			<line class="st0" x1="205.833" y1="0" x2="216.667" y2="10.834"/>
			<line class="st0" x1="211.25" y1="0" x2="222.083" y2="10.834"/>
			<line class="st0" x1="216.667" y1="0" x2="227.5" y2="10.834"/>
			<line class="st0" x1="222.083" y1="0" x2="232.917" y2="10.834"/>
			<line class="st0" x1="227.5" y1="0" x2="238.333" y2="10.834"/>
			<line class="st0" x1="232.917" y1="0" x2="243.75" y2="10.834"/>
			<line class="st0" x1="238.333" y1="0" x2="249.167" y2="10.834"/>
			<line class="st0" x1="243.75" y1="0" x2="254.583" y2="10.834"/>
			<line class="st0" x1="249.167" y1="0" x2="260" y2="10.834"/>
			<line class="st0" x1="254.583" y1="0" x2="265.417" y2="10.834"/>
			<line class="st0" x1="260" y1="0" x2="270.833" y2="10.834"/>
			<line class="st0" x1="265.417" y1="0" x2="276.25" y2="10.834"/>
			<line class="st0" x1="270.833" y1="0" x2="281.667" y2="10.834"/>
			<line class="st0" x1="276.25" y1="0" x2="287.083" y2="10.834"/>
			<line class="st0" x1="281.667" y1="0" x2="292.5" y2="10.834"/>
			<line class="st0" x1="287.083" y1="0" x2="297.917" y2="10.834"/>
			<line class="st0" x1="292.5" y1="0" x2="303.333" y2="10.834"/>
			<line class="st0" x1="297.917" y1="0" x2="308.75" y2="10.834"/>
			<line class="st0" x1="303.333" y1="0" x2="314.167" y2="10.834"/>
			<line class="st0" x1="308.75" y1="0" x2="319.583" y2="10.834"/>
			<line class="st0" x1="314.167" y1="0" x2="325" y2="10.834"/>
			<line class="st0" x1="319.583" y1="0" x2="330.417" y2="10.834"/>
			<line class="st0" x1="325" y1="0" x2="335.833" y2="10.834"/>
			<line class="st0" x1="330.417" y1="0" x2="341.25" y2="10.834"/>
			<line class="st0" x1="335.833" y1="0" x2="346.667" y2="10.834"/>
			<line class="st0" x1="341.25" y1="0" x2="352.083" y2="10.834"/>
			<line class="st0" x1="346.667" y1="0" x2="357.5" y2="10.834"/>
			<line class="st0" x1="352.083" y1="0" x2="362.917" y2="10.834"/>
			<line class="st0" x1="357.5" y1="0" x2="368.333" y2="10.834"/>
			<line class="st0" x1="362.917" y1="0" x2="373.75" y2="10.834"/>
			<line class="st0" x1="368.333" y1="0" x2="379.167" y2="10.834"/>
			<line class="st0" x1="373.75" y1="0" x2="384.583" y2="10.834"/>
			<line class="st0" x1="379.167" y1="0" x2="390" y2="10.834"/>
			<line class="st0" x1="384.583" y1="0" x2="395.417" y2="10.834"/>
			<line class="st0" x1="390" y1="0" x2="400.833" y2="10.834"/>
			<line class="st0" x1="395.417" y1="0" x2="406.25" y2="10.834"/>
			<line class="st0" x1="400.833" y1="0" x2="411.667" y2="10.834"/>
			<line class="st0" x1="406.25" y1="0" x2="417.083" y2="10.834"/>
			<line class="st0" x1="411.667" y1="0" x2="422.5" y2="10.834"/>
			<line class="st0" x1="417.083" y1="0" x2="427.917" y2="10.834"/>
			<line class="st0" x1="422.5" y1="0" x2="433.333" y2="10.834"/>
			<line class="st0" x1="427.917" y1="0" x2="438.75" y2="10.834"/>
			<line class="st0" x1="433.333" y1="0" x2="444.167" y2="10.834"/>
			<line class="st0" x1="438.75" y1="0" x2="449.583" y2="10.834"/>
			<line class="st0" x1="444.167" y1="0" x2="455" y2="10.834"/>
			<line class="st0" x1="449.583" y1="0" x2="460.417" y2="10.834"/>
			<line class="st0" x1="455" y1="0" x2="465.833" y2="10.834"/>
			<line class="st0" x1="460.417" y1="0" x2="471.25" y2="10.834"/>
			<line class="st0" x1="465.833" y1="0" x2="476.667" y2="10.834"/>
			<line class="st0" x1="471.25" y1="0" x2="482.083" y2="10.834"/>
			<line class="st0" x1="476.667" y1="0" x2="487.5" y2="10.834"/>
			<line class="st0" x1="482.083" y1="0" x2="492.917" y2="10.834"/>
			<line class="st0" x1="487.5" y1="0" x2="498.333" y2="10.834"/>
			<line class="st0" x1="492.917" y1="0" x2="503.75" y2="10.834"/>
			<line class="st0" x1="498.333" y1="0" x2="509.167" y2="10.834"/>
			<line class="st0" x1="503.75" y1="0" x2="514.583" y2="10.834"/>
			<line class="st0" x1="509.167" y1="0" x2="520" y2="10.834"/>
			<line class="st0" x1="514.583" y1="0" x2="525.417" y2="10.834"/>
			<line class="st0" x1="520" y1="0" x2="530.833" y2="10.834"/>
			<line class="st0" x1="525.417" y1="0" x2="536.25" y2="10.834"/>
			<line class="st0" x1="530.833" y1="0" x2="541.667" y2="10.834"/>
			<line class="st0" x1="536.25" y1="0" x2="547.083" y2="10.834"/>
			<line class="st0" x1="541.667" y1="0" x2="562.979" y2="21.313"/>
			<line class="st0" x1="547.083" y1="0" x2="563.5" y2="16.417"/>
			<line class="st0" x1="552.5" y1="0" x2="563.333" y2="10.834"/>
			<line class="st0" x1="557.917" y1="0" x2="563.5" y2="5.584"/>
		</g>
		<line class="st0" x1="0.833" y1="733.438" x2="9.563" y2="742.167"/>
		<line class="st0" x1="15.573" y1="731.335" x2="26.406" y2="742.167"/>
		<line class="st0" x1="20.99" y1="731.335" x2="31.823" y2="742.167"/>
		<line class="st0" x1="26.406" y1="731.335" x2="37.24" y2="742.167"/>
		<line class="st0" x1="31.823" y1="731.335" x2="42.656" y2="742.167"/>
		<line class="st0" x1="37.24" y1="731.335" x2="48.073" y2="742.167"/>
		<line class="st0" x1="42.656" y1="731.335" x2="53.49" y2="742.167"/>
		<line class="st0" x1="48.073" y1="731.335" x2="58.906" y2="742.167"/>
		<line class="st0" x1="53.49" y1="731.335" x2="64.323" y2="742.167"/>
		<line class="st0" x1="58.906" y1="731.335" x2="69.74" y2="742.167"/>
		<line class="st0" x1="64.323" y1="731.335" x2="75.156" y2="742.167"/>
		<line class="st0" x1="69.74" y1="731.335" x2="80.573" y2="742.167"/>
		<line class="st0" x1="75.156" y1="731.335" x2="85.99" y2="742.167"/>
		<line class="st0" x1="80.573" y1="731.335" x2="91.406" y2="742.167"/>
		<line class="st0" x1="85.99" y1="731.335" x2="96.823" y2="742.167"/>
		<line class="st0" x1="91.406" y1="731.335" x2="102.24" y2="742.167"/>
		<line class="st0" x1="96.823" y1="731.335" x2="107.656" y2="742.167"/>
		<line class="st0" x1="102.24" y1="731.335" x2="113.073" y2="742.167"/>
		<line class="st0" x1="107.656" y1="731.335" x2="118.49" y2="742.167"/>
		<line class="st0" x1="113.073" y1="731.335" x2="123.906" y2="742.167"/>
		<line class="st0" x1="118.49" y1="731.335" x2="129.323" y2="742.167"/>
		<line class="st0" x1="123.906" y1="731.335" x2="134.74" y2="742.167"/>
		<line class="st0" x1="129.323" y1="731.335" x2="140.156" y2="742.167"/>
		<line class="st0" x1="134.74" y1="731.335" x2="145.573" y2="742.167"/>
		<line class="st0" x1="140.156" y1="731.335" x2="150.99" y2="742.167"/>
		<line class="st0" x1="145.573" y1="731.335" x2="156.406" y2="742.167"/>
		<line class="st0" x1="150.99" y1="731.335" x2="161.823" y2="742.167"/>
		<line class="st0" x1="156.406" y1="731.335" x2="167.24" y2="742.167"/>
		<line class="st0" x1="161.823" y1="731.335" x2="172.656" y2="742.167"/>
		<line class="st0" x1="167.24" y1="731.335" x2="178.073" y2="742.167"/>
		<line class="st0" x1="172.656" y1="731.335" x2="183.49" y2="742.167"/>
		<line class="st0" x1="178.073" y1="731.335" x2="188.906" y2="742.167"/>
		<line class="st0" x1="183.49" y1="731.335" x2="194.323" y2="742.167"/>
		<line class="st0" x1="188.906" y1="731.335" x2="199.74" y2="742.167"/>
		<line class="st0" x1="194.323" y1="731.335" x2="205.156" y2="742.167"/>
		<line class="st0" x1="199.74" y1="731.335" x2="210.573" y2="742.167"/>
		<line class="st0" x1="205.156" y1="731.335" x2="215.99" y2="742.167"/>
		<line class="st0" x1="210.573" y1="731.335" x2="221.406" y2="742.167"/>
		<line class="st0" x1="215.99" y1="731.335" x2="226.823" y2="742.167"/>
		<line class="st0" x1="221.406" y1="731.335" x2="232.24" y2="742.167"/>
		<line class="st0" x1="226.823" y1="731.335" x2="237.656" y2="742.167"/>
		<line class="st0" x1="232.24" y1="731.335" x2="243.073" y2="742.167"/>
		<line class="st0" x1="237.656" y1="731.335" x2="248.49" y2="742.167"/>
		<line class="st0" x1="243.073" y1="731.335" x2="253.906" y2="742.167"/>
		<line class="st0" x1="248.49" y1="731.335" x2="259.323" y2="742.167"/>
		<line class="st0" x1="253.906" y1="731.335" x2="264.74" y2="742.167"/>
		<line class="st0" x1="259.323" y1="731.335" x2="270.156" y2="742.167"/>
		<line class="st0" x1="264.74" y1="731.335" x2="275.573" y2="742.167"/>
		<line class="st0" x1="270.156" y1="731.335" x2="280.99" y2="742.167"/>
		<line class="st0" x1="275.573" y1="731.335" x2="286.406" y2="742.167"/>
		<line class="st0" x1="280.99" y1="731.335" x2="291.823" y2="742.167"/>
		<line class="st0" x1="286.406" y1="731.335" x2="297.24" y2="742.167"/>
		<line class="st0" x1="291.823" y1="731.335" x2="302.656" y2="742.167"/>
		<line class="st0" x1="297.24" y1="731.335" x2="308.073" y2="742.167"/>
		<line class="st0" x1="302.656" y1="731.335" x2="313.49" y2="742.167"/>
		<line class="st0" x1="308.073" y1="731.335" x2="318.906" y2="742.167"/>
		<line class="st0" x1="313.49" y1="731.335" x2="324.323" y2="742.167"/>
		<line class="st0" x1="318.906" y1="731.335" x2="329.74" y2="742.167"/>
		<line class="st0" x1="324.323" y1="731.335" x2="335.156" y2="742.167"/>
		<line class="st0" x1="329.74" y1="731.335" x2="340.573" y2="742.167"/>
		<line class="st0" x1="335.156" y1="731.335" x2="345.99" y2="742.167"/>
		<line class="st0" x1="340.573" y1="731.335" x2="351.406" y2="742.167"/>
		<line class="st0" x1="345.99" y1="731.335" x2="356.823" y2="742.167"/>
		<line class="st0" x1="351.406" y1="731.335" x2="362.24" y2="742.167"/>
		<line class="st0" x1="356.823" y1="731.335" x2="367.656" y2="742.167"/>
		<line class="st0" x1="362.24" y1="731.335" x2="373.073" y2="742.167"/>
		<line class="st0" x1="367.657" y1="731.335" x2="378.49" y2="742.167"/>
		<line class="st0" x1="373.073" y1="731.335" x2="383.907" y2="742.167"/>
		<line class="st0" x1="378.49" y1="731.335" x2="389.323" y2="742.167"/>
		<line class="st0" x1="383.907" y1="731.335" x2="394.74" y2="742.167"/>
		<line class="st0" x1="389.323" y1="731.335" x2="400.157" y2="742.167"/>
		<line class="st0" x1="394.74" y1="731.335" x2="405.573" y2="742.167"/>
		<line class="st0" x1="400.157" y1="731.335" x2="410.99" y2="742.167"/>
		<line class="st0" x1="405.573" y1="731.335" x2="416.407" y2="742.167"/>
		<line class="st0" x1="410.99" y1="731.335" x2="421.823" y2="742.167"/>
		<line class="st0" x1="416.407" y1="731.335" x2="427.24" y2="742.167"/>
		<line class="st0" x1="421.823" y1="731.335" x2="432.657" y2="742.167"/>
		<line class="st0" x1="427.24" y1="731.335" x2="438.073" y2="742.167"/>
		<line class="st0" x1="432.657" y1="731.335" x2="443.49" y2="742.167"/>
		<line class="st0" x1="438.073" y1="731.335" x2="448.907" y2="742.167"/>
		<line class="st0" x1="443.49" y1="731.335" x2="454.323" y2="742.167"/>
		<line class="st0" x1="448.907" y1="731.335" x2="459.74" y2="742.167"/>
		<line class="st0" x1="454.323" y1="731.335" x2="465.157" y2="742.167"/>
		<line class="st0" x1="459.74" y1="731.335" x2="470.573" y2="742.167"/>
		<line class="st0" x1="465.157" y1="731.335" x2="475.99" y2="742.167"/>
		<line class="st0" x1="470.573" y1="731.335" x2="481.407" y2="742.167"/>
		<line class="st0" x1="475.99" y1="731.335" x2="486.823" y2="742.167"/>
		<line class="st0" x1="481.407" y1="731.335" x2="492.24" y2="742.167"/>
		<line class="st0" x1="486.823" y1="731.335" x2="497.657" y2="742.167"/>
		<line class="st0" x1="492.24" y1="731.335" x2="503.073" y2="742.167"/>
		<line class="st0" x1="497.657" y1="731.335" x2="508.49" y2="742.167"/>
		<line class="st0" x1="503.073" y1="731.335" x2="513.907" y2="742.167"/>
		<line class="st0" x1="508.49" y1="731.335" x2="519.323" y2="742.167"/>
		<line class="st0" x1="513.907" y1="731.335" x2="524.74" y2="742.167"/>
		<line class="st0" x1="519.323" y1="731.335" x2="530.157" y2="742.167"/>
		<line class="st0" x1="524.74" y1="731.335" x2="535.573" y2="742.167"/>
		<line class="st0" x1="530.157" y1="731.335" x2="540.99" y2="742.167"/>
		<line class="st0" x1="535.573" y1="731.335" x2="546.407" y2="742.167"/>
		<line class="st0" x1="540.99" y1="731.335" x2="551.823" y2="742.167"/>
		<line class="st0" x1="546.407" y1="731.335" x2="557.24" y2="742.167"/>
		<g>
			<line class="st0" x1="551.5" y1="15.542" x2="562.333" y2="26.375"/>
			<line class="st0" x1="551.5" y1="20.959" x2="562.333" y2="31.792"/>
			<line class="st0" x1="551.5" y1="26.375" x2="562.333" y2="37.209"/>
			<line class="st0" x1="551.5" y1="31.792" x2="562.333" y2="42.625"/>
			<line class="st0" x1="551.5" y1="37.209" x2="562.333" y2="48.042"/>
			<line class="st0" x1="551.5" y1="42.625" x2="562.333" y2="53.459"/>
			<line class="st0" x1="551.5" y1="48.042" x2="562.333" y2="58.875"/>
			<line class="st0" x1="551.5" y1="53.459" x2="562.333" y2="64.292"/>
			<line class="st0" x1="551.5" y1="58.875" x2="562.333" y2="69.709"/>
			<line class="st0" x1="551.5" y1="64.292" x2="562.333" y2="75.125"/>
			<line class="st0" x1="551.5" y1="69.709" x2="562.333" y2="80.542"/>
			<line class="st0" x1="551.5" y1="75.125" x2="562.333" y2="85.959"/>
			<line class="st0" x1="551.5" y1="80.542" x2="562.333" y2="91.375"/>
			<line class="st0" x1="551.5" y1="85.959" x2="562.333" y2="96.792"/>
			<line class="st0" x1="551.5" y1="91.375" x2="562.333" y2="102.209"/>
			<line class="st0" x1="551.5" y1="96.792" x2="562.333" y2="107.625"/>
			<line class="st0" x1="551.5" y1="102.209" x2="562.333" y2="113.042"/>
			<line class="st0" x1="551.5" y1="107.625" x2="562.333" y2="118.459"/>
			<line class="st0" x1="551.5" y1="113.042" x2="562.333" y2="123.875"/>
			<line class="st0" x1="551.5" y1="118.459" x2="562.333" y2="129.292"/>
			<line class="st0" x1="551.5" y1="123.875" x2="562.333" y2="134.709"/>
			<line class="st0" x1="551.5" y1="129.292" x2="562.333" y2="140.125"/>
			<line class="st0" x1="551.5" y1="134.709" x2="562.333" y2="145.542"/>
			<line class="st0" x1="551.5" y1="140.125" x2="562.333" y2="150.959"/>
			<line class="st0" x1="551.5" y1="145.542" x2="562.333" y2="156.375"/>
			<line class="st0" x1="551.5" y1="150.959" x2="562.333" y2="161.792"/>
			<line class="st0" x1="551.5" y1="156.375" x2="562.333" y2="167.209"/>
			<line class="st0" x1="551.5" y1="161.792" x2="562.333" y2="172.625"/>
			<line class="st0" x1="551.5" y1="167.209" x2="562.333" y2="178.042"/>
			<line class="st0" x1="551.5" y1="172.625" x2="562.333" y2="183.459"/>
			<line class="st0" x1="551.5" y1="178.042" x2="562.333" y2="188.875"/>
			<line class="st0" x1="551.5" y1="183.459" x2="562.333" y2="194.292"/>
			<line class="st0" x1="551.5" y1="188.875" x2="562.333" y2="199.709"/>
			<line class="st0" x1="551.5" y1="194.292" x2="562.333" y2="205.125"/>
			<line class="st0" x1="551.5" y1="199.709" x2="562.333" y2="210.542"/>
			<line class="st0" x1="551.5" y1="205.125" x2="562.333" y2="215.959"/>
			<line class="st0" x1="551.5" y1="210.542" x2="562.333" y2="221.375"/>
			<line class="st0" x1="551.5" y1="215.959" x2="562.333" y2="226.792"/>
			<line class="st0" x1="551.5" y1="221.375" x2="562.333" y2="232.209"/>
			<line class="st0" x1="551.5" y1="226.792" x2="562.333" y2="237.625"/>
			<line class="st0" x1="551.5" y1="232.209" x2="562.333" y2="243.042"/>
			<line class="st0" x1="551.5" y1="237.625" x2="562.333" y2="248.459"/>
			<line class="st0" x1="551.5" y1="243.042" x2="562.333" y2="253.875"/>
			<line class="st0" x1="551.5" y1="248.459" x2="562.333" y2="259.292"/>
			<line class="st0" x1="551.5" y1="253.875" x2="562.333" y2="264.709"/>
			<line class="st0" x1="551.5" y1="259.292" x2="562.333" y2="270.125"/>
			<line class="st0" x1="551.5" y1="264.709" x2="562.333" y2="275.542"/>
			<line class="st0" x1="551.5" y1="270.125" x2="562.333" y2="280.959"/>
			<line class="st0" x1="551.5" y1="275.542" x2="562.333" y2="286.375"/>
			<line class="st0" x1="551.5" y1="280.959" x2="562.333" y2="291.792"/>
			<line class="st0" x1="551.5" y1="286.375" x2="562.333" y2="297.209"/>
			<line class="st0" x1="551.5" y1="291.792" x2="562.333" y2="302.625"/>
			<line class="st0" x1="551.5" y1="297.209" x2="562.333" y2="308.042"/>
			<line class="st0" x1="551.5" y1="302.625" x2="562.333" y2="313.459"/>
			<line class="st0" x1="551.5" y1="308.042" x2="562.333" y2="318.875"/>
			<line class="st0" x1="551.5" y1="313.459" x2="562.333" y2="324.292"/>
			<line class="st0" x1="551.5" y1="318.875" x2="562.333" y2="329.709"/>
			<line class="st0" x1="551.5" y1="324.292" x2="562.333" y2="335.125"/>
			<line class="st0" x1="551.5" y1="329.709" x2="562.333" y2="340.542"/>
			<line class="st0" x1="551.5" y1="335.125" x2="562.333" y2="345.959"/>
			<line class="st0" x1="551.5" y1="340.542" x2="562.333" y2="351.375"/>
			<line class="st0" x1="551.5" y1="345.959" x2="562.333" y2="356.792"/>
			<line class="st0" x1="551.5" y1="351.375" x2="562.333" y2="362.209"/>
			<line class="st0" x1="551.5" y1="356.792" x2="562.333" y2="367.625"/>
			<line class="st0" x1="551.5" y1="362.209" x2="562.333" y2="373.042"/>
			<line class="st0" x1="551.5" y1="367.625" x2="562.333" y2="378.46"/>
			<line class="st0" x1="551.5" y1="373.042" x2="562.333" y2="383.876"/>
			<line class="st0" x1="551.5" y1="378.46" x2="562.333" y2="389.292"/>
			<line class="st0" x1="551.5" y1="383.876" x2="562.333" y2="394.71"/>
			<line class="st0" x1="551.5" y1="389.292" x2="562.333" y2="400.126"/>
			<line class="st0" x1="551.5" y1="394.71" x2="562.333" y2="405.542"/>
			<line class="st0" x1="551.5" y1="400.126" x2="562.333" y2="410.96"/>
			<line class="st0" x1="551.5" y1="405.542" x2="562.333" y2="416.376"/>
			<line class="st0" x1="551.5" y1="410.96" x2="562.333" y2="421.792"/>
			<line class="st0" x1="551.5" y1="416.376" x2="562.333" y2="427.21"/>
			<line class="st0" x1="551.5" y1="421.792" x2="562.333" y2="432.626"/>
			<line class="st0" x1="551.5" y1="427.21" x2="562.333" y2="438.042"/>
			<line class="st0" x1="551.5" y1="432.626" x2="562.333" y2="443.46"/>
			<line class="st0" x1="551.5" y1="438.042" x2="562.333" y2="448.876"/>
			<line class="st0" x1="551.5" y1="443.46" x2="562.333" y2="454.292"/>
			<line class="st0" x1="551.5" y1="448.876" x2="562.333" y2="459.71"/>
			<line class="st0" x1="551.5" y1="454.292" x2="562.333" y2="465.126"/>
			<line class="st0" x1="551.5" y1="459.71" x2="562.333" y2="470.542"/>
			<line class="st0" x1="551.5" y1="465.126" x2="562.333" y2="475.96"/>
			<line class="st0" x1="551.5" y1="470.542" x2="562.333" y2="481.376"/>
			<line class="st0" x1="551.5" y1="475.96" x2="562.333" y2="486.792"/>
			<line class="st0" x1="551.5" y1="481.376" x2="562.333" y2="492.21"/>
			<line class="st0" x1="551.5" y1="486.792" x2="562.333" y2="497.626"/>
			<line class="st0" x1="551.5" y1="492.21" x2="562.333" y2="503.042"/>
			<line class="st0" x1="551.5" y1="497.626" x2="562.333" y2="508.46"/>
			<line class="st0" x1="551.5" y1="503.042" x2="562.333" y2="513.876"/>
			<line class="st0" x1="551.5" y1="508.46" x2="562.333" y2="519.292"/>
			<line class="st0" x1="551.5" y1="513.876" x2="562.333" y2="524.71"/>
			<line class="st0" x1="551.5" y1="519.292" x2="562.333" y2="530.126"/>
			<line class="st0" x1="551.5" y1="524.71" x2="562.333" y2="535.542"/>
			<line class="st0" x1="551.5" y1="530.126" x2="562.333" y2="540.96"/>
			<line class="st0" x1="551.5" y1="535.542" x2="562.333" y2="546.376"/>
			<line class="st0" x1="551.5" y1="540.96" x2="562.333" y2="551.792"/>
			<line class="st0" x1="551.5" y1="546.376" x2="562.333" y2="557.21"/>
			<line class="st0" x1="551.5" y1="551.792" x2="562.333" y2="562.626"/>
			<line class="st0" x1="551.5" y1="557.21" x2="562.333" y2="568.042"/>
			<line class="st0" x1="551.5" y1="562.626" x2="562.333" y2="573.46"/>
			<line class="st0" x1="551.5" y1="568.042" x2="562.333" y2="578.876"/>
			<line class="st0" x1="551.5" y1="573.46" x2="562.333" y2="584.292"/>
			<line class="st0" x1="551.5" y1="578.876" x2="562.333" y2="589.71"/>
			<line class="st0" x1="551.5" y1="584.292" x2="562.333" y2="595.126"/>
			<line class="st0" x1="551.5" y1="589.71" x2="562.333" y2="600.542"/>
			<line class="st0" x1="551.5" y1="595.126" x2="562.333" y2="605.96"/>
			<line class="st0" x1="551.5" y1="600.542" x2="562.333" y2="611.376"/>
			<line class="st0" x1="551.5" y1="605.96" x2="562.333" y2="616.792"/>
			<line class="st0" x1="551.5" y1="611.376" x2="562.333" y2="622.21"/>
			<line class="st0" x1="551.5" y1="616.792" x2="562.333" y2="627.626"/>
			<line class="st0" x1="551.5" y1="622.21" x2="562.333" y2="633.042"/>
			<line class="st0" x1="551.5" y1="627.626" x2="562.333" y2="638.46"/>
			<line class="st0" x1="551.5" y1="633.042" x2="562.333" y2="643.876"/>
			<line class="st0" x1="551.5" y1="638.46" x2="562.333" y2="649.292"/>
			<line class="st0" x1="551.5" y1="643.876" x2="562.333" y2="654.71"/>
			<line class="st0" x1="551.5" y1="649.292" x2="562.333" y2="660.126"/>
			<line class="st0" x1="551.5" y1="654.71" x2="562.333" y2="665.542"/>
			<line class="st0" x1="551.5" y1="660.126" x2="562.333" y2="670.96"/>
			<line class="st0" x1="551.5" y1="665.542" x2="562.333" y2="676.376"/>
			<line class="st0" x1="551.5" y1="670.96" x2="562.333" y2="681.792"/>
			<line class="st0" x1="551.5" y1="676.376" x2="562.333" y2="687.21"/>
			<line class="st0" x1="551.5" y1="681.792" x2="562.333" y2="692.626"/>
			<line class="st0" x1="551.5" y1="687.21" x2="562.333" y2="698.042"/>
			<line class="st0" x1="551.5" y1="692.626" x2="562.333" y2="703.46"/>
			<line class="st0" x1="551.5" y1="698.042" x2="562.333" y2="708.876"/>
			<line class="st0" x1="551.5" y1="703.46" x2="562.333" y2="714.292"/>
			<line class="st0" x1="551.5" y1="708.876" x2="562.333" y2="719.71"/>
			<line class="st0" x1="551.5" y1="714.292" x2="562.333" y2="725.126"/>
			<line class="st0" x1="551.5" y1="719.71" x2="562.333" y2="730.542"/>
			<line class="st0" x1="551.5" y1="725.126" x2="562.333" y2="735.96"/>
			<line class="st0" x1="551.5" y1="730.542" x2="562.333" y2="741.376"/>
		</g>
		<line class="st0" x1="0.833" y1="11.542" x2="11.667" y2="22.375"/>
		<line class="st0" x1="0.833" y1="16.959" x2="11.667" y2="27.792"/>
		<line class="st0" x1="0.833" y1="22.375" x2="11.667" y2="33.209"/>
		<line class="st0" x1="0.833" y1="27.792" x2="11.667" y2="38.625"/>
		<line class="st0" x1="0.833" y1="33.209" x2="11.667" y2="44.042"/>
		<line class="st0" x1="0.833" y1="38.625" x2="11.667" y2="49.459"/>
		<line class="st0" x1="0.833" y1="44.042" x2="11.667" y2="54.875"/>
		<line class="st0" x1="0.833" y1="49.459" x2="11.667" y2="60.292"/>
		<line class="st0" x1="0.833" y1="54.875" x2="11.667" y2="65.709"/>
		<line class="st0" x1="0.833" y1="60.292" x2="11.667" y2="71.125"/>
		<line class="st0" x1="0.833" y1="65.709" x2="11.667" y2="76.542"/>
		<line class="st0" x1="0.833" y1="71.125" x2="11.667" y2="81.959"/>
		<line class="st0" x1="0.833" y1="76.542" x2="11.667" y2="87.375"/>
		<line class="st0" x1="0.833" y1="81.959" x2="11.667" y2="92.792"/>
		<line class="st0" x1="0.833" y1="87.375" x2="11.667" y2="98.209"/>
		<line class="st0" x1="0.833" y1="92.792" x2="11.667" y2="103.625"/>
		<line class="st0" x1="0.833" y1="98.209" x2="11.667" y2="109.042"/>
		<line class="st0" x1="0.833" y1="103.625" x2="11.667" y2="114.459"/>
		<line class="st0" x1="0.833" y1="109.042" x2="11.667" y2="119.875"/>
		<line class="st0" x1="0.833" y1="114.459" x2="11.667" y2="125.292"/>
		<line class="st0" x1="0.833" y1="119.875" x2="11.667" y2="130.709"/>
		<line class="st0" x1="0.833" y1="125.292" x2="11.667" y2="136.125"/>
		<line class="st0" x1="0.833" y1="130.709" x2="11.667" y2="141.542"/>
		<line class="st0" x1="0.833" y1="136.125" x2="11.667" y2="146.959"/>
		<line class="st0" x1="0.833" y1="141.542" x2="11.667" y2="152.375"/>
		<line class="st0" x1="0.833" y1="146.959" x2="11.667" y2="157.792"/>
		<line class="st0" x1="0.833" y1="152.375" x2="11.667" y2="163.209"/>
		<line class="st0" x1="0.833" y1="157.792" x2="11.667" y2="168.625"/>
		<line class="st0" x1="0.833" y1="163.209" x2="11.667" y2="174.042"/>
		<line class="st0" x1="0.833" y1="168.625" x2="11.667" y2="179.459"/>
		<line class="st0" x1="0.833" y1="174.042" x2="11.667" y2="184.875"/>
		<line class="st0" x1="0.833" y1="179.459" x2="11.667" y2="190.292"/>
		<line class="st0" x1="0.833" y1="184.875" x2="11.667" y2="195.709"/>
		<line class="st0" x1="0.833" y1="190.292" x2="11.667" y2="201.125"/>
		<line class="st0" x1="0.833" y1="195.709" x2="11.667" y2="206.542"/>
		<line class="st0" x1="0.833" y1="201.125" x2="11.667" y2="211.959"/>
		<line class="st0" x1="0.833" y1="206.542" x2="11.667" y2="217.375"/>
		<line class="st0" x1="0.833" y1="211.959" x2="11.667" y2="222.792"/>
		<line class="st0" x1="0.833" y1="217.375" x2="11.667" y2="228.209"/>
		<line class="st0" x1="0.833" y1="222.792" x2="11.667" y2="233.625"/>
		<line class="st0" x1="0.833" y1="228.209" x2="11.667" y2="239.042"/>
		<line class="st0" x1="0.833" y1="233.625" x2="11.667" y2="244.459"/>
		<line class="st0" x1="0.833" y1="239.042" x2="11.667" y2="249.875"/>
		<line class="st0" x1="0.833" y1="244.459" x2="11.667" y2="255.292"/>
		<line class="st0" x1="0.833" y1="249.875" x2="11.667" y2="260.709"/>
		<line class="st0" x1="0.833" y1="255.292" x2="11.667" y2="266.125"/>
		<line class="st0" x1="0.833" y1="260.709" x2="11.667" y2="271.542"/>
		<line class="st0" x1="0.833" y1="266.125" x2="11.667" y2="276.959"/>
		<line class="st0" x1="0.833" y1="271.542" x2="11.667" y2="282.375"/>
		<line class="st0" x1="0.833" y1="276.959" x2="11.667" y2="287.792"/>
		<line class="st0" x1="0.833" y1="282.375" x2="11.667" y2="293.209"/>
		<line class="st0" x1="0.833" y1="287.792" x2="11.667" y2="298.625"/>
		<line class="st0" x1="0.833" y1="293.209" x2="11.667" y2="304.042"/>
		<line class="st0" x1="0.833" y1="298.625" x2="11.667" y2="309.459"/>
		<line class="st0" x1="0.833" y1="304.042" x2="11.667" y2="314.875"/>
		<line class="st0" x1="0.833" y1="309.459" x2="11.667" y2="320.292"/>
		<line class="st0" x1="0.833" y1="314.875" x2="11.667" y2="325.709"/>
		<line class="st0" x1="0.833" y1="320.292" x2="11.667" y2="331.125"/>
		<line class="st0" x1="0.833" y1="325.709" x2="11.667" y2="336.542"/>
		<line class="st0" x1="0.833" y1="331.125" x2="11.667" y2="341.959"/>
		<line class="st0" x1="0.833" y1="336.542" x2="11.667" y2="347.375"/>
		<line class="st0" x1="0.833" y1="341.959" x2="11.667" y2="352.792"/>
		<line class="st0" x1="0.833" y1="347.375" x2="11.667" y2="358.209"/>
		<line class="st0" x1="0.833" y1="352.792" x2="11.667" y2="363.625"/>
		<line class="st0" x1="0.833" y1="358.209" x2="11.667" y2="369.042"/>
		<line class="st0" x1="0.833" y1="363.625" x2="11.667" y2="374.46"/>
		<line class="st0" x1="0.833" y1="369.042" x2="11.667" y2="379.876"/>
		<line class="st0" x1="0.833" y1="374.46" x2="11.667" y2="385.292"/>
		<line class="st0" x1="0.833" y1="379.876" x2="11.667" y2="390.71"/>
		<line class="st0" x1="0.833" y1="385.292" x2="11.667" y2="396.126"/>
		<line class="st0" x1="0.833" y1="390.71" x2="11.667" y2="401.542"/>
		<line class="st0" x1="0.833" y1="396.126" x2="11.667" y2="406.96"/>
		<line class="st0" x1="0.833" y1="401.542" x2="11.667" y2="412.376"/>
		<line class="st0" x1="0.833" y1="406.96" x2="11.667" y2="417.792"/>
		<line class="st0" x1="0.833" y1="412.376" x2="11.667" y2="423.21"/>
		<line class="st0" x1="0.833" y1="417.792" x2="11.667" y2="428.626"/>
		<line class="st0" x1="0.833" y1="423.21" x2="11.667" y2="434.042"/>
		<line class="st0" x1="0.833" y1="428.626" x2="11.667" y2="439.46"/>
		<line class="st0" x1="0.833" y1="434.042" x2="11.667" y2="444.876"/>
		<line class="st0" x1="0.833" y1="439.46" x2="11.667" y2="450.292"/>
		<line class="st0" x1="0.833" y1="444.876" x2="11.667" y2="455.71"/>
		<line class="st0" x1="0.833" y1="450.292" x2="11.667" y2="461.126"/>
		<line class="st0" x1="0.833" y1="455.71" x2="11.667" y2="466.542"/>
		<line class="st0" x1="0.833" y1="461.126" x2="11.667" y2="471.96"/>
		<line class="st0" x1="0.833" y1="466.542" x2="11.667" y2="477.376"/>
		<line class="st0" x1="0.833" y1="471.96" x2="11.667" y2="482.792"/>
		<line class="st0" x1="0.833" y1="477.376" x2="11.667" y2="488.21"/>
		<line class="st0" x1="0.833" y1="482.792" x2="11.667" y2="493.626"/>
		<line class="st0" x1="0.833" y1="488.21" x2="11.667" y2="499.042"/>
		<line class="st0" x1="0.833" y1="493.626" x2="11.667" y2="504.46"/>
		<line class="st0" x1="0.833" y1="499.042" x2="11.667" y2="509.876"/>
		<line class="st0" x1="0.833" y1="504.46" x2="11.667" y2="515.292"/>
		<line class="st0" x1="0.833" y1="509.876" x2="11.667" y2="520.71"/>
		<line class="st0" x1="0.833" y1="515.292" x2="11.667" y2="526.126"/>
		<line class="st0" x1="0.833" y1="520.71" x2="11.667" y2="531.542"/>
		<line class="st0" x1="0.833" y1="526.126" x2="11.667" y2="536.96"/>
		<line class="st0" x1="0.833" y1="531.542" x2="11.667" y2="542.376"/>
		<line class="st0" x1="0.833" y1="536.96" x2="11.667" y2="547.792"/>
		<line class="st0" x1="0.833" y1="542.376" x2="11.667" y2="553.21"/>
		<line class="st0" x1="0.833" y1="547.792" x2="11.667" y2="558.626"/>
		<line class="st0" x1="0.833" y1="553.21" x2="11.667" y2="564.042"/>
		<line class="st0" x1="0.833" y1="558.626" x2="11.667" y2="569.46"/>
		<line class="st0" x1="0.833" y1="564.042" x2="11.667" y2="574.876"/>
		<line class="st0" x1="0.833" y1="569.46" x2="11.667" y2="580.292"/>
		<line class="st0" x1="0.833" y1="574.876" x2="11.667" y2="585.71"/>
		<line class="st0" x1="0.833" y1="580.292" x2="11.667" y2="591.126"/>
		<line class="st0" x1="0.833" y1="585.71" x2="11.667" y2="596.542"/>
		<line class="st0" x1="0.833" y1="591.126" x2="11.667" y2="601.96"/>
		<line class="st0" x1="0.833" y1="596.542" x2="11.667" y2="607.376"/>
		<line class="st0" x1="0.833" y1="601.96" x2="11.667" y2="612.792"/>
		<line class="st0" x1="0.833" y1="607.376" x2="11.667" y2="618.21"/>
		<line class="st0" x1="0.833" y1="612.792" x2="11.667" y2="623.626"/>
		<line class="st0" x1="0.833" y1="618.21" x2="11.667" y2="629.042"/>
		<line class="st0" x1="0.833" y1="623.626" x2="11.667" y2="634.46"/>
		<line class="st0" x1="0.833" y1="629.042" x2="11.667" y2="639.876"/>
		<line class="st0" x1="0.833" y1="634.46" x2="11.667" y2="645.292"/>
		<line class="st0" x1="0.833" y1="639.876" x2="11.667" y2="650.71"/>
		<line class="st0" x1="0.833" y1="645.292" x2="11.667" y2="656.126"/>
		<line class="st0" x1="0.833" y1="650.71" x2="11.667" y2="661.542"/>
		<line class="st0" x1="0.833" y1="656.126" x2="11.667" y2="666.96"/>
		<line class="st0" x1="0.833" y1="661.542" x2="11.667" y2="672.376"/>
		<line class="st0" x1="0.833" y1="666.96" x2="11.667" y2="677.792"/>
		<line class="st0" x1="0.833" y1="672.376" x2="11.667" y2="683.21"/>
		<line class="st0" x1="0.833" y1="677.792" x2="11.667" y2="688.626"/>
		<line class="st0" x1="0.833" y1="683.21" x2="11.667" y2="694.042"/>
		<line class="st0" x1="0.833" y1="688.626" x2="11.667" y2="699.46"/>
		<line class="st0" x1="0.833" y1="694.042" x2="11.667" y2="704.876"/>
		<line class="st0" x1="0.833" y1="699.46" x2="11.667" y2="710.292"/>
		<line class="st0" x1="0.833" y1="704.876" x2="11.667" y2="715.71"/>
		<line class="st0" x1="0.833" y1="710.292" x2="11.667" y2="721.126"/>
		<line class="st0" x1="0.833" y1="715.71" x2="11.667" y2="726.542"/>
		<line class="st0" x1="0.833" y1="722.396" x2="20.797" y2="742.36"/>
		<line class="st0" x1="0.833" y1="727.813" x2="15.38" y2="742.36"/>
	</g>
</g>
</svg>
