<?xml version="1.0" encoding="utf-8"?>
<!-- Generator: Adobe Illustrator 14.0.0, SVG Export Plug-In . SVG Version: 6.00 Build 43363)  -->
<!DOCTYPE svg PUBLIC "-//W3C//DTD SVG 1.1//EN" "http://www.w3.org/Graphics/SVG/1.1/DTD/svg11.dtd">
<svg version="1.1" id="Nouveau_x5F_40_xA0_Image_1_"
	 xmlns="http://www.w3.org/2000/svg" xmlns:xlink="http://www.w3.org/1999/xlink" x="0px" y="0px" width="729px" height="969px"
	 viewBox="0 0 729 969" style="enable-background:new 0 0 729 969;" xml:space="preserve">
<style type="text/css">
<![CDATA[
	.st0{fill-rule:evenodd;clip-rule:evenodd;fill:none;stroke:#000000;stroke-width:3.0732;stroke-linecap:round;}
	.st1{fill-rule:evenodd;clip-rule:evenodd;fill:none;stroke:#000000;stroke-width:3.3166;stroke-linecap:round;}
	.st2{fill-rule:evenodd;clip-rule:evenodd;fill:none;stroke:#000000;stroke-width:3.1249;stroke-linecap:round;}
	.st3{fill-rule:evenodd;clip-rule:evenodd;fill:none;stroke:#000000;stroke-width:3.0374;stroke-linecap:round;}
	.st4{fill-rule:evenodd;clip-rule:evenodd;fill:none;stroke:#000000;stroke-width:3.2071;stroke-linecap:round;}
	.st5{fill-rule:evenodd;clip-rule:evenodd;fill:none;stroke:#000000;stroke-width:3.1464;stroke-linecap:round;}
	.st6{fill-rule:evenodd;clip-rule:evenodd;fill:none;stroke:#000000;stroke-width:3.0735;stroke-linecap:round;}
	.st7{fill-rule:evenodd;clip-rule:evenodd;fill:none;stroke:#000000;stroke-width:3.1225;stroke-linecap:round;}
	.st8{fill-rule:evenodd;clip-rule:evenodd;fill:none;stroke:#000000;stroke-width:3.0888;stroke-linecap:round;}
	.st9{fill-rule:evenodd;clip-rule:evenodd;fill:none;stroke:#000000;stroke-width:4.0464;stroke-linecap:round;}
	.st10{fill-rule:evenodd;clip-rule:evenodd;fill:none;stroke:#000000;stroke-width:3.1623;stroke-linecap:round;}
	.st11{fill-rule:evenodd;clip-rule:evenodd;fill:none;stroke:#000000;stroke-width:3.2404;stroke-linecap:round;}
	.st12{fill-rule:evenodd;clip-rule:evenodd;fill:none;stroke:#000000;stroke-width:3.0851;stroke-linecap:round;}
	.st13{fill:#000000;fill-rule:evenodd;clip-rule:evenodd;}
	.st14{fill-rule:evenodd;clip-rule:evenodd;fill:none;stroke:#000000;stroke-width:3.171;stroke-linecap:round;}
	.st15{fill-rule:evenodd;clip-rule:evenodd;fill:none;stroke:#000000;stroke-width:3.0823;stroke-linecap:round;}
	.st16{fill-rule:evenodd;clip-rule:evenodd;fill:none;stroke:#000000;stroke-width:3.0429;stroke-linecap:round;}
	.st17{fill-rule:evenodd;clip-rule:evenodd;fill:none;stroke:#000000;stroke-width:3.0277;stroke-linecap:round;}
	.st18{fill-rule:evenodd;clip-rule:evenodd;fill:none;stroke:#000000;stroke-width:3.0774;stroke-linecap:round;}
	.st19{fill-rule:evenodd;clip-rule:evenodd;fill:none;stroke:#000000;stroke-width:4.3797;stroke-linecap:round;}
	.st20{fill-rule:evenodd;clip-rule:evenodd;fill:none;stroke:#000000;stroke-width:3.0751;stroke-linecap:round;}
	.st21{fill-rule:evenodd;clip-rule:evenodd;fill:none;stroke:#000000;stroke-width:4.5627;stroke-linecap:round;}
	.st22{fill-rule:evenodd;clip-rule:evenodd;fill:none;stroke:#000000;stroke-width:3.0822;stroke-linecap:round;}
	.st23{fill-rule:evenodd;clip-rule:evenodd;fill:none;stroke:#000000;stroke-width:3.2363;stroke-linecap:round;}
	.st24{fill-rule:evenodd;clip-rule:evenodd;fill:none;stroke:#000000;stroke-width:3.0984;stroke-linecap:round;}
]]>
</style>
<g>
	<g>
		<path class="st13" d="M717,969c-5.333,0-10.667,0-16,0c-0.444-1.65-7.556-1.65-8,0c-7.333,0-14.667,0-22,0c0-0.333,0-0.667,0-1
			l1.5-1.167L672,965c15.561-0.106,27.593-3.74,36-11c0-2,0-4,0-6l1.833,0.5L711,947C713.783,953.721,726.198,962.283,717,969z"/>
		<path class="st13" d="M675.357,957.214L674,956c0-1.333,0-2.667,0-4c-2,0-4,0-6,0l0.5-1.833L667,949
			c2.965-2.288,12.361-3.346,15,0c0.58,6.247-3.021,8.313-7,10L675.357,957.214z"/>
		<path class="st13" d="M650.5,956.833L652,958c-1.438,1.759-0.918,2.279,2,2l1.3,1.3l1.7,0.7c-3.042,5.653-14.364,6.687-17,0
			l0.5-1.5L640,959c1.427-4.906,5.246-7.421,9-10l0.7,1.7l1.3,1.3c0.21,1.71-1.705,2.59,0,3L650.5,956.833z"/>
		<path class="st13" d="M88.5,960.5L89,962c-3.141,4.629-12.601,7.161-16,1l1.5-1.167L74,960c1,0,2,0,3,0
			c-0.19-0.81-1.003-0.997-1-2l1.5-1.167L77,955c0.851,0.184,0.943-0.39,1-1c-0.934-0.733-1.515-1.818-2-3l1.7-0.7L79,949
			c4.702,1.631,7.225,5.441,9,10L88.5,960.5z"/>
		<path class="st13" d="M59.5,950.167L60,952c-1.667,0-3.333,0-5,0c-0.777,0.89-1.075,2.258-1,4l-1.357,1.214L53,959
			c-4.242-1.062-8.756-6.159-6-11c3.313-1.801,11.843-1.548,14,1L59.5,950.167z"/>
		<path class="st13" d="M55.5,966.833L57,968c0,0.333,0,0.667,0,1c-6,0-12,0-18,0c-0.444-1.65-7.556-1.65-8,0
			c-6.667,0-13.333,0-20,0c-7.758-6.896,2.969-15.534,6-21l1.167,1.5L20,949c3.288,14.046,20.024,14.643,36,16L55.5,966.833z"/>
		<path class="st13" d="M13.167,34.5L12,36C2.656,26.096,0.045,4.004,15,1c8.897-1.787,24.765,5.758,23,15
			c-0.422,2.208,0.497,3.158-4,3l0.5-1.833L33,16c0-0.667,0-1.333,0-2C19.352,6.003,8.352,22.145,15,35L13.167,34.5z"/>
		<path class="st13" d="M30.5,17.5L31,19c0,0.667,0,1.333,0,2l-0.5,1.5L31,24c-3.854-0.56-8.816-3.944-6-8
			c0.42-2.226,5.306-0.783,6,0L30.5,17.5z"/>
		<path class="st13" d="M45.833,13.5L44,14c-0.966-2.367-1.754-4.913-6-4c-0.475-3.808,0.424-6.242,3-7
			c7.997-1.367,9.423,7.567,6,12L45.833,13.5z"/>
		<path class="st13" d="M50.7,20.7L49,20c3.45-7.216,6.723-14.611,20-12l-0.5,1.833L70,11c-2.521,8.092-5.828,11.163-18,11
			L50.7,20.7z"/>
		<path class="st13" d="M659.5,9.833L659,8c4,0,8,0,12,0c4.398,2.269,5.252,8.081,8,12l-1.7,0.7L676,22
			c-10.022,0.355-15.938-3.395-18-11L659.5,9.833z"/>
		<path class="st13" d="M683.167,14.5L682,16c-4.139-3.867-2.502-15.528,6-13c7.89,6.013-3.4,5.192-3,12L683.167,14.5z"/>
		<path class="st13" d="M697.5,22.5L697,21c0-0.667,0-1.333,0-2l1.5-1.167L698,16c8.575-4.483,6.209,8.268,0,8L697.5,22.5z"/>
		<path class="st13" d="M694.5,17.167L695,19c-10.686-0.484-1.488-12.265,3-15c23.205-14.143,34.357,17.849,18,32l-0.7-1.7L714,33
			c5.896-12.208-7.916-27.843-18-18c0,0.333,0,0.667,0,1L694.5,17.167z"/>
		<path class="st13" d="M685,939c6.116-0.049,9.151,1.264,12,3c13.176,8.032-1.961,23.126-13,13c0.053-3.586,9.586,1.133,7-8
			c-0.913-3.224-3.853-2.741-7-5l1.5-1.167L685,939z"/>
		<path class="st13" d="M697.7,28.3L699,27c4.315,0.155,8.995-3.58,11,0c-1.647,7.02-6.607,10.726-8,18l-1.167-1.5L699,44
			c-0.405-4.262,0.969-10.302-1-13c-0.891-0.443-1.788-0.878-2-2L697.7,28.3z"/>
		<path class="st13" d="M29.5,28.833L31,30c-2.438,2.562-2.086,7.914-2,13l-1.833-0.5L26,44c-1.514-7.153-7.059-10.274-8-18
			c3.281-2.303,7.7,1.17,12,1L29.5,28.833z"/>
		<path class="st13" d="M42.5,940.833L44,942c-5.499,1.204-9.975,7.273-4,11c2.002,1.249,4.348-1.887,5,2
			c-6.719,7.961-20.28,1.822-20-6c0.252-7.055,9.176-9.134,18-10L42.5,940.833z"/>
		<g>
			<path class="st14" d="M672.5,966.833c-1.886-0.246-3.07-1.871-3.421-2.571c0.581-3.141,3.888-5.198,6.278-7.048"/>
			<path class="st2" d="M655.3,961.3c3.131-2.038,6.236-4.898,10.2-4.8"/>
			<path class="st0" d="M62.5,956.5c4.774-0.51,7.862,3.883,12,5.333"/>
			<path class="st23" d="M52.643,957.214c3.81,1.535,10.133,7.976,2.857,9.619"/>
			<path class="st12" d="M18.167,949.5c2.436-272.842,1.333-564.867,1.333-845c0-24.915,3.688-50.618-6.333-70"/>
			<path class="st21" d="M34.5,24.5c1.985-0.611,4.148-0.29,6.056-1.222"/>
			<path class="st10" d="M40.556,23.278c0.989-3.622,4.339-6.057,5.278-9.778"/>
			<path class="st11" d="M40.556,23.278c3.529,1.392,7.134-1.006,10.145-2.578"/>
			<path class="st20" d="M68.5,9.833c196.728-2.207,394.298-2.228,591,0"/>
			<path class="st4" d="M677.3,20.7c3.065,1.693,6.475,3.557,10.145,2.578"/>
			<path class="st5" d="M687.444,23.278c-0.658-3.29-3.738-5.439-4.277-8.778"/>
			<path class="st19" d="M687.444,23.278c1.934,1.105,4.234,0.369,6.27,1.079"/>
			<path class="st17" d="M693.714,24.357c1.353-0.697,2.685-1.309,3.786-1.857"/>
			<path class="st24" d="M698.5,17.833c-1.333-0.248-2.667-0.344-4-0.667"/>
			<path class="st3" d="M650.5,956.833c6.264-1.498,11.726-5.292,18-6.666"/>
			<path class="st9" d="M709.833,948.5C708.31,692.316,709,424.178,709,164.5c0-37.56,1.9-74.955-0.054-110.565
				c-0.243-4.436,2.879-14.992,6.354-19.635"/>
			<path class="st1" d="M693.714,24.357c0.216,2.209,2.649,2.63,3.986,3.943"/>
			<path class="st15" d="M700.5,939.5c0.223-298.655-0.444-597.398,0.333-896"/>
			<path class="st15" d="M27.5,939.5c-0.222-298.989,0.444-598.064-0.333-897"/>
			<path class="st7" d="M29.5,28.833c2.113-0.924,4.087-2.091,5-4.333"/>
			<path class="st10" d="M34.5,24.5c-1.333-0.808-2.667-1.624-4-2"/>
			<path class="st22" d="M30.5,17.5c1.333,0.053,2.667-0.057,4-0.333"/>
			<path class="st16" d="M59.5,950.167c6.242,1.477,11.864,4.771,18,6.666"/>
			<path class="st8" d="M42.5,940.833c12.416-1.626,25.493,1.361,35.2,9.467"/>
			<path class="st18" d="M88.5,960.5c24.098,5.02,50.999,3.001,79,3c105.242-0.002,220.517,0.002,328,0
				c45.661-0.001,91.111,3.054,131.005-0.005c2.801-0.215,9.908-2.233,13.995-2.995"/>
			<path class="st6" d="M649.7,950.7c9.98-8.245,23.089-11.576,35.8-9.867"/>
		</g>
	</g>
</g>
</svg>
