<?xml version="1.0" encoding="utf-8"?>
<!-- Generator: Adobe Illustrator 14.0.0, SVG Export Plug-In . SVG Version: 6.00 Build 43363)  -->
<!DOCTYPE svg PUBLIC "-//W3C//DTD SVG 1.1//EN" "http://www.w3.org/Graphics/SVG/1.1/DTD/svg11.dtd">
<svg version="1.1" id="Layer_1" xmlns="http://www.w3.org/2000/svg" xmlns:xlink="http://www.w3.org/1999/xlink" x="0px" y="0px"
	 width="580.744px" height="760.745px" viewBox="0 0 580.744 760.745" style="enable-background:new 0 0 580.744 760.745;"
	 xml:space="preserve">
<style type="text/css">
<![CDATA[
	.st0{fill:none;stroke:#111111;stroke-width:0.5;stroke-miterlimit:10;}
]]>
</style>
<polygon class="st0" points="2.372,745.586 0.272,750.476 2.372,755.367 4.472,750.476 "/>
<polygon class="st0" points="2.372,734.539 0.272,739.428 2.372,744.319 4.472,739.428 "/>
<polygon class="st0" points="2.372,723.491 0.272,728.38 2.372,733.271 4.472,728.38 "/>
<polygon class="st0" points="2.372,712.443 0.272,717.333 2.372,722.223 4.472,717.333 "/>
<polygon class="st0" points="2.372,701.395 0.272,706.285 2.372,711.175 4.472,706.285 "/>
<polygon class="st0" points="2.372,690.347 0.272,695.237 2.372,700.127 4.472,695.237 "/>
<polygon class="st0" points="2.372,679.299 0.272,684.189 2.372,689.079 4.472,684.189 "/>
<polygon class="st0" points="2.372,668.251 0.272,673.141 2.372,678.032 4.472,673.141 "/>
<polygon class="st0" points="2.372,657.204 0.272,662.093 2.372,666.983 4.472,662.093 "/>
<polygon class="st0" points="2.372,646.156 0.272,651.045 2.372,655.935 4.472,651.045 "/>
<polygon class="st0" points="2.372,635.108 0.272,639.998 2.372,644.887 4.472,639.998 "/>
<polygon class="st0" points="2.372,624.06 0.272,628.95 2.372,633.839 4.472,628.95 "/>
<polygon class="st0" points="2.372,613.012 0.272,617.902 2.372,622.792 4.472,617.902 "/>
<polygon class="st0" points="2.372,601.964 0.272,606.854 2.372,611.744 4.472,606.854 "/>
<polygon class="st0" points="2.372,590.917 0.272,595.806 2.372,600.696 4.472,595.806 "/>
<polygon class="st0" points="2.372,579.869 0.272,584.758 2.372,589.648 4.472,584.758 "/>
<polygon class="st0" points="2.372,568.821 0.272,573.71 2.372,578.6 4.472,573.71 "/>
<polygon class="st0" points="2.372,557.773 0.272,562.663 2.372,567.552 4.472,562.663 "/>
<polygon class="st0" points="2.372,546.725 0.272,551.615 2.372,556.504 4.472,551.615 "/>
<polygon class="st0" points="2.372,535.677 0.272,540.567 2.372,545.457 4.472,540.567 "/>
<polygon class="st0" points="2.372,524.629 0.272,529.519 2.372,534.409 4.472,529.519 "/>
<polygon class="st0" points="2.372,513.582 0.272,518.471 2.372,523.361 4.472,518.471 "/>
<polygon class="st0" points="2.372,502.533 0.272,507.423 2.372,512.313 4.472,507.423 "/>
<polygon class="st0" points="2.372,491.486 0.272,496.375 2.372,501.265 4.472,496.375 "/>
<polygon class="st0" points="2.372,480.437 0.272,485.328 2.372,490.217 4.472,485.328 "/>
<polygon class="st0" points="2.372,469.39 0.272,474.28 2.372,479.169 4.472,474.28 "/>
<polygon class="st0" points="2.372,458.341 0.272,463.232 2.372,468.122 4.472,463.232 "/>
<polygon class="st0" points="2.372,447.293 0.272,452.184 2.372,457.074 4.472,452.184 "/>
<polygon class="st0" points="2.372,436.246 0.272,441.136 2.372,446.026 4.472,441.136 "/>
<polygon class="st0" points="2.372,425.198 0.272,430.088 2.372,434.978 4.472,430.088 "/>
<polygon class="st0" points="2.372,414.15 0.272,419.041 2.372,423.93 4.472,419.041 "/>
<polygon class="st0" points="2.372,403.102 0.272,407.993 2.372,412.882 4.472,407.993 "/>
<polygon class="st0" points="2.372,392.054 0.272,396.945 2.372,401.834 4.472,396.945 "/>
<polygon class="st0" points="2.372,381.006 0.272,385.897 2.372,390.787 4.472,385.897 "/>
<polygon class="st0" points="2.372,369.959 0.272,374.849 2.372,379.739 4.472,374.849 "/>
<polygon class="st0" points="2.372,358.911 0.272,363.801 2.372,368.691 4.472,363.801 "/>
<polygon class="st0" points="2.372,347.863 0.272,352.753 2.372,357.643 4.472,352.753 "/>
<polygon class="st0" points="2.372,336.815 0.272,341.705 2.372,346.595 4.472,341.705 "/>
<polygon class="st0" points="2.372,325.768 0.272,330.657 2.372,335.547 4.472,330.657 "/>
<polygon class="st0" points="2.372,314.719 0.272,319.609 2.372,324.5 4.472,319.609 "/>
<polygon class="st0" points="2.372,303.671 0.272,308.562 2.372,313.452 4.472,308.562 "/>
<polygon class="st0" points="2.372,292.624 0.272,297.514 2.372,302.404 4.472,297.514 "/>
<polygon class="st0" points="2.372,281.576 0.272,286.466 2.372,291.356 4.472,286.466 "/>
<polygon class="st0" points="2.372,270.528 0.272,275.418 2.372,280.308 4.472,275.418 "/>
<polygon class="st0" points="2.372,259.48 0.272,264.37 2.372,269.26 4.472,264.37 "/>
<polygon class="st0" points="2.372,248.432 0.272,253.322 2.372,258.212 4.472,253.322 "/>
<polygon class="st0" points="2.372,237.384 0.272,242.274 2.372,247.165 4.472,242.274 "/>
<polygon class="st0" points="2.372,226.336 0.272,231.227 2.372,236.117 4.472,231.227 "/>
<polygon class="st0" points="2.372,215.289 0.272,220.179 2.372,225.069 4.472,220.179 "/>
<polygon class="st0" points="2.372,204.241 0.272,209.131 2.372,214.021 4.472,209.131 "/>
<polygon class="st0" points="2.372,193.193 0.272,198.083 2.372,202.973 4.472,198.083 "/>
<polygon class="st0" points="2.372,182.145 0.272,187.035 2.372,191.925 4.472,187.035 "/>
<polygon class="st0" points="2.372,171.097 0.272,175.987 2.372,180.877 4.472,175.987 "/>
<polygon class="st0" points="2.372,160.049 0.272,164.939 2.372,169.83 4.472,164.939 "/>
<polygon class="st0" points="2.372,149.001 0.272,153.892 2.372,158.782 4.472,153.892 "/>
<polygon class="st0" points="2.372,137.954 0.272,142.844 2.372,147.733 4.472,142.844 "/>
<polygon class="st0" points="2.372,126.906 0.272,131.795 2.372,136.686 4.472,131.795 "/>
<polygon class="st0" points="2.372,115.858 0.272,120.748 2.372,125.638 4.472,120.748 "/>
<polygon class="st0" points="2.372,104.81 0.272,109.7 2.372,114.59 4.472,109.7 "/>
<polygon class="st0" points="2.372,93.762 0.272,98.652 2.372,103.542 4.472,98.652 "/>
<polygon class="st0" points="2.372,82.714 0.272,87.604 2.372,92.494 4.472,87.604 "/>
<polygon class="st0" points="2.372,71.667 0.272,76.556 2.372,81.446 4.472,76.556 "/>
<polygon class="st0" points="2.372,60.619 0.272,65.508 2.372,70.398 4.472,65.508 "/>
<polygon class="st0" points="2.372,49.571 0.272,54.46 2.372,59.351 4.472,54.46 "/>
<polygon class="st0" points="2.372,38.523 0.272,43.413 2.372,48.303 4.472,43.413 "/>
<polygon class="st0" points="2.372,27.475 0.272,32.365 2.372,37.255 4.472,32.365 "/>
<polygon class="st0" points="2.372,16.427 0.272,21.317 2.372,26.207 4.472,21.317 "/>
<polygon class="st0" points="2.372,5.379 0.272,10.269 2.372,15.159 4.472,10.269 "/>
<polygon class="st0" points="15.1,2.373 10.238,0.272 5.375,2.373 10.238,4.473 "/>
<polygon class="st0" points="26.085,2.373 21.223,0.272 16.36,2.373 21.223,4.473 "/>
<polygon class="st0" points="37.071,2.373 32.209,0.272 27.346,2.373 32.209,4.473 "/>
<polygon class="st0" points="48.057,2.373 43.195,0.272 38.332,2.373 43.195,4.473 "/>
<polygon class="st0" points="59.042,2.373 54.18,0.272 49.317,2.373 54.18,4.473 "/>
<polygon class="st0" points="70.028,2.373 65.166,0.272 60.303,2.373 65.166,4.473 "/>
<polygon class="st0" points="81.014,2.373 76.152,0.272 71.289,2.373 76.152,4.473 "/>
<polygon class="st0" points="92,2.373 87.137,0.272 82.274,2.373 87.137,4.473 "/>
<polygon class="st0" points="102.985,2.373 98.123,0.272 93.26,2.373 98.123,4.473 "/>
<polygon class="st0" points="113.971,2.373 109.109,0.272 104.246,2.373 109.109,4.473 "/>
<polygon class="st0" points="124.957,2.373 120.094,0.272 115.231,2.373 120.094,4.473 "/>
<polygon class="st0" points="135.942,2.373 131.08,0.272 126.217,2.373 131.08,4.473 "/>
<polygon class="st0" points="146.928,2.373 142.066,0.272 137.203,2.373 142.066,4.473 "/>
<polygon class="st0" points="157.914,2.373 153.051,0.272 148.188,2.373 153.051,4.473 "/>
<polygon class="st0" points="168.899,2.373 164.037,0.272 159.174,2.373 164.037,4.473 "/>
<polygon class="st0" points="179.885,2.373 175.023,0.272 170.16,2.373 175.023,4.473 "/>
<polygon class="st0" points="190.871,2.373 186.008,0.272 181.146,2.373 186.008,4.473 "/>
<polygon class="st0" points="201.856,2.373 196.994,0.272 192.131,2.373 196.994,4.473 "/>
<polygon class="st0" points="212.842,2.373 207.98,0.272 203.117,2.373 207.98,4.473 "/>
<polygon class="st0" points="223.828,2.373 218.965,0.272 214.103,2.373 218.965,4.473 "/>
<polygon class="st0" points="234.813,2.373 229.951,0.272 225.088,2.373 229.951,4.473 "/>
<polygon class="st0" points="245.799,2.373 240.937,0.272 236.074,2.373 240.937,4.473 "/>
<polygon class="st0" points="256.785,2.373 251.922,0.272 247.06,2.373 251.922,4.473 "/>
<polygon class="st0" points="267.77,2.373 262.908,0.272 258.045,2.373 262.908,4.473 "/>
<polygon class="st0" points="278.756,2.373 273.894,0.272 269.031,2.373 273.894,4.473 "/>
<polygon class="st0" points="289.742,2.373 284.879,0.272 280.017,2.373 284.879,4.473 "/>
<polygon class="st0" points="300.728,2.373 295.865,0.272 291.002,2.373 295.865,4.473 "/>
<polygon class="st0" points="311.713,2.373 306.851,0.272 301.988,2.373 306.851,4.473 "/>
<polygon class="st0" points="322.698,2.373 317.837,0.272 312.974,2.373 317.837,4.473 "/>
<polygon class="st0" points="333.685,2.373 328.822,0.272 323.959,2.373 328.822,4.473 "/>
<polygon class="st0" points="344.67,2.373 339.808,0.272 334.945,2.373 339.808,4.473 "/>
<polygon class="st0" points="355.655,2.373 350.794,0.272 345.931,2.373 350.794,4.473 "/>
<polygon class="st0" points="366.642,2.373 361.779,0.272 356.916,2.373 361.779,4.473 "/>
<polygon class="st0" points="377.627,2.373 372.765,0.272 367.902,2.373 372.765,4.473 "/>
<polygon class="st0" points="388.612,2.373 383.751,0.272 378.888,2.373 383.751,4.473 "/>
<polygon class="st0" points="399.599,2.373 394.736,0.272 389.873,2.373 394.736,4.473 "/>
<polygon class="st0" points="410.584,2.373 405.722,0.272 400.859,2.373 405.722,4.473 "/>
<polygon class="st0" points="421.569,2.373 416.708,0.272 411.845,2.373 416.708,4.473 "/>
<polygon class="st0" points="432.556,2.373 427.693,0.272 422.83,2.373 427.693,4.473 "/>
<polygon class="st0" points="443.541,2.373 438.679,0.272 433.816,2.373 438.679,4.473 "/>
<polygon class="st0" points="454.526,2.373 449.665,0.272 444.802,2.373 449.665,4.473 "/>
<polygon class="st0" points="465.513,2.373 460.65,0.272 455.787,2.373 460.65,4.473 "/>
<polygon class="st0" points="476.498,2.373 471.636,0.272 466.772,2.373 471.636,4.473 "/>
<polygon class="st0" points="487.483,2.373 482.622,0.272 477.759,2.373 482.622,4.473 "/>
<polygon class="st0" points="498.47,2.373 493.607,0.272 488.744,2.373 493.607,4.473 "/>
<polygon class="st0" points="509.455,2.373 504.593,0.272 499.729,2.373 504.593,4.473 "/>
<polygon class="st0" points="520.44,2.373 515.579,0.272 510.716,2.373 515.579,4.473 "/>
<polygon class="st0" points="531.427,2.373 526.564,0.272 521.701,2.373 526.564,4.473 "/>
<polygon class="st0" points="542.412,2.373 537.55,0.272 532.687,2.373 537.55,4.473 "/>
<polygon class="st0" points="553.397,2.373 548.535,0.272 543.673,2.373 548.535,4.473 "/>
<polygon class="st0" points="564.384,2.373 559.521,0.272 554.658,2.373 559.521,4.473 "/>
<polygon class="st0" points="575.369,2.373 570.507,0.272 565.644,2.373 570.507,4.473 "/>
<polygon class="st0" points="578.372,15.159 580.472,10.269 578.372,5.379 576.272,10.269 "/>
<polygon class="st0" points="578.372,26.207 580.472,21.317 578.372,16.427 576.272,21.317 "/>
<polygon class="st0" points="578.372,37.254 580.472,32.365 578.372,27.475 576.272,32.365 "/>
<polygon class="st0" points="578.372,48.302 580.472,43.413 578.372,38.522 576.272,43.413 "/>
<polygon class="st0" points="578.372,59.35 580.472,54.46 578.372,49.57 576.272,54.46 "/>
<polygon class="st0" points="578.372,70.398 580.472,65.508 578.372,60.618 576.272,65.508 "/>
<polygon class="st0" points="578.372,81.446 580.472,76.556 578.372,71.666 576.272,76.556 "/>
<polygon class="st0" points="578.372,92.494 580.472,87.604 578.372,82.714 576.272,87.604 "/>
<polygon class="st0" points="578.372,103.542 580.472,98.652 578.372,93.762 576.272,98.652 "/>
<polygon class="st0" points="578.372,114.589 580.472,109.7 578.372,104.81 576.272,109.7 "/>
<polygon class="st0" points="578.372,125.638 580.472,120.748 578.372,115.857 576.272,120.748 "/>
<polygon class="st0" points="578.372,136.686 580.472,131.795 578.372,126.905 576.272,131.795 "/>
<polygon class="st0" points="578.372,147.733 580.472,142.843 578.372,137.953 576.272,142.843 "/>
<polygon class="st0" points="578.372,158.781 580.472,153.891 578.372,149.001 576.272,153.891 "/>
<polygon class="st0" points="578.372,169.829 580.472,164.939 578.372,160.049 576.272,164.939 "/>
<polygon class="st0" points="578.372,180.877 580.472,175.987 578.372,171.097 576.272,175.987 "/>
<polygon class="st0" points="578.372,191.925 580.472,187.035 578.372,182.145 576.272,187.035 "/>
<polygon class="st0" points="578.372,202.973 580.472,198.083 578.372,193.192 576.272,198.083 "/>
<polygon class="st0" points="578.372,214.021 580.472,209.13 578.372,204.241 576.272,209.13 "/>
<polygon class="st0" points="578.372,225.068 580.472,220.178 578.372,215.288 576.272,220.178 "/>
<polygon class="st0" points="578.372,236.116 580.472,231.226 578.372,226.336 576.272,231.226 "/>
<polygon class="st0" points="578.372,247.164 580.472,242.274 578.372,237.384 576.272,242.274 "/>
<polygon class="st0" points="578.372,258.212 580.472,253.322 578.372,248.432 576.272,253.322 "/>
<polygon class="st0" points="578.372,269.26 580.472,264.37 578.372,259.48 576.272,264.37 "/>
<polygon class="st0" points="578.372,280.308 580.472,275.417 578.372,270.528 576.272,275.417 "/>
<polygon class="st0" points="578.372,291.355 580.472,286.465 578.372,281.576 576.272,286.465 "/>
<polygon class="st0" points="578.372,302.403 580.472,297.513 578.372,292.624 576.272,297.513 "/>
<polygon class="st0" points="578.372,313.451 580.472,308.561 578.372,303.671 576.272,308.561 "/>
<polygon class="st0" points="578.372,324.499 580.472,319.609 578.372,314.719 576.272,319.609 "/>
<polygon class="st0" points="578.372,335.547 580.472,330.657 578.372,325.767 576.272,330.657 "/>
<polygon class="st0" points="578.372,346.595 580.472,341.705 578.372,336.815 576.272,341.705 "/>
<polygon class="st0" points="578.372,357.643 580.472,352.753 578.372,347.863 576.272,352.753 "/>
<polygon class="st0" points="578.372,368.69 580.472,363.801 578.372,358.911 576.272,363.801 "/>
<polygon class="st0" points="578.372,379.738 580.472,374.849 578.372,369.958 576.272,374.849 "/>
<polygon class="st0" points="578.372,390.787 580.472,385.896 578.372,381.006 576.272,385.896 "/>
<polygon class="st0" points="578.372,401.834 580.472,396.944 578.372,392.054 576.272,396.944 "/>
<polygon class="st0" points="578.372,412.882 580.472,407.992 578.372,403.102 576.272,407.992 "/>
<polygon class="st0" points="578.372,423.93 580.472,419.04 578.372,414.15 576.272,419.04 "/>
<polygon class="st0" points="578.372,434.978 580.472,430.087 578.372,425.198 576.272,430.087 "/>
<polygon class="st0" points="578.372,446.026 580.472,441.135 578.372,436.246 576.272,441.135 "/>
<polygon class="st0" points="578.372,457.074 580.472,452.183 578.372,447.293 576.272,452.183 "/>
<polygon class="st0" points="578.372,468.122 580.472,463.231 578.372,458.341 576.272,463.231 "/>
<polygon class="st0" points="578.372,479.169 580.472,474.279 578.372,469.389 576.272,474.279 "/>
<polygon class="st0" points="578.372,490.217 580.472,485.328 578.372,480.437 576.272,485.328 "/>
<polygon class="st0" points="578.372,501.265 580.472,496.375 578.372,491.485 576.272,496.375 "/>
<polygon class="st0" points="578.372,512.313 580.472,507.423 578.372,502.533 576.272,507.423 "/>
<polygon class="st0" points="578.372,523.361 580.472,518.471 578.372,513.581 576.272,518.471 "/>
<polygon class="st0" points="578.372,534.409 580.472,529.519 578.372,524.628 576.272,529.519 "/>
<polygon class="st0" points="578.372,545.457 580.472,540.567 578.372,535.676 576.272,540.567 "/>
<polygon class="st0" points="578.372,556.504 580.472,551.615 578.372,546.724 576.272,551.615 "/>
<polygon class="st0" points="578.372,567.552 580.472,562.663 578.372,557.772 576.272,562.663 "/>
<polygon class="st0" points="578.372,578.6 580.472,573.71 578.372,568.82 576.272,573.71 "/>
<polygon class="st0" points="578.372,589.648 580.472,584.758 578.372,579.868 576.272,584.758 "/>
<polygon class="st0" points="578.372,600.696 580.472,595.806 578.372,590.916 576.272,595.806 "/>
<polygon class="st0" points="578.372,611.744 580.472,606.854 578.372,601.963 576.272,606.854 "/>
<polygon class="st0" points="578.372,622.792 580.472,617.902 578.372,613.011 576.272,617.902 "/>
<polygon class="st0" points="578.372,633.839 580.472,628.95 578.372,624.059 576.272,628.95 "/>
<polygon class="st0" points="578.372,644.887 580.472,639.998 578.372,635.107 576.272,639.998 "/>
<polygon class="st0" points="578.372,655.935 580.472,651.045 578.372,646.155 576.272,651.045 "/>
<polygon class="st0" points="578.372,666.983 580.472,662.093 578.372,657.203 576.272,662.093 "/>
<polygon class="st0" points="578.372,678.031 580.472,673.141 578.372,668.25 576.272,673.141 "/>
<polygon class="st0" points="578.372,689.079 580.472,684.189 578.372,679.298 576.272,684.189 "/>
<polygon class="st0" points="578.372,700.126 580.472,695.237 578.372,690.346 576.272,695.237 "/>
<polygon class="st0" points="578.372,711.174 580.472,706.285 578.372,701.394 576.272,706.285 "/>
<polygon class="st0" points="578.372,722.222 580.472,717.333 578.372,712.442 576.272,717.333 "/>
<polygon class="st0" points="578.372,733.27 580.472,728.38 578.372,723.491 576.272,728.38 "/>
<polygon class="st0" points="578.372,744.318 580.472,739.428 578.372,734.538 576.272,739.428 "/>
<polygon class="st0" points="578.372,755.366 580.472,750.476 578.372,745.586 576.272,750.476 "/>
<polygon class="st0" points="565.645,758.373 570.507,760.472 575.369,758.373 570.507,756.273 "/>
<polygon class="st0" points="554.659,758.373 559.521,760.472 564.384,758.373 559.521,756.273 "/>
<polygon class="st0" points="543.673,758.373 548.535,760.472 553.398,758.373 548.535,756.273 "/>
<polygon class="st0" points="532.688,758.373 537.55,760.472 542.412,758.373 537.55,756.273 "/>
<polygon class="st0" points="521.702,758.373 526.563,760.472 531.427,758.373 526.563,756.273 "/>
<polygon class="st0" points="510.716,758.373 515.578,760.472 520.441,758.373 515.578,756.273 "/>
<polygon class="st0" points="499.73,758.373 504.593,760.472 509.455,758.373 504.593,756.273 "/>
<polygon class="st0" points="488.745,758.373 493.606,760.472 498.47,758.373 493.606,756.273 "/>
<polygon class="st0" points="477.759,758.373 482.621,760.472 487.484,758.373 482.621,756.273 "/>
<polygon class="st0" points="466.773,758.373 471.636,760.472 476.498,758.373 471.636,756.273 "/>
<polygon class="st0" points="455.788,758.373 460.649,760.472 465.513,758.373 460.649,756.273 "/>
<polygon class="st0" points="444.802,758.373 449.664,760.472 454.527,758.373 449.664,756.273 "/>
<polygon class="st0" points="433.816,758.373 438.679,760.472 443.541,758.373 438.679,756.273 "/>
<polygon class="st0" points="422.831,758.373 427.692,760.472 432.556,758.373 427.692,756.273 "/>
<polygon class="st0" points="411.845,758.373 416.707,760.472 421.57,758.373 416.707,756.273 "/>
<polygon class="st0" points="400.859,758.373 405.722,760.472 410.584,758.373 405.722,756.273 "/>
<polygon class="st0" points="389.874,758.373 394.735,760.472 399.599,758.373 394.735,756.273 "/>
<polygon class="st0" points="378.888,758.373 383.75,760.472 388.613,758.373 383.75,756.273 "/>
<polygon class="st0" points="367.902,758.373 372.765,760.472 377.627,758.373 372.765,756.273 "/>
<polygon class="st0" points="356.917,758.373 361.778,760.472 366.642,758.373 361.778,756.273 "/>
<polygon class="st0" points="345.931,758.373 350.793,760.472 355.656,758.373 350.793,756.273 "/>
<polygon class="st0" points="334.945,758.373 339.808,760.472 344.67,758.373 339.808,756.273 "/>
<polygon class="st0" points="323.96,758.373 328.821,760.472 333.685,758.373 328.821,756.273 "/>
<polygon class="st0" points="312.974,758.373 317.836,760.472 322.699,758.373 317.836,756.273 "/>
<polygon class="st0" points="301.988,758.373 306.851,760.472 311.713,758.373 306.851,756.273 "/>
<polygon class="st0" points="291.003,758.373 295.864,760.472 300.728,758.373 295.864,756.273 "/>
<polygon class="st0" points="280.017,758.373 284.879,760.472 289.742,758.373 284.879,756.273 "/>
<polygon class="st0" points="269.031,758.373 273.893,760.472 278.756,758.373 273.893,756.273 "/>
<polygon class="st0" points="258.045,758.373 262.908,760.472 267.771,758.373 262.908,756.273 "/>
<polygon class="st0" points="247.06,758.373 251.922,760.472 256.785,758.373 251.922,756.273 "/>
<polygon class="st0" points="236.074,758.373 240.936,760.472 245.799,758.373 240.936,756.273 "/>
<polygon class="st0" points="225.088,758.373 229.951,760.472 234.813,758.373 229.951,756.273 "/>
<polygon class="st0" points="214.103,758.373 218.965,760.472 223.828,758.373 218.965,756.273 "/>
<polygon class="st0" points="203.117,758.373 207.979,760.472 212.842,758.373 207.979,756.273 "/>
<polygon class="st0" points="192.131,758.373 196.994,760.472 201.856,758.373 196.994,756.273 "/>
<polygon class="st0" points="181.146,758.373 186.008,760.472 190.871,758.373 186.008,756.273 "/>
<polygon class="st0" points="170.16,758.373 175.022,760.472 179.885,758.373 175.022,756.273 "/>
<polygon class="st0" points="159.175,758.373 164.037,760.472 168.899,758.373 164.037,756.273 "/>
<polygon class="st0" points="148.189,758.373 153.051,760.472 157.914,758.373 153.051,756.273 "/>
<polygon class="st0" points="137.203,758.373 142.065,760.472 146.928,758.373 142.065,756.273 "/>
<polygon class="st0" points="126.217,758.373 131.08,760.472 135.942,758.373 131.08,756.273 "/>
<polygon class="st0" points="115.232,758.373 120.094,760.472 124.957,758.373 120.094,756.273 "/>
<polygon class="st0" points="104.246,758.373 109.108,760.472 113.971,758.373 109.108,756.273 "/>
<polygon class="st0" points="93.26,758.373 98.123,760.472 102.985,758.373 98.123,756.273 "/>
<polygon class="st0" points="82.275,758.373 87.137,760.472 92,758.373 87.137,756.273 "/>
<polygon class="st0" points="71.289,758.373 76.151,760.472 81.014,758.373 76.151,756.273 "/>
<polygon class="st0" points="60.304,758.373 65.166,760.472 70.028,758.373 65.166,756.273 "/>
<polygon class="st0" points="49.318,758.373 54.18,760.472 59.043,758.373 54.18,756.273 "/>
<polygon class="st0" points="38.332,758.373 43.194,760.472 48.057,758.373 43.194,756.273 "/>
<polygon class="st0" points="27.347,758.373 32.208,760.472 37.071,758.373 32.208,756.273 "/>
<polygon class="st0" points="16.361,758.373 21.223,760.472 26.086,758.373 21.223,756.273 "/>
<polygon class="st0" points="5.375,758.373 10.237,760.472 15.1,758.373 10.237,756.273 "/>
</svg>
