<?xml version="1.0" encoding="utf-8"?>
<!-- Generator: Adobe Illustrator 14.0.0, SVG Export Plug-In . SVG Version: 6.00 Build 43363)  -->
<!DOCTYPE svg PUBLIC "-//W3C//DTD SVG 1.1//EN" "http://www.w3.org/Graphics/SVG/1.1/DTD/svg11.dtd">
<svg version="1.1" id="Nouveau_x5F_38_xA0_Image_1_"
	 xmlns="http://www.w3.org/2000/svg" xmlns:xlink="http://www.w3.org/1999/xlink" x="0px" y="0px" width="729px" height="969px"
	 viewBox="0 0 729 969" style="enable-background:new 0 0 729 969;" xml:space="preserve">
<style type="text/css">
<![CDATA[
	.st0{fill-rule:evenodd;clip-rule:evenodd;fill:none;stroke:#000000;stroke-width:3.2514;stroke-linecap:round;}
	.st1{fill-rule:evenodd;clip-rule:evenodd;fill:none;stroke:#000000;stroke-width:3.0876;stroke-linecap:round;}
	.st2{fill-rule:evenodd;clip-rule:evenodd;fill:none;stroke:#000000;stroke-width:3.2573;stroke-linecap:round;}
	.st3{fill-rule:evenodd;clip-rule:evenodd;fill:none;stroke:#000000;stroke-width:2.8674;stroke-linecap:round;}
	.st4{fill-rule:evenodd;clip-rule:evenodd;fill:none;stroke:#000000;stroke-width:2.8186;stroke-linecap:round;}
	.st5{fill-rule:evenodd;clip-rule:evenodd;fill:none;stroke:#000000;stroke-width:4.0743;stroke-linecap:round;}
	.st6{fill-rule:evenodd;clip-rule:evenodd;fill:none;stroke:#000000;stroke-width:3.2071;stroke-linecap:round;}
	.st7{fill-rule:evenodd;clip-rule:evenodd;fill:none;stroke:#000000;stroke-width:2.8486;stroke-linecap:round;}
	.st8{fill-rule:evenodd;clip-rule:evenodd;fill:none;stroke:#000000;stroke-width:3;stroke-linecap:round;}
	.st9{fill-rule:evenodd;clip-rule:evenodd;fill:none;stroke:#000000;stroke-width:3.3381;stroke-linecap:round;}
	.st10{fill-rule:evenodd;clip-rule:evenodd;fill:none;stroke:#000000;stroke-width:3.6253;stroke-linecap:round;}
	.st11{fill-rule:evenodd;clip-rule:evenodd;fill:none;stroke:#000000;stroke-width:3.6056;stroke-linecap:round;}
	.st12{fill-rule:evenodd;clip-rule:evenodd;fill:none;stroke:#000000;stroke-width:4.1833;stroke-linecap:round;}
	.st13{fill-rule:evenodd;clip-rule:evenodd;fill:none;stroke:#000000;stroke-width:3.1132;stroke-linecap:round;}
	.st14{fill-rule:evenodd;clip-rule:evenodd;fill:none;stroke:#000000;stroke-width:3.3058;stroke-linecap:round;}
	.st15{fill-rule:evenodd;clip-rule:evenodd;fill:none;stroke:#000000;stroke-width:3.2016;stroke-linecap:round;}
	.st16{fill-rule:evenodd;clip-rule:evenodd;fill:none;stroke:#000000;stroke-width:3.0951;stroke-linecap:round;}
	.st17{fill-rule:evenodd;clip-rule:evenodd;fill:none;stroke:#000000;stroke-width:3.0857;stroke-linecap:round;}
	.st18{fill-rule:evenodd;clip-rule:evenodd;fill:none;stroke:#000000;stroke-width:2.8284;stroke-linecap:round;}
	.st19{fill-rule:evenodd;clip-rule:evenodd;fill:none;stroke:#000000;stroke-width:3.2863;stroke-linecap:round;}
	.st20{fill-rule:evenodd;clip-rule:evenodd;fill:none;stroke:#000000;stroke-width:3.1459;stroke-linecap:round;}
	.st21{fill-rule:evenodd;clip-rule:evenodd;fill:none;stroke:#000000;stroke-width:3.0884;stroke-linecap:round;}
	.st22{fill-rule:evenodd;clip-rule:evenodd;fill:none;stroke:#000000;stroke-width:3.4205;stroke-linecap:round;}
	.st23{fill-rule:evenodd;clip-rule:evenodd;fill:none;stroke:#000000;stroke-width:3.1539;stroke-linecap:round;}
	.st24{fill-rule:evenodd;clip-rule:evenodd;fill:none;stroke:#000000;stroke-width:3.2455;stroke-linecap:round;}
	.st25{fill-rule:evenodd;clip-rule:evenodd;fill:none;stroke:#000000;stroke-width:3.2787;stroke-linecap:round;}
	.st26{fill-rule:evenodd;clip-rule:evenodd;fill:none;stroke:#000000;stroke-width:3.4017;stroke-linecap:round;}
	.st27{fill-rule:evenodd;clip-rule:evenodd;fill:none;stroke:#000000;stroke-width:3.216;stroke-linecap:round;}
	.st28{fill-rule:evenodd;clip-rule:evenodd;fill:none;stroke:#000000;stroke-width:3.0865;stroke-linecap:round;}
	.st29{fill-rule:evenodd;clip-rule:evenodd;fill:none;stroke:#000000;stroke-width:4.1433;stroke-linecap:round;}
	.st30{fill-rule:evenodd;clip-rule:evenodd;fill:none;stroke:#000000;stroke-width:2.7873;stroke-linecap:round;}
	.st31{fill-rule:evenodd;clip-rule:evenodd;fill:none;stroke:#000000;stroke-width:2.8395;stroke-linecap:round;}
	.st32{fill-rule:evenodd;clip-rule:evenodd;fill:none;stroke:#000000;stroke-width:3.1914;stroke-linecap:round;}
	.st33{fill-rule:evenodd;clip-rule:evenodd;fill:none;stroke:#000000;stroke-width:3.1623;stroke-linecap:round;}
	.st34{fill:#000000;fill-rule:evenodd;clip-rule:evenodd;}
	.st35{fill-rule:evenodd;clip-rule:evenodd;fill:none;stroke:#000000;stroke-width:5.0498;stroke-linecap:round;}
	.st36{fill-rule:evenodd;clip-rule:evenodd;fill:none;stroke:#000000;stroke-width:3.1091;stroke-linecap:round;}
	.st37{fill-rule:evenodd;clip-rule:evenodd;fill:none;stroke:#000000;stroke-width:3.0828;stroke-linecap:round;}
	.st38{fill-rule:evenodd;clip-rule:evenodd;fill:none;stroke:#000000;stroke-width:2.9721;stroke-linecap:round;}
	.st39{fill-rule:evenodd;clip-rule:evenodd;fill:none;stroke:#000000;stroke-width:2.9368;stroke-linecap:round;}
	.st40{fill-rule:evenodd;clip-rule:evenodd;fill:none;stroke:#000000;stroke-width:2.8555;stroke-linecap:round;}
	.st41{fill-rule:evenodd;clip-rule:evenodd;fill:none;stroke:#000000;stroke-width:2.8067;stroke-linecap:round;}
	.st42{fill-rule:evenodd;clip-rule:evenodd;fill:none;stroke:#000000;stroke-width:3.3024;stroke-linecap:round;}
	.st43{fill-rule:evenodd;clip-rule:evenodd;fill:none;stroke:#000000;stroke-width:2.7066;stroke-linecap:round;}
	.st44{fill-rule:evenodd;clip-rule:evenodd;fill:none;stroke:#000000;stroke-width:3.0823;stroke-linecap:round;}
	.st45{fill-rule:evenodd;clip-rule:evenodd;fill:none;stroke:#000000;stroke-width:3.0896;stroke-linecap:round;}
	.st46{fill-rule:evenodd;clip-rule:evenodd;fill:none;stroke:#000000;stroke-width:3.3665;stroke-linecap:round;}
	.st47{fill-rule:evenodd;clip-rule:evenodd;fill:none;stroke:#000000;stroke-width:5.0596;stroke-linecap:round;}
	.st48{fill-rule:evenodd;clip-rule:evenodd;fill:none;stroke:#000000;stroke-width:4.1473;stroke-linecap:round;}
	.st49{fill-rule:evenodd;clip-rule:evenodd;fill:none;stroke:#000000;stroke-width:3.0912;stroke-linecap:round;}
	.st50{fill-rule:evenodd;clip-rule:evenodd;fill:none;stroke:#000000;stroke-width:2.8577;stroke-linecap:round;}
	.st51{fill-rule:evenodd;clip-rule:evenodd;fill:none;stroke:#000000;stroke-width:2.9358;stroke-linecap:round;}
	.st52{fill-rule:evenodd;clip-rule:evenodd;fill:none;stroke:#000000;stroke-width:3.1358;stroke-linecap:round;}
	.st53{fill-rule:evenodd;clip-rule:evenodd;fill:none;stroke:#000000;stroke-width:3.0822;stroke-linecap:round;}
	.st54{fill-rule:evenodd;clip-rule:evenodd;fill:none;stroke:#000000;stroke-width:3.9158;stroke-linecap:round;}
	.st55{fill-rule:evenodd;clip-rule:evenodd;fill:none;stroke:#000000;stroke-width:3.0123;stroke-linecap:round;}
	.st56{fill-rule:evenodd;clip-rule:evenodd;fill:none;stroke:#000000;stroke-width:2.9089;stroke-linecap:round;}
]]>
</style>
<g>
	<g>
		<path class="st34" d="M67,28c-3.414-0.253-4.805-2.528-9-2c0.893-7.042,10.717-5.436,12,0l-1.7,0.7L67,28z"/>
		<path class="st34" d="M80.7,35.3L82,34c4.927,1.073,7.688,4.313,13,5c-12.512-7.488-28.02-11.98-33-27
			c17.222,2.111,26.661,12.006,37,21c-3.704-7.968-17.284-14.712-27-20c0.119-2.881-0.546-6.546,1-8c4.928,3.072,7.809,8.191,14,10
			c6.757-2.243,11.646-6.354,22-5c2.848,5.822-1.058,10.918-5,13l-0.7-1.7L102,20c0-1,0-2,0-3c-2.764-2.034-8.898-0.755-10,2
			c2.798,1.059,5.404,5.866,9,3l0.5,1.5L102,25c3.636,4.03,3.385,11.948,10,13c0,2,0,4,0,6l-0.5,1.5L111,47
			c-8.287-1.826-18.507-3.568-29-7l-0.5-1.5L80,39c0.282-1.615-0.945-1.722-1-3L80.7,35.3z"/>
		<path class="st34" d="M95.5,61.5L95,60c1.793-2.207,1.398-6.602,7-5c2.519,2.503-1.148,3.927-1,7c1.163-0.163,1.779,0.221,2,1
			l-1.5,1.167L102,66c-1.615-0.282-1.722,0.945-3,1l-0.9-1.9L96,65c-0.19-0.81-1.003-0.997-1-2L95.5,61.5z"/>
		<path class="st34" d="M107.357,64.214L106,63c-1.438-9.109,10.17-3.891,5,2c-1.793-0.127-2.109,1.224-4,1L107.357,64.214z"/>
		<path class="st34" d="M64.5,54.167L65,56c-0.667,0-1.333,0-2,0c-8.373,10.491,9.384,10.055,17,11c0.591,5.258-2.378,6.956-3,11
			c-5.53-0.149-2.331-4.484-4-7c-8.104,0.294-16.36,7.458-24,2c-1.862-12.195,7.024-13.643,10-21l1.833,0.5L62,51
			c0.333,0,0.667,0,1,0l0.5,2.5L66,53L64.5,54.167z"/>
		<path class="st34" d="M33.3,68.3L35,69c-2.317,2.35-3.277,6.056-8,6c-5.588-3.895-1.271-12.437,1-17
			c-9.551-11.081,1.728-24.709,16-24l-0.5,1.833L45,37c0,0.333,0,0.667,0,1l-0.5,1.5L45,41c-1.71,0.21-2.59-1.705-3,0l-1.5,1.167
			L41,44c-5.439,0.228-12.96-1.627-12,5c1.265,2.401,7.885-0.552,9,2c1.571,6.121-7.389,9.786-9,16c1,0,2,0,3,0L33.3,68.3z"/>
		<path class="st34" d="M624,23c-3.562-2.438-6.88-5.121-6-12c9.42-5.727,16.681,4.233,23,4c7.367-0.271,7.387-7.327,15-10
			c1.15,2.801,1.15,5.199,0,8c-10.113,5.22-19.949,10.718-27,19c11.081-7.919,20.201-17.799,37-20c-5.246,14.42-18.771,20.562-33,26
			c3.366,1.663,9.15-2.823,13-4l0.7,1.7L648,37c0,0.333,0,0.667,0,1l-0.5,1.5L647,41c-7.168-2.618-11.478,5.698-22,3
			c-1.038,4.085-5.942,2.083-8,3l-0.5-1.5L616,44c0-2,0-4,0-6c6.979-0.688,6.167-9.167,10-13l1.357-1.214L627,22
			c3.982,2.06,6.973-1.259,9-4c-2.45-1.145-7.167-3.333-10-1c0,1,0,2,0,3l-1.3,1.3L624,23z"/>
		<path class="st34" d="M659.7,26.7L658,26c1.713-4.712,8.797-6.578,12-2c-0.835,3.498-6.308,2.359-9,4L659.7,26.7z"/>
		<path class="st34" d="M685.5,35.833L685,34c12.691-0.464,25.114,13.021,15,23c1.441,5.406,6.747,12.386,2,18
			c-5.566,0.566-6.515-3.485-9-6l1.7-0.7L696,67c1.419,0.086,2.832,0.165,3-1c-2.954-5.046-7.989-8.011-10-14
			c1.369-2.965,7.557-1.109,10-3c-0.036-6.998-7.694-5.748-13-5l0.5-1.5L685,42c0-0.333,0-0.667,0-1l2.667-2.556L684,38
			c0-0.333,0-0.667,0-1L685.5,35.833z"/>
		<path class="st34" d="M667.167,52.5L669,52c2.976,7.357,11.862,8.805,10,21c-7.002,5.064-15.719-1.156-23-2
			c-1.983,2.016-0.296,7.704-5,7c-0.262-4.405-3.449-5.884-3-11c7.455-1.866,24.162,1.271,18-11c-1,0-2,0-3,0l0.5-1.833L662,53
			l2.5,0.5L665,51c0.333,0,0.667,0,1,0L667.167,52.5z"/>
		<path class="st34" d="M629.9,65.1L629,67c-0.81-0.19-0.997-1.003-2-1l0.5-1.833L626,63c3.041-2.685-3.041-5.315,0-8
			c4.256-0.59,7.003,0.33,6,5c0.333,0,0.667,0,1,0l-0.5,1.5L633,63c-0.19,0.81-1.003,0.997-1,2L629.9,65.1z"/>
		<path class="st34" d="M621.5,64.167L622,66c-4.931,0.163-7.098-3.979-5-8c4.941-1.274,4.815,2.518,6,5L621.5,64.167z"/>
		<path class="st34" d="M18,910c-5.32,5.675,8.236,10.241,0,13c-9.802-1.865-2.968-20.365-5-30l1.833,0.5L16,892
			c2.263,3.736-0.242,12.242,3,15l-1.5,1.167L18,910z"/>
		<path class="st34" d="M17.833,35.5L16,36c0-0.667,0-1.333,0-2c-2.247-0.5-8.419,2.465-11-2C1.167,3.871,35.335,10.932,52,16
			l0.5,1.5L53,19c-12.556,2.52-34.558-4.728-39,8c2.327,3.252,6.22-4.293,7,2c1.835,2.129-0.282,6.368-2,8L17.833,35.5z"/>
		<path class="st34" d="M715,914c0.513,4.513-0.075,7.925-3,9c-1.213-0.882-7.968-1.238-4-4c1.801-1.532,2.999-3.667,4-6l1.167,1.5
			L715,914z"/>
		<path class="st34" d="M710.167,35.5L709,37c-2.035-0.965-2.16-3.84-2-7c-0.832-5.681,4.316-1.579,7-2
			c-2.908-15.002-27.354-5.76-40-9l1.5-1.167L675,16c8.371-0.153,21.226-6.81,33-5c10.883,1.672,18.375,10.93,15,19
			c-2.008,4.802-4.92,6.091-11,3c0,1,0,2,0,3L710.167,35.5z"/>
		<path class="st34" d="M694,918c-0.977,1.023-1.977,2.023-3,3c5.413,9.423,28.443,22.385,10,32l0.357-1.786L700,950
			c-1.381-10.999-27.909-25.064-7-35l-0.5,1.833L694,918z"/>
		<path class="st34" d="M38,916c11.543,7.895-1.03,21.561-7,27l-1.5-0.5L30,944c-2.025,1.926-2.325,4.023-1,7l-1.786-0.357L26,952
			c-15.698-9.76,5.632-22.649,11-30c-0.529-0.805-1.043-1.623-1-3l1.3-1.3L38,916z"/>
		<path class="st34" d="M14,941c-0.855-4.397-2.495-13.212,1-16c6.165,0.169,7.854,4.813,10,9c-1.869,1.958-3.663,0.309-6,0
			c-2.294,1.039,0.474,7.141-2,8l-1.167-1.5L14,941z"/>
		<path class="st34" d="M15.833,951.5L17,950c1.302,3.698,4.15,5.851,8,7l-1.5,1.167L24,960c-1.822,1.527-8.178,1.527-10,0
			c-2.475-2.594,0.972-4.904,0-9L15.833,951.5z"/>
		<path class="st34" d="M32.5,958.167L31,957c12.992,0.042,7.224-14.547,7-21c6.896,0.562,11.228,12.014,10,24
			c-5,2.497-9.646-0.864-16,0L32.5,958.167z"/>
		<path class="st34" d="M695,960c-6.23-0.994-10.536,2.175-15,0c-1.391-12.391,2.919-19.081,8-25c1.313,0.354,1.573,1.761,3,2
			c-3.493,7.303-4.911,18.729,5,20l-1.5,1.167L695,960z"/>
		<path class="st34" d="M702.5,958.167L701,957c4.296-1.371,8.978-2.356,10-7l1.167,1.5L714,951c-0.535,3.868,1.785,4.882,1,9
			c-3.688,1.764-9.1,0.867-13,0L702.5,958.167z"/>
		<path class="st34" d="M712.833,938.5L711,939c0-1,0-2,0-3c-2.772-4.586-5.482,2.142-8-2c1.798-4.535,3.938-8.728,10-9
			c2.763,1.935,2.842,11.784,1,15L712.833,938.5z"/>
		<path class="st34" d="M54,957c7.574,2.034,12.44-3.39,18-4c12.367-1.357,22.277,8.023,38,4l-0.5,1.833L111,960
			c-12.964,2.416-29.997,7.264-40-1c-4.455,1.234-12.88,3.757-18,1l1.5-1.167L54,957z"/>
		<path class="st34" d="M625.5,958.833L625,957c11.037,2.407,19.023-3.861,27-4c7.912-0.138,12.639,5.068,22,4l-0.5,1.833L675,960
			c-4.005,1.972-14.186,1.543-17-1c-8.438,5.562-24.724,6.714-34,1L625.5,958.833z"/>
		<g>
			<path class="st14" d="M70.357,28.714c3.736,1.621,7.044,4.232,10.343,6.585"/>
			<path class="st15" d="M103.3,21.3c-0.404,0.489-1.072,1.387-1.8,2.2"/>
			<path class="st43" d="M70.667,47.667C78.086,53.492,86.755,57.798,95.5,61.5"/>
			<path class="st49" d="M101.5,64.167c1.9,0.442,3.951,0.495,5.857,0.048"/>
			<path class="st35" d="M61.5,37.5c0.667,0,1.333,0,2,0"/>
			<path class="st13" d="M63.5,37.5c1.545-3.49,5.277-5.315,6.857-8.786"/>
			<path class="st54" d="M70.357,28.714c-0.649-0.63-1.471-1.37-2.057-2.014"/>
			<path class="st31" d="M63.5,37.5c3.349,2.276,7.659,2.783,10.6,5.6"/>
			<path class="st29" d="M74.1,43.1c1.084-0.043,2.907-0.235,3.566-0.434"/>
			<path class="st39" d="M77.667,42.667c0.515-2.268,2.963-2.282,3.833-4.167"/>
			<path class="st12" d="M56.1,43.1c0.924-0.081,2.007-0.29,2.566-0.434"/>
			<path class="st26" d="M58.667,42.667c0.647-1.866,1.516-3.678,2.833-5.167"/>
			<path class="st20" d="M61.5,37.5c-5.637-1.714-12.224-4.229-18-1.667"/>
			<path class="st47" d="M51.5,47.5c0.667,0,1.333,0,2,0"/>
			<path class="st19" d="M53.5,47.5c1.017-1.716,2.07-3.413,2.6-4.4"/>
			<path class="st18" d="M56.1,43.1c-3.032-2.827-7.604-3.423-11.6-3.6"/>
			<path class="st40" d="M58.667,42.667c2.651,2.055,6.04,2.998,8.434,5.434"/>
			<path class="st29" d="M67.1,48.1c1.084-0.043,2.907-0.235,3.566-0.434"/>
			<path class="st25" d="M70.667,47.667c0.776-1.792,2.593-2.819,3.434-4.566"/>
			<path class="st16" d="M77.667,42.667c10.111,5.441,22.063,11.734,33.843,9.527c2.476-1.572,2.542-5.106-0.009-6.694"/>
			<path class="st4" d="M33.3,68.3c6.921-6.072,12.944-13.285,18.2-20.8"/>
			<path class="st3" d="M51.5,47.5c-3.14-2.651-7.156-4.019-11-5.333"/>
			<path class="st38" d="M53.5,47.5c2.39,1.733,5.469,2.644,7.333,5"/>
			<path class="st6" d="M67.1,48.1c-0.938,1.97-2.693,3.391-3.6,5.4"/>
			<path class="st42" d="M64.5,54.167c10.101,4.58,18.925,15.127,30.819,13.617c0.996-0.599,1.787-1.448,2.781-2.683"/>
			<path class="st11" d="M657.833,29c0.799-1.019,1.313-1.578,1.867-2.3"/>
			<path class="st35" d="M664.5,37.5c1,0,2,0,3,0"/>
			<path class="st24" d="M667.5,37.5c5.482-2.75,12.068-2.706,18-1.667"/>
			<path class="st56" d="M674.5,47.5c-2.18,2.055-5.543,2.504-7.333,5"/>
			<path class="st2" d="M663.5,54.167c-10.016,4.902-18.975,14.719-30.819,13.617c-0.995-0.599-1.787-1.449-2.78-2.683"/>
			<path class="st49" d="M627.5,64.167c-1.948,0.45-4.055,0.506-6,0"/>
			<path class="st15" d="M624.7,21.3c0.507,0.772,1.596,1.853,2.657,2.486"/>
			<path class="st29" d="M650.333,42.667c0.75,0.256,2.57,0.279,4.31,0.619"/>
			<path class="st53" d="M654.643,43.286c2.534-2.929,6.658-3.747,9.857-5.786"/>
			<path class="st30" d="M664.5,37.5c-1.047-3.763-4.928-5.277-6.667-8.5"/>
			<path class="st23" d="M657.833,29c-4.23,0.951-7.406,4.572-11.133,6.7"/>
			<path class="st10" d="M667.5,37.5c1.052,1.547,1.011,3.509,1.833,5.167"/>
			<path class="st48" d="M669.333,42.667c0.662,0.219,1.863,0.292,2.667,0.333"/>
			<path class="st38" d="M672,43c4.517-3.734,10.438-2.958,15.667-4.556"/>
			<path class="st27" d="M616.5,45.5c-4.979,16.397,26.41,1.787,33.833-2.833"/>
			<path class="st0" d="M650.333,42.667c0.021-0.158-1.048-1.87-2.833-3.167"/>
			<path class="st9" d="M654.643,43.286c0.771,1.817,2.607,2.853,3.457,4.614"/>
			<path class="st5" d="M658.1,47.9c0.888,0.074,2.047,0.104,2.801,0.2"/>
			<path class="st40" d="M660.9,48.1c2.422-2.386,5.843-3.279,8.433-5.434"/>
			<path class="st8" d="M672,43c0.934,1.376,1.405,2.63,2.5,4.5"/>
			<path class="st35" d="M674.5,47.5c0.667,0,1.333,0,2,0"/>
			<path class="st50" d="M676.5,47.5c2.66-2.725,6.551-3.65,10-5"/>
			<path class="st7" d="M676.5,47.5c5.264,7.526,11.688,14.361,18.2,20.8"/>
			<path class="st6" d="M660.9,48.1c0.938,1.97,2.692,3.391,3.6,5.4"/>
			<path class="st41" d="M658.1,47.9c-8.176,5.15-16.541,10.106-25.6,13.6"/>
			<path class="st37" d="M14.833,893.5c-0.719-283.257-0.229-566.655-0.246-849.954c1.088-2.687,2.115-5.369,3.246-8.046"/>
			<path class="st1" d="M52.5,17.5c2.333,0,4.667,0,7,0"/>
			<path class="st51" d="M17.5,908.167c3.87,5.298,5.967,12.044,10.286,17.19"/>
			<path class="st55" d="M700.3,925.3c5.082-5.168,5.969-13.998,11.978-17.744"/>
			<path class="st45" d="M712.277,907.556c0.164-1.111,0.416-2.21,0.924-3.221c0.546-261.75,0.299-539.702,0.299-807.835
				c0-19.672,2.246-46.958-3.333-61"/>
			<path class="st52" d="M668.5,17.167c2.277,0.701,4.727-0.067,7,0.667"/>
			<path class="st22" d="M712.277,907.556c1.175,2.1,1.601,4.612,0.89,6.944"/>
			<path class="st46" d="M694.5,945.5c-0.677,1.288-1.402,2.904-1.477,4.024c0.324,1.189,1.074,1.958,1.752,2.619
				c2.23,0.768,4.653,0.397,6.582-0.93"/>
			<path class="st11" d="M692.5,916.833c1.91-1.086,3.98-0.744,6-0.333"/>
			<path class="st32" d="M29.5,942.5c3.511,1.414,8.061,6.485,3.725,9.643c-2.033,0.738-4.738,0.452-6.011-1.5"/>
			<path class="st33" d="M29.5,916.5c2.592,0.289,5.711-0.846,7.8,1.2"/>
			<path class="st1" d="M32.5,958.167c-2.94,0.482-6.064,0.552-9,0"/>
			<path class="st28" d="M15.833,951.5c-0.499-3.604-0.56-7.4,0-11"/>
			<path class="st21" d="M694.5,958.167c2.608,0.472,5.396,0.544,8,0"/>
			<path class="st17" d="M712.167,951.5c0.884-4.269-0.229-8.735,0.666-13"/>
			<path class="st44" d="M109.5,958.833c171.931-0.556,344.074-0.556,516,0"/>
			<path class="st36" d="M673.5,958.833c0.667-0.182,1.333-0.26,2-0.333"/>
			<path class="st36" d="M52.5,958.5c0.667,0.04,1.333,0.185,2,0.333"/>
		</g>
	</g>
</g>
</svg>
