<?xml version="1.0" encoding="utf-8"?>
<!-- Generator: Adobe Illustrator 14.0.0, SVG Export Plug-In . SVG Version: 6.00 Build 43363)  -->
<!DOCTYPE svg PUBLIC "-//W3C//DTD SVG 1.1//EN" "http://www.w3.org/Graphics/SVG/1.1/DTD/svg11.dtd">
<svg version="1.1" id="Layer_1" xmlns="http://www.w3.org/2000/svg" xmlns:xlink="http://www.w3.org/1999/xlink" x="0px" y="0px"
	 width="562.249px" height="742.249px" viewBox="0 0 562.249 742.249" style="enable-background:new 0 0 562.249 742.249;"
	 xml:space="preserve">
<style type="text/css">
<![CDATA[
	.st0{fill:none;stroke:#000000;stroke-width:0.649;stroke-linecap:round;stroke-linejoin:round;stroke-miterlimit:10;}
]]>
</style>
<polyline class="st0" points="0.325,10.344 10.345,10.344 10.345,0.325 551.905,0.325 551.905,10.344 561.924,10.344 
	561.924,731.905 551.905,731.905 551.905,741.924 10.345,741.924 10.345,731.905 0.325,731.905 0.325,10.344 "/>
<polyline class="st0" points="4.825,14.844 14.845,14.844 14.845,4.825 547.405,4.825 547.405,14.844 557.424,14.844 
	557.424,727.405 547.405,727.405 547.405,737.424 14.845,737.424 14.845,727.405 4.825,727.405 4.825,14.844 "/>
<polyline class="st0" points="9.325,19.344 19.345,19.344 19.345,9.325 542.905,9.325 542.905,19.344 552.924,19.344 
	552.924,722.905 542.905,722.905 542.905,732.924 19.345,732.924 19.345,722.905 9.325,722.905 9.325,19.344 "/>
</svg>
