<?xml version="1.0" encoding="utf-8"?>
<!-- Generator: Adobe Illustrator 14.0.0, SVG Export Plug-In . SVG Version: 6.00 Build 43363)  -->
<!DOCTYPE svg PUBLIC "-//W3C//DTD SVG 1.1//EN" "http://www.w3.org/Graphics/SVG/1.1/DTD/svg11.dtd">
<svg version="1.1" xmlns="http://www.w3.org/2000/svg" xmlns:xlink="http://www.w3.org/1999/xlink" x="0px" y="0px" width="540px"
	 height="720px" viewBox="0 0 540 720" style="enable-background:new 0 0 540 720;" xml:space="preserve">
<style type="text/css">
<![CDATA[
	.st0{fill:#AA5E50;}
]]>
</style>
<g id="Layer_2">
</g>
<g id="Layer_1">
	<g>
		<path class="st0" d="M0.185,38.07l0.859,2.573l-0.139,2.503l0,0.007l0.978,4.611L0.207,78.306H0.185l0.019,0.057l-0.002,0.043
			h0.017l0.826,2.473l-0.139,2.503l0,0.007L1.881,88l-1.675,30.541H0.185l0.019,0.057l-0.002,0.043h0.017l0.826,2.473l-0.139,2.503
			l0,0.007l0.978,4.611l-1.675,30.541H0.185l0.019,0.057l-0.002,0.043h0.017l0.826,2.473l-0.139,2.504l0,0.007l0.978,4.61
			L0.207,199.01H0.185l0.019,0.057l-0.002,0.043h0.017l0.826,2.473l-0.139,2.504l0,0.007l0.978,4.61l-1.675,30.541H0.185
			l0.019,0.057l-0.002,0.043h0.017l0.826,2.474l-0.139,2.503l0,0.007l0.978,4.611L0.207,279.48H0.185l0.019,0.057l-0.002,0.043
			h0.017l0.826,2.473l-0.139,2.503l0,0.007l0.978,4.611l-1.675,30.541H0.185l0.019,0.057l-0.002,0.043h0.017l0.826,2.473
			l-0.139,2.503l0,0.007l0.978,4.611L0.207,359.95H0.185l0.019,0.057l-0.002,0.043h0.017l0.826,2.474l-0.139,2.503l0,0.007
			l0.978,4.611l-1.675,30.541H0.185l0.019,0.057l-0.002,0.043h0.017l0.826,2.473l-0.139,2.504l0,0.007l0.978,4.61L0.207,440.42
			H0.185l0.019,0.057l-0.002,0.043h0.017l0.826,2.474l-0.139,2.503l0,0.007l0.978,4.611l-1.675,30.541H0.185l0.019,0.057
			l-0.002,0.043h0.017l0.826,2.473l-0.139,2.504l0,0.007l0.978,4.61L0.207,520.89H0.185l0.019,0.057l-0.002,0.043h0.017l0.826,2.474
			l-0.139,2.504l0,0.007l0.978,4.61l-1.675,30.541H0.185l0.019,0.057l-0.002,0.043h0.017l0.826,2.474l-0.139,2.503l0,0.007
			l0.978,4.611L0.207,601.36H0.185l0.019,0.057l-0.002,0.043h0.017l0.826,2.473l-0.139,2.504l0,0.007l0.978,4.61l-1.675,30.541
			H0.185l0.019,0.057l-0.002,0.043h0.017l0.826,2.474l-0.139,2.503l0,0.007l0.978,4.611l-1.677,30.588l-0.003,0.053h3.215
			l-0.877-11.921l0.419-10.899c0-0.417-0.402-3.776-0.419-3.911l0.28-9.077l0.554-4.427h0.042l-0.877-11.921l0.419-10.899
			c0-0.416-0.402-3.776-0.419-3.911l0.28-9.076l0.554-4.427h0.042l-0.877-11.921l0.419-10.9c0-0.416-0.402-3.775-0.419-3.91
			l0.28-9.077l0.554-4.427h0.042l-0.877-11.921l0.419-10.899c0-0.416-0.402-3.776-0.419-3.911l0.28-9.077l0.554-4.427h0.042
			l-0.877-11.921l0.419-10.899c0-0.416-0.402-3.775-0.419-3.91l0.28-9.077l0.554-4.427h0.042l-0.877-11.921l0.419-10.899
			c0-0.417-0.402-3.776-0.419-3.911l0.28-9.077l0.554-4.427h0.042l-0.877-11.921l0.419-10.899c0-0.416-0.402-3.776-0.419-3.911
			l0.28-9.076l0.554-4.427h0.042l-0.877-11.921l0.419-10.9c0-0.416-0.402-3.775-0.419-3.91l0.28-9.077l0.554-4.427h0.042
			l-0.877-11.921l0.419-10.899c0-0.417-0.402-3.776-0.419-3.912l0.28-9.076l0.554-4.427h0.042l-0.877-11.921l0.419-10.9
			c0-0.416-0.402-3.776-0.419-3.911l0.28-9.076l0.554-4.427h0.042l-0.877-11.921l0.419-10.9c0-0.416-0.402-3.776-0.419-3.911
			l0.28-9.076l0.554-4.428h0.042l-0.877-11.921l0.419-10.899c0-0.416-0.402-3.776-0.419-3.911l0.28-9.076l0.554-4.427h0.042
			l-0.877-11.921l0.419-10.899c0-0.417-0.402-3.776-0.419-3.911l0.28-9.076l0.554-4.427h0.042l-0.877-11.921l0.419-10.899
			c0-0.417-0.402-3.776-0.419-3.912l0.28-9.076l0.554-4.427h0.042l-0.877-11.921l0.419-10.9c0-0.416-0.402-3.776-0.419-3.911
			l0.28-9.076l0.554-4.427h0.042L2.539,66.484l0.419-10.9c0-0.416-0.402-3.776-0.419-3.911l0.28-9.076l0.549-4.384h0.206
			L2.29,34.766l0.559-10.89l0.001-0.013l-1.389-2.778l1.937-2.49l0.016-0.021l-0.7-2.238l2.949,0.942l18.32,18.427l0.073-0.069
			L9.19,19.384l-2.311-2.582l-1.957-2.165l-0.507-2.26l15.95,15.865l0.074-0.067l-5.951-7.226l-5.966-6.731L3.109,8.439l0.876-0.878
			l3.624,3.99L25.806,29.58l0.072-0.07L7.589,10.06l7.734,6.471l7.563,7.494l0.074-0.067l-8.107-10.2l-6.12-5.849L6.467,4.676
			L12.84,9.79l1.732,2.412l15.822,15.109l0.071-0.071L15.452,11.522l-1.707-2.628l-3.217-4.013L12.83,6.23l1.308,1.512
			l13.728,13.521l0.072-0.069L11.788,3.677l26.19-0.991l0.048-0.001V0.069l-6.167,0.282l-3.639,1.396l-9.483-0.559L14.55-0.207
			L3.338-0.209l-2.81,2.81L0.514,2.614l-0.838,21.257l0,0.01l0.836,2.231l-1.395,7.533l-0.002,0.011l1.133,4.413H0.185z"/>
		<polygon class="st0" points="8.967,64.52 8.547,62.979 7.851,58.799 7.988,54.746 7.78,47.975 8.688,40.214 8.548,38.126 
			8.694,38.126 7.75,30.066 8.35,27.009 8.352,26.999 6.953,20.004 6.854,20.008 6.664,21.661 7.648,30.062 6.075,38.07 
			5.925,38.07 6.91,44.689 6.494,48.591 5.934,52.644 5.932,52.654 7.331,57.266 6.771,64.103 6.771,64.112 7.19,65.508 
			6.632,71.643 5.938,78.306 5.925,78.306 5.933,78.357 5.928,78.405 5.94,78.405 6.91,84.924 6.494,88.827 5.934,92.878 
			5.932,92.889 7.331,97.5 6.771,104.338 6.771,104.347 7.19,105.743 6.632,111.877 5.938,118.541 5.925,118.541 5.933,118.592 
			5.928,118.64 5.94,118.64 6.91,125.159 6.494,129.062 5.934,133.113 5.932,133.124 7.331,137.735 6.771,144.573 6.771,144.582 
			7.19,145.978 6.632,152.113 5.938,158.775 5.925,158.775 5.933,158.827 5.928,158.875 5.94,158.875 6.91,165.394 6.494,169.296 
			5.934,173.348 5.932,173.359 7.331,177.97 6.771,184.808 6.771,184.817 7.19,186.212 6.632,192.348 5.938,199.01 5.925,199.01 
			5.933,199.062 5.928,199.11 5.94,199.11 6.91,205.628 6.494,209.531 5.934,213.583 5.932,213.594 7.331,218.206 6.771,225.042 
			6.771,225.052 7.19,226.448 6.632,232.583 5.938,239.245 5.925,239.245 5.933,239.296 5.928,239.345 5.94,239.345 6.91,245.863 
			6.494,249.766 5.934,253.818 5.932,253.829 7.331,258.44 6.771,265.277 6.771,265.287 7.19,266.683 6.632,272.817 5.938,279.48 
			5.925,279.48 5.933,279.532 5.928,279.58 5.94,279.58 6.91,286.099 6.494,290.001 5.934,294.053 5.932,294.064 7.331,298.675 
			6.771,305.513 6.771,305.522 7.19,306.917 6.632,313.052 5.938,319.715 5.925,319.715 5.933,319.767 5.928,319.815 5.94,319.815 
			6.91,326.333 6.494,330.236 5.934,334.288 5.932,334.299 7.331,338.91 6.771,345.748 6.771,345.757 7.19,347.152 6.632,353.288 
			5.938,359.95 5.925,359.95 5.933,360.001 5.928,360.05 5.94,360.05 6.91,366.568 6.494,370.471 5.934,374.523 5.932,374.534 
			7.331,379.146 6.771,385.982 6.771,385.991 7.19,387.387 6.632,393.522 5.938,400.186 5.925,400.186 5.933,400.236 5.928,400.285 
			5.94,400.285 6.91,406.804 6.494,410.706 5.934,414.758 5.932,414.769 7.331,419.381 6.771,426.218 6.771,426.227 7.19,427.622 
			6.632,433.758 5.938,440.42 5.925,440.42 5.933,440.471 5.928,440.52 5.94,440.52 6.91,447.038 6.494,450.941 5.934,454.993 
			5.932,455.004 7.331,459.615 6.771,466.452 6.771,466.461 7.19,467.856 6.632,473.993 5.938,480.655 5.925,480.655 5.933,480.707 
			5.928,480.755 5.94,480.755 6.91,487.273 6.494,491.176 5.934,495.228 5.932,495.238 7.331,499.851 6.771,506.688 6.771,506.696 
			7.19,508.092 6.632,514.228 5.938,520.89 5.925,520.89 5.933,520.941 5.928,520.989 5.94,520.989 6.91,527.508 6.494,531.411 
			5.934,535.463 5.932,535.474 7.331,540.086 6.771,546.922 6.771,546.931 7.19,548.327 6.632,554.463 5.938,561.125 5.925,561.125 
			5.933,561.176 5.928,561.225 5.94,561.225 6.91,567.743 6.494,571.646 5.934,575.698 5.932,575.709 7.331,580.32 6.771,587.157 
			6.771,587.166 7.19,588.562 6.632,594.697 5.938,601.36 5.925,601.36 5.933,601.412 5.928,601.46 5.94,601.46 6.91,607.979 
			6.494,611.881 5.934,615.933 5.932,615.943 7.331,620.556 6.771,627.393 6.771,627.401 7.19,628.797 6.632,634.933 5.938,641.595 
			5.925,641.595 5.933,641.646 5.928,641.694 5.94,641.694 6.91,648.213 6.494,652.116 5.934,656.168 5.932,656.179 7.331,660.79 
			6.771,667.627 6.771,667.636 7.19,669.031 6.632,675.167 5.935,681.868 5.763,681.868 6.075,692.476 6.043,692.813 6.042,692.821 
			6.093,693.074 6.32,700.779 4.949,699.133 4.074,703.218 6.127,702.923 7.535,699.825 7.542,699.811 6.192,693.063 6.175,692.479 
			6.701,686.963 7.993,681.93 8.4,681.93 8.967,678.524 8.688,674.199 8.967,668.051 8.967,668.043 8.547,666.504 7.851,662.324 
			7.988,658.27 7.78,651.499 8.688,643.739 8.548,641.642 8.545,641.595 8.417,641.595 8.967,638.289 8.688,633.964 8.967,627.816 
			8.967,627.809 8.547,626.269 7.851,622.09 7.988,618.035 7.78,611.264 8.688,603.504 8.548,601.407 8.545,601.36 8.417,601.36 
			8.967,598.055 8.688,593.729 8.967,587.581 8.967,587.573 8.547,586.033 7.851,581.854 7.988,577.8 7.78,571.029 8.688,563.27 
			8.548,561.172 8.545,561.125 8.417,561.125 8.967,557.819 8.688,553.494 8.967,547.346 8.967,547.338 8.547,545.799 
			7.851,541.619 7.988,537.565 7.78,530.794 8.688,523.034 8.548,520.937 8.545,520.89 8.417,520.89 8.967,517.584 8.688,513.259 
			8.967,507.111 8.967,507.104 8.547,505.563 7.851,501.385 7.988,497.33 7.78,490.559 8.688,482.799 8.548,480.702 8.545,480.655 
			8.417,480.655 8.967,477.35 8.688,473.024 8.967,466.876 8.967,466.868 8.547,465.329 7.851,461.149 7.988,457.096 7.78,450.324 
			8.688,442.564 8.548,440.467 8.545,440.42 8.417,440.42 8.967,437.114 8.688,432.789 8.967,426.642 8.967,426.634 8.547,425.094 
			7.851,420.915 7.988,416.86 7.78,410.089 8.688,402.329 8.548,400.232 8.545,400.186 8.417,400.186 8.967,396.88 8.688,392.554 
			8.967,386.406 8.967,386.398 8.547,384.858 7.851,380.68 7.988,376.625 7.78,369.854 8.688,362.095 8.548,359.997 8.545,359.95 
			8.417,359.95 8.967,356.644 8.688,352.32 8.967,346.172 8.967,346.164 8.547,344.624 7.851,340.444 7.988,336.391 7.78,329.619 
			8.688,321.859 8.548,319.762 8.545,319.715 8.417,319.715 8.967,316.409 8.688,312.085 8.967,305.937 8.967,305.929 
			8.547,304.388 7.851,300.209 7.988,296.156 7.78,289.384 8.688,281.624 8.548,279.527 8.545,279.48 8.417,279.48 8.967,276.174 
			8.688,271.85 8.967,265.702 8.967,265.694 8.547,264.153 7.851,259.974 7.988,255.921 7.78,249.149 8.688,241.389 8.548,239.292 
			8.545,239.245 8.417,239.245 8.967,235.939 8.688,231.615 8.967,225.467 8.967,225.459 8.547,223.918 7.851,219.739 
			7.988,215.686 7.78,208.914 8.688,201.154 8.548,199.057 8.545,199.01 8.417,199.01 8.967,195.704 8.688,191.38 8.967,185.232 
			8.967,185.224 8.547,183.684 7.851,179.504 7.988,175.451 7.78,168.679 8.688,160.919 8.548,158.822 8.545,158.775 8.417,158.775 
			8.967,155.469 8.688,151.145 8.967,144.997 8.967,144.989 8.547,143.449 7.851,139.27 7.988,135.216 7.78,128.444 8.688,120.684 
			8.548,118.587 8.545,118.541 8.417,118.541 8.967,115.234 8.688,110.91 8.967,104.762 8.967,104.754 8.547,103.213 7.851,99.035 
			7.988,94.981 7.78,88.209 8.688,80.449 8.548,78.352 8.545,78.306 8.417,78.306 8.967,75 8.688,70.675 8.967,64.527 		"/>
		<path class="st0" d="M59.992,2.958c0.4,0,3.627-0.402,3.757-0.419l8.717,0.28l4.251,0.554v0.043l11.452-0.877l10.469,0.419
			c0.4,0,3.627-0.402,3.757-0.419l8.717,0.28l4.251,0.554v0.043l11.452-0.877l10.469,0.419c0.4,0,3.627-0.402,3.757-0.419
			l8.718,0.28l4.25,0.554v0.043l11.452-0.877l10.47,0.419c0.4,0,3.627-0.402,3.757-0.419l8.717,0.28l4.251,0.554v0.043l11.452-0.877
			l10.469,0.419c0.4,0,3.627-0.402,3.757-0.419l8.717,0.28l4.251,0.554v0.043l11.452-0.877l10.469,0.419
			c0.4,0,3.627-0.402,3.757-0.419l8.717,0.28l4.251,0.554v0.043l11.452-0.877l10.47,0.419c0.399,0,3.627-0.402,3.756-0.419
			l8.718,0.28l4.251,0.554v0.043l11.452-0.877l10.47,0.419c0.399,0,3.627-0.402,3.756-0.419l8.718,0.28l4.251,0.554v0.043
			l11.452-0.877l10.47,0.419c0.399,0,3.627-0.402,3.756-0.419l8.718,0.28l4.251,0.554v0.043l11.452-0.877l10.47,0.419
			c0.399,0,3.628-0.402,3.757-0.419l8.717,0.28l4.251,0.554v0.043l11.453-0.877l10.469,0.419c0.399,0,3.628-0.402,3.757-0.419
			l8.717,0.28l4.252,0.554v0.043l11.452-0.877l10.469,0.419c0.4,0,3.628-0.402,3.757-0.419l8.717,0.28l4.208,0.548v0.206
			l3.448-1.284l10.89,0.559l0.014,0.001l2.778-1.389l2.49,1.937l0.021,0.016l2.237-0.7l-0.942,2.949l-18.427,18.32l0.069,0.073
			L520.616,9.19l2.581-2.311l2.165-1.957l2.261-0.507l-15.864,15.95l0.067,0.074l7.226-5.951l6.731-5.966l5.777-5.413l0.878,0.876
			l-3.989,3.624l-18.028,18.196l0.069,0.072l19.45-18.289l-6.471,7.734l-7.494,7.563l0.066,0.074l10.2-8.107l5.849-6.12l3.233-2.268
			l-5.114,6.374l-2.411,1.732l-15.109,15.822l0.07,0.071l15.718-15.013l2.628-1.707l4.014-3.217l-1.35,2.302l-1.512,1.308
			l-13.521,13.728l0.069,0.072l17.517-16.149l0.991,26.19l0.002,0.048h2.615l-0.282-6.167l-1.396-3.639l0.56-9.483l1.395-4.188
			l0.002-11.212l-2.81-2.81l-0.014-0.014l-21.257-0.838l-0.01,0l-2.232,0.836l-7.533-1.395l-0.011-0.002l-4.413,1.133V0.184
			l-2.474,0.86l-2.404-0.139l-0.007,0l-4.429,0.978l-29.333-1.674V0.184l-0.058,0.02l-0.042-0.002v0.017l-2.374,0.825l-2.404-0.139
			l-0.007,0l-4.429,0.978l-29.334-1.674V0.184l-0.058,0.02l-0.042-0.002v0.017l-2.373,0.825l-2.404-0.139l-0.007,0l-4.429,0.978
			l-29.334-1.674V0.184l-0.058,0.02l-0.042-0.002v0.017l-2.374,0.825l-2.404-0.139l-0.007,0l-4.429,0.978l-29.333-1.674V0.184
			l-0.058,0.02l-0.042-0.002v0.017l-2.374,0.825l-2.404-0.139l-0.007,0l-4.429,0.978l-29.333-1.674V0.184l-0.058,0.02l-0.042-0.002
			v0.017l-2.374,0.825l-2.404-0.139l-0.007,0l-4.429,0.978L270.05,0.207V0.184l-0.057,0.02l-0.042-0.002v0.017l-2.374,0.825
			l-2.404-0.139l-0.007,0l-4.429,0.978l-29.333-1.674V0.184l-0.057,0.02l-0.042-0.002v0.017l-2.374,0.825l-2.404-0.139l-0.007,0
			l-4.429,0.978l-29.333-1.674V0.184l-0.057,0.02l-0.042-0.002v0.017l-2.374,0.825l-2.404-0.139l-0.007,0l-4.429,0.978L154.11,0.207
			V0.184l-0.057,0.02l-0.042-0.002v0.017l-2.374,0.825l-2.404-0.139l-0.007,0l-4.429,0.978l-29.333-1.674V0.184l-0.057,0.02
			l-0.042-0.002v0.017l-2.374,0.825l-2.404-0.139l-0.007,0l-4.429,0.978L76.817,0.207V0.184l-0.057,0.02l-0.042-0.002v0.017
			l-2.374,0.825l-2.404-0.139l-0.007,0l-4.429,0.978l-29.38-1.677L38.07,0.201v3.215l11.453-0.877L59.992,2.958z"/>
		<path class="st0" d="M480.008,717.042c-0.399,0-3.627,0.402-3.756,0.419l-8.718-0.28l-4.251-0.554v-0.043l-11.452,0.877
			l-10.47-0.419c-0.399,0-3.628,0.402-3.757,0.419l-8.717-0.28l-4.252-0.554v-0.043l-11.452,0.877l-10.469-0.419
			c-0.399,0-3.628,0.402-3.757,0.419l-8.717-0.28l-4.252-0.554v-0.043l-11.452,0.877l-10.469-0.419c-0.4,0-3.628,0.402-3.757,0.419
			l-8.717-0.28l-4.252-0.554v-0.043l-11.452,0.877l-10.469-0.419c-0.4,0-3.628,0.402-3.757,0.419l-8.717-0.28l-4.252-0.554v-0.043
			l-11.452,0.877l-10.47-0.419c-0.399,0-3.627,0.402-3.756,0.419l-8.718-0.28l-4.251-0.554v-0.043l-11.452,0.877l-10.469-0.419
			c-0.4,0-3.627,0.402-3.757,0.419l-8.718-0.28l-4.25-0.554v-0.043l-11.452,0.877l-10.47-0.419c-0.4,0-3.627,0.402-3.757,0.419
			l-8.717-0.28l-4.25-0.554v-0.043l-11.453,0.877l-10.469-0.419c-0.4,0-3.627,0.402-3.757,0.419l-8.717-0.28l-4.251-0.554v-0.043
			l-11.452,0.877l-10.469-0.419c-0.4,0-3.627,0.402-3.757,0.419l-8.717-0.28l-4.251-0.554v-0.043l-11.452,0.877l-10.469-0.419
			c-0.4,0-3.627,0.402-3.757,0.419l-8.718-0.28l-4.25-0.554v-0.043l-11.452,0.877l-10.47-0.419c-0.4,0-3.627,0.402-3.757,0.419
			l-8.717-0.28l-4.207-0.548v-0.207l-3.448,1.283l-10.89-0.558l-0.013-0.001l-2.778,1.389l-2.49-1.937l-0.021-0.017l-2.238,0.699
			l0.942-2.949l18.427-18.32l-0.069-0.072L19.384,710.81l-2.582,2.312l-2.165,1.956l-2.26,0.508l15.865-15.95l-0.067-0.074
			l-7.226,5.951l-6.731,5.966l-5.777,5.413l-0.878-0.876l3.99-3.624l18.028-18.197l-0.07-0.071L10.06,712.41l6.471-7.733
			l7.494-7.563l-0.067-0.074l-10.2,8.107l-5.849,6.119l-3.233,2.268l5.114-6.373l2.412-1.733l15.109-15.822l-0.071-0.07
			l-15.717,15.014l-2.628,1.707l-4.013,3.218l1.349-2.303l1.512-1.308l13.521-13.728l-0.069-0.072L3.677,708.212l-0.991-26.19
			l-0.001-0.048H0.069l0.282,6.167l1.396,3.639l-0.559,9.482l-1.395,4.188l-0.002,11.212l2.823,2.823l21.257,0.838l0.01,0.001
			l2.231-0.836l7.533,1.395l0.011,0.002l4.413-1.133v0.064l2.474-0.859l2.404,0.139l0.007,0.001l4.429-0.978l29.333,1.674v0.023
			l0.057-0.02l0.042,0.002v-0.017l2.374-0.825l2.404,0.139l0.007,0.001l4.429-0.978l29.333,1.674v0.023l0.057-0.02l0.042,0.002
			v-0.017l2.374-0.825l2.404,0.139l0.007,0.001l4.429-0.978l29.333,1.674v0.023l0.057-0.02l0.042,0.002v-0.017l2.374-0.825
			l2.404,0.139l0.007,0.001l4.429-0.978l29.333,1.674v0.023l0.058-0.02l0.042,0.002v-0.017l2.374-0.825l2.404,0.139l0.007,0.001
			l4.429-0.978l29.333,1.674v0.023l0.058-0.02l0.042,0.002v-0.017l2.374-0.825l2.404,0.139l0.007,0.001l4.429-0.978l29.333,1.674
			v0.023l0.058-0.02l0.042,0.002v-0.017l2.374-0.825l2.404,0.139l0.007,0.001l4.429-0.978l29.333,1.674v0.023l0.058-0.02
			l0.042,0.002v-0.017l2.374-0.825l2.404,0.139l0.007,0.001l4.429-0.978l29.333,1.674v0.023l0.058-0.02l0.042,0.002v-0.017
			l2.374-0.825l2.404,0.139l0.007,0.001l4.429-0.978l29.333,1.674v0.023l0.058-0.02l0.042,0.002v-0.017l2.374-0.825l2.404,0.139
			l0.007,0.001l4.429-0.978l29.333,1.674v0.023l0.058-0.02l0.042,0.002v-0.017l2.374-0.825l2.404,0.139l0.007,0.001l4.429-0.978
			l29.334,1.674v0.023l0.058-0.02l0.042,0.002v-0.017l2.374-0.825l2.404,0.139l0.007,0.001l4.428-0.978l29.381,1.677l0.053,0.003
			v-3.215l-11.452,0.877L480.008,717.042z"/>
		<polygon class="st0" points="38.069,7.993 38.07,7.993 38.07,8.399 41.344,8.967 45.498,8.688 51.402,8.967 51.411,8.967 
			52.89,8.547 56.904,7.851 60.797,7.988 67.302,7.78 74.756,8.688 76.771,8.548 76.817,8.544 76.817,8.417 79.991,8.967 
			84.144,8.688 90.049,8.967 90.058,8.967 91.537,8.547 95.55,7.851 99.444,7.988 105.948,7.78 113.402,8.688 115.417,8.548 
			115.463,8.544 115.463,8.417 118.637,8.967 122.791,8.688 128.696,8.967 128.704,8.967 130.184,8.547 134.197,7.851 
			138.091,7.988 144.595,7.78 152.049,8.688 154.063,8.548 154.11,8.544 154.11,8.417 157.284,8.967 161.437,8.688 167.342,8.967 
			167.351,8.967 168.83,8.547 172.843,7.851 176.737,7.988 183.242,7.78 190.696,8.688 192.71,8.548 192.757,8.544 192.757,8.417 
			195.93,8.967 200.084,8.688 205.989,8.967 205.997,8.967 207.477,8.547 211.49,7.851 215.384,7.988 221.888,7.78 229.342,8.688 
			231.357,8.548 231.403,8.544 231.403,8.417 234.577,8.967 238.73,8.688 244.635,8.967 244.644,8.967 246.124,8.547 250.137,7.851 
			254.031,7.988 260.535,7.78 267.989,8.688 270.003,8.548 270.05,8.544 270.05,8.417 273.223,8.967 277.378,8.688 283.282,8.967 
			283.29,8.967 284.771,8.547 288.783,7.851 292.678,7.988 299.182,7.78 306.636,8.688 308.65,8.548 308.696,8.544 308.696,8.417 
			311.87,8.967 316.024,8.688 321.93,8.967 321.938,8.967 323.417,8.547 327.43,7.851 331.324,7.988 337.828,7.78 345.282,8.688 
			347.297,8.548 347.343,8.544 347.343,8.417 350.517,8.967 354.671,8.688 360.576,8.967 360.584,8.967 362.063,8.547 
			366.076,7.851 369.971,7.988 376.475,7.78 383.929,8.688 385.943,8.548 385.989,8.544 385.989,8.417 389.163,8.967 393.317,8.688 
			399.223,8.967 399.23,8.967 400.71,8.547 404.723,7.851 408.617,7.988 415.121,7.78 422.576,8.688 424.59,8.548 424.636,8.544 
			424.636,8.417 427.81,8.967 431.964,8.688 437.869,8.967 437.877,8.967 439.356,8.547 443.37,7.851 447.264,7.988 453.768,7.78 
			461.223,8.688 463.237,8.548 463.283,8.544 463.283,8.417 466.456,8.967 470.61,8.688 476.516,8.967 476.523,8.967 478.004,8.547 
			482.017,7.851 485.911,7.988 492.414,7.78 499.869,8.688 501.874,8.548 501.874,8.694 509.935,7.75 512.991,8.35 513.001,8.352 
			519.996,6.953 519.992,6.854 518.339,6.664 509.938,7.648 501.93,6.075 501.93,5.925 495.57,6.91 491.822,6.494 487.931,5.934 
			487.92,5.932 483.489,7.331 476.923,6.771 476.913,6.771 475.573,7.19 469.682,6.632 463.283,5.938 463.283,5.925 463.233,5.933 
			463.184,5.928 463.184,5.941 456.924,6.91 453.176,6.494 449.283,5.934 449.272,5.932 444.843,7.331 438.276,6.771 438.267,6.771 
			436.927,7.19 431.035,6.632 424.636,5.938 424.636,5.925 424.586,5.933 424.536,5.928 424.536,5.941 418.277,6.91 414.529,6.494 
			410.637,5.934 410.626,5.932 406.196,7.331 399.63,6.771 399.62,6.771 398.28,7.19 392.389,6.632 385.989,5.938 385.989,5.925 
			385.939,5.933 385.89,5.928 385.89,5.941 379.631,6.91 375.882,6.494 371.99,5.934 371.979,5.932 367.55,7.331 360.983,6.771 
			360.974,6.771 359.634,7.19 353.741,6.632 347.343,5.938 347.343,5.925 347.293,5.933 347.243,5.928 347.243,5.941 340.984,6.91 
			337.235,6.494 333.344,5.934 333.333,5.932 328.903,7.331 322.337,6.771 322.327,6.771 320.987,7.19 315.095,6.632 308.696,5.938 
			308.696,5.925 308.646,5.933 308.597,5.928 308.597,5.941 302.338,6.91 298.589,6.494 294.697,5.934 294.687,5.932 290.257,7.331 
			283.69,6.771 283.681,6.771 282.341,7.19 276.448,6.632 270.05,5.938 270.05,5.925 270,5.933 269.95,5.928 269.95,5.941 
			263.691,6.91 259.943,6.494 256.051,5.934 256.04,5.932 251.61,7.331 245.044,6.771 245.034,6.771 243.693,7.19 237.801,6.632 
			231.403,5.938 231.403,5.925 231.354,5.933 231.304,5.928 231.304,5.941 225.044,6.91 221.296,6.494 217.404,5.934 217.393,5.932 
			212.963,7.331 206.397,6.771 206.388,6.771 205.047,7.19 199.155,6.632 192.757,5.938 192.757,5.925 192.707,5.933 192.657,5.928 
			192.657,5.941 186.397,6.91 182.65,6.494 178.758,5.934 178.746,5.932 174.317,7.331 167.751,6.771 167.741,6.771 166.4,7.19 
			160.508,6.632 154.11,5.938 154.11,5.925 154.06,5.933 154.01,5.928 154.01,5.941 147.751,6.91 144.003,6.494 140.111,5.934 
			140.1,5.932 135.67,7.331 129.104,6.771 129.094,6.771 127.754,7.19 121.861,6.632 115.463,5.938 115.463,5.925 115.414,5.933 
			115.364,5.928 115.364,5.941 109.104,6.91 105.356,6.494 101.464,5.934 101.453,5.932 97.023,7.331 90.458,6.771 90.448,6.771 
			89.107,7.19 83.215,6.632 76.817,5.938 76.817,5.925 76.767,5.933 76.717,5.928 76.717,5.941 70.458,6.91 66.71,6.494 
			62.818,5.934 62.806,5.932 58.377,7.331 51.811,6.771 51.801,6.771 50.46,7.19 44.568,6.632 38.131,5.934 38.131,5.763 
			27.525,6.075 27.187,6.043 27.179,6.042 26.926,6.093 19.22,6.32 20.788,5.015 20.866,4.949 16.852,4.089 16.782,4.074 
			17.077,6.127 20.175,7.535 20.189,7.542 26.937,6.192 27.521,6.175 33.038,6.701 		"/>
		<polygon class="st0" points="23.84,12.874 23.465,10.251 20.311,9.858 27.855,18.156 27.952,18.262 27.755,15.324 27.753,15.298 
					"/>
		<polygon class="st0" points="14.06,29.2 13.957,27.689 13.956,27.672 11.846,25.194 11.833,25.179 10.218,24.978 13.963,29.094 		
			"/>
		<polygon class="st0" points="535.911,16.852 535.926,16.782 533.873,17.077 532.465,20.175 532.459,20.189 533.808,26.937 
			533.824,27.521 533.299,33.038 532.007,38.069 532.007,38.07 531.601,38.07 531.033,41.476 531.312,45.801 531.033,51.949 
			531.032,51.957 531.452,53.497 532.149,57.676 532.012,61.729 532.22,68.501 531.312,76.261 531.452,78.359 531.455,78.405 
			531.584,78.405 531.033,81.711 531.312,86.036 531.033,92.184 531.032,92.191 531.452,93.732 532.149,97.911 532.012,101.964 
			532.22,108.736 531.312,116.497 531.452,118.594 531.455,118.64 531.584,118.64 531.033,121.946 531.312,126.271 531.033,132.418 
			531.032,132.426 531.452,133.967 532.149,138.146 532.012,142.2 532.22,148.971 531.312,156.731 531.452,158.829 531.455,158.875 
			531.584,158.875 531.033,162.181 531.312,166.505 531.033,172.653 531.032,172.661 531.452,174.202 532.149,178.381 
			532.012,182.435 532.22,189.206 531.312,196.966 531.452,199.063 531.455,199.11 531.584,199.11 531.033,202.416 531.312,206.741 
			531.033,212.888 531.032,212.896 531.452,214.437 532.149,218.616 532.012,222.669 532.22,229.441 531.312,237.201 
			531.452,239.298 531.455,239.345 531.584,239.345 531.033,242.651 531.312,246.976 531.033,253.123 531.032,253.131 
			531.452,254.672 532.149,258.851 532.012,262.904 532.22,269.676 531.312,277.436 531.452,279.534 531.455,279.58 531.584,279.58 
			531.033,282.886 531.312,287.21 531.033,293.358 531.032,293.366 531.452,294.907 532.149,299.086 532.012,303.139 
			532.22,309.911 531.312,317.671 531.452,319.769 531.455,319.815 531.584,319.815 531.033,323.121 531.312,327.445 
			531.033,333.593 531.032,333.601 531.452,335.142 532.149,339.321 532.012,343.374 532.22,350.146 531.312,357.906 
			531.452,360.003 531.455,360.05 531.584,360.05 531.033,363.355 531.312,367.681 531.033,373.828 531.032,373.836 
			531.452,375.376 532.149,379.556 532.012,383.609 532.22,390.381 531.312,398.141 531.452,400.238 531.455,400.285 
			531.584,400.285 531.033,403.591 531.312,407.916 531.033,414.063 531.032,414.071 531.452,415.611 532.149,419.79 
			532.012,423.845 532.22,430.616 531.312,438.376 531.452,440.473 531.455,440.52 531.584,440.52 531.033,443.825 531.312,448.15 
			531.033,454.299 531.032,454.307 531.452,455.846 532.149,460.025 532.012,464.079 532.22,470.851 531.312,478.61 
			531.452,480.708 531.455,480.755 531.584,480.755 531.033,484.061 531.312,488.386 531.033,494.533 531.032,494.541 
			531.452,496.081 532.149,500.26 532.012,504.314 532.22,511.086 531.312,518.846 531.452,520.942 531.455,520.989 
			531.584,520.989 531.033,524.295 531.312,528.621 531.033,534.769 531.032,534.776 531.452,536.316 532.149,540.495 
			532.012,544.55 532.22,551.32 531.312,559.08 531.452,561.178 531.455,561.225 531.584,561.225 531.033,564.53 531.312,568.855 
			531.033,575.003 531.032,575.011 531.452,576.551 532.149,580.73 532.012,584.784 532.22,591.556 531.312,599.315 
			531.452,601.413 531.455,601.46 531.584,601.46 531.033,604.766 531.312,609.091 531.033,615.238 531.032,615.246 
			531.452,616.786 532.149,620.965 532.012,625.02 532.22,631.791 531.312,639.55 531.452,641.647 531.455,641.694 531.584,641.694 
			531.033,645 531.312,649.325 531.033,655.474 531.032,655.481 531.452,657.021 532.149,661.2 532.012,665.254 532.22,672.025 
			531.312,679.785 531.451,681.874 531.305,681.874 532.251,689.935 531.65,692.991 531.648,693.001 533.047,699.996 
			533.146,699.992 533.337,698.339 532.352,689.938 533.925,681.93 534.074,681.93 533.091,675.312 533.507,671.408 
			534.066,667.356 534.067,667.346 532.669,662.734 533.229,655.897 533.229,655.889 532.81,654.493 533.368,648.356 
			534.062,641.694 534.074,641.694 534.066,641.645 534.072,641.595 534.06,641.595 533.091,635.076 533.507,631.174 
			534.066,627.122 534.067,627.111 532.669,622.499 533.229,615.662 533.229,615.653 532.81,614.258 533.368,608.122 
			534.062,601.46 534.074,601.46 534.066,601.41 534.072,601.36 534.06,601.36 533.091,594.842 533.507,590.938 534.066,586.887 
			534.067,586.876 532.669,582.264 533.229,575.428 533.229,575.419 532.81,574.022 533.368,567.887 534.062,561.225 
			534.074,561.225 534.066,561.175 534.072,561.125 534.06,561.125 533.091,554.606 533.507,550.704 534.066,546.651 
			534.067,546.641 532.669,542.029 533.229,535.192 533.229,535.184 532.81,533.788 533.368,527.652 534.062,520.989 
			534.074,520.989 534.066,520.939 534.072,520.89 534.06,520.89 533.091,514.371 533.507,510.469 534.066,506.417 534.067,506.406 
			532.669,501.794 533.229,494.957 533.229,494.948 532.81,493.553 533.368,487.417 534.062,480.755 534.074,480.755 
			534.066,480.705 534.072,480.655 534.06,480.655 533.091,474.137 533.507,470.233 534.066,466.182 534.067,466.171 
			532.669,461.56 533.229,454.723 533.229,454.714 532.81,453.318 533.368,447.182 534.062,440.52 534.074,440.52 534.066,440.47 
			534.072,440.42 534.06,440.42 533.091,433.901 533.507,429.999 534.066,425.947 534.067,425.937 532.669,421.324 533.229,414.487 
			533.229,414.479 532.81,413.083 533.368,406.947 534.062,400.285 534.074,400.285 534.066,400.235 534.072,400.186 
			534.06,400.186 533.091,393.667 533.507,389.764 534.066,385.712 534.067,385.701 532.669,381.089 533.229,374.253 
			533.229,374.244 532.81,372.848 533.368,366.712 534.062,360.05 534.074,360.05 534.066,360 534.072,359.95 534.06,359.95 
			533.091,353.432 533.507,349.529 534.066,345.477 534.067,345.466 532.669,340.855 533.229,334.018 533.229,334.008 
			532.81,332.613 533.368,326.478 534.062,319.815 534.074,319.815 534.066,319.766 534.072,319.715 534.06,319.715 
			533.091,313.197 533.507,309.294 534.066,305.242 534.067,305.231 532.669,300.62 533.229,293.783 533.229,293.773 
			532.81,292.377 533.368,286.243 534.062,279.58 534.074,279.58 534.066,279.531 534.072,279.48 534.06,279.48 533.091,272.962 
			533.507,269.059 534.066,265.007 534.067,264.996 532.669,260.385 533.229,253.548 533.229,253.539 532.81,252.143 
			533.368,246.008 534.062,239.345 534.074,239.345 534.066,239.295 534.072,239.245 534.06,239.245 533.091,232.727 
			533.507,228.824 534.066,224.772 534.067,224.761 532.669,220.15 533.229,213.313 533.229,213.304 532.81,211.908 
			533.368,205.773 534.062,199.11 534.074,199.11 534.066,199.061 534.072,199.01 534.06,199.01 533.091,192.492 533.507,188.589 
			534.066,184.537 534.067,184.526 532.669,179.915 533.229,173.078 533.229,173.068 532.81,171.673 533.368,165.538 
			534.062,158.875 534.074,158.875 534.066,158.826 534.072,158.775 534.06,158.775 533.091,152.257 533.507,148.354 
			534.066,144.302 534.067,144.292 532.669,139.68 533.229,132.843 533.229,132.833 532.81,131.438 533.368,125.303 534.062,118.64 
			534.074,118.64 534.066,118.591 534.072,118.541 534.06,118.541 533.091,112.022 533.507,108.119 534.066,104.067 
			534.067,104.057 532.669,99.445 533.229,92.608 533.229,92.599 532.81,91.203 533.368,85.068 534.062,78.405 534.074,78.405 
			534.066,78.356 534.072,78.306 534.06,78.306 533.091,71.787 533.507,67.884 534.066,63.832 534.067,63.821 532.669,59.21 
			533.229,52.373 533.229,52.364 532.81,50.968 533.368,44.833 534.065,38.131 534.237,38.131 533.925,27.525 533.957,27.187 
			533.958,27.179 533.907,26.926 533.681,19.22 535.051,20.866 		"/>
		<polygon class="st0" points="521.738,27.952 524.676,27.755 524.702,27.753 527.126,23.84 529.749,23.465 530.142,20.311 		"/>
		<polygon class="st0" points="512.311,13.957 512.327,13.956 514.806,11.846 514.82,11.833 515.022,10.218 510.8,14.06 		"/>
		<path class="st0" d="M540.885,686.343l-1.133-4.413h0.063l-0.858-2.573l0.139-2.504l-0.978-4.617l1.675-30.541h0.022l-0.019-0.057
			l0.002-0.043h-0.017l-0.825-2.473l0.139-2.504l-0.978-4.617l1.675-30.541h0.022l-0.019-0.057l0.002-0.043h-0.017l-0.825-2.474
			l0.139-2.504l-0.978-4.617l1.675-30.541h0.022l-0.019-0.057l0.002-0.043h-0.017l-0.825-2.474l0.139-2.503l-0.978-4.618
			l1.675-30.541h0.022l-0.019-0.057l0.002-0.043h-0.017l-0.825-2.473l0.139-2.504l-0.978-4.617l1.675-30.541h0.022l-0.019-0.057
			l0.002-0.043h-0.017l-0.825-2.474l0.139-2.503l-0.978-4.618l1.675-30.541h0.022l-0.019-0.057l0.002-0.043h-0.017l-0.825-2.473
			l0.139-2.504l-0.978-4.617l1.675-30.541h0.022l-0.019-0.057l0.002-0.043h-0.017l-0.825-2.474l0.139-2.504l-0.978-4.617
			l1.675-30.541h0.022l-0.019-0.057l0.002-0.043h-0.017l-0.825-2.473l0.139-2.503l-0.978-4.618l1.675-30.541h0.022l-0.019-0.057
			l0.002-0.042h-0.017l-0.825-2.473l0.139-2.504l-0.978-4.617l1.675-30.541h0.022l-0.019-0.057l0.002-0.043h-0.017l-0.825-2.474
			l0.139-2.503l-0.978-4.618l1.675-30.541h0.022l-0.019-0.057l0.002-0.043h-0.017l-0.825-2.473l0.139-2.503l-0.978-4.618
			l1.675-30.541h0.022l-0.019-0.057l0.002-0.042h-0.017l-0.825-2.473l0.139-2.503l-0.978-4.618l1.675-30.541h0.022l-0.019-0.057
			l0.002-0.043h-0.017l-0.825-2.473l0.139-2.503l-0.978-4.618l1.675-30.541h0.022l-0.019-0.057l0.002-0.042h-0.017l-0.825-2.473
			l0.139-2.504l-0.978-4.617l1.675-30.541h0.022l-0.019-0.057l0.002-0.043h-0.017l-0.825-2.474l0.139-2.503l-0.978-4.618
			l1.678-30.588l0.003-0.053h-3.215l0.877,11.921l-0.419,10.9c0,0.416,0.402,3.776,0.419,3.911l-0.28,9.076l-0.554,4.427h-0.043
			l0.877,11.921l-0.419,10.899c0,0.416,0.402,3.776,0.419,3.911l-0.28,9.076l-0.554,4.427h-0.043l0.877,11.921l-0.419,10.899
			c0,0.417,0.402,3.776,0.419,3.911l-0.28,9.076l-0.554,4.427h-0.043l0.877,11.921l-0.419,10.899c0,0.417,0.402,3.776,0.419,3.912
			l-0.28,9.076l-0.554,4.427h-0.043l0.877,11.921l-0.419,10.9c0,0.416,0.402,3.776,0.419,3.911l-0.28,9.076l-0.554,4.427h-0.043
			l0.877,11.921l-0.419,10.9c0,0.416,0.402,3.776,0.419,3.911l-0.28,9.076l-0.554,4.428h-0.043l0.877,11.921l-0.419,10.899
			c0,0.416,0.402,3.776,0.419,3.911l-0.28,9.076l-0.554,4.427h-0.043l0.877,11.921l-0.419,10.899c0,0.417,0.402,3.776,0.419,3.911
			l-0.28,9.076l-0.554,4.427h-0.043l0.877,11.921l-0.419,10.899c0,0.416,0.402,3.776,0.419,3.911l-0.28,9.076l-0.554,4.428h-0.043
			l0.877,11.921l-0.419,10.899c0,0.416,0.402,3.775,0.419,3.91l-0.28,9.077l-0.554,4.427h-0.043l0.877,11.921l-0.419,10.899
			c0,0.417,0.402,3.776,0.419,3.911l-0.28,9.077l-0.554,4.427h-0.043l0.877,11.921l-0.419,10.899c0,0.416,0.402,3.776,0.419,3.911
			l-0.28,9.076l-0.554,4.427h-0.043l0.877,11.921l-0.419,10.9c0,0.416,0.402,3.775,0.419,3.91l-0.28,9.077l-0.554,4.427h-0.043
			l0.877,11.921l-0.419,10.899c0,0.416,0.402,3.776,0.419,3.911l-0.28,9.076l-0.554,4.428h-0.043l0.877,11.921l-0.419,10.899
			c0,0.416,0.402,3.775,0.419,3.91l-0.28,9.077l-0.554,4.427h-0.043l0.877,11.921l-0.419,10.899c0,0.417,0.402,3.776,0.419,3.911
			l-0.28,9.077l-0.549,4.383h-0.206l1.283,3.448l-0.558,10.89l-0.001,0.014l1.389,2.778l-1.937,2.49l-0.017,0.021l0.699,2.237
			l-2.949-0.942l-18.32-18.427l-0.072,0.069l14.866,16.252l2.312,2.581l1.956,2.165l0.508,2.261l-15.95-15.864l-0.074,0.067
			l5.951,7.226l5.966,6.731l5.413,5.777l-0.876,0.878l-3.624-3.989l-18.197-18.028l-0.071,0.069l18.288,19.45l-7.733-6.471
			l-7.563-7.494l-0.074,0.066l8.107,10.2l6.119,5.849l2.268,3.233l-6.373-5.114l-1.733-2.411l-15.822-15.109l-0.07,0.07
			l15.014,15.718l1.707,2.628l3.218,4.014l-2.303-1.35l-1.308-1.512l-13.728-13.521l-0.072,0.069l16.149,17.517l-26.19,0.991
			l-0.048,0.002v2.615l6.167-0.282l3.639-1.396l9.482,0.56l4.188,1.395l11.212,0.002l2.823-2.823l0.838-21.257l0.001-0.01
			l-0.836-2.232l1.395-7.533L540.885,686.343z"/>
		<polygon class="st0" points="501.931,712.007 501.93,712.007 501.93,711.601 498.656,711.033 494.502,711.312 488.597,711.033 
			488.589,711.032 487.109,711.453 483.097,712.149 479.202,712.012 472.698,712.22 465.244,711.312 463.229,711.452 
			463.184,711.455 463.184,711.583 460.01,711.033 455.855,711.312 449.95,711.033 449.942,711.032 448.463,711.453 444.45,712.149 
			440.556,712.012 434.052,712.22 426.597,711.312 424.582,711.452 424.536,711.455 424.536,711.583 421.363,711.033 
			417.209,711.312 411.304,711.033 411.296,711.032 409.815,711.453 405.803,712.149 401.909,712.012 395.405,712.22 
			387.95,711.312 385.936,711.452 385.89,711.455 385.89,711.583 382.717,711.033 378.563,711.312 372.657,711.033 372.649,711.032 
			371.169,711.453 367.156,712.149 363.262,712.012 356.759,712.22 349.304,711.312 347.289,711.452 347.243,711.455 
			347.243,711.583 344.07,711.033 339.916,711.312 334.011,711.033 334.003,711.032 332.522,711.453 328.51,712.149 
			324.615,712.012 318.112,712.22 310.657,711.312 308.643,711.452 308.597,711.455 308.597,711.583 305.424,711.033 
			301.27,711.312 295.364,711.033 295.356,711.032 293.876,711.453 289.863,712.149 285.969,712.012 279.465,712.22 
			272.011,711.312 269.997,711.452 269.95,711.455 269.95,711.583 266.776,711.033 262.623,711.312 256.718,711.033 
			256.709,711.032 255.23,711.453 251.217,712.149 247.323,712.012 240.819,712.22 233.365,711.312 231.35,711.452 231.304,711.455 
			231.304,711.583 228.13,711.033 223.977,711.312 218.071,711.033 218.063,711.032 216.583,711.453 212.57,712.149 
			208.676,712.012 202.172,712.22 194.718,711.312 192.704,711.452 192.657,711.455 192.657,711.583 189.483,711.033 
			185.33,711.312 179.425,711.033 179.417,711.032 177.937,711.453 173.923,712.149 170.03,712.012 163.525,712.22 156.071,711.312 
			154.057,711.452 154.01,711.455 154.01,711.583 150.836,711.033 146.683,711.312 140.778,711.033 140.77,711.032 139.29,711.453 
			135.277,712.149 131.383,712.012 124.879,712.22 117.425,711.312 115.41,711.452 115.364,711.455 115.364,711.583 112.19,711.033 
			108.037,711.312 102.131,711.033 102.123,711.032 100.644,711.453 96.63,712.149 92.736,712.012 86.232,712.22 78.778,711.312 
			76.764,711.452 76.717,711.455 76.717,711.583 73.543,711.033 69.39,711.312 63.485,711.033 63.477,711.032 61.997,711.453 
			57.984,712.149 54.09,712.012 47.585,712.22 40.131,711.312 38.126,711.451 38.126,711.305 30.065,712.251 27.009,711.65 
			26.999,711.648 20.004,713.047 20.008,713.146 21.649,713.337 21.655,713.338 30.061,712.352 38.07,713.925 38.07,714.075 
			44.43,713.091 48.177,713.507 52.069,714.066 52.081,714.067 56.51,712.669 63.076,713.229 63.086,713.229 64.427,712.81 
			70.319,713.368 76.717,714.062 76.717,714.075 76.769,714.067 76.817,714.072 76.817,714.06 83.076,713.091 86.824,713.507 
			90.716,714.066 90.728,714.067 95.157,712.669 101.723,713.229 101.733,713.229 103.073,712.81 108.966,713.368 115.364,714.062 
			115.364,714.075 115.416,714.067 115.463,714.072 115.463,714.06 121.723,713.091 125.471,713.507 129.363,714.066 
			129.375,714.067 133.804,712.669 140.37,713.229 140.379,713.229 141.72,712.81 147.612,713.368 154.01,714.062 154.01,714.075 
			154.062,714.067 154.11,714.072 154.11,714.06 160.369,713.091 164.117,713.507 168.009,714.066 168.021,714.067 172.45,712.669 
			179.016,713.229 179.026,713.229 180.367,712.81 186.259,713.368 192.657,714.062 192.657,714.075 192.709,714.067 
			192.757,714.072 192.757,714.06 199.016,713.091 202.764,713.507 206.656,714.066 206.667,714.067 211.097,712.669 
			217.663,713.229 217.672,713.229 219.013,712.81 224.906,713.368 231.304,714.062 231.304,714.075 231.355,714.067 
			231.403,714.072 231.403,714.06 237.663,713.091 241.411,713.507 245.302,714.066 245.314,714.067 249.744,712.669 
			256.31,713.229 256.319,713.229 257.66,712.81 263.552,713.368 269.95,714.062 269.95,714.075 270.002,714.067 270.05,714.072 
			270.05,714.06 276.31,713.091 280.058,713.507 283.949,714.066 283.96,714.067 288.39,712.669 294.956,713.229 294.966,713.229 
			296.306,712.81 302.198,713.368 308.597,714.062 308.597,714.075 308.648,714.067 308.696,714.072 308.696,714.06 
			314.956,713.091 318.704,713.507 322.596,714.066 322.606,714.067 327.037,712.669 333.604,713.229 333.613,713.229 
			334.952,712.81 340.845,713.368 347.243,714.062 347.243,714.075 347.295,714.067 347.343,714.072 347.343,714.06 
			353.603,713.091 357.351,713.507 361.243,714.066 361.254,714.067 365.684,712.669 372.25,713.229 372.26,713.229 373.6,712.81 
			379.491,713.368 385.89,714.062 385.89,714.075 385.941,714.067 385.989,714.072 385.989,714.06 392.249,713.091 395.997,713.507 
			399.89,714.066 399.9,714.067 404.33,712.669 410.896,713.229 410.906,713.229 412.246,712.81 418.138,713.368 424.536,714.062 
			424.536,714.075 424.588,714.067 424.636,714.072 424.636,714.06 430.896,713.091 434.644,713.507 438.536,714.066 
			438.547,714.067 442.977,712.669 449.543,713.229 449.553,713.229 450.893,712.81 456.785,713.368 463.184,714.062 
			463.184,714.075 463.235,714.067 463.283,714.072 463.283,714.06 469.542,713.091 473.291,713.507 477.183,714.066 
			477.193,714.067 481.623,712.669 488.189,713.229 488.199,713.229 489.539,712.81 495.432,713.368 501.868,714.065 
			501.868,714.237 512.476,713.925 512.813,713.957 512.821,713.958 513.074,713.907 520.779,713.681 519.212,714.985 
			519.133,715.051 523.147,715.911 523.218,715.926 522.923,713.873 519.825,712.465 519.811,712.459 513.063,713.808 
			512.479,713.824 506.963,713.299 		"/>
		<polygon class="st0" points="516.161,707.126 516.528,709.711 516.534,709.749 519.688,710.142 512.048,701.738 512.245,704.676 
			512.247,704.702 		"/>
		<polygon class="st0" points="526.043,692.311 526.044,692.327 528.154,694.806 528.167,694.82 529.782,695.022 525.94,690.8 		"/>
		<polygon class="st0" points="18.156,692.145 18.262,692.048 15.324,692.245 15.298,692.247 12.874,696.161 10.289,696.528 
			10.251,696.534 9.858,699.688 		"/>
		<polygon class="st0" points="29.2,705.94 27.689,706.043 27.672,706.044 25.194,708.154 25.179,708.167 24.978,709.782 
			29.094,706.037 		"/>
	</g>
</g>
</svg>
