<?xml version="1.0" encoding="utf-8"?>
<!-- Generator: Adobe Illustrator 14.0.0, SVG Export Plug-In . SVG Version: 6.00 Build 43363)  -->
<!DOCTYPE svg PUBLIC "-//W3C//DTD SVG 1.1//EN" "http://www.w3.org/Graphics/SVG/1.1/DTD/svg11.dtd">
<svg version="1.1" id="Nouveau_x5F_8_xA0_Image_1_" xmlns="http://www.w3.org/2000/svg" xmlns:xlink="http://www.w3.org/1999/xlink"
	 x="0px" y="0px" width="729px" height="969px" viewBox="0 0 729 969" style="enable-background:new 0 0 729 969;"
	 xml:space="preserve">
<style type="text/css">
<![CDATA[
	.st0{fill-rule:evenodd;clip-rule:evenodd;fill:none;stroke:#000000;stroke-width:2.5205;stroke-linecap:round;}
	.st1{fill-rule:evenodd;clip-rule:evenodd;fill:none;stroke:#000000;stroke-width:1.7321;stroke-linecap:round;}
	.st2{fill-rule:evenodd;clip-rule:evenodd;fill:none;stroke:#000000;stroke-width:1.5136;stroke-linecap:round;}
	.st3{fill-rule:evenodd;clip-rule:evenodd;fill:none;stroke:#000000;stroke-width:1.9391;stroke-linecap:round;}
	.st4{fill-rule:evenodd;clip-rule:evenodd;fill:none;stroke:#000000;stroke-width:1.3904;stroke-linecap:round;}
	.st5{fill-rule:evenodd;clip-rule:evenodd;fill:none;stroke:#000000;stroke-width:1.8878;stroke-linecap:round;}
	.st6{fill-rule:evenodd;clip-rule:evenodd;fill:none;stroke:#000000;stroke-width:1.8058;stroke-linecap:round;}
	.st7{fill-rule:evenodd;clip-rule:evenodd;fill:none;stroke:#000000;stroke-width:1.7877;stroke-linecap:round;}
	.st8{fill-rule:evenodd;clip-rule:evenodd;fill:none;stroke:#000000;stroke-width:2.1794;stroke-linecap:round;}
	.st9{fill-rule:evenodd;clip-rule:evenodd;fill:none;stroke:#000000;stroke-width:1.2071;stroke-linecap:round;}
	.st10{fill-rule:evenodd;clip-rule:evenodd;fill:none;stroke:#000000;stroke-width:2.132;stroke-linecap:round;}
	.st11{fill-rule:evenodd;clip-rule:evenodd;fill:none;stroke:#000000;stroke-width:1.4318;stroke-linecap:round;}
	.st12{fill-rule:evenodd;clip-rule:evenodd;fill:none;stroke:#000000;stroke-width:3.4412;stroke-linecap:round;}
	.st13{fill-rule:evenodd;clip-rule:evenodd;fill:none;stroke:#000000;stroke-width:3;stroke-linecap:round;}
	.st14{fill-rule:evenodd;clip-rule:evenodd;fill:none;stroke:#000000;stroke-width:4.1533;stroke-linecap:round;}
	.st15{fill-rule:evenodd;clip-rule:evenodd;fill:none;stroke:#000000;stroke-width:1.9322;stroke-linecap:round;}
	.st16{fill-rule:evenodd;clip-rule:evenodd;fill:none;stroke:#000000;stroke-width:3.1464;stroke-linecap:round;}
	.st17{fill-rule:evenodd;clip-rule:evenodd;fill:none;stroke:#000000;stroke-width:1.633;stroke-linecap:round;}
	.st18{fill-rule:evenodd;clip-rule:evenodd;fill:none;stroke:#000000;stroke-width:1.5811;stroke-linecap:round;}
	.st19{fill-rule:evenodd;clip-rule:evenodd;fill:none;stroke:#000000;stroke-width:2.9782;stroke-linecap:round;}
	.st20{fill-rule:evenodd;clip-rule:evenodd;fill:none;stroke:#000000;stroke-width:3.5355;stroke-linecap:round;}
	.st21{fill-rule:evenodd;clip-rule:evenodd;fill:none;stroke:#000000;stroke-width:2.8978;stroke-linecap:round;}
	.st22{fill-rule:evenodd;clip-rule:evenodd;fill:none;stroke:#000000;stroke-width:3.2146;stroke-linecap:round;}
	.st23{fill-rule:evenodd;clip-rule:evenodd;fill:none;stroke:#000000;stroke-width:1.8586;stroke-linecap:round;}
	.st24{fill-rule:evenodd;clip-rule:evenodd;fill:none;stroke:#000000;stroke-width:1.7056;stroke-linecap:round;}
	.st25{fill-rule:evenodd;clip-rule:evenodd;fill:none;stroke:#000000;stroke-width:1.7221;stroke-linecap:round;}
	.st26{fill-rule:evenodd;clip-rule:evenodd;fill:none;stroke:#000000;stroke-width:1.4846;stroke-linecap:round;}
	.st27{fill-rule:evenodd;clip-rule:evenodd;fill:none;stroke:#000000;stroke-width:2.49;stroke-linecap:round;}
	.st28{fill-rule:evenodd;clip-rule:evenodd;fill:none;stroke:#000000;stroke-width:1.2432;stroke-linecap:round;}
	.st29{fill-rule:evenodd;clip-rule:evenodd;fill:none;stroke:#000000;stroke-width:2.5249;stroke-linecap:round;}
	.st30{fill-rule:evenodd;clip-rule:evenodd;fill:none;stroke:#000000;stroke-linecap:round;}
	.st31{fill-rule:evenodd;clip-rule:evenodd;fill:none;stroke:#000000;stroke-width:3.5668;stroke-linecap:round;}
	.st32{fill-rule:evenodd;clip-rule:evenodd;fill:none;stroke:#000000;stroke-width:2.1053;stroke-linecap:round;}
	.st33{fill-rule:evenodd;clip-rule:evenodd;fill:none;stroke:#000000;stroke-width:3.9497;stroke-linecap:round;}
	.st34{fill-rule:evenodd;clip-rule:evenodd;fill:none;stroke:#000000;stroke-width:1.7113;stroke-linecap:round;}
	.st35{fill-rule:evenodd;clip-rule:evenodd;fill:none;stroke:#000000;stroke-width:1.5031;stroke-linecap:round;}
	.st36{fill-rule:evenodd;clip-rule:evenodd;fill:none;stroke:#000000;stroke-width:1.3831;stroke-linecap:round;}
	.st37{fill-rule:evenodd;clip-rule:evenodd;fill:none;stroke:#000000;stroke-width:2.2537;stroke-linecap:round;}
	.st38{fill-rule:evenodd;clip-rule:evenodd;fill:none;stroke:#000000;stroke-width:2.2111;stroke-linecap:round;}
	.st39{fill-rule:evenodd;clip-rule:evenodd;fill:none;stroke:#000000;stroke-width:3.1937;stroke-linecap:round;}
	.st40{fill-rule:evenodd;clip-rule:evenodd;fill:none;stroke:#000000;stroke-width:2.0132;stroke-linecap:round;}
	.st41{fill-rule:evenodd;clip-rule:evenodd;fill:none;stroke:#000000;stroke-width:3.7225;stroke-linecap:round;}
	.st42{fill-rule:evenodd;clip-rule:evenodd;fill:none;stroke:#000000;stroke-width:2.1213;stroke-linecap:round;}
	.st43{fill-rule:evenodd;clip-rule:evenodd;fill:none;stroke:#000000;stroke-width:3.0551;stroke-linecap:round;}
	.st44{fill-rule:evenodd;clip-rule:evenodd;fill:none;stroke:#000000;stroke-width:1.4142;stroke-linecap:round;}
	.st45{fill-rule:evenodd;clip-rule:evenodd;fill:none;stroke:#000000;stroke-width:1.6036;stroke-linecap:round;}
	.st46{fill:#000000;fill-rule:evenodd;clip-rule:evenodd;}
	.st47{fill-rule:evenodd;clip-rule:evenodd;fill:none;stroke:#000000;stroke-width:1.6533;stroke-linecap:round;}
	.st48{fill-rule:evenodd;clip-rule:evenodd;fill:none;stroke:#000000;stroke-width:1.5949;stroke-linecap:round;}
	.st49{fill-rule:evenodd;clip-rule:evenodd;fill:none;stroke:#000000;stroke-width:1.7023;stroke-linecap:round;}
	.st50{fill-rule:evenodd;clip-rule:evenodd;fill:none;stroke:#000000;stroke-width:2.8972;stroke-linecap:round;}
	.st51{fill-rule:evenodd;clip-rule:evenodd;fill:none;stroke:#000000;stroke-width:3.1091;stroke-linecap:round;}
	.st52{fill-rule:evenodd;clip-rule:evenodd;fill:none;stroke:#000000;stroke-width:1.3212;stroke-linecap:round;}
	.st53{fill-rule:evenodd;clip-rule:evenodd;fill:none;stroke:#000000;stroke-width:1.5;stroke-linecap:round;}
	.st54{fill-rule:evenodd;clip-rule:evenodd;fill:none;stroke:#000000;stroke-width:1.6583;stroke-linecap:round;}
	.st55{fill-rule:evenodd;clip-rule:evenodd;fill:none;stroke:#000000;stroke-width:2.1602;stroke-linecap:round;}
	.st56{fill-rule:evenodd;clip-rule:evenodd;fill:none;stroke:#000000;stroke-width:1.6125;stroke-linecap:round;}
	.st57{fill-rule:evenodd;clip-rule:evenodd;fill:none;stroke:#000000;stroke-width:1.9952;stroke-linecap:round;}
	.st58{fill-rule:evenodd;clip-rule:evenodd;fill:none;stroke:#000000;stroke-width:1.5706;stroke-linecap:round;}
	.st59{fill-rule:evenodd;clip-rule:evenodd;fill:none;stroke:#000000;stroke-width:1.8289;stroke-linecap:round;}
	.st60{fill-rule:evenodd;clip-rule:evenodd;fill:none;stroke:#000000;stroke-width:1.9235;stroke-linecap:round;}
	.st61{fill-rule:evenodd;clip-rule:evenodd;fill:none;stroke:#000000;stroke-width:1.3333;stroke-linecap:round;}
	.st62{fill-rule:evenodd;clip-rule:evenodd;fill:none;stroke:#000000;stroke-width:2.3805;stroke-linecap:round;}
	.st63{fill-rule:evenodd;clip-rule:evenodd;fill:none;stroke:#000000;stroke-width:2.0413;stroke-linecap:round;}
	.st64{fill-rule:evenodd;clip-rule:evenodd;fill:none;stroke:#000000;stroke-width:3.7506;stroke-linecap:round;}
	.st65{fill-rule:evenodd;clip-rule:evenodd;fill:none;stroke:#000000;stroke-width:3.645;stroke-linecap:round;}
	.st66{fill-rule:evenodd;clip-rule:evenodd;fill:none;stroke:#000000;stroke-width:1.5442;stroke-linecap:round;}
	.st67{fill-rule:evenodd;clip-rule:evenodd;fill:none;stroke:#000000;stroke-width:2.0369;stroke-linecap:round;}
	.st68{fill-rule:evenodd;clip-rule:evenodd;fill:none;stroke:#000000;stroke-width:1.2247;stroke-linecap:round;}
	.st69{fill-rule:evenodd;clip-rule:evenodd;fill:none;stroke:#000000;stroke-width:3.1269;stroke-linecap:round;}
	.st70{fill-rule:evenodd;clip-rule:evenodd;fill:none;stroke:#000000;stroke-width:1.3266;stroke-linecap:round;}
	.st71{fill-rule:evenodd;clip-rule:evenodd;fill:none;stroke:#000000;stroke-width:2.3406;stroke-linecap:round;}
	.st72{fill-rule:evenodd;clip-rule:evenodd;fill:none;stroke:#000000;stroke-width:1.1972;stroke-linecap:round;}
	.st73{fill-rule:evenodd;clip-rule:evenodd;fill:none;stroke:#000000;stroke-width:1.291;stroke-linecap:round;}
	.st74{fill-rule:evenodd;clip-rule:evenodd;fill:none;stroke:#000000;stroke-width:1.6179;stroke-linecap:round;}
	.st75{fill-rule:evenodd;clip-rule:evenodd;fill:none;stroke:#000000;stroke-width:1.8758;stroke-linecap:round;}
	.st76{fill-rule:evenodd;clip-rule:evenodd;fill:none;stroke:#000000;stroke-width:1.4491;stroke-linecap:round;}
	.st77{fill-rule:evenodd;clip-rule:evenodd;fill:none;stroke:#000000;stroke-width:1.5728;stroke-linecap:round;}
	.st78{fill-rule:evenodd;clip-rule:evenodd;fill:none;stroke:#000000;stroke-width:2.2361;stroke-linecap:round;}
	.st79{fill-rule:evenodd;clip-rule:evenodd;fill:none;stroke:#000000;stroke-width:2.0412;stroke-linecap:round;}
	.st80{fill-rule:evenodd;clip-rule:evenodd;fill:none;stroke:#000000;stroke-width:1.6733;stroke-linecap:round;}
	.st81{fill-rule:evenodd;clip-rule:evenodd;fill:none;stroke:#000000;stroke-width:1.9108;stroke-linecap:round;}
	.st82{fill-rule:evenodd;clip-rule:evenodd;fill:none;stroke:#000000;stroke-width:1.9149;stroke-linecap:round;}
	.st83{fill-rule:evenodd;clip-rule:evenodd;fill:none;stroke:#000000;stroke-width:2.5386;stroke-linecap:round;}
	.st84{fill-rule:evenodd;clip-rule:evenodd;fill:none;stroke:#000000;stroke-width:1.3744;stroke-linecap:round;}
	.st85{fill-rule:evenodd;clip-rule:evenodd;fill:none;stroke:#000000;stroke-width:3.0249;stroke-linecap:round;}
	.st86{fill-rule:evenodd;clip-rule:evenodd;fill:none;stroke:#000000;stroke-width:1.9593;stroke-linecap:round;}
	.st87{fill-rule:evenodd;clip-rule:evenodd;fill:none;stroke:#000000;stroke-width:3.0414;stroke-linecap:round;}
	.st88{fill-rule:evenodd;clip-rule:evenodd;fill:none;stroke:#000000;stroke-width:2.8723;stroke-linecap:round;}
	.st89{fill-rule:evenodd;clip-rule:evenodd;fill:none;stroke:#000000;stroke-width:1.5553;stroke-linecap:round;}
	.st90{fill-rule:evenodd;clip-rule:evenodd;fill:none;stroke:#000000;stroke-width:1.3565;stroke-linecap:round;}
	.st91{fill-rule:evenodd;clip-rule:evenodd;fill:none;stroke:#000000;stroke-width:1.3824;stroke-linecap:round;}
]]>
</style>
<g>
	<g>
		<path class="st46" d="M683,20c0.732,0.934,1.818,1.515,3,2c-0.994,3.715-2.136,2.614-1,7c-5.277-1.265-6.125,3.511-11-1
			c0.582,2.871-4.074,5.689-6,9l-0.5-1.5L666,36c1.317-10.35,5.99-17.343,16-19l-0.5,1.833L683,20z"/>
		<path class="st46" d="M678,57c-0.396-1.94,4.555-1.461,3,1c-0.667,0-1.333,0-2,0C679.184,57.149,678.61,57.057,678,57z"/>
		<path class="st46" d="M33,73c-0.658,2.995-2.138-0.956-4,0c0.7-3.078,0.7-1.922,0-5C31.701,68.299,30.793,72.207,33,73z"/>
		<path class="st46" d="M37,81c-0.437,1.23-1.28,2.054-3,2c0.127-1.794-1.224-2.109-1-4C36.236,77.764,33.764,82.236,37,81z"/>
		<path class="st46" d="M45,95c-3.101-1.085-5.63,0.309-6-5C41.286,91.381,45.239,91.094,45,95z"/>
		<path class="st46" d="M24,10c-3.425,2.499-8.845,9.361-12,6l0.5-1.5L12,13c0.561-5.439,5.26-6.74,12-6l-0.5,1.5L24,10z"/>
		<path class="st46" d="M11.5,23.5L12,22c1.182,1.151,3.535,1.132,6,1c0.282,1.615-0.945,1.722-1,3c0.667,0,1.333,0,2,0l-0.5,1.833
			L20,29c-0.241,1.759-1.721,2.279-4,2l0.5-1.5L15,30c-3.438-0.229-4.357-2.976-5-6L11.5,23.5z"/>
		<path class="st46" d="M27,51h-1c-3.19-3.185,2.038-10.793,9-10c-2.083,5.189,1.387,2.765,3,6c-0.01,5.324-7.914,2.753-11,5V51z"/>
		<path class="st46" d="M73,10c1.732-3.737,1.902-4.037,5-5c7.768-2.416,23.627,0,37,0c177.501,0,366.113-0.824,539,1
			c-0.473,3.14,2.691,2.642,3,5l-1.5,0.5L655,13c-6.217-5.023-24.977-3-41-3c-154.463,0-308.206,0-463,0
			c-24.229,0-50.402-3.134-71,0c-1.759,0.268-4.177,1.295-6,2l0.5-1.5L73,10z"/>
		<path class="st46" d="M715.5,13.5L716,15c-1.368,6.164-3.741-1.43-5,0c-3.558-0.442-4.38-3.62-7-5l1.5-1.167L705,7
			c3.863-0.197,7.369-0.036,10,1c1.745,2.039-0.745,1.961,1,4L715.5,13.5z"/>
		<path class="st46" d="M52,52c3.614-3.547,6.789,1.828,9,3l-0.5,1l0.5,1c-0.181,2.876-7.271,3.985-9,2l0.5-1.5L51,58
			c-1.236-3.236,3.236-0.764,2-4c-0.333,0-0.667,0-1,0l0.5-1L52,52z"/>
		<path class="st46" d="M48.5,68.5L48,67c1.763-2.063,3.097-0.875,4-2l1.5,0.5L53,64c4.036-0.038,7.998,9.548,5,10l-1-1.5L56,74
			c-2.519-1.148-5.714-1.62-7-4L48.5,68.5z"/>
		<path class="st46" d="M48.5,82.5L49,81c1.23,0.437,2.054,1.28,2,3l-2.667,0.333L48,87c-0.81,0.19-0.997,1.003-2,1l-1.167-1.5
			L43,87c-1.126-4.755,1.649-9.512,4-5L48.5,82.5z"/>
		<path class="st46" d="M46.5,74l0.5,1c-1.316,3.017-5.336,3.33-8,5l-1-1l-1,1c-0.924-1.642,1.217-8.744,4-10
			c-5.351-1.722-7.291,3.87-9,0c-1.438-1.759-0.917-2.279,2-2l1.5,0.5L35,67c3.042-0.958,2.025-5.975,7-5l-0.5,1.5L43,64
			c-0.19,0.81-1.003,0.997-1,2c1.419-0.086,2.832-0.165,3,1c1.658,3.135-4.986,2.819-2,4c1.461-1.431,3.873-1.47,3,2L46.5,74z"/>
		<path class="st46" d="M8.5,72.5L10,72c-0.297,289.997-1.954,577.572,1,869l-1.5-0.5L9,942c-0.333,0-0.667,0-1,0l-0.5-2.5L5,940
			C5,650.997,5,362.01,5,73l1.5-0.5L6,71c0.667,0,1.333,0,2,0L8.5,72.5z"/>
		<path class="st46" d="M20.786,942.643L19,943c2.308-7.576,16.042-5.277,19,0l-1.5,1.167L37,946c-1.667,0-3.333,0-5,0
			c-1.2-1.313-0.39-1.573,0-3c-6.271-1.689-6.515,5.475-10,1L20.786,942.643z"/>
		<path class="st46" d="M38.833,946.5L40,945c1.419-0.086,2.832-0.165,3,1c0.105,4.104,0.164,8.164-2,10l-1.167-1.5L38,955
			c0.256-3.923-3.617-3.717-3-8c1.163,0.162,1.779-0.221,2-1L38.833,946.5z"/>
		<path class="st46" d="M40.5,961.167L39,960c9.27-3.498,29.107-2,45-2c185.431,0,373.562,0,561,0c13.492,0,28.654-1.979,40,0
			c3.545,0.618,2.993,0.427,6,3l-1.5,0.5l0.5,1.5c-216.664,0-433.338,0-650,0L40.5,961.167z"/>
		<path class="st46" d="M699.25,959l-0.25,2c-3.249-0.085-6.151-0.516-8-2l0.5-1.5L691,956c2.998-4.202,8.224,4.005,14,0l0.5,1.5
			l0.5,1.5c-1.16,0.84-2.681,1.319-5,1L699.25,959z"/>
		<path class="st46" d="M689.167,954.5L688,956c-2.183-1.616-5.465-12.548,1-11l1.167,1.5L692,946c3.818,3.734-1.996,4.445-1,9
			L689.167,954.5z"/>
		<path class="st46" d="M692.5,944.167L691,943c3.548-7.204,20.713-6.699,20,4l-2,0.5l-2,0.5c0-0.667,0-1.333,0-2
			c-2.908-2.14-2.923-0.47-8-3c-3.273,0.927-2.743,5.65-7,3L692.5,944.167z"/>
		<path class="st46" d="M699.5,952.5L699,954c-2.917,0.251-3.45-1.883-5-3c1.632-2.368,2.551-5.449,6-6c3.481,2.142,4.819,6.024,1,8
			L699.5,952.5z"/>
		<path class="st46" d="M719.5,940.5L718,941c2.325-287.017,0.34-578.317,1-867l1.5,0.5L721,73c0.333,0,0.667,0,1,0l0.5,1.5L724,74
			c-0.643,288.361,1.301,579.291-1,866l-2.5-0.5l0.5,2.5c-0.333,0-0.667,0-1,0L719.5,940.5z"/>
		<path class="st46" d="M721.5,945.5l1.5,0.5c2.3,2.366,0.358,8.976,1,13c-3.409,3.607-12.051,7.262-19,4l1.5-0.5L706,961
			c2.197-1.136,3.322-3.345,6-4v1h1c3.705-0.333,7.461-5.82,6-8v-1h-1c0.521-1.479,1.479-2.521,2-4L721.5,945.5z"/>
		<path class="st46" d="M22.5,962l0.5,1c-6.275,2.672-15.753,0.617-18-4c-2.462-3.439,1.218-7.652,0-13l1.833,0.5L8,945
			c1.757,0.91,1.829,3.504,3,5h-1v1c-3.158,2.581,2.999,4.269,3,7c1.163,0.162,1.779-0.221,2-1h1v-1c2.276,1.391,3.874,3.459,6,5
			L22.5,962z"/>
		<path class="st46" d="M34.5,60.5L33,60c1.246-3.42,1.688-7.646,5-9c2.755,2.721,2.052,3.698,6,4c0.383,5.375-9.183,9.227-10,7
			L34.5,60.5z"/>
		<path class="st46" d="M47.357,18.786L47,17c8.882,2.118,14.104,7.896,15,18l-1.5-0.5L60,36c-1.185-3.534-8.583-4.393-4-8
			c-8.761,5.034-16.728-0.29-10-8L47.357,18.786z"/>
		<path class="st46" d="M46.786,44.643L45,45c0.676-3.72,9.715-7.976,10-3v1h1c-0.041,7.131-9.219,10.614-8,3L46.786,44.643z"/>
		<path class="st46" d="M682,46c-0.443,1.454-0.878-0.102-2,0c-1.928,0.102,1.553,3.727-1,5c-6.006,1.006-3.731-6.268-7-8
			c0.027-0.973,1.225-0.776,2-1l1.5-0.5L675,40c2.802,0.532,5.198,1.468,8,2c0,1,0,2,0,3l-1.5-0.5L682,46z"/>
		<path class="st46" d="M671.5,39.5L673,40c-0.903,1.743-2.237,3.852-4,2c1.595-0.738-0.229-4.895,3-4L671.5,39.5z"/>
		<path class="st46" d="M669.5,55.5L669,54c2.402-0.931,2.647-4.019,7-3c1.14,3.109-0.136,4.659,2,8l-1.5-0.5L677,60
			c-3.602,1.93-5.051-1.583-10-1c1.119-1.44,1.078-2.44-1-3c0.027-0.973,1.225-0.776,2-1L669.5,55.5z"/>
		<path class="st46" d="M679.5,83.5L681,83c1.172-0.162,0.844-1.823,1-3c4.63-1.225,5.73,10.378,3,10l-0.5-1.5L683,89
			c-1.763-0.903-3.097-2.237-4-4L679.5,83.5z"/>
		<path class="st46" d="M679.5,68l0.5,1c-1.478,3.522-6.605,3.395-8,7c-1.086-0.247-0.678-1.988-2-2v-1h-1
			c1.669-2.998,1.848-7.485,5-9c3.691,1.019,4.18,0.571,5,3L679.5,68z"/>
		<path class="st46" d="M689,52c5.08-0.413,5.417,3.916,6,8l-0.5,1l0.5,1c-0.973,0.027-0.775,1.224-1,2
			c-2.112-3.888-10.182-1.818-9-9c1.479-1.158,2.521-1.158,4,0c0-0.333,0-0.667,0-1l0.5-1L689,52z"/>
		<path class="st46" d="M695.643,70.214L697,69c0.805-0.529,1.623-1.043,3-1c-0.7,3.078-0.7,1.922,0,5c-1.419-0.086-2.832-0.165-3,1
			c-1.023-0.977-2.023-1.977-3-3L695.643,70.214z"/>
		<path class="st46" d="M692,68v2c-1.333,0-2.667,0-4,0l-0.5-2.25L687,70c-2.007,0.34-3.129-0.205-3-2l1.5-0.5L685,66
			c0.333,0,0.667,0,1,0c-0.776-0.89-1.075-2.258-1-4c4.72-1.053,5.616,1.717,7,4V68z"/>
		<path class="st46" d="M687.5,70.5L688,70c0,0.333,0,0.667,0,1L687.5,70.5L687,71c0-0.333,0-0.667,0-1L687.5,70.5z"/>
		<path class="st46" d="M687.5,72.5L688,71c3.672,0.329,0.889,7.111,5,7c-0.443,0.89-0.878,1.789-2,2l-1-0.5l-1,0.5
			c-1.908-1.426-4.342-2.325-7-3c0-1.667,0-3.333,0-5c1.161-0.839,2.681-1.319,5-1L687.5,72.5z"/>
		<path class="st46" d="M693,42c5.094-5.301,7.358,4.718,12,6c-0.426,1.907-2.857,1.81-2,5c-2.91-2.423-8.821-1.846-12-4
			c0-1.333,0-2.667,0-4c1.419,0.086,2.832,0.165,3-1l-0.5-1L693,42z"/>
		<path class="st46" d="M36,39C36.555,35.039,37.017,50.374,36,39L36,39z"/>
		<g>
			<path class="st54" d="M667.5,35.5c-1.383,4.456,0.713,8.861,2,13"/>
			<path class="st31" d="M690.617,21.324c1.527,0,2.736,0.927,3.931,1.751c1.078,2.322,0.773,5.521-1.048,7.425"/>
			<path class="st22" d="M690.617,21.324c-0.469,0.763-0.796,1.471-1.117,2.176"/>
			<path class="st64" d="M690.617,21.324c-1.864-3.09-5.978-3.236-9.117-2.49"/>
			<path class="st3" d="M720,43c0.161-4.133-1.217-8.018-2-12"/>
			<path class="st25" d="M710.5,47.5c0.23-0.103,0.462-0.205,0.693-0.307c1.668-4.014,3.26-8.211,2.807-12.693"/>
			<path class="st79" d="M665.5,58.5c-0.524-0.327-0.911-0.462-1.267-0.717c-0.124-0.282-0.181-0.777-0.233-1.283"/>
			<path class="st43" d="M18.5,27.833c0.667-0.302,1.333-0.813,2-1.333"/>
			<path class="st89" d="M16.5,29.5C10.125,38.413,18.531,49.186,24,54"/>
			<path class="st9" d="M24,54c0.406-1.4,1.985-2.327,3-3"/>
			<path class="st58" d="M24,54c-0.003,0.169-0.006,0.338-0.01,0.507c1.605,1.339,4.394,2.078,6.51,2.993"/>
			<path class="st29" d="M11.5,23.5c-1.336-2.782-1.228-6.728,1-9"/>
			<path class="st50" d="M35.5,6.5c11.321-0.192,22.797,0.228,34,2"/>
			<path class="st26" d="M16.5,20.5c4.163-7.119,13.069-8.872,19-14"/>
			<path class="st85" d="M35.5,6.5c-3.981-2.35-8.23,0.815-12,2"/>
			<path class="st63" d="M655.5,11.5c1.747,1.806,3.874,2.665,5.996,3.809c17.148-9.592,40.272-5.798,52.433,10.62"/>
			<path class="st19" d="M713.929,25.929c5.055-1.97,5.029-9.105,1.571-12.429"/>
			<path class="st74" d="M693.5,6.5c4.847,5.274,12.992,6.439,17.5,12.5"/>
			<path class="st21" d="M659.5,8.5c11.159-1.911,22.673-2.094,34-2"/>
			<path class="st39" d="M693.5,6.5c4.071-2.659,8.13,1.323,12,2.333"/>
			<path class="st14" d="M713.929,25.929c-0.942,2.697-4.851,2.617-6.429,0.571"/>
			<path class="st40" d="M20.5,20.5c0.097-0.236,0.194-0.473,0.292-0.708c9.71-8.706,20.273-11.636,32.351-9.053
				c6.873,1.47,14.993,7.642,20.298,0.399c0.353-0.212,0.707-0.425,1.06-0.637"/>
			<path class="st23" d="M60.5,56c0.61-0.306,1.833-0.471,2.859-0.345c0.738,0.56,0.749,1.607,0.145,2.158
				C63.336,57.876,63.168,57.938,63,58"/>
			<path class="st28" d="M47,62c1.218,1.979-0.448,4.774,1.5,6.5"/>
			<path class="st73" d="M51.5,64.5c0.667,0.12,1.333,0.552,2,1"/>
			<path class="st1" d="M59.5,76.5c-1.07-0.662-1.727-0.981-2.296-1.515C57.068,74.049,57.057,73.31,57,72.5"/>
			<path class="st38" d="M48.5,68.5c-0.937,1.688-0.103,3.729-0.75,5.5"/>
			<path class="st15" d="M47.75,74c0.204,2.851,0.595,5.644,0.75,8.5"/>
			<path class="st20" d="M49.5,92.5c-0.303-2.758,1.734-6.122-1.167-8.167"/>
			<path class="st13" d="M43.5,88.5c0.587-0.667,0.965-1.333,1.333-2"/>
			<path class="st42" d="M47.75,74c-0.417,0-0.833,0-1.25,0"/>
			<path class="st53" d="M38.5,81.5c-0.179-0.821-0.39-1.61-0.5-2.5"/>
			<path class="st5" d="M8.833,49.833c3.411,4.476,5.498,11.414,6.935,16.896c-1.959,1.359-3.603-1.476-5.428-0.517
				c-0.209,0.791-0.561,1.428-1.076,1.936C9.023,69.114,9.092,70.901,8.5,72.5"/>
			<path class="st18" d="M24.5,957.5c0.671-1.029,0.992-1.771,1.5-2.5"/>
			<path class="st87" d="M26,955c-4.979-1.021-9.366-7.997-5.214-12.357"/>
			<path class="st18" d="M29.75,959c-0.722,0.962-1.179,2.15-1.75,3"/>
			<path class="st6" d="M28,962c4.037,1.135,8.505,0.159,12.5-0.833"/>
			<path class="st77" d="M689.5,961.5c3.415,0.629,7.352,1.9,10.667,0.333"/>
			<path class="st55" d="M700.167,961.833c-0.073-0.503-0.47-1.719-0.917-2.833"/>
			<path class="st88" d="M691.5,957.5c-1.012-0.482-1.714-1.724-2.333-3"/>
			<path class="st43" d="M690.167,946.5c0.532-1.039,1.491-1.695,2.333-2.333"/>
			<path class="st71" d="M699.5,952.5c0.187,0.323,0.372,0.646,0.559,0.971c1.673,1.876,4.442,1.132,6.187-0.232
				c0.562-2.116,2.726-3.485,2.755-5.738"/>
			<path class="st32" d="M705.5,957.5c7.046-3.313,11.532-9.921,14-17"/>
			<path class="st81" d="M702.5,63.5c6.57-3.51,9.716-10.836,15.032-15.403c1.143,0.488,1.514,1.538,1.968,2.403"/>
			<path class="st67" d="M719.5,50.5c4.512,6.877,3.811,16.088,3,24"/>
			<path class="st42" d="M28,962c-1.833,0-3.667,0-5.5,0"/>
			<path class="st16" d="M6.833,946.5c-0.453-2.295-0.748-4.957,0.667-7"/>
			<path class="st47" d="M6.5,72.5c-2.174-7.178-1.063-16.142,2.333-22.667"/>
			<path class="st8" d="M8.833,49.833C8.775,49.058,9.33,48.302,10.5,47.5"/>
			<path class="st86" d="M10.5,47.5c-2.865-4.707-1.588-11.084,0-16"/>
			<path class="st7" d="M10.5,47.5c6.14,4.95,8.828,14.446,17.458,16.227c0.925-0.945,2.271-0.901,3.542-0.227"/>
			<path class="st45" d="M31.5,63.5c0.758-1.318,1.789-1.911,3-3"/>
			<path class="st78" d="M31.5,63.5c0.596,0.817,1.726,1.212,2.464,1.6c0.323,0.799,0.633,2.148,1.536,3.4"/>
			<path class="st49" d="M61.5,51.5c0.052-0.281,0.104-0.562,0.157-0.843c6.424-11.621,3.673-27.475-8.379-33.935
				c-10.991-5.89-30.741,0.52-22.759,16.397c0.657,0.197,1.319,0.291,1.982,0.38"/>
			<path class="st12" d="M32.5,33.5c3.731-3.723-1.502-11.2,5.578-12.916c0.251-0.028,0.503-0.056,0.755-0.084"/>
			<path class="st65" d="M38.833,20.5c2.208-2.214,5.64-2.332,8.523-1.714"/>
			<path class="st75" d="M58.5,48.5c2.63-3.976,3.091-9.398,2-14"/>
			<path class="st51" d="M38.833,20.5c0.242,0.782,0.462,1.804,0.667,3"/>
			<path class="st35" d="M32.5,33.5c6.147,1.553,7.728,8.345,11.5,12.5"/>
			<path class="st27" d="M44,46c1.276,0.128,2.175-0.523,2.786-1.357"/>
			<path class="st80" d="M55,43c1.052-0.358,2.235-1.619,1.755-2.758c-0.33-0.14-0.812-0.415-1.255-0.742"/>
			<path class="st2" d="M44,46c-1.407,1.247-1.171,2.69-0.877,3.605c0.807,0.205,1.221,1.381,2.044,2.561"/>
			<path class="st91" d="M45.167,52.167c2.093-0.348,3.201,2.379,5.333,2.333"/>
			<path class="st11" d="M50.5,54.5c0.851-0.879,1.382-1.153,2-1.5"/>
			<path class="st44" d="M45.167,52.167C45.73,53.779,44.65,56.66,46.5,57.5"/>
			<path class="st72" d="M50.5,54.5c-0.486,1.647-2.195,3.161-4,3"/>
			<path class="st53" d="M46.5,57.5c0.358,1.501-0.502,2.898-0.333,4.333"/>
			<path class="st42" d="M46.167,61.833C46.409,61.924,46.703,61.963,47,62"/>
			<path class="st52" d="M47,62c2.45-0.74,3.909-2.628,5.5-4.5"/>
			<path class="st84" d="M46.167,61.833c-0.313,0.542-0.602,0.971-0.889,1.396c-1.353,0.24-2.673,0.231-3.777,0.271"/>
			<path class="st57" d="M719.5,50.5c-3.25,4.334-5.475,10.417-6.584,15.865c0.476,0.361,0.974,0.469,1.473,0.565
				c1.379-0.873,3.229-1.399,4.323,0.212c0.516,2.468,1.167,4.907,1.788,7.357"/>
			<path class="st66" d="M10,950c2.039,2.325,3.558,4.982,6,7"/>
			<path class="st37" d="M24.5,957.5c-7.676-1.909-13.527-9.38-15-17"/>
			<path class="st10" d="M700.167,961.833c2.08,0.479,4.341-0.308,6.333,0.667"/>
			<path class="st36" d="M712,958c2.084-3.171,5.069-5.706,7-9"/>
			<path class="st83" d="M721.5,945.5c0.538-2.041,0.911-4.486-1-6"/>
			<path class="st55" d="M26,955c1.314-0.755,2.055-1.825,3-3"/>
			<path class="st62" d="M29,952c-0.679-0.529-1.39-0.771-2-1"/>
			<path class="st41" d="M29,952c0.878-0.423,1.657-1.093,2.034-1.532c0.062-0.603-0.598-1.767-1.534-2.968"/>
			<path class="st69" d="M24.5,957.5c1.386,1.493,3.607,0.559,5.25,1.5"/>
			<path class="st33" d="M29.75,959c3.298-1.322,8.166-1.022,10.083-4.5"/>
			<path class="st43" d="M38.833,946.5c-0.533-1.039-1.491-1.695-2.333-2.333"/>
			<path class="st17" d="M671.5,39.5c2.011-0.537,2.683,0.543,4,2"/>
			<path class="st48" d="M681.5,44.5c0.691,0.548,1.27,0.812,1.843,1.063c5.646-2.411,6.658-12.152,14.167-12.021
				c8.247-25.376-24.013-23.486-31.86-5.894c-2.554,5.725-3.763,18.684,2.621,25.066c0.094,0.858,0.637,1.831,1.229,2.784"/>
			<path class="st4" d="M681.5,61.5c1.109-2.849,1.648-6.612,1.447-9.16c-0.614,0.058-1.577,0.574-2.447,1.16"/>
			<path class="st90" d="M685.5,92.5c-0.904-1.546-0.836-2.863-1-4"/>
			<path class="st0" d="M679.5,83.5c-0.621,0.241-1.038,0.424-1.446,0.604c-0.516,0.875-0.877,1.696-0.966,2.322
				c1.983,1.684,1.338,4.31,1.412,6.574"/>
			<path class="st59" d="M679.5,83.5c1.111-5.003,0.818-10.464,0.5-15.5"/>
			<path class="st42" d="M680,68c-0.167,0-0.333,0-0.5,0"/>
			<path class="st56" d="M668.5,76.5c-0.301-0.404-0.602-0.808-0.903-1.211c0.438-1.203,1.63-1.646,2.403-2.289"/>
			<path class="st68" d="M680,68c0.314-2.281,1.733-4.095,1.5-6.5"/>
			<path class="st61" d="M681.5,61.5c-2.195,0.302-3.942-1.284-5-3"/>
			<path class="st13" d="M692,68c1.45,0.958,2.637,1.408,3.643,2.214"/>
			<path class="st30" d="M687.5,67.75c0,0.917,0,1.833,0,2.75"/>
			<path class="st30" d="M687.5,70.5c0,0.667,0,1.333,0,2"/>
			<path class="st24" d="M693.5,80.5c-0.048,0.284-0.096,0.568-0.143,0.853c-0.568,0.579-1.554,0.644-2.238,0.567
				c-0.565-0.888-0.912-1.702-1.119-2.42"/>
			<path class="st82" d="M683.5,67.5c0.471-0.379,1.229-0.153,2,0"/>
			<path class="st34" d="M692,68c1.657-1.538,2.251-2.89,3.586-3.71c0.32-1.255-0.171-2.432-0.626-3.09
				c-0.153-0.066-0.307-0.133-0.46-0.2"/>
			<path class="st76" d="M686.5,49.5c-0.041,1.041,0.236,1.763,0.554,2.446c0.906,0.506,1.726,0.856,2.446,1.054"/>
			<path class="st60" d="M692.5,39.5c-0.384,1.265-0.552,2.502-0.266,3.228c0.272,0.147,0.764,0.211,1.266,0.272"/>
			<path class="st70" d="M698.5,57.5c2.76-1.341,5.644-2.79,7-5.5"/>
		</g>
	</g>
</g>
</svg>
