<?xml version="1.0" encoding="utf-8"?>
<!-- Generator: Adobe Illustrator 14.0.0, SVG Export Plug-In . SVG Version: 6.00 Build 43363)  -->
<!DOCTYPE svg PUBLIC "-//W3C//DTD SVG 1.1//EN" "http://www.w3.org/Graphics/SVG/1.1/DTD/svg11.dtd">
<svg version="1.1" id="Layer_1" xmlns="http://www.w3.org/2000/svg" xmlns:xlink="http://www.w3.org/1999/xlink" x="0px" y="0px"
	 width="575.861px" height="756.404px" viewBox="0 0 575.861 756.404" style="enable-background:new 0 0 575.861 756.404;"
	 xml:space="preserve"> 
<style type="text/css">
<![CDATA[
	.st0{fill:#000000}
]]>
</style>
<g>
	<rect class="st0" x="19.022" y="3.824" transform="matrix(-0.7071 0.7071 -0.7071 -0.7071 44.0149 -9.2848)" width="9.817" height="1.3"/>
	<rect class="st0" x="23.022" y="3.824" transform="matrix(-0.7071 0.7071 -0.7071 -0.7071 50.8434 -12.1132)" width="9.817" height="1.3"/>
	<rect class="st0" x="27.022" y="3.824" transform="matrix(-0.7072 0.7071 -0.7071 -0.7072 57.674 -14.9402)" width="9.818" height="1.3"/>
	<rect class="st0" x="31.023" y="3.824" transform="matrix(-0.7071 0.7071 -0.7071 -0.7071 64.5019 -17.7708)" width="9.817" height="1.3"/>
	<rect class="st0" x="35.023" y="3.824" transform="matrix(-0.7071 0.7071 -0.7071 -0.7071 71.3303 -20.5992)" width="9.817" height="1.3"/>
	<rect class="st0" x="39.023" y="3.824" transform="matrix(-0.7071 0.7071 -0.7071 -0.7071 78.1588 -23.4276)" width="9.817" height="1.3"/>
	<rect class="st0" x="43.023" y="3.824" transform="matrix(-0.7072 0.7071 -0.7071 -0.7072 84.9902 -26.2538)" width="9.818" height="1.3"/>
	<rect class="st0" x="47.024" y="3.824" transform="matrix(-0.7071 0.7071 -0.7071 -0.7071 91.8173 -29.0852)" width="9.817" height="1.3"/>
	<rect class="st0" x="51.024" y="3.824" transform="matrix(-0.7071 0.7071 -0.7071 -0.7071 98.6457 -31.9136)" width="9.817" height="1.3"/>
	<rect class="st0" x="55.024" y="3.824" transform="matrix(-0.7071 0.7071 -0.7071 -0.7071 105.4741 -34.742)" width="9.817" height="1.3"/>
	<rect class="st0" x="59.024" y="3.824" transform="matrix(-0.7071 0.7071 -0.7071 -0.7071 112.3026 -37.5705)" width="9.817" height="1.3"/>
	<rect class="st0" x="63.024" y="3.824" transform="matrix(-0.7072 0.7071 -0.7071 -0.7072 119.135 -40.3956)" width="9.818" height="1.3"/>
	<rect class="st0" x="67.025" y="3.824" transform="matrix(-0.7071 0.7071 -0.7071 -0.7071 125.9611 -43.228)" width="9.817" height="1.3"/>
	<rect class="st0" x="71.025" y="3.824" transform="matrix(-0.7071 0.7071 -0.7071 -0.7071 132.7895 -46.0564)" width="9.817" height="1.3"/>
	<rect class="st0" x="75.025" y="3.824" transform="matrix(-0.7071 0.7071 -0.7071 -0.7071 139.6179 -48.8849)" width="9.817" height="1.3"/>
	<rect class="st0" x="79.025" y="3.824" transform="matrix(-0.7072 0.7071 -0.7071 -0.7072 146.4511 -51.7092)" width="9.818" height="1.3"/>
	<rect class="st0" x="83.026" y="3.824" transform="matrix(-0.7071 0.7071 -0.7071 -0.7071 153.2764 -54.5424)" width="9.817" height="1.3"/>
	<rect class="st0" x="87.026" y="3.824" transform="matrix(-0.7071 0.7071 -0.7071 -0.7071 160.1049 -57.3708)" width="9.817" height="1.3"/>
	<rect class="st0" x="91.026" y="3.824" transform="matrix(-0.7071 0.7071 -0.7071 -0.7071 166.9333 -60.1993)" width="9.817" height="1.3"/>
	<rect class="st0" x="95.026" y="3.824" transform="matrix(-0.7071 0.7071 -0.7071 -0.7071 173.7617 -63.0277)" width="9.817" height="1.3"/>
	<rect class="st0" x="99.026" y="3.824" transform="matrix(-0.7072 0.7071 -0.7071 -0.7072 180.5959 -65.8511)" width="9.818" height="1.3"/>
	<rect class="st0" x="103.027" y="3.824" transform="matrix(-0.7071 0.7071 -0.7071 -0.7071 187.4203 -68.6852)" width="9.817" height="1.3"/>
	<rect class="st0" x="107.027" y="3.824" transform="matrix(-0.7071 0.7071 -0.7071 -0.7071 194.2487 -71.5137)" width="9.817" height="1.3"/>
	<rect class="st0" x="111.027" y="3.824" transform="matrix(-0.7071 0.7071 -0.7071 -0.7071 201.0771 -74.3421)" width="9.817" height="1.3"/>
	<rect class="st0" x="115.027" y="3.824" transform="matrix(-0.7071 0.7071 -0.7071 -0.7071 207.9055 -77.1705)" width="9.817" height="1.3"/>
	<rect class="st0" x="119.028" y="3.824" transform="matrix(-0.7071 0.7071 -0.7071 -0.7071 214.7356 -79.9996)" width="9.817" height="1.3"/>
	<rect class="st0" x="123.028" y="3.824" transform="matrix(-0.7071 0.7071 -0.7071 -0.7071 221.5641 -82.8281)" width="9.817" height="1.3"/>
	<rect class="st0" x="127.028" y="3.824" transform="matrix(-0.7071 0.7071 -0.7071 -0.7071 228.3925 -85.6565)" width="9.817" height="1.3"/>
	<rect class="st0" x="131.028" y="3.824" transform="matrix(-0.7071 0.7071 -0.7071 -0.7071 235.2209 -88.4849)" width="9.817" height="1.3"/>
	<rect class="st0" x="135.028" y="3.824" transform="matrix(-0.7072 0.7071 -0.7071 -0.7072 242.0569 -91.3065)" width="9.818" height="1.3"/>
	<rect class="st0" x="139.029" y="3.824" transform="matrix(-0.7071 0.7071 -0.7071 -0.7071 248.8794 -94.1425)" width="9.817" height="1.3"/>
	<rect class="st0" x="143.029" y="3.824" transform="matrix(-0.7071 0.7071 -0.7071 -0.7071 255.7079 -96.9709)" width="9.817" height="1.3"/>
	<rect class="st0" x="147.029" y="3.824" transform="matrix(-0.7071 0.7071 -0.7071 -0.7071 262.5363 -99.7993)" width="9.817" height="1.3"/>
	<rect class="st0" x="151.029" y="3.824" transform="matrix(-0.7071 0.7071 -0.7071 -0.7071 269.3647 -102.6277)" width="9.817" height="1.3"/>
	<rect class="st0" x="155.03" y="3.824" transform="matrix(-0.7071 0.7071 -0.7071 -0.7071 276.1948 -105.4569)" width="9.817" height="1.3"/>
	<rect class="st0" x="159.03" y="3.824" transform="matrix(-0.7071 0.7071 -0.7071 -0.7071 283.0232 -108.2853)" width="9.817" height="1.3"/>
	<rect class="st0" x="163.03" y="3.824" transform="matrix(-0.7071 0.7071 -0.7071 -0.7071 289.8517 -111.1137)" width="9.817" height="1.3"/>
	<rect class="st0" x="167.03" y="3.824" transform="matrix(-0.7071 0.7071 -0.7071 -0.7071 296.6801 -113.9421)" width="9.817" height="1.3"/>
	<rect class="st0" x="171.03" y="3.824" transform="matrix(-0.7072 0.7071 -0.7071 -0.7072 303.5179 -116.7619)" width="9.818" height="1.3"/>
	<rect class="st0" x="175.031" y="3.824" transform="matrix(-0.7071 0.7071 -0.7071 -0.7071 310.3386 -119.5997)" width="9.817" height="1.3"/>
	<rect class="st0" x="179.031" y="3.824" transform="matrix(-0.7071 0.7071 -0.7071 -0.7071 317.1671 -122.4281)" width="9.817" height="1.3"/>
	<rect class="st0" x="183.031" y="3.824" transform="matrix(-0.7071 0.7071 -0.7071 -0.7071 323.9955 -125.2565)" width="9.817" height="1.3"/>
	<rect class="st0" x="187.031" y="3.824" transform="matrix(-0.7071 0.7071 -0.7071 -0.7071 330.8239 -128.085)" width="9.817" height="1.3"/>
	<rect class="st0" x="191.032" y="3.824" transform="matrix(-0.7071 0.7071 -0.7071 -0.7071 337.654 -130.9141)" width="9.817" height="1.3"/>
	<rect class="st0" x="195.032" y="3.824" transform="matrix(-0.7071 0.7071 -0.7071 -0.7071 344.4824 -133.7425)" width="9.817" height="1.3"/>
	<rect class="st0" x="199.032" y="3.824" transform="matrix(-0.7071 0.7071 -0.7071 -0.7071 351.3109 -136.5709)" width="9.817" height="1.3"/>
	<rect class="st0" x="203.032" y="3.824" transform="matrix(-0.7071 0.7071 -0.7071 -0.7071 358.1393 -139.3994)" width="9.817" height="1.3"/>
	<rect class="st0" x="207.032" y="3.824" transform="matrix(-0.7072 0.7071 -0.7071 -0.7072 364.9789 -142.2174)" width="9.818" height="1.3"/>
	<rect class="st0" x="211.033" y="3.824" transform="matrix(-0.7071 0.7071 -0.7071 -0.7071 371.7978 -145.0569)" width="9.817" height="1.3"/>
	<rect class="st0" x="215.033" y="3.824" transform="matrix(-0.7071 0.7071 -0.7071 -0.7071 378.6262 -147.8853)" width="9.817" height="1.3"/>
	<rect class="st0" x="219.033" y="3.824" transform="matrix(-0.7071 0.7071 -0.7071 -0.7071 385.4547 -150.7138)" width="9.817" height="1.3"/>
	<rect class="st0" x="223.033" y="3.824" transform="matrix(-0.7071 0.7071 -0.7071 -0.7071 392.2831 -153.5422)" width="9.817" height="1.3"/>
	<rect class="st0" x="227.033" y="3.824" transform="matrix(-0.7071 0.7071 -0.7071 -0.7071 399.1132 -156.3713)" width="9.817" height="1.3"/>
	<rect class="st0" x="231.033" y="3.824" transform="matrix(-0.7071 0.7071 -0.7071 -0.7071 405.9416 -159.1997)" width="9.817" height="1.3"/>
	<rect class="st0" x="235.033" y="3.824" transform="matrix(-0.7071 0.7071 -0.7071 -0.7071 412.77 -162.0282)" width="9.817" height="1.3"/>
	<rect class="st0" x="239.033" y="3.824" transform="matrix(-0.7071 0.7071 -0.7071 -0.7071 419.5984 -164.8566)" width="9.817" height="1.3"/>
	<rect class="st0" x="243.034" y="3.824" transform="matrix(-0.7072 0.7071 -0.7071 -0.7072 426.4398 -167.6728)" width="9.818" height="1.3"/>
	<rect class="st0" x="247.034" y="3.824" transform="matrix(-0.7071 0.7071 -0.7071 -0.7071 433.257 -170.5141)" width="9.817" height="1.3"/>
	<rect class="st0" x="251.034" y="3.824" transform="matrix(-0.7071 0.7071 -0.7071 -0.7071 440.0854 -173.3426)" width="9.817" height="1.3"/>
	<rect class="st0" x="255.034" y="3.824" transform="matrix(-0.7071 0.7071 -0.7071 -0.7071 446.9138 -176.171)" width="9.817" height="1.3"/>
	<rect class="st0" x="259.034" y="3.824" transform="matrix(-0.7071 0.7071 -0.7071 -0.7071 453.7422 -178.9994)" width="9.817" height="1.3"/>
	<rect class="st0" x="263.035" y="3.824" transform="matrix(-0.7072 0.7071 -0.7071 -0.7072 460.5846 -181.8146)" width="9.818" height="1.3"/>
	<rect class="st0" x="267.035" y="3.824" transform="matrix(-0.7071 0.7071 -0.7071 -0.7071 467.4008 -184.657)" width="9.817" height="1.3"/>
	<rect class="st0" x="271.035" y="3.824" transform="matrix(-0.7071 0.7071 -0.7071 -0.7071 474.2292 -187.4854)" width="9.817" height="1.3"/>
	<rect class="st0" x="275.035" y="3.824" transform="matrix(-0.7071 0.7071 -0.7071 -0.7071 481.0576 -190.3138)" width="9.817" height="1.3"/>
	<rect class="st0" x="279.036" y="3.824" transform="matrix(-0.7072 0.707 -0.707 -0.7072 487.9081 -193.1213)" width="9.818" height="1.3"/>
	<rect class="st0" x="283.036" y="3.823" transform="matrix(-0.7072 0.7071 -0.7071 -0.7072 494.7302 -195.9568)" width="9.818" height="1.3"/>
	<rect class="st0" x="287.036" y="3.823" transform="matrix(-0.7071 0.7071 -0.7071 -0.7071 501.5521 -198.7926)" width="9.818" height="1.3"/>
	<rect class="st0" x="291.036" y="3.823" transform="matrix(-0.7071 0.7071 -0.7071 -0.7071 508.3806 -201.6209)" width="9.818" height="1.3"/>
	<rect class="st0" x="295.036" y="3.823" transform="matrix(-0.7071 0.7071 -0.7071 -0.7071 515.2092 -204.4493)" width="9.818" height="1.3"/>
	<rect class="st0" x="299.037" y="3.823" transform="matrix(-0.7072 0.707 -0.707 -0.7072 522.0534 -207.2626)" width="9.818" height="1.3"/>
	<rect class="st0" x="303.037" y="3.823" transform="matrix(-0.7071 0.7071 -0.7071 -0.7071 528.8679 -210.1066)" width="9.818" height="1.3"/>
	<rect class="st0" x="307.037" y="3.823" transform="matrix(-0.7071 0.7071 -0.7071 -0.7071 535.6964 -212.9349)" width="9.818" height="1.3"/>
	<rect class="st0" x="311.037" y="3.823" transform="matrix(-0.7071 0.7071 -0.7071 -0.7071 542.5249 -215.7633)" width="9.818" height="1.3"/>
	<rect class="st0" x="315.038" y="3.823" transform="matrix(-0.7072 0.707 -0.707 -0.7072 549.37 -218.5758)" width="9.818" height="1.3"/>
	<rect class="st0" x="319.038" y="3.823" transform="matrix(-0.7071 0.7071 -0.7071 -0.7071 556.1837 -221.4206)" width="9.818" height="1.3"/>
	<rect class="st0" x="323.038" y="3.823" transform="matrix(-0.7071 0.7071 -0.7071 -0.7071 563.0122 -224.2489)" width="9.818" height="1.3"/>
	<rect class="st0" x="327.038" y="3.823" transform="matrix(-0.7071 0.7071 -0.7071 -0.7071 569.8407 -227.0773)" width="9.818" height="1.3"/>
	<rect class="st0" x="331.038" y="3.823" transform="matrix(-0.7071 0.7071 -0.7071 -0.7071 576.6693 -229.9056)" width="9.818" height="1.3"/>
	<rect class="st0" x="335.039" y="3.823" transform="matrix(-0.7072 0.707 -0.707 -0.7072 583.5153 -232.7171)" width="9.818" height="1.3"/>
	<rect class="st0" x="339.039" y="3.823" transform="matrix(-0.7071 0.7071 -0.7071 -0.7071 590.3279 -235.5629)" width="9.818" height="1.3"/>
	<rect class="st0" x="343.039" y="3.823" transform="matrix(-0.7071 0.7071 -0.7071 -0.7071 597.1565 -238.3913)" width="9.818" height="1.3"/>
	<rect class="st0" x="347.039" y="3.823" transform="matrix(-0.7071 0.7071 -0.7071 -0.7071 603.985 -241.2196)" width="9.818" height="1.3"/>
	<rect class="st0" x="351.04" y="3.823" transform="matrix(-0.7072 0.707 -0.707 -0.7072 610.8318 -244.0303)" width="9.818" height="1.3"/>
	<rect class="st0" x="355.04" y="3.823" transform="matrix(-0.7071 0.7071 -0.7071 -0.7071 617.6437 -246.8769)" width="9.818" height="1.3"/>
	<rect class="st0" x="359.04" y="3.823" transform="matrix(-0.7071 0.7071 -0.7071 -0.7071 624.4723 -249.7053)" width="9.818" height="1.3"/>
	<rect class="st0" x="363.04" y="3.823" transform="matrix(-0.7071 0.7071 -0.7071 -0.7071 631.3008 -252.5336)" width="9.818" height="1.3"/>
	<rect class="st0" x="367.04" y="3.823" transform="matrix(-0.7071 0.7071 -0.7071 -0.7071 638.1293 -255.3619)" width="9.818" height="1.3"/>
	<rect class="st0" x="371.041" y="3.823" transform="matrix(-0.7072 0.707 -0.707 -0.7072 644.9772 -258.1717)" width="9.818" height="1.3"/>
	<rect class="st0" x="375.041" y="3.823" transform="matrix(-0.7071 0.7071 -0.7071 -0.7071 651.788 -261.0193)" width="9.818" height="1.3"/>
	<rect class="st0" x="379.041" y="3.823" transform="matrix(-0.7071 0.7071 -0.7071 -0.7071 658.6166 -263.8476)" width="9.818" height="1.3"/>
	<rect class="st0" x="383.041" y="3.823" transform="matrix(-0.7071 0.7071 -0.7071 -0.7071 665.4451 -266.6759)" width="9.818" height="1.3"/>
	<rect class="st0" x="387.041" y="3.823" transform="matrix(-0.7071 0.7071 -0.7071 -0.7071 672.2736 -269.5042)" width="9.818" height="1.3"/>
	<rect class="st0" x="391.042" y="3.823" transform="matrix(-0.7071 0.7071 -0.7071 -0.7071 679.1038 -272.3333)" width="9.818" height="1.3"/>
	<rect class="st0" x="395.042" y="3.823" transform="matrix(-0.7071 0.7071 -0.7071 -0.7071 685.9323 -275.1616)" width="9.818" height="1.3"/>
	<rect class="st0" x="399.042" y="3.823" transform="matrix(-0.7071 0.7071 -0.7071 -0.7071 692.7609 -277.9899)" width="9.818" height="1.3"/>
	<rect class="st0" x="403.042" y="3.823" transform="matrix(-0.7071 0.7071 -0.7071 -0.7071 699.5894 -280.8183)" width="9.818" height="1.3"/>
	<rect class="st0" x="407.042" y="3.823" transform="matrix(-0.7072 0.707 -0.707 -0.7072 706.439 -283.6262)" width="9.818" height="1.3"/>
	<rect class="st0" x="411.043" y="3.823" transform="matrix(-0.7071 0.7071 -0.7071 -0.7071 713.2481 -286.4756)" width="9.818" height="1.3"/>
	<rect class="st0" x="415.043" y="3.823" transform="matrix(-0.7071 0.7071 -0.7071 -0.7071 720.0767 -289.3039)" width="9.818" height="1.3"/>
	<rect class="st0" x="419.043" y="3.823" transform="matrix(-0.7071 0.7071 -0.7071 -0.7071 726.9052 -292.1323)" width="9.818" height="1.3"/>
	<rect class="st0" x="423.043" y="3.823" transform="matrix(-0.7071 0.7071 -0.7071 -0.7071 733.7336 -294.9606)" width="9.818" height="1.3"/>
	<rect class="st0" x="427.044" y="3.823" transform="matrix(-0.7071 0.7071 -0.7071 -0.7071 740.5638 -297.7896)" width="9.818" height="1.3"/>
	<rect class="st0" x="431.044" y="3.823" transform="matrix(-0.7071 0.7071 -0.7071 -0.7071 747.3924 -300.6179)" width="9.818" height="1.3"/>
	<rect class="st0" x="435.044" y="3.823" transform="matrix(-0.7071 0.7071 -0.7071 -0.7071 754.2209 -303.4463)" width="9.818" height="1.3"/>
	<rect class="st0" x="439.044" y="3.823" transform="matrix(-0.7071 0.7071 -0.7071 -0.7071 761.0494 -306.2746)" width="9.818" height="1.3"/>
	<rect class="st0" x="443.044" y="3.823" transform="matrix(-0.7072 0.707 -0.707 -0.7072 767.9009 -309.0808)" width="9.818" height="1.3"/>
	<rect class="st0" x="447.045" y="3.823" transform="matrix(-0.7071 0.7071 -0.7071 -0.7071 774.7081 -311.9319)" width="9.818" height="1.3"/>
	<rect class="st0" x="451.045" y="3.823" transform="matrix(-0.7071 0.7071 -0.7071 -0.7071 781.5367 -314.7603)" width="9.818" height="1.3"/>
	<rect class="st0" x="455.045" y="3.823" transform="matrix(-0.7071 0.7071 -0.7071 -0.7071 788.3652 -317.5886)" width="9.818" height="1.3"/>
	<rect class="st0" x="459.045" y="3.823" transform="matrix(-0.7071 0.7071 -0.7071 -0.7071 795.1937 -320.4169)" width="9.818" height="1.3"/>
	<rect class="st0" x="463.046" y="3.823" transform="matrix(-0.7071 0.7071 -0.7071 -0.7071 802.0239 -323.2459)" width="9.818" height="1.3"/>
	<rect class="st0" x="467.046" y="3.823" transform="matrix(-0.7071 0.7071 -0.7071 -0.7071 808.8525 -326.0743)" width="9.818" height="1.3"/>
	<rect class="st0" x="471.046" y="3.823" transform="matrix(-0.7071 0.7071 -0.7071 -0.7071 815.681 -328.9026)" width="9.818" height="1.3"/>
	<rect class="st0" x="475.046" y="3.823" transform="matrix(-0.7071 0.7071 -0.7071 -0.7071 822.5095 -331.7309)" width="9.818" height="1.3"/>
	<rect class="st0" x="479.046" y="3.823" transform="matrix(-0.7072 0.707 -0.707 -0.7072 829.3627 -334.5353)" width="9.818" height="1.3"/>
	<rect class="st0" x="483.047" y="3.823" transform="matrix(-0.7071 0.7071 -0.7071 -0.7071 836.1682 -337.3883)" width="9.818" height="1.3"/>
	<rect class="st0" x="487.047" y="3.823" transform="matrix(-0.7071 0.7071 -0.7071 -0.7071 842.9968 -340.2166)" width="9.818" height="1.3"/>
	<rect class="st0" x="491.047" y="3.823" transform="matrix(-0.7071 0.7071 -0.7071 -0.7071 849.8253 -343.0449)" width="9.818" height="1.3"/>
	<rect class="st0" x="495.047" y="3.823" transform="matrix(-0.7071 0.7071 -0.7071 -0.7071 856.6538 -345.8733)" width="9.818" height="1.3"/>
	<rect class="st0" x="499.047" y="3.823" transform="matrix(-0.7072 0.707 -0.707 -0.7072 863.508 -348.6766)" width="9.818" height="1.3"/>
	<rect class="st0" x="503.048" y="3.823" transform="matrix(-0.7071 0.7071 -0.7071 -0.7071 870.3125 -351.5306)" width="9.818" height="1.3"/>
	<rect class="st0" x="507.048" y="3.823" transform="matrix(-0.7071 0.7071 -0.7071 -0.7071 877.1411 -354.3589)" width="9.818" height="1.3"/>
	<rect class="st0" x="511.048" y="3.823" transform="matrix(-0.7071 0.7071 -0.7071 -0.7071 883.9696 -357.1873)" width="9.818" height="1.3"/>
	<rect class="st0" x="515.048" y="3.823" transform="matrix(-0.7072 0.707 -0.707 -0.7072 890.8246 -359.9899)" width="9.818" height="1.3"/>
	<rect class="st0" x="519.049" y="3.823" transform="matrix(-0.7071 0.7071 -0.7071 -0.7071 897.6283 -362.8446)" width="9.818" height="1.3"/>
	<rect class="st0" x="523.049" y="3.823" transform="matrix(-0.7071 0.7071 -0.7071 -0.7071 904.4568 -365.6729)" width="9.818" height="1.3"/>
	<rect class="st0" x="527.049" y="3.823" transform="matrix(-0.7071 0.7071 -0.7071 -0.7071 911.2854 -368.5013)" width="9.818" height="1.3"/>
	<rect class="st0" x="531.049" y="3.823" transform="matrix(-0.7071 0.7071 -0.7071 -0.7071 918.1139 -371.3296)" width="9.818" height="1.3"/>
	<rect class="st0" x="535.05" y="3.823" transform="matrix(-0.7071 0.7071 -0.7071 -0.7071 924.9441 -374.1586)" width="9.818" height="1.3"/>
	<rect class="st0" x="539.05" y="3.823" transform="matrix(-0.7071 0.7071 -0.7071 -0.7071 931.7726 -376.9869)" width="9.818" height="1.3"/>
	<rect class="st0" x="543.05" y="3.823" transform="matrix(-0.7071 0.7071 -0.7071 -0.7071 938.6011 -379.8152)" width="9.818" height="1.3"/>
	<rect class="st0" x="547.05" y="3.823" transform="matrix(-0.7071 0.7071 -0.7071 -0.7071 945.4297 -382.6436)" width="9.818" height="1.3"/>
	<rect class="st0" x="551.05" y="3.823" transform="matrix(-0.7072 0.707 -0.707 -0.7072 952.2864 -385.4444)" width="9.818" height="1.3"/>
	<rect class="st0" x="555.308" y="4.06" transform="matrix(-0.7647 0.6444 -0.6444 -0.7647 991.8594 -352.739)" width="10.04" height="1.3"/>
	
		<rect class="st0" x="559.812" y="5.132" transform="matrix(-0.8951 0.4459 -0.4459 -0.8951 1072.6683 -240.843)" width="9.717" height="1.301"/>
	<rect class="st0" x="563.248" y="7.277" transform="matrix(-0.9943 0.1069 -0.1069 -0.9943 1133.5458 -44.899)" width="9.457" height="1.3"/>
	<rect class="st0" x="565.437" y="10.255" transform="matrix(-0.9685 -0.249 0.249 -0.9685 1119.6451 163.4498)" width="9.449" height="1.3"/>
	<rect class="st0" x="566.504" y="13.743" transform="matrix(0.8485 0.5291 -0.5291 0.8485 94.1444 -300.1172)" width="9.626" height="1.3"/>
	
		<rect class="st0" x="567.069" y="17.175" transform="matrix(-0.7548 -0.6559 0.6559 -0.7548 991.7407 406.3559)" width="9.496" height="1.301"/>
	<rect class="st0" x="567.022" y="20.818" transform="matrix(-0.7071 -0.7071 0.7071 -0.7071 961.1506 441.0785)" width="9.817" height="1.3"/>
	<rect class="st0" x="567.022" y="24.818" transform="matrix(-0.7071 -0.7071 0.7071 -0.7071 958.322 447.9068)" width="9.817" height="1.3"/>
	<rect class="st0" x="567.021" y="28.819" transform="matrix(-0.707 -0.7072 0.7072 -0.707 955.4633 454.7629)" width="9.818" height="1.3"/>
	<rect class="st0" x="567.022" y="32.819" transform="matrix(-0.7071 -0.7071 0.7071 -0.7071 952.6643 461.5651)" width="9.817" height="1.3"/>
	<rect class="st0" x="567.022" y="36.819" transform="matrix(-0.7071 -0.7071 0.7071 -0.7071 949.8358 468.3935)" width="9.817" height="1.3"/>
	<rect class="st0" x="567.022" y="40.819" transform="matrix(-0.7071 -0.7071 0.7071 -0.7071 947.0072 475.2218)" width="9.817" height="1.3"/>
	<rect class="st0" x="567.021" y="44.82" transform="matrix(-0.707 -0.7072 0.7072 -0.707 944.1476 482.0771)" width="9.818" height="1.3"/>
	<rect class="st0" x="567.022" y="48.82" transform="matrix(-0.7071 -0.7071 0.7071 -0.7071 941.3495 488.8801)" width="9.817" height="1.3"/>
	<rect class="st0" x="567.022" y="52.82" transform="matrix(-0.7071 -0.7071 0.7071 -0.7071 938.521 495.7084)" width="9.817" height="1.3"/>
	<rect class="st0" x="567.022" y="56.82" transform="matrix(-0.7071 -0.7071 0.7071 -0.7071 935.6924 502.5368)" width="9.817" height="1.3"/>
	<rect class="st0" x="567.022" y="60.82" transform="matrix(-0.7071 -0.7071 0.7071 -0.7071 932.8639 509.3651)" width="9.817" height="1.3"/>
	<rect class="st0" x="567.021" y="64.821" transform="matrix(-0.707 -0.7072 0.7072 -0.707 930.0033 516.2194)" width="9.818" height="1.3"/>
	<rect class="st0" x="567.022" y="68.821" transform="matrix(-0.7071 -0.7071 0.7071 -0.7071 927.2062 523.0234)" width="9.817" height="1.3"/>
	<rect class="st0" x="567.022" y="72.821" transform="matrix(-0.7071 -0.7071 0.7071 -0.7071 924.3777 529.8517)" width="9.817" height="1.3"/>
	<rect class="st0" x="567.022" y="76.821" transform="matrix(-0.7071 -0.7071 0.7071 -0.7071 921.5491 536.6801)" width="9.817" height="1.3"/>
	<rect class="st0" x="567.021" y="80.822" transform="matrix(-0.707 -0.7072 0.7072 -0.707 918.6877 543.5336)" width="9.818" height="1.3"/>
	<rect class="st0" x="567.022" y="84.822" transform="matrix(-0.7071 -0.7071 0.7071 -0.7071 915.8914 550.3384)" width="9.817" height="1.3"/>
	<rect class="st0" x="567.022" y="88.822" transform="matrix(-0.7071 -0.7071 0.7071 -0.7071 913.0629 557.1667)" width="9.817" height="1.3"/>
	<rect class="st0" x="567.022" y="92.822" transform="matrix(-0.7071 -0.7071 0.7071 -0.7071 910.2343 563.9951)" width="9.817" height="1.3"/>
	<rect class="st0" x="567.022" y="96.822" transform="matrix(-0.7071 -0.7071 0.7071 -0.7071 907.4058 570.8234)" width="9.817" height="1.3"/>
	<rect class="st0" x="567.021" y="100.823" transform="matrix(-0.707 -0.7072 0.7072 -0.707 904.5434 577.6759)" width="9.818" height="1.3"/>
	<rect class="st0" x="567.022" y="104.823" transform="matrix(-0.7071 -0.7071 0.7071 -0.7071 901.748 584.4817)" width="9.817" height="1.3"/>
	<rect class="st0" x="567.022" y="108.823" transform="matrix(-0.7071 -0.7071 0.7071 -0.7071 898.9196 591.3101)" width="9.817" height="1.3"/>
	<rect class="st0" x="567.022" y="112.823" transform="matrix(-0.7071 -0.7071 0.7071 -0.7071 896.091 598.1383)" width="9.817" height="1.3"/>
	<rect class="st0" x="567.022" y="116.823" transform="matrix(-0.7071 -0.7071 0.7071 -0.7071 893.2625 604.9667)" width="9.817" height="1.3"/>
	<rect class="st0" x="567.022" y="120.824" transform="matrix(-0.7071 -0.7071 0.7071 -0.7071 890.4332 611.7966)" width="9.817" height="1.3"/>
	<rect class="st0" x="567.022" y="124.824" transform="matrix(-0.7071 -0.7071 0.7071 -0.7071 887.6047 618.625)" width="9.817" height="1.3"/>
	<rect class="st0" x="567.022" y="128.824" transform="matrix(-0.7071 -0.7071 0.7071 -0.7071 884.7762 625.4533)" width="9.817" height="1.3"/>
	<rect class="st0" x="567.022" y="132.824" transform="matrix(-0.7071 -0.7071 0.7071 -0.7071 881.9476 632.2816)" width="9.817" height="1.3"/>
	<rect class="st0" x="567.021" y="136.825" transform="matrix(-0.707 -0.7072 0.7072 -0.707 879.0835 639.1324)" width="9.818" height="1.3"/>
	<rect class="st0" x="567.022" y="140.825" transform="matrix(-0.7071 -0.7071 0.7071 -0.7071 876.2899 645.9399)" width="9.817" height="1.3"/>
	<rect class="st0" x="567.022" y="144.825" transform="matrix(-0.7071 -0.7071 0.7071 -0.7071 873.4614 652.7683)" width="9.817" height="1.3"/>
	<rect class="st0" x="567.022" y="148.825" transform="matrix(-0.7071 -0.7071 0.7071 -0.7071 870.6329 659.5966)" width="9.817" height="1.3"/>
	<rect class="st0" x="567.021" y="152.826" transform="matrix(-0.707 -0.7072 0.7072 -0.707 867.7679 666.4466)" width="9.818" height="1.3"/>
	<rect class="st0" x="567.022" y="156.826" transform="matrix(-0.7071 -0.7071 0.7071 -0.7071 864.9751 673.2549)" width="9.817" height="1.3"/>
	<rect class="st0" x="567.022" y="160.826" transform="matrix(-0.7071 -0.7071 0.7071 -0.7071 862.1466 680.0833)" width="9.817" height="1.3"/>
	<rect class="st0" x="567.022" y="164.826" transform="matrix(-0.7071 -0.7071 0.7071 -0.7071 859.3181 686.9116)" width="9.817" height="1.3"/>
	<rect class="st0" x="567.022" y="168.826" transform="matrix(-0.7071 -0.7071 0.7071 -0.7071 856.4895 693.7399)" width="9.817" height="1.3"/>
	<rect class="st0" x="567.021" y="172.827" transform="matrix(-0.707 -0.7072 0.7072 -0.707 853.6235 700.5889)" width="9.818" height="1.3"/>
	<rect class="st0" x="567.022" y="176.827" transform="matrix(-0.7071 -0.7071 0.7071 -0.7071 850.8318 707.3983)" width="9.817" height="1.3"/>
	<rect class="st0" x="567.022" y="180.827" transform="matrix(-0.7071 -0.7071 0.7071 -0.7071 848.0033 714.2266)" width="9.817" height="1.3"/>
	<rect class="st0" x="567.022" y="184.827" transform="matrix(-0.7071 -0.7071 0.7071 -0.7071 845.1747 721.0549)" width="9.817" height="1.3"/>
	<rect class="st0" x="567.021" y="188.828" transform="matrix(-0.707 -0.7072 0.7072 -0.707 842.308 727.9031)" width="9.818" height="1.3"/>
	<rect class="st0" x="567.022" y="192.828" transform="matrix(-0.7071 -0.7071 0.7071 -0.7071 839.517 734.7133)" width="9.817" height="1.3"/>
	<rect class="st0" x="567.022" y="196.828" transform="matrix(-0.7071 -0.7071 0.7071 -0.7071 836.6885 741.5416)" width="9.817" height="1.3"/>
	<rect class="st0" x="567.022" y="200.828" transform="matrix(-0.7071 -0.7071 0.7071 -0.7071 833.86 748.3699)" width="9.817" height="1.3"/>
	<rect class="st0" x="567.022" y="204.828" transform="matrix(-0.7071 -0.7071 0.7071 -0.7071 831.0314 755.1982)" width="9.817" height="1.3"/>
	<rect class="st0" x="567.021" y="208.829" transform="matrix(-0.707 -0.7072 0.7072 -0.707 828.1637 762.0453)" width="9.818" height="1.3"/>
	<rect class="st0" x="567.022" y="212.829" transform="matrix(-0.7071 -0.7071 0.7071 -0.7071 825.3737 768.8565)" width="9.817" height="1.3"/>
	<rect class="st0" x="567.022" y="216.829" transform="matrix(-0.7071 -0.7071 0.7071 -0.7071 822.5452 775.6849)" width="9.817" height="1.3"/>
	<rect class="st0" x="567.022" y="220.829" transform="matrix(-0.7071 -0.7071 0.7071 -0.7071 819.7166 782.5132)" width="9.817" height="1.3"/>
	<rect class="st0" x="567.022" y="224.829" transform="matrix(-0.7071 -0.7071 0.7071 -0.7071 816.8881 789.3415)" width="9.817" height="1.3"/>
	<rect class="st0" x="567.022" y="228.83" transform="matrix(-0.7071 -0.7071 0.7071 -0.7071 814.0588 796.1715)" width="9.817" height="1.3"/>
	<rect class="st0" x="567.022" y="232.83" transform="matrix(-0.7071 -0.7071 0.7071 -0.7071 811.2303 802.9998)" width="9.817" height="1.3"/>
	<rect class="st0" x="567.022" y="236.83" transform="matrix(-0.7071 -0.7071 0.7071 -0.7071 808.4019 809.8282)" width="9.817" height="1.3"/>
	<rect class="st0" x="567.022" y="240.83" transform="matrix(-0.7071 -0.7071 0.7071 -0.7071 805.5733 816.6565)" width="9.817" height="1.3"/>
	<rect class="st0" x="567.021" y="244.831" transform="matrix(-0.707 -0.7072 0.7072 -0.707 802.7037 823.5019)" width="9.818" height="1.3"/>
	<rect class="st0" x="567.022" y="248.831" transform="matrix(-0.7071 -0.7071 0.7071 -0.7071 799.9155 830.3148)" width="9.817" height="1.3"/>
	<rect class="st0" x="567.022" y="252.831" transform="matrix(-0.7071 -0.7071 0.7071 -0.7071 797.087 837.1431)" width="9.817" height="1.3"/>
	<rect class="st0" x="567.022" y="256.831" transform="matrix(-0.7071 -0.7071 0.7071 -0.7071 794.2585 843.9715)" width="9.817" height="1.3"/>
	<rect class="st0" x="567.022" y="260.831" transform="matrix(-0.7071 -0.7071 0.7071 -0.7071 791.4299 850.7998)" width="9.817" height="1.3"/>
	<rect class="st0" x="567.022" y="264.832" transform="matrix(-0.7071 -0.7071 0.7071 -0.7071 788.6008 857.6298)" width="9.817" height="1.3"/>
	<rect class="st0" x="567.022" y="268.832" transform="matrix(-0.7071 -0.7071 0.7071 -0.7071 785.7722 864.4581)" width="9.817" height="1.3"/>
	<rect class="st0" x="567.022" y="272.832" transform="matrix(-0.7071 -0.7071 0.7071 -0.7071 782.9437 871.2864)" width="9.817" height="1.3"/>
	<rect class="st0" x="567.022" y="276.832" transform="matrix(-0.7071 -0.7071 0.7071 -0.7071 780.1152 878.1147)" width="9.817" height="1.3"/>
	<rect class="st0" x="567.021" y="280.833" transform="matrix(-0.707 -0.7072 0.7072 -0.707 777.2438 884.9584)" width="9.818" height="1.3"/>
	<rect class="st0" x="567.022" y="284.833" transform="matrix(-0.7071 -0.7071 0.7071 -0.7071 774.4574 891.7731)" width="9.817" height="1.3"/>
	<rect class="st0" x="567.022" y="288.833" transform="matrix(-0.7071 -0.7071 0.7071 -0.7071 771.6289 898.6014)" width="9.817" height="1.3"/>
	<rect class="st0" x="567.022" y="292.833" transform="matrix(-0.7071 -0.7071 0.7071 -0.7071 768.8004 905.4297)" width="9.817" height="1.3"/>
	<rect class="st0" x="567.022" y="296.833" transform="matrix(-0.7071 -0.7071 0.7071 -0.7071 765.9719 912.2581)" width="9.817" height="1.3"/>
	<rect class="st0" x="567.021" y="300.833" transform="matrix(-0.707 -0.7072 0.7072 -0.707 763.0995 919.1006)" width="9.818" height="1.3"/>
	<rect class="st0" x="567.022" y="304.834" transform="matrix(-0.7071 -0.7071 0.7071 -0.7071 760.3141 925.9164)" width="9.817" height="1.3"/>
	<rect class="st0" x="567.022" y="308.834" transform="matrix(-0.7071 -0.7071 0.7071 -0.7071 757.4856 932.7448)" width="9.817" height="1.3"/>
	<rect class="st0" x="567.022" y="312.834" transform="matrix(-0.7071 -0.7071 0.7071 -0.7071 754.657 939.5731)" width="9.817" height="1.3"/>
	<rect class="st0" x="567.021" y="316.834" transform="matrix(-0.707 -0.7072 0.7072 -0.707 751.7839 946.4149)" width="9.818" height="1.3"/>
	<rect class="st0" x="567.022" y="320.835" transform="matrix(-0.7071 -0.7071 0.7071 -0.7071 748.9993 953.2314)" width="9.817" height="1.3"/>
	<rect class="st0" x="567.022" y="324.835" transform="matrix(-0.7071 -0.7071 0.7071 -0.7071 746.1708 960.0597)" width="9.817" height="1.3"/>
	<rect class="st0" x="567.022" y="328.835" transform="matrix(-0.7071 -0.7071 0.7071 -0.7071 743.3422 966.888)" width="9.817" height="1.3"/>
	<rect class="st0" x="567.022" y="332.835" transform="matrix(-0.7071 -0.7071 0.7071 -0.7071 740.5137 973.7164)" width="9.817" height="1.3"/>
	<rect class="st0" x="567.021" y="336.836" transform="matrix(-0.707 -0.7072 0.7072 -0.707 737.6169 980.5634)" width="9.818" height="1.3"/>
	<rect class="st0" x="567.021" y="340.836" transform="matrix(-0.7071 -0.7072 0.7072 -0.7071 734.8332 987.3808)" width="9.817" height="1.3"/>
	<rect class="st0" x="567.021" y="344.836" transform="matrix(-0.7071 -0.7072 0.7072 -0.7071 732.0045 994.209)" width="9.817" height="1.3"/>
	
		<rect class="st0" x="567.021" y="348.836" transform="matrix(-0.7071 -0.7072 0.7072 -0.7071 729.1759 1001.0372)" width="9.817" height="1.3"/>
	<rect class="st0" x="567.021" y="352.837" transform="matrix(-0.707 -0.7072 0.7072 -0.707 726.3009 1007.8771)" width="9.818" height="1.3"/>
	
		<rect class="st0" x="567.021" y="356.837" transform="matrix(-0.7071 -0.7072 0.7072 -0.7071 723.5179 1014.6954)" width="9.817" height="1.3"/>
	
		<rect class="st0" x="567.021" y="360.837" transform="matrix(-0.7071 -0.7072 0.7072 -0.7071 720.6893 1021.5236)" width="9.817" height="1.3"/>
	
		<rect class="st0" x="567.021" y="364.837" transform="matrix(-0.7071 -0.7072 0.7072 -0.7071 717.8607 1028.3518)" width="9.817" height="1.3"/>
	
		<rect class="st0" x="567.021" y="368.837" transform="matrix(-0.7071 -0.7072 0.7072 -0.7071 715.0321 1035.1801)" width="9.817" height="1.3"/>
	<rect class="st0" x="567.021" y="372.838" transform="matrix(-0.707 -0.7072 0.7072 -0.707 712.1561 1042.019)" width="9.818" height="1.3"/>
	
		<rect class="st0" x="567.021" y="376.838" transform="matrix(-0.707 -0.7072 0.7072 -0.707 709.3506 1048.8425)" width="9.818" height="1.301"/>
	
		<rect class="st0" x="567.021" y="380.838" transform="matrix(-0.7071 -0.7072 0.7072 -0.7071 706.5455 1055.6664)" width="9.817" height="1.301"/>
	
		<rect class="st0" x="567.021" y="384.838" transform="matrix(-0.7071 -0.7072 0.7072 -0.7071 703.7169 1062.4946)" width="9.817" height="1.301"/>
	
		<rect class="st0" x="567.021" y="388.838" transform="matrix(-0.707 -0.7072 0.7072 -0.707 700.8401 1069.3328)" width="9.818" height="1.301"/>
	
		<rect class="st0" x="567.021" y="392.839" transform="matrix(-0.7071 -0.7072 0.7072 -0.7071 698.059 1076.1528)" width="9.817" height="1.301"/>
	
		<rect class="st0" x="567.021" y="396.839" transform="matrix(-0.7071 -0.7072 0.7072 -0.7071 695.2303 1082.981)" width="9.817" height="1.301"/>
	
		<rect class="st0" x="567.021" y="400.839" transform="matrix(-0.7071 -0.7072 0.7072 -0.7071 692.4017 1089.8092)" width="9.817" height="1.301"/>
	
		<rect class="st0" x="567.021" y="404.839" transform="matrix(-0.7071 -0.7072 0.7072 -0.7071 689.5731 1096.6375)" width="9.817" height="1.301"/>
	
		<rect class="st0" x="567.021" y="408.839" transform="matrix(-0.707 -0.7072 0.7072 -0.707 686.6953 1103.4746)" width="9.818" height="1.301"/>
	
		<rect class="st0" x="567.021" y="412.84" transform="matrix(-0.7071 -0.7072 0.7072 -0.7071 683.9152 1110.2955)" width="9.817" height="1.301"/>
	
		<rect class="st0" x="567.021" y="416.84" transform="matrix(-0.7071 -0.7072 0.7072 -0.7071 681.0865 1117.1238)" width="9.817" height="1.301"/>
	
		<rect class="st0" x="567.021" y="420.84" transform="matrix(-0.7071 -0.7072 0.7072 -0.7071 678.2579 1123.952)" width="9.817" height="1.301"/>
	
		<rect class="st0" x="567.021" y="424.84" transform="matrix(-0.7071 -0.7072 0.7072 -0.7071 675.4293 1130.7803)" width="9.817" height="1.301"/>
	<rect class="st0" x="567.021" y="428.841" transform="matrix(-0.7071 -0.7072 0.7072 -0.7071 672.6 1137.6101)" width="9.817" height="1.301"/>
	
		<rect class="st0" x="567.021" y="432.841" transform="matrix(-0.7071 -0.7072 0.7072 -0.7071 669.7713 1144.4384)" width="9.817" height="1.301"/>
	
		<rect class="st0" x="567.021" y="436.841" transform="matrix(-0.7071 -0.7072 0.7072 -0.7071 666.9427 1151.2666)" width="9.817" height="1.301"/>
	
		<rect class="st0" x="567.021" y="440.841" transform="matrix(-0.7071 -0.7072 0.7072 -0.7071 664.1141 1158.0947)" width="9.817" height="1.301"/>
	
		<rect class="st0" x="567.021" y="444.841" transform="matrix(-0.707 -0.7072 0.7072 -0.707 661.2345 1164.9302)" width="9.818" height="1.301"/>
	
		<rect class="st0" x="567.021" y="448.842" transform="matrix(-0.7071 -0.7072 0.7072 -0.7071 658.4561 1171.7529)" width="9.817" height="1.301"/>
	
		<rect class="st0" x="567.021" y="452.842" transform="matrix(-0.7071 -0.7072 0.7072 -0.7071 655.6275 1178.5812)" width="9.817" height="1.301"/>
	
		<rect class="st0" x="567.021" y="456.842" transform="matrix(-0.7071 -0.7072 0.7072 -0.7071 652.7989 1185.4094)" width="9.817" height="1.301"/>
	
		<rect class="st0" x="567.021" y="460.842" transform="matrix(-0.7071 -0.7072 0.7072 -0.7071 649.9703 1192.2375)" width="9.817" height="1.301"/>
	
		<rect class="st0" x="567.021" y="464.843" transform="matrix(-0.7071 -0.7072 0.7072 -0.7071 647.1409 1199.0675)" width="9.817" height="1.301"/>
	
		<rect class="st0" x="567.021" y="468.843" transform="matrix(-0.7071 -0.7072 0.7072 -0.7071 644.3123 1205.8958)" width="9.817" height="1.301"/>
	
		<rect class="st0" x="567.021" y="472.843" transform="matrix(-0.7071 -0.7072 0.7072 -0.7071 641.4837 1212.724)" width="9.817" height="1.301"/>
	
		<rect class="st0" x="567.021" y="476.843" transform="matrix(-0.7071 -0.7072 0.7072 -0.7071 638.655 1219.5522)" width="9.817" height="1.301"/>
	
		<rect class="st0" x="567.021" y="480.843" transform="matrix(-0.707 -0.7072 0.7072 -0.707 635.7737 1226.3857)" width="9.818" height="1.301"/>
	
		<rect class="st0" x="567.021" y="484.844" transform="matrix(-0.7071 -0.7072 0.7072 -0.7071 632.9971 1233.2103)" width="9.817" height="1.301"/>
	
		<rect class="st0" x="567.021" y="488.844" transform="matrix(-0.7071 -0.7072 0.7072 -0.7071 630.1685 1240.0386)" width="9.817" height="1.301"/>
	
		<rect class="st0" x="567.021" y="492.844" transform="matrix(-0.7071 -0.7072 0.7072 -0.7071 627.3398 1246.8667)" width="9.817" height="1.301"/>
	
		<rect class="st0" x="567.021" y="496.844" transform="matrix(-0.7071 -0.7072 0.7072 -0.7071 624.5112 1253.6951)" width="9.817" height="1.301"/>
	
		<rect class="st0" x="567.021" y="500.845" transform="matrix(-0.7071 -0.7072 0.7072 -0.7071 621.6819 1260.5249)" width="9.817" height="1.301"/>
	
		<rect class="st0" x="567.021" y="504.845" transform="matrix(-0.7071 -0.7072 0.7072 -0.7071 618.8533 1267.3531)" width="9.817" height="1.301"/>
	
		<rect class="st0" x="567.021" y="508.845" transform="matrix(-0.7071 -0.7072 0.7072 -0.7071 616.0247 1274.1814)" width="9.817" height="1.301"/>
	
		<rect class="st0" x="567.021" y="512.845" transform="matrix(-0.7071 -0.7072 0.7072 -0.7071 613.196 1281.0095)" width="9.817" height="1.301"/>
	
		<rect class="st0" x="567.021" y="516.845" transform="matrix(-0.707 -0.7072 0.7072 -0.707 610.3129 1287.8413)" width="9.818" height="1.301"/>
	
		<rect class="st0" x="567.021" y="520.846" transform="matrix(-0.7071 -0.7072 0.7072 -0.7071 607.5381 1294.6677)" width="9.817" height="1.301"/>
	
		<rect class="st0" x="567.021" y="524.846" transform="matrix(-0.7071 -0.7072 0.7072 -0.7071 604.7095 1301.496)" width="9.817" height="1.301"/>
	
		<rect class="st0" x="567.021" y="528.846" transform="matrix(-0.7071 -0.7072 0.7072 -0.7071 601.8809 1308.3242)" width="9.817" height="1.301"/>
	
		<rect class="st0" x="567.021" y="532.846" transform="matrix(-0.7071 -0.7072 0.7072 -0.7071 599.0522 1315.1523)" width="9.817" height="1.301"/>
	<rect class="st0" x="567.021" y="536.846" transform="matrix(-0.707 -0.7072 0.7072 -0.707 596.168 1321.9832)" width="9.818" height="1.301"/>
	
		<rect class="st0" x="567.021" y="540.847" transform="matrix(-0.7071 -0.7072 0.7072 -0.7071 593.3943 1328.8105)" width="9.817" height="1.301"/>
	
		<rect class="st0" x="567.021" y="544.847" transform="matrix(-0.7071 -0.7072 0.7072 -0.7071 590.5657 1335.6387)" width="9.817" height="1.301"/>
	
		<rect class="st0" x="567.021" y="548.847" transform="matrix(-0.7071 -0.7072 0.7072 -0.7071 587.7371 1342.467)" width="9.817" height="1.301"/>
	
		<rect class="st0" x="567.021" y="552.847" transform="matrix(-0.707 -0.7072 0.7072 -0.707 584.8521 1349.2969)" width="9.818" height="1.301"/>
	
		<rect class="st0" x="567.021" y="556.848" transform="matrix(-0.7071 -0.7072 0.7072 -0.7071 582.0791 1356.1251)" width="9.817" height="1.301"/>
	
		<rect class="st0" x="567.021" y="560.848" transform="matrix(-0.7071 -0.7072 0.7072 -0.7071 579.2505 1362.9534)" width="9.817" height="1.301"/>
	
		<rect class="st0" x="567.021" y="564.848" transform="matrix(-0.7071 -0.7072 0.7072 -0.7071 576.4218 1369.7815)" width="9.817" height="1.301"/>
	
		<rect class="st0" x="567.021" y="568.848" transform="matrix(-0.7071 -0.7072 0.7072 -0.7071 573.5932 1376.6099)" width="9.817" height="1.301"/>
	
		<rect class="st0" x="567.021" y="572.848" transform="matrix(-0.707 -0.7072 0.7072 -0.707 570.7072 1383.4387)" width="9.818" height="1.301"/>
	
		<rect class="st0" x="567.021" y="576.849" transform="matrix(-0.7071 -0.7072 0.7072 -0.7071 567.9352 1390.2679)" width="9.817" height="1.301"/>
	
		<rect class="st0" x="567.021" y="580.849" transform="matrix(-0.7071 -0.7072 0.7072 -0.7071 565.1066 1397.0962)" width="9.817" height="1.301"/>
	
		<rect class="st0" x="567.021" y="584.849" transform="matrix(-0.7071 -0.7072 0.7072 -0.7071 562.278 1403.9243)" width="9.817" height="1.301"/>
	
		<rect class="st0" x="567.021" y="588.849" transform="matrix(-0.707 -0.7072 0.7072 -0.707 559.3912 1410.7526)" width="9.818" height="1.301"/>
	
		<rect class="st0" x="567.022" y="592.85" transform="matrix(-0.7071 -0.7071 0.7071 -0.7071 556.6777 1417.5845)" width="9.817" height="1.301"/>
	
		<rect class="st0" x="567.022" y="596.85" transform="matrix(-0.7071 -0.7071 0.7071 -0.7071 553.8492 1424.4128)" width="9.817" height="1.301"/>
	
		<rect class="st0" x="567.022" y="600.85" transform="matrix(-0.7071 -0.7071 0.7071 -0.7071 551.0208 1431.2412)" width="9.817" height="1.301"/>
	
		<rect class="st0" x="567.022" y="604.85" transform="matrix(-0.7071 -0.7071 0.7071 -0.7071 548.1924 1438.0697)" width="9.817" height="1.301"/>
	
		<rect class="st0" x="567.021" y="608.85" transform="matrix(-0.7071 -0.7072 0.7072 -0.7071 545.3049 1444.8971)" width="9.817" height="1.301"/>
	
		<rect class="st0" x="567.021" y="612.85" transform="matrix(-0.7071 -0.7072 0.7072 -0.7071 542.4763 1451.7253)" width="9.817" height="1.301"/>
	
		<rect class="st0" x="567.021" y="616.85" transform="matrix(-0.7071 -0.7072 0.7072 -0.7071 539.6476 1458.5535)" width="9.817" height="1.301"/>
	
		<rect class="st0" x="567.021" y="620.85" transform="matrix(-0.7071 -0.7072 0.7072 -0.7071 536.819 1465.3818)" width="9.817" height="1.301"/>
	
		<rect class="st0" x="567.021" y="624.851" transform="matrix(-0.707 -0.7072 0.7072 -0.707 533.9304 1472.2081)" width="9.818" height="1.301"/>
	
		<rect class="st0" x="567.022" y="628.852" transform="matrix(-0.7071 -0.7071 0.7071 -0.7071 531.2205 1479.0436)" width="9.817" height="1.301"/>
	
		<rect class="st0" x="567.022" y="632.852" transform="matrix(-0.7071 -0.7071 0.7071 -0.7071 528.392 1485.8721)" width="9.817" height="1.301"/>
	
		<rect class="st0" x="567.022" y="636.852" transform="matrix(-0.7071 -0.7071 0.7071 -0.7071 525.5636 1492.7004)" width="9.817" height="1.301"/>
	
		<rect class="st0" x="567.022" y="640.852" transform="matrix(-0.7071 -0.7071 0.7071 -0.7071 522.7352 1499.5288)" width="9.817" height="1.301"/>
	
		<rect class="st0" x="567.021" y="644.852" transform="matrix(-0.7071 -0.7072 0.7072 -0.7071 519.8459 1506.3545)" width="9.817" height="1.301"/>
	
		<rect class="st0" x="567.022" y="648.853" transform="matrix(-0.7071 -0.7071 0.7071 -0.7071 517.0776 1513.1874)" width="9.817" height="1.301"/>
	
		<rect class="st0" x="567.022" y="652.853" transform="matrix(-0.7071 -0.7071 0.7071 -0.7071 514.2492 1520.0159)" width="9.817" height="1.301"/>
	
		<rect class="st0" x="567.022" y="656.853" transform="matrix(-0.7071 -0.7071 0.7071 -0.7071 511.4207 1526.8442)" width="9.817" height="1.301"/>
	
		<rect class="st0" x="567.022" y="660.853" transform="matrix(-0.7071 -0.7071 0.7071 -0.7071 508.5923 1533.6726)" width="9.817" height="1.301"/>
	
		<rect class="st0" x="567.022" y="664.854" transform="matrix(-0.7071 -0.7071 0.7071 -0.7071 505.7632 1540.5027)" width="9.817" height="1.301"/>
	
		<rect class="st0" x="567.022" y="668.854" transform="matrix(-0.7071 -0.7071 0.7071 -0.7071 502.9348 1547.3312)" width="9.817" height="1.301"/>
	
		<rect class="st0" x="567.022" y="672.854" transform="matrix(-0.7071 -0.7071 0.7071 -0.7071 500.1064 1554.1597)" width="9.817" height="1.301"/>
	
		<rect class="st0" x="567.022" y="676.854" transform="matrix(-0.7071 -0.7071 0.7071 -0.7071 497.2779 1560.988)" width="9.817" height="1.301"/>
	
		<rect class="st0" x="567.021" y="680.854" transform="matrix(-0.7071 -0.7072 0.7072 -0.7071 494.3868 1567.8118)" width="9.817" height="1.301"/>
	
		<rect class="st0" x="567.022" y="684.855" transform="matrix(-0.7071 -0.7071 0.7071 -0.7071 491.6204 1574.6465)" width="9.817" height="1.301"/>
	
		<rect class="st0" x="567.022" y="688.855" transform="matrix(-0.7071 -0.7071 0.7071 -0.7071 488.792 1581.475)" width="9.817" height="1.301"/>
	
		<rect class="st0" x="567.022" y="692.855" transform="matrix(-0.7071 -0.7071 0.7071 -0.7071 485.9635 1588.3035)" width="9.817" height="1.301"/>
	
		<rect class="st0" x="567.022" y="696.855" transform="matrix(-0.7071 -0.7071 0.7071 -0.7071 483.1351 1595.1318)" width="9.817" height="1.301"/>
	
		<rect class="st0" x="567.022" y="700.856" transform="matrix(-0.7071 -0.7071 0.7071 -0.7071 480.306 1601.9619)" width="9.817" height="1.301"/>
	
		<rect class="st0" x="567.022" y="704.856" transform="matrix(-0.7071 -0.7071 0.7071 -0.7071 477.4776 1608.7903)" width="9.817" height="1.301"/>
	
		<rect class="st0" x="567.022" y="708.856" transform="matrix(-0.7071 -0.7071 0.7071 -0.7071 474.6491 1615.6188)" width="9.817" height="1.301"/>
	
		<rect class="st0" x="567.022" y="712.856" transform="matrix(-0.7071 -0.7071 0.7071 -0.7071 471.8207 1622.4473)" width="9.817" height="1.301"/>
	
		<rect class="st0" x="567.021" y="716.856" transform="matrix(-0.7071 -0.7072 0.7072 -0.7071 468.9278 1629.2693)" width="9.817" height="1.301"/>
	
		<rect class="st0" x="567.022" y="720.857" transform="matrix(-0.7071 -0.7071 0.7071 -0.7071 466.1631 1636.1057)" width="9.817" height="1.301"/>
	
		<rect class="st0" x="567.022" y="724.857" transform="matrix(-0.7071 -0.7071 0.7071 -0.7071 463.3347 1642.9341)" width="9.817" height="1.301"/>
	
		<rect class="st0" x="567.022" y="728.857" transform="matrix(-0.7071 -0.7071 0.7071 -0.7071 460.5063 1649.7626)" width="9.817" height="1.301"/>
	
		<rect class="st0" x="567.022" y="732.857" transform="matrix(-0.7071 -0.7071 0.7071 -0.7071 457.6779 1656.5911)" width="9.817" height="1.301"/>
	
		<rect class="st0" x="567.001" y="736.885" transform="matrix(-0.7039 -0.7103 0.7103 -0.7039 450.6695 1662.9303)" width="9.85" height="1.301"/>
	
		<rect class="st0" x="566.47" y="741.396" transform="matrix(-0.6046 -0.7965 0.7965 -0.6046 326.0252 1645.9187)" width="10.064" height="1.299"/>
	<rect class="st0" x="565.372" y="745.559" transform="matrix(-0.3687 -0.9295 0.9295 -0.3687 86.7778 1551.3503)" width="9.585" height="1.3"/>
	<rect class="st0" x="563.037" y="748.563" transform="matrix(-0.0088 -1 1 -0.0088 -176.4333 1323.5408)" width="9.417" height="1.301"/>
	
		<rect class="st0" x="564.032" y="746.327" transform="matrix(-0.9449 -0.3275 0.3275 -0.9449 852.2715 1645.6599)" width="1.3" height="9.501"/>
	<rect class="st0" x="556.402" y="751.372" transform="matrix(0.5683 -0.8228 0.8228 0.5683 -376.5222 786.4269)" width="9.532" height="1.3"/>
	
		<rect class="st0" x="552.916" y="751.776" transform="matrix(0.6772 -0.7358 0.7358 0.6772 -373.6044 653.1855)" width="9.562" height="1.301"/>
	
		<rect class="st0" x="549.021" y="751.823" transform="matrix(0.7072 -0.7071 0.7071 0.7072 -369.8267 612.0168)" width="9.817" height="1.301"/>
	
		<rect class="st0" x="545.021" y="751.823" transform="matrix(0.7071 -0.7071 0.7071 0.7071 -371.0083 609.2529)" width="9.817" height="1.301"/>
	
		<rect class="st0" x="541.021" y="751.823" transform="matrix(0.7071 -0.7071 0.7071 0.7071 -372.1799 606.4246)" width="9.817" height="1.301"/>
	
		<rect class="st0" x="537.021" y="751.823" transform="matrix(0.7071 -0.7071 0.7071 0.7071 -373.3514 603.5961)" width="9.817" height="1.301"/>
	<rect class="st0" x="533.021" y="751.823" transform="matrix(0.7071 -0.7071 0.7071 0.7071 -374.523 600.7677)" width="9.817" height="1.301"/>
	<rect class="st0" x="529.02" y="751.823" transform="matrix(0.7072 -0.7071 0.7071 0.7072 -375.6839 597.8749)" width="9.817" height="1.301"/>
	<rect class="st0" x="525.02" y="751.823" transform="matrix(0.7071 -0.7071 0.7071 0.7071 -376.8665 595.1101)" width="9.817" height="1.301"/>
	<rect class="st0" x="521.02" y="751.823" transform="matrix(0.7071 -0.7071 0.7071 0.7071 -378.038 592.2817)" width="9.817" height="1.301"/>
	<rect class="st0" x="517.02" y="751.823" transform="matrix(0.7071 -0.7071 0.7071 0.7071 -379.2096 589.4532)" width="9.817" height="1.301"/>
	<rect class="st0" x="513.02" y="751.823" transform="matrix(0.7071 -0.7071 0.7071 0.7071 -380.3812 586.6249)" width="9.817" height="1.301"/>
	<rect class="st0" x="509.019" y="751.823" transform="matrix(0.7071 -0.7071 0.7071 0.7071 -381.553 583.7957)" width="9.817" height="1.301"/>
	
		<rect class="st0" x="505.019" y="751.823" transform="matrix(0.7071 -0.7071 0.7071 0.7071 -382.7246 580.9673)" width="9.817" height="1.301"/>
	
		<rect class="st0" x="501.019" y="751.823" transform="matrix(0.7071 -0.7071 0.7071 0.7071 -383.8962 578.1389)" width="9.817" height="1.301"/>
	
		<rect class="st0" x="497.019" y="751.823" transform="matrix(0.7071 -0.7071 0.7071 0.7071 -385.0677 575.3104)" width="9.817" height="1.301"/>
	
		<rect class="st0" x="493.018" y="751.823" transform="matrix(0.7072 -0.7071 0.7071 0.7072 -386.2268 572.4195)" width="9.817" height="1.301"/>
	
		<rect class="st0" x="489.018" y="751.823" transform="matrix(0.7071 -0.7071 0.7071 0.7071 -387.4112 569.6529)" width="9.817" height="1.301"/>
	
		<rect class="st0" x="485.018" y="751.823" transform="matrix(0.7071 -0.7071 0.7071 0.7071 -388.5828 566.8245)" width="9.817" height="1.301"/>
	<rect class="st0" x="481.018" y="751.823" transform="matrix(0.7071 -0.7071 0.7071 0.7071 -389.7543 563.996)" width="9.817" height="1.301"/>
	
		<rect class="st0" x="477.017" y="751.823" transform="matrix(0.7072 -0.7071 0.7071 0.7072 -390.9126 561.1059)" width="9.817" height="1.301"/>
	
		<rect class="st0" x="473.017" y="751.823" transform="matrix(0.7071 -0.7071 0.7071 0.7071 -392.0978 558.3385)" width="9.817" height="1.301"/>
	
		<rect class="st0" x="469.017" y="751.823" transform="matrix(0.7071 -0.7071 0.7071 0.7071 -393.2693 555.5101)" width="9.817" height="1.301"/>
	
		<rect class="st0" x="465.017" y="751.823" transform="matrix(0.7071 -0.7071 0.7071 0.7071 -394.4409 552.6816)" width="9.817" height="1.301"/>
	
		<rect class="st0" x="461.017" y="751.823" transform="matrix(0.7071 -0.7071 0.7071 0.7071 -395.6125 549.8532)" width="9.817" height="1.301"/>
	
		<rect class="st0" x="457.016" y="751.823" transform="matrix(0.7072 -0.7071 0.7071 0.7072 -396.7698 546.9641)" width="9.817" height="1.301"/>
	
		<rect class="st0" x="453.016" y="751.823" transform="matrix(0.7071 -0.7071 0.7071 0.7071 -397.9559 544.1957)" width="9.817" height="1.301"/>
	
		<rect class="st0" x="449.016" y="751.823" transform="matrix(0.7071 -0.7071 0.7071 0.7071 -399.1275 541.3672)" width="9.817" height="1.301"/>
	
		<rect class="st0" x="445.016" y="751.823" transform="matrix(0.7071 -0.7071 0.7071 0.7071 -400.2991 538.5388)" width="9.817" height="1.301"/>
	
		<rect class="st0" x="441.016" y="751.823" transform="matrix(0.7071 -0.7071 0.7071 0.7071 -401.4706 535.7104)" width="9.817" height="1.301"/>
	
		<rect class="st0" x="437.015" y="751.823" transform="matrix(0.7071 -0.7071 0.7071 0.7071 -402.6425 532.8813)" width="9.817" height="1.301"/>
	
		<rect class="st0" x="433.015" y="751.823" transform="matrix(0.7071 -0.7071 0.7071 0.7071 -403.8141 530.0529)" width="9.817" height="1.301"/>
	
		<rect class="st0" x="429.015" y="751.823" transform="matrix(0.7071 -0.7071 0.7071 0.7071 -404.9857 527.2244)" width="9.817" height="1.301"/>
	<rect class="st0" x="425.015" y="751.823" transform="matrix(0.7071 -0.7071 0.7071 0.7071 -406.1572 524.396)" width="9.817" height="1.301"/>
	
		<rect class="st0" x="421.014" y="751.823" transform="matrix(0.7072 -0.7071 0.7071 0.7072 -407.3127 521.5087)" width="9.817" height="1.301"/>
	
		<rect class="st0" x="417.014" y="751.823" transform="matrix(0.7071 -0.7071 0.7071 0.7071 -408.5007 518.7385)" width="9.817" height="1.301"/>
	<rect class="st0" x="413.014" y="751.823" transform="matrix(0.7071 -0.7071 0.7071 0.7071 -409.6722 515.91)" width="9.817" height="1.301"/>
	
		<rect class="st0" x="409.014" y="751.823" transform="matrix(0.7071 -0.7071 0.7071 0.7071 -410.8438 513.0816)" width="9.817" height="1.301"/>
	
		<rect class="st0" x="405.014" y="751.823" transform="matrix(0.7071 -0.7071 0.7071 0.7071 -412.0154 510.2532)" width="9.817" height="1.301"/>
	
		<rect class="st0" x="401.013" y="751.823" transform="matrix(0.7071 -0.7071 0.7071 0.7071 -413.1873 507.4241)" width="9.817" height="1.301"/>
	
		<rect class="st0" x="397.013" y="751.823" transform="matrix(0.7071 -0.7071 0.7071 0.7071 -414.3588 504.5956)" width="9.817" height="1.301"/>
	
		<rect class="st0" x="393.013" y="751.823" transform="matrix(0.7071 -0.7071 0.7071 0.7071 -415.5304 501.7672)" width="9.817" height="1.301"/>
	<rect class="st0" x="389.013" y="751.823" transform="matrix(0.7071 -0.7071 0.7071 0.7071 -416.702 498.9388)" width="9.817" height="1.301"/>
	
		<rect class="st0" x="385.012" y="751.823" transform="matrix(0.7072 -0.7071 0.7071 0.7072 -417.8557 496.0532)" width="9.817" height="1.301"/>
	
		<rect class="st0" x="381.012" y="751.823" transform="matrix(0.7071 -0.7071 0.7071 0.7071 -419.0453 493.2812)" width="9.817" height="1.301"/>
	<rect class="st0" x="377.012" y="751.823" transform="matrix(0.7071 -0.7071 0.7071 0.7071 -420.217 490.4528)" width="9.817" height="1.301"/>
	
		<rect class="st0" x="373.012" y="751.823" transform="matrix(0.7071 -0.7071 0.7071 0.7071 -421.3885 487.6244)" width="9.817" height="1.301"/>
	
		<rect class="st0" x="369.012" y="751.823" transform="matrix(0.7071 -0.7071 0.7071 0.7071 -422.5601 484.7959)" width="9.817" height="1.301"/>
	<rect class="st0" x="365.01" y="751.823" transform="matrix(0.7072 -0.7071 0.7071 0.7072 -423.7131 481.9107)" width="9.817" height="1.301"/>
	<rect class="st0" x="361.01" y="751.823" transform="matrix(0.7072 -0.7071 0.7071 0.7072 -424.8845 479.0825)" width="9.817" height="1.301"/>
	<rect class="st0" x="357.01" y="751.823" transform="matrix(0.7072 -0.7071 0.7071 0.7072 -426.0558 476.2542)" width="9.817" height="1.301"/>
	<rect class="st0" x="353.01" y="751.823" transform="matrix(0.7072 -0.7071 0.7071 0.7072 -427.2272 473.426)" width="9.817" height="1.301"/>
	<rect class="st0" x="349.009" y="751.823" transform="matrix(0.7072 -0.707 0.707 0.7072 -428.3789 470.5424)" width="9.818" height="1.301"/>
	
		<rect class="st0" x="345.009" y="751.823" transform="matrix(0.7072 -0.7071 0.7071 0.7072 -429.5703 467.7689)" width="9.817" height="1.301"/>
	
		<rect class="st0" x="341.009" y="751.823" transform="matrix(0.7072 -0.7071 0.7071 0.7072 -430.7416 464.9406)" width="9.817" height="1.301"/>
	<rect class="st0" x="337.009" y="751.823" transform="matrix(0.7072 -0.7071 0.7071 0.7072 -431.913 462.1124)" width="9.817" height="1.301"/>
	
		<rect class="st0" x="333.009" y="751.823" transform="matrix(0.7072 -0.7071 0.7071 0.7072 -433.0844 459.2842)" width="9.817" height="1.301"/>
	<rect class="st0" x="329.008" y="751.823" transform="matrix(0.7072 -0.707 0.707 0.7072 -434.2351 456.4016)" width="9.818" height="1.301"/>
	<rect class="st0" x="325.008" y="751.823" transform="matrix(0.7072 -0.7071 0.7071 0.7072 -435.4274 453.627)" width="9.817" height="1.301"/>
	
		<rect class="st0" x="321.008" y="751.823" transform="matrix(0.7072 -0.7071 0.7071 0.7072 -436.5988 450.7988)" width="9.817" height="1.301"/>
	
		<rect class="st0" x="317.008" y="751.823" transform="matrix(0.7072 -0.7071 0.7071 0.7072 -437.7701 447.9706)" width="9.817" height="1.301"/>
	<rect class="st0" x="313.008" y="751.823" transform="matrix(0.7072 -0.707 0.707 0.7072 -438.9201 445.0887)" width="9.818" height="1.301"/>
	
		<rect class="st0" x="309.007" y="751.823" transform="matrix(0.7072 -0.7071 0.7071 0.7072 -440.1132 442.3134)" width="9.817" height="1.301"/>
	
		<rect class="st0" x="305.007" y="751.823" transform="matrix(0.7072 -0.7071 0.7071 0.7072 -441.2845 439.4852)" width="9.817" height="1.301"/>
	<rect class="st0" x="301.007" y="751.823" transform="matrix(0.7072 -0.7071 0.7071 0.7072 -442.4559 436.657)" width="9.817" height="1.301"/>
	
		<rect class="st0" x="297.007" y="751.823" transform="matrix(0.7072 -0.7071 0.7071 0.7072 -443.6273 433.8287)" width="9.817" height="1.301"/>
	<rect class="st0" x="293.007" y="751.823" transform="matrix(0.7072 -0.707 0.707 0.7072 -444.7762 430.9479)" width="9.818" height="1.301"/>
	
		<rect class="st0" x="289.006" y="751.823" transform="matrix(0.7072 -0.7071 0.7071 0.7072 -445.9703 428.1716)" width="9.817" height="1.301"/>
	<rect class="st0" x="285.007" y="751.823" transform="matrix(0.7071 -0.7071 0.7071 0.7071 -447.1647 425.3952)" width="9.817" height="1.3"/>
	<rect class="st0" x="281.007" y="751.823" transform="matrix(0.7071 -0.7071 0.7071 0.7071 -448.3363 422.5667)" width="9.817" height="1.3"/>
	<rect class="st0" x="277.006" y="751.823" transform="matrix(0.7072 -0.707 0.707 0.7072 -449.4728 419.661)" width="9.818" height="1.3"/>
	<rect class="st0" x="273.006" y="751.823" transform="matrix(0.7071 -0.7071 0.7071 0.7071 -450.6678 416.8838)" width="9.817" height="1.3"/>
	<rect class="st0" x="269.006" y="751.823" transform="matrix(0.7071 -0.7071 0.7071 0.7071 -451.8393 414.0555)" width="9.817" height="1.3"/>
	<rect class="st0" x="265.006" y="751.823" transform="matrix(0.7071 -0.7071 0.7071 0.7071 -453.0108 411.2271)" width="9.817" height="1.3"/>
	<rect class="st0" x="261.006" y="751.823" transform="matrix(0.7071 -0.7071 0.7071 0.7071 -454.1823 408.3988)" width="9.817" height="1.3"/>
	<rect class="st0" x="257.005" y="751.823" transform="matrix(0.7072 -0.707 0.707 0.7072 -455.3295 405.5197)" width="9.818" height="1.3"/>
	<rect class="st0" x="253.005" y="751.823" transform="matrix(0.7071 -0.7071 0.7071 0.7071 -456.5255 402.7414)" width="9.817" height="1.3"/>
	<rect class="st0" x="249.005" y="751.823" transform="matrix(0.7071 -0.7071 0.7071 0.7071 -457.697 399.9131)" width="9.817" height="1.3"/>
	<rect class="st0" x="245.005" y="751.823" transform="matrix(0.7071 -0.7071 0.7071 0.7071 -458.8685 397.0848)" width="9.817" height="1.3"/>
	<rect class="st0" x="241.004" y="751.823" transform="matrix(0.7072 -0.707 0.707 0.7072 -460.0149 394.2065)" width="9.818" height="1.3"/>
	<rect class="st0" x="237.004" y="751.823" transform="matrix(0.7071 -0.7071 0.7071 0.7071 -461.2117 391.4274)" width="9.817" height="1.3"/>
	<rect class="st0" x="233.004" y="751.823" transform="matrix(0.7071 -0.7071 0.7071 0.7071 -462.3831 388.5991)" width="9.817" height="1.3"/>
	<rect class="st0" x="229.004" y="751.823" transform="matrix(0.7071 -0.7071 0.7071 0.7071 -463.5546 385.7708)" width="9.817" height="1.3"/>
	<rect class="st0" x="225.004" y="751.823" transform="matrix(0.7071 -0.7071 0.7071 0.7071 -464.7261 382.9424)" width="9.817" height="1.3"/>
	<rect class="st0" x="221.003" y="751.823" transform="matrix(0.7072 -0.707 0.707 0.7072 -465.8715 380.0652)" width="9.818" height="1.3"/>
	<rect class="st0" x="217.003" y="751.823" transform="matrix(0.7071 -0.7071 0.7071 0.7071 -467.0693 377.2851)" width="9.817" height="1.3"/>
	<rect class="st0" x="213.003" y="751.823" transform="matrix(0.7071 -0.7071 0.7071 0.7071 -468.2408 374.4568)" width="9.817" height="1.3"/>
	<rect class="st0" x="209.003" y="751.823" transform="matrix(0.7071 -0.7071 0.7071 0.7071 -469.4123 371.6284)" width="9.817" height="1.3"/>
	<rect class="st0" x="205.003" y="751.823" transform="matrix(0.7071 -0.7071 0.7071 0.7071 -470.5837 368.8001)" width="9.817" height="1.3"/>
	<rect class="st0" x="201.002" y="751.823" transform="matrix(0.7071 -0.7071 0.7071 0.7071 -471.7555 365.9711)" width="9.817" height="1.3"/>
	<rect class="st0" x="197.002" y="751.823" transform="matrix(0.7071 -0.7071 0.7071 0.7071 -472.927 363.1428)" width="9.817" height="1.3"/>
	<rect class="st0" x="193.002" y="751.823" transform="matrix(0.7071 -0.7071 0.7071 0.7071 -474.0984 360.3145)" width="9.817" height="1.3"/>
	<rect class="st0" x="189.002" y="751.823" transform="matrix(0.7071 -0.7071 0.7071 0.7071 -475.2699 357.4861)" width="9.817" height="1.3"/>
	<rect class="st0" x="185.001" y="751.823" transform="matrix(0.7072 -0.707 0.707 0.7072 -476.4136 354.6106)" width="9.818" height="1.3"/>
	<rect class="st0" x="181.001" y="751.823" transform="matrix(0.7071 -0.7071 0.7071 0.7071 -477.6132 351.8288)" width="9.817" height="1.3"/>
	<rect class="st0" x="177.001" y="751.823" transform="matrix(0.7071 -0.7071 0.7071 0.7071 -478.7846 349.0005)" width="9.817" height="1.3"/>
	<rect class="st0" x="173.001" y="751.823" transform="matrix(0.7071 -0.7071 0.7071 0.7071 -479.9561 346.1721)" width="9.817" height="1.3"/>
	<rect class="st0" x="169.001" y="751.823" transform="matrix(0.7071 -0.7071 0.7071 0.7071 -481.1276 343.3438)" width="9.817" height="1.3"/>
	<rect class="st0" x="165" y="751.823" transform="matrix(0.7071 -0.7071 0.7071 0.7071 -482.2993 340.5148)" width="9.817" height="1.3"/>
	<rect class="st0" x="161" y="751.823" transform="matrix(0.7071 -0.7071 0.7071 0.7071 -483.4708 337.6865)" width="9.817" height="1.3"/>
	<rect class="st0" x="157" y="751.823" transform="matrix(0.7071 -0.7071 0.7071 0.7071 -484.6423 334.8581)" width="9.817" height="1.3"/>
	<rect class="st0" x="153" y="751.823" transform="matrix(0.7071 -0.7071 0.7071 0.7071 -485.8138 332.0298)" width="9.817" height="1.3"/>
	<rect class="st0" x="148.999" y="751.823" transform="matrix(0.7072 -0.707 0.707 0.7072 -486.9408 329.1333)" width="9.818" height="1.3"/>
	<rect class="st0" x="144.999" y="751.823" transform="matrix(0.7072 -0.7071 0.7071 0.7072 -488.1421 326.3499)" width="9.817" height="1.3"/>
	<rect class="st0" x="140.999" y="751.823" transform="matrix(0.7072 -0.7071 0.7071 0.7072 -489.3135 323.5216)" width="9.817" height="1.3"/>
	<rect class="st0" x="136.999" y="751.823" transform="matrix(0.7072 -0.7071 0.7071 0.7072 -490.4849 320.6934)" width="9.817" height="1.3"/>
	<rect class="st0" x="132.999" y="751.823" transform="matrix(0.7072 -0.7071 0.7071 0.7072 -491.6562 317.8652)" width="9.817" height="1.3"/>
	<rect class="st0" x="128.998" y="751.823" transform="matrix(0.7072 -0.7071 0.7071 0.7072 -492.8279 315.0363)" width="9.817" height="1.3"/>
	<rect class="st0" x="124.998" y="751.823" transform="matrix(0.7072 -0.7071 0.7071 0.7072 -493.9993 312.208)" width="9.817" height="1.3"/>
	<rect class="st0" x="120.998" y="751.823" transform="matrix(0.7072 -0.7071 0.7071 0.7072 -495.1706 309.3798)" width="9.817" height="1.3"/>
	<rect class="st0" x="116.998" y="751.823" transform="matrix(0.7072 -0.7071 0.7071 0.7072 -496.342 306.5515)" width="9.817" height="1.3"/>
	<rect class="st0" x="112.997" y="751.823" transform="matrix(0.7072 -0.707 0.707 0.7072 -497.482 303.6797)" width="9.818" height="1.3"/>
	<rect class="st0" x="108.997" y="751.823" transform="matrix(0.7072 -0.7071 0.7071 0.7072 -498.685 300.8944)" width="9.817" height="1.3"/>
	<rect class="st0" x="104.997" y="751.823" transform="matrix(0.7072 -0.7071 0.7071 0.7072 -499.8564 298.0662)" width="9.817" height="1.3"/>
	<rect class="st0" x="100.997" y="751.823" transform="matrix(0.7072 -0.7071 0.7071 0.7072 -501.0278 295.2379)" width="9.817" height="1.3"/>
	<rect class="st0" x="96.997" y="751.823" transform="matrix(0.7072 -0.7071 0.7071 0.7072 -502.1992 292.4097)" width="9.817" height="1.3"/>
	<rect class="st0" x="92.996" y="751.823" transform="matrix(0.7072 -0.707 0.707 0.7072 -503.3381 289.5388)" width="9.818" height="1.3"/>
	<rect class="st0" x="88.996" y="751.823" transform="matrix(0.7072 -0.7071 0.7071 0.7072 -504.5422 286.7526)" width="9.817" height="1.3"/>
	<rect class="st0" x="84.996" y="751.823" transform="matrix(0.7072 -0.7071 0.7071 0.7072 -505.7136 283.9243)" width="9.817" height="1.3"/>
	<rect class="st0" x="80.996" y="751.823" transform="matrix(0.7072 -0.7071 0.7071 0.7072 -506.8849 281.0961)" width="9.817" height="1.3"/>
	<rect class="st0" x="76.995" y="751.823" transform="matrix(0.7072 -0.707 0.707 0.7072 -508.0231 278.226)" width="9.818" height="1.3"/>
	<rect class="st0" x="72.995" y="751.823" transform="matrix(0.7072 -0.7071 0.7071 0.7072 -509.228 275.439)" width="9.817" height="1.3"/>
	<rect class="st0" x="68.995" y="751.823" transform="matrix(0.7072 -0.7071 0.7071 0.7072 -510.3994 272.6107)" width="9.817" height="1.3"/>
	<rect class="st0" x="64.995" y="751.823" transform="matrix(0.7072 -0.7071 0.7071 0.7072 -511.5707 269.7825)" width="9.817" height="1.3"/>
	<rect class="st0" x="60.995" y="751.823" transform="matrix(0.7072 -0.7071 0.7071 0.7072 -512.7421 266.9543)" width="9.817" height="1.3"/>
	<rect class="st0" x="56.994" y="751.823" transform="matrix(0.7072 -0.707 0.707 0.7072 -513.8793 264.0852)" width="9.818" height="1.3"/>
	<rect class="st0" x="52.994" y="751.823" transform="matrix(0.7071 -0.7071 0.7071 0.7071 -515.1025 261.3171)" width="9.817" height="1.3"/>
	<rect class="st0" x="48.994" y="751.823" transform="matrix(0.7071 -0.7071 0.7071 0.7071 -516.2739 258.4888)" width="9.817" height="1.3"/>
	<rect class="st0" x="44.994" y="751.823" transform="matrix(0.7071 -0.7071 0.7071 0.7071 -517.4454 255.6605)" width="9.817" height="1.3"/>
	<rect class="st0" x="40.993" y="751.823" transform="matrix(0.7072 -0.707 0.707 0.7072 -518.5819 252.7921)" width="9.818" height="1.3"/>
	<rect class="st0" x="36.993" y="751.823" transform="matrix(0.7071 -0.7071 0.7071 0.7071 -519.7886 250.0031)" width="9.817" height="1.3"/>
	<rect class="st0" x="32.993" y="751.823" transform="matrix(0.7071 -0.7071 0.7071 0.7071 -520.9601 247.1748)" width="9.817" height="1.3"/>
	<rect class="st0" x="28.993" y="751.823" transform="matrix(0.7071 -0.7071 0.7071 0.7071 -522.1316 244.3465)" width="9.817" height="1.3"/>
	<rect class="st0" x="24.993" y="751.823" transform="matrix(0.7071 -0.7071 0.7071 0.7071 -523.303 241.5181)" width="9.817" height="1.3"/>
	<rect class="st0" x="20.992" y="751.823" transform="matrix(0.7072 -0.707 0.707 0.7072 -524.4385 238.6508)" width="9.818" height="1.3"/>
	<rect class="st0" x="16.992" y="751.823" transform="matrix(0.7071 -0.7071 0.7071 0.7071 -525.6463 235.8608)" width="9.817" height="1.3"/>
	<rect class="st0" x="12.78" y="751.784" transform="matrix(0.7248 -0.6889 0.6889 0.7248 -513.4946 219.2922)" width="9.962" height="1.299"/>
	<rect class="st0" x="8.298" y="751.167" transform="matrix(0.8244 -0.566 0.566 0.8244 -423.2149 139.5386)" width="9.946" height="1.3"/>
	<rect class="st0" x="4.561" y="749.536" transform="matrix(0.9593 -0.2823 0.2823 0.9593 -211.4205 33.1531)" width="9.533" height="1.301"/>
	<rect class="st0" x="1.929" y="746.947" transform="matrix(0.9966 0.0824 -0.0824 0.9966 61.6216 1.9935)" width="9.458" height="1.299"/>
	<rect class="st0" x="0.239" y="743.744" transform="matrix(0.9181 0.3963 -0.3963 0.9181 295.3875 58.9542)" width="9.54" height="1.3"/>
	<rect class="st0" x="-0.492" y="740.203" transform="matrix(0.7991 0.6012 -0.6012 0.7991 446.2626 146.2947)" width="9.468" height="1.3"/>
	<rect class="st0" x="-0.895" y="736.713" transform="matrix(0.7196 0.6944 -0.6944 0.7196 513.1204 204.0229)" width="9.665" height="1.3"/>
	<rect class="st0" x="-0.978" y="732.827" transform="matrix(0.7071 0.7071 -0.7071 0.7071 519.8165 212.0695)" width="9.818" height="1.3"/>
	<rect class="st0" x="-0.978" y="728.827" transform="matrix(0.7071 0.7071 -0.7071 0.7071 516.988 210.8978)" width="9.818" height="1.3"/>
	<rect class="st0" x="-0.978" y="724.827" transform="matrix(0.7071 0.7071 -0.7071 0.7071 514.1594 209.7262)" width="9.818" height="1.3"/>
	<rect class="st0" x="-0.978" y="720.827" transform="matrix(0.7071 0.7071 -0.7071 0.7071 511.3309 208.5545)" width="9.818" height="1.3"/>
	<rect class="st0" x="-0.979" y="716.827" transform="matrix(0.707 0.7072 -0.7072 0.707 508.5379 207.4182)" width="9.818" height="1.3"/>
	<rect class="st0" x="-0.978" y="712.826" transform="matrix(0.7071 0.7071 -0.7071 0.7071 505.6732 206.2109)" width="9.818" height="1.3"/>
	<rect class="st0" x="-0.978" y="708.826" transform="matrix(0.7071 0.7071 -0.7071 0.7071 502.8446 205.0392)" width="9.818" height="1.3"/>
	<rect class="st0" x="-0.978" y="704.826" transform="matrix(0.7071 0.7071 -0.7071 0.7071 500.0161 203.8675)" width="9.818" height="1.3"/>
	<rect class="st0" x="-0.978" y="700.826" transform="matrix(0.7071 0.7071 -0.7071 0.7071 497.1876 202.6959)" width="9.818" height="1.3"/>
	<rect class="st0" x="-0.979" y="696.826" transform="matrix(0.707 0.7072 -0.7072 0.707 494.3936 201.5586)" width="9.818" height="1.3"/>
	<rect class="st0" x="-0.978" y="692.825" transform="matrix(0.7071 0.7071 -0.7071 0.7071 491.4948 200.3178)" width="9.817" height="1.3"/>
	<rect class="st0" x="-0.978" y="688.825" transform="matrix(0.7071 0.7071 -0.7071 0.7071 488.6665 199.1463)" width="9.817" height="1.3"/>
	<rect class="st0" x="-0.978" y="684.825" transform="matrix(0.7071 0.7071 -0.7071 0.7071 485.8381 197.9749)" width="9.817" height="1.3"/>
	<rect class="st0" x="-0.978" y="680.824" transform="matrix(0.7071 0.7071 -0.7071 0.7071 483.0436 196.8369)" width="9.818" height="1.3"/>
	<rect class="st0" x="-0.978" y="676.824" transform="matrix(0.7071 0.7071 -0.7071 0.7071 480.1808 195.6316)" width="9.817" height="1.3"/>
	<rect class="st0" x="-0.978" y="672.824" transform="matrix(0.7071 0.7071 -0.7071 0.7071 477.3525 194.4601)" width="9.817" height="1.3"/>
	<rect class="st0" x="-0.978" y="668.824" transform="matrix(0.7071 0.7071 -0.7071 0.7071 474.5241 193.2887)" width="9.817" height="1.3"/>
	<rect class="st0" x="-0.978" y="664.824" transform="matrix(0.7071 0.7071 -0.7071 0.7071 471.6958 192.1172)" width="9.817" height="1.3"/>
	<rect class="st0" x="-0.978" y="660.823" transform="matrix(0.7071 0.7071 -0.7071 0.7071 468.9003 190.9783)" width="9.818" height="1.3"/>
	<rect class="st0" x="-0.978" y="656.823" transform="matrix(0.7071 0.7071 -0.7071 0.7071 466.0385 189.774)" width="9.817" height="1.3"/>
	<rect class="st0" x="-0.978" y="652.823" transform="matrix(0.7071 0.7071 -0.7071 0.7071 463.2101 188.6025)" width="9.817" height="1.3"/>
	<rect class="st0" x="-0.978" y="648.823" transform="matrix(0.7071 0.7071 -0.7071 0.7071 460.3818 187.431)" width="9.817" height="1.3"/>
	<rect class="st0" x="-0.978" y="644.823" transform="matrix(0.7071 0.7071 -0.7071 0.7071 457.5854 186.2913)" width="9.818" height="1.3"/>
	<rect class="st0" x="-0.978" y="640.822" transform="matrix(0.7071 0.7071 -0.7071 0.7071 454.7245 185.0878)" width="9.817" height="1.3"/>
	<rect class="st0" x="-0.978" y="636.822" transform="matrix(0.7071 0.7071 -0.7071 0.7071 451.8961 183.9163)" width="9.817" height="1.3"/>
	<rect class="st0" x="-0.978" y="632.822" transform="matrix(0.7071 0.7071 -0.7071 0.7071 449.0678 182.7448)" width="9.817" height="1.3"/>
	<rect class="st0" x="-0.978" y="628.822" transform="matrix(0.7071 0.7071 -0.7071 0.7071 446.2395 181.5734)" width="9.817" height="1.3"/>
	<rect class="st0" x="-0.978" y="624.822" transform="matrix(0.7071 0.7071 -0.7071 0.7071 443.4421 180.4326)" width="9.818" height="1.3"/>
	<rect class="st0" x="-0.978" y="620.821" transform="matrix(0.7071 0.7071 -0.7071 0.7071 440.5821 179.2301)" width="9.817" height="1.3"/>
	<rect class="st0" x="-0.978" y="616.821" transform="matrix(0.7071 0.7071 -0.7071 0.7071 437.7538 178.0587)" width="9.817" height="1.3"/>
	<rect class="st0" x="-0.978" y="612.821" transform="matrix(0.7071 0.7071 -0.7071 0.7071 434.9255 176.8872)" width="9.817" height="1.3"/>
	<rect class="st0" x="-0.978" y="608.821" transform="matrix(0.7071 0.7071 -0.7071 0.7071 432.1273 175.7457)" width="9.818" height="1.3"/>
	<rect class="st0" x="-0.978" y="604.82" transform="matrix(0.7071 0.7071 -0.7071 0.7071 429.2681 174.5439)" width="9.817" height="1.3"/>
	<rect class="st0" x="-0.978" y="600.82" transform="matrix(0.7071 0.7071 -0.7071 0.7071 426.4398 173.3725)" width="9.817" height="1.3"/>
	<rect class="st0" x="-0.978" y="596.82" transform="matrix(0.7071 0.7071 -0.7071 0.7071 423.6115 172.201)" width="9.817" height="1.3"/>
	<rect class="st0" x="-0.978" y="592.82" transform="matrix(0.7071 0.7071 -0.7071 0.7071 420.7831 171.0295)" width="9.817" height="1.3"/>
	<rect class="st0" x="-0.978" y="588.82" transform="matrix(0.7071 0.7071 -0.7071 0.7071 417.984 169.887)" width="9.818" height="1.3"/>
	<rect class="st0" x="-0.978" y="584.819" transform="matrix(0.7071 0.7071 -0.7071 0.7071 415.1258 168.6863)" width="9.817" height="1.3"/>
	<rect class="st0" x="-0.978" y="580.819" transform="matrix(0.7071 0.7071 -0.7071 0.7071 412.2975 167.5148)" width="9.817" height="1.3"/>
	<rect class="st0" x="-0.978" y="576.819" transform="matrix(0.7071 0.7071 -0.7071 0.7071 409.4691 166.3434)" width="9.817" height="1.3"/>
	<rect class="st0" x="-0.978" y="572.819" transform="matrix(0.7071 0.7071 -0.7071 0.7071 406.6692 165.2)" width="9.818" height="1.3"/>
	<rect class="st0" x="-0.978" y="568.818" transform="matrix(0.7071 0.7071 -0.7071 0.7071 403.8118 164.0001)" width="9.817" height="1.3"/>
	<rect class="st0" x="-0.978" y="564.818" transform="matrix(0.7071 0.7071 -0.7071 0.7071 400.9835 162.8286)" width="9.817" height="1.3"/>
	<rect class="st0" x="-0.978" y="560.818" transform="matrix(0.7071 0.7071 -0.7071 0.7071 398.1552 161.6572)" width="9.817" height="1.3"/>
	<rect class="st0" x="-0.978" y="556.818" transform="matrix(0.7071 0.7071 -0.7071 0.7071 395.3268 160.4857)" width="9.817" height="1.3"/>
	<rect class="st0" x="-0.978" y="552.818" transform="matrix(0.7071 0.7071 -0.7071 0.7071 392.5259 159.3414)" width="9.818" height="1.3"/>
	<rect class="st0" x="-0.978" y="548.817" transform="matrix(0.7071 0.7071 -0.7071 0.7071 389.6695 158.1425)" width="9.817" height="1.3"/>
	<rect class="st0" x="-0.978" y="544.817" transform="matrix(0.7071 0.7071 -0.7071 0.7071 386.8412 156.971)" width="9.817" height="1.3"/>
	<rect class="st0" x="-0.978" y="540.817" transform="matrix(0.7071 0.7071 -0.7071 0.7071 384.0128 155.7995)" width="9.817" height="1.3"/>
	<rect class="st0" x="-0.978" y="536.817" transform="matrix(0.7071 0.7071 -0.7071 0.7071 381.1845 154.6281)" width="9.817" height="1.3"/>
	<rect class="st0" x="-0.978" y="532.816" transform="matrix(0.7071 0.7071 -0.7071 0.7071 378.3555 153.4563)" width="9.817" height="1.3"/>
	<rect class="st0" x="-0.978" y="528.816" transform="matrix(0.7071 0.7071 -0.7071 0.7071 375.5272 152.2848)" width="9.817" height="1.3"/>
	<rect class="st0" x="-0.978" y="524.816" transform="matrix(0.7071 0.7071 -0.7071 0.7071 372.6988 151.1133)" width="9.817" height="1.3"/>
	<rect class="st0" x="-0.978" y="520.816" transform="matrix(0.7071 0.7071 -0.7071 0.7071 369.8705 149.9419)" width="9.817" height="1.3"/>
	<rect class="st0" x="-0.978" y="516.816" transform="matrix(0.7071 0.7071 -0.7071 0.7071 367.0678 148.7958)" width="9.818" height="1.3"/>
	<rect class="st0" x="-0.978" y="512.815" transform="matrix(0.7071 0.7071 -0.7071 0.7071 364.2131 147.5986)" width="9.817" height="1.3"/>
	<rect class="st0" x="-0.978" y="508.815" transform="matrix(0.7071 0.7071 -0.7071 0.7071 361.3848 146.4272)" width="9.817" height="1.3"/>
	<rect class="st0" x="-0.978" y="504.815" transform="matrix(0.7071 0.7071 -0.7071 0.7071 358.5565 145.2557)" width="9.817" height="1.3"/>
	<rect class="st0" x="-0.978" y="500.815" transform="matrix(0.7071 0.7071 -0.7071 0.7071 355.7281 144.0842)" width="9.817" height="1.3"/>
	<rect class="st0" x="-0.978" y="496.814" transform="matrix(0.7071 0.7071 -0.7071 0.7071 352.8991 142.9124)" width="9.817" height="1.3"/>
	<rect class="st0" x="-0.978" y="492.814" transform="matrix(0.7071 0.7071 -0.7071 0.7071 350.0708 141.741)" width="9.817" height="1.3"/>
	<rect class="st0" x="-0.978" y="488.814" transform="matrix(0.7071 0.7071 -0.7071 0.7071 347.2425 140.5695)" width="9.817" height="1.3"/>
	<rect class="st0" x="-0.978" y="484.814" transform="matrix(0.7071 0.7071 -0.7071 0.7071 344.4142 139.398)" width="9.817" height="1.3"/>
	<rect class="st0" x="-0.978" y="480.814" transform="matrix(0.7071 0.7071 -0.7071 0.7071 341.6096 138.2502)" width="9.818" height="1.3"/>
	<rect class="st0" x="-0.978" y="476.813" transform="matrix(0.7071 0.7071 -0.7071 0.7071 338.7568 137.0548)" width="9.817" height="1.3"/>
	<rect class="st0" x="-0.978" y="472.813" transform="matrix(0.7071 0.7071 -0.7071 0.7071 335.9285 135.8833)" width="9.817" height="1.3"/>
	<rect class="st0" x="-0.978" y="468.813" transform="matrix(0.7071 0.7071 -0.7071 0.7071 333.1002 134.7119)" width="9.817" height="1.3"/>
	<rect class="st0" x="-0.978" y="464.813" transform="matrix(0.7071 0.7071 -0.7071 0.7071 330.2718 133.5404)" width="9.817" height="1.3"/>
	<rect class="st0" x="-0.978" y="460.813" transform="matrix(0.7071 0.7071 -0.7071 0.7071 327.4663 132.3915)" width="9.818" height="1.3"/>
	<rect class="st0" x="-0.978" y="456.812" transform="matrix(0.7071 0.7071 -0.7071 0.7071 324.6145 131.1971)" width="9.817" height="1.3"/>
	<rect class="st0" x="-0.978" y="452.812" transform="matrix(0.7071 0.7071 -0.7071 0.7071 321.7862 130.0257)" width="9.817" height="1.3"/>
	<rect class="st0" x="-0.978" y="448.812" transform="matrix(0.7071 0.7071 -0.7071 0.7071 318.9578 128.8542)" width="9.817" height="1.3"/>
	<rect class="st0" x="-0.978" y="444.812" transform="matrix(0.7071 0.7071 -0.7071 0.7071 316.1515 127.7045)" width="9.818" height="1.3"/>
	<rect class="st0" x="-0.978" y="440.811" transform="matrix(0.7071 0.7071 -0.7071 0.7071 313.3005 126.511)" width="9.817" height="1.3"/>
	<rect class="st0" x="-0.978" y="436.811" transform="matrix(0.7071 0.7071 -0.7071 0.7071 310.4722 125.3395)" width="9.817" height="1.3"/>
	<rect class="st0" x="-0.978" y="432.811" transform="matrix(0.7071 0.7071 -0.7071 0.7071 307.6438 124.168)" width="9.817" height="1.3"/>
	<rect class="st0" x="-0.978" y="428.811" transform="matrix(0.7071 0.7071 -0.7071 0.7071 304.8155 122.9966)" width="9.817" height="1.3"/>
	<rect class="st0" x="-0.978" y="424.81" transform="matrix(0.7071 0.7071 -0.7071 0.7071 301.9865 121.8248)" width="9.817" height="1.3"/>
	<rect class="st0" x="-0.978" y="420.81" transform="matrix(0.7071 0.7071 -0.7071 0.7071 299.1581 120.6533)" width="9.817" height="1.3"/>
	<rect class="st0" x="-0.978" y="416.81" transform="matrix(0.7071 0.7071 -0.7071 0.7071 296.3298 119.4818)" width="9.817" height="1.3"/>
	<rect class="st0" x="-0.978" y="412.81" transform="matrix(0.7071 0.7071 -0.7071 0.7071 293.5015 118.3104)" width="9.817" height="1.3"/>
	<rect class="st0" x="-0.978" y="408.81" transform="matrix(0.7071 0.7071 -0.7071 0.7071 290.6934 117.1589)" width="9.818" height="1.3"/>
	<rect class="st0" x="-0.978" y="404.809" transform="matrix(0.7071 0.7071 -0.7071 0.7071 287.8441 115.9671)" width="9.817" height="1.3"/>
	<rect class="st0" x="-0.978" y="400.809" transform="matrix(0.7071 0.7071 -0.7071 0.7071 285.0158 114.7957)" width="9.817" height="1.3"/>
	<rect class="st0" x="-0.978" y="396.809" transform="matrix(0.7071 0.7071 -0.7071 0.7071 282.1875 113.6242)" width="9.817" height="1.3"/>
	<rect class="st0" x="-0.978" y="392.809" transform="matrix(0.7071 0.7071 -0.7071 0.7071 279.3592 112.4527)" width="9.817" height="1.3"/>
	<rect class="st0" x="-0.979" y="388.808" transform="matrix(0.707 0.7072 -0.7072 0.707 276.5693 111.3193)" width="9.818" height="1.3"/>
	<rect class="st0" x="-0.978" y="384.808" transform="matrix(0.7071 0.7071 -0.7071 0.7071 273.7209 110.1283)" width="9.818" height="1.3"/>
	<rect class="st0" x="-0.978" y="380.808" transform="matrix(0.7071 0.7071 -0.7071 0.7071 270.8732 108.9379)" width="9.817" height="1.3"/>
	<rect class="st0" x="-0.978" y="376.808" transform="matrix(0.7071 0.7071 -0.7071 0.7071 268.0448 107.7664)" width="9.817" height="1.3"/>
	<rect class="st0" x="-0.979" y="372.808" transform="matrix(0.7071 0.7072 -0.7072 0.7071 265.2445 106.6224)" width="9.818" height="1.3"/>
	<rect class="st0" x="-0.978" y="368.807" transform="matrix(0.7071 0.7071 -0.7071 0.7071 262.3969 105.4323)" width="9.817" height="1.3"/>
	<rect class="st0" x="-0.978" y="364.807" transform="matrix(0.7071 0.7071 -0.7071 0.7071 259.5685 104.2607)" width="9.817" height="1.3"/>
	<rect class="st0" x="-0.978" y="360.807" transform="matrix(0.7071 0.7071 -0.7071 0.7071 256.7401 103.0892)" width="9.817" height="1.3"/>
	<rect class="st0" x="-0.978" y="356.807" transform="matrix(0.7071 0.7071 -0.7071 0.7071 253.9117 101.9176)" width="9.817" height="1.3"/>
	<rect class="st0" x="-0.979" y="352.807" transform="matrix(0.7071 0.7072 -0.7072 0.7071 251.1007 100.7632)" width="9.818" height="1.3"/>
	<rect class="st0" x="-0.978" y="348.807" transform="matrix(0.7071 0.7071 -0.7071 0.7071 248.2541 99.5742)" width="9.817" height="1.3"/>
	<rect class="st0" x="-0.978" y="344.807" transform="matrix(0.7071 0.7071 -0.7071 0.7071 245.4257 98.4026)" width="9.817" height="1.3"/>
	<rect class="st0" x="-0.978" y="340.807" transform="matrix(0.7071 0.7071 -0.7071 0.7071 242.5973 97.231)" width="9.817" height="1.3"/>
	<rect class="st0" x="-0.979" y="336.806" transform="matrix(0.7071 0.7072 -0.7072 0.7071 239.7855 96.0759)" width="9.818" height="1.3"/>
	<rect class="st0" x="-0.978" y="332.806" transform="matrix(0.7071 0.7071 -0.7071 0.7071 236.9397 94.8876)" width="9.817" height="1.3"/>
	<rect class="st0" x="-0.978" y="328.806" transform="matrix(0.7071 0.7071 -0.7071 0.7071 234.1113 93.716)" width="9.817" height="1.3"/>
	<rect class="st0" x="-0.978" y="324.806" transform="matrix(0.7071 0.7071 -0.7071 0.7071 231.2829 92.5444)" width="9.817" height="1.3"/>
	<rect class="st0" x="-0.978" y="320.806" transform="matrix(0.7071 0.7071 -0.7071 0.7071 228.4544 91.3729)" width="9.817" height="1.3"/>
	<rect class="st0" x="-0.979" y="316.805" transform="matrix(0.7071 0.7072 -0.7072 0.7071 225.6416 90.2167)" width="9.818" height="1.3"/>
	<rect class="st0" x="-0.978" y="312.805" transform="matrix(0.7071 0.7071 -0.7071 0.7071 222.7969 89.0294)" width="9.817" height="1.3"/>
	<rect class="st0" x="-0.978" y="308.805" transform="matrix(0.7071 0.7071 -0.7071 0.7071 219.9685 87.8578)" width="9.817" height="1.3"/>
	<rect class="st0" x="-0.978" y="304.805" transform="matrix(0.7071 0.7071 -0.7071 0.7071 217.14 86.6863)" width="9.817" height="1.3"/>
	<rect class="st0" x="-0.978" y="300.805" transform="matrix(0.7071 0.7071 -0.7071 0.7071 214.3116 85.5147)" width="9.817" height="1.3"/>
	<rect class="st0" x="-0.978" y="296.804" transform="matrix(0.7071 0.7071 -0.7071 0.7071 211.4825 84.3428)" width="9.817" height="1.3"/>
	<rect class="st0" x="-0.978" y="292.804" transform="matrix(0.7071 0.7071 -0.7071 0.7071 208.6541 83.1713)" width="9.817" height="1.3"/>
	<rect class="st0" x="-0.978" y="288.804" transform="matrix(0.7071 0.7071 -0.7071 0.7071 205.8256 81.9997)" width="9.817" height="1.3"/>
	<rect class="st0" x="-0.978" y="284.804" transform="matrix(0.7071 0.7071 -0.7071 0.7071 202.9972 80.8281)" width="9.817" height="1.3"/>
	<rect class="st0" x="-0.979" y="280.803" transform="matrix(0.7071 0.7072 -0.7072 0.7071 200.1826 79.6702)" width="9.818" height="1.3"/>
	<rect class="st0" x="-0.978" y="276.803" transform="matrix(0.7071 0.7071 -0.7071 0.7071 197.3397 78.4847)" width="9.817" height="1.3"/>
	<rect class="st0" x="-0.978" y="272.803" transform="matrix(0.7071 0.7071 -0.7071 0.7071 194.5112 77.3131)" width="9.817" height="1.3"/>
	<rect class="st0" x="-0.978" y="268.803" transform="matrix(0.7071 0.7071 -0.7071 0.7071 191.6828 76.1416)" width="9.817" height="1.3"/>
	<rect class="st0" x="-0.978" y="264.803" transform="matrix(0.7071 0.7071 -0.7071 0.7071 188.8544 74.97)" width="9.817" height="1.3"/>
	<rect class="st0" x="-0.978" y="260.802" transform="matrix(0.7071 0.7071 -0.7071 0.7071 186.0253 73.7981)" width="9.817" height="1.3"/>
	<rect class="st0" x="-0.978" y="256.802" transform="matrix(0.7071 0.7071 -0.7071 0.7071 183.1968 72.6266)" width="9.817" height="1.3"/>
	<rect class="st0" x="-0.978" y="252.802" transform="matrix(0.7071 0.7071 -0.7071 0.7071 180.3684 71.455)" width="9.817" height="1.3"/>
	<rect class="st0" x="-0.978" y="248.802" transform="matrix(0.7071 0.7071 -0.7071 0.7071 177.54 70.2834)" width="9.817" height="1.3"/>
	<rect class="st0" x="-0.979" y="244.801" transform="matrix(0.7071 0.7072 -0.7072 0.7071 174.7236 69.1237)" width="9.818" height="1.3"/>
	<rect class="st0" x="-0.978" y="240.801" transform="matrix(0.7071 0.7071 -0.7071 0.7071 171.8824 67.94)" width="9.817" height="1.3"/>
	<rect class="st0" x="-0.978" y="236.801" transform="matrix(0.7071 0.7071 -0.7071 0.7071 169.054 66.7684)" width="9.817" height="1.3"/>
	<rect class="st0" x="-0.978" y="232.801" transform="matrix(0.7071 0.7071 -0.7071 0.7071 166.2256 65.5968)" width="9.817" height="1.3"/>
	<rect class="st0" x="-0.978" y="228.801" transform="matrix(0.7071 0.7071 -0.7071 0.7071 163.3972 64.4252)" width="9.817" height="1.3"/>
	<rect class="st0" x="-0.978" y="224.799" transform="matrix(0.7071 0.7071 -0.7071 0.7071 160.5736 63.2588)" width="9.818" height="1.3"/>
	<rect class="st0" x="-0.978" y="220.799" transform="matrix(0.7071 0.7071 -0.7071 0.7071 157.7451 62.0872)" width="9.818" height="1.3"/>
	<rect class="st0" x="-0.978" y="216.799" transform="matrix(0.7071 0.7071 -0.7071 0.7071 154.9165 60.9155)" width="9.818" height="1.3"/>
	<rect class="st0" x="-0.978" y="212.799" transform="matrix(0.7071 0.7071 -0.7071 0.7071 152.088 59.7438)" width="9.818" height="1.3"/>
	<rect class="st0" x="-0.979" y="208.799" transform="matrix(0.707 0.7072 -0.7072 0.707 149.2697 58.5822)" width="9.818" height="1.3"/>
	<rect class="st0" x="-0.978" y="204.798" transform="matrix(0.7071 0.7071 -0.7071 0.7071 146.4303 57.4002)" width="9.818" height="1.3"/>
	<rect class="st0" x="-0.978" y="200.798" transform="matrix(0.7071 0.7071 -0.7071 0.7071 143.6017 56.2285)" width="9.818" height="1.3"/>
	<rect class="st0" x="-0.978" y="196.798" transform="matrix(0.7071 0.7071 -0.7071 0.7071 140.7732 55.0568)" width="9.818" height="1.3"/>
	<rect class="st0" x="-0.978" y="192.798" transform="matrix(0.7071 0.7071 -0.7071 0.7071 137.9447 53.8852)" width="9.818" height="1.3"/>
	<rect class="st0" x="-0.978" y="188.797" transform="matrix(0.7071 0.7071 -0.7071 0.7071 135.1154 52.7132)" width="9.818" height="1.3"/>
	<rect class="st0" x="-0.978" y="184.797" transform="matrix(0.7071 0.7071 -0.7071 0.7071 132.2869 51.5415)" width="9.818" height="1.3"/>
	<rect class="st0" x="-0.978" y="180.797" transform="matrix(0.7071 0.7071 -0.7071 0.7071 129.4584 50.3699)" width="9.818" height="1.3"/>
	<rect class="st0" x="-0.978" y="176.797" transform="matrix(0.7071 0.7071 -0.7071 0.7071 126.6299 49.1982)" width="9.818" height="1.3"/>
	<rect class="st0" x="-0.979" y="172.797" transform="matrix(0.707 0.7072 -0.7072 0.707 123.8098 48.0348)" width="9.818" height="1.3"/>
	<rect class="st0" x="-0.978" y="168.796" transform="matrix(0.7071 0.7071 -0.7071 0.7071 120.9721 46.8546)" width="9.818" height="1.3"/>
	<rect class="st0" x="-0.978" y="164.796" transform="matrix(0.7071 0.7071 -0.7071 0.7071 118.1436 45.6829)" width="9.818" height="1.3"/>
	<rect class="st0" x="-0.978" y="160.796" transform="matrix(0.7071 0.7071 -0.7071 0.7071 115.3151 44.5112)" width="9.818" height="1.3"/>
	<rect class="st0" x="-0.978" y="156.796" transform="matrix(0.7071 0.7071 -0.7071 0.7071 112.4865 43.3395)" width="9.818" height="1.3"/>
	<rect class="st0" x="-0.979" y="152.796" transform="matrix(0.707 0.7072 -0.7072 0.707 109.6655 42.1752)" width="9.818" height="1.3"/>
	<rect class="st0" x="-0.978" y="148.796" transform="matrix(0.7071 0.7071 -0.7071 0.7071 106.8288 40.9959)" width="9.818" height="1.3"/>
	<rect class="st0" x="-0.978" y="144.796" transform="matrix(0.7071 0.7071 -0.7071 0.7071 104.0003 39.8242)" width="9.818" height="1.3"/>
	<rect class="st0" x="-0.978" y="140.796" transform="matrix(0.7071 0.7071 -0.7071 0.7071 101.1718 38.6526)" width="9.818" height="1.3"/>
	<rect class="st0" x="-0.979" y="136.795" transform="matrix(0.707 0.7072 -0.7072 0.707 98.3499 37.4874)" width="9.818" height="1.3"/>
	<rect class="st0" x="-0.978" y="132.795" transform="matrix(0.7071 0.7071 -0.7071 0.7071 95.514 36.3089)" width="9.818" height="1.3"/>
	<rect class="st0" x="-0.978" y="128.795" transform="matrix(0.7071 0.7071 -0.7071 0.7071 92.6855 35.1373)" width="9.818" height="1.3"/>
	<rect class="st0" x="-0.978" y="124.795" transform="matrix(0.7071 0.7071 -0.7071 0.7071 89.857 33.9656)" width="9.818" height="1.3"/>
	<rect class="st0" x="-0.978" y="120.795" transform="matrix(0.7071 0.7071 -0.7071 0.7071 87.0284 32.7939)" width="9.818" height="1.3"/>
	<rect class="st0" x="-0.979" y="116.794" transform="matrix(0.707 0.7072 -0.7072 0.707 84.2056 31.6278)" width="9.818" height="1.3"/>
	<rect class="st0" x="-0.978" y="112.794" transform="matrix(0.7071 0.7071 -0.7071 0.7071 81.3707 30.4503)" width="9.818" height="1.3"/>
	<rect class="st0" x="-0.978" y="108.794" transform="matrix(0.7071 0.7071 -0.7071 0.7071 78.5422 29.2786)" width="9.818" height="1.3"/>
	<rect class="st0" x="-0.978" y="104.794" transform="matrix(0.7071 0.7071 -0.7071 0.7071 75.7136 28.1069)" width="9.818" height="1.3"/>
	<rect class="st0" x="-0.979" y="100.793" transform="matrix(0.707 0.7072 -0.7072 0.707 72.89 26.94)" width="9.818" height="1.3"/>
	<rect class="st0" x="-0.978" y="96.793" transform="matrix(0.7071 0.7071 -0.7071 0.7071 70.0559 25.7633)" width="9.818" height="1.3"/>
	<rect class="st0" x="-0.978" y="92.793" transform="matrix(0.7071 0.7071 -0.7071 0.7071 67.2274 24.5916)" width="9.818" height="1.3"/>
	<rect class="st0" x="-0.978" y="88.793" transform="matrix(0.7071 0.7071 -0.7071 0.7071 64.3988 23.42)" width="9.818" height="1.3"/>
	<rect class="st0" x="-0.978" y="84.793" transform="matrix(0.7071 0.7071 -0.7071 0.7071 61.5703 22.2483)" width="9.818" height="1.3"/>
	<rect class="st0" x="-0.979" y="80.792" transform="matrix(0.707 0.7072 -0.7072 0.707 58.7457 21.0803)" width="9.818" height="1.3"/>
	<rect class="st0" x="-0.978" y="76.791" transform="matrix(0.7071 0.7071 -0.7071 0.7071 55.9104 19.9028)" width="9.817" height="1.3"/>
	<rect class="st0" x="-0.978" y="72.791" transform="matrix(0.7071 0.7071 -0.7071 0.7071 53.0819 18.7312)" width="9.817" height="1.3"/>
	<rect class="st0" x="-0.978" y="68.791" transform="matrix(0.7071 0.7071 -0.7071 0.7071 50.2535 17.5596)" width="9.817" height="1.3"/>
	<rect class="st0" x="-0.978" y="64.791" transform="matrix(0.7071 0.7071 -0.7071 0.7071 47.4251 16.388)" width="9.817" height="1.3"/>
	<rect class="st0" x="-0.978" y="60.79" transform="matrix(0.7071 0.7071 -0.7071 0.7071 44.596 15.2162)" width="9.817" height="1.3"/>
	<rect class="st0" x="-0.978" y="56.79" transform="matrix(0.7071 0.7071 -0.7071 0.7071 41.7675 14.0446)" width="9.817" height="1.3"/>
	<rect class="st0" x="-0.978" y="52.79" transform="matrix(0.7071 0.7071 -0.7071 0.7071 38.9391 12.873)" width="9.817" height="1.3"/>
	<rect class="st0" x="-0.978" y="48.79" transform="matrix(0.7071 0.7071 -0.7071 0.7071 36.1107 11.7015)" width="9.817" height="1.3"/>
	<rect class="st0" x="-0.979" y="44.79" transform="matrix(0.7071 0.7072 -0.7072 0.7071 33.2844 10.5318)" width="9.818" height="1.3"/>
	<rect class="st0" x="-0.978" y="40.789" transform="matrix(0.7071 0.7071 -0.7071 0.7071 30.4531 9.358)" width="9.817" height="1.3"/>
	<rect class="st0" x="-0.978" y="36.789" transform="matrix(0.7071 0.7071 -0.7071 0.7071 27.6247 8.1865)" width="9.817" height="1.3"/>
	<rect class="st0" x="-0.978" y="32.789" transform="matrix(0.7071 0.7071 -0.7071 0.7071 24.7963 7.0149)" width="9.817" height="1.3"/>
	<rect class="st0" x="-0.978" y="28.789" transform="matrix(0.7071 0.7071 -0.7071 0.7071 21.9679 5.8433)" width="9.817" height="1.3"/>
	<rect class="st0" x="-0.978" y="24.788" transform="matrix(0.7071 0.7071 -0.7071 0.7071 19.1387 4.6715)" width="9.817" height="1.3"/>
	<rect class="st0" x="-0.978" y="20.788" transform="matrix(0.7071 0.7071 -0.7071 0.7071 16.3103 3.4999)" width="9.817" height="1.3"/>
	<rect class="st0" x="-0.967" y="16.534" transform="matrix(0.6692 0.7431 -0.7431 0.6692 14.1075 2.6776)" width="10.027" height="1.3"/>
	<rect class="st0" x="-0.008" y="13.618" transform="matrix(0.6046 0.7965 -0.7965 0.6046 13.3502 1.6392)" width="10.064" height="1.3"/>
	<rect class="st0" x="1.57" y="9.454" transform="matrix(0.3687 0.9295 -0.9295 0.3687 13.408 0.4648)" width="9.585" height="1.3"/>
	<rect class="st0" x="4.071" y="6.45" transform="matrix(0.0088 1 -1 0.0088 15.8022 -1.7419)" width="9.417" height="1.3"/>
	<rect class="st0" x="11.194" y="0.484" transform="matrix(0.9451 0.3268 -0.3268 0.9451 2.3611 -3.5831)" width="1.3" height="9.501"/>
	<rect class="st0" x="10.592" y="3.641" transform="matrix(-0.5683 0.8228 -0.8228 -0.5683 27.6161 -5.9077)" width="9.532" height="1.299"/>
	<rect class="st0" x="14.798" y="3.737" transform="matrix(-0.6772 0.7358 -0.7358 -0.6772 36.0656 -7.0476)" width="9.562" height="1.3"/>
</g>
</svg>
