<?xml version="1.0" encoding="utf-8"?>
<!-- Generator: Adobe Illustrator 14.0.0, SVG Export Plug-In . SVG Version: 6.00 Build 43363)  -->
<!DOCTYPE svg PUBLIC "-//W3C//DTD SVG 1.1//EN" "http://www.w3.org/Graphics/SVG/1.1/DTD/svg11.dtd">
<svg version="1.1" id="Nouveau_x5F_6_xA0_Image_1_" xmlns="http://www.w3.org/2000/svg" xmlns:xlink="http://www.w3.org/1999/xlink"
	 x="0px" y="0px" width="729px" height="969px" viewBox="0 0 729 969" style="enable-background:new 0 0 729 969;"
	 xml:space="preserve">
<style type="text/css">
<![CDATA[
	.st0{fill-rule:evenodd;clip-rule:evenodd;fill:none;stroke:#000000;stroke-width:2.9886;stroke-linecap:round;}
	.st1{fill-rule:evenodd;clip-rule:evenodd;fill:none;stroke:#000000;stroke-width:1.3801;stroke-linecap:round;}
	.st2{fill-rule:evenodd;clip-rule:evenodd;fill:none;stroke:#000000;stroke-width:3.1192;stroke-linecap:round;}
	.st3{fill-rule:evenodd;clip-rule:evenodd;fill:none;stroke:#000000;stroke-width:2.1506;stroke-linecap:round;}
	.st4{fill-rule:evenodd;clip-rule:evenodd;fill:none;stroke:#000000;stroke-width:2.7646;stroke-linecap:round;}
	.st5{fill-rule:evenodd;clip-rule:evenodd;fill:none;stroke:#000000;stroke-width:3.2344;stroke-linecap:round;}
	.st6{fill-rule:evenodd;clip-rule:evenodd;fill:none;stroke:#000000;stroke-width:2.9872;stroke-linecap:round;}
	.st7{fill-rule:evenodd;clip-rule:evenodd;fill:none;stroke:#000000;stroke-width:1.3663;stroke-linecap:round;}
	.st8{fill-rule:evenodd;clip-rule:evenodd;fill:none;stroke:#000000;stroke-width:3.0791;stroke-linecap:round;}
	.st9{fill-rule:evenodd;clip-rule:evenodd;fill:none;stroke:#000000;stroke-width:2.1909;stroke-linecap:round;}
	.st10{fill-rule:evenodd;clip-rule:evenodd;fill:none;stroke:#000000;stroke-width:3.0397;stroke-linecap:round;}
	.st11{fill-rule:evenodd;clip-rule:evenodd;fill:none;stroke:#000000;stroke-width:3.2094;stroke-linecap:round;}
	.st12{fill-rule:evenodd;clip-rule:evenodd;fill:none;stroke:#000000;stroke-width:1.1643;stroke-linecap:round;}
	.st13{fill-rule:evenodd;clip-rule:evenodd;fill:none;stroke:#000000;stroke-width:2.5179;stroke-linecap:round;}
	.st14{fill-rule:evenodd;clip-rule:evenodd;fill:none;stroke:#000000;stroke-width:2.132;stroke-linecap:round;}
	.st15{fill-rule:evenodd;clip-rule:evenodd;fill:none;stroke:#000000;stroke-width:2.9984;stroke-linecap:round;}
	.st16{fill-rule:evenodd;clip-rule:evenodd;fill:none;stroke:#000000;stroke-width:3;stroke-linecap:round;}
	.st17{fill-rule:evenodd;clip-rule:evenodd;fill:none;stroke:#000000;stroke-width:1.1952;stroke-linecap:round;}
	.st18{fill-rule:evenodd;clip-rule:evenodd;fill:none;stroke:#000000;stroke-width:2.9858;stroke-linecap:round;}
	.st19{fill-rule:evenodd;clip-rule:evenodd;fill:none;stroke:#000000;stroke-width:2.5912;stroke-linecap:round;}
	.st20{fill-rule:evenodd;clip-rule:evenodd;fill:none;stroke:#000000;stroke-width:1.8209;stroke-linecap:round;}
	.st21{fill-rule:evenodd;clip-rule:evenodd;fill:none;stroke:#000000;stroke-width:2.1448;stroke-linecap:round;}
	.st22{fill-rule:evenodd;clip-rule:evenodd;fill:none;stroke:#000000;stroke-width:1.5584;stroke-linecap:round;}
	.st23{fill-rule:evenodd;clip-rule:evenodd;fill:none;stroke:#000000;stroke-width:2.1489;stroke-linecap:round;}
	.st24{fill-rule:evenodd;clip-rule:evenodd;fill:none;stroke:#000000;stroke-width:1.5811;stroke-linecap:round;}
	.st25{fill-rule:evenodd;clip-rule:evenodd;fill:none;stroke:#000000;stroke-width:2.2664;stroke-linecap:round;}
	.st26{fill-rule:evenodd;clip-rule:evenodd;fill:none;stroke:#000000;stroke-width:2.0976;stroke-linecap:round;}
	.st27{fill-rule:evenodd;clip-rule:evenodd;fill:none;stroke:#000000;stroke-width:3.2025;stroke-linecap:round;}
	.st28{fill-rule:evenodd;clip-rule:evenodd;fill:none;stroke:#000000;stroke-width:2.5;stroke-linecap:round;}
	.st29{fill-rule:evenodd;clip-rule:evenodd;fill:none;stroke:#000000;stroke-width:3.0408;stroke-linecap:round;}
	.st30{fill-rule:evenodd;clip-rule:evenodd;fill:none;stroke:#000000;stroke-width:3.3976;stroke-linecap:round;}
	.st31{fill-rule:evenodd;clip-rule:evenodd;fill:none;stroke:#000000;stroke-width:2.7386;stroke-linecap:round;}
	.st32{fill-rule:evenodd;clip-rule:evenodd;fill:none;stroke:#000000;stroke-width:3.3912;stroke-linecap:round;}
	.st33{fill-rule:evenodd;clip-rule:evenodd;fill:none;stroke:#000000;stroke-width:3.1042;stroke-linecap:round;}
	.st34{fill-rule:evenodd;clip-rule:evenodd;fill:none;stroke:#000000;stroke-width:2.7789;stroke-linecap:round;}
	.st35{fill-rule:evenodd;clip-rule:evenodd;fill:none;stroke:#000000;stroke-width:3.2029;stroke-linecap:round;}
	.st36{fill-rule:evenodd;clip-rule:evenodd;fill:none;stroke:#000000;stroke-width:2.1573;stroke-linecap:round;}
	.st37{fill-rule:evenodd;clip-rule:evenodd;fill:none;stroke:#000000;stroke-width:2.5393;stroke-linecap:round;}
	.st38{fill-rule:evenodd;clip-rule:evenodd;fill:none;stroke:#000000;stroke-width:2.1344;stroke-linecap:round;}
	.st39{fill-rule:evenodd;clip-rule:evenodd;fill:none;stroke:#000000;stroke-width:3.0682;stroke-linecap:round;}
	.st40{fill-rule:evenodd;clip-rule:evenodd;fill:none;stroke:#000000;stroke-width:1.0556;stroke-linecap:round;}
	.st41{fill-rule:evenodd;clip-rule:evenodd;fill:none;stroke:#000000;stroke-width:3.1037;stroke-linecap:round;}
	.st42{fill-rule:evenodd;clip-rule:evenodd;fill:none;stroke:#000000;stroke-width:2.4319;stroke-linecap:round;}
	.st43{fill-rule:evenodd;clip-rule:evenodd;fill:none;stroke:#000000;stroke-width:1.7248;stroke-linecap:round;}
	.st44{fill-rule:evenodd;clip-rule:evenodd;fill:none;stroke:#000000;stroke-width:2.8927;stroke-linecap:round;}
	.st45{fill-rule:evenodd;clip-rule:evenodd;fill:none;stroke:#000000;stroke-width:2.4857;stroke-linecap:round;}
	.st46{fill-rule:evenodd;clip-rule:evenodd;fill:none;stroke:#000000;stroke-width:2.5253;stroke-linecap:round;}
	.st47{fill-rule:evenodd;clip-rule:evenodd;fill:none;stroke:#000000;stroke-width:2.0817;stroke-linecap:round;}
	.st48{fill-rule:evenodd;clip-rule:evenodd;fill:none;stroke:#000000;stroke-width:2.1213;stroke-linecap:round;}
	.st49{fill-rule:evenodd;clip-rule:evenodd;fill:none;stroke:#000000;stroke-width:3.0189;stroke-linecap:round;}
	.st50{fill-rule:evenodd;clip-rule:evenodd;fill:none;stroke:#000000;stroke-width:3.1623;stroke-linecap:round;}
	.st51{fill-rule:evenodd;clip-rule:evenodd;fill:none;stroke:#000000;stroke-width:2.1451;stroke-linecap:round;}
	.st52{fill-rule:evenodd;clip-rule:evenodd;fill:none;stroke:#000000;stroke-width:3.0748;stroke-linecap:round;}
	.st53{fill-rule:evenodd;clip-rule:evenodd;fill:none;stroke:#000000;stroke-width:1.0954;stroke-linecap:round;}
	.st54{fill:#000000;fill-rule:evenodd;clip-rule:evenodd;}
	.st55{fill-rule:evenodd;clip-rule:evenodd;fill:none;stroke:#000000;stroke-width:1.7678;stroke-linecap:round;}
	.st56{fill-rule:evenodd;clip-rule:evenodd;fill:none;stroke:#000000;stroke-width:1.4907;stroke-linecap:round;}
	.st57{fill-rule:evenodd;clip-rule:evenodd;fill:none;stroke:#000000;stroke-width:2.7568;stroke-linecap:round;}
	.st58{fill-rule:evenodd;clip-rule:evenodd;fill:none;stroke:#000000;stroke-width:1.2369;stroke-linecap:round;}
	.st59{fill-rule:evenodd;clip-rule:evenodd;fill:none;stroke:#000000;stroke-width:1.2472;stroke-linecap:round;}
	.st60{fill-rule:evenodd;clip-rule:evenodd;fill:none;stroke:#000000;stroke-width:3.1494;stroke-linecap:round;}
	.st61{fill-rule:evenodd;clip-rule:evenodd;fill:none;stroke:#000000;stroke-width:2.5495;stroke-linecap:round;}
	.st62{fill-rule:evenodd;clip-rule:evenodd;fill:none;stroke:#000000;stroke-width:2.6899;stroke-linecap:round;}
	.st63{fill-rule:evenodd;clip-rule:evenodd;fill:none;stroke:#000000;stroke-width:1.372;stroke-linecap:round;}
	.st64{fill-rule:evenodd;clip-rule:evenodd;fill:none;stroke:#000000;stroke-width:2.9439;stroke-linecap:round;}
	.st65{fill-rule:evenodd;clip-rule:evenodd;fill:none;stroke:#000000;stroke-width:2.7295;stroke-linecap:round;}
	.st66{fill-rule:evenodd;clip-rule:evenodd;fill:none;stroke:#000000;stroke-width:2.3184;stroke-linecap:round;}
	.st67{fill-rule:evenodd;clip-rule:evenodd;fill:none;stroke:#000000;stroke-width:2.2039;stroke-linecap:round;}
	.st68{fill-rule:evenodd;clip-rule:evenodd;fill:none;stroke:#000000;stroke-width:1.6237;stroke-linecap:round;}
	.st69{fill-rule:evenodd;clip-rule:evenodd;fill:none;stroke:#000000;stroke-width:1.3301;stroke-linecap:round;}
	.st70{fill-rule:evenodd;clip-rule:evenodd;fill:none;stroke:#000000;stroke-width:1.1292;stroke-linecap:round;}
	.st71{fill-rule:evenodd;clip-rule:evenodd;fill:none;stroke:#000000;stroke-width:1.0282;stroke-linecap:round;}
	.st72{fill-rule:evenodd;clip-rule:evenodd;fill:none;stroke:#000000;stroke-width:2.0131;stroke-linecap:round;}
	.st73{fill-rule:evenodd;clip-rule:evenodd;fill:none;stroke:#000000;stroke-width:1.0165;stroke-linecap:round;}
	.st74{fill-rule:evenodd;clip-rule:evenodd;fill:none;stroke:#000000;stroke-width:1.9365;stroke-linecap:round;}
	.st75{fill-rule:evenodd;clip-rule:evenodd;fill:none;stroke:#000000;stroke-width:4.0628;stroke-linecap:round;}
	.st76{fill-rule:evenodd;clip-rule:evenodd;fill:none;stroke:#000000;stroke-width:1.1972;stroke-linecap:round;}
	.st77{fill-rule:evenodd;clip-rule:evenodd;fill:none;stroke:#000000;stroke-width:1.4491;stroke-linecap:round;}
	.st78{fill-rule:evenodd;clip-rule:evenodd;fill:none;stroke:#000000;stroke-width:2.273;stroke-linecap:round;}
	.st79{fill-rule:evenodd;clip-rule:evenodd;fill:none;stroke:#000000;stroke-width:3.4127;stroke-linecap:round;}
	.st80{fill-rule:evenodd;clip-rule:evenodd;fill:none;stroke:#000000;stroke-width:2.2361;stroke-linecap:round;}
	.st81{fill-rule:evenodd;clip-rule:evenodd;fill:none;stroke:#000000;stroke-width:3.4001;stroke-linecap:round;}
	.st82{fill-rule:evenodd;clip-rule:evenodd;fill:none;stroke:#000000;stroke-width:2.1486;stroke-linecap:round;}
	.st83{fill-rule:evenodd;clip-rule:evenodd;fill:none;stroke:#000000;stroke-width:2.1454;stroke-linecap:round;}
	.st84{fill-rule:evenodd;clip-rule:evenodd;fill:none;stroke:#000000;stroke-width:1.6733;stroke-linecap:round;}
	.st85{fill-rule:evenodd;clip-rule:evenodd;fill:none;stroke:#000000;stroke-width:2.891;stroke-linecap:round;}
	.st86{fill-rule:evenodd;clip-rule:evenodd;fill:none;stroke:#000000;stroke-width:2.0847;stroke-linecap:round;}
	.st87{fill-rule:evenodd;clip-rule:evenodd;fill:none;stroke:#000000;stroke-width:1.9149;stroke-linecap:round;}
	.st88{fill-rule:evenodd;clip-rule:evenodd;fill:none;stroke:#000000;stroke-width:1.169;stroke-linecap:round;}
	.st89{fill-rule:evenodd;clip-rule:evenodd;fill:none;stroke:#000000;stroke-width:1.2505;stroke-linecap:round;}
	.st90{fill-rule:evenodd;clip-rule:evenodd;fill:none;stroke:#000000;stroke-width:4.0627;stroke-linecap:round;}
	.st91{fill-rule:evenodd;clip-rule:evenodd;fill:none;stroke:#000000;stroke-width:2.1064;stroke-linecap:round;}
	.st92{fill-rule:evenodd;clip-rule:evenodd;fill:none;stroke:#000000;stroke-width:1.2649;stroke-linecap:round;}
	.st93{fill-rule:evenodd;clip-rule:evenodd;fill:none;stroke:#000000;stroke-width:3.0029;stroke-linecap:round;}
]]>
</style>
<g>
	<g>
		<path class="st54" d="M11,0c3,0,6,0,9,0c0,1.667,0,3.333,0,5l-1.5-0.5L18,6c-0.851-0.184-0.943,0.39-1,1l-1-0.5L15,6
			C13.27,4.397,12.071,2.263,11,0z"/>
		<path class="st54" d="M22,0c1.667,0,3.333,0,5,0c-0.793,2.207-4.701,1.299-5,4C19.005,3.342,22.956,1.862,22,0z"/>
		<path class="st54" d="M702,0c1.667,0,3.333,0,5,0c-0.225,1.891,1.127,2.206,1,4c-2.111-0.889-2.956-3.044-6-3
			C702,0.667,702,0.333,702,0z"/>
		<path class="st54" d="M709,0c3,0,6,0,9,0c-0.4,2.6-2.984,3.016-3,6l-1.5-0.5L714,7l-1-1.75L712,7c-0.333,0-0.667,0-1,0l-1-1l-1,1
			C706.524,6.035,710.378,3.16,709,0z"/>
		<path class="st54" d="M716.786,7.643L716,6c0.4-2.6,2.984-3.016,3-6c3.333,0,6.667,0,10,0c0,3.333,0,6.667,0,10
			c-2.306,1.028-3.225,3.442-7,3l-1.5-0.5L721,14c-1.772-0.228-5.008,1.008-4-2h2v-2c0.633-1.45,6.828-5.455,4-4
			c-2.081,0.586-3.232,2.102-5,3L716.786,7.643z"/>
		<path class="st54" d="M719.5,21.5L719,20c2.562-3.438,5.374-6.626,10-8c0,4,0,8,0,12c-1.667,0-3.333,0-5,0
			c0.914,3.357,1.859,0.495,5,1c0,1.667,0,3.333,0,5c-2.609,3.474-7.639,5.333-12,2c0.069-5.794,0.577-7.272,1-11L719.5,21.5z"/>
		<path class="st54" d="M43,25c-1,0-2,0-3,0c-0.306-3.027-3.094-3.573-2-8c5.811-1.189,8.932-5.068,12-9
			c4.07,2.397,4.768,8.004,1,11l-1.833-0.5L48,20c-1.862,0.138-3.342,0.658-4,2l-1.5,1.167L43,25z"/>
		<path class="st54" d="M49.833,20.5L51,19c1.987-0.013,1.271-2.729,4-2c-0.01,2.656,0.378,5.711-1,7c-1.667,0-3.333,0-5,0
			l0.5-1.833L48,21c0-0.333,0-0.667,0-1L49.833,20.5z"/>
		<path class="st54" d="M715,14c2.516,1.005-0.796,4.422-3,4c0-1,0-2,0-3C713.44,16.119,714.44,16.078,715,14z"/>
		<path class="st54" d="M19,29c-4.34-1.702-3.97-4.884-3-10c3.537-1.755,5.152,3.359,6,1l1.833,0.5L25,19
			c2.059,0.275,0.941,3.725,3,4c-0.888,1.778-2.792,2.542-2,6c-1.667,0-3.333,0-5,0c0,0.333,0,0.667,0,1l-1-0.5L19,29z"/>
		<path class="st54" d="M23.167,18.5L22,20c-1.173-1.494-4.155-1.178-4-4c1.289-1.378,4.344-0.99,7-1c0,1.333,0,2.667,0,4
			L23.167,18.5z"/>
		<path class="st54" d="M41,28C38.642,31.217,36.958,24.483,41,28L41,28z"/>
		<path class="st54" d="M43,940c2.21-3.123,7.422-3.244,11-5c0.184-0.851-0.39-0.943-1-1l0.5-1.833L52,931c2.583-3.16,6.266,1,9,1
			c-1.904,3.43-3.423,7.243-5,11c-4.517-0.816-12.594,1.927-14-2h1V940z"/>
		<path class="st54" d="M0,940c2.249-4.361,5.838-5.846,12-4c1.275,11.616-3.038,17.494-12,21c0-4,0-8,0-12c1.667,0,3.333,0,5,0
			c-0.914-3.356-1.859-0.495-5-1C0,942.667,0,941.333,0,940z"/>
		<path class="st54" d="M729,957c-8.563-3.641-12.779-9.08-12-20c4.537-2.687,9.685-2.097,12,2c0,1.667,0,3.333,0,5
			c-2.487-0.109-3.096-1.874-5,0c-0.169,2.169,3.547,0.453,5,1C729,949,729,953,729,957z"/>
		<path class="st54" d="M692,941c-0.658,2.995-2.138-0.956-4,0C688.15,938.513,691.387,940.708,692,941z"/>
		<path class="st54" d="M690,946c-0.175-1.631,6.542-2.019,5,1C693.84,946.161,692.319,945.681,690,946z"/>
		<path class="st54" d="M699,948C695.885,952.02,687.935,946.471,699,948L699,948z"/>
		<path class="st54" d="M81,969c0.164-3.164-2.658-3.342-2-7c3.736-1.069,2.85,2.483,6,2l-0.5,1.833L86,967
			c-0.248,1.086-1.988,0.678-2,2C83,969,82,969,81,969z"/>
		<path class="st54" d="M609.5,965.833L611,967c-0.227,1.44-2.984,0.349-3,2c-0.667,0-1.333,0-2,0c-1.028-2.306-3.442-3.225-3-7
			c3.988-0.988,3.012,2.988,7,2L609.5,965.833z"/>
		<path class="st54" d="M504.5,965.833L506,967c-0.227,1.44-2.984,0.349-3,2c-0.667,0-1.333,0-2,0c-1.028-2.306-3.442-3.225-3-7
			c3.988-0.988,3.012,2.988,7,2L504.5,965.833z"/>
		<path class="st54" d="M399.5,965.833L401,967c-0.227,1.44-2.984,0.349-3,2c-0.667,0-1.333,0-2,0c-1.028-2.306-3.442-3.225-3-7
			c3.988-0.988,3.012,2.988,7,2L399.5,965.833z"/>
		<path class="st54" d="M294.5,965.833L296,967c-0.227,1.44-2.984,0.349-3,2c-0.667,0-1.333,0-2,0c-1.028-2.306-3.442-3.225-3-7
			c3.989-0.988,3.011,2.988,7,2L294.5,965.833z"/>
		<path class="st54" d="M189.5,965.833L191,967c-0.226,1.44-2.985,0.349-3,2c-0.667,0-1.333,0-2,0c-1.028-2.306-3.442-3.225-3-7
			c3.989-0.988,3.011,2.988,7,2L189.5,965.833z"/>
		<path class="st54" d="M36,969c-0.684-5.316-5.587-6.413-5-13c1.904-1.874,2.512-0.109,5,0c-0.09-1.576-2.55-0.783-2-3
			c7.404-1.956,18.807,7.716,13,16C43.333,969,39.667,969,36,969z"/>
		<path class="st54" d="M27,969c-1.333,0-2.667,0-4,0c-0.485-1.182-1.066-2.268-2-3c2.116-3.321,2.904,3.002,6,2
			C27,968.333,27,968.667,27,969z"/>
		<path class="st54" d="M707,969c-1.667,0-3.333,0-5,0c0.793-2.207,4.7-1.3,5-4C709.487,965.15,707.292,968.387,707,969z"/>
		<path class="st54" d="M10,0c0.234,3.766,3.766,4.234,4,8l-1.786-0.357L11,9C9.036,8.552,6.002,4.104,5,6
			c1.502,1.498,4.211,1.789,5,4v2h2c1.008,3.008-2.228,1.772-4,2l0.5-1.5L7,13c-3.775,0.442-4.695-1.972-7-3C0,6.667,0,3.333,0,0
			C3.333,0,6.667,0,10,0z"/>
		<path class="st54" d="M9.5,21.5L11,21c0.422,3.728,0.931,5.206,1,11c-4.361,3.333-9.391,1.474-12-2c0-1.667,0-3.333,0-5
			c5.71,0.701,5.71-1.701,0-1c0-4,0-8,0-12c4.626,1.374,7.438,4.562,10,8L9.5,21.5z"/>
		<path class="st54" d="M35,15h-1c0.443-0.89,0.878-1.789,2-2c-0.729-2.478-3.009,3.301-5,0c-0.108-6.108,3.504-8.496,5-13
			c3.333,0,6.667,0,10,0c7.637,6.214-5.142,17.272-11,16V15z"/>
		<path class="st54" d="M32,25c1.172,0.162,0.843,1.823,1,3c1.172-0.162,0.843-1.823,1-3c3.796,2.537,5.315,7.352,5,14
			c-3.898,3.732-6.815,1.837-12,0c0-4,0-8,0-12c1.987-0.013,1.271-2.729,4-2l0.5,1.5L32,25z"/>
		<path class="st54" d="M698,24c2.039,0.294,1.961,2.706,4,3c0,4,0,8,0,12c-1.824,1.509-5.605,1.061-7,3
			c-5.417-1.61-5.962-9.064-3-14l1.5,0.5L693,27c0.241-1.759,1.721-2.279,4-2h1V24z"/>
		<path class="st54" d="M682,0c3.667,0,7.333,0,11,0c1.26,4.74,5.566,6.434,5,13c-1.479,1.158-2.521,1.158-4,0
			c0.19,0.81,1.003,0.997,1,2h-1v1C688.042,16.913,676.619,7.509,682,0z"/>
		<path class="st54" d="M710,969c-0.507-2.477-1.153-5.947-1-7l1.5,0.5l0.5-1.5c0.333,0,0.667,0,1,0l1,1.75l1-1.75l-0.5,1.5l1.5-0.5
			c-0.253,3.586,3.003,3.664,3,7C715.333,969,712.667,969,710,969z"/>
		<path class="st54" d="M716.5,960.5L715,960c1.455-5.256,10.094,6.872,9,4c-1.046-3.954-6.689-3.311-7-8l1.5,0.5L718,955
			c1,0,2,0,3,0l1,0.5l1-0.5c1.506,1.827,4.314,2.353,6,4c0,3.333,0,6.667,0,10c-3,0-6,0-9,0c-1.076-2.591-3.615-3.718-4-7
			L716.5,960.5z"/>
		<path class="st54" d="M683,969c-0.4-2.6-2.984-3.016-3-6c3.915-3.433,7.895-12.086,14-10v1h1c0.184,0.851-0.39,0.943-1,1
			c0.241,2.578,1.721-1.373,4,0c1.073,7.407-3.514,9.153-5,14C689.667,969,686.333,969,683,969z"/>
		<path class="st54" d="M49,945c2,0,4,0,6,0c1.374,3.164,0.218,3.342,0,7c-1.479-0.521-2.521-1.479-4-2l-1.167-1.5L48,949
			c0-0.333,0-0.667,0-1l1.5-1.167L49,945z"/>
		<path class="st54" d="M49.167,950.5L51,950c3.796,3.212,2.66,7.291,0,11c-4.465-2.868-6.583-8.084-13-9
			c-0.132-2.465-0.151-4.818,1-6l1.5,0.5L40,945c0.027-0.973,1.224-0.775,2-1l-0.125,2.25L44,947c0.658,1.342,2.138,1.862,4,2
			L49.167,950.5z"/>
		<path class="st54" d="M31.5,942.5L31,944c-2.729,0.729-2.013-1.987-4-2c0-4,0-8,0-12c4.773-2.249,8.266-3.567,12,0
			c0.599,6.599-1.393,10.607-4,14c-1.086-0.247-0.678-1.988-2-2c0.163,1.162-0.221,1.779-1,2L31.5,942.5z"/>
		<path class="st54" d="M17,951c-0.435,2.232-1.768,3.565-4,4C13.435,952.768,14.768,951.435,17,951z"/>
		<path class="st54" d="M13,14c1.44-0.534,2.44,3.897,3,1c0.851-0.184,0.943,0.39,1,1c0.368,1.701-0.78,1.887-2,2
			C16.236,14.764,11.764,17.236,13,14z"/>
		<path class="st54" d="M708,29c-1.667,0-3.333,0-5,0c-2.308-6.521-0.279-7.146,1-14c2.333,0,4.667,0,7,0
			c0.086,1.419,0.165,2.832-1,3c5.367,1.928,4.406,10.024,0,12l-1-0.5L708,29z"/>
		<path class="st54" d="M691,17c1.094,4.427-1.693,4.973-2,8c-5.694,0.694-8.306-1.694-14-1c-1.378-1.289-0.99-4.344-1-7
			c2.729-0.729,2.013,1.987,4,2c-3.081-2.092-2.229-8.647,0-11C682.622,10.711,684.711,15.956,691,17z"/>
		<path class="st54" d="M692,939c-3.544-4.15-1.321-9.543,2-12c3.143,0.524,5.579,1.754,8,3c0,4,0,8,0,12
			c-1.105,1.357-8.067,6.689-5,3c0.184-0.851-0.39-0.943-1-1l0.5-1.5L696,941c0.778-7.124,0.651-11.965-1-3l-1.833-0.5L692,939z"/>
		<path class="st54" d="M12,960c4.821-4.118-0.371,7.263-2,9c-3.333,0-6.667,0-10,0c0-3.333,0-6.667,0-10
			c2.735-0.932,4.265-3.068,7-4l0.5,1.5L8,955c3.578-1.796,5.733,2.777,3,4l-1.5-0.5L10,960c-4.461,1.598-4.461,3.991,0,1
			l1.643,0.786L12,960z"/>
		<path class="st54" d="M21,940c1.667,0,3.333,0,5,0c-0.854,3.188,0.871,3.796,2,5c-0.958,3.042-2.019,5.981-3,9c-2,0-4,0-6,0
			c-2.033,0.205,0.044-3.961,0-4c-0.278-0.243-2.9,0.302-3,0c-1.517-4.573-0.295-7.487,3-11l1,0.5L21,940z"/>
		<path class="st54" d="M710,940c8.997,1.545,0.134,10.69,0,14c-10.92-0.602-6.275-9.409-7-14c1.453-0.547,5.169,1.169,5-1l1,0.5
			L710,940z"/>
		<path class="st54" d="M43,27c2.367-2.3,8.975-0.358,13-1c2.475,2.192,0.248,9.086,5,9c-1.573,3.734-8.743,5.567-12,2l1.5-1.167
			L50,34c1.163,0.163,1.779-0.221,2-1c-3.25-0.75-6.189-1.811-9-3l0.5-1.5L43,27z"/>
		<path class="st54" d="M680,37c-3.275,3.666-9.237,1.351-12-1c3.891-1.11,2.532-7.468,5-10c4.024,0.642,10.634-1.3,13,1l-0.5,1.5
			L686,30c-1.499,1.342-11.818,2.813-7,4l-0.5,1.833L680,37z"/>
		<path class="st54" d="M686,942c-2.038,2.295-8.305,0.362-12,1c-2.279-3.054-3.248-7.419-5-11c3.962-2.137,7.438-3.978,11,0
			l-1.5,1.167L679,935c-1.831,1.574,5.153,2.79,7,4l-0.5,1.5L686,942z"/>
		<path class="st54" d="M689,946c2.555,0.111,1.984,3.349,2,6c-6.289,1.044-8.378,6.289-13,9c-1.756-2.825-3.399-8.59,0-11
			l1.833,0.5L681,949c2.333-0.334,4.309-1.025,5-3l1.5,0.5L689,946z"/>
		<path class="st54" d="M679.167,948.5L678,950c-1.987,0.013-1.271,2.729-4,2c0.01-2.656-0.378-5.711,1-7c1.667,0,3.333,0,5,0
			l-0.5,1.833L681,948c0,0.333,0,0.667,0,1L679.167,948.5z"/>
		<path class="st54" d="M11,969c3.146-3.188,3.761-8.905,5-14c2.275,3.138,0.298,2.472,4,1c2.73,3.708-0.501,8.368,0,13
			C17,969,14,969,11,969z"/>
		<g>
			<path class="st3" d="M19,9.5c0.022-1.677,0.362-3.441-0.5-5"/>
			<path class="st38" d="M16,10.5c0-1.333,0-2.667,0-4"/>
			<path class="st32" d="M122.045,2.864c0.368,0.206,0.907,0.42,1.455,0.636"/>
			<path class="st16" d="M78.5,4.5c0.533-0.533,1.067-1.066,1.6-1.6"/>
			<path class="st75" d="M80.1,2.9c13.97,0.142,27.98,0.216,41.945-0.036"/>
			<path class="st79" d="M553.1,2.9c13.27,0.334,26.612-0.169,39.855,0.251c5.637,2.485,7.133,10.579,13.145,11.788
				c12.917-0.727,26.168-0.731,39.077,0.007c3.029-1.718,4.723-5.294,7.768-7.026c6.359,1.284,13.063,0.242,19.556,0.58"/>
			<path class="st85" d="M56.5,9c5.666,0.162,11.231-0.728,16.902-0.622c11.75,12.884,32.299,2.945,48.101,6.281
				c4.807-3.139,6.582-8.76,11.597-11.759"/>
			<path class="st81" d="M133.1,2.9c13.27,0.334,26.611-0.169,39.855,0.251c5.637,2.485,7.133,10.579,13.144,11.788
				c13.373-0.909,26.965-0.362,40.403-0.279c4.807-3.139,6.582-8.76,11.597-11.759"/>
			<path class="st30" d="M238.1,2.9c13.27,0.334,26.611-0.169,39.855,0.251c5.637,2.485,7.133,10.579,13.144,11.788
				c13.373-0.909,26.965-0.362,40.403-0.279c4.807-3.139,6.582-8.76,11.597-11.759"/>
			<path class="st81" d="M343.1,2.9c13.27,0.334,26.612-0.169,39.855,0.251c5.637,2.485,7.133,10.579,13.145,11.788
				c13.372-0.909,26.965-0.362,40.403-0.279c4.807-3.139,6.582-8.76,11.597-11.759"/>
			<path class="st81" d="M448.1,2.9c13.27,0.334,26.612-0.169,39.855,0.251c5.637,2.485,7.133,10.579,13.145,11.788
				c13.372-0.909,26.965-0.362,40.403-0.279c4.807-3.139,6.582-8.76,11.597-11.759"/>
			<path class="st32" d="M227.045,2.864c0.368,0.206,0.907,0.42,1.455,0.636"/>
			<path class="st64" d="M182.5,4.5c0.533-0.533,1.067-1.066,1.6-1.6"/>
			<path class="st90" d="M184.1,2.9c14.304,0.142,28.647,0.216,42.945-0.036"/>
			<path class="st32" d="M332.045,2.864c0.368,0.206,0.907,0.42,1.455,0.636"/>
			<path class="st64" d="M287.5,4.5c0.533-0.533,1.067-1.066,1.6-1.6"/>
			<path class="st90" d="M289.1,2.9c14.304,0.142,28.647,0.216,42.945-0.036"/>
			<path class="st32" d="M437.046,2.864c0.368,0.206,0.907,0.42,1.454,0.636"/>
			<path class="st64" d="M392.5,4.5c0.533-0.533,1.066-1.066,1.6-1.6"/>
			<path class="st90" d="M394.1,2.9c14.304,0.142,28.647,0.216,42.946-0.036"/>
			<path class="st32" d="M542.046,2.864c0.368,0.206,0.907,0.42,1.454,0.636"/>
			<path class="st64" d="M497.5,4.5c0.533-0.533,1.066-1.066,1.6-1.6"/>
			<path class="st90" d="M499.1,2.9c14.304,0.142,28.647,0.216,42.946-0.036"/>
			<path class="st32" d="M646.046,2.864c0.673,0.529,1.07,1.082,1.454,1.636"/>
			<path class="st64" d="M602.5,4.5c0.533-0.533,1.066-1.066,1.6-1.6"/>
			<path class="st75" d="M604.1,2.9c13.971,0.142,27.98,0.216,41.946-0.036"/>
			<path class="st74" d="M720.5,12.5c0.768,1.061,0.688,1.932,0.663,2.698c-1.793,0.942-4.483,2.288-4.087,4.678
				c0.604,0.38,1.556,0.933,2.424,1.625"/>
			<path class="st19" d="M719,12c-1.57-1.389-2.198-2.648-2.214-4.357"/>
			<path class="st24" d="M716.786,7.643c-0.69-0.546-2.051-1.172-3.286-2.143"/>
			<path class="st48" d="M713,10.5c0-1.624,0-3.785,0-5.25"/>
			<path class="st26" d="M710,9.5c0-0.971,0-2.229,0-3.5"/>
			<path class="st50" d="M49.167,18.5c0.222,0.667,0.445,1.333,0.667,2"/>
			<path class="st52" d="M42.5,23.167c2.443,1.022,4.69-0.425,7-1"/>
			<path class="st2" d="M131.5,13.5c0.138,0.248,0.275,0.495,0.413,0.743c14.216-0.209,30.218,1.624,43.587-0.743"/>
			<path class="st2" d="M236.5,13.5c0.138,0.248,0.275,0.495,0.413,0.743c14.216-0.209,30.218,1.624,43.587-0.743"/>
			<path class="st2" d="M341.5,13.5c0.138,0.248,0.275,0.495,0.413,0.743c14.216-0.209,30.217,1.624,43.587-0.743"/>
			<path class="st2" d="M446.5,13.5c0.138,0.248,0.275,0.495,0.413,0.743c14.216-0.209,30.217,1.624,43.587-0.743"/>
			<path class="st2" d="M551.5,13.5c0.138,0.248,0.275,0.495,0.413,0.743c14.216-0.209,30.217,1.624,43.587-0.743"/>
			<path class="st50" d="M23.167,18.5c0.222,0.667,0.445,1.333,0.667,2"/>
			<path class="st46" d="M20,29.5c0.002,1.115,0.753,2.1,1.087,3.111c0.19,3.806-3.472,6.64-7.014,6.942
				c-0.795-0.652-1.677-1.776-2.676-2.729c-1.267,0.003-2.619,0.14-3.69,0.22c-1.66,1.212-4.119,2.946-2.886,5.312
				c0.521,0.365,1.04,0.479,1.558,0.582C7.141,42.649,7.863,41.979,8.5,41.5"/>
			<path class="st78" d="M1.5,47.5c-0.887-3.931-0.354-8.002-0.5-12"/>
			<path class="st25" d="M1,933.5c0.095-3.674-0.319-7.394,0.5-11"/>
			<path class="st49" d="M1.5,922.5c0.999-2.941,2.452-5.782,4.637-8.111c-1.218-18.311,4.42-39.416-3.146-56.042
				c-0.163-0.282-0.327-0.564-0.49-0.847"/>
			<path class="st80" d="M2.5,857.5c-0.333-0.667-0.667-1.333-1-2"/>
			<path class="st51" d="M1.5,855.5c-1.153-22.246-0.176-44.681-0.5-67"/>
			<path class="st29" d="M2.5,857.5c1.369-0.756,2.729-1.784,3.695-3.02c0.648-21.93,0.222-43.973,0.217-65.934
				c-0.585-2.069-2.538-3.289-3.422-5.2c-0.163-0.282-0.327-0.564-0.49-0.847"/>
			<path class="st31" d="M2.5,782.5c-0.333-0.667-0.667-1.333-1-2"/>
			<path class="st82" d="M1.5,780.5c-1.153-22.246-0.176-44.681-0.5-67"/>
			<path class="st29" d="M2.5,782.5c1.369-0.756,2.729-1.784,3.695-3.02c0.648-21.93,0.222-43.973,0.217-65.934
				c-0.585-2.069-2.538-3.289-3.422-5.2c-0.163-0.282-0.327-0.564-0.49-0.847"/>
			<path class="st31" d="M2.5,707.5c-0.333-0.667-0.667-1.333-1-2"/>
			<path class="st82" d="M1.5,705.5c-1.153-22.246-0.176-44.681-0.5-67"/>
			<path class="st29" d="M2.5,707.5c1.369-0.756,2.729-1.784,3.695-3.02c0.648-21.93,0.222-43.973,0.217-65.934
				c-0.585-2.069-2.538-3.289-3.422-5.2c-0.163-0.282-0.327-0.564-0.49-0.847"/>
			<path class="st31" d="M2.5,632.5c-0.333-0.667-0.667-1.333-1-2"/>
			<path class="st82" d="M1.5,630.5c-1.153-22.246-0.176-44.681-0.5-67"/>
			<path class="st29" d="M2.5,632.5c1.369-0.756,2.729-1.784,3.695-3.02c0.648-21.93,0.222-43.973,0.217-65.934
				c-0.585-2.069-2.538-3.289-3.422-5.2c-0.163-0.282-0.327-0.564-0.49-0.847"/>
			<path class="st31" d="M2.5,557.5c-0.333-0.667-0.667-1.333-1-2"/>
			<path class="st82" d="M1.5,555.5c-1.153-22.246-0.176-44.681-0.5-67"/>
			<path class="st29" d="M2.5,557.5c1.369-0.756,2.729-1.784,3.695-3.02c0.648-21.93,0.222-43.973,0.217-65.934
				c-0.585-2.069-2.538-3.29-3.422-5.201c-0.163-0.282-0.327-0.564-0.49-0.846"/>
			<path class="st31" d="M2.5,482.5c-0.333-0.667-0.667-1.333-1-2"/>
			<path class="st82" d="M1.5,480.5c-1.153-22.247-0.176-44.681-0.5-67"/>
			<path class="st29" d="M2.5,482.5c1.369-0.756,2.729-1.784,3.695-3.02c0.648-21.93,0.222-43.973,0.217-65.934
				c-0.585-2.069-2.538-3.289-3.422-5.2c-0.163-0.282-0.327-0.564-0.49-0.846"/>
			<path class="st31" d="M2.5,407.5c-0.333-0.667-0.667-1.333-1-2"/>
			<path class="st82" d="M1.5,405.5c-1.153-22.247-0.176-44.681-0.5-67"/>
			<path class="st10" d="M2.5,407.5c1.369-0.756,2.729-1.784,3.695-3.02c0.648-21.93,0.222-43.973,0.217-65.934
				c-0.585-2.069-2.538-3.289-3.422-5.2c-0.163-0.282-0.327-0.564-0.49-0.846"/>
			<path class="st31" d="M2.5,332.5c-0.333-0.667-0.667-1.333-1-2"/>
			<path class="st82" d="M1.5,330.5c-1.153-22.247-0.176-44.681-0.5-67"/>
			<path class="st10" d="M2.5,332.5c1.369-0.756,2.729-1.784,3.695-3.02c0.648-21.93,0.222-43.973,0.217-65.934
				c-0.585-2.069-2.538-3.289-3.422-5.2c-0.163-0.282-0.327-0.564-0.49-0.846"/>
			<path class="st31" d="M2.5,257.5c-0.333-0.667-0.667-1.333-1-2"/>
			<path class="st82" d="M1.5,255.5c-1.153-22.247-0.176-44.681-0.5-67"/>
			<path class="st10" d="M2.5,257.5c1.369-0.756,2.729-1.784,3.695-3.02c0.648-21.93,0.222-43.973,0.217-65.934
				c-0.585-2.069-2.538-3.289-3.422-5.2c-0.163-0.282-0.327-0.564-0.49-0.846"/>
			<path class="st31" d="M2.5,182.5c-0.333-0.667-0.667-1.333-1-2"/>
			<path class="st82" d="M1.5,180.5c-1.153-22.247-0.176-44.681-0.5-67"/>
			<path class="st10" d="M2.5,182.5c1.369-0.756,2.729-1.784,3.695-3.02c0.648-21.93,0.222-43.973,0.217-65.934
				c-0.585-2.069-2.538-3.289-3.422-5.2c-0.163-0.282-0.327-0.564-0.49-0.846"/>
			<path class="st31" d="M2.5,107.5c-0.333-0.667-0.667-1.333-1-2"/>
			<path class="st36" d="M1.5,105.5C0.339,88.086,1.34,70.47,1,53"/>
			<path class="st93" d="M2.5,107.5c1.369-0.756,2.729-1.784,3.695-3.02c0.424-16.233,0.675-32.687-0.134-48.882
				c-0.734-1.619-1.508-3.336-2.737-4.659C3.163,49.84,2.541,49.222,1.5,47.5"/>
			<path class="st48" d="M1,916c0.03-17.482-0.021-35,0-52.5"/>
			<path class="st5" d="M53.5,932.167c-3.544,0.487-6.572,2.589-10,3.333"/>
			<path class="st92" d="M40.5,940.5c1.029-0.029,1.771,0.229,2.5,0.5"/>
			<path class="st39" d="M56.5,960.5c9.959-0.51,21.021,2.826,27.628-6.316c13.266,0.462,26.75,0.668,39.971-0.139
				c2.668,1.25,4.642,3.947,6.272,6.359c0.126,0.282,0.253,0.564,0.379,0.846"/>
			<path class="st35" d="M130.75,961.25c11.913,9.675,30.59,1.196,45.25,4.875"/>
			<path class="st18" d="M176,966.125c5.008-3.061,6.747-8.939,11.854-11.962c4.749,3.084,34.585-2.661,41.245-0.118
				c2.67,1.02,4.575,4.028,6.272,6.359c0.126,0.282,0.253,0.564,0.379,0.846"/>
			<path class="st27" d="M235.75,961.25c11.913,9.675,30.59,1.196,45.25,4.875"/>
			<path class="st6" d="M281,966.125c5.008-3.061,6.747-8.939,11.854-11.962c4.749,3.084,34.585-2.661,41.245-0.118
				c2.67,1.02,4.575,4.028,6.272,6.359c0.126,0.282,0.253,0.564,0.379,0.846"/>
			<path class="st27" d="M340.75,961.25c11.913,9.675,30.59,1.196,45.25,4.875"/>
			<path class="st0" d="M386,966.125c5.008-3.061,6.747-8.939,11.854-11.962c4.75,3.084,34.585-2.661,41.245-0.118
				c2.67,1.02,4.575,4.028,6.272,6.359c0.126,0.282,0.253,0.564,0.379,0.846"/>
			<path class="st35" d="M445.75,961.25c11.913,9.675,30.59,1.196,45.25,4.875"/>
			<path class="st18" d="M491,966.125c5.008-3.061,6.747-8.939,11.854-11.962c4.75,3.084,34.585-2.661,41.245-0.118
				c2.671,1.02,4.575,4.028,6.272,6.359c0.126,0.282,0.252,0.564,0.379,0.846"/>
			<path class="st35" d="M550.75,961.25c11.913,9.675,30.59,1.196,45.25,4.875"/>
			<path class="st16" d="M596,966.125c5.008-3.061,6.747-8.939,11.854-11.962c15.656,3.742,36.346-6.588,47.896,6.587"/>
			<path class="st42" d="M655.75,960.75c5.868-0.794,11.806-0.84,17.75-0.75"/>
			<path class="st28" d="M655.75,960.75c-1.841,2.055-4.977,2.47-6.5,5.25"/>
			<path class="st33" d="M649.25,966c-13.131-0.929-26.581-0.619-39.75-0.167"/>
			<path class="st16" d="M550.75,961.25c-2.293,1.029-3.752,3.069-5.5,4.75"/>
			<path class="st41" d="M545.25,966c-13.464-0.93-27.248-0.619-40.75-0.167"/>
			<path class="st16" d="M445.75,961.25c-2.293,1.029-3.752,3.069-5.5,4.75"/>
			<path class="st41" d="M440.25,966c-13.464-0.93-27.248-0.619-40.75-0.167"/>
			<path class="st16" d="M340.75,961.25c-2.293,1.029-3.752,3.069-5.5,4.75"/>
			<path class="st41" d="M335.25,966c-13.464-0.93-27.248-0.619-40.75-0.167"/>
			<path class="st16" d="M235.75,961.25c-2.293,1.029-3.752,3.069-5.5,4.75"/>
			<path class="st41" d="M230.25,966c-13.464-0.93-27.248-0.619-40.75-0.167"/>
			<path class="st16" d="M130.75,961.25c-2.293,1.029-3.752,3.069-5.5,4.75"/>
			<path class="st41" d="M125.25,966c-13.464-0.93-27.248-0.619-40.75-0.167"/>
			<path class="st60" d="M133.5,955.5c13.527-2.804,29.021,0.382,43.166-1.45c0.685,0.422,1.235,0.956,1.834,1.45"/>
			<path class="st60" d="M238.5,955.5c13.527-2.804,29.021,0.382,43.166-1.45c0.685,0.422,1.235,0.956,1.834,1.45"/>
			<path class="st60" d="M343.5,955.5c13.527-2.804,29.021,0.382,43.166-1.45c0.685,0.422,1.235,0.956,1.834,1.45"/>
			<path class="st60" d="M448.5,955.5c13.527-2.804,29.021,0.382,43.166-1.45c0.685,0.422,1.235,0.956,1.834,1.45"/>
			<path class="st60" d="M553.5,955.5c13.527-2.804,29.021,0.382,43.166-1.45c0.685,0.422,1.235,0.956,1.834,1.45"/>
			<path class="st72" d="M8.5,12.5c-0.768,1.061-0.688,1.932-0.663,2.698c1.871,0.917,4.626,2.165,3.998,4.743
				c-0.54,0.333-1.488,0.885-2.334,1.56"/>
			<path class="st19" d="M10,12c1.57-1.389,2.198-2.648,2.214-4.357"/>
			<path class="st70" d="M29.5,18.5c0.581,1.845,2.439,1.861,4,2"/>
			<path class="st89" d="M22.5,11.5c1.891-2.556,3.966-5.364,7-6.5"/>
			<path class="st56" d="M29.5,5c0.688-0.436,1.557-1.33,2-2.5"/>
			<path class="st77" d="M29.5,5c-1.197,4.2-3.795,9.586,0,13.5"/>
			<path class="st88" d="M29.5,18.5c2.312,0.074,3.879-2.106,5.5-3.5"/>
			<path class="st92" d="M31.5,26.5c0.074-1.425,1.11-3.189,2.147-3.831c0.593,0.042,1.222,0.428,1.853,0.831"/>
			<path class="st92" d="M690.5,27.5c1-0.059,2,0.457,3,1"/>
			<path class="st76" d="M693.5,23.5c0.1-0.233,0.2-0.467,0.3-0.7c0.856-0.268,1.692-0.167,2.402,0.021
				c0.535,0.811,1.239,1.521,1.798,2.18"/>
			<path class="st69" d="M699,19c4.789-3.442,1.998-9.394,0.5-13.5"/>
			<path class="st22" d="M699.5,5.5c-0.764-0.903-1.178-2.156-2-3"/>
			<path class="st40" d="M699.5,5.5c3.369,0.096,5.074,3.709,7,6"/>
			<path class="st59" d="M699,19c-0.218,0.449-0.484,0.849-0.754,1.246c-0.831,0.169-1.801,0.199-2.746,0.254"/>
			<path class="st71" d="M699,19c-1.834-1.111-3.493-2.441-5-4"/>
			<path class="st21" d="M710.5,962.5c-0.351-1-0.382-2-0.5-3"/>
			<path class="st48" d="M713,962.75c0-1.146,0-2.76,0-4.25"/>
			<path class="st24" d="M713.5,962.5c1-0.643,2-1.22,3-2"/>
			<path class="st73" d="M718.5,956.5c-1.087-1.557-3.519-2.064-4-4"/>
			<path class="st20" d="M715.5,947.5c1.329,3.161,4.533,5.273,6.5,8"/>
			<path class="st63" d="M697,952c0.414-1.228,1.925-1.566,3.12-1.59c1.335,0.847,1.27,2.479,1.38,4.09"/>
			<path class="st1" d="M701.5,954.5c1.644,3.521-2.186,6.132-2,9.5"/>
			<path class="st58" d="M699.5,964c3.004-1.111,5.594-3.706,7-6.5"/>
			<path class="st87" d="M699.5,964c-0.212,0.228-1.019,1.521-2,2.5"/>
			<path class="st7" d="M697,952c-0.962,0.387-2.15,1.272-3,2"/>
			<path class="st53" d="M697,952c1.123,1.066,2.887,2.04,4.5,2.5"/>
			<path class="st50" d="M49.833,948.5c-0.222,0.667-0.445,1.333-0.667,2"/>
			<path class="st12" d="M40.5,946.5c-1.618-1.398-4.227-1.278-5.995-0.207c-1.814-0.329-3.05-1.93-3.005-3.793"/>
			<path class="st11" d="M49.5,946.833c-2.277-1.267-5.226-1.996-7.625-0.583"/>
			<path class="st17" d="M23.5,957.5c0.003,0.33,0.006,0.661,0.008,0.991c1.256,2.298,3.307,4.2,5.992,4.509"/>
			<path class="st43" d="M29.5,963c-2.968-4.87-2.943-13.161,4-14.5"/>
			<path class="st55" d="M29.5,963c0.706,1.093,1.927,2.072,2,3.5"/>
			<path class="st13" d="M720.5,41.5c1.029,1.328,2.552,1.586,3.716,0.794c0.852-2.091-1.165-3.613-2.35-5.002
				c-0.765-0.188-2.123-0.385-3.375-0.687c-2.958,4.995-9.65,2.323-10.579-2.892c0.24-1.629,1.054-2.731,1.088-4.214"/>
			<path class="st57" d="M693.167,937.5c0.311,1.357,0.641,2.701,0.838,3.804c0.541,0.605,1.618,0.928,2.495,1.196"/>
			<path class="st9" d="M7.5,956.5c-0.182-3.132,4.113-3.512,4.5-6.5"/>
			<path class="st24" d="M11.643,961.786c-0.546-0.69-1.172-2.051-2.143-3.286"/>
			<path class="st45" d="M20,939.5c0.37-1.391,1.051-2.66,1.394-4.06c-0.639-3.033-3.646-6.036-6.893-6.088
				c-1.778,2.129-3.877,3.599-6.793,2.604c-1.625-1.162-3.896-3.06-2.878-5.307c1.017-0.974,3.426-0.705,3.67,0.851"/>
			<path class="st61" d="M706.5,936.5c0.637-0.577,1.195-0.919,1.75-1.25"/>
			<path class="st31" d="M708.25,935.25c0.402-3.292,3.575-5.451,6.674-5.813c1.932,1.429,3.676,3.398,6.373,2.512
				c1.48-0.966,3.112-2,3.37-3.948"/>
			<path class="st66" d="M724.667,928c-0.055-1.347-1.627-2.07-2.773-1.684c-0.298,0.229-0.596,0.456-0.894,0.684"/>
			<path class="st47" d="M724.667,928c0.735,0,1.792,0,3.083,0"/>
			<path class="st14" d="M727.75,928c0.341-2.113,0.545-4.456-0.25-6.5"/>
			<path class="st15" d="M727.5,921.5c-9.236-16.846-3.487-38.029-4.714-56.857"/>
			<path class="st68" d="M727.75,928c0.912,1.712,0.935,3.715,0.25,5.5"/>
			<path class="st80" d="M708.25,935.25c0.65,0.852,0.707,2.663,0.75,4.25"/>
			<path class="st8" d="M724.5,857.5c-4.4-21.632-1.005-45.391-1.714-67.857"/>
			<path class="st84" d="M724.5,857.5c1.365-0.908,2.246-1.24,3.25-1.5"/>
			<path class="st83" d="M727.75,856c0.258-22.77,0.738-45.767-0.25-68.5"/>
			<path class="st67" d="M727.5,787.5c-1.351-1.527-1.648-3.451-3-5"/>
			<path class="st8" d="M724.5,782.5c-4.4-21.632-1.005-45.391-1.714-67.857"/>
			<path class="st84" d="M724.5,782.5c1.365-0.908,2.246-1.24,3.25-1.5"/>
			<path class="st83" d="M727.75,781c0.258-22.77,0.738-45.767-0.25-68.5"/>
			<path class="st67" d="M727.5,712.5c-1.351-1.527-1.648-3.451-3-5"/>
			<path class="st8" d="M724.5,707.5c-4.4-21.632-1.005-45.391-1.714-67.857"/>
			<path class="st84" d="M724.5,707.5c1.365-0.908,2.246-1.24,3.25-1.5"/>
			<path class="st83" d="M727.75,706c0.258-22.77,0.738-45.767-0.25-68.5"/>
			<path class="st67" d="M727.5,637.5c-1.351-1.527-1.648-3.451-3-5"/>
			<path class="st8" d="M724.5,632.5c-4.4-21.632-1.005-45.391-1.714-67.857"/>
			<path class="st84" d="M724.5,632.5c1.365-0.908,2.246-1.24,3.25-1.5"/>
			<path class="st83" d="M727.75,631c0.258-22.77,0.738-45.767-0.25-68.5"/>
			<path class="st67" d="M727.5,562.5c-1.351-1.527-1.648-3.451-3-5"/>
			<path class="st8" d="M724.5,557.5c-4.4-21.632-1.005-45.391-1.714-67.857"/>
			<path class="st84" d="M724.5,557.5c1.365-0.908,2.246-1.24,3.25-1.5"/>
			<path class="st23" d="M727.75,556c0.258-22.77,0.738-45.767-0.25-68.5"/>
			<path class="st67" d="M727.5,487.5c-1.351-1.527-1.648-3.452-3-5"/>
			<path class="st8" d="M724.5,482.5c-4.4-21.632-1.005-45.391-1.714-67.857"/>
			<path class="st84" d="M724.5,482.5c1.365-0.908,2.246-1.241,3.25-1.5"/>
			<path class="st23" d="M727.75,481c0.258-22.77,0.738-45.767-0.25-68.5"/>
			<path class="st67" d="M727.5,412.5c-1.351-1.528-1.648-3.452-3-5"/>
			<path class="st8" d="M724.5,407.5c-4.4-21.632-1.005-45.391-1.714-67.857"/>
			<path class="st84" d="M724.5,407.5c1.365-0.908,2.246-1.241,3.25-1.5"/>
			<path class="st23" d="M727.75,406c0.258-22.77,0.738-45.767-0.25-68.5"/>
			<path class="st67" d="M727.5,337.5c-1.351-1.528-1.648-3.452-3-5"/>
			<path class="st8" d="M724.5,332.5c-4.4-21.632-1.005-45.391-1.714-67.857"/>
			<path class="st84" d="M724.5,332.5c1.365-0.908,2.246-1.241,3.25-1.5"/>
			<path class="st23" d="M727.75,331c0.258-22.77,0.738-45.767-0.25-68.5"/>
			<path class="st67" d="M727.5,262.5c-1.351-1.528-1.648-3.452-3-5"/>
			<path class="st8" d="M724.5,257.5c-4.4-21.632-1.005-45.391-1.714-67.857"/>
			<path class="st84" d="M724.5,257.5c1.365-0.908,2.246-1.241,3.25-1.5"/>
			<path class="st23" d="M727.75,256c0.258-22.77,0.738-45.767-0.25-68.5"/>
			<path class="st67" d="M727.5,187.5c-1.351-1.528-1.648-3.452-3-5"/>
			<path class="st8" d="M724.5,182.5c-4.4-21.632-1.005-45.391-1.714-67.857"/>
			<path class="st84" d="M724.5,182.5c1.365-0.908,2.246-1.241,3.25-1.5"/>
			<path class="st23" d="M727.75,181c0.258-22.77,0.738-45.767-0.25-68.5"/>
			<path class="st67" d="M727.5,112.5c-1.351-1.528-1.648-3.452-3-5"/>
			<path class="st44" d="M724.5,107.5c-1.187-11.943-5.058-38.658-1.523-51.772c0.645-2.392,2.71-4.3,3.924-4.828"/>
			<path class="st37" d="M726.9,50.9c1.275-5.029,1.161-10.23,1.1-15.4"/>
			<path class="st67" d="M724.5,857.5c1.351,1.527,1.648,3.451,3,5"/>
			<path class="st91" d="M727.5,862.5c1.465,17.225-0.468,34.854,1,52"/>
			<path class="st84" d="M724.5,107.5c1.365-0.909,2.246-1.241,3.25-1.5"/>
			<path class="st86" d="M727.75,106c-0.328-18.194,1.806-37.603-0.85-55.1"/>
			<path class="st62" d="M43.5,28.5c-0.701,1.036-0.976,1.752-1.383,2.444c0.891,3.435,5.447,3.935,8.383,4.889"/>
			<path class="st65" d="M678.5,35.833c3.026-0.746,6.573-1.61,8.393-4.359c-0.033-0.574-0.516-1.774-1.393-2.975"/>
			<path class="st34" d="M678.5,933.167c2.889,0.968,6.774,1.087,8.302,4.193c0.046,0.719-0.437,1.917-1.302,3.14"/>
			<path class="st4" d="M679.5,946.833c2.433-0.338,6.502-3.716,8-0.333"/>
			<path class="st50" d="M679.167,948.5c0.222,0.667,0.444,1.333,0.666,2"/>
		</g>
	</g>
</g>
</svg>
