<?xml version="1.0" encoding="utf-8"?>
<!-- Generator: Adobe Illustrator 14.0.0, SVG Export Plug-In . SVG Version: 6.00 Build 43363)  -->
<!DOCTYPE svg PUBLIC "-//W3C//DTD SVG 1.1//EN" "http://www.w3.org/Graphics/SVG/1.1/DTD/svg11.dtd">
<svg version="1.1" id="Nouveau_x5F_27_xA0_Image_1_"
	 xmlns="http://www.w3.org/2000/svg" xmlns:xlink="http://www.w3.org/1999/xlink" x="0px" y="0px" width="729px" height="969px"
	 viewBox="0 0 729 969" style="enable-background:new 0 0 729 969;" xml:space="preserve">
<style type="text/css">
<![CDATA[
	.st0{fill-rule:evenodd;clip-rule:evenodd;fill:none;stroke:#000000;stroke-width:3.3045;stroke-linecap:round;}
	.st1{fill-rule:evenodd;clip-rule:evenodd;fill:none;stroke:#000000;stroke-width:7.0333;stroke-linecap:round;}
	.st2{fill-rule:evenodd;clip-rule:evenodd;fill:none;stroke:#000000;stroke-width:3.2442;stroke-linecap:round;}
	.st3{fill-rule:evenodd;clip-rule:evenodd;fill:none;stroke:#000000;stroke-width:2.417;stroke-linecap:round;}
	.st4{fill-rule:evenodd;clip-rule:evenodd;fill:none;stroke:#000000;stroke-width:4.0684;stroke-linecap:round;}
	.st5{fill-rule:evenodd;clip-rule:evenodd;fill:none;stroke:#000000;stroke-width:3.8079;stroke-linecap:round;}
	.st6{fill-rule:evenodd;clip-rule:evenodd;fill:none;stroke:#000000;stroke-width:4.0267;stroke-linecap:round;}
	.st7{fill-rule:evenodd;clip-rule:evenodd;fill:none;stroke:#000000;stroke-width:2.0773;stroke-linecap:round;}
	.st8{fill:#000000;fill-rule:evenodd;clip-rule:evenodd;}
	.st9{fill-rule:evenodd;clip-rule:evenodd;fill:none;stroke:#000000;stroke-width:3.1091;stroke-linecap:round;}
	.st10{fill-rule:evenodd;clip-rule:evenodd;fill:none;stroke:#000000;stroke-width:3.1501;stroke-linecap:round;}
	.st11{fill-rule:evenodd;clip-rule:evenodd;fill:none;stroke:#000000;stroke-width:3.0823;stroke-linecap:round;}
	.st12{fill-rule:evenodd;clip-rule:evenodd;fill:none;stroke:#000000;stroke-width:3.0788;stroke-linecap:round;}
	.st13{fill-rule:evenodd;clip-rule:evenodd;fill:none;stroke:#000000;stroke-width:3.2412;stroke-linecap:round;}
]]>
</style>
<g>
	<g>
		<path class="st8" d="M13,960c233.997,0,468.007,0,702,0c3-312.337-1-631.657,2-944c5.623,1.388,2.896,9.098,3,12
			c2.593,72.177,0,149.141,0,223c0,235.935,0,476.4,0,713c-236.668,0-473.327,0-710,0c0-1,0-2,0-3l1.833,0.5L13,960z"/>
		<path class="st8" d="M21,18c-3.081-5.585-16.02-1.313-17-9c0.18-3.307,5.662-2.671,9-3c7.77-0.766,14.713-0.935,16,9l-1.833-0.5
			L26,16c-0.965-1.875-6.599-8.031-6-5c1.464,0.87,3.169,1.497,3,4l-1.3,1.3L21,18z"/>
		<path class="st8" d="M26.5,70.5L28,70c-3.624,144.135-2,291.289-2,438c0,146.5,0,293.411,0,439c223.664,2.333,451.673,0.333,677,1
			c-0.652-292.007,1.314-586.659-1-877l1.5,0.5L704,70l0.5,2.5L707,72c0,293.004,0,585.996,0,879
			c-226.338,2.333-456.994,0.334-685,1c0-293.332,0-586.669,0-880l2.667-0.333L25,69c0.333,0,0.667,0,1,0L26.5,70.5z"/>
		<path class="st8" d="M715.5,7.833L715,6c3.982,1,7.043-0.057,9,1c2.418,11.417-12.805,5.195-16,11l-0.7-1.7L706,15
			c-0.089-4.756,5.378-3.956,8-6L715.5,7.833z"/>
		<g>
			<path class="st11" d="M30.5,8.5c222.666,0,445.334,0,668,0"/>
			<path class="st11" d="M11.833,961.5c-0.778-314.275-0.111-628.676-0.333-943"/>
			<path class="st11" d="M17.5,19.5c0.284,311.827-0.567,623.908,0.426,935.574c230.892,0.71,462.313,0.71,693.148,0
				c0.993-311.731,0.142-623.738,0.426-935.574"/>
			<path class="st11" d="M34.5,20.5c220,0,439.999,0,660,0"/>
			<path class="st1" d="M25.5,31.5c0,2.667,0,5.333,0,8"/>
			<path class="st3" d="M25.5,39.5c3.497,9.163,0.958,20.942,1,31"/>
			<path class="st12" d="M33.5,14.5c195.82,0,419.405,0,622,0c15.4,0,33.404-1.677,45.5,2.25"/>
			<path class="st5" d="M701,16.75c1.318-6.406,7.971-11.807,14.5-8.917"/>
			<path class="st13" d="M704.863,24.955c0.521,15.706,1.738,32.095-0.363,47.545"/>
			<path class="st0" d="M25.5,31.5c-4.396-4.02,0.29-10.957-3.8-15.2"/>
			<path class="st6" d="M701,16.75c0.256,2.472-0.618,5.192,0.643,7.464"/>
			<path class="st9" d="M701.643,24.214c0.879,0.174,2.058,0.425,3.221,0.74"/>
			<path class="st10" d="M704.863,24.955c1.059-2.799,0.307-6.215,2.437-8.655"/>
			<path class="st4" d="M25.5,31.5c4.22-4.354,2.512-11.532,1.667-17"/>
			<path class="st7" d="M701.643,24.214c-0.963,15.532-0.431,32.379,1.857,47.286"/>
			<path class="st2" d="M25.5,39.5c-3.657,9.523-2.35,22.118-0.833,32.167"/>
		</g>
	</g>
</g>
</svg>
