<?xml version="1.0" encoding="utf-8"?>
<!-- Generator: Adobe Illustrator 14.0.0, SVG Export Plug-In . SVG Version: 6.00 Build 43363)  -->
<!DOCTYPE svg PUBLIC "-//W3C//DTD SVG 1.1//EN" "http://www.w3.org/Graphics/SVG/1.1/DTD/svg11.dtd">
<svg version="1.1" id="Nouveau_x5F_37_xA0_Image_1_"
	 xmlns="http://www.w3.org/2000/svg" xmlns:xlink="http://www.w3.org/1999/xlink" x="0px" y="0px" width="729px" height="969px"
	 viewBox="0 0 729 969" style="enable-background:new 0 0 729 969;" xml:space="preserve">
<style type="text/css">
<![CDATA[
	.st0{fill-rule:evenodd;clip-rule:evenodd;fill:none;stroke:#000000;stroke-width:3.2016;stroke-linecap:round;}
	.st1{fill-rule:evenodd;clip-rule:evenodd;fill:none;stroke:#000000;stroke-width:3.3912;stroke-linecap:round;}
	.st2{fill-rule:evenodd;clip-rule:evenodd;fill:none;stroke:#000000;stroke-width:3.0332;stroke-linecap:round;}
	.st3{fill-rule:evenodd;clip-rule:evenodd;fill:none;stroke:#000000;stroke-width:3.0551;stroke-linecap:round;}
	.st4{fill:#000000;fill-rule:evenodd;clip-rule:evenodd;}
	.st5{fill-rule:evenodd;clip-rule:evenodd;fill:none;stroke:#000000;stroke-width:3.1091;stroke-linecap:round;}
	.st6{fill-rule:evenodd;clip-rule:evenodd;fill:none;stroke:#000000;stroke-width:3.44;stroke-linecap:round;}
	.st7{fill-rule:evenodd;clip-rule:evenodd;fill:none;stroke:#000000;stroke-width:3.5836;stroke-linecap:round;}
	.st8{fill-rule:evenodd;clip-rule:evenodd;fill:none;stroke:#000000;stroke-width:1.291;stroke-linecap:round;}
]]>
</style>
<g>
	<g>
		<path class="st4" d="M704,50c2.551,1.783,4.09,4.577,4,9c-1.162-0.163-1.779,0.221-2,1c-3.157-0.51-2.767-4.567-4-7l1.3-1.3
			L704,50z"/>
		<path class="st4" d="M696.3,44.7L695,46c-3.887-2.917-7.964,1.415-10,0c-0.382-4.687,1.756-5.688-1-8c0.681-3.653,7.576-1.091,7-6
			c2.876-16.775-16.175-23.411-28-16c-5.199,2.188,2.404,7.087-2,8c-9.604,5.554-22.008-0.577-25-8l1.7-0.7L639,14
			c10.155,2.812,17.416-8.477,26-10c19.71-3.498,38.715,17.676,27,35c0.621,3.045,5.379,1.955,6,5L696.3,44.7z"/>
		<path class="st4" d="M634.5,13.167L635,15c-0.973,0.027-0.775,1.224-1,2l-1.833-0.5L631,18c-2.803-2.197-2.28-7.72-5-10
			C452.001,8,278,8,104,8c-5.268,4.608-4.298,11.502-8,17c-8.771,13.024-28.299,17.348-46,11c-2.276-2.395,2.194-3.682,1-8
			c-0.354-4.949-10.897-4.019-9-8l1.5,0.5L43,19c9.534-2.856,17.501,4.491,19,13c18.82,2.483,30.937-7.059,33-18l0.5-1.833L94,11
			c1.873-1.794,1.195-6.138,4-7c159.401,0,333.266,0,499,0c11.984,0,27.205-2.19,33,0c4.029,1.523,3.433,3.532,6,8L634.5,13.167z"/>
		<path class="st4" d="M633.3,18.7L634,17c6.536,8.797,13.582,17.085,31,15c4.488-0.734,3.945-7.989,8-11
			c3.818-2.835,11.683-5.175,15,0c-0.106,3.128-8.006,1.154-9,6c-3.36,3.123,2.996,6.241,0,9c-18.252,7.123-42.744,0.235-47-16
			L633.3,18.7z"/>
		<path class="st4" d="M40.5,18.5L41,20c-3.208,3.507-4.563,12.864,0,16c1.173,2.473,4.155-2.426,4,2c-1.042,2.833-1.042,4.167,0,7
			c-2.593,2.475-4.904-0.972-9,0l-1.3-1.3L33,43c0.279-2.054,2.671-1.996,4-3C26.742,24.025,42.574,3.705,57,3
			c13.425-0.656,23.292,15.404,35,10l0.5,1.5L93,16c-2.041,8.531-17.989,13.767-26,7c0.334-3.541,2.751-2.459,1-6
			c-5.344-6.228-22.651-5.172-26,2L40.5,18.5z"/>
		<path class="st4" d="M24.167,55.5L26,55c-0.116,2.551-0.188,5.145-3,5c-1.785-1.686-2.795-4.494,0-6L24.167,55.5z"/>
		<path class="st4" d="M28,938c-2.195,1.661-8.181,3.089-11,1c3.619-33.629,2-70.042,2-107c0-240.215,0-484.771,0-729
			c0-9.717,1.694-21.271,0-27c-1.464-4.948-5.922-5.978-9-10C-3.057,48.936,9.221,17.82,35,18c-1.182,5.721-7.486,6.263-11,9
			c-7.387,5.753-14.096,22.934-3,32c0.364,0.297,1.687,1.891,2,2c12.824,4.477,6.626-9.623,15-14c6.201,0.371-1.178,5.607,2,9
			c0.442,3.268,3.971,8.638,1,12c-1.642,6.691-11.706,4.96-18,7c0,271.631,0,554.223,0,831c0,9.767-1.605,20.969,0,26
			c0.766,2.399,0.215,2.15,4,3l-0.5,1.833L28,938z"/>
		<path class="st4" d="M31.357,937.786L31,936c13.784,8.335-6.609,13.637-9,21c11.947,6.826,26.594,4,40,4
			c200.314,0,405.133,0,607,0c13.017,0,27.358,2.748,39-4c-2.01-7.127-14.975-7.307-14-16c0.251-2.236,0.348-4.505,4-5l-0.357,1.786
			L699,939c1.011,5.178,9.346,2.805,12,4c3.435,1.546,6.468,3.615,7,8c1.672,13.771-17.815,14-32,14c-21.566,0-29.548,0-46,0
			c-197.612,0-398.728,0-598,0c-12.444,0-33.824-0.124-31-15c1.78-9.379,13.371-3.593,19-11L31.357,937.786z"/>
		<path class="st4" d="M700.5,937.167L699,936c0.754-2.58,7.396,0.73,7-3c0-285.672,0-571.328,0-857c-4.498-3.282-14.022-1.121-18-7
			c-2.205-4.128,0.028-8.204,1-12c4.076-3.532-3.301-9.253,1-10c9.928,1.578,2.963,12.924,11,15c9.426,2.435,14.26-11.227,13-21
			c-0.874-6.785-4.423-10.039-8-13c-4.338-3.591-9.303-2.772-11-10c22.881-0.44,39.211,29.123,25,48c-2.869,3.812-7.48,3.987-9,9
			c-3.329,10.983,0,40.747,0,55c0,265.017-0.823,551.039,1,809c-3.461,2.73-7.504-0.639-12,0L700.5,937.167z"/>
		<g>
			<path class="st6" d="M703.3,51.7c-2.052-2.607-3.984-5.325-7-7"/>
			<path class="st0" d="M637.7,15.3c-0.659-0.59-1.975-1.507-3.2-2.133"/>
			<path class="st1" d="M633.3,18.7c-0.538-0.785-0.782-1.476-1.133-2.2"/>
			<path class="st8" d="M43.5,20.5c-1-0.643-2-1.22-3-2"/>
			<path class="st7" d="M24.167,55.5c2.034-4.961,6.16-8.877,10.534-11.8"/>
			<path class="st2" d="M92.5,14.5c1-1.039,2-1.696,3-2.333"/>
			<path class="st3" d="M26.5,936.833c1.679-0.62,3.352,0.291,4.857,0.953"/>
			<path class="st5" d="M700.5,937.167c-1.009,0.217-1.935,0.385-2.857,0.619"/>
		</g>
	</g>
</g>
</svg>
