<?xml version="1.0" encoding="utf-8"?>
<!-- Generator: Adobe Illustrator 14.0.0, SVG Export Plug-In . SVG Version: 6.00 Build 43363)  -->
<!DOCTYPE svg PUBLIC "-//W3C//DTD SVG 1.1//EN" "http://www.w3.org/Graphics/SVG/1.1/DTD/svg11.dtd">
<svg version="1.1" id="Layer_1" xmlns="http://www.w3.org/2000/svg" xmlns:xlink="http://www.w3.org/1999/xlink" x="0px" y="0px"
	 width="545.836px" height="725.837px" viewBox="0 0 545.836 725.837" style="enable-background:new 0 0 545.836 725.837;"
	 xml:space="preserve">
<style type="text/css">
<![CDATA[
	.st0{fill:#827F7E;stroke:#000000;stroke-width:2;stroke-linecap:round;stroke-linejoin:round;stroke-miterlimit:6;}
	.st1{fill:#827F7E;stroke:#000000;stroke-width:2;}
	.st2{fill:#313230;stroke:#000000;}
	.st3{fill:#827F7E;stroke:#000000;stroke-width:2;stroke-linecap:round;stroke-linejoin:round;}
	.st4{fill:#FFFFFF;}
	.st5{fill:#313230;stroke:#000000;stroke-width:0.8871;}
	.st6{fill:#313230;stroke:#000000;stroke-width:0.8971;}
	.st7{fill:#313230;stroke:#000000;stroke-width:0.9077;}
	.st8{fill:#313230;stroke:#000000;stroke-width:0.9207;}
]]>
</style>
<g>
	<g>
		<g>
			<path class="st1" d="M11.799,638.43v61.188c0,0-0.535,0.139-0.572,1.117c-0.039,1.009,0.675,1.37,0.675,1.37h8.959
				c0,0,0.675-0.313,0.675-1.293c0-0.979-0.6-1.214-0.6-1.214V638.43c0,0,0.75,0.078,0.75-1.136c0-1.175-0.703-1.146-0.703-1.146
				h-9.23c0,0-0.564,0.137-0.6,1.146C11.115,638.352,11.799,638.43,11.799,638.43z"/>
			<path class="st4" d="M11.799,638.43v61.188c0,0-0.535,0.139-0.572,1.117c-0.039,1.009,0.675,1.37,0.675,1.37h8.959
				c0,0,0.675-0.313,0.675-1.293c0-0.979-0.6-1.214-0.6-1.214V638.43c0,0,0.75,0.078,0.75-1.136c0-1.175-0.703-1.146-0.703-1.146
				h-9.23c0,0-0.564,0.137-0.6,1.146C11.115,638.352,11.799,638.43,11.799,638.43z"/>
			<path d="M11.217,638.114c0,0,0.08,0.147,0.66,0.272c0.578,0.126,3.275,0.25,3.275,0.25s-1.379,0.083-2.237,0.083
				s-1.318,0.083-1.318,0.083S11.258,638.365,11.217,638.114z"/>
			<path d="M21.624,637.927c0,0-0.379,0.353-0.959,0.5c-0.578,0.146-2.976,0.25-2.976,0.25s1.978,0.125,2.616,0.104
				c0.64-0.021,0.859,0.042,0.898-0.021C21.245,638.699,21.784,638.241,21.624,637.927z"/>
			<path d="M11.065,700.217c0,0,0.268-0.186,1.16-0.372c0.891-0.186,2.675-0.28,2.675-0.28l-3.478-0.465L11.065,700.217z"/>
			<path d="M21.588,699.938c0,0-0.535-0.186-1.516-0.278c-0.98-0.095-2.229,0-2.229,0s1.872-0.095,2.497-0.467
				s0.893-0.651,0.893-0.651L21.588,699.938z"/>
			<polygon points="12.314,642.172 12.314,696.864 12.67,696.12 12.581,646.924 			"/>
			<polygon points="20.251,697.609 20.251,656.614 19.984,664.907 19.984,696.398 			"/>
			<polygon points="20.251,639.75 20.251,654.75 19.984,648.135 19.984,640.868 			"/>
			<polygon points="13.028,689.876 13.028,664.906 13.383,671.521 13.383,687.919 			"/>
		</g>
		<g>
			<path class="st1" d="M11.799,570.383v61.189c0,0-0.535,0.138-0.572,1.117c-0.039,1.008,0.675,1.37,0.675,1.37h8.959
				c0,0,0.675-0.313,0.675-1.293c0-0.979-0.6-1.214-0.6-1.214v-61.17c0,0,0.75,0.079,0.75-1.136c0-1.175-0.703-1.145-0.703-1.145
				h-9.23c0,0-0.564,0.137-0.6,1.145C11.115,570.305,11.799,570.383,11.799,570.383z"/>
			<path class="st4" d="M11.799,570.383v61.189c0,0-0.535,0.138-0.572,1.117c-0.039,1.008,0.675,1.37,0.675,1.37h8.959
				c0,0,0.675-0.313,0.675-1.293c0-0.979-0.6-1.214-0.6-1.214v-61.17c0,0,0.75,0.079,0.75-1.136c0-1.175-0.703-1.145-0.703-1.145
				h-9.23c0,0-0.564,0.137-0.6,1.145C11.115,570.305,11.799,570.383,11.799,570.383z"/>
			<path d="M11.217,570.068c0,0,0.08,0.147,0.66,0.271c0.578,0.126,3.275,0.25,3.275,0.25s-1.379,0.084-2.237,0.084
				s-1.318,0.083-1.318,0.083S11.258,570.319,11.217,570.068z"/>
			<path d="M21.624,569.88c0,0-0.379,0.354-0.959,0.501c-0.578,0.146-2.976,0.25-2.976,0.25s1.978,0.125,2.616,0.104
				c0.64-0.021,0.859,0.042,0.898-0.021C21.245,570.652,21.784,570.194,21.624,569.88z"/>
			<path d="M11.065,632.17c0,0,0.268-0.186,1.16-0.371c0.891-0.187,2.675-0.28,2.675-0.28l-3.478-0.465L11.065,632.17z"/>
			<path d="M21.588,631.892c0,0-0.535-0.186-1.516-0.279s-2.229,0-2.229,0s1.872-0.094,2.497-0.466s0.893-0.652,0.893-0.652
				L21.588,631.892z"/>
			<polygon points="12.314,574.125 12.314,628.817 12.67,628.073 12.581,578.877 			"/>
			<polygon points="20.251,629.563 20.251,588.568 19.984,596.86 19.984,628.352 			"/>
			<polygon points="20.251,571.704 20.251,586.704 19.984,580.088 19.984,572.822 			"/>
			<polygon points="13.028,621.831 13.028,596.859 13.383,603.475 13.383,619.873 			"/>
		</g>
		<g>
			<path class="st1" d="M11.799,502.337v61.188c0,0-0.535,0.139-0.572,1.117c-0.039,1.009,0.675,1.37,0.675,1.37h8.959
				c0,0,0.675-0.313,0.675-1.293c0-0.979-0.6-1.214-0.6-1.214v-61.169c0,0,0.75,0.078,0.75-1.136c0-1.175-0.703-1.146-0.703-1.146
				h-9.23c0,0-0.564,0.137-0.6,1.146C11.115,502.258,11.799,502.337,11.799,502.337z"/>
			<path class="st4" d="M11.799,502.337v61.188c0,0-0.535,0.139-0.572,1.117c-0.039,1.009,0.675,1.37,0.675,1.37h8.959
				c0,0,0.675-0.313,0.675-1.293c0-0.979-0.6-1.214-0.6-1.214v-61.169c0,0,0.75,0.078,0.75-1.136c0-1.175-0.703-1.146-0.703-1.146
				h-9.23c0,0-0.564,0.137-0.6,1.146C11.115,502.258,11.799,502.337,11.799,502.337z"/>
			<path d="M11.217,502.021c0,0,0.08,0.147,0.66,0.271c0.578,0.126,3.275,0.25,3.275,0.25s-1.379,0.084-2.237,0.084
				s-1.318,0.083-1.318,0.083S11.258,502.272,11.217,502.021z"/>
			<path d="M21.624,501.833c0,0-0.379,0.354-0.959,0.501c-0.578,0.146-2.976,0.25-2.976,0.25s1.978,0.125,2.616,0.104
				c0.64-0.021,0.859,0.042,0.898-0.021C21.245,502.606,21.784,502.148,21.624,501.833z"/>
			<path d="M11.065,564.125c0,0,0.268-0.186,1.16-0.372c0.891-0.187,2.675-0.28,2.675-0.28l-3.478-0.465L11.065,564.125z"/>
			<path d="M21.588,563.845c0,0-0.535-0.186-1.516-0.279s-2.229,0-2.229,0s1.872-0.094,2.497-0.466s0.893-0.652,0.893-0.652
				L21.588,563.845z"/>
			<polygon points="12.314,506.08 12.314,560.77 12.67,560.027 12.581,510.832 			"/>
			<polygon points="20.251,561.516 20.251,520.521 19.984,528.813 19.984,560.305 			"/>
			<polygon points="20.251,503.657 20.251,518.658 19.984,512.042 19.984,504.775 			"/>
			<polygon points="13.028,553.784 13.028,528.813 13.383,535.428 13.383,551.827 			"/>
		</g>
		<g>
			<path class="st1" d="M11.799,434.291v61.189c0,0-0.535,0.138-0.572,1.116c-0.039,1.009,0.675,1.37,0.675,1.37h8.959
				c0,0,0.675-0.313,0.675-1.293c0-0.979-0.6-1.213-0.6-1.213v-61.17c0,0,0.75,0.079,0.75-1.136c0-1.175-0.703-1.146-0.703-1.146
				h-9.23c0,0-0.564,0.137-0.6,1.146C11.115,434.212,11.799,434.291,11.799,434.291z"/>
			<path class="st4" d="M11.799,434.291v61.189c0,0-0.535,0.138-0.572,1.116c-0.039,1.009,0.675,1.37,0.675,1.37h8.959
				c0,0,0.675-0.313,0.675-1.293c0-0.979-0.6-1.213-0.6-1.213v-61.17c0,0,0.75,0.079,0.75-1.136c0-1.175-0.703-1.146-0.703-1.146
				h-9.23c0,0-0.564,0.137-0.6,1.146C11.115,434.212,11.799,434.291,11.799,434.291z"/>
			<path d="M11.217,433.974c0,0,0.08,0.147,0.66,0.272c0.578,0.126,3.275,0.25,3.275,0.25s-1.379,0.083-2.237,0.083
				s-1.318,0.084-1.318,0.084S11.258,434.225,11.217,433.974z"/>
			<path d="M21.624,433.788c0,0-0.379,0.354-0.959,0.501c-0.578,0.146-2.976,0.25-2.976,0.25s1.978,0.125,2.616,0.104
				c0.64-0.021,0.859,0.042,0.898-0.021C21.245,434.559,21.784,434.101,21.624,433.788z"/>
			<path d="M11.065,496.078c0,0,0.268-0.186,1.16-0.372c0.891-0.186,2.675-0.279,2.675-0.279l-3.478-0.466L11.065,496.078z"/>
			<path d="M21.588,495.798c0,0-0.535-0.186-1.516-0.278c-0.98-0.094-2.229,0-2.229,0s1.872-0.094,2.497-0.467
				c0.625-0.371,0.893-0.651,0.893-0.651L21.588,495.798z"/>
			<polygon points="12.314,438.033 12.314,492.724 12.67,491.98 12.581,442.785 			"/>
			<polygon points="20.251,493.47 20.251,452.475 19.984,460.767 19.984,492.258 			"/>
			<polygon points="20.251,435.611 20.251,450.611 19.984,443.996 19.984,436.729 			"/>
			<polygon points="13.028,485.737 13.028,460.766 13.383,467.381 13.383,483.78 			"/>
		</g>
		<g>
			<path class="st1" d="M11.799,366.245v61.188c0,0-0.535,0.138-0.572,1.117c-0.039,1.008,0.675,1.37,0.675,1.37h8.959
				c0,0,0.675-0.313,0.675-1.293c0-0.979-0.6-1.214-0.6-1.214v-61.169c0,0,0.75,0.078,0.75-1.137c0-1.175-0.703-1.145-0.703-1.145
				h-9.23c0,0-0.564,0.137-0.6,1.145C11.115,366.166,11.799,366.245,11.799,366.245z"/>
			<path class="st4" d="M11.799,366.245v61.188c0,0-0.535,0.138-0.572,1.117c-0.039,1.008,0.675,1.37,0.675,1.37h8.959
				c0,0,0.675-0.313,0.675-1.293c0-0.979-0.6-1.214-0.6-1.214v-61.169c0,0,0.75,0.078,0.75-1.137c0-1.175-0.703-1.145-0.703-1.145
				h-9.23c0,0-0.564,0.137-0.6,1.145C11.115,366.166,11.799,366.245,11.799,366.245z"/>
			<path d="M11.217,365.928c0,0,0.08,0.147,0.66,0.271c0.578,0.126,3.275,0.25,3.275,0.25s-1.379,0.084-2.237,0.084
				s-1.318,0.083-1.318,0.083S11.258,366.179,11.217,365.928z"/>
			<path d="M21.624,365.741c0,0-0.379,0.354-0.959,0.501c-0.578,0.146-2.976,0.25-2.976,0.25s1.978,0.125,2.616,0.104
				c0.64-0.021,0.859,0.041,0.898-0.021C21.245,366.512,21.784,366.054,21.624,365.741z"/>
			<path d="M11.065,428.032c0,0,0.268-0.187,1.16-0.372c0.891-0.187,2.675-0.28,2.675-0.28l-3.478-0.465L11.065,428.032z"/>
			<path d="M21.588,427.752c0,0-0.535-0.186-1.516-0.279s-2.229,0-2.229,0s1.872-0.094,2.497-0.466s0.893-0.652,0.893-0.652
				L21.588,427.752z"/>
			<polygon points="12.314,369.987 12.314,424.677 12.67,423.934 12.581,374.739 			"/>
			<polygon points="20.251,425.423 20.251,384.428 19.984,392.72 19.984,424.212 			"/>
			<polygon points="20.251,367.564 20.251,382.564 19.984,375.95 19.984,368.682 			"/>
			<polygon points="13.028,417.691 13.028,392.72 13.383,399.335 13.383,415.734 			"/>
		</g>
		<g>
			<path class="st1" d="M11.799,298.198v61.189c0,0-0.535,0.138-0.572,1.117c-0.039,1.009,0.675,1.37,0.675,1.37h8.959
				c0,0,0.675-0.313,0.675-1.293c0-0.978-0.6-1.213-0.6-1.213v-61.169c0,0,0.75,0.079,0.75-1.136c0-1.175-0.703-1.146-0.703-1.146
				h-9.23c0,0-0.564,0.137-0.6,1.146C11.115,298.119,11.799,298.198,11.799,298.198z"/>
			<path class="st4" d="M11.799,298.198v61.189c0,0-0.535,0.138-0.572,1.117c-0.039,1.009,0.675,1.37,0.675,1.37h8.959
				c0,0,0.675-0.313,0.675-1.293c0-0.978-0.6-1.213-0.6-1.213v-61.169c0,0,0.75,0.079,0.75-1.136c0-1.175-0.703-1.146-0.703-1.146
				h-9.23c0,0-0.564,0.137-0.6,1.146C11.115,298.119,11.799,298.198,11.799,298.198z"/>
			<path d="M11.217,297.881c0,0,0.08,0.147,0.66,0.272c0.578,0.126,3.275,0.25,3.275,0.25s-1.379,0.083-2.237,0.083
				s-1.318,0.083-1.318,0.083S11.258,298.132,11.217,297.881z"/>
			<path d="M21.624,297.694c0,0-0.379,0.354-0.959,0.501c-0.578,0.146-2.976,0.25-2.976,0.25s1.978,0.125,2.616,0.104
				c0.64-0.021,0.859,0.042,0.898-0.021C21.245,298.466,21.784,298.008,21.624,297.694z"/>
			<path d="M11.065,359.985c0,0,0.268-0.186,1.16-0.372c0.891-0.186,2.675-0.28,2.675-0.28l-3.478-0.465L11.065,359.985z"/>
			<path d="M21.588,359.706c0,0-0.535-0.186-1.516-0.279c-0.98-0.094-2.229,0-2.229,0s1.872-0.094,2.497-0.466
				c0.625-0.372,0.893-0.652,0.893-0.652L21.588,359.706z"/>
			<polygon points="12.314,301.94 12.314,356.631 12.67,355.887 12.581,306.692 			"/>
			<polygon points="20.251,357.377 20.251,316.382 19.984,324.674 19.984,356.166 			"/>
			<polygon points="20.251,299.518 20.251,314.518 19.984,307.903 19.984,300.636 			"/>
			<polygon points="13.028,349.644 13.028,324.673 13.383,331.289 13.383,347.687 			"/>
		</g>
		<g>
			<path class="st1" d="M11.799,230.151v61.188c0,0-0.535,0.139-0.572,1.117c-0.039,1.009,0.675,1.37,0.675,1.37h8.959
				c0,0,0.675-0.313,0.675-1.293c0-0.979-0.6-1.213-0.6-1.213v-61.169c0,0,0.75,0.079,0.75-1.136c0-1.175-0.703-1.145-0.703-1.145
				h-9.23c0,0-0.564,0.137-0.6,1.145C11.115,230.073,11.799,230.151,11.799,230.151z"/>
			<path class="st4" d="M11.799,230.151v61.188c0,0-0.535,0.139-0.572,1.117c-0.039,1.009,0.675,1.37,0.675,1.37h8.959
				c0,0,0.675-0.313,0.675-1.293c0-0.979-0.6-1.213-0.6-1.213v-61.169c0,0,0.75,0.079,0.75-1.136c0-1.175-0.703-1.145-0.703-1.145
				h-9.23c0,0-0.564,0.137-0.6,1.145C11.115,230.073,11.799,230.151,11.799,230.151z"/>
			<path d="M11.217,229.835c0,0,0.08,0.147,0.66,0.272c0.578,0.126,3.275,0.25,3.275,0.25s-1.379,0.083-2.237,0.083
				s-1.318,0.083-1.318,0.083S11.258,230.086,11.217,229.835z"/>
			<path d="M21.624,229.648c0,0-0.379,0.354-0.959,0.501c-0.578,0.146-2.976,0.25-2.976,0.25s1.978,0.125,2.616,0.104
				c0.64-0.021,0.859,0.042,0.898-0.021C21.245,230.419,21.784,229.961,21.624,229.648z"/>
			<path d="M11.065,291.938c0,0,0.268-0.186,1.16-0.372c0.891-0.186,2.675-0.28,2.675-0.28l-3.478-0.465L11.065,291.938z"/>
			<path d="M21.588,291.659c0,0-0.535-0.186-1.516-0.279c-0.98-0.094-2.229,0-2.229,0s1.872-0.094,2.497-0.466
				c0.625-0.372,0.893-0.652,0.893-0.652L21.588,291.659z"/>
			<polygon points="12.314,233.894 12.314,288.584 12.67,287.841 12.581,238.646 			"/>
			<polygon points="20.251,289.33 20.251,248.335 19.984,256.627 19.984,288.119 			"/>
			<polygon points="20.251,231.471 20.251,246.471 19.984,239.856 19.984,232.589 			"/>
			<polygon points="13.028,281.598 13.028,256.627 13.383,263.242 13.383,279.641 			"/>
		</g>
		<g>
			<path class="st1" d="M11.799,162.105v61.188c0,0-0.535,0.138-0.572,1.117c-0.039,1.008,0.675,1.37,0.675,1.37h8.959
				c0,0,0.675-0.313,0.675-1.293c0-0.979-0.6-1.213-0.6-1.213v-61.169c0,0,0.75,0.079,0.75-1.136c0-1.175-0.703-1.145-0.703-1.145
				h-9.23c0,0-0.564,0.137-0.6,1.145C11.115,162.026,11.799,162.105,11.799,162.105z"/>
			<path class="st4" d="M11.799,162.105v61.188c0,0-0.535,0.138-0.572,1.117c-0.039,1.008,0.675,1.37,0.675,1.37h8.959
				c0,0,0.675-0.313,0.675-1.293c0-0.979-0.6-1.213-0.6-1.213v-61.169c0,0,0.75,0.079,0.75-1.136c0-1.175-0.703-1.145-0.703-1.145
				h-9.23c0,0-0.564,0.137-0.6,1.145C11.115,162.026,11.799,162.105,11.799,162.105z"/>
			<path d="M11.217,161.789c0,0,0.08,0.147,0.66,0.272c0.578,0.126,3.275,0.25,3.275,0.25s-1.379,0.083-2.237,0.083
				s-1.318,0.083-1.318,0.083S11.258,162.04,11.217,161.789z"/>
			<path d="M21.624,161.602c0,0-0.379,0.354-0.959,0.5c-0.578,0.146-2.976,0.25-2.976,0.25s1.978,0.125,2.616,0.104
				c0.64-0.021,0.859,0.042,0.898-0.021C21.245,162.373,21.784,161.915,21.624,161.602z"/>
			<path d="M11.065,223.892c0,0,0.268-0.186,1.16-0.372c0.891-0.186,2.675-0.28,2.675-0.28l-3.478-0.465L11.065,223.892z"/>
			<path d="M21.588,223.613c0,0-0.535-0.186-1.516-0.279c-0.98-0.094-2.229,0-2.229,0s1.872-0.094,2.497-0.466
				c0.625-0.372,0.893-0.652,0.893-0.652L21.588,223.613z"/>
			<polygon points="12.314,165.847 12.314,220.538 12.67,219.794 12.581,170.599 			"/>
			<polygon points="20.251,221.284 20.251,180.289 19.984,188.581 19.984,220.073 			"/>
			<polygon points="20.251,163.424 20.251,178.425 19.984,171.81 19.984,164.542 			"/>
			<polygon points="13.028,213.551 13.028,188.581 13.383,195.196 13.383,211.594 			"/>
		</g>
		<g>
			<path class="st1" d="M11.799,94.058v61.189c0,0-0.535,0.138-0.572,1.117c-0.039,1.008,0.675,1.37,0.675,1.37h8.959
				c0,0,0.675-0.313,0.675-1.293c0-0.979-0.6-1.214-0.6-1.214V94.058c0,0,0.75,0.079,0.75-1.136c0-1.175-0.703-1.145-0.703-1.145
				h-9.23c0,0-0.564,0.137-0.6,1.145C11.115,93.98,11.799,94.058,11.799,94.058z"/>
			<path class="st4" d="M11.799,94.058v61.189c0,0-0.535,0.138-0.572,1.117c-0.039,1.008,0.675,1.37,0.675,1.37h8.959
				c0,0,0.675-0.313,0.675-1.293c0-0.979-0.6-1.214-0.6-1.214V94.058c0,0,0.75,0.079,0.75-1.136c0-1.175-0.703-1.145-0.703-1.145
				h-9.23c0,0-0.564,0.137-0.6,1.145C11.115,93.98,11.799,94.058,11.799,94.058z"/>
			<path d="M11.217,93.742c0,0,0.08,0.147,0.66,0.272c0.578,0.126,3.275,0.25,3.275,0.25s-1.379,0.083-2.237,0.083
				s-1.318,0.083-1.318,0.083S11.258,93.993,11.217,93.742z"/>
			<path d="M21.624,93.555c0,0-0.379,0.354-0.959,0.501c-0.578,0.146-2.976,0.25-2.976,0.25s1.978,0.125,2.616,0.104
				c0.64-0.021,0.859,0.042,0.898-0.021C21.245,94.327,21.784,93.869,21.624,93.555z"/>
			<path d="M11.065,155.845c0,0,0.268-0.186,1.16-0.372c0.891-0.186,2.675-0.28,2.675-0.28l-3.478-0.465L11.065,155.845z"/>
			<path d="M21.588,155.566c0,0-0.535-0.186-1.516-0.279c-0.98-0.094-2.229,0-2.229,0s1.872-0.094,2.497-0.466
				s0.893-0.652,0.893-0.652L21.588,155.566z"/>
			<polygon points="12.314,97.8 12.314,152.492 12.67,151.748 12.581,102.552 			"/>
			<polygon points="20.251,153.237 20.251,112.242 19.984,120.535 19.984,152.026 			"/>
			<polygon points="20.251,95.378 20.251,110.378 19.984,103.764 19.984,96.496 			"/>
			<polygon points="13.028,145.505 13.028,120.534 13.383,127.149 13.383,143.547 			"/>
		</g>
		<g>
			<path class="st1" d="M11.799,26.012v61.189c0,0-0.535,0.138-0.572,1.117c-0.039,1.008,0.675,1.37,0.675,1.37h8.959
				c0,0,0.675-0.313,0.675-1.293c0-0.978-0.6-1.213-0.6-1.213V26.012c0,0,0.75,0.079,0.75-1.136c0-1.175-0.703-1.145-0.703-1.145
				h-9.23c0,0-0.564,0.137-0.6,1.145C11.115,25.933,11.799,26.012,11.799,26.012z"/>
			<path class="st4" d="M11.799,26.012v61.189c0,0-0.535,0.138-0.572,1.117c-0.039,1.008,0.675,1.37,0.675,1.37h8.959
				c0,0,0.675-0.313,0.675-1.293c0-0.978-0.6-1.213-0.6-1.213V26.012c0,0,0.75,0.079,0.75-1.136c0-1.175-0.703-1.145-0.703-1.145
				h-9.23c0,0-0.564,0.137-0.6,1.145C11.115,25.933,11.799,26.012,11.799,26.012z"/>
			<path d="M11.217,25.696c0,0,0.08,0.147,0.66,0.271c0.578,0.126,3.275,0.25,3.275,0.25s-1.379,0.084-2.237,0.084
				s-1.318,0.083-1.318,0.083S11.258,25.947,11.217,25.696z"/>
			<path d="M21.624,25.508c0,0-0.379,0.354-0.959,0.501c-0.578,0.146-2.976,0.25-2.976,0.25s1.978,0.125,2.616,0.104
				c0.64-0.021,0.859,0.042,0.898-0.021C21.245,26.28,21.784,25.822,21.624,25.508z"/>
			<path d="M11.065,87.799c0,0,0.268-0.186,1.16-0.372c0.891-0.187,2.675-0.28,2.675-0.28l-3.478-0.465L11.065,87.799z"/>
			<path d="M21.588,87.52c0,0-0.535-0.186-1.516-0.279s-2.229,0-2.229,0s1.872-0.094,2.497-0.466s0.893-0.652,0.893-0.652
				L21.588,87.52z"/>
			<polygon points="12.314,29.754 12.314,84.445 12.67,83.701 12.581,34.506 			"/>
			<polygon points="20.251,85.191 20.251,44.196 19.984,52.488 19.984,83.98 			"/>
			<polygon points="20.251,27.332 20.251,42.332 19.984,35.717 19.984,28.45 			"/>
			<polygon points="13.028,77.458 13.028,52.487 13.383,59.103 13.383,75.501 			"/>
		</g>
		<g>
			<path class="st1" d="M82.187,11.799H25.933c0,0-0.127-0.535-1.027-0.572c-0.927-0.039-1.26,0.675-1.26,0.675v8.959
				c0,0,0.288,0.675,1.189,0.675c0.899,0,1.115-0.6,1.115-0.6h56.236c0,0-0.072,0.75,1.044,0.75c1.08,0,1.053-0.703,1.053-0.703
				v-9.23c0,0-0.125-0.564-1.053-0.6C82.259,11.115,82.187,11.799,82.187,11.799z"/>
			<path class="st4" d="M82.187,11.799H25.933c0,0-0.127-0.535-1.027-0.572c-0.927-0.039-1.26,0.675-1.26,0.675v8.959
				c0,0,0.288,0.675,1.189,0.675c0.899,0,1.115-0.6,1.115-0.6h56.236c0,0-0.072,0.75,1.044,0.75c1.08,0,1.053-0.703,1.053-0.703
				v-9.23c0,0-0.125-0.564-1.053-0.6C82.259,11.115,82.187,11.799,82.187,11.799z"/>
			<path d="M82.478,11.217c0,0-0.136,0.08-0.25,0.66c-0.116,0.578-0.23,3.275-0.23,3.275s-0.077-1.379-0.077-2.237
				s-0.076-1.318-0.076-1.318S82.247,11.258,82.478,11.217z"/>
			<path d="M82.649,21.624c0,0-0.325-0.379-0.46-0.959c-0.134-0.578-0.23-2.976-0.23-2.976s-0.115,1.978-0.096,2.616
				c0.02,0.64-0.038,0.859,0.02,0.898C81.94,21.245,82.361,21.784,82.649,21.624z"/>
			<path d="M25.383,11.065c0,0,0.171,0.268,0.342,1.16c0.171,0.891,0.257,2.675,0.257,2.675l0.428-3.478L25.383,11.065z"/>
			<path d="M25.64,21.588c0,0,0.17-0.535,0.256-1.516c0.086-0.98,0-2.229,0-2.229s0.086,1.872,0.429,2.497
				c0.342,0.625,0.599,0.893,0.599,0.893L25.64,21.588z"/>
			<polygon points="78.746,12.314 28.466,12.314 29.15,12.67 74.377,12.581 			"/>
			<polygon points="27.781,20.251 65.469,20.251 57.846,19.984 28.894,19.984 			"/>
			<polygon points="80.973,20.251 67.183,20.251 73.264,19.984 79.945,19.984 			"/>
			<polygon points="34.89,13.028 57.846,13.028 51.765,13.383 36.689,13.383 			"/>
		</g>
		<g>
			<path class="st1" d="M144.745,11.799H88.491c0,0-0.127-0.535-1.027-0.572c-0.927-0.039-1.26,0.675-1.26,0.675v8.959
				c0,0,0.288,0.675,1.189,0.675c0.899,0,1.115-0.6,1.115-0.6h56.236c0,0-0.072,0.75,1.044,0.75c1.08,0,1.053-0.703,1.053-0.703
				v-9.23c0,0-0.125-0.564-1.053-0.6C144.817,11.115,144.745,11.799,144.745,11.799z"/>
			<path class="st4" d="M144.745,11.799H88.491c0,0-0.127-0.535-1.027-0.572c-0.927-0.039-1.26,0.675-1.26,0.675v8.959
				c0,0,0.288,0.675,1.189,0.675c0.899,0,1.115-0.6,1.115-0.6h56.236c0,0-0.072,0.75,1.044,0.75c1.08,0,1.053-0.703,1.053-0.703
				v-9.23c0,0-0.125-0.564-1.053-0.6C144.817,11.115,144.745,11.799,144.745,11.799z"/>
			<path d="M145.036,11.217c0,0-0.136,0.08-0.25,0.66c-0.116,0.578-0.23,3.275-0.23,3.275s-0.077-1.379-0.077-2.237
				s-0.077-1.318-0.077-1.318S144.805,11.258,145.036,11.217z"/>
			<path d="M145.208,21.624c0,0-0.325-0.379-0.46-0.959c-0.134-0.578-0.23-2.976-0.23-2.976s-0.115,1.978-0.096,2.616
				c0.02,0.64-0.038,0.859,0.02,0.898C144.498,21.245,144.919,21.784,145.208,21.624z"/>
			<path d="M87.941,11.065c0,0,0.171,0.268,0.342,1.16c0.171,0.891,0.257,2.675,0.257,2.675l0.428-3.478L87.941,11.065z"/>
			<path d="M88.198,21.588c0,0,0.17-0.535,0.256-1.516c0.086-0.98,0-2.229,0-2.229s0.086,1.872,0.429,2.497
				c0.342,0.625,0.599,0.893,0.599,0.893L88.198,21.588z"/>
			<polygon points="141.304,12.314 91.024,12.314 91.708,12.67 136.936,12.581 			"/>
			<polygon points="90.339,20.251 128.027,20.251 120.404,19.984 91.452,19.984 			"/>
			<polygon points="143.531,20.251 129.741,20.251 135.822,19.984 142.503,19.984 			"/>
			<polygon points="97.448,13.028 120.404,13.028 114.323,13.383 99.247,13.383 			"/>
		</g>
		<g>
			<path class="st1" d="M207.303,11.799h-56.253c0,0-0.127-0.535-1.027-0.572c-0.927-0.039-1.26,0.675-1.26,0.675v8.959
				c0,0,0.288,0.675,1.189,0.675c0.899,0,1.115-0.6,1.115-0.6h56.236c0,0-0.072,0.75,1.044,0.75c1.08,0,1.053-0.703,1.053-0.703
				v-9.23c0,0-0.125-0.564-1.053-0.6C207.375,11.115,207.303,11.799,207.303,11.799z"/>
			<path class="st4" d="M207.303,11.799h-56.253c0,0-0.127-0.535-1.027-0.572c-0.927-0.039-1.26,0.675-1.26,0.675v8.959
				c0,0,0.288,0.675,1.189,0.675c0.899,0,1.115-0.6,1.115-0.6h56.236c0,0-0.072,0.75,1.044,0.75c1.08,0,1.053-0.703,1.053-0.703
				v-9.23c0,0-0.125-0.564-1.053-0.6C207.375,11.115,207.303,11.799,207.303,11.799z"/>
			<path d="M207.594,11.217c0,0-0.136,0.08-0.25,0.66c-0.116,0.578-0.23,3.275-0.23,3.275s-0.077-1.379-0.077-2.237
				s-0.076-1.318-0.076-1.318S207.363,11.258,207.594,11.217z"/>
			<path d="M207.766,21.624c0,0-0.325-0.379-0.46-0.959c-0.134-0.578-0.23-2.976-0.23-2.976s-0.115,1.978-0.096,2.616
				c0.02,0.64-0.038,0.859,0.02,0.898C207.056,21.245,207.477,21.784,207.766,21.624z"/>
			<path d="M150.499,11.065c0,0,0.171,0.268,0.342,1.16c0.171,0.891,0.257,2.675,0.257,2.675l0.428-3.478L150.499,11.065z"/>
			<path d="M150.756,21.588c0,0,0.17-0.535,0.256-1.516c0.086-0.98,0-2.229,0-2.229s0.086,1.872,0.429,2.497
				c0.342,0.625,0.599,0.893,0.599,0.893L150.756,21.588z"/>
			<polygon points="203.862,12.314 153.583,12.314 154.266,12.67 199.494,12.581 			"/>
			<polygon points="152.897,20.251 190.585,20.251 182.962,19.984 154.01,19.984 			"/>
			<polygon points="206.089,20.251 192.299,20.251 198.38,19.984 205.062,19.984 			"/>
			<polygon points="160.006,13.028 182.962,13.028 176.881,13.383 161.805,13.383 			"/>
		</g>
		<g>
			<path class="st1" d="M269.861,11.799h-56.253c0,0-0.127-0.535-1.027-0.572c-0.927-0.039-1.26,0.675-1.26,0.675v8.959
				c0,0,0.288,0.675,1.189,0.675c0.899,0,1.115-0.6,1.115-0.6h56.236c0,0-0.072,0.75,1.044,0.75c1.08,0,1.053-0.703,1.053-0.703
				v-9.23c0,0-0.125-0.564-1.053-0.6C269.933,11.115,269.861,11.799,269.861,11.799z"/>
			<path class="st4" d="M269.861,11.799h-56.253c0,0-0.127-0.535-1.027-0.572c-0.927-0.039-1.26,0.675-1.26,0.675v8.959
				c0,0,0.288,0.675,1.189,0.675c0.899,0,1.115-0.6,1.115-0.6h56.236c0,0-0.072,0.75,1.044,0.75c1.08,0,1.053-0.703,1.053-0.703
				v-9.23c0,0-0.125-0.564-1.053-0.6C269.933,11.115,269.861,11.799,269.861,11.799z"/>
			<path d="M270.152,11.217c0,0-0.136,0.08-0.25,0.66c-0.116,0.578-0.23,3.275-0.23,3.275s-0.077-1.379-0.077-2.237
				s-0.077-1.318-0.077-1.318S269.921,11.258,270.152,11.217z"/>
			<path d="M270.324,21.624c0,0-0.325-0.379-0.46-0.959c-0.134-0.578-0.23-2.976-0.23-2.976s-0.115,1.978-0.096,2.616
				c0.02,0.64-0.038,0.859,0.02,0.898C269.614,21.245,270.035,21.784,270.324,21.624z"/>
			<path d="M213.057,11.065c0,0,0.171,0.268,0.342,1.16c0.171,0.891,0.257,2.675,0.257,2.675l0.428-3.478L213.057,11.065z"/>
			<path d="M213.314,21.588c0,0,0.17-0.535,0.256-1.516c0.086-0.98,0-2.229,0-2.229s0.086,1.872,0.429,2.497
				c0.342,0.625,0.599,0.893,0.599,0.893L213.314,21.588z"/>
			<polygon points="266.42,12.314 216.141,12.314 216.824,12.67 262.052,12.581 			"/>
			<polygon points="215.455,20.251 253.144,20.251 245.52,19.984 216.568,19.984 			"/>
			<polygon points="268.647,20.251 254.857,20.251 260.938,19.984 267.62,19.984 			"/>
			<polygon points="222.564,13.028 245.521,13.028 239.439,13.383 224.363,13.383 			"/>
		</g>
		<g>
			<path class="st1" d="M332.419,11.799h-56.254c0,0-0.127-0.535-1.027-0.572c-0.927-0.039-1.259,0.675-1.259,0.675v8.959
				c0,0,0.288,0.675,1.189,0.675c0.899,0,1.115-0.6,1.115-0.6h56.236c0,0-0.072,0.75,1.044,0.75c1.08,0,1.053-0.703,1.053-0.703
				v-9.23c0,0-0.126-0.564-1.053-0.6C332.491,11.115,332.419,11.799,332.419,11.799z"/>
			<path class="st4" d="M332.419,11.799h-56.254c0,0-0.127-0.535-1.027-0.572c-0.927-0.039-1.259,0.675-1.259,0.675v8.959
				c0,0,0.288,0.675,1.189,0.675c0.899,0,1.115-0.6,1.115-0.6h56.236c0,0-0.072,0.75,1.044,0.75c1.08,0,1.053-0.703,1.053-0.703
				v-9.23c0,0-0.126-0.564-1.053-0.6C332.491,11.115,332.419,11.799,332.419,11.799z"/>
			<path d="M332.709,11.217c0,0-0.136,0.08-0.25,0.66c-0.115,0.578-0.229,3.275-0.229,3.275s-0.077-1.379-0.077-2.237
				s-0.076-1.318-0.076-1.318S332.479,11.258,332.709,11.217z"/>
			<path d="M332.881,21.624c0,0-0.324-0.379-0.46-0.959c-0.134-0.578-0.229-2.976-0.229-2.976s-0.115,1.978-0.096,2.616
				c0.019,0.64-0.039,0.859,0.019,0.898C332.172,21.245,332.593,21.784,332.881,21.624z"/>
			<path d="M275.616,11.065c0,0,0.17,0.268,0.342,1.16c0.171,0.891,0.257,2.675,0.257,2.675l0.428-3.478L275.616,11.065z"/>
			<path d="M275.872,21.588c0,0,0.171-0.535,0.257-1.516s0-2.229,0-2.229s0.086,1.872,0.429,2.497c0.342,0.625,0.6,0.893,0.6,0.893
				L275.872,21.588z"/>
			<polygon points="328.979,12.314 278.699,12.314 279.382,12.67 324.61,12.581 			"/>
			<polygon points="278.013,20.251 315.702,20.251 308.079,19.984 279.126,19.984 			"/>
			<polygon points="331.206,20.251 317.416,20.251 323.497,19.984 330.178,19.984 			"/>
			<polygon points="285.122,13.028 308.079,13.028 301.997,13.383 286.921,13.383 			"/>
		</g>
		<g>
			<path class="st1" d="M394.977,11.799h-56.254c0,0-0.127-0.535-1.026-0.572c-0.928-0.039-1.26,0.675-1.26,0.675v8.959
				c0,0,0.288,0.675,1.188,0.675c0.899,0,1.116-0.6,1.116-0.6h56.235c0,0-0.072,0.75,1.044,0.75c1.08,0,1.054-0.703,1.054-0.703
				v-9.23c0,0-0.126-0.564-1.054-0.6C395.049,11.115,394.977,11.799,394.977,11.799z"/>
			<path class="st4" d="M394.977,11.799h-56.254c0,0-0.127-0.535-1.026-0.572c-0.928-0.039-1.26,0.675-1.26,0.675v8.959
				c0,0,0.288,0.675,1.188,0.675c0.899,0,1.116-0.6,1.116-0.6h56.235c0,0-0.072,0.75,1.044,0.75c1.08,0,1.054-0.703,1.054-0.703
				v-9.23c0,0-0.126-0.564-1.054-0.6C395.049,11.115,394.977,11.799,394.977,11.799z"/>
			<path d="M395.268,11.217c0,0-0.136,0.08-0.25,0.66c-0.116,0.578-0.23,3.275-0.23,3.275s-0.076-1.379-0.076-2.237
				s-0.077-1.318-0.077-1.318S395.038,11.258,395.268,11.217z"/>
			<path d="M395.44,21.624c0,0-0.325-0.379-0.461-0.959c-0.134-0.578-0.229-2.976-0.229-2.976s-0.115,1.978-0.096,2.616
				c0.02,0.64-0.038,0.859,0.02,0.898C394.73,21.245,395.152,21.784,395.44,21.624z"/>
			<path d="M338.173,11.065c0,0,0.171,0.268,0.342,1.16c0.172,0.891,0.258,2.675,0.258,2.675l0.428-3.478L338.173,11.065z"/>
			<path d="M338.43,21.588c0,0,0.171-0.535,0.257-1.516s0-2.229,0-2.229s0.086,1.872,0.428,2.497c0.343,0.625,0.6,0.893,0.6,0.893
				L338.43,21.588z"/>
			<polygon points="391.537,12.314 341.257,12.314 341.941,12.67 387.168,12.581 			"/>
			<polygon points="340.571,20.251 378.26,20.251 370.636,19.984 341.685,19.984 			"/>
			<polygon points="393.764,20.251 379.973,20.251 386.055,19.984 392.736,19.984 			"/>
			<polygon points="347.68,13.028 370.637,13.028 364.555,13.383 349.48,13.383 			"/>
		</g>
		<g>
			<path class="st1" d="M457.536,11.799h-56.254c0,0-0.127-0.535-1.027-0.572c-0.927-0.039-1.26,0.675-1.26,0.675v8.959
				c0,0,0.288,0.675,1.189,0.675c0.899,0,1.115-0.6,1.115-0.6h56.236c0,0-0.072,0.75,1.044,0.75c1.08,0,1.053-0.703,1.053-0.703
				v-9.23c0,0-0.126-0.564-1.053-0.6C457.608,11.115,457.536,11.799,457.536,11.799z"/>
			<path class="st4" d="M457.536,11.799h-56.254c0,0-0.127-0.535-1.027-0.572c-0.927-0.039-1.26,0.675-1.26,0.675v8.959
				c0,0,0.288,0.675,1.189,0.675c0.899,0,1.115-0.6,1.115-0.6h56.236c0,0-0.072,0.75,1.044,0.75c1.08,0,1.053-0.703,1.053-0.703
				v-9.23c0,0-0.126-0.564-1.053-0.6C457.608,11.115,457.536,11.799,457.536,11.799z"/>
			<path d="M457.826,11.217c0,0-0.136,0.08-0.25,0.66c-0.115,0.578-0.229,3.275-0.229,3.275s-0.077-1.379-0.077-2.237
				s-0.076-1.318-0.076-1.318S457.595,11.258,457.826,11.217z"/>
			<path d="M457.999,21.624c0,0-0.325-0.379-0.461-0.959c-0.134-0.578-0.229-2.976-0.229-2.976s-0.115,1.978-0.096,2.616
				c0.019,0.64-0.039,0.859,0.019,0.898C457.289,21.245,457.709,21.784,457.999,21.624z"/>
			<path d="M400.732,11.065c0,0,0.17,0.268,0.342,1.16c0.171,0.891,0.257,2.675,0.257,2.675l0.428-3.478L400.732,11.065z"/>
			<path d="M400.988,21.588c0,0,0.171-0.535,0.257-1.516s0-2.229,0-2.229s0.086,1.872,0.429,2.497c0.342,0.625,0.6,0.893,0.6,0.893
				L400.988,21.588z"/>
			<polygon points="454.095,12.314 403.815,12.314 404.499,12.67 449.726,12.581 			"/>
			<polygon points="403.129,20.251 440.818,20.251 433.195,19.984 404.243,19.984 			"/>
			<polygon points="456.322,20.251 442.532,20.251 448.613,19.984 455.294,19.984 			"/>
			<polygon points="410.239,13.028 433.195,13.028 427.113,13.383 412.038,13.383 			"/>
		</g>
		<g>
			<path class="st1" d="M520.093,11.799h-56.254c0,0-0.127-0.535-1.026-0.572c-0.928-0.039-1.26,0.675-1.26,0.675v8.959
				c0,0,0.288,0.675,1.188,0.675c0.899,0,1.116-0.6,1.116-0.6h56.235c0,0-0.072,0.75,1.044,0.75c1.08,0,1.053-0.703,1.053-0.703
				v-9.23c0,0-0.125-0.564-1.053-0.6C520.166,11.115,520.093,11.799,520.093,11.799z"/>
			<path class="st4" d="M520.093,11.799h-56.254c0,0-0.127-0.535-1.026-0.572c-0.928-0.039-1.26,0.675-1.26,0.675v8.959
				c0,0,0.288,0.675,1.188,0.675c0.899,0,1.116-0.6,1.116-0.6h56.235c0,0-0.072,0.75,1.044,0.75c1.08,0,1.053-0.703,1.053-0.703
				v-9.23c0,0-0.125-0.564-1.053-0.6C520.166,11.115,520.093,11.799,520.093,11.799z"/>
			<path d="M520.384,11.217c0,0-0.136,0.08-0.25,0.66c-0.116,0.578-0.229,3.275-0.229,3.275s-0.077-1.379-0.077-2.237
				s-0.077-1.318-0.077-1.318S520.153,11.258,520.384,11.217z"/>
			<path d="M520.556,21.624c0,0-0.325-0.379-0.461-0.959c-0.134-0.578-0.229-2.976-0.229-2.976s-0.115,1.978-0.096,2.616
				c0.02,0.64-0.038,0.859,0.02,0.898C519.846,21.245,520.268,21.784,520.556,21.624z"/>
			<path d="M463.29,11.065c0,0,0.171,0.268,0.342,1.16c0.172,0.891,0.258,2.675,0.258,2.675l0.428-3.478L463.29,11.065z"/>
			<path d="M463.546,21.588c0,0,0.171-0.535,0.257-1.516s0-2.229,0-2.229s0.086,1.872,0.428,2.497c0.343,0.625,0.6,0.893,0.6,0.893
				L463.546,21.588z"/>
			<polygon points="516.653,12.314 466.374,12.314 467.057,12.67 512.285,12.581 			"/>
			<polygon points="465.688,20.251 503.376,20.251 495.752,19.984 466.801,19.984 			"/>
			<polygon points="518.88,20.251 505.089,20.251 511.171,19.984 517.852,19.984 			"/>
			<polygon points="472.796,13.028 495.753,13.028 489.671,13.383 474.596,13.383 			"/>
		</g>
		<g>
			<path class="st1" d="M534.038,87.407V26.218c0,0,0.535-0.138,0.572-1.117c0.039-1.009-0.675-1.37-0.675-1.37h-8.959
				c0,0-0.675,0.313-0.675,1.293c0,0.979,0.6,1.213,0.6,1.213v61.169c0,0-0.75-0.079-0.75,1.136c0,1.175,0.703,1.146,0.703,1.146
				h9.23c0,0,0.564-0.137,0.6-1.146C534.722,87.485,534.038,87.407,534.038,87.407z"/>
			<path class="st4" d="M534.038,87.407V26.218c0,0,0.535-0.138,0.572-1.117c0.039-1.009-0.675-1.37-0.675-1.37h-8.959
				c0,0-0.675,0.313-0.675,1.293c0,0.979,0.6,1.213,0.6,1.213v61.169c0,0-0.75-0.079-0.75,1.136c0,1.175,0.703,1.146,0.703,1.146
				h9.23c0,0,0.564-0.137,0.6-1.146C534.722,87.485,534.038,87.407,534.038,87.407z"/>
			<path d="M534.62,87.723c0,0-0.08-0.147-0.66-0.272c-0.578-0.126-3.275-0.25-3.275-0.25s1.379-0.083,2.237-0.083
				s1.318-0.083,1.318-0.083S534.579,87.472,534.62,87.723z"/>
			<path d="M524.213,87.91c0,0,0.379-0.354,0.959-0.501c0.578-0.146,2.976-0.25,2.976-0.25s-1.978-0.125-2.616-0.104
				c-0.64,0.021-0.859-0.042-0.898,0.021C524.592,87.138,524.053,87.596,524.213,87.91z"/>
			<path d="M534.772,25.62c0,0-0.268,0.186-1.16,0.372c-0.891,0.186-2.675,0.28-2.675,0.28l3.478,0.465L534.772,25.62z"/>
			<path d="M524.249,25.898c0,0,0.535,0.186,1.516,0.279c0.98,0.094,2.229,0,2.229,0s-1.872,0.094-2.497,0.466
				c-0.625,0.372-0.893,0.652-0.893,0.652L524.249,25.898z"/>
			<polygon points="533.523,83.665 533.523,28.974 533.167,29.717 533.256,78.913 			"/>
			<polygon points="525.585,28.228 525.585,69.223 525.853,60.931 525.853,29.439 			"/>
			<polygon points="525.585,86.087 525.585,71.086 525.853,77.702 525.853,84.969 			"/>
			<polygon points="532.809,35.96 532.809,60.931 532.454,54.316 532.454,37.917 			"/>
		</g>
		<g>
			<path class="st1" d="M534.038,155.453V94.264c0,0,0.535-0.138,0.572-1.117c0.039-1.009-0.675-1.37-0.675-1.37h-8.959
				c0,0-0.675,0.313-0.675,1.293c0,0.979,0.6,1.213,0.6,1.213v61.169c0,0-0.75-0.079-0.75,1.136c0,1.175,0.703,1.145,0.703,1.145
				h9.23c0,0,0.564-0.137,0.6-1.145C534.722,155.532,534.038,155.453,534.038,155.453z"/>
			<path class="st4" d="M534.038,155.453V94.264c0,0,0.535-0.138,0.572-1.117c0.039-1.009-0.675-1.37-0.675-1.37h-8.959
				c0,0-0.675,0.313-0.675,1.293c0,0.979,0.6,1.213,0.6,1.213v61.169c0,0-0.75-0.079-0.75,1.136c0,1.175,0.703,1.145,0.703,1.145
				h9.23c0,0,0.564-0.137,0.6-1.145C534.722,155.532,534.038,155.453,534.038,155.453z"/>
			<path d="M534.62,155.77c0,0-0.08-0.147-0.66-0.272c-0.578-0.126-3.275-0.25-3.275-0.25s1.379-0.083,2.237-0.083
				s1.318-0.083,1.318-0.083S534.579,155.519,534.62,155.77z"/>
			<path d="M524.213,155.957c0,0,0.379-0.354,0.959-0.501c0.578-0.146,2.976-0.25,2.976-0.25s-1.978-0.125-2.616-0.104
				c-0.64,0.021-0.859-0.042-0.898,0.021C524.592,155.185,524.053,155.643,524.213,155.957z"/>
			<path d="M534.772,93.666c0,0-0.268,0.186-1.16,0.372c-0.891,0.186-2.675,0.28-2.675,0.28l3.478,0.465L534.772,93.666z"/>
			<path d="M524.249,93.945c0,0,0.535,0.186,1.516,0.279c0.98,0.094,2.229,0,2.229,0s-1.872,0.094-2.497,0.466
				c-0.625,0.372-0.893,0.652-0.893,0.652L524.249,93.945z"/>
			<polygon points="533.523,151.711 533.523,97.02 533.167,97.764 533.256,146.959 			"/>
			<polygon points="525.585,96.274 525.585,137.269 525.853,128.977 525.853,97.485 			"/>
			<polygon points="525.585,154.133 525.585,139.133 525.853,145.748 525.853,153.016 			"/>
			<polygon points="532.809,104.007 532.809,128.978 532.454,122.362 532.454,105.964 			"/>
		</g>
		<g>
			<path class="st1" d="M534.038,223.5v-61.188c0,0,0.535-0.138,0.572-1.117c0.039-1.008-0.675-1.37-0.675-1.37h-8.959
				c0,0-0.675,0.313-0.675,1.293c0,0.979,0.6,1.214,0.6,1.214V223.5c0,0-0.75-0.079-0.75,1.136c0,1.175,0.703,1.145,0.703,1.145
				h9.23c0,0,0.564-0.137,0.6-1.145C534.722,223.578,534.038,223.5,534.038,223.5z"/>
			<path class="st4" d="M534.038,223.5v-61.188c0,0,0.535-0.138,0.572-1.117c0.039-1.008-0.675-1.37-0.675-1.37h-8.959
				c0,0-0.675,0.313-0.675,1.293c0,0.979,0.6,1.214,0.6,1.214V223.5c0,0-0.75-0.079-0.75,1.136c0,1.175,0.703,1.145,0.703,1.145
				h9.23c0,0,0.564-0.137,0.6-1.145C534.722,223.578,534.038,223.5,534.038,223.5z"/>
			<path d="M534.62,223.816c0,0-0.08-0.147-0.66-0.272c-0.578-0.126-3.275-0.25-3.275-0.25s1.379-0.083,2.237-0.083
				s1.318-0.083,1.318-0.083S534.579,223.565,534.62,223.816z"/>
			<path d="M524.213,224.003c0,0,0.379-0.354,0.959-0.5c0.578-0.146,2.976-0.25,2.976-0.25s-1.978-0.125-2.616-0.104
				c-0.64,0.021-0.859-0.042-0.898,0.021C524.592,223.231,524.053,223.689,524.213,224.003z"/>
			<path d="M534.772,161.712c0,0-0.268,0.186-1.16,0.372c-0.891,0.186-2.675,0.28-2.675,0.28l3.478,0.465L534.772,161.712z"/>
			<path d="M524.249,161.992c0,0,0.535,0.186,1.516,0.279c0.98,0.094,2.229,0,2.229,0s-1.872,0.094-2.497,0.466
				s-0.893,0.652-0.893,0.652L524.249,161.992z"/>
			<polygon points="533.523,219.757 533.523,165.066 533.167,165.81 533.256,215.005 			"/>
			<polygon points="525.585,164.321 525.585,205.316 525.853,197.023 525.853,165.532 			"/>
			<polygon points="525.585,222.18 525.585,207.18 525.853,213.794 525.853,221.062 			"/>
			<polygon points="532.809,172.053 532.809,197.024 532.454,190.409 532.454,174.01 			"/>
		</g>
		<g>
			<path class="st1" d="M534.038,291.546v-61.189c0,0,0.535-0.138,0.572-1.117c0.039-1.008-0.675-1.37-0.675-1.37h-8.959
				c0,0-0.675,0.313-0.675,1.293c0,0.979,0.6,1.214,0.6,1.214v61.169c0,0-0.75-0.079-0.75,1.136c0,1.175,0.703,1.145,0.703,1.145
				h9.23c0,0,0.564-0.137,0.6-1.145C534.722,291.625,534.038,291.546,534.038,291.546z"/>
			<path class="st4" d="M534.038,291.546v-61.189c0,0,0.535-0.138,0.572-1.117c0.039-1.008-0.675-1.37-0.675-1.37h-8.959
				c0,0-0.675,0.313-0.675,1.293c0,0.979,0.6,1.214,0.6,1.214v61.169c0,0-0.75-0.079-0.75,1.136c0,1.175,0.703,1.145,0.703,1.145
				h9.23c0,0,0.564-0.137,0.6-1.145C534.722,291.625,534.038,291.546,534.038,291.546z"/>
			<path d="M534.62,291.862c0,0-0.08-0.147-0.66-0.272c-0.578-0.126-3.275-0.25-3.275-0.25s1.379-0.083,2.237-0.083
				s1.318-0.083,1.318-0.083S534.579,291.611,534.62,291.862z"/>
			<path d="M524.213,292.05c0,0,0.379-0.354,0.959-0.501c0.578-0.146,2.976-0.25,2.976-0.25s-1.978-0.125-2.616-0.104
				c-0.64,0.021-0.859-0.042-0.898,0.021C524.592,291.278,524.053,291.736,524.213,292.05z"/>
			<path d="M534.772,229.759c0,0-0.268,0.186-1.16,0.372c-0.891,0.186-2.675,0.28-2.675,0.28l3.478,0.465L534.772,229.759z"/>
			<path d="M524.249,230.038c0,0,0.535,0.186,1.516,0.279c0.98,0.094,2.229,0,2.229,0s-1.872,0.094-2.497,0.466
				s-0.893,0.652-0.893,0.652L524.249,230.038z"/>
			<polygon points="533.523,287.804 533.523,233.113 533.167,233.856 533.256,283.052 			"/>
			<polygon points="525.585,232.367 525.585,273.362 525.853,265.07 525.853,233.578 			"/>
			<polygon points="525.585,290.227 525.585,275.226 525.853,281.841 525.853,289.108 			"/>
			<polygon points="532.809,240.1 532.809,265.071 532.454,258.455 532.454,242.057 			"/>
		</g>
		<g>
			<path class="st1" d="M534.038,359.593v-61.189c0,0,0.535-0.138,0.572-1.117c0.039-1.008-0.675-1.37-0.675-1.37h-8.959
				c0,0-0.675,0.313-0.675,1.293c0,0.978,0.6,1.213,0.6,1.213v61.169c0,0-0.75-0.079-0.75,1.136c0,1.175,0.703,1.145,0.703,1.145
				h9.23c0,0,0.564-0.137,0.6-1.145C534.722,359.671,534.038,359.593,534.038,359.593z"/>
			<path class="st4" d="M534.038,359.593v-61.189c0,0,0.535-0.138,0.572-1.117c0.039-1.008-0.675-1.37-0.675-1.37h-8.959
				c0,0-0.675,0.313-0.675,1.293c0,0.978,0.6,1.213,0.6,1.213v61.169c0,0-0.75-0.079-0.75,1.136c0,1.175,0.703,1.145,0.703,1.145
				h9.23c0,0,0.564-0.137,0.6-1.145C534.722,359.671,534.038,359.593,534.038,359.593z"/>
			<path d="M534.62,359.909c0,0-0.08-0.147-0.66-0.271c-0.578-0.126-3.275-0.25-3.275-0.25s1.379-0.084,2.237-0.084
				s1.318-0.083,1.318-0.083S534.579,359.658,534.62,359.909z"/>
			<path d="M524.213,360.096c0,0,0.379-0.354,0.959-0.501c0.578-0.146,2.976-0.25,2.976-0.25s-1.978-0.125-2.616-0.104
				c-0.64,0.021-0.859-0.042-0.898,0.021C524.592,359.324,524.053,359.782,524.213,360.096z"/>
			<path d="M534.772,297.806c0,0-0.268,0.186-1.16,0.372c-0.891,0.187-2.675,0.28-2.675,0.28l3.478,0.465L534.772,297.806z"/>
			<path d="M524.249,298.084c0,0,0.535,0.186,1.516,0.279s2.229,0,2.229,0s-1.872,0.094-2.497,0.466s-0.893,0.652-0.893,0.652
				L524.249,298.084z"/>
			<polygon points="533.523,355.851 533.523,301.16 533.167,301.903 533.256,351.099 			"/>
			<polygon points="525.585,300.414 525.585,341.409 525.853,333.117 525.853,301.625 			"/>
			<polygon points="525.585,358.273 525.585,343.272 525.853,349.888 525.853,357.155 			"/>
			<polygon points="532.809,308.146 532.809,333.117 532.454,326.501 532.454,310.104 			"/>
		</g>
		<g>
			<path class="st1" d="M534.038,427.639v-61.188c0,0,0.535-0.139,0.572-1.117c0.039-1.009-0.675-1.37-0.675-1.37h-8.959
				c0,0-0.675,0.313-0.675,1.293c0,0.979,0.6,1.214,0.6,1.214v61.169c0,0-0.75-0.079-0.75,1.136c0,1.175,0.703,1.146,0.703,1.146
				h9.23c0,0,0.564-0.137,0.6-1.146C534.722,427.717,534.038,427.639,534.038,427.639z"/>
			<path class="st4" d="M534.038,427.639v-61.188c0,0,0.535-0.139,0.572-1.117c0.039-1.009-0.675-1.37-0.675-1.37h-8.959
				c0,0-0.675,0.313-0.675,1.293c0,0.979,0.6,1.214,0.6,1.214v61.169c0,0-0.75-0.079-0.75,1.136c0,1.175,0.703,1.146,0.703,1.146
				h9.23c0,0,0.564-0.137,0.6-1.146C534.722,427.717,534.038,427.639,534.038,427.639z"/>
			<path d="M534.62,427.956c0,0-0.08-0.147-0.66-0.272c-0.578-0.126-3.275-0.25-3.275-0.25s1.379-0.083,2.237-0.083
				s1.318-0.083,1.318-0.083S534.579,427.705,534.62,427.956z"/>
			<path d="M524.213,428.142c0,0,0.379-0.354,0.959-0.5c0.578-0.146,2.976-0.25,2.976-0.25s-1.978-0.125-2.616-0.104
				c-0.64,0.021-0.859-0.042-0.898,0.021C524.592,427.371,524.053,427.829,524.213,428.142z"/>
			<path d="M534.772,365.852c0,0-0.268,0.186-1.16,0.372c-0.891,0.186-2.675,0.28-2.675,0.28l3.478,0.465L534.772,365.852z"/>
			<path d="M524.249,366.131c0,0,0.535,0.186,1.516,0.278c0.98,0.095,2.229,0,2.229,0s-1.872,0.095-2.497,0.467
				s-0.893,0.651-0.893,0.651L524.249,366.131z"/>
			<polygon points="533.523,423.897 533.523,369.206 533.167,369.95 533.256,419.145 			"/>
			<polygon points="525.585,368.46 525.585,409.456 525.853,401.163 525.853,369.671 			"/>
			<polygon points="525.585,426.32 525.585,411.319 525.853,417.934 525.853,425.202 			"/>
			<polygon points="532.809,376.193 532.809,401.164 532.454,394.548 532.454,378.15 			"/>
		</g>
		<g>
			<path class="st1" d="M534.038,495.686v-61.189c0,0,0.535-0.138,0.572-1.117c0.039-1.008-0.675-1.37-0.675-1.37h-8.959
				c0,0-0.675,0.313-0.675,1.293c0,0.979,0.6,1.214,0.6,1.214v61.17c0,0-0.75-0.079-0.75,1.136c0,1.175,0.703,1.145,0.703,1.145
				h9.23c0,0,0.564-0.137,0.6-1.145C534.722,495.764,534.038,495.686,534.038,495.686z"/>
			<path class="st4" d="M534.038,495.686v-61.189c0,0,0.535-0.138,0.572-1.117c0.039-1.008-0.675-1.37-0.675-1.37h-8.959
				c0,0-0.675,0.313-0.675,1.293c0,0.979,0.6,1.214,0.6,1.214v61.17c0,0-0.75-0.079-0.75,1.136c0,1.175,0.703,1.145,0.703,1.145
				h9.23c0,0,0.564-0.137,0.6-1.145C534.722,495.764,534.038,495.686,534.038,495.686z"/>
			<path d="M534.62,496.001c0,0-0.08-0.147-0.66-0.271c-0.578-0.126-3.275-0.25-3.275-0.25s1.379-0.084,2.237-0.084
				s1.318-0.083,1.318-0.083S534.579,495.75,534.62,496.001z"/>
			<path d="M524.213,496.189c0,0,0.379-0.354,0.959-0.501c0.578-0.146,2.976-0.25,2.976-0.25s-1.978-0.125-2.616-0.104
				c-0.64,0.021-0.859-0.042-0.898,0.021C524.592,495.417,524.053,495.875,524.213,496.189z"/>
			<path d="M534.772,433.899c0,0-0.268,0.186-1.16,0.371c-0.891,0.187-2.675,0.28-2.675,0.28l3.478,0.465L534.772,433.899z"/>
			<path d="M524.249,434.177c0,0,0.535,0.186,1.516,0.279s2.229,0,2.229,0s-1.872,0.094-2.497,0.466s-0.893,0.652-0.893,0.652
				L524.249,434.177z"/>
			<polygon points="533.523,491.944 533.523,437.252 533.167,437.997 533.256,487.192 			"/>
			<polygon points="525.585,436.506 525.585,477.501 525.853,469.209 525.853,437.717 			"/>
			<polygon points="525.585,494.366 525.585,479.366 525.853,485.981 525.853,493.248 			"/>
			<polygon points="532.809,444.239 532.809,469.21 532.454,462.594 532.454,446.197 			"/>
		</g>
		<g>
			<path class="st1" d="M534.038,563.732v-61.188c0,0,0.535-0.139,0.572-1.117c0.039-1.009-0.675-1.37-0.675-1.37h-8.959
				c0,0-0.675,0.313-0.675,1.293c0,0.979,0.6,1.214,0.6,1.214v61.169c0,0-0.75-0.078-0.75,1.136c0,1.175,0.703,1.146,0.703,1.146
				h9.23c0,0,0.564-0.137,0.6-1.146C534.722,563.811,534.038,563.732,534.038,563.732z"/>
			<path class="st4" d="M534.038,563.732v-61.188c0,0,0.535-0.139,0.572-1.117c0.039-1.009-0.675-1.37-0.675-1.37h-8.959
				c0,0-0.675,0.313-0.675,1.293c0,0.979,0.6,1.214,0.6,1.214v61.169c0,0-0.75-0.078-0.75,1.136c0,1.175,0.703,1.146,0.703,1.146
				h9.23c0,0,0.564-0.137,0.6-1.146C534.722,563.811,534.038,563.732,534.038,563.732z"/>
			<path d="M534.62,564.048c0,0-0.08-0.147-0.66-0.271c-0.578-0.126-3.275-0.25-3.275-0.25s1.379-0.084,2.237-0.084
				s1.318-0.083,1.318-0.083S534.579,563.797,534.62,564.048z"/>
			<path d="M524.213,564.236c0,0,0.379-0.354,0.959-0.501c0.578-0.146,2.976-0.25,2.976-0.25s-1.978-0.125-2.616-0.104
				c-0.64,0.021-0.859-0.042-0.898,0.021C524.592,563.463,524.053,563.921,524.213,564.236z"/>
			<path d="M534.772,501.945c0,0-0.268,0.186-1.16,0.372c-0.891,0.187-2.675,0.28-2.675,0.28l3.478,0.465L534.772,501.945z"/>
			<path d="M524.249,502.224c0,0,0.535,0.186,1.516,0.279s2.229,0,2.229,0s-1.872,0.094-2.497,0.466s-0.893,0.652-0.893,0.652
				L524.249,502.224z"/>
			<polygon points="533.523,559.99 533.523,505.299 533.167,506.042 533.256,555.238 			"/>
			<polygon points="525.585,504.553 525.585,545.548 525.853,537.256 525.853,505.764 			"/>
			<polygon points="525.585,562.413 525.585,547.412 525.853,554.027 525.853,561.294 			"/>
			<polygon points="532.809,512.286 532.809,537.256 532.454,530.641 532.454,514.243 			"/>
		</g>
		<g>
			<path class="st1" d="M534.038,631.779v-61.189c0,0,0.535-0.138,0.572-1.116c0.039-1.009-0.675-1.37-0.675-1.37h-8.959
				c0,0-0.675,0.313-0.675,1.293c0,0.979,0.6,1.213,0.6,1.213v61.17c0,0-0.75-0.079-0.75,1.136c0,1.175,0.703,1.146,0.703,1.146
				h9.23c0,0,0.564-0.137,0.6-1.146C534.722,631.857,534.038,631.779,534.038,631.779z"/>
			<path class="st4" d="M534.038,631.779v-61.189c0,0,0.535-0.138,0.572-1.116c0.039-1.009-0.675-1.37-0.675-1.37h-8.959
				c0,0-0.675,0.313-0.675,1.293c0,0.979,0.6,1.213,0.6,1.213v61.17c0,0-0.75-0.079-0.75,1.136c0,1.175,0.703,1.146,0.703,1.146
				h9.23c0,0,0.564-0.137,0.6-1.146C534.722,631.857,534.038,631.779,534.038,631.779z"/>
			<path d="M534.62,632.095c0,0-0.08-0.147-0.66-0.272c-0.578-0.126-3.275-0.25-3.275-0.25s1.379-0.083,2.237-0.083
				s1.318-0.084,1.318-0.084S534.579,631.844,534.62,632.095z"/>
			<path d="M524.213,632.282c0,0,0.379-0.354,0.959-0.501c0.578-0.146,2.976-0.25,2.976-0.25s-1.978-0.125-2.616-0.104
				c-0.64,0.021-0.859-0.042-0.898,0.021C524.592,631.51,524.053,631.968,524.213,632.282z"/>
			<path d="M534.772,569.992c0,0-0.268,0.186-1.16,0.372c-0.891,0.186-2.675,0.279-2.675,0.279l3.478,0.466L534.772,569.992z"/>
			<path d="M524.249,570.271c0,0,0.535,0.186,1.516,0.278c0.98,0.094,2.229,0,2.229,0s-1.872,0.094-2.497,0.467
				c-0.625,0.371-0.893,0.651-0.893,0.651L524.249,570.271z"/>
			<polygon points="533.523,628.037 533.523,573.345 533.167,574.089 533.256,623.285 			"/>
			<polygon points="525.585,572.599 525.585,613.594 525.853,605.302 525.853,573.811 			"/>
			<polygon points="525.585,630.458 525.585,615.458 525.853,622.074 525.853,629.34 			"/>
			<polygon points="532.809,580.333 532.809,605.303 532.454,598.688 532.454,582.29 			"/>
		</g>
		<g>
			<path class="st1" d="M534.038,699.825v-61.188c0,0,0.535-0.138,0.572-1.117c0.039-1.009-0.675-1.37-0.675-1.37h-8.959
				c0,0-0.675,0.313-0.675,1.293c0,0.979,0.6,1.214,0.6,1.214v61.169c0,0-0.75-0.078-0.75,1.137c0,1.175,0.703,1.145,0.703,1.145
				h9.23c0,0,0.564-0.137,0.6-1.145C534.722,699.904,534.038,699.825,534.038,699.825z"/>
			<path class="st4" d="M534.038,699.825v-61.188c0,0,0.535-0.138,0.572-1.117c0.039-1.009-0.675-1.37-0.675-1.37h-8.959
				c0,0-0.675,0.313-0.675,1.293c0,0.979,0.6,1.214,0.6,1.214v61.169c0,0-0.75-0.078-0.75,1.137c0,1.175,0.703,1.145,0.703,1.145
				h9.23c0,0,0.564-0.137,0.6-1.145C534.722,699.904,534.038,699.825,534.038,699.825z"/>
			<path d="M534.62,700.141c0,0-0.08-0.147-0.66-0.271c-0.578-0.126-3.275-0.25-3.275-0.25s1.379-0.084,2.237-0.084
				s1.318-0.083,1.318-0.083S534.579,699.89,534.62,700.141z"/>
			<path d="M524.213,700.329c0,0,0.379-0.354,0.959-0.501c0.578-0.146,2.976-0.25,2.976-0.25s-1.978-0.125-2.616-0.104
				c-0.64,0.021-0.859-0.041-0.898,0.021C524.592,699.557,524.053,700.015,524.213,700.329z"/>
			<path d="M534.772,638.038c0,0-0.268,0.187-1.16,0.372c-0.891,0.187-2.675,0.28-2.675,0.28l3.478,0.465L534.772,638.038z"/>
			<path d="M524.249,638.317c0,0,0.535,0.186,1.516,0.279s2.229,0,2.229,0s-1.872,0.094-2.497,0.466s-0.893,0.652-0.893,0.652
				L524.249,638.317z"/>
			<polygon points="533.523,696.083 533.523,641.392 533.167,642.135 533.256,691.331 			"/>
			<polygon points="525.585,640.646 525.585,681.641 525.853,673.349 525.853,641.857 			"/>
			<polygon points="525.585,698.505 525.585,683.505 525.853,690.12 525.853,697.387 			"/>
			<polygon points="532.809,648.378 532.809,673.349 532.454,666.734 532.454,650.335 			"/>
		</g>
		<g>
			<path class="st1" d="M463.65,714.038h56.254c0,0,0.127,0.535,1.027,0.572c0.927,0.039,1.259-0.675,1.259-0.675v-8.959
				c0,0-0.287-0.675-1.188-0.675c-0.899,0-1.115,0.6-1.115,0.6H463.65c0,0,0.072-0.75-1.044-0.75c-1.08,0-1.053,0.703-1.053,0.703
				v9.23c0,0,0.126,0.564,1.053,0.6C463.579,714.722,463.65,714.038,463.65,714.038z"/>
			<path class="st4" d="M463.65,714.038h56.254c0,0,0.127,0.535,1.027,0.572c0.927,0.039,1.259-0.675,1.259-0.675v-8.959
				c0,0-0.287-0.675-1.188-0.675c-0.899,0-1.115,0.6-1.115,0.6H463.65c0,0,0.072-0.75-1.044-0.75c-1.08,0-1.053,0.703-1.053,0.703
				v9.23c0,0,0.126,0.564,1.053,0.6C463.579,714.722,463.65,714.038,463.65,714.038z"/>
			<path d="M463.36,714.62c0,0,0.136-0.08,0.25-0.66c0.115-0.578,0.229-3.275,0.229-3.275s0.077,1.379,0.077,2.237
				s0.076,1.318,0.076,1.318S463.59,714.579,463.36,714.62z"/>
			<path d="M463.188,704.213c0,0,0.324,0.379,0.46,0.959c0.134,0.578,0.229,2.976,0.229,2.976s0.115-1.978,0.096-2.616
				c-0.019-0.64,0.039-0.859-0.019-0.898C463.897,704.592,463.476,704.053,463.188,704.213z"/>
			<path d="M520.454,714.772c0,0-0.17-0.268-0.342-1.16c-0.171-0.891-0.257-2.675-0.257-2.675l-0.428,3.478L520.454,714.772z"/>
			<path d="M520.198,704.249c0,0-0.171,0.535-0.257,1.516s0,2.229,0,2.229s-0.086-1.872-0.429-2.497
				c-0.342-0.625-0.6-0.893-0.6-0.893L520.198,704.249z"/>
			<polygon points="467.09,713.523 517.371,713.523 516.687,713.167 471.459,713.256 			"/>
			<polygon points="518.056,705.585 480.368,705.585 487.991,705.853 516.943,705.853 			"/>
			<polygon points="464.864,705.585 478.654,705.585 472.573,705.853 465.891,705.853 			"/>
			<polygon points="510.948,712.809 487.991,712.809 494.073,712.454 509.148,712.454 			"/>
		</g>
		<g>
			<path class="st1" d="M401.092,714.038h56.254c0,0,0.127,0.535,1.026,0.572c0.928,0.039,1.26-0.675,1.26-0.675v-8.959
				c0,0-0.288-0.675-1.188-0.675c-0.899,0-1.116,0.6-1.116,0.6h-56.235c0,0,0.072-0.75-1.044-0.75c-1.08,0-1.054,0.703-1.054,0.703
				v9.23c0,0,0.126,0.564,1.054,0.6C401.02,714.722,401.092,714.038,401.092,714.038z"/>
			<path class="st4" d="M401.092,714.038h56.254c0,0,0.127,0.535,1.026,0.572c0.928,0.039,1.26-0.675,1.26-0.675v-8.959
				c0,0-0.288-0.675-1.188-0.675c-0.899,0-1.116,0.6-1.116,0.6h-56.235c0,0,0.072-0.75-1.044-0.75c-1.08,0-1.054,0.703-1.054,0.703
				v9.23c0,0,0.126,0.564,1.054,0.6C401.02,714.722,401.092,714.038,401.092,714.038z"/>
			<path d="M400.801,714.62c0,0,0.136-0.08,0.25-0.66c0.116-0.578,0.23-3.275,0.23-3.275s0.076,1.379,0.076,2.237
				s0.077,1.318,0.077,1.318S401.032,714.579,400.801,714.62z"/>
			<path d="M400.629,704.213c0,0,0.325,0.379,0.461,0.959c0.134,0.578,0.229,2.976,0.229,2.976s0.115-1.978,0.096-2.616
				c-0.02-0.64,0.038-0.859-0.02-0.898C401.339,704.592,400.917,704.053,400.629,704.213z"/>
			<path d="M457.896,714.772c0,0-0.171-0.268-0.342-1.16c-0.172-0.891-0.258-2.675-0.258-2.675l-0.428,3.478L457.896,714.772z"/>
			<path d="M457.639,704.249c0,0-0.171,0.535-0.257,1.516s0,2.229,0,2.229s-0.086-1.872-0.428-2.497
				c-0.343-0.625-0.6-0.893-0.6-0.893L457.639,704.249z"/>
			<polygon points="404.533,713.523 454.812,713.523 454.128,713.167 408.901,713.256 			"/>
			<polygon points="455.499,705.585 417.809,705.585 425.433,705.853 454.384,705.853 			"/>
			<polygon points="402.305,705.585 416.096,705.585 410.014,705.853 403.333,705.853 			"/>
			<polygon points="448.389,712.809 425.432,712.809 431.514,712.454 446.589,712.454 			"/>
		</g>
		<g>
			<path class="st1" d="M338.534,714.038h56.254c0,0,0.127,0.535,1.027,0.572c0.927,0.039,1.26-0.675,1.26-0.675v-8.959
				c0,0-0.288-0.675-1.189-0.675c-0.899,0-1.115,0.6-1.115,0.6h-56.236c0,0,0.072-0.75-1.044-0.75c-1.08,0-1.053,0.703-1.053,0.703
				v9.23c0,0,0.126,0.564,1.053,0.6C338.461,714.722,338.534,714.038,338.534,714.038z"/>
			<path class="st4" d="M338.534,714.038h56.254c0,0,0.127,0.535,1.027,0.572c0.927,0.039,1.26-0.675,1.26-0.675v-8.959
				c0,0-0.288-0.675-1.189-0.675c-0.899,0-1.115,0.6-1.115,0.6h-56.236c0,0,0.072-0.75-1.044-0.75c-1.08,0-1.053,0.703-1.053,0.703
				v9.23c0,0,0.126,0.564,1.053,0.6C338.461,714.722,338.534,714.038,338.534,714.038z"/>
			<path d="M338.244,714.62c0,0,0.136-0.08,0.25-0.66c0.115-0.578,0.229-3.275,0.229-3.275s0.077,1.379,0.077,2.237
				s0.076,1.318,0.076,1.318S338.474,714.579,338.244,714.62z"/>
			<path d="M338.071,704.213c0,0,0.325,0.379,0.461,0.959c0.134,0.578,0.229,2.976,0.229,2.976s0.115-1.978,0.096-2.616
				c-0.019-0.64,0.039-0.859-0.019-0.898C338.781,704.592,338.36,704.053,338.071,704.213z"/>
			<path d="M395.337,714.772c0,0-0.17-0.268-0.342-1.16c-0.171-0.891-0.257-2.675-0.257-2.675l-0.428,3.478L395.337,714.772z"/>
			<path d="M395.082,704.249c0,0-0.171,0.535-0.257,1.516s0,2.229,0,2.229s-0.086-1.872-0.429-2.497
				c-0.342-0.625-0.6-0.893-0.6-0.893L395.082,704.249z"/>
			<polygon points="341.974,713.523 392.254,713.523 391.571,713.167 346.343,713.256 			"/>
			<polygon points="392.94,705.585 355.251,705.585 362.875,705.853 391.827,705.853 			"/>
			<polygon points="339.748,705.585 353.538,705.585 347.457,705.853 340.775,705.853 			"/>
			<polygon points="385.831,712.809 362.875,712.809 368.957,712.454 384.032,712.454 			"/>
		</g>
		<g>
			<path class="st1" d="M275.976,714.038h56.254c0,0,0.127,0.535,1.026,0.572c0.928,0.039,1.26-0.675,1.26-0.675v-8.959
				c0,0-0.288-0.675-1.188-0.675c-0.899,0-1.116,0.6-1.116,0.6h-56.235c0,0,0.072-0.75-1.044-0.75c-1.081,0-1.053,0.703-1.053,0.703
				v9.23c0,0,0.125,0.564,1.053,0.6C275.904,714.722,275.976,714.038,275.976,714.038z"/>
			<path class="st4" d="M275.976,714.038h56.254c0,0,0.127,0.535,1.026,0.572c0.928,0.039,1.26-0.675,1.26-0.675v-8.959
				c0,0-0.288-0.675-1.188-0.675c-0.899,0-1.116,0.6-1.116,0.6h-56.235c0,0,0.072-0.75-1.044-0.75c-1.081,0-1.053,0.703-1.053,0.703
				v9.23c0,0,0.125,0.564,1.053,0.6C275.904,714.722,275.976,714.038,275.976,714.038z"/>
			<path d="M275.685,714.62c0,0,0.136-0.08,0.25-0.66c0.116-0.578,0.229-3.275,0.229-3.275s0.077,1.379,0.077,2.237
				s0.077,1.318,0.077,1.318S275.917,714.579,275.685,714.62z"/>
			<path d="M275.513,704.213c0,0,0.325,0.379,0.461,0.959c0.134,0.578,0.229,2.976,0.229,2.976s0.115-1.978,0.096-2.616
				c-0.02-0.64,0.038-0.859-0.02-0.898C276.223,704.592,275.801,704.053,275.513,704.213z"/>
			<path d="M332.78,714.772c0,0-0.171-0.268-0.342-1.16c-0.172-0.891-0.258-2.675-0.258-2.675l-0.428,3.478L332.78,714.772z"/>
			<path d="M332.523,704.249c0,0-0.171,0.535-0.257,1.516s0,2.229,0,2.229s-0.086-1.872-0.428-2.497
				c-0.343-0.625-0.6-0.893-0.6-0.893L332.523,704.249z"/>
			<polygon points="279.417,713.523 329.696,713.523 329.012,713.167 283.785,713.256 			"/>
			<polygon points="330.381,705.585 292.694,705.585 300.317,705.853 329.268,705.853 			"/>
			<polygon points="277.189,705.585 290.98,705.585 284.898,705.853 278.217,705.853 			"/>
			<polygon points="323.273,712.809 300.316,712.809 306.398,712.454 321.473,712.454 			"/>
		</g>
		<g>
			<path class="st1" d="M213.418,714.038h56.253c0,0,0.127,0.535,1.027,0.572c0.927,0.039,1.26-0.675,1.26-0.675v-8.959
				c0,0-0.288-0.675-1.189-0.675c-0.899,0-1.115,0.6-1.115,0.6h-56.236c0,0,0.072-0.75-1.044-0.75c-1.08,0-1.053,0.703-1.053,0.703
				v9.23c0,0,0.125,0.564,1.053,0.6C213.346,714.722,213.418,714.038,213.418,714.038z"/>
			<path class="st4" d="M213.418,714.038h56.253c0,0,0.127,0.535,1.027,0.572c0.927,0.039,1.26-0.675,1.26-0.675v-8.959
				c0,0-0.288-0.675-1.189-0.675c-0.899,0-1.115,0.6-1.115,0.6h-56.236c0,0,0.072-0.75-1.044-0.75c-1.08,0-1.053,0.703-1.053,0.703
				v9.23c0,0,0.125,0.564,1.053,0.6C213.346,714.722,213.418,714.038,213.418,714.038z"/>
			<path d="M213.127,714.62c0,0,0.136-0.08,0.25-0.66c0.116-0.578,0.23-3.275,0.23-3.275s0.077,1.379,0.077,2.237
				s0.076,1.318,0.076,1.318S213.358,714.579,213.127,714.62z"/>
			<path d="M212.955,704.213c0,0,0.325,0.379,0.46,0.959c0.134,0.578,0.23,2.976,0.23,2.976s0.115-1.978,0.096-2.616
				c-0.02-0.64,0.038-0.859-0.02-0.898C213.665,704.592,213.244,704.053,212.955,704.213z"/>
			<path d="M270.222,714.772c0,0-0.171-0.268-0.342-1.16c-0.171-0.891-0.257-2.675-0.257-2.675l-0.428,3.478L270.222,714.772z"/>
			<path d="M269.965,704.249c0,0-0.17,0.535-0.256,1.516c-0.086,0.98,0,2.229,0,2.229s-0.086-1.872-0.429-2.497
				c-0.342-0.625-0.599-0.893-0.599-0.893L269.965,704.249z"/>
			<polygon points="216.858,713.523 267.138,713.523 266.455,713.167 221.227,713.256 			"/>
			<polygon points="267.824,705.585 230.135,705.585 237.759,705.853 266.71,705.853 			"/>
			<polygon points="214.631,705.585 228.422,705.585 222.34,705.853 215.659,705.853 			"/>
			<polygon points="260.715,712.809 237.758,712.809 243.84,712.454 258.916,712.454 			"/>
		</g>
		<g>
			<path class="st1" d="M150.86,714.038h56.253c0,0,0.127,0.535,1.027,0.572c0.927,0.039,1.26-0.675,1.26-0.675v-8.959
				c0,0-0.288-0.675-1.189-0.675c-0.899,0-1.115,0.6-1.115,0.6H150.86c0,0,0.072-0.75-1.044-0.75c-1.08,0-1.053,0.703-1.053,0.703
				v9.23c0,0,0.125,0.564,1.053,0.6C150.788,714.722,150.86,714.038,150.86,714.038z"/>
			<path class="st4" d="M150.86,714.038h56.253c0,0,0.127,0.535,1.027,0.572c0.927,0.039,1.26-0.675,1.26-0.675v-8.959
				c0,0-0.288-0.675-1.189-0.675c-0.899,0-1.115,0.6-1.115,0.6H150.86c0,0,0.072-0.75-1.044-0.75c-1.08,0-1.053,0.703-1.053,0.703
				v9.23c0,0,0.125,0.564,1.053,0.6C150.788,714.722,150.86,714.038,150.86,714.038z"/>
			<path d="M150.569,714.62c0,0,0.136-0.08,0.25-0.66c0.116-0.578,0.23-3.275,0.23-3.275s0.077,1.379,0.077,2.237
				s0.077,1.318,0.077,1.318S150.8,714.579,150.569,714.62z"/>
			<path d="M150.397,704.213c0,0,0.325,0.379,0.46,0.959c0.134,0.578,0.23,2.976,0.23,2.976s0.115-1.978,0.096-2.616
				c-0.02-0.64,0.038-0.859-0.02-0.898C151.106,704.592,150.686,704.053,150.397,704.213z"/>
			<path d="M207.664,714.772c0,0-0.171-0.268-0.342-1.16c-0.171-0.891-0.257-2.675-0.257-2.675l-0.428,3.478L207.664,714.772z"/>
			<path d="M207.407,704.249c0,0-0.17,0.535-0.256,1.516c-0.086,0.98,0,2.229,0,2.229s-0.086-1.872-0.429-2.497
				c-0.342-0.625-0.599-0.893-0.599-0.893L207.407,704.249z"/>
			<polygon points="154.3,713.523 204.58,713.523 203.896,713.167 158.669,713.256 			"/>
			<polygon points="205.266,705.585 167.577,705.585 175.201,705.853 204.152,705.853 			"/>
			<polygon points="152.073,705.585 165.864,705.585 159.782,705.853 153.101,705.853 			"/>
			<polygon points="198.157,712.809 175.2,712.809 181.282,712.454 196.357,712.454 			"/>
		</g>
		<g>
			<path class="st1" d="M88.302,714.038h56.253c0,0,0.127,0.535,1.027,0.572c0.927,0.039,1.26-0.675,1.26-0.675v-8.959
				c0,0-0.288-0.675-1.189-0.675c-0.899,0-1.115,0.6-1.115,0.6H88.302c0,0,0.072-0.75-1.044-0.75c-1.08,0-1.053,0.703-1.053,0.703
				v9.23c0,0,0.125,0.564,1.053,0.6C88.229,714.722,88.302,714.038,88.302,714.038z"/>
			<path class="st4" d="M88.302,714.038h56.253c0,0,0.127,0.535,1.027,0.572c0.927,0.039,1.26-0.675,1.26-0.675v-8.959
				c0,0-0.288-0.675-1.189-0.675c-0.899,0-1.115,0.6-1.115,0.6H88.302c0,0,0.072-0.75-1.044-0.75c-1.08,0-1.053,0.703-1.053,0.703
				v9.23c0,0,0.125,0.564,1.053,0.6C88.229,714.722,88.302,714.038,88.302,714.038z"/>
			<path d="M88.011,714.62c0,0,0.136-0.08,0.25-0.66c0.116-0.578,0.23-3.275,0.23-3.275s0.077,1.379,0.077,2.237
				s0.077,1.318,0.077,1.318S88.242,714.579,88.011,714.62z"/>
			<path d="M87.839,704.213c0,0,0.325,0.379,0.46,0.959c0.134,0.578,0.23,2.976,0.23,2.976s0.115-1.978,0.096-2.616
				c-0.02-0.64,0.038-0.859-0.02-0.898C88.548,704.592,88.127,704.053,87.839,704.213z"/>
			<path d="M145.105,714.772c0,0-0.171-0.268-0.342-1.16c-0.171-0.891-0.257-2.675-0.257-2.675l-0.428,3.478L145.105,714.772z"/>
			<path d="M144.849,704.249c0,0-0.17,0.535-0.256,1.516c-0.086,0.98,0,2.229,0,2.229s-0.086-1.872-0.429-2.497
				c-0.342-0.625-0.599-0.893-0.599-0.893L144.849,704.249z"/>
			<polygon points="91.742,713.523 142.022,713.523 141.338,713.167 96.111,713.256 			"/>
			<polygon points="142.708,705.585 105.019,705.585 112.643,705.853 141.594,705.853 			"/>
			<polygon points="89.515,705.585 103.306,705.585 97.224,705.853 90.543,705.853 			"/>
			<polygon points="135.599,712.809 112.642,712.809 118.724,712.454 133.799,712.454 			"/>
		</g>
		<g>
			<path class="st1" d="M25.744,714.038h56.253c0,0,0.127,0.535,1.027,0.572c0.927,0.039,1.26-0.675,1.26-0.675v-8.959
				c0,0-0.288-0.675-1.189-0.675c-0.899,0-1.115,0.6-1.115,0.6H25.744c0,0,0.072-0.75-1.044-0.75c-1.08,0-1.053,0.703-1.053,0.703
				v9.23c0,0,0.125,0.564,1.053,0.6C25.671,714.722,25.744,714.038,25.744,714.038z"/>
			<path class="st4" d="M25.744,714.038h56.253c0,0,0.127,0.535,1.027,0.572c0.927,0.039,1.26-0.675,1.26-0.675v-8.959
				c0,0-0.288-0.675-1.189-0.675c-0.899,0-1.115,0.6-1.115,0.6H25.744c0,0,0.072-0.75-1.044-0.75c-1.08,0-1.053,0.703-1.053,0.703
				v9.23c0,0,0.125,0.564,1.053,0.6C25.671,714.722,25.744,714.038,25.744,714.038z"/>
			<path d="M25.453,714.62c0,0,0.136-0.08,0.25-0.66c0.116-0.578,0.23-3.275,0.23-3.275s0.077,1.379,0.077,2.237
				s0.077,1.318,0.077,1.318S25.684,714.579,25.453,714.62z"/>
			<path d="M25.281,704.213c0,0,0.325,0.379,0.46,0.959c0.134,0.578,0.23,2.976,0.23,2.976s0.115-1.978,0.096-2.616
				c-0.02-0.64,0.038-0.859-0.02-0.898C25.99,704.592,25.569,704.053,25.281,704.213z"/>
			<path d="M82.547,714.772c0,0-0.171-0.268-0.342-1.16c-0.171-0.891-0.257-2.675-0.257-2.675l-0.428,3.478L82.547,714.772z"/>
			<path d="M82.291,704.249c0,0-0.17,0.535-0.256,1.516c-0.086,0.98,0,2.229,0,2.229s-0.086-1.872-0.429-2.497
				c-0.342-0.625-0.599-0.893-0.599-0.893L82.291,704.249z"/>
			<polygon points="29.184,713.523 79.464,713.523 78.78,713.167 33.553,713.256 			"/>
			<polygon points="80.149,705.585 42.461,705.585 50.084,705.853 79.036,705.853 			"/>
			<polygon points="26.957,705.585 40.748,705.585 34.666,705.853 27.985,705.853 			"/>
			<polygon points="73.041,712.809 50.084,712.809 56.166,712.454 71.241,712.454 			"/>
		</g>
		<g>
			<path class="st3" d="M63.28,9.568L5.098,11.629c-0.132-0.213-0.011-0.41-0.734-0.553c-0.655-0.012-0.89,0.715-0.89,0.715v9.004
				c0,0,0.203,0.687,0.839,0.711c0.667,0.018,0.757-0.566,0.798-0.578l58.169,2.016c0,0-2.782-1.977-1.108-1.909
				c1.646,0.067,0.11-1.968,0.11-1.968l0.037-6.606c0,0,1.005-1.414-0.408-1.41C60.452,11.054,63.28,9.568,63.28,9.568z"/>
			<path class="st4" d="M61.911,11.05c1.413-0.004,0.408,1.41,0.408,1.41l-0.037,6.606c0,0,1.536,2.035-0.11,1.968
				c-1.674-0.067,1.108,1.909,1.108,1.909L5.111,20.928c-0.157,0.233-0.06,0.462-0.798,0.578c-0.636-0.024-0.839-0.711-0.839-0.711
				v-9.004c0,0,0.234-0.727,0.89-0.715c0.667,0.021,0.695,0.54,0.734,0.553L63.28,9.568C63.28,9.568,60.452,11.054,61.911,11.05z"/>
			<path d="M5.442,11.232l-0.309,3.553c0,0-0.062-1.814-0.185-2.718c-0.129-0.937-0.236-1.111-0.246-1.169L5.442,11.232z"/>
			<path d="M4.888,21.583c0.042-0.237,0.017-0.064,0.068-0.394c0.038-0.259,0.084-0.643,0.115-1.141c0.062-0.997,0-2.269,0-2.269
				s0.062,1.907,0.308,2.551c0.26,0.671,0.417,0.882,0.436,0.926L4.888,21.583z"/>
			<polygon points="52.328,11.035 7.452,12.448 6.945,12.096 58.295,10.479 			"/>
			<polygon points="7.262,20.018 32.841,20.717 41.276,21.295 6.441,20.27 			"/>
			<polygon points="61.492,21.889 43.294,21.354 50.868,21.211 60.003,21.46 			"/>
			<polygon points="11.868,12.703 32.842,12.158 26.694,12.74 13.31,13.051 			"/>
			<path class="st0" d="M11.932,2.366L9.308,60.158c0,0,2.01-3.378,1.876-1.922c-0.141,1.527,1.666,2.112,1.666,2.112l8.206,0.243
				c0,0,0.604-0.587,0.528-2.071c-0.072-1.458,2.224,1.609,2.224,1.609L21.247,2.366c0,0,0.768,0.048,0.729-0.685
				C21.929,0.958,21.251,1.04,21.233,1h-9.287c-0.234,0.122-0.43,0.007-0.638,0.682C11.245,2.341,11.92,2.329,11.932,2.366z"/>
			<path class="st4" d="M11.932,2.366L9.308,60.158c0,0,2.01-3.378,1.876-1.922c-0.141,1.527,1.666,2.112,1.666,2.112l8.206,0.243
				c0,0,0.604-0.587,0.528-2.071c-0.072-1.458,2.224,1.609,2.224,1.609L21.247,2.366c0,0,0.768,0.048,0.729-0.685
				C21.929,0.958,21.251,1.04,21.233,1h-9.287c-0.234,0.122-0.43,0.007-0.638,0.682C11.245,2.341,11.92,2.329,11.932,2.366z"/>
			<path d="M11.349,2.175c0,0,0,0,0.112,0.054c0.203,0.054,0.192,0.059,0.552,0.111c0.587,0.075,3.335,0.15,3.335,0.15
				s-1.407,0.051-2.283,0.051c-0.916,0-1.288,0.05-1.35,0.052C11.58,2.465,11.465,2.403,11.349,2.175z"/>
			<path d="M21.932,2.062c-0.236,0.097-0.234,0.155-0.962,0.303c-0.587,0.089-3.032,0.151-3.032,0.151s2.021,0.077,2.674,0.064
				c0.663,0.002,0.86,0.001,0.918-0.013C21.569,2.529,22.105,2.25,21.932,2.062z"/>
			<polygon points="12.364,4.688 10.286,56.206 10.875,55.17 12.525,7.789 			"/>
			<polygon points="22.614,57.256 21.013,14.711 20.941,21.371 22.137,55.557 			"/>
			<polygon points="20.579,3.173 20.96,13.313 20.494,8.608 20.328,3.866 			"/>
			<polygon points="11.697,46.998 12.551,21.369 12.805,27.257 12.288,44.611 			"/>
			<path class="st2" d="M25.183,24.195c-0.525,0.524-1.584,0.318-2.363-0.461L9.864,10.777C9.084,10,8.879,8.941,9.404,8.416l0,0
				c0.524-0.525,1.583-0.32,2.362,0.46l12.956,12.956C25.502,22.611,25.708,23.67,25.183,24.195L25.183,24.195z"/>
			<path class="st2" d="M24.651,8.25c0.524,0.524,0.317,1.584-0.461,2.363L11.233,23.568c-0.778,0.779-1.836,0.985-2.362,0.461l0,0
				c-0.525-0.525-0.318-1.584,0.46-2.363L22.287,8.71C23.067,7.93,24.125,7.725,24.651,8.25L24.651,8.25z"/>
			<path d="M11.591,60.064c0,0,0.527-5.038,0.894-7.719c0.365-2.682,0.69-11.742,0.69-11.742s-0.813,8.533-1.382,12.107
				c-0.569,3.574-1.3,6.216-1.3,6.216L11.591,60.064z"/>
			<path d="M22.194,59.414c0,0-0.895-7.028-1.138-9.791s-0.69-15.601-0.69-15.601s-0.04,12.717,0.081,16.495
				c0.123,3.777,1.017,10.034,1.017,10.034L22.194,59.414z"/>
			<path d="M19.431,60.917c0,0-0.649-4.753-0.771-7.556c-0.122-2.804-0.082-6.501-0.082-6.501s-0.568,10.726-0.609,12.229
				c-0.046,1.562-0.355,1.853-0.365,1.95L19.431,60.917z"/>
			<polygon points="62.69,12.905 46.359,13.797 62.69,13.611 			"/>
			<path d="M62.764,19.586l-27.727-1.039l16.332,0.186l11.246-0.668l-0.111-1.596l-23.903-0.186L62.95,15.43
				C62.95,15.43,63.284,19.363,62.764,19.586z"/>
			<path d="M62.282,10.864c-0.223,0.074-6.421,0.408-9.316,0.631c-2.895,0.223-8.834,0.594-8.834,0.594l18.076-1.67
				c0,0,0,0,0.037,0.223C62.245,10.642,62.245,10.642,62.282,10.864z"/>
			<path class="st8" d="M53.697,6.998c0.74-0.038,1.379,0.689,1.429,1.621l0.775,15.516c0.047,0.932-0.518,1.719-1.259,1.756l0,0
				c-0.742,0.037-1.382-0.689-1.429-1.622L52.437,8.756C52.39,7.82,52.954,7.034,53.697,6.998L53.697,6.998z"/>
			<path class="st7" d="M58.15,7.322c0.74,0.061,1.279,0.845,1.207,1.749l-1.239,15.047c-0.073,0.905-0.734,1.59-1.475,1.529l0,0
				c-0.74-0.062-1.281-0.845-1.206-1.75l1.236-15.045C56.749,7.945,57.41,7.26,58.15,7.322L58.15,7.322z"/>
			<path class="st5" d="M47.858,7.381c0.741,0.018,1.327,0.737,1.308,1.604L48.817,23.4c-0.021,0.868-0.641,1.557-1.383,1.539l0,0
				c-0.743-0.02-1.328-0.735-1.307-1.604l0.347-14.414C46.496,8.053,47.115,7.363,47.858,7.381L47.858,7.381z"/>
			<path class="st6" d="M51.419,7.355c0.741,0.043,1.301,0.797,1.252,1.681L51.817,23.76c-0.05,0.885-0.694,1.568-1.435,1.525l0,0
				c-0.742-0.043-1.302-0.795-1.252-1.682l0.853-14.721C50.034,7.996,50.678,7.313,51.419,7.355L51.419,7.355z"/>
			<path class="st8" d="M25.589,47.746c0.038,0.741-0.689,1.381-1.622,1.43L8.452,49.95c-0.932,0.048-1.719-0.517-1.756-1.259l0,0
				c-0.038-0.742,0.688-1.381,1.622-1.429l15.513-0.776C24.766,46.439,25.552,47.004,25.589,47.746L25.589,47.746z"/>
			<path class="st7" d="M25.264,55.529c-0.061,0.74-0.845,1.279-1.749,1.207L8.468,55.498c-0.905-0.074-1.589-0.735-1.529-1.475l0,0
				c0.062-0.741,0.845-1.281,1.75-1.207l15.045,1.236C24.641,54.129,25.326,54.789,25.264,55.529L25.264,55.529z"/>
			<path class="st5" d="M25.206,45.238c-0.018,0.74-0.737,1.326-1.604,1.307l-14.416-0.35c-0.868-0.02-1.557-0.639-1.538-1.381l0,0
				c0.019-0.744,0.735-1.328,1.603-1.309l14.415,0.348C24.534,43.875,25.224,44.494,25.206,45.238L25.206,45.238z"/>
			<path class="st6" d="M25.232,52.022c-0.043,0.741-0.797,1.3-1.681,1.251L8.827,52.42c-0.886-0.051-1.568-0.694-1.525-1.436l0,0
				c0.043-0.742,0.795-1.302,1.682-1.252l14.721,0.854C24.591,50.637,25.275,51.28,25.232,52.022L25.232,52.022z"/>
		</g>
		<g>
			<path class="st3" d="M536.268,63.28l-2.061-58.182c0.214-0.132,0.41-0.011,0.553-0.734c0.012-0.655-0.715-0.89-0.715-0.89h-9.004
				c0,0-0.686,0.203-0.711,0.839c-0.018,0.667,0.566,0.757,0.578,0.798l-2.016,58.169c0,0,1.977-2.782,1.91-1.108
				c-0.068,1.646,1.967,0.11,1.967,0.11l6.607,0.037c0,0,1.414,1.005,1.41-0.408C534.784,60.452,536.268,63.28,536.268,63.28z"/>
			<path class="st4" d="M534.788,61.911c0.004,1.413-1.41,0.408-1.41,0.408l-6.607-0.037c0,0-2.035,1.536-1.967-0.11
				c0.066-1.674-1.91,1.108-1.91,1.108l2.016-58.169c-0.232-0.157-0.462-0.06-0.578-0.798c0.025-0.636,0.711-0.839,0.711-0.839
				h9.004c0,0,0.727,0.234,0.715,0.89c-0.021,0.667-0.539,0.695-0.553,0.734l2.061,58.182
				C536.268,63.28,534.784,60.452,534.788,61.911z"/>
			<path d="M534.604,5.442l-3.553-0.309c0,0,1.814-0.062,2.719-0.185c0.936-0.129,1.11-0.236,1.168-0.246L534.604,5.442z"/>
			<path d="M524.254,4.888c0.236,0.042,0.064,0.017,0.394,0.068c0.259,0.038,0.644,0.084,1.142,0.115c0.996,0.062,2.268,0,2.268,0
				s-1.906,0.062-2.551,0.308c-0.671,0.26-0.882,0.417-0.926,0.436L524.254,4.888z"/>
			<polygon points="534.801,52.328 533.389,7.452 533.741,6.945 535.358,58.295 			"/>
			<polygon points="525.819,7.262 525.12,32.841 524.542,41.276 525.567,6.441 			"/>
			<polygon points="523.948,61.492 524.483,43.294 524.625,50.868 524.377,60.003 			"/>
			<polygon points="533.133,11.868 533.678,32.842 533.096,26.694 532.786,13.31 			"/>
			<path class="st0" d="M543.471,11.932l-57.793-2.624c0,0,3.379,2.01,1.922,1.876c-1.527-0.141-2.111,1.666-2.111,1.666
				l-0.244,8.206c0,0,0.588,0.604,2.072,0.528c1.457-0.072-1.609,2.224-1.609,2.224l57.764-2.562c0,0-0.049,0.768,0.684,0.729
				c0.724-0.047,0.643-0.725,0.682-0.743v-9.287c-0.121-0.234-0.007-0.43-0.682-0.638C543.496,11.245,543.508,11.92,543.471,11.932z
				"/>
			<path class="st4" d="M543.471,11.932l-57.793-2.624c0,0,3.379,2.01,1.922,1.876c-1.527-0.141-2.111,1.666-2.111,1.666
				l-0.244,8.206c0,0,0.588,0.604,2.072,0.528c1.457-0.072-1.609,2.224-1.609,2.224l57.764-2.562c0,0-0.049,0.768,0.684,0.729
				c0.724-0.047,0.643-0.725,0.682-0.743v-9.287c-0.121-0.234-0.007-0.43-0.682-0.638C543.496,11.245,543.508,11.92,543.471,11.932z
				"/>
			<path d="M543.663,11.349c0,0,0,0-0.055,0.112c-0.054,0.203-0.06,0.192-0.111,0.552c-0.074,0.587-0.15,3.335-0.15,3.335
				s-0.051-1.407-0.051-2.283c0-0.916-0.05-1.288-0.051-1.35C543.372,11.58,543.434,11.465,543.663,11.349z"/>
			<path d="M543.776,21.932c-0.098-0.236-0.155-0.234-0.303-0.962c-0.09-0.587-0.152-3.032-0.152-3.032s-0.076,2.021-0.064,2.674
				c-0.002,0.663-0.001,0.86,0.014,0.918C543.307,21.569,543.586,22.105,543.776,21.932z"/>
			<polygon points="541.149,12.364 489.631,10.286 490.667,10.875 538.047,12.525 			"/>
			<polygon points="488.581,22.614 531.125,21.013 524.465,20.941 490.28,22.137 			"/>
			<polygon points="542.665,20.579 532.524,20.96 537.229,20.494 541.971,20.328 			"/>
			<polygon points="498.838,11.697 524.467,12.551 518.581,12.805 501.225,12.288 			"/>
			<path class="st2" d="M521.641,25.183c-0.523-0.525-0.318-1.584,0.461-2.363l12.957-12.956c0.777-0.779,1.836-0.984,2.361-0.46
				l0,0c0.525,0.524,0.32,1.583-0.459,2.362l-12.957,12.956C523.225,25.502,522.167,25.708,521.641,25.183L521.641,25.183z"/>
			<path class="st2" d="M537.586,24.651c-0.523,0.524-1.584,0.317-2.363-0.461l-12.955-12.957c-0.779-0.778-0.984-1.836-0.461-2.362
				l0,0c0.525-0.525,1.584-0.318,2.363,0.46l12.957,12.956C537.907,23.067,538.112,24.125,537.586,24.651L537.586,24.651z"/>
			<path d="M485.772,11.591c0,0,5.039,0.527,7.719,0.894c2.682,0.365,11.742,0.69,11.742,0.69s-8.533-0.813-12.107-1.382
				c-3.574-0.569-6.215-1.3-6.215-1.3L485.772,11.591z"/>
			<path d="M486.422,22.194c0,0,7.029-0.895,9.791-1.138c2.764-0.243,15.602-0.69,15.602-0.69s-12.717-0.04-16.496,0.081
				c-3.777,0.123-10.033,1.017-10.033,1.017L486.422,22.194z"/>
			<path d="M484.92,19.431c0,0,4.752-0.649,7.555-0.771c2.805-0.122,6.502-0.082,6.502-0.082s-10.727-0.568-12.229-0.609
				c-1.563-0.046-1.854-0.355-1.951-0.365L484.92,19.431z"/>
			<polygon points="532.932,62.69 532.04,46.359 532.225,62.69 			"/>
			<path d="M526.25,62.764l1.039-27.727l-0.186,16.332l0.668,11.246l1.596-0.111l0.186-23.903l0.854,24.349
				C530.407,62.95,526.473,63.284,526.25,62.764z"/>
			<path d="M534.973,62.282c-0.074-0.223-0.408-6.421-0.631-9.316c-0.223-2.895-0.594-8.834-0.594-8.834l1.67,18.076
				c0,0,0,0-0.223,0.037C535.196,62.245,535.196,62.245,534.973,62.282z"/>
			<path class="st8" d="M538.838,53.697c0.039,0.74-0.689,1.379-1.621,1.429l-15.516,0.775c-0.932,0.047-1.719-0.518-1.756-1.259
				l0,0c-0.037-0.742,0.689-1.382,1.623-1.429l15.512-0.776C538.016,52.39,538.803,52.954,538.838,53.697L538.838,53.697z"/>
			<path class="st7" d="M538.514,58.15c-0.061,0.74-0.844,1.279-1.748,1.207l-15.047-1.239c-0.906-0.073-1.59-0.734-1.529-1.475l0,0
				c0.061-0.74,0.844-1.281,1.75-1.206l15.045,1.236C537.891,56.749,538.577,57.41,538.514,58.15L538.514,58.15z"/>
			<path class="st5" d="M538.456,47.858c-0.018,0.741-0.736,1.327-1.604,1.308l-14.416-0.349c-0.867-0.021-1.557-0.641-1.539-1.383
				l0,0c0.02-0.743,0.736-1.328,1.604-1.307l14.414,0.347C537.784,46.496,538.473,47.115,538.456,47.858L538.456,47.858z"/>
			<path class="st6" d="M538.481,51.419c-0.043,0.741-0.797,1.301-1.68,1.252l-14.725-0.854c-0.885-0.05-1.568-0.694-1.525-1.435
				l0,0c0.043-0.742,0.795-1.302,1.682-1.252l14.721,0.853C537.84,50.034,538.524,50.678,538.481,51.419L538.481,51.419z"/>
			<path class="st8" d="M498.09,25.589c-0.74,0.038-1.381-0.689-1.43-1.622l-0.773-15.516c-0.049-0.932,0.516-1.719,1.258-1.756l0,0
				c0.742-0.038,1.381,0.688,1.43,1.622l0.775,15.513C499.397,24.766,498.833,25.552,498.09,25.589L498.09,25.589z"/>
			<path class="st7" d="M490.307,25.264c-0.74-0.061-1.279-0.845-1.207-1.749l1.238-15.047c0.074-0.905,0.736-1.589,1.475-1.529l0,0
				c0.742,0.062,1.281,0.845,1.207,1.75l-1.236,15.045C491.708,24.641,491.047,25.326,490.307,25.264L490.307,25.264z"/>
			<path class="st5" d="M500.598,25.206c-0.74-0.018-1.326-0.737-1.307-1.604l0.35-14.416c0.02-0.868,0.639-1.557,1.381-1.538l0,0
				c0.744,0.019,1.328,0.735,1.309,1.603l-0.348,14.415C501.961,24.534,501.342,25.224,500.598,25.206L500.598,25.206z"/>
			<path class="st6" d="M493.815,25.232c-0.742-0.043-1.301-0.797-1.252-1.681l0.854-14.725c0.051-0.886,0.695-1.568,1.436-1.525
				l0,0c0.742,0.043,1.303,0.795,1.252,1.682l-0.854,14.721C495.2,24.591,494.557,25.275,493.815,25.232L493.815,25.232z"/>
		</g>
		<g>
			<path class="st3" d="M482.557,716.269l58.182-2.061c0.133,0.213,0.011,0.409,0.734,0.553c0.655,0.012,0.89-0.715,0.89-0.715
				v-9.004c0,0-0.203-0.688-0.839-0.711c-0.667-0.019-0.758,0.565-0.798,0.578l-58.169-2.016c0,0,2.782,1.977,1.108,1.908
				c-1.646-0.066-0.11,1.969-0.11,1.969l-0.037,6.605c0,0-1.005,1.414,0.408,1.41C485.385,714.783,482.557,716.269,482.557,716.269z
				"/>
			<path class="st4" d="M483.926,714.787c-1.413,0.004-0.408-1.41-0.408-1.41l0.037-6.605c0,0-1.536-2.035,0.11-1.969
				c1.674,0.068-1.108-1.908-1.108-1.908l58.169,2.016c0.157-0.233,0.06-0.463,0.798-0.578c0.636,0.023,0.839,0.711,0.839,0.711
				v9.004c0,0-0.234,0.727-0.89,0.715c-0.667-0.022-0.695-0.54-0.734-0.553l-58.182,2.061
				C482.557,716.269,485.385,714.783,483.926,714.787z"/>
			<path d="M540.395,714.605l0.309-3.553c0,0,0.062,1.814,0.185,2.717c0.129,0.938,0.236,1.111,0.246,1.17L540.395,714.605z"/>
			<path d="M540.949,704.253c-0.042,0.237-0.017,0.065-0.068,0.395c-0.038,0.26-0.084,0.643-0.115,1.141c-0.062,0.998,0,2.27,0,2.27
				s-0.062-1.908-0.308-2.551c-0.26-0.672-0.417-0.883-0.436-0.926L540.949,704.253z"/>
			<polygon points="493.509,714.802 538.385,713.388 538.892,713.742 487.542,715.357 			"/>
			<polygon points="538.575,705.82 512.996,705.121 504.561,704.542 539.396,705.568 			"/>
			<polygon points="484.345,703.949 502.542,704.484 494.969,704.626 485.833,704.376 			"/>
			<polygon points="533.969,713.134 512.995,713.679 519.143,713.097 532.527,712.787 			"/>
			<path class="st0" d="M533.905,723.47l2.624-57.791c0,0-2.01,3.377-1.876,1.922c0.141-1.527-1.666-2.113-1.666-2.113l-8.206-0.242
				c0,0-0.604,0.586-0.528,2.07c0.072,1.459-2.224-1.609-2.224-1.609l2.562,57.764c0,0-0.768-0.047-0.729,0.686
				c0.048,0.723,0.725,0.642,0.743,0.682h9.287c0.234-0.122,0.43-0.008,0.638-0.682C534.592,723.496,533.917,723.508,533.905,723.47
				z"/>
			<path class="st4" d="M533.905,723.47l2.624-57.791c0,0-2.01,3.377-1.876,1.922c0.141-1.527-1.666-2.113-1.666-2.113l-8.206-0.242
				c0,0-0.604,0.586-0.528,2.07c0.072,1.459-2.224-1.609-2.224-1.609l2.562,57.764c0,0-0.768-0.047-0.729,0.686
				c0.048,0.723,0.725,0.642,0.743,0.682h9.287c0.234-0.122,0.43-0.008,0.638-0.682C534.592,723.496,533.917,723.508,533.905,723.47
				z"/>
			<path d="M534.488,723.662c0,0,0,0-0.111-0.054c-0.203-0.054-0.192-0.06-0.553-0.11c-0.587-0.076-3.335-0.15-3.335-0.15
				s1.407-0.051,2.283-0.051c0.915-0.001,1.288-0.051,1.35-0.053C534.257,723.372,534.372,723.434,534.488,723.662z"/>
			<path d="M523.905,723.775c0.235-0.097,0.234-0.154,0.962-0.303c0.587-0.088,3.032-0.15,3.032-0.15s-2.021-0.078-2.674-0.064
				c-0.663-0.003-0.86-0.002-0.918,0.012C524.268,723.308,523.732,723.587,523.905,723.775z"/>
			<polygon points="533.473,721.15 535.551,669.63 534.961,670.667 533.312,718.048 			"/>
			<polygon points="523.223,668.582 524.824,711.126 524.896,704.466 523.7,670.281 			"/>
			<polygon points="525.258,722.664 524.876,712.525 525.343,717.228 525.509,721.97 			"/>
			<polygon points="534.14,678.839 533.286,704.468 533.032,698.58 533.549,681.226 			"/>
			<path class="st2" d="M520.654,701.642c0.525-0.525,1.584-0.318,2.363,0.461l12.956,12.957c0.779,0.777,0.984,1.836,0.46,2.361
				l0,0c-0.524,0.525-1.583,0.32-2.362-0.461l-12.956-12.955C520.334,703.226,520.128,702.167,520.654,701.642L520.654,701.642z"/>
			<path class="st2" d="M521.186,717.587c-0.524-0.525-0.317-1.584,0.461-2.363l12.957-12.955c0.778-0.779,1.836-0.986,2.362-0.461
				l0,0c0.525,0.525,0.318,1.584-0.46,2.363l-12.956,12.955C522.77,717.908,521.711,718.113,521.186,717.587L521.186,717.587z"/>
			<path d="M534.246,665.773c0,0-0.527,5.037-0.894,7.719c-0.365,2.682-0.69,11.742-0.69,11.742s0.813-8.533,1.382-12.107
				c0.569-3.574,1.3-6.217,1.3-6.217L534.246,665.773z"/>
			<path d="M523.643,666.423c0,0,0.895,7.027,1.138,9.791c0.243,2.762,0.69,15.6,0.69,15.6s0.04-12.717-0.081-16.494
				c-0.123-3.777-1.017-10.035-1.017-10.035L523.643,666.423z"/>
			<path d="M526.406,664.919c0,0,0.649,4.754,0.771,7.557s0.082,6.5,0.082,6.5s0.568-10.725,0.609-12.229
				c0.046-1.562,0.355-1.853,0.365-1.949L526.406,664.919z"/>
			<polygon points="483.147,712.931 499.478,712.041 483.147,712.226 			"/>
			<path d="M483.073,706.251l27.727,1.039l-16.332-0.186l-11.246,0.668l0.111,1.596l23.903,0.186l-24.349,0.854
				C482.887,710.408,482.553,706.474,483.073,706.251z"/>
			<path d="M483.555,714.972c0.223-0.074,6.421-0.408,9.316-0.631c2.895-0.223,8.834-0.594,8.834-0.594l-18.076,1.67
				c0,0,0,0-0.037-0.223C483.592,715.195,483.592,715.195,483.555,714.972z"/>
			<path class="st8" d="M492.14,718.839c-0.74,0.037-1.379-0.689-1.429-1.621l-0.775-15.516c-0.047-0.932,0.518-1.719,1.259-1.756
				l0,0c0.742-0.037,1.382,0.689,1.429,1.621l0.776,15.514C493.447,718.017,492.883,718.802,492.14,718.839L492.14,718.839z"/>
			<path class="st7" d="M487.687,718.515c-0.74-0.061-1.279-0.846-1.207-1.75l1.239-15.047c0.073-0.904,0.734-1.59,1.475-1.529l0,0
				c0.74,0.063,1.281,0.846,1.206,1.75l-1.236,15.045C489.088,717.892,488.427,718.578,487.687,718.515L487.687,718.515z"/>
			<path class="st5" d="M497.979,718.457c-0.741-0.018-1.327-0.738-1.308-1.604l0.349-14.416c0.021-0.869,0.641-1.557,1.383-1.539
				l0,0c0.743,0.02,1.328,0.734,1.307,1.604l-0.347,14.414C499.341,717.785,498.722,718.474,497.979,718.457L497.979,718.457z"/>
			<path class="st6" d="M494.417,718.482c-0.741-0.043-1.301-0.797-1.252-1.682l0.854-14.723c0.05-0.885,0.694-1.568,1.435-1.525
				l0,0c0.742,0.043,1.302,0.795,1.252,1.682l-0.853,14.721C495.803,717.841,495.159,718.525,494.417,718.482L494.417,718.482z"/>
			<path class="st8" d="M520.248,678.091c-0.038-0.742,0.689-1.381,1.622-1.43l15.516-0.775c0.932-0.047,1.719,0.518,1.756,1.26l0,0
				c0.038,0.742-0.688,1.381-1.622,1.428l-15.513,0.777C521.071,679.398,520.285,678.833,520.248,678.091L520.248,678.091z"/>
			<path class="st7" d="M520.573,670.308c0.061-0.74,0.845-1.279,1.749-1.207l15.047,1.238c0.905,0.074,1.589,0.734,1.529,1.475l0,0
				c-0.062,0.74-0.845,1.281-1.75,1.207l-15.045-1.236C521.196,671.708,520.511,671.048,520.573,670.308L520.573,670.308z"/>
			<path class="st5" d="M520.631,680.599c0.018-0.74,0.737-1.326,1.604-1.307l14.416,0.35c0.868,0.02,1.557,0.639,1.538,1.381l0,0
				c-0.019,0.744-0.735,1.328-1.603,1.309l-14.415-0.348C521.303,681.962,520.613,681.343,520.631,680.599L520.631,680.599z"/>
			<path class="st6" d="M520.605,673.814c0.043-0.74,0.797-1.299,1.681-1.25l14.725,0.854c0.886,0.051,1.568,0.693,1.525,1.436l0,0
				c-0.043,0.742-0.795,1.301-1.682,1.252l-14.721-0.854C521.246,675.201,520.562,674.556,520.605,673.814L520.605,673.814z"/>
		</g>
		<g>
			<path class="st3" d="M9.568,662.557l2.061,58.182c-0.213,0.133-0.41,0.011-0.553,0.734c-0.012,0.655,0.715,0.89,0.715,0.89h9.004
				c0,0,0.687-0.203,0.711-0.839c0.018-0.667-0.565-0.758-0.578-0.798l2.016-58.169c0,0-1.977,2.782-1.909,1.108
				c0.067-1.646-1.968-0.11-1.968-0.11l-6.606-0.037c0,0-1.414-1.005-1.41,0.408C11.054,665.385,9.568,662.557,9.568,662.557z"/>
			<path class="st4" d="M11.05,663.926c-0.004-1.413,1.41-0.408,1.41-0.408l6.606,0.037c0,0,2.035-1.536,1.968,0.11
				c-0.067,1.674,1.909-1.108,1.909-1.108l-2.016,58.169c0.233,0.157,0.462,0.06,0.578,0.798c-0.024,0.636-0.711,0.839-0.711,0.839
				h-9.004c0,0-0.727-0.234-0.715-0.89c0.021-0.667,0.54-0.695,0.553-0.734l-2.061-58.182
				C9.568,662.557,11.054,665.385,11.05,663.926z"/>
			<path d="M11.232,720.395l3.553,0.309c0,0-1.814,0.062-2.718,0.185c-0.937,0.129-1.111,0.236-1.169,0.246L11.232,720.395z"/>
			<path d="M21.583,720.949c-0.237-0.042-0.064-0.018-0.394-0.068c-0.259-0.038-0.643-0.084-1.141-0.115
				c-0.997-0.062-2.269,0-2.269,0s1.907-0.062,2.551-0.308c0.671-0.26,0.882-0.417,0.926-0.436L21.583,720.949z"/>
			<polygon points="11.035,673.509 12.448,718.385 12.096,718.892 10.479,667.542 			"/>
			<polygon points="20.018,718.575 20.717,692.996 21.295,684.561 20.27,719.396 			"/>
			<polygon points="21.889,664.345 21.354,682.542 21.211,674.969 21.46,665.833 			"/>
			<polygon points="12.703,713.969 12.158,692.995 12.74,699.143 13.051,712.527 			"/>
			<path class="st0" d="M2.366,713.905l57.792,2.624c0,0-3.378-2.01-1.922-1.876c1.527,0.141,2.112-1.666,2.112-1.666l0.243-8.206
				c0,0-0.587-0.604-2.071-0.528c-1.458,0.072,1.609-2.224,1.609-2.224L2.366,704.59c0,0,0.048-0.768-0.685-0.729
				c-0.723,0.048-0.642,0.725-0.682,0.743v9.287c0.122,0.234,0.007,0.43,0.682,0.638C2.341,714.592,2.328,713.917,2.366,713.905z"/>
			<path class="st4" d="M2.366,713.905l57.792,2.624c0,0-3.378-2.01-1.922-1.876c1.527,0.141,2.112-1.666,2.112-1.666l0.243-8.206
				c0,0-0.587-0.604-2.071-0.528c-1.458,0.072,1.609-2.224,1.609-2.224L2.366,704.59c0,0,0.048-0.768-0.685-0.729
				c-0.723,0.048-0.642,0.725-0.682,0.743v9.287c0.122,0.234,0.007,0.43,0.682,0.638C2.341,714.592,2.328,713.917,2.366,713.905z"/>
			<path d="M2.175,714.488c0,0,0,0,0.054-0.111c0.054-0.203,0.059-0.192,0.111-0.553c0.075-0.587,0.15-3.335,0.15-3.335
				s0.051,1.407,0.051,2.283c0,0.915,0.051,1.288,0.052,1.35C2.465,714.257,2.403,714.372,2.175,714.488z"/>
			<path d="M2.062,703.905c0.097,0.235,0.155,0.233,0.303,0.962c0.089,0.587,0.151,3.032,0.151,3.032s0.077-2.021,0.064-2.674
				c0.002-0.663,0.001-0.86-0.013-0.918C2.529,704.268,2.25,703.732,2.062,703.905z"/>
			<polygon points="4.688,713.473 56.206,715.551 55.17,714.961 7.789,713.312 			"/>
			<polygon points="57.256,703.223 14.711,704.824 21.371,704.896 55.557,703.7 			"/>
			<polygon points="3.173,705.258 13.313,704.876 8.608,705.343 3.866,705.509 			"/>
			<polygon points="46.998,714.14 21.369,713.286 27.257,713.032 44.611,713.549 			"/>
			<path class="st2" d="M24.195,700.654c0.524,0.525,0.318,1.584-0.461,2.363l-12.957,12.956c-0.777,0.779-1.836,0.984-2.361,0.46
				l0,0c-0.525-0.524-0.32-1.583,0.46-2.362l12.956-12.956C22.611,700.334,23.67,700.128,24.195,700.654L24.195,700.654z"/>
			<path class="st2" d="M8.25,701.186c0.524-0.524,1.584-0.317,2.363,0.461l12.955,12.957c0.779,0.778,0.985,1.836,0.461,2.362l0,0
				c-0.525,0.525-1.584,0.318-2.363-0.46L8.71,703.55C7.93,702.77,7.725,701.711,8.25,701.186L8.25,701.186z"/>
			<path d="M60.064,714.246c0,0-5.038-0.527-7.719-0.894c-2.682-0.365-11.742-0.69-11.742-0.69s8.533,0.813,12.107,1.382
				c3.574,0.569,6.216,1.3,6.216,1.3L60.064,714.246z"/>
			<path d="M59.414,703.643c0,0-7.028,0.895-9.791,1.138s-15.601,0.69-15.601,0.69s12.717,0.04,16.495-0.081
				c3.777-0.123,10.034-1.017,10.034-1.017L59.414,703.643z"/>
			<path d="M60.917,706.406c0,0-4.753,0.649-7.556,0.771c-2.804,0.122-6.501,0.082-6.501,0.082s10.726,0.568,12.229,0.609
				c1.562,0.046,1.853,0.355,1.95,0.365L60.917,706.406z"/>
			<polygon points="12.905,663.147 13.797,679.478 13.611,663.147 			"/>
			<path d="M19.586,663.073l-1.039,27.727l0.186-16.332l-0.668-11.246l-1.596,0.111l-0.186,23.903l-0.854-24.349
				C15.43,662.887,19.363,662.553,19.586,663.073z"/>
			<path d="M10.864,663.555c0.074,0.223,0.408,6.421,0.631,9.316c0.223,2.895,0.594,8.834,0.594,8.834l-1.67-18.076
				c0,0,0,0,0.223-0.037C10.642,663.592,10.642,663.592,10.864,663.555z"/>
			<path class="st8" d="M6.998,672.14c-0.038-0.74,0.689-1.379,1.621-1.429l15.516-0.775c0.932-0.047,1.719,0.518,1.756,1.259l0,0
				c0.037,0.742-0.689,1.382-1.622,1.429L8.756,673.4C7.82,673.447,7.034,672.883,6.998,672.14L6.998,672.14z"/>
			<path class="st7" d="M7.322,667.687c0.061-0.74,0.845-1.279,1.749-1.207l15.047,1.239c0.905,0.073,1.59,0.734,1.529,1.475l0,0
				c-0.062,0.74-0.845,1.281-1.75,1.206l-15.045-1.236C7.945,669.088,7.26,668.427,7.322,667.687L7.322,667.687z"/>
			<path class="st5" d="M7.381,677.979c0.018-0.741,0.737-1.327,1.604-1.308L23.4,677.02c0.868,0.021,1.557,0.641,1.539,1.383l0,0
				c-0.02,0.743-0.735,1.328-1.604,1.307l-14.414-0.347C8.053,679.341,7.363,678.722,7.381,677.979L7.381,677.979z"/>
			<path class="st6" d="M7.355,674.417c0.043-0.741,0.797-1.301,1.681-1.252l14.724,0.854c0.885,0.05,1.568,0.694,1.525,1.435l0,0
				c-0.043,0.742-0.795,1.302-1.682,1.252l-14.721-0.853C7.996,675.803,7.313,675.159,7.355,674.417L7.355,674.417z"/>
			<path class="st8" d="M47.746,700.248c0.741-0.038,1.381,0.689,1.43,1.622l0.774,15.516c0.048,0.932-0.517,1.719-1.259,1.756l0,0
				c-0.742,0.038-1.381-0.688-1.429-1.622l-0.776-15.513C46.439,701.071,47.004,700.285,47.746,700.248L47.746,700.248z"/>
			<path class="st7" d="M55.529,700.573c0.74,0.061,1.279,0.845,1.207,1.749l-1.238,15.047c-0.074,0.905-0.735,1.589-1.475,1.529
				l0,0c-0.741-0.062-1.281-0.845-1.207-1.75l1.236-15.045C54.129,701.196,54.789,700.511,55.529,700.573L55.529,700.573z"/>
			<path class="st5" d="M45.238,700.631c0.74,0.018,1.326,0.737,1.307,1.604l-0.35,14.416c-0.02,0.868-0.639,1.557-1.381,1.538l0,0
				c-0.744-0.019-1.328-0.735-1.309-1.603l0.348-14.415C43.875,701.303,44.494,700.613,45.238,700.631L45.238,700.631z"/>
			<path class="st6" d="M52.022,700.605c0.741,0.043,1.3,0.797,1.251,1.681L52.42,717.01c-0.051,0.886-0.694,1.568-1.436,1.525l0,0
				c-0.742-0.043-1.302-0.795-1.252-1.682l0.854-14.721C50.637,701.246,51.28,700.562,52.022,700.605L52.022,700.605z"/>
		</g>
	</g>
</g>
</svg>
