<?xml version="1.0" encoding="utf-8"?>
<!-- Generator: Adobe Illustrator 14.0.0, SVG Export Plug-In . SVG Version: 6.00 Build 43363)  -->
<!DOCTYPE svg PUBLIC "-//W3C//DTD SVG 1.1//EN" "http://www.w3.org/Graphics/SVG/1.1/DTD/svg11.dtd">
<svg version="1.1" id="Layer_1" xmlns="http://www.w3.org/2000/svg" xmlns:xlink="http://www.w3.org/1999/xlink" x="0px" y="0px"
	 width="562px" height="742px" viewBox="0 0 562 742" style="enable-background:new 0 0 562 742;" xml:space="preserve">
<style type="text/css">
<![CDATA[
	.st0{fill:#B04425;}
]]>
</style>
<path class="st0" d="M546.772,0H99.915H15.86v2c-0.001,1.252-0.298,2.446-0.839,3.602l-0.058,0.122l-0.04,0.128
	c-0.849,2.7-2.538,5.035-4.761,6.693c-2.214,1.649-4.94,2.625-7.913,2.636L2.1,15.173L0,15.067v711.16h2h0.015
	c2.817,0,5.684,1.129,8.088,3.002l0.018,0.014l0.018,0.013c1.12,0.833,2.102,1.83,2.91,2.962l0.013,0.018l0.014,0.019
	c1.749,2.334,2.788,5.065,2.784,7.747v2h84.055h446.739l0.021-1.98c0.052-5.531,3.476-10.248,8.313-12.218l0.161-0.064l0.147-0.093
	c1.462-0.91,3.029-1.416,4.703-1.418h2V15.384h-2c-3.688-0.001-7.009-1.489-9.428-3.905c-2.404-2.408-3.891-5.709-3.906-9.377V2.101
	L546.772,0z M19.69,4h80.225h442.86c0.896,7.999,7.233,14.351,15.225,15.27v703.123c-1.686,0.281-3.263,0.906-4.678,1.771
	c-5.623,2.348-9.738,7.572-10.516,13.837H99.915H19.724c-0.4-2.964-1.658-5.75-3.434-8.128c-1.047-1.462-2.315-2.746-3.751-3.816
	c-2.473-1.918-5.407-3.276-8.54-3.693V19.089c3.184-0.329,6.121-1.522,8.554-3.338c2.851-2.126,5.025-5.107,6.145-8.571
	C19.155,6.182,19.499,5.117,19.69,4"/>
<path class="st0" d="M541.478,5.5H20.899l-0.106,0.358C20.61,6.477,20.381,7.091,20.108,7.7l-0.01,0.023l-0.009,0.025
	c-2.158,6.554-7.607,11.271-14.187,12.573L5.5,20.4v700.699l0.385,0.092c2.66,0.628,5.272,1.888,7.597,3.698l0.004,0.003
	l0.005,0.005c1.512,1.122,2.895,2.528,4.034,4.121l0.003,0.006l0.003,0.004c1.645,2.195,2.786,4.604,3.372,7.088l0.091,0.385h0.396
	h520.133l0.086-0.393c1.283-5.877,5.321-10.85,11-13.272l0.03-0.013l0.029-0.019c1.126-0.671,2.285-1.18,3.471-1.525l0.36-0.105
	V20.563l-0.397-0.084c-7.277-1.536-13.024-7.296-14.541-14.581L541.478,5.5z M21.642,6.5h519.028
	c1.693,7.356,7.482,13.157,14.83,14.869v699.059c-1.135,0.362-2.242,0.863-3.315,1.5c-5.833,2.502-10.021,7.565-11.462,13.572H21.78
	c-0.643-2.487-1.811-4.885-3.448-7.07c-1.197-1.673-2.645-3.146-4.238-4.332c-2.323-1.807-4.922-3.095-7.595-3.786V21.217
	c6.74-1.477,12.3-6.38,14.532-13.131C21.266,7.563,21.469,7.034,21.642,6.5 M21.39,736L21.39,736l0.487-0.115L21.39,736z"/>
</svg>
