<?xml version="1.0" encoding="utf-8"?>
<!-- Generator: Adobe Illustrator 14.0.0, SVG Export Plug-In . SVG Version: 6.00 Build 43363)  -->
<!DOCTYPE svg PUBLIC "-//W3C//DTD SVG 1.1//EN" "http://www.w3.org/Graphics/SVG/1.1/DTD/svg11.dtd">
<svg version="1.1" id="Nouveau_x5F_25_xA0_Image_1_"
	 xmlns="http://www.w3.org/2000/svg" xmlns:xlink="http://www.w3.org/1999/xlink" x="0px" y="0px" width="729px" height="969px"
	 viewBox="0 0 729 969" style="enable-background:new 0 0 729 969;" xml:space="preserve">
<style type="text/css">
<![CDATA[
	.st0{fill-rule:evenodd;clip-rule:evenodd;fill:none;stroke:#000000;stroke-width:2.572;stroke-linecap:round;}
	.st1{fill-rule:evenodd;clip-rule:evenodd;fill:none;stroke:#000000;stroke-width:2.3585;stroke-linecap:round;}
	.st2{fill-rule:evenodd;clip-rule:evenodd;fill:none;stroke:#000000;stroke-width:2.1794;stroke-linecap:round;}
	.st3{fill-rule:evenodd;clip-rule:evenodd;fill:none;stroke:#000000;stroke-width:2.1233;stroke-linecap:round;}
	.st4{fill-rule:evenodd;clip-rule:evenodd;fill:none;stroke:#000000;stroke-width:2.464;stroke-linecap:round;}
	.st5{fill-rule:evenodd;clip-rule:evenodd;fill:none;stroke:#000000;stroke-width:2.9496;stroke-linecap:round;}
	.st6{fill-rule:evenodd;clip-rule:evenodd;fill:none;stroke:#000000;stroke-width:2.6363;stroke-linecap:round;}
	.st7{fill-rule:evenodd;clip-rule:evenodd;fill:none;stroke:#000000;stroke-width:2.1304;stroke-linecap:round;}
	.st8{fill-rule:evenodd;clip-rule:evenodd;fill:none;stroke:#000000;stroke-width:3.6056;stroke-linecap:round;}
	.st9{fill-rule:evenodd;clip-rule:evenodd;fill:none;stroke:#000000;stroke-width:2.0156;stroke-linecap:round;}
	.st10{fill-rule:evenodd;clip-rule:evenodd;fill:none;stroke:#000000;stroke-width:2.8284;stroke-linecap:round;}
	.st11{fill-rule:evenodd;clip-rule:evenodd;fill:none;stroke:#000000;stroke-width:1.6216;stroke-linecap:round;}
	.st12{fill-rule:evenodd;clip-rule:evenodd;fill:none;stroke:#000000;stroke-width:3.0834;stroke-linecap:round;}
	.st13{fill-rule:evenodd;clip-rule:evenodd;fill:none;stroke:#000000;stroke-width:2.0671;stroke-linecap:round;}
	.st14{fill-rule:evenodd;clip-rule:evenodd;fill:none;stroke:#000000;stroke-width:2.1452;stroke-linecap:round;}
	.st15{fill-rule:evenodd;clip-rule:evenodd;fill:none;stroke:#000000;stroke-width:2.557;stroke-linecap:round;}
	.st16{fill-rule:evenodd;clip-rule:evenodd;fill:none;stroke:#000000;stroke-width:3.0332;stroke-linecap:round;}
	.st17{fill-rule:evenodd;clip-rule:evenodd;fill:none;stroke:#000000;stroke-width:3.3101;stroke-linecap:round;}
	.st18{fill-rule:evenodd;clip-rule:evenodd;fill:none;stroke:#000000;stroke-width:2.5249;stroke-linecap:round;}
	.st19{fill-rule:evenodd;clip-rule:evenodd;fill:none;stroke:#000000;stroke-width:2.3238;stroke-linecap:round;}
	.st20{fill-rule:evenodd;clip-rule:evenodd;fill:none;stroke:#000000;stroke-width:2.0178;stroke-linecap:round;}
	.st21{fill-rule:evenodd;clip-rule:evenodd;fill:none;stroke:#000000;stroke-width:1.4832;stroke-linecap:round;}
	.st22{fill-rule:evenodd;clip-rule:evenodd;fill:none;stroke:#000000;stroke-width:2.4495;stroke-linecap:round;}
	.st23{fill-rule:evenodd;clip-rule:evenodd;fill:none;stroke:#000000;stroke-width:1.5986;stroke-linecap:round;}
	.st24{fill-rule:evenodd;clip-rule:evenodd;fill:none;stroke:#000000;stroke-width:3.0659;stroke-linecap:round;}
	.st25{fill-rule:evenodd;clip-rule:evenodd;fill:none;stroke:#000000;stroke-width:2.8636;stroke-linecap:round;}
	.st26{fill-rule:evenodd;clip-rule:evenodd;fill:none;stroke:#000000;stroke-width:3.1252;stroke-linecap:round;}
	.st27{fill-rule:evenodd;clip-rule:evenodd;fill:none;stroke:#000000;stroke-width:2.0817;stroke-linecap:round;}
	.st28{fill-rule:evenodd;clip-rule:evenodd;fill:none;stroke:#000000;stroke-width:1.7795;stroke-linecap:round;}
	.st29{fill-rule:evenodd;clip-rule:evenodd;fill:none;stroke:#000000;stroke-width:2.1213;stroke-linecap:round;}
	.st30{fill-rule:evenodd;clip-rule:evenodd;fill:none;stroke:#000000;stroke-width:3.1623;stroke-linecap:round;}
	.st31{fill:#000000;fill-rule:evenodd;clip-rule:evenodd;}
	.st32{fill-rule:evenodd;clip-rule:evenodd;fill:none;stroke:#000000;stroke-width:2.2926;stroke-linecap:round;}
	.st33{fill-rule:evenodd;clip-rule:evenodd;fill:none;stroke:#000000;stroke-width:3.1091;stroke-linecap:round;}
	.st34{fill-rule:evenodd;clip-rule:evenodd;fill:none;stroke:#000000;stroke-width:2.1602;stroke-linecap:round;}
	.st35{fill-rule:evenodd;clip-rule:evenodd;fill:none;stroke:#000000;stroke-width:2.9077;stroke-linecap:round;}
	.st36{fill-rule:evenodd;clip-rule:evenodd;fill:none;stroke:#000000;stroke-width:3.1918;stroke-linecap:round;}
	.st37{fill-rule:evenodd;clip-rule:evenodd;fill:none;stroke:#000000;stroke-width:2.189;stroke-linecap:round;}
	.st38{fill-rule:evenodd;clip-rule:evenodd;fill:none;stroke:#000000;stroke-width:3.077;stroke-linecap:round;}
	.st39{fill-rule:evenodd;clip-rule:evenodd;fill:none;stroke:#000000;stroke-width:3.1189;stroke-linecap:round;}
	.st40{fill-rule:evenodd;clip-rule:evenodd;fill:none;stroke:#000000;stroke-width:2.4833;stroke-linecap:round;}
	.st41{fill-rule:evenodd;clip-rule:evenodd;fill:none;stroke:#000000;stroke-width:2.2783;stroke-linecap:round;}
	.st42{fill-rule:evenodd;clip-rule:evenodd;fill:none;stroke:#000000;stroke-width:2.2563;stroke-linecap:round;}
	.st43{fill-rule:evenodd;clip-rule:evenodd;fill:none;stroke:#000000;stroke-width:1.976;stroke-linecap:round;}
	.st44{fill-rule:evenodd;clip-rule:evenodd;fill:none;stroke:#000000;stroke-width:1.291;stroke-linecap:round;}
	.st45{fill-rule:evenodd;clip-rule:evenodd;fill:none;stroke:#000000;stroke-width:2.2478;stroke-linecap:round;}
	.st46{fill-rule:evenodd;clip-rule:evenodd;fill:none;stroke:#000000;stroke-width:2.0323;stroke-linecap:round;}
	.st47{fill-rule:evenodd;clip-rule:evenodd;fill:none;stroke:#000000;stroke-width:2.0396;stroke-linecap:round;}
	.st48{fill-rule:evenodd;clip-rule:evenodd;fill:none;stroke:#000000;stroke-width:2.4766;stroke-linecap:round;}
	.st49{fill-rule:evenodd;clip-rule:evenodd;fill:none;stroke:#000000;stroke-width:2.2361;stroke-linecap:round;}
	.st50{fill-rule:evenodd;clip-rule:evenodd;fill:none;stroke:#000000;stroke-width:1.3229;stroke-linecap:round;}
	.st51{fill-rule:evenodd;clip-rule:evenodd;fill:none;stroke:#000000;stroke-width:2.8011;stroke-linecap:round;}
	.st52{fill-rule:evenodd;clip-rule:evenodd;fill:none;stroke:#000000;stroke-width:3.0822;stroke-linecap:round;}
	.st53{fill-rule:evenodd;clip-rule:evenodd;fill:none;stroke:#000000;stroke-width:1.8856;stroke-linecap:round;}
	.st54{fill-rule:evenodd;clip-rule:evenodd;fill:none;stroke:#000000;stroke-width:2.818;stroke-linecap:round;}
	.st55{fill-rule:evenodd;clip-rule:evenodd;fill:none;stroke:#000000;stroke-width:1.9149;stroke-linecap:round;}
	.st56{fill-rule:evenodd;clip-rule:evenodd;fill:none;stroke:#000000;stroke-width:2.6458;stroke-linecap:round;}
	.st57{fill-rule:evenodd;clip-rule:evenodd;fill:none;stroke:#000000;stroke-width:2.3948;stroke-linecap:round;}
	.st58{fill-rule:evenodd;clip-rule:evenodd;fill:none;stroke:#000000;stroke-width:2.9465;stroke-linecap:round;}
	.st59{fill-rule:evenodd;clip-rule:evenodd;fill:none;stroke:#000000;stroke-width:2.8123;stroke-linecap:round;}
	.st60{fill-rule:evenodd;clip-rule:evenodd;fill:none;stroke:#000000;stroke-width:3.0984;stroke-linecap:round;}
]]>
</style>
<g>
	<g>
		<path class="st31" d="M711,75c-0.259-5.925,0.152-11.181,6-11c2.965,3.694-2.751,5.392-1,11l-1.5-0.5L714,76c-0.333,0-0.667,0-1,0
			l-0.5-1.5L711,75z"/>
		<path class="st31" d="M13,85c-1.239-5.944-1.695-17.388-2-21c8.949-1.214,7.33,16.046,6,22c-0.339,1.52-0.404,4.54-2,1v-2H13z"/>
		<path class="st31" d="M22.5,941.5L24,941c0,0.333,0,0.667,0,1c5.569,2.335,8.797-0.363,14-1c4.075,2.451-3.538,7.396,1,7
			c1.27,2.73,4.013,3.987,6,6l-1.5,1.167L44,957c-9.723-0.12-13.949-2.765-20-2c-4.698,1.053,1.643-3.372-2-4
			c-2.582-5.418-8.723-7.277-9-15l1.833,0.5L16,935c2.632,1.035,3.368,3.965,6,5L22.5,941.5z"/>
		<path class="st31" d="M692,15c5.492-0.508,6.244-5.756,11-7c4.736,3.118,11.004,1.892,15-1c1.251,3.031-0.144,7.3-3,9l-1.5,0.5
			L714,18c-0.667,0-1.333,0-2,0c-1.488,4.512-4.747,7.253-12,6l-1-0.5l-1,0.5c0.184-0.851-0.39-0.943-1-1l-1-0.5l-1,0.5
			c-2.767-1.567-5.561-3.106-9-4l-1.5,0.5L685,21c-0.851-0.184-0.943,0.39-1,1l-1.833-0.5L681,23c-1.974-2.36-3.464-5.203-5-8
			l1.357-1.214L677,12c4.241,0.126,8.946,5.008,13,2l1,0.5L692,15z"/>
		<path class="st31" d="M708,44.5l1-0.5c2.729,0.729,2.013-1.987,4-2l0.7,1.7L715,45c-0.656,3.677-3.687,4.98-6,7
			c2.369,1.978,3.972-5.318,8-5c-0.175,5.302-0.647,5.103,0,10l-1.833-0.5L714,58c-3.316,1.351-2.839,6.494-5,9
			c-3.101,0.101-4.777-1.223-7-2c0.164,4.232,6.392,11.299,0,13c1.563,2.438,2.067,5.933,4,8l-1.357,1.214L705,89
			c-5.325,0.753-6.239-5.927-9-9c-2.304-2.564-7.025-1.759-6-6c-0.795,1.487-8.173,4.504-7-1c-2.833,0.167-4.167,1.833-7,2l0.5-1.5
			L675,73c-1.23,1.117-2.054,0.871-2-1c6.399-3.268,5.505-13.828,14-15c-0.271,3.396,0.774,8.107-1,10c3.286-0.112,2.293-5.57,2-8
			c-0.66-5.489-0.471-3.521-3-7l0.5-1.5L684,51c0-1.333,0-2.667,0-4l-0.5-1l-0.5-1c3.156-7.176-1.091-15.561-2-22l1.833,0.5L684,22
			c4.712,3.288,5.288,10.712,10,14l-0.5,1.5L695,38c1.981,3.686,4.776,6.558,6,11c-1.854-5.521,6.352-0.982,6-5L708,44.5z M694,59
			c-0.066-7.522-2.993-12.928-1,0l-0.5,1.5L694,60c-0.708,4.665,1.708,4.665,1,0l0.5-1.5L694,59z M699,58
			c-0.003,0.016,0.978-0.038,1,0C703.198,63.33,699.557,54.656,699,58z"/>
		<path class="st31" d="M681.5,53.5L683,54c-3.293,4.04-6.566,8.101-9,13c-3.056,0.723-3.645-1.022-6-1l0.5-1.833L667,63
			c3.24-4.082,3.082-4.24-1-1l-1.167-1.5L663,61c0.104-3.104-3.146-2.854-2-7c4.073-2.927,9.661-4.339,17-4l1.167,1.5L681,51
			c-0.184,0.851,0.39,0.943,1,1L681.5,53.5z"/>
		<path class="st31" d="M682.5,85.167L681,84c3.707-2.662,11.108-0.476,13,2c-2.934,6.255-6.069,1.521-12,1L682.5,85.167z"/>
		<path class="st31" d="M679.833,49.5L678,50c0-0.333,0-0.667,0-1c-5.577-2.09-15.963,0.629-16-7c-1.357-4.358,2.382-3.618,3-6
			c-2.774-3.436-4.521-10.212,0-13l1.833,0.5L668,22c2.778,4.83,3.223,2.729,9,2c4.653,6.523-2.289,18.458,6,21l-1.5,0.5L682,47
			c0.529,0.804,1.043,1.624,1,3c-0.81,0.19-0.997,1.003-2,1L679.833,49.5z"/>
		<path class="st31" d="M52.643,12.786L54,14c-10.116,6.31-7.367,23.202-10,36c-0.468,2.274-0.762,3.899-3,5c0,0.333,0,0.667,0,1
			l-1.5-0.5L40,57c0.642,4.025-1.3,10.633,1,13c2.556-4.735-0.731-3.776,0-11l1.5-0.5L42,57c3.044-0.044,3.889,2.111,6,3
			c-1.045,6.52,6.339,8.421,8,15l-1.5-0.5L55,76c-3.061-0.606-5.21-2.123-8-3c-4.118-0.473,0.962,2.691-3,3
			c-3.131,0.464-4.464-0.869-4-4c-1.667,1.333-1.553,4.447-3,6c-5.884,1.782-6.79,8.544-12,11c-0.667,0-1.333,0-2,0l0.5-1.5L22,87
			c1.315-2.685,2.685-5.315,4-8c-4.095-3.207-2.051-7.425,0-12c-1.233-3.038-3.439,1.084-6,0c-2.457-2.543-3.135-6.865-5-10l0.5-1.5
			L14,56c-4.163-4.329,0.15-8.861-1-13l1.5,0.5L15,42c0.89,0.443,1.789,0.878,2,2c1.615,0.282,1.722-0.945,3-1l0.5,1.5L22,45
			c0.431,2.236,4.928,0.405,7,1c0.016-3.651,2.843-4.491,4-7l1.5-0.5L34,37c3.867-3.813,8.461-12.187,9-16l0.5-1.5L42,19
			c-2.568,1.432-6.334,1.666-8,4l-1-0.5L32,23c-0.667,0-1.333,0-2,0l-1.5-0.5L29,24c-3,0-6,0-9,0c-2.025-6.975-10.856-7.144-10-17
			c4.133,0.867,6.666,3.334,11,4c1.44-0.226,0.349-2.984,2-3c6.897-0.876,8.788,8.518,14,6l1,0.5l1,0.5
			c5.956-0.044,9.676-2.324,14-4L52.643,12.786z M28,62c-0.075-1.742,0.223-3.11,1-4c-2.279,1.373-3.759-2.578-4,0
			C27.762,57.572,25.938,61.728,28,62z M34,65c0.708-4.665-1.708-4.665-1,0l-1.5-0.5L32,66c-0.708,4.665,1.708,4.665,1,0l1.5,0.5
			L34,65z"/>
		<path class="st31" d="M54.5,79.5L56,80c-1.076,2.693-9.196,3.191-9-1c1.814-4.123,4.274-2.249,8-1L54.5,79.5z"/>
		<path class="st31" d="M15.5,38.5L14,38c2.284-3.383,5.526-5.807,10-7l0.5,1.5L26,33c-3.1,1.509-8.403,10.553-10,7L15.5,38.5z"/>
		<path class="st31" d="M50,41c-0.712-7.006-1.56-12.452,2-17c3.188-0.854,3.796,0.871,5,2c1.73-1.603,2.929-3.737,4-6
			c1.972,0.789,3.595,3.498,2,5c0.333,0,0.667,0,1,0l0.5,1.5L66,26c1.947,2.925-1.119,7.75-3,10c0.905,1.762,3.681,1.652,4,4
			c-0.84,6.493-5.615,9.052-14,8l0.5-1.833L52,45c1.715-2.557,6.249-6.708,1-3l-1.167-1.5L50,41z"/>
		<path class="st31" d="M48.654,45.885L50,48c0.184,0.851-0.39,0.943-1,1l-1.167-1.5L46,48c-2.144-2.051-0.521-4.76,2-5l1.167,1.5
			L51,44c0,0.333,0,0.667,0,1L48.654,45.885z"/>
		<path class="st31" d="M47.5,50.5L49,50c8.437-0.103,16.293,0.374,19,6c0.182,2.182-0.818,3.182-3,3c0.529,0.804,1.043,1.624,1,3
			l-1.786-0.357L63,63c-4.849-4.103-7.339-6.334-2,0l-1.5,1.167L60,66c-1.161,0.839-2.681,1.319-5,1c-2.578-5.57-10.739-10.393-9-17
			L47.5,50.5z"/>
		<path class="st31" d="M47.5,85.5L48,87c-6.632-0.699-9.715,5.399-13,0c-0.351-5.048,9.731-4.895,13-3L47.5,85.5z"/>
		<path class="st31" d="M710,946c-4.598,3.052-2.496,8.383-7,10c-5.919-3.812-13.395,3.972-22,0c-1.327-2.567,5.519-4.067,8-6
			c3.758-2.941-1.817-5.478,2-9c3.958,1.349,10.587,3.724,14,0l1.5,0.5l0.5-1.5c2.039-0.294,1.961-2.706,4-3l1.833,1.167L715,938
			c0.253,3.586-3.003,3.664-3,7l-1.5-0.5L710,946z"/>
		<g>
			<path class="st29" d="M13,36c0-5.5,0-11,0-16.5"/>
			<path class="st50" d="M715,80c0.521,0.821,0.373,1.61,0.5,2.5"/>
			<path class="st29" d="M713,81c0,1.833,0,3.667,0,5.5"/>
			<path class="st13" d="M713,81c-1.563-1.68-1.135-4.489-0.5-6.5"/>
			<path class="st44" d="M713,81c0.679-0.321,1.39-0.61,2-1"/>
			<path class="st29" d="M715,80c-0.099-1.834,0.326-3.774-0.5-5.5"/>
			<path class="st22" d="M14.1,926.9c3.63,2.264,8.301,3.278,10.201,7.594c0.197,2.552-1.268,4.609-1.801,7.006"/>
			<path class="st10" d="M43.5,955.167c0.667,0.122,1.333-0.016,2-0.167"/>
			<path class="st38" d="M14.1,926.9c-0.096-0.193-0.192-0.387-0.289-0.58c-1.325-279.216,1.093-558.928-1.209-837.958
				C13.03,87.071,14.231,85.9,15,85"/>
			<path class="st51" d="M14.1,926.9c-2.149,2.804-0.397,6.684,0.733,9.6"/>
			<path class="st24" d="M715.333,28c0.337,2.478,0.088,5.003,0.167,7.5"/>
			<path class="st39" d="M695.5,26.5c1.822,2.068,1.419,4.958,1.5,7.5"/>
			<path class="st46" d="M697,34c3.301,3.792,7.1,7.4,11,10.5"/>
			<path class="st17" d="M702.5,31.5c4.01,3.278,12.56,6.154,11.2,12.2"/>
			<path class="st60" d="M715.5,59.5c0.02-1-0.152-2-0.333-3"/>
			<path class="st56" d="M707,88c-0.658-0.162-1.553-0.521-2.357-0.786"/>
			<path class="st9" d="M674.5,79.5c-1.213-0.391-2.083-1.265-2.409-1.975c0.624-2.095,3.287-2.222,4.409-4.025"/>
			<path class="st6" d="M662.667,68.667c-7.184,12.912,8.196,23.298,19.833,16.5"/>
			<path class="st35" d="M662.667,68.667c-2.575-2.875,0.933-5.696,2.166-8.167"/>
			<path class="st25" d="M664.25,20.25c-0.813,0.763-1.206,1.502-1.75,2.25"/>
			<path class="st40" d="M664.25,20.25c0.831-1.753,1.625-2.429,1.75-3.25"/>
			<path class="st10" d="M664.25,20.25c1.323,0.658,2.029,2.02,2.583,3.25"/>
			<path class="st34" d="M681.5,45.5c0.667,0.273,1.333,0.391,2,0.5"/>
			<path class="st48" d="M61,7c-1.988,2.868-5.758,3.37-8.357,5.786"/>
			<path class="st23" d="M54.5,79.5c0.62-0.242,1.041-0.421,1.453-0.597C57.38,77.3,55.636,75.607,54.5,74.5"/>
			<path class="st55" d="M21.5,88.5c0.471-0.321,1.229-0.61,2-1"/>
			<path class="st53" d="M15.5,55.5c-1.07,0.667-1.727,0.993-2.296,1.519C13.063,57.657,13.045,58.622,13,59.5"/>
			<path class="st34" d="M14.5,43.5c-0.941-1.732-0.524-3.776,1-5"/>
			<path class="st7" d="M31.5,29.5c0.381-2.418,0.884-4.67,1.5-7"/>
			<path class="st11" d="M18.5,28c3.498-1.371,7.38-1.031,10.723-2.792c0.245-0.803-0.24-1.772-0.723-2.708"/>
			<path class="st45" d="M14,6c9.623,0.888,20.129-1.876,29.143,1.571"/>
			<path class="st36" d="M43.143,7.571C48.982,7.172,55.431,4.549,61,7"/>
			<path class="st14" d="M61,7c202.085-1.667,404.896-1.666,607,0"/>
			<path class="st26" d="M668,7c5.394-2.397,11.679,0.015,17.333,0.667"/>
			<path class="st42" d="M685.333,7.667C694.016,4.092,704.205,6.887,713.5,6"/>
			<path class="st0" d="M685.333,7.667c0.946,3.086,4.126,4.294,5.667,6.833"/>
			<path class="st49" d="M43.143,7.571C42.497,10.652,38.381,11.459,38,14.5"/>
			<path class="st1" d="M668,7c2.231,3.386,6.354,4.226,9.357,6.786"/>
			<path class="st55" d="M699,23.5c-0.003,0.286-0.007,0.571-0.01,0.857c4.304,2.933,10.849,3.75,16.343,3.643"/>
			<path class="st58" d="M715.333,28c-0.095-3.842,1.456-8.589-1.833-11.5"/>
			<path class="st2" d="M31.25,34.25c2.063,0.634,1.55,3.141,3.25,4.25"/>
			<path class="st20" d="M36.167,25.167c2.404-1.967,5.276-3.219,7.333-5.667"/>
			<path class="st43" d="M684.5,19.5c3.665,2.357,6.632,5.956,11,7"/>
			<path class="st29" d="M695.5,26.5c0.45-1.333,0.432-2.667,0.5-4"/>
			<path class="st30" d="M682.167,21.5c0.222,0.667,0.444,1.333,0.666,2"/>
			<path class="st37" d="M20.5,44.5c4.03-3.013,7.111-6.862,10.75-10.25"/>
			<path class="st52" d="M31.25,34.25c0.271-1.395,0.224-3.11,0.25-4.75"/>
			<path class="st15" d="M31.5,29.5c-0.686-0.3-1.261-0.383-1.832-0.455c-1.848,0.925-3.565,2.148-5.168,3.455"/>
			<path class="st34" d="M697,34c-0.865,1.469-1.662,3.064-3.5,3.5"/>
			<path class="st30" d="M679.833,49.5c-0.222,0.667-0.444,1.333-0.666,2"/>
			<path class="st28" d="M681.5,53.5c1.377-1,2.446-2.158,4-3"/>
			<path class="st21" d="M42.5,58.5c-0.758-1.318-1.789-1.911-3-3"/>
			<path class="st8" d="M662.667,68.667c2.315-0.975,3.469-3.575,5.833-4.5"/>
			<path class="st44" d="M695.5,58.5c-1,0.643-2,1.22-3,2"/>
			<path class="st44" d="M34.5,66.5c-1-0.643-2-1.22-3-2"/>
			<path class="st4" d="M64.5,26.5c0.478-0.773,0.833-1.174,1.182-1.558c1.052-3.063-1.686-5.976-3.516-8.109"/>
			<path class="st18" d="M47.5,85.5c10.875,5.89,24.111-3.838,19-16"/>
			<path class="st5" d="M66.5,69.5c-2.971-0.983-4.007-4.438-7-5.333"/>
			<path class="st33" d="M47.5,50.5c-0.089-0.792,0.098-1.838,0.333-3"/>
			<path class="st16" d="M49.167,44.5c0.838-1.333,1.978-2.667,2.667-4"/>
			<path class="st60" d="M48.654,45.885c1.186,0.455,3.182,0.625,4.846,0.282"/>
			<path class="st59" d="M66.5,69.5c1.603-3.052-0.743-5.464-2.286-7.857"/>
			<path class="st57" d="M706.5,941.5c-0.611-1.282-1.143-2.714-2.231-3.652c-0.279-0.944-0.277-2.86-0.217-4.142
				c2.47-3.266,6.447-5.109,10.198-6.456"/>
			<path class="st3" d="M714.25,927.25C716,648.488,714.5,369.391,715,90.5"/>
			<path class="st54" d="M714.25,927.25c1.685,3.436,0.375,7.736-1.417,10.917"/>
			<path class="st32" d="M18,962c-0.217,0.168-0.433,0.335-0.65,0.503C7.097,967.72,0.871,951.336,12.5,949.5"/>
			<path class="st49" d="M12.5,949.5c1.015-0.686,1.582-1.181,2.333-1.667"/>
			<path class="st12" d="M18,962c230.621,1,461.563,0.5,692.25,0.25"/>
			<path class="st47" d="M710.25,962.25c4.246-2.753,7.053-6.846,5.75-12.25"/>
			<path class="st19" d="M716,950c-1.833-1.833-3.667-3.667-5.5-5.5"/>
			<path class="st27" d="M18,962c-4.858-2.698-6.795-7.48-5.5-12.5"/>
			<path class="st41" d="M710.25,962.25c9.453,6.009,18.187-10.289,5.75-12.25"/>
		</g>
	</g>
</g>
</svg>
