<?xml version="1.0" encoding="utf-8"?>
<!-- Generator: Adobe Illustrator 14.0.0, SVG Export Plug-In . SVG Version: 6.00 Build 43363)  -->
<!DOCTYPE svg PUBLIC "-//W3C//DTD SVG 1.1//EN" "http://www.w3.org/Graphics/SVG/1.1/DTD/svg11.dtd">
<svg version="1.1" id="Layer_1" xmlns="http://www.w3.org/2000/svg" xmlns:xlink="http://www.w3.org/1999/xlink" x="0px" y="0px"
	 width="528.453px" height="708.453px" viewBox="0 0 528.453 708.453" style="enable-background:new 0 0 528.453 708.453;"
	 xml:space="preserve">
<style type="text/css">
<![CDATA[
	.st0{fill:#090D0A;}
]]>
</style>
<g>
	<g>
		<g>
			<g>
				<path class="st0" d="M7.506,664.353c0.604,3.728,5.008,8.12,5.869,9.864c2.772,5.749-5.037,8.896-5.423,11.497
					c-0.501-2.545-8.482-5.196-5.991-11.058C2.682,672.861,6.758,668.577,7.506,664.353z"/>
			</g>
		</g>
		<g>
			<g>
				<path class="st0" d="M7.506,638.688c0.604,3.729,5.008,8.12,5.869,9.865c2.772,5.748-5.037,8.896-5.423,11.496
					c-0.501-2.544-8.482-5.196-5.991-11.057C2.682,647.197,6.758,642.912,7.506,638.688z"/>
			</g>
		</g>
		<g>
			<g>
				<path class="st0" d="M7.506,613.024c0.604,3.728,5.008,8.12,5.869,9.864c2.772,5.748-5.037,8.896-5.423,11.497
					c-0.501-2.545-8.482-5.196-5.991-11.058C2.682,621.532,6.758,617.248,7.506,613.024z"/>
			</g>
		</g>
		<g>
			<g>
				<path class="st0" d="M7.506,587.359c0.604,3.729,5.008,8.12,5.869,9.864c2.772,5.749-5.037,8.896-5.423,11.497
					c-0.501-2.544-8.482-5.196-5.991-11.057C2.682,595.867,6.758,591.583,7.506,587.359z"/>
			</g>
		</g>
		<g>
			<g>
				<path class="st0" d="M7.506,561.695c0.604,3.728,5.008,8.119,5.869,9.864c2.772,5.748-5.037,8.896-5.423,11.497
					c-0.501-2.545-8.482-5.196-5.991-11.058C2.682,570.203,6.758,565.918,7.506,561.695z"/>
			</g>
		</g>
		<g>
			<g>
				<path class="st0" d="M7.506,536.03c0.604,3.728,5.008,8.12,5.869,9.864c2.772,5.749-5.037,8.896-5.423,11.497
					c-0.501-2.544-8.482-5.196-5.991-11.057C2.682,544.538,6.758,540.253,7.506,536.03z"/>
			</g>
		</g>
		<g>
			<g>
				<path class="st0" d="M7.506,510.366c0.604,3.728,5.008,8.119,5.869,9.864c2.772,5.748-5.037,8.896-5.423,11.497
					c-0.501-2.545-8.482-5.197-5.991-11.058C2.682,518.874,6.758,514.589,7.506,510.366z"/>
			</g>
		</g>
		<g>
			<g>
				<path class="st0" d="M7.506,484.701c0.604,3.728,5.008,8.12,5.869,9.864c2.772,5.749-5.037,8.896-5.423,11.497
					c-0.501-2.544-8.482-5.196-5.991-11.058C2.682,493.208,6.758,488.924,7.506,484.701z"/>
			</g>
		</g>
		<g>
			<g>
				<path class="st0" d="M7.506,459.036c0.604,3.729,5.008,8.12,5.869,9.865c2.772,5.748-5.037,8.896-5.423,11.497
					c-0.501-2.545-8.482-5.197-5.991-11.058C2.682,467.544,6.758,463.259,7.506,459.036z"/>
			</g>
		</g>
		<g>
			<g>
				<path class="st0" d="M7.506,433.372c0.604,3.728,5.008,8.12,5.869,9.864c2.772,5.749-5.037,8.896-5.423,11.497
					c-0.501-2.545-8.482-5.196-5.991-11.058C2.682,441.879,6.758,437.595,7.506,433.372z"/>
			</g>
		</g>
		<g>
			<g>
				<path class="st0" d="M7.506,407.707c0.604,3.729,5.008,8.12,5.869,9.865c2.772,5.748-5.037,8.896-5.423,11.496
					c-0.501-2.544-8.482-5.196-5.991-11.057C2.682,416.215,6.758,411.93,7.506,407.707z"/>
			</g>
		</g>
		<g>
			<g>
				<path class="st0" d="M7.506,382.042c0.604,3.728,5.008,8.12,5.869,9.864c2.772,5.748-5.037,8.896-5.423,11.497
					c-0.501-2.545-8.482-5.196-5.991-11.058C2.682,390.55,6.758,386.266,7.506,382.042z"/>
			</g>
		</g>
		<g>
			<g>
				<path class="st0" d="M7.506,356.377c0.604,3.729,5.008,8.12,5.869,9.865c2.772,5.748-5.037,8.896-5.423,11.496
					c-0.501-2.544-8.482-5.196-5.991-11.057C2.682,364.885,6.758,360.601,7.506,356.377z"/>
			</g>
		</g>
		<g>
			<g>
				<path class="st0" d="M7.506,330.713c0.604,3.728,5.008,8.12,5.869,9.865c2.772,5.749-5.037,8.896-5.423,11.497
					c-0.501-2.545-8.482-5.197-5.991-11.058C2.682,339.221,6.758,334.937,7.506,330.713z"/>
			</g>
		</g>
		<g>
			<g>
				<path class="st0" d="M7.506,305.048c0.604,3.728,5.008,8.12,5.869,9.865c2.772,5.749-5.037,8.896-5.423,11.497
					c-0.501-2.544-8.482-5.196-5.991-11.057C2.682,313.557,6.758,309.272,7.506,305.048z"/>
			</g>
		</g>
		<g>
			<g>
				<path class="st0" d="M7.506,279.384c0.604,3.728,5.008,8.12,5.869,9.865c2.772,5.748-5.037,8.896-5.423,11.497
					c-0.501-2.544-8.482-5.196-5.991-11.057C2.682,287.892,6.758,283.607,7.506,279.384z"/>
			</g>
		</g>
		<g>
			<g>
				<path class="st0" d="M7.506,253.719c0.604,3.728,5.008,8.12,5.869,9.865c2.772,5.748-5.037,8.896-5.423,11.497
					c-0.501-2.544-8.482-5.196-5.991-11.057C2.682,262.228,6.758,257.943,7.506,253.719z"/>
			</g>
		</g>
		<g>
			<g>
				<path class="st0" d="M7.506,228.055c0.604,3.728,5.008,8.12,5.869,9.864c2.772,5.749-5.037,8.896-5.423,11.497
					c-0.501-2.544-8.482-5.196-5.991-11.057C2.682,236.563,6.758,232.278,7.506,228.055z"/>
			</g>
		</g>
		<g>
			<g>
				<path class="st0" d="M7.506,202.39c0.604,3.728,5.008,8.12,5.869,9.864c2.772,5.749-5.037,8.896-5.423,11.497
					c-0.501-2.544-8.482-5.196-5.991-11.057C2.682,210.898,6.758,206.614,7.506,202.39z"/>
			</g>
		</g>
		<g>
			<g>
				<path class="st0" d="M7.506,176.726c0.604,3.728,5.008,8.12,5.869,9.864c2.772,5.749-5.037,8.896-5.423,11.497
					c-0.501-2.544-8.482-5.197-5.991-11.057C2.682,185.233,6.758,180.949,7.506,176.726z"/>
			</g>
		</g>
		<g>
			<g>
				<path class="st0" d="M7.506,151.061c0.604,3.728,5.008,8.12,5.869,9.864c2.772,5.749-5.037,8.896-5.423,11.497
					c-0.501-2.544-8.482-5.197-5.991-11.057C2.682,159.569,6.758,155.285,7.506,151.061z"/>
			</g>
		</g>
		<g>
			<g>
				<path class="st0" d="M7.506,125.396c0.604,3.728,5.008,8.12,5.869,9.865c2.772,5.749-5.037,8.896-5.423,11.497
					c-0.501-2.544-8.482-5.197-5.991-11.057C2.682,133.904,6.758,129.62,7.506,125.396z"/>
			</g>
		</g>
		<g>
			<g>
				<path class="st0" d="M7.506,99.731c0.604,3.728,5.008,8.12,5.869,9.865c2.772,5.749-5.037,8.896-5.423,11.497
					c-0.501-2.545-8.482-5.197-5.991-11.058C2.682,108.24,6.758,103.955,7.506,99.731z"/>
			</g>
		</g>
		<g>
			<g>
				<path class="st0" d="M7.506,74.067c0.604,3.728,5.008,8.12,5.869,9.865c2.772,5.749-5.037,8.896-5.423,11.497
					C7.45,92.884-0.531,90.232,1.96,84.371C2.682,82.575,6.758,78.291,7.506,74.067z"/>
			</g>
		</g>
		<g>
			<g>
				<path class="st0" d="M7.506,48.402c0.604,3.728,5.008,8.12,5.869,9.865c2.772,5.748-5.037,8.896-5.423,11.497
					C7.45,67.219-0.531,64.567,1.96,58.707C2.682,56.911,6.758,52.626,7.506,48.402z"/>
			</g>
		</g>
		<g>
			<g>
				<path class="st0" d="M7.506,22.738c0.604,3.728,5.008,8.12,5.869,9.865c2.772,5.748-5.037,8.896-5.423,11.497
					C7.45,41.555-0.531,38.903,1.96,33.042C2.682,31.246,6.758,26.961,7.506,22.738z"/>
			</g>
		</g>
		<g>
			<g>
				<path class="st0" d="M44.083,7.506c-3.725,0.604-8.114,5.008-9.857,5.869c-5.745,2.772-8.89-5.037-11.489-5.423
					c2.542-0.501,5.193-8.482,11.049-5.991C35.581,2.682,39.862,6.758,44.083,7.506z"/>
			</g>
		</g>
		<g>
			<g>
				<path class="st0" d="M69.729,7.506c-3.726,0.604-8.114,5.008-9.858,5.869c-5.744,2.772-8.89-5.037-11.488-5.423
					c2.542-0.501,5.192-8.482,11.049-5.991C61.227,2.682,65.508,6.758,69.729,7.506z"/>
			</g>
		</g>
		<g>
			<g>
				<path class="st0" d="M95.375,7.506c-3.725,0.604-8.114,5.008-9.857,5.869c-5.744,2.772-8.89-5.037-11.489-5.423
					c2.543-0.501,5.193-8.482,11.049-5.991C86.873,2.682,91.154,6.758,95.375,7.506z"/>
			</g>
		</g>
		<g>
			<g>
				<path class="st0" d="M121.021,7.506c-3.725,0.604-8.114,5.008-9.857,5.869c-5.745,2.772-8.89-5.037-11.489-5.423
					c2.542-0.501,5.193-8.482,11.049-5.991C112.52,2.682,116.801,6.758,121.021,7.506z"/>
			</g>
		</g>
		<g>
			<g>
				<path class="st0" d="M146.667,7.506c-3.725,0.604-8.114,5.008-9.857,5.869c-5.744,2.772-8.89-5.037-11.489-5.423
					c2.543-0.501,5.193-8.482,11.049-5.991C138.166,2.682,142.447,6.758,146.667,7.506z"/>
			</g>
		</g>
		<g>
			<g>
				<path class="st0" d="M172.314,7.506c-3.725,0.604-8.114,5.008-9.857,5.869c-5.745,2.772-8.89-5.037-11.489-5.423
					c2.542-0.501,5.193-8.482,11.049-5.991C163.812,2.682,168.093,6.758,172.314,7.506z"/>
			</g>
		</g>
		<g>
			<g>
				<path class="st0" d="M197.96,7.506c-3.726,0.604-8.114,5.008-9.857,5.869c-5.745,2.772-8.89-5.037-11.489-5.423
					c2.542-0.501,5.193-8.482,11.049-5.991C189.458,2.682,193.74,6.758,197.96,7.506z"/>
			</g>
		</g>
		<g>
			<g>
				<path class="st0" d="M223.606,7.506c-3.725,0.604-8.114,5.008-9.857,5.869c-5.744,2.772-8.89-5.037-11.489-5.423
					c2.543-0.501,5.193-8.482,11.049-5.991C215.104,2.682,219.386,6.758,223.606,7.506z"/>
			</g>
		</g>
		<g>
			<g>
				<path class="st0" d="M249.253,7.506c-3.725,0.604-8.114,5.008-9.857,5.869c-5.745,2.772-8.89-5.037-11.489-5.423
					c2.542-0.501,5.193-8.482,11.049-5.991C240.751,2.682,245.032,6.758,249.253,7.506z"/>
			</g>
		</g>
		<g>
			<g>
				<path class="st0" d="M274.899,7.506c-3.725,0.604-8.114,5.008-9.857,5.869c-5.744,2.772-8.89-5.037-11.488-5.423
					c2.542-0.501,5.192-8.482,11.049-5.991C266.397,2.682,270.678,6.758,274.899,7.506z"/>
			</g>
		</g>
		<g>
			<g>
				<path class="st0" d="M300.545,7.506c-3.726,0.604-8.114,5.008-9.857,5.869c-5.744,2.772-8.89-5.037-11.488-5.423
					c2.542-0.501,5.192-8.482,11.049-5.991C292.043,2.682,296.325,6.758,300.545,7.506z"/>
			</g>
		</g>
		<g>
			<g>
				<path class="st0" d="M326.192,7.506c-3.726,0.604-8.114,5.008-9.857,5.869c-5.744,2.772-8.891-5.037-11.489-5.423
					c2.543-0.501,5.193-8.482,11.05-5.991C317.69,2.682,321.971,6.758,326.192,7.506z"/>
			</g>
		</g>
		<g>
			<g>
				<path class="st0" d="M351.838,7.506c-3.726,0.604-8.114,5.008-9.857,5.869c-5.745,2.772-8.891-5.037-11.489-5.423
					c2.543-0.501,5.193-8.482,11.05-5.991C343.336,2.682,347.618,6.758,351.838,7.506z"/>
			</g>
		</g>
		<g>
			<g>
				<path class="st0" d="M377.484,7.506c-3.725,0.604-8.113,5.008-9.857,5.869c-5.744,2.772-8.89-5.037-11.488-5.423
					c2.543-0.501,5.192-8.482,11.05-5.991C368.982,2.682,373.264,6.758,377.484,7.506z"/>
			</g>
		</g>
		<g>
			<g>
				<path class="st0" d="M403.13,7.506c-3.725,0.604-8.113,5.008-9.857,5.869c-5.744,2.772-8.89-5.037-11.488-5.423
					c2.542-0.501,5.192-8.482,11.049-5.991C394.628,2.682,398.91,6.758,403.13,7.506z"/>
			</g>
		</g>
		<g>
			<g>
				<path class="st0" d="M428.777,7.506c-3.725,0.604-8.114,5.008-9.857,5.869c-5.744,2.772-8.89-5.037-11.488-5.423
					c2.542-0.501,5.192-8.482,11.049-5.991C420.275,2.682,424.556,6.758,428.777,7.506z"/>
			</g>
		</g>
		<g>
			<g>
				<path class="st0" d="M454.423,7.506c-3.726,0.604-8.114,5.008-9.857,5.869c-5.744,2.772-8.89-5.037-11.489-5.423
					c2.543-0.501,5.193-8.482,11.05-5.991C445.921,2.682,450.203,6.758,454.423,7.506z"/>
			</g>
		</g>
		<g>
			<g>
				<path class="st0" d="M480.07,7.506c-3.726,0.604-8.114,5.008-9.857,5.869c-5.745,2.772-8.891-5.037-11.489-5.423
					c2.543-0.501,5.193-8.482,11.05-5.991C471.568,2.682,475.849,6.758,480.07,7.506z"/>
			</g>
		</g>
		<g>
			<g>
				<path class="st0" d="M505.716,7.506c-3.726,0.604-8.114,5.008-9.857,5.869c-5.745,2.772-8.891-5.037-11.489-5.423
					c2.543-0.501,5.192-8.482,11.05-5.991C497.213,2.682,501.496,6.758,505.716,7.506z"/>
			</g>
		</g>
		<g>
			<g>
				<path class="st0" d="M520.947,44.099c-0.605-3.728-5.009-8.12-5.869-9.864c-2.772-5.749,5.037-8.896,5.424-11.497
					c0.501,2.544,8.481,5.196,5.99,11.057C525.77,35.591,521.694,39.875,520.947,44.099z"/>
			</g>
		</g>
		<g>
			<g>
				<path class="st0" d="M520.947,69.764c-0.605-3.728-5.009-8.12-5.869-9.864c-2.772-5.749,5.037-8.896,5.424-11.497
					c0.501,2.544,8.481,5.197,5.99,11.057C525.77,61.256,521.694,65.54,520.947,69.764z"/>
			</g>
		</g>
		<g>
			<g>
				<path class="st0" d="M520.947,95.428c-0.605-3.728-5.009-8.12-5.869-9.864c-2.772-5.749,5.037-8.896,5.424-11.497
					c0.501,2.544,8.481,5.197,5.99,11.058C525.77,86.92,521.694,91.205,520.947,95.428z"/>
			</g>
		</g>
		<g>
			<g>
				<path class="st0" d="M520.947,121.093c-0.605-3.728-5.009-8.12-5.869-9.865c-2.772-5.749,5.037-8.896,5.424-11.497
					c0.501,2.544,8.481,5.197,5.99,11.058C525.77,112.585,521.694,116.87,520.947,121.093z"/>
			</g>
		</g>
		<g>
			<g>
				<path class="st0" d="M520.947,146.758c-0.605-3.728-5.009-8.12-5.869-9.865c-2.772-5.749,5.037-8.896,5.424-11.497
					c0.501,2.545,8.481,5.197,5.99,11.058C525.77,138.25,521.694,142.534,520.947,146.758z"/>
			</g>
		</g>
		<g>
			<g>
				<path class="st0" d="M520.947,172.422c-0.605-3.728-5.009-8.12-5.869-9.865c-2.772-5.749,5.037-8.896,5.424-11.497
					c0.501,2.544,8.481,5.196,5.99,11.057C525.77,163.914,521.694,168.199,520.947,172.422z"/>
			</g>
		</g>
		<g>
			<g>
				<path class="st0" d="M520.947,198.087c-0.605-3.728-5.009-8.12-5.869-9.865c-2.772-5.748,5.037-8.896,5.424-11.497
					c0.501,2.544,8.481,5.196,5.99,11.057C525.77,189.579,521.694,193.863,520.947,198.087z"/>
			</g>
		</g>
		<g>
			<g>
				<path class="st0" d="M520.947,223.751c-0.605-3.728-5.009-8.12-5.869-9.864c-2.772-5.749,5.037-8.896,5.424-11.497
					c0.501,2.544,8.481,5.196,5.99,11.057C525.77,215.243,521.694,219.528,520.947,223.751z"/>
			</g>
		</g>
		<g>
			<g>
				<path class="st0" d="M520.947,249.416c-0.605-3.728-5.009-8.12-5.869-9.864c-2.772-5.749,5.037-8.896,5.424-11.497
					c0.501,2.544,8.481,5.196,5.99,11.057C525.77,240.908,521.694,245.192,520.947,249.416z"/>
			</g>
		</g>
		<g>
			<g>
				<path class="st0" d="M520.947,275.081c-0.605-3.728-5.009-8.12-5.869-9.864c-2.772-5.749,5.037-8.896,5.424-11.497
					c0.501,2.544,8.481,5.196,5.99,11.057C525.77,266.573,521.694,270.857,520.947,275.081z"/>
			</g>
		</g>
		<g>
			<g>
				<path class="st0" d="M520.947,300.745c-0.605-3.728-5.009-8.12-5.869-9.864c-2.772-5.749,5.037-8.896,5.424-11.497
					c0.501,2.544,8.481,5.197,5.99,11.057C525.77,292.237,521.694,296.521,520.947,300.745z"/>
			</g>
		</g>
		<g>
			<g>
				<path class="st0" d="M520.947,326.41c-0.605-3.728-5.009-8.12-5.869-9.864c-2.772-5.749,5.037-8.896,5.424-11.497
					c0.501,2.544,8.481,5.197,5.99,11.057C525.77,317.902,521.694,322.186,520.947,326.41z"/>
			</g>
		</g>
		<g>
			<g>
				<path class="st0" d="M520.947,352.075c-0.605-3.728-5.009-8.12-5.869-9.865c-2.772-5.749,5.037-8.896,5.424-11.497
					c0.501,2.544,8.481,5.197,5.99,11.058C525.77,343.566,521.694,347.851,520.947,352.075z"/>
			</g>
		</g>
		<g>
			<g>
				<path class="st0" d="M520.947,377.739c-0.605-3.728-5.009-8.119-5.869-9.864c-2.772-5.748,5.037-8.896,5.424-11.497
					c0.501,2.545,8.481,5.196,5.99,11.058C525.77,369.231,521.694,373.515,520.947,377.739z"/>
			</g>
		</g>
		<g>
			<g>
				<path class="st0" d="M520.947,403.404c-0.605-3.728-5.009-8.12-5.869-9.864c-2.772-5.749,5.037-8.896,5.424-11.497
					c0.501,2.544,8.481,5.196,5.99,11.057C525.77,394.896,521.694,399.18,520.947,403.404z"/>
			</g>
		</g>
		<g>
			<g>
				<path class="st0" d="M520.947,429.068c-0.605-3.728-5.009-8.119-5.869-9.864c-2.772-5.748,5.037-8.896,5.424-11.497
					c0.501,2.545,8.481,5.197,5.99,11.058C525.77,420.56,521.694,424.844,520.947,429.068z"/>
			</g>
		</g>
		<g>
			<g>
				<path class="st0" d="M520.947,454.733c-0.605-3.728-5.009-8.12-5.869-9.864c-2.772-5.749,5.037-8.896,5.424-11.497
					c0.501,2.544,8.481,5.196,5.99,11.057C525.77,446.225,521.694,450.509,520.947,454.733z"/>
			</g>
		</g>
		<g>
			<g>
				<path class="st0" d="M520.947,480.398c-0.605-3.729-5.009-8.12-5.869-9.865c-2.772-5.748,5.037-8.896,5.424-11.497
					c0.501,2.545,8.481,5.197,5.99,11.058C525.77,471.889,521.694,476.174,520.947,480.398z"/>
			</g>
		</g>
		<g>
			<g>
				<path class="st0" d="M520.947,506.062c-0.605-3.728-5.009-8.12-5.869-9.864c-2.772-5.749,5.037-8.896,5.424-11.497
					c0.501,2.545,8.481,5.196,5.99,11.058C525.77,497.554,521.694,501.838,520.947,506.062z"/>
			</g>
		</g>
		<g>
			<g>
				<path class="st0" d="M520.947,531.727c-0.605-3.729-5.009-8.12-5.869-9.865c-2.772-5.748,5.037-8.896,5.424-11.496
					c0.501,2.544,8.481,5.196,5.99,11.057C525.77,523.218,521.694,527.503,520.947,531.727z"/>
			</g>
		</g>
		<g>
			<g>
				<path class="st0" d="M520.947,557.391c-0.605-3.728-5.009-8.12-5.869-9.864c-2.772-5.748,5.037-8.896,5.424-11.497
					c0.501,2.545,8.481,5.196,5.99,11.058C525.77,548.883,521.694,553.167,520.947,557.391z"/>
			</g>
		</g>
		<g>
			<g>
				<path class="st0" d="M520.947,583.056c-0.605-3.729-5.009-8.12-5.869-9.864c-2.772-5.749,5.037-8.896,5.424-11.497
					c0.501,2.544,8.481,5.196,5.99,11.057C525.77,574.547,521.694,578.833,520.947,583.056z"/>
			</g>
		</g>
		<g>
			<g>
				<path class="st0" d="M520.947,608.72c-0.605-3.728-5.009-8.119-5.869-9.864c-2.772-5.748,5.037-8.896,5.424-11.497
					c0.501,2.545,8.481,5.196,5.99,11.058C525.77,600.212,521.694,604.497,520.947,608.72z"/>
			</g>
		</g>
		<g>
			<g>
				<path class="st0" d="M520.947,634.385c-0.605-3.728-5.009-8.12-5.869-9.864c-2.772-5.749,5.037-8.896,5.424-11.497
					c0.501,2.544,8.481,5.196,5.99,11.057C525.77,625.877,521.694,630.162,520.947,634.385z"/>
			</g>
		</g>
		<g>
			<g>
				<path class="st0" d="M520.947,660.049c-0.605-3.728-5.009-8.119-5.869-9.864c-2.772-5.748,5.037-8.896,5.424-11.497
					c0.501,2.545,8.481,5.197,5.99,11.058C525.77,651.542,521.694,655.826,520.947,660.049z"/>
			</g>
		</g>
		<g>
			<g>
				<path class="st0" d="M520.947,685.714c-0.605-3.728-5.009-8.12-5.869-9.864c-2.772-5.749,5.037-8.896,5.424-11.497
					c0.501,2.544,8.481,5.196,5.99,11.057C525.77,677.207,521.694,681.491,520.947,685.714z"/>
			</g>
		</g>
		<g>
			<g>
				<path class="st0" d="M484.37,700.947c3.726-0.605,8.114-5.009,9.857-5.869c5.744-2.772,8.89,5.037,11.489,5.424
					c-2.543,0.501-5.193,8.481-11.05,5.99C492.872,705.77,488.59,701.694,484.37,700.947z"/>
			</g>
		</g>
		<g>
			<g>
				<path class="st0" d="M458.723,700.947c3.726-0.605,8.114-5.009,9.857-5.869c5.745-2.772,8.891,5.037,11.489,5.424
					c-2.543,0.501-5.193,8.481-11.05,5.99C467.225,705.77,462.944,701.694,458.723,700.947z"/>
			</g>
		</g>
		<g>
			<g>
				<path class="st0" d="M433.077,700.947c3.726-0.605,8.114-5.009,9.858-5.869c5.744-2.772,8.89,5.037,11.488,5.424
					c-2.543,0.501-5.193,8.481-11.05,5.99C441.58,705.77,437.297,701.694,433.077,700.947z"/>
			</g>
		</g>
		<g>
			<g>
				<path class="st0" d="M407.431,700.947c3.725-0.605,8.113-5.009,9.857-5.869c5.744-2.772,8.89,5.037,11.488,5.424
					c-2.543,0.501-5.192,8.481-11.049,5.99C415.933,705.77,411.652,701.694,407.431,700.947z"/>
			</g>
		</g>
		<g>
			<g>
				<path class="st0" d="M381.785,700.947c3.725-0.605,8.114-5.009,9.857-5.869c5.744-2.772,8.89,5.037,11.488,5.424
					c-2.542,0.501-5.192,8.481-11.049,5.99C390.287,705.77,386.005,701.694,381.785,700.947z"/>
			</g>
		</g>
		<g>
			<g>
				<path class="st0" d="M356.138,700.947c3.726-0.605,8.114-5.009,9.857-5.869c5.744-2.772,8.89,5.037,11.488,5.424
					c-2.542,0.501-5.192,8.481-11.049,5.99C364.64,705.77,360.359,701.694,356.138,700.947z"/>
			</g>
		</g>
		<g>
			<g>
				<path class="st0" d="M330.492,700.947c3.726-0.605,8.114-5.009,9.857-5.869c5.744-2.772,8.891,5.037,11.489,5.424
					c-2.543,0.501-5.193,8.481-11.05,5.99C338.994,705.77,334.712,701.694,330.492,700.947z"/>
			</g>
		</g>
		<g>
			<g>
				<path class="st0" d="M304.845,700.947c3.726-0.605,8.114-5.009,9.857-5.869c5.745-2.772,8.891,5.037,11.489,5.424
					c-2.543,0.501-5.193,8.481-11.05,5.99C313.347,705.77,309.066,701.694,304.845,700.947z"/>
			</g>
		</g>
		<g>
			<g>
				<path class="st0" d="M279.2,700.947c3.725-0.605,8.113-5.009,9.857-5.869c5.744-2.772,8.89,5.037,11.488,5.424
					c-2.543,0.501-5.192,8.481-11.049,5.99C287.702,705.77,283.419,701.694,279.2,700.947z"/>
			</g>
		</g>
		<g>
			<g>
				<path class="st0" d="M253.553,700.947c3.725-0.605,8.114-5.009,9.857-5.869c5.744-2.772,8.89,5.037,11.488,5.424
					c-2.542,0.501-5.192,8.481-11.049,5.99C262.055,705.77,257.773,701.694,253.553,700.947z"/>
			</g>
		</g>
		<g>
			<g>
				<path class="st0" d="M227.907,700.947c3.725-0.605,8.114-5.009,9.857-5.869c5.744-2.772,8.89,5.037,11.489,5.424
					c-2.542,0.501-5.193,8.481-11.049,5.99C236.409,705.77,232.127,701.694,227.907,700.947z"/>
			</g>
		</g>
		<g>
			<g>
				<path class="st0" d="M202.26,700.947c3.725-0.605,8.114-5.009,9.857-5.869c5.745-2.772,8.89,5.037,11.489,5.424
					c-2.542,0.501-5.193,8.481-11.049,5.99C210.762,705.77,206.481,701.694,202.26,700.947z"/>
			</g>
		</g>
		<g>
			<g>
				<path class="st0" d="M176.614,700.947c3.725-0.605,8.114-5.009,9.857-5.869c5.744-2.772,8.89,5.037,11.489,5.424
					c-2.543,0.501-5.193,8.481-11.049,5.99C185.116,705.77,180.834,701.694,176.614,700.947z"/>
			</g>
		</g>
		<g>
			<g>
				<path class="st0" d="M150.968,700.947c3.725-0.605,8.114-5.009,9.857-5.869c5.745-2.772,8.89,5.037,11.489,5.424
					c-2.542,0.501-5.193,8.481-11.049,5.99C159.47,705.77,155.188,701.694,150.968,700.947z"/>
			</g>
		</g>
		<g>
			<g>
				<path class="st0" d="M125.321,700.947c3.726-0.605,8.114-5.009,9.858-5.869c5.744-2.772,8.89,5.037,11.488,5.424
					c-2.542,0.501-5.192,8.481-11.049,5.99C133.824,705.77,129.542,701.694,125.321,700.947z"/>
			</g>
		</g>
		<g>
			<g>
				<path class="st0" d="M99.675,700.947c3.725-0.605,8.114-5.009,9.857-5.869c5.744-2.772,8.89,5.037,11.489,5.424
					c-2.543,0.501-5.193,8.481-11.049,5.99C108.177,705.77,103.896,701.694,99.675,700.947z"/>
			</g>
		</g>
		<g>
			<g>
				<path class="st0" d="M74.029,700.947c3.725-0.605,8.114-5.009,9.857-5.869c5.745-2.772,8.89,5.037,11.489,5.424
					c-2.542,0.501-5.193,8.481-11.049,5.99C82.531,705.77,78.25,701.694,74.029,700.947z"/>
			</g>
		</g>
		<g>
			<g>
				<path class="st0" d="M48.383,700.947c3.725-0.605,8.114-5.009,9.857-5.869c5.744-2.772,8.89,5.037,11.489,5.424
					c-2.543,0.501-5.193,8.481-11.05,5.99C56.885,705.77,52.603,701.694,48.383,700.947z"/>
			</g>
		</g>
		<g>
			<g>
				<path class="st0" d="M22.736,700.947c3.725-0.605,8.114-5.009,9.857-5.869c5.744-2.772,8.89,5.037,11.489,5.424
					c-2.542,0.501-5.193,8.481-11.049,5.99C31.238,705.77,26.957,701.694,22.736,700.947z"/>
			</g>
		</g>
		<g>
			<g>
				<g>
					<path class="st0" d="M0,0.313c3.071,2.21,9.296,2.21,11.141,2.838c6.034,2.114,2.742,9.867,4.311,11.984
						c-2.157-1.446-9.678,2.313-12.069-3.6C2.619,9.751,2.463,3.833,0,0.313z"/>
				</g>
			</g>
		</g>
		<g>
			<g>
				<g>
					<path class="st0" d="M528.139,0c-2.21,3.071-2.21,9.296-2.838,11.141c-2.114,6.034-9.867,2.742-11.983,4.311
						c1.445-2.157-2.313-9.678,3.6-12.069C518.701,2.619,524.619,2.463,528.139,0z"/>
				</g>
			</g>
		</g>
		<g>
			<g>
				<g>
					<path class="st0" d="M528.453,708.139c-3.072-2.21-9.297-2.21-11.142-2.838c-6.034-2.114-2.742-9.867-4.312-11.983
						c2.158,1.445,9.679-2.313,12.069,3.6C525.833,698.701,525.989,704.619,528.453,708.139z"/>
				</g>
			</g>
		</g>
		<g>
			<g>
				<g>
					<path class="st0" d="M0.313,708.453c2.21-3.072,2.21-9.297,2.838-11.142c2.114-6.034,9.867-2.742,11.984-4.312
						c-1.446,2.158,2.313,9.679-3.6,12.069C9.751,705.833,3.833,705.989,0.313,708.453z"/>
				</g>
			</g>
		</g>
	</g>
</g>
</svg>
