<?xml version="1.0" encoding="utf-8"?>
<!-- Generator: Adobe Illustrator 14.0.0, SVG Export Plug-In . SVG Version: 6.00 Build 43363)  -->
<!DOCTYPE svg PUBLIC "-//W3C//DTD SVG 1.1//EN" "http://www.w3.org/Graphics/SVG/1.1/DTD/svg11.dtd">
<svg version="1.1" id="Clams_x5F_and_x5F_Donut_x5F_drivein_x5F_smallfortrace_xA0_Image_1_"
	 xmlns="http://www.w3.org/2000/svg" xmlns:xlink="http://www.w3.org/1999/xlink" x="0px" y="0px" width="835.92px" height="1080px"
	 viewBox="0 0 835.92 1080" style="enable-background:new 0 0 835.92 1080;" xml:space="preserve">
<style type="text/css">
<![CDATA[
	.st0{fill:none;stroke:#000000;stroke-width:1.8497;stroke-linecap:round;}
	.st1{fill:none;stroke:#000000;stroke-width:1.9049;stroke-linecap:round;}
	.st2{fill:none;stroke:#000000;stroke-width:1.5861;stroke-linecap:round;}
	.st3{fill:none;stroke:#000000;stroke-width:2.3225;stroke-linecap:round;}
	.st4{fill:none;stroke:#000000;stroke-width:2.1434;stroke-linecap:round;}
	.st5{fill:none;stroke:#000000;stroke-width:2.8117;stroke-linecap:round;}
	.st6{fill:none;stroke:#000000;stroke-width:2.3992;stroke-linecap:round;}
	.st7{fill:none;stroke:#000000;stroke-width:2.4015;stroke-linecap:round;}
	.st8{fill:none;stroke:#000000;stroke-width:2.3202;stroke-linecap:round;}
	.st9{fill:none;stroke:#000000;stroke-width:2.0142;stroke-linecap:round;}
	.st10{fill:none;stroke:#000000;stroke-width:2.3243;stroke-linecap:round;}
	.st11{fill:none;stroke:#000000;stroke-width:1.3227;stroke-linecap:round;}
	.st12{fill:none;stroke:#000000;stroke-width:2.4979;stroke-linecap:round;}
	.st13{fill:none;stroke:#000000;stroke-width:2.0868;stroke-linecap:round;}
	.st14{fill:none;stroke:#000000;stroke-width:1.6328;stroke-linecap:round;}
	.st15{fill:none;stroke:#000000;stroke-width:2.341;stroke-linecap:round;}
	.st16{fill:none;stroke:#000000;stroke-width:1.3174;stroke-linecap:round;}
	.st17{fill:none;stroke:#000000;stroke-width:1.8948;stroke-linecap:round;}
	.st18{fill:none;stroke:#000000;stroke-width:2.6291;stroke-linecap:round;}
	.st19{fill:none;stroke:#000000;stroke-width:1.2952;stroke-linecap:round;}
	.st20{fill:none;stroke:#000000;stroke-width:2.0492;stroke-linecap:round;}
	.st21{fill:none;stroke:#000000;stroke-width:2.194;stroke-linecap:round;}
	.st22{fill:none;stroke:#000000;stroke-width:2.3064;stroke-linecap:round;}
	.st23{fill:none;stroke:#000000;stroke-width:1.9738;stroke-linecap:round;}
	.st24{fill:none;stroke:#000000;stroke-width:1.5274;stroke-linecap:round;}
	.st25{fill:none;stroke:#000000;stroke-width:2.2386;stroke-linecap:round;}
	.st26{fill:none;stroke:#000000;stroke-width:1.5139;stroke-linecap:round;}
	.st27{fill:none;stroke:#000000;stroke-width:0.963;stroke-linecap:round;}
	.st28{fill:none;stroke:#000000;stroke-width:2.5217;stroke-linecap:round;}
	.st29{fill:none;stroke:#000000;stroke-width:2.2292;stroke-linecap:round;}
	.st30{fill:none;stroke:#000000;stroke-width:1.9882;stroke-linecap:round;}
	.st31{fill:none;stroke:#000000;stroke-width:2.265;stroke-linecap:round;}
	.st32{fill:none;stroke:#000000;stroke-width:2.0822;stroke-linecap:round;}
	.st33{fill:none;stroke:#000000;stroke-width:1.4035;stroke-linecap:round;}
	.st34{fill:none;stroke:#000000;stroke-width:2.2592;stroke-linecap:round;}
	.st35{fill:none;stroke:#000000;stroke-width:2.2198;stroke-linecap:round;}
	.st36{fill:none;stroke:#000000;stroke-width:2.7349;stroke-linecap:round;}
	.st37{fill:none;stroke:#000000;stroke-width:2.2363;stroke-linecap:round;}
	.st38{fill:none;stroke:#000000;stroke-width:2.1976;stroke-linecap:round;}
	.st39{fill:none;stroke:#000000;stroke-width:2.3009;stroke-linecap:round;}
	.st40{fill:none;stroke:#000000;stroke-width:2.2995;stroke-linecap:round;}
	.st41{fill:none;stroke:#000000;stroke-width:1.2812;stroke-linecap:round;}
	.st42{fill:none;stroke:#000000;stroke-width:2.3091;stroke-linecap:round;}
	.st43{fill:none;stroke:#000000;stroke-width:2.2237;stroke-linecap:round;}
	.st44{fill:none;stroke:#000000;stroke-width:2.0705;stroke-linecap:round;}
	.st45{fill:none;stroke:#000000;stroke-width:2.1921;stroke-linecap:round;}
	.st46{fill:none;stroke:#000000;stroke-width:2.3162;stroke-linecap:round;}
	.st47{fill:none;stroke:#000000;stroke-width:2.2578;stroke-linecap:round;}
	.st48{fill:none;stroke:#000000;stroke-width:1.3737;stroke-linecap:round;}
	.st49{fill:none;stroke:#000000;stroke-width:0.72;stroke-linecap:round;}
	.st50{fill:none;stroke:#000000;stroke-width:0.864;stroke-linecap:round;}
	.st51{fill:none;stroke:#000000;stroke-width:2.5709;stroke-linecap:round;}
	.st52{fill:none;stroke:#000000;stroke-width:0.9767;stroke-linecap:round;}
	.st53{fill:none;stroke:#000000;stroke-width:1.3943;stroke-linecap:round;}
	.st54{fill:none;stroke:#000000;stroke-width:2.1504;stroke-linecap:round;}
	.st55{fill:none;stroke:#000000;stroke-width:1.3393;stroke-linecap:round;}
	.st56{fill:none;stroke:#000000;stroke-width:1.7825;stroke-linecap:round;}
	.st57{fill:none;stroke:#000000;stroke-width:1.493;stroke-linecap:round;}
	.st58{fill:none;stroke:#000000;stroke-width:2.2399;stroke-linecap:round;}
	.st59{fill:none;stroke:#000000;stroke-width:2.3771;stroke-linecap:round;}
	.st60{fill:none;stroke:#000000;stroke-width:2.1254;stroke-linecap:round;}
	.st61{fill:none;stroke:#000000;stroke-width:2.9247;stroke-linecap:round;}
	.st62{fill:none;stroke:#000000;stroke-width:1.1673;stroke-linecap:round;}
	.st63{fill:none;stroke:#000000;stroke-width:2.0576;stroke-linecap:round;}
	.st64{fill:none;stroke:#000000;stroke-width:1.8356;stroke-linecap:round;}
	.st65{fill:none;stroke:#000000;stroke-width:2.6581;stroke-linecap:round;}
	.st66{fill:none;stroke:#000000;stroke-width:2.4064;stroke-linecap:round;}
	.st67{fill:none;stroke:#000000;stroke-width:2.4593;stroke-linecap:round;}
	.st68{fill:none;stroke:#000000;stroke-width:1.626;stroke-linecap:round;}
	.st69{fill:none;stroke:#000000;stroke-width:2.152;stroke-linecap:round;}
	.st70{fill:none;stroke:#000000;stroke-width:2.2303;stroke-linecap:round;}
	.st71{fill:none;stroke:#000000;stroke-width:1.8033;stroke-linecap:round;}
	.st72{fill:none;stroke:#000000;stroke-width:2.017;stroke-linecap:round;}
	.st73{fill:none;stroke:#000000;stroke-width:1.3079;stroke-linecap:round;}
	.st74{fill:none;stroke:#000000;stroke-width:1.8427;stroke-linecap:round;}
	.st75{fill:none;stroke:#000000;stroke-width:2.4861;stroke-linecap:round;}
	.st76{fill:none;stroke:#000000;stroke-width:2.1428;stroke-linecap:round;}
	.st77{fill:none;stroke:#000000;stroke-width:1.77;stroke-linecap:round;}
	.st78{fill:none;stroke:#000000;stroke-width:2.2903;stroke-linecap:round;}
	.st79{fill:none;stroke:#000000;stroke-width:1.4948;stroke-linecap:round;}
	.st80{fill:none;stroke:#000000;stroke-width:2.8255;stroke-linecap:round;}
	.st81{fill:none;stroke:#000000;stroke-width:1.6842;stroke-linecap:round;}
	.st82{fill:none;stroke:#000000;stroke-width:2.4144;stroke-linecap:round;}
	.st83{fill:none;stroke:#000000;stroke-width:2.3331;stroke-linecap:round;}
	.st84{fill:none;stroke:#000000;stroke-width:2.0365;stroke-linecap:round;}
	.st85{fill:none;stroke:#000000;stroke-width:2.596;stroke-linecap:round;}
	.st86{fill:none;stroke:#000000;stroke-width:1.7758;stroke-linecap:round;}
	.st87{fill:none;stroke:#000000;stroke-width:0.9107;stroke-linecap:round;}
	.st88{fill:none;stroke:#000000;stroke-width:1.788;stroke-linecap:round;}
	.st89{fill:none;stroke:#000000;stroke-width:1.8745;stroke-linecap:round;}
	.st90{fill:none;stroke:#000000;stroke-width:2.5369;stroke-linecap:round;}
	.st91{fill:none;stroke:#000000;stroke-width:1.8319;stroke-linecap:round;}
	.st92{fill:none;stroke:#000000;stroke-width:1.9961;stroke-linecap:round;}
	.st93{fill:none;stroke:#000000;stroke-width:1.1968;stroke-linecap:round;}
	.st94{fill:none;stroke:#000000;stroke-width:2.9189;stroke-linecap:round;}
	.st95{fill:none;stroke:#000000;stroke-width:2.406;stroke-linecap:round;}
	.st96{fill:none;stroke:#000000;stroke-width:2.2245;stroke-linecap:round;}
	.st97{fill:none;stroke:#000000;stroke-width:2.5543;stroke-linecap:round;}
	.st98{fill:none;stroke:#000000;stroke-width:0.957;stroke-linecap:round;}
	.st99{fill:none;stroke:#000000;stroke-width:1.08;stroke-linecap:round;}
	.st100{fill:none;stroke:#000000;stroke-width:1.151;stroke-linecap:round;}
	.st101{fill:none;stroke:#000000;stroke-width:2.2192;stroke-linecap:round;}
	.st102{fill:none;stroke:#000000;stroke-width:2.1079;stroke-linecap:round;}
	.st103{fill:none;stroke:#000000;stroke-width:1.2238;stroke-linecap:round;}
	.st104{fill:none;stroke:#000000;stroke-width:2.4283;stroke-linecap:round;}
	.st105{fill:none;stroke:#000000;stroke-width:1.9979;stroke-linecap:round;}
	.st106{fill:none;stroke:#000000;stroke-width:1.5868;stroke-linecap:round;}
	.st107{fill:none;stroke:#000000;stroke-width:0.8818;stroke-linecap:round;}
	.st108{fill:none;stroke:#000000;stroke-width:1.9553;stroke-linecap:round;}
	.st109{fill:none;stroke:#000000;stroke-width:1.5442;stroke-linecap:round;}
	.st110{fill:none;stroke:#000000;stroke-width:1.8481;stroke-linecap:round;}
	.st111{fill:none;stroke:#000000;stroke-width:1.1466;stroke-linecap:round;}
	.st112{fill:none;stroke:#000000;stroke-width:1.8678;stroke-linecap:round;}
	.st113{fill:none;stroke:#000000;stroke-width:2.0534;stroke-linecap:round;}
	.st114{fill:none;stroke:#000000;stroke-width:1.9718;stroke-linecap:round;}
	.st115{fill:none;stroke:#000000;stroke-width:2.4416;stroke-linecap:round;}
	.st116{fill:none;stroke:#000000;stroke-width:1.7636;stroke-linecap:round;}
	.st117{fill:none;stroke:#000000;stroke-width:2.2957;stroke-linecap:round;}
	.st118{fill:none;stroke:#000000;stroke-width:2.1356;stroke-linecap:round;}
	.st119{fill:none;stroke:#000000;stroke-width:1.5554;stroke-linecap:round;}
	.st120{fill:none;stroke:#000000;stroke-width:2.048;stroke-linecap:round;}
	.st121{fill:none;stroke:#000000;stroke-width:2.7661;stroke-linecap:round;}
	.st122{fill:none;stroke:#000000;stroke-width:1.8167;stroke-linecap:round;}
	.st123{fill:none;stroke:#000000;stroke-width:1.44;stroke-linecap:round;}
	.st124{fill:none;stroke:#000000;stroke-width:2.2705;stroke-linecap:round;}
	.st125{fill:none;stroke:#000000;stroke-width:1.1296;stroke-linecap:round;}
	.st126{fill:none;stroke:#000000;stroke-width:2.0914;stroke-linecap:round;}
	.st127{fill:none;stroke:#000000;stroke-width:1.2471;stroke-linecap:round;}
	.st128{fill:none;stroke:#000000;stroke-width:2.2217;stroke-linecap:round;}
	.st129{fill:none;stroke:#000000;stroke-width:1.6197;stroke-linecap:round;}
	.st130{fill:none;stroke:#000000;stroke-width:2.2226;stroke-linecap:round;}
	.st131{fill:none;stroke:#000000;stroke-width:1.3032;stroke-linecap:round;}
	.st132{fill:none;stroke:#000000;stroke-width:1.6497;stroke-linecap:round;}
	.st133{fill:none;stroke:#000000;stroke-width:1.5414;stroke-linecap:round;}
	.st134{fill:none;stroke:#000000;stroke-width:1.8879;stroke-linecap:round;}
	.st135{fill:none;stroke:#000000;stroke-width:2.6802;stroke-linecap:round;}
	.st136{fill:none;stroke:#000000;stroke-width:1.3332;stroke-linecap:round;}
	.st137{fill:none;stroke:#000000;stroke-width:0.8146;stroke-linecap:round;}
	.st138{fill:none;stroke:#000000;stroke-width:2.0506;stroke-linecap:round;}
	.st139{fill:none;stroke:#000000;stroke-width:2.4887;stroke-linecap:round;}
	.st140{fill:none;stroke:#000000;stroke-width:2.6511;stroke-linecap:round;}
	.st141{fill:none;stroke:#000000;stroke-width:2.2629;stroke-linecap:round;}
	.st142{fill:none;stroke:#000000;stroke-width:2.5045;stroke-linecap:round;}
	.st143{fill:none;stroke:#000000;stroke-width:1.3632;stroke-linecap:round;}
	.st144{fill:none;stroke:#000000;stroke-width:2.1898;stroke-linecap:round;}
	.st145{fill:none;stroke:#000000;stroke-width:1.6607;stroke-linecap:round;}
	.st146{fill:none;stroke:#000000;stroke-width:1.7523;stroke-linecap:round;}
	.st147{fill:none;stroke:#000000;stroke-width:2.4179;stroke-linecap:round;}
	.st148{fill:none;stroke:#000000;stroke-width:2.0991;stroke-linecap:round;}
	.st149{fill:none;stroke:#000000;stroke-width:2.5354;stroke-linecap:round;}
	.st150{fill:none;stroke:#000000;stroke-width:0.7413;stroke-linecap:round;}
	.st151{fill:none;stroke:#000000;stroke-width:1.4069;stroke-linecap:round;}
	.st152{fill:none;stroke:#000000;stroke-width:1.812;stroke-linecap:round;}
	.st153{fill:none;stroke:#000000;stroke-width:1.7076;stroke-linecap:round;}
	.st154{fill:none;stroke:#000000;stroke-width:1.6419;stroke-linecap:round;}
	.st155{fill:#000001;}
	.st156{fill:none;stroke:#000000;stroke-width:2.2853;stroke-linecap:round;}
	.st157{fill:none;stroke:#000000;stroke-width:2.6341;stroke-linecap:round;}
	.st158{fill:#010101;}
	.st159{fill:none;stroke:#000000;stroke-width:1.397;stroke-linecap:round;}
	.st160{fill:none;stroke:#000000;stroke-width:1.3068;stroke-linecap:round;}
	.st161{fill:none;stroke:#000000;stroke-width:2.8235;stroke-linecap:round;}
	.st162{fill:none;stroke:#000000;stroke-width:1.4305;stroke-linecap:round;}
	.st163{fill:none;stroke:#000000;stroke-width:2.5528;stroke-linecap:round;}
	.st164{fill:none;stroke:#000000;stroke-width:2.773;stroke-linecap:round;}
	.st165{fill:none;stroke:#000000;stroke-width:0.9295;stroke-linecap:round;}
	.st166{fill:none;stroke:#000000;stroke-width:1.7509;stroke-linecap:round;}
	.st167{fill:none;stroke:#000000;stroke-width:2.2768;stroke-linecap:round;}
	.st168{fill:none;stroke:#000000;stroke-width:1.7094;stroke-linecap:round;}
	.st169{fill:none;stroke:#000000;stroke-width:2.388;stroke-linecap:round;}
	.st170{fill:none;stroke:#000000;stroke-width:1.0182;stroke-linecap:round;}
	.st171{fill:none;stroke:#000000;stroke-width:1.43;stroke-linecap:round;}
	.st172{fill:none;stroke:#000000;stroke-width:2.1996;stroke-linecap:round;}
	.st173{fill:none;stroke:#000000;stroke-width:1.4261;stroke-linecap:round;}
	.st174{fill:none;stroke:#000000;stroke-width:2.3423;stroke-linecap:round;}
	.st175{fill:none;stroke:#000000;stroke-width:1.5633;stroke-linecap:round;}
	.st176{fill:none;stroke:#000000;stroke-width:2.127;stroke-linecap:round;}
	.st177{fill:none;stroke:#000000;stroke-width:2.2257;stroke-linecap:round;}
	.st178{fill:none;stroke:#000000;stroke-width:1.0885;stroke-linecap:round;}
	.st179{fill:none;stroke:#000000;stroke-width:1.61;stroke-linecap:round;}
	.st180{fill:none;stroke:#000000;stroke-width:2.301;stroke-linecap:round;}
	.st181{fill:none;stroke:#000000;stroke-width:1.1572;stroke-linecap:round;}
	.st182{fill:none;stroke:#000000;stroke-width:1.8255;stroke-linecap:round;}
	.st183{fill:none;stroke:#000000;stroke-width:2.2275;stroke-linecap:round;}
	.st184{fill:none;stroke:#000000;stroke-width:1.369;stroke-linecap:round;}
	.st185{fill:none;stroke:#000000;stroke-width:1.4776;stroke-linecap:round;}
	.st186{fill:none;stroke:#000000;stroke-width:1.7089;stroke-linecap:round;}
	.st187{fill:none;stroke:#000000;stroke-width:1.1384;stroke-linecap:round;}
	.st188{fill:none;stroke:#000000;stroke-width:0.8704;stroke-linecap:round;}
	.st189{fill:none;stroke:#000000;stroke-width:1.1705;stroke-linecap:round;}
	.st190{fill:none;stroke:#000000;stroke-width:1.2165;stroke-linecap:round;}
	.st191{fill:none;stroke:#000000;stroke-width:2.1068;stroke-linecap:round;}
	.st192{fill:none;stroke:#000000;stroke-width:1.6441;stroke-linecap:round;}
	.st193{fill:none;stroke:#000000;stroke-width:1.7845;stroke-linecap:round;}
	.st194{fill:none;stroke:#000000;stroke-width:2.16;stroke-linecap:round;}
	.st195{fill:none;stroke:#000000;stroke-width:2.4572;stroke-linecap:round;}
	.st196{fill:none;stroke:#000000;stroke-width:2.0523;stroke-linecap:round;}
	.st197{fill:none;stroke:#000000;stroke-width:1.6885;stroke-linecap:round;}
	.st198{fill:none;stroke:#000000;stroke-width:2.6569;stroke-linecap:round;}
	.st199{fill:none;stroke:#000000;stroke-width:2.5424;stroke-linecap:round;}
	.st200{fill:none;stroke:#000000;stroke-width:2.2032;stroke-linecap:round;}
	.st201{fill:none;stroke:#000000;stroke-width:2.3145;stroke-linecap:round;}
	.st202{fill:none;stroke:#000000;stroke-width:0.8928;stroke-linecap:round;}
	.st203{fill:none;stroke:#000000;stroke-width:2.1686;stroke-linecap:round;}
	.st204{fill:none;stroke:#000000;stroke-width:1.0598;stroke-linecap:round;}
]]>
</style>
<path class="st155" d="M521.981,978.246c2.027-0.623,1.878,0.99,3.608,0.673c-0.108,2.5,0.329,5.531-2.08,5.788l-0.729-0.351
	l-0.715,0.368c-1.644-1.536,0.563-2.464-0.066-5.039l0.351-0.726L521.981,978.246z"/>
<path class="st155" d="M590.575,992.462c9.372-2.026,21.143-0.348,29.536,1.049l-0.343,1.325l1.091,0.825
	c-6.415-0.054-14.93,0.91-20.164-0.455c-1.952,0.232-1.653,2.659-3.565,2.929c-2.096-1.01-3.259-2.979-5.807-3.524l-0.375-1.075
	L590.575,992.462z"/>
<path class="st155" d="M664.728,1000.484l0.825-1.091c2.81,1.25,7.155,0.923,7.977,4.216c-7.387,1.655-18.015,0.051-26.66-1.089
	l1.068-0.854l-0.374-1.314c6.847-0.626,10.176-0.299,15.857,1.23c-0.006-0.479-0.013-0.96-0.019-1.439L664.728,1000.484z"/>
<path class="st155" d="M546.005,998.09c2.88-0.038,5.762-0.076,8.643-0.114c-1.324-2.562,0.031-2.188,2.852-2.196l-0.344,1.323
	l1.092,0.826c0.003,0.239,0.006,0.479,0.009,0.722l-1.077,0.372l0.375,1.075c-2.782,0.862-9.54,1.584-12.239,0.162l1.069-0.855
	L546.005,998.09z"/>
<path class="st155" d="M452.508,1006.523c0.305,3.612-0.104,6.53-1.326,8.659c-3.065,0.05-4.295,1.109-6.487-0.636l1.069-0.854
	l-0.378-1.314c0.48-0.007,0.96-0.013,1.44-0.02c1.188-2.395,0.719-6.406,4.23-6.535l0.374,1.075L452.508,1006.523z"/>
<path class="st155" d="M440.723,1013.76l1.091,0.826c-2.841,1.321-9.401,0.982-11.511,0.873c-1.062-2.273-2.133-9.168,0.567-11.53
	l0.858,1.068l1.312-0.376c-0.252,3.37-1.283,7.581,2.236,5.732l0.374,1.073l1.075-0.373c0.003,0.24,0.007,0.479,0.01,0.722
	c0.861,0.816,2.556,0.779,4.325,0.662L440.723,1013.76z"/>
<path class="st155" d="M453.834,997.865c0.724-0.01,1.439-0.02,2.159-0.029c0.219,1.162-0.663,1.249-0.69,2.17
	c-0.48,0.006-0.96,0.013-1.44,0.019C453.853,999.305,453.843,998.585,453.834,997.865z"/>
<path class="st155" d="M482.708,1003.245c-0.449-2.333,0.443-3.356,0.653-5.049c0.72-0.01,1.438-0.02,2.159-0.028
	c-0.415,1.727,0.97,5.212-0.647,5.77l-0.854-1.069L482.708,1003.245z"/>
<path class="st155" d="M483.571,1005.034l1.312-0.377c0.229,3.845-1.231,7.813-2.004,11.549c-0.68,3.251,0.028,8.25-3.48,9.404
	c-3.538-1.415,0.004-5.763,0.607-8.649c0.936-4.485,0.496-9.744,2.712-12.997L483.571,1005.034z"/>
<path class="st155" d="M723.857,997.905c0.635-1.516,2.096-2.223,4.292-2.218c-0.913,1.801,2.151,2.96,0.047,3.601l-0.729-0.711
	l-0.711,0.729c-0.724,0.01-1.44,0.02-2.16,0.029l0.343-1.085L723.857,997.905z"/>
<path class="st155" d="M525.155,1000.525c2.089-1.089,2.146,3.189,0.028,2.159C525.174,1001.966,525.165,1001.245,525.155,1000.525z
	"/>
<path class="st155" d="M566.22,1002.144c-0.142-1.56,2.55-0.359,3.593-0.767C569.952,1002.937,567.261,1001.736,566.22,1002.144z"/>
<path class="st155" d="M528.063,1002.647c0.48-0.007,0.96-0.013,1.44-0.02c3.324,1.445,1.162,9.967,0.881,12.229
	c-0.71,5.69,0.573,12.537-1.23,15.857c-3.226-1.76-3.378-8.708-3.062-13.64c0.206-3.199,1.498-6.671,2.047-8.669
	C527.576,1005.549,527.575,1005.518,528.063,1002.647z"/>
<path class="st155" d="M544.974,1029.066c1.16-0.531,1.212,3.38,0.038,2.88c0.555,2.3-1.921,0.029-3.604,0.048
	c-2.776,0.03-6.289,1.317-8.648-0.606c0.227-1.446-0.177-2.252-1.469-2.142c3.36-1.556,10.026,0.845,12.229-0.882l0.375,1.075
	L544.974,1029.066z"/>
<path class="st155" d="M444.579,1005.907c3.263,0.43,0.119,5.396-2.093,5.069C442.452,1008.574,444.795,1008.487,444.579,1005.907z"
	/>
<path class="st155" d="M548.354,1012.46c0.569-3.846-1.805-6.14,0.615-7.929c4.473-0.069,2.326,5.937,1.555,8.621l-0.854-1.068
	L548.354,1012.46z"/>
<path class="st155" d="M579.217,1004.853c0.764,2.136,5.137,0.563,6.509,2.073c-0.925,3.554-4.939,2.667-7.9,1.544
	C577.178,1006.183,578.929,1006.229,579.217,1004.853z"/>
<path class="st155" d="M566.277,1006.463c-0.068,2.671-3.573,4.528-5.722,2.957C560.517,1006.143,563.876,1005.39,566.277,1006.463z
	"/>
<path class="st155" d="M597.982,1008.205c1.387-0.313,0.532-2.798,2.854-2.198c0.632,7.995-2.963,7.507-1.949,15.867
	c-2.492-0.94-4.902,0.518-7.938-1.334c0.638-1.271,1.305-2.519,3.57-2.207c-4.738-2.702-2.487-5.622-2.321-12.209
	C595.535,1005.919,596.918,1004.307,597.982,1008.205z"/>
<path class="st155" d="M641.34,1019.875c0.474-4.987-1.482-12.343,1.241-15.138c2.674,2.374,1.767,12.275,0.929,15.829l-0.854-1.068
	L641.34,1019.875z"/>
<path class="st155" d="M582.277,1018.493c1.607,0.084-0.911,1.825,0.047,3.602c-0.96,0.013-1.92,0.025-2.88,0.038l0.344-1.323
	l-1.092-0.825c-0.003-0.24-0.006-0.479-0.009-0.721l0.348-0.727l-0.367-0.715c1.166,0.188,1.23-0.699,2.15-0.749l0.371,1.074
	L582.277,1018.493z"/>
<path class="st155" d="M661.385,1010.969c-1.146-3.059-1.548-3.11,0.653-5.048c2.718,0.53,2.484,3.587,1.516,5.741l-0.854-1.069
	L661.385,1010.969z"/>
<path class="st155" d="M659.15,1032.601l0.366,0.717c-2.661,2.103-10.682,1.371-12.979-1.267c-0.265-2.246,2.052-3.081,4.292-2.218
	c0.175,0.065,0.983,1.432,0.738,1.43c2.229,0.022,6.365-2.812,7.209,0.625L659.15,1032.601z"/>
<path class="st155" d="M518.06,1008.539c1.272,0.156,1.661,1.217,1.479,2.861C517.382,1012.153,518.241,1009.813,518.06,1008.539z"
	/>
<path class="st155" d="M520.286,1013.551c2.596-0.717,1.042,2.822,1.497,4.3C519.19,1018.567,520.741,1015.029,520.286,1013.551z"/>
<path class="st155" d="M473.52,1016.327c0.507,2.863-2.71,2.1-5.012,2.227C469.447,1017.099,471.683,1016.907,473.52,1016.327z"/>
<path class="st155" d="M786.711,1013.637c1.062,0.613,2.294,1.047,2.198,2.853C787.013,1016.732,787.032,1015.01,786.711,1013.637z"
	/>
<path class="st155" d="M520.353,1018.589c2.09-1.087,2.146,3.192,0.028,2.16C520.372,1020.03,520.362,1019.31,520.353,1018.589z"/>
<path class="st155" d="M712.596,1017.495c0.254-1.374,0.922,0.447,0.738,1.429C713.079,1020.3,712.412,1018.478,712.596,1017.495z"
	/>
<path class="st155" d="M795.512,1025.762c0.96-0.012,1.919-0.024,2.879-0.037c-0.373,0.584-0.735,1.179-0.69,2.169
	c2.42,0.19,6.228-1.043,5.787,2.084l-1.084-0.346l-0.343,1.085c-2.16,0.028-4.319,0.057-6.479,0.085l-0.381-1.795l-1.799,0.382
	c-0.003-0.239-0.006-0.479-0.009-0.722l2.135-0.513l-1.442-1.653c-0.003-0.24-0.006-0.479-0.009-0.722l0.725,0.35L795.512,1025.762z
	"/>
<path class="st155" d="M794.271,1031.899l1.315-0.376c0.389,0.573,0.767,1.158,0.749,2.148c-1.293-0.074-1.507,0.902-2.87,0.759
	l-0.725-0.351l-0.715,0.367c-0.191-0.777-1.441-0.468-1.46-1.418l1.251-0.737l0.164-1.441c0.479-0.007,0.96-0.013,1.438-0.02
	L794.271,1031.899z"/>
<path class="st155" d="M777.526,1038.703l-1.279,0.274c-0.13-3.896,4.899-5.398,7.158-2.975l-1.069,0.854l0.378,1.314
	c-1.271,0.659-1.804,2.035-4.301,1.497L777.526,1038.703z"/>
<path class="st155" d="M593.133,1022.671c1.269-0.246,1.338,4.015-0.682,2.889C592.127,1024.06,592.919,1023.648,593.133,1022.671z"
	/>
<path class="st155" d="M272.079,1029.785c-2.101,1.667-9.403,3.699-11.51,0.873C262.076,1028.081,269.891,1027.375,272.079,1029.785
	z"/>
<path class="st155" d="M731.665,1043.887c-2.267,0.394-3.132,2.16-5.731,2.234c-5.292-3.882-0.377-13.174,0.464-19.446
	c2.693,3.54,2.471,6.874,2.321,12.211c0.241,1.938,3.046,1.251,3.638,2.832l-1.065,0.854L731.665,1043.887z"/>
<path class="st155" d="M734.903,1043.723l-0.378-1.313c0.724-0.009,1.44-0.019,2.16-0.028c2.578-3.013,0.674-13.125,7.066-10.174
	c1.416,9.777-1.82,17.683-9.918,12.37L734.903,1043.723z"/>
<path class="st155" d="M317.558,1038.546c-0.479,0.007-0.959,0.013-1.439,0.02c-0.152-2.52,0.13-4.61,1.364-5.78
	c2.305-0.231,2.66,3.118,1.497,4.3l-1.44,0.019L317.558,1038.546z"/>
<path class="st155" d="M319.354,1038.162l-0.374-1.075c1.854-2.219,4.521-3.65,9.321-3.003c-1.634,3.621-4.155,6.376-9.273,6.602
	c-0.389-0.573-0.767-1.158-0.749-2.148L319.354,1038.162z"/>
<path class="st155" d="M598.306,1032.684c-3.5-0.298-8.939,1.394-9.385-2.036c3.213-1.207,7.414-1.713,10.079-0.133l-1.068,0.854
	L598.306,1032.684z"/>
<path class="st155" d="M603.688,1031.292l-1.091-0.825c0.531-1.197,5.917-1.268,6.479-0.086c0.075,2.682-3.175,2.118-5.733,2.236
	L603.688,1031.292z"/>
<path class="st155" d="M263.554,1038.537c0.56-2.061,1.104-4.136,4.272-3.657c0.019,1.439,0.038,2.88,0.057,4.318
	c-0.72,0.01-1.439,0.019-2.16,0.028l-0.887-0.967L263.554,1038.537z"/>
<path class="st155" d="M428.003,1059.412c-1.063,1.805-2.424,3.323-4.992,3.667c-1.262-1.587-0.849-6.091,2.813-5.078l0.951,0.924
	L428.003,1059.412z"/>
<path class="st155" d="M261.356,1035.688c1.099-0.003,1.649,5.314-0.663,4.327C260.144,1037.822,261.394,1037.382,261.356,1035.688z
	"/>
<path class="st155" d="M484.745,1048.583c-2.805,5.32-4.771,11.46-10.618,13.822c0.675-6.922,4.392-10.883,8.449-14.513l0.888,0.967
	L484.745,1048.583z"/>
<path class="st158" d="M257.074,1038.623c2.668-0.296,4.278,2.691,2.937,4.281C257.531,1043.006,255.48,1040.477,257.074,1038.623z"
	/>
<path class="st155" d="M538.569,1034.911c-0.634,1.514-2.096,2.222-4.288,2.216C534.912,1035.613,536.374,1034.904,538.569,1034.911
	z"/>
<path class="st155" d="M619.29,1040.327c-0.132-3.77,3.029-2.751,1.352-6.498c2.015,1.244,2.044,0.498,3.619,1.392l-0.706,1.088
	l0.734,1.07c-0.859,2.341,2.337,0.52,1.478,2.861c-2.061,1.123-2.252,0.009-5.03,0.787l-0.374-1.074L619.29,1040.327z"/>
<path class="st155" d="M612.732,1034.653c-0.396,2.303,1.381,2.21,0.048,3.601c-0.858-1.063-3.003-0.81-2.918-2.842
	C611.155,1035.486,611.369,1034.51,612.732,1034.653z"/>
<path class="st155" d="M616.332,1034.606c0.683,0.759,2.659,0.189,2.188,2.129C616.656,1037.193,615.926,1036.48,616.332,1034.606z"
	/>
<path class="st155" d="M833.053,1033.188c-2.418,2.827-8.771,3.277-12.93,2.331C821.772,1032.375,830.343,1030.86,833.053,1033.188z
	"/>
<path class="st155" d="M545.788,1036.255c-0.461,0.974-1.521,1.362-2.86,1.477C542.174,1035.578,544.514,1036.437,545.788,1036.255z
	"/>
<path class="st155" d="M633.62,1035.097c2.735-0.572,1.619,4.643-0.672,3.611C633.732,1036.437,632.716,1036.807,633.62,1035.097z"
	/>
<path class="st158" d="M251.343,1040.859c3.711-0.612,3.213,3.895,1.506,5.021C251.766,1044.804,251.648,1042.736,251.343,1040.859z
	"/>
<path class="st155" d="M598.4,1039.882c2.977-1.229,5.793,1.727,7.97,3.497l-1.22,0.52l-0.924,0.95
	c-2.268,0.383-2.56-1.266-5.049-0.654l0.342-1.085l-1.073,0.373c-0.145-0.581-0.73-0.708-0.738-1.429l1.069-0.854L598.4,1039.882z"
	/>
<path class="st155" d="M616.151,1048.169l-0.378-1.314c1.231,0.25,1.352-0.58,1.422-1.456c6.512,2.064,15.112,1.994,19.521,6.222
	c4.519-0.015,9.854-0.874,11.549,2.006c7.35-1.827,13.597-0.815,22.295-1.732l-0.339,1.323l1.091,0.825
	c-2.252,4.649-15.426,1.119-23.732,2.474c-1.086,0.176-1.864,1.44-2.138,1.467c-5.265,0.528-9.95-1.015-12.959,0.171
	c-1.081-0.838-3.229-0.581-2.921-2.842c-1.292-0.076-1.507,0.901-2.87,0.759c-1.792-6.958-3.66-5.558-10.165-6.347l-0.724-0.35
	l-0.716,0.369c-0.003-0.24-0.006-0.479-0.009-0.723L616.151,1048.169z"/>
<path class="st155" d="M616.205,1052.249l0.343-1.085c4.077,0.356,6.128,0.879,7.948,2.056c-0.695,2.97-2.988,1.221-5.722,2.956
	c-0.563-2.098-3.905-1.345-3.656-4.271L616.205,1052.249z"/>
<path class="st155" d="M798.524,1035.804c0.819,1.835,3.884,1.362,6.498,1.353l1.103,1.642l1.058-1.67
	c0.843,0.594,1.942,0.924,3.609,0.673l-0.344,1.325l1.092,0.825c-4.779,2.448-13.656-2.555-15.801,3.089
	c-4.291-0.749-3.229-7.493,0.615-7.929l0.857,1.067L798.524,1035.804z"/>
<path class="st155" d="M816.494,1033.406C819.801,1033.843,815.974,1037.772,816.494,1033.406L816.494,1033.406z"/>
<path class="st155" d="M270.071,1041.333c-2.249,1.999,2.316,3.039,0.066,5.038C266.698,1046.359,266.633,1041.435,270.071,1041.333
	z"/>
<path class="st155" d="M614.94,1038.225c2.061,0.074,1.353,2.985,1.504,5.021c-3.046,0.937-1.956-2.371-3.638-2.832
	C612.871,1039.053,615.182,1039.882,614.94,1038.225z"/>
<path class="st155" d="M608.47,1039.03c1.07,0.361,1.829,1.039,2.898,1.399C610.954,1042.965,608.369,1041.112,608.47,1039.03z"/>
<path class="st155" d="M630.798,1039.455c0.72-0.01,1.44-0.02,2.16-0.028c0.218,1.159-0.668,1.249-0.691,2.169
	c-0.48,0.007-0.961,0.013-1.44,0.02C630.816,1040.896,630.808,1040.176,630.798,1039.455z"/>
<path class="st155" d="M702.792,1038.506c0.228,1.882-0.223,3.102-2.122,2.908C699.353,1040.197,700.853,1038.582,702.792,1038.506z
	"/>
<path class="st155" d="M709.272,1038.42c0.324,1.502-0.469,1.913-0.686,2.891C706.499,1041.207,706.809,1037.911,709.272,1038.42z"
	/>
<path class="st155" d="M271.558,1044.913c2.189-0.059,4.733-0.482,4.349,2.102C274.544,1048.329,271.477,1047.275,271.558,1044.913z
	"/>
<path class="st155" d="M527.146,1042.263c0.101-0.198,1.53-1.352,2.149-0.749C529.801,1042.006,526.482,1043.536,527.146,1042.263z"
	/>
<path class="st155" d="M261.489,1045.766c0.98,0.211,0.621,1.796,0.758,2.872c-1.16,0.217-1.248-0.667-2.169-0.694
	c-0.006-0.479-0.013-0.959-0.019-1.438C260.897,1046.61,261.337,1046.329,261.489,1045.766z"/>
<path class="st155" d="M583.321,1042.962c1.285,0.511,0.121,1.309,0.028,2.16C582.06,1044.609,583.228,1043.813,583.321,1042.962z"
	/>
<path class="st155" d="M634.435,1042.288c-0.613,1.061-0.531,2.794-2.851,2.198C631.34,1042.59,633.063,1042.608,634.435,1042.288z"
	/>
<path class="st155" d="M638.035,1042.24c0.72-0.009,1.438-0.019,2.16-0.028c-0.06,1.837-0.09,3.705-2.112,3.629
	C636.713,1044.484,638.492,1044.531,638.035,1042.24z"/>
<path class="st155" d="M628.694,1043.804c3.358-3.447-0.259,3.987-0.71,0.729C627.866,1043.679,628.356,1044.151,628.694,1043.804z"
	/>
<path class="st155" d="M723.831,1050.47c-1.751,0.664-3.1,1.721-5.74,1.515c-0.618-2.63-0.588-3.347-2.236-5.731
	c-3.191-0.302-3.566,1.037-5.759,0.076C712.712,1039.021,722.704,1045.454,723.831,1050.47z"/>
<path class="st155" d="M643.823,1044.324c0.01,0.721,0.019,1.438,0.028,2.158c-1.501,0.326-1.913-0.467-2.89-0.683
	C641.118,1044.533,642.179,1044.145,643.823,1044.324z"/>
<path class="st155" d="M288.193,1050.454c-0.393,1.749-2.697,1.639-4.291,2.217C283.148,1049.716,286.814,1049.196,288.193,1050.454
	z"/>
<path class="st155" d="M635.961,1048.749c-0.859-1.063-3.003-0.811-2.918-2.843C635.99,1044.605,637.58,1046.155,635.961,1048.749z"
	/>
<path class="st155" d="M645.282,1045.745c0.479-0.007,0.96-0.013,1.438-0.02c0.006,0.479,0.013,0.96,0.019,1.438
	c-0.479,0.007-0.96,0.013-1.437,0.02C645.295,1046.705,645.289,1046.226,645.282,1045.745z"/>
<path class="st155" d="M582.666,1048.01c0.131-0.075,2.065-0.12,2.16-0.028C586.175,1049.294,580.483,1049.314,582.666,1048.01z"/>
<path class="st155" d="M725.28,1051.171c0.103-0.845,1.305-0.624,2.15-0.749C726.896,1052.358,727.229,1053.298,725.28,1051.171z"/>
<path class="st155" d="M744.719,1050.915c1.271,0.155,1.66,1.216,1.478,2.86C745.224,1053.314,744.836,1052.255,744.719,1050.915z"
	/>
<path class="st155" d="M737.528,1051.729c2.738-0.017,2.672,3.715-0.682,2.89C736.522,1053.116,737.314,1052.706,737.528,1051.729z"
	/>
<path class="st155" d="M775.324,1023.868c0.665,3.197-1.052,2.986,0.81,6.469c-0.935,0.936-2.643,0.958-3.604,0.047l0.346-1.085
	l-1.084-0.345c-0.01-0.72-0.02-1.438-0.029-2.158l1.429-0.74l-1.447-0.701c0.611-0.59,0.401-1.979,1.409-2.179l0.857,1.069
	L775.324,1023.868z"/>
<path class="st155" d="M753.471,1032.077l0.37,0.716c-0.965,0.72-1.414,1.94-2.122,2.909c-2.376-0.406-2.105-7.397-0.104-7.92
	c2.245-0.359,2.322,1.507,2.207,3.572L753.471,1032.077z"/>
<path class="st155" d="M759.571,1030.557l-1.438,0.02c1.486-3.717-3.675-0.604-2.931-3.563l1.44-0.02l-0.02-1.437
	c2.738,1.186,6.461-2.439,6.489,0.634l0.366,0.716l0.37,0.717c-0.833,1.087-2.98,0.889-2.843,2.919L759.571,1030.557
	L759.571,1030.557z"/>
<path class="st155" d="M755.398,1014.41l-1.075,0.374c-0.01-0.721-0.02-1.439-0.028-2.16c-0.716-1.772-2.752,1.028-5.04,0.066
	l-1.097-1.245l-1.063,1.273c-0.835,0.128-1.28-0.142-1.446-0.701l1.068-0.854l-0.378-1.315c8.866-1.388,18.112-1.794,27.358-0.36
	l-0.346,1.084l0.374,1.075c-7.501-0.734-10.388,3.091-17.951,3.838L755.398,1014.41z"/>
<path class="st155" d="M748.189,1013.785l1.075-0.373c3.843,5.445-10.36,28.026-19.246,14.653c1.021,0.05,2.04,0.092,2.148-0.749
	l0.727,0.35l0.725,0.349c0.61-0.141,0.683,0.272,0.729,0.713c1.2-0.017,2.4-0.032,3.604-0.048c2.381-1.707,1.833-6.268,2.756-9.396
	c-1.051-0.381-3.711,0.891-3.612-0.673c-0.508-2.864,2.711-2.1,5.011-2.227c1.08,0.839,1.156,2.705,2.208,3.572
	c2.143-2.87-1.46-4.467,2.794-6.516L748.189,1013.785z"/>
<path class="st155" d="M733.231,1026.224l-1.072,0.373c-1.562,0.142-0.359-2.549-0.77-3.592l1.068-0.854l-0.373-1.314
	c1.69-0.246,1.306-2.518,3.57-2.207c1.314,3.582-1.42,5.125-2.046,8.669L733.231,1026.224z"/>
<path class="st155" d="M731.013,1021.692l0.374,1.314c-2.321-0.604-0.955,2.386-2.852,2.198c-2.022-1.621-2.607-0.193-5.059-1.373
	c-0.061-2.189,1.483-2.82,2.104-4.348l1.084,0.346l-0.374-1.075c0.948-2.9,2.449,1.69,4.301-1.497l0.521,1.219l0.949,0.926
	c0.007,0.479,0.013,0.959,0.02,1.438L731.013,1021.692z"/>
<path d="M723.466,1017.28l-0.053,1.513l-0.053-1.537l0.734-1.352c0.611-0.141,0.687,0.271,0.733,0.71L723.466,1017.28z"/>
<path class="st155" d="M721.411,1019.075l1.282-0.273c-0.296,1.844-0.966,3.325-2.103,4.348l-1.274-1.063l-1.615,0.38
	c0.697-2.176-1.621-1.253-2.898-1.4l0.342-1.085l-1.073,0.373c-0.012-1.907-0.454-4.233,1.382-4.337
	c-0.305,2.512,4.179-0.629,5.068,2.093L721.411,1019.075z"/>
<path class="st155" d="M720.091,1030.717l1.312-0.375c0.031,2.397,0.063,4.8,0.095,7.198c-0.946,0.95-2.167,0.47-2.889-0.683
	l-0.372-1.075l-0.374-1.075c2.062-0.125-0.687-4.933,1.371-5.059L720.091,1030.717z"/>
<path class="st155" d="M692.854,1035.758l-0.161,1.44c-1.794,1.42,3.883,1.315,2.227,5.011c-2.969,0.129-4.525-1.192-7.929-0.617
	c-0.575-2.689,0.765-3.518,2.832-3.637c-0.324-1.613-3.82,0.029-4.339-1.382l0.343-1.325l-1.091-0.824
	c-0.007-0.479-0.013-0.96-0.02-1.438l2.525,0.325l2.525,0.327c-0.092,2.037,4.429-0.659,4.339,1.381L692.854,1035.758z"/>
<path class="st155" d="M678.631,1035.586l0.374,1.074c-0.866,2.236-1.053,5.132-1.336,7.938c-2.482,0.602-3.049-0.763-4.334-1.381
	l0.342-1.085l-0.371-1.075c0.011-0.701,0.874-0.572,1.428-0.74c-0.016-1.198-0.031-2.397-0.047-3.6l1.923-0.301l-0.508-1.878
	c-0.129-0.837,0.139-1.283,0.7-1.448l0.375,1.075l0.342-1.085c0.784,0.168,0.507,1.427,1.459,1.42L678.631,1035.586z"/>
<path class="st155" d="M629.615,1031.671l0.377,1.313c-3.86-0.418-9.572,1.07-12.248-0.56l1.425-1.098l-1.453-1.061
	c0.42-1.96-0.989-5.702,0.634-6.489l0.854,1.069l1.315-0.375c1.37,1.354-0.41,1.309,0.047,3.6c1.813,2.517,7.452,1.105,10.117,2.747
	L629.615,1031.671z"/>
<path class="st155" d="M619.627,1020.521l-1.315,0.377c0.461-6.956-1.443-16.314,4.102-16.616
	c-0.799,5.617-0.35,12.452-1.932,17.305L619.627,1020.521z"/>
<path class="st155" d="M672.868,1035.42l0.377,1.314c-1.388,1.338-4.031-0.147-5.771-0.646c1.989-3.983,1.234-10.642,1.222-16.579
	c1.693-0.245,1.307-2.518,3.571-2.206l0.854,1.067l1.315-0.375c0.01,0.721,0.019,1.438,0.028,2.159l0.37,0.716l0.366,0.717
	c-0.237,0.003-0.479,0.006-0.72,0.009c1.011,5.192-2.876,8.798-0.549,12.969L672.868,1035.42z"/>
<path class="st155" d="M676.183,1013.774l1.069-0.854c0.723-0.01,1.44-0.019,2.16-0.028l0.737,1.342l0.705-1.36
	c2.156-0.029,4.316-0.058,6.479-0.086l1.097,1.246l1.063-1.274c2.778-0.18,5.305-0.096,7.209,0.626l-0.337,1.805l1.805,0.336
	c0.009,0.721,0.019,1.438,0.028,2.16l-2.038,0.146l-1.542,1.34c-0.479,0.007-0.96,0.013-1.44,0.02l0.342-1.324l-1.091-0.826
	c2.698-3.482-13.559,0.369-16.587-1.941L676.183,1013.774z"/>
<path class="st155" d="M677.427,998.878l-1.085-0.346c0.605-2.635-1.321-3.817-0.066-5.039c2.839-0.823,3.649,1.142,7.19-0.817
	l-0.343,1.325l1.091,0.826c-0.146,1.989-2.654,1.68-3.562,2.928c2.063,0.071-0.558,4.948,1.504,5.02l-0.342,1.085l1.081,0.345
	c0.218,1.16-0.664,1.249-0.691,2.17l-1.085-0.346l0.375,1.075c-0.48,0.007-0.96,0.013-1.44,0.02l-1.1-1.425l-1.096-1.426
	c-0.431-1.26,0.813-4.24-0.779-4.31L677.427,998.878z"/>
<path class="st155" d="M686.374,994.798l-0.02-1.438c2.342,0.86,0.52-2.337,2.861-1.477c2.477,0.133,3.165,2.102,3.656,4.271
	l-1.287-0.241l-0.861,0.991c-0.238,0.003-0.479,0.006-0.722,0.01l-1.396-0.549l-0.754,1.296c-0.781-0.168-0.505-1.426-1.457-1.421
	l-0.374-1.075l-1.075,0.374c-0.003-0.239-0.007-0.479-0.01-0.721L686.374,994.798L686.374,994.798z"/>
<path class="st155" d="M693.249,997.469l-0.377-1.314c3.549-0.722,4.897,0.813,6.508,2.074c-0.244,7.343-4.116,11.152-9.908,13.092
	l-0.374-1.075l-1.075,0.373c-0.549-2.191,0.701-2.633,0.666-4.328c-2.915,0.242-1.236,4.956-3.527,5.808
	c-1.77,0.119-3.467,0.154-4.325-0.663l0.347-0.727l-0.367-0.714c-0.077-1.021-0.146-2.037,0.69-2.17l0.01,0.721l0.72-0.01
	c2.431-1.183,1.145-7.347,4.973-5.105c-0.621-2.027,0.99-1.879,0.673-3.61l1.325,0.342l0.825-1.092
	c1.023,0.05,2.04,0.093,2.15-0.748L693.249,997.469z"/>
<path class="st155" d="M688.406,1012.414l1.085,0.344L688.406,1012.414l-1.075,0.372c-0.128-0.834,0.143-1.282,0.7-1.448
	L688.406,1012.414z"/>
<path class="st155" d="M712.568,1006.335l-0.825,1.091c-1.36-1.283-2.677-2.608-2.236-5.73c0.889-1.74,5.682,0.321,6.459-1.526
	l1.085,0.347l1.085,0.344c0.61-0.141,0.685,0.271,0.729,0.712l-0.561,2.102l-1.548,1.524c-0.949-0.241-1.151-1.252-2.179-1.41
	c-0.555,0.65-0.753,1.637-0.682,2.891L712.568,1006.335z"/>
<path class="st155" d="M731.622,1013.283l-0.375-1.075c2.315-1.976,4.1-1.019,5.769,0.645l-0.342,1.085l0.37,1.075
	c0.135,2.263-1.813,2.499-3.561,2.927l-0.948-0.924l-1.232-0.487c0.491-0.587,1.095-1.987-0.028-2.158L731.622,1013.283z"/>
<path class="st155" d="M677.002,1021.205l-0.375-1.075c1.786-0.129,2.993,0.332,3.618,1.392l-1.075,0.373l0.375,1.075
	c-1.721,1.271,2.248,7.135-2.065,7.227l-0.371-1.074l-1.075,0.372c-1.976-2.28,0.492-4.779-0.104-7.919L677.002,1021.205z"/>
<path class="st155" d="M709.281,1030.14l-0.825,1.09c-1.126-3.011-1.78-11.668,0.541-13.688c-0.006,1.84,0.545,0.87,1.448,0.7
	c0.054,4.079,0.107,8.159,0.161,12.238L709.281,1030.14z"/>
<path class="st155" d="M394.088,999.373c2.235-1.475,4.276,0.541,6.461-1.523c-0.065,1.804-1.344,2.271,0.758,2.871
	c0.124-0.615-0.29-0.677-0.729-0.712c0.24-1.014,1.267-0.079,1.447,0.702c1.743-0.748-1.453-3.166,2.122-2.909
	c0.449,0.666,1.709,2.634-0.691,2.169c1.264,1.212,1.884-0.137,4.327,0.665l0.728,0.349l0.715-0.368
	c0.198,2.82,1.238,3.804,2.255,7.169c-1.369,0.326-1.276,2.075-3.583,1.487l-1.083-0.346l-1.075,0.374
	c-0.003-0.239-0.006-0.479-0.009-0.721c-2.942,0.479-3.559-1.83-5.078-2.813c-1.297,4.564-5.283-1.051-8.611,2.272
	c0.128,0.835-0.142,1.282-0.701,1.447l-0.374-1.074l-1.085-0.345c-4.933,0.241-2.376-6.388-0.824-7.91l1.084,0.345l-0.374-1.074
	c0.72-0.01,1.44-0.02,2.16-0.028l-0.346,1.083l1.084,0.348c0.181,1.271-0.678,3.613,1.478,2.859
	c0.285-1.508-0.518-1.899-0.758-2.869l1.075-0.376L394.088,999.373z"/>
<path class="st155" d="M408.852,999.538l-1.075,0.374c-0.477-0.725-1.663-0.724-1.466-2.142c1.731-0.316,1.58,1.294,3.609,0.674
	c0.077,1.021,0.146,2.037-0.691,2.169L408.852,999.538z"/>
<path class="st155" d="M303.927,1042.326c-0.006-0.479-0.013-0.96-0.019-1.439l1.805,0.335l1.804,0.336
	c0.24-0.003,0.48-0.006,0.72-0.01l-0.346,1.084l0.374,1.075c-0.866,1.035-2.726,1.673-3.59,0.769l0.343-1.324L303.927,1042.326z"/>
<path class="st155" d="M300.771,1030.485l-1.315,0.378c-1.993-1.008-3.765-0.016-7.208-0.628c-0.685-4.457,5.927-1.808,7.872-3.704
	l1.084,0.345l1.084,0.344c0.61-0.14,0.683,0.271,0.729,0.713l-1.785,1.104l1.814,1.054c-0.311,0.647-0.615,1.297-1.421,1.459
	L300.771,1030.485z"/>
<path class="st155" d="M321.108,1007.416l-0.377-1.314c0.48-0.006,0.96-0.012,1.44-0.019l-0.184,1.699l1.652,0.441
	c-0.015,1.23,0.56,1.857,1.468,2.141c-0.955,4.044-3.354,6.684-2.718,12.277c0.48-0.007,0.96-0.013,1.44-0.02l-0.339,1.624
	l1.097,1.245c0.006,0.479,0.013,0.961,0.019,1.438l-1.084-0.344l-0.346,1.084c-0.412,1.221-5.195,3.95-3.59,0.769l1.075-0.374
	l-0.374-1.075c-0.857-1.063-0.934-2.93-2.208-3.571c-0.465,1.679-2.367,1.959-2.832,3.638l-0.725-0.349l-0.724-0.349
	c-1.375-0.292-1.83-1.528-3.619-1.392l0.343-1.323l-1.091-0.825c2.132-3.375,2.6-8.365,4.159-12.297l1.324,0.342l0.826-1.091
	c2.802,3.478-2.321,9.072,0.162,12.239c1.285-4.311,6.603-8.104,4.139-13.736L321.108,1007.416z"/>
<path class="st155" d="M326.142,1006.869l-1.091-0.825c1.184-1.403,6.626-1.007,7.92-0.104l-0.343,1.324l1.091,0.826
	c2.013,2.243-1.138,5.445,0.815,7.188c0.249-2.6,0.869-4.839,1.345-7.217c-2.16,0.028-1.817-1.296-1.817-1.296l-1.091-0.826
	c0.289-1.613,3.543-0.339,5.03-0.787c2.09,6.642-1.188,13.926-1.894,20.187l-1.084-0.345l-0.346,1.085
	c-1.741-1.269-5.068,1.321-5.788-2.084c0.389-2.259,3.276-5.771,1.335-7.938l-0.887-0.966l-1.283,0.272
	c0.146-2.938,2.637-3.59,2.065-7.226c-1.44,0.019-2.88,0.038-4.32,0.057L326.142,1006.869z"/>
<path class="st155" d="M309.088,1024.136l1.091,0.827c-0.722,2.727-3.229,2.153-5.03,0.787c0.458-0.737,1.645-0.767,1.411-2.179
	l1.325,0.342l0.826-1.092c0.24-0.003,0.48-0.006,0.72-0.009L309.088,1024.136z"/>
<path class="st155" d="M297.873,1047.326l1.091,0.827c-0.676,1.474-2.745,1.591-5.021,1.504c0.42-2.195,1.551-3.701,4.272-3.657
	L297.873,1047.326z"/>
<path class="st155" d="M602.359,1012.468c-0.11-2.95-0.22-5.897,0.615-7.929c2.14-0.967,2.93,4.693,3.612,0.673
	c1.901,1.901,0.228,6.346,0.114,8.641c-0.584-0.373-1.179-0.736-2.169-0.692l-0.854-1.068L602.359,1012.468z"/>
<path class="st155" d="M556.955,1009.467c-0.326-1.063-0.917,0.296-2.155,0.028c-0.632-2.743,3.459-0.896,2.832-3.639
	c3.135,0.944-0.02,2.967-0.667,4.329C556.146,1010.06,556.556,1009.471,556.955,1009.467z"/>
<path class="st158" d="M247.63,1032.269c1.97,0.497,1.43-1.451,2.86-1.477l0.375,1.073l1.075-0.371
	c2.824-1.277,2.851-5.277,5.674-6.556l0.854,1.069l1.315-0.377c-1.853,5.777-4.885,10.405-12.097,10.961l-0.948-0.925l-1.23-0.489
	c0.311-0.646,0.615-1.297,1.421-1.459l1.075-0.371L247.63,1032.269z"/>
<path class="st158" d="M280.918,1044.789c-4.102-0.566-8.33-4.369-6.594-8.555l1.084,0.344l0.346-1.085
	c1.976,2.108,5.587,2.531,5.134,7.134l-0.346,1.083L280.918,1044.789z"/>
<path class="st155" d="M282.428,1022.809l-1.084-0.346c-0.89-0.302-1.491-0.901-1.468-2.14l1.621,0.069l0.52-1.538
	c0.48-0.006,0.96-0.013,1.44-0.019l-0.346,1.085l1.085,0.346c0.324,1.5-0.469,1.911-0.682,2.889L282.428,1022.809z"/>
<path class="st155" d="M286.795,1026.352l1.075-0.374c1.501-0.324,1.914,0.469,2.89,0.683c-0.38,1.052,0.89,3.712-0.673,3.611
	l-0.374-1.075l-1.075,0.371c-0.48,0.006-0.96,0.013-1.44,0.019l-0.374-1.075l-1.075,0.374c-0.927-0.842-0.341-2.717,0.672-3.611
	L286.795,1026.352z"/>
<path class="st155" d="M274.187,1053.158l1.085,0.345c-0.006,2.591-6.807,3.722-5.769-0.645c2.342,0.387,3.344-0.534,5.03-0.788
	L274.187,1053.158z"/>
<path class="st155" d="M580.269,1030.04c0.24-0.003,0.48-0.006,0.724-0.01l1.085,0.346l0.342-1.085
	c1.43,0.964,4.122,0.635,5.781,1.363c0.232,2.443-7.435,3.687-7.912,0.824l0.351-0.725L580.269,1030.04z"/>
<path class="st155" d="M530.679,1037.175c2.091,0.375-1.089,1.138-0.691,2.17C527.592,1038.673,530.772,1037.91,530.679,1037.175z"
	/>
<path class="st155" d="M419.419,1009.12c-0.601-3.43,1.065-4.649,0.615-7.929c-0.584-0.129-0.727-0.713-1.446-0.701
	c0.873,0.936-0.939,3.261-1.374,5.06l-0.854-1.069l-1.315,0.376c-0.268-3.578,0.027-6.605,0.599-9.367l1.067-0.856l-0.375-1.313
	c2.16-0.028,4.319-0.057,6.478-0.085l-0.339,1.323l1.091,0.827c-0.033,5.183-0.03,10.394-1.979,13.707l-1.084-0.345L419.419,1009.12
	z"/>
<path class="st155" d="M345.431,995.335l0.375,1.075c-0.235,3.684-1.261,9.124-1.97,14.426c-0.727,5.433-0.445,11.41-2.68,15.155
	c-5.05-3.454-0.737-10.856-0.209-15.839c0.515-4.863-0.81-9.207,1.269-12.977c-2.878-2.172-12.41,1.169-12.268-1.998
	c-0.404-3.745,5.812-2.024,9.331-2.283c2.375-0.177,4.099-0.965,5.741-1.516l0.374,1.075l0.375,1.075
	c0.003,0.239,0.006,0.479,0.009,0.721L345.431,995.335z"/>
<path class="st155" d="M354.692,987.771l-1.091-0.826c3.708-2.875,8.685-1.961,14.38-1.629l-0.342,1.324l1.091,0.826
	c-0.129,0.585-0.713,0.728-0.701,1.447l-1.069,0.855l0.378,1.314c-3.793-1.215-10.184,0.238-12.987-1.989L354.692,987.771z"/>
<path class="st155" d="M504.513,991.317l-0.378-1.315c2.316-0.188,3.063,1.232,5.769,0.645l-0.342,1.085l1.075-0.373
	c6.475,0.647,13.586,0.64,16.624,4.82c2.148,0.164,4.357-2.073,5.05,0.654l0.374,1.075l0.371,1.075
	c-1.035,0.176-0.223,2.15-1.409,2.177c-6.212-4.08-19.715-0.677-24.563-6.156c-0.96,0.013-1.92,0.025-2.88,0.038l0.343-1.324
	l-1.091-0.825c-0.003-0.24-0.007-0.479-0.01-0.722L504.513,991.317z"/>
<path class="st155" d="M510.61,989.556l-0.719,0.369c-0.324-1.502,0.47-1.912,0.686-2.891c0.979,0.212,0.621,1.797,0.758,2.871
	L510.61,989.556z"/>
<path class="st155" d="M366.902,1012.694c1.509,0.284,1.9-0.52,2.87-0.759l0.374,1.075l1.085,0.344
	c0.89,0.301,1.491,0.901,1.468,2.142c-1.646,0.517-4.639,0.528-6.489-0.636l1.069-0.854L366.902,1012.694z"/>
<path class="st155" d="M355.042,1014.29l0.369,0.714c-1.695,0.246-1.306,2.518-3.571,2.207c-0.936-0.933-0.958-2.641-0.047-3.6
	l1.325,0.342l0.825-1.091c0.61-0.142,0.683,0.271,0.729,0.711L355.042,1014.29z"/>
<path class="st155" d="M629.13,1022.196c-0.103,0.845-1.305,0.623-2.146,0.748c-3.699-4.136,0.662-12.341-0.942-16.55
	c0.724-0.01,1.44-0.019,2.16-0.028l-0.345,1.085l1.083,0.345c0.432,1.26-0.814,4.239,0.78,4.31l-0.346,1.084l1.075-0.374
	c0.28,3.353-0.487,5.687-1.336,7.94l-1.068,0.732L629.13,1022.196z"/>
<path class="st155" d="M516.045,1019.366c-0.593,0.845-0.924,1.944-0.676,3.611c1.548,1.331,5.307,0.389,6.509,2.074
	c-0.16,1.27-1.218,1.659-2.861,1.477c0.668,1.5,4.066,0.202,4.345,2.103c-1.299,2.729-5.479,1.462-7.9,1.542
	c-7.088,0.243-15.021-0.888-22.326-0.426l0.342-1.323l-1.092-0.827c3.071-6.15,11.09-3.112,19.392-3.856
	c2.053-0.401-1.176-1.049-1.459-1.42c0.212-2.637,2.422-3.327,4.263-4.376l0.374,1.074L516.045,1019.366z"/>
<path class="st155" d="M469.723,1028.738l0.378,1.314c-16.404,0.658-37.305,1.949-56.878,0.75l0.346-1.085l-1.084-0.344
	c2.941-1.873,4.737-4.862,6.375-8.005c2.592-0.717,1.041,2.822,1.494,4.3c16.187-0.664,32.36-0.476,50.387-1.384l-0.343,1.323
	l1.091,0.826c-0.129,0.585-0.712,0.727-0.701,1.448L469.723,1028.738z"/>
<path class="st155" d="M411.429,1031.188l1.085,0.344c1.051,0.305-0.065,0.634,0.019,1.439c-5.577,0.967-15.08-1.896-17.25,2.387
	c-0.89-0.302-1.491-0.902-1.468-2.14c-3.38,1.209-4.946,4.183-7.114,6.573l-1.084-0.345l-0.346,1.085
	c-0.785-0.168-0.507-1.426-1.459-1.42l0.343-1.323l-1.091-0.825c0.834-2.27,2.875-3.361,4.253-5.098
	c-3.5,0.675-4.789-0.921-7.218-1.344l0.342-1.324l-1.091-0.825c3.869-1.979,11.624,1.824,15.1-1.638l-0.24,1.288l0.988,0.862
	c2.924,3.077,11.353,0.504,16.578,1.22L411.429,1031.188z"/>
<path class="st155" d="M386.365,1041.598l0.346-1.082c2.109-0.079,1.542-2.764,4.291-2.217c4.691,5.315-3.528,12.218-7.805,8.745
	l0.342-1.325l-1.091-0.825c-0.336-2.459,2.127-2.192,2.833-3.64L386.365,1041.598z"/>
<path class="st155" d="M377.619,1051.794l1.315-0.375c0.918,1.732,2.349,2.939,2.946,5.001c-1.194,2.878-6.191,6.33-9.321,3.003
	c-0.024-2.628,2.003-3.259,2.813-5.077c-0.61,0.142-0.682-0.27-0.729-0.711l1.075-0.374l-0.374-1.075
	c0.311-0.645,0.615-1.294,1.421-1.456L377.619,1051.794z"/>
<path class="st155" d="M357.489,1054.22l1.315-0.374c0.003,0.238,0.006,0.479,0.009,0.72l-1.68,0.66l0.989,1.509
	c0.003,0.239,0.006,0.479,0.009,0.72l-1.069,0.855l0.377,1.314c-2.482,0.602-3.05-0.762-4.338-1.382
	c-0.239-3.075,2.041-3.697,3.533-5.086L357.489,1054.22z"/>
<path class="st155" d="M367.839,1056.484l-0.377-1.313c1.773-0.12,3.468-0.154,4.329,0.663c0.675,3.738-1.063,5.122-4.253,5.096
	l0.342-1.322l-1.091-0.827c-0.006-0.479-0.013-0.96-0.019-1.439L367.839,1056.484z"/>
<path class="st155" d="M375.896,1030.456l-1.558,0.14c-2.43-0.423-6.675,1.017-7.929-0.615l1.069-0.856l-0.377-1.313
	c4.353,0.507,8.915-2.479,11.529,0.569l-0.343,1.322l1.091,0.827c-0.596,1.077-2.304,1.072-3.581,1.485L375.896,1030.456z"/>
<path class="st155" d="M488.646,1025.849l-1.315,0.377c-0.046-5.258-0.485-10.896,1.98-13.707l0.854,1.068l1.315-0.378
	c0.452,4.142,0.751,9.934-1.979,13.709L488.646,1025.849z"/>
<path class="st155" d="M491.27,1006.372l-1.315,0.377c0.262-4.244-1.348-10.314,3.47-10.127c0.746,2.209,0.163,8.473-1.298,10.818
	L491.27,1006.372z"/>
<path class="st155" d="M377.05,1045.082l-1.091-0.827c-0.141-0.609,0.272-0.684,0.71-0.729l0.854,1.068l1.315-0.377
	c1.57,1.466,0.348,2.725-2.132,2.188L377.05,1045.082z"/>
<g>
	<path class="st19" d="M522.781,984.354c-5.298,3.346-13.251-0.207-19.573,0.757c-1.153-1.622-0.166-3.715,0.08-5.488
		c0.235-0.282,0.548-0.62,0.799-0.937c6.064-0.602,12.092,0.988,18.267,0.275"/>
	<path class="st118" d="M619.768,994.837c14.668,1.604,33.031-5.211,44.963,5.646"/>
	<path class="st108" d="M588.54,1001.939c0.294,7.69-1.208,15.438-0.773,23.324"/>
	<path class="st80" d="M573.79,1002.764c4.665-1.501,9.862-0.618,14.751-0.824"/>
	<path class="st161" d="M588.54,1001.939c19.986,0.456,39.613-1.467,59.397-0.273"/>
	<path class="st34" d="M590.948,993.537c-13.719-2.211-28.138-0.692-42.131-0.524"/>
	<path class="st132" d="M441.235,998.031c2.147-0.19,4.415,0.314,6.474-0.444"/>
	<path class="st72" d="M557.152,997.103c10.36-1.015,20.519,0.996,30.959-0.289"/>
	<path class="st204" d="M559.348,999.714c-0.719,0.053-1.444-0.31-2.17-0.692"/>
	<path class="st83" d="M540.62,999.241c1.823,0.716,3.851-0.655,5.763,0.163"/>
	<path class="st96" d="M445.763,1013.693c-1.648-0.311-3.408-0.338-5.04,0.066"/>
	<path class="st188" d="M434.424,1000.281c-1.347-1.04-3.854,0.646-4.694-1.019"/>
	<path class="st100" d="M434.424,1000.281c2.408-0.72,5.542-0.694,7.573,0.98"/>
	<path class="st174" d="M441.997,1001.262c2.863,1.94,6.466-0.654,9.309,0.76c0.655,1.483,0.641,3.344,0.128,4.876"/>
	<path class="st24" d="M434.424,1000.281c-0.015,0.469,0.18,1.164,0.382,1.796"/>
	<path class="st173" d="M435.651,1011.426c0.178-1.826,1.217-3.213,1.371-5.058"/>
	<path class="st130" d="M441.997,1001.262c-1.883,2.653-4.686,0.345-7.186,0.815"/>
	<path class="st134" d="M434.811,1002.077c-1.564,0.17-2.588,1.52-3.082,2.92"/>
	<path class="st25" d="M483.571,1005.034c0.142-0.724,0.273-1.443,0.45-2.167"/>
	<path class="st152" d="M463.951,1000.612c3.938-0.929,7.87-0.602,11.869-0.877"/>
	<path class="st123" d="M726.786,1001.467c0.637-0.705,0.597-1.674,0.682-2.891"/>
	<path class="st123" d="M723.521,999.709c0.168-0.461,0.551-0.897,1.419-1.458"/>
	<path class="st186" d="M465.063,1003.117c4.344,0.214,8.646-1.178,12.967-0.127c1.702,2.891,0.602,6.696-0.184,9.735
		c-3.692,1.466-7.99,0.419-11.926,0.82"/>
	<path class="st151" d="M425.958,1013.354c-0.306-2.588,0.246-5.064,0.62-7.57"/>
	<path class="st107" d="M462.289,1011.075c0.56-1.818,0.87-3.737,0.644-5.77"/>
	<path class="st26" d="M519.81,1004.556c-0.09,0.124-0.176,0.245-0.262,0.368c-0.026,0.654,1.437,0.6,1.871,0.852
		c0.415,1.452,0.254,3.014,0.263,4.516"/>
	<path class="st166" d="M534.917,1003.636c3.446,0.422,7.635-1.071,10.587,0.658c-1.045,8.327-0.426,16.856-1.605,25.146"/>
	<path class="st144" d="M440.662,1009.199c0.236-0.729,0.635-1.401,0.899-2.069"/>
	<path class="st127" d="M524.897,1008.089c0.194-0.751,0.295-1.336,0.328-2.165"/>
	<path class="st6" d="M548.871,1024.335c-0.011-4.117,0.592-8.166,0.799-12.251"/>
	<path class="st129" d="M459.514,1019.032c0.061-1.56-1.833-0.873-2.756-1.075c-1.842-2.482-1.113-5.996-1.337-8.952"/>
	<path class="st128" d="M642.529,1028.14c0.093-2.876-0.355-5.799,0.126-8.644"/>
	<path class="st20" d="M558.164,1019.173c0.258,0.369,0.238,0.69,0.291,0.988c0.066,0.217,0.345,0.524,0.634,0.84
		c6.96,0.883,13.821-0.328,20.699-0.193"/>
	<path class="st93" d="M565.363,1019.078c4.618,0.138,9.097-1.286,13.677-0.541"/>
	<path class="st71" d="M558.078,1012.692c0.071-0.171,0.142-0.342,0.215-0.512c4.04-1.065,8.658,0.625,11.988-2.993
		c4.406,2.694,13.709,0.939,10.911,8.961"/>
	<path class="st29" d="M659.15,1032.601c0.116-0.035,0.237-0.072,0.356-0.108c5.188-5.668,2.001-14.718,3.191-21.898"/>
	<path class="st79" d="M648.905,1020.135c-0.28-3.718-0.489-7.514,0.209-11.162"/>
	<path class="st152" d="M500.181,1017.775c-0.058-1.7,0.18-3.425,0.656-5.049"/>
	<path class="st125" d="M517.838,1018.983c-0.224-1.482,0.224-2.876,0.3-4.323"/>
	<path class="st114" d="M466.004,1019.667c0.037-0.479,0.183-0.963,0.338-1.444"/>
	<path class="st145" d="M424.967,1020.208c0.132-0.237,0.263-0.478,0.393-0.714c2.646-1.617,5.524,0.171,8.233-0.118"/>
	<path class="st100" d="M446.569,1020.283c1.064-0.15,1.799-1.032,2.865-1.116"/>
	<path class="st123" d="M803.853,1030.332c-0.452,0.482-0.892,0.07-1.449-0.701"/>
	<path class="st17" d="M784.263,1039.592c-0.552,0.868-0.747,1.652-1.376,2.854c-1.509,1.125-4.208,1.634-5.569,0.16
		c0.036-0.69-0.012-2.58,0.209-3.9"/>
	<path class="st77" d="M784.263,1039.592c3.916,1.241,8.377-1.178,8.479-5.51"/>
	<path class="st113" d="M791.817,1032.292c-0.188-0.164-0.377-0.329-0.565-0.492c-0.771-1.43,0.621-2.911,1.639-3.79
		c0.674-0.14,1.646-0.004,2.631,0.146"/>
	<path class="st106" d="M794.797,1026.132c-0.428-2.196-1.367-4.39-3.079-5.96"/>
	<path class="st83" d="M794.271,1031.899c0.134-0.962,0.448-1.927,0.924-2.893"/>
	<path class="st164" d="M784.263,1039.592c-0.036-0.471-0.101-1.093-0.249-1.655c-0.642-0.578-1.134-0.756-1.681-1.081"/>
	<path class="st149" d="M731.288,1042.57c1.193,0.417,2.415,0.739,3.615,1.152"/>
	<path class="st64" d="M319.354,1038.162c-0.546-0.273-1.156-0.633-1.814-1.057"/>
	<path class="st43" d="M597.929,1031.368c1.882,0.316,3.89,0.341,5.759-0.076"/>
	<path class="st120" d="M264.326,1042.488c0.387-1.386,0.186-2.832,0.51-4.226"/>
	<path class="st59" d="M426.773,1058.923c5.401-8.209,10.412-16.847,16.744-24.198"/>
	<path class="st3" d="M812.496,1030.579c5.751,0.688,10.866-2.102,16.548-1.299"/>
	<path class="st58" d="M483.464,1048.855c2.521-4.754,5.493-8.969,7.945-13.682"/>
	<path class="st180" d="M519.81,1059.281c3.78-6.681,4.134-15.149,5.265-22.784c1.17-0.324,2.948,0.277,3.416-1.451"/>
	<path class="st82" d="M409.374,1039.137c-4.634,7.322-10.991,13.593-16.292,20.374"/>
	<path class="st102" d="M623.556,1036.312c1.439,0.002,2.368,0.392,3.249,0.677"/>
	<path class="st24" d="M620.022,1041.397c0.037-0.479,0.187-0.961,0.338-1.443"/>
	<path class="st25" d="M614.088,1047.752c0.65,0.12,1.365,0.25,2.066,0.416"/>
	<path class="st167" d="M670.223,1053.218c1.398-0.554,2.897,0.04,4.313-0.298"/>
	<path class="st24" d="M615.826,1050.813c0.049,0.479,0.212,0.958,0.379,1.435"/>
	<path class="st159" d="M612.813,1049.895c-1.021-0.05-2.089,0.424-3.109,0.613c-1.223-0.38-1.307-2.319-2.91-2.096"/>
	<path class="st187" d="M612.813,1049.895c0.416-0.832,0.957-1.639,1.274-2.143"/>
	<path class="st10" d="M614.088,1047.752c-2.521-2.358-6.094-2.258-8.938-3.855"/>
	<path class="st165" d="M597.945,1046.369c1.519,1.264,3.495-1.673,4.505,0.3"/>
	<path class="st181" d="M593.83,1048.225c1.142-1.162,3.195-0.478,4.115-1.856"/>
	<path class="st103" d="M597.945,1046.369c-0.155-0.494-0.125-0.993-0.076-1.403c0.515-0.259,0.946-1.021,1.653-1.856"/>
	<path class="st203" d="M592.249,1037.443c2.154,1.312,4.49,2.271,6.529,3.756"/>
	<path class="st178" d="M612.813,1049.895c0.033,0.808,1.485,0.891,3.013,0.919"/>
	<path class="st24" d="M615.826,1050.813c-0.007-0.479-0.013-0.959-0.019-1.438"/>
	<path class="st1" d="M805.737,1036.788c0.261,0.877,0.281,1.377,0.388,2.013"/>
	<path class="st140" d="M810.448,1039.127c6.224-0.496,12.521-0.057,18.733,0.593"/>
	<path class="st76" d="M797.21,1036.18c0.745-0.898,1.339-1.088,2.377-1.47"/>
	<path class="st142" d="M751.647,1039.422c-3.812-1.491-7.351,4.729-4.363,7.193c1.097,0.381,2.315,0.336,3.492-0.461"/>
	<path class="st13" d="M264.79,1050.403c0.724-0.41,1.821-1.206,2.856-1.839"/>
	<path class="st189" d="M577.263,1047.722c3.613,1.49,6.157-2.005,9.327-2.283"/>
	<path class="st31" d="M758.667,1043.891c3.638,0.831,7.156-0.759,10.789-0.864"/>
	<path class="st165" d="M756.229,1050.042c-0.238-0.485-0.452-0.994-0.742-1.428"/>
	<path class="st183" d="M768.103,1049.526c0.43,0.033,1.293-0.02,2.16-0.028"/>
	<path class="st46" d="M3.614,1066.089c60.631-0.741,143.737-0.815,204.891-1.583c12.617-0.156,31.157,1.118,42.185-1.457
		c20.286-4.743,46.57-7.614,64.524-11.15c8.383-1.651,18.014-9.779,24.261-18.606c8.937-0.562,18.219-0.766,27.328-0.796"/>
	<path class="st84" d="M753.471,1032.077c2.181,0.451,4.53,0.329,6.101-1.519"/>
	<path class="st119" d="M732.892,1027.668c0.036-0.479,0.184-0.962,0.337-1.443"/>
	<path class="st169" d="M723.36,1017.255c-0.651,0.243-1.393,1.04-1.949,1.82"/>
	<path class="st104" d="M696.306,1035.613c-1.035,0.602-2.361,0.597-3.451,0.145"/>
	<path class="st101" d="M614.49,1031.39c1.563-0.021,3.119-0.041,4.683-0.062"/>
	<path class="st177" d="M619.204,1024.847c0.438-1.407-0.045-2.92,0.423-4.324"/>
	<path class="st22" d="M629.615,1031.671c2.63,0.546,5.366-0.133,8.005,0.279c4.941,14.124,24.202,12.213,36.057,10.18"/>
	<path class="st146" d="M668.979,1013.39c1.697,0.601,3.65-0.14,5.231,0.83"/>
	<path class="st25" d="M674.209,1014.221c0.593-0.119,1.3-0.264,1.973-0.446"/>
	<path class="st175" d="M676.183,1013.774c-0.125-1.193-0.837-2.204-1.124-3.344"/>
	<path class="st162" d="M678.956,1005.697c-0.922-0.421-1.94-0.778-2.704-1.234c-0.972-1.761-1.149-4.761,1.177-5.584"/>
	<path class="st194" d="M688.406,1012.414c0.007,0.538,0.014,1.078,0.021,1.618"/>
	<path class="st90" d="M696.363,1015.188c5.417-1.988,11.329-0.374,16.937-1.401"/>
	<path class="st138" d="M713.3,1013.787c0.14-1.899,1.51-3.265,2.182-4.97"/>
	<path class="st167" d="M715.481,1008.816c-1.024-0.863-2.259-1.307-2.913-2.482"/>
	<path class="st179" d="M717.552,1008.691c1.783,0.896,3.867-0.14,5.352-1.053"/>
	<path class="st25" d="M713.3,1013.787c3.09,1.063,6.521-0.149,9.695,0.571"/>
	<path class="st67" d="M722.997,1014.358c2.879-0.362,5.774-0.488,8.627-1.075"/>
	<path class="st44" d="M736.671,1013.938c3.171-1.316,6.493-3.217,10.044-2.773"/>
	<path class="st91" d="M773.35,1010.572c2.919,0.45,5.671,2.059,8.652,0.967"/>
	<path class="st56" d="M755.398,1014.41c-0.949,3.385-3.43,6.151-2.856,9.852c0.519,0.555,1.243,1.008,1.717,1.51
		c0.888,0.093,1.739,0.733,2.386,1.221"/>
	<path class="st89" d="M765.648,1027.236c1.235-0.3,2.459-0.396,3.116-0.279"/>
	<path class="st11" d="M768.765,1026.955c1.258-1.034,2.902-0.881,4.427-0.899"/>
	<path class="st119" d="M774.23,1022.803c-0.2-0.477-0.291-0.956-0.376-1.433"/>
	<path class="st24" d="M765.882,1017.602c0.015,1.117,0.035,2.651,0.051,3.869"/>
	<path class="st192" d="M760.467,1016.505c1.952-0.685,3.731-0.009,5.415,1.099"/>
	<path class="st66" d="M765.882,1017.602c4.872-1.711,13.723-1.366,13.636,5.492c-1.763,0.938-3.501-1.547-5.29-0.289"/>
	<path class="st25" d="M774.23,1022.803c-0.02,0.479-0.119,0.962-0.218,1.442"/>
	<path class="st183" d="M689.204,1000.162c-0.25-1.181-0.205-2.371-0.599-3.8"/>
	<path class="st111" d="M686.019,995.163c-1.895,1.938-1.351,3.418-0.874,5.554c-0.858,1.262-1.763,2.675-3.33,3.145"/>
	<path class="st172" d="M686.374,994.798c-0.695-0.76-2.069-1.026-3.251-0.797"/>
	<path class="st167" d="M693.249,997.469c-0.739-0.358-1.209-0.952-1.667-1.555"/>
	<path class="st4" d="M718.304,1003.673c2.355-0.873,2.394-4.097,2.778-6.102c-1.081-0.751-1.886-0.934-2.597-1.047
		c-1.687,0.583-1.425,2.589-1.434,3.992"/>
	<path class="st61" d="M715.481,1008.816c0.907-0.007,1.473-0.064,2.07-0.126"/>
	<path class="st36" d="M717.552,1008.691c0.284-1.661,0.978-3.303,0.75-5.019"/>
	<path class="st170" d="M680.463,1010.718c-0.034,1.555-0.31,2.586-0.313,3.516"/>
	<path class="st197" d="M688.406,1012.414c0.222-0.726,0.42-1.445,0.691-2.17"/>
	<path class="st87" d="M681.515,1008.545c0.429-0.643,0.166-1.611-0.394-2.517"/>
	<path class="st18" d="M678.956,1005.697c-0.496,1.601-0.79,4.811,1.507,5.021"/>
	<path class="st24" d="M680.463,1010.718c0.24-0.004,0.479-0.007,0.72-0.01"/>
	<path class="st167" d="M731.013,1021.692c0.48,0.154,0.964,0.307,1.443,0.461"/>
	<path class="st172" d="M748.189,1013.785c-0.013-0.977-0.021-1.593-0.031-2.339"/>
	<path class="st109" d="M674.837,1020.872c0.72-0.029,1.439,0.146,2.165,0.33"/>
	<path class="st182" d="M682.052,1021.857c0.191-0.964,0.287-1.924,0.318-2.885"/>
	<path class="st184" d="M682.052,1021.857c0.466,1.617,0.506,3.357,0.786,5.029"/>
	<path class="st109" d="M682.052,1021.857c-0.958,0.394-1.921,0.275-2.884,0.038"/>
	<path class="st101" d="M678.631,1035.586c2.395-0.151,4.846,0.198,7.196-0.336"/>
	<path class="st63" d="M687.099,1022.271c-0.143-1.334,0.075-2.556,0.75-3.612c1.909-0.18,3.793-0.446,5.672-0.794"/>
	<path class="st108" d="M674.209,1014.221c-0.56,1.329-0.73,2.771-1.089,4.155"/>
	<path class="st88" d="M723.466,1017.28c0.91,1.077,1.997,1.659,3.201,2.551"/>
	<path class="st85" d="M731.114,1018.474c0.51-0.45,0.988-0.931,1.421-1.456"/>
	<path class="st101" d="M722.997,1014.358c-0.008,1.041,0.171,1.923,0.362,2.896"/>
	<path class="st15" d="M700.56,1035.557c1.689,0.704,3.685,0.49,5.438,0.148"/>
	<path class="st70" d="M705.995,1035.703c-0.183-5.455-1.312-10.746-0.938-16.308"/>
	<path class="st167" d="M705.995,1035.703c1.204,0.265,2.399,0.215,3.6-0.048"/>
	<path class="st101" d="M709.595,1035.655c-0.128-1.832,0.186-3.724-0.313-5.518"/>
	<path class="st128" d="M709.595,1035.655c2.846,0.456,5.77,0.05,8.646,0.126"/>
	<path class="st147" d="M720.091,1030.717c1.19-3.028-1.732-5.622-0.774-8.631"/>
	<path class="st16" d="M714.185,1028.636c0.055-2.893-0.343-6.061,0.962-8.655"/>
	<path class="st115" d="M698.59,1020.2c-0.485-0.916-1.802-1.832-2.432-2.367"/>
	<path class="st167" d="M687.099,1022.271c1.276,0.284,2.43,0.994,2.896,1.281"/>
	<path class="st53" d="M689.993,1023.554c0.746,0.044,1.514-0.082,2.151-0.388"/>
	<path class="st68" d="M696.306,1035.613c0.062-1.613,1.026-2.979,0.986-4.596"/>
	<path class="st201" d="M696.306,1035.613c1.298,0.628,2.966,0.597,4.254-0.057"/>
	<path class="st74" d="M700.56,1035.557c-0.73-4.739,3.21-13.436-1.97-15.356"/>
	<path class="st190" d="M698.59,1020.2c-0.733,0.804-1.247,1.243-1.751,1.569c-1.595-0.75-1.584-2.647-0.683-3.937"/>
	<path class="st117" d="M672.868,1035.42c1.189,0.142,2.387,0.259,3.74,0.996"/>
	<path class="st73" d="M677.173,1034.163c0.195-1.704-0.949-3.385-0.066-5.038"/>
	<path class="st5" d="M687.244,1033.311c0.681-0.583,1.352-1.128,2.024-1.674c0.661-2.582,0.657-5.389,0.727-8.081"/>
	<path class="st121" d="M687.099,1022.271c-1.182,3.252-1.809,7.851,0.146,11.039"/>
	<path class="st153" d="M768.765,1026.955c0.111,0.545,0.104,1.529,0.181,2.252c0.376,0.453,1.157,0.922,1.779,1.273
		c0.645-0.065,1.223-0.474,1.706-0.791c0.148-0.131,0.297-0.26,0.445-0.391"/>
	<path class="st33" d="M759.571,1030.557c2.544,1.737,6.487,0.03,6.077-3.319"/>
	<path class="st109" d="M765.648,1027.236c-0.723-0.242-1.444-0.255-2.165-0.331"/>
	<path class="st24" d="M408.511,1000.983c0.037-0.48,0.186-0.963,0.338-1.443"/>
	<path class="st170" d="M387.254,999.823c1.204-0.255,2.144,0.106,2.889,0.683"/>
	<path class="st109" d="M391.583,1000.486c0.955-0.394,1.917-0.274,2.88-0.038"/>
	<path class="st122" d="M390.968,1008.415c0.341,3.302-1.46,6.737-0.208,9.927c5.032,1.537,9.931-0.027,15.158,0.345
		c0.288-3.269,0.433-6.524,0.898-9.76"/>
	<path class="st163" d="M305.713,1041.222c-3.365-2.269-6.737-6.469-4.942-10.736"/>
	<path class="st65" d="M301.203,1026.88c0.669-5.771,2.093-11.87,2.278-17.937c0.968-1.629,3.693-3.027,5.486-1.813"/>
	<path class="st8" d="M308.967,1007.13c1.868,0.431,3.876-0.202,5.666,0.671"/>
	<path class="st169" d="M314.633,1007.802c2.016-0.814,4.371-0.758,6.475-0.386"/>
	<path class="st160" d="M320.661,1028.063c-1.778-1.912-5.303,1.174-6.139-1.357"/>
	<path class="st167" d="M310.521,1023.638c-0.478,0.164-0.956,0.331-1.434,0.498"/>
	<path class="st110" d="M301.232,1029.04c2.938-0.806,4.56,1.961,4.899,4.412c0.381,0.141,0.878,0.145,1.281,0.188"/>
	<path class="st92" d="M307.413,1033.639c0.154-0.313,0.337-0.614,0.521-0.917c5.979-1.602,4.815,8.843-0.042,9.911"/>
	<path class="st21" d="M297.873,1047.326c1.237-0.61,2.454-1.322,3.031-2.261"/>
	<path class="st62" d="M300.903,1045.067c-0.521-0.606-1.238-1.902-2.381-3.031"/>
	<path class="st84" d="M300.903,1045.067c1.628-0.054,2.623-1.482,4.115-1.915"/>
	<path class="st184" d="M308.967,1007.13c1.267,5.732-2.308,11.183-1.082,16.783"/>
	<path class="st101" d="M314.633,1007.802c-0.024,0.824,0.067,1.985,0.28,3.058"/>
	<path class="st28" d="M323.49,1024.246c3.428-1.747,4.156-6.02,5.846-9.154"/>
	<path class="st167" d="M326.142,1006.869c-1.359,0.45-2.939-0.027-4.155,0.912"/>
	<path class="st167" d="M334.061,1006.766c-0.478,0.166-0.956,0.332-1.434,0.498"/>
	<path class="st2" d="M323.521,1026.586c3.416,2.435,8.011,0.457,11.742,0.171c0.112-0.446-0.069-1.139-0.242-1.765"/>
	<path class="st55" d="M307.413,1033.639c0.877,2.506-1.183,5.066-1.7,7.584"/>
	<path class="st49" d="M603.473,1014.974c0.479-0.007,0.96-0.013,1.44-0.02"/>
	<path class="st101" d="M603.605,1025.053c-0.044-3.358-0.089-6.721-0.133-10.079"/>
	<path class="st101" d="M603.473,1014.974c-0.051-0.959,0.016-1.921,0.202-2.882"/>
	<path class="st168" d="M247.861,1022.544c0.688,1.86,2.43,2.786,4.212,3.442"/>
	<path class="st135" d="M252.073,1025.986c1.286-0.983,2.265-2.428,2.44-4.071"/>
	<path class="st187" d="M254.514,1021.915c-0.761-2.129-1.336-4.576-3.138-5.897"/>
	<path class="st124" d="M254.514,1021.915c1.155-0.557,2.05-0.93,3.405-0.709c1.065,1.296,1.356,3.264,0.549,4.799"/>
	<path class="st38" d="M240.179,1040.646c1.937-1.98,4.192-3.633,6.559-4.982"/>
	<path class="st171" d="M243.234,1026.564c1.338,2.446,2.792,4.809,4.77,6.778"/>
	<path class="st176" d="M252.073,1025.986c-0.438,1.955-0.712,3.948-1.208,5.877"/>
	<path class="st48" d="M275.409,1036.581c-0.471-1.063-0.587-2.437,0.151-3.418c0.473-0.27,0.833-0.435,1.239-0.529
		c1.185,1.213,2.989,2.355,3.649,3.881"/>
	<path class="st105" d="M284.133,1042.946c0.25-1.506,1.325-2.656,1.565-4.162"/>
	<path class="st116" d="M285.699,1038.786c-0.983-1.075-1.542-2.688-1.134-4.127"/>
	<path class="st134" d="M284.564,1034.66c-0.205-1.202-0.362-2.444-1.018-3.514"/>
	<path class="st40" d="M283.546,1031.146c-0.152-0.061-0.305-0.119-0.457-0.182c-3.647-2.502,0.373-5.323-0.662-8.158"/>
	<path class="st69" d="M275.66,1028.297c0.187-1.602-0.117-3.059-1.137-4.274c-0.596-3.674,4.676-7.018,6.974-3.633"/>
	<path class="st185" d="M274.187,1053.158c3.417-3.622,9.572-3.985,9.946-10.212"/>
	<path class="st136" d="M284.133,1042.946c-1.249-0.087-2.483,0.187-3.59,0.769"/>
	<path class="st179" d="M283.546,1031.146c0.91-0.751,2.242-0.718,2.729-0.989c0.122-0.359,0.313-1.045,0.548-1.648"/>
	<path class="st151" d="M286.795,1026.352c1.162-2.543,0.004-8.01-3.686-6.432"/>
	<path class="st86" d="M287.979,1034.256c0.736-1.703,1.406-3.226,1.734-5.064"/>
	<path class="st133" d="M285.699,1038.786c0.62-0.244,1.127-0.445,1.578-0.64c0.884-1.115,0.719-2.557,0.702-3.891"/>
	<path class="st14" d="M287.979,1034.256c-0.79,0.282-2.049,0.375-3.415,0.403"/>
	<path class="st143" d="M563.27,1024.145c5.799,0.857,11.984-0.19,17.611,0.163c0.917,1.873-0.104,4.249,1.192,6.071"/>
	<path class="st148" d="M550.422,1032.715c2.159,0.375,4.257-0.935,6.474-0.563"/>
	<path class="st27" d="M556.896,1032.149c-0.469-2.136-1.449-4.705-0.358-6.754c0.291-0.08,0.65,0.09,0.989,0.264"/>
	<path class="st78" d="M556.896,1032.149c7.868-1.474,15.88-0.226,23.743-1.394"/>
	<path class="st150" d="M567.021,1035.616c1.435,0.93,3.172,1.483,4.354,2.823"/>
	<path class="st50" d="M574.241,1036.962c1.6,0.493,3.507,1.356,4.354,2.823"/>
	<path class="st52" d="M578.55,1036.185c0.748,0.472,1.285,0.696,1.813,1.055"/>
	<path class="st98" d="M580.364,1037.241c0.154-0.085,0.311-0.169,0.468-0.253c2.237,1.989,5.417,0.501,6.891,2.916"/>
	<path class="st202" d="M587.72,1039.903c1.564-0.437,4.02,0.885,4.301,2.38c-0.326,0.107-0.732,0.165-1.145,0.22"/>
	<path class="st137" d="M580.364,1037.241c0.834,1.658,2.448,2.837,4.028,3.757c1.204,0.083,2.411-0.535,3.33-1.093"/>
	<path class="st30" d="M415.858,1012.049c0.097-2.407-0.628-5.031,0.5-7.568"/>
	<path class="st51" d="M383.229,994.956c-0.811,8.882-0.729,17.823-2.89,26.562"/>
	<path class="st7" d="M367.639,986.641c38.813,1.476,84.718-0.117,124.106,2.152c5.08,0.292,8.377-0.232,12.768,2.523"/>
	<path class="st99" d="M509.559,991.73c0.637-1.022,0.871-1.599,1.05-2.175"/>
	<path class="st139" d="M532.682,997.905c3.415-1.1,5.591-4.787,9.289-5.162"/>
	<path class="st0" d="M419.188,1018.844c1.521-3.004,1.194-6.682,1.308-10.098"/>
	<path class="st194" d="M366.959,989.771c1.204,0.275,2.403,0.23,3.598-0.167"/>
	<path class="st200" d="M354.692,987.771c-3.907-0.13-5.499,4.493-9.299,4.685"/>
	<path class="st39" d="M345.431,995.335c12.536-0.52,25.121-0.284,37.799-0.379"/>
	<path class="st35" d="M383.229,994.956c11.134-0.269,22.362-0.652,33.477-0.322"/>
	<path class="st141" d="M422.468,994.56c27.11-0.32,54.718,0.355,82.076-0.844"/>
	<path class="st194" d="M370.146,1013.011c1.441-2.441,1.53-5.181,1.336-7.938"/>
	<path class="st75" d="M357.59,1002.734c2.005-1.562,4.522-1.645,6.83-0.811"/>
	<path class="st115" d="M365.651,1013.43c0.552,0.219,1.087,0.389,1.628,0.58"/>
	<path class="st149" d="M358.271,1013.407c1.559,1.134,3.428,0.672,5.04-0.037"/>
	<path class="st154" d="M363.311,1013.37c-0.24-3.865,0.078-7.748,1.109-11.446"/>
	<path class="st61" d="M363.311,1013.37c0.665,0.072,1.58,0.058,2.341,0.06"/>
	<path class="st57" d="M365.651,1013.43c1.246-3.481,0.76-7.167,1.012-10.749c-0.859-0.447-1.699-0.669-2.243-0.756"/>
	<path class="st196" d="M355.042,1014.29c1.228-0.214,2.44-0.501,3.229-0.885"/>
	<path class="st94" d="M358.271,1013.407c-0.155-3.619,1.563-7.331-0.681-10.673"/>
	<path class="st199" d="M357.59,1002.734c-1.035,0.016-2.334-0.019-2.906,0.17c-1.62,3.34-1.676,7.432-1.566,11.05"/>
	<path class="st165" d="M629.371,1013.192c0.391-0.485,0.551-0.969,0.701-1.449"/>
	<path class="st81" d="M628.042,1021.489c2.226-0.332,4.939,0.564,6.857-0.596c-0.193-4.638,0.269-9.061,0.129-13.646
		c-1.819-2.484-4.852,0.006-7.172,0.201"/>
	<path class="st198" d="M488.11,1028.277c-5.913,1.872-12.321,0.59-18.388,0.463"/>
	<path class="st42" d="M357.489,1054.22c0.875-0.988,1.81-1.875,2.48-3.032"/>
	<path class="st157" d="M359.969,1051.188c-0.022-2.564,1.898-4.66,3.792-6.149"/>
	<path class="st193" d="M363.761,1045.039c2.723-5.6,7.653-10.234,12.135-14.583"/>
	<path class="st12" d="M345.143,1028.102c7.464,0.079,14.917-0.15,22.335,1.023"/>
	<path class="st25" d="M378.287,1029.703c0.718-0.161,1.436-0.312,2.153-0.507"/>
	<path class="st97" d="M409.942,1027.606c-5.21,1.139-10.508-0.383-15.733,0.414"/>
	<path class="st127" d="M411.429,1031.188c0.716-0.474,1.429-0.898,2.141-1.468"/>
	<path class="st60" d="M470.401,1025.609c0.719-0.179,1.438-0.204,2.156-0.269"/>
	<path class="st25" d="M488.11,1028.277c0.207-0.903,0.338-1.644,0.535-2.429"/>
	<path class="st126" d="M490.164,1013.588c0.22-2.425,0.402-4.856,1.105-7.216"/>
	<path class="st47" d="M488.11,1028.277c1.66,0.704,3.642,0.488,5.37,0.149"/>
	<path class="st23" d="M495.511,1018.558c-1.156-4.8,2.129-7.866,1.636-12.444"/>
	<path class="st112" d="M497.146,1006.114c0.328-1.855,0.188-3.822,0.741-5.6c2.819-0.809,5.958-0.226,8.897-0.468"/>
	<path class="st41" d="M497.146,1006.114c2.552,0.037,5.005,0.614,7.569,0.44"/>
	<path class="st131" d="M504.713,1006.555c1.597-0.524,3.23-0.814,4.926-0.836c0.646-1.455,0.31-3.358,1.482-4.649"/>
	<path class="st156" d="M504.713,1006.555c-0.051,0.691,0.078,2.033,0.431,2.666c3.338-0.69,6.69,0.298,9.939-0.61"/>
	<path class="st32" d="M515.083,1008.611c0.797-1.476,0.869-3.194,1.476-4.733"/>
	<path class="st9" d="M515.083,1008.611c0.257,3.311-0.14,7.016-0.124,10.41"/>
	<path class="st95" d="M363.761,1045.039c4.273,1.699,8.881,0.945,13.29,0.043"/>
	<path class="st37" d="M377.523,1044.596c1.622-2.707,3.653-5.514,6.631-6.809"/>
	<path class="st195" d="M359.969,1051.188c5.327,0.044,10.691,0.417,15.749,2.071"/>
	<path class="st191" d="M377.619,1051.794c1.759-2.132,3.512-4.585,5.92-6.078"/>
	<path class="st119" d="M386.365,1041.598c-0.24-0.717-0.458-1.433-0.749-2.148"/>
	<path class="st54" d="M367.839,1056.484c-3.56-0.549-7.333,0.45-10.707-1.262"/>
	<path class="st45" d="M357.063,1058.307c3.33,1.216,7.222,1.828,10.818,1.297"/>
</g>
</svg>
