<?xml version="1.0" encoding="utf-8"?>
<!-- Generator: Adobe Illustrator 14.0.0, SVG Export Plug-In . SVG Version: 6.00 Build 43363)  -->
<!DOCTYPE svg PUBLIC "-//W3C//DTD SVG 1.1//EN" "http://www.w3.org/Graphics/SVG/1.1/DTD/svg11.dtd">
<svg version="1.1" id="Layer_1" xmlns="http://www.w3.org/2000/svg" xmlns:xlink="http://www.w3.org/1999/xlink" x="0px" y="0px"
	 width="538.285px" height="719.285px" viewBox="0 0 538.285 719.285" style="enable-background:new 0 0 538.285 719.285;"
	 xml:space="preserve">
<style type="text/css">
<![CDATA[
	.st0{fill:#283896;}
]]>
</style>
<g>
	<g>
		<g>
			<g>
				<g>
					<path class="st0" d="M0,680.938c0,6.982,5.66,12.643,12.642,12.643s12.642-5.66,12.642-12.643
						c0-6.981-5.66-12.642-12.642-12.642S0,673.957,0,680.938z M21.492,680.789c0,4.887-3.963,8.851-8.85,8.851
						s-8.85-3.964-8.85-8.851c0-4.888,3.963-8.849,8.85-8.849S21.492,675.901,21.492,680.789z"/>
				</g>
			</g>
		</g>
		<g>
			<g>
				<g>
					<path class="st0" d="M0,655.235c0,6.981,5.66,12.642,12.642,12.642s12.642-5.66,12.642-12.642
						c0-6.982-5.66-12.643-12.642-12.643S0,648.252,0,655.235z M21.492,655.084c0,4.888-3.963,8.851-8.85,8.851
						s-8.85-3.963-8.85-8.851c0-4.887,3.963-8.849,8.85-8.849S21.492,650.198,21.492,655.084z"/>
				</g>
			</g>
		</g>
		<g>
			<g>
				<g>
					<path class="st0" d="M0,629.531c0,6.982,5.66,12.643,12.642,12.643s12.642-5.66,12.642-12.643
						c0-6.981-5.66-12.642-12.642-12.642S0,622.549,0,629.531z M21.492,629.381c0,4.887-3.963,8.851-8.85,8.851
						s-8.85-3.964-8.85-8.851c0-4.888,3.963-8.85,8.85-8.85S21.492,624.494,21.492,629.381z"/>
				</g>
			</g>
		</g>
		<g>
			<g>
				<g>
					<path class="st0" d="M0,603.828c0,6.981,5.66,12.642,12.642,12.642s12.642-5.66,12.642-12.642
						c0-6.982-5.66-12.643-12.642-12.643S0,596.845,0,603.828z M21.492,603.677c0,4.888-3.963,8.851-8.85,8.851
						s-8.85-3.963-8.85-8.851s3.963-8.849,8.85-8.849S21.492,598.79,21.492,603.677z"/>
				</g>
			</g>
		</g>
		<g>
			<g>
				<g>
					<path class="st0" d="M0,578.124c0,6.982,5.66,12.643,12.642,12.643s12.642-5.66,12.642-12.643s-5.66-12.643-12.642-12.643
						S0,571.141,0,578.124z M21.492,577.973c0,4.888-3.963,8.851-8.85,8.851s-8.85-3.963-8.85-8.851c0-4.887,3.963-8.849,8.85-8.849
						S21.492,573.086,21.492,577.973z"/>
				</g>
			</g>
		</g>
		<g>
			<g>
				<g>
					<path class="st0" d="M0,552.419c0,6.982,5.66,12.643,12.642,12.643s12.642-5.66,12.642-12.643
						c0-6.981-5.66-12.642-12.642-12.642S0,545.438,0,552.419z M21.492,552.27c0,4.887-3.963,8.851-8.85,8.851
						s-8.85-3.964-8.85-8.851c0-4.888,3.963-8.849,8.85-8.849S21.492,547.382,21.492,552.27z"/>
				</g>
			</g>
		</g>
		<g>
			<g>
				<g>
					<path class="st0" d="M0,526.716c0,6.981,5.66,12.642,12.642,12.642s12.642-5.66,12.642-12.642
						c0-6.982-5.66-12.643-12.642-12.643S0,519.734,0,526.716z M21.492,526.566c0,4.888-3.963,8.851-8.85,8.851
						s-8.85-3.963-8.85-8.851c0-4.887,3.963-8.849,8.85-8.849S21.492,521.679,21.492,526.566z"/>
				</g>
			</g>
		</g>
		<g>
			<g>
				<g>
					<path class="st0" d="M0,501.012c0,6.982,5.66,12.643,12.642,12.643s12.642-5.66,12.642-12.643
						c0-6.981-5.66-12.642-12.642-12.642S0,494.031,0,501.012z M21.492,500.863c0,4.887-3.963,8.851-8.85,8.851
						s-8.85-3.964-8.85-8.851c0-4.888,3.963-8.85,8.85-8.85S21.492,495.975,21.492,500.863z"/>
				</g>
			</g>
		</g>
		<g>
			<g>
				<g>
					<path class="st0" d="M0,475.309c0,6.981,5.66,12.642,12.642,12.642s12.642-5.66,12.642-12.642
						c0-6.982-5.66-12.643-12.642-12.643S0,468.327,0,475.309z M21.492,475.159c0,4.888-3.963,8.851-8.85,8.851
						s-8.85-3.963-8.85-8.851s3.963-8.849,8.85-8.849S21.492,470.271,21.492,475.159z"/>
				</g>
			</g>
		</g>
		<g>
			<g>
				<g>
					<path class="st0" d="M0,449.605c0,6.982,5.66,12.643,12.642,12.643s12.642-5.66,12.642-12.643s-5.66-12.643-12.642-12.643
						S0,442.623,0,449.605z M21.492,449.455c0,4.888-3.963,8.851-8.85,8.851s-8.85-3.963-8.85-8.851c0-4.887,3.963-8.849,8.85-8.849
						S21.492,444.568,21.492,449.455z"/>
				</g>
			</g>
		</g>
		<g>
			<g>
				<g>
					<path class="st0" d="M0,423.901c0,6.982,5.66,12.643,12.642,12.643s12.642-5.66,12.642-12.643
						c0-6.981-5.66-12.642-12.642-12.642S0,416.919,0,423.901z M21.492,423.751c0,4.887-3.963,8.851-8.85,8.851
						s-8.85-3.964-8.85-8.851c0-4.888,3.963-8.849,8.85-8.849S21.492,418.864,21.492,423.751z"/>
				</g>
			</g>
		</g>
		<g>
			<g>
				<g>
					<path class="st0" d="M0,398.198c0,6.981,5.66,12.642,12.642,12.642s12.642-5.66,12.642-12.642
						c0-6.982-5.66-12.643-12.642-12.643S0,391.215,0,398.198z M21.492,398.047c0,4.888-3.963,8.851-8.85,8.851
						s-8.85-3.963-8.85-8.851c0-4.887,3.963-8.849,8.85-8.849S21.492,393.161,21.492,398.047z"/>
				</g>
			</g>
		</g>
		<g>
			<g>
				<g>
					<path class="st0" d="M0,372.494c0,6.982,5.66,12.643,12.642,12.643s12.642-5.66,12.642-12.643
						c0-6.981-5.66-12.642-12.642-12.642S0,365.512,0,372.494z M21.492,372.344c0,4.887-3.963,8.851-8.85,8.851
						s-8.85-3.964-8.85-8.851c0-4.888,3.963-8.849,8.85-8.849S21.492,367.457,21.492,372.344z"/>
				</g>
			</g>
		</g>
		<g>
			<g>
				<g>
					<path class="st0" d="M0,346.79c0,6.982,5.66,12.643,12.642,12.643s12.642-5.66,12.642-12.643
						c0-6.982-5.66-12.642-12.642-12.642S0,339.808,0,346.79z M21.492,346.64c0,4.887-3.963,8.851-8.85,8.851
						s-8.85-3.963-8.85-8.851s3.963-8.849,8.85-8.849S21.492,341.753,21.492,346.64z"/>
				</g>
			</g>
		</g>
		<g>
			<g>
				<g>
					<path class="st0" d="M0,321.086c0,6.982,5.66,12.642,12.642,12.642s12.642-5.66,12.642-12.642s-5.66-12.642-12.642-12.642
						S0,314.104,0,321.086z M21.492,320.937c0,4.887-3.963,8.851-8.85,8.851s-8.85-3.963-8.85-8.851s3.963-8.849,8.85-8.849
						S21.492,316.049,21.492,320.937z"/>
				</g>
			</g>
		</g>
		<g>
			<g>
				<g>
					<path class="st0" d="M0,295.383c0,6.982,5.66,12.642,12.642,12.642s12.642-5.66,12.642-12.642s-5.66-12.642-12.642-12.642
						S0,288.401,0,295.383z M21.492,295.233c0,4.887-3.963,8.851-8.85,8.851s-8.85-3.963-8.85-8.851s3.963-8.849,8.85-8.849
						S21.492,290.346,21.492,295.233z"/>
				</g>
			</g>
		</g>
		<g>
			<g>
				<g>
					<path class="st0" d="M0,269.679c0,6.982,5.66,12.642,12.642,12.642s12.642-5.66,12.642-12.642s-5.66-12.642-12.642-12.642
						S0,262.697,0,269.679z M21.492,269.529c0,4.887-3.963,8.851-8.85,8.851s-8.85-3.963-8.85-8.851c0-4.888,3.963-8.849,8.85-8.849
						S21.492,264.642,21.492,269.529z"/>
				</g>
			</g>
		</g>
		<g>
			<g>
				<g>
					<path class="st0" d="M0,243.976c0,6.982,5.66,12.642,12.642,12.642s12.642-5.66,12.642-12.642
						c0-6.982-5.66-12.643-12.642-12.643S0,236.993,0,243.976z M21.492,243.825c0,4.888-3.963,8.851-8.85,8.851
						s-8.85-3.963-8.85-8.851c0-4.887,3.963-8.849,8.85-8.849S21.492,238.938,21.492,243.825z"/>
				</g>
			</g>
		</g>
		<g>
			<g>
				<g>
					<path class="st0" d="M0,218.272c0,6.982,5.66,12.642,12.642,12.642s12.642-5.66,12.642-12.642
						c0-6.982-5.66-12.643-12.642-12.643S0,211.29,0,218.272z M21.492,218.122c0,4.888-3.963,8.851-8.85,8.851
						s-8.85-3.963-8.85-8.851c0-4.887,3.963-8.849,8.85-8.849S21.492,213.234,21.492,218.122z"/>
				</g>
			</g>
		</g>
		<g>
			<g>
				<g>
					<path class="st0" d="M0,192.568c0,6.982,5.66,12.643,12.642,12.643s12.642-5.66,12.642-12.643
						c0-6.982-5.66-12.642-12.642-12.642S0,185.586,0,192.568z M21.492,192.418c0,4.887-3.963,8.851-8.85,8.851
						s-8.85-3.963-8.85-8.851s3.963-8.849,8.85-8.849S21.492,187.531,21.492,192.418z"/>
				</g>
			</g>
		</g>
		<g>
			<g>
				<g>
					<path class="st0" d="M0,166.864c0,6.982,5.66,12.642,12.642,12.642s12.642-5.66,12.642-12.642s-5.66-12.642-12.642-12.642
						S0,159.882,0,166.864z M21.492,166.714c0,4.887-3.963,8.851-8.85,8.851s-8.85-3.963-8.85-8.851s3.963-8.849,8.85-8.849
						S21.492,161.827,21.492,166.714z"/>
				</g>
			</g>
		</g>
		<g>
			<g>
				<g>
					<path class="st0" d="M0,141.161c0,6.982,5.66,12.642,12.642,12.642s12.642-5.66,12.642-12.642s-5.66-12.642-12.642-12.642
						S0,134.179,0,141.161z M21.492,141.011c0,4.887-3.963,8.851-8.85,8.851s-8.85-3.963-8.85-8.851s3.963-8.849,8.85-8.849
						S21.492,136.124,21.492,141.011z"/>
				</g>
			</g>
		</g>
		<g>
			<g>
				<g>
					<path class="st0" d="M0,115.457c0,6.982,5.66,12.642,12.642,12.642s12.642-5.66,12.642-12.642s-5.66-12.642-12.642-12.642
						S0,108.475,0,115.457z M21.492,115.307c0,4.887-3.963,8.851-8.85,8.851s-8.85-3.963-8.85-8.851c0-4.888,3.963-8.849,8.85-8.849
						S21.492,110.419,21.492,115.307z"/>
				</g>
			</g>
		</g>
		<g>
			<g>
				<g>
					<path class="st0" d="M0,89.753c0,6.982,5.66,12.642,12.642,12.642s12.642-5.66,12.642-12.642
						c0-6.982-5.66-12.643-12.642-12.643S0,82.771,0,89.753z M21.492,89.603c0,4.888-3.963,8.851-8.85,8.851s-8.85-3.963-8.85-8.851
						c0-4.887,3.963-8.849,8.85-8.849S21.492,84.716,21.492,89.603z"/>
				</g>
			</g>
		</g>
		<g>
			<g>
				<g>
					<path class="st0" d="M0,64.049c0,6.982,5.66,12.643,12.642,12.643s12.642-5.66,12.642-12.643
						c0-6.982-5.66-12.642-12.642-12.642S0,57.067,0,64.049z M21.492,63.899c0,4.887-3.963,8.851-8.85,8.851s-8.85-3.963-8.85-8.851
						s3.963-8.849,8.85-8.849S21.492,59.012,21.492,63.899z"/>
				</g>
			</g>
		</g>
		<g>
			<g>
				<g>
					<path class="st0" d="M0,38.346c0,6.982,5.66,12.642,12.642,12.642s12.642-5.66,12.642-12.642s-5.66-12.642-12.642-12.642
						S0,31.364,0,38.346z M21.492,38.196c0,4.887-3.963,8.851-8.85,8.851s-8.85-3.963-8.85-8.851s3.963-8.849,8.85-8.849
						S21.492,33.309,21.492,38.196z"/>
				</g>
			</g>
		</g>
		<g>
			<g>
				<g>
					<path class="st0" d="M38.292,0C31.31,0,25.65,5.66,25.65,12.642s5.66,12.642,12.642,12.642s12.642-5.66,12.642-12.642
						S45.274,0,38.292,0z M38.442,21.492c-4.887,0-8.851-3.963-8.851-8.85s3.963-8.85,8.851-8.85c4.888,0,8.849,3.963,8.849,8.85
						S43.33,21.492,38.442,21.492z"/>
				</g>
			</g>
		</g>
		<g>
			<g>
				<g>
					<path class="st0" d="M63.942,0C56.96,0,51.3,5.66,51.3,12.642s5.66,12.642,12.642,12.642c6.982,0,12.643-5.66,12.643-12.642
						S70.924,0,63.942,0z M64.092,21.492c-4.888,0-8.851-3.963-8.851-8.85s3.963-8.85,8.851-8.85c4.887,0,8.849,3.963,8.849,8.85
						S68.979,21.492,64.092,21.492z"/>
				</g>
			</g>
		</g>
		<g>
			<g>
				<g>
					<path class="st0" d="M89.592,0C82.61,0,76.95,5.66,76.95,12.642s5.66,12.642,12.643,12.642c6.982,0,12.642-5.66,12.642-12.642
						S96.574,0,89.592,0z M89.742,21.492c-4.887,0-8.851-3.963-8.851-8.85s3.963-8.85,8.851-8.85s8.849,3.963,8.849,8.85
						S94.629,21.492,89.742,21.492z"/>
				</g>
			</g>
		</g>
		<g>
			<g>
				<g>
					<path class="st0" d="M115.242,0C108.26,0,102.6,5.66,102.6,12.642s5.66,12.642,12.642,12.642s12.642-5.66,12.642-12.642
						S122.224,0,115.242,0z M115.392,21.492c-4.887,0-8.851-3.963-8.851-8.85s3.963-8.85,8.851-8.85s8.849,3.963,8.849,8.85
						S120.279,21.492,115.392,21.492z"/>
				</g>
			</g>
		</g>
		<g>
			<g>
				<g>
					<path class="st0" d="M140.892,0c-6.982,0-12.642,5.66-12.642,12.642s5.66,12.642,12.642,12.642s12.642-5.66,12.642-12.642
						S147.874,0,140.892,0z M141.042,21.492c-4.887,0-8.851-3.963-8.851-8.85s3.963-8.85,8.851-8.85s8.849,3.963,8.849,8.85
						S145.929,21.492,141.042,21.492z"/>
				</g>
			</g>
		</g>
		<g>
			<g>
				<g>
					<path class="st0" d="M166.542,0C159.56,0,153.9,5.66,153.9,12.642s5.66,12.642,12.642,12.642s12.642-5.66,12.642-12.642
						S173.524,0,166.542,0z M166.692,21.492c-4.887,0-8.851-3.963-8.851-8.85s3.963-8.85,8.851-8.85c4.888,0,8.849,3.963,8.849,8.85
						S171.58,21.492,166.692,21.492z"/>
				</g>
			</g>
		</g>
		<g>
			<g>
				<g>
					<path class="st0" d="M192.192,0c-6.982,0-12.642,5.66-12.642,12.642s5.66,12.642,12.642,12.642
						c6.982,0,12.643-5.66,12.643-12.642S199.174,0,192.192,0z M192.342,21.492c-4.888,0-8.851-3.963-8.851-8.85
						s3.963-8.85,8.851-8.85c4.887,0,8.849,3.963,8.849,8.85S197.229,21.492,192.342,21.492z"/>
				</g>
			</g>
		</g>
		<g>
			<g>
				<g>
					<path class="st0" d="M217.842,0C210.86,0,205.2,5.66,205.2,12.642s5.66,12.642,12.643,12.642
						c6.982,0,12.642-5.66,12.642-12.642S224.824,0,217.842,0z M217.992,21.492c-4.887,0-8.851-3.963-8.851-8.85
						s3.963-8.85,8.851-8.85s8.849,3.963,8.849,8.85S222.879,21.492,217.992,21.492z"/>
				</g>
			</g>
		</g>
		<g>
			<g>
				<g>
					<path class="st0" d="M243.492,0c-6.982,0-12.642,5.66-12.642,12.642s5.66,12.642,12.642,12.642s12.642-5.66,12.642-12.642
						S250.474,0,243.492,0z M243.642,21.492c-4.887,0-8.851-3.963-8.851-8.85s3.963-8.85,8.851-8.85s8.849,3.963,8.849,8.85
						S248.529,21.492,243.642,21.492z"/>
				</g>
			</g>
		</g>
		<g>
			<g>
				<g>
					<path class="st0" d="M269.142,0C262.16,0,256.5,5.66,256.5,12.642s5.66,12.642,12.642,12.642
						c6.982,0,12.643-5.66,12.643-12.642S276.125,0,269.142,0z M269.292,21.492c-4.887,0-8.851-3.963-8.851-8.85
						s3.963-8.85,8.851-8.85s8.849,3.963,8.849,8.85S274.179,21.492,269.292,21.492z"/>
				</g>
			</g>
		</g>
		<g>
			<g>
				<g>
					<path class="st0" d="M294.792,0c-6.982,0-12.643,5.66-12.643,12.642s5.66,12.642,12.643,12.642
						c6.981,0,12.642-5.66,12.642-12.642S301.774,0,294.792,0z M294.942,21.492c-4.887,0-8.851-3.963-8.851-8.85
						s3.964-8.85,8.851-8.85c4.888,0,8.849,3.963,8.849,8.85S299.83,21.492,294.942,21.492z"/>
				</g>
			</g>
		</g>
		<g>
			<g>
				<g>
					<path class="st0" d="M320.442,0C313.46,0,307.8,5.66,307.8,12.642s5.66,12.642,12.642,12.642
						c6.982,0,12.643-5.66,12.643-12.642S327.424,0,320.442,0z M320.592,21.492c-4.888,0-8.851-3.963-8.851-8.85
						s3.963-8.85,8.851-8.85c4.887,0,8.849,3.963,8.849,8.85S325.479,21.492,320.592,21.492z"/>
				</g>
			</g>
		</g>
		<g>
			<g>
				<g>
					<path class="st0" d="M346.092,0c-6.982,0-12.643,5.66-12.643,12.642s5.66,12.642,12.643,12.642
						c6.981,0,12.642-5.66,12.642-12.642S353.074,0,346.092,0z M346.242,21.492c-4.887,0-8.851-3.963-8.851-8.85
						s3.964-8.85,8.851-8.85c4.888,0,8.85,3.963,8.85,8.85S351.129,21.492,346.242,21.492z"/>
				</g>
			</g>
		</g>
		<g>
			<g>
				<g>
					<path class="st0" d="M371.742,0C364.76,0,359.1,5.66,359.1,12.642s5.66,12.642,12.642,12.642
						c6.982,0,12.643-5.66,12.643-12.642S378.724,0,371.742,0z M371.892,21.492c-4.888,0-8.851-3.963-8.851-8.85
						s3.963-8.85,8.851-8.85s8.849,3.963,8.849,8.85S376.78,21.492,371.892,21.492z"/>
				</g>
			</g>
		</g>
		<g>
			<g>
				<g>
					<path class="st0" d="M397.392,0c-6.982,0-12.643,5.66-12.643,12.642s5.66,12.642,12.643,12.642s12.643-5.66,12.643-12.642
						S404.375,0,397.392,0z M397.542,21.492c-4.888,0-8.851-3.963-8.851-8.85s3.963-8.85,8.851-8.85c4.887,0,8.849,3.963,8.849,8.85
						S402.429,21.492,397.542,21.492z"/>
				</g>
			</g>
		</g>
		<g>
			<g>
				<g>
					<path class="st0" d="M423.042,0C416.06,0,410.4,5.66,410.4,12.642s5.66,12.642,12.643,12.642
						c6.981,0,12.642-5.66,12.642-12.642S430.024,0,423.042,0z M423.192,21.492c-4.887,0-8.851-3.963-8.851-8.85
						s3.964-8.85,8.851-8.85c4.888,0,8.849,3.963,8.849,8.85S428.08,21.492,423.192,21.492z"/>
				</g>
			</g>
		</g>
		<g>
			<g>
				<g>
					<path class="st0" d="M448.692,0c-6.981,0-12.642,5.66-12.642,12.642s5.66,12.642,12.642,12.642
						c6.982,0,12.643-5.66,12.643-12.642S455.674,0,448.692,0z M448.842,21.492c-4.888,0-8.851-3.963-8.851-8.85
						s3.963-8.85,8.851-8.85c4.887,0,8.849,3.963,8.849,8.85S453.729,21.492,448.842,21.492z"/>
				</g>
			</g>
		</g>
		<g>
			<g>
				<g>
					<path class="st0" d="M474.342,0C467.36,0,461.7,5.66,461.7,12.642s5.66,12.642,12.643,12.642
						c6.981,0,12.642-5.66,12.642-12.642S481.324,0,474.342,0z M474.492,21.492c-4.887,0-8.851-3.963-8.851-8.85
						s3.964-8.85,8.851-8.85c4.888,0,8.85,3.963,8.85,8.85S479.379,21.492,474.492,21.492z"/>
				</g>
			</g>
		</g>
		<g>
			<g>
				<g>
					<path class="st0" d="M499.992,0c-6.981,0-12.642,5.66-12.642,12.642s5.66,12.642,12.642,12.642
						c6.982,0,12.643-5.66,12.643-12.642S506.974,0,499.992,0z M500.142,21.492c-4.888,0-8.851-3.963-8.851-8.85
						s3.963-8.85,8.851-8.85s8.849,3.963,8.849,8.85S505.03,21.492,500.142,21.492z"/>
				</g>
			</g>
		</g>
		<g>
			<g>
				<g>
					<path class="st0" d="M538.285,38.346c0-6.982-5.66-12.642-12.643-12.642S513,31.364,513,38.346s5.66,12.642,12.643,12.642
						S538.285,45.328,538.285,38.346z M516.792,38.496c0-4.887,3.963-8.851,8.85-8.851s8.85,3.963,8.85,8.851
						c0,4.888-3.963,8.849-8.85,8.849S516.792,43.383,516.792,38.496z"/>
				</g>
			</g>
		</g>
		<g>
			<g>
				<g>
					<path class="st0" d="M538.285,64.049c0-6.982-5.66-12.642-12.643-12.642S513,57.067,513,64.049
						c0,6.982,5.66,12.643,12.643,12.643S538.285,71.032,538.285,64.049z M516.792,64.2c0-4.888,3.963-8.851,8.85-8.851
						s8.85,3.963,8.85,8.851c0,4.887-3.963,8.849-8.85,8.849S516.792,69.087,516.792,64.2z"/>
				</g>
			</g>
		</g>
		<g>
			<g>
				<g>
					<path class="st0" d="M538.285,89.753c0-6.982-5.66-12.643-12.643-12.643S513,82.771,513,89.753
						c0,6.982,5.66,12.642,12.643,12.642S538.285,96.735,538.285,89.753z M516.792,89.903c0-4.887,3.963-8.851,8.85-8.851
						s8.85,3.963,8.85,8.851s-3.963,8.849-8.85,8.849S516.792,94.791,516.792,89.903z"/>
				</g>
			</g>
		</g>
		<g>
			<g>
				<g>
					<path class="st0" d="M538.285,115.457c0-6.982-5.66-12.642-12.643-12.642S513,108.475,513,115.457s5.66,12.642,12.643,12.642
						S538.285,122.439,538.285,115.457z M516.792,115.607c0-4.887,3.963-8.851,8.85-8.851s8.85,3.963,8.85,8.851
						s-3.963,8.849-8.85,8.849S516.792,120.494,516.792,115.607z"/>
				</g>
			</g>
		</g>
		<g>
			<g>
				<g>
					<path class="st0" d="M538.285,141.161c0-6.982-5.66-12.642-12.643-12.642S513,134.179,513,141.161s5.66,12.642,12.643,12.642
						S538.285,148.143,538.285,141.161z M516.792,141.311c0-4.887,3.963-8.851,8.85-8.851s8.85,3.963,8.85,8.851
						s-3.963,8.849-8.85,8.849S516.792,146.198,516.792,141.311z"/>
				</g>
			</g>
		</g>
		<g>
			<g>
				<g>
					<path class="st0" d="M538.285,166.864c0-6.982-5.66-12.642-12.643-12.642S513,159.882,513,166.864s5.66,12.642,12.643,12.642
						S538.285,173.846,538.285,166.864z M516.792,167.014c0-4.887,3.963-8.851,8.85-8.851s8.85,3.963,8.85,8.851
						c0,4.888-3.963,8.849-8.85,8.849S516.792,171.902,516.792,167.014z"/>
				</g>
			</g>
		</g>
		<g>
			<g>
				<g>
					<path class="st0" d="M538.285,192.568c0-6.982-5.66-12.642-12.643-12.642S513,185.586,513,192.568
						c0,6.982,5.66,12.643,12.643,12.643S538.285,199.55,538.285,192.568z M516.792,192.718c0-4.888,3.963-8.851,8.85-8.851
						s8.85,3.963,8.85,8.851c0,4.887-3.963,8.849-8.85,8.849S516.792,197.605,516.792,192.718z"/>
				</g>
			</g>
		</g>
		<g>
			<g>
				<g>
					<path class="st0" d="M538.285,218.272c0-6.982-5.66-12.643-12.643-12.643S513,211.29,513,218.272
						c0,6.982,5.66,12.642,12.643,12.642S538.285,225.254,538.285,218.272z M516.792,218.422c0-4.887,3.963-8.851,8.85-8.851
						s8.85,3.963,8.85,8.851s-3.963,8.849-8.85,8.849S516.792,223.309,516.792,218.422z"/>
				</g>
			</g>
		</g>
		<g>
			<g>
				<g>
					<path class="st0" d="M538.285,243.976c0-6.982-5.66-12.643-12.643-12.643S513,236.993,513,243.976
						c0,6.982,5.66,12.642,12.643,12.642S538.285,250.958,538.285,243.976z M516.792,244.125c0-4.887,3.963-8.851,8.85-8.851
						s8.85,3.963,8.85,8.851s-3.963,8.849-8.85,8.849S516.792,249.013,516.792,244.125z"/>
				</g>
			</g>
		</g>
		<g>
			<g>
				<g>
					<path class="st0" d="M538.285,269.679c0-6.982-5.66-12.642-12.643-12.642S513,262.697,513,269.679s5.66,12.642,12.643,12.642
						S538.285,276.661,538.285,269.679z M516.792,269.829c0-4.887,3.963-8.851,8.85-8.851s8.85,3.963,8.85,8.851
						s-3.963,8.849-8.85,8.849S516.792,274.716,516.792,269.829z"/>
				</g>
			</g>
		</g>
		<g>
			<g>
				<g>
					<path class="st0" d="M538.285,295.383c0-6.982-5.66-12.642-12.643-12.642S513,288.401,513,295.383s5.66,12.642,12.643,12.642
						S538.285,302.365,538.285,295.383z M516.792,295.533c0-4.887,3.963-8.851,8.85-8.851s8.85,3.963,8.85,8.851
						s-3.963,8.849-8.85,8.849S516.792,300.42,516.792,295.533z"/>
				</g>
			</g>
		</g>
		<g>
			<g>
				<g>
					<path class="st0" d="M538.285,321.086c0-6.982-5.66-12.642-12.643-12.642S513,314.104,513,321.086s5.66,12.642,12.643,12.642
						S538.285,328.068,538.285,321.086z M516.792,321.236c0-4.887,3.963-8.851,8.85-8.851s8.85,3.963,8.85,8.851
						c0,4.888-3.963,8.849-8.85,8.849S516.792,326.124,516.792,321.236z"/>
				</g>
			</g>
		</g>
		<g>
			<g>
				<g>
					<path class="st0" d="M538.285,346.79c0-6.982-5.66-12.642-12.643-12.642S513,339.808,513,346.79
						c0,6.982,5.66,12.643,12.643,12.643S538.285,353.772,538.285,346.79z M516.792,346.94c0-4.888,3.963-8.851,8.85-8.851
						s8.85,3.963,8.85,8.851c0,4.887-3.963,8.849-8.85,8.849S516.792,351.828,516.792,346.94z"/>
				</g>
			</g>
		</g>
		<g>
			<g>
				<g>
					<path class="st0" d="M538.285,372.494c0-6.981-5.66-12.642-12.643-12.642S513,365.512,513,372.494
						c0,6.982,5.66,12.643,12.643,12.643S538.285,379.476,538.285,372.494z M516.792,372.644c0-4.888,3.963-8.851,8.85-8.851
						s8.85,3.963,8.85,8.851c0,4.887-3.963,8.849-8.85,8.849S516.792,377.531,516.792,372.644z"/>
				</g>
			</g>
		</g>
		<g>
			<g>
				<g>
					<path class="st0" d="M538.285,398.198c0-6.982-5.66-12.643-12.643-12.643S513,391.215,513,398.198
						c0,6.981,5.66,12.642,12.643,12.642S538.285,405.179,538.285,398.198z M516.792,398.347c0-4.887,3.963-8.85,8.85-8.85
						s8.85,3.963,8.85,8.85c0,4.888-3.963,8.85-8.85,8.85S516.792,403.235,516.792,398.347z"/>
				</g>
			</g>
		</g>
		<g>
			<g>
				<g>
					<path class="st0" d="M538.285,423.901c0-6.981-5.66-12.642-12.643-12.642S513,416.919,513,423.901
						c0,6.982,5.66,12.643,12.643,12.643S538.285,430.883,538.285,423.901z M516.792,424.051c0-4.888,3.963-8.851,8.85-8.851
						s8.85,3.963,8.85,8.851s-3.963,8.849-8.85,8.849S516.792,428.939,516.792,424.051z"/>
				</g>
			</g>
		</g>
		<g>
			<g>
				<g>
					<path class="st0" d="M538.285,449.605c0-6.982-5.66-12.643-12.643-12.643S513,442.623,513,449.605s5.66,12.643,12.643,12.643
						S538.285,456.587,538.285,449.605z M516.792,449.755c0-4.888,3.963-8.851,8.85-8.851s8.85,3.963,8.85,8.851
						c0,4.887-3.963,8.849-8.85,8.849S516.792,454.642,516.792,449.755z"/>
				</g>
			</g>
		</g>
		<g>
			<g>
				<g>
					<path class="st0" d="M538.285,475.309c0-6.982-5.66-12.643-12.643-12.643S513,468.327,513,475.309
						c0,6.981,5.66,12.642,12.643,12.642S538.285,482.291,538.285,475.309z M516.792,475.458c0-4.887,3.963-8.851,8.85-8.851
						s8.85,3.964,8.85,8.851c0,4.888-3.963,8.849-8.85,8.849S516.792,480.346,516.792,475.458z"/>
				</g>
			</g>
		</g>
		<g>
			<g>
				<g>
					<path class="st0" d="M538.285,501.012c0-6.981-5.66-12.642-12.643-12.642S513,494.031,513,501.012
						c0,6.982,5.66,12.643,12.643,12.643S538.285,507.995,538.285,501.012z M516.792,501.163c0-4.888,3.963-8.851,8.85-8.851
						s8.85,3.963,8.85,8.851c0,4.887-3.963,8.849-8.85,8.849S516.792,506.049,516.792,501.163z"/>
				</g>
			</g>
		</g>
		<g>
			<g>
				<g>
					<path class="st0" d="M538.285,526.716c0-6.982-5.66-12.643-12.643-12.643S513,519.734,513,526.716
						c0,6.981,5.66,12.642,12.643,12.642S538.285,533.698,538.285,526.716z M516.792,526.866c0-4.887,3.963-8.851,8.85-8.851
						s8.85,3.964,8.85,8.851c0,4.888-3.963,8.85-8.85,8.85S516.792,531.753,516.792,526.866z"/>
				</g>
			</g>
		</g>
		<g>
			<g>
				<g>
					<path class="st0" d="M538.285,552.419c0-6.981-5.66-12.642-12.643-12.642S513,545.438,513,552.419
						c0,6.982,5.66,12.643,12.643,12.643S538.285,559.402,538.285,552.419z M516.792,552.57c0-4.888,3.963-8.851,8.85-8.851
						s8.85,3.963,8.85,8.851s-3.963,8.849-8.85,8.849S516.792,557.458,516.792,552.57z"/>
				</g>
			</g>
		</g>
		<g>
			<g>
				<g>
					<path class="st0" d="M538.285,578.124c0-6.982-5.66-12.643-12.643-12.643S513,571.141,513,578.124s5.66,12.643,12.643,12.643
						S538.285,585.106,538.285,578.124z M516.792,578.274c0-4.888,3.963-8.851,8.85-8.851s8.85,3.963,8.85,8.851
						c0,4.887-3.963,8.849-8.85,8.849S516.792,583.161,516.792,578.274z"/>
				</g>
			</g>
		</g>
		<g>
			<g>
				<g>
					<path class="st0" d="M538.285,603.828c0-6.982-5.66-12.643-12.643-12.643S513,596.845,513,603.828
						c0,6.981,5.66,12.642,12.643,12.642S538.285,610.809,538.285,603.828z M516.792,603.977c0-4.887,3.963-8.851,8.85-8.851
						s8.85,3.964,8.85,8.851c0,4.888-3.963,8.849-8.85,8.849S516.792,608.865,516.792,603.977z"/>
				</g>
			</g>
		</g>
		<g>
			<g>
				<g>
					<path class="st0" d="M538.285,629.531c0-6.981-5.66-12.642-12.643-12.642S513,622.549,513,629.531
						c0,6.982,5.66,12.643,12.643,12.643S538.285,636.513,538.285,629.531z M516.792,629.681c0-4.888,3.963-8.851,8.85-8.851
						s8.85,3.963,8.85,8.851c0,4.887-3.963,8.849-8.85,8.849S516.792,634.568,516.792,629.681z"/>
				</g>
			</g>
		</g>
		<g>
			<g>
				<g>
					<path class="st0" d="M538.285,655.235c0-6.982-5.66-12.643-12.643-12.643S513,648.252,513,655.235
						c0,6.981,5.66,12.642,12.643,12.642S538.285,662.216,538.285,655.235z M516.792,655.384c0-4.887,3.963-8.851,8.85-8.851
						s8.85,3.964,8.85,8.851c0,4.888-3.963,8.85-8.85,8.85S516.792,660.272,516.792,655.384z"/>
				</g>
			</g>
		</g>
		<g>
			<g>
				<g>
					<path class="st0" d="M538.285,680.938c0-6.981-5.66-12.642-12.643-12.642S513,673.957,513,680.938
						c0,6.982,5.66,12.643,12.643,12.643S538.285,687.92,538.285,680.938z M516.792,681.088c0-4.888,3.963-8.851,8.85-8.851
						s8.85,3.963,8.85,8.851s-3.963,8.849-8.85,8.849S516.792,685.976,516.792,681.088z"/>
				</g>
			</g>
		</g>
		<g>
			<g>
				<g>
					<path class="st0" d="M499.992,719.285c6.982,0,12.643-5.66,12.643-12.643S506.974,694,499.992,694
						c-6.981,0-12.642,5.66-12.642,12.643S493.01,719.285,499.992,719.285z M499.842,697.792c4.887,0,8.851,3.963,8.851,8.85
						s-3.964,8.85-8.851,8.85c-4.888,0-8.849-3.963-8.849-8.85S494.955,697.792,499.842,697.792z"/>
				</g>
			</g>
		</g>
		<g>
			<g>
				<g>
					<path class="st0" d="M474.342,719.285c6.981,0,12.642-5.66,12.642-12.643S481.324,694,474.342,694
						c-6.982,0-12.643,5.66-12.643,12.643S467.36,719.285,474.342,719.285z M474.192,697.792c4.888,0,8.851,3.963,8.851,8.85
						s-3.963,8.85-8.851,8.85c-4.887,0-8.849-3.963-8.849-8.85S469.305,697.792,474.192,697.792z"/>
				</g>
			</g>
		</g>
		<g>
			<g>
				<g>
					<path class="st0" d="M448.692,719.285c6.982,0,12.643-5.66,12.643-12.643S455.674,694,448.692,694
						c-6.981,0-12.642,5.66-12.642,12.643S441.71,719.285,448.692,719.285z M448.542,697.792c4.887,0,8.851,3.963,8.851,8.85
						s-3.964,8.85-8.851,8.85c-4.888,0-8.85-3.963-8.85-8.85S443.655,697.792,448.542,697.792z"/>
				</g>
			</g>
		</g>
		<g>
			<g>
				<g>
					<path class="st0" d="M423.042,719.285c6.981,0,12.642-5.66,12.642-12.643S430.024,694,423.042,694
						c-6.982,0-12.643,5.66-12.643,12.643S416.06,719.285,423.042,719.285z M422.892,697.792c4.888,0,8.851,3.963,8.851,8.85
						s-3.963,8.85-8.851,8.85s-8.849-3.963-8.849-8.85S418.004,697.792,422.892,697.792z"/>
				</g>
			</g>
		</g>
		<g>
			<g>
				<g>
					<path class="st0" d="M397.392,719.285c6.982,0,12.643-5.66,12.643-12.643S404.375,694,397.392,694s-12.643,5.66-12.643,12.643
						S390.41,719.285,397.392,719.285z M397.242,697.792c4.888,0,8.851,3.963,8.851,8.85s-3.963,8.85-8.851,8.85
						c-4.887,0-8.849-3.963-8.849-8.85S392.355,697.792,397.242,697.792z"/>
				</g>
			</g>
		</g>
		<g>
			<g>
				<g>
					<path class="st0" d="M371.742,719.285c6.982,0,12.643-5.66,12.643-12.643S378.724,694,371.742,694
						c-6.981,0-12.642,5.66-12.642,12.643S364.76,719.285,371.742,719.285z M371.592,697.792c4.887,0,8.851,3.963,8.851,8.85
						s-3.964,8.85-8.851,8.85c-4.888,0-8.849-3.963-8.849-8.85S366.705,697.792,371.592,697.792z"/>
				</g>
			</g>
		</g>
		<g>
			<g>
				<g>
					<path class="st0" d="M346.092,719.285c6.981,0,12.642-5.66,12.642-12.643S353.074,694,346.092,694
						c-6.982,0-12.643,5.66-12.643,12.643S339.11,719.285,346.092,719.285z M345.942,697.792c4.888,0,8.851,3.963,8.851,8.85
						s-3.963,8.85-8.851,8.85c-4.887,0-8.849-3.963-8.849-8.85S341.055,697.792,345.942,697.792z"/>
				</g>
			</g>
		</g>
		<g>
			<g>
				<g>
					<path class="st0" d="M320.442,719.285c6.982,0,12.643-5.66,12.643-12.643S327.424,694,320.442,694
						c-6.981,0-12.642,5.66-12.642,12.643S313.46,719.285,320.442,719.285z M320.292,697.792c4.887,0,8.851,3.963,8.851,8.85
						s-3.964,8.85-8.851,8.85c-4.888,0-8.85-3.963-8.85-8.85S315.405,697.792,320.292,697.792z"/>
				</g>
			</g>
		</g>
		<g>
			<g>
				<g>
					<path class="st0" d="M294.792,719.285c6.981,0,12.642-5.66,12.642-12.643S301.774,694,294.792,694
						c-6.982,0-12.643,5.66-12.643,12.643S287.81,719.285,294.792,719.285z M294.642,697.792c4.888,0,8.851,3.963,8.851,8.85
						s-3.963,8.85-8.851,8.85s-8.849-3.963-8.849-8.85S289.754,697.792,294.642,697.792z"/>
				</g>
			</g>
		</g>
		<g>
			<g>
				<g>
					<path class="st0" d="M269.142,719.285c6.982,0,12.643-5.66,12.643-12.643S276.125,694,269.142,694
						c-6.982,0-12.642,5.66-12.642,12.643S262.16,719.285,269.142,719.285z M268.992,697.792c4.887,0,8.85,3.963,8.85,8.85
						s-3.963,8.85-8.85,8.85s-8.849-3.963-8.849-8.85S264.105,697.792,268.992,697.792z"/>
				</g>
			</g>
		</g>
		<g>
			<g>
				<g>
					<path class="st0" d="M243.492,719.285c6.982,0,12.642-5.66,12.642-12.643S250.474,694,243.492,694s-12.642,5.66-12.642,12.643
						S236.51,719.285,243.492,719.285z M243.342,697.792c4.887,0,8.851,3.963,8.851,8.85s-3.963,8.85-8.851,8.85
						c-4.888,0-8.849-3.963-8.849-8.85S238.455,697.792,243.342,697.792z"/>
				</g>
			</g>
		</g>
		<g>
			<g>
				<g>
					<path class="st0" d="M217.842,719.285c6.982,0,12.642-5.66,12.642-12.643S224.824,694,217.842,694
						c-6.982,0-12.643,5.66-12.643,12.643S210.86,719.285,217.842,719.285z M217.692,697.792c4.888,0,8.851,3.963,8.851,8.85
						s-3.963,8.85-8.851,8.85c-4.887,0-8.849-3.963-8.849-8.85S212.805,697.792,217.692,697.792z"/>
				</g>
			</g>
		</g>
		<g>
			<g>
				<g>
					<path class="st0" d="M192.192,719.285c6.982,0,12.643-5.66,12.643-12.643S199.174,694,192.192,694
						c-6.982,0-12.642,5.66-12.642,12.643S185.21,719.285,192.192,719.285z M192.042,697.792c4.887,0,8.851,3.963,8.851,8.85
						s-3.963,8.85-8.851,8.85s-8.849-3.963-8.849-8.85S187.155,697.792,192.042,697.792z"/>
				</g>
			</g>
		</g>
		<g>
			<g>
				<g>
					<path class="st0" d="M166.542,719.285c6.982,0,12.642-5.66,12.642-12.643S173.524,694,166.542,694s-12.642,5.66-12.642,12.643
						S159.56,719.285,166.542,719.285z M166.392,697.792c4.887,0,8.851,3.963,8.851,8.85s-3.963,8.85-8.851,8.85
						s-8.849-3.963-8.849-8.85S161.505,697.792,166.392,697.792z"/>
				</g>
			</g>
		</g>
		<g>
			<g>
				<g>
					<path class="st0" d="M140.892,719.285c6.982,0,12.642-5.66,12.642-12.643S147.874,694,140.892,694s-12.642,5.66-12.642,12.643
						S133.91,719.285,140.892,719.285z M140.742,697.792c4.887,0,8.851,3.963,8.851,8.85s-3.963,8.85-8.851,8.85
						s-8.849-3.963-8.849-8.85S135.855,697.792,140.742,697.792z"/>
				</g>
			</g>
		</g>
		<g>
			<g>
				<g>
					<path class="st0" d="M115.242,719.285c6.982,0,12.642-5.66,12.642-12.643S122.224,694,115.242,694s-12.642,5.66-12.642,12.643
						S108.26,719.285,115.242,719.285z M115.092,697.792c4.887,0,8.851,3.963,8.851,8.85s-3.963,8.85-8.851,8.85
						c-4.888,0-8.849-3.963-8.849-8.85S110.205,697.792,115.092,697.792z"/>
				</g>
			</g>
		</g>
		<g>
			<g>
				<g>
					<path class="st0" d="M89.592,719.285c6.982,0,12.642-5.66,12.642-12.643S96.574,694,89.592,694
						c-6.982,0-12.643,5.66-12.643,12.643S82.61,719.285,89.592,719.285z M89.442,697.792c4.888,0,8.851,3.963,8.851,8.85
						s-3.963,8.85-8.851,8.85c-4.887,0-8.849-3.963-8.849-8.85S84.555,697.792,89.442,697.792z"/>
				</g>
			</g>
		</g>
		<g>
			<g>
				<g>
					<path class="st0" d="M63.942,719.285c6.982,0,12.643-5.66,12.643-12.643S70.924,694,63.942,694
						c-6.982,0-12.642,5.66-12.642,12.643S56.96,719.285,63.942,719.285z M63.792,697.792c4.887,0,8.851,3.963,8.851,8.85
						s-3.963,8.85-8.851,8.85s-8.849-3.963-8.849-8.85S58.905,697.792,63.792,697.792z"/>
				</g>
			</g>
		</g>
		<g>
			<g>
				<g>
					<path class="st0" d="M38.292,719.285c6.982,0,12.642-5.66,12.642-12.643S45.274,694,38.292,694s-12.642,5.66-12.642,12.643
						S31.31,719.285,38.292,719.285z M38.142,697.792c4.887,0,8.851,3.963,8.851,8.85s-3.963,8.85-8.851,8.85
						s-8.849-3.963-8.849-8.85S33.255,697.792,38.142,697.792z"/>
				</g>
			</g>
		</g>
		<g>
			<g>
				<g>
					<path class="st0" d="M12.642,0C5.66,0,0,5.66,0,12.642s5.66,12.642,12.642,12.642s12.642-5.66,12.642-12.642S19.624,0,12.642,0
						z M12.792,21.492c-4.887,0-8.851-3.963-8.851-8.85s3.963-8.85,8.851-8.85s8.849,3.963,8.849,8.85S17.679,21.492,12.792,21.492z
						"/>
				</g>
			</g>
		</g>
		<g>
			<g>
				<g>
					<path class="st0" d="M538.285,12.642C538.285,5.66,532.625,0,525.642,0S513,5.66,513,12.642s5.66,12.642,12.643,12.642
						S538.285,19.624,538.285,12.642z M516.792,12.792c0-4.887,3.963-8.851,8.85-8.851s8.85,3.963,8.85,8.851
						s-3.963,8.849-8.85,8.849S516.792,17.679,516.792,12.792z"/>
				</g>
			</g>
		</g>
		<g>
			<g>
				<g>
					<path class="st0" d="M525.642,719.285c6.982,0,12.643-5.66,12.643-12.643S532.625,694,525.642,694S513,699.66,513,706.642
						S518.66,719.285,525.642,719.285z M525.492,697.792c4.888,0,8.851,3.963,8.851,8.85s-3.963,8.85-8.851,8.85
						c-4.887,0-8.849-3.963-8.849-8.85S520.605,697.792,525.492,697.792z"/>
				</g>
			</g>
		</g>
		<g>
			<g>
				<g>
					<path class="st0" d="M0,706.642c0,6.982,5.66,12.643,12.642,12.643s12.642-5.66,12.642-12.643S19.624,694,12.642,694
						S0,699.66,0,706.642z M21.492,706.492c0,4.888-3.963,8.851-8.85,8.851s-8.85-3.963-8.85-8.851c0-4.887,3.963-8.849,8.85-8.849
						S21.492,701.605,21.492,706.492z"/>
				</g>
			</g>
		</g>
	</g>
</g>
</svg>
