<?xml version="1.0" encoding="utf-8"?>
<!-- Generator: Adobe Illustrator 14.0.0, SVG Export Plug-In . SVG Version: 6.00 Build 43363)  -->
<!DOCTYPE svg PUBLIC "-//W3C//DTD SVG 1.1//EN" "http://www.w3.org/Graphics/SVG/1.1/DTD/svg11.dtd">
<svg version="1.1" id="Layer_1" xmlns="http://www.w3.org/2000/svg" xmlns:xlink="http://www.w3.org/1999/xlink" x="0px" y="0px"
	 width="540.471px" height="720.461px" viewBox="0 0 540.471 720.461" style="enable-background:new 0 0 540.471 720.461;"
	 xml:space="preserve">
<style type="text/css">
<![CDATA[
	.st0{fill:#070707;stroke:#000000;stroke-width:0.75;}
]]>
</style>
<g id="Layer_1_1_">
</g>
<path class="st0" d="M540.199,694.262v-25.621v-25.658v-25.658v-25.66v-25.656v-25.66v-25.656v-25.658v-25.66v-25.658v-25.66
	v-25.656v-25.662v-25.659v-25.659v-25.659V258.1v-25.659v-25.659V181.12v-25.659V129.8v-25.659v-25.66V52.822V27.163h-0.004V23.01
	l-1.414-0.031l-1.647-0.146l-1.606-0.266l-1.566-0.382l-1.521-0.493l-1.472-0.6l-1.414-0.702l-1.354-0.8l-1.287-0.893l-1.219-0.981
	l-1.51-1.436l-1.036-1.169l-1.25-1.671l-0.831-1.332l-0.736-1.394l-0.635-1.451l-0.53-1.504l-0.42-1.552L518.44,4.61l-0.188-1.636
	L518.185,1h-4.149v0.031H488.43h-25.639h-25.639H411.51h-25.64h-25.641h-25.641H308.95H283.31h-25.641H232.03H206.4h-25.639h-25.639
	h-25.639h-25.639H78.209H52.57H26.932v0.004h-4.153l-0.031,1.413l-0.146,1.648l-0.266,1.61l-0.382,1.568L21.46,8.796l-0.6,1.469
	l-0.702,1.414l-0.8,1.353l-1.209,1.703l-1.364,1.575l-1.508,1.438l-1.217,0.981l-1.732,1.17l-1.373,0.768l-1.922,0.87l-1.504,0.53
	l-1.552,0.42L4.38,22.793L2.744,22.98L0.77,23.047V27.2h0.031v25.622v25.659v25.659v25.659v25.659v25.659v25.659v25.659v25.659
	v25.659v25.659v25.659v25.66v25.658v25.658v25.658v25.658v25.66v25.656v25.658V566v25.658v25.66v25.656v25.66v25.658h0.004v4.152
	l1.966,0.063l1.636,0.188l1.597,0.307l1.552,0.42l1.505,0.529l1.451,0.635l1.394,0.732l1.761,1.129l1.64,1.289l1.508,1.438
	l1.038,1.17l1.25,1.67l0.832,1.332l0.735,1.396l0.636,1.45l0.53,1.503l0.42,1.555l0.306,1.598l0.187,1.636l0.067,1.978h4.153v-0.031
	H52.57h25.639h25.639h25.639h25.639h25.639h25.639h25.639h25.639h25.639h25.639h25.641h25.641h25.639h25.644h25.639h25.639h25.643
	h25.639v-0.004h4.153l0.063-1.967l0.188-1.637l0.307-1.598l0.419-1.553l0.729-1.996l0.67-1.434l0.768-1.375l0.861-1.313l0.952-1.241
	l1.396-1.541l1.54-1.399l1.243-0.951l1.761-1.131l1.396-0.734l1.447-0.637l1.507-0.529l1.553-0.42l1.598-0.307l1.636-0.188
	l1.978-0.064v-4.152L540.199,694.262L540.199,694.262z M538.211,697.885l-1.681,0.189l-1.646,0.313l-1.596,0.434l-1.545,0.545
	l-1.492,0.65l-1.432,0.758l-1.369,0.854l-1.719,1.283l-1.199,1.063l-1.121,1.148l-1.035,1.229l-0.948,1.301l-0.854,1.369
	l-0.755,1.434l-0.652,1.492l-0.544,1.547l-0.432,1.596l-0.314,1.645l-0.192,1.68l-0.061,1.412h-3.563v0.004H488.43h-25.639h-25.639
	H411.51h-25.64h-25.641h-25.641H308.95H283.31h-25.641H232.03H206.4h-25.639h-25.639h-25.639h-25.639H78.209H52.57H26.932v0.031
	h-3.523l-0.061-1.42l-0.192-1.682l-0.314-1.645l-0.432-1.597l-0.544-1.546l-0.653-1.49l-0.756-1.434l-0.854-1.369l-0.948-1.299
	l-1.402-1.619l-1.149-1.121l-1.227-1.033l-1.3-0.947l-1.369-0.854l-1.433-0.756l-1.492-0.651l-1.546-0.543l-1.597-0.433
	l-1.641-0.313l-1.681-0.193l-1.412-0.062v-3.563H1.4v-25.656V642.98v-25.658v-25.66v-25.656v-25.66v-25.658V489.03v-25.66v-25.658
	v-25.66v-25.658v-25.66v-25.659v-25.659v-25.659v-25.659v-25.659v-25.659V181.12v-25.66V129.8v-25.659v-25.66V52.822V27.163H1.369
	V23.64l1.985-0.112l1.668-0.233l1.626-0.354l1.579-0.47l1.528-0.581l1.473-0.688l1.412-0.789l1.346-0.886l1.276-0.979l1.201-1.066
	l1.121-1.148l1.037-1.227l0.947-1.3l0.854-1.369l0.756-1.433l0.652-1.494l0.544-1.546l0.431-1.596l0.313-1.641l0.192-1.681
	l0.061-1.413h3.563V1.631H52.57h25.639h25.639h25.639h25.639h25.639h25.639h25.639h25.639h25.639h25.639h25.641h25.641h25.639
	h25.644h25.639h25.639h25.643h25.639V1.6h3.521l0.11,1.985l0.233,1.668l0.354,1.626l0.471,1.579l0.581,1.528l0.688,1.473l0.79,1.411
	l0.887,1.346l0.979,1.276l1.063,1.201l1.148,1.121l1.228,1.037l1.3,0.947l1.369,0.854l1.437,0.756l1.491,0.652l1.547,0.544
	l1.597,0.432l1.64,0.313l1.686,0.192l1.412,0.061v3.563h0.004v25.656v25.66v25.659v25.659v25.659v25.659v25.659v25.659v25.659
	v25.659v25.659v25.659v25.66v25.658v25.658v25.658v25.658v25.66v25.656v25.658V566v25.658v25.66v25.656v25.66v25.658h0.027v3.521
	L538.211,697.885z"/>
</svg>
