<?xml version="1.0" encoding="utf-8"?>
<!-- Generator: Adobe Illustrator 14.0.0, SVG Export Plug-In . SVG Version: 6.00 Build 43363)  -->
<!DOCTYPE svg PUBLIC "-//W3C//DTD SVG 1.1//EN" "http://www.w3.org/Graphics/SVG/1.1/DTD/svg11.dtd">
<svg version="1.1" id="Layer_1" xmlns="http://www.w3.org/2000/svg" xmlns:xlink="http://www.w3.org/1999/xlink" x="0px" y="0px"
	 width="581.984px" height="763.699px" viewBox="0 0 581.984 763.699" style="enable-background:new 0 0 581.984 763.699;"
	 xml:space="preserve">
<style type="text/css">
<![CDATA[
	.st0{fill:#000000}
]]>
</style> 
<g>
	<path class="st0"  d="M553.348,32.755c0.752,0,1.363-0.611,1.363-1.363c0-0.751-0.611-1.362-1.363-1.362c-0.751,0-1.362,0.611-1.362,1.362
		C551.985,32.144,552.597,32.755,553.348,32.755z M553.348,30.53c0.476,0,0.863,0.387,0.863,0.862c0,0.476-0.388,0.863-0.863,0.863
		s-0.862-0.387-0.862-0.863C552.485,30.917,552.872,30.53,553.348,30.53z"/>
	<path class="st0"  d="M550.01,33.869c0.752,0,1.363-0.611,1.363-1.363s-0.611-1.363-1.363-1.363s-1.363,0.611-1.363,1.363
		S549.258,33.869,550.01,33.869z M550.01,31.642c0.476,0,0.863,0.387,0.863,0.863s-0.388,0.863-0.863,0.863
		s-0.863-0.387-0.863-0.863S549.534,31.642,550.01,31.642z"/>
	<path class="st0"  d="M550.921,30.327c0.751,0,1.362-0.611,1.362-1.363s-0.611-1.363-1.362-1.363c-0.752,0-1.363,0.611-1.363,1.363
		S550.169,30.327,550.921,30.327z M550.921,28.102c0.476,0,0.862,0.387,0.862,0.863s-0.387,0.863-0.862,0.863
		s-0.863-0.387-0.863-0.863S550.445,28.102,550.921,28.102z"/>
	<path class="st0"  d="M573.53,22.894c0-0.138-0.112-0.25-0.25-0.25s-0.25,0.112-0.25,0.25c0,0.699-0.568,1.268-1.268,1.268
		s-1.268-0.569-1.268-1.268c0-0.138-0.112-0.25-0.25-0.25s-0.25,0.112-0.25,0.25c0,0.975,0.793,1.768,1.768,1.768
		S573.53,23.869,573.53,22.894z"/>
	<path class="st0"  d="M559.177,12.075c0.138,0,0.25-0.112,0.25-0.25s-0.112-0.25-0.25-0.25c-0.698,0-1.267-0.569-1.267-1.268
		c0-0.699,0.568-1.268,1.267-1.268c0.138,0,0.25-0.112,0.25-0.25s-0.112-0.25-0.25-0.25c-0.974,0-1.767,0.793-1.767,1.768
		C557.41,11.282,558.203,12.075,559.177,12.075z"/>
	<path class="st0"  d="M573.786,9.89c0.975,0,1.768-0.793,1.768-1.768c0-0.975-0.793-1.767-1.768-1.767c-0.976,0-1.769,0.792-1.769,1.767
		C572.018,9.097,572.811,9.89,573.786,9.89z M573.786,6.855c0.699,0,1.268,0.568,1.268,1.267c0,0.699-0.568,1.268-1.268,1.268
		s-1.269-0.569-1.269-1.268C572.518,7.423,573.087,6.855,573.786,6.855z"/>
	<path class="st0"  d="M571.435,10.816c2.607,1.033,4.809,1.558,6.542,1.558c0.001,0,0.001,0,0.001,0c2.644,0,3.523-1.217,3.813-1.942
		c0.435-1.089,0.119-2.478-0.75-3.301c-0.02-0.019-0.042-0.033-0.066-0.043c-0.308-0.278-0.7-0.43-1.117-0.43
		c-0.919,0-1.667,0.748-1.667,1.667c0,0.618,0.339,1.159,0.841,1.447c-0.24,0.062-0.464,0.094-0.669,0.094c0,0,0,0-0.001,0
		c-0.71,0-1.183-0.377-1.404-1.12c-0.447-1.5,0.307-3.887,1.48-4.799c0.344,0.246,0.751,0.379,1.167,0.379
		c1.114,0,2.021-0.907,2.021-2.021c0-1.114-0.906-2.02-2.021-2.02c-1.113,0-2.02,0.906-2.02,2.02c0,0.367,0.101,0.722,0.291,1.038
		c-0.717,0.967-2.422,1.734-3.906,1.734c-0.826,0-1.448-0.246-1.752-0.692c-0.235-0.347-0.29-0.833-0.163-1.427
		c0.295,0.469,0.816,0.778,1.411,0.778c0.004,0,0.065-0.001,0.068-0.001c0.446-0.018,0.857-0.208,1.159-0.536
		c0.301-0.327,0.456-0.752,0.438-1.196c-0.016-0.414-0.181-0.798-0.468-1.092c-0.013-0.026-0.029-0.051-0.051-0.072
		C574.071,0.313,573.271,0,572.471,0c-0.983,0-1.817,0.451-2.35,1.269c-0.813,1.252-1.271,3.903,1.177,9.417
		C571.324,10.745,571.373,10.792,571.435,10.816z M579.604,0.784c0.839,0,1.521,0.682,1.521,1.52c0,0.839-0.682,1.521-1.521,1.521
		c-0.366,0-0.71-0.131-0.995-0.38c-0.047-0.041-0.105-0.062-0.164-0.062c-0.007,0-0.014,0-0.021,0.001
		c0.01-0.064-0.005-0.132-0.045-0.187c-0.193-0.265-0.295-0.574-0.295-0.894C578.084,1.466,578.766,0.784,579.604,0.784z
		 M570.541,1.542c0.437-0.672,1.122-1.042,1.93-1.042c0.642,0,1.28,0.236,1.727,0.636c0.014,0.027,0.032,0.052,0.056,0.073
		c0.231,0.21,0.365,0.499,0.377,0.813c0.014,0.311-0.095,0.608-0.306,0.837s-0.499,0.362-0.859,0.375
		c-0.628,0-1.14-0.491-1.164-1.118c-0.005-0.118-0.092-0.217-0.208-0.237c-0.114-0.021-0.231,0.045-0.274,0.154
		c-0.44,1.111-0.446,1.997-0.015,2.631c0.398,0.587,1.167,0.911,2.164,0.911c0.001,0,0.001,0,0.001,0c1.021,0,2.293-0.356,3.27-0.99
		c-0.771,1.25-1.141,3.031-0.762,4.301c0.284,0.953,0.953,1.477,1.884,1.477c0.001,0,0.001,0,0.001,0
		c0.469,0,1.006-0.133,1.597-0.396c0.107-0.048,0.168-0.165,0.143-0.28c-0.024-0.116-0.126-0.198-0.244-0.198
		c-0.644,0-1.167-0.523-1.167-1.166s0.523-1.167,1.167-1.167c0.313,0,0.606,0.123,0.827,0.345c0.021,0.02,0.044,0.035,0.069,0.046
		c0.672,0.685,0.919,1.83,0.573,2.698c-0.419,1.049-1.607,1.627-3.349,1.627c0,0,0,0-0.001,0c-1.648,0-3.756-0.5-6.263-1.485
		C569.281,4.867,569.933,2.477,570.541,1.542z"/>
	<path class="st0"  d="M28.636,32.755c0.751,0,1.363-0.611,1.363-1.363c0-0.751-0.611-1.362-1.363-1.362c-0.752,0-1.363,0.611-1.363,1.362
		C27.273,32.144,27.884,32.755,28.636,32.755z M28.636,30.53c0.476,0,0.863,0.387,0.863,0.862c0,0.476-0.387,0.863-0.863,0.863
		c-0.476,0-0.863-0.387-0.863-0.863C27.773,30.917,28.16,30.53,28.636,30.53z"/>
	<path class="st0"  d="M31.975,31.142c-0.751,0-1.363,0.611-1.363,1.363s0.611,1.363,1.363,1.363c0.752,0,1.363-0.611,1.363-1.363
		S32.727,31.142,31.975,31.142z M31.975,33.369c-0.476,0-0.863-0.387-0.863-0.863s0.387-0.863,0.863-0.863
		c0.476,0,0.863,0.387,0.863,0.863S32.451,33.369,31.975,33.369z"/>
	<path class="st0"  d="M31.064,30.327c0.752,0,1.363-0.611,1.363-1.363s-0.611-1.363-1.363-1.363c-0.751,0-1.363,0.611-1.363,1.363
		S30.313,30.327,31.064,30.327z M31.064,28.102c0.476,0,0.863,0.387,0.863,0.863s-0.387,0.863-0.863,0.863
		c-0.476,0-0.863-0.387-0.863-0.863S30.588,28.102,31.064,28.102z"/>
	<path class="st0"  d="M11.489,22.894c0,0.699-0.568,1.268-1.267,1.268s-1.268-0.569-1.268-1.268c0-0.138-0.112-0.25-0.25-0.25
		s-0.25,0.112-0.25,0.25c0,0.975,0.793,1.768,1.768,1.768s1.767-0.793,1.767-1.768c0-0.138-0.112-0.25-0.25-0.25
		S11.489,22.756,11.489,22.894z"/>
	<path class="st0"  d="M22.558,8.79c0,0.138,0.112,0.25,0.25,0.25c0.699,0,1.268,0.569,1.268,1.268c0,0.699-0.569,1.268-1.268,1.268
		c-0.138,0-0.25,0.112-0.25,0.25s0.112,0.25,0.25,0.25c0.975,0,1.768-0.793,1.768-1.768c0-0.975-0.793-1.768-1.768-1.768
		C22.669,8.54,22.558,8.651,22.558,8.79z"/>
	<path class="st0"  d="M8.198,9.89c0.975,0,1.768-0.793,1.768-1.768c0-0.975-0.793-1.767-1.768-1.767c-0.975,0-1.767,0.792-1.767,1.767
		C6.431,9.097,7.224,9.89,8.198,9.89z M8.198,6.855c0.699,0,1.268,0.568,1.268,1.267c0,0.699-0.569,1.268-1.268,1.268
		c-0.699,0-1.267-0.569-1.267-1.268C6.931,7.423,7.5,6.855,8.198,6.855z"/>
	<path class="st0"  d="M3.795,8.325c0-0.919-0.748-1.667-1.667-1.667c-0.414,0-0.805,0.15-1.111,0.425C0.991,7.095,0.966,7.111,0.945,7.131
		C0.076,7.955-0.24,9.343,0.194,10.432c0.289,0.725,1.169,1.942,3.813,1.942c1.733,0,3.934-0.524,6.543-1.558
		c0.061-0.024,0.11-0.071,0.136-0.131c2.448-5.514,1.991-8.165,1.177-9.417C11.331,0.451,10.497,0,9.514,0
		c-0.8,0-1.601,0.313-2.14,0.838C7.355,0.857,7.34,0.879,7.329,0.903C7.039,1.197,6.871,1.584,6.854,2.001
		c-0.018,0.445,0.138,0.87,0.439,1.197c0.301,0.327,0.712,0.518,1.158,0.536c0.003,0,0.065,0.001,0.069,0.001
		c0.595,0,1.116-0.308,1.411-0.777c0.127,0.594,0.073,1.08-0.163,1.427C9.464,4.831,8.842,5.077,8.016,5.077
		c-1.484,0-3.189-0.767-3.906-1.734c0.191-0.316,0.292-0.671,0.292-1.038c0-1.114-0.906-2.02-2.021-2.02S0.36,1.19,0.36,2.304
		c0,1.114,0.907,2.021,2.021,2.021c0.423,0,0.823-0.13,1.167-0.379c1.174,0.912,1.928,3.298,1.481,4.798
		c-0.285,0.958-1,1.304-2.075,1.027C3.456,9.484,3.795,8.943,3.795,8.325z M3.606,3.198C3.566,3.252,3.551,3.32,3.561,3.384
		C3.5,3.377,3.428,3.399,3.375,3.445c-0.285,0.249-0.629,0.38-0.995,0.38c-0.839,0-1.521-0.682-1.521-1.521
		c0-0.838,0.682-1.52,1.521-1.52c0.838,0,1.521,0.682,1.521,1.52C3.901,2.623,3.799,2.932,3.606,3.198z M2.128,9.491
		c-0.118,0-0.22,0.083-0.245,0.198c-0.024,0.115,0.035,0.232,0.143,0.28c1.769,0.786,3.055,0.351,3.481-1.082
		c0.378-1.27,0.008-3.05-0.762-4.3c0.976,0.633,2.248,0.989,3.269,0.989c0.998,0,1.767-0.324,2.166-0.911
		c0.431-0.634,0.426-1.52-0.015-2.631C10.123,1.925,10.01,1.858,9.892,1.88C9.775,1.9,9.688,1.999,9.684,2.117
		c-0.024,0.626-0.535,1.117-1.21,1.117c-0.001,0-0.001,0-0.001,0C8.16,3.222,7.872,3.089,7.661,2.86
		C7.45,2.631,7.341,2.333,7.354,2.021C7.366,1.708,7.5,1.42,7.731,1.209C7.752,1.19,7.769,1.167,7.781,1.143
		C8.228,0.739,8.869,0.5,9.514,0.5c0.808,0,1.493,0.37,1.93,1.041c0.608,0.935,1.259,3.326-1.173,8.848
		c-2.508,0.985-4.615,1.485-6.264,1.485c-1.741,0-2.93-0.578-3.349-1.627c-0.345-0.866-0.1-2.008,0.57-2.693
		c0.027-0.012,0.051-0.029,0.073-0.051c0.221-0.222,0.515-0.345,0.828-0.345c0.643,0,1.167,0.523,1.167,1.167
		S2.771,9.491,2.128,9.491z"/>
	<path class="st0"  d="M553.348,730.943c-0.751,0-1.362,0.611-1.362,1.363s0.611,1.363,1.362,1.363c0.752,0,1.363-0.611,1.363-1.363
		S554.1,730.943,553.348,730.943z M553.348,733.17c-0.476,0-0.862-0.388-0.862-0.863s0.387-0.863,0.862-0.863
		s0.863,0.388,0.863,0.863S553.823,733.17,553.348,733.17z"/>
	<path class="st0"  d="M550.01,732.557c0.752,0,1.363-0.611,1.363-1.363c0-0.751-0.611-1.362-1.363-1.362s-1.363,0.611-1.363,1.362
		C548.646,731.945,549.258,732.557,550.01,732.557z M550.01,730.331c0.476,0,0.863,0.387,0.863,0.862s-0.388,0.863-0.863,0.863
		s-0.863-0.388-0.863-0.863S549.534,730.331,550.01,730.331z"/>
	<path class="st0"  d="M550.921,733.372c-0.752,0-1.363,0.611-1.363,1.362c0,0.752,0.611,1.363,1.363,1.363c0.751,0,1.362-0.611,1.362-1.363
		C552.283,733.983,551.672,733.372,550.921,733.372z M550.921,735.598c-0.476,0-0.863-0.388-0.863-0.863s0.388-0.862,0.863-0.862
		s0.862,0.387,0.862,0.862S551.396,735.598,550.921,735.598z"/>
	<path class="st0"  d="M570.495,740.806c0-0.699,0.568-1.269,1.268-1.269s1.268,0.569,1.268,1.269c0,0.138,0.112,0.25,0.25,0.25
		s0.25-0.112,0.25-0.25c0-0.976-0.793-1.769-1.768-1.769s-1.768,0.793-1.768,1.769c0,0.138,0.112,0.25,0.25,0.25
		S570.495,740.943,570.495,740.806z"/>
	<path class="st0"  d="M559.427,754.91c0-0.138-0.112-0.25-0.25-0.25c-0.698,0-1.267-0.569-1.267-1.269s0.568-1.268,1.267-1.268
		c0.138,0,0.25-0.112,0.25-0.25s-0.112-0.25-0.25-0.25c-0.974,0-1.767,0.793-1.767,1.768c0,0.976,0.793,1.769,1.767,1.769
		C559.314,755.16,559.427,755.048,559.427,754.91z"/>
	<path class="st0"  d="M570.604,752.229c1.104-0.075,2.2-0.313,3.257-0.733c2.679-1.065,4.782-3.109,5.922-5.757
		c0.919-2.129,0.952-4.488,0.096-6.643c-0.009-0.021-0.02-0.04-0.028-0.062c-0.003-0.016,0.007-0.031,0-0.047
		c-0.943-2.23-1.663-3.482-2.188-4.396c-0.539-0.939-0.837-1.456-0.938-2.278c-0.149-1.223,0.724-2.338,1.946-2.487
		c0.963-0.118,1.817,0.563,1.934,1.513c0.043,0.355-0.055,0.706-0.275,0.988c-0.22,0.281-0.537,0.46-0.892,0.503
		c-0.277,0.029-0.539-0.042-0.753-0.209c-0.215-0.168-0.352-0.409-0.385-0.681c-0.051-0.419,0.249-0.802,0.67-0.854
		c0.137-0.017,0.233-0.142,0.217-0.279c-0.018-0.136-0.132-0.229-0.279-0.217c-0.693,0.086-1.188,0.72-1.104,1.411
		c0.049,0.403,0.253,0.764,0.573,1.015c0.319,0.25,0.713,0.358,1.121,0.311c0.487-0.059,0.922-0.305,1.225-0.691
		c0.304-0.387,0.438-0.868,0.378-1.356c-0.148-1.224-1.262-2.106-2.49-1.948c-1.496,0.183-2.564,1.548-2.382,3.044
		c0.112,0.923,0.447,1.504,1.001,2.467c0.216,0.377,0.468,0.817,0.753,1.355c-0.773-0.78-1.695-1.416-2.735-1.864
		c-0.878-0.379-1.805-0.568-2.734-0.573c0.687-2.132,0.586-4.556,0.042-6.699c-0.08-0.315-0.177-0.633-0.268-0.948
		c1.494,0.034,3.052,0.241,4.655,0.646l0.312,0.079v-5.785c0.735,0.034,1.485-0.179,2.102-0.679
		c1.634-1.329,1.883-3.742,0.554-5.379c-0.699-0.861-1.646-1.391-2.655-1.611V50.337c1.011-0.219,1.955-0.768,2.655-1.63
		c1.329-1.637,1.081-4.05-0.555-5.379c-0.614-0.5-1.364-0.713-2.101-0.68v-5.785l-0.312,0.079c-1.604,0.406-3.162,0.613-4.656,0.647
		c0.091-0.316,0.188-0.633,0.269-0.95c0.544-2.143,0.645-4.566-0.042-6.699c0.93-0.004,1.856-0.194,2.734-0.573
		c1.04-0.448,1.962-1.083,2.735-1.865c-0.285,0.539-0.537,0.979-0.753,1.356c-0.554,0.963-0.889,1.544-1.001,2.467
		c-0.183,1.495,0.886,2.861,2.382,3.043c0.093,0.011,0.185,0.017,0.276,0.017c0.496,0,0.976-0.165,1.373-0.476
		c0.47-0.368,0.769-0.897,0.841-1.49c0.06-0.487-0.074-0.969-0.377-1.356c-0.303-0.387-0.738-0.633-1.226-0.692
		c-0.836-0.108-1.594,0.493-1.694,1.327c-0.085,0.692,0.41,1.325,1.104,1.41c0.135,0.023,0.262-0.081,0.278-0.217
		c0.017-0.137-0.08-0.262-0.218-0.279c-0.42-0.052-0.721-0.435-0.669-0.854c0.068-0.559,0.571-0.957,1.138-0.891
		c0.354,0.043,0.672,0.223,0.893,0.504c0.22,0.282,0.317,0.632,0.274,0.987c-0.057,0.46-0.288,0.872-0.653,1.157
		c-0.364,0.286-0.817,0.415-1.28,0.356c-1.222-0.149-2.095-1.265-1.946-2.487c0.101-0.822,0.398-1.34,0.938-2.279
		c0.525-0.914,1.244-2.166,2.188-4.397c0.007-0.015-0.003-0.03,0-0.046c0.009-0.021,0.02-0.041,0.028-0.062
		c0.856-2.155,0.823-4.515-0.096-6.644c-1.14-2.646-3.243-4.69-5.922-5.755c-1.057-0.42-2.153-0.661-3.257-0.737
		c-0.075-1.103-0.316-2.2-0.737-3.258c-1.064-2.678-3.108-4.781-5.755-5.922c-2.13-0.919-4.489-0.953-6.645-0.095
		c-0.051,0.021-0.099,0.047-0.149,0.068c-0.007,0.002-0.014-0.003-0.021,0c-2.23,0.942-3.464,1.65-4.365,2.168
		c-0.919,0.527-1.425,0.818-2.247,0.918c-1.217,0.148-2.339-0.724-2.488-1.946c-0.115-0.95,0.563-1.817,1.514-1.934
		c0.734-0.085,1.401,0.435,1.492,1.167c0.033,0.271-0.042,0.538-0.21,0.752c-0.169,0.215-0.41,0.351-0.682,0.384
		c-0.422,0.056-0.802-0.248-0.854-0.669c-0.018-0.136-0.132-0.238-0.279-0.217c-0.137,0.017-0.233,0.142-0.217,0.279
		c0.087,0.693,0.704,1.192,1.411,1.104c0.403-0.049,0.764-0.252,1.015-0.572s0.361-0.718,0.313-1.122
		c-0.123-1.006-1.032-1.725-2.049-1.603c-1.224,0.149-2.099,1.266-1.949,2.49c0.169,1.384,1.352,2.402,2.713,2.402
		c0.109,0,0.221-0.007,0.332-0.021c0.923-0.113,1.492-0.439,2.436-0.981c0.379-0.218,0.825-0.473,1.375-0.762
		c-0.776,0.771-1.408,1.689-1.854,2.724c-0.379,0.878-0.567,1.806-0.572,2.734c-2.132-0.687-4.555-0.586-6.698-0.042
		c-0.316,0.08-0.634,0.177-0.95,0.269c0.034-1.494,0.242-3.052,0.647-4.656l0.079-0.312h-5.784c0.033-0.735-0.18-1.485-0.68-2.1
		c-0.644-0.792-1.559-1.287-2.574-1.392c-1.016-0.101-2.013,0.192-2.805,0.836c-0.861,0.7-1.392,1.647-1.611,2.656H50.23
		c-0.22-1.008-0.749-1.956-1.609-2.656c-0.793-0.645-1.788-0.943-2.805-0.836c-1.017,0.105-1.931,0.6-2.574,1.392
		c-0.5,0.615-0.713,1.365-0.68,2.1h-5.785l0.079,0.312c0.405,1.604,0.613,3.162,0.647,4.656c-0.317-0.091-0.634-0.188-0.95-0.269
		c-2.144-0.544-4.567-0.645-6.699,0.042c-0.004-0.929-0.194-1.856-0.573-2.734c-0.446-1.036-1.078-1.954-1.855-2.725
		c0.55,0.29,0.997,0.544,1.377,0.763c0.943,0.542,1.512,0.868,2.435,0.981c0.112,0.014,0.222,0.021,0.332,0.021
		c1.361,0,2.543-1.019,2.713-2.402c0.149-1.224-0.725-2.341-1.949-2.49c-0.487-0.06-0.969,0.074-1.356,0.377
		c-0.387,0.303-0.633,0.738-0.692,1.226c-0.049,0.403,0.062,0.801,0.313,1.121c0.25,0.32,0.611,0.523,1.013,0.572
		c0.334,0.04,0.667-0.05,0.934-0.259c0.267-0.208,0.436-0.508,0.478-0.844c0.017-0.137-0.081-0.262-0.217-0.279
		c-0.144-0.022-0.262,0.081-0.279,0.217c-0.025,0.204-0.128,0.386-0.29,0.512c-0.161,0.126-0.362,0.181-0.564,0.157
		c-0.271-0.033-0.512-0.169-0.681-0.384c-0.168-0.215-0.243-0.482-0.21-0.752c0.043-0.355,0.222-0.672,0.504-0.893
		c0.282-0.22,0.634-0.318,0.988-0.274c0.95,0.116,1.629,0.983,1.514,1.934c-0.15,1.222-1.271,2.088-2.488,1.946
		c-0.822-0.101-1.328-0.391-2.247-0.918c-0.901-0.518-2.135-1.226-4.366-2.168c-0.007-0.003-0.014,0.002-0.021,0
		c-0.051-0.021-0.098-0.047-0.149-0.068c-2.156-0.858-4.516-0.824-6.645,0.095c-2.646,1.141-4.69,3.244-5.755,5.922
		c-0.42,1.057-0.662,2.154-0.737,3.257c-1.103,0.076-2.2,0.317-3.257,0.738c-2.678,1.065-4.782,3.109-5.922,5.755
		c-0.918,2.129-0.952,4.489-0.095,6.644c0.008,0.021,0.02,0.041,0.028,0.062c0.003,0.016-0.006,0.031,0,0.046
		c0.943,2.233,1.663,3.485,2.188,4.398c0.54,0.938,0.837,1.456,0.938,2.277c0.072,0.592-0.09,1.176-0.458,1.646
		c-0.367,0.47-0.896,0.768-1.488,0.841c-0.463,0.056-0.916-0.071-1.281-0.356c-0.365-0.286-0.597-0.697-0.652-1.158
		c-0.043-0.354,0.053-0.705,0.273-0.986c0.22-0.282,0.538-0.461,0.893-0.505c0.272-0.03,0.539,0.042,0.752,0.21
		c0.215,0.168,0.352,0.41,0.385,0.681c0.051,0.419-0.249,0.802-0.669,0.854c-0.137,0.017-0.234,0.142-0.217,0.279
		s0.138,0.234,0.279,0.217c0.693-0.085,1.188-0.718,1.104-1.41c-0.049-0.403-0.252-0.764-0.572-1.014
		c-0.32-0.251-0.718-0.364-1.122-0.313c-0.488,0.06-0.924,0.306-1.227,0.693c-0.302,0.387-0.436,0.869-0.375,1.355
		c0.072,0.593,0.37,1.122,0.84,1.49c0.397,0.311,0.876,0.476,1.374,0.476c0.091,0,0.184-0.006,0.276-0.017
		c0.725-0.088,1.371-0.454,1.821-1.029c0.45-0.575,0.649-1.291,0.56-2.015c-0.113-0.922-0.447-1.503-1-2.466
		c-0.217-0.377-0.469-0.818-0.754-1.357c0.773,0.781,1.695,1.417,2.735,1.865c0.878,0.379,1.806,0.568,2.735,0.573
		c-0.687,2.133-0.586,4.556-0.042,6.699c0.08,0.316,0.177,0.633,0.268,0.949c-1.494-0.034-3.052-0.242-4.655-0.646l-0.311-0.079
		v5.785c-0.736-0.033-1.486,0.18-2.101,0.68c-1.635,1.33-1.884,3.743-0.555,5.379c0.701,0.863,1.646,1.412,2.656,1.631v663.045
		c-1.009,0.22-1.956,0.749-2.656,1.611c-1.329,1.636-1.08,4.049,0.555,5.379c0.615,0.499,1.365,0.712,2.101,0.679v5.785l0.312-0.079
		c1.603-0.405,3.161-0.613,4.655-0.647c-0.091,0.316-0.188,0.633-0.269,0.949c-0.544,2.144-0.645,4.567,0.042,6.699
		c-0.929,0.005-1.856,0.193-2.735,0.573c-1.04,0.448-1.962,1.084-2.735,1.865c0.286-0.54,0.538-0.981,0.755-1.358
		c0.553-0.962,0.887-1.543,1-2.465c0.089-0.725-0.11-1.44-0.56-2.016c-0.45-0.575-1.097-0.94-1.821-1.028
		c-0.595-0.077-1.179,0.09-1.649,0.459c-0.47,0.368-0.769,0.896-0.84,1.489c-0.06,0.487,0.073,0.97,0.376,1.356
		s0.738,0.633,1.226,0.691c0.406,0.051,0.802-0.061,1.121-0.311c0.321-0.251,0.524-0.611,0.573-1.015
		c0.084-0.692-0.411-1.325-1.104-1.411c-0.135-0.016-0.262,0.08-0.279,0.217c-0.017,0.138,0.08,0.263,0.217,0.279
		c0.42,0.052,0.72,0.436,0.669,0.854c-0.033,0.271-0.17,0.513-0.385,0.681s-0.479,0.239-0.753,0.209
		c-0.355-0.043-0.672-0.222-0.892-0.503c-0.22-0.282-0.318-0.633-0.274-0.988c0.056-0.46,0.288-0.871,0.652-1.156
		c0.365-0.286,0.822-0.415,1.281-0.356c0.592,0.072,1.12,0.371,1.488,0.841s0.53,1.055,0.458,1.646
		c-0.101,0.821-0.398,1.338-0.938,2.276c-0.525,0.914-1.245,2.166-2.188,4.398c-0.006,0.016,0.003,0.031,0,0.047
		c-0.008,0.021-0.02,0.04-0.028,0.062c-0.857,2.154-0.823,4.514,0.095,6.643c1.14,2.647,3.244,4.691,5.922,5.757
		c1.058,0.42,2.154,0.658,3.257,0.733c0.076,1.104,0.316,2.202,0.737,3.261c1.065,2.679,3.109,4.782,5.755,5.922
		c2.129,0.919,4.489,0.952,6.645,0.097c0.052-0.021,0.101-0.048,0.152-0.069c0.006-0.002,0.012,0.002,0.018,0
		c2.231-0.942,3.465-1.65,4.367-2.167c0.918-0.527,1.424-0.817,2.246-0.919c1.219-0.146,2.338,0.725,2.488,1.946
		c0.116,0.95-0.563,1.817-1.514,1.935c-0.73,0.093-1.403-0.435-1.492-1.168c-0.033-0.271,0.042-0.538,0.21-0.753
		c0.168-0.215,0.409-0.351,0.681-0.383c0.206-0.023,0.402,0.03,0.563,0.155c0.162,0.126,0.265,0.309,0.29,0.512
		c0.017,0.138,0.136,0.229,0.279,0.218c0.137-0.017,0.234-0.142,0.217-0.278c-0.042-0.337-0.211-0.637-0.479-0.846
		c-0.266-0.207-0.596-0.299-0.931-0.257c-0.403,0.048-0.763,0.25-1.014,0.569c-0.251,0.32-0.362,0.719-0.313,1.123
		c0.113,0.932,0.909,1.617,1.826,1.617c0.074,0,0.148-0.005,0.223-0.014c1.224-0.15,2.099-1.268,1.949-2.491
		c-0.183-1.495-1.555-2.563-3.045-2.382c-0.922,0.113-1.492,0.439-2.435,0.98c-0.379,0.219-0.826,0.473-1.376,0.763
		c0.776-0.771,1.408-1.688,1.854-2.724c0.379-0.878,0.568-1.806,0.573-2.734c2.132,0.687,4.556,0.586,6.699,0.041
		c0.316-0.08,0.633-0.177,0.95-0.269c-0.035,1.495-0.242,3.054-0.647,4.657l-0.079,0.312h5.786c-0.034,0.735,0.18,1.485,0.679,2.1
		c0.644,0.793,1.558,1.287,2.574,1.393c0.134,0.014,0.267,0.021,0.399,0.021c0.875,0,1.717-0.298,2.406-0.856
		c0.861-0.7,1.39-1.647,1.609-2.656h481.524c0.22,1.009,0.75,1.956,1.611,2.656c0.688,0.559,1.529,0.856,2.404,0.856
		c0.133,0,0.267-0.007,0.4-0.021c1.016-0.105,1.931-0.6,2.574-1.393c0.499-0.614,0.712-1.364,0.679-2.1h5.785l-0.079-0.312
		c-0.405-1.604-0.613-3.162-0.647-4.657c0.316,0.092,0.634,0.188,0.95,0.269c2.144,0.544,4.566,0.645,6.698-0.041
		c0.005,0.929,0.193,1.855,0.572,2.734c0.446,1.035,1.078,1.952,1.854,2.723c-0.55-0.289-0.996-0.544-1.375-0.762
		c-0.943-0.541-1.512-0.867-2.435-0.98c-1.499-0.183-2.862,0.887-3.045,2.382c-0.149,1.224,0.726,2.341,1.949,2.491
		c0.075,0.009,0.149,0.014,0.223,0.014c0.915,0,1.712-0.686,1.826-1.617c0.05-0.404-0.062-0.803-0.313-1.122
		c-0.251-0.32-0.611-0.522-1.013-0.57c-0.339-0.042-0.668,0.05-0.935,0.259c-0.267,0.208-0.436,0.507-0.478,0.843
		c-0.017,0.138,0.08,0.263,0.217,0.279c0.149,0.012,0.263-0.081,0.279-0.217c0.025-0.204,0.128-0.386,0.289-0.512
		c0.162-0.127,0.366-0.18,0.566-0.156c0.271,0.032,0.512,0.168,0.681,0.383c0.168,0.215,0.243,0.482,0.21,0.753
		c-0.091,0.732-0.758,1.262-1.492,1.168c-0.95-0.117-1.629-0.984-1.514-1.935c0.148-1.221,1.261-2.089,2.488-1.946
		c0.822,0.102,1.328,0.392,2.246,0.919c0.901,0.517,2.136,1.225,4.366,2.167c0.006,0.003,0.012-0.002,0.018,0
		c0.052,0.021,0.101,0.049,0.152,0.069c1.038,0.412,2.124,0.618,3.208,0.618c1.167,0,2.333-0.238,3.437-0.715
		c2.646-1.141,4.69-3.243,5.755-5.922C570.288,754.432,570.529,753.334,570.604,752.229z M575.05,734.791
		c2.007,0.865,3.557,2.46,4.364,4.49s0.775,4.254-0.09,6.261c-1.087,2.523-3.093,4.474-5.647,5.489
		c-0.991,0.395-2.02,0.625-3.055,0.701c0.033-1.526-0.25-3.055-0.873-4.497c-0.308-0.714-0.682-1.386-1.098-2.024
		c0.12,0.063,0.229,0.142,0.354,0.195c2.313,0.996,5.004-0.074,6.001-2.387c0.392-0.908,0.406-1.915,0.041-2.834
		c-0.365-0.92-1.067-1.642-1.977-2.032c-0.981-0.422-2.045-0.254-2.853,0.344c-0.745,0.499-1.236,1.348-1.236,2.309
		c0,1.532,1.247,2.779,2.78,2.779c1.532,0,2.779-1.247,2.779-2.779c0-0.252-0.045-0.492-0.108-0.725
		c0.051,0.097,0.108,0.187,0.149,0.289c0.316,0.795,0.304,1.666-0.035,2.452c-0.889,2.059-3.287,3.013-5.345,2.125
		c-0.541-0.233-1.015-0.565-1.436-0.952c-0.196-0.238-0.406-0.463-0.618-0.686c-0.274-0.364-0.519-0.753-0.691-1.188
		c-0.38-0.956-0.464-1.979-0.254-2.963c0.71-0.161,1.428-0.395,2.154-0.724c2.044-0.928,3.301-2.431,3.982-4.171
		C573.26,734.245,574.181,734.416,575.05,734.791z M562.02,748.411c-1.34-1.271-2.408-2.819-3.111-4.587
		c-0.539-1.355-0.826-2.766-0.893-4.181c1.415,0.066,2.825,0.354,4.181,0.894c1.769,0.703,3.317,1.773,4.59,3.115
		c0.188,0.243,0.388,0.474,0.612,0.683c0.762,0.929,1.403,1.965,1.892,3.098c0.598,1.385,0.868,2.853,0.832,4.317
		c-1.466,0.036-2.935-0.234-4.32-0.832c-1.132-0.487-2.166-1.128-3.094-1.889C562.497,748.803,562.266,748.6,562.02,748.411z
		 M558.044,737.999c1.855,0.849,3.804,1.425,5.834,1.425c0.598,0,1.204-0.064,1.815-0.171c-0.174,0.979-0.089,1.986,0.267,2.938
		c-1.063-0.875-2.263-1.596-3.579-2.119c-1.42-0.564-2.898-0.864-4.383-0.929C557.995,738.762,558.012,738.38,558.044,737.999z
		 M557.497,739.126c-0.451-0.003-0.902,0.016-1.353,0.06c-0.551-1.131-1.195-2.225-1.867-3.278c1.054,0.671,2.15,1.306,3.28,1.855
		C557.514,738.217,557.495,738.671,557.497,739.126z M557.515,739.626c0.065,1.483,0.364,2.962,0.929,4.383
		c0.523,1.316,1.244,2.517,2.119,3.58c-0.951-0.354-1.957-0.44-2.937-0.268c0.468-2.688-0.158-5.248-1.256-7.649
		C556.751,739.64,557.133,739.623,557.515,739.626z M569.648,739.962l0.017,0.007c0.192-0.445,0.49-0.8,0.842-1.063
		c0.36-0.239,0.792-0.38,1.256-0.38c1.257,0,2.279,1.022,2.279,2.279s-1.022,2.279-2.279,2.279c-1.258,0-2.28-1.022-2.28-2.279
		C569.482,740.507,569.544,740.224,569.648,739.962z M566.384,738.595c0.046-0.137,0.074-0.277,0.132-0.411
		c0.686-1.593,1.951-2.823,3.563-3.464c0.551-0.219,1.119-0.354,1.691-0.418c-0.659,1.535-1.804,2.854-3.619,3.679
		C567.557,738.25,566.969,738.445,566.384,738.595z M569.895,734.255c-1.736,0.69-3.1,2.016-3.838,3.731
		c-0.104,0.239-0.166,0.487-0.235,0.734c-2.706,0.527-5.298-0.12-7.729-1.254c0.15-1.201,0.465-2.39,0.958-3.533
		c0.345-0.799,0.756-1.543,1.228-2.228c0.519,1.196,1.46,2.213,2.739,2.791c0.586,0.265,1.2,0.391,1.806,0.391
		c1.677,0,3.282-0.963,4.016-2.587c0.394-0.869,0.425-1.84,0.089-2.732c-0.337-0.892-1.001-1.6-1.869-1.992
		c-0.455-0.205-0.941-0.275-1.424-0.237c1.65-0.719,3.492-1.142,5.478-1.225c0.68,0.853,1.271,2.05,1.312,3.669
		c0.002,0.056,0.027,0.098,0.056,0.138c0.063,1.316-0.08,2.641-0.503,3.856C571.271,733.829,570.57,733.986,569.895,734.255z
		 M560.756,727.507c1.416-3.131,5.121-4.528,8.252-3.113c0.066,0.03,0.873,0.41,1.686,1.243c-4.228,0.268-7.828,2.013-10.231,4.998
		C560.229,729.619,560.295,728.527,560.756,727.507z M563.529,728.492c-0.122,0.165-0.231,0.342-0.318,0.534
		c-0.262,0.578-0.283,1.224-0.059,1.817c0.224,0.594,0.666,1.064,1.244,1.326c0.473,0.214,1.003,0.23,1.491,0.047
		c0.487-0.184,0.874-0.546,1.088-1.021c0.058-0.126,0.001-0.273-0.125-0.33c-0.127-0.059-0.274-0.002-0.33,0.125
		c-0.159,0.352-0.446,0.621-0.81,0.758c-0.363,0.138-0.756,0.125-1.107-0.034c-0.457-0.207-0.807-0.579-0.983-1.048
		s-0.16-0.978,0.046-1.434c0.266-0.586,0.742-1.033,1.344-1.261c0.603-0.229,1.255-0.205,1.842,0.059
		c0.747,0.338,1.317,0.946,1.607,1.714c0.289,0.768,0.262,1.602-0.076,2.35c-0.885,1.959-3.196,2.832-5.161,1.947
		c-1.253-0.567-2.152-1.597-2.594-2.796C561.447,730.166,562.421,729.243,563.529,728.492z M571.805,726.244
		c-0.029-0.043-0.056-0.09-0.086-0.132c0.017,0,0.033,0,0.049,0C571.78,726.156,571.792,726.2,571.805,726.244z M576.754,726.196
		c-1.586-0.379-3.13-0.571-4.61-0.594c-0.028-0.096-0.053-0.19-0.081-0.286c-0.479-1.605-0.972-3.267-0.906-4.947
		c0.073-1.846,1.068-4.567,2.433-5.675c0.924-0.75,2.069-1.038,3.165-0.905v2.107c-0.492-0.022-0.995,0.12-1.406,0.453
		c-1.084,0.883-1.25,2.484-0.368,3.571c0.467,0.574,1.101,0.924,1.774,1.065V726.196z M577.254,716.51
		c0.239,0.097,0.46,0.246,0.633,0.46c0.205,0.251,0.299,0.567,0.266,0.89s-0.189,0.612-0.44,0.816
		c-0.137,0.11-0.296,0.159-0.458,0.182V716.51z M576.754,718.791c-0.127-0.057-0.245-0.134-0.338-0.248
		c-0.088-0.108-0.246-0.123-0.352-0.037c-0.107,0.087-0.124,0.244-0.037,0.352c0.192,0.237,0.452,0.37,0.727,0.446v1.176
		c-0.526-0.133-1.018-0.422-1.386-0.874c-0.708-0.873-0.575-2.159,0.295-2.867c0.319-0.259,0.71-0.367,1.091-0.345V718.791z
		 M579.521,715.309c1.155,1.423,0.939,3.521-0.48,4.676c-0.523,0.426-1.161,0.604-1.786,0.57v-1.206
		c0.273-0.023,0.544-0.1,0.773-0.284c0.354-0.289,0.576-0.699,0.623-1.154s-0.087-0.901-0.375-1.257
		c-0.274-0.337-0.633-0.564-1.021-0.68v-2.084C578.115,714.102,578.92,714.569,579.521,715.309z M579.039,43.715
		c1.422,1.156,1.638,3.253,0.481,4.676c-0.601,0.74-1.405,1.208-2.267,1.418v-2.084c0.389-0.115,0.747-0.342,1.021-0.679
		c0.288-0.355,0.422-0.802,0.375-1.257s-0.269-0.865-0.624-1.154c-0.229-0.186-0.5-0.262-0.772-0.286v-1.203
		C577.879,43.112,578.517,43.291,579.039,43.715z M576.754,44.395c-0.274,0.076-0.534,0.21-0.727,0.447
		c-0.087,0.107-0.07,0.265,0.037,0.352c0.105,0.087,0.264,0.07,0.352-0.037c0.093-0.115,0.211-0.192,0.338-0.249v2.397
		c-0.381,0.023-0.771-0.085-1.09-0.343c-0.871-0.709-1.004-1.996-0.296-2.868c0.368-0.452,0.859-0.74,1.386-0.873V44.395z
		 M577.254,44.842c0.162,0.021,0.321,0.071,0.458,0.181c0.251,0.204,0.407,0.495,0.44,0.817c0.033,0.323-0.061,0.639-0.266,0.891
		c-0.173,0.213-0.394,0.363-0.633,0.459V44.842z M576.754,37.503v5.21c-0.674,0.142-1.307,0.492-1.774,1.065
		c-0.881,1.085-0.716,2.688,0.369,3.571c0.411,0.333,0.913,0.475,1.405,0.452v2.108c-1.096,0.132-2.241-0.156-3.165-0.905
		c-1.364-1.107-2.359-3.829-2.433-5.676c-0.065-1.678,0.428-3.339,0.905-4.945c0.028-0.096,0.053-0.192,0.081-0.288
		C573.624,38.073,575.167,37.881,576.754,37.503z M571.768,37.588c-0.017,0-0.033,0-0.049,0c0.029-0.042,0.057-0.09,0.087-0.133
		C571.792,37.499,571.78,37.544,571.768,37.588z M572.479,33.772c-0.029,0.042-0.055,0.087-0.057,0.143
		c-0.04,1.62-0.633,2.818-1.313,3.67c-1.986-0.083-3.828-0.506-5.479-1.225c0.483,0.039,0.971-0.031,1.426-0.237
		c0.868-0.393,1.532-1.101,1.869-1.993c0.336-0.893,0.305-1.863-0.089-2.731c-0.998-2.209-3.608-3.195-5.821-2.198
		c-1.244,0.562-2.195,1.558-2.733,2.802c-0.474-0.688-0.887-1.435-1.233-2.238c-0.498-1.156-0.805-2.346-0.951-3.537
		c2.43-1.131,5.019-1.778,7.723-1.25c0.069,0.247,0.132,0.495,0.235,0.735c0.738,1.716,2.102,3.042,3.838,3.732
		c0.676,0.269,1.376,0.425,2.081,0.477C572.397,31.136,572.541,32.458,572.479,33.772z M560.461,33.063
		c2.403,2.985,6.005,4.73,10.232,4.998c-0.813,0.833-1.618,1.213-1.685,1.243c-1.519,0.687-3.213,0.741-4.771,0.153
		s-2.795-1.748-3.481-3.266C560.307,35.197,560.22,34.11,560.461,33.063z M563.666,34.466c-0.206-0.456-0.223-0.965-0.046-1.434
		c0.177-0.469,0.526-0.84,0.983-1.047c0.352-0.159,0.744-0.172,1.107-0.035c0.362,0.137,0.65,0.407,0.81,0.759
		c0.056,0.125,0.204,0.182,0.33,0.125c0.126-0.057,0.182-0.205,0.125-0.331c-0.214-0.474-0.601-0.837-1.089-1.021
		c-0.485-0.184-1.018-0.167-1.489,0.047c-0.579,0.262-1.021,0.732-1.245,1.326s-0.203,1.239,0.059,1.816
		c0.088,0.194,0.198,0.372,0.322,0.539c-1.111-0.752-2.087-1.677-2.907-2.76c0.004-0.012,0.005-0.025,0.01-0.037
		c0.466-1.234,1.384-2.213,2.586-2.756c1.96-0.885,4.275-0.011,5.161,1.948c0.338,0.747,0.365,1.582,0.076,2.349
		c-0.29,0.767-0.86,1.376-1.607,1.714c-0.586,0.265-1.24,0.286-1.842,0.059C564.408,35.5,563.932,35.052,563.666,34.466z
		 M562.688,14.695c0.922-0.764,1.96-1.417,3.114-1.915c1.387-0.598,2.855-0.867,4.32-0.831c0.036,1.465-0.234,2.932-0.832,4.317
		c-0.488,1.133-1.13,2.169-1.892,3.097c-0.224,0.209-0.425,0.438-0.611,0.682c-1.272,1.341-2.821,2.412-4.591,3.115
		c-1.353,0.538-2.76,0.825-4.173,0.892c0.16-3.332,1.605-6.506,4.055-8.813C562.293,15.072,562.499,14.895,562.688,14.695z
		 M557.523,24.071c-0.385,0.003-0.769-0.013-1.152-0.045c1.098-2.401,1.724-4.962,1.255-7.648c0.985,0.173,1.999,0.087,2.955-0.273
		C558.729,18.354,557.654,21.156,557.523,24.071z M557.419,24.583c0.027,0,0.056-0.004,0.083-0.004
		c-0.003,0.447,0.016,0.896,0.058,1.346c-1.133,0.551-2.228,1.196-3.283,1.869c0.671-1.054,1.315-2.146,1.866-3.276
		C556.567,24.56,556.993,24.583,557.419,24.583z M558.003,24.556c1.481-0.065,2.959-0.365,4.378-0.929
		c1.316-0.523,2.516-1.244,3.579-2.119c-0.355,0.952-0.439,1.958-0.267,2.938c-2.686-0.468-5.245,0.157-7.646,1.254
		C558.017,25.317,557.999,24.936,558.003,24.556z M566.384,25.104c0.585,0.149,1.173,0.345,1.768,0.615
		c1.815,0.824,2.96,2.143,3.619,3.679c-0.572-0.063-1.141-0.199-1.691-0.417c-1.612-0.641-2.878-1.872-3.563-3.465
		C566.458,25.381,566.43,25.241,566.384,25.104z M573.677,12.669c2.555,1.016,4.561,2.965,5.647,5.489
		c0.865,2.007,0.897,4.23,0.09,6.261s-2.357,3.625-4.364,4.49c-0.87,0.375-1.79,0.545-2.709,0.525
		c-0.682-1.74-1.938-3.243-3.982-4.17c-0.727-0.33-1.444-0.566-2.154-0.727c-0.209-0.982-0.126-2.005,0.254-2.96
		c0.173-0.435,0.417-0.823,0.691-1.187c0.212-0.224,0.422-0.448,0.618-0.687c0.421-0.387,0.896-0.719,1.436-0.952
		c2.063-0.886,4.458,0.067,5.345,2.125c0.339,0.786,0.352,1.656,0.035,2.451c-0.04,0.102-0.099,0.192-0.148,0.288
		c0.063-0.232,0.107-0.471,0.107-0.723c0-1.533-1.247-2.779-2.779-2.779c-1.533,0-2.78,1.247-2.78,2.779
		c0,0.962,0.492,1.811,1.237,2.31c0.809,0.597,1.872,0.765,2.852,0.342c0.909-0.391,1.611-1.113,1.977-2.032
		s0.351-1.926-0.041-2.834c-0.998-2.313-3.69-3.382-6.001-2.386c-0.125,0.054-0.233,0.133-0.354,0.195
		c0.415-0.639,0.789-1.31,1.097-2.023c0.623-1.443,0.906-2.972,0.873-4.498C571.656,12.044,572.685,12.274,573.677,12.669z
		 M569.665,23.731l-0.017,0.007c-0.104-0.261-0.166-0.545-0.166-0.844c0-1.257,1.022-2.279,2.28-2.279
		c1.257,0,2.279,1.022,2.279,2.279c0,1.256-1.022,2.279-2.279,2.279c-0.466,0-0.898-0.142-1.259-0.382
		C570.153,24.529,569.856,24.175,569.665,23.731z M553.161,7.021c0.865-2.007,2.461-3.558,4.491-4.365
		c2.033-0.807,4.255-0.775,6.263,0.09c2.523,1.088,4.473,3.094,5.487,5.648c0.395,0.992,0.626,2.021,0.702,3.056
		c-1.527-0.033-3.056,0.25-4.5,0.873c-0.72,0.311-1.39,0.688-2.024,1.103c0.063-0.122,0.144-0.232,0.198-0.359
		c0.482-1.12,0.501-2.361,0.05-3.495c-0.45-1.133-1.316-2.024-2.438-2.507c-0.905-0.392-1.913-0.407-2.833-0.041
		c-0.92,0.366-1.642,1.067-2.032,1.976c-0.281,0.649-0.241,1.353-0.033,1.987c0.305,1.204,1.388,2.101,2.685,2.101
		c1.532,0,2.779-1.247,2.779-2.779c0-1.532-1.247-2.779-2.779-2.779c-0.252,0-0.491,0.044-0.723,0.107
		c0.096-0.05,0.187-0.108,0.288-0.148c0.797-0.316,1.666-0.303,2.451,0.035c0.998,0.43,1.769,1.223,2.17,2.233
		c0.401,1.009,0.386,2.114-0.044,3.111c-0.238,0.552-0.577,1.036-0.975,1.463c-0.21,0.174-0.407,0.359-0.604,0.544
		c-0.38,0.294-0.787,0.556-1.246,0.738c-0.955,0.379-1.977,0.463-2.96,0.254c-0.16-0.71-0.396-1.428-0.727-2.155
		c-0.928-2.043-2.431-3.3-4.172-3.982C552.616,8.81,552.786,7.89,553.161,7.021z M556.999,10.94
		c-0.06-0.202-0.101-0.412-0.101-0.632c0-1.256,1.022-2.279,2.278-2.279c1.257,0,2.279,1.022,2.279,2.279
		c0,1.257-1.022,2.279-2.279,2.279c-0.633,0-1.206-0.261-1.619-0.679l0.003-0.002C557.332,11.638,557.134,11.304,556.999,10.94z
		 M556.968,15.687c-0.138-0.046-0.278-0.074-0.413-0.132c-1.593-0.687-2.823-1.952-3.464-3.564c-0.219-0.55-0.354-1.119-0.418-1.691
		c1.536,0.659,2.855,1.804,3.68,3.619C556.622,14.513,556.818,15.102,556.968,15.687z M552.149,10.095
		c0.052,0.705,0.208,1.405,0.477,2.081c0.69,1.736,2.016,3.1,3.731,3.839c0.239,0.104,0.488,0.167,0.735,0.236
		c0.528,2.706-0.12,5.297-1.253,7.729c-1.202-0.15-2.391-0.465-3.534-0.958c-0.804-0.346-1.55-0.76-2.238-1.234
		c1.244-0.539,2.239-1.489,2.801-2.732c1-2.211,0.014-4.823-2.196-5.823c-0.87-0.393-1.838-0.425-2.732-0.088
		c-0.893,0.336-1.601,1-1.993,1.869c-0.21,0.465-0.273,0.956-0.233,1.432c-0.719-1.647-1.143-3.486-1.227-5.468
		c0.856-0.687,2.057-1.289,3.669-1.329c0.05-0.001,0.087-0.03,0.126-0.056C549.602,9.528,550.93,9.671,552.149,10.095z
		 M549.008,21.61c-1.045,0.24-2.133,0.154-3.129-0.296c-3.133-1.416-4.529-5.118-3.113-8.251c0.008-0.017,0.391-0.837,1.244-1.669
		C544.281,15.614,546.025,19.209,549.008,21.61z M546.861,18.539c0.164,0.123,0.342,0.231,0.536,0.319
		c0.58,0.262,1.224,0.282,1.817,0.059c0.594-0.224,1.064-0.666,1.325-1.244c0.215-0.474,0.231-1.003,0.048-1.491
		s-0.546-0.875-1.02-1.089c-0.129-0.059-0.274-0.001-0.331,0.125c-0.058,0.126-0.001,0.274,0.124,0.331
		c0.353,0.16,0.622,0.447,0.759,0.81s0.124,0.756-0.035,1.108c-0.207,0.457-0.578,0.806-1.047,0.982
		c-0.47,0.177-0.979,0.161-1.435-0.047c-1.208-0.546-1.748-1.975-1.202-3.184c0.338-0.747,0.947-1.318,1.715-1.607
		c0.767-0.29,1.602-0.263,2.349,0.075c1.96,0.887,2.834,3.202,1.948,5.162c-0.543,1.202-1.522,2.121-2.756,2.586
		c-0.012,0.004-0.024,0.005-0.037,0.01C548.538,20.625,547.613,19.649,546.861,18.539z M544.616,10.265
		c-0.044,0.029-0.091,0.057-0.134,0.087c0-0.016,0-0.033,0-0.049C544.527,10.29,544.571,10.278,544.616,10.265z M544.567,5.316
		c-0.379,1.586-0.57,3.13-0.594,4.611c-0.095,0.028-0.189,0.052-0.285,0.081c-1.606,0.479-3.269,0.982-4.947,0.906
		c-1.846-0.073-4.566-1.068-5.675-2.434c-0.749-0.922-1.037-2.068-0.905-3.164h2.106c-0.022,0.492,0.12,0.993,0.454,1.406
		c0.884,1.085,2.484,1.249,3.571,0.368c0.574-0.467,0.924-1.1,1.065-1.773H544.567z M537.163,5.316
		c-0.059,0.129-0.137,0.247-0.249,0.338c-0.107,0.087-0.124,0.245-0.037,0.352c0.089,0.107,0.246,0.124,0.352,0.037
		c0.231-0.187,0.369-0.446,0.447-0.727h1.175c-0.133,0.526-0.421,1.018-0.873,1.385c-0.873,0.709-2.159,0.576-2.868-0.294
		c-0.259-0.319-0.367-0.71-0.344-1.091H537.163z M534.881,4.816c0.098-0.239,0.247-0.459,0.461-0.632
		c0.251-0.205,0.57-0.302,0.889-0.266c0.322,0.033,0.612,0.19,0.816,0.441c0.107,0.133,0.159,0.292,0.182,0.457H534.881z
		 M533.68,2.548c0.689-0.56,1.555-0.82,2.438-0.727c0.884,0.091,1.678,0.521,2.237,1.21c0.425,0.522,0.604,1.16,0.57,1.785h-1.205
		c-0.024-0.279-0.104-0.549-0.285-0.772c-0.289-0.355-0.698-0.577-1.154-0.624c-0.459-0.046-0.901,0.087-1.255,0.375
		c-0.338,0.273-0.565,0.632-0.681,1.021h-2.084C532.473,3.955,532.939,3.149,533.68,2.548z M43.629,3.032
		c0.56-0.689,1.354-1.119,2.238-1.21c0.877-0.093,1.749,0.167,2.438,0.727c0.739,0.602,1.207,1.407,1.417,2.268H47.64
		c-0.115-0.388-0.343-0.747-0.68-1.02c-0.354-0.29-0.798-0.42-1.257-0.376c-0.455,0.047-0.865,0.269-1.154,0.624
		c-0.181,0.223-0.261,0.493-0.286,0.772h-1.205C43.025,4.192,43.205,3.554,43.629,3.032z M46.875,6.407
		c-0.709,0.871-1.995,1.004-2.867,0.295c-0.453-0.368-0.741-0.859-0.874-1.386h1.174c0.078,0.281,0.216,0.54,0.447,0.727
		c0.105,0.086,0.265,0.07,0.352-0.037c0.087-0.107,0.07-0.265-0.037-0.352c-0.113-0.091-0.19-0.209-0.249-0.338h2.398
		C47.242,5.697,47.134,6.087,46.875,6.407z M44.756,4.816c0.023-0.165,0.074-0.324,0.181-0.457c0.205-0.251,0.495-0.408,0.817-0.441
		c0.323-0.034,0.639,0.062,0.891,0.267c0.213,0.173,0.363,0.394,0.459,0.632H44.756z M37.417,5.316h5.21
		c0.141,0.673,0.491,1.307,1.065,1.773c1.084,0.883,2.687,0.717,3.571-0.368c0.334-0.412,0.476-0.914,0.454-1.405h2.106
		c0.132,1.096-0.156,2.241-0.905,3.164c-1.107,1.365-3.829,2.361-5.675,2.434c-1.674,0.076-3.34-0.428-4.947-0.906
		c-0.095-0.028-0.19-0.052-0.285-0.081C37.987,8.446,37.795,6.903,37.417,5.316z M32.328,21.435
		c-1.234-0.466-2.213-1.384-2.756-2.586c-0.886-1.959-0.012-4.275,1.948-5.162c1.542-0.697,3.365-0.011,4.063,1.532
		c0.546,1.209,0.007,2.638-1.202,3.185c-0.456,0.207-0.965,0.223-1.435,0.046c-0.469-0.177-0.84-0.526-1.046-0.982
		c-0.159-0.352-0.172-0.746-0.035-1.108s0.406-0.65,0.759-0.81c0.126-0.057,0.182-0.205,0.125-0.331
		c-0.058-0.125-0.206-0.18-0.331-0.125c-0.475,0.215-0.837,0.602-1.021,1.089s-0.167,1.017,0.047,1.491
		c0.261,0.578,0.732,1.02,1.326,1.244c0.592,0.223,1.238,0.203,1.817-0.059c0.194-0.088,0.372-0.197,0.536-0.319
		c-0.752,1.11-1.676,2.084-2.758,2.905C32.353,21.44,32.34,21.439,32.328,21.435z M37.975,11.377
		c0.833,0.812,1.212,1.618,1.243,1.685c0.687,1.518,0.741,3.212,0.153,4.771c-0.587,1.559-1.747,2.794-3.265,3.48
		c-0.995,0.449-2.083,0.536-3.128,0.296C35.962,19.206,37.708,15.605,37.975,11.377z M37.501,10.303c0,0.016,0,0.033,0,0.049
		c-0.042-0.03-0.09-0.058-0.134-0.087C37.412,10.277,37.457,10.29,37.501,10.303z M33.706,9.593
		c0.038,0.025,0.075,0.054,0.124,0.055c1.62,0.041,2.818,0.633,3.67,1.313c-0.083,1.988-0.507,3.832-1.227,5.483
		c0.039-0.476-0.024-0.965-0.234-1.43c-0.813-1.795-2.934-2.593-4.725-1.782c-2.211,1-3.197,3.613-2.198,5.823
		c0.562,1.243,1.558,2.194,2.801,2.732c-0.688,0.474-1.435,0.887-2.238,1.234c-1.143,0.493-2.332,0.808-3.533,0.958
		c-1.133-2.431-1.781-5.023-1.253-7.729c0.247-0.069,0.496-0.132,0.735-0.236c1.716-0.739,3.041-2.103,3.732-3.839
		c0.269-0.675,0.425-1.375,0.477-2.08C31.055,9.671,32.385,9.528,33.706,9.593z M14.586,19.364
		c-0.762-0.928-1.403-1.964-1.892-3.097c-0.597-1.385-0.867-2.853-0.831-4.317c1.465-0.036,2.933,0.233,4.319,0.831
		c1.155,0.498,2.194,1.152,3.118,1.917c0.186,0.197,0.389,0.372,0.602,0.54c2.452,2.307,3.899,5.483,4.059,8.817
		c-1.413-0.067-2.82-0.355-4.173-0.893c-1.769-0.703-3.318-1.774-4.59-3.115C15.011,19.803,14.81,19.573,14.586,19.364z
		 M19.604,23.626c1.42,0.565,2.896,0.864,4.378,0.929c0.003,0.38-0.014,0.761-0.044,1.143c-2.401-1.097-4.96-1.722-7.646-1.253
		c0.172-0.979,0.088-1.985-0.268-2.937C17.088,22.383,18.287,23.103,19.604,23.626z M24.482,24.573
		c0.453,0.002,0.906-0.016,1.357-0.06c0.55,1.131,1.195,2.225,1.867,3.279c-1.056-0.673-2.15-1.318-3.282-1.869
		C24.468,25.473,24.486,25.022,24.482,24.573z M24.461,24.072c-0.131-2.915-1.206-5.718-3.058-7.967
		c0.957,0.361,1.969,0.447,2.955,0.273c-0.468,2.687,0.158,5.247,1.255,7.648C25.23,24.058,24.846,24.075,24.461,24.072z
		 M25.017,15.687c0.149-0.585,0.345-1.174,0.615-1.769c0.824-1.815,2.144-2.96,3.68-3.619c-0.064,0.573-0.199,1.141-0.417,1.691
		c-0.641,1.612-1.872,2.878-3.465,3.564C25.294,15.613,25.154,15.641,25.017,15.687z M12.582,8.394
		c1.016-2.554,2.964-4.56,5.488-5.648c2.008-0.866,4.232-0.897,6.262-0.09c2.031,0.808,3.625,2.358,4.491,4.365
		c0.375,0.869,0.546,1.789,0.526,2.708c-1.741,0.682-3.244,1.939-4.172,3.982c-0.33,0.727-0.566,1.445-0.727,2.155
		c-0.982,0.209-2.004,0.125-2.959-0.254c-0.46-0.183-0.869-0.445-1.249-0.741c-0.196-0.184-0.392-0.368-0.601-0.541
		c-0.398-0.427-0.737-0.912-0.976-1.464c-0.43-0.997-0.446-2.102-0.044-3.111c0.401-1.01,1.172-1.803,2.17-2.233
		c0.785-0.337,1.657-0.351,2.451-0.035c0.102,0.041,0.192,0.099,0.289,0.148c-0.232-0.063-0.472-0.107-0.723-0.107
		c-1.533,0-2.779,1.247-2.779,2.779c0,1.533,1.247,2.779,2.779,2.779c1.279,0,2.347-0.873,2.67-2.051
		c0.222-0.646,0.27-1.371-0.018-2.037c-0.391-0.909-1.113-1.611-2.032-1.976c-0.92-0.366-1.925-0.351-2.834,0.041
		c-1.121,0.483-1.986,1.374-2.437,2.507c-0.45,1.133-0.433,2.375,0.05,3.495c0.055,0.127,0.135,0.238,0.199,0.36
		c-0.635-0.415-1.305-0.792-2.025-1.103c-1.444-0.623-2.973-0.906-4.5-0.873C11.957,10.414,12.188,9.386,12.582,8.394z
		 M25.086,10.308c0,0.211-0.038,0.412-0.092,0.606c-0.135,0.374-0.336,0.718-0.57,0.991l0.003,0.003
		c-0.413,0.418-0.986,0.679-1.619,0.679c-1.257,0-2.279-1.022-2.279-2.279c0-1.256,1.022-2.279,2.279-2.279
		C24.064,8.029,25.086,9.051,25.086,10.308z M6.935,28.909c-2.007-0.865-3.557-2.459-4.364-4.49
		c-0.807-2.031-0.775-4.254,0.09-6.261c1.087-2.524,3.093-4.473,5.648-5.489c0.991-0.395,2.02-0.625,3.054-0.702
		c-0.033,1.526,0.25,3.055,0.873,4.498c0.308,0.714,0.682,1.385,1.097,2.023c-0.12-0.062-0.228-0.141-0.354-0.195
		c-1.121-0.482-2.361-0.501-3.495-0.05C8.351,18.694,7.46,19.56,6.978,20.68c-0.392,0.908-0.406,1.915-0.041,2.834
		c0.366,0.919,1.067,1.641,1.975,2.032c0.983,0.425,2.048,0.256,2.856-0.345c0.116-0.078,0.22-0.17,0.323-0.265
		c0.003-0.003,0.007-0.005,0.011-0.009c0.55-0.508,0.9-1.228,0.9-2.034c0-1.533-1.247-2.779-2.78-2.779s-2.779,1.247-2.779,2.779
		c0,0.251,0.044,0.491,0.107,0.723c-0.05-0.096-0.108-0.187-0.148-0.289c-0.316-0.795-0.304-1.666,0.035-2.451
		c0.43-0.998,1.223-1.769,2.232-2.17c1.01-0.401,2.115-0.385,3.112,0.044c0.541,0.233,1.015,0.565,1.437,0.952
		c0.196,0.238,0.405,0.461,0.617,0.684c0.274,0.365,0.52,0.753,0.692,1.188c0.379,0.955,0.463,1.977,0.254,2.959
		c-0.71,0.161-1.428,0.397-2.155,0.727c-2.043,0.928-3.3,2.431-3.982,4.171C8.724,29.455,7.804,29.284,6.935,28.909z M12.335,23.738
		l-0.016-0.007c-0.191,0.443-0.487,0.797-0.836,1.059c-0.362,0.241-0.795,0.383-1.261,0.383c-1.257,0-2.279-1.022-2.279-2.279
		c0-1.257,1.022-2.279,2.279-2.279s2.28,1.022,2.28,2.279C12.502,23.192,12.44,23.477,12.335,23.738z M15.601,25.104
		c-0.046,0.137-0.074,0.277-0.132,0.412c-0.686,1.593-1.952,2.824-3.564,3.465c-0.55,0.219-1.119,0.354-1.691,0.417
		c0.659-1.536,1.804-2.855,3.619-3.679C14.427,25.449,15.016,25.253,15.601,25.104z M12.089,29.445
		c1.737-0.69,3.1-2.016,3.839-3.731c0.104-0.24,0.167-0.488,0.235-0.735c2.703-0.527,5.292,0.119,7.722,1.25
		c-0.146,1.191-0.452,2.38-0.951,3.537c-0.345,0.799-0.756,1.543-1.228,2.228c-0.519-1.196-1.46-2.214-2.739-2.792
		c-2.211-0.997-4.823-0.012-5.822,2.198c-0.394,0.869-0.426,1.839-0.089,2.731c0.336,0.892,1,1.6,1.87,1.994
		c0.454,0.205,0.941,0.275,1.425,0.236c-1.646,0.717-3.483,1.14-5.463,1.224c-0.686-0.857-1.288-2.057-1.328-3.668
		c-0.001-0.049-0.029-0.088-0.055-0.126c-0.064-1.32,0.079-2.648,0.503-3.868C10.714,29.87,11.414,29.714,12.089,29.445z
		 M21.228,36.191c-0.686,1.518-1.922,2.678-3.481,3.266s-3.252,0.534-4.771-0.153c-0.017-0.007-0.837-0.39-1.669-1.244
		c4.221-0.271,7.815-2.015,10.216-4.995C21.756,34.08,21.689,35.171,21.228,36.191z M18.454,35.209
		c0.123-0.166,0.233-0.344,0.32-0.537c0.262-0.578,0.283-1.223,0.059-1.816c-0.224-0.593-0.666-1.064-1.244-1.326
		c-0.475-0.215-1.005-0.231-1.491-0.048c-0.487,0.184-0.874,0.547-1.089,1.021c-0.057,0.126-0.001,0.274,0.125,0.331
		c0.125,0.054,0.274,0.001,0.331-0.125c0.159-0.353,0.447-0.622,0.81-0.759c0.362-0.136,0.756-0.124,1.108,0.035
		c0.457,0.207,0.805,0.579,0.982,1.047c0.177,0.469,0.16,0.978-0.046,1.434c-0.265,0.586-0.742,1.034-1.343,1.261
		c-0.601,0.228-1.256,0.207-1.842-0.059c-0.748-0.338-1.319-0.947-1.608-1.714c-0.29-0.768-0.262-1.602,0.077-2.349
		c0.885-1.959,3.2-2.835,5.16-1.948c1.253,0.567,2.153,1.597,2.594,2.796C20.537,33.534,19.563,34.458,18.454,35.209z M10.18,37.455
		c0.029,0.043,0.056,0.09,0.086,0.132c-0.016,0-0.032,0-0.049,0C10.204,37.543,10.192,37.499,10.18,37.455z M5.231,37.503
		c1.586,0.378,3.129,0.57,4.61,0.594c0.028,0.095,0.052,0.188,0.08,0.283c0.478,1.607,0.972,3.27,0.906,4.949
		c-0.072,1.847-1.067,4.568-2.433,5.676c-0.923,0.749-2.067,1.037-3.163,0.905v-2.106c0.492,0.022,0.994-0.12,1.406-0.454
		c1.083-0.884,1.249-2.485,0.368-3.571c-0.466-0.574-1.1-0.924-1.773-1.065V37.503z M4.731,47.19
		c-0.239-0.096-0.46-0.246-0.634-0.459c-0.204-0.251-0.299-0.568-0.266-0.891c0.033-0.322,0.19-0.613,0.441-0.816
		c0.137-0.11,0.296-0.16,0.458-0.182V47.19z M5.231,44.908c0.126,0.057,0.245,0.134,0.337,0.249
		c0.087,0.106,0.245,0.123,0.352,0.037c0.107-0.087,0.124-0.245,0.037-0.352c-0.192-0.236-0.452-0.37-0.726-0.446v-1.174
		c0.526,0.133,1.018,0.421,1.385,0.873c0.708,0.872,0.575,2.158-0.295,2.867c-0.319,0.258-0.709,0.366-1.09,0.343V44.908z
		 M2.463,48.391c-1.155-1.422-0.939-3.521,0.482-4.676c0.523-0.424,1.161-0.603,1.786-0.569v1.204
		c-0.273,0.024-0.544,0.1-0.773,0.286c-0.355,0.288-0.576,0.698-0.623,1.153s0.086,0.902,0.375,1.257
		c0.274,0.337,0.633,0.565,1.021,0.681v2.083C3.87,49.599,3.065,49.131,2.463,48.391z M2.946,719.984
		c-1.421-1.155-1.637-3.253-0.482-4.676c0.601-0.74,1.406-1.208,2.268-1.419v2.084c-0.389,0.115-0.748,0.343-1.021,0.681
		c-0.289,0.354-0.422,0.801-0.375,1.256s0.268,0.865,0.623,1.154c0.223,0.181,0.493,0.261,0.773,0.285v1.205
		C4.106,720.589,3.468,720.409,2.946,719.984z M5.231,719.305c0.28-0.079,0.539-0.217,0.726-0.447
		c0.087-0.107,0.07-0.265-0.037-0.352c-0.107-0.085-0.264-0.071-0.352,0.037c-0.091,0.112-0.209,0.19-0.337,0.248v-2.396
		c0.381-0.023,0.771,0.085,1.09,0.344c0.871,0.708,1.003,1.995,0.296,2.866c-0.368,0.453-0.859,0.741-1.386,0.875V719.305z
		 M4.731,718.856c-0.166-0.022-0.325-0.072-0.458-0.181c-0.251-0.204-0.408-0.494-0.441-0.816s0.062-0.639,0.266-0.891
		c0.174-0.214,0.395-0.363,0.634-0.46V718.856z M5.231,726.196v-5.211c0.673-0.142,1.307-0.491,1.774-1.065
		c0.881-1.086,0.715-2.688-0.369-3.57c-0.412-0.333-0.913-0.476-1.405-0.453v-2.107c1.096-0.132,2.241,0.155,3.163,0.905
		c1.366,1.108,2.361,3.829,2.433,5.675c0.066,1.682-0.428,3.344-0.906,4.951c-0.028,0.095-0.052,0.188-0.08,0.283
		C8.361,725.627,6.818,725.818,5.231,726.196z M10.217,726.111c0.017,0,0.033,0,0.049,0c-0.03,0.042-0.058,0.09-0.087,0.133
		C10.192,726.2,10.204,726.156,10.217,726.111z M9.506,729.91c0.026-0.039,0.054-0.077,0.055-0.127
		c0.041-1.609,0.644-2.811,1.332-3.668c1.979,0.084,3.816,0.507,5.462,1.225c-0.484-0.039-0.973,0.031-1.429,0.236
		c-0.869,0.393-1.533,1.101-1.87,1.993c-0.337,0.893-0.305,1.862,0.088,2.73c0.734,1.625,2.34,2.588,4.017,2.588
		c0.604-0.001,1.219-0.126,1.805-0.391c1.279-0.578,2.22-1.596,2.739-2.792c0.471,0.686,0.883,1.429,1.228,2.229
		c0.493,1.144,0.808,2.332,0.958,3.533c-2.432,1.134-5.023,1.781-7.73,1.254c-0.068-0.247-0.132-0.495-0.235-0.734
		c-0.739-1.716-2.102-3.041-3.839-3.731c-0.675-0.269-1.375-0.425-2.08-0.478C9.585,732.559,9.442,731.23,9.506,729.91z
		 M21.522,730.634c-2.4-2.979-5.993-4.723-10.213-4.993c0.832-0.854,1.651-1.239,1.667-1.247c3.133-1.416,6.836-0.018,8.252,3.113
		C21.689,728.527,21.755,729.619,21.522,730.634z M18.318,729.233c0.426,0.941,0.006,2.055-0.936,2.481
		c-0.727,0.328-1.588,0.005-1.918-0.725c-0.056-0.125-0.206-0.183-0.331-0.124c-0.126,0.057-0.182,0.205-0.125,0.331
		c0.442,0.978,1.599,1.415,2.58,0.973c1.193-0.54,1.725-1.95,1.186-3.143c-0.087-0.194-0.198-0.372-0.322-0.539
		c1.109,0.752,2.084,1.676,2.904,2.757c-0.441,1.199-1.341,2.229-2.594,2.797c-1.958,0.885-4.274,0.013-5.161-1.948
		c-0.338-0.747-0.366-1.581-0.076-2.349c0.289-0.768,0.86-1.376,1.608-1.714c0.586-0.266,1.239-0.286,1.842-0.059
		C17.576,728.2,18.053,728.647,18.318,729.233z M19.279,749.027c-0.928,0.761-1.964,1.402-3.097,1.891
		c-1.386,0.598-2.854,0.868-4.319,0.832c-0.036-1.465,0.234-2.932,0.831-4.317c0.488-1.133,1.13-2.169,1.892-3.098
		c0.225-0.209,0.425-0.439,0.613-0.684c1.272-1.341,2.821-2.411,4.589-3.114c1.355-0.539,2.766-0.827,4.181-0.894
		c-0.066,1.415-0.354,2.825-0.893,4.181c-0.704,1.77-1.775,3.319-3.117,4.593C19.716,748.604,19.487,748.804,19.279,749.027z
		 M23.541,744.009c0.565-1.421,0.864-2.899,0.929-4.383c0.382-0.003,0.764,0.014,1.146,0.045c-1.099,2.402-1.725,4.964-1.256,7.65
		c-0.979-0.173-1.985-0.087-2.937,0.268C22.296,746.525,23.017,745.326,23.541,744.009z M24.487,739.125
		c0.003-0.455-0.016-0.909-0.06-1.362c1.13-0.55,2.227-1.184,3.28-1.854c-0.672,1.054-1.316,2.146-1.866,3.276
		C25.39,739.142,24.939,739.122,24.487,739.125z M23.986,739.143c-1.484,0.064-2.962,0.364-4.383,0.93
		c-1.316,0.523-2.516,1.244-3.579,2.119c0.355-0.953,0.44-1.959,0.268-2.938c0.611,0.106,1.217,0.171,1.814,0.171
		c2.03,0,3.979-0.577,5.834-1.426C23.973,738.379,23.989,738.761,23.986,739.143z M15.601,738.595
		c-0.584-0.149-1.173-0.345-1.768-0.614c-1.815-0.824-2.959-2.144-3.619-3.679c0.573,0.063,1.141,0.198,1.691,0.418
		c1.612,0.641,2.878,1.871,3.564,3.464C15.527,738.317,15.555,738.458,15.601,738.595z M8.308,751.031
		c-2.555-1.016-4.561-2.966-5.648-5.489c-0.865-2.007-0.897-4.23-0.09-6.261c0.808-2.03,2.357-3.625,4.364-4.49
		c0.87-0.375,1.79-0.546,2.709-0.526c0.682,1.74,1.938,3.243,3.982,4.171c0.727,0.329,1.445,0.563,2.155,0.724
		c0.209,0.983,0.126,2.007-0.254,2.963c-0.173,0.435-0.417,0.822-0.69,1.187c-0.212,0.224-0.423,0.448-0.619,0.687
		c-0.421,0.387-0.896,0.719-1.436,0.952c-0.997,0.43-2.103,0.444-3.112,0.044c-1.009-0.401-1.802-1.172-2.232-2.169
		c-0.339-0.786-0.351-1.656-0.035-2.452c0.041-0.103,0.099-0.193,0.149-0.29c-0.063,0.233-0.108,0.473-0.108,0.726
		c0,1.532,1.247,2.779,2.779,2.779s2.78-1.247,2.78-2.779c0-0.962-0.493-1.812-1.238-2.311c-0.809-0.597-1.871-0.765-2.851-0.342
		c-0.909,0.391-1.61,1.112-1.976,2.032c-0.365,0.92-0.351,1.926,0.041,2.834c0.482,1.12,1.373,1.985,2.506,2.437
		c1.134,0.45,2.375,0.433,3.495-0.05c0.125-0.054,0.233-0.133,0.354-0.195c-0.416,0.639-0.79,1.311-1.097,2.024
		c-0.623,1.442-0.906,2.971-0.873,4.497C10.328,751.656,9.3,751.426,8.308,751.031z M12.319,739.969l0.017-0.007
		c0.104,0.262,0.166,0.545,0.166,0.844c0,1.257-1.023,2.279-2.28,2.279s-2.279-1.022-2.279-2.279s1.022-2.279,2.279-2.279
		c0.465,0,0.896,0.142,1.257,0.381C11.831,739.17,12.127,739.524,12.319,739.969z M28.823,756.68
		c-0.865,2.007-2.46,3.557-4.491,4.364c-2.03,0.807-4.255,0.776-6.262-0.091c-2.523-1.087-4.473-3.093-5.488-5.647
		c-0.394-0.991-0.625-2.019-0.701-3.052c0.077,0.002,0.153,0.011,0.23,0.011c1.45,0,2.898-0.296,4.27-0.888
		c0.713-0.308,1.384-0.682,2.022-1.096c-0.062,0.12-0.141,0.228-0.195,0.354c-0.483,1.12-0.5,2.361-0.05,3.495
		c0.451,1.134,1.316,2.023,2.437,2.506c0.909,0.393,1.915,0.406,2.834,0.041c0.919-0.365,1.641-1.067,2.032-1.976
		c0.302-0.699,0.239-1.463-0.011-2.132c-0.354-1.13-1.396-1.957-2.641-1.957c-1.533,0-2.779,1.247-2.779,2.779
		s1.247,2.779,2.779,2.779c0.251,0,0.491-0.044,0.723-0.107c-0.096,0.05-0.187,0.108-0.288,0.148
		c-0.794,0.316-1.666,0.304-2.451-0.035c-0.998-0.43-1.769-1.223-2.169-2.232c-0.401-1.009-0.385-2.114,0.044-3.112
		c0.233-0.541,0.565-1.015,0.952-1.436c0.238-0.196,0.462-0.406,0.686-0.618c0.364-0.274,0.752-0.519,1.187-0.691
		c0.955-0.38,1.977-0.462,2.959-0.253c0.16,0.71,0.397,1.428,0.727,2.154c0.928,2.043,2.431,3.3,4.172,3.981
		C29.369,754.89,29.198,755.81,28.823,756.68z M24.983,752.751c0.061,0.205,0.103,0.417,0.103,0.641
		c0,1.257-1.022,2.279-2.279,2.279c-1.257,0-2.279-1.022-2.279-2.279s1.022-2.279,2.279-2.279c0.633,0,1.207,0.261,1.62,0.68
		l-0.003,0.003C24.651,752.06,24.849,752.391,24.983,752.751z M25.017,748.013c0.137,0.046,0.278,0.074,0.412,0.132
		c1.593,0.686,2.824,1.951,3.465,3.563c0.219,0.551,0.354,1.119,0.417,1.691c-1.536-0.658-2.855-1.804-3.68-3.618
		C25.362,749.187,25.167,748.598,25.017,748.013z M29.836,753.604c-0.052-0.705-0.208-1.405-0.477-2.081
		c-0.691-1.736-2.016-3.1-3.732-3.838c-0.24-0.104-0.488-0.167-0.735-0.236c-0.528-2.706,0.121-5.298,1.254-7.729
		c1.202,0.149,2.39,0.465,3.533,0.958c0.804,0.347,1.551,0.761,2.239,1.234c-1.244,0.538-2.239,1.489-2.801,2.733
		c-0.999,2.21-0.013,4.822,2.198,5.822c1.792,0.813,3.913,0.012,4.725-1.781c0.21-0.465,0.273-0.955,0.234-1.431
		c0.72,1.652,1.145,3.496,1.227,5.483c-0.853,0.681-2.05,1.273-3.67,1.313c-0.048,0.001-0.084,0.029-0.122,0.055
		C32.386,754.171,31.056,754.028,29.836,753.604z M32.978,742.09c1.046-0.241,2.133-0.154,3.128,0.296
		c1.518,0.686,2.677,1.922,3.265,3.48s0.534,3.253-0.152,4.771c-0.031,0.066-0.41,0.873-1.243,1.686
		C37.708,748.094,35.963,744.493,32.978,742.09z M35.125,745.161c-0.165-0.122-0.343-0.232-0.538-0.32
		c-0.576-0.261-1.221-0.283-1.815-0.06s-1.066,0.666-1.327,1.245c-0.215,0.474-0.232,1.003-0.048,1.491
		c0.184,0.487,0.547,0.874,1.021,1.088c0.125,0.059,0.273,0.002,0.331-0.125c0.057-0.126,0-0.273-0.125-0.33
		c-0.353-0.159-0.622-0.446-0.759-0.81c-0.137-0.362-0.124-0.756,0.036-1.108c0.206-0.457,0.579-0.807,1.048-0.983
		c0.468-0.177,0.977-0.159,1.433,0.047c1.209,0.548,1.748,1.977,1.203,3.185c-0.699,1.543-2.523,2.226-4.063,1.532
		c-1.959-0.887-2.833-3.202-1.948-5.162c0.543-1.201,1.522-2.12,2.756-2.586c0.012-0.005,0.025-0.006,0.037-0.01
		C33.447,743.075,34.372,744.051,35.125,745.161z M37.369,753.434c0.043-0.029,0.09-0.057,0.132-0.086c0,0.016,0,0.032,0,0.049
		C37.458,753.409,37.414,753.421,37.369,753.434z M37.417,758.384c0.378-1.587,0.571-3.131,0.594-4.611
		c0.095-0.028,0.19-0.053,0.286-0.081c1.607-0.478,3.275-0.97,4.947-0.906c1.847,0.073,4.568,1.068,5.676,2.434
		c0.749,0.923,1.037,2.068,0.905,3.165h-2.106c0.022-0.492-0.12-0.995-0.454-1.407c-0.885-1.085-2.486-1.249-3.57-0.368
		c-0.574,0.468-0.924,1.102-1.065,1.775H37.417z M44.821,758.384c0.057-0.127,0.134-0.245,0.25-0.339
		c0.107-0.087,0.124-0.244,0.037-0.352c-0.088-0.109-0.246-0.123-0.352-0.037c-0.237,0.192-0.371,0.453-0.447,0.728h-1.174
		c0.133-0.526,0.421-1.019,0.874-1.387c0.87-0.709,2.157-0.576,2.867,0.295c0.259,0.319,0.368,0.71,0.345,1.092H44.821z
		 M47.104,758.884c-0.097,0.238-0.246,0.459-0.459,0.632c-0.252,0.205-0.567,0.295-0.891,0.267c-0.322-0.033-0.612-0.19-0.816-0.441
		c-0.11-0.136-0.16-0.295-0.182-0.457H47.104z M48.305,761.151c-0.689,0.561-1.561,0.822-2.438,0.727
		c-0.883-0.091-1.678-0.521-2.238-1.209c-0.424-0.522-0.604-1.16-0.57-1.785h1.204c0.024,0.272,0.101,0.543,0.286,0.771
		c0.289,0.355,0.698,0.577,1.153,0.624c0.454,0.043,0.902-0.086,1.257-0.375c0.337-0.274,0.564-0.633,0.68-1.021h2.083
		C49.512,759.745,49.044,760.551,48.305,761.151z M50.331,758.384c0.13-1.208-0.2-2.465-1.024-3.479
		c-1.231-1.519-4.096-2.542-6.044-2.619c-1.752-0.061-3.463,0.438-5.108,0.927c-0.051,0.015-0.101,0.028-0.152,0.043
		c-0.001-0.101-0.002-0.2-0.005-0.3c1.154-0.996,1.667-2.093,1.677-2.112c0.741-1.639,0.8-3.469,0.165-5.152
		c-0.635-1.685-1.888-3.02-3.527-3.76c-1.22-0.554-2.567-0.614-3.836-0.222c-0.792-0.576-1.653-1.082-2.599-1.49
		c-1.137-0.49-2.317-0.806-3.511-0.97c0.691-1.397,1.528-2.737,2.375-4.016c0.045-0.029,0.091-0.059,0.136-0.089
		c0.115-0.076,0.146-0.231,0.069-0.347c-0.02-0.029-0.054-0.037-0.083-0.055c-0.017-0.025-0.022-0.057-0.049-0.074
		c-0.114-0.076-0.27-0.046-0.347,0.069c-0.03,0.045-0.059,0.091-0.089,0.136c-1.278,0.846-2.618,1.683-4.015,2.374
		c-0.164-1.194-0.479-2.375-0.969-3.512c-0.406-0.94-0.908-1.798-1.48-2.586c0.381-1.227,0.339-2.589-0.23-3.849
		c-1.53-3.382-5.528-4.892-8.914-3.363c-0.02,0.009-1.117,0.522-2.113,1.679c-0.1-0.003-0.199-0.004-0.299-0.005
		c0.015-0.05,0.027-0.1,0.042-0.149c0.49-1.646,0.996-3.349,0.927-5.113c-0.077-1.947-1.099-4.812-2.618-6.044
		c-1.015-0.823-2.271-1.153-3.479-1.023V50.392c0.17,0.019,0.337,0.055,0.508,0.055c1.045,0,2.097-0.345,2.97-1.053
		c1.519-1.232,2.541-4.097,2.618-6.045c0.069-1.763-0.438-3.465-0.927-5.111c-0.015-0.05-0.027-0.099-0.042-0.149
		c0.1-0.001,0.2-0.002,0.299-0.005c0.996,1.154,2.092,1.667,2.112,1.677c0.887,0.401,1.829,0.602,2.773,0.602
		c0.803,0,1.607-0.146,2.38-0.437c1.684-0.635,3.019-1.888,3.761-3.528c0.569-1.259,0.611-2.623,0.23-3.849
		c0.572-0.788,1.074-1.645,1.48-2.585c0.496-1.149,0.803-2.331,0.963-3.515c1.399,0.691,2.741,1.529,4.02,2.375
		c0.03,0.045,0.06,0.092,0.09,0.137c0.048,0.072,0.127,0.111,0.208,0.111c0.048,0,0.096-0.014,0.139-0.042
		c0.027-0.018,0.033-0.05,0.051-0.076c0.028-0.018,0.062-0.025,0.081-0.054c0.077-0.115,0.045-0.27-0.069-0.347
		c-0.045-0.03-0.093-0.061-0.138-0.091c-0.846-1.277-1.683-2.618-2.374-4.014c1.194-0.164,2.375-0.479,3.512-0.97
		c0.945-0.407,1.805-0.913,2.596-1.488c0.526,0.163,1.063,0.264,1.602,0.264c0.762,0,1.522-0.163,2.238-0.486
		c1.64-0.741,2.892-2.077,3.527-3.76c0.635-1.683,0.576-3.514-0.165-5.153c-0.009-0.02-0.522-1.116-1.677-2.112
		c0.003-0.1,0.004-0.2,0.005-0.3c0.05,0.015,0.101,0.027,0.151,0.042c1.646,0.49,3.351,0.995,5.109,0.927
		c1.948-0.077,4.813-1.1,6.044-2.619c0.824-1.015,1.154-2.271,1.024-3.479h481.323c-0.13,1.208,0.2,2.464,1.024,3.479
		c1.232,1.519,4.097,2.542,6.044,2.619c1.771,0.063,3.464-0.438,5.109-0.927c0.051-0.015,0.101-0.028,0.151-0.043
		c0.001,0.1,0.002,0.201,0.004,0.3c-1.154,0.996-1.667,2.092-1.676,2.112c-0.741,1.64-0.8,3.47-0.165,5.153
		c0.636,1.684,1.888,3.019,3.527,3.76c0.716,0.323,1.477,0.486,2.238,0.486c0.539,0,1.076-0.101,1.602-0.264
		c0.79,0.575,1.65,1.081,2.596,1.488c1.137,0.491,2.318,0.803,3.513,0.966c-0.691,1.398-1.529,2.74-2.376,4.019
		c-0.045,0.03-0.092,0.06-0.137,0.09c-0.115,0.077-0.146,0.232-0.069,0.347c0.02,0.029,0.053,0.036,0.08,0.054
		c0.018,0.026,0.023,0.058,0.051,0.076c0.043,0.028,0.091,0.042,0.139,0.042c0.08,0,0.16-0.039,0.208-0.111
		c0.03-0.045,0.06-0.091,0.09-0.136c1.279-0.847,2.622-1.685,4.021-2.376c0.159,1.184,0.468,2.366,0.963,3.515
		c0.407,0.946,0.914,1.807,1.489,2.598c-0.392,1.268-0.331,2.616,0.221,3.835c0.741,1.64,2.076,2.893,3.76,3.528
		c0.773,0.292,1.578,0.437,2.38,0.437c0.945,0,1.888-0.202,2.773-0.602c0.02-0.009,1.117-0.522,2.113-1.677
		c0.099,0.003,0.199,0.003,0.299,0.005c-0.015,0.051-0.027,0.102-0.043,0.153c-0.489,1.645-0.995,3.346-0.927,5.107
		c0.077,1.948,1.101,4.813,2.618,6.045c0.873,0.708,1.926,1.053,2.971,1.053c0.171,0,0.339-0.037,0.509-0.055v662.891
		c-1.207-0.13-2.464,0.2-3.479,1.023c-1.518,1.232-2.541,4.097-2.618,6.044c-0.068,1.764,0.438,3.465,0.927,5.109
		c0.015,0.051,0.027,0.101,0.043,0.151c-0.101,0.001-0.2,0.002-0.3,0.005c-0.996-1.154-2.093-1.668-2.112-1.677
		c-3.387-1.53-7.384-0.021-8.913,3.363c-0.569,1.26-0.612,2.623-0.23,3.85c-0.571,0.788-1.074,1.645-1.479,2.585
		c-0.49,1.137-0.806,2.317-0.97,3.511c-1.397-0.69-2.738-1.528-4.017-2.374c-0.029-0.045-0.059-0.091-0.088-0.135
		c-0.076-0.114-0.231-0.146-0.347-0.069c-0.027,0.018-0.032,0.05-0.05,0.074c-0.028,0.019-0.062,0.025-0.081,0.055
		c-0.076,0.115-0.046,0.271,0.069,0.347c0.044,0.029,0.091,0.059,0.135,0.088c0.847,1.278,1.684,2.619,2.376,4.018
		c-1.194,0.163-2.374,0.479-3.511,0.969c-0.946,0.408-1.808,0.914-2.6,1.49c-1.268-0.391-2.615-0.332-3.835,0.222
		c-1.64,0.74-2.893,2.075-3.528,3.76c-0.635,1.684-0.576,3.514,0.165,5.152c0.009,0.02,0.521,1.116,1.676,2.112
		c-0.002,0.1-0.003,0.199-0.004,0.3c-0.051-0.015-0.102-0.028-0.152-0.043c-1.645-0.489-3.355-0.988-5.108-0.927
		c-1.947,0.077-4.812,1.101-6.044,2.619c-0.824,1.016-1.154,2.271-1.024,3.479H50.331z M549.657,742.265
		c1.233,0.466,2.213,1.385,2.756,2.586c0.886,1.96,0.012,4.275-1.948,5.162c-1.542,0.695-3.365,0.011-4.063-1.531
		c-0.545-1.21-0.006-2.639,1.203-3.186c0.455-0.208,0.963-0.224,1.432-0.047c0.47,0.177,0.842,0.526,1.049,0.984
		c0.159,0.352,0.172,0.745,0.035,1.107c-0.137,0.363-0.406,0.65-0.758,0.81c-0.126,0.057-0.182,0.204-0.125,0.33
		c0.056,0.127,0.205,0.185,0.33,0.125c0.475-0.214,0.837-0.601,1.021-1.088c0.184-0.488,0.167-1.018-0.048-1.49
		c-0.262-0.58-0.733-1.022-1.327-1.246s-1.238-0.202-1.815,0.06c-0.195,0.088-0.373,0.198-0.538,0.321
		c0.752-1.111,1.678-2.087,2.76-2.907C549.632,742.259,549.645,742.26,549.657,742.265z M544.009,752.322
		c-0.833-0.813-1.213-1.618-1.243-1.685c-0.686-1.519-0.74-3.213-0.152-4.771s1.748-2.795,3.267-3.48
		c0.994-0.45,2.08-0.537,3.127-0.296C546.021,744.493,544.276,748.094,544.009,752.322z M538.355,760.669
		c-0.56,0.688-1.354,1.118-2.237,1.209c-0.885,0.093-1.749-0.167-2.438-0.727c-0.739-0.601-1.207-1.406-1.418-2.268h2.084
		c0.115,0.388,0.343,0.746,0.68,1.02c0.355,0.29,0.805,0.421,1.257,0.376c0.455-0.047,0.865-0.269,1.153-0.624
		c0.181-0.223,0.261-0.492,0.285-0.771h1.205C538.959,759.508,538.78,760.146,538.355,760.669z M535.108,757.293
		c0.71-0.87,1.996-1.007,2.868-0.296c0.452,0.368,0.74,0.86,0.873,1.387h-1.174c-0.078-0.281-0.216-0.54-0.447-0.728
		c-0.105-0.085-0.263-0.071-0.352,0.037c-0.087,0.107-0.07,0.265,0.037,0.352c0.112,0.092,0.19,0.21,0.249,0.339h-2.397
		C534.742,758.002,534.851,757.612,535.108,757.293z M537.229,758.884c-0.022,0.165-0.074,0.324-0.182,0.457
		c-0.204,0.251-0.494,0.408-0.816,0.441c-0.317,0.028-0.638-0.062-0.89-0.267c-0.213-0.173-0.362-0.394-0.459-0.632H537.229z
		 M544.567,758.384h-5.21c-0.142-0.674-0.491-1.308-1.065-1.775c-1.085-0.881-2.688-0.715-3.571,0.369
		c-0.334,0.412-0.476,0.914-0.453,1.406h-2.106c-0.132-1.097,0.156-2.242,0.905-3.165c1.107-1.365,3.829-2.36,5.675-2.434
		c1.682-0.062,3.341,0.429,4.947,0.906c0.096,0.028,0.19,0.053,0.285,0.08C543.997,755.253,544.188,756.797,544.567,758.384z
		 M544.482,753.348c0.042,0.029,0.09,0.057,0.133,0.086c-0.044-0.013-0.089-0.024-0.133-0.037
		C544.482,753.38,544.482,753.363,544.482,753.348z M548.277,754.106c-0.037-0.024-0.074-0.053-0.122-0.054
		c-1.62-0.04-2.817-0.633-3.671-1.313c0.083-1.989,0.508-3.834,1.229-5.486c-0.04,0.477,0.023,0.968,0.233,1.434
		c0.812,1.794,2.93,2.595,4.726,1.78c2.21-1,3.195-3.611,2.196-5.822c-0.562-1.244-1.557-2.195-2.801-2.733
		c0.688-0.474,1.435-0.888,2.238-1.234c1.144-0.492,2.331-0.808,3.532-0.958c1.135,2.432,1.783,5.023,1.255,7.729
		c-0.247,0.069-0.496,0.133-0.735,0.236c-1.716,0.738-3.041,2.102-3.731,3.838c-0.269,0.676-0.425,1.376-0.477,2.081
		C550.929,754.028,549.599,754.171,548.277,754.106z M556.968,748.013c-0.149,0.585-0.346,1.174-0.615,1.769
		c-0.824,1.815-2.144,2.96-3.68,3.619c0.063-0.573,0.199-1.142,0.418-1.692c0.641-1.612,1.871-2.878,3.464-3.563
		C556.689,748.087,556.83,748.059,556.968,748.013z M563.915,760.953c-2.007,0.866-4.229,0.898-6.263,0.091
		c-2.03-0.808-3.626-2.357-4.491-4.364c-0.375-0.869-0.545-1.79-0.525-2.709c1.741-0.682,3.244-1.938,4.172-3.982
		c0.33-0.727,0.566-1.445,0.727-2.155c0.983-0.209,2.005-0.125,2.96,0.254c0.433,0.172,0.82,0.415,1.183,0.688
		c0.226,0.214,0.451,0.426,0.691,0.623c0.387,0.421,0.718,0.895,0.951,1.435c0.43,0.998,0.445,2.104,0.044,3.112
		c-0.401,1.01-1.172,1.803-2.17,2.232c-0.785,0.339-1.657,0.352-2.452,0.035c-0.102-0.041-0.192-0.099-0.289-0.149
		c0.232,0.063,0.473,0.108,0.725,0.108c1.532,0,2.779-1.247,2.779-2.779s-1.247-2.779-2.779-2.779c-1.247,0-2.292,0.831-2.643,1.964
		c-0.248,0.668-0.31,1.429-0.009,2.124c0.391,0.908,1.112,1.61,2.031,1.976c0.917,0.365,1.924,0.353,2.834-0.04
		c1.121-0.482,1.987-1.372,2.438-2.506c0.451-1.134,0.433-2.375-0.05-3.495c-0.054-0.125-0.133-0.233-0.195-0.354
		c0.638,0.415,1.309,0.788,2.021,1.096c1.371,0.592,2.819,0.888,4.27,0.888c0.077,0,0.153-0.009,0.23-0.011
		c-0.077,1.033-0.308,2.061-0.702,3.052C568.387,757.86,566.438,759.865,563.915,760.953z M556.898,753.392
		c0-0.218,0.04-0.424,0.098-0.623c0.135-0.367,0.334-0.704,0.564-0.974l-0.003-0.003c0.413-0.419,0.986-0.68,1.619-0.68
		c1.257,0,2.279,1.022,2.279,2.279s-1.022,2.279-2.279,2.279C557.921,755.671,556.898,754.648,556.898,753.392z"/>
	<path class="st0"  d="M573.786,753.81c-0.976,0-1.769,0.793-1.769,1.768c0,0.974,0.793,1.767,1.769,1.767c0.975,0,1.768-0.793,1.768-1.767
		C575.554,754.603,574.761,753.81,573.786,753.81z M573.786,756.844c-0.699,0-1.269-0.568-1.269-1.267
		c0-0.699,0.569-1.268,1.269-1.268s1.268,0.568,1.268,1.268C575.054,756.275,574.485,756.844,573.786,756.844z"/>
	<path class="st0"  d="M579.604,759.375c-0.415,0-0.823,0.133-1.166,0.378c-1.175-0.912-1.929-3.298-1.481-4.798c0.286-0.957,1-1.305,2.074-1.026
		c-0.502,0.287-0.841,0.828-0.841,1.446c0,0.919,0.748,1.667,1.667,1.667c0.415,0,0.808-0.151,1.114-0.429
		c0.025-0.011,0.049-0.026,0.069-0.046c0.869-0.823,1.185-2.211,0.751-3.3c-0.289-0.726-1.169-1.942-3.814-1.942
		c-1.732,0-3.934,0.524-6.542,1.558c-0.062,0.024-0.11,0.071-0.137,0.131c-2.447,5.515-1.991,8.164-1.177,9.417
		c0.532,0.818,1.367,1.269,2.35,1.269c0.801,0,1.601-0.313,2.14-0.837c0.021-0.021,0.036-0.043,0.048-0.068
		c0.289-0.295,0.456-0.681,0.472-1.096c0.019-0.444-0.137-0.869-0.438-1.196c-0.302-0.328-0.713-0.519-1.158-0.537
		c-0.004,0-0.066-0.001-0.07-0.001c-0.594,0-1.115,0.309-1.41,0.778c-0.127-0.594-0.072-1.08,0.163-1.428
		c0.304-0.445,0.926-0.691,1.752-0.691c1.484,0,3.189,0.767,3.906,1.734c-0.19,0.315-0.291,0.671-0.291,1.037
		c0,1.114,0.906,2.021,2.02,2.021c1.114,0,2.021-0.906,2.021-2.021C581.624,760.281,580.718,759.375,579.604,759.375z
		 M573.969,758.123c-0.997,0-1.767,0.323-2.165,0.911c-0.432,0.635-0.426,1.52,0.015,2.631c0.043,0.109,0.16,0.178,0.274,0.154
		c0.116-0.02,0.203-0.118,0.208-0.236c0.024-0.627,0.535-1.118,1.21-1.118h0.002c0.313,0.013,0.601,0.146,0.812,0.375
		s0.319,0.526,0.306,0.838c-0.012,0.313-0.146,0.602-0.377,0.813c-0.022,0.02-0.039,0.043-0.051,0.069
		c-0.447,0.402-1.088,0.64-1.731,0.64c-0.808,0-1.493-0.37-1.931-1.041c-0.607-0.936-1.259-3.326,1.174-8.848
		c2.508-0.986,4.614-1.485,6.263-1.485c1.742,0,2.932,0.578,3.35,1.628c0.346,0.867,0.099,2.01-0.572,2.694
		c-0.025,0.012-0.049,0.028-0.069,0.049c-0.223,0.223-0.517,0.346-0.828,0.346c-0.644,0-1.167-0.523-1.167-1.167
		c0-0.643,0.523-1.166,1.167-1.166c0.118,0,0.22-0.083,0.244-0.198c0.025-0.115-0.035-0.232-0.143-0.28
		c-1.765-0.784-3.054-0.351-3.481,1.082c-0.379,1.27-0.008,3.05,0.762,4.3C576.263,758.479,574.991,758.123,573.969,758.123z
		 M579.604,762.915c-0.838,0-1.52-0.682-1.52-1.521c0-0.318,0.102-0.628,0.295-0.894c0.04-0.055,0.055-0.122,0.045-0.187
		c0.063,0.006,0.132-0.016,0.185-0.061c0.285-0.248,0.63-0.379,0.995-0.379c0.839,0,1.521,0.682,1.521,1.52
		C581.124,762.233,580.442,762.915,579.604,762.915z"/>
	<path class="st0"  d="M28.636,730.943c-0.752,0-1.363,0.611-1.363,1.363s0.611,1.363,1.363,1.363c0.751,0,1.363-0.611,1.363-1.363
		S29.388,730.943,28.636,730.943z M28.636,733.17c-0.476,0-0.863-0.388-0.863-0.863s0.387-0.863,0.863-0.863
		c0.476,0,0.863,0.388,0.863,0.863S29.112,733.17,28.636,733.17z"/>
	<path class="st0"  d="M31.975,729.831c-0.751,0-1.363,0.611-1.363,1.362c0,0.752,0.611,1.363,1.363,1.363c0.752,0,1.363-0.611,1.363-1.363
		C33.338,730.442,32.727,729.831,31.975,729.831z M31.975,732.057c-0.476,0-0.863-0.388-0.863-0.863s0.387-0.862,0.863-0.862
		c0.476,0,0.863,0.387,0.863,0.862S32.451,732.057,31.975,732.057z"/>
	<path class="st0"  d="M31.064,733.372c-0.751,0-1.363,0.611-1.363,1.362c0,0.752,0.611,1.363,1.363,1.363c0.752,0,1.363-0.611,1.363-1.363
		C32.427,733.983,31.816,733.372,31.064,733.372z M31.064,735.598c-0.476,0-0.863-0.388-0.863-0.863s0.387-0.862,0.863-0.862
		c0.476,0,0.863,0.387,0.863,0.862S31.54,735.598,31.064,735.598z"/>
	<path class="st0"  d="M8.455,740.806c0,0.138,0.112,0.25,0.25,0.25s0.25-0.112,0.25-0.25c0-0.699,0.569-1.269,1.268-1.269
		s1.267,0.569,1.267,1.269c0,0.138,0.112,0.25,0.25,0.25s0.25-0.112,0.25-0.25c0-0.976-0.792-1.769-1.767-1.769
		S8.455,739.83,8.455,740.806z"/>
	<path class="st0"  d="M22.808,751.624c-0.138,0-0.25,0.112-0.25,0.25s0.112,0.25,0.25,0.25c0.699,0,1.268,0.568,1.268,1.268
		s-0.569,1.269-1.268,1.269c-0.138,0-0.25,0.112-0.25,0.25s0.112,0.25,0.25,0.25c0.975,0,1.768-0.793,1.768-1.769
		C24.575,752.417,23.782,751.624,22.808,751.624z"/>
	<path class="st0"  d="M8.198,753.81c-0.975,0-1.767,0.793-1.767,1.768c0,0.974,0.792,1.767,1.767,1.767c0.975,0,1.768-0.793,1.768-1.767
		C9.966,754.603,9.173,753.81,8.198,753.81z M8.198,756.844c-0.699,0-1.267-0.568-1.267-1.267c0-0.699,0.568-1.268,1.267-1.268
		c0.699,0,1.268,0.568,1.268,1.268C9.466,756.275,8.897,756.844,8.198,756.844z"/>
	<path class="st0"  d="M10.55,752.883c-2.609-1.033-4.81-1.558-6.543-1.558c-2.645,0-3.524,1.217-3.813,1.942c-0.434,1.089-0.118,2.477,0.751,3.3
		c0.019,0.018,0.041,0.032,0.064,0.042c0.308,0.279,0.702,0.433,1.119,0.433c0.919,0,1.667-0.748,1.667-1.667
		c0-0.618-0.339-1.159-0.84-1.446c1.075-0.278,1.79,0.069,2.075,1.026c0.447,1.5-0.308,3.886-1.482,4.798
		c-0.345-0.248-0.744-0.378-1.167-0.378c-1.114,0-2.021,0.906-2.021,2.02c0,1.114,0.907,2.021,2.021,2.021s2.021-0.906,2.021-2.021
		c0-0.366-0.101-0.721-0.292-1.037c0.717-0.968,2.422-1.734,3.906-1.734c0.827,0,1.449,0.246,1.751,0.691
		c0.236,0.348,0.29,0.833,0.164,1.427c-0.294-0.469-0.815-0.777-1.41-0.777c-0.003,0-0.066,0.001-0.069,0.001
		c-0.445,0.019-0.856,0.209-1.158,0.536c-0.302,0.327-0.458,0.752-0.439,1.196c0.017,0.415,0.183,0.8,0.47,1.094
		c0.012,0.026,0.029,0.05,0.051,0.07c0.539,0.524,1.339,0.838,2.139,0.838h0c0.982,0,1.817-0.45,2.349-1.269
		c0.814-1.252,1.271-3.902-1.177-9.417C10.66,752.954,10.61,752.907,10.55,752.883z M2.381,762.915
		c-0.839,0-1.521-0.682-1.521-1.521c0-0.838,0.682-1.52,1.521-1.52c0.365,0,0.709,0.131,0.995,0.379
		c0.053,0.046,0.119,0.067,0.186,0.061c-0.011,0.064,0.004,0.132,0.044,0.187c0.193,0.267,0.295,0.575,0.295,0.894
		C3.901,762.233,3.219,762.915,2.381,762.915z M11.444,762.158c-0.437,0.672-1.122,1.041-1.93,1.041h0
		c-0.642,0-1.281-0.236-1.728-0.637c-0.013-0.027-0.032-0.052-0.055-0.072c-0.231-0.211-0.365-0.499-0.377-0.813
		c-0.013-0.311,0.096-0.608,0.307-0.837c0.211-0.229,0.499-0.362,0.859-0.376c0.627,0,1.139,0.491,1.163,1.119
		c0.005,0.118,0.091,0.217,0.208,0.236c0.122,0.025,0.231-0.044,0.274-0.154c0.441-1.111,0.446-1.996,0.015-2.631
		c-0.399-0.588-1.168-0.911-2.165-0.911c-1.022,0-2.293,0.355-3.27,0.989c0.77-1.249,1.141-3.029,0.762-4.3
		c-0.428-1.433-1.714-1.867-3.481-1.082c-0.108,0.048-0.167,0.165-0.143,0.28s0.126,0.198,0.245,0.198
		c0.643,0,1.167,0.523,1.167,1.166c0,0.644-0.523,1.167-1.167,1.167c-0.312,0-0.606-0.123-0.828-0.346
		c-0.02-0.019-0.042-0.034-0.066-0.045c-0.674-0.685-0.922-1.83-0.576-2.699c0.418-1.049,1.607-1.627,3.349-1.627
		c1.649,0,3.756,0.499,6.264,1.485C12.703,758.833,12.052,761.224,11.444,762.158z"/>
</g>
</svg>
