<?xml version="1.0" encoding="utf-8"?>
<!-- Generator: Adobe Illustrator 14.0.0, SVG Export Plug-In . SVG Version: 6.00 Build 43363)  -->
<!DOCTYPE svg PUBLIC "-//W3C//DTD SVG 1.1//EN" "http://www.w3.org/Graphics/SVG/1.1/DTD/svg11.dtd">
<svg version="1.1" id="Nouveau_x5F_34_xA0_Image_1_"
	 xmlns="http://www.w3.org/2000/svg" xmlns:xlink="http://www.w3.org/1999/xlink" x="0px" y="0px" width="729px" height="969px"
	 viewBox="0 0 729 969" style="enable-background:new 0 0 729 969;" xml:space="preserve">
<style type="text/css">
<![CDATA[
	.st0{fill-rule:evenodd;clip-rule:evenodd;fill:none;stroke:#000000;stroke-width:3.0899;stroke-linecap:round;}
	.st1{fill-rule:evenodd;clip-rule:evenodd;fill:none;stroke:#000000;stroke-width:2.7928;stroke-linecap:round;}
	.st2{fill-rule:evenodd;clip-rule:evenodd;fill:none;stroke:#000000;stroke-width:2.5981;stroke-linecap:round;}
	.st3{fill-rule:evenodd;clip-rule:evenodd;fill:none;stroke:#000000;stroke-width:2.6592;stroke-linecap:round;}
	.st4{fill-rule:evenodd;clip-rule:evenodd;fill:none;stroke:#000000;stroke-width:3.0839;stroke-linecap:round;}
	.st5{fill-rule:evenodd;clip-rule:evenodd;fill:none;stroke:#000000;stroke-width:2.5554;stroke-linecap:round;}
	.st6{fill-rule:evenodd;clip-rule:evenodd;fill:none;stroke:#000000;stroke-width:4.0424;stroke-linecap:round;}
	.st7{fill-rule:evenodd;clip-rule:evenodd;fill:none;stroke:#000000;stroke-width:2.8467;stroke-linecap:round;}
	.st8{fill-rule:evenodd;clip-rule:evenodd;fill:none;stroke:#000000;stroke-width:3.0018;stroke-linecap:round;}
	.st9{fill-rule:evenodd;clip-rule:evenodd;fill:none;stroke:#000000;stroke-width:2.6016;stroke-linecap:round;}
	.st10{fill-rule:evenodd;clip-rule:evenodd;fill:none;stroke:#000000;stroke-width:2.5262;stroke-linecap:round;}
	.st11{fill-rule:evenodd;clip-rule:evenodd;fill:none;stroke:#000000;stroke-width:2.8622;stroke-linecap:round;}
	.st12{fill:#000000;fill-rule:evenodd;clip-rule:evenodd;}
	.st13{fill-rule:evenodd;clip-rule:evenodd;fill:none;stroke:#000000;stroke-width:2.4717;stroke-linecap:round;}
	.st14{fill-rule:evenodd;clip-rule:evenodd;fill:none;stroke:#000000;stroke-width:2.7451;stroke-linecap:round;}
	.st15{fill-rule:evenodd;clip-rule:evenodd;fill:none;stroke:#000000;stroke-width:2.8509;stroke-linecap:round;}
	.st16{fill-rule:evenodd;clip-rule:evenodd;fill:none;stroke:#000000;stroke-width:3.8472;stroke-linecap:round;}
	.st17{fill-rule:evenodd;clip-rule:evenodd;fill:none;stroke:#000000;stroke-width:2.1947;stroke-linecap:round;}
	.st18{fill-rule:evenodd;clip-rule:evenodd;fill:none;stroke:#000000;stroke-width:2.8048;stroke-linecap:round;}
	.st19{fill-rule:evenodd;clip-rule:evenodd;fill:none;stroke:#000000;stroke-width:4.0408;stroke-linecap:round;}
	.st20{fill-rule:evenodd;clip-rule:evenodd;fill:none;stroke:#000000;stroke-width:2.2526;stroke-linecap:round;}
	.st21{fill-rule:evenodd;clip-rule:evenodd;fill:none;stroke:#000000;stroke-width:3.1612;stroke-linecap:round;}
	.st22{fill-rule:evenodd;clip-rule:evenodd;fill:none;stroke:#000000;stroke-width:2.3895;stroke-linecap:round;}
]]>
</style>
<g>
	<g>
		<path class="st12" d="M53,14c25.526,10.603,22.792,65.439-10,66l0.5-1.5L43,77c24.913-5.186,26.311-45.948,8-61l1.5-0.5L53,14z"/>
		<path class="st12" d="M14.5,74.5L15,76c0.913,6.721,14.949,13.016,6,20v-2h-2c0.193-7.621-13.528-11.987-9-19
			c1.165-1.804,1.058-2.689,5-2L14.5,74.5z"/>
		<path class="st12" d="M21.833,876.5L23,875c4.095,9.11-7.234,11.42-9,18l-0.5,1.5L14,896c-2.09,0.424-2.648-0.686-4-1
			c-3.941-9.773,8.009-11.868,10-19L21.833,876.5z"/>
		<path class="st12" d="M47.5,891.5L47,890c30.154,2.198,29.464,59.081,4,66l-0.5-1.5L49,954c18.704-10.792,20.24-53.03-2-61
			L47.5,891.5z"/>
		<path class="st12" d="M17.5,961.5L18,963c-13.823,1.197-18.429-15.56-5-18l-0.357,1.786L14,948c-4.952,4.391,0.474,10.062,4,12
			L17.5,961.5z"/>
		<path class="st12" d="M21.5,6.5L22,8c-5.04,1.508-12.624,5.084-9,12l-1.357,1.214L12,23c-4.912-0.088-5.613-4.387-8-7
			C5.854,8.521,12.337,5.671,21,5L21.5,6.5z"/>
		<path class="st12" d="M715,20c3.472-5.267-2.222-8.777-5-11l1.5-1.167L711,6c11.88-0.924,17.736,14.743,5,17l0.357-1.786L715,20z"
			/>
		<path class="st12" d="M674.643,15.786L676,17c-17.207,14.962-15.501,53.445,8,60l-1.5,0.5L682,79c-29.915-1.094-31.119-56.36-7-65
			L674.643,15.786z"/>
		<path class="st12" d="M711.5,74.5L710,74c0.444-1.65,7.556-1.65,8,0c3.941,9.774-8.01,11.869-10,19l-1.833-0.5L705,94
			c-3.928-8.943,6.985-11.669,9-18c-1,0-2,0-3,0L711.5,74.5z"/>
		<path class="st12" d="M679.5,891.833L681,893c-20.976,7.615-20.634,45.748-5,59l-1.5,0.5L674,954
			c-23.213-8.784-20.867-61.249,6-64L679.5,891.833z"/>
		<path class="st12" d="M707.5,961.5L706,961c4.23-2.316,13.051-4.656,9-12l1.357-1.214L716,946c13.487,2.667,4.834,20.239-8,17
			L707.5,961.5z"/>
		<path class="st12" d="M28,27c-6.451,9.716-7.915,32.384,4,37l-1.5,1.167L31,67c-18.116-0.918-16.947-32.77-6-41l1.214,1.357L28,27
			z"/>
		<path class="st12" d="M703,26c10.576,8.601,12.293,39.905-6,41l0.5-1.833L696,64c12.354-5.789,11.023-26.366,4-37l1.786,0.357
			L703,26z"/>
		<path class="st12" d="M698,902c17.848,2.143,15.202,34.325,4,42l-1.214-1.357L699,943c7.321-8.86,9.13-32.054-2-38l1.357-1.214
			L698,902z"/>
		<g>
			<path class="st5" d="M13.5,894.5c10.989-2.842,22.47-7.984,34-3"/>
			<path class="st2" d="M12.643,946.786c2.307-0.992,4.613-2.216,6.523-3.619"/>
			<path class="st13" d="M17.5,961.5c11.169,1.984,24.277,0.878,33-7"/>
			<path class="st21" d="M21.833,876.5c-0.08-0.334-0.16-0.668-0.24-1.002c-0.535-0.931-1.234-1.556-1.687-2.171
				c-2.607-1.285-5.051,1.542-7.68,0.474c-1.156-259.307-1.089-519.152-0.031-778.61C14.941,93.77,18.682,96.855,21,94"/>
			<path class="st10" d="M14.5,74.5c9.386,2.391,18.935,7.085,29,4"/>
			<path class="st18" d="M11.643,21.214c2.521,1.761,5.533,2.75,7.857,4.786"/>
			<path class="st17" d="M21.5,6.5c10.971-1.166,22.612,1.754,31,9"/>
			<path class="st19" d="M51.5,8.5c207.817-2.5,417.178-2.499,625,0"/>
			<path class="st20" d="M682.5,77.5c9.627,3.776,20.026,0.948,29-3"/>
			<path class="st3" d="M708.833,943.167c2.281,1.551,5.033,3.086,7.524,4.619"/>
			<path class="st22" d="M707.5,961.5c-11.402,2.134-24.221-0.72-33-9"/>
			<path class="st0" d="M679.5,891.833c11.627-5.082,23.799-0.545,34.967,2.57c1.199-0.75,1.592-1.685,1.964-2.365
				c-0.856-6.762-14.909-11.298-8.337-18.713c2.607-1.282,5.051,1.543,7.68,0.476c1.271-259.171,1.093-519.375,0.089-778.61
				c-2.842-1.611-7.412,2.218-9.203-1.681c-0.164-0.336-0.328-0.673-0.492-1.01"/>
			<path class="st9" d="M674.643,15.786C684.734,7.51,698.781,4.272,711.5,7.833"/>
			<path class="st1" d="M708.5,26c2.318-2,5.341-3.042,7.857-4.786"/>
			<path class="st8" d="M30.5,65.167c11.524,4.021,17.622-2.246,20.47-7.563c6.836-12.761-4.941-18.85-19.803-25.77"/>
			<path class="st7" d="M26.214,27.357c3.4-5.752,8.721-10.745,14.619-13.523"/>
			<path class="st4" d="M697.5,65.167c-10.488,3.507-17.14-1.384-20.209-6.311c-7.268-11.667,3.06-20.063,18.209-26.355"/>
			<path class="st11" d="M687.167,13.833c5.849,2.806,11.338,7.832,14.619,13.523"/>
			<path class="st16" d="M39.5,954.5c-19.576-7.773-28.762-45.946-6.804-51.666c9.249-2.409,24.3,7.413,20.039,19.522
				c-3.923,7.087-12.438,9.19-18.787,13.316c-0.938,0.188-1.574,0.522-2.115,1.16"/>
			<path class="st14" d="M686.5,955c5.849-2.147,11.192-6.956,14.286-12.357"/>
			<path class="st15" d="M696.167,936.833c-0.113-0.171-0.227-0.344-0.339-0.515c-29.897-5.407-24.071-40.481,2.529-32.532"/>
			<path class="st6" d="M676.5,960.5c-145.461,2.729-312.645,1.5-465,1.5c-52.56,0-103.837,2.81-150.565-0.054
				c-2.679-0.164-5.454-0.972-9.435-1.946"/>
		</g>
	</g>
</g>
</svg>
