<?xml version="1.0" encoding="utf-8"?>
<!-- Generator: Adobe Illustrator 14.0.0, SVG Export Plug-In . SVG Version: 6.00 Build 43363)  -->
<!DOCTYPE svg PUBLIC "-//W3C//DTD SVG 1.1//EN" "http://www.w3.org/Graphics/SVG/1.1/DTD/svg11.dtd">
<svg version="1.1" id="Layer_1" xmlns="http://www.w3.org/2000/svg" xmlns:xlink="http://www.w3.org/1999/xlink" x="0px" y="0px"
	 width="569px" height="749px" viewBox="0 0 569 749" style="enable-background:new 0 0 569 749;" xml:space="preserve">
<style type="text/css">
<![CDATA[
	.st0{fill:#FFFFFF;stroke:#939393;stroke-miterlimit:10;}
	.st1{fill:#939393;stroke:#939393;stroke-miterlimit:10;}
	.st2{fill:#939393;}
	.st3{fill:none;stroke:#939393;stroke-miterlimit:10;}
	.st4{fill:none;stroke:#939393;stroke-linecap:round;stroke-miterlimit:10;}
]]>
</style>
<polygon class="st3" points="545.075,0.5 25.956,0.5 0.5,25.956 0.5,724.5 24.5,748.5 544.5,748.5 568.5,724.5 568.5,25.135 "/>
<g>
	<g>
		<circle class="st3" cx="13.924" cy="49.526" r="3"/>
		<circle class="st1" cx="13.924" cy="66.733" r="3"/>
		<circle class="st3" cx="13.924" cy="83.941" r="3"/>
		<circle class="st1" cx="13.924" cy="101.148" r="3"/>
		<circle class="st3" cx="13.924" cy="118.355" r="3"/>
		<circle class="st1" cx="13.924" cy="135.563" r="3"/>
		<circle class="st3" cx="13.924" cy="152.771" r="3"/>
	</g>
	<g>
		<circle class="st3" cx="49.636" cy="13.526" r="3"/>
		<circle class="st1" cx="66.843" cy="13.526" r="3"/>
		<circle class="st3" cx="84.05" cy="13.526" r="3"/>
		<circle class="st1" cx="101.257" cy="13.526" r="3"/>
		<circle class="st3" cx="118.465" cy="13.526" r="3"/>
		<circle class="st1" cx="135.672" cy="13.526" r="3"/>
		<circle class="st3" cx="152.879" cy="13.526" r="3"/>
	</g>
	<g>
		<g>
			<circle class="st3" cx="27.924" cy="27.859" r="12"/>
			<circle class="st3" cx="27.924" cy="27.859" r="14"/>
			<line class="st3" x1="27.924" y1="15.859" x2="27.924" y2="39.859"/>
			<line class="st3" x1="15.924" y1="27.859" x2="39.924" y2="27.859"/>
			<line class="st3" x1="33.87" y1="17.437" x2="21.978" y2="38.284"/>
			<line class="st3" x1="17.501" y1="21.914" x2="38.347" y2="33.806"/>
			<line class="st3" x1="38.487" y1="22.167" x2="17.361" y2="33.554"/>
			<line class="st3" x1="22.23" y1="17.296" x2="33.618" y2="38.423"/>
		</g>
		<circle class="st0" cx="27.924" cy="27.859" r="3"/>
		<circle class="st3" cx="27.924" cy="27.86" r="0.932"/>
	</g>
</g>
<g>
	<g>
		<circle class="st3" cx="555.076" cy="699.473" r="3"/>
		<circle class="st1" cx="555.076" cy="682.266" r="3"/>
		<circle class="st3" cx="555.076" cy="665.057" r="3"/>
		<circle class="st1" cx="555.076" cy="647.85" r="3"/>
		<circle class="st3" cx="555.076" cy="630.643" r="3"/>
		<circle class="st1" cx="555.076" cy="613.438" r="3"/>
		<circle class="st3" cx="555.076" cy="596.229" r="3"/>
	</g>
	<g>
		<circle class="st3" cx="519.364" cy="735.473" r="3"/>
		<circle class="st1" cx="502.157" cy="735.473" r="3"/>
		<circle class="st3" cx="484.95" cy="735.473" r="3"/>
		<circle class="st1" cx="467.742" cy="735.473" r="3"/>
		<circle class="st3" cx="450.535" cy="735.473" r="3"/>
		<circle class="st1" cx="433.328" cy="735.473" r="3"/>
		<circle class="st3" cx="416.121" cy="735.473" r="3"/>
	</g>
	<g>
		<g>
			<circle class="st3" cx="541.076" cy="721.139" r="12"/>
			<circle class="st3" cx="541.076" cy="721.139" r="14"/>
			<line class="st3" x1="541.076" y1="733.139" x2="541.076" y2="709.139"/>
			<line class="st3" x1="553.076" y1="721.139" x2="529.076" y2="721.139"/>
			<line class="st3" x1="535.13" y1="731.563" x2="547.021" y2="710.715"/>
			<line class="st3" x1="551.499" y1="727.086" x2="530.653" y2="715.193"/>
			<line class="st3" x1="530.513" y1="726.832" x2="551.639" y2="715.445"/>
			<line class="st3" x1="546.77" y1="731.703" x2="535.382" y2="710.576"/>
		</g>
		<circle class="st0" cx="541.076" cy="721.139" r="3"/>
		<circle class="st3" cx="541.076" cy="721.14" r="0.933"/>
	</g>
</g>
<g>
	<g>
		<circle class="st3" cx="555.076" cy="49.526" r="3"/>
		<circle class="st1" cx="555.076" cy="66.733" r="3"/>
		<circle class="st3" cx="555.076" cy="83.941" r="3"/>
		<circle class="st1" cx="555.076" cy="101.148" r="3"/>
		<circle class="st3" cx="555.076" cy="118.355" r="3"/>
		<circle class="st1" cx="555.076" cy="135.563" r="3"/>
		<circle class="st3" cx="555.076" cy="152.771" r="3"/>
	</g>
	<g>
		<circle class="st3" cx="519.364" cy="13.526" r="3"/>
		<circle class="st1" cx="502.157" cy="13.526" r="3"/>
		<circle class="st3" cx="484.95" cy="13.526" r="3"/>
		<circle class="st1" cx="467.742" cy="13.526" r="3"/>
		<circle class="st3" cx="450.535" cy="13.526" r="3"/>
		<circle class="st1" cx="433.328" cy="13.526" r="3"/>
		<circle class="st3" cx="416.121" cy="13.526" r="3"/>
	</g>
	<circle class="st3" cx="541.076" cy="27.859" r="12"/>
	<circle class="st3" cx="541.076" cy="27.859" r="14"/>
	<polygon class="st3" points="541.076,18.859 543.427,24.624 549.635,25.079 544.88,29.096 546.366,35.141 541.076,31.859 
		535.786,35.141 537.271,29.096 532.516,25.079 538.725,24.624 	"/>
</g>
<g>
	<g>
		<circle class="st3" cx="13.924" cy="699.473" r="3"/>
		<circle class="st1" cx="13.924" cy="682.266" r="3"/>
		<circle class="st3" cx="13.924" cy="665.057" r="3"/>
		<circle class="st1" cx="13.924" cy="647.85" r="3"/>
		<circle class="st3" cx="13.924" cy="630.643" r="3"/>
		<circle class="st1" cx="13.924" cy="613.438" r="3"/>
		<circle class="st3" cx="13.924" cy="596.229" r="3"/>
	</g>
	<g>
		<circle class="st3" cx="49.636" cy="735.473" r="3"/>
		<circle class="st1" cx="66.843" cy="735.473" r="3"/>
		<circle class="st3" cx="84.05" cy="735.473" r="3"/>
		<circle class="st1" cx="101.258" cy="735.473" r="3"/>
		<circle class="st3" cx="118.465" cy="735.473" r="3"/>
		<circle class="st1" cx="135.672" cy="735.473" r="3"/>
		<circle class="st3" cx="152.879" cy="735.473" r="3"/>
	</g>
	<g>
		<g>
			<path class="st3" d="M28.482,705.822c3.324-0.391,6.932,0.396,9.352,2.838c5.467,5.512,5.904,14.023,1.038,20.24
				c-0.506,0.648-1.442,0.762-2.089,0.256c-0.647-0.508-0.761-1.443-0.255-2.09c3.992-5.102,3.66-11.809-0.807-16.313
				c-2.534-2.553-7.435-2.525-10.422-0.898c-2.768,1.506-4.456,4.396-4.403,7.547c0.031,1.877,0.475,4.045,1.159,5.654
				c0.985,2.322,2.593,4.271,4.918,5.955c0.665,0.482,0.814,1.414,0.332,2.08c-0.483,0.666-1.414,0.814-2.079,0.332
				c-2.775-2.012-4.709-4.369-5.911-7.203c-0.836-1.971-1.358-4.502-1.396-6.77c-0.071-4.26,2.211-8.172,5.957-10.211
				C25.215,706.512,26.813,706.018,28.482,705.822z"/>
			<path class="st4" d="M19.764,720.59c0.217,1.072,0.528,2.123,0.921,3.049"/>
			<path class="st4" d="M20.073,713.67c-0.454,1.174-0.688,2.445-0.665,3.756"/>
			<path class="st4" d="M39.099,712.783c-0.608-1.092-1.381-2.127-2.321-3.076"/>
			<path class="st4" d="M40.78,719.4c0.013-1.221-0.141-2.438-0.463-3.621"/>
			<circle class="st2" cx="21.176" cy="724.992" r="0.664"/>
			<circle class="st2" cx="40.607" cy="720.846" r="0.664"/>
			<circle class="st2" cx="39.584" cy="714.309" r="0.664"/>
			<circle class="st2" cx="19.787" cy="719.012" r="0.664"/>
			<circle class="st2" cx="20.782" cy="712.129" r="0.664"/>
			<circle class="st2" cx="35.412" cy="708.642" r="0.663"/>
		</g>
		<g>
			<path class="st0" d="M23.466,711.063c3.254-0.783,6.93-0.434,9.624,1.701c6.086,4.82,7.535,13.221,3.447,19.973
				c-0.425,0.705-1.341,0.928-2.044,0.504c-0.703-0.428-0.928-1.342-0.502-2.045c3.354-5.539,2.224-12.158-2.748-16.1
				c-2.821-2.23-7.683-1.621-10.455,0.352c-2.569,1.826-3.899,4.896-3.471,8.018c0.255,1.861,0.955,3.961,1.826,5.48
				c1.255,2.188,3.084,3.928,5.593,5.322c0.718,0.4,0.977,1.309,0.577,2.025c-0.401,0.719-1.306,0.977-2.024,0.576
				c-2.996-1.666-5.197-3.775-6.728-6.445c-1.065-1.855-1.885-4.307-2.194-6.555c-0.579-4.221,1.22-8.377,4.695-10.85
				C20.305,712.135,21.832,711.455,23.466,711.063z"/>
			<path class="st4" d="M16.573,726.764c0.343,1.039,0.777,2.045,1.278,2.918"/>
			<path class="st4" d="M16.053,719.857c-0.311,1.219-0.39,2.51-0.212,3.809"/>
			<path class="st4" d="M34.838,716.707c-0.734-1.014-1.625-1.949-2.672-2.777"/>
			<path class="st4" d="M37.297,723.074c-0.133-1.213-0.431-2.402-0.892-3.541"/>
			<circle class="st2" cx="18.5" cy="730.967" r="0.664"/>
			<circle class="st2" cx="37.297" cy="724.531" r="0.664"/>
			<circle class="st2" cx="35.501" cy="718.162" r="0.664"/>
			<circle class="st2" cx="16.407" cy="725.195" r="0.664"/>
			<circle class="st2" cx="16.573" cy="718.242" r="0.664"/>
			<circle class="st2" cx="30.683" cy="713.033" r="0.664"/>
		</g>
	</g>
</g>
</svg>
