<?xml version="1.0" encoding="utf-8"?>
<!-- Generator: Adobe Illustrator 14.0.0, SVG Export Plug-In . SVG Version: 6.00 Build 43363)  -->
<!DOCTYPE svg PUBLIC "-//W3C//DTD SVG 1.1//EN" "http://www.w3.org/Graphics/SVG/1.1/DTD/svg11.dtd">
<svg version="1.1" xmlns="http://www.w3.org/2000/svg" xmlns:xlink="http://www.w3.org/1999/xlink" x="0px" y="0px" width="540px"
	 height="720px" viewBox="0 0 540 720" style="enable-background:new 0 0 540 720;" xml:space="preserve">
<style type="text/css">
<![CDATA[
	.st0{fill:#4B8795;}
]]>
</style>
<g id="Layer_2">
</g>
<g id="Layer_1">
	<g>
		<path class="st0" d="M12.734,683.548c-0.106-0.314,0.332-10.354,0.578-15.618l-0.1-0.006l-1.217,13.809l-0.145,9.392l-0.001,0.051
			h1.706l-0.005-0.055C13.523,690.824,12.88,683.86,12.734,683.548z"/>
		<path class="st0" d="M13.547,660.984l0.002-0.013h-0.003c-0.053-0.57-0.669-7.221-0.812-7.526
			c-0.106-0.314,0.332-10.354,0.578-15.619l-0.1-0.006l-1.217,13.81l-0.144,9.342h-0.042l-0.464,5.414l-0.402,23.287l0.1,0.004
			l1.372-23.176l0.628-2.371l0.49-3.058h0.022l-0.005-0.055C13.55,661.013,13.548,660.992,13.547,660.984z"/>
		<path class="st0" d="M13.547,630.882l0.002-0.013h-0.003c-0.053-0.57-0.669-7.222-0.812-7.526
			c-0.106-0.314,0.332-10.354,0.578-15.619l-0.1-0.006l-1.217,13.81l-0.144,9.342h-0.042l-0.464,5.414l-0.402,23.287l0.1,0.004
			l1.372-23.176l0.628-2.371l0.49-3.058h0.022l-0.005-0.055C13.55,630.91,13.548,630.89,13.547,630.882z"/>
		<path class="st0" d="M13.547,600.779l0.002-0.013h-0.003c-0.053-0.57-0.669-7.222-0.812-7.526
			c-0.106-0.314,0.332-10.354,0.578-15.619l-0.1-0.006l-1.217,13.81l-0.144,9.342h-0.042l-0.464,5.414l-0.402,23.287l0.1,0.004
			l1.372-23.176l0.628-2.372l0.49-3.057h0.022l-0.005-0.055C13.55,600.808,13.548,600.787,13.547,600.779z"/>
		<path class="st0" d="M13.547,570.677l0.002-0.013h-0.003c-0.053-0.57-0.669-7.222-0.812-7.527
			c-0.106-0.314,0.332-10.354,0.578-15.618l-0.1-0.006l-1.217,13.81l-0.144,9.342h-0.042l-0.464,5.414l-0.402,23.287l0.1,0.004
			l1.372-23.177l0.628-2.371l0.49-3.057h0.022l-0.005-0.055C13.55,570.705,13.548,570.685,13.547,570.677z"/>
		<path class="st0" d="M13.547,540.574l0.002-0.013h-0.003c-0.053-0.57-0.669-7.222-0.812-7.527
			c-0.106-0.314,0.332-10.354,0.578-15.618l-0.1-0.006l-1.217,13.81l-0.144,9.342h-0.042l-0.464,5.414l-0.402,23.287l0.1,0.004
			l1.372-23.177l0.628-2.371l0.49-3.057h0.022l-0.005-0.055C13.55,540.603,13.548,540.582,13.547,540.574z"/>
		<path class="st0" d="M13.547,510.471l0.002-0.013h-0.003c-0.053-0.57-0.669-7.221-0.812-7.526
			c-0.106-0.314,0.332-10.354,0.578-15.618l-0.1-0.006l-1.217,13.81l-0.144,9.341h-0.042l-0.464,5.415l-0.402,23.287l0.1,0.004
			l1.372-23.177l0.628-2.371l0.49-3.058h0.022l-0.005-0.055C13.55,510.499,13.548,510.479,13.547,510.471z"/>
		<path class="st0" d="M13.547,480.368l0.002-0.013h-0.003c-0.053-0.57-0.669-7.221-0.812-7.526
			c-0.106-0.314,0.332-10.354,0.578-15.619l-0.1-0.006l-1.217,13.81l-0.144,9.342h-0.042l-0.464,5.415l-0.402,23.286l0.1,0.004
			l1.372-23.176l0.628-2.371l0.49-3.058h0.022l-0.005-0.055C13.55,480.396,13.548,480.376,13.547,480.368z"/>
		<path class="st0" d="M13.547,450.266l0.002-0.013h-0.003c-0.053-0.57-0.669-7.221-0.812-7.526
			c-0.106-0.314,0.332-10.354,0.578-15.619l-0.1-0.006l-1.217,13.81l-0.144,9.342h-0.042l-0.464,5.414l-0.402,23.287l0.1,0.004
			l1.372-23.176l0.628-2.371l0.49-3.058h0.022l-0.005-0.055C13.55,450.294,13.548,450.273,13.547,450.266z"/>
		<path class="st0" d="M13.547,420.163l0.002-0.013h-0.003c-0.053-0.57-0.669-7.222-0.812-7.526
			c-0.106-0.314,0.332-10.354,0.578-15.619l-0.1-0.006l-1.217,13.81l-0.144,9.342h-0.042l-0.464,5.414l-0.402,23.287l0.1,0.004
			l1.372-23.176l0.628-2.372l0.49-3.057h0.022l-0.005-0.055C13.55,420.191,13.548,420.171,13.547,420.163z"/>
		<path class="st0" d="M13.547,390.061l0.002-0.013h-0.003c-0.053-0.57-0.669-7.222-0.812-7.526
			c-0.106-0.314,0.332-10.354,0.578-15.619l-0.1-0.006l-1.217,13.81l-0.144,9.342h-0.042l-0.464,5.414l-0.402,23.287l0.1,0.004
			l1.372-23.176l0.628-2.372l0.49-3.057h0.022l-0.005-0.055C13.55,390.089,13.548,390.068,13.547,390.061z"/>
		<path class="st0" d="M13.547,359.958l0.002-0.013h-0.003c-0.053-0.573-0.669-7.222-0.812-7.526
			c-0.106-0.315,0.332-10.354,0.578-15.618l-0.1-0.007l-1.217,13.81l-0.144,9.341h-0.042l-0.464,5.415l-0.402,23.287l0.1,0.004
			l1.372-23.177l0.628-2.371l0.49-3.057h0.022l-0.005-0.054C13.55,359.986,13.548,359.966,13.547,359.958z"/>
		<path class="st0" d="M13.547,329.855l0.002-0.013h-0.003c-0.053-0.573-0.669-7.221-0.812-7.527
			c-0.106-0.315,0.332-10.354,0.578-15.618l-0.1-0.007l-1.217,13.81l-0.144,9.342h-0.042l-0.464,5.415l-0.402,23.287l0.1,0.004
			l1.372-23.176L13.043,333l0.49-3.057h0.022l-0.005-0.054C13.55,329.884,13.548,329.863,13.547,329.855z"/>
		<path class="st0" d="M13.547,299.753l0.002-0.013h-0.003c-0.053-0.573-0.669-7.221-0.812-7.527
			c-0.106-0.315,0.332-10.354,0.578-15.618l-0.1-0.007l-1.217,13.81l-0.144,9.342h-0.042l-0.464,5.414l-0.402,23.287l0.1,0.004
			l1.372-23.176l0.628-2.371l0.49-3.057h0.022l-0.005-0.054C13.55,299.781,13.548,299.761,13.547,299.753z"/>
		<path class="st0" d="M13.547,269.65l0.002-0.013h-0.003c-0.053-0.573-0.669-7.222-0.812-7.526
			c-0.106-0.315,0.332-10.354,0.578-15.618l-0.1-0.007l-1.217,13.81l-0.144,9.341h-0.042l-0.464,5.415l-0.402,23.287l0.1,0.004
			l1.372-23.176l0.628-2.372l0.49-3.057h0.022l-0.005-0.054C13.55,269.678,13.548,269.658,13.547,269.65z"/>
		<path class="st0" d="M13.547,239.547l0.002-0.013h-0.003c-0.053-0.573-0.669-7.222-0.812-7.526
			c-0.106-0.315,0.332-10.354,0.578-15.618l-0.1-0.007l-1.217,13.81l-0.144,9.342h-0.042l-0.464,5.415l-0.402,23.287l0.1,0.004
			l1.372-23.176l0.628-2.372l0.49-3.057h0.022l-0.005-0.054C13.55,239.576,13.548,239.555,13.547,239.547z"/>
		<path class="st0" d="M13.547,209.445l0.002-0.013h-0.003c-0.053-0.573-0.669-7.221-0.812-7.527
			c-0.106-0.315,0.332-10.354,0.578-15.618l-0.1-0.007l-1.217,13.81l-0.144,9.342h-0.042l-0.464,5.414l-0.402,23.287l0.1,0.004
			l1.372-23.176l0.628-2.371l0.49-3.057h0.022l-0.005-0.054C13.55,209.473,13.548,209.453,13.547,209.445z"/>
		<path class="st0" d="M13.547,179.342l0.002-0.013h-0.003c-0.053-0.576-0.669-7.222-0.812-7.526
			c-0.106-0.315,0.332-10.354,0.578-15.618l-0.1-0.007l-1.217,13.81l-0.144,9.341h-0.042l-0.464,5.415l-0.402,23.287l0.1,0.004
			l1.372-23.176l0.628-2.372l0.49-3.057h0.022l-0.005-0.054C13.55,179.371,13.548,179.35,13.547,179.342z"/>
		<path class="st0" d="M13.547,149.239l0.002-0.013h-0.003c-0.053-0.573-0.669-7.222-0.812-7.526
			c-0.106-0.315,0.332-10.354,0.578-15.618l-0.1-0.007l-1.217,13.81l-0.144,9.341h-0.042l-0.464,5.415l-0.402,23.287l0.1,0.004
			l1.372-23.176l0.628-2.372l0.49-3.057h0.022l-0.005-0.054C13.55,149.268,13.548,149.247,13.547,149.239z"/>
		<path class="st0" d="M13.547,119.137l0.002-0.013h-0.003c-0.053-0.573-0.669-7.221-0.812-7.527
			c-0.106-0.315,0.332-10.354,0.578-15.618l-0.1-0.007l-1.217,13.81l-0.144,9.342h-0.042l-0.464,5.415l-0.402,23.287l0.1,0.004
			l1.372-23.176l0.628-2.371l0.49-3.057h0.022l-0.005-0.054C13.55,119.165,13.548,119.145,13.547,119.137z"/>
		<path class="st0" d="M13.547,89.034l0.002-0.013h-0.003c-0.053-0.576-0.669-7.221-0.812-7.526
			c-0.106-0.315,0.332-10.354,0.578-15.618l-0.1-0.007l-1.217,13.81l-0.144,9.341h-0.042l-0.464,5.415l-0.402,23.287l0.1,0.004
			l1.372-23.176l0.628-2.371l0.49-3.057h0.022l-0.005-0.054C13.55,89.063,13.548,89.042,13.547,89.034z"/>
		<polygon class="st0" points="12.415,34.345 13.043,31.973 13.549,28.815 11.809,28.815 11.345,34.23 10.943,57.517 11.043,57.521 
					"/>
		<path class="st0" d="M10.912,37.252c0.166-0.317-0.639-1.875-0.76-2.106l0.251-6.31l-1.447-0.042v30.103v0.07v30.032v0.07v30.033
			v0.07v30.033v0.07v30.033v0.07v30.033v0.07v30.033v0.07v30.033v0.07v30.033v0.07v30.033v0.07v30.033v0.07v30.033v0.069v30.033
			v0.07v30.032v0.07v30.032v0.07v30.032v0.07v30.033v0.069v30.033v0.069v30.033v0.069v30.033v0.07v30.032v0.07v30.103l0.027,0.015
			c0.022,0.011,0.535,0.271,0.94,0.271c0.147,0,0.265-0.035,0.348-0.104c0.099-0.083,0.149-0.211,0.149-0.382
			c0-6.134,0.367-21.169,0.492-21.513c0.166-0.317-0.639-1.876-0.76-2.107l0.249-6.259l0.002-0.051h-0.012
			c0.015-0.054,0.029-0.107,0.029-0.173c0-6.134,0.367-21.17,0.492-21.514c0.166-0.316-0.639-1.875-0.76-2.106l0.249-6.26
			l0.002-0.051h-0.011c0.014-0.053,0.028-0.106,0.028-0.172c0-6.134,0.367-21.17,0.492-21.514c0.166-0.316-0.639-1.875-0.76-2.106
			l0.249-6.26l0.002-0.051h-0.012c0.015-0.054,0.029-0.107,0.029-0.173c0-6.134,0.367-21.169,0.492-21.513
			c0.166-0.317-0.639-1.875-0.76-2.106l0.249-6.26l0.002-0.051h-0.012c0.015-0.054,0.029-0.107,0.029-0.173
			c0-6.134,0.367-21.169,0.492-21.513c0.166-0.317-0.639-1.876-0.76-2.107l0.249-6.259l0.002-0.051h-0.012
			c0.015-0.054,0.029-0.107,0.029-0.173c0-6.134,0.367-21.169,0.492-21.513c0.166-0.317-0.639-1.876-0.76-2.107l0.249-6.259
			l0.002-0.051h-0.012c0.015-0.054,0.029-0.107,0.029-0.173c0-6.134,0.367-21.169,0.492-21.513c0.166-0.317-0.639-1.876-0.76-2.107
			l0.249-6.259l0.002-0.051h-0.012c0.015-0.054,0.029-0.107,0.029-0.173c0-6.134,0.367-21.17,0.492-21.514
			c0.166-0.316-0.639-1.875-0.76-2.106l0.249-6.26l0.002-0.051h-0.011c0.014-0.053,0.028-0.106,0.028-0.172
			c0-6.134,0.367-21.17,0.492-21.514c0.166-0.316-0.639-1.875-0.76-2.106l0.249-6.26l0.002-0.051h-0.011
			c0.014-0.053,0.028-0.106,0.028-0.172c0-6.134,0.367-21.17,0.492-21.514c0.166-0.316-0.639-1.875-0.76-2.106l0.249-6.26
			l0.002-0.051h-0.012c0.015-0.054,0.029-0.107,0.029-0.173c0-6.134,0.367-21.169,0.492-21.513c0.166-0.317-0.639-1.876-0.76-2.107
			l0.251-6.309l-0.012,0c0.015-0.053,0.029-0.107,0.029-0.173c0-6.133,0.367-21.169,0.492-21.513
			c0.166-0.317-0.639-1.875-0.76-2.106l0.251-6.31l-0.012,0c0.015-0.053,0.029-0.107,0.029-0.173c0-6.133,0.367-21.169,0.492-21.513
			c0.166-0.317-0.639-1.875-0.76-2.107l0.251-6.31l-0.012,0c0.015-0.053,0.029-0.106,0.029-0.172c0-6.133,0.367-21.169,0.492-21.513
			c0.166-0.317-0.639-1.875-0.76-2.106l0.251-6.31l-0.012,0c0.015-0.053,0.029-0.106,0.029-0.172c0-6.133,0.367-21.169,0.492-21.513
			c0.166-0.317-0.639-1.875-0.76-2.106l0.251-6.31l-0.012,0c0.015-0.053,0.029-0.107,0.029-0.173c0-6.133,0.367-21.169,0.492-21.513
			c0.166-0.317-0.639-1.875-0.76-2.107l0.251-6.31l-0.012,0c0.015-0.053,0.029-0.106,0.029-0.172c0-6.133,0.367-21.169,0.492-21.513
			c0.166-0.317-0.639-1.875-0.76-2.106l0.251-6.31l-0.012,0c0.015-0.053,0.029-0.106,0.029-0.172c0-6.133,0.367-21.169,0.492-21.513
			c0.166-0.317-0.639-1.875-0.76-2.106l0.251-6.31l-0.012,0c0.015-0.053,0.029-0.107,0.029-0.173c0-6.133,0.367-21.169,0.492-21.513
			c0.166-0.317-0.639-1.875-0.76-2.107l0.251-6.31l-0.012,0c0.015-0.053,0.029-0.107,0.029-0.173c0-6.133,0.367-21.169,0.492-21.513
			c0.166-0.317-0.639-1.875-0.76-2.106l0.251-6.31l-0.012,0c0.015-0.053,0.029-0.106,0.029-0.172c0-6.133,0.367-21.169,0.492-21.513
			c0.166-0.317-0.639-1.875-0.76-2.106l0.251-6.31l-0.012,0c0.015-0.053,0.029-0.106,0.029-0.172
			C10.42,52.632,10.787,37.596,10.912,37.252z"/>
		<path class="st0" d="M13.547,58.931l0.002-0.013h-0.003c-0.053-0.573-0.669-7.222-0.812-7.526
			c-0.106-0.315,0.332-10.354,0.578-15.618l-0.1-0.007l-1.217,13.81l-0.144,9.341h-0.042l-0.464,5.415L10.943,87.62l0.1,0.004
			l1.372-23.176l0.628-2.372l0.49-3.057h0.022l-0.005-0.054C13.55,58.959,13.548,58.939,13.547,58.931z"/>
		<path class="st0" d="M19.482,28.861l0.003-0.05l-2.844-0.164l1.57,3.315l-0.325,3.004l0.619,8.474l-0.481,5.461l0.272,5.284
			l-0.333,2.476c-0.316-6.957-0.856-19.287-0.792-19.585c0.163-0.313-0.815-7.41-0.927-8.218l-0.099,0.008l0.161,10.34l0.3,15.838
			l-0.922,3.537l-0.002-3.971l-0.554-2.361l0.548-23.382l0.001-0.051h-1.517l-0.536,3.12l0.389,9.157l0.643,13.636l-0.519,4.31
			h0.003l-0.516,3l0.389,9.157l0.643,13.636l-0.519,4.311h0.002l-0.515,2.999l0.389,9.157l0.643,13.636l-0.519,4.311h0.003
			l-0.516,2.999l0.389,9.157l0.643,13.637l-0.519,4.31h0.003l-0.516,2.999l0.389,9.157l0.643,13.636l-0.519,4.31h0.003l-0.516,3
			l0.389,9.157l0.643,13.636l-0.519,4.311h0.003l-0.516,2.999l0.389,9.157l0.643,13.637l-0.519,4.31h0.003l-0.516,2.999l0.389,9.157
			l0.643,13.636l-0.519,4.31h0.003l-0.516,3l0.389,9.157l0.643,13.636l-0.519,4.311h0.003l-0.516,2.999l0.389,9.157l0.643,13.636
			l-0.519,4.311h0.003l-0.516,2.999l0.389,9.157l0.643,13.636l-0.519,4.31h0.003l-0.516,2.999l0.389,9.156l0.643,13.637
			l-0.519,4.311h0.003l-0.516,2.999l0.389,9.157l0.643,13.637l-0.519,4.31h0.003l-0.516,3l0.389,9.156l0.643,13.637l-0.519,4.311
			h0.002l-0.515,2.999l0.389,9.156l0.643,13.637l-0.519,4.311h0.002l-0.515,2.999l0.389,9.156l0.643,13.637l-0.519,4.311h0.002
			l-0.515,2.999l0.389,9.156l0.643,13.637l-0.519,4.311h0.003l-0.516,2.999l0.389,9.156l0.643,13.637l-0.519,4.311h0.003
			l-0.516,2.999l0.389,9.156l0.643,13.638l-0.519,4.31h0.003l-0.516,3l0.389,9.156l0.643,13.637l-0.519,4.31h0.003l-0.516,3
			l0.389,9.156l0.643,13.637l-0.519,4.311h0.002l-0.515,2.999l0.389,9.156l0.643,13.637l-0.519,4.311l1.492-0.021l3.819,0.005
			l-0.357-23.978l0.391-6.185l0.003-0.05l-0.039-0.002L19.091,637.1l0.391-6.186l0.003-0.05l-0.039-0.002l-0.356-23.865l0.391-6.186
			l0.003-0.05l-0.039-0.002l-0.356-23.865l0.391-6.186l0.003-0.05l-0.039-0.002l-0.356-23.866l0.391-6.185l0.003-0.05l-0.039-0.002
			l-0.356-23.866l0.391-6.185l0.003-0.05l-0.039-0.002l-0.356-23.866l0.391-6.185l0.003-0.05l-0.039-0.002l-0.356-23.866
			l0.391-6.185l0.003-0.05l-0.039-0.002l-0.356-23.866l0.391-6.186l0.003-0.05l-0.039-0.002l-0.356-23.865l0.391-6.186l0.003-0.05
			l-0.039-0.002l-0.356-23.865l0.391-6.186l0.003-0.05l-0.039-0.002l-0.356-23.865l0.391-6.185l0.003-0.05l-0.039-0.002
			l-0.356-23.865l0.391-6.185l0.003-0.05l-0.039-0.002l-0.356-23.866l0.391-6.185l0.003-0.05l-0.039-0.002l-0.356-23.865
			l0.391-6.185l0.003-0.05l-0.039-0.002l-0.356-23.865l0.391-6.185l0.003-0.05l-0.039-0.002l-0.356-23.866l0.391-6.185l0.003-0.05
			l-0.039-0.002l-0.356-23.865l0.391-6.185l0.003-0.05l-0.039-0.002l-0.356-23.865l0.391-6.185l0.003-0.05l-0.039-0.002
			l-0.356-23.866l0.391-6.185l0.003-0.05l-0.039-0.002l-0.356-23.866l0.391-6.185l0.003-0.05l-0.039-0.002l-0.356-23.865
			L19.482,28.861z M17.887,95.172l0.619,8.474l-0.481,5.461l0.272,5.284l-0.333,2.476c-0.316-6.957-0.856-19.287-0.792-19.585
			c0.16-0.308-0.781-7.164-0.919-8.16l0.518,0.001l1.442,3.045L17.887,95.172z M17.887,125.275l0.619,8.474l-0.481,5.461
			l0.272,5.284l-0.333,2.476c-0.316-6.957-0.856-19.287-0.792-19.585c0.16-0.308-0.781-7.165-0.919-8.16l0.518,0l1.442,3.045
			L17.887,125.275z M17.887,155.377l0.619,8.475l-0.481,5.461l0.272,5.284l-0.333,2.476c-0.316-6.957-0.856-19.287-0.792-19.585
			c0.16-0.308-0.781-7.165-0.919-8.16l0.518,0l1.442,3.045L17.887,155.377z M17.887,185.48l0.619,8.474l-0.481,5.461l0.272,5.284
			l-0.333,2.476c-0.316-6.957-0.856-19.287-0.792-19.585c0.16-0.308-0.781-7.164-0.919-8.16l0.518,0l1.442,3.045L17.887,185.48z
			 M17.887,215.583l0.619,8.474l-0.481,5.461l0.272,5.284l-0.333,2.476c-0.316-6.957-0.856-19.287-0.792-19.585
			c0.16-0.308-0.781-7.166-0.919-8.16l0.518,0l1.442,3.045L17.887,215.583z M17.887,245.686l0.619,8.474l-0.481,5.461l0.272,5.284
			l-0.333,2.476c-0.316-6.957-0.856-19.287-0.792-19.585c0.16-0.308-0.781-7.165-0.919-8.16l0.518,0l1.442,3.045L17.887,245.686z
			 M17.887,275.789l0.619,8.474l-0.481,5.461l0.272,5.284l-0.333,2.476c-0.316-6.957-0.856-19.287-0.792-19.585
			c0.16-0.308-0.781-7.165-0.919-8.16l0.518,0l1.442,3.045L17.887,275.789z M17.887,305.891l0.619,8.474l-0.481,5.461l0.272,5.284
			l-0.333,2.476c-0.316-6.957-0.856-19.287-0.792-19.585c0.16-0.308-0.781-7.166-0.919-8.16l0.518,0.001l1.442,3.045L17.887,305.891
			z M17.887,335.994l0.619,8.474l-0.481,5.461l0.272,5.284l-0.333,2.476c-0.316-6.957-0.856-19.287-0.792-19.585
			c0.16-0.308-0.781-7.165-0.919-8.16l0.518,0l1.442,3.045L17.887,335.994z M17.887,366.097l0.619,8.475l-0.481,5.461l0.272,5.283
			l-0.333,2.476c-0.316-6.956-0.856-19.286-0.792-19.584c0.16-0.31-0.781-7.166-0.919-8.161l0.518,0l1.442,3.045L17.887,366.097z
			 M17.887,396.199l0.619,8.475l-0.481,5.461l0.272,5.283l-0.333,2.477c-0.316-6.957-0.856-19.287-0.792-19.585
			c0.16-0.31-0.781-7.166-0.919-8.16h0.519l1.442,3.045L17.887,396.199z M17.887,426.303l0.619,8.474l-0.481,5.462l0.272,5.283
			l-0.333,2.476c-0.316-6.957-0.856-19.287-0.792-19.585c0.16-0.31-0.781-7.166-0.919-8.16h0.519l1.442,3.046L17.887,426.303z
			 M17.887,456.405l0.619,8.474l-0.481,5.462l0.272,5.283l-0.333,2.476c-0.316-6.957-0.856-19.287-0.792-19.585
			c0.16-0.309-0.781-7.166-0.919-8.16h0.518l1.442,3.046L17.887,456.405z M17.887,486.508l0.619,8.474l-0.481,5.462l0.272,5.283
			l-0.333,2.476c-0.316-6.957-0.856-19.287-0.792-19.585c0.16-0.309-0.781-7.165-0.919-8.16l0.518,0.001l1.442,3.045L17.887,486.508
			z M17.887,516.61l0.619,8.475l-0.481,5.461l0.272,5.283l-0.333,2.476c-0.316-6.957-0.856-19.287-0.792-19.585
			c0.16-0.309-0.781-7.165-0.919-8.16l0.518,0.001l1.442,3.045L17.887,516.61z M17.887,546.713l0.619,8.475l-0.481,5.461
			l0.272,5.283l-0.333,2.476c-0.316-6.956-0.856-19.286-0.792-19.584c0.16-0.31-0.781-7.166-0.919-8.16h0.519l1.442,3.045
			L17.887,546.713z M17.887,576.815l0.619,8.475l-0.481,5.461l0.272,5.283l-0.333,2.477c-0.316-6.957-0.856-19.287-0.792-19.585
			c0.16-0.31-0.781-7.166-0.919-8.16h0.519l1.442,3.045L17.887,576.815z M17.887,606.918l0.619,8.475l-0.481,5.461l0.272,5.283
			l-0.333,2.477c-0.316-6.957-0.856-19.287-0.792-19.585c0.16-0.31-0.781-7.166-0.919-8.16h0.519l1.442,3.046L17.887,606.918z
			 M17.887,637.021l0.619,8.474l-0.481,5.462l0.272,5.283l-0.333,2.476c-0.316-6.957-0.856-19.287-0.792-19.585
			c0.16-0.31-0.781-7.166-0.919-8.16h0.519l1.442,3.046L17.887,637.021z M15.682,656.663l-0.554-2.36l0.547-23.333l0.471,0.001
			l0.16,10.289l0.3,15.838l-0.922,3.537L15.682,656.663z M15.682,626.56l-0.554-2.359l0.547-23.333l0.471,0.001l0.16,10.289
			l0.3,15.838l-0.922,3.537L15.682,626.56z M15.682,596.457l-0.554-2.36l0.547-23.332l0.471,0.001l0.16,10.289l0.3,15.838
			l-0.922,3.537L15.682,596.457z M15.682,566.354l-0.554-2.36l0.547-23.332l0.471,0.001l0.16,10.289l0.3,15.838l-0.922,3.537
			L15.682,566.354z M15.682,536.252l-0.554-2.36l0.547-23.333l0.471,0.001l0.16,10.289l0.3,15.838l-0.922,3.538L15.682,536.252z
			 M15.682,506.149l-0.554-2.36l0.547-23.333l0.471,0.001l0.16,10.289l0.3,15.838l-0.922,3.537L15.682,506.149z M15.682,476.047
			l-0.554-2.36l0.547-23.333l0.471,0.001l0.16,10.289l0.3,15.838l-0.922,3.537L15.682,476.047z M15.682,445.943l-0.554-2.359
			l0.547-23.333l0.471,0.001l0.16,10.289l0.3,15.838l-0.922,3.537L15.682,445.943z M15.682,415.841l-0.554-2.359l0.547-23.333
			l0.471,0.001l0.16,10.289l0.3,15.838l-0.922,3.537L15.682,415.841z M15.682,385.738l-0.554-2.36l0.547-23.333l0.471,0l0.16,10.29
			l0.3,15.838l-0.922,3.537L15.682,385.738z M15.682,355.636l-0.554-2.361l0.547-23.333l0.471,0l0.16,10.29l0.3,15.838l-0.922,3.537
			L15.682,355.636z M15.682,325.534l-0.554-2.361l0.547-23.332l0.471,0l0.16,10.29l0.3,15.838l-0.922,3.537L15.682,325.534z
			 M15.682,295.431l-0.554-2.361l0.547-23.333l0.471,0l0.16,10.29l0.3,15.838l-0.922,3.537L15.682,295.431z M15.682,265.328
			l-0.554-2.361l0.547-23.333l0.471,0l0.16,10.29l0.3,15.838l-0.922,3.537L15.682,265.328z M15.682,235.226l-0.554-2.361
			l0.547-23.332l0.471,0l0.16,10.29l0.3,15.838l-0.922,3.537L15.682,235.226z M15.682,205.123l-0.554-2.361l0.547-23.332l0.471,0
			l0.16,10.289l0.3,15.838l-0.922,3.537L15.682,205.123z M15.682,175.02l-0.554-2.361l0.547-23.333l0.471,0l0.16,10.29l0.3,15.838
			l-0.922,3.537L15.682,175.02z M15.682,144.917l-0.554-2.361l0.547-23.332l0.471,0l0.16,10.29l0.3,15.838l-0.922,3.537
			L15.682,144.917z M15.682,114.815l-0.554-2.361l0.547-23.332l0.471,0l0.16,10.289l0.3,15.838l-0.922,3.537L15.682,114.815z
			 M17.887,667.124l0.619,8.474l-0.481,5.462l0.272,5.283l-0.333,2.476c-0.316-6.957-0.856-19.287-0.792-19.585
			c0.16-0.309-0.781-7.165-0.919-8.16l0.518,0.001l1.442,3.045L17.887,667.124z M17.887,65.07l0.619,8.474l-0.481,5.461l0.272,5.284
			l-0.333,2.476c-0.316-6.957-0.856-19.287-0.792-19.585c0.16-0.308-0.781-7.165-0.919-8.16l0.518,0l1.442,3.045L17.887,65.07z
			 M16.306,69.309l0.3,15.838l-0.922,3.537l-0.002-3.972l-0.554-2.361l0.547-23.333l0.471,0L16.306,69.309z M15.682,686.766
			l-0.554-2.36l0.547-23.333l0.471,0.001l0.16,10.289l0.3,15.838l-0.922,3.537L15.682,686.766z"/>
		<path class="st0" d="M53.646,11.345l-23.317-0.402l-0.004,0.1l23.206,1.372l2.374,0.628l3.061,0.49v0.022l0.054-0.005
			c0.005,0,0.025-0.002,0.034-0.003l0.013,0.002v-0.003c0.576-0.053,7.23-0.669,7.536-0.812c0.01-0.003,0.071-0.015,0.413-0.015
			c2.503,0,15.098,0.586,15.225,0.592l0.007-0.1L68.42,11.995l-9.354-0.144v-0.042L53.646,11.345z"/>
		<path class="st0" d="M29.079,10.42c6.142,0,21.197,0.367,21.541,0.492c0.032,0.017,0.073,0.024,0.125,0.024
			c0.47,0,1.832-0.705,1.984-0.785l6.318,0.251l0-0.017c0.054,0.016,0.105,0.034,0.173,0.034c6.142,0,21.197,0.367,21.541,0.492
			c0.032,0.017,0.073,0.024,0.125,0.024c0.47,0,1.833-0.705,1.985-0.785l6.318,0.251l0-0.017c0.054,0.016,0.105,0.034,0.173,0.034
			c6.142,0,21.197,0.367,21.541,0.492c0.032,0.017,0.073,0.024,0.125,0.024c0.47,0,1.833-0.705,1.985-0.785l6.318,0.251l0-0.017
			c0.054,0.016,0.105,0.034,0.173,0.034c6.142,0,21.197,0.367,21.541,0.492c0.032,0.017,0.072,0.024,0.124,0.024
			c0.47,0,1.833-0.705,1.985-0.785l6.318,0.251l0-0.017c0.054,0.016,0.105,0.034,0.173,0.034c6.142,0,21.197,0.367,21.541,0.492
			c0.032,0.017,0.073,0.024,0.125,0.024c0.47,0,1.832-0.705,1.984-0.785l6.318,0.251l0-0.017c0.054,0.016,0.105,0.034,0.173,0.034
			c6.142,0,21.197,0.367,21.541,0.492c0.032,0.017,0.073,0.024,0.125,0.024c0.47,0,1.832-0.705,1.984-0.785l6.318,0.251l0-0.017
			c0.054,0.016,0.105,0.034,0.173,0.034c6.142,0,21.197,0.367,21.541,0.492c0.032,0.017,0.073,0.024,0.125,0.024
			c0.47,0,1.832-0.705,1.984-0.785l6.318,0.251l0-0.017c0.054,0.016,0.105,0.034,0.173,0.034c6.142,0,21.197,0.367,21.541,0.492
			c0.032,0.017,0.073,0.024,0.125,0.024c0.47,0,1.833-0.705,1.985-0.785l6.318,0.251l0-0.017c0.054,0.016,0.105,0.034,0.173,0.034
			c6.142,0,21.197,0.367,21.541,0.492c0.032,0.017,0.072,0.024,0.124,0.024c0.001,0,0.001,0,0.001,0c0.47,0,1.831-0.705,1.984-0.785
			l6.268,0.249l0.051,0.002l0.001-0.017c0.054,0.016,0.104,0.034,0.172,0.034c6.142,0,21.196,0.367,21.54,0.492
			c0.032,0.017,0.072,0.024,0.124,0.024c0.001,0,0.001,0,0.001,0c0.47,0,1.831-0.705,1.984-0.785l6.268,0.249l0.051,0.002
			l0.001-0.017c0.054,0.016,0.104,0.034,0.172,0.034c6.142,0,21.197,0.367,21.541,0.492c0.032,0.017,0.072,0.024,0.124,0.024h0.001
			c0.47,0,1.831-0.705,1.984-0.785l6.268,0.249l0.051,0.002v-0.017c0.055,0.016,0.105,0.034,0.173,0.034
			c6.142,0,21.196,0.367,21.54,0.492c0.032,0.017,0.072,0.024,0.125,0.024c0.47,0,1.833-0.705,1.985-0.785l6.267,0.249l0.051,0.002
			v-0.017c0.055,0.016,0.105,0.034,0.173,0.034c6.142,0,21.197,0.367,21.541,0.492c0.032,0.017,0.072,0.024,0.124,0.024
			c0.001,0,0.001,0,0.001,0c0.47,0,1.831-0.705,1.984-0.785l6.268,0.249l0.051,0.002l0.001-0.017
			c0.054,0.016,0.104,0.034,0.172,0.034c6.142,0,21.197,0.367,21.541,0.492c0.032,0.017,0.072,0.024,0.124,0.024
			c0.001,0,0.001,0,0.001,0c0.47,0,1.831-0.705,1.984-0.785l6.267,0.249l0.051,0.002l0.001-0.017
			c0.054,0.016,0.104,0.034,0.172,0.034c6.142,0,21.197,0.367,21.541,0.492c0.032,0.017,0.072,0.024,0.124,0.024
			c0.001,0,0.001,0,0.001,0c0.47,0,1.831-0.705,1.984-0.785l6.268,0.249l0.051,0.002v-0.017c0.055,0.016,0.105,0.034,0.173,0.034
			c6.142,0,21.197,0.367,21.541,0.492c0.032,0.017,0.072,0.024,0.124,0.024h0.001c0.47,0,1.831-0.705,1.984-0.785l6.268,0.249
			l0.051,0.002l0.04-1.396l0.002-0.051h-30.142h-0.069h-30.071h-0.07h-30.071h-0.069h-30.071h-0.07h-30.071h-0.069H330.36h-0.07
			h-30.071h-0.07h-30.071h-0.069h-30.072h-0.07h-30.071h-0.07h-30.071h-0.069h-30.072h-0.069h-30.072h-0.069H89.23h-0.069H59.089
			H59.02H28.877l-0.014,0.027c-0.018,0.035-0.436,0.857-0.2,1.243C28.743,10.354,28.882,10.42,29.079,10.42z"/>
		<path class="st0" d="M28.825,11.849v1.706l0.054-0.005c0.297-0.027,7.27-0.67,7.583-0.816c0.01-0.003,0.071-0.015,0.413-0.015
			c2.503,0,15.098,0.586,15.225,0.592l0.007-0.1l-13.828-1.217l-9.404-0.145L28.825,11.849z"/>
		<path class="st0" d="M28.82,19.449l24.008-0.357l6.193,0.391l0.05,0.003l0.002-0.039l23.896-0.356l6.193,0.391l0.05,0.003
			l0.002-0.039l23.896-0.356l6.193,0.391l0.05,0.003l0.002-0.039l23.896-0.356l6.193,0.391l0.05,0.003l0.002-0.039l23.896-0.356
			l6.193,0.391l0.05,0.003l0.002-0.039l23.896-0.356l6.193,0.391l0.05,0.003l0.002-0.039l23.896-0.356l6.193,0.391l0.05,0.003
			l0.002-0.039l23.896-0.356l6.193,0.391l0.05,0.003l0.002-0.039l23.896-0.356l6.193,0.391l0.05,0.003l0.002-0.039l23.896-0.356
			l6.193,0.391l0.05,0.003l0.002-0.039l23.896-0.356l6.193,0.391l0.05,0.003l0.002-0.039l23.896-0.356l6.192,0.391l0.05,0.003
			l0.002-0.039l23.896-0.356l6.193,0.391l0.05,0.003l0.002-0.039l23.896-0.356l6.192,0.391l0.05,0.003l0.002-0.039l23.896-0.356
			l6.193,0.391l0.05,0.003l0.002-0.039l23.896-0.356l6.193,0.391l0.05,0.003l0.164-2.844l-3.32,1.57l-3.009-0.325l-8.484,0.619
			l-5.469-0.481l-5.29,0.272l-2.479-0.333c3.055-0.138,17.65-0.794,19.449-0.794c0.131,0,0.166,0.006,0.16,0.002
			c0.021,0.011,0.06,0.021,0.188,0.021c1.176,0,7.974-0.939,8.042-0.949l-0.008-0.099l-10.353,0.161l-15.858,0.3l-3.542-0.922
			l3.978-0.002l2.363-0.554l23.412,0.548l0.051,0.001v-1.517l-3.124-0.536l-9.168,0.389l-13.654,0.643l-4.315-0.519v0.003
			l-3.003-0.516l-9.168,0.389l-13.654,0.643l-4.316-0.519v0.003l-3.003-0.516l-9.168,0.389l-13.654,0.643l-4.315-0.519v0.003
			l-3.003-0.516l-9.169,0.389l-13.653,0.643l-4.316-0.519v0.003l-3.003-0.516l-9.168,0.389l-13.654,0.643l-4.315-0.519v0.003
			l-3.004-0.516l-9.168,0.389l-13.654,0.643l-4.315-0.519v0.003l-3.003-0.516l-9.168,0.389l-13.654,0.643l-4.316-0.519v0.003
			l-3.003-0.516l-9.168,0.389l-13.654,0.643l-4.315-0.519v0.003l-3.003-0.516l-9.168,0.389l-13.654,0.643l-4.315-0.519v0.003
			l-3.003-0.516l-9.168,0.389l-13.654,0.643l-4.316-0.519v0.003l-3.003-0.516l-9.168,0.389l-13.654,0.643l-4.316-0.519v0.003
			l-3.003-0.516l-9.168,0.389l-13.654,0.643l-4.316-0.519v0.003l-3.003-0.516l-9.169,0.389l-13.653,0.643l-4.316-0.519v0.003
			l-3.003-0.516l-9.169,0.389l-13.654,0.643l-4.315-0.519v0.003l-3.003-0.516l-9.168,0.389l-13.654,0.643l-4.315-0.519v0.003
			l-3.003-0.516l-9.168,0.389l-13.654,0.643l-4.316-0.519l0.02,1.504l-0.004,3.756L28.82,19.449z M477.893,18.212l-3.009-0.325
			l-8.485,0.619l-5.468-0.481l-5.29,0.272l-2.479-0.333c3.055-0.138,17.65-0.794,19.45-0.794c0.131,0,0.166,0.006,0.16,0.002
			c0.021,0.011,0.06,0.021,0.188,0.021c1.127,0,7.406-0.861,7.982-0.941v0.518L477.893,18.212z M38.954,18.025l-5.291,0.272
			l-2.479-0.333c3.054-0.138,17.65-0.794,19.45-0.794c0.131,0,0.165,0.006,0.16,0.002c0.021,0.011,0.059,0.021,0.188,0.021
			c1.126,0,7.403-0.861,7.983-0.94l0,0.518l-3.049,1.442l-3.008-0.325l-8.485,0.619L38.954,18.025z M80.776,17.169
			c0.131,0,0.165,0.006,0.16,0.002c0.021,0.011,0.059,0.021,0.188,0.021c1.126,0,7.407-0.861,7.983-0.941l0,0.518l-3.049,1.442
			l-3.008-0.325l-8.485,0.619l-5.468-0.481l-5.291,0.272l-2.479-0.333C64.38,17.826,78.976,17.169,80.776,17.169z M89.107,16.146
			l-10.303,0.16l-15.858,0.3l-3.542-0.922l3.977-0.002l2.364-0.554l23.362,0.547L89.107,16.146z M110.917,17.169
			c0.131,0,0.164,0.006,0.16,0.002c0.021,0.011,0.059,0.021,0.188,0.021c1.126,0,7.406-0.861,7.983-0.941l0,0.518l-3.049,1.442
			l-3.008-0.325l-8.485,0.619l-5.468-0.481l-5.291,0.272l-2.479-0.333C94.521,17.826,109.117,17.169,110.917,17.169z
			 M119.248,16.146l-10.303,0.16l-15.858,0.3l-3.541-0.922l3.976-0.002l2.364-0.554l23.362,0.547L119.248,16.146z M141.058,17.169
			c0.131,0,0.164,0.006,0.161,0.002c0.021,0.011,0.059,0.021,0.188,0.021c1.126,0,7.406-0.861,7.982-0.941l0,0.518l-3.049,1.442
			l-3.008-0.325l-8.485,0.619l-5.468-0.481l-5.291,0.272l-2.479-0.333C124.663,17.826,139.258,17.169,141.058,17.169z
			 M149.389,16.146l-10.303,0.16l-15.858,0.3l-3.541-0.922l3.977-0.002l2.364-0.554l23.362,0.547L149.389,16.146z M171.199,17.169
			c0.131,0,0.163,0.006,0.161,0.002c0.021,0.011,0.059,0.021,0.188,0.021c1.126,0,7.406-0.861,7.982-0.941l0,0.518l-3.049,1.442
			l-3.008-0.325l-8.485,0.619l-5.468-0.481l-5.291,0.272l-2.479-0.333C154.804,17.826,169.399,17.169,171.199,17.169z
			 M179.53,16.146l-10.303,0.16l-15.858,0.3l-3.542-0.922l3.977-0.002l2.364-0.554l23.362,0.547L179.53,16.146z M201.341,17.169
			c0.131,0,0.165,0.006,0.16,0.002c0.021,0.011,0.059,0.021,0.188,0.021c1.126,0,7.407-0.861,7.983-0.941l0,0.518l-3.049,1.442
			l-3.008-0.325l-8.485,0.619l-5.468-0.481l-5.291,0.272l-2.479-0.333C184.945,17.826,199.541,17.169,201.341,17.169z
			 M209.671,16.146l-10.303,0.16l-15.858,0.3l-3.542-0.922l3.977-0.002l2.364-0.554l23.362,0.547L209.671,16.146z M231.482,17.169
			c0.131,0,0.165,0.006,0.16,0.002c0.021,0.011,0.059,0.021,0.188,0.021c1.126,0,7.403-0.86,7.983-0.94l-0.001,0.518l-3.049,1.442
			l-3.008-0.325l-8.485,0.619l-5.468-0.481l-5.291,0.272l-2.479-0.333C215.086,17.826,229.682,17.169,231.482,17.169z
			 M239.813,16.146l-10.302,0.16l-15.858,0.3l-3.542-0.922l3.977-0.002l2.364-0.554l23.362,0.547L239.813,16.146z M261.623,17.169
			c0.131,0,0.164,0.006,0.16,0.002c0.021,0.011,0.059,0.021,0.188,0.021c1.126,0,7.406-0.861,7.983-0.941l0,0.518l-3.049,1.442
			l-3.008-0.325l-8.485,0.619l-5.468-0.481l-5.291,0.272l-2.479-0.333C245.228,17.826,259.823,17.169,261.623,17.169z
			 M269.954,16.146l-10.303,0.16l-15.858,0.3l-3.542-0.922l3.977-0.002l2.364-0.554l23.362,0.547L269.954,16.146z M291.764,17.169
			c0.132,0,0.167,0.006,0.16,0.002c0.021,0.011,0.06,0.021,0.188,0.021c1.127,0,7.408-0.861,7.983-0.941v0.518l-3.05,1.442
			l-3.009-0.325l-8.484,0.619l-5.469-0.481l-5.29,0.272l-2.479-0.333C275.369,17.826,289.965,17.169,291.764,17.169z
			 M300.095,16.146l-10.303,0.16l-15.857,0.3l-3.542-0.922l3.977-0.002l2.363-0.554l23.362,0.547L300.095,16.146z M321.905,17.169
			c0.132,0,0.166,0.006,0.16,0.002c0.021,0.011,0.06,0.021,0.188,0.021c1.127,0,7.399-0.86,7.982-0.94v0.518l-3.049,1.442
			l-3.009-0.325l-8.485,0.619l-5.468-0.481l-5.29,0.272l-2.479-0.333C305.51,17.826,320.105,17.169,321.905,17.169z M330.235,16.146
			l-10.302,0.16l-15.858,0.3l-3.541-0.922l3.977-0.002l2.363-0.554l23.362,0.547L330.235,16.146z M352.046,17.169
			c0.132,0,0.166,0.006,0.16,0.002c0.021,0.011,0.06,0.021,0.188,0.021c1.128,0,7.408-0.861,7.983-0.941v0.518l-3.05,1.442
			l-3.009-0.325l-8.484,0.619l-5.469-0.481l-5.29,0.272l-2.479-0.333C335.651,17.826,350.247,17.169,352.046,17.169z
			 M360.377,16.146l-10.302,0.16l-15.858,0.3l-3.542-0.922l3.978-0.002l2.363-0.554l23.362,0.547L360.377,16.146z M382.188,17.169
			c0.131,0,0.168,0.006,0.16,0.002c0.021,0.011,0.06,0.021,0.188,0.021c1.127,0,7.406-0.861,7.983-0.94l-0.001,0.518l-3.049,1.442
			l-3.009-0.325l-8.485,0.619l-5.468-0.481l-5.29,0.272l-2.479-0.333C365.792,17.826,380.388,17.169,382.188,17.169z
			 M390.519,16.146l-10.303,0.16l-15.858,0.3l-3.541-0.922l3.977-0.002l2.363-0.554l23.363,0.547L390.519,16.146z M412.328,17.169
			c0.131,0,0.168,0.006,0.16,0.002c0.021,0.011,0.06,0.021,0.188,0.021c1.128,0,7.406-0.861,7.982-0.941v0.518l-3.049,1.442
			l-3.009-0.325l-8.485,0.619l-5.469-0.481l-5.29,0.272l-2.479-0.333C395.934,17.826,410.529,17.169,412.328,17.169z
			 M420.659,16.146l-10.302,0.16l-15.858,0.3l-3.541-0.922l3.977-0.002l2.363-0.554l23.362,0.547L420.659,16.146z M442.47,17.169
			c0.132,0,0.167,0.006,0.16,0.002c0.021,0.011,0.06,0.021,0.188,0.021c1.128,0,7.408-0.861,7.983-0.941v0.518l-3.05,1.442
			l-3.009-0.325l-8.484,0.619l-5.469-0.481l-5.29,0.272l-2.479-0.333C426.074,17.826,440.67,17.169,442.47,17.169z M450.801,16.146
			l-10.303,0.16l-15.857,0.3l-3.542-0.922l3.978-0.002l2.362-0.554l23.363,0.547L450.801,16.146z M470.64,16.306l-15.858,0.3
			l-3.541-0.922l3.977-0.002l2.363-0.554l23.362,0.547l-0.001,0.471L470.64,16.306z M33.24,15.682l2.364-0.554l23.362,0.547l0,0.471
			l-10.302,0.16l-15.858,0.3l-3.542-0.922L33.24,15.682z"/>
		<path class="st0" d="M83.787,11.345L60.47,10.943l-0.004,0.1l23.206,1.372l2.375,0.628l3.061,0.49v0.022l0.054-0.005
			c0.005,0,0.025-0.002,0.033-0.003l0.013,0.002v-0.003c0.574-0.053,7.23-0.669,7.536-0.812c0.01-0.003,0.071-0.015,0.413-0.015
			c2.503,0,15.098,0.586,15.225,0.592l0.007-0.1l-13.828-1.217l-9.354-0.144v-0.042L83.787,11.345z"/>
		<path class="st0" d="M113.928,11.345l-23.316-0.402l-0.004,0.1l23.206,1.372l2.375,0.628l3.061,0.49v0.022l0.054-0.005
			c0.005,0,0.025-0.002,0.033-0.003l0.013,0.002v-0.003c0.574-0.053,7.23-0.669,7.536-0.812c0.01-0.003,0.071-0.015,0.413-0.015
			c2.503,0,15.098,0.586,15.225,0.592l0.007-0.1l-13.828-1.217l-9.354-0.144v-0.042L113.928,11.345z"/>
		<path class="st0" d="M144.069,11.345l-23.316-0.402l-0.004,0.1l23.206,1.372l2.375,0.628l3.061,0.49v0.022l0.054-0.005
			c0.005,0,0.025-0.002,0.033-0.003l0.013,0.002v-0.003c0.574-0.053,7.23-0.669,7.536-0.812c0.01-0.003,0.071-0.015,0.413-0.015
			c2.503,0,15.098,0.586,15.225,0.592l0.007-0.1l-13.828-1.217l-9.354-0.144v-0.042L144.069,11.345z"/>
		<path class="st0" d="M174.21,11.345l-23.317-0.402l-0.004,0.1l23.206,1.372l2.375,0.628l3.061,0.49v0.022l0.054-0.005
			c0.005,0,0.025-0.002,0.033-0.003l0.013,0.002v-0.003c0.574-0.053,7.23-0.669,7.537-0.812c0.01-0.003,0.071-0.015,0.413-0.015
			c2.503,0,15.098,0.586,15.225,0.592l0.007-0.1l-13.828-1.217l-9.354-0.144v-0.042L174.21,11.345z"/>
		<path class="st0" d="M204.352,11.345l-23.317-0.402l-0.004,0.1l23.206,1.372l2.374,0.628l3.061,0.49v0.022l0.054-0.005
			c0.005,0,0.025-0.002,0.033-0.003l0.013,0.002v-0.003c0.574-0.053,7.23-0.669,7.537-0.812c0.01-0.003,0.071-0.015,0.413-0.015
			c2.503,0,15.098,0.586,15.225,0.592l0.007-0.1l-13.828-1.217l-9.354-0.144v-0.042L204.352,11.345z"/>
		<path class="st0" d="M234.493,11.345l-23.317-0.402l-0.004,0.1l23.206,1.372l2.374,0.628l3.061,0.49v0.022l0.054-0.005
			c0.005,0,0.025-0.002,0.034-0.003l0.013,0.002v-0.003c0.576-0.053,7.23-0.669,7.536-0.812c0.01-0.003,0.071-0.015,0.413-0.015
			c2.503,0,15.098,0.586,15.225,0.592l0.007-0.1l-13.828-1.217l-9.354-0.144v-0.042L234.493,11.345z"/>
		<path class="st0" d="M264.634,11.345l-23.317-0.402l-0.004,0.1l23.206,1.372l2.375,0.628l3.061,0.49v0.022l0.054-0.005
			c0.005,0,0.025-0.002,0.033-0.003l0.013,0.002v-0.003c0.574-0.053,7.23-0.669,7.537-0.812c0.011-0.003,0.071-0.015,0.413-0.015
			c2.503,0,15.099,0.586,15.226,0.592l0.006-0.1l-13.827-1.217l-9.354-0.144v-0.042L264.634,11.345z"/>
		<path class="st0" d="M294.775,11.345l-23.317-0.402l-0.004,0.1l23.206,1.372l2.374,0.628l3.062,0.49v0.022l0.055-0.005
			c0.005,0,0.025-0.002,0.033-0.003l0.013,0.002v-0.003c0.571-0.053,7.23-0.669,7.536-0.812c0.011-0.003,0.071-0.015,0.413-0.015
			c2.503,0,15.099,0.586,15.226,0.592l0.006-0.1l-13.827-1.217l-9.354-0.144v-0.042L294.775,11.345z"/>
		<path class="st0" d="M324.916,11.345L301.6,10.943l-0.004,0.1l23.206,1.372l2.374,0.628l3.061,0.49v0.022l0.055-0.005
			c0.005,0,0.025-0.002,0.033-0.003l0.014,0.002v-0.003c0.576-0.053,7.23-0.669,7.536-0.812c0.011-0.003,0.071-0.015,0.413-0.015
			c2.503,0,15.099,0.586,15.226,0.592l0.006-0.1l-13.827-1.217l-9.354-0.144v-0.042L324.916,11.345z"/>
		<path class="st0" d="M355.058,11.345l-23.317-0.402l-0.004,0.1l23.206,1.372l2.374,0.628l3.062,0.49v0.022l0.055-0.005
			c0.005,0,0.025-0.002,0.033-0.003l0.013,0.002v-0.003c0.57-0.053,7.23-0.669,7.536-0.812c0.011-0.003,0.071-0.015,0.413-0.015
			c2.504,0,15.099,0.586,15.226,0.592l0.006-0.1l-13.827-1.217l-9.354-0.144v-0.042L355.058,11.345z"/>
		<path class="st0" d="M385.198,11.345l-23.316-0.402l-0.004,0.1l23.206,1.372l2.374,0.628l3.062,0.49v0.022l0.055-0.005
			c0.005,0,0.025-0.002,0.033-0.003l0.013,0.002v-0.003c0.571-0.053,7.23-0.669,7.536-0.812c0.011-0.003,0.071-0.015,0.413-0.015
			c2.503,0,15.099,0.586,15.226,0.592l0.006-0.1l-13.827-1.217l-9.354-0.144v-0.042L385.198,11.345z"/>
		<path class="st0" d="M415.34,11.345l-23.316-0.402l-0.004,0.1l23.205,1.372l2.375,0.628l3.061,0.49v0.022l0.055-0.005
			c0.005,0,0.025-0.002,0.033-0.003l0.013,0.002v-0.003c0.571-0.053,7.23-0.669,7.536-0.812c0.011-0.003,0.071-0.015,0.413-0.015
			c2.504,0,15.099,0.586,15.226,0.592l0.006-0.1l-13.827-1.217l-9.354-0.144v-0.042L415.34,11.345z"/>
		<path class="st0" d="M445.481,11.345l-23.317-0.402l-0.004,0.1l23.206,1.372l2.374,0.628l3.062,0.49v0.022l0.055-0.005
			c0.005,0,0.025-0.002,0.033-0.003l0.013,0.002v-0.003c0.57-0.053,7.23-0.669,7.536-0.812c0.011-0.003,0.071-0.015,0.413-0.015
			c2.503,0,15.099,0.586,15.226,0.592l0.006-0.1l-13.827-1.217l-9.354-0.144v-0.042L445.481,11.345z"/>
		<path class="st0" d="M475.622,11.345l-23.316-0.402l-0.004,0.1l23.206,1.372l2.374,0.628l3.061,0.49v0.022l0.055-0.005
			c0.005,0,0.025-0.002,0.033-0.003l0.013,0.002v-0.003c0.57-0.053,7.23-0.669,7.537-0.812c0.011-0.003,0.071-0.015,0.413-0.015
			c2.503,0,15.099,0.586,15.226,0.592l0.006-0.1l-13.827-1.217l-9.354-0.144v-0.042L475.622,11.345z"/>
		<polygon class="st0" points="508.022,13.043 511.185,13.549 511.185,11.809 505.764,11.345 482.446,10.943 482.442,11.043 
			505.648,12.415 		"/>
		<path class="st0" d="M527.586,53.499l-0.629,2.372l-0.491,3.057h-0.021l0.005,0.054c0,0.004,0.002,0.025,0.003,0.033l-0.002,0.014
			h0.003c0.054,0.573,0.671,7.221,0.813,7.526c0.105,0.314-0.331,10.354-0.577,15.618l0.1,0.007l1.217-13.81l0.144-9.341h0.043
			l0.463-5.415l0.402-23.287l-0.1-0.004L527.586,53.499z"/>
		<path class="st0" d="M531.017,28.864c-0.021-0.011-0.534-0.272-0.939-0.272c-0.325,0-0.497,0.168-0.497,0.486
			c0,6.133-0.367,21.169-0.491,21.513c-0.168,0.317,0.638,1.875,0.759,2.106l-0.25,6.31h0.009c-0.015,0.053-0.026,0.107-0.026,0.173
			c0,6.133-0.367,21.169-0.491,21.513c-0.168,0.317,0.638,1.875,0.759,2.106l-0.25,6.31h0.009c-0.015,0.053-0.026,0.108-0.026,0.173
			c0,6.133-0.367,21.169-0.491,21.513c-0.168,0.317,0.638,1.875,0.759,2.106l-0.25,6.31l0.009,0
			c-0.015,0.052-0.026,0.107-0.026,0.172c0,6.133-0.367,21.169-0.491,21.513c-0.168,0.317,0.638,1.875,0.759,2.106l-0.25,6.31
			l0.009,0c-0.015,0.052-0.026,0.107-0.026,0.172c0,6.133-0.367,21.169-0.491,21.513c-0.168,0.317,0.638,1.875,0.759,2.106
			l-0.25,6.31l0.009,0c-0.015,0.052-0.026,0.107-0.026,0.173c0,6.133-0.367,21.168-0.491,21.513
			c-0.168,0.317,0.638,1.875,0.759,2.107l-0.25,6.31l0.009,0c-0.015,0.052-0.026,0.107-0.026,0.173
			c0,6.133-0.367,21.169-0.491,21.513c-0.168,0.317,0.638,1.875,0.759,2.106l-0.25,6.31h0.009c-0.015,0.053-0.026,0.107-0.026,0.173
			c0,6.133-0.367,21.169-0.491,21.513c-0.168,0.317,0.638,1.875,0.759,2.106l-0.25,6.31h0.009c-0.015,0.053-0.026,0.108-0.026,0.173
			c0,6.133-0.367,21.168-0.491,21.513c-0.168,0.317,0.638,1.875,0.759,2.106l-0.25,6.31h0.009c-0.015,0.053-0.026,0.108-0.026,0.173
			c0,6.133-0.367,21.169-0.491,21.513c-0.168,0.317,0.638,1.875,0.759,2.106l-0.25,6.31l0.009,0
			c-0.015,0.052-0.026,0.107-0.026,0.172c0,6.133-0.367,21.169-0.491,21.513c-0.168,0.317,0.638,1.875,0.759,2.106l-0.25,6.31
			l0.009,0c-0.015,0.052-0.026,0.107-0.026,0.173c0,6.133-0.367,21.168-0.491,21.513c-0.168,0.317,0.638,1.876,0.759,2.107
			l-0.248,6.259l-0.002,0.051h0.009c-0.015,0.053-0.026,0.107-0.026,0.173c0,6.133-0.367,21.168-0.491,21.513
			c-0.168,0.317,0.638,1.876,0.759,2.107l-0.248,6.259l-0.002,0.051h0.009c-0.015,0.053-0.026,0.107-0.026,0.173
			c0,6.133-0.367,21.168-0.491,21.513c-0.168,0.317,0.638,1.876,0.759,2.107l-0.248,6.259l-0.002,0.051h0.009
			c-0.015,0.053-0.026,0.107-0.026,0.173c0,6.133-0.367,21.169-0.491,21.514c-0.168,0.316,0.638,1.875,0.759,2.106l-0.248,6.26
			l-0.002,0.051h0.009c-0.015,0.053-0.026,0.106-0.026,0.172c0,6.133-0.367,21.169-0.491,21.514
			c-0.168,0.316,0.638,1.875,0.759,2.106l-0.248,6.26l-0.002,0.051h0.009c-0.015,0.053-0.026,0.107-0.026,0.172
			c0,6.133-0.367,21.169-0.491,21.514c-0.168,0.317,0.638,1.875,0.759,2.106l-0.248,6.26l-0.002,0.051h0.009
			c-0.015,0.053-0.026,0.107-0.026,0.173c0,6.133-0.367,21.168-0.491,21.513c-0.168,0.317,0.638,1.876,0.759,2.107l-0.248,6.259
			l-0.002,0.051h0.009c-0.015,0.053-0.026,0.107-0.026,0.173c0,6.133-0.367,21.168-0.491,21.513
			c-0.168,0.317,0.638,1.876,0.759,2.107l-0.248,6.259l-0.002,0.051h0.009c-0.015,0.053-0.026,0.107-0.026,0.173
			c0,6.133-0.367,21.168-0.491,21.513c-0.168,0.317,0.638,1.876,0.759,2.107l-0.248,6.259l-0.002,0.051h0.009
			c-0.015,0.053-0.026,0.107-0.026,0.173c0,6.133-0.367,21.168-0.491,21.513c-0.168,0.317,0.638,1.876,0.759,2.107l-0.248,6.259
			l-0.002,0.051h0.009c-0.015,0.053-0.026,0.107-0.026,0.173c0,6.133-0.367,21.169-0.491,21.514
			c-0.168,0.316,0.638,1.875,0.759,2.106l-0.248,6.26l-0.002,0.051l1.396,0.04l0.051,0.002v-30.103v-0.07v-30.032v-0.07v-30.032
			v-0.07v-30.033v-0.069v-30.033v-0.069v-30.033v-0.069v-30.033v-0.07v-30.032v-0.07v-30.032v-0.07v-30.032v-0.07v-30.033v-0.07
			v-30.033v-0.07v-30.033v-0.07v-30.033v-0.07v-30.033v-0.07v-30.033v-0.07v-30.033v-0.07v-30.033v-0.07v-30.033v-0.07V89.153v-0.07
			V59.05v-0.07V28.877L531.017,28.864z"/>
		<path class="st0" d="M525.986,46.751l-0.643-13.636l0.519-4.311l-1.505,0.02l-3.807-0.004l0.358,23.977l-0.392,6.185l-0.003,0.05
			l0.038,0.002l0.356,23.865l-0.392,6.185l-0.003,0.05l0.038,0.002l0.356,23.865l-0.392,6.186l-0.003,0.05l0.038,0.002l0.356,23.866
			l-0.392,6.185l-0.003,0.05l0.038,0.002l0.356,23.866l-0.392,6.185l-0.003,0.05l0.038,0.002l0.356,23.866l-0.392,6.185l-0.003,0.05
			l0.038,0.002l0.356,23.866l-0.392,6.185l-0.003,0.05l0.038,0.002l0.356,23.865l-0.392,6.185l-0.003,0.05l0.038,0.002l0.356,23.865
			l-0.392,6.185l-0.003,0.05l0.038,0.002l0.356,23.866l-0.392,6.185l-0.003,0.05l0.038,0.002l0.356,23.866l-0.392,6.185l-0.003,0.05
			l0.038,0.002l0.356,23.866l-0.392,6.185l-0.003,0.05l0.038,0.002l0.356,23.866l-0.392,6.185l-0.003,0.05l0.038,0.002l0.356,23.866
			l-0.392,6.185l-0.003,0.05l0.038,0.002l0.356,23.866l-0.392,6.186l-0.003,0.05l0.038,0.002l0.356,23.865l-0.392,6.186l-0.003,0.05
			l0.038,0.002l0.356,23.865l-0.392,6.186l-0.003,0.05l0.038,0.002l0.356,23.865l-0.392,6.186l-0.003,0.05l0.038,0.002l0.356,23.866
			l-0.392,6.185l-0.003,0.05l0.038,0.002l0.356,23.866l-0.392,6.185l-0.003,0.05l0.038,0.002l0.356,23.866l-0.392,6.185l-0.003,0.05
			l0.038,0.002l0.356,23.866l-0.392,6.186l-0.003,0.05l2.843,0.164l-1.57-3.316l0.325-3.005l-0.618-8.473l0.481-5.463l-0.272-5.283
			l0.333-2.477c0.316,6.957,0.856,19.288,0.793,19.586c-0.163,0.314,0.815,7.41,0.927,8.219l0.1-0.008l-0.161-10.34l-0.301-15.838
			l0.922-3.535l0.003,3.97l0.555,2.36l-0.549,23.383l-0.001,0.051h1.516l0.536-3.12l-0.389-9.156l-0.643-13.637l0.519-4.311h-0.003
			l0.516-2.999l-0.389-9.156l-0.643-13.637l0.519-4.311h-0.003l0.516-2.999l-0.389-9.156l-0.643-13.637l0.519-4.311h-0.003
			l0.516-2.999l-0.389-9.156l-0.643-13.637l0.519-4.311h-0.003l0.516-2.999l-0.389-9.156l-0.643-13.637l0.519-4.311h-0.003
			l0.516-2.999l-0.389-9.157l-0.643-13.637l0.519-4.31h-0.003l0.516-3l-0.389-9.156l-0.643-13.637l0.519-4.31h-0.003l0.516-3
			l-0.389-9.156l-0.643-13.637l0.519-4.311h-0.003l0.516-2.999l-0.389-9.156l-0.643-13.637l0.519-4.311h-0.003l0.516-2.999
			l-0.389-9.156l-0.643-13.637l0.519-4.311h-0.003l0.516-2.999l-0.389-9.156l-0.643-13.637l0.519-4.311h-0.003l0.516-3l-0.389-9.157
			l-0.643-13.636l0.519-4.31h-0.003l0.516-3l-0.389-9.157l-0.643-13.636l0.519-4.311h-0.003l0.516-2.999l-0.389-9.157l-0.643-13.637
			l0.519-4.31h-0.003l0.516-3l-0.389-9.157l-0.643-13.636l0.519-4.31h-0.003l0.516-3l-0.389-9.157l-0.643-13.636l0.519-4.311h-0.003
			l0.516-2.999l-0.389-9.157l-0.643-13.636l0.519-4.311h-0.003l0.516-2.999l-0.389-9.157l-0.643-13.636l0.519-4.31h-0.003l0.516-3
			l-0.389-9.157l-0.643-13.636l0.519-4.31h-0.003l0.516-3l-0.389-9.157l-0.643-13.636l0.519-4.311h-0.003l0.516-2.999l-0.389-9.157
			l-0.643-13.636l0.519-4.31h-0.003l0.516-3L525.986,46.751z M524.318,63.337l0.555,2.361l-0.548,23.333l-0.471,0l-0.16-10.29
			l-0.301-15.838l0.922-3.535L524.318,63.337z M524.318,93.439l0.555,2.361l-0.548,23.332l-0.471,0l-0.16-10.29l-0.301-15.838
			l0.922-3.535L524.318,93.439z M524.318,123.542l0.555,2.361l-0.548,23.332l-0.471,0l-0.16-10.289l-0.301-15.838l0.922-3.536
			L524.318,123.542z M524.318,153.645l0.555,2.361l-0.548,23.333l-0.471,0l-0.16-10.29l-0.301-15.838l0.922-3.536L524.318,153.645z
			 M524.318,183.748l0.555,2.361l-0.548,23.332l-0.471,0l-0.16-10.29l-0.301-15.838l0.922-3.535L524.318,183.748z M524.318,213.85
			l0.555,2.361l-0.548,23.332l-0.471,0l-0.16-10.289l-0.301-15.838l0.922-3.536L524.318,213.85z M524.318,243.953l0.555,2.361
			l-0.548,23.333l-0.471,0l-0.16-10.29l-0.301-15.838l0.922-3.536L524.318,243.953z M524.318,274.056l0.555,2.361l-0.548,23.332
			l-0.471,0l-0.16-10.29l-0.301-15.838l0.922-3.535L524.318,274.056z M524.318,304.158l0.555,2.361l-0.548,23.332l-0.471,0
			l-0.16-10.29l-0.301-15.838l0.922-3.535L524.318,304.158z M524.318,334.261l0.555,2.361l-0.548,23.333l-0.471,0l-0.16-10.29
			l-0.301-15.838l0.922-3.536L524.318,334.261z M524.318,364.364l0.555,2.36l-0.548,23.332l-0.471-0.001l-0.16-10.288l-0.301-15.838
			l0.922-3.536L524.318,364.364z M524.318,394.467l0.555,2.36l-0.548,23.333l-0.471-0.001l-0.16-10.289l-0.301-15.838l0.922-3.536
			L524.318,394.467z M524.318,424.569l0.555,2.36l-0.548,23.333l-0.471-0.001l-0.16-10.289l-0.301-15.838l0.922-3.535
			L524.318,424.569z M524.318,454.672l0.555,2.36l-0.548,23.333l-0.471-0.001l-0.16-10.289l-0.301-15.838l0.922-3.535
			L524.318,454.672z M524.318,484.775l0.555,2.359l-0.548,23.333l-0.471-0.001l-0.16-10.289l-0.301-15.838l0.922-3.535
			L524.318,484.775z M524.318,514.878l0.555,2.359l-0.548,23.333l-0.471-0.001l-0.16-10.289l-0.301-15.838l0.922-3.535
			L524.318,514.878z M524.318,544.98l0.555,2.36l-0.548,23.332l-0.471-0.001l-0.16-10.289l-0.301-15.838l0.922-3.535L524.318,544.98
			z M524.318,575.083l0.555,2.36l-0.548,23.333l-0.471-0.001l-0.16-10.289l-0.301-15.838l0.922-3.536L524.318,575.083z
			 M524.318,605.186l0.555,2.36l-0.548,23.333l-0.471-0.001l-0.16-10.289l-0.301-15.838l0.922-3.535L524.318,605.186z
			 M522.112,624.827l-0.618-8.474l0.481-5.462l-0.272-5.283l0.333-2.477c0.316,6.957,0.856,19.288,0.793,19.586
			c-0.16,0.309,0.781,7.165,0.919,8.16l-0.519-0.001l-1.442-3.045L522.112,624.827z M522.112,594.725l-0.618-8.474l0.481-5.462
			l-0.272-5.283l0.333-2.477c0.316,6.957,0.856,19.288,0.793,19.586c-0.16,0.309,0.781,7.165,0.919,8.16l-0.519-0.001l-1.442-3.045
			L522.112,594.725z M522.112,564.622l-0.618-8.474l0.481-5.462l-0.272-5.283l0.333-2.477c0.316,6.957,0.856,19.287,0.793,19.585
			c-0.16,0.31,0.782,7.166,0.919,8.16h-0.519l-1.442-3.045L522.112,564.622z M522.112,534.52l-0.618-8.474l0.481-5.462l-0.272-5.283
			l0.333-2.477c0.316,6.956,0.856,19.287,0.793,19.585c-0.16,0.31,0.782,7.166,0.919,8.16h-0.519l-1.442-3.045L522.112,534.52z
			 M522.112,504.416l-0.618-8.473l0.481-5.462l-0.272-5.284l0.333-2.477c0.316,6.957,0.856,19.288,0.793,19.586
			c-0.16,0.31,0.782,7.166,0.919,8.16h-0.519l-1.442-3.046L522.112,504.416z M522.112,474.313l-0.618-8.473l0.481-5.463
			l-0.272-5.283l0.333-2.477c0.316,6.957,0.856,19.288,0.793,19.586c-0.16,0.31,0.782,7.166,0.919,8.16h-0.519l-1.442-3.046
			L522.112,474.313z M522.112,444.211l-0.618-8.473l0.481-5.463l-0.272-5.283l0.333-2.477c0.316,6.957,0.856,19.288,0.793,19.586
			c-0.16,0.309,0.781,7.165,0.919,8.16l-0.519-0.001l-1.442-3.045L522.112,444.211z M522.112,414.108l-0.618-8.474l0.481-5.462
			l-0.272-5.283l0.333-2.477c0.316,6.957,0.856,19.288,0.793,19.586c-0.16,0.309,0.781,7.165,0.919,8.16l-0.519-0.001l-1.442-3.045
			L522.112,414.108z M522.112,384.006l-0.618-8.474l0.481-5.462l-0.272-5.283l0.333-2.477c0.316,6.957,0.856,19.287,0.793,19.585
			c-0.16,0.31,0.781,7.163,0.919,8.16h-0.519l-1.442-3.045L522.112,384.006z M522.112,353.904l-0.618-8.475l0.481-5.461
			l-0.272-5.284l0.333-2.476c0.316,6.957,0.856,19.288,0.793,19.586c-0.16,0.308,0.782,7.165,0.919,8.16l-0.519,0l-1.442-3.045
			L522.112,353.904z M522.112,323.801l-0.618-8.474l0.481-5.461l-0.272-5.284l0.333-2.476c0.316,6.956,0.856,19.287,0.793,19.585
			c-0.16,0.308,0.782,7.166,0.919,8.16l-0.519,0l-1.442-3.045L522.112,323.801z M522.112,293.698l-0.618-8.474l0.481-5.461
			l-0.272-5.284l0.333-2.477c0.316,6.957,0.856,19.288,0.793,19.586c-0.16,0.308,0.782,7.165,0.919,8.16l-0.519,0l-1.442-3.045
			L522.112,293.698z M522.112,263.596l-0.618-8.475l0.481-5.461l-0.272-5.284l0.333-2.477c0.316,6.957,0.856,19.288,0.793,19.586
			c-0.16,0.308,0.782,7.165,0.919,8.16l-0.519,0l-1.442-3.045L522.112,263.596z M522.112,233.493l-0.618-8.474l0.481-5.461
			l-0.272-5.284l0.333-2.476c0.316,6.956,0.856,19.287,0.793,19.585c-0.16,0.308,0.781,7.164,0.919,8.16l-0.519-0.001l-1.442-3.045
			L522.112,233.493z M522.112,203.39l-0.618-8.474l0.481-5.461l-0.272-5.284l0.333-2.476c0.316,6.956,0.856,19.287,0.793,19.585
			c-0.16,0.308,0.782,7.165,0.919,8.16l-0.519,0l-1.442-3.045L522.112,203.39z M522.112,173.288l-0.618-8.475l0.481-5.461
			l-0.272-5.284l0.333-2.477c0.316,6.957,0.856,19.288,0.793,19.586c-0.16,0.308,0.782,7.165,0.919,8.16l-0.519,0l-1.442-3.045
			L522.112,173.288z M522.112,143.185l-0.618-8.474l0.481-5.461l-0.272-5.284l0.333-2.476c0.316,6.956,0.856,19.287,0.793,19.585
			c-0.16,0.308,0.781,7.164,0.919,8.16l-0.519,0l-1.442-3.045L522.112,143.185z M522.112,113.082l-0.618-8.474l0.481-5.461
			l-0.272-5.284l0.333-2.476c0.316,6.956,0.856,19.287,0.793,19.585c-0.16,0.308,0.782,7.166,0.919,8.16l-0.519,0l-1.442-3.045
			L522.112,113.082z M522.112,82.979l-0.618-8.474l0.481-5.461l-0.272-5.284l0.333-2.477c0.316,6.957,0.856,19.288,0.793,19.586
			c-0.16,0.308,0.782,7.165,0.919,8.16l-0.519,0l-1.442-3.045L522.112,82.979z M522.112,52.876l-0.618-8.474l0.481-5.461
			l-0.272-5.284l0.333-2.476c0.316,6.957,0.856,19.288,0.793,19.586c-0.16,0.308,0.782,7.165,0.919,8.16l-0.519,0l-1.442-3.045
			L522.112,52.876z M523.748,660.98h-0.519l-1.442-3.046l0.325-3.005l-0.618-8.473l0.481-5.463l-0.272-5.283l0.333-2.477
			c0.316,6.957,0.856,19.288,0.793,19.586C522.669,653.129,523.611,659.986,523.748,660.98z M524.318,33.234l0.555,2.361
			l-0.548,23.333l-0.471,0l-0.16-10.29L523.394,32.8l0.922-3.536L524.318,33.234z M523.694,650.691l-0.301-15.838l0.922-3.535
			l0.003,3.97l0.555,2.36l-0.548,23.333l-0.471-0.001L523.694,650.691z"/>
		<path class="st0" d="M527.266,36.452c0.105,0.314-0.331,10.354-0.577,15.618l0.1,0.007l1.217-13.81l0.145-9.392l0.001-0.051
			h-1.706l0.005,0.054C526.477,29.175,527.121,36.14,527.266,36.452z"/>
		<path class="st0" d="M527.586,83.602l-0.629,2.372l-0.491,3.057h-0.021l0.005,0.054c0,0.004,0.002,0.025,0.003,0.033l-0.002,0.014
			h0.003c0.054,0.573,0.671,7.221,0.813,7.526c0.105,0.314-0.331,10.354-0.577,15.619l0.1,0.007l1.217-13.81l0.144-9.342h0.043
			l0.463-5.415l0.402-23.287l-0.1-0.004L527.586,83.602z"/>
		<path class="st0" d="M527.586,113.705l-0.629,2.371l-0.491,3.057h-0.021l0.005,0.054c0,0.004,0.002,0.025,0.003,0.033
			l-0.002,0.014h0.003c0.054,0.573,0.671,7.221,0.813,7.527c0.105,0.314-0.331,10.354-0.577,15.618l0.1,0.007l1.217-13.81
			l0.144-9.342h0.043l0.463-5.414l0.402-23.287l-0.1-0.004L527.586,113.705z"/>
		<path class="st0" d="M527.586,143.807l-0.629,2.372l-0.491,3.057h-0.021l0.005,0.054c0,0.005,0.002,0.025,0.003,0.033
			l-0.002,0.014h0.003c0.054,0.576,0.671,7.221,0.813,7.526c0.105,0.314-0.331,10.354-0.577,15.618l0.1,0.007l1.217-13.81
			l0.144-9.341h0.043l0.463-5.415l0.402-23.287l-0.1-0.004L527.586,143.807z"/>
		<path class="st0" d="M527.586,173.91l-0.629,2.371l-0.491,3.057h-0.021l0.005,0.054c0,0.005,0.002,0.025,0.003,0.033l-0.002,0.014
			h0.003c0.054,0.573,0.671,7.221,0.813,7.526c0.105,0.314-0.331,10.354-0.577,15.618l0.1,0.007l1.217-13.81l0.144-9.341h0.043
			l0.463-5.415l0.402-23.287l-0.1-0.004L527.586,173.91z"/>
		<path class="st0" d="M527.586,204.013l-0.629,2.371l-0.491,3.057h-0.021l0.005,0.054c0,0.005,0.002,0.025,0.003,0.033
			l-0.002,0.014h0.003c0.054,0.573,0.671,7.221,0.813,7.527c0.105,0.314-0.331,10.354-0.577,15.618l0.1,0.007l1.217-13.81
			l0.144-9.342h0.043l0.463-5.414l0.402-23.287l-0.1-0.004L527.586,204.013z"/>
		<path class="st0" d="M527.586,234.115l-0.629,2.371l-0.491,3.057h-0.021l0.005,0.054c0,0.005,0.002,0.025,0.003,0.033
			l-0.002,0.014h0.003c0.054,0.576,0.671,7.221,0.813,7.526c0.105,0.314-0.331,10.354-0.577,15.618l0.1,0.007l1.217-13.81
			l0.144-9.341h0.043l0.463-5.415l0.402-23.287l-0.1-0.004L527.586,234.115z"/>
		<path class="st0" d="M527.586,264.218l-0.629,2.372l-0.491,3.057h-0.021l0.005,0.054c0,0.004,0.002,0.025,0.003,0.033
			l-0.002,0.014h0.003c0.054,0.573,0.671,7.221,0.813,7.526c0.105,0.314-0.331,10.354-0.577,15.618l0.1,0.007l1.217-13.81
			l0.144-9.341h0.043l0.463-5.415l0.402-23.287l-0.1-0.004L527.586,264.218z"/>
		<path class="st0" d="M527.586,294.321l-0.629,2.371l-0.491,3.057h-0.021l0.005,0.054c0,0.004,0.002,0.025,0.003,0.033
			l-0.002,0.014h0.003c0.054,0.573,0.671,7.221,0.813,7.527c0.105,0.314-0.331,10.354-0.577,15.618l0.1,0.007l1.217-13.81
			l0.144-9.342h0.043l0.463-5.415l0.402-23.287l-0.1-0.004L527.586,294.321z"/>
		<path class="st0" d="M527.586,324.423l-0.629,2.371l-0.491,3.057h-0.021l0.005,0.054c0,0.004,0.002,0.025,0.003,0.033
			l-0.002,0.014h0.003c0.054,0.573,0.671,7.221,0.813,7.527c0.105,0.314-0.331,10.354-0.577,15.618l0.1,0.007l1.217-13.81
			l0.144-9.342h0.043l0.463-5.414l0.402-23.287l-0.1-0.004L527.586,324.423z"/>
		<path class="st0" d="M527.586,354.526l-0.629,2.372l-0.491,3.057h-0.021l0.005,0.054c0,0.005,0.002,0.025,0.003,0.033
			l-0.002,0.014h0.003c0.054,0.573,0.671,7.221,0.813,7.527c0.105,0.314-0.331,10.354-0.577,15.618l0.1,0.006l1.217-13.81
			l0.144-9.341h0.043l0.463-5.415l0.402-23.287l-0.1-0.004L527.586,354.526z"/>
		<path class="st0" d="M527.586,384.629L526.957,387l-0.491,3.057h-0.021l0.005,0.055c0,0.005,0.002,0.025,0.003,0.033l-0.002,0.014
			h0.003c0.054,0.575,0.671,7.221,0.813,7.526c0.105,0.314-0.331,10.354-0.577,15.618l0.1,0.006l1.217-13.81l0.144-9.341h0.043
			l0.463-5.415l0.402-23.287l-0.1-0.004L527.586,384.629z"/>
		<path class="st0" d="M527.586,414.731l-0.629,2.371l-0.491,3.058h-0.021l0.005,0.055c0,0.005,0.002,0.024,0.003,0.032
			l-0.002,0.014h0.003c0.053,0.57,0.671,7.221,0.813,7.526c0.105,0.314-0.331,10.354-0.577,15.618l0.1,0.006l1.217-13.81
			l0.144-9.341h0.043l0.463-5.415l0.402-23.287l-0.1-0.004L527.586,414.731z"/>
		<path class="st0" d="M527.586,444.834l-0.629,2.371l-0.491,3.058h-0.021l0.005,0.055c0,0.005,0.002,0.024,0.003,0.032
			l-0.002,0.014h0.003c0.053,0.57,0.671,7.221,0.813,7.526c0.105,0.314-0.331,10.354-0.577,15.619l0.1,0.006l1.217-13.81
			l0.144-9.342h0.043l0.463-5.415l0.402-23.286l-0.1-0.004L527.586,444.834z"/>
		<path class="st0" d="M527.586,474.937l-0.629,2.371l-0.491,3.058h-0.021l0.005,0.055c0,0.005,0.002,0.024,0.003,0.032
			l-0.002,0.014h0.003c0.053,0.57,0.671,7.221,0.813,7.526c0.105,0.314-0.331,10.354-0.577,15.619l0.1,0.006l1.217-13.81
			l0.144-9.342h0.043l0.463-5.414l0.402-23.287l-0.1-0.004L527.586,474.937z"/>
		<path class="st0" d="M527.586,505.039l-0.629,2.372l-0.491,3.057h-0.021l0.005,0.055c0,0.005,0.002,0.024,0.003,0.032
			l-0.002,0.014h0.003c0.053,0.57,0.671,7.222,0.813,7.526c0.105,0.314-0.331,10.354-0.577,15.619l0.1,0.006l1.217-13.81
			l0.144-9.342h0.043l0.463-5.414l0.402-23.287l-0.1-0.004L527.586,505.039z"/>
		<path class="st0" d="M527.586,535.143l-0.629,2.371l-0.491,3.057h-0.021l0.005,0.055c0,0.005,0.002,0.024,0.003,0.032
			l-0.002,0.014h0.003c0.053,0.57,0.671,7.222,0.813,7.526c0.105,0.314-0.331,10.354-0.577,15.619l0.1,0.006l1.217-13.81
			l0.144-9.342h0.043l0.463-5.414l0.402-23.287l-0.1-0.004L527.586,535.143z"/>
		<path class="st0" d="M527.586,565.245l-0.629,2.371l-0.491,3.057h-0.021l0.005,0.055c0,0.005,0.002,0.024,0.003,0.032
			l-0.002,0.014h0.003c0.053,0.57,0.671,7.222,0.813,7.527c0.105,0.314-0.331,10.354-0.577,15.618l0.1,0.006l1.217-13.81
			l0.144-9.342h0.043l0.463-5.414l0.402-23.287l-0.1-0.004L527.586,565.245z"/>
		<path class="st0" d="M527.586,595.348l-0.629,2.371l-0.491,3.058h-0.021l0.005,0.055c0,0.005,0.002,0.024,0.003,0.032
			l-0.002,0.014h0.003c0.053,0.57,0.671,7.221,0.813,7.526c0.105,0.314-0.331,10.354-0.577,15.618l0.1,0.006l1.217-13.81
			l0.144-9.341h0.043l0.463-5.415l0.402-23.287l-0.1-0.004L527.586,595.348z"/>
		<path class="st0" d="M527.586,625.45l-0.629,2.371l-0.491,3.058h-0.021l0.005,0.055c0,0.005,0.002,0.024,0.003,0.032l-0.002,0.014
			h0.003c0.053,0.57,0.671,7.221,0.813,7.526c0.105,0.314-0.331,10.354-0.577,15.618l0.1,0.006l1.217-13.809l0.144-9.342h0.043
			l0.463-5.415l0.402-23.286l-0.1-0.004L527.586,625.45z"/>
		<path class="st0" d="M527.586,655.553l-0.629,2.371l-0.491,3.058h-0.021l0.005,0.055c0,0.005,0.002,0.024,0.003,0.032
			l-0.002,0.014h0.003c0.053,0.57,0.671,7.221,0.813,7.526c0.105,0.314-0.331,10.354-0.577,15.619l0.1,0.006l1.217-13.81
			l0.144-9.342h0.043l0.463-5.414l0.402-23.287l-0.1-0.004L527.586,655.553z"/>
		<polygon class="st0" points="527.586,685.655 526.957,688.026 526.459,691.127 526.45,691.185 528.191,691.185 528.654,685.771 
			529.057,662.483 528.957,662.479 		"/>
		<path class="st0" d="M486.354,708.654l23.316,0.402l0.004-0.1l-23.205-1.371l-2.375-0.629l-3.061-0.491v-0.021l-0.055,0.005
			c-0.005,0-0.024,0.002-0.032,0.003l-0.014-0.002v0.003c-0.57,0.053-7.23,0.671-7.536,0.813c-0.011,0.003-0.07,0.015-0.412,0.015
			c-2.5,0-15.1-0.586-15.227-0.592l-0.006,0.1l13.827,1.217l9.354,0.144v0.043L486.354,708.654z"/>
		<path class="st0" d="M510.922,709.58c-6.141,0-21.196-0.367-21.541-0.491c-0.032-0.018-0.073-0.025-0.125-0.025
			c-0.471,0-1.832,0.705-1.984,0.784l-6.268-0.248l-0.051-0.002v0.016c-0.055-0.015-0.105-0.033-0.173-0.033
			c-6.141,0-21.196-0.367-21.541-0.491c-0.032-0.018-0.073-0.025-0.125-0.025c-0.471,0-1.832,0.705-1.984,0.784l-6.267-0.248
			l-0.051-0.002v0.016c-0.055-0.015-0.106-0.033-0.174-0.033c-6.141,0-21.195-0.367-21.54-0.491
			c-0.032-0.018-0.073-0.025-0.125-0.025c-0.471,0-1.832,0.705-1.984,0.784l-6.268-0.248l-0.051-0.002l-0.001,0.016
			c-0.054-0.015-0.104-0.033-0.172-0.033c-6.141,0-21.196-0.367-21.541-0.491c-0.032-0.018-0.073-0.025-0.125-0.025
			c-0.471,0-1.832,0.705-1.984,0.784l-6.268-0.248l-0.051-0.002v0.016c-0.055-0.015-0.105-0.033-0.173-0.033
			c-6.141,0-21.195-0.367-21.54-0.491c-0.032-0.018-0.073-0.025-0.125-0.025c-0.471,0-1.833,0.705-1.985,0.784l-6.267-0.248
			l-0.051-0.002v0.016c-0.055-0.015-0.105-0.033-0.173-0.033c-6.141,0-21.196-0.367-21.541-0.491
			c-0.032-0.018-0.073-0.025-0.125-0.025c-0.471,0-1.832,0.705-1.984,0.784l-6.268-0.248l-0.051-0.002v0.016
			c-0.055-0.015-0.105-0.033-0.173-0.033c-6.141,0-21.195-0.367-21.54-0.491c-0.032-0.018-0.073-0.025-0.125-0.025
			c-0.472,0-1.833,0.705-1.985,0.784l-6.267-0.248l-0.051-0.002l-0.001,0.016c-0.054-0.015-0.104-0.033-0.172-0.033
			c-6.141,0-21.196-0.367-21.541-0.491c-0.032-0.018-0.073-0.025-0.125-0.025c-0.471,0-1.832,0.705-1.984,0.784l-6.318-0.25l0,0.016
			c-0.054-0.015-0.105-0.033-0.173-0.033c-6.141,0-21.196-0.367-21.541-0.491c-0.032-0.018-0.073-0.025-0.125-0.025
			c-0.471,0-1.832,0.705-1.984,0.784l-6.318-0.25l0,0.016c-0.054-0.015-0.105-0.033-0.173-0.033c-6.141,0-21.196-0.367-21.541-0.491
			c-0.032-0.018-0.073-0.025-0.125-0.025c-0.471,0-1.832,0.705-1.984,0.784l-6.318-0.25l0,0.016
			c-0.054-0.015-0.105-0.033-0.173-0.033c-6.141,0-21.197-0.367-21.541-0.491c-0.032-0.018-0.073-0.025-0.125-0.025
			c-0.471,0-1.832,0.705-1.984,0.784l-6.318-0.25l0,0.016c-0.054-0.015-0.105-0.033-0.173-0.033c-6.141,0-21.196-0.367-21.541-0.491
			c-0.032-0.018-0.073-0.025-0.125-0.025c-0.471,0-1.832,0.705-1.984,0.784l-6.318-0.25l0,0.016
			c-0.054-0.015-0.105-0.033-0.173-0.033c-6.141,0-21.196-0.367-21.541-0.491c-0.032-0.018-0.073-0.025-0.125-0.025
			c-0.471,0-1.832,0.705-1.984,0.784l-6.318-0.25l0,0.016c-0.054-0.015-0.105-0.033-0.173-0.033c-6.141,0-21.196-0.367-21.541-0.491
			c-0.032-0.018-0.073-0.025-0.125-0.025c-0.471,0-1.832,0.705-1.984,0.784l-6.318-0.25l0,0.016
			c-0.054-0.015-0.105-0.033-0.173-0.033c-6.141,0-21.196-0.367-21.541-0.491c-0.032-0.018-0.073-0.025-0.125-0.025
			c-0.471,0-1.832,0.705-1.984,0.784l-6.318-0.25l0,0.016c-0.054-0.015-0.105-0.033-0.173-0.033c-6.141,0-21.196-0.367-21.541-0.491
			c-0.032-0.018-0.073-0.025-0.125-0.025c-0.471,0-1.832,0.705-1.984,0.784l-6.318-0.25l-0.042,1.446h30.141h0.069h30.072h0.069
			h30.072h0.07h30.071h0.07H179.5h0.069h30.072h0.069h30.072h0.069h30.072h0.069h30.071h0.07h30.071h0.069h30.071h0.07h30.071h0.07
			h30.07h0.07h30.071h0.07h30.071h0.069h30.142l0.015-0.027c0.018-0.034,0.435-0.856,0.199-1.242
			C511.258,709.646,511.118,709.58,510.922,709.58z"/>
		<path class="st0" d="M511.175,708.15v-1.706l-0.055,0.005c-0.297,0.027-7.27,0.672-7.582,0.816
			c-0.011,0.003-0.07,0.015-0.411,0.015c-2.5,0-15.101-0.586-15.228-0.592l-0.006,0.1l13.827,1.217l9.403,0.145L511.175,708.15z"/>
		<path class="st0" d="M456.213,708.654l23.317,0.402l0.004-0.1l-23.206-1.371l-2.374-0.629l-3.062-0.491v-0.021l-0.055,0.005
			c-0.005,0-0.024,0.002-0.032,0.003l-0.014-0.002v0.003c-0.571,0.053-7.23,0.671-7.536,0.813c-0.011,0.003-0.07,0.015-0.411,0.015
			c-2.5,0-15.101-0.586-15.228-0.592l-0.006,0.1l13.827,1.217l9.354,0.144v0.043L456.213,708.654z"/>
		<path class="st0" d="M426.072,708.654l23.316,0.402l0.004-0.1l-23.206-1.371l-2.374-0.629l-3.061-0.491v-0.021l-0.055,0.005
			c-0.005,0-0.024,0.002-0.032,0.003l-0.014-0.002v0.003c-0.571,0.053-7.23,0.671-7.537,0.813c-0.011,0.003-0.07,0.015-0.411,0.015
			c-2.5,0-15.101-0.586-15.228-0.592l-0.006,0.1l13.827,1.217l9.354,0.144v0.043L426.072,708.654z"/>
		<path class="st0" d="M395.931,708.654l23.317,0.402l0.004-0.1l-23.206-1.371l-2.374-0.629l-3.062-0.491v-0.021l-0.055,0.005
			c-0.005,0-0.024,0.002-0.032,0.003l-0.014-0.002v0.003c-0.57,0.053-7.23,0.671-7.536,0.813c-0.011,0.003-0.07,0.015-0.412,0.015
			c-2.5,0-15.1-0.586-15.227-0.592l-0.006,0.1l13.827,1.217l9.354,0.144v0.043L395.931,708.654z"/>
		<path class="st0" d="M365.79,708.654l23.316,0.402l0.004-0.1l-23.206-1.371l-2.374-0.629l-3.062-0.491v-0.021l-0.055,0.005
			c-0.005,0-0.024,0.002-0.032,0.003l-0.014-0.002v0.003c-0.571,0.053-7.23,0.671-7.536,0.813c-0.011,0.003-0.07,0.015-0.411,0.015
			c-2.5,0-15.101-0.586-15.228-0.592l-0.006,0.1l13.827,1.217l9.354,0.144v0.043L365.79,708.654z"/>
		<path class="st0" d="M335.648,708.654l23.317,0.402l0.004-0.1l-23.206-1.371l-2.375-0.629l-3.061-0.491v-0.021l-0.055,0.005
			c-0.005,0-0.024,0.002-0.032,0.003l-0.014-0.002v0.003c-0.571,0.053-7.23,0.671-7.536,0.813c-0.011,0.003-0.07,0.015-0.412,0.015
			c-2.5,0-15.1-0.586-15.227-0.592l-0.006,0.1l13.827,1.217l9.354,0.144v0.043L335.648,708.654z"/>
		<path class="st0" d="M305.508,708.654l23.316,0.402l0.004-0.1l-23.206-1.371l-2.374-0.629l-3.062-0.491v-0.021l-0.055,0.005
			c-0.005,0-0.024,0.002-0.032,0.003l-0.014-0.002v0.003c-0.57,0.053-7.23,0.671-7.536,0.813c-0.011,0.003-0.07,0.015-0.411,0.015
			c-2.5,0-15.101-0.586-15.228-0.592l-0.006,0.1l13.827,1.217l9.354,0.144v0.043L305.508,708.654z"/>
		<path class="st0" d="M275.366,708.654l23.316,0.402l0.004-0.1l-23.205-1.371l-2.375-0.629l-3.061-0.491v-0.021l-0.054,0.005
			c-0.005,0-0.025,0.002-0.033,0.003l-0.014-0.002v0.003c-0.574,0.054-7.23,0.671-7.536,0.813c-0.01,0.003-0.071,0.015-0.412,0.015
			c-2.5,0-15.1-0.586-15.227-0.592l-0.007,0.1l13.828,1.217l9.354,0.144v0.043L275.366,708.654z"/>
		<path class="st0" d="M245.225,708.654l23.317,0.402l0.004-0.1l-23.206-1.371l-2.375-0.629l-3.061-0.491v-0.021l-0.054,0.005
			c-0.004,0-0.025,0.002-0.033,0.003l-0.014-0.002v0.003c-0.574,0.054-7.23,0.671-7.536,0.813c-0.01,0.003-0.071,0.015-0.412,0.015
			c-2.5,0-15.1-0.586-15.227-0.592l-0.007,0.1l13.828,1.217l9.354,0.144v0.043L245.225,708.654z"/>
		<path class="st0" d="M215.084,708.654l23.316,0.402l0.004-0.1l-23.206-1.371l-2.375-0.629l-3.061-0.491v-0.021l-0.054,0.005
			c-0.005,0-0.025,0.002-0.033,0.003l-0.014-0.002v0.003c-0.574,0.054-7.23,0.671-7.536,0.813c-0.01,0.003-0.071,0.015-0.412,0.015
			c-2.5,0-15.1-0.586-15.227-0.592l-0.007,0.1l13.828,1.217l9.354,0.144v0.043L215.084,708.654z"/>
		<path class="st0" d="M184.942,708.654l23.317,0.402l0.004-0.1l-23.206-1.371l-2.375-0.629l-3.061-0.491v-0.021l-0.054,0.005
			c-0.004,0-0.025,0.002-0.033,0.003l-0.014-0.002v0.003c-0.574,0.054-7.23,0.671-7.536,0.813c-0.01,0.003-0.071,0.015-0.412,0.015
			c-2.5,0-15.1-0.586-15.227-0.592l-0.007,0.1l13.828,1.217l9.354,0.144v0.043L184.942,708.654z"/>
		<path class="st0" d="M154.801,708.654l23.317,0.402l0.004-0.1l-23.206-1.371l-2.374-0.629l-3.061-0.491v-0.021l-0.054,0.005
			c-0.005,0-0.025,0.002-0.033,0.003l-0.014-0.002v0.003c-0.574,0.054-7.23,0.671-7.537,0.813c-0.01,0.003-0.071,0.015-0.412,0.015
			c-2.5,0-15.1-0.586-15.227-0.592l-0.007,0.1l13.828,1.217l9.354,0.144v0.043L154.801,708.654z"/>
		<path class="st0" d="M124.66,708.654l23.317,0.402l0.004-0.1l-23.206-1.371l-2.374-0.629l-3.061-0.491v-0.021l-0.054,0.005
			c-0.005,0-0.025,0.002-0.033,0.003l-0.014-0.002v0.003c-0.576,0.054-7.23,0.671-7.536,0.813c-0.01,0.003-0.071,0.015-0.412,0.015
			c-2.5,0-15.1-0.586-15.227-0.592l-0.007,0.1l13.828,1.217l9.354,0.144v0.043L124.66,708.654z"/>
		<path class="st0" d="M94.519,708.654l23.317,0.402l0.004-0.1l-23.206-1.371l-2.375-0.629l-3.061-0.491v-0.021l-0.054,0.005
			c-0.004,0-0.025,0.002-0.033,0.003l-0.014-0.002v0.003c-0.574,0.054-7.23,0.671-7.536,0.813c-0.01,0.003-0.071,0.015-0.412,0.015
			c-2.5,0-15.1-0.586-15.227-0.592l-0.007,0.1l13.828,1.217l9.354,0.144v0.043L94.519,708.654z"/>
		<path class="st0" d="M64.378,708.654l23.317,0.402l0.004-0.1l-23.206-1.371l-2.375-0.629l-3.061-0.491v-0.021l-0.054,0.005
			c-0.005,0-0.025,0.002-0.033,0.003l-0.014-0.002v0.003c-0.574,0.054-7.23,0.671-7.536,0.813c-0.01,0.003-0.071,0.015-0.412,0.015
			c-2.5,0-15.1-0.586-15.227-0.592l-0.007,0.1l13.828,1.217l9.354,0.144v0.043L64.378,708.654z"/>
		<polygon class="st0" points="31.977,706.957 28.873,706.459 28.815,706.45 28.815,708.191 34.237,708.654 57.553,709.057 
			57.557,708.957 34.352,707.586 		"/>
		<path class="st0" d="M34.975,702.112l8.485-0.618l5.468,0.481l5.291-0.272l2.479,0.333c-3.053,0.138-17.65,0.795-19.45,0.795
			c-0.13,0-0.162-0.006-0.16-0.002c-0.021-0.011-0.059-0.022-0.188-0.022c-1.175,0-7.973,0.94-8.042,0.949l0.008,0.1l10.353-0.161
			l15.858-0.301l3.54,0.922l-3.975,0.003l-2.364,0.555l-23.412-0.549l-0.051-0.001v1.516l3.113,0.535l0.005,0.001l9.174-0.389
			l13.653-0.643l4.316,0.519v-0.003l2.993,0.515l0.005,0.001l9.174-0.389l13.654-0.643l4.315,0.519v-0.003l2.993,0.515l0.005,0.001
			l9.174-0.389l13.654-0.643l4.315,0.519v-0.003l2.993,0.515l0.005,0.001l9.174-0.389l13.654-0.643l4.316,0.519v-0.003l2.993,0.515
			l0.005,0.001l9.174-0.389l13.654-0.643l4.316,0.519v-0.003l2.993,0.515l0.005,0.001l9.174-0.389l13.654-0.643l4.316,0.519v-0.003
			l2.993,0.515l0.005,0.001l9.174-0.389l13.653-0.643l4.316,0.519v-0.003l2.993,0.515l0.005,0.001l9.174-0.389l13.654-0.643
			l4.315,0.519v-0.003l2.992,0.515l0.006,0.001l9.173-0.389l13.654-0.643l4.316,0.519v-0.003l2.992,0.515l0.006,0.001l9.173-0.389
			l13.654-0.643l4.315,0.519v-0.003l2.993,0.515l0.006,0.001l9.173-0.389l13.654-0.643l4.315,0.519v-0.003l2.992,0.515l0.006,0.001
			l9.173-0.389l13.654-0.643l4.315,0.519v-0.003l2.993,0.515l0.006,0.001l9.173-0.389l13.654-0.643l4.315,0.519v-0.003l2.992,0.515
			l0.006,0.001l9.173-0.389l13.654-0.643l4.316,0.519v-0.003l2.992,0.515l0.006,0.001l9.173-0.389l13.654-0.643l4.315,0.519v-0.003
			l2.992,0.515l0.006,0.001l9.173-0.389l13.654-0.643l4.316,0.519l-0.021-1.492l0.005-3.819l-24.008,0.358l-6.193-0.392l-0.05-0.003
			l-0.002,0.038l-23.896,0.356l-6.192-0.392l-0.05-0.003l-0.002,0.038l-23.896,0.356l-6.193-0.392l-0.05-0.003l-0.002,0.038
			l-23.896,0.356l-6.193-0.392l-0.05-0.003l-0.002,0.038l-23.896,0.356l-6.192-0.392l-0.05-0.003l-0.002,0.038l-23.896,0.356
			l-6.193-0.392l-0.05-0.003l-0.002,0.038l-23.896,0.356l-6.192-0.392l-0.05-0.003l-0.002,0.038l-23.896,0.356l-6.193-0.392
			l-0.05-0.003l-0.002,0.038l-23.896,0.356l-6.193-0.392l-0.05-0.003l-0.002,0.038l-23.896,0.356l-6.193-0.392l-0.05-0.003
			l-0.002,0.038l-23.896,0.356l-6.193-0.392l-0.05-0.003l-0.002,0.038l-23.896,0.356l-6.193-0.392l-0.05-0.003l-0.002,0.038
			l-23.896,0.356l-6.193-0.392l-0.05-0.003l-0.002,0.038l-23.896,0.356l-6.193-0.392l-0.05-0.003l-0.002,0.038l-23.896,0.356
			l-6.193-0.392l-0.05-0.003l-0.002,0.038l-23.896,0.356l-6.193-0.392l-0.05-0.003l-0.165,2.843l3.32-1.57L34.975,702.112z
			 M97.53,702.831c-0.131,0-0.163-0.006-0.16-0.002c-0.021-0.011-0.059-0.022-0.188-0.022c-1.126,0-7.406,0.862-7.983,0.941l0-0.519
			l3.049-1.442l3.008,0.325l8.485-0.618l5.468,0.481l5.291-0.272l2.479,0.333C113.927,702.174,99.33,702.831,97.53,702.831z
			 M99.501,703.694l15.858-0.301l3.54,0.922l-3.975,0.003l-2.364,0.555l-23.362-0.548l0-0.471L99.501,703.694z M127.671,702.831
			c-0.131,0-0.163-0.006-0.16-0.002c-0.021-0.011-0.059-0.022-0.188-0.022c-1.125,0-7.403,0.862-7.983,0.941l0-0.519l3.049-1.442
			l3.008,0.325l8.485-0.618l5.468,0.481l5.291-0.272l2.479,0.333C144.068,702.174,129.471,702.831,127.671,702.831z
			 M129.643,703.694l15.858-0.301l3.54,0.922l-3.975,0.003l-2.364,0.555l-23.362-0.548l0-0.471L129.643,703.694z M157.813,702.831
			c-0.131,0-0.164-0.006-0.161-0.002c-0.021-0.011-0.059-0.022-0.188-0.022c-1.126,0-7.407,0.862-7.983,0.941l0.001-0.519
			l3.049-1.442l3.008,0.325l8.485-0.618l5.468,0.481l5.291-0.272l2.479,0.333C174.21,702.174,159.612,702.831,157.813,702.831z
			 M159.784,703.694l15.858-0.301l3.54,0.922l-3.975,0.003l-2.364,0.555l-23.362-0.548l0-0.471L159.784,703.694z M187.954,702.831
			c-0.131,0-0.162-0.006-0.161-0.002c-0.021-0.011-0.059-0.022-0.188-0.022c-1.126,0-7.407,0.862-7.983,0.941l0-0.519l3.049-1.442
			l3.008,0.325l8.485-0.618l5.468,0.481l5.291-0.272l2.479,0.333C204.351,702.174,189.753,702.831,187.954,702.831z
			 M189.925,703.694l15.858-0.301l3.54,0.922l-3.975,0.003l-2.364,0.555l-23.362-0.548l0-0.471L189.925,703.694z M218.095,702.831
			c-0.131,0-0.162-0.006-0.161-0.002c-0.021-0.011-0.059-0.022-0.188-0.022c-1.126,0-7.406,0.862-7.982,0.941l0-0.519l3.049-1.442
			l3.008,0.325l8.485-0.618l5.468,0.481l5.291-0.272l2.479,0.333C234.492,702.174,219.895,702.831,218.095,702.831z
			 M220.066,703.694l15.858-0.301l3.54,0.922l-3.975,0.003l-2.364,0.555l-23.362-0.548l0-0.471L220.066,703.694z M248.236,702.831
			c-0.13,0-0.163-0.006-0.16-0.002c-0.021-0.011-0.059-0.022-0.188-0.022c-1.126,0-7.406,0.862-7.983,0.941l0-0.519l3.049-1.442
			l3.008,0.325l8.485-0.618l5.468,0.481l5.291-0.272l2.479,0.333C264.633,702.174,250.036,702.831,248.236,702.831z
			 M250.208,703.694l15.858-0.301l3.54,0.922l-3.975,0.003l-2.364,0.555l-23.362-0.548l0-0.471L250.208,703.694z M278.377,702.831
			c-0.131,0-0.166-0.006-0.16-0.002c-0.021-0.011-0.06-0.022-0.188-0.022c-1.127,0-7.406,0.862-7.983,0.941l0-0.519l3.049-1.442
			l3.009,0.325l8.485-0.618l5.468,0.481l5.29-0.272l2.479,0.333C294.774,702.174,280.177,702.831,278.377,702.831z M280.349,703.694
			l15.858-0.301l3.539,0.922l-3.975,0.003l-2.363,0.555l-23.363-0.548l0-0.471L280.349,703.694z M308.519,702.831
			c-0.131,0-0.164-0.006-0.16-0.002c-0.021-0.011-0.06-0.022-0.188-0.022c-1.126,0-7.406,0.862-7.983,0.941l0.001-0.519l3.049-1.442
			l3.009,0.325l8.485-0.618l5.468,0.481l5.29-0.272l2.479,0.333C324.916,702.174,310.318,702.831,308.519,702.831z M310.49,703.694
			l15.858-0.301l3.54,0.922l-3.977,0.003l-2.362,0.555l-23.363-0.548l0.001-0.471L310.49,703.694z M338.66,702.831
			c-0.132,0-0.165-0.006-0.16-0.002c-0.021-0.011-0.06-0.022-0.188-0.022c-1.127,0-7.408,0.862-7.983,0.941v-0.519l3.05-1.442
			l3.008,0.325l8.485-0.618l5.469,0.481l5.29-0.272l2.479,0.333C355.057,702.174,340.459,702.831,338.66,702.831z M340.631,703.694
			l15.858-0.301l3.54,0.922l-3.976,0.003l-2.363,0.555l-23.362-0.548l0.001-0.471L340.631,703.694z M368.801,702.831
			c-0.132,0-0.165-0.006-0.16-0.002c-0.021-0.011-0.06-0.022-0.188-0.022c-1.126,0-7.406,0.862-7.983,0.941l0.001-0.519l3.049-1.442
			l3.009,0.325l8.485-0.618l5.468,0.481l5.29-0.272l2.479,0.333C385.198,702.174,370.601,702.831,368.801,702.831z M370.772,703.694
			l15.858-0.301l3.539,0.922l-3.975,0.003l-2.363,0.555l-23.363-0.548l0.001-0.471L370.772,703.694z M398.942,702.831
			c-0.131,0-0.166-0.006-0.16-0.002c-0.021-0.011-0.06-0.022-0.188-0.022c-1.127,0-7.408,0.862-7.983,0.941v-0.519l3.05-1.442
			l3.009,0.325l8.484-0.618l5.469,0.481l5.29-0.272l2.479,0.333C415.339,702.174,400.741,702.831,398.942,702.831z M400.913,703.694
			l15.858-0.301l3.54,0.922l-3.976,0.003l-2.363,0.555l-23.362-0.548l0.001-0.471L400.913,703.694z M429.083,702.831
			c-0.131,0-0.166-0.006-0.16-0.002c-0.021-0.011-0.06-0.022-0.188-0.022c-1.127,0-7.407,0.862-7.982,0.941v-0.519l3.049-1.442
			l3.009,0.325l8.485-0.618l5.468,0.481l5.29-0.272l2.479,0.333C445.48,702.174,430.883,702.831,429.083,702.831z M431.055,703.694
			l15.858-0.301l3.54,0.922l-3.976,0.003l-2.363,0.555l-23.362-0.548l0.001-0.471L431.055,703.694z M459.225,702.831
			c-0.131,0-0.164-0.006-0.16-0.002c-0.021-0.011-0.06-0.022-0.188-0.022c-1.126,0-7.406,0.862-7.983,0.941l0.001-0.519l3.049-1.442
			l3.009,0.325l8.484-0.618l5.469,0.481l5.29-0.272l2.479,0.333C475.622,702.174,461.024,702.831,459.225,702.831z M461.196,703.694
			l15.857-0.301l3.54,0.922l-3.976,0.003l-2.362,0.555l-23.363-0.548l0.001-0.471L461.196,703.694z M501.047,701.976l5.29-0.272
			l2.479,0.333c-3.053,0.138-17.65,0.795-19.45,0.795c-0.131,0-0.164-0.006-0.16-0.002c-0.021-0.011-0.06-0.022-0.188-0.022
			c-1.127,0-7.407,0.862-7.982,0.941v-0.519l3.049-1.442l3.009,0.325l8.485-0.618L501.047,701.976z M67.389,702.831
			c-0.13,0-0.162-0.006-0.16-0.002c-0.021-0.011-0.059-0.022-0.188-0.022c-1.126,0-7.406,0.862-7.983,0.941l0-0.519l3.049-1.442
			l3.008,0.325l8.485-0.618l5.468,0.481l5.291-0.272l2.479,0.333C83.786,702.174,69.188,702.831,67.389,702.831z M69.36,703.694
			l15.858-0.301l3.54,0.922l-3.975,0.003l-2.364,0.555l-23.362-0.548l0-0.471L69.36,703.694z M506.76,704.318l-2.363,0.555
			l-23.362-0.548l0.001-0.471l10.302-0.16l15.858-0.301l3.539,0.922L506.76,704.318z"/>
	</g>
</g>
<g id="Layer_3">
	<g>
		<path class="st0" d="M27.804-0.146L27.806-0.2l-8.691,0.44L-0.807,0.057l0.531,12.057L-0.62,27.146l-0.001,0.053l18.268-0.552
			l10.105,0.55l0.056,0.003l-0.483-8.941L27.804-0.146z M1.014,24.268v-2.844l2.5,0.087L1.014,24.268z M1.837,8.456V6.889
			l2.958,2.703L1.837,8.456z M1.837,3.979v-1.47L3.552,3.72L1.837,3.979z M15.104,24.989l-2.966-3.709l-1.734,3.531l0.145-3.473
			l0.005-0.11l-4.651,3.726l1.169-3.438l-0.083-0.052l-3.62,3.608l3.182-6.142L1.897,19.41l3.124-4.085l0.042-0.055L2.01,14.238
			l5.801-0.725l2.773,1.359L6.58,15.374l-0.003,0.099l2.211,0.417l-5.004,2.505l0.03,0.094l5.851-0.917l-4.062,4.133l0.063,0.077
			l4.205-2.692l-0.793,2.328l3.259-2.229l2.702,4.683l0.093-0.033l-0.536-3.435l3.454,1.445l0.049-0.086l-2.549-1.874l9.871,3.236
			l-6.113-0.979l-0.033,0.092l4.135,2.461l-7.486-2.459l-0.042,0.09l4.141,2.553l-2.046,0.022l-2.27-1.561l0.637,1.583
			L15.104,24.989z M14.951,12.47l-0.383,0.729l-1.852-5.205L12.62,8.021l0.992,4.808l-3.599-4.594L9.931,8.29l2.351,3.98L7.29,8.295
			L7.221,8.368l3.638,4.056L9.58,11.87l1.175,1.81L2.243,9.571l6.63,1.645l0.045-0.085L3.415,6.232l5.76,2.494l0.057-0.08
			L3.588,2.389l1.998-0.081l2.517,4.398l4.019,1.911L9.32,2.323l1.466,1.4l3.676,5.916l0.092-0.033L13.566,2.28l1.104,2.5
			l1.21,4.394L14.951,12.47z M1.997,10.931l0.274,0.259l0.218,0.181l0.238,0.185l0.505,0.365l0.496,0.335l0.428,0.276l0.286,0.177
			l-2.603,0.237V10.74L1.997,10.931z M23.189,12.59l2.627-3.58l0.017,1.458L23.189,12.59z M20.13,14.721l-3.287,1.703l3.947-4.292
			l-0.068-0.072l-3.979,3.301l3.782-6.006l-0.081-0.059l-4.354,5.112l4.015-7.878l3.946-4.498L21.96,7.531l-3.201,5.53l0.082,0.057
			l6.921-8.515l0.019,1.61L20.13,14.721z M19.726,18.758L16.27,17.29l4.857-1.209l4.009-1.627l-6.045,3.301l0.025,0.094l2.577-0.054
			l2.25-0.08l1.083-0.058l0.543-0.041l-5.646,1.878l-0.133,0.044l5.722,2.18l-8.931-2.266L19.726,18.758z M23.115,16.864
			l2.778-1.296l0.007,0.594L23.115,16.864z M23.417,19.718l2.52-0.429l0.009,0.755L23.417,19.718z M19.768,2.731l0.011-0.333
			l0-0.293l-0.011-0.244l-0.015-0.13l2.714-0.111l-3,4.41l0.19-1.773l0.065-0.784L19.768,2.731z M15.672,1.897l2.284-0.092
			l-0.694,6.539L15.672,1.897z"/>
		<path class="st0" d="M512.8,27.808l8.942-0.484l18.404,0.481l0.054,0.001l-0.44-8.691l0.183-19.869l0.001-0.053l-12.058,0.531
			L512.854-0.62l-0.053-0.001l0.552,18.268l-0.55,10.106L512.8,27.808z M515.732,1.014h2.844l-0.087,2.501L515.732,1.014z
			 M530.989,25.816l-1.457,0.018l-2.123-2.645L530.989,25.816z M524.432,25.894l-0.594,0.007l-0.702-2.786L524.432,25.894z
			 M536.021,1.837h1.471l-1.211,1.715L536.021,1.837z M528.784,8.874l0.086,0.045l4.897-5.504l-2.493,5.76l0.079,0.057l6.257-5.644
			l0.082,1.999l-4.397,2.517L531.441,12l-0.059,0.122l6.295-2.803l-1.4,1.466l-5.916,3.677l0.033,0.092l7.325-0.988l-2.501,1.104
			l-4.393,1.21l-3.296-0.929l-0.729-0.383l5.205-1.852l-0.026-0.096l-4.809,0.992l4.595-3.599l-0.057-0.083l-3.979,2.351
			l3.974-4.992l-0.072-0.068l-4.055,3.638l0.553-1.279l-1.81,1.175l4.108-8.512L528.784,8.874z M522.385,25.569l-1.877-5.646
			l-0.045-0.133l-2.18,5.725l2.266-8.934l0.659,2.992l0.033,0.153l1.469-3.457l1.211,4.856l1.627,4.01l-3.302-6.046l-0.094,0.025
			l0.055,2.577l0.08,2.25l0.058,1.083L522.385,25.569z M527.867,20.79l0.072-0.068l-3.301-3.979l6.007,3.782l0.059-0.081
			l-5.111-4.354l7.877,4.015l4.499,3.946l-5.499-2.091l-5.53-3.201l-0.057,0.082l8.515,6.921l-1.611,0.02l-8.508-5.652l-1.702-3.286
			L527.867,20.79z M525.127,10.584l-0.501-4.004l-0.099-0.003l-0.417,2.211l-2.505-5.004l-0.095,0.03l0.917,5.851l-4.133-4.062
			l-0.077,0.063l2.692,4.205l-2.328-0.793l2.229,3.259l-4.685,2.702l0.033,0.093l3.435-0.537l-1.445,3.454l0.086,0.049l1.875-2.549
			l-3.237,9.871l0.979-6.113l-0.093-0.033l-2.461,4.135l2.459-7.487l-0.091-0.042l-2.553,4.142l-0.022-2.046l1.561-2.27
			l-1.583,0.637l-0.059-1.238l3.648-2.917l0.062-0.049l-3.531-1.734l3.473,0.145l0.109,0.005l-3.725-4.651l3.438,1.169l0.051-0.083
			l-3.608-3.621l6.06,3.14l0.083,0.042l-0.479-4.654l4.14,3.167l1.031-3.053l0.725,5.801L525.127,10.584z M531.657,17.262
			l6.445-1.589l0.092,2.284L531.657,17.262z M535.743,19.658l0.783,0.065l0.742,0.045l0.333,0.01l0.293,0l0.246-0.011l0.129-0.016
			l0.11,2.714l-4.41-2.999L535.743,19.658z M530.408,4.795l1.136-2.958h1.566L530.408,4.795z M520.711,25.938l-0.755,0.009
			l0.326-2.529L520.711,25.938z M527.055,1.837h2.206l-0.111,0.086l-0.08,0.074l-0.258,0.274l-0.182,0.217l-0.185,0.238
			l-0.365,0.505l-0.335,0.496l-0.276,0.428l-0.177,0.286L527.055,1.837z"/>
		<path class="st0" d="M540.276,707.886l0.344-15.032l0.001-0.053l-18.267,0.552l-10.106-0.55l-0.056-0.003l0.484,8.942
			l-0.481,18.404l-0.002,0.054l8.692-0.44l19.869,0.183l0.053,0.001L540.276,707.886z M538.986,695.732v2.844l-2.501-0.087
			L538.986,695.732z M538.163,716.021v1.471l-1.716-1.211L538.163,716.021z M520.342,715.743l-0.065,0.783l-0.045,0.742l-0.01,0.333
			l-0.001,0.293l0.011,0.246l0.011,0.101l0.005,0.028l-2.714,0.11l2.998-4.41L520.342,715.743z M516.811,707.409l-2.627,3.58
			l-0.018-1.457L516.811,707.409z M520.427,701.208l-0.153,0.033l3.457,1.469l-4.856,1.211l-4.01,1.627l6.046-3.302l-0.025-0.094
			l-2.577,0.055l-2.251,0.08l-1.082,0.058l-0.543,0.04l5.645-1.877l0.133-0.045l-5.725-2.18l8.935,2.266L520.427,701.208z
			 M516.885,703.136l-2.779,1.296l-0.006-0.594L516.885,703.136z M515.948,717.969l2.091-5.499l3.201-5.53l-0.082-0.057
			l-6.921,8.515l-0.02-1.611l5.651-8.508l3.287-1.702l-3.947,4.291l0.069,0.072l3.979-3.301l-3.781,6.007l0.08,0.059l4.354-5.111
			l-4.016,7.877L515.948,717.969z M516.582,700.282l-2.52,0.429l-0.009-0.755L516.582,700.282z M537.99,705.762l-5.802,0.725
			l-2.773-1.359l4.004-0.501l0.003-0.099l-2.21-0.417l5.004-2.505l-0.03-0.095l-5.851,0.917l4.063-4.133l-0.063-0.077l-4.204,2.692
			l0.743-2.187l0.049-0.142l-3.258,2.229l-2.703-4.685l-0.093,0.033l0.537,3.435l-3.454-1.445l-0.049,0.086l2.55,1.875l-9.872-3.237
			l6.113,0.979l0.033-0.093l-4.136-2.461l7.487,2.459l0.042-0.091l-4.142-2.553l2.045-0.022l2.271,1.561l-0.638-1.583l1.238-0.059
			l2.918,3.648l0.049,0.062l1.735-3.531l-0.146,3.473l-0.005,0.109l4.651-3.725l-1.169,3.438l0.082,0.051l3.62-3.608l-3.182,6.143
			l4.653-0.479l-3.124,4.084l-0.042,0.056L537.99,705.762z M525.048,707.53l0.385-0.729l1.852,5.205l0.096-0.026l-0.992-4.809
			l3.599,4.595l0.082-0.057l-2.351-3.979l4.992,3.974l0.068-0.072l-3.638-4.055l1.279,0.553l-1.175-1.81l8.512,4.108l-6.631-1.645
			l-0.045,0.086l5.504,4.897l-5.761-2.493l-0.057,0.079l5.644,6.257l-1.998,0.082l-2.518-4.397l-3.896-1.854l-0.122-0.059
			l2.804,6.295l-1.467-1.4l-3.677-5.916l-0.092,0.033l0.988,7.325l-1.104-2.501l-1.209-4.393L525.048,707.53z M538.163,711.544
			v1.566l-2.958-2.702L538.163,711.544z M538.077,709.149l-0.156-0.164l-0.191-0.175l-0.218-0.181l-0.237-0.185l-0.505-0.365
			l-0.496-0.336l-0.428-0.275l-0.286-0.177l2.604-0.237v2.206L538.077,709.149z M524.327,718.103l-2.283,0.092l0.694-6.537
			L524.327,718.103z"/>
		<path class="st0" d="M27.2,692.192l-8.941,0.484l-18.405-0.481l-0.054-0.002l0.44,8.692l-0.183,19.922l12.057-0.531l15.033,0.344
			l0.053,0.001l-0.552-18.267l0.55-10.106L27.2,692.192z M24.268,718.986h-2.844l0.087-2.501L24.268,718.986z M9.01,694.184
			l1.458-0.018l2.123,2.646L9.01,694.184z M15.568,694.105l0.594-0.006l0.702,2.784L15.568,694.105z M3.979,718.163h-1.47
			l1.211-1.715L3.979,718.163z M11.216,711.126l-0.085-0.045l-4.898,5.504l2.494-5.76l-0.08-0.057l-6.257,5.644l-0.081-1.999
			l4.398-2.518l1.853-3.896l0.059-0.122l-6.295,2.804l1.4-1.467l5.916-3.677l-0.033-0.092l-7.325,0.988l2.5-1.104l4.394-1.209
			l3.296,0.929l0.729,0.384l-5.205,1.852l0.027,0.096l4.808-0.992l-4.594,3.599l0.056,0.082l3.98-2.351l-3.975,4.992l0.072,0.068
			l4.056-3.638l-0.554,1.279l1.81-1.175l-4.108,8.512L11.216,711.126z M17.615,694.432l1.878,5.645l0.044,0.133l2.18-5.721
			l-2.266,8.931l-0.693-3.146l-1.468,3.457l-1.209-4.856l-1.627-4.009l3.301,6.045l0.094-0.025l-0.054-2.577l-0.081-2.251
			l-0.057-1.082L17.615,694.432z M12.132,699.21l-0.072,0.069l3.301,3.978l-6.006-3.781l-0.059,0.08l5.112,4.354l-7.878-4.016
			l-4.498-3.946l5.499,2.091l5.53,3.201l0.057-0.082l-8.515-6.921l1.61-0.02l8.508,5.651l1.703,3.287L12.132,699.21z
			 M14.873,709.416l0.501,4.003l0.099,0.003l0.417-2.21l2.505,5.004l0.094-0.03l-0.917-5.851l4.133,4.063l0.077-0.063l-2.692-4.204
			l2.186,0.744l0.142,0.049l-2.229-3.259l4.683-2.702l-0.033-0.093l-3.435,0.536l1.445-3.453l-0.086-0.049l-1.874,2.549l3.236-9.872
			l-0.979,6.113l0.092,0.033l2.461-4.136l-2.459,7.487l0.09,0.042l2.553-4.142l0.022,2.046l-1.561,2.27l1.583-0.638l0.058,1.239
			l-3.647,2.917l-0.062,0.049l3.531,1.735l-3.473-0.146l-0.11-0.005l3.726,4.651l-3.438-1.169l-0.052,0.082l3.609,3.62l-6.061-3.139
			l-0.082-0.043l0.479,4.653l-4.085-3.124l-0.055-0.042l-1.031,3.054l-0.725-5.802L14.873,709.416z M8.344,702.738l-6.447,1.589
			l-0.092-2.283L8.344,702.738z M4.257,700.342l-0.784-0.065l-0.743-0.045l-0.333-0.011H2.106l-0.246,0.011l-0.103,0.011
			l-0.027,0.005l-0.111-2.714l4.41,2.998L4.257,700.342z M9.592,715.205l-1.136,2.958H6.889L9.592,715.205z M19.289,694.063
			l0.755-0.009l-0.326,2.528L19.289,694.063z M12.945,718.163H10.74l0.191-0.16l0.259-0.273l0.181-0.218l0.185-0.237l0.365-0.505
			l0.335-0.496l0.276-0.428l0.177-0.286L12.945,718.163z"/>
	</g>
</g>
</svg>
