<?xml version="1.0" encoding="utf-8"?>
<!-- Generator: Adobe Illustrator 14.0.0, SVG Export Plug-In . SVG Version: 6.00 Build 43363)  -->
<!DOCTYPE svg PUBLIC "-//W3C//DTD SVG 1.1//EN" "http://www.w3.org/Graphics/SVG/1.1/DTD/svg11.dtd">
<svg version="1.1" id="Layer_1" xmlns="http://www.w3.org/2000/svg" xmlns:xlink="http://www.w3.org/1999/xlink" x="0px" y="0px"
	 width="575.7px" height="755.328px" viewBox="0 0 575.7 755.328" style="enable-background:new 0 0 575.7 755.328;"
	 xml:space="preserve">
<style type="text/css">
<![CDATA[
	.st0{fill:none;stroke:#010101;stroke-width:2;stroke-linecap:round;stroke-linejoin:round;stroke-miterlimit:10;}
	.st1{fill:none;stroke:#010101;stroke-linecap:round;stroke-linejoin:round;stroke-miterlimit:10;}
]]>
</style>
<rect x="12.323" y="12.264" class="st0" width="550.8" height="730.8"/>
<polyline class="st1" points="6.073,13.164 6.073,6.014 13.223,6.014 "/>
<path class="st1" d="M7.29,19.454c1.359-0.52,1.298-2.361,0.023-2.806c-1.395-0.486-3.379-0.187-3.641,1.498
	c-0.36,2.316,1.587,3.886,3.725,4.053c1.964,0.153,3.335-1.143,3.795-2.949c1.467-5.755-7.465-8.284-10.121-3.502
	c-0.8,1.441-0.731,3.971,0.029,5.433c0.466,0.897,1.12,1.675,1.876,2.342c0.728,0.641,1.555,1.179,2.303,1.768
	c-1.001,1.202-2.526,1.522-1.531,3.427c1.009,1.93,3.444,1.3,4.853,2.504c3.082,2.633-0.047,7.575-3.415,6.321
	c-1.511-0.563-2.697-2.35-1.74-3.899c0.386-0.625,1.22-1.159,1.974-0.991c1.768,0.395,1.689,3.004,0.042,2.482"/>
<path class="st1" d="M8.775,31.246c2.777,2.134,3.503,5.297,1.242,7.59c-1.852,1.877-4.866,1.071-4.866,1.071
	s0.602,2.355,1.113,2.941c1.86,2.133,4.558-1.118,4.558-1.118s1.214,2.56-2.892,4.701l0.007,0.001
	c1.229,1.319,2.085,3.631,2.228,4.316c0.34,1.617,0.819,4.48-1.367,5.344c-2.404,0.949-5.352-1.8-3.803-3.955
	c0.432-0.601,1.232-0.876,1.959-0.769c1.041,0.154,1.694,1.105,1.454,2.129c-0.366,1.558-1.782,1.156-1.929-0.233"/>
<path class="st1" d="M19.603,7.286c-0.515,1.361-2.356,1.307-2.806,0.033c-0.491-1.393-0.199-3.378,1.484-3.646
	c2.316-0.369,3.893,1.573,4.067,3.71c0.16,1.964-1.131,3.34-2.935,3.806c-5.75,1.488-8.311-7.435-3.538-10.109
	c1.437-0.805,3.968-0.745,5.433,0.009c0.898,0.463,1.678,1.114,2.348,1.868c0.644,0.726,1.185,1.551,1.777,2.297
	c1.198-1.005,1.512-2.532,3.421-1.544c1.934,1.003,1.313,3.44,2.522,4.844c2.644,3.073,7.575-0.074,6.308-3.438
	c-0.568-1.508-2.359-2.688-3.906-1.726c-0.623,0.388-1.154,1.225-0.983,1.978c0.401,1.766,3.01,1.678,2.482,0.033"/>
<path class="st1" d="M31.4,8.729c2.144,2.769,5.31,3.484,7.594,1.214c1.871-1.858,1.054-4.869,1.054-4.869s2.357,0.593,2.945,1.102
	c2.139,1.852-1.102,4.562-1.102,4.562s2.565,1.205,4.691-2.909l0.001,0.007c1.323,1.224,3.638,2.071,4.324,2.213
	c1.618,0.333,4.483,0.802,5.339-1.388c0.941-2.406-1.819-5.345-3.969-3.788c-0.599,0.434-0.872,1.236-0.762,1.962
	c0.158,1.041,1.111,1.69,2.135,1.446c1.556-0.371,1.149-1.786-0.241-1.928"/>
<polyline class="st1" points="569.626,13.164 569.626,6.014 562.476,6.014 "/>
<path class="st1" d="M568.409,19.454c-1.358-0.52-1.298-2.361-0.022-2.806c1.395-0.486,3.379-0.187,3.641,1.498
	c0.36,2.316-1.587,3.886-3.725,4.053c-1.964,0.153-3.335-1.143-3.795-2.949c-1.467-5.755,7.465-8.284,10.121-3.502
	c0.8,1.441,0.73,3.971-0.029,5.433c-0.466,0.897-1.12,1.675-1.876,2.342c-0.729,0.641-1.555,1.179-2.303,1.768
	c1.001,1.202,2.525,1.522,1.53,3.427c-1.009,1.93-3.443,1.3-4.853,2.504c-3.082,2.633,0.047,7.575,3.415,6.321
	c1.511-0.563,2.697-2.35,1.74-3.899c-0.387-0.625-1.221-1.159-1.975-0.991c-1.768,0.395-1.688,3.004-0.042,2.482"/>
<path class="st1" d="M566.924,31.246c-2.777,2.134-3.503,5.297-1.242,7.59c1.853,1.877,4.866,1.071,4.866,1.071
	s-0.603,2.355-1.113,2.941c-1.859,2.133-4.558-1.118-4.558-1.118s-1.214,2.56,2.892,4.701l-0.007,0.001
	c-1.229,1.319-2.085,3.631-2.228,4.316c-0.341,1.617-0.819,4.48,1.366,5.344c2.404,0.949,5.353-1.8,3.804-3.955
	c-0.433-0.601-1.232-0.876-1.959-0.769c-1.041,0.154-1.694,1.105-1.454,2.129c0.366,1.558,1.782,1.156,1.929-0.233"/>
<path class="st1" d="M556.096,7.286c0.515,1.361,2.355,1.307,2.806,0.033c0.491-1.393,0.199-3.378-1.483-3.646
	c-2.316-0.369-3.894,1.573-4.067,3.71c-0.16,1.964,1.131,3.34,2.935,3.806c5.75,1.488,8.312-7.435,3.538-10.109
	c-1.437-0.805-3.968-0.745-5.433,0.009c-0.898,0.463-1.678,1.114-2.348,1.868c-0.645,0.726-1.186,1.551-1.777,2.297
	c-1.198-1.005-1.512-2.532-3.421-1.544c-1.935,1.003-1.313,3.44-2.522,4.844c-2.644,3.073-7.574-0.074-6.308-3.438
	c0.568-1.508,2.359-2.688,3.906-1.726c0.623,0.388,1.153,1.225,0.982,1.978c-0.4,1.766-3.01,1.678-2.481,0.033"/>
<path class="st1" d="M544.299,8.729c-2.145,2.769-5.311,3.484-7.595,1.214c-1.87-1.858-1.054-4.869-1.054-4.869
	s-2.356,0.593-2.945,1.102c-2.139,1.852,1.103,4.562,1.103,4.562s-2.565,1.205-4.691-2.909l-0.001,0.007
	c-1.322,1.224-3.638,2.071-4.323,2.213c-1.618,0.333-4.483,0.802-5.34-1.388c-0.94-2.406,1.819-5.345,3.97-3.788
	c0.599,0.434,0.872,1.236,0.762,1.962c-0.158,1.041-1.111,1.69-2.135,1.446c-1.557-0.371-1.149-1.786,0.24-1.928"/>
<line class="st1" x1="58.057" y1="6.664" x2="517.389" y2="6.664"/>
<polyline class="st1" points="6.073,742.164 6.073,749.313 13.223,749.313 "/>
<path class="st1" d="M7.29,735.874c1.359,0.52,1.298,2.361,0.023,2.806c-1.395,0.486-3.379,0.188-3.641-1.498
	c-0.36-2.316,1.587-3.886,3.725-4.053c1.964-0.153,3.335,1.143,3.795,2.949c1.467,5.755-7.465,8.284-10.121,3.502
	c-0.8-1.441-0.731-3.971,0.029-5.434c0.466-0.896,1.12-1.675,1.876-2.342c0.728-0.641,1.555-1.179,2.303-1.768
	c-1.001-1.202-2.526-1.522-1.531-3.427c1.009-1.931,3.444-1.301,4.853-2.504c3.082-2.634-0.047-7.575-3.415-6.321
	c-1.511,0.563-2.697,2.35-1.74,3.899c0.386,0.624,1.22,1.158,1.974,0.99c1.768-0.395,1.689-3.004,0.042-2.481"/>
<path class="st1" d="M8.775,724.082c2.777-2.134,3.503-5.297,1.242-7.59c-1.852-1.877-4.866-1.071-4.866-1.071
	s0.602-2.354,1.113-2.94c1.86-2.134,4.558,1.117,4.558,1.117s1.214-2.56-2.892-4.7l0.007-0.001c1.229-1.319,2.085-3.632,2.228-4.316
	c0.34-1.617,0.819-4.48-1.367-5.344c-2.404-0.949-5.352,1.8-3.803,3.955c0.432,0.601,1.232,0.876,1.959,0.769
	c1.041-0.154,1.694-1.104,1.454-2.129c-0.366-1.558-1.782-1.156-1.929,0.233"/>
<path class="st1" d="M19.603,748.042c-0.515-1.361-2.356-1.308-2.806-0.033c-0.491,1.394-0.199,3.378,1.484,3.646
	c2.316,0.368,3.893-1.573,4.067-3.71c0.16-1.965-1.131-3.34-2.935-3.807c-5.75-1.488-8.311,7.436-3.538,10.109
	c1.437,0.805,3.968,0.745,5.433-0.009c0.898-0.464,1.678-1.114,2.348-1.868c0.644-0.727,1.185-1.551,1.777-2.297
	c1.198,1.005,1.512,2.531,3.421,1.544c1.934-1.003,1.313-3.44,2.522-4.845c2.644-3.072,7.575,0.074,6.308,3.438
	c-0.568,1.508-2.359,2.688-3.906,1.726c-0.623-0.388-1.154-1.225-0.983-1.978c0.401-1.766,3.01-1.678,2.482-0.033"/>
<path class="st1" d="M31.4,746.6c2.144-2.769,5.31-3.483,7.594-1.214c1.871,1.858,1.054,4.869,1.054,4.869s2.357-0.593,2.945-1.102
	c2.139-1.853-1.102-4.563-1.102-4.563s2.565-1.205,4.691,2.909l0.001-0.007c1.323-1.225,3.638-2.071,4.324-2.213
	c1.618-0.333,4.483-0.803,5.339,1.388c0.941,2.406-1.819,5.345-3.969,3.788c-0.599-0.435-0.872-1.236-0.762-1.962
	c0.158-1.041,1.111-1.69,2.135-1.446c1.556,0.371,1.149,1.786-0.241,1.928"/>
<polyline class="st1" points="569.626,742.164 569.626,749.313 562.476,749.313 "/>
<path class="st1" d="M568.409,735.874c-1.358,0.52-1.298,2.361-0.022,2.806c1.395,0.486,3.379,0.188,3.641-1.498
	c0.36-2.316-1.587-3.886-3.725-4.053c-1.964-0.153-3.335,1.143-3.795,2.949c-1.467,5.755,7.465,8.284,10.121,3.502
	c0.8-1.441,0.73-3.971-0.029-5.434c-0.466-0.896-1.12-1.675-1.876-2.342c-0.729-0.641-1.555-1.179-2.303-1.768
	c1.001-1.202,2.525-1.522,1.53-3.427c-1.009-1.931-3.443-1.301-4.853-2.504c-3.082-2.634,0.047-7.575,3.415-6.321
	c1.511,0.563,2.697,2.35,1.74,3.899c-0.387,0.624-1.221,1.158-1.975,0.99c-1.768-0.395-1.688-3.004-0.042-2.481"/>
<path class="st1" d="M566.924,724.082c-2.777-2.134-3.503-5.297-1.242-7.59c1.853-1.877,4.866-1.071,4.866-1.071
	s-0.603-2.354-1.113-2.94c-1.859-2.134-4.558,1.117-4.558,1.117s-1.214-2.56,2.892-4.7l-0.007-0.001
	c-1.229-1.319-2.085-3.632-2.228-4.316c-0.341-1.617-0.819-4.48,1.366-5.344c2.404-0.949,5.353,1.8,3.804,3.955
	c-0.433,0.601-1.232,0.876-1.959,0.769c-1.041-0.154-1.694-1.104-1.454-2.129c0.366-1.558,1.782-1.156,1.929,0.233"/>
<path class="st1" d="M556.096,748.042c0.515-1.361,2.355-1.308,2.806-0.033c0.491,1.394,0.199,3.378-1.483,3.646
	c-2.316,0.368-3.894-1.573-4.067-3.71c-0.16-1.965,1.131-3.34,2.935-3.807c5.75-1.488,8.312,7.436,3.538,10.109
	c-1.437,0.805-3.968,0.745-5.433-0.009c-0.898-0.464-1.678-1.114-2.348-1.868c-0.645-0.727-1.186-1.551-1.777-2.297
	c-1.198,1.005-1.512,2.531-3.421,1.544c-1.935-1.003-1.313-3.44-2.522-4.845c-2.644-3.072-7.574,0.074-6.308,3.438
	c0.568,1.508,2.359,2.688,3.906,1.726c0.623-0.388,1.153-1.225,0.982-1.978c-0.4-1.766-3.01-1.678-2.481-0.033"/>
<path class="st1" d="M544.299,746.6c-2.145-2.769-5.311-3.483-7.595-1.214c-1.87,1.858-1.054,4.869-1.054,4.869
	s-2.356-0.593-2.945-1.102c-2.139-1.853,1.103-4.563,1.103-4.563s-2.565-1.205-4.691,2.909l-0.001-0.007
	c-1.322-1.225-3.638-2.071-4.323-2.213c-1.618-0.333-4.483-0.803-5.34,1.388c-0.94,2.406,1.819,5.345,3.97,3.788
	c0.599-0.435,0.872-1.236,0.762-1.962c-0.158-1.041-1.111-1.69-2.135-1.446c-1.557,0.371-1.149,1.786,0.24,1.928"/>
<line class="st1" x1="58.057" y1="748.664" x2="517.389" y2="748.664"/>
<line class="st1" x1="7.057" y1="57.998" x2="7.057" y2="695.997"/>
<line class="st1" x1="568.39" y1="57.998" x2="568.39" y2="695.997"/>
</svg>
