<?xml version="1.0" encoding="utf-8"?>
<!-- Generator: Adobe Illustrator 14.0.0, SVG Export Plug-In . SVG Version: 6.00 Build 43363)  -->
<!DOCTYPE svg PUBLIC "-//W3C//DTD SVG 1.1//EN" "http://www.w3.org/Graphics/SVG/1.1/DTD/svg11.dtd">
<svg version="1.1" id="Nouveau_x5F_3_xA0_Image_1_" xmlns="http://www.w3.org/2000/svg" xmlns:xlink="http://www.w3.org/1999/xlink"
	 x="0px" y="0px" width="729px" height="969px" viewBox="0 0 729 969" style="enable-background:new 0 0 729 969;"
	 xml:space="preserve">
<style type="text/css">
<![CDATA[
	.st0{fill-rule:evenodd;clip-rule:evenodd;fill:none;stroke:#000000;stroke-width:2.0354;stroke-linecap:round;}
	.st1{fill-rule:evenodd;clip-rule:evenodd;fill:none;stroke:#000000;stroke-width:3.3166;stroke-linecap:round;}
	.st2{fill-rule:evenodd;clip-rule:evenodd;fill:none;stroke:#000000;stroke-width:1.7607;stroke-linecap:round;}
	.st3{fill-rule:evenodd;clip-rule:evenodd;fill:none;stroke:#000000;stroke-width:2.1794;stroke-linecap:round;}
	.st4{fill-rule:evenodd;clip-rule:evenodd;fill:none;stroke:#000000;stroke-width:3.2891;stroke-linecap:round;}
	.st5{fill-rule:evenodd;clip-rule:evenodd;fill:none;stroke:#000000;stroke-width:3;stroke-linecap:round;}
	.st6{fill-rule:evenodd;clip-rule:evenodd;fill:none;stroke:#000000;stroke-width:2.6331;stroke-linecap:round;}
	.st7{fill-rule:evenodd;clip-rule:evenodd;fill:none;stroke:#000000;stroke-width:4.1004;stroke-linecap:round;}
	.st8{fill-rule:evenodd;clip-rule:evenodd;fill:none;stroke:#000000;stroke-width:1.8738;stroke-linecap:round;}
	.st9{fill-rule:evenodd;clip-rule:evenodd;fill:none;stroke:#000000;stroke-width:3.5314;stroke-linecap:round;}
	.st10{fill-rule:evenodd;clip-rule:evenodd;fill:none;stroke:#000000;stroke-width:2.8284;stroke-linecap:round;}
	.st11{fill-rule:evenodd;clip-rule:evenodd;fill:none;stroke:#000000;stroke-width:3.5199;stroke-linecap:round;}
	.st12{fill-rule:evenodd;clip-rule:evenodd;fill:none;stroke:#000000;stroke-width:2.136;stroke-linecap:round;}
	.st13{fill-rule:evenodd;clip-rule:evenodd;fill:none;stroke:#000000;stroke-width:3.3541;stroke-linecap:round;}
	.st14{fill-rule:evenodd;clip-rule:evenodd;fill:none;stroke:#000000;stroke-width:2.3884;stroke-linecap:round;}
	.st15{fill-rule:evenodd;clip-rule:evenodd;fill:none;stroke:#000000;stroke-width:3.4017;stroke-linecap:round;}
	.st16{fill-rule:evenodd;clip-rule:evenodd;fill:none;stroke:#000000;stroke-width:2.3323;stroke-linecap:round;}
	.st17{fill-rule:evenodd;clip-rule:evenodd;fill:none;stroke:#000000;stroke-width:2;stroke-linecap:round;}
	.st18{fill-rule:evenodd;clip-rule:evenodd;fill:none;stroke:#000000;stroke-width:2.3561;stroke-linecap:round;}
	.st19{fill-rule:evenodd;clip-rule:evenodd;fill:none;stroke:#000000;stroke-width:1.9424;stroke-linecap:round;}
	.st20{fill-rule:evenodd;clip-rule:evenodd;fill:none;stroke:#000000;stroke-width:1.7795;stroke-linecap:round;}
	.st21{fill-rule:evenodd;clip-rule:evenodd;fill:none;stroke:#000000;stroke-width:3.1623;stroke-linecap:round;}
	.st22{fill-rule:evenodd;clip-rule:evenodd;fill:none;stroke:#000000;stroke-width:2.1389;stroke-linecap:round;}
	.st23{fill-rule:evenodd;clip-rule:evenodd;fill:none;stroke:#000000;stroke-width:3.5214;stroke-linecap:round;}
	.st24{fill:#000000;fill-rule:evenodd;clip-rule:evenodd;}
	.st25{fill-rule:evenodd;clip-rule:evenodd;fill:none;stroke:#000000;stroke-width:1.9281;stroke-linecap:round;}
	.st26{fill-rule:evenodd;clip-rule:evenodd;fill:none;stroke:#000000;stroke-width:3.3015;stroke-linecap:round;}
	.st27{fill-rule:evenodd;clip-rule:evenodd;fill:none;stroke:#000000;stroke-width:2.1602;stroke-linecap:round;}
	.st28{fill-rule:evenodd;clip-rule:evenodd;fill:none;stroke:#000000;stroke-width:1.8974;stroke-linecap:round;}
	.st29{fill-rule:evenodd;clip-rule:evenodd;fill:none;stroke:#000000;stroke-width:2.7689;stroke-linecap:round;}
	.st30{fill-rule:evenodd;clip-rule:evenodd;fill:none;stroke:#000000;stroke-width:2.1849;stroke-linecap:round;}
	.st31{fill-rule:evenodd;clip-rule:evenodd;fill:none;stroke:#000000;stroke-width:4.0342;stroke-linecap:round;}
	.st32{fill-rule:evenodd;clip-rule:evenodd;fill:none;stroke:#000000;stroke-width:2.3452;stroke-linecap:round;}
	.st33{fill-rule:evenodd;clip-rule:evenodd;fill:none;stroke:#000000;stroke-width:2.6262;stroke-linecap:round;}
	.st34{fill-rule:evenodd;clip-rule:evenodd;fill:none;stroke:#000000;stroke-width:2.2804;stroke-linecap:round;}
	.st35{fill-rule:evenodd;clip-rule:evenodd;fill:none;stroke:#000000;stroke-width:3.1072;stroke-linecap:round;}
	.st36{fill-rule:evenodd;clip-rule:evenodd;fill:none;stroke:#000000;stroke-width:1.5492;stroke-linecap:round;}
	.st37{fill-rule:evenodd;clip-rule:evenodd;fill:none;stroke:#000000;stroke-width:3.331;stroke-linecap:round;}
	.st38{fill-rule:evenodd;clip-rule:evenodd;fill:none;stroke:#000000;stroke-width:1.8064;stroke-linecap:round;}
	.st39{fill-rule:evenodd;clip-rule:evenodd;fill:none;stroke:#000000;stroke-width:2.9784;stroke-linecap:round;}
	.st40{fill-rule:evenodd;clip-rule:evenodd;fill:none;stroke:#000000;stroke-width:2.9814;stroke-linecap:round;}
	.st41{fill-rule:evenodd;clip-rule:evenodd;fill:none;stroke:#000000;stroke-width:2.564;stroke-linecap:round;}
	.st42{fill-rule:evenodd;clip-rule:evenodd;fill:none;stroke:#000000;stroke-width:2.9399;stroke-linecap:round;}
	.st43{fill-rule:evenodd;clip-rule:evenodd;fill:none;stroke:#000000;stroke-width:3.5496;stroke-linecap:round;}
	.st44{fill-rule:evenodd;clip-rule:evenodd;fill:none;stroke:#000000;stroke-width:2.5739;stroke-linecap:round;}
	.st45{fill-rule:evenodd;clip-rule:evenodd;fill:none;stroke:#000000;stroke-width:2.0494;stroke-linecap:round;}
	.st46{fill-rule:evenodd;clip-rule:evenodd;fill:none;stroke:#000000;stroke-width:1.9293;stroke-linecap:round;}
	.st47{fill-rule:evenodd;clip-rule:evenodd;fill:none;stroke:#000000;stroke-width:2.8723;stroke-linecap:round;}
]]>
</style>
<g>
	<g>
		<path class="st24" d="M15,890c0-245.054,0-497.472,0-745c0-35.823,3.001-71.591,0-106C13.917,26.579,7.463,18.075,9,5
			c6.438-4.499,14.087,2.788,20,5l-1.5,1.167L28,13c-4.003,0.146-8.704-2.566-12,0c-2.273,9.328,3.434,16.901,4,25
			c1.179,16.878-1,35.15-1,53c0,228.952,0,462.933,0,694c0,35.411,0.824,74.14-1,106l-1.167-1.5L15,890z"/>
		<path class="st24" d="M32.5,12.833L32,11c10.911,0.911,18.604-1.396,28-2l-0.5,1.833L61,12c-9.168,5.521-20.104,5.607-30,2
			L32.5,12.833z"/>
		<path class="st24" d="M670.5,10.833L670,9c8.292,1.374,16.746,2.587,27,2l-0.5,1.833L698,14c-9.387,4.193-21.489,2.868-29-2
			L670.5,10.833z"/>
		<path class="st24" d="M702.5,11.167L701,10c5.125-3,13.986-9.075,20-5c2.318,10.103-5.043,18.87-6,29l-1.167-1.5L712,33
			c-1.316-8.18,3.984-14.413,2-20c-3.297-2.566-7.996,0.146-12,0L702.5,11.167z"/>
		<path class="st24" d="M713.167,34.5L715,34c0,5.333,0,10.667,0,16l-2.5,0.5L715,51c-0.01,2.656,0.378,5.711-1,7l-1.5-0.5L711,57
			c-0.631-5.231-3.49-23.484,1-24L713.167,34.5z"/>
		<path class="st24" d="M706.3,942.3l1.7,0.7c-0.776,0.89-1.075,2.258-1,4l-1.357,1.214L706,950c-5.163,0.328-7.307-8.915-1-9
			L706.3,942.3z"/>
		<path class="st24" d="M715.3,953.7l0.7-1.7c2.947,3.053,7.833,4.167,7,11c-9.854,3.448-31.056,2.921-41,0l0.5-1.833L681,960
			c1.066-2.267,3.033-3.634,6-4c2.416,7.536,19.041,5.232,27,4c1.874-1.904,0.109-2.513,0-5L715.3,953.7z"/>
		<path class="st24" d="M46.5,961.167L47,963c-9.65,2.904-30.444,3.452-40,0c-2.524-5.509,3.736-10.032,8-12l1.3,1.3L18,953
			c-1.083,2.041-4.794,4.087-2,7c3.895,1.15,10.732,1.757,16,1c5.846-0.84,8.335-1.519,11-5c1.991,1.009,4.271,1.729,5,4
			L46.5,961.167z"/>
		<path class="st24" d="M23.357,948.214L22,947c0.423-2.09-0.686-2.648-1-4l1.7-0.7L24,941c2.932,0.067,3.714,2.286,5,4
			c-0.968,2.699-2.508,4.825-6,5L23.357,948.214z"/>
		<path class="st24" d="M63,13c1.787-0.282,2.052,0.945,1,1c-1.645,8.355-4.974,15.026-14,16c-0.426-1.907-2.857-1.81-2-5
			C51.124,19.124,57.248,16.248,63,13z"/>
		<path class="st24" d="M665,13c7.269,2.398,12.787,6.546,17,12c-0.067,2.932-2.286,3.714-4,5C670.227,27.773,666.962,21.039,665,13
			z"/>
		<path class="st24" d="M20,15c2.319-0.319,3.839,0.161,5,1c-0.909,2.092-2.951,3.049-6,3C18.873,17.206,20.224,16.891,20,15z"/>
		<path class="st24" d="M710,19c-2.928,0.261-3.072-2.261-6-2C704.395,13.636,711.747,14.32,710,19z"/>
		<path class="st24" d="M32,19c-3.309,4.358-6.85,8.484-11,12C16.576,23.202,24.353,14.727,32,19z"/>
		<path class="st24" d="M65,26c-0.358,6.917-8.371,15.483-14,8c2.616-4.05,8.483-4.85,11-9l1.214,1.357L65,26z"/>
		<path class="st24" d="M669,27c2.436,2.564,6.327,3.672,9,6c-1.719,8.119-13.773,2.457-12-5l1.833,0.5L669,27z"/>
		<path class="st24" d="M708,31c-3.008,1.008-1.772-2.228-2-4c-3.146-1.854-6.336-3.664-8-7C704.078,12.769,714.939,25.085,708,31z"
			/>
		<path class="st24" d="M35,23c4.247,0.087,6.305,2.361,6,7C36.564,30.103,35.594,26.739,35,23z"/>
		<path class="st24" d="M694,23c0.906,1.885-0.992,7.877-6,7C688.3,25.967,689.476,22.809,694,23z"/>
		<path class="st24" d="M68,24c9.636,6.384-5.836,25.516-11,14C65.104,37.771,64.772,29.105,68,24z"/>
		<path class="st24" d="M660,24c3.218,2.115,4.462,6.205,6,10c0.419,3.581,5.813,2.188,6,6C664.436,45.326,654.403,32.291,660,24z"
			/>
		<path class="st24" d="M688,44c-4.193,0.367-0.714-3.257-1-5C689.169,38.832,687.453,42.547,688,44z"/>
		<path class="st24" d="M75,48c-5.908,0.378-18.556,4.25-19-5c3.054-1.177,9.801,1.213,12-3c3.089,1.577,5.887,3.446,8,6l-1.5,0.5
			L75,48z"/>
		<path class="st24" d="M653,46c4.242-7.934,12.183-1.728,20-4c1.342,10.9-12.68,5.975-18,6l-0.5-1.5L653,46z"/>
		<path class="st24" d="M691,41c7.282,1.385,5.92,11.413,10,16C694.942,59.046,683.633,46.279,691,41z"/>
		<path class="st24" d="M684,49c-3.241-0.276-2.379-6.574,0-7c1.342,0.658,1.862,2.138,2,4l-1.3,1.3L684,49z"/>
		<path class="st24" d="M29,888c4.676-1.657,11.426-1.241,17-2c5.209,2.461,10.24,12.202,3,16c-6.504-0.163-6.406-6.927-11-9
			c-4.178,0.511-6.776-0.558-9-2l0.5-1.5L29,888z"/>
		<path class="st24" d="M681,902c-8.167-1.86-2.629-14.764,2-16c7.348,1.652,19.777-1.777,21,6
			C693.378,889.035,687.98,898.176,681,902z"/>
		<path class="st24" d="M21,897c8.687-9.831,29.141,0.832,23,15c-12.527,1.193-10.135-12.532-22-12l0.5-1.833L21,897z"/>
		<path class="st24" d="M707,900c-11.556-0.223-9.007,13.66-22,12c-5.774-13.413,14.336-25.391,23-15l-1.5,1.167L707,900z"/>
		<path class="st24" d="M14,917c5.251-12.008,26.881-4.217,25,9c-2.027,3.761-10.807,4.017-14,1c-0.637-2.288-1.983-6.032,0-8
			c-1.133-0.462-4.432-0.508-8-1l-1.214-1.357L14,917z"/>
		<path class="st24" d="M36,912c2.555,0.111,3.5,1.833,5,3c9.602-10.465,12.019,7.511,2,7C39.754,921.835,35.079,915.184,36,912z"/>
		<path class="st24" d="M682,911c2.362,3.523,7.51,3.556,11,1c1.84,3.636-3.9,7.099-6,10C680.47,923.065,677.939,914.5,682,911z"/>
		<path class="st24" d="M714,913c1.421,3.329,4.05,9.728-2,10c0-1.667,0-3.333,0-5c-3.087-0.162-5.652,2.363-8,0
			c4.882,13.482-13.08,14.189-14,5c-0.176-1.756,5.19-9.741,8-11C703.197,909.671,709.11,911.432,714,913z"/>
		<path class="st24" d="M65,934c-0.238,4.935-6.51,4.366-9,2c0-2,0-4,0-6c1.686-0.408,4.494-4.712,6-2l-1,1l1,1
			c-0.19,0.81-1.003,0.997-1,2c1,0,2,0,3,0l-0.5,1.5L65,934z"/>
		<path class="st24" d="M88,952c-6.803-2.53-8.102-10.564-19-9c1.155-6.178,3.527-11.14,12-10c4.49,4.511,7.203,10.797,10,17
			l-1.7,0.7L88,952z"/>
		<path class="st24" d="M660,943c-13.633-2.436-15.965,16.431-28,9c0.345-4.072,2.625,0.042,5-2c3.464-1.87,4.803-5.863,5-11
			c4.495,1.236,3.167-5.069,6-6C654.702,930.799,659.088,936.191,660,943z"/>
		<path class="st24" d="M95,956c-3.849,6.844-12.302,1.691-19,1c-5.912-0.61-11.878,1.893-16-1c1.338-8.918,8.454-12.752,16-11
			C81.548,946.288,87.08,959.33,95,956z"/>
		<path class="st24" d="M638,956c7.377-1.691,12.696-12.379,22-11c3.658,0.542,8.549,4.642,10,10c-4.041,3.913-10.323,1.114-16,2
			c-4.908,0.766-8.825,4.517-15,2l0.5-1.833L638,956z"/>
		<path class="st24" d="M35,55c0.184,0.851-0.39,0.943-1,1l-1.167-1.5L31,55c-0.641-6.974,3.424-9.242,5-14
			c2.09-0.423,2.648,0.686,4,1l-0.5,1.5L41,44c1.271,6.271-3.485,6.515-5,10l-1.5-0.5L35,55z"/>
		<path class="st24" d="M57,53c-4.103-0.028-6.57-5.452-4-9c3.403,0.264,2.829,4.504,5,6l-1.357,1.214L57,53z"/>
		<path class="st24" d="M73,920c-1.667,0-3.333,0-5,0c0-1.667,0-3.333,0-5C72.042,914.291,73.708,915.958,73,920z"/>
		<path class="st24" d="M65,908c1.333,0,2.667,0,4,0c1.855,1.973,1.487,7.363-3,6C66.725,910.941,64.275,911.059,65,908z"/>
		<path class="st24" d="M664,908c0.726,3.059-1.726,2.941-1,6c-2.813-0.188-4.261-1.739-4-5
			C660.161,908.161,661.681,907.681,664,908z"/>
		<path class="st24" d="M65,911c0.147,2.48,0.186,4.853-2,5c-3.125,0.458-3.197-2.137-3-5C63.078,910.3,61.922,910.3,65,911z"/>
		<path class="st24" d="M666,910c4.573-0.875,4.004,7.895-1,6C662.805,913.896,664.793,911.555,666,910z"/>
		<path class="st24" d="M662,916c0.127,1.794-1.225,2.109-1,4c-2.319,0.319-3.839-0.161-5-1c0-1,0-2,0-3
			C657.278,914.633,660.722,914.633,662,916z"/>
		<path class="st24" d="M57,926c-1.964-6.669,4.858-8.629,9-6C66.047,925.047,62.559,926.559,57,926z"/>
		<path class="st24" d="M665,926c0.003,3.336-3.253,3.414-3,7c-1.313-1.02-3.687-0.98-5-2c0-2,0-4,0-6c1.989-0.936,4.761-3.255,7-1
			l-0.5,1.5L665,926z"/>
		<path class="st24" d="M666.5,923.5L665,923c-2.134,0.467-1.904-1.429-2-3c3.235-1.93,5.765-1.93,9,0c0,2,0,4,0,6
			c-2.465,0.132-4.818,0.151-6-1L666.5,923.5z"/>
		<path class="st24" d="M64,925c4.65-5.062,12.062,2.35,7,7C65.388,932.945,65.242,928.424,64,925z"/>
		<path class="st24" d="M665,937c-5.738-19.643,21.058-2.505,2,1C666.973,937.027,665.775,937.225,665,937z"/>
		<g>
			<path class="st23" d="M27.5,11.167c1.654,0.6,3.346,1.067,5,1.667"/>
			<path class="st31" d="M59.5,10.833C100.333,5.85,166.515,8,217.5,8c94.577,0,194.503,0,290,0
				c49.836,0,98.921-1.939,143.565,0.054c6.491,0.29,13.914,0.989,19.435,2.78"/>
			<path class="st15" d="M696.5,12.833c2.05-0.373,4.044-0.95,6-1.667"/>
			<path class="st21" d="M713.833,32.5c-0.222,0.667-0.444,1.333-0.666,2"/>
			<path class="st36" d="M712.5,50.5c2.011,0.041,4.455,0.088,5.272-0.551c1.13-2.189,0.956-5.134-0.772-6.949"/>
			<path class="st13" d="M705.643,948.214c3.22,1.795,7.059,2.69,9.657,5.486"/>
			<path class="st7" d="M682.5,961.167C639.352,964.47,580.423,963,532.5,963c-95.587,0-193.576,0-290,0
				c-59.942,0-116.265,1.661-169.444,0.42c-8.652-0.201-19.325,0.381-26.556-2.253"/>
			<path class="st26" d="M16.3,952.3c1.717-2.296,4.787-2.594,7.057-4.086"/>
			<path class="st11" d="M22.7,942.3c-6.83-6.574-11.581-15.267-15.178-23.781c3.787-9.412,8.743-18.604,9.312-29.019"/>
			<path class="st35" d="M706.3,942.3c4.174-3.212,7.952-7.404,8.897-12.726c1.836-2.517,4.736-4.311,5.72-7.407
				c1.15-7.865-7.812-21.531-8.337-32.728c-3.175-67.674-0.08-137.848-0.08-207.939c0.001-204.813-0.001-420.63,0-624"/>
			<path class="st12" d="M71,18c1.855-3.06,5.272-3.593,8.5-3"/>
			<path class="st28" d="M650,15c0.68-0.022,1.706-0.778,2.466-0.921c2.759,0.794,5.224,1.963,7.034,4.421"/>
			<path class="st38" d="M30,27.5c1.375-3.766,4.869-6.104,7.5-9"/>
			<path class="st46" d="M692.5,19c2.795,1.928,5.494,4.726,6.5,8"/>
			<path class="st44" d="M63.214,26.357C64.242,24.754,65.01,22.934,65,21"/>
			<path class="st40" d="M667.833,28.5c-1.408-2.262-2.727-4.566-3.833-7"/>
			<path class="st25" d="M23.5,33.5c7.255-2.142,14.959-1.356,22.5-1.5"/>
			<path class="st8" d="M705.5,33.5c-6.92-2.49-14.907-0.603-22-2"/>
			<path class="st45" d="M23,44c1.965-2.146,4.043-4.49,4-7.5"/>
			<path class="st20" d="M44,37c1.961,2.82,5.109,4.27,8.5,4"/>
			<path class="st17" d="M677.5,41c3.606,0.435,6.559-2.243,8.667-4.833"/>
			<path class="st0" d="M706,44c-1.084-2.161-2.925-4.243-3.167-6.833"/>
			<path class="st27" d="M74.5,46.5c0.667,0.273,1.333,0.391,2,0.5"/>
			<path class="st28" d="M11,49c-0.105-1.716,0.004-3.54,1-5"/>
			<path class="st32" d="M652.5,47c0.667-0.06,1.333-0.276,2-0.5"/>
			<path class="st4" d="M684.7,47.3c2.219,2.101,1.707,5.803,4.8,7.2"/>
			<path class="st47" d="M27.5,890c0.667-0.273,1.333-0.391,2-0.5"/>
			<path class="st5" d="M20.5,899.5c0.667-0.587,1.333-0.965,2-1.333"/>
			<path class="st5" d="M706.5,898.167c0.667,0.302,1.333,0.813,2,1.333"/>
			<path class="st30" d="M35,948c11.727-8.316,26.142-27.423,13.5-40.5"/>
			<path class="st22" d="M694.5,948c-11.288-8.213-26.582-27.561-14-40.5"/>
			<path class="st9" d="M20.5,909c2.87-1.232,6.016-1.191,9-0.5"/>
			<path class="st37" d="M698.167,909.167c3.566-1.607,7.914-1.603,11.333,0.333"/>
			<path class="st1" d="M15.5,919.5c-0.048-1.239,0.166-1.954,0.286-2.857"/>
			<path class="st16" d="M29.5,951.5c13.065,4.908,20.564-16.985,34-8.667"/>
			<path class="st6" d="M22.5,954.5c2.405-1.031,4.569-2.146,7-3"/>
			<path class="st18" d="M29.5,951.5c0.422-10.572,14.887-13.311,13-25"/>
			<path class="st42" d="M700,951.333c2.762,1.513,5.722,2.68,8.357,4.453"/>
			<path class="st33" d="M665.5,942.833c13.972-8.046,21.418,13.834,34.5,8.5"/>
			<path class="st34" d="M700,951.333c0.29-10.228-15.845-12.423-12.5-23.833"/>
			<path class="st2" d="M61,929c2.027-0.065,3.09,1.209,3.601,2.388c-0.175,0.866-0.701,1.436-1.101,2.112"/>
			<path class="st43" d="M89.3,950.7c1.219,1.537,3.446,1.422,5.2,1.8"/>
			<path class="st10" d="M637.5,957c0.667,0.233,1.333,0.206,2,0.167"/>
			<path class="st19" d="M74,24.5c0.744,3.677-0.062,8.414-2.5,11"/>
			<path class="st14" d="M658.5,36.5c-2.977-3.162-3.051-7.839-3-12"/>
			<path class="st29" d="M31.5,56c0.587-0.393,0.965-0.943,1.333-1.5"/>
			<path class="st3" d="M39.5,43.5c1.455-0.4,2.021-0.614,2.5-1"/>
			<path class="st41" d="M34.5,53.5c5.245,5.69,8.974-3.372,11-7"/>
			<path class="st47" d="M56.643,51.214c4.502,2.127,9.174,0.092,13.857,0.286"/>
			<path class="st39" d="M658.5,51.5c5.522-0.808,14.238,3.062,17.333-4"/>
			<path class="st17" d="M663.5,925.5c1.24-0.496,2.143-1.298,3-2"/>
		</g>
	</g>
</g>
</svg>
