<?xml version="1.0" encoding="utf-8"?>
<!-- Generator: Adobe Illustrator 14.0.0, SVG Export Plug-In . SVG Version: 6.00 Build 43363)  -->
<!DOCTYPE svg PUBLIC "-//W3C//DTD SVG 1.1//EN" "http://www.w3.org/Graphics/SVG/1.1/DTD/svg11.dtd">
<svg version="1.1" id="Layer_3" xmlns="http://www.w3.org/2000/svg" xmlns:xlink="http://www.w3.org/1999/xlink" x="0px" y="0px"
	 width="612px" height="792px" viewBox="0 0 612 792" style="enable-background:new 0 0 612 792;" xml:space="preserve">
<style type="text/css">
<![CDATA[
	.st0{fill:#010101;}
]]>
</style>
<g>
	<path class="st0" d="M596.214,777.469H18.086V114.776h1.025v661.669h576.079V15.858H119.053v-1.025h477.161V777.469z
		 M591.089,772.344H23.211V113.751h1.025v657.568h565.829V20.983H118.883v-1.024h472.206V772.344z"/>
	<g>
		<path class="st0" d="M79.076,30.469c-1.038,0-2.069-0.067-3.078-0.132c-0.608-0.04-1.217-0.079-1.825-0.105
			c-0.283-0.011-0.503-0.25-0.491-0.532c0.012-0.283,0.271-0.512,0.533-0.491c0.618,0.025,1.233,0.065,1.851,0.105
			c1.562,0.102,3.176,0.208,4.745,0.053c1.01-0.101,2.063-0.239,2.854-0.747c0.447-0.286,0.93-0.967,0.867-1.146l0,0
			c0,0-0.063-0.079-0.351-0.127c-0.28-0.045-0.468-0.31-0.421-0.589c0.046-0.278,0.303-0.474,0.589-0.421
			c0.896,0.148,1.129,0.649,1.187,0.933c0.186,0.906-0.828,1.899-1.318,2.213c-0.982,0.629-2.222,0.796-3.307,0.903
			C80.298,30.447,79.686,30.469,79.076,30.469z"/>
		<path class="st0" d="M79.305,33.066c-0.209,0-0.406-0.129-0.481-0.337c-0.098-0.267,0.04-0.56,0.306-0.658
			c0.296-0.107,0.471-0.247,0.519-0.413c0.088-0.309-0.19-0.758-0.295-0.892c-0.174-0.223-0.136-0.544,0.084-0.719
			c0.221-0.175,0.542-0.14,0.718,0.081c0.075,0.093,0.724,0.938,0.48,1.806c-0.097,0.345-0.375,0.816-1.156,1.1
			C79.421,33.056,79.362,33.066,79.305,33.066z"/>
		<path class="st0" d="M38.344,30.908c-0.187,0-0.35-0.136-0.379-0.325c-0.033-0.21,0.111-0.406,0.321-0.439
			c2.03-0.312,2.388-1.759,2.446-2.389c-2.938-0.731-5.535-4.962-5.648-5.149c-0.11-0.182-0.052-0.417,0.13-0.527
			c0.18-0.113,0.418-0.053,0.528,0.128c0.026,0.044,2.723,4.437,5.441,4.855l0.307,0.047l0.018,0.311
			c0.002,0.031,0.133,2.984-3.106,3.483C38.384,30.907,38.364,30.908,38.344,30.908z"/>
		<path class="st0" d="M38.721,33.84c-0.178,0-0.338-0.125-0.376-0.306c-0.042-0.208,0.091-0.412,0.299-0.455
			c0.041-0.009,4.072-0.875,4.203-3.253c0.012-0.212,0.184-0.386,0.405-0.362c0.211,0.012,0.374,0.193,0.362,0.405
			c-0.165,2.966-4.625,3.923-4.814,3.962C38.773,33.837,38.747,33.84,38.721,33.84z"/>
		<path class="st0" d="M42.479,34.891c-0.041,0-0.082-0.007-0.123-0.021c-0.2-0.067-0.309-0.284-0.242-0.485
			c0.021-0.065,0.557-1.615,2.168-1.615c0.212,0,0.384,0.172,0.384,0.384c0,0.212-0.172,0.385-0.384,0.385
			c-1.052,0-1.424,1.046-1.44,1.09C42.789,34.79,42.639,34.891,42.479,34.891z"/>
		<path class="st0" d="M47.138,34.808c2.946,2.121,4.85,2.935,8.334,1.131c1.221-0.631,4.108-1.316,4.483-2.849
			c0.33-1.354-1.639-3.796-2.976-3.917c-1.163-0.105-1.966,0.772-3.116,0.215c-0.978-0.476-1.982-2.077-2.868-2.865
			c-0.416-0.371-1-1.295-1.452-1.53c-1.108-0.578-2.892,0.054-3.459-1.459c-0.374-0.996-0.153-1.653-0.605-2.639
			c-0.472-1.031-1.294-2.057-2.032-2.91c-0.674-0.781-0.945-1.867-1.604-2.645c-0.78-0.922-1.637-1.169-2.755-1.674
			c-2.746-1.241-5.457-2.672-8.414-3.35c-2.981-0.684-7.054,0.855-8.708,3.522c0.952,0.448,1.022,0.664,1.761,1.27
			c1.764,1.446,2.78,0.461,4.741-0.231c2.115-0.748,4.305-1.145,6.466-0.322c3.199,1.217,5.411,4.265,7.359,6.926
			c2.826,3.862,4.143,7.995,4.542,12.725c-0.04,0.173-0.083,0.34-0.127,0.502L47.138,34.808z"/>
		<path class="st0" d="M16.219,17.654c0.381-0.971,0.935-1.957,1.761-2.085c0.629,0,2.064-0.952,2.561-0.605
			c0.46,0.321,0.834,1.046,1.347,1.507c0.61,0.548,1.411,0.84,2.173,0.718c0.128-0.021-1.242,4.018-1.271,4.091
			c0.977,0.756,1.725,1.667,1.799,2.959c0.103,1.805-1.145,2.451-0.259,4.198c1.097,2.164,1.029,4.519,3.145,5.939
			c0.652,0.439,1.596,0.937,2.021,1.623c0.49,0.787,0.191,1.736,0.644,2.51c0.255,0.435,0.776,0.431,1.14,0.769
			c0.679,0.631,1.319,1.395,1.743,2.175c0.477,0.879,1.279,1.944,1.679,2.817c0.442,0.966-0.756,3.306,1.125,3.141
			c0.236,0.521,0.341,1.451,0.712,1.851c0.365,0.395,1.124,0.445,1.548,0.831c1.706,1.55,0.299,3.409-0.868,4.706l-1.803,1.504
			l-2.104,0.299c-1.376-1.375-3.125-1.127-3.156-3.457c-0.667-0.348-2.507-0.972-2.872-1.66c-0.462-0.873,0.468-2.39,0.306-3.291
			c-0.438-2.436-3.121-2.762-4.497-4.345c-0.65-0.748-0.845-1.758-1.425-2.514c-0.665-0.868-1.865-1.495-2.72-2.15
			c-0.909-0.696-1.685-1.226-2.179-2.236c-0.573-1.173-0.425-1.899-1.293-2.956c-0.731-0.89-1.573-1.614-1.716-2.819
			c-0.271-2.276,0.487-4.549,0.16-6.861c-0.145-1.026-0.388-1.571,0.07-2.542c0.435-0.924,1.348-1.474,1.69-2.504
			C15.806,18.884,15.977,18.271,16.219,17.654z"/>
		<path class="st0" d="M30.31,29.876c-0.56,0-0.966-0.098-1-0.106c-0.206-0.052-0.331-0.26-0.28-0.465
			c0.052-0.206,0.26-0.331,0.465-0.281c0.014,0.003,1.439,0.342,2.479-0.376c0.614-0.425,0.985-1.149,1.105-2.151
			c0.025-0.212,0.217-0.358,0.429-0.336c0.21,0.025,0.36,0.216,0.335,0.427c-0.148,1.233-0.632,2.141-1.438,2.695
			C31.712,29.76,30.919,29.876,30.31,29.876z"/>
		<path class="st0" d="M37.907,22.597c-0.257,0-0.441-0.033-0.459-0.036c-0.208-0.04-0.345-0.239-0.307-0.448
			c0.039-0.208,0.239-0.346,0.447-0.309c0.228,0.041,0.893,0.074,1.218-0.269c0.247-0.26,0.294-0.721,0.142-1.369
			c-0.049-0.207,0.08-0.414,0.286-0.463c0.205-0.05,0.413,0.079,0.462,0.286c0.217,0.919,0.104,1.619-0.335,2.078
			C38.939,22.51,38.325,22.597,37.907,22.597z"/>
		<path class="st0" d="M27.9,29.308c-0.04,0-0.08-0.004-0.121-0.013c-0.275-0.067-0.445-0.343-0.378-0.619
			c0.968-4.037,5.333-4.861,5.518-4.895c0.276-0.051,0.544,0.136,0.594,0.414c0.05,0.278-0.135,0.544-0.413,0.596
			c-0.04,0.007-3.893,0.747-4.703,4.124C28.341,29.15,28.131,29.308,27.9,29.308z"/>
		<path class="st0" d="M35.715,21.04c-0.029,0-0.058-0.002-0.087-0.007c-0.277-0.049-0.465-0.31-0.418-0.588
			c0.014-0.087,0.383-2.148,2.645-2.67c0.275-0.065,0.551,0.108,0.615,0.384c0.064,0.275-0.108,0.551-0.384,0.614
			c-1.582,0.365-1.854,1.783-1.865,1.843C36.175,20.863,35.959,21.04,35.715,21.04z"/>
		<path class="st0" d="M37.019,40.797c-0.97,0-1.897-0.128-2.797-0.386c-0.272-0.079-0.43-0.362-0.353-0.634
			c0.078-0.272,0.36-0.428,0.633-0.353c2.24,0.64,4.688,0.397,7.704-0.765c2.562-0.986,3.535-2.042,4.115-4.491
			c-0.424-4.891-1.835-8.828-4.438-12.385c-1.942-2.654-4.095-5.596-7.128-6.75c-2.846-1.084-5.433,0.001-8.171,1.148l-0.744,0.311
			c-0.259,0.107-0.561-0.016-0.669-0.279c-0.108-0.261,0.017-0.561,0.278-0.669l0.738-0.308c2.803-1.176,5.703-2.392,8.932-1.162
			c3.317,1.263,5.565,4.334,7.548,7.044c2.776,3.793,4.25,7.919,4.682,13.043l0.007,0.081l-0.018,0.078
			c-0.656,2.84-1.857,4.177-4.763,5.296C40.522,40.407,38.704,40.797,37.019,40.797z"/>
		<g>
			<path class="st0" d="M61.418,33.517c-0.042,0-0.083-0.005-0.125-0.016c-0.274-0.069-0.442-0.347-0.373-0.621
				c0.798-3.188,0.519-4.617,0.144-5.254c-0.293-0.497-1.071-0.928-1.824-1.344c-0.717-0.397-1.459-0.808-1.929-1.349
				c-0.551-0.633-0.816-1.382-1.072-2.108c-0.247-0.699-0.48-1.359-0.95-1.85c-0.606-0.633-1.598-1.094-2.558-1.54
				c-0.475-0.22-0.942-0.438-1.363-0.673c-3.034-1.691-4.904-3.965-5.131-6.238c-0.192-1.917,0.712-3.746,2.686-5.437
				c2.783-2.383,7.652-3.57,11.073-4.255c1.96-0.393,3.994-0.387,5.961-0.376c0.89,0.003,1.778,0.007,2.656-0.026
				c0.038-0.001,0.072,0.001,0.107,0.007c3.544,0.612,7.091,1.195,10.64,1.778c3.029,0.499,6.059,0.997,9.085,1.512
				c0.907,0.154,1.83,0.321,2.76,0.49c4.196,0.758,8.537,1.549,12.643,1.426c4.154-0.116,8.217-0.86,11.65-1.579l1.286-0.713
				c0.172-0.096,0.384-0.085,0.546,0.031c0.161,0.116,0.241,0.313,0.206,0.508c-0.935,5.143-5.248,5.548-9.418,5.941
				c-0.366,0.034-0.732,0.068-1.096,0.106c-3.026,0.313-5.873,0.234-8.889,0.151c-0.933-0.025-1.872-0.052-2.823-0.066
				c-3.711-0.056-7.494-0.351-11.564-0.905c-0.28-0.039-0.477-0.297-0.438-0.578c0.038-0.281,0.297-0.477,0.577-0.439
				c4.029,0.548,7.772,0.842,11.442,0.896c0.956,0.014,1.898,0.041,2.835,0.067c2.979,0.082,5.794,0.162,8.754-0.146
				c0.368-0.038,0.738-0.073,1.107-0.107c3.595-0.338,7.01-0.659,8.208-3.98l-0.303,0.168c-0.045,0.025-0.093,0.043-0.144,0.053
				c-3.494,0.733-7.641,1.498-11.907,1.617c-4.221,0.118-8.607-0.675-12.854-1.443c-0.928-0.167-1.846-0.333-2.75-0.488
				c-3.025-0.515-6.052-1.013-9.08-1.511c-3.533-0.58-7.066-1.161-10.595-1.77c-0.874,0.032-1.757,0.028-2.645,0.025
				c-1.914-0.004-3.898-0.015-5.757,0.357C56.889,4.5,52.189,5.639,49.589,7.867c-1.705,1.459-2.489,2.993-2.333,4.556
				c0.193,1.934,1.874,3.919,4.61,5.445c0.4,0.224,0.845,0.429,1.296,0.639c1.046,0.486,2.127,0.988,2.865,1.76
				c0.623,0.65,0.904,1.447,1.177,2.218c0.234,0.663,0.456,1.291,0.879,1.776c0.352,0.404,1.013,0.771,1.653,1.125
				c0.872,0.483,1.775,0.983,2.209,1.72c0.697,1.184,0.687,3.154-0.032,6.024C61.857,33.362,61.647,33.517,61.418,33.517z"/>
			<path class="st0" d="M102.828,16.395c-1.215,0-2.445-0.043-3.658-0.085c-1.06-0.037-2.097-0.072-3.085-0.077
				c-4.481-0.023-8.897-0.657-13.403-1.359c-0.28-0.044-0.471-0.306-0.428-0.586c0.043-0.278,0.304-0.47,0.586-0.427
				c4.466,0.698,8.84,1.325,13.25,1.348c0.999,0.004,2.046,0.041,3.115,0.078c2.889,0.101,5.874,0.203,8.441-0.284
				c1.728-0.328,4.253-1.976,4.221-2.755c-0.007-0.18-0.396-0.526-1.804-0.678c-0.282-0.03-0.485-0.283-0.455-0.564
				c0.03-0.281,0.273-0.484,0.564-0.454c1.768,0.19,2.683,0.747,2.719,1.655c0.065,1.631-3.286,3.468-5.055,3.804
				C106.262,16.308,104.56,16.395,102.828,16.395z"/>
			<path class="st0" d="M97.021,20.167c-3.84,0-7.723-0.488-11.526-0.966c-2.109-0.267-4.29-0.541-6.384-0.717
				c-0.282-0.024-0.492-0.272-0.468-0.554c0.025-0.282,0.279-0.491,0.554-0.468c2.116,0.178,4.307,0.455,6.427,0.721
				c5.952,0.747,12.107,1.521,17.887,0.374c0.97-0.194,3.572-1.716,3.868-2.335c-0.091-0.042-0.302-0.112-0.752-0.142
				c-0.282-0.02-0.496-0.264-0.478-0.546c0.019-0.283,0.268-0.491,0.546-0.478c1.107,0.075,1.69,0.426,1.73,1.046
				c0.095,1.458-3.904,3.298-4.714,3.459C101.513,20,99.274,20.167,97.021,20.167z"/>
			<path class="st0" d="M89.604,23.087c-4.096,0-7.657-0.278-10.988-0.851c-0.278-0.049-0.466-0.313-0.418-0.592
				c0.048-0.278,0.31-0.464,0.592-0.418c4.353,0.749,9.122,0.986,15,0.748c1.385-0.472,2.697-1.188,2.793-1.529l0,0
				c-0.015,0-0.093-0.085-0.35-0.197c-0.259-0.114-0.377-0.416-0.263-0.676c0.113-0.259,0.413-0.379,0.675-0.264
				c0.824,0.361,0.979,0.842,0.964,1.181c-0.054,1.186-2.51,2.128-3.562,2.479c-0.046,0.015-0.094,0.024-0.142,0.026
				C92.404,23.057,90.974,23.087,89.604,23.087z"/>
			<path class="st0" d="M84.971,27.015c-0.128,0-0.249-0.001-0.358-0.003c-2.125-0.037-4.249-0.103-6.374-0.169l-3.008-0.09
				c-0.283-0.008-0.506-0.244-0.498-0.527c0.009-0.282,0.244-0.5,0.527-0.498l3.012,0.091c2.119,0.066,4.239,0.132,6.358,0.168
				c2.192,0.037,4.976-0.289,5.617-1.333c0.077-0.126,0.312-0.507-0.122-1.331c-0.133-0.25-0.037-0.56,0.213-0.691
				c0.251-0.134,0.561-0.037,0.692,0.213c0.585,1.108,0.373,1.887,0.09,2.345C90.132,26.798,86.728,27.015,84.971,27.015z"/>
			<path class="st0" d="M59.313,10.069c-0.236,0-0.448-0.164-0.5-0.404c-0.061-0.277,0.115-0.55,0.392-0.611
				c0.33-0.071,0.71-0.122,1.109-0.174c0.977-0.129,2.084-0.276,2.618-0.808c0.354-0.353,0.505-0.679,0.464-0.996
				c-0.115-0.878-1.647-1.762-2.384-2.187c-0.246-0.142-0.33-0.455-0.188-0.7c0.142-0.245,0.454-0.33,0.7-0.188
				c1.309,0.755,2.721,1.668,2.888,2.942c0.085,0.646-0.17,1.271-0.756,1.854c-0.78,0.776-2.069,0.948-3.208,1.097
				c-0.368,0.05-0.721,0.096-1.026,0.162C59.385,10.066,59.349,10.069,59.313,10.069z"/>
			<path class="st0" d="M63.372,21.341c-0.194,0-0.38-0.109-0.466-0.297c-0.119-0.257-0.006-0.562,0.25-0.681
				c0.201-0.093,0.432-0.19,0.679-0.296c1.078-0.457,2.708-1.148,2.916-2.035c0.086-0.369-0.084-0.807-0.509-1.302
				c-0.817-0.955-4.506-1.964-5.726-1.57c-0.001,0-0.003,0.001-0.004,0.001c-0.269,0.092-0.559-0.058-0.646-0.327
				c-0.088-0.269,0.059-0.559,0.327-0.646l0,0c0.16-0.052,0.361-0.109,0.589-0.173c0.917-0.257,2.824-0.793,2.82-1.613
				c-0.002-0.475-0.848-0.983-2.153-1.295c-0.275-0.066-0.445-0.343-0.379-0.618c0.067-0.275,0.347-0.443,0.618-0.379
				c1.095,0.261,2.933,0.908,2.939,2.288c0.003,0.887-0.682,1.476-1.522,1.888c1.606,0.347,3.286,1.041,3.917,1.778
				c0.648,0.757,0.894,1.499,0.729,2.204c-0.327,1.392-2.168,2.173-3.513,2.744c-0.236,0.101-0.458,0.195-0.65,0.284
				C63.516,21.327,63.443,21.341,63.372,21.341z"/>
			<path class="st0" d="M66.829,32.765c-0.131,0-0.262-0.05-0.362-0.15c-0.2-0.2-0.2-0.524,0-0.725
				c0.541-0.542,1.147-1.324,0.962-1.986c-0.219-0.784-1.463-1.249-1.924-1.362c-0.211-0.051-0.367-0.232-0.389-0.448
				c-0.021-0.218,0.098-0.425,0.295-0.515c0.889-0.408,1.95-1.068,1.959-1.889c0.014-1.213-2.123-2.53-2.872-2.896
				c-0.255-0.125-0.36-0.432-0.236-0.686c0.125-0.254,0.433-0.359,0.685-0.235c0.355,0.173,3.472,1.755,3.447,3.83
				c-0.01,0.846-0.53,1.605-1.55,2.264c0.631,0.323,1.342,0.853,1.57,1.66c0.257,0.914-0.154,1.92-1.224,2.989
				C67.091,32.715,66.96,32.765,66.829,32.765z"/>
			<path class="st0" d="M65.777,9.919c-0.272,0-0.499-0.213-0.512-0.487c-0.014-0.283,0.204-0.524,0.486-0.539
				c0.503-0.024,1.009-0.04,1.517-0.056c1.062-0.033,2.16-0.068,3.209-0.192c1.099-0.13,1.763-0.666,1.732-1.398
				c-0.03-0.729-0.758-1.491-2.092-1.538l-4.359-0.15l0.035-1.023l4.36,0.149c1.956,0.067,3.03,1.319,3.081,2.52
				c0.041,0.985-0.625,2.221-2.637,2.459c-1.094,0.129-2.214,0.164-3.297,0.197c-0.502,0.016-1.001,0.031-1.499,0.057
				C65.793,9.919,65.785,9.919,65.777,9.919z"/>
			<path class="st0" d="M69.78,13.836c-0.753,0-1.508-0.042-2.246-0.083c-0.593-0.034-1.185-0.067-1.767-0.077
				c-0.283-0.005-0.508-0.239-0.503-0.522c0.005-0.282,0.241-0.527,0.522-0.503c0.595,0.012,1.199,0.045,1.805,0.079
				c1.125,0.063,2.29,0.127,3.388,0.036c1.009-0.084,2.573-0.884,2.695-1.518c0.075-0.392-0.612-0.782-0.912-0.931
				c-0.253-0.127-0.355-0.435-0.229-0.688c0.126-0.254,0.434-0.355,0.688-0.229c1.396,0.698,1.565,1.496,1.459,2.043
				c-0.262,1.363-2.494,2.252-3.616,2.345C70.639,13.823,70.209,13.836,69.78,13.836z"/>
			<path class="st0" d="M69.384,18.335c-0.25,0-0.468-0.182-0.507-0.437c-0.042-0.279,0.151-0.541,0.431-0.583
				c2.569-0.385,2.721-2.213,2.722-2.232c0.019-0.282,0.265-0.489,0.545-0.478c0.282,0.02,0.496,0.263,0.478,0.545
				c-0.062,0.922-0.892,2.773-3.592,3.179C69.434,18.333,69.408,18.335,69.384,18.335z"/>
			<path class="st0" d="M68.632,23.296c-0.228,0-0.438-0.155-0.497-0.387c-0.069-0.274,0.097-0.553,0.372-0.623
				c0.431-0.109,0.957-0.131,1.513-0.157c1.378-0.062,2.37-0.161,2.585-0.881c0.147-0.488,0.001-0.694-0.046-0.762
				c-0.432-0.617-2.062-0.709-2.938-0.76c-0.223-0.012-0.423-0.024-0.586-0.04c-0.282-0.027-0.489-0.277-0.461-0.559
				c0.026-0.282,0.27-0.496,0.559-0.462c0.153,0.015,0.339,0.025,0.547,0.037c1.196,0.068,3.002,0.172,3.719,1.194
				c0.317,0.453,0.38,1.006,0.188,1.646c-0.44,1.474-2.15,1.55-3.522,1.611c-0.502,0.022-0.977,0.044-1.307,0.127
				C68.716,23.291,68.673,23.296,68.632,23.296z"/>
			<path class="st0" d="M82.01,11.571c-0.165,0-0.327-0.079-0.426-0.226c-0.158-0.234-0.096-0.553,0.139-0.711
				c0.603-0.406,1.58-1.183,1.353-1.819c-0.442-1.231-4.392-2.098-6.43-1.906c-0.284,0.03-0.532-0.18-0.559-0.462
				c-0.027-0.282,0.181-0.531,0.462-0.558c1.844-0.182,6.75,0.512,7.491,2.581c0.352,0.983-0.235,1.998-1.745,3.014
				C82.208,11.544,82.109,11.571,82.01,11.571z"/>
			<path class="st0" d="M79.305,16.382c-0.197,0-0.385-0.115-0.47-0.306c-0.114-0.26,0.003-0.562,0.262-0.676
				c2.215-0.975,2.472-1.65,2.48-1.896c0.011-0.353-0.432-0.782-1.248-1.208c-0.755-0.393-1.75-0.453-2.711-0.51
				c-0.316-0.019-0.625-0.037-0.92-0.067c-0.281-0.028-0.487-0.279-0.459-0.561c0.029-0.281,0.278-0.478,0.561-0.459
				c0.281,0.028,0.578,0.046,0.879,0.063c1.02,0.062,2.175,0.13,3.124,0.625c1.237,0.645,1.825,1.348,1.799,2.149
				c-0.033,0.997-1.016,1.887-3.091,2.801C79.443,16.368,79.374,16.382,79.305,16.382z"/>
			<path class="st0" d="M73.095,21.907c-0.235,0-0.447-0.162-0.5-0.401c-0.062-0.277,0.114-0.55,0.391-0.611
				c0.436-0.096,0.879-0.15,1.314-0.203c1.245-0.15,2.226-0.268,2.875-1.313c0.328-0.529,0.42-0.957,0.274-1.271
				c-0.137-0.298-0.656-0.841-2.58-1.13c-0.28-0.042-0.473-0.304-0.431-0.583c0.042-0.28,0.304-0.465,0.583-0.431
				c1.856,0.279,2.955,0.84,3.359,1.714c0.299,0.648,0.187,1.402-0.334,2.243c-0.907,1.462-2.288,1.629-3.622,1.789
				c-0.404,0.049-0.813,0.097-1.217,0.186C73.169,21.903,73.132,21.907,73.095,21.907z"/>
			<path class="st0" d="M72.691,31.563c-0.178,0-0.35-0.093-0.445-0.258c-0.14-0.246-0.055-0.559,0.19-0.699
				c0.601-0.343,1.64-1.625,1.597-2.085c-0.065-0.694-1.706-1.146-2.495-1.365l-0.411-0.116c-0.251-0.075-0.405-0.328-0.357-0.585
				c0.048-0.258,0.291-0.43,0.544-0.417c2.472,0.193,4.15-0.284,5.27-1.502c0.563-0.609,0.809-1.238,0.697-1.769
				c-0.112-0.529-0.575-0.985-1.338-1.316c-0.26-0.113-0.379-0.415-0.266-0.675c0.113-0.259,0.414-0.379,0.674-0.266
				c1.365,0.593,1.805,1.439,1.932,2.045c0.183,0.863-0.153,1.813-0.946,2.675c-0.845,0.918-1.958,1.496-3.37,1.739
				c0.582,0.34,1.025,0.803,1.086,1.457c0.101,1.084-1.434,2.685-2.109,3.07C72.865,31.542,72.777,31.563,72.691,31.563z"/>
			<path class="st0" d="M52.374,37.622c-2.434,0-4.114-1.48-5.875-3.03c-0.212-0.187-0.233-0.511-0.046-0.724
				c0.188-0.213,0.512-0.233,0.724-0.046c2.3,2.026,3.857,3.243,6.525,2.612l0.397-0.247c3.137-1.948,5.614-3.486,9.54-3.816
				c2.35-0.197,4.749-0.152,7.067-0.108c1.541,0.029,3.136,0.059,4.687,0.017c0.969-0.025,1.938-0.058,2.907-0.09
				c3.262-0.107,6.634-0.219,9.962-0.095l0.995,0.038c2.199,0.088,4.275,0.17,6.482-0.037c5.005-0.475,9.829-1.079,13.808-3.222
				c2.671-1.438,5.645-4.33,5.977-8.13c0.129-1.477-0.141-3.424-1.329-4.05c-0.51-0.269-0.971-0.295-1.405-0.084
				c-0.659,0.319-1.228,1.206-1.415,2.207c-0.122,0.651-0.098,1.47,0.708,1.669c0.773,0.191,1.942-0.307,2.204-1.158
				c0.084-0.27,0.371-0.421,0.641-0.339c0.271,0.083,0.423,0.371,0.34,0.641c-0.442,1.435-2.175,2.163-3.43,1.852
				c-0.927-0.229-1.8-1.098-1.471-2.853c0.248-1.325,1.023-2.479,1.976-2.94c0.728-0.354,1.533-0.319,2.329,0.1
				c1.632,0.859,2.038,3.17,1.874,5.046c-0.369,4.207-3.605,7.378-6.514,8.944c-4.147,2.233-9.082,2.853-14.197,3.338
				c-2.274,0.215-4.385,0.131-6.62,0.041l-0.992-0.038c-3.292-0.122-6.647-0.012-9.889,0.097c-0.972,0.032-1.942,0.063-2.914,0.09
				c-1.576,0.041-3.18,0.011-4.734-0.017c-2.294-0.043-4.666-0.089-6.962,0.104c-3.68,0.311-6.065,1.791-9.084,3.667l-0.468,0.29
				c-0.045,0.028-0.095,0.049-0.147,0.062C53.436,37.556,52.888,37.622,52.374,37.622z"/>
			<path class="st0" d="M83.063,32.915c-0.205,0-0.398-0.124-0.478-0.326c-0.103-0.263,0.027-0.561,0.292-0.663l0.704-0.273
				c2.374-0.91,4.826-1.852,6.288-3.938c0.295-0.421,0.533-0.889,0.711-1.377c-0.037-0.067-0.06-0.144-0.063-0.226
				c-0.091-2.008-0.525-3.354-1.22-3.791c-0.345-0.216-0.777-0.213-1.322,0.008c-0.805,0.59-1.178,1.151-1.112,1.667
				c0.129,0.986,1.815,1.842,2.395,2.064c0.145,0.055,0.255,0.172,0.304,0.317c0.048,0.146,0.028,0.306-0.054,0.436
				c-0.813,1.287-1.902,2.062-3.066,2.183c-1.152,0.12-2.302-0.38-3.338-1.445c-1.254-1.289-1.596-2.956-0.936-4.573
				c0.813-1.993,2.991-3.479,5.176-3.531c1.841-0.025,3.292,0.718,4.059,2.147c1.005,1.877,0.714,4.698-0.694,6.708
				c-1.64,2.343-4.243,3.342-6.759,4.307l-0.7,0.271C83.187,32.905,83.125,32.915,83.063,32.915z M87.499,20.472
				c-0.043,0-0.087,0-0.13,0.001c-1.797,0.044-3.585,1.261-4.251,2.895c-0.506,1.24-0.25,2.473,0.721,3.471
				c0.81,0.832,1.672,1.231,2.496,1.14c0.712-0.074,1.383-0.494,1.961-1.223c-0.847-0.42-2.28-1.317-2.45-2.625
				c-0.121-0.927,0.409-1.824,1.576-2.665c0.03-0.021,0.063-0.04,0.098-0.055c0.888-0.379,1.669-0.364,2.322,0.044
				c0.239,0.15,0.453,0.351,0.643,0.601C89.917,21.017,88.887,20.472,87.499,20.472z"/>
			<path class="st0" d="M85.817,33.093c-0.274,0-0.553-0.009-0.835-0.028c-0.283-0.02-0.496-0.263-0.477-0.546
				c0.02-0.282,0.275-0.481,0.546-0.477c5.41,0.376,9.212-3.305,12.888-6.858c0.36-0.348,0.719-0.694,1.078-1.037
				c2.007-1.911,4.639-4.082,7.08-3.872c1.124,0.095,2.091,0.677,2.874,1.729c0.936,1.257,1.127,2.663,0.523,3.856
				c-0.513,1.012-1.545,1.665-2.633,1.665c-0.005,0-0.011,0-0.017,0c-1.284-0.008-2.45-0.887-3.198-2.413
				c-0.125-0.254-0.02-0.561,0.234-0.686c0.255-0.125,0.562-0.02,0.686,0.234c0.58,1.18,1.391,1.833,2.286,1.839
				c0.721-0.022,1.386-0.429,1.728-1.103c0.421-0.833,0.264-1.847-0.43-2.781c-0.609-0.817-1.309-1.249-2.14-1.32
				c-2.05-0.175-4.434,1.829-6.286,3.593c-0.358,0.341-0.714,0.685-1.073,1.032C95,29.451,91.23,33.093,85.817,33.093z"/>
			<path class="st0" d="M103.438,18.762c-1.013,0-2.042-0.201-2.966-0.62c-1.593-0.719-2.659-2.133-3.083-4.091
				c-0.597-2.759,0.231-6.197,1.968-8.175c2.873-3.272,8.52-3.471,11.995-1.601c5.618,3.023,5.892,5.942,5.892,10.842
				c0,0.283-0.229,0.512-0.513,0.512s-0.512-0.229-0.512-0.512c0-4.768-0.227-7.182-5.352-9.938
				c-3.125-1.682-8.187-1.533-10.738,1.375c-1.516,1.724-2.262,4.854-1.737,7.281c0.246,1.135,0.878,2.641,2.502,3.374
				c2.04,0.918,4.647,0.634,6.065-0.666c1.018-0.932,1.267-2.25,0.72-3.812c-0.093-0.267,0.048-0.56,0.315-0.653
				c0.269-0.092,0.56,0.047,0.653,0.315c0.682,1.951,0.328,3.693-0.996,4.905C106.607,18.256,105.042,18.762,103.438,18.762z"/>
		</g>
		<path class="st0" d="M9.182,113.109c-0.163,0-0.319-0.078-0.416-0.213c-0.116-0.162-0.128-0.375-0.032-0.547l0.713-1.285
			c0.718-3.433,1.462-7.495,1.579-11.651c0.116-4.11-0.668-8.451-1.428-12.65c-0.168-0.927-0.334-1.847-0.488-2.751
			c-0.517-3.035-1.016-6.073-1.516-9.11c-0.581-3.54-1.163-7.08-1.773-10.614c-0.006-0.036-0.008-0.071-0.007-0.107
			c0.033-0.876,0.029-1.763,0.025-2.653c-0.008-1.968-0.016-4.004,0.377-5.964c0.685-3.42,1.871-8.29,4.254-11.073
			c1.691-1.974,3.52-2.873,5.438-2.687c2.272,0.228,4.546,2.098,6.237,5.132c0.235,0.42,0.453,0.888,0.673,1.363
			c0.446,0.96,0.908,1.952,1.54,2.558c0.721,0.689,1.549,1.388,2.351,2.063c0.419,0.353,0.833,0.701,1.226,1.043
			c0.643,0.561,1.938,0.505,2.632,0.477c0.298-0.012,0.462-0.019,0.6,0.011c0.276,0.062,0.45,0.335,0.388,0.612
			c-0.06,0.27-0.322,0.441-0.594,0.392c-0.07-0.005-0.193,0.002-0.35,0.009c-0.837,0.036-2.397,0.102-3.349-0.728
			c-0.389-0.338-0.798-0.683-1.212-1.032c-0.814-0.686-1.657-1.395-2.4-2.107c-0.772-0.739-1.274-1.82-1.76-2.866
			c-0.21-0.45-0.416-0.896-0.639-1.296c-1.526-2.737-3.51-4.417-5.444-4.61c-1.574-0.16-3.098,0.628-4.556,2.333
			c-2.229,2.601-3.366,7.3-4.028,10.607c-0.373,1.86-0.365,3.842-0.357,5.76c0.003,0.886,0.007,1.769-0.024,2.642
			c0.607,3.521,1.187,7.045,1.766,10.57c0.499,3.036,0.999,6.072,1.515,9.104c0.154,0.901,0.319,1.817,0.486,2.741
			c0.768,4.25,1.563,8.644,1.444,12.862c-0.121,4.267-0.885,8.414-1.617,11.908c-0.01,0.05-0.028,0.099-0.054,0.143l-0.167,0.303
			c3.32-1.2,3.641-4.616,3.979-8.211c0.034-0.369,0.069-0.738,0.106-1.105c0.308-2.959,0.229-5.774,0.146-8.754
			c-0.026-0.936-0.053-1.879-0.067-2.835c-0.054-3.668-0.346-7.412-0.895-11.442c-0.039-0.28,0.159-0.539,0.438-0.577
			c0.283-0.035,0.539,0.158,0.577,0.438c0.554,4.073,0.85,7.856,0.905,11.566c0.014,0.95,0.04,1.889,0.066,2.822
			c0.083,3.015,0.163,5.861-0.151,8.889c-0.039,0.363-0.072,0.729-0.107,1.095c-0.392,4.171-0.797,8.484-5.94,9.42
			C9.244,113.107,9.212,113.109,9.182,113.109z"/>
		<path class="st0" d="M15.636,108.458c-0.017,0-0.032,0-0.048,0c-0.907-0.036-1.464-0.951-1.655-2.719
			c-0.031-0.281,0.174-0.533,0.455-0.564c0.298-0.025,0.535,0.173,0.564,0.455c0.152,1.409,0.497,1.797,0.677,1.804
			c0.005,0,0.01,0,0.014,0c0.785,0,2.415-2.505,2.741-4.222c0.487-2.568,0.384-5.554,0.284-8.441
			c-0.037-1.069-0.073-2.117-0.078-3.115c-0.023-4.414-0.651-8.786-1.348-13.25c-0.044-0.28,0.148-0.542,0.427-0.585
			c0.281-0.039,0.542,0.149,0.586,0.427c0.703,4.504,1.336,8.919,1.36,13.403c0.005,0.988,0.041,2.026,0.078,3.084
			c0.103,2.943,0.208,5.987-0.301,8.667C19.059,105.155,17.253,108.458,15.636,108.458z"/>
		<path class="st0" d="M19.537,103.992c-0.018,0-0.034,0-0.052-0.001c-0.62-0.041-0.971-0.622-1.045-1.731
			c-0.019-0.283,0.195-0.526,0.478-0.545c0.276-0.015,0.526,0.195,0.545,0.478c0.03,0.45,0.099,0.662,0.141,0.751
			c0.621-0.295,2.142-2.897,2.335-3.867c1.15-5.779,0.375-11.933-0.373-17.884c-0.267-2.121-0.543-4.313-0.721-6.43
			c-0.024-0.282,0.185-0.53,0.468-0.553c0.282-0.03,0.529,0.185,0.553,0.466c0.177,2.096,0.451,4.278,0.717,6.388
			c0.759,6.033,1.544,12.271,0.361,18.213C22.785,100.078,20.986,103.992,19.537,103.992z"/>
		<path class="st0" d="M23.827,93.176c-0.335,0-0.792-0.176-1.137-0.966c-0.114-0.259,0.004-0.562,0.263-0.675
			c0.261-0.115,0.562,0.005,0.675,0.264c0.133,0.304,0.229,0.358,0.23,0.358c0.296-0.08,1.021-1.403,1.497-2.801
			c0.239-5.882,0.001-10.65-0.747-15.001c-0.048-0.279,0.139-0.544,0.417-0.592c0.285-0.046,0.544,0.14,0.592,0.418
			c0.764,4.443,1.005,9.301,0.758,15.29c-0.002,0.049-0.01,0.096-0.026,0.142c-0.351,1.052-1.294,3.508-2.48,3.562
			C23.857,93.175,23.842,93.176,23.827,93.176z"/>
		<path class="st0" d="M27.562,86.967c-0.375,0-0.819-0.098-1.334-0.372c-0.25-0.131-0.346-0.441-0.214-0.691
			c0.132-0.251,0.443-0.348,0.692-0.213c0.825,0.435,1.206,0.199,1.331,0.123c1.044-0.642,1.372-3.427,1.333-5.618
			c-0.036-2.096-0.101-4.192-0.167-6.29l-0.092-3.08c-0.007-0.283,0.215-0.519,0.498-0.526c0.277,0.009,0.52,0.215,0.527,0.498
			l0.092,3.077c0.065,2.102,0.131,4.203,0.167,6.304c0.027,1.604-0.096,5.447-1.823,6.509
			C28.328,86.836,27.991,86.967,27.562,86.967z"/>
		<path class="st0" d="M10.568,59.993c-0.08,0-0.16-0.005-0.241-0.016c-1.273-0.167-2.186-1.579-2.941-2.888
			c-0.142-0.245-0.058-0.559,0.188-0.7c0.246-0.142,0.558-0.058,0.7,0.188c0.425,0.736,1.309,2.269,2.187,2.383
			c0.314,0.044,0.643-0.108,0.995-0.463c0.533-0.534,0.68-1.642,0.809-2.619c0.052-0.398,0.104-0.779,0.175-1.108
			c0.06-0.278,0.334-0.452,0.609-0.393c0.277,0.061,0.452,0.333,0.392,0.61c-0.066,0.304-0.111,0.656-0.161,1.024
			c-0.15,1.139-0.321,2.429-1.099,3.208C11.669,59.734,11.128,59.993,10.568,59.993z"/>
		<path class="st0" d="M21.22,63.365c-0.574,0-1.168-0.26-1.773-0.779c-0.736-0.631-1.431-2.31-1.778-3.916
			c-0.411,0.837-0.997,1.522-1.88,1.522c-0.002,0-0.005,0-0.007,0c-1.023-0.005-1.836-1.049-2.289-2.939
			c-0.066-0.276,0.104-0.552,0.38-0.618c0.275-0.063,0.551,0.104,0.617,0.379c0.312,1.305,0.821,2.151,1.296,2.153
			c0.001,0,0.001,0,0.002,0c0.817,0,1.353-1.904,1.609-2.819c0.063-0.226,0.12-0.427,0.171-0.585
			c0.001-0.002,0.002-0.004,0.002-0.006c0.087-0.268,0.375-0.417,0.646-0.327c0.268,0.088,0.415,0.377,0.327,0.646
			c0,0.001,0,0.002-0.001,0.003c-0.396,1.22,0.615,4.911,1.569,5.729c0.495,0.425,0.933,0.596,1.303,0.509
			c0.885-0.208,1.577-1.838,2.034-2.915c0.105-0.248,0.203-0.479,0.295-0.68c0.119-0.257,0.423-0.367,0.68-0.25
			c0.258,0.119,0.37,0.423,0.251,0.68c-0.089,0.193-0.183,0.413-0.284,0.649c-0.57,1.345-1.352,3.187-2.744,3.514
			C21.508,63.349,21.364,63.365,21.22,63.365z"/>
		<path class="st0" d="M10.673,68.802c-0.029,0-0.058,0-0.086-0.002c-1.201-0.05-2.452-1.125-2.519-3.081L7.917,61.36l1.024-0.035
			l0.151,4.357c0.046,1.333,0.808,2.062,1.537,2.092c0.715,0.026,1.269-0.633,1.399-1.733c0.124-1.049,0.158-2.147,0.191-3.209
			c0.016-0.507,0.032-1.014,0.057-1.516c0.014-0.283,0.253-0.502,0.537-0.486c0.283,0.014,0.501,0.255,0.486,0.537
			c-0.025,0.496-0.041,0.997-0.056,1.497c-0.034,1.084-0.069,2.204-0.198,3.297C12.815,68.118,11.644,68.802,10.673,68.802z"/>
		<path class="st0" d="M14.559,70.271c-0.521,0-1.185-0.3-1.777-1.485c-0.126-0.253-0.023-0.561,0.229-0.688
			c0.252-0.125,0.563-0.023,0.688,0.229c0.149,0.299,0.541,0.989,0.932,0.912c0.634-0.122,1.433-1.688,1.518-2.696
			c0.091-1.096,0.026-2.259-0.036-3.385c-0.035-0.606-0.068-1.211-0.079-1.807c-0.005-0.283,0.22-0.516,0.502-0.522
			c0.275-0.009,0.517,0.22,0.522,0.503c0.011,0.583,0.044,1.174,0.077,1.768c0.064,1.16,0.132,2.36,0.035,3.528
			c-0.094,1.123-0.983,3.354-2.346,3.616C14.741,70.262,14.652,70.271,14.559,70.271z"/>
		<path class="st0" d="M18.5,68.62c-0.268,0-0.494-0.208-0.511-0.479c-0.018-0.282,0.193-0.525,0.474-0.545
			c0.089-0.008,1.857-0.197,2.236-2.722c0.042-0.279,0.302-0.469,0.583-0.431c0.28,0.042,0.473,0.303,0.432,0.583
			c-0.406,2.701-2.256,3.531-3.178,3.593C18.523,68.619,18.512,68.62,18.5,68.62z"/>
		<path class="st0" d="M24.241,69.262c-0.356,0-0.678-0.1-0.961-0.297c-1.023-0.717-1.126-2.526-1.194-3.723
			c-0.012-0.207-0.022-0.392-0.036-0.543c-0.027-0.283,0.179-0.532,0.461-0.559c0.285-0.036,0.532,0.18,0.559,0.462
			c0.016,0.162,0.028,0.36,0.04,0.582c0.05,0.877,0.143,2.509,0.759,2.942c0.068,0.047,0.275,0.194,0.763,0.045
			c0.72-0.215,0.819-1.207,0.881-2.585c0.025-0.556,0.049-1.083,0.158-1.513c0.07-0.274,0.348-0.439,0.624-0.372
			c0.274,0.07,0.44,0.35,0.371,0.624c-0.083,0.329-0.105,0.804-0.127,1.308c-0.061,1.372-0.138,3.08-1.61,3.521
			C24.685,69.225,24.457,69.262,24.241,69.262z"/>
		<path class="st0" d="M12.41,79.705c-0.187,0-0.372-0.032-0.557-0.099c-2.068-0.74-2.756-5.648-2.581-7.491
			c0.027-0.281,0.276-0.497,0.559-0.461c0.282,0.026,0.489,0.276,0.462,0.559c-0.194,2.041,0.675,5.987,1.906,6.428
			c0.639,0.229,1.413-0.749,1.819-1.352c0.158-0.235,0.476-0.299,0.711-0.139c0.234,0.158,0.297,0.477,0.139,0.711
			C14.042,79.087,13.218,79.705,12.41,79.705z"/>
		<path class="st0" d="M16.869,78.169c-0.78,0-1.467-0.589-2.098-1.8c-0.495-0.95-0.563-2.107-0.625-3.125
			c-0.018-0.302-0.035-0.597-0.064-0.877c-0.028-0.282,0.178-0.533,0.459-0.561c0.29-0.023,0.534,0.178,0.561,0.459
			c0.029,0.294,0.049,0.603,0.067,0.918c0.058,0.962,0.116,1.957,0.51,2.713c0.426,0.816,0.872,1.27,1.207,1.248
			c0.246-0.008,0.922-0.265,1.897-2.48c0.113-0.258,0.416-0.376,0.675-0.262c0.259,0.113,0.376,0.416,0.263,0.674
			c-0.914,2.077-1.804,3.06-2.8,3.093C16.904,78.168,16.886,78.169,16.869,78.169z"/>
		<path class="st0" d="M21.81,74.109c-0.263,0-0.513-0.053-0.749-0.163c-0.875-0.405-1.435-1.503-1.714-3.359
			c-0.042-0.28,0.151-0.541,0.431-0.583c0.283-0.038,0.54,0.152,0.583,0.431c0.289,1.924,0.832,2.442,1.13,2.581
			c0.316,0.145,0.743,0.052,1.272-0.275c1.043-0.648,1.162-1.63,1.311-2.872c0.053-0.438,0.107-0.881,0.204-1.317
			c0.061-0.276,0.333-0.453,0.61-0.39c0.277,0.062,0.452,0.335,0.39,0.611c-0.09,0.404-0.138,0.815-0.187,1.218
			c-0.161,1.334-0.327,2.713-1.789,3.621C22.769,73.943,22.269,74.109,21.81,74.109z"/>
		<path class="st0" d="M26.406,73.899c-0.158,0-0.315-0.016-0.469-0.049c-0.604-0.127-1.451-0.567-2.044-1.933
			c-0.113-0.259,0.006-0.562,0.266-0.674c0.261-0.114,0.562,0.006,0.674,0.266c0.333,0.764,0.788,1.227,1.317,1.338
			c0.53,0.111,1.158-0.136,1.768-0.697c1.218-1.119,1.695-2.793,1.502-5.269c-0.021-0.261,0.16-0.496,0.417-0.544
			c0.254-0.048,0.51,0.106,0.585,0.357l0.116,0.411c0.218,0.789,0.672,2.43,1.367,2.495c0.109,0.011,0.428-0.074,0.944-0.451
			c0.227-0.168,0.548-0.118,0.716,0.111c0.168,0.228,0.118,0.549-0.11,0.716c-0.641,0.469-1.196,0.681-1.645,0.645
			c-0.655-0.062-1.117-0.505-1.458-1.086c-0.243,1.411-0.821,2.525-1.74,3.369C27.904,73.556,27.136,73.899,26.406,73.899z"/>
		<path class="st0" d="M23.442,112.143c-1.697,0-3.53-0.494-4.273-1.907c-0.418-0.795-0.454-1.6-0.101-2.329
			c0.461-0.953,1.616-1.728,2.94-1.975c1.755-0.327,2.624,0.543,2.853,1.47c0.31,1.255-0.417,2.989-1.852,3.431
			c-0.273,0.083-0.558-0.07-0.641-0.34c-0.083-0.271,0.069-0.558,0.339-0.641c0.853-0.262,1.349-1.431,1.158-2.205
			c-0.199-0.807-1.017-0.828-1.668-0.708c-1.001,0.187-1.888,0.756-2.207,1.416c-0.21,0.435-0.183,0.894,0.085,1.404
			c0.625,1.189,2.572,1.458,4.05,1.329c3.801-0.332,6.691-3.305,8.13-5.976c2.142-3.979,2.746-8.802,3.221-13.809
			c0.209-2.209,0.125-4.291,0.037-6.494l-0.039-0.982c-0.324-8.71-0.814-21.87,8.93-27.717c4.241-2.545,11.057-4.113,15.441-1.232
			c-1.965-2.647-3.041-5.932-2.196-9.381c1.744-7.114,9.878-12.007,16.646-12.999c2.408-0.354,4.228-0.029,5.899,1.054
			c1.188,0.771,2.421,2.415,2.367,3.946c-0.024,0.669-0.305,1.605-1.509,2.27c-0.618,0.341-1.245,0.42-1.862,0.238
			c-1.103-0.326-1.761-1.365-1.993-1.797c-0.895-1.668,0.863-2.633,1.708-3.097c0.249-0.134,0.559-0.045,0.695,0.203
			c0.136,0.248,0.045,0.561-0.203,0.696c-1.313,0.72-1.615,1.12-1.297,1.713c0.133,0.249,0.627,1.077,1.38,1.299
			c0.352,0.104,0.704,0.055,1.077-0.153c0.639-0.352,0.959-0.813,0.98-1.408c0.039-1.098-0.956-2.438-1.9-3.049
			c-1.466-0.95-3.021-1.22-5.193-0.901c-6.528,0.957-14.222,5.794-15.799,12.23c-1.271,5.184,2.296,10.002,6.396,12.479
			c0.377,0.228,0.764,0.418,1.157,0.574c0.086-1.411,0.439-2.491,0.843-3.724c0.127-0.391,0.261-0.799,0.392-1.241
			c-0.454-0.164-0.871-0.362-1.229-0.588c-1.289-0.816-2.059-2.118-2.229-3.761c-0.236-2.269,0.747-4.97,2.391-6.57
			c1.463-1.426,3.372-2.102,5.523-1.957c2.584,0.175,5.199,1.575,6.825,3.653c3.307,4.23,1.8,8.765-0.713,11.601
			c-2.511,2.832-6.794,4.814-10.793,3.958c0.021,1.037,0.113,2.048,0.274,3.026c0.556,0.152,1.093,0.311,1.604,0.466l0.918,0.273
			c3.61,1.07,6.729,1.993,8.87,5.731c1.226,2.139,1.116,4.713-0.253,5.987c-0.549,0.51-2.109,1.51-4.718-0.246
			c-3.826-2.576-6.369-6.592-7.314-11.389c-0.756-0.193-1.54-0.366-2.334-0.491c0.146,2.009-0.134,4.062-0.858,5.961
			c-1.308,3.429-3.862,5.848-7.192,6.81c-2.355,0.681-4.856,0.239-7.038-1.245c-2.46-1.673-4.094-4.378-4.367-7.236
			c-0.387-4.033,3.191-7.519,6.776-8.245c2.922-0.593,5.227,0.673,6.251,3.392c1.55-0.55,3.338-0.768,5.255-0.611
			c-0.268-1.576-0.827-3.09-1.665-4.423c-3.406-5.425-11.689-3.815-16.483-0.938c-9.225,5.535-8.749,18.331-8.434,26.799
			l0.039,0.979c0.09,2.239,0.175,4.354-0.042,6.633c-0.485,5.115-1.106,10.05-3.338,14.197c-1.565,2.907-4.737,6.145-8.944,6.512
			C23.964,112.13,23.705,112.143,23.442,112.143z M52.899,60.459c-0.44,0-0.83,0.055-1.12,0.114
			c-3.083,0.625-6.289,3.712-5.959,7.143c0.245,2.558,1.711,4.983,3.924,6.486c1.924,1.309,4.117,1.703,6.177,1.107
			c3.012-0.87,5.327-3.069,6.518-6.19c0.697-1.825,0.949-3.802,0.778-5.728c-0.029-0.002-0.059-0.006-0.086-0.008
			c-1.849-0.169-3.561,0.036-5.023,0.565c0.271,1.526-0.059,3.521-0.85,4.894c-0.585,1.017-1.394,1.666-2.337,1.878
			c-1.152,0.259-1.714-0.157-1.986-0.549c-0.778-1.128,0.079-3.199,0.59-3.97c0.808-1.223,1.959-2.186,3.355-2.848
			C55.995,60.957,54.22,60.459,52.899,60.459z M67.702,64.317c0.967,4.309,3.313,7.907,6.774,10.235
			c1.43,0.964,2.654,1.087,3.448,0.346c0.888-0.826,1.154-2.82,0.062-4.727c-1.937-3.381-4.732-4.209-8.271-5.258l-0.923-0.275
			C68.439,64.532,68.075,64.423,67.702,64.317z M57.133,64.368c-1.144,0.578-2.085,1.387-2.754,2.397
			c-0.561,0.848-0.948,2.318-0.601,2.822c0.133,0.194,0.443,0.237,0.917,0.131c0.666-0.149,1.229-0.617,1.674-1.391
			C57.062,67.128,57.276,65.531,57.133,64.368z M64.138,62.469c0.771,0.11,1.53,0.265,2.265,0.443
			c-0.141-0.984-0.216-1.998-0.223-3.034c-0.567-0.196-1.125-0.455-1.667-0.782c-0.722-0.436-1.428-0.94-2.098-1.504
			C63.302,59.069,63.88,60.739,64.138,62.469z M67.212,59.115c3.669,0.896,7.682-0.947,10.023-3.589
			c2.24-2.525,3.592-6.555,0.673-10.288c-1.451-1.856-3.784-3.106-6.086-3.262c-1.288-0.084-3.159,0.131-4.739,1.668
			c-1.411,1.374-2.289,3.783-2.086,5.729c0.096,0.921,0.479,2.189,1.759,3.001c0.282,0.179,0.613,0.337,0.976,0.471
			c0.438-1.415,0.869-2.495,1.996-3.867c0.824-1.002,2.33-1.942,3.69-1.634c0.657,0.148,1.517,0.641,1.891,2.146
			c0.535,2.16-0.354,3.336-1.194,3.94c-1.406,1.013-3.736,1.139-5.694,0.687c-0.136,0.452-0.272,0.872-0.403,1.272
			C67.595,56.678,67.259,57.706,67.212,59.115z M68.716,53.129c1.683,0.372,3.68,0.274,4.799-0.531
			c0.849-0.612,1.117-1.575,0.798-2.863c-0.198-0.8-0.576-1.269-1.121-1.392c-0.793-0.179-1.915,0.361-2.673,1.285
			C69.508,50.859,69.136,51.771,68.716,53.129z"/>
		<path class="st0" d="M27.563,87.563c-0.937,0-1.834-0.195-2.583-0.596c-1.43-0.766-2.193-2.207-2.149-4.058
			c0.054-2.187,1.54-4.363,3.533-5.176c1.619-0.66,3.285-0.317,4.573,0.937c1.064,1.036,1.564,2.19,1.445,3.336
			c-0.122,1.164-0.896,2.254-2.184,3.067c-0.129,0.083-0.289,0.102-0.435,0.053c-0.146-0.048-0.262-0.159-0.317-0.303
			c-0.24-0.624-1.077-2.268-2.065-2.396c-0.519-0.068-1.076,0.307-1.666,1.113c-0.222,0.543-0.225,0.976-0.009,1.322
			c0.436,0.694,1.783,1.128,3.79,1.219c0.082,0.003,0.159,0.026,0.227,0.064c0.488-0.179,0.955-0.417,1.376-0.712
			c2.088-1.462,3.029-3.917,3.939-6.291l0.271-0.701c0.104-0.265,0.4-0.393,0.664-0.292c0.263,0.103,0.394,0.4,0.291,0.664
			l-0.268,0.696c-0.965,2.517-1.964,5.121-4.308,6.762C30.478,87.12,28.976,87.563,27.563,87.563z M27.986,78.428
			c-0.405,0-0.82,0.084-1.237,0.254c-1.633,0.666-2.85,2.454-2.895,4.251c-0.035,1.456,0.514,2.533,1.585,3.119
			c-0.251-0.19-0.453-0.405-0.603-0.646c-0.41-0.652-0.425-1.434-0.044-2.321c0.015-0.034,0.033-0.066,0.056-0.097
			c0.839-1.167,1.738-1.699,2.664-1.577c1.307,0.17,2.203,1.603,2.625,2.451c0.729-0.581,1.149-1.251,1.223-1.962
			c0.086-0.824-0.309-1.686-1.14-2.496C29.558,78.759,28.791,78.428,27.986,78.428z"/>
		<path class="st0" d="M27.793,105.406c-0.802,0-1.632-0.294-2.406-0.871c-1.052-0.783-1.634-1.75-1.729-2.873
			c-0.21-2.453,1.959-5.072,3.871-7.08c0.343-0.36,0.691-0.721,1.04-1.082c3.551-3.674,7.222-7.473,6.854-12.885
			c-0.02-0.282,0.194-0.526,0.477-0.545c0.287-0.006,0.527,0.194,0.546,0.477c0.398,5.865-3.434,9.831-7.14,13.666
			c-0.348,0.359-0.693,0.717-1.035,1.076c-1.765,1.853-3.768,4.241-3.593,6.286c0.07,0.831,0.502,1.529,1.32,2.138
			c0.935,0.696,1.947,0.853,2.781,0.43c0.673-0.34,1.106-1.02,1.103-1.728c-0.006-0.895-0.659-1.707-1.839-2.287
			c-0.254-0.124-0.359-0.431-0.234-0.685c0.124-0.254,0.431-0.359,0.685-0.234c1.525,0.749,2.405,1.915,2.413,3.2
			c0.006,1.094-0.647,2.134-1.665,2.649C28.785,105.291,28.294,105.406,27.793,105.406z"/>
		<path class="st0" d="M18.501,112.808c-4.899,0-7.818-0.273-10.842-5.89c-1.868-3.474-1.67-9.123,1.602-11.996
			c1.979-1.738,5.419-2.563,8.174-1.967c1.958,0.423,3.372,1.488,4.091,3.082c1.079,2.391,0.716,5.478-0.843,7.18
			c-1.212,1.324-2.954,1.679-4.906,0.996c-0.267-0.094-0.408-0.386-0.315-0.653c0.095-0.266,0.387-0.407,0.654-0.314
			c1.562,0.548,2.88,0.296,3.811-0.721c1.3-1.418,1.585-4.026,0.666-6.066c-0.733-1.623-2.239-2.256-3.374-2.502
			c-2.425-0.525-5.557,0.222-7.281,1.736c-2.906,2.552-3.058,7.614-1.375,10.741c2.758,5.124,5.171,5.351,9.939,5.351
			c0.283,0,0.513,0.229,0.513,0.512C19.014,112.58,18.784,112.808,18.501,112.808z"/>
		<path class="st0" d="M31.061,84c-0.365,0-0.725-0.128-1.064-0.384c-0.227-0.169-0.272-0.491-0.103-0.717
			c0.171-0.227,0.492-0.271,0.717-0.103c0.257,0.192,0.474,0.227,0.727,0.112c1.13-0.509,2.247-3.553,2.331-4.589
			c0.26-3.19-0.56-7.273-0.924-8.88l-0.117-0.518c-1.134-4.975-2.419-10.613,0.535-15.458c1.517-2.489,3.956-5.934,7.618-7.117
			c1.222-0.395,2.602-0.588,3.938-0.774c1.933-0.271,3.932-0.549,5.47-1.438c2.97-1.718,3.201-5.962,3.201-7.222
			c0-0.284,0.229-0.513,0.513-0.513c0.284,0,0.513,0.229,0.513,0.513c0,1.398-0.268,6.116-3.712,8.109
			c-1.712,0.99-3.812,1.283-5.842,1.566c-1.351,0.188-2.627,0.366-3.764,0.734c-3.337,1.079-5.626,4.327-7.058,6.675
			c-2.737,4.491-1.555,9.68-0.411,14.698l0.118,0.518c0.375,1.654,1.217,5.858,0.947,9.191c-0.072,0.877-1.151,4.638-2.933,5.439
			C31.526,83.948,31.292,84,31.061,84z"/>
		<path class="st0" d="M40.165,79.138c-0.253,0-0.511-0.035-0.769-0.107c-1.271-0.358-2.247-1.908-3.03-3.153
			c-0.221-0.352-0.426-0.678-0.614-0.937c-0.167-0.229-0.116-0.549,0.113-0.716c0.228-0.166,0.55-0.116,0.716,0.113
			c0.201,0.275,0.418,0.62,0.653,0.995c0.653,1.039,1.548,2.46,2.44,2.711c0.99,0.28,1.627-0.339,1.855-0.616
			c0.522-0.637,0.644-1.518,0.302-2.189c-0.301-0.589-0.767-0.932-1.24-0.892c-0.519,0.025-0.983,0.429-1.243,1.083
			c-0.105,0.263-0.402,0.392-0.666,0.288c-0.263-0.105-0.391-0.403-0.288-0.666c0.406-1.023,1.229-1.685,2.149-1.728
			c0.89-0.038,1.716,0.5,2.199,1.45c0.534,1.045,0.368,2.342-0.421,3.305C41.757,78.768,40.984,79.138,40.165,79.138z"/>
	</g>
</g>
</svg>
