<?xml version="1.0" encoding="utf-8"?>
<!-- Generator: Adobe Illustrator 14.0.0, SVG Export Plug-In . SVG Version: 6.00 Build 43363)  -->
<!DOCTYPE svg PUBLIC "-//W3C//DTD SVG 1.1//EN" "http://www.w3.org/Graphics/SVG/1.1/DTD/svg11.dtd">
<svg version="1.1" id="Layer_1" xmlns="http://www.w3.org/2000/svg" xmlns:xlink="http://www.w3.org/1999/xlink" x="0px" y="0px"
	 width="540px" height="720px" viewBox="0 0 540 720" style="enable-background:new 0 0 540 720;" xml:space="preserve">
<style type="text/css">
<![CDATA[
	.st0{fill:none;stroke:#00B9B1;stroke-width:1.3949;}
	.st1{fill:none;stroke:#00B9B1;stroke-width:1.395;}
]]>
</style>
<g>
	<g>
		<g>
			<line class="st0" x1="17.272" y1="658.44" x2="17.272" y2="693.834"/>
			<line class="st0" x1="8.986" y1="658.433" x2="8.986" y2="693.733"/>
			<line class="st0" x1="0.698" y1="658.416" x2="0.698" y2="693.716"/>
		</g>
		<g>
			<line class="st0" x1="17.272" y1="623.321" x2="17.272" y2="658.716"/>
			<line class="st0" x1="8.986" y1="623.314" x2="8.986" y2="658.615"/>
			<line class="st0" x1="0.698" y1="623.297" x2="0.698" y2="658.598"/>
		</g>
		<g>
			<line class="st0" x1="17.272" y1="588.203" x2="17.272" y2="623.598"/>
			<line class="st0" x1="8.986" y1="588.196" x2="8.986" y2="623.497"/>
			<line class="st0" x1="0.698" y1="588.179" x2="0.698" y2="623.48"/>
		</g>
		<g>
			<line class="st0" x1="17.272" y1="553.084" x2="17.272" y2="588.48"/>
			<line class="st0" x1="8.986" y1="553.078" x2="8.986" y2="588.377"/>
			<line class="st0" x1="0.698" y1="553.061" x2="0.698" y2="588.362"/>
		</g>
		<g>
			<line class="st0" x1="17.272" y1="517.966" x2="17.272" y2="553.361"/>
			<line class="st0" x1="8.986" y1="517.958" x2="8.986" y2="553.259"/>
			<line class="st0" x1="0.698" y1="517.942" x2="0.698" y2="553.243"/>
		</g>
		<g>
			<line class="st0" x1="17.272" y1="482.847" x2="17.272" y2="518.243"/>
			<line class="st0" x1="8.986" y1="482.84" x2="8.986" y2="518.141"/>
			<line class="st0" x1="0.698" y1="482.824" x2="0.698" y2="518.125"/>
		</g>
		<g>
			<line class="st0" x1="17.272" y1="447.729" x2="17.272" y2="483.125"/>
			<line class="st0" x1="8.986" y1="447.722" x2="8.986" y2="483.022"/>
			<line class="st0" x1="0.698" y1="447.706" x2="0.698" y2="483.006"/>
		</g>
		<g>
			<line class="st0" x1="17.272" y1="412.611" x2="17.272" y2="448.005"/>
			<line class="st0" x1="8.986" y1="412.604" x2="8.986" y2="447.904"/>
			<line class="st0" x1="0.698" y1="412.587" x2="0.698" y2="447.888"/>
		</g>
		<g>
			<line class="st0" x1="17.272" y1="377.492" x2="17.272" y2="412.887"/>
			<line class="st0" x1="8.986" y1="377.485" x2="8.986" y2="412.786"/>
			<line class="st0" x1="0.698" y1="377.468" x2="0.698" y2="412.769"/>
		</g>
		<g>
			<line class="st0" x1="17.272" y1="342.374" x2="17.272" y2="377.769"/>
			<line class="st0" x1="8.986" y1="342.367" x2="8.986" y2="377.667"/>
			<line class="st0" x1="0.698" y1="342.35" x2="0.698" y2="377.651"/>
		</g>
		<g>
			<line class="st0" x1="17.272" y1="307.255" x2="17.272" y2="342.65"/>
			<line class="st0" x1="8.986" y1="307.248" x2="8.986" y2="342.549"/>
			<line class="st0" x1="0.698" y1="307.231" x2="0.698" y2="342.532"/>
		</g>
		<g>
			<line class="st0" x1="17.272" y1="272.137" x2="17.272" y2="307.532"/>
			<line class="st0" x1="8.986" y1="272.13" x2="8.986" y2="307.43"/>
			<line class="st0" x1="0.698" y1="272.113" x2="0.698" y2="307.414"/>
		</g>
		<g>
			<line class="st0" x1="17.272" y1="237.018" x2="17.272" y2="272.414"/>
			<line class="st0" x1="8.986" y1="237.011" x2="8.986" y2="272.312"/>
			<line class="st0" x1="0.698" y1="236.995" x2="0.698" y2="272.295"/>
		</g>
		<g>
			<line class="st0" x1="17.272" y1="201.9" x2="17.272" y2="237.295"/>
			<line class="st0" x1="8.986" y1="201.893" x2="8.986" y2="237.193"/>
			<line class="st0" x1="0.698" y1="201.876" x2="0.698" y2="237.177"/>
		</g>
		<g>
			<line class="st0" x1="17.272" y1="166.781" x2="17.272" y2="202.177"/>
			<line class="st0" x1="8.986" y1="166.774" x2="8.986" y2="202.075"/>
			<line class="st0" x1="0.698" y1="166.758" x2="0.698" y2="202.059"/>
		</g>
		<g>
			<line class="st0" x1="17.272" y1="131.663" x2="17.272" y2="167.058"/>
			<line class="st0" x1="8.986" y1="131.656" x2="8.986" y2="166.957"/>
			<line class="st0" x1="0.698" y1="131.639" x2="0.698" y2="166.94"/>
		</g>
		<g>
			<line class="st0" x1="17.272" y1="96.544" x2="17.272" y2="131.94"/>
			<line class="st0" x1="8.986" y1="96.538" x2="8.986" y2="131.838"/>
			<line class="st0" x1="0.698" y1="96.521" x2="0.698" y2="131.822"/>
		</g>
		<g>
			<line class="st0" x1="17.272" y1="61.426" x2="17.272" y2="96.821"/>
			<line class="st0" x1="8.986" y1="61.419" x2="8.986" y2="96.72"/>
			<line class="st0" x1="0.698" y1="61.402" x2="0.698" y2="96.704"/>
		</g>
		<g>
			<line class="st0" x1="17.272" y1="26.308" x2="17.272" y2="61.703"/>
			<line class="st0" x1="8.986" y1="26.301" x2="8.986" y2="61.601"/>
			<line class="st0" x1="0.698" y1="26.284" x2="0.698" y2="61.585"/>
		</g>
		<g>
			<line class="st0" x1="61.244" y1="17.272" x2="26.166" y2="17.272"/>
			<line class="st0" x1="61.251" y1="8.986" x2="26.267" y2="8.986"/>
			<line class="st0" x1="61.268" y1="0.698" x2="26.283" y2="0.698"/>
		</g>
		<g>
			<line class="st0" x1="96.047" y1="17.272" x2="60.97" y2="17.272"/>
			<line class="st0" x1="96.055" y1="8.986" x2="61.071" y2="8.986"/>
			<line class="st0" x1="96.071" y1="0.698" x2="61.086" y2="0.698"/>
		</g>
		<g>
			<line class="st0" x1="130.851" y1="17.272" x2="95.773" y2="17.272"/>
			<line class="st0" x1="130.858" y1="8.986" x2="95.874" y2="8.986"/>
			<line class="st0" x1="130.875" y1="0.698" x2="95.89" y2="0.698"/>
		</g>
		<g>
			<line class="st0" x1="165.655" y1="17.272" x2="130.577" y2="17.272"/>
			<line class="st0" x1="165.662" y1="8.986" x2="130.678" y2="8.986"/>
			<line class="st0" x1="165.678" y1="0.698" x2="130.694" y2="0.698"/>
		</g>
		<g>
			<line class="st0" x1="200.458" y1="17.272" x2="165.38" y2="17.272"/>
			<line class="st0" x1="200.465" y1="8.986" x2="165.481" y2="8.986"/>
			<line class="st0" x1="200.482" y1="0.698" x2="165.498" y2="0.698"/>
		</g>
		<g>
			<line class="st0" x1="235.262" y1="17.272" x2="200.184" y2="17.272"/>
			<line class="st0" x1="235.269" y1="8.986" x2="200.285" y2="8.986"/>
			<line class="st0" x1="235.285" y1="0.698" x2="200.301" y2="0.698"/>
		</g>
		<g>
			<line class="st0" x1="270.065" y1="17.272" x2="234.988" y2="17.272"/>
			<line class="st0" x1="270.072" y1="8.986" x2="235.088" y2="8.986"/>
			<line class="st0" x1="270.089" y1="0.698" x2="235.104" y2="0.698"/>
		</g>
		<g>
			<line class="st0" x1="304.87" y1="17.272" x2="269.791" y2="17.272"/>
			<line class="st0" x1="304.876" y1="8.986" x2="269.892" y2="8.986"/>
			<line class="st0" x1="304.892" y1="0.698" x2="269.908" y2="0.698"/>
		</g>
		<g>
			<line class="st0" x1="339.672" y1="17.272" x2="304.595" y2="17.272"/>
			<line class="st0" x1="339.679" y1="8.986" x2="304.696" y2="8.986"/>
			<line class="st0" x1="339.696" y1="0.698" x2="304.711" y2="0.698"/>
		</g>
		<g>
			<line class="st0" x1="374.476" y1="17.272" x2="339.398" y2="17.272"/>
			<line class="st0" x1="374.483" y1="8.986" x2="339.5" y2="8.986"/>
			<line class="st0" x1="374.5" y1="0.698" x2="339.515" y2="0.698"/>
		</g>
		<g>
			<line class="st0" x1="409.28" y1="17.272" x2="374.202" y2="17.272"/>
			<line class="st0" x1="409.287" y1="8.986" x2="374.303" y2="8.986"/>
			<line class="st0" x1="409.303" y1="0.698" x2="374.319" y2="0.698"/>
		</g>
		<g>
			<line class="st0" x1="444.083" y1="17.272" x2="409.005" y2="17.272"/>
			<line class="st0" x1="444.09" y1="8.986" x2="409.107" y2="8.986"/>
			<line class="st0" x1="444.107" y1="0.698" x2="409.123" y2="0.698"/>
		</g>
		<g>
			<line class="st0" x1="478.887" y1="17.272" x2="443.809" y2="17.272"/>
			<line class="st0" x1="478.894" y1="8.986" x2="443.91" y2="8.986"/>
			<line class="st0" x1="478.911" y1="0.698" x2="443.926" y2="0.698"/>
		</g>
		<g>
			<line class="st0" x1="513.691" y1="17.272" x2="478.613" y2="17.272"/>
			<line class="st0" x1="513.698" y1="8.986" x2="478.713" y2="8.986"/>
			<line class="st0" x1="513.714" y1="0.698" x2="478.73" y2="0.698"/>
		</g>
		<g>
			<line class="st0" x1="522.727" y1="61.56" x2="522.727" y2="26.164"/>
			<line class="st0" x1="531.013" y1="61.566" x2="531.013" y2="26.266"/>
			<line class="st0" x1="539.301" y1="61.583" x2="539.301" y2="26.282"/>
		</g>
		<g>
			<line class="st0" x1="522.727" y1="96.678" x2="522.727" y2="61.283"/>
			<line class="st0" x1="531.013" y1="96.685" x2="531.013" y2="61.384"/>
			<line class="st0" x1="539.301" y1="96.702" x2="539.301" y2="61.401"/>
		</g>
		<g>
			<line class="st0" x1="522.727" y1="131.796" x2="522.727" y2="96.401"/>
			<line class="st0" x1="531.013" y1="131.803" x2="531.013" y2="96.503"/>
			<line class="st0" x1="539.301" y1="131.82" x2="539.301" y2="96.519"/>
		</g>
		<g>
			<line class="st0" x1="522.727" y1="166.915" x2="522.727" y2="131.52"/>
			<line class="st0" x1="531.013" y1="166.922" x2="531.013" y2="131.622"/>
			<line class="st0" x1="539.301" y1="166.938" x2="539.301" y2="131.638"/>
		</g>
		<g>
			<line class="st0" x1="522.727" y1="202.033" x2="522.727" y2="166.638"/>
			<line class="st0" x1="531.013" y1="202.04" x2="531.013" y2="166.74"/>
			<line class="st0" x1="539.301" y1="202.057" x2="539.301" y2="166.756"/>
		</g>
		<g>
			<line class="st0" x1="522.727" y1="237.152" x2="522.727" y2="201.756"/>
			<line class="st0" x1="531.013" y1="237.159" x2="531.013" y2="201.858"/>
			<line class="st0" x1="539.301" y1="237.175" x2="539.301" y2="201.875"/>
		</g>
		<g>
			<line class="st0" x1="522.727" y1="272.27" x2="522.727" y2="236.875"/>
			<line class="st0" x1="531.013" y1="272.277" x2="531.013" y2="236.977"/>
			<line class="st0" x1="539.301" y1="272.293" x2="539.301" y2="236.993"/>
		</g>
		<g>
			<line class="st0" x1="522.727" y1="307.389" x2="522.727" y2="271.993"/>
			<line class="st0" x1="531.013" y1="307.396" x2="531.013" y2="272.095"/>
			<line class="st0" x1="539.301" y1="307.412" x2="539.301" y2="272.111"/>
		</g>
		<g>
			<line class="st0" x1="522.727" y1="342.507" x2="522.727" y2="307.112"/>
			<line class="st0" x1="531.013" y1="342.514" x2="531.013" y2="307.213"/>
			<line class="st0" x1="539.301" y1="342.531" x2="539.301" y2="307.23"/>
		</g>
		<g>
			<line class="st0" x1="522.727" y1="377.625" x2="522.727" y2="342.23"/>
			<line class="st0" x1="531.013" y1="377.632" x2="531.013" y2="342.332"/>
			<line class="st0" x1="539.301" y1="377.649" x2="539.301" y2="342.348"/>
		</g>
		<g>
			<line class="st0" x1="522.727" y1="412.744" x2="522.727" y2="377.348"/>
			<line class="st0" x1="531.013" y1="412.75" x2="531.013" y2="377.451"/>
			<line class="st0" x1="539.301" y1="412.767" x2="539.301" y2="377.466"/>
		</g>
		<g>
			<line class="st0" x1="522.727" y1="447.862" x2="522.727" y2="412.467"/>
			<line class="st0" x1="531.013" y1="447.87" x2="531.013" y2="412.569"/>
			<line class="st0" x1="539.301" y1="447.886" x2="539.301" y2="412.585"/>
		</g>
		<g>
			<line class="st0" x1="522.727" y1="482.981" x2="522.727" y2="447.585"/>
			<line class="st0" x1="531.013" y1="482.988" x2="531.013" y2="447.687"/>
			<line class="st0" x1="539.301" y1="483.004" x2="539.301" y2="447.704"/>
		</g>
		<g>
			<line class="st0" x1="522.727" y1="518.099" x2="522.727" y2="482.704"/>
			<line class="st0" x1="531.013" y1="518.106" x2="531.013" y2="482.806"/>
			<line class="st0" x1="539.301" y1="518.123" x2="539.301" y2="482.822"/>
		</g>
		<g>
			<line class="st0" x1="522.727" y1="553.217" x2="522.727" y2="517.823"/>
			<line class="st0" x1="531.013" y1="553.224" x2="531.013" y2="517.924"/>
			<line class="st0" x1="539.301" y1="553.241" x2="539.301" y2="517.94"/>
		</g>
		<g>
			<line class="st0" x1="522.727" y1="588.336" x2="522.727" y2="552.941"/>
			<line class="st0" x1="531.013" y1="588.343" x2="531.013" y2="553.042"/>
			<line class="st0" x1="539.301" y1="588.36" x2="539.301" y2="553.059"/>
		</g>
		<g>
			<line class="st0" x1="522.727" y1="623.455" x2="522.727" y2="588.059"/>
			<line class="st0" x1="531.013" y1="623.461" x2="531.013" y2="588.161"/>
			<line class="st0" x1="539.301" y1="623.478" x2="539.301" y2="588.177"/>
		</g>
		<g>
			<line class="st0" x1="522.727" y1="658.573" x2="522.727" y2="623.177"/>
			<line class="st0" x1="531.013" y1="658.58" x2="531.013" y2="623.28"/>
			<line class="st0" x1="539.301" y1="658.596" x2="539.301" y2="623.295"/>
		</g>
		<g>
			<line class="st0" x1="522.727" y1="693.691" x2="522.727" y2="658.296"/>
			<line class="st0" x1="531.013" y1="693.699" x2="531.013" y2="658.398"/>
			<line class="st0" x1="539.301" y1="693.715" x2="539.301" y2="658.415"/>
		</g>
		<g>
			<line class="st0" x1="478.755" y1="702.727" x2="513.833" y2="702.727"/>
			<line class="st0" x1="478.749" y1="711.013" x2="513.732" y2="711.013"/>
			<line class="st0" x1="478.732" y1="719.301" x2="513.716" y2="719.301"/>
		</g>
		<g>
			<line class="st0" x1="443.952" y1="702.727" x2="479.03" y2="702.727"/>
			<line class="st0" x1="443.945" y1="711.013" x2="478.928" y2="711.013"/>
			<line class="st0" x1="443.928" y1="719.301" x2="478.913" y2="719.301"/>
		</g>
		<g>
			<line class="st0" x1="409.148" y1="702.727" x2="444.226" y2="702.727"/>
			<line class="st0" x1="409.141" y1="711.013" x2="444.125" y2="711.013"/>
			<line class="st0" x1="409.125" y1="719.301" x2="444.109" y2="719.301"/>
		</g>
		<g>
			<line class="st0" x1="374.344" y1="702.727" x2="409.422" y2="702.727"/>
			<line class="st0" x1="374.337" y1="711.013" x2="409.321" y2="711.013"/>
			<line class="st0" x1="374.321" y1="719.301" x2="409.305" y2="719.301"/>
		</g>
		<g>
			<line class="st0" x1="339.541" y1="702.727" x2="374.619" y2="702.727"/>
			<line class="st0" x1="339.534" y1="711.013" x2="374.518" y2="711.013"/>
			<line class="st0" x1="339.517" y1="719.301" x2="374.501" y2="719.301"/>
		</g>
		<g>
			<line class="st0" x1="304.737" y1="702.727" x2="339.815" y2="702.727"/>
			<line class="st0" x1="304.73" y1="711.013" x2="339.714" y2="711.013"/>
			<line class="st0" x1="304.713" y1="719.301" x2="339.698" y2="719.301"/>
		</g>
		<g>
			<line class="st0" x1="269.934" y1="702.727" x2="305.011" y2="702.727"/>
			<line class="st0" x1="269.927" y1="711.013" x2="304.911" y2="711.013"/>
			<line class="st0" x1="269.91" y1="719.301" x2="304.894" y2="719.301"/>
		</g>
		<g>
			<line class="st0" x1="235.13" y1="702.727" x2="270.208" y2="702.727"/>
			<line class="st0" x1="235.123" y1="711.013" x2="270.107" y2="711.013"/>
			<line class="st0" x1="235.106" y1="719.301" x2="270.091" y2="719.301"/>
		</g>
		<g>
			<line class="st0" x1="200.326" y1="702.727" x2="235.404" y2="702.727"/>
			<line class="st0" x1="200.319" y1="711.013" x2="235.303" y2="711.013"/>
			<line class="st0" x1="200.303" y1="719.301" x2="235.287" y2="719.301"/>
		</g>
		<g>
			<line class="st0" x1="165.522" y1="702.727" x2="200.601" y2="702.727"/>
			<line class="st0" x1="165.516" y1="711.013" x2="200.5" y2="711.013"/>
			<line class="st0" x1="165.5" y1="719.301" x2="200.483" y2="719.301"/>
		</g>
		<g>
			<line class="st0" x1="130.719" y1="702.727" x2="165.797" y2="702.727"/>
			<line class="st0" x1="130.712" y1="711.013" x2="165.696" y2="711.013"/>
			<line class="st0" x1="130.696" y1="719.301" x2="165.68" y2="719.301"/>
		</g>
		<g>
			<line class="st0" x1="95.916" y1="702.727" x2="130.994" y2="702.727"/>
			<line class="st0" x1="95.909" y1="711.013" x2="130.893" y2="711.013"/>
			<line class="st0" x1="95.892" y1="719.301" x2="130.876" y2="719.301"/>
		</g>
		<g>
			<line class="st0" x1="61.112" y1="702.727" x2="96.19" y2="702.727"/>
			<line class="st0" x1="61.105" y1="711.013" x2="96.089" y2="711.013"/>
			<line class="st0" x1="61.088" y1="719.301" x2="96.073" y2="719.301"/>
		</g>
		<g>
			<line class="st0" x1="26.308" y1="702.727" x2="61.386" y2="702.727"/>
			<line class="st0" x1="26.301" y1="711.013" x2="61.285" y2="711.013"/>
			<line class="st0" x1="26.285" y1="719.301" x2="61.269" y2="719.301"/>
		</g>
		<g>
			<polyline class="st1" points="26.497,0.697 8.868,0.697 8.839,8.847 0.702,8.847 0.702,26.466 			"/>
			<polyline class="st1" points="26.47,8.989 16.996,8.989 16.996,17.002 8.999,17.002 8.984,26.468 			"/>
			<polyline class="st1" points="25.688,16.564 25.688,25.698 16.598,25.698 			"/>
		</g>
		<g>
			<polyline class="st1" points="539.302,26.498 539.302,8.868 531.153,8.839 531.153,0.702 513.534,0.702 			"/>
			<polyline class="st1" points="531.01,26.471 531.01,16.996 522.997,16.996 522.997,8.999 513.532,8.984 			"/>
			<polyline class="st1" points="523.435,25.688 514.301,25.688 514.301,16.598 			"/>
		</g>
		<g>
			<polyline class="st1" points="513.502,719.302 531.13,719.302 531.16,711.153 539.296,711.153 539.296,693.533 			"/>
			<polyline class="st1" points="513.529,711.01 523.002,711.01 523.002,702.997 531,702.997 531.015,693.531 			"/>
			<polyline class="st1" points="514.31,703.435 514.31,694.301 523.402,694.301 			"/>
		</g>
		<g>
			<polyline class="st1" points="0.697,693.501 0.697,711.13 8.847,711.16 8.847,719.296 26.465,719.296 			"/>
			<polyline class="st1" points="8.989,693.529 8.989,703.002 17.002,703.002 17.002,711 26.467,711.015 			"/>
			<polyline class="st1" points="16.564,694.31 25.698,694.31 25.698,703.402 			"/>
		</g>
	</g>
</g>
</svg>
