<?xml version="1.0" encoding="utf-8"?>
<!-- Generator: Adobe Illustrator 14.0.0, SVG Export Plug-In . SVG Version: 6.00 Build 43363)  -->
<!DOCTYPE svg PUBLIC "-//W3C//DTD SVG 1.1//EN" "http://www.w3.org/Graphics/SVG/1.1/DTD/svg11.dtd">
<svg version="1.1" xmlns="http://www.w3.org/2000/svg" xmlns:xlink="http://www.w3.org/1999/xlink" x="0px" y="0px" width="540px"
	 height="720px" viewBox="0 0 540 720" style="enable-background:new 0 0 540 720;" xml:space="preserve">
<style type="text/css">
<![CDATA[
	.st0{fill:#E5D5AD;}
	.st1{fill:#F1D391;}
	.st2{fill:#F9F0DB;}
	.st3{fill:#CBAC5C;}
	.st4{fill:#DBC58D;}
]]>
</style>
<g id="Layer_2">
</g>
<g id="Layer_1">
	<g>
		<polygon class="st2" points="18.098,661.702 16.073,659.057 10.123,668.659 10.115,668.672 10.292,673.898 13.507,669.011 
			18.08,661.731 		"/>
		<polygon class="st2" points="18.983,639.998 19.259,654.559 21.621,658.828 22.143,645.05 22.212,630.423 22.212,630.406 
			15.878,621.818 9.115,611.76 9.424,602.169 9.605,596.844 9.608,596.844 9.837,585.504 9.837,585.488 6.349,580.2 6.254,585.944 
			5.57,596.742 5.565,596.742 5.567,596.793 5.563,596.844 5.569,596.844 6.024,609.213 5.99,611.175 5.99,611.193 10.158,616.29 
			18.812,628.644 		"/>
		<polygon class="st2" points="5.585,691.561 7.511,696.392 10.145,703.771 10.153,703.794 13.875,705.073 11.845,699.547 
			10.469,694.805 9.609,691.499 9.837,680.222 9.837,680.206 6.349,674.917 6.254,680.662 5.57,691.461 5.545,691.461 
			5.566,691.514 5.563,691.561 		"/>
		<polygon class="st2" points="18.08,567.015 18.098,566.985 16.073,564.34 10.123,573.942 10.115,573.955 10.292,579.181 
			13.507,574.294 		"/>
		<polygon class="st2" points="15.878,527.101 9.115,517.042 9.424,507.451 9.605,502.126 9.608,502.126 9.837,490.786 
			9.837,490.771 6.349,485.482 6.254,491.228 5.57,502.024 5.565,502.024 5.567,502.075 5.563,502.126 5.569,502.126 6.024,514.495 
			5.99,516.458 5.99,516.477 10.158,521.572 18.812,533.926 18.983,545.28 19.259,559.841 21.621,564.11 22.143,550.332 
			22.212,535.705 22.212,535.688 		"/>
		<polygon class="st2" points="18.08,472.297 18.098,472.268 16.073,469.622 10.123,479.225 10.115,479.237 10.292,484.463 
			13.507,479.576 		"/>
		<polygon class="st2" points="15.878,432.384 9.115,422.324 9.424,412.734 9.605,407.408 9.608,407.408 9.837,396.069 
			9.837,396.054 6.349,390.766 6.254,396.51 5.57,407.308 5.565,407.308 5.567,407.357 5.563,407.408 5.569,407.408 6.024,419.778 
			5.99,421.74 5.99,421.759 10.158,426.854 18.812,439.209 18.983,450.563 19.259,465.123 21.621,469.393 22.143,455.615 
			22.212,440.988 22.212,440.972 		"/>
		<polygon class="st2" points="18.08,377.58 18.098,377.551 16.073,374.904 10.123,384.508 10.115,384.521 10.292,389.746 
			13.507,384.858 		"/>
		<polygon class="st2" points="15.878,337.667 9.115,327.607 9.424,318.016 9.605,312.691 9.608,312.691 9.837,301.352 
			9.837,301.336 6.438,296.183 6.349,296.047 6.254,301.792 5.57,312.59 5.565,312.59 5.567,312.64 5.563,312.691 5.569,312.691 
			6.024,325.061 5.99,327.023 5.99,327.042 10.158,332.138 18.812,344.491 18.983,355.846 19.259,370.406 21.621,374.676 
			22.143,360.897 22.212,346.271 22.212,346.254 		"/>
		<polygon class="st2" points="18.08,282.862 18.098,282.833 16.073,280.188 10.123,289.79 10.115,289.803 10.292,295.028 
			13.507,290.142 		"/>
		<polygon class="st2" points="15.878,242.949 9.115,232.89 9.424,223.299 9.605,217.974 9.608,217.974 9.837,206.634 
			9.837,206.619 6.438,201.465 6.349,201.33 6.254,207.075 5.57,217.873 5.565,217.873 5.567,217.923 5.563,217.974 5.569,217.974 
			6.024,230.343 5.99,232.306 5.99,232.324 10.158,237.42 18.812,249.774 18.983,261.128 19.259,275.688 21.621,279.958 
			22.143,266.18 22.212,251.553 22.212,251.537 		"/>
		<polygon class="st2" points="18.08,188.145 18.098,188.116 16.073,185.47 10.123,195.073 10.115,195.085 10.292,200.311 
			13.507,195.424 		"/>
		<polygon class="st2" points="15.878,148.232 9.115,138.172 9.424,128.582 9.605,123.256 9.608,123.256 9.837,111.917 
			9.837,111.901 6.438,106.748 6.349,106.613 6.254,112.357 5.57,123.155 5.565,123.155 5.567,123.205 5.563,123.256 5.569,123.256 
			6.024,135.626 5.99,137.588 5.99,137.607 10.158,142.703 18.812,155.056 18.983,166.411 19.259,180.971 21.621,185.241 
			22.143,171.463 22.212,156.836 22.212,156.82 		"/>
		<polygon class="st2" points="18.08,93.428 18.098,93.398 16.073,90.752 10.123,100.355 10.115,100.368 10.292,105.593 
			13.507,100.707 		"/>
		<polygon class="st2" points="58.891,18.098 61.53,16.118 61.589,16.073 51.794,10.122 51.782,10.115 46.454,10.292 51.438,13.507 
					"/>
		<polygon class="st2" points="90.794,22.212 90.81,22.212 99.568,15.879 109.829,9.115 119.611,9.424 125.043,9.605 125.043,9.608 
			136.608,9.837 136.623,9.837 141.879,6.438 142.017,6.349 136.159,6.254 125.145,5.57 125.145,5.565 125.094,5.567 125.043,5.563 
			125.043,5.568 112.427,6.024 110.425,5.99 110.407,5.99 105.209,10.158 92.61,18.812 81.028,18.983 66.178,19.259 61.824,21.621 
			75.876,22.143 		"/>
		<polygon class="st2" points="155.496,18.098 158.134,16.118 158.194,16.073 148.399,10.122 148.386,10.115 143.058,10.292 
			148.042,13.507 		"/>
		<polygon class="st2" points="187.398,22.212 187.415,22.212 196.173,15.879 206.433,9.115 216.216,9.424 221.648,9.605 
			221.648,9.608 233.212,9.837 233.228,9.837 238.484,6.438 238.622,6.349 232.763,6.254 221.749,5.57 221.749,5.565 221.699,5.567 
			221.648,5.563 221.648,5.568 209.031,6.024 207.029,5.99 207.011,5.99 201.814,10.158 189.214,18.812 177.633,18.983 
			162.782,19.259 158.428,21.621 172.48,22.143 		"/>
		<polygon class="st2" points="252.1,18.098 254.739,16.118 254.798,16.073 245.003,10.122 244.991,10.115 239.662,10.292 
			244.646,13.507 		"/>
		<polygon class="st2" points="284.003,22.212 284.019,22.212 292.777,15.879 303.038,9.115 312.819,9.424 318.252,9.605 
			318.252,9.608 329.816,9.837 329.832,9.837 335.088,6.438 335.226,6.349 329.367,6.254 318.354,5.57 318.354,5.565 318.303,5.567 
			318.252,5.563 318.252,5.568 305.636,6.024 303.634,5.99 303.615,5.99 298.418,10.158 285.818,18.812 274.237,18.983 
			259.387,19.259 255.032,21.621 269.084,22.143 		"/>
		<polygon class="st2" points="348.704,18.098 351.344,16.118 351.402,16.073 341.608,10.122 341.596,10.115 336.267,10.292 
			341.251,13.507 		"/>
		<polygon class="st2" points="380.607,22.212 380.623,22.212 389.382,15.879 399.643,9.115 409.424,9.424 414.856,9.605 
			414.856,9.608 426.421,9.837 426.437,9.837 431.692,6.438 431.83,6.349 425.972,6.254 414.958,5.57 414.958,5.565 414.907,5.567 
			414.856,5.563 414.856,5.568 402.239,6.024 400.238,5.99 400.22,5.99 395.022,10.158 382.423,18.812 370.842,18.983 
			355.991,19.259 351.637,21.621 365.688,22.143 		"/>
		<polygon class="st2" points="445.309,18.098 447.948,16.118 448.007,16.073 438.213,10.122 438.2,10.115 432.871,10.292 
			437.855,13.507 		"/>
		<polygon class="st2" points="477.212,22.212 477.228,22.212 485.986,15.879 496.246,9.115 506.028,9.424 511.46,9.605 
			511.46,9.621 514.368,10.357 525.598,14.207 532.129,16.407 532.167,16.42 533.192,14.72 534.486,13.498 524.827,10.413 
			518.641,8.292 511.563,5.595 511.563,5.565 511.492,5.567 511.46,5.555 511.46,5.569 498.844,6.024 496.843,5.99 496.824,5.99 
			491.627,10.158 479.027,18.812 467.446,18.983 452.596,19.259 448.241,21.621 462.293,22.143 		"/>
		<polygon class="st2" points="529.886,51.328 529.713,46.26 529.708,46.103 526.493,50.989 521.921,58.268 521.902,58.297 
			523.927,60.943 529.878,51.34 		"/>
		<polygon class="st2" points="529.886,146.045 529.713,140.977 529.708,140.82 526.493,145.707 521.921,152.985 521.902,153.015 
			523.927,155.661 529.878,146.058 		"/>
		<polygon class="st2" points="534.431,123.157 533.976,110.787 534.01,108.825 534.011,108.806 529.842,103.71 521.188,91.357 
			521.017,80.002 520.741,65.442 518.38,61.172 517.857,74.95 517.788,89.577 517.788,89.593 524.121,98.181 530.884,108.241 
			530.576,117.832 530.396,123.157 530.392,123.157 530.163,134.496 530.162,134.512 533.562,139.665 533.65,139.8 533.745,134.056 
			534.43,123.258 534.435,123.258 534.433,123.208 534.437,123.157 		"/>
		<polygon class="st2" points="529.886,240.763 529.713,235.694 529.708,235.537 526.493,240.424 521.921,247.703 521.902,247.732 
			523.927,250.378 529.878,240.775 		"/>
		<polygon class="st2" points="534.431,217.874 533.976,205.504 534.01,203.542 534.011,203.523 529.842,198.427 521.188,186.074 
			521.017,174.72 520.741,160.159 518.38,155.889 517.857,169.667 517.788,184.294 517.788,184.311 524.121,192.898 
			530.884,202.958 530.576,212.549 530.396,217.874 530.392,217.874 530.163,229.213 530.162,229.229 533.562,234.383 
			533.65,234.518 533.745,228.773 534.43,217.975 534.435,217.975 534.433,217.925 534.437,217.874 		"/>
		<polygon class="st2" points="529.886,335.48 529.713,330.412 529.708,330.254 526.493,335.141 521.921,342.42 521.902,342.45 
			523.927,345.095 529.878,335.493 		"/>
		<polygon class="st2" points="534.431,312.591 533.976,300.222 534.01,298.26 534.011,298.241 529.842,293.145 521.188,280.792 
			521.017,269.437 520.741,254.876 518.38,250.606 517.857,264.385 517.788,279.012 517.788,279.028 524.121,287.616 
			530.884,297.675 530.576,307.267 530.396,312.591 530.392,312.591 530.163,323.931 530.162,323.947 533.562,329.1 533.65,329.235 
			533.745,323.49 534.43,312.693 534.435,312.693 534.433,312.643 534.437,312.591 		"/>
		<polygon class="st2" points="529.886,430.197 529.713,425.129 529.708,424.972 526.493,429.858 521.921,437.138 521.902,437.167 
			523.927,439.813 529.878,430.21 		"/>
		<polygon class="st2" points="534.431,407.309 533.976,394.939 534.01,392.977 534.011,392.958 529.842,387.862 521.188,375.509 
			521.017,364.154 520.741,349.594 518.38,345.324 517.857,359.103 517.788,373.729 517.788,373.746 524.122,382.334 
			530.884,392.393 530.576,401.983 530.396,407.309 530.392,407.309 530.163,418.648 530.162,418.664 533.65,423.952 
			533.745,418.208 534.43,407.41 534.435,407.41 534.433,407.36 534.437,407.309 		"/>
		<polygon class="st2" points="529.886,524.915 529.713,519.846 529.708,519.688 526.493,524.576 521.921,531.855 521.902,531.885 
			523.927,534.53 529.878,524.928 		"/>
		<polygon class="st2" points="534.431,502.026 533.976,489.656 534.01,487.694 534.011,487.676 529.842,482.58 521.188,470.227 
			521.017,458.872 520.741,444.312 518.38,440.042 517.857,453.82 517.788,468.446 517.788,468.463 524.121,477.051 530.884,487.11 
			530.576,496.701 530.396,502.026 530.392,502.026 530.163,513.366 530.162,513.382 533.65,518.67 533.745,512.925 534.43,502.128 
			534.435,502.128 534.433,502.078 534.437,502.026 		"/>
		<polygon class="st2" points="526.493,619.293 521.921,626.572 521.902,626.602 523.927,629.247 529.878,619.645 529.886,619.632 
			529.713,614.563 529.708,614.406 		"/>
		<polygon class="st2" points="534.431,596.744 533.976,584.374 534.01,582.412 534.011,582.394 529.842,577.297 521.188,564.943 
			521.017,553.589 520.741,539.028 518.38,534.759 517.857,548.537 517.788,563.164 517.788,563.181 524.122,571.769 
			530.884,581.827 530.576,591.418 530.396,596.744 530.392,596.744 530.163,608.083 530.162,608.099 533.65,613.387 
			533.745,607.643 534.43,596.845 534.435,596.845 534.433,596.795 534.437,596.744 		"/>
		<polygon class="st2" points="481.138,701.92 481.108,701.902 478.411,703.927 488.205,709.878 488.218,709.886 493.387,709.713 
			493.546,709.708 488.563,706.492 		"/>
		<polygon class="st2" points="449.206,697.788 449.19,697.788 440.432,704.121 430.171,710.884 420.389,710.576 414.956,710.396 
			414.956,710.392 403.392,710.163 403.376,710.163 397.982,713.65 403.842,713.745 414.855,714.43 414.855,714.435 
			414.906,714.433 414.956,714.436 414.956,714.431 427.573,713.976 429.575,714.01 429.594,714.011 434.791,709.842 
			447.39,701.188 458.972,701.017 473.822,700.741 478.176,698.38 464.124,697.857 		"/>
		<polygon class="st2" points="384.534,701.92 384.505,701.902 381.807,703.927 391.601,709.878 391.613,709.886 396.782,709.713 
			396.941,709.708 391.958,706.492 		"/>
		<polygon class="st2" points="352.602,697.788 352.586,697.788 343.827,704.121 333.566,710.884 323.784,710.576 318.352,710.396 
			318.352,710.392 306.787,710.163 306.771,710.163 301.379,713.65 307.237,713.745 318.251,714.43 318.251,714.435 
			318.301,714.433 318.352,714.436 318.352,714.431 330.969,713.976 332.971,714.01 332.989,714.011 338.187,709.842 
			350.786,701.188 362.367,701.017 377.218,700.741 381.571,698.38 367.52,697.857 		"/>
		<polygon class="st2" points="287.93,701.92 287.9,701.902 285.202,703.927 294.996,709.878 295.009,709.886 300.178,709.713 
			300.337,709.708 295.354,706.492 		"/>
		<polygon class="st2" points="255.997,697.788 255.981,697.788 247.223,704.121 236.963,710.884 227.18,710.576 221.748,710.396 
			221.748,710.392 210.183,710.163 210.168,710.163 204.912,713.562 204.773,713.65 210.633,713.745 221.646,714.43 
			221.646,714.435 221.697,714.433 221.748,714.436 221.748,714.431 234.365,713.976 236.366,714.01 236.384,714.011 
			241.582,709.842 254.181,701.188 265.763,701.017 280.613,700.741 284.808,698.467 284.969,698.38 270.916,697.857 		"/>
		<polygon class="st2" points="191.325,701.92 191.296,701.902 188.657,703.883 188.598,703.927 198.392,709.878 198.405,709.886 
			203.573,709.713 203.733,709.708 198.749,706.492 		"/>
		<polygon class="st2" points="159.393,697.788 159.376,697.788 150.619,704.121 140.358,710.884 130.575,710.576 125.143,710.396 
			125.143,710.392 113.579,710.163 113.564,710.163 108.308,713.562 108.169,713.65 114.028,713.745 125.042,714.43 
			125.042,714.435 125.093,714.433 125.143,714.436 125.143,714.431 137.76,713.976 139.762,714.01 139.78,714.011 144.978,709.842 
			157.577,701.188 169.159,701.017 184.009,700.741 188.363,698.38 174.311,697.857 		"/>
		<polygon class="st2" points="94.721,701.92 94.691,701.902 92.053,703.883 91.993,703.927 101.788,709.878 101.801,709.886 
			106.969,709.713 107.129,709.708 102.145,706.492 		"/>
		<polygon class="st2" points="62.789,697.788 62.772,697.788 54.014,704.121 43.754,710.884 33.971,710.576 28.54,710.396 
			28.54,710.379 25.632,709.644 14.403,705.792 7.872,703.593 7.833,703.58 6.808,705.281 5.575,706.444 5.513,706.502 
			15.173,709.587 21.359,711.708 28.438,714.405 28.438,714.435 28.507,714.432 28.54,714.444 28.54,714.431 41.156,713.976 
			43.157,714.01 43.175,714.011 48.373,709.842 60.973,701.188 72.554,701.017 87.405,700.741 91.759,698.38 77.707,697.857 		"/>
		<polygon class="st2" points="8.292,21.359 5.595,28.438 5.565,28.438 5.567,28.508 5.555,28.54 5.569,28.54 6.024,40.909 
			5.99,42.871 5.99,42.89 10.158,47.986 18.812,60.339 18.983,71.693 19.259,86.254 21.621,90.523 22.143,76.745 22.212,62.119 
			22.212,62.103 15.878,53.515 9.115,43.455 9.424,33.864 9.605,28.54 9.621,28.54 10.357,25.632 14.207,14.403 16.407,7.872 
			16.42,7.833 14.72,6.808 13.556,5.575 13.498,5.513 10.413,15.173 		"/>
		<polygon class="st2" points="7.289,16.118 9.615,15.375 9.638,15.367 11.062,11.597 8.157,12.724 5.323,13.345 7.267,16.088 		"/>
		<polygon class="st2" points="16.229,10.145 16.206,10.153 14.926,13.875 20.453,11.845 25.196,10.469 28.501,9.609 40.004,9.837 
			40.019,9.837 45.275,6.438 45.413,6.349 39.554,6.254 28.539,5.57 28.539,5.545 28.486,5.566 28.439,5.563 28.439,5.585 
			23.609,7.511 		"/>
		<polygon class="st2" points="524.633,9.639 528.403,11.062 527.276,8.157 526.671,5.396 526.654,5.323 523.911,7.267 
			523.882,7.289 524.625,9.616 		"/>
		<polygon class="st2" points="534.434,28.484 534.437,28.439 534.415,28.439 532.489,23.609 529.854,16.229 529.847,16.206 
			526.125,14.926 528.155,20.454 529.53,25.196 530.391,28.501 530.163,39.779 530.162,39.794 533.562,44.948 533.65,45.083 
			533.745,39.338 534.43,28.539 534.455,28.539 		"/>
		<polygon class="st2" points="531.708,698.641 534.405,691.563 534.435,691.563 534.432,691.492 534.444,691.46 534.431,691.46 
			533.976,679.092 534.01,677.129 534.011,677.11 529.842,672.015 521.188,659.661 521.017,648.307 520.741,633.746 518.38,629.477 
			517.857,643.255 517.788,657.882 517.788,657.898 524.122,666.486 530.884,676.545 530.576,686.136 530.396,691.46 
			530.379,691.46 529.644,694.368 525.792,705.598 523.593,712.129 523.58,712.167 525.281,713.192 526.444,714.425 
			526.502,714.486 529.587,704.827 		"/>
		<polygon class="st2" points="532.733,703.911 532.712,703.882 530.384,704.625 530.361,704.633 528.978,708.299 528.938,708.403 
			531.843,707.276 534.604,706.671 534.677,706.654 		"/>
		<polygon class="st2" points="523.771,709.854 523.794,709.847 525.073,706.125 519.547,708.155 514.805,709.53 511.499,710.391 
			499.996,710.163 499.98,710.163 494.587,713.65 500.446,713.745 511.461,714.43 511.461,714.455 511.516,714.434 511.561,714.436 
			511.561,714.415 516.392,712.489 		"/>
		<polygon class="st2" points="15.367,710.361 11.702,708.978 11.597,708.938 12.724,711.843 13.345,714.677 16.088,712.733 
			16.118,712.712 15.375,710.384 		"/>
	</g>
</g>
<g id="Layer_4">
	<g>
		<path class="st3" d="M540.78,691.511l0.002-0.052h-0.115l-0.504-25.599l0.412-28.324l-0.412-28.719l0.501-11.973h0.005
			l-0.002-0.083l0.001-0.018h-0.001l-0.504-25.601l0.412-28.325l-0.412-28.719l0.501-11.972h0.005l-0.002-0.084l0.001-0.018h-0.001
			l-0.504-25.601l0.412-28.325l-0.412-28.719l0.501-11.972h0.005l-0.002-0.084l0.001-0.018h-0.001l-0.504-25.6l0.412-28.325
			l-0.412-28.72l0.501-11.972h0.005l-0.002-0.083l0.001-0.018h-0.001l-0.504-25.6l0.412-28.324l-0.412-28.72l0.501-11.972h0.005
			l-0.002-0.083l0.001-0.018h-0.001l-0.504-25.6l0.412-28.325l-0.412-28.719l0.501-11.972h0.005l-0.002-0.083l0.001-0.018h-0.001
			l-0.504-25.6l0.412-28.325l-0.412-28.719l0.501-11.974h0.003l-0.002-0.029l0.001-0.019l0.002-0.052h-0.007l-0.574-9.362
			l0.47-10.48l-0.481-9.008l-0.002-0.047l-5.21-0.02l-7.694,0.283l-7.855-0.249l-7.803-0.337l-0.052-0.002v0.116L485.35-0.163
			l-28.889-0.412L427.17-0.163l-12.212-0.5v-0.005l-0.087,0.001l-0.015,0v0.001l-26.111,0.504l-28.889-0.412l-29.291,0.412
			l-12.212-0.5v-0.005l-0.087,0.001l-0.015,0v0.001l-26.111,0.504l-28.888-0.412l-29.292,0.412l-12.212-0.5v-0.005l-0.086,0.001
			l-0.015,0v0.001l-26.112,0.504l-28.888-0.412l-29.292,0.412l-12.211-0.5v-0.005l-0.087,0.001l-0.015,0v0.001L98.932-0.163
			L70.043-0.575L40.752-0.163l-12.213-0.5v-0.004l-0.043,0.002h-0.005l-0.052-0.002v0.006l-9.361,0.576L8.597-0.557l-9.008,0.482
			l-0.047,0.002l-0.02,5.209l0.283,7.695l-0.249,7.854l-0.337,7.803l-0.002,0.052h0.116l0.504,25.599l-0.412,28.324l0.412,28.72
			l-0.5,11.972h-0.005l0.002,0.086l-0.001,0.015h0.001l0.504,25.6l-0.412,28.325l0.412,28.719l-0.5,11.972h-0.005l0.002,0.086
			l-0.001,0.015h0.001l0.504,25.601l-0.412,28.324l0.412,28.719l-0.5,11.972h-0.005l0.002,0.086l-0.001,0.015h0.001l0.504,25.601
			l-0.412,28.324l0.412,28.719l-0.5,11.973h-0.005l0.002,0.086l-0.001,0.015h0.001l0.504,25.601l-0.412,28.325l0.412,28.719
			l-0.5,11.972h-0.005l0.002,0.086l-0.001,0.016h0.001l0.504,25.601l-0.412,28.324l0.412,28.72l-0.5,11.972h-0.005l0.002,0.086
			l-0.001,0.016h0.001l0.504,25.6l-0.412,28.325l0.412,28.719l-0.5,11.974h-0.004l0.002,0.043v0.005l-0.002,0.052h0.006l0.576,9.362
			l-0.471,10.48l0.482,9.009l0.002,0.047l5.209,0.019l7.695-0.283l7.854,0.249l7.803,0.338l0.052,0.002v-0.116l26.11-0.504
			l28.888,0.412l29.292-0.412l12.211,0.501v0.005l0.084-0.002l0.017,0.001v-0.001l26.112-0.504l28.888,0.412l29.292-0.412
			l12.211,0.501v0.005l0.084-0.002l0.017,0.001v-0.001l26.112-0.504l28.889,0.412l29.291-0.412l12.212,0.501v0.005l0.084-0.002
			l0.017,0.001v-0.001l26.111-0.504l28.89,0.412l29.291-0.412l12.212,0.501v0.005l0.084-0.002l0.017,0.001v-0.001l26.111-0.504
			l28.89,0.412l29.291-0.412l12.213,0.501v0.003l0.028-0.002l0.02,0.001l0.052,0.002v-0.007l9.362-0.574l10.48,0.47l9.008-0.481
			l0.047-0.002l0.02-5.21l-0.283-7.694l0.249-7.855L540.78,691.511z M490.299,715.525l-9.561,0.208l-38.043-0.414l-27.773,0.344
			l-21.228-0.138l-9.56,0.208l-38.044-0.414l-27.773,0.344l-21.228-0.138l-9.56,0.208l-38.043-0.414l-27.773,0.344l-21.228-0.138
			l-9.56,0.208l-38.043-0.414l-27.773,0.344l-21.228-0.138l-9.56,0.208l-38.042-0.414l-27.737,0.343v-0.137l-10.934-0.03
			l-7.542,0.288l-6.035-0.271l0.66-13.815l-0.352-10.188l-0.001-0.043l0.137-20.753l-0.207-9.373l0.414-37.301l-0.344-27.23
			l0.137-20.813l-0.207-9.373l0.414-37.3l-0.344-27.23l0.137-20.813l-0.207-9.373l0.414-37.301l-0.344-27.23l0.137-20.813
			l-0.207-9.373l0.414-37.3l-0.344-27.231l0.137-20.813l-0.207-9.374l0.414-37.3l-0.344-27.23l0.137-20.813l-0.207-9.374l0.414-37.3
			l-0.344-27.23l0.137-20.814l-0.207-9.374l0.414-37.299L4.337,28.541h0.137l0.03-10.934l-0.287-7.542l0.271-6.035l13.816,0.66
			l10.187-0.352l0.044-0.001l21.167,0.137l9.56-0.207l38.042,0.414h0.001l27.773-0.344l21.228,0.137l9.561-0.207l38.042,0.414h0.001
			l27.773-0.344l21.228,0.137l9.561-0.207l38.041,0.414h0.002l27.773-0.344l21.228,0.137l9.56-0.207l38.042,0.414h0.002
			l27.772-0.344l21.229,0.137l9.56-0.207l38.042,0.414h0.002l27.736-0.343v0.137l10.934,0.03l7.542-0.288l6.034,0.271l-0.659,13.815
			l0.352,10.188l0.001,0.034l-0.137,20.762l0.208,9.374l-0.414,37.3l0.344,27.23l-0.138,20.813l0.208,9.374l-0.414,37.3l0.344,27.23
			l-0.138,20.814l0.208,9.374l-0.414,37.299l0.344,27.23l-0.138,20.814l0.208,9.374l-0.414,37.3l0.344,27.229l-0.138,20.814
			l0.208,9.373l-0.414,37.3l0.344,27.23l-0.138,20.813l0.208,9.373l-0.414,37.301l0.344,27.23l-0.138,20.813l0.208,9.373
			l-0.414,37.3l0.343,27.194h-0.137l-0.03,10.934l0.287,7.542l-0.271,6.034l-13.815-0.659l-10.188,0.352l-0.034,0.001
			L490.299,715.525z"/>
		<path class="st3" d="M511.49,696.032h0.021l0.049-0.001v-0.005l1.479-0.13l1.252-0.054l1.377-0.215l0.223-1.691l0.128-2.376h0.004
			l0.628-38.865v-18.351l-0.618-37.552l-0.001-0.049h-0.007l0.626-38.767v-18.351l-0.618-37.552l-0.001-0.049h-0.007l0.626-38.766
			V444.91l-0.618-37.553l-0.001-0.049h-0.007l0.626-38.766v-18.351l-0.618-37.552l-0.001-0.049h-0.007l0.626-38.766v-18.351
			l-0.618-37.552l-0.001-0.049h-0.007l0.626-38.766v-18.35l-0.618-37.552l-0.001-0.049h-0.007l0.626-38.766V66.04l-0.617-37.501
			h0.002l-0.003-0.029v-0.021l-0.001-0.049h-0.005l-0.13-1.479l-0.054-1.252l-0.215-1.376l-1.691-0.224l-1.498-0.084l-0.878-0.042
			v-0.005l-39.639-0.628h-18.716l-38.301,0.618l-0.049,0v0.008l-39.539-0.626h-18.716l-38.301,0.618l-0.049,0v0.008l-39.539-0.626
			h-18.716l-38.3,0.618l-0.049,0v0.008l-39.539-0.626h-18.716l-38.3,0.618l-0.049,0v0.008L85.504,23.35H66.788l-38.249,0.617v-0.001
			l-0.022,0.002l-0.028,0l-0.049,0v0.006l-1.479,0.13l-1.252,0.054l-1.376,0.214l-0.224,1.692l-0.084,1.497l-0.042,0.879h-0.005
			L23.35,67.305v18.351l0.618,37.552l0,0.049h0.008l-0.626,38.766v18.351l0.618,37.552l0,0.049h0.008L23.35,256.74v18.351
			l0.618,37.552l0,0.049h0.008l-0.626,38.766v18.351l0.618,37.552l0,0.049h0.008l-0.626,38.767v18.351l0.618,37.552l0,0.049h0.008
			l-0.626,38.766v18.351l0.618,37.553l0,0.049h0.008l-0.626,38.766v18.351l0.617,37.501h-0.001l0.002,0.022l0,0.028l0,0.049h0.006
			l0.13,1.479l0.054,1.252l0.214,1.377l1.692,0.223l2.375,0.128v0.004l39.639,0.628h18.716l38.3-0.618l0.049-0.001v-0.007
			l39.54,0.626h18.715l38.301-0.618l0.049-0.001v-0.007l39.54,0.626h18.715l38.301-0.618l0.049-0.001v-0.007l39.54,0.626h18.715
			l38.301-0.618l0.049-0.001v-0.007l39.54,0.626h18.715l38.25-0.617v0.002L511.49,696.032z M27.386,692.641l-0.017-1.18h0
			l0.412-23.74l-0.413-41.886v-29.02l0.413-23.813l-0.413-41.885v-29.021l0.413-23.812L27.367,436.4V407.38l0.413-23.812
			l-0.413-41.885v-29.021l0.413-23.811l-0.413-41.886v-29.021l0.413-23.812l-0.413-41.885v-29.021l0.413-23.812l-0.413-41.886
			V28.537h0.002l-0.01-1.151l1.18-0.017v0l24.212,0.412h0.001l42.72-0.413h29.599l24.284,0.413h0.001l42.72-0.413h29.599
			l24.284,0.413h0.001l42.72-0.413h29.599l24.284,0.413h0.001l42.721-0.413h29.599l24.284,0.413h0.001l42.721-0.413h29.572v0.002
			l1.151-0.01l0.018,1.18l0,0l-0.412,23.74l0.413,41.886v29.048l-0.413,23.784l0.413,41.885v29.048l-0.413,23.784l0.413,41.886
			v29.048l-0.413,23.784l0.413,41.885v29.049l-0.413,23.784l0.413,41.885v29.049l-0.413,23.783l0.413,41.886v29.049l-0.413,23.783
			l0.413,41.885v28.994h-0.003l0.011,1.151l-1.18,0.018l0,0l-24.214-0.412l-42.72,0.413h-29.629l-24.255-0.413l-42.721,0.413
			h-29.629l-24.255-0.413l-42.721,0.413H221.69l-24.256-0.413l-42.72,0.413h-29.628l-24.256-0.413l-42.72,0.413H28.537v-0.003
			L27.386,692.641z"/>
	</g>
</g>
<g id="Layer_6">
	<g>
		<polygon class="st4" points="11.436,675.807 17.538,684.549 17.625,684.674 18.134,663.601 18.138,663.423 11.305,674.033 
			11.295,674.048 11.435,675.793 		"/>
		<polygon class="st4" points="11.022,665.553 11.029,665.717 15.514,658.396 15.531,658.369 10.471,650.763 10.372,650.613 		"/>
		<polygon class="st4" points="18.319,653.216 18.224,645.778 17.537,633.943 17.529,633.804 11.122,642.605 11.101,642.634 
			18.225,653.079 		"/>
		<polygon class="st4" points="10.878,637.036 17.162,628.214 17.171,628.2 17.171,627.814 11.484,619.745 		"/>
		<polygon class="st4" points="16.493,604.833 11.809,611.535 11.8,611.547 11.709,614.045 11.708,614.062 16.668,621.122 
			16.771,621.268 16.209,612.538 16.209,610.237 		"/>
		<polygon class="st4" points="17.842,596.844 17.817,596.792 17.84,596.742 17.792,596.742 17.114,595.348 11.751,588.433 
			11.654,588.307 11.765,590.559 11.867,593.612 11.665,596.742 11.662,596.742 11.662,596.791 11.659,596.844 11.663,596.844 
			11.756,606.134 16.754,599.086 17.793,596.844 		"/>
		<polygon class="st4" points="18.138,568.705 11.305,579.316 11.295,579.331 11.435,581.075 11.436,581.089 17.538,589.831 
			17.625,589.956 18.134,568.883 		"/>
		<polygon class="st4" points="11.022,570.835 11.029,570.999 15.514,563.679 15.531,563.651 10.471,556.046 10.372,555.896 		"/>
		<polygon class="st4" points="18.224,551.062 17.537,539.226 17.529,539.086 11.122,547.888 11.101,547.916 18.225,558.362 
			18.319,558.499 		"/>
		<polygon class="st4" points="11.484,525.028 10.878,542.318 17.162,533.496 17.171,533.482 17.171,533.097 11.57,525.15 		"/>
		<polygon class="st4" points="16.493,510.116 11.809,516.818 11.8,516.83 11.709,519.328 11.708,519.345 16.668,526.404 
			16.771,526.55 16.209,517.82 16.209,515.521 		"/>
		<polygon class="st4" points="17.842,502.126 17.817,502.074 17.84,502.024 17.792,502.024 17.114,500.63 11.751,493.716 
			11.654,493.59 11.765,495.841 11.867,498.895 11.665,502.024 11.662,502.024 11.662,502.073 11.659,502.126 11.663,502.126 
			11.756,511.416 16.754,504.369 17.793,502.126 		"/>
		<polygon class="st4" points="18.138,473.987 11.305,484.599 11.295,484.613 11.435,486.358 11.436,486.372 17.538,495.114 
			17.625,495.239 18.134,474.165 		"/>
		<polygon class="st4" points="11.022,476.118 11.029,476.282 15.514,468.961 15.531,468.934 10.471,461.328 10.372,461.179 		"/>
		<polygon class="st4" points="18.224,456.344 17.537,444.509 17.529,444.369 11.122,453.17 11.101,453.198 18.225,463.645 
			18.319,463.781 		"/>
		<polygon class="st4" points="10.878,447.602 17.162,438.779 17.171,438.766 17.171,438.38 11.484,430.311 		"/>
		<polygon class="st4" points="16.493,415.398 11.809,422.101 11.8,422.112 11.709,424.61 11.708,424.627 16.668,431.688 
			16.771,431.833 16.209,423.104 16.209,420.803 		"/>
		<polygon class="st4" points="17.842,407.408 17.817,407.357 17.84,407.308 17.793,407.308 17.114,405.912 11.751,398.998 
			11.654,398.872 11.765,401.123 11.867,404.178 11.665,407.308 11.662,407.308 11.662,407.355 11.659,407.408 11.663,407.408 
			11.756,416.699 16.754,409.651 17.793,407.408 		"/>
		<polygon class="st4" points="18.138,379.271 11.305,389.882 11.295,389.896 11.435,391.641 11.436,391.654 17.538,400.396 
			17.625,400.521 18.134,379.448 		"/>
		<polygon class="st4" points="11.022,381.4 11.029,381.564 15.514,374.244 15.531,374.217 10.471,366.611 10.372,366.462 		"/>
		<polygon class="st4" points="18.224,361.627 17.537,349.791 17.529,349.651 11.122,358.453 11.101,358.481 18.225,368.927 
			18.319,369.063 		"/>
		<polygon class="st4" points="11.484,335.593 10.878,352.884 17.162,344.062 17.171,344.049 17.171,343.662 11.57,335.715 		"/>
		<polygon class="st4" points="16.493,320.681 11.809,327.383 11.8,327.395 11.709,329.893 11.708,329.91 16.668,336.97 
			16.771,337.116 16.209,328.386 16.209,326.085 		"/>
		<polygon class="st4" points="17.842,312.691 17.817,312.64 17.84,312.59 17.792,312.59 17.114,311.195 11.751,304.28 
			11.654,304.155 11.765,306.406 11.867,309.459 11.665,312.59 11.662,312.59 11.662,312.638 11.659,312.691 11.663,312.691 
			11.756,321.982 16.754,314.934 17.793,312.691 		"/>
		<polygon class="st4" points="18.138,284.553 11.305,295.165 11.295,295.179 11.435,296.923 11.436,296.937 17.538,305.68 
			17.625,305.805 18.134,284.73 		"/>
		<polygon class="st4" points="11.022,286.683 11.029,286.847 15.514,279.526 15.531,279.499 10.471,271.893 10.372,271.744 		"/>
		<polygon class="st4" points="18.224,266.909 17.537,255.074 17.529,254.934 11.122,263.735 11.101,263.764 18.225,274.209 
			18.319,274.346 		"/>
		<polygon class="st4" points="11.484,240.876 10.878,258.167 17.162,249.344 17.171,249.331 17.171,248.945 11.57,240.998 		"/>
		<polygon class="st4" points="16.493,225.963 11.809,232.666 11.8,232.678 11.709,235.176 11.708,235.193 16.668,242.253 
			16.771,242.398 16.209,233.668 16.209,231.367 		"/>
		<polygon class="st4" points="17.842,217.974 17.817,217.922 17.84,217.873 17.792,217.873 17.114,216.477 11.751,209.563 
			11.654,209.437 11.765,211.688 11.867,214.742 11.665,217.873 11.662,217.873 11.662,217.921 11.659,217.974 11.663,217.974 
			11.756,227.265 16.754,220.216 17.793,217.974 		"/>
		<polygon class="st4" points="18.138,189.835 11.305,200.447 11.295,200.461 11.435,202.206 11.436,202.22 17.538,210.962 
			17.625,211.087 18.134,190.013 		"/>
		<polygon class="st4" points="11.022,191.966 11.029,192.129 15.514,184.809 15.531,184.782 10.471,177.176 10.372,177.026 		"/>
		<polygon class="st4" points="18.224,172.192 17.537,160.356 17.529,160.217 11.122,169.018 11.101,169.046 18.225,179.492 
			18.319,179.629 		"/>
		<polygon class="st4" points="11.484,146.158 10.878,163.45 17.162,154.626 17.171,154.614 17.171,154.228 11.57,146.28 		"/>
		<polygon class="st4" points="16.493,131.246 11.809,137.948 11.8,137.96 11.709,140.458 11.708,140.475 16.668,147.536 
			16.771,147.681 16.209,138.951 16.209,136.65 		"/>
		<polygon class="st4" points="17.842,123.256 17.817,123.205 17.84,123.155 17.792,123.155 17.114,121.76 11.751,114.845 
			11.654,114.72 11.765,116.971 11.867,120.025 11.665,123.155 11.662,123.155 11.662,123.204 11.659,123.256 11.663,123.256 
			11.756,132.547 16.754,125.499 17.793,123.256 		"/>
		<polygon class="st4" points="18.138,95.118 11.305,105.73 11.295,105.744 11.435,107.489 11.436,107.502 17.538,116.245 
			17.625,116.37 18.134,95.296 		"/>
		<polygon class="st4" points="10.372,82.309 11.022,97.249 11.029,97.412 15.514,90.091 15.531,90.064 10.471,82.458 		"/>
		<polygon class="st4" points="18.224,77.474 17.537,65.639 17.529,65.499 11.122,74.301 11.101,74.329 18.225,84.775 
			18.319,84.912 		"/>
		<polygon class="st4" points="11.484,51.441 10.878,68.732 17.162,59.909 17.171,59.896 17.171,59.51 11.57,51.563 		"/>
		<polygon class="st4" points="16.493,36.529 11.809,43.23 11.8,43.243 11.709,45.741 11.708,45.758 16.668,52.818 16.771,52.963 
			16.209,44.234 16.209,41.933 		"/>
		<polygon class="st4" points="35.462,17.625 56.956,18.134 57.136,18.138 46.313,11.304 46.299,11.295 44.52,11.435 44.507,11.436 
			35.59,17.538 		"/>
		<polygon class="st4" points="70.201,10.372 54.964,11.022 54.798,11.029 62.292,15.531 		"/>
		<polygon class="st4" points="75.132,18.224 87.204,17.537 87.345,17.529 78.368,11.122 78.34,11.102 67.547,18.319 		"/>
		<polygon class="st4" points="93.062,17.171 93.455,17.171 101.684,11.484 84.049,10.878 93.048,17.163 		"/>
		<polygon class="st4" points="100.132,16.77 109.035,16.209 111.382,16.209 116.893,16.493 110.057,11.809 110.045,11.8 
			107.498,11.709 107.481,11.708 100.281,16.668 		"/>
		<polygon class="st4" points="122.756,16.754 125.043,17.793 125.043,17.841 125.095,17.816 125.145,17.839 125.145,17.792 
			126.568,17.114 133.749,11.654 131.454,11.765 128.338,11.867 125.145,11.665 125.145,11.662 125.097,11.662 125.043,11.659 
			125.043,11.663 115.567,11.756 		"/>
		<polygon class="st4" points="132.067,17.625 153.56,18.134 153.741,18.138 142.918,11.304 142.904,11.295 141.125,11.435 
			141.111,11.436 132.195,17.538 		"/>
		<polygon class="st4" points="166.805,10.372 151.569,11.022 151.402,11.029 158.896,15.531 		"/>
		<polygon class="st4" points="171.737,18.224 183.808,17.537 183.95,17.529 174.973,11.122 174.945,11.102 164.152,18.319 		"/>
		<polygon class="st4" points="189.666,17.171 190.059,17.171 198.288,11.484 180.654,10.878 189.652,17.163 		"/>
		<polygon class="st4" points="196.736,16.77 205.64,16.209 207.986,16.209 213.498,16.493 206.662,11.809 206.649,11.8 
			204.103,11.709 204.086,11.708 196.885,16.668 		"/>
		<polygon class="st4" points="219.361,16.754 221.648,17.793 221.648,17.841 221.699,17.816 221.749,17.839 221.749,17.792 
			223.172,17.114 230.353,11.654 228.058,11.765 224.942,11.867 221.749,11.665 221.749,11.662 221.702,11.662 221.648,11.659 
			221.648,11.663 212.172,11.756 		"/>
		<polygon class="st4" points="228.671,17.625 250.165,18.134 250.345,18.138 239.522,11.304 239.508,11.295 237.729,11.435 
			237.716,11.436 228.799,17.538 		"/>
		<polygon class="st4" points="263.41,10.372 248.173,11.022 248.007,11.029 255.5,15.531 		"/>
		<polygon class="st4" points="268.341,18.224 280.412,17.537 280.554,17.529 271.577,11.122 271.549,11.102 260.756,18.319 		"/>
		<polygon class="st4" points="286.27,17.171 286.663,17.171 294.768,11.57 294.892,11.484 277.258,10.878 286.257,17.163 		"/>
		<polygon class="st4" points="293.341,16.77 302.244,16.209 304.591,16.209 310.102,16.493 303.266,11.809 303.254,11.8 
			300.707,11.709 300.69,11.708 293.489,16.668 		"/>
		<polygon class="st4" points="315.965,16.754 318.252,17.793 318.252,17.841 318.304,17.816 318.354,17.839 318.354,17.792 
			319.776,17.114 326.829,11.752 326.957,11.654 324.662,11.765 321.547,11.867 318.354,11.665 318.354,11.662 318.306,11.662 
			318.252,11.659 318.252,11.663 308.776,11.756 		"/>
		<polygon class="st4" points="325.275,17.625 346.769,18.134 346.949,18.138 336.126,11.304 336.112,11.295 334.333,11.435 
			334.319,11.436 325.403,17.538 		"/>
		<polygon class="st4" points="352.104,15.531 359.861,10.471 360.014,10.372 344.777,11.022 344.611,11.029 352.078,15.515 		"/>
		<polygon class="st4" points="357.36,18.319 364.945,18.224 377.017,17.537 377.158,17.529 368.182,11.122 368.153,11.102 
			357.501,18.225 		"/>
		<polygon class="st4" points="382.874,17.171 383.268,17.171 391.372,11.57 391.496,11.484 373.862,10.878 382.861,17.163 		"/>
		<polygon class="st4" points="389.945,16.77 398.849,16.209 401.194,16.209 406.706,16.493 399.87,11.809 399.858,11.8 
			397.312,11.709 397.295,11.708 390.094,16.668 		"/>
		<polygon class="st4" points="412.569,16.754 414.856,17.793 414.856,17.841 414.908,17.816 414.958,17.839 414.958,17.792 
			416.381,17.114 423.434,11.752 423.562,11.654 421.266,11.765 418.151,11.867 414.958,11.665 414.958,11.662 414.91,11.662 
			414.856,11.659 414.856,11.663 405.38,11.756 		"/>
		<polygon class="st4" points="421.88,17.625 443.373,18.134 443.554,18.138 432.73,11.304 432.717,11.295 430.938,11.435 
			430.924,11.436 422.008,17.538 		"/>
		<polygon class="st4" points="448.709,15.531 456.466,10.471 456.618,10.372 441.382,11.022 441.216,11.029 448.683,15.515 		"/>
		<polygon class="st4" points="453.965,18.319 461.55,18.224 473.621,17.537 473.763,17.529 464.786,11.122 464.758,11.102 
			454.105,18.225 		"/>
		<polygon class="st4" points="479.479,17.171 479.872,17.171 487.977,11.57 488.101,11.484 470.467,10.878 479.466,17.163 		"/>
		<polygon class="st4" points="486.55,16.77 495.452,16.209 497.799,16.209 503.311,16.493 496.475,11.809 496.463,11.8 
			493.916,11.709 493.899,11.708 486.698,16.668 		"/>
		<polygon class="st4" points="509.174,16.754 511.46,17.792 511.46,17.823 511.507,17.813 511.563,17.839 511.563,17.803 
			515.321,17.075 522.565,17.349 523.042,21.969 522.193,28.439 522.158,28.439 522.186,28.496 522.181,28.539 522.207,28.539 
			522.887,29.936 528.249,36.85 528.346,36.976 528.234,34.725 528.133,31.671 528.335,28.539 528.335,28.539 528.711,24.662 
			528.712,24.652 527.437,20.479 525.237,14.739 525.229,14.716 515.579,11.649 515.571,11.647 511.563,11.663 511.563,11.662 
			511.463,11.663 511.46,11.663 511.46,11.663 501.984,11.756 		"/>
		<polygon class="st4" points="528.704,45.952 528.565,44.207 528.564,44.193 522.462,35.451 522.375,35.326 521.866,56.4 
			521.861,56.578 528.695,45.966 		"/>
		<polygon class="st4" points="528.979,54.447 528.972,54.284 524.485,61.604 524.469,61.631 529.528,69.237 529.628,69.387 		"/>
		<polygon class="st4" points="521.682,66.784 521.775,74.221 522.463,86.057 522.471,86.196 528.878,77.395 528.899,77.367 
			521.774,66.921 		"/>
		<polygon class="st4" points="522.837,91.787 522.828,91.799 522.828,92.186 528.43,100.133 528.516,100.255 529.121,82.963 		"/>
		<polygon class="st4" points="523.516,114.993 523.506,115.167 528.191,108.465 528.2,108.453 528.291,105.955 528.292,105.938 
			523.332,98.877 523.229,98.732 523.791,107.462 523.791,109.763 		"/>
		<polygon class="st4" points="522.158,123.157 522.184,123.208 522.16,123.258 522.207,123.258 522.887,124.653 528.249,131.568 
			528.346,131.693 528.234,129.442 528.133,126.388 528.335,123.258 528.339,123.258 528.338,123.204 528.342,123.157 
			528.338,123.157 528.245,114.02 528.244,113.866 523.246,120.914 522.207,123.157 		"/>
		<polygon class="st4" points="521.861,151.295 528.695,140.683 528.704,140.669 528.565,138.924 528.564,138.911 522.462,130.168 
			522.375,130.043 521.866,151.117 		"/>
		<polygon class="st4" points="528.979,149.165 528.972,149.001 524.485,156.322 524.469,156.349 529.528,163.955 529.628,164.104 
					"/>
		<polygon class="st4" points="521.775,168.938 522.463,180.774 522.471,180.914 528.878,172.112 528.899,172.084 521.774,161.638 
			521.682,161.501 		"/>
		<polygon class="st4" points="522.837,186.504 522.828,186.517 522.828,186.903 528.43,194.851 528.516,194.972 529.121,177.681 		
			"/>
		<polygon class="st4" points="523.516,209.71 523.506,209.884 528.191,203.183 528.2,203.17 528.291,200.672 528.292,200.655 
			523.332,193.595 523.229,193.45 523.791,202.179 523.791,204.48 		"/>
		<polygon class="st4" points="522.158,217.874 522.184,217.926 522.16,217.975 522.207,217.975 522.887,219.371 528.249,226.285 
			528.346,226.411 528.234,224.16 528.133,221.105 528.335,217.975 528.339,217.975 528.338,217.921 528.342,217.874 
			528.338,217.874 528.245,208.737 528.244,208.583 523.246,215.631 522.207,217.874 		"/>
		<polygon class="st4" points="521.861,246.012 528.695,235.401 528.704,235.387 528.565,233.642 528.564,233.628 522.462,224.885 
			522.375,224.76 521.866,245.834 		"/>
		<polygon class="st4" points="528.979,243.882 528.972,243.718 524.485,251.039 524.469,251.066 529.528,258.672 529.628,258.822 
					"/>
		<polygon class="st4" points="521.775,263.656 522.463,275.492 522.471,275.631 528.878,266.83 528.899,266.801 521.774,256.355 
			521.682,256.219 		"/>
		<polygon class="st4" points="522.837,281.221 522.828,281.234 522.828,281.621 528.43,289.568 528.516,289.689 529.121,272.398 		
			"/>
		<polygon class="st4" points="523.516,304.427 523.506,304.602 528.191,297.9 528.2,297.888 528.291,295.39 528.292,295.373 
			523.332,288.313 523.229,288.167 523.791,296.896 523.791,299.198 		"/>
		<polygon class="st4" points="522.158,312.591 522.184,312.643 522.16,312.693 522.208,312.693 522.887,314.088 528.249,321.002 
			528.346,321.128 528.234,318.877 528.133,315.823 528.335,312.693 528.339,312.693 528.338,312.639 528.342,312.591 
			528.338,312.591 528.245,303.455 528.244,303.301 523.246,310.349 522.208,312.591 		"/>
		<polygon class="st4" points="521.861,340.729 528.695,330.118 528.704,330.104 528.565,328.359 528.564,328.346 522.462,319.603 
			522.375,319.478 521.866,340.552 		"/>
		<polygon class="st4" points="528.979,338.6 528.972,338.436 524.485,345.756 524.469,345.783 529.528,353.39 529.628,353.539 		
			"/>
		<polygon class="st4" points="521.775,358.374 522.463,370.209 522.471,370.349 528.878,361.547 528.899,361.519 521.774,351.073 
			521.682,350.936 		"/>
		<polygon class="st4" points="522.837,375.938 522.828,375.952 522.828,376.338 528.43,384.286 528.516,384.407 529.121,367.116 		
			"/>
		<polygon class="st4" points="523.516,399.145 523.506,399.319 528.191,392.617 528.2,392.605 528.291,390.107 528.292,390.091 
			523.332,383.03 523.229,382.885 523.791,391.614 523.791,393.915 		"/>
		<polygon class="st4" points="522.158,407.309 522.184,407.36 522.16,407.41 522.208,407.41 522.887,408.805 528.249,415.72 
			528.346,415.846 528.234,413.594 528.133,410.54 528.335,407.41 528.339,407.41 528.338,407.355 528.342,407.309 528.338,407.309 
			528.245,398.172 528.244,398.019 523.246,405.065 522.207,407.309 		"/>
		<polygon class="st4" points="521.861,435.447 528.695,424.836 528.704,424.821 528.565,423.076 528.564,423.063 522.462,414.32 
			522.375,414.195 521.866,435.27 		"/>
		<polygon class="st4" points="528.979,433.316 528.972,433.152 524.485,440.474 524.469,440.501 529.528,448.106 529.628,448.256 
					"/>
		<polygon class="st4" points="521.775,453.091 522.463,464.927 522.471,465.066 528.878,456.265 528.899,456.236 521.774,445.79 
			521.682,445.653 		"/>
		<polygon class="st4" points="522.837,470.655 522.828,470.669 522.828,471.056 528.43,479.002 528.516,479.124 529.121,461.834 		
			"/>
		<polygon class="st4" points="523.516,493.861 523.506,494.036 528.191,487.334 528.2,487.322 528.291,484.824 528.292,484.808 
			523.332,477.748 523.229,477.603 523.791,486.331 523.791,488.632 		"/>
		<polygon class="st4" points="522.158,502.026 522.184,502.078 522.16,502.128 522.208,502.128 522.887,503.522 528.249,510.437 
			528.346,510.563 528.234,508.312 528.133,505.258 528.335,502.128 528.339,502.128 528.338,502.073 528.342,502.026 
			528.338,502.026 528.245,492.89 528.244,492.736 523.246,499.783 522.207,502.026 		"/>
		<polygon class="st4" points="521.861,530.164 528.695,519.554 528.704,519.539 528.565,517.794 528.564,517.78 522.462,509.038 
			522.375,508.913 521.866,529.986 		"/>
		<polygon class="st4" points="528.979,528.034 528.972,527.87 524.485,535.19 524.469,535.218 529.528,542.824 529.628,542.974 		
			"/>
		<polygon class="st4" points="521.775,547.809 522.463,559.644 522.471,559.783 528.878,550.981 528.899,550.953 521.774,540.508 
			521.682,540.371 		"/>
		<polygon class="st4" points="522.837,565.373 522.828,565.387 522.828,565.772 528.43,573.721 528.516,573.842 529.121,556.551 		
			"/>
		<polygon class="st4" points="523.516,588.579 523.506,588.754 528.191,582.052 528.2,582.04 528.291,579.542 528.292,579.525 
			523.332,572.465 523.229,572.319 523.791,581.049 523.791,583.35 		"/>
		<polygon class="st4" points="522.158,596.744 522.184,596.795 522.16,596.845 522.207,596.845 522.887,598.239 528.249,605.154 
			528.346,605.28 528.234,603.028 528.133,599.975 528.335,596.845 528.339,596.845 528.338,596.791 528.342,596.744 
			528.338,596.744 528.245,587.606 528.244,587.453 523.246,594.501 522.207,596.744 		"/>
		<polygon class="st4" points="521.861,624.882 528.695,614.271 528.704,614.256 528.565,612.512 528.564,612.498 522.462,603.756 
			522.375,603.631 521.866,624.704 		"/>
		<polygon class="st4" points="529.628,637.69 528.979,622.752 528.972,622.588 524.485,629.908 524.469,629.936 529.528,637.541 		
			"/>
		<polygon class="st4" points="521.775,642.525 522.463,654.361 522.471,654.501 528.878,645.699 528.899,645.671 521.774,635.226 
			521.682,635.089 		"/>
		<polygon class="st4" points="528.516,668.559 529.121,651.269 522.837,660.091 522.828,660.104 522.828,660.49 528.43,668.438 		
			"/>
		<polygon class="st4" points="523.516,683.297 523.506,683.472 528.191,676.769 528.2,676.757 528.291,674.259 528.292,674.242 
			523.332,667.183 523.229,667.037 523.791,675.767 523.791,678.067 		"/>
		<polygon class="st4" points="504.537,702.375 483.044,701.866 482.863,701.861 493.687,708.695 493.7,708.704 495.479,708.565 
			495.493,708.564 504.409,702.462 		"/>
		<polygon class="st4" points="477.709,704.47 469.952,709.528 469.8,709.628 485.035,708.979 485.201,708.972 477.735,704.485 		
			"/>
		<polygon class="st4" points="472.453,701.682 464.868,701.775 452.796,702.463 452.654,702.471 461.632,708.879 461.66,708.898 
			472.313,701.775 		"/>
		<polygon class="st4" points="446.938,702.828 446.546,702.828 438.44,708.43 438.316,708.516 455.95,709.121 446.951,702.837 		
			"/>
		<polygon class="st4" points="439.867,703.229 430.965,703.791 428.618,703.791 423.284,703.516 423.106,703.506 429.942,708.191 
			429.954,708.2 432.502,708.291 432.519,708.292 439.719,703.332 		"/>
		<polygon class="st4" points="414.956,702.206 414.956,702.159 414.905,702.184 414.855,702.161 414.855,702.207 413.432,702.886 
			406.38,708.248 406.252,708.346 408.547,708.234 411.662,708.133 414.855,708.335 414.855,708.339 414.909,708.338 
			414.956,708.342 414.956,708.338 424.276,708.245 424.433,708.244 417.244,703.245 		"/>
		<polygon class="st4" points="407.934,702.375 386.439,701.866 386.259,701.861 397.083,708.695 397.097,708.704 398.875,708.565 
			398.889,708.564 407.806,702.462 		"/>
		<polygon class="st4" points="381.104,704.47 373.348,709.528 373.195,709.628 388.432,708.979 388.598,708.972 381.131,704.485 		
			"/>
		<polygon class="st4" points="375.849,701.682 368.264,701.775 356.192,702.463 356.051,702.471 365.027,708.879 365.056,708.898 
			375.708,701.775 		"/>
		<polygon class="st4" points="350.334,702.828 349.941,702.828 341.836,708.43 341.712,708.516 359.346,709.121 350.347,702.837 		
			"/>
		<polygon class="st4" points="343.263,703.229 334.36,703.791 332.014,703.791 326.681,703.516 326.503,703.506 333.338,708.191 
			333.35,708.2 335.897,708.291 335.914,708.292 343.114,703.332 		"/>
		<polygon class="st4" points="318.352,702.206 318.352,702.159 318.301,702.184 318.251,702.161 318.251,702.207 316.828,702.886 
			309.775,708.248 309.647,708.346 311.942,708.234 315.058,708.133 318.251,708.335 318.251,708.339 318.305,708.338 
			318.352,708.342 318.352,708.338 327.672,708.245 327.828,708.244 320.64,703.245 		"/>
		<polygon class="st4" points="311.329,702.375 289.836,701.866 289.655,701.861 300.479,708.695 300.492,708.704 302.271,708.565 
			302.285,708.564 311.201,702.462 		"/>
		<polygon class="st4" points="284.5,704.47 276.743,709.528 276.591,709.628 291.827,708.979 291.993,708.972 284.526,704.485 		
			"/>
		<polygon class="st4" points="279.244,701.682 271.659,701.775 259.588,702.463 259.446,702.471 268.423,708.879 268.451,708.898 
			279.104,701.775 		"/>
		<polygon class="st4" points="253.73,702.828 253.337,702.828 245.107,708.516 262.742,709.121 253.743,702.837 		"/>
		<polygon class="st4" points="237.756,703.791 235.409,703.791 230.075,703.516 229.898,703.506 236.734,708.191 236.746,708.2 
			239.293,708.291 239.31,708.292 246.659,703.229 		"/>
		<polygon class="st4" points="221.748,702.206 221.748,702.159 221.697,702.184 221.646,702.161 221.646,702.207 220.224,702.886 
			213.042,708.346 215.338,708.234 218.453,708.133 221.646,708.335 221.646,708.339 221.701,708.338 221.748,708.342 
			221.748,708.338 231.067,708.245 231.224,708.244 224.035,703.245 		"/>
		<polygon class="st4" points="214.725,702.375 193.231,701.866 193.05,701.861 203.874,708.695 203.888,708.704 205.667,708.565 
			205.68,708.564 214.597,702.462 		"/>
		<polygon class="st4" points="187.896,704.47 179.986,709.628 195.223,708.979 195.389,708.972 187.922,704.485 		"/>
		<polygon class="st4" points="175.055,701.775 162.983,702.463 162.842,702.471 171.819,708.879 171.847,708.898 182.64,701.682 		
			"/>
		<polygon class="st4" points="157.125,702.828 156.732,702.828 148.503,708.516 166.137,709.121 157.139,702.837 		"/>
		<polygon class="st4" points="141.152,703.791 138.805,703.791 133.471,703.516 133.294,703.506 140.13,708.191 140.142,708.2 
			142.689,708.291 142.706,708.292 150.055,703.229 		"/>
		<polygon class="st4" points="125.143,702.206 125.143,702.159 125.092,702.184 125.042,702.161 125.042,702.207 123.619,702.886 
			116.438,708.346 118.733,708.234 121.849,708.133 125.042,708.335 125.042,708.339 125.096,708.338 125.143,708.342 
			125.143,708.338 134.463,708.245 134.62,708.244 127.431,703.245 		"/>
		<polygon class="st4" points="118.12,702.375 96.627,701.866 96.446,701.861 107.269,708.695 107.283,708.704 109.063,708.565 
			109.076,708.564 117.992,702.462 		"/>
		<polygon class="st4" points="91.291,704.47 83.381,709.628 98.618,708.979 98.785,708.972 91.318,704.485 		"/>
		<polygon class="st4" points="78.45,701.775 66.379,702.463 66.237,702.471 75.214,708.879 75.242,708.898 86.035,701.682 		"/>
		<polygon class="st4" points="60.521,702.828 60.128,702.828 51.899,708.516 69.533,709.121 60.535,702.837 		"/>
		<polygon class="st4" points="44.547,703.791 42.2,703.791 36.867,703.516 36.689,703.506 43.525,708.191 43.538,708.2 
			46.084,708.291 46.101,708.292 53.451,703.229 		"/>
		<polygon class="st4" points="28.54,702.207 28.54,702.177 28.493,702.186 28.438,702.161 28.438,702.196 24.679,702.925 
			17.435,702.651 16.958,698.031 17.808,691.561 17.842,691.561 17.814,691.505 17.82,691.461 17.793,691.461 17.114,690.064 
			11.751,683.15 11.654,683.024 11.765,685.275 11.867,688.33 11.665,691.461 11.665,691.461 11.29,695.338 11.289,695.348 
			12.563,699.521 14.763,705.261 14.772,705.283 24.421,708.351 24.428,708.353 28.438,708.338 28.438,708.339 28.536,708.338 
			28.54,708.338 28.54,708.338 37.858,708.245 38.015,708.244 30.826,703.245 		"/>
		<polygon class="st4" points="8.178,12.009 8.195,12.055 11.051,11.102 11.986,8.02 12,7.974 8.967,6.894 6.301,5.72 6.873,8.469 
					"/>
		<polygon class="st4" points="11.647,24.428 11.663,28.438 11.662,28.438 11.663,28.535 11.663,28.54 11.663,28.54 11.756,37.83 
			16.754,30.782 17.792,28.54 17.823,28.54 17.814,28.494 17.84,28.438 17.803,28.438 17.075,24.679 17.349,17.435 21.969,16.958 
			28.439,17.807 28.439,17.841 28.495,17.814 28.539,17.82 28.539,17.793 29.963,17.114 37.144,11.654 34.849,11.765 31.734,11.867 
			28.539,11.665 28.539,11.665 24.662,11.29 24.652,11.289 20.479,12.563 14.739,14.763 14.717,14.772 11.649,24.421 		"/>
		<polygon class="st4" points="528.897,11.051 531.98,11.986 532.026,12 533.106,8.967 534.28,6.301 531.53,6.873 527.945,8.195 
			528.889,11.026 		"/>
		<polygon class="st4" points="531.805,707.945 528.975,708.889 528.95,708.897 528.015,711.98 528.001,712.026 531.032,713.106 
			533.699,714.28 533.127,711.53 		"/>
		<polygon class="st4" points="528.353,695.571 528.338,691.563 528.339,691.563 528.338,691.466 528.338,691.46 528.338,691.46 
			528.245,682.324 528.244,682.171 523.246,689.218 522.208,691.46 522.178,691.46 522.187,691.506 522.16,691.563 522.197,691.563 
			522.925,695.321 522.651,702.565 518.031,703.042 511.561,702.193 511.561,702.159 511.505,702.186 511.461,702.181 
			511.461,702.207 510.036,702.886 502.984,708.248 502.856,708.346 505.151,708.234 508.267,708.133 511.461,708.335 
			511.461,708.335 515.338,708.711 515.348,708.712 519.521,707.437 525.261,705.237 525.283,705.229 528.351,695.579 		"/>
		<polygon class="st4" points="11.102,708.95 8.02,708.015 7.974,708.001 6.894,711.032 5.72,713.699 8.469,713.127 12.009,711.821 
			12.055,711.805 11.11,708.975 		"/>
	</g>
</g>
<g id="Layer_5">
	<g>
		<polygon class="st0" points="10.155,642.524 9.334,639.568 9.334,628.938 9.242,616.572 9.242,616.555 7.124,613.838 
			6.299,613.337 6.347,631.332 6.3,642.369 6.905,643.813 11.442,650.596 15.936,657.559 18.049,660.133 19.317,661.404 
			19.5,669.895 19.637,678.715 19.729,687.802 19.729,687.819 21.666,690.137 21.751,690.238 21.799,688.244 21.892,676.231 
			22.029,661.206 22.03,661.193 18.491,654.885 		"/>
		<polygon class="st0" points="18.462,600.885 18.472,600.871 18.405,597.686 18.402,597.527 9.975,610.072 9.967,610.085 
			9.967,611.489 10.382,612.141 		"/>
		<polygon class="st0" points="10.155,547.807 9.334,544.852 9.334,534.221 9.242,521.854 9.242,521.837 7.124,519.121 
			6.299,518.619 6.347,536.614 6.3,547.651 6.905,549.097 11.442,555.879 15.936,562.841 18.049,565.416 19.317,566.688 
			19.5,575.177 19.637,583.997 19.729,593.084 19.729,593.102 21.666,595.42 21.751,595.521 21.799,593.526 21.892,581.515 
			22.029,566.489 22.03,566.477 18.491,560.167 		"/>
		<polygon class="st0" points="18.462,506.167 18.472,506.153 18.405,502.969 18.402,502.811 9.975,515.354 9.967,515.367 
			9.967,516.771 10.382,517.424 		"/>
		<polygon class="st0" points="10.155,453.09 9.334,450.134 9.334,439.503 9.242,427.137 9.242,427.119 7.124,424.403 
			6.299,423.902 6.347,441.897 6.3,452.935 6.905,454.379 11.442,461.161 15.936,468.124 18.049,470.698 19.317,471.97 
			19.5,480.459 19.637,489.28 19.729,498.367 19.729,498.385 21.666,500.702 21.751,500.804 21.799,498.809 21.892,486.797 
			22.029,471.771 22.03,471.759 18.491,465.45 		"/>
		<polygon class="st0" points="18.462,411.45 18.472,411.437 18.405,408.251 18.402,408.093 9.975,420.638 9.967,420.65 
			9.967,422.055 10.382,422.706 		"/>
		<polygon class="st0" points="10.155,358.373 9.334,355.417 9.334,344.785 9.242,332.419 9.242,332.402 7.124,329.686 
			6.299,329.185 6.347,347.18 6.3,358.217 6.905,359.662 11.442,366.443 15.936,373.406 18.049,375.98 19.317,377.252 19.5,385.742 
			19.637,394.563 19.729,403.649 19.729,403.667 21.666,405.985 21.751,406.087 21.799,404.092 21.892,392.079 22.029,377.054 
			22.03,377.041 18.491,370.732 		"/>
		<polygon class="st0" points="18.462,316.732 18.472,316.719 18.405,313.534 18.402,313.375 9.975,325.92 9.967,325.933 
			9.967,327.337 10.382,327.989 		"/>
		<polygon class="st0" points="10.155,263.655 9.334,260.699 9.334,250.068 9.242,237.702 9.242,237.685 7.124,234.968 
			6.299,234.467 6.347,252.462 6.3,263.5 6.905,264.945 11.442,271.727 15.936,278.689 18.049,281.264 19.317,282.534 19.5,291.024 
			19.637,299.845 19.729,308.932 19.729,308.95 21.666,311.268 21.751,311.369 21.799,309.375 21.892,297.362 22.029,282.337 
			22.03,282.324 18.491,276.016 		"/>
		<polygon class="st0" points="18.462,222.015 18.472,222.001 18.405,218.816 18.402,218.658 9.975,231.203 9.967,231.216 
			9.967,232.62 10.382,233.272 		"/>
		<polygon class="st0" points="10.155,168.938 9.334,165.982 9.334,155.35 9.242,142.984 9.242,142.967 7.124,140.25 6.299,139.75 
			6.347,157.745 6.3,168.782 6.905,170.228 11.442,177.009 15.936,183.972 18.049,186.546 19.317,187.817 19.5,196.307 
			19.637,205.127 19.729,214.214 19.729,214.232 21.666,216.55 21.751,216.651 21.799,214.657 21.892,202.645 22.029,187.62 
			22.03,187.606 18.491,181.298 		"/>
		<polygon class="st0" points="18.462,127.298 18.472,127.284 18.405,124.099 18.402,123.941 9.975,136.486 9.967,136.499 
			9.967,137.902 10.382,138.554 		"/>
		<polygon class="st0" points="10.155,74.22 9.334,71.264 9.334,60.633 9.242,48.267 9.242,48.25 7.124,45.533 6.299,45.033 
			6.347,63.027 6.3,74.064 6.905,75.51 11.442,82.292 15.936,89.254 18.049,91.829 19.317,93.1 19.5,101.59 19.637,110.41 
			19.729,119.497 19.729,119.515 21.666,121.833 21.751,121.934 21.799,119.94 21.892,107.928 22.029,92.902 22.03,92.889 
			18.491,86.581 		"/>
		<polygon class="st0" points="18.462,32.58 18.472,32.566 18.405,29.381 18.402,29.223 9.975,41.768 9.967,41.781 9.967,43.185 
			10.382,43.837 		"/>
		<polygon class="st0" points="44.072,21.892 59.397,22.029 59.41,22.03 65.843,18.491 78.451,10.155 81.466,9.334 92.309,9.334 
			104.921,9.242 104.938,9.242 107.708,7.124 108.219,6.299 89.867,6.347 78.61,6.3 77.137,6.905 70.22,11.442 63.119,15.936 
			60.493,18.048 59.196,19.317 50.537,19.5 41.541,19.637 32.273,19.729 32.255,19.729 29.787,21.751 31.821,21.799 		"/>
		<polygon class="st0" points="111.537,9.967 110.106,9.967 109.44,10.382 120.922,18.462 120.936,18.472 124.183,18.405 
			124.344,18.402 111.549,9.975 		"/>
		<polygon class="st0" points="140.677,21.892 156.001,22.029 156.015,22.03 162.448,18.491 175.055,10.155 178.07,9.334 
			188.914,9.334 201.526,9.242 201.542,9.242 204.313,7.124 204.823,6.299 186.471,6.347 175.214,6.3 173.741,6.905 166.825,11.442 
			159.723,15.936 157.097,18.048 155.801,19.317 147.141,19.5 138.145,19.637 128.877,19.729 128.859,19.729 126.391,21.751 
			128.425,21.799 		"/>
		<polygon class="st0" points="208.141,9.967 206.71,9.967 206.045,10.382 217.526,18.462 217.54,18.472 220.788,18.405 
			220.948,18.402 208.153,9.975 		"/>
		<polygon class="st0" points="237.281,21.892 252.605,22.029 252.619,22.03 259.052,18.491 271.659,10.155 274.675,9.334 
			285.518,9.334 298.13,9.242 298.146,9.242 300.917,7.124 301.429,6.299 283.076,6.347 271.818,6.3 270.346,6.905 263.429,11.442 
			256.327,15.936 253.702,18.048 252.405,19.317 243.745,19.5 234.749,19.637 225.481,19.729 225.464,19.729 222.996,21.751 
			225.03,21.799 		"/>
		<polygon class="st0" points="304.745,9.967 303.314,9.967 302.648,10.382 314.131,18.462 314.144,18.472 317.392,18.405 
			317.553,18.402 304.758,9.975 		"/>
		<polygon class="st0" points="333.886,21.892 349.211,22.029 349.224,22.03 355.656,18.491 368.264,10.155 371.279,9.334 
			382.122,9.334 394.734,9.242 394.751,9.242 397.521,7.124 398.032,6.299 379.68,6.347 368.423,6.3 366.95,6.905 360.034,11.442 
			352.932,15.936 350.306,18.048 349.01,19.317 340.35,19.5 331.354,19.637 322.085,19.729 322.067,19.729 319.601,21.751 
			321.635,21.799 		"/>
		<polygon class="st0" points="401.349,9.967 399.919,9.967 399.253,10.382 410.735,18.462 410.748,18.472 413.996,18.405 
			414.157,18.402 401.361,9.975 		"/>
		<polygon class="st0" points="430.49,21.892 445.814,22.029 445.827,22.03 452.261,18.491 464.868,10.155 467.884,9.334 
			478.727,9.334 491.338,9.242 491.354,9.242 494.126,7.124 494.637,6.299 476.284,6.347 465.027,6.3 463.555,6.905 456.638,11.442 
			449.536,15.936 446.91,18.048 445.614,19.317 436.954,19.5 427.957,19.637 418.689,19.729 418.672,19.729 416.205,21.751 
			418.238,21.799 		"/>
		<polygon class="st0" points="497.953,9.967 496.522,9.967 495.857,10.382 507.34,18.462 507.353,18.472 510.601,18.405 
			510.762,18.402 497.966,9.975 		"/>
		<polygon class="st0" points="533.7,77.631 533.096,76.186 528.558,69.404 524.064,62.441 521.951,59.867 520.683,58.596 
			520.5,50.106 520.363,41.286 520.271,32.199 520.271,32.181 518.249,29.761 518.201,31.756 518.108,43.768 517.971,58.793 
			517.971,58.807 521.51,65.115 529.845,77.476 530.666,80.431 530.666,91.063 530.759,103.428 530.759,103.445 532.877,106.163 
			533.7,106.663 533.653,88.668 		"/>
		<polygon class="st0" points="530.025,109.927 530.033,109.915 530.033,108.511 529.619,107.859 521.537,119.115 521.527,119.129 
			521.596,122.314 521.599,122.472 		"/>
		<polygon class="st0" points="533.096,170.903 528.558,164.122 524.064,157.158 521.951,154.584 520.683,153.313 520.5,144.823 
			520.363,136.003 520.271,126.917 520.271,126.898 518.249,124.479 518.201,126.473 518.108,138.485 517.971,153.511 
			517.971,153.524 521.51,159.832 529.845,172.193 530.666,175.148 530.666,185.78 530.759,198.146 530.759,198.163 532.877,200.88 
			533.7,201.38 533.653,183.386 533.7,172.349 		"/>
		<polygon class="st0" points="530.025,204.645 530.033,204.632 530.033,203.229 529.619,202.576 521.537,213.833 521.527,213.846 
			521.596,217.031 521.599,217.189 		"/>
		<polygon class="st0" points="533.096,265.621 528.558,258.839 524.064,251.876 521.951,249.302 520.683,248.031 520.5,239.541 
			520.363,230.72 520.271,221.634 520.271,221.616 518.249,219.196 518.201,221.19 518.108,233.203 517.971,248.228 
			517.971,248.241 521.51,254.55 529.845,266.91 530.666,269.866 530.666,280.498 530.759,292.863 530.759,292.88 532.877,295.597 
			533.7,296.098 533.653,278.103 533.7,267.066 		"/>
		<polygon class="st0" points="530.025,299.362 530.033,299.35 530.033,297.946 529.619,297.293 521.537,308.55 521.527,308.564 
			521.596,311.749 521.599,311.907 		"/>
		<polygon class="st0" points="533.096,360.338 528.558,353.556 524.064,346.593 521.951,344.019 520.683,342.748 520.5,334.258 
			520.363,325.438 520.271,316.351 520.271,316.333 518.249,313.914 518.201,315.908 518.108,327.92 517.971,342.945 
			517.971,342.958 521.51,349.267 529.845,361.628 530.666,364.583 530.666,375.215 530.759,387.58 530.759,387.598 
			532.877,390.314 533.7,390.815 533.653,372.82 533.7,361.783 		"/>
		<polygon class="st0" points="530.025,394.08 530.033,394.067 530.033,392.663 529.619,392.012 521.537,403.268 521.527,403.281 
			521.596,406.466 521.599,406.624 		"/>
		<polygon class="st0" points="533.096,455.056 528.558,448.273 524.064,441.312 521.951,438.736 520.683,437.465 520.5,428.976 
			520.363,420.154 520.271,411.068 520.271,411.051 518.249,408.631 518.201,410.626 518.108,422.638 517.971,437.663 
			521.51,443.985 529.845,456.346 530.666,459.301 530.666,469.932 530.759,482.298 530.759,482.315 532.877,485.031 533.7,485.532 
			533.653,467.538 533.7,456.501 		"/>
		<polygon class="st0" points="530.025,488.798 530.033,488.785 530.033,487.381 529.619,486.729 521.537,497.985 521.527,497.999 
			521.596,501.184 521.599,501.342 		"/>
		<polygon class="st0" points="533.096,549.773 528.558,542.991 524.064,536.028 521.951,533.454 520.683,532.183 520.5,523.693 
			520.363,514.872 520.271,505.785 520.271,505.768 518.249,503.349 518.201,505.343 518.108,517.355 517.971,532.381 
			521.51,538.702 529.845,551.063 530.666,554.019 530.666,564.649 530.759,577.015 530.759,577.032 532.877,579.749 533.7,580.25 
			533.653,562.255 533.7,551.218 		"/>
		<polygon class="st0" points="530.025,583.515 530.033,583.502 530.033,582.098 529.619,581.446 521.537,592.702 521.527,592.716 
			521.596,595.901 521.599,596.06 		"/>
		<polygon class="st0" points="533.096,644.49 528.558,637.708 524.064,630.746 521.951,628.171 520.683,626.9 520.5,618.41 
			520.363,609.59 520.271,600.503 520.271,600.485 518.249,598.065 518.201,600.061 518.108,612.073 517.971,627.098 521.51,633.42 
			529.845,645.78 530.666,648.735 530.666,659.366 530.759,671.732 530.759,671.75 532.877,674.466 533.7,674.968 533.653,656.973 
			533.7,645.936 		"/>
		<polygon class="st0" points="521.537,687.42 521.527,687.434 521.596,690.618 521.599,690.776 530.025,678.232 530.033,678.22 
			530.033,676.815 529.619,676.163 		"/>
		<polygon class="st0" points="495.927,698.108 480.603,697.971 474.156,701.509 461.55,709.845 458.534,710.666 447.691,710.666 
			435.079,710.759 435.063,710.759 432.291,712.876 431.78,713.7 450.133,713.653 461.39,713.7 462.863,713.096 469.779,708.558 
			476.882,704.064 479.507,701.952 480.804,700.683 489.464,700.5 498.46,700.363 507.728,700.271 507.745,700.271 510.108,698.335 
			510.213,698.249 508.179,698.201 		"/>
		<polygon class="st0" points="419.064,701.527 415.816,701.596 415.655,701.599 428.451,710.025 428.464,710.033 429.895,710.033 
			430.495,709.658 430.56,709.619 419.077,701.537 		"/>
		<polygon class="st0" points="399.323,698.108 383.998,697.971 377.552,701.509 364.945,709.845 361.93,710.666 351.087,710.666 
			338.475,710.759 338.458,710.759 335.687,712.876 335.176,713.7 353.528,713.653 364.786,713.7 366.259,713.096 373.175,708.558 
			380.277,704.064 382.903,701.952 384.199,700.683 392.859,700.5 401.855,700.363 411.123,700.271 411.141,700.271 
			413.504,698.335 413.608,698.249 411.574,698.201 		"/>
		<polygon class="st0" points="322.461,701.527 319.212,701.596 319.051,701.599 331.847,710.025 331.859,710.033 333.29,710.033 
			333.891,709.658 333.955,709.619 322.474,701.537 		"/>
		<polygon class="st0" points="302.719,698.108 287.394,697.971 280.948,701.509 268.34,709.845 265.325,710.666 254.482,710.666 
			241.87,710.759 241.853,710.759 239.083,712.876 238.572,713.7 256.924,713.653 268.181,713.7 269.654,713.096 276.57,708.558 
			283.673,704.064 286.299,701.952 287.595,700.683 296.255,700.5 305.251,700.363 314.519,700.271 314.536,700.271 
			316.899,698.335 317.004,698.249 314.97,698.201 		"/>
		<polygon class="st0" points="225.856,701.527 222.608,701.596 222.447,701.599 235.243,710.025 235.255,710.033 236.686,710.033 
			237.287,709.658 237.351,709.619 225.87,701.537 		"/>
		<polygon class="st0" points="206.115,698.108 190.79,697.971 190.777,697.971 184.344,701.509 171.736,709.845 168.721,710.666 
			157.878,710.666 145.266,710.759 145.249,710.759 142.479,712.876 141.968,713.7 160.32,713.653 171.577,713.7 173.05,713.096 
			179.967,708.558 187.068,704.064 189.694,701.952 190.991,700.683 199.65,700.5 208.646,700.363 217.914,700.271 217.932,700.271 
			220.4,698.249 218.366,698.201 		"/>
		<polygon class="st0" points="129.251,701.527 126.004,701.596 125.843,701.599 138.638,710.025 138.65,710.033 140.081,710.033 
			140.682,709.658 140.746,709.619 129.265,701.537 		"/>
		<polygon class="st0" points="109.51,698.108 94.186,697.971 94.172,697.971 87.739,701.509 75.132,709.845 72.117,710.666 
			61.273,710.666 48.661,710.759 48.645,710.759 45.874,712.876 45.363,713.7 63.715,713.653 74.973,713.7 76.446,713.096 
			83.362,708.558 90.464,704.064 93.09,701.952 94.386,700.683 103.046,700.5 112.042,700.363 121.31,700.271 121.328,700.271 
			123.795,698.249 121.762,698.201 		"/>
		<polygon class="st0" points="32.647,701.527 29.399,701.596 29.239,701.599 42.034,710.025 42.046,710.033 43.477,710.033 
			44.142,709.619 32.661,701.537 		"/>
		<polygon class="st0" points="23.151,18.508 20.986,17.471 20.55,20.81 20.543,20.869 21.366,20.827 21.401,20.826 21.641,20.072 
			22.788,20.406 26.77,19.326 26.766,19.229 		"/>
		<polygon class="st0" points="519.928,21.641 519.594,22.788 520.675,26.769 520.771,26.766 521.492,23.151 522.499,21.048 
			522.529,20.986 519.19,20.551 519.131,20.543 519.175,21.4 		"/>
		<polygon class="st0" points="518.359,699.928 517.212,699.594 513.231,700.675 513.234,700.771 516.849,701.492 518.952,702.499 
			519.015,702.529 519.457,699.131 518.6,699.175 		"/>
		<polygon class="st0" points="20.072,698.358 20.402,697.226 20.406,697.213 19.326,693.231 19.229,693.234 18.508,696.849 
			17.471,699.015 20.81,699.449 20.869,699.457 20.826,698.6 		"/>
	</g>
</g>
<g id="Layer_3">
	<g>
		<polygon class="st1" points="10.145,639.521 10.749,641.673 10.777,641.772 18.032,631.716 18.042,631.701 17.897,628.61 
			13.322,635.29 		"/>
		<polygon class="st1" points="6.186,574.689 6.209,579.12 6.209,579.136 9.816,584.559 19.197,596.805 19.119,598.89 
			19.119,601.963 18.629,615.421 19.042,624.374 19.042,624.389 21.702,628.108 21.937,623.575 21.799,606.643 21.662,599.158 
			21.771,596.843 21.835,596.843 21.774,596.77 21.775,596.746 21.754,596.746 18.858,593.298 16.565,589.975 10.307,580.952 
			9.378,579.723 9.104,575.818 8.898,565.781 9.173,555.409 9.196,553.968 9.197,553.951 6.047,549.374 5.955,549.239 
			6.093,566.733 		"/>
		<polygon class="st1" points="10.145,544.804 10.749,546.955 10.777,547.055 18.032,536.998 18.042,536.983 17.897,533.893 
			13.322,540.573 		"/>
		<polygon class="st1" points="6.186,479.972 6.209,484.402 6.209,484.418 9.816,489.841 19.197,502.086 19.119,504.172 
			19.119,507.245 18.629,520.704 19.042,529.656 19.042,529.671 21.702,533.391 21.937,528.857 21.799,511.926 21.662,504.44 
			21.771,502.125 21.835,502.125 21.774,502.052 21.775,502.029 21.755,502.029 18.858,498.581 16.565,495.257 10.307,486.234 
			9.378,485.006 9.104,481.101 8.898,471.063 9.173,460.692 9.196,459.25 9.197,459.233 6.047,454.656 5.955,454.521 6.093,472.016 
					"/>
		<polygon class="st1" points="10.145,450.086 10.749,452.238 10.777,452.338 18.032,442.28 18.042,442.266 17.897,439.175 
			13.322,445.855 		"/>
		<polygon class="st1" points="6.186,385.254 6.209,389.686 6.209,389.701 9.816,395.124 19.197,407.369 19.119,409.454 
			19.119,412.528 18.629,425.986 19.042,434.939 19.042,434.954 21.702,438.674 21.937,434.14 21.799,417.208 21.662,409.723 
			21.771,407.408 21.835,407.408 21.774,407.335 21.775,407.312 21.754,407.312 18.858,403.863 16.565,400.539 10.307,391.518 
			9.378,390.288 9.104,386.384 8.898,376.346 9.173,365.975 9.196,364.533 9.197,364.517 5.955,359.805 6.093,377.298 		"/>
		<polygon class="st1" points="10.145,355.369 10.749,357.521 10.777,357.62 18.032,347.563 18.042,347.549 17.897,344.458 
			13.322,351.138 		"/>
		<polygon class="st1" points="6.186,290.537 6.209,294.968 6.209,294.983 9.816,300.406 19.197,312.651 19.119,314.737 
			19.119,317.811 18.629,331.27 19.042,340.222 19.042,340.237 21.702,343.956 21.937,339.422 21.799,322.491 21.662,315.006 
			21.771,312.69 21.835,312.69 21.774,312.617 21.775,312.594 21.755,312.594 18.858,309.146 16.565,305.822 10.307,296.8 
			9.378,295.571 9.104,291.666 8.898,281.629 9.173,271.257 9.196,269.815 9.197,269.799 5.955,265.087 6.093,282.581 		"/>
		<polygon class="st1" points="10.159,260.631 10.145,260.651 10.749,262.803 10.777,262.903 18.032,252.846 18.042,252.832 
			17.897,249.74 13.322,256.42 		"/>
		<polygon class="st1" points="6.186,195.82 6.209,200.251 6.209,200.266 9.816,205.689 19.197,217.934 19.119,220.02 
			19.119,223.093 18.629,236.552 19.042,245.505 19.042,245.52 21.702,249.239 21.937,244.705 21.799,227.773 21.662,220.289 
			21.771,217.973 21.835,217.973 21.774,217.9 21.775,217.877 21.755,217.877 18.858,214.429 16.565,211.104 10.307,202.083 
			9.378,200.854 9.104,196.949 8.898,186.912 9.173,176.54 9.196,175.098 9.197,175.082 5.955,170.37 6.093,187.863 		"/>
		<polygon class="st1" points="10.145,165.934 10.749,168.085 10.777,168.185 18.032,158.128 18.042,158.114 17.897,155.023 
			13.322,161.703 		"/>
		<polygon class="st1" points="6.186,101.103 6.209,105.534 6.209,105.548 9.816,110.972 19.197,123.217 19.119,125.302 
			19.119,128.376 18.629,141.835 19.042,150.788 19.042,150.802 21.702,154.521 21.937,149.987 21.799,133.056 21.662,125.571 
			21.771,123.256 21.835,123.256 21.774,123.183 21.775,123.159 21.754,123.159 18.858,119.711 16.565,116.387 10.307,107.365 
			9.378,106.136 9.104,102.231 8.898,92.194 9.173,81.823 9.196,80.381 9.197,80.365 5.955,75.652 6.093,93.146 		"/>
		<polygon class="st1" points="10.777,73.468 18.032,63.411 18.042,63.397 17.897,60.306 13.322,66.986 10.145,71.217 
			10.749,73.368 		"/>
		<polygon class="st1" points="89.491,18.042 92.643,17.897 85.829,13.322 81.534,10.159 81.514,10.145 79.219,10.777 
			89.477,18.033 		"/>
		<polygon class="st1" points="97.778,21.937 115.048,21.799 122.682,21.662 125.044,21.771 125.044,21.834 125.117,21.774 
			125.141,21.775 125.141,21.754 128.658,18.858 132.048,16.566 141.25,10.307 142.503,9.378 146.486,9.104 156.724,8.898 
			167.302,9.173 168.772,9.196 168.789,9.197 173.595,5.955 155.753,6.093 147.638,6.186 143.118,6.209 143.104,6.209 
			137.573,9.815 125.083,19.197 122.956,19.119 119.821,19.119 106.094,18.629 96.963,19.042 96.949,19.042 93.155,21.702 
			97.776,21.937 		"/>
		<polygon class="st1" points="186.095,18.042 189.247,17.897 182.433,13.322 178.138,10.159 178.119,10.145 175.823,10.777 
			186.081,18.033 		"/>
		<polygon class="st1" points="194.382,21.937 211.652,21.799 219.286,21.662 221.648,21.771 221.648,21.834 221.722,21.774 
			221.745,21.775 221.745,21.754 225.262,18.858 228.652,16.566 237.854,10.307 239.108,9.378 243.091,9.104 253.328,8.898 
			263.906,9.173 265.377,9.196 265.393,9.197 270.199,5.955 252.358,6.093 244.242,6.186 239.723,6.209 239.708,6.209 
			234.177,9.815 221.687,19.197 219.56,19.119 216.425,19.119 202.698,18.629 193.567,19.042 193.553,19.042 189.759,21.702 
			194.38,21.937 		"/>
		<polygon class="st1" points="282.7,18.042 285.851,17.897 279.037,13.322 274.742,10.159 274.723,10.145 272.529,10.749 
			272.428,10.777 282.686,18.033 		"/>
		<polygon class="st1" points="290.986,21.937 308.257,21.799 315.891,21.662 318.253,21.771 318.253,21.834 318.326,21.774 
			318.35,21.775 318.35,21.754 321.866,18.858 325.257,16.566 334.458,10.307 335.712,9.378 339.695,9.104 349.933,8.898 
			360.511,9.173 361.981,9.196 361.997,9.197 366.666,6.047 366.803,5.955 348.962,6.093 340.847,6.186 336.327,6.209 
			336.313,6.209 330.781,9.815 318.291,19.197 316.164,19.119 313.029,19.119 299.304,18.629 290.172,19.042 290.157,19.042 
			286.364,21.702 290.984,21.937 		"/>
		<polygon class="st1" points="379.304,18.042 382.455,17.897 375.642,13.322 371.347,10.159 371.327,10.145 369.134,10.749 
			369.032,10.777 379.289,18.033 		"/>
		<polygon class="st1" points="387.591,21.937 404.861,21.799 412.495,21.662 414.857,21.771 414.857,21.834 414.931,21.774 
			414.954,21.775 414.954,21.754 418.471,18.858 421.861,16.566 431.062,10.307 432.315,9.378 436.3,9.104 446.537,8.898 
			457.115,9.173 458.586,9.196 458.602,9.197 463.271,6.047 463.407,5.955 445.565,6.093 437.451,6.186 432.932,6.209 
			432.917,6.209 427.386,9.815 414.896,19.197 412.769,19.119 409.634,19.119 395.907,18.629 386.776,19.042 386.762,19.042 
			382.969,21.702 387.589,21.937 		"/>
		<polygon class="st1" points="475.908,18.042 479.06,17.897 472.246,13.322 467.951,10.159 467.932,10.145 465.738,10.749 
			465.637,10.777 475.894,18.033 		"/>
		<polygon class="st1" points="484.195,21.937 501.466,21.799 509.1,21.662 511.463,21.771 511.463,21.772 511.501,21.772 
			511.558,21.775 511.558,21.772 516.798,21.75 518.208,28.44 518.165,28.44 518.223,28.508 518.229,28.539 518.248,28.539 
			521.143,31.984 523.435,35.309 529.692,44.331 530.622,45.56 530.896,49.464 531.103,59.501 530.827,69.873 530.804,71.315 
			530.804,71.331 533.953,75.909 534.046,76.043 533.906,58.55 533.814,50.593 533.791,46.162 533.791,46.147 530.185,40.724 
			520.791,28.463 518.808,20.616 518.811,18.221 514.808,19.187 511.513,19.197 511.504,19.197 509.373,19.119 506.238,19.119 
			492.512,18.629 483.381,19.042 483.366,19.042 479.573,21.702 484.193,21.937 		"/>
		<polygon class="st1" points="529.224,78.228 521.967,88.285 521.957,88.299 522.103,91.39 526.678,84.71 529.855,80.479 
			529.251,78.327 		"/>
		<polygon class="st1" points="533.814,145.311 533.791,140.879 533.791,140.865 530.185,135.441 520.802,123.194 520.881,121.111 
			520.881,118.037 521.37,104.578 520.958,95.625 520.957,95.611 518.382,92.008 518.298,91.892 518.063,96.426 518.201,113.357 
			518.338,120.842 518.229,123.157 518.165,123.157 518.226,123.229 518.225,123.254 518.246,123.254 521.143,126.702 
			523.435,130.026 529.692,139.048 530.622,140.277 530.896,144.182 531.103,154.219 530.827,164.59 530.804,166.032 
			530.804,166.048 533.953,170.626 534.046,170.76 533.906,153.268 		"/>
		<polygon class="st1" points="529.855,175.196 529.251,173.045 529.224,172.945 521.967,183.002 521.957,183.016 522.103,186.107 
			526.678,179.427 		"/>
		<polygon class="st1" points="533.814,240.028 533.791,235.597 533.791,235.582 530.185,230.159 520.802,217.912 520.881,215.828 
			520.881,212.754 521.37,199.295 520.958,190.343 520.957,190.328 518.382,186.725 518.298,186.609 518.063,191.143 
			518.201,208.075 518.338,215.559 518.229,217.875 518.165,217.875 518.226,217.947 518.225,217.971 518.246,217.971 
			521.143,221.419 523.435,224.743 529.692,233.765 530.622,234.994 530.896,238.899 531.103,248.936 530.827,259.308 
			530.804,260.75 530.804,260.766 533.953,265.344 534.046,265.478 533.906,247.985 		"/>
		<polygon class="st1" points="529.855,269.914 529.251,267.762 529.224,267.663 521.967,277.719 521.957,277.733 522.103,280.825 
			526.678,274.145 		"/>
		<polygon class="st1" points="533.814,334.745 533.791,330.314 533.791,330.299 530.185,324.876 520.802,312.629 520.881,310.545 
			520.881,307.472 521.37,294.013 520.958,285.06 520.957,285.045 518.382,281.442 518.298,281.326 518.063,285.86 518.201,302.792 
			518.338,310.276 518.229,312.592 518.165,312.592 518.226,312.664 518.225,312.688 518.246,312.688 521.143,316.137 
			523.435,319.46 529.692,328.483 530.622,329.712 530.896,333.617 531.103,343.653 530.827,354.025 530.804,355.467 
			530.804,355.483 533.953,360.061 534.046,360.195 533.906,342.702 		"/>
		<polygon class="st1" points="529.855,364.632 529.251,362.479 529.224,362.38 521.967,372.437 521.957,372.451 522.103,375.542 
			526.678,368.862 		"/>
		<polygon class="st1" points="533.814,429.463 533.791,425.032 533.791,425.017 530.185,419.594 520.802,407.347 520.881,405.263 
			520.881,402.189 521.37,388.73 520.958,379.778 520.957,379.764 518.382,376.16 518.298,376.044 518.063,380.577 518.201,397.51 
			518.338,404.994 518.229,407.31 518.165,407.31 518.226,407.382 518.225,407.406 518.246,407.406 521.143,410.854 
			523.435,414.178 529.692,423.2 530.622,424.43 530.896,428.334 531.103,438.371 530.827,448.742 530.804,450.185 530.804,450.201 
			534.046,454.913 533.906,437.419 		"/>
		<polygon class="st1" points="529.855,459.349 529.251,457.197 529.224,457.098 521.967,467.154 521.957,467.169 522.103,470.26 
			526.678,463.579 		"/>
		<polygon class="st1" points="533.814,524.181 533.791,519.749 533.791,519.733 530.185,514.311 520.802,502.064 520.881,499.98 
			520.881,496.906 521.37,483.448 520.958,474.495 520.957,474.48 518.382,470.877 518.298,470.761 518.063,475.295 
			518.201,492.227 518.338,499.712 518.229,502.026 518.165,502.026 518.226,502.099 518.225,502.123 518.246,502.123 
			521.143,505.571 523.435,508.896 529.692,517.918 530.622,519.146 530.896,523.052 531.103,533.089 530.827,543.46 
			530.804,544.902 530.804,544.919 534.046,549.631 533.906,532.137 		"/>
		<polygon class="st1" points="529.855,554.066 529.251,551.914 529.224,551.814 521.967,561.872 521.957,561.887 522.103,564.978 
			526.678,558.297 		"/>
		<polygon class="st1" points="533.814,618.898 533.791,614.467 533.791,614.451 530.185,609.028 520.802,596.782 520.881,594.697 
			520.881,591.624 521.37,578.166 520.958,569.213 520.957,569.198 518.382,565.595 518.298,565.479 518.063,570.012 
			518.201,586.944 518.338,594.43 518.229,596.744 518.165,596.744 518.226,596.816 518.225,596.841 518.246,596.841 
			521.143,600.289 523.435,603.612 529.692,612.635 530.622,613.864 530.896,617.769 531.103,627.806 530.827,638.178 
			530.804,639.619 530.804,639.636 534.046,644.348 533.906,626.854 		"/>
		<polygon class="st1" points="529.224,646.532 521.967,656.589 521.957,656.604 522.103,659.694 526.678,653.015 529.855,648.784 
			529.251,646.632 		"/>
		<polygon class="st1" points="450.509,701.957 447.357,702.103 454.172,706.678 458.467,709.841 458.486,709.855 460.68,709.251 
			460.781,709.224 450.523,701.967 		"/>
		<polygon class="st1" points="424.952,698.201 417.318,698.338 414.956,698.229 414.956,698.167 414.885,698.226 414.859,698.225 
			414.859,698.246 411.342,701.143 407.952,703.435 398.751,709.692 397.497,710.622 393.514,710.896 383.276,711.103 
			372.698,710.827 371.228,710.804 371.212,710.804 366.543,713.953 366.406,714.045 384.247,713.906 392.361,713.814 
			396.881,713.791 396.896,713.791 402.428,710.185 414.918,700.802 417.044,700.881 420.179,700.881 433.901,701.37 
			433.903,701.37 443.036,700.958 443.051,700.957 446.726,698.382 446.845,698.298 442.222,698.063 		"/>
		<polygon class="st1" points="353.904,701.957 350.754,702.103 357.567,706.678 361.862,709.841 361.882,709.855 364.075,709.251 
			364.177,709.224 353.919,701.967 		"/>
		<polygon class="st1" points="328.348,698.201 320.714,698.338 318.352,698.229 318.352,698.167 318.28,698.226 318.255,698.225 
			318.255,698.246 314.737,701.143 311.348,703.435 302.146,709.692 300.893,710.622 296.909,710.896 286.672,711.103 
			276.094,710.827 274.623,710.804 274.607,710.804 269.939,713.953 269.801,714.045 287.643,713.906 295.758,713.814 
			300.276,713.791 300.291,713.791 305.823,710.185 318.313,700.802 320.439,700.881 323.574,700.881 337.297,701.37 
			337.299,701.37 346.433,700.958 346.447,700.957 350.121,698.382 350.24,698.298 345.617,698.063 		"/>
		<polygon class="st1" points="257.3,701.957 254.148,702.103 260.962,706.678 265.257,709.841 265.277,709.855 267.47,709.251 
			267.572,709.224 257.314,701.967 		"/>
		<polygon class="st1" points="231.743,698.201 224.11,698.338 221.747,698.229 221.747,698.167 221.675,698.226 221.651,698.225 
			221.651,698.246 218.134,701.143 214.743,703.435 205.542,709.692 204.288,710.622 200.305,710.896 190.068,711.103 
			179.489,710.827 178.019,710.804 178.003,710.804 173.334,713.953 173.197,714.045 191.038,713.906 199.153,713.814 
			203.673,713.791 203.688,713.791 209.218,710.185 221.709,700.802 223.835,700.881 226.97,700.881 240.693,701.37 240.695,701.37 
			249.828,700.958 249.842,700.957 253.517,698.382 253.636,698.298 249.012,698.063 		"/>
		<polygon class="st1" points="160.696,701.957 157.544,702.103 164.358,706.678 168.653,709.841 168.672,709.855 170.866,709.251 
			170.968,709.224 160.71,701.967 		"/>
		<polygon class="st1" points="135.139,698.201 127.505,698.338 125.143,698.229 125.143,698.167 125.071,698.226 125.046,698.225 
			125.046,698.246 121.529,701.143 118.139,703.435 108.938,709.692 107.684,710.622 103.7,710.896 93.463,711.103 82.885,710.827 
			81.415,710.804 81.398,710.804 76.73,713.953 76.592,714.045 94.434,713.906 102.549,713.814 107.068,713.791 107.083,713.791 
			112.614,710.185 125.105,700.802 127.231,700.881 130.366,700.881 144.088,701.37 144.09,701.37 153.224,700.958 153.238,700.957 
			156.913,698.382 157.032,698.298 152.408,698.063 		"/>
		<polygon class="st1" points="64.091,701.957 60.94,702.103 67.754,706.678 72.049,709.841 72.068,709.855 74.262,709.251 
			74.364,709.224 64.105,701.967 		"/>
		<polygon class="st1" points="38.535,698.201 30.901,698.338 28.537,698.229 28.537,698.228 28.498,698.228 28.494,698.228 
			28.442,698.225 28.442,698.228 23.202,698.25 21.792,691.561 21.835,691.561 21.777,691.491 21.771,691.461 21.752,691.461 
			18.858,688.016 16.565,684.691 10.307,675.67 9.378,674.44 9.104,670.536 8.898,660.498 9.173,650.127 9.196,648.686 
			9.197,648.669 6.047,644.091 5.955,643.956 6.093,661.45 6.186,669.406 6.209,673.838 6.209,673.854 9.816,679.276 
			19.209,691.537 21.192,699.384 21.189,701.715 21.189,701.778 25.192,700.813 28.487,700.803 28.521,700.803 30.627,700.881 
			33.762,700.881 47.484,701.37 47.486,701.37 56.62,700.958 56.634,700.957 60.308,698.382 60.427,698.298 55.804,698.063 		"/>
		<polygon class="st1" points="19.197,28.487 19.197,28.507 19.119,30.585 19.119,33.659 18.629,47.118 19.042,56.07 19.042,56.085 
			21.702,59.804 21.937,55.27 21.799,38.338 21.662,30.854 21.771,28.537 21.772,28.537 21.772,28.497 21.775,28.442 21.772,28.442 
			21.75,23.202 28.44,21.792 28.44,21.834 28.509,21.777 28.539,21.771 28.539,21.752 32.053,18.858 35.444,16.566 44.645,10.307 
			45.899,9.378 49.882,9.104 60.119,8.898 70.697,9.173 72.168,9.196 72.184,9.197 76.99,5.955 59.149,6.093 51.034,6.186 
			46.514,6.209 46.5,6.209 40.969,9.815 28.462,19.209 20.616,21.192 18.285,21.189 18.221,21.189 19.187,25.192 		"/>
		<polygon class="st1" points="520.803,691.513 520.803,691.48 520.881,689.415 520.881,686.342 521.37,672.883 520.958,663.931 
			520.957,663.916 518.382,660.313 518.298,660.196 518.063,664.729 518.201,681.661 518.338,689.146 518.229,691.463 
			518.228,691.463 518.228,691.502 518.228,691.506 518.225,691.558 518.228,691.558 518.25,696.798 511.561,698.208 
			511.561,698.167 511.494,698.222 511.461,698.229 511.461,698.249 507.946,701.143 504.557,703.435 495.355,709.692 
			494.102,710.622 490.118,710.896 479.881,711.103 469.303,710.827 467.832,710.804 467.816,710.804 463.147,713.953 
			463.011,714.045 480.852,713.906 488.966,713.814 493.485,713.791 493.5,713.791 499.032,710.185 511.536,700.791 
			519.384,698.808 521.778,698.811 520.813,694.808 		"/>
	</g>
</g>
</svg>
