<?xml version="1.0" encoding="utf-8"?>
<!-- Generator: Adobe Illustrator 14.0.0, SVG Export Plug-In . SVG Version: 6.00 Build 43363)  -->
<!DOCTYPE svg PUBLIC "-//W3C//DTD SVG 1.1//EN" "http://www.w3.org/Graphics/SVG/1.1/DTD/svg11.dtd">
<svg version="1.1" id="Layer_1" xmlns="http://www.w3.org/2000/svg" xmlns:xlink="http://www.w3.org/1999/xlink" x="0px" y="0px"
	 width="541.826px" height="721.826px" viewBox="0 0 541.826 721.826" style="enable-background:new 0 0 541.826 721.826;"
	 xml:space="preserve">
<style type="text/css">
<![CDATA[
	.st0{fill:#7A4E24;}
]]>
</style>
<g>
	<g>
		<g>
			<polygon class="st0" points="17.244,675.916 16.595,675.916 16.01,661.93 15.874,672.133 15.944,675.72 15.296,675.654 
				14.87,661.489 14.647,670.368 14.692,673.505 14.642,675.72 14.178,675.711 13.836,660.916 13.639,673.796 13.628,675.69 
				12.979,675.69 12.396,661.208 12.492,673.534 12.33,675.684 11.681,675.617 10.955,660.04 11.033,670.332 10.869,675.168 
				11.033,681.903 10.958,692.194 11.684,676.617 12.333,676.552 12.494,678.7 12.415,683.044 12.397,691.027 12.981,676.544 
				13.63,676.544 13.64,678.439 13.838,691.318 14.18,676.522 14.644,676.516 14.693,678.729 14.872,690.746 15.226,680.689 
				15.297,676.581 15.946,676.516 15.875,680.104 16.013,690.306 16.596,676.32 17.246,676.32 17.325,677.423 17.296,691.61 
				17.929,676.243 17.295,660.623 			"/>
		</g>
		<g>
			<polygon class="st0" points="17.244,644.397 16.595,644.397 16.01,630.411 15.874,640.615 15.944,644.201 15.296,644.136 
				14.87,629.971 14.647,638.85 14.692,641.987 14.642,644.201 14.178,644.193 13.836,629.398 13.639,642.278 13.628,644.173 
				12.979,644.173 12.396,629.689 12.492,642.017 12.33,644.166 11.681,644.1 10.955,628.521 11.033,638.813 10.869,643.65 
				11.033,650.386 10.958,660.677 11.684,645.1 12.333,645.034 12.494,647.183 12.415,651.526 12.397,659.51 12.981,645.026 
				13.63,645.026 13.64,646.922 13.838,659.801 14.18,645.005 14.644,644.998 14.693,647.212 14.872,659.228 15.226,649.172 
				15.297,645.063 15.946,644.998 15.875,648.585 16.013,658.788 16.596,644.803 17.246,644.803 17.325,645.905 17.296,660.092 
				17.929,644.726 17.295,629.105 			"/>
		</g>
		<g>
			<polygon class="st0" points="17.244,612.88 16.595,612.88 16.01,598.894 15.874,609.097 15.944,612.684 15.296,612.618 
				14.87,598.453 14.647,607.332 14.692,610.47 14.642,612.684 14.178,612.676 13.836,597.88 13.639,610.761 13.628,612.654 
				12.979,612.654 12.396,598.172 12.492,610.499 12.33,612.647 11.681,612.581 10.955,597.004 11.033,607.296 10.869,612.133 
				11.033,618.868 10.958,629.159 11.684,613.582 12.333,613.517 12.494,615.665 12.415,620.009 12.397,627.991 12.981,613.508 
				13.63,613.508 13.64,615.403 13.838,628.282 14.18,613.487 14.644,613.479 14.693,615.694 14.872,627.71 15.226,617.654 
				15.297,613.545 15.946,613.479 15.875,617.067 16.013,627.27 16.596,613.284 17.246,613.284 17.325,614.387 17.296,628.574 
				17.929,613.207 17.295,597.588 			"/>
		</g>
		<g>
			<polygon class="st0" points="17.244,581.362 16.595,581.362 16.01,567.376 15.874,577.579 15.944,581.166 15.296,581.101 
				14.87,566.936 14.647,575.814 14.692,578.951 14.642,581.166 14.178,581.157 13.836,566.362 13.639,579.242 13.628,581.137 
				12.979,581.137 12.396,566.654 12.492,578.98 12.33,581.13 11.681,581.063 10.955,565.486 11.033,575.778 10.869,580.614 
				11.033,587.35 10.958,597.641 11.684,582.063 12.333,581.998 12.494,584.146 12.415,588.49 12.397,596.474 12.981,581.99 
				13.63,581.99 13.64,583.886 13.838,596.765 14.18,581.969 14.644,581.962 14.693,584.177 14.872,596.192 15.226,586.136 
				15.297,582.027 15.946,581.962 15.875,585.55 16.013,595.752 16.596,581.767 17.246,581.767 17.325,582.869 17.296,597.057 
				17.929,581.689 17.295,566.069 			"/>
		</g>
		<g>
			<polygon class="st0" points="17.244,549.844 16.595,549.844 16.01,535.857 15.874,546.062 15.944,549.647 15.296,549.583 
				14.87,535.417 14.647,544.296 14.692,547.434 14.642,549.647 14.178,549.64 13.836,534.845 13.639,547.725 13.628,549.619 
				12.979,549.619 12.396,535.136 12.492,547.463 12.33,549.612 11.681,549.546 10.955,533.969 11.033,544.261 10.869,549.097 
				11.033,555.832 10.958,566.123 11.684,550.546 12.333,550.48 12.494,552.629 12.415,556.973 12.397,564.956 12.981,550.473 
				13.63,550.473 13.64,552.368 13.838,565.247 14.18,550.451 14.644,550.444 14.693,552.658 14.872,564.674 15.226,554.618 
				15.297,550.51 15.946,550.444 15.875,554.032 16.013,564.234 16.596,550.249 17.246,550.249 17.325,551.352 17.296,565.538 
				17.929,550.172 17.295,534.552 			"/>
		</g>
		<g>
			<polygon class="st0" points="17.244,518.326 16.595,518.326 16.01,504.34 15.874,514.543 15.944,518.13 15.296,518.064 
				14.87,503.899 14.647,512.778 14.692,515.916 14.642,518.13 14.178,518.122 13.836,503.326 13.639,516.207 13.628,518.102 
				12.979,518.102 12.396,503.618 12.492,515.945 12.33,518.094 11.681,518.027 10.955,502.45 11.033,512.742 10.869,517.579 
				11.033,524.314 10.958,534.605 11.684,519.028 12.333,518.963 12.494,521.111 12.415,525.455 12.397,533.438 12.981,518.954 
				13.63,518.954 13.64,520.85 13.838,533.729 14.18,518.934 14.644,518.926 14.693,521.141 14.872,533.156 15.226,523.101 
				15.297,518.991 15.946,518.926 15.875,522.514 16.013,532.716 16.596,518.731 17.246,518.731 17.325,519.833 17.296,534.021 
				17.929,518.653 17.295,503.034 			"/>
		</g>
		<g>
			<polygon class="st0" points="17.244,486.809 16.595,486.809 16.01,472.822 15.874,483.025 15.944,486.612 15.296,486.547 
				14.87,472.382 14.647,481.261 14.692,484.397 14.642,486.612 14.178,486.604 13.836,471.809 13.639,484.688 13.628,486.583 
				12.979,486.583 12.396,472.101 12.492,484.427 12.33,486.576 11.681,486.51 10.955,470.933 11.033,481.225 10.869,486.062 
				11.033,492.796 10.958,503.087 11.684,487.51 12.333,487.444 12.494,489.593 12.415,493.937 12.397,501.92 12.981,487.437 
				13.63,487.437 13.64,489.332 13.838,502.211 14.18,487.415 14.644,487.408 14.693,489.623 14.872,501.639 15.226,491.582 
				15.297,487.474 15.946,487.408 15.875,490.996 16.013,501.198 16.596,487.213 17.246,487.213 17.325,488.315 17.296,502.503 
				17.929,487.136 17.295,471.517 			"/>
		</g>
		<g>
			<polygon class="st0" points="17.244,455.29 16.595,455.29 16.01,441.304 15.874,451.508 15.944,455.094 15.296,455.029 
				14.87,440.863 14.647,449.742 14.692,452.88 14.642,455.094 14.178,455.086 13.836,440.291 13.639,453.171 13.628,455.065 
				12.979,455.065 12.396,440.582 12.492,452.909 12.33,455.059 11.681,454.992 10.955,439.415 11.033,449.707 10.869,454.543 
				11.033,461.278 10.958,471.569 11.684,455.992 12.333,455.927 12.494,458.075 12.415,462.419 12.397,470.402 12.981,455.919 
				13.63,455.919 13.64,457.814 13.838,470.693 14.18,455.897 14.644,455.891 14.693,458.104 14.872,470.12 15.226,460.064 
				15.297,455.956 15.946,455.891 15.875,459.479 16.013,469.681 16.596,455.695 17.246,455.695 17.325,456.798 17.296,470.984 
				17.929,455.618 17.295,439.998 			"/>
		</g>
		<g>
			<polygon class="st0" points="17.244,423.772 16.595,423.772 16.01,409.786 15.874,419.989 15.944,423.576 15.296,423.511 
				14.87,409.346 14.647,418.225 14.692,421.362 14.642,423.576 14.178,423.568 13.836,408.773 13.639,421.653 13.628,423.548 
				12.979,423.548 12.396,409.064 12.492,421.392 12.33,423.54 11.681,423.474 10.955,407.896 11.033,418.188 10.869,423.025 
				11.033,429.761 10.958,440.052 11.684,424.475 12.333,424.409 12.494,426.558 12.415,430.901 12.397,438.885 12.981,424.4 
				13.63,424.4 13.64,426.297 13.838,439.175 14.18,424.38 14.644,424.372 14.693,426.587 14.872,438.603 15.226,428.547 
				15.297,424.438 15.946,424.372 15.875,427.96 16.013,438.162 16.596,424.178 17.246,424.178 17.325,425.28 17.296,439.467 
				17.929,424.1 17.295,408.48 			"/>
		</g>
		<g>
			<polygon class="st0" points="17.244,392.255 16.595,392.255 16.01,378.269 15.874,388.472 15.944,392.059 15.296,391.993 
				14.87,377.828 14.647,386.707 14.692,389.844 14.642,392.059 14.178,392.05 13.836,377.255 13.639,390.135 13.628,392.029 
				12.979,392.029 12.396,377.547 12.492,389.873 12.33,392.022 11.681,391.956 10.955,376.379 11.033,386.671 10.869,391.508 
				11.033,398.243 10.958,408.533 11.684,392.956 12.333,392.892 12.494,395.04 12.415,399.384 12.397,407.366 12.981,392.883 
				13.63,392.883 13.64,394.778 13.838,407.657 14.18,392.861 14.644,392.854 14.693,395.069 14.872,407.085 15.226,397.028 
				15.297,392.92 15.946,392.854 15.875,396.442 16.013,406.645 16.596,392.659 17.246,392.659 17.325,393.762 17.296,407.949 
				17.929,392.582 17.295,376.963 			"/>
		</g>
		<g>
			<polygon class="st0" points="17.244,360.737 16.595,360.737 16.01,346.75 15.874,356.954 15.944,360.541 15.296,360.475 
				14.87,346.31 14.647,355.189 14.692,358.326 14.642,360.541 14.178,360.532 13.836,345.737 13.639,358.617 13.628,360.512 
				12.979,360.512 12.396,346.029 12.492,358.355 12.33,360.504 11.681,360.438 10.955,344.861 11.033,355.153 10.869,359.989 
				11.033,366.725 10.958,377.016 11.684,361.438 12.333,361.373 12.494,363.521 12.415,367.865 12.397,375.849 12.981,361.365 
				13.63,361.365 13.64,363.261 13.838,376.14 14.18,361.344 14.644,361.337 14.693,363.551 14.872,375.566 15.226,365.511 
				15.297,361.402 15.946,361.337 15.875,364.925 16.013,375.127 16.596,361.142 17.246,361.142 17.325,362.244 17.296,376.431 
				17.929,361.064 17.295,345.445 			"/>
		</g>
		<g>
			<polygon class="st0" points="17.244,329.219 16.595,329.219 16.01,315.232 15.874,325.436 15.944,329.022 15.296,328.958 
				14.87,314.792 14.647,323.671 14.692,326.808 14.642,329.022 14.178,329.015 13.836,314.219 13.639,327.099 13.628,328.994 
				12.979,328.994 12.396,314.511 12.492,326.838 12.33,328.987 11.681,328.92 10.955,313.343 11.033,323.635 10.869,328.472 
				11.033,335.207 10.958,345.498 11.684,329.92 12.333,329.855 12.494,332.004 12.415,336.348 12.397,344.331 12.981,329.847 
				13.63,329.847 13.64,331.743 13.838,344.622 14.18,329.826 14.644,329.819 14.693,332.033 14.872,344.049 15.226,333.993 
				15.297,329.884 15.946,329.819 15.875,333.407 16.013,343.609 16.596,329.624 17.246,329.624 17.325,330.726 17.296,344.913 
				17.929,329.546 17.295,313.927 			"/>
		</g>
		<g>
			<polygon class="st0" points="17.244,297.701 16.595,297.701 16.01,283.715 15.874,293.918 15.944,297.505 15.296,297.439 
				14.87,283.274 14.647,292.153 14.692,295.291 14.642,297.505 14.178,297.497 13.836,282.702 13.639,295.582 13.628,297.476 
				12.979,297.476 12.396,282.993 12.492,295.32 12.33,297.469 11.681,297.402 10.955,281.825 11.033,292.117 10.869,296.954 
				11.033,303.689 10.958,313.98 11.684,298.403 12.333,298.337 12.494,300.486 12.415,304.83 12.397,312.813 12.981,298.329 
				13.63,298.329 13.64,300.225 13.838,313.104 14.18,298.308 14.644,298.301 14.693,300.515 14.872,312.531 15.226,302.475 
				15.297,298.366 15.946,298.301 15.875,301.889 16.013,312.091 16.596,298.106 17.246,298.106 17.325,299.208 17.296,313.396 
				17.929,298.028 17.295,282.409 			"/>
		</g>
		<g>
			<polygon class="st0" points="17.244,266.183 16.595,266.183 16.01,252.197 15.874,262.4 15.944,265.987 15.296,265.921 
				14.87,251.756 14.647,260.635 14.692,263.772 14.642,265.987 14.178,265.979 13.836,251.184 13.639,264.063 13.628,265.958 
				12.979,265.958 12.396,251.475 12.492,263.802 12.33,265.951 11.681,265.885 10.955,250.307 11.033,260.599 10.869,265.436 
				11.033,272.171 10.958,282.462 11.684,266.885 12.333,266.819 12.494,268.968 12.415,273.312 12.397,281.295 12.981,266.812 
				13.63,266.812 13.64,268.707 13.838,281.586 14.18,266.79 14.644,266.783 14.693,268.998 14.872,281.013 15.226,270.957 
				15.297,266.849 15.946,266.783 15.875,270.371 16.013,280.573 16.596,266.588 17.246,266.588 17.325,267.69 17.296,281.877 
				17.929,266.511 17.295,250.891 			"/>
		</g>
		<g>
			<polygon class="st0" points="17.244,234.666 16.595,234.666 16.01,220.679 15.874,230.882 15.944,234.469 15.296,234.404 
				14.87,220.238 14.647,229.117 14.692,232.255 14.642,234.469 14.178,234.461 13.836,219.666 13.639,232.546 13.628,234.44 
				12.979,234.44 12.396,219.957 12.492,232.284 12.33,234.433 11.681,234.367 10.955,218.79 11.033,229.082 10.869,233.918 
				11.033,240.653 10.958,250.944 11.684,235.367 12.333,235.302 12.494,237.45 12.415,241.794 12.397,249.777 12.981,235.293 
				13.63,235.293 13.64,237.189 13.838,250.068 14.18,235.272 14.644,235.265 14.693,237.479 14.872,249.495 15.226,239.439 
				15.297,235.331 15.946,235.265 15.875,238.853 16.013,249.055 16.596,235.07 17.246,235.07 17.325,236.172 17.296,250.359 
				17.929,234.993 17.295,219.373 			"/>
		</g>
		<g>
			<polygon class="st0" points="17.244,203.147 16.595,203.147 16.01,189.161 15.874,199.364 15.944,202.951 15.296,202.886 
				14.87,188.721 14.647,197.6 14.692,200.737 14.642,202.951 14.178,202.943 13.836,188.148 13.639,201.028 13.628,202.922 
				12.979,202.922 12.396,188.439 12.492,200.766 12.33,202.915 11.681,202.849 10.955,187.271 11.033,197.563 10.869,202.4 
				11.033,209.135 10.958,219.426 11.684,203.849 12.333,203.784 12.494,205.932 12.415,210.276 12.397,218.259 12.981,203.775 
				13.63,203.775 13.64,205.671 13.838,218.55 14.18,203.754 14.644,203.748 14.693,205.962 14.872,217.978 15.226,207.921 
				15.297,203.813 15.946,203.748 15.875,207.335 16.013,217.537 16.596,203.552 17.246,203.552 17.325,204.655 17.296,218.842 
				17.929,203.475 17.295,187.855 			"/>
		</g>
		<g>
			<polygon class="st0" points="17.244,171.629 16.595,171.629 16.01,157.643 15.874,167.847 15.944,171.433 15.296,171.368 
				14.87,157.203 14.647,166.082 14.692,169.219 14.642,171.433 14.178,171.425 13.836,156.63 13.639,169.51 13.628,171.404 
				12.979,171.404 12.396,156.921 12.492,169.248 12.33,171.397 11.681,171.331 10.955,155.754 11.033,166.046 10.869,170.882 
				11.033,177.618 10.958,187.908 11.684,172.331 12.333,172.266 12.494,174.415 12.415,178.758 12.397,186.741 12.981,172.258 
				13.63,172.258 13.64,174.153 13.838,187.032 14.18,172.236 14.644,172.229 14.693,174.444 14.872,186.459 15.226,176.403 
				15.297,172.295 15.946,172.229 15.875,175.817 16.013,186.02 16.596,172.034 17.246,172.034 17.325,173.137 17.296,187.324 
				17.929,171.957 17.295,156.337 			"/>
		</g>
		<g>
			<polygon class="st0" points="17.244,140.112 16.595,140.112 16.01,126.125 15.874,136.329 15.944,139.915 15.296,139.85 
				14.87,125.685 14.647,134.563 14.692,137.701 14.642,139.915 14.178,139.907 13.836,125.112 13.639,137.992 13.628,139.887 
				12.979,139.887 12.396,125.403 12.492,137.73 12.33,139.879 11.681,139.813 10.955,124.236 11.033,134.528 10.869,139.364 
				11.033,146.1 10.958,156.391 11.684,140.813 12.333,140.748 12.494,142.896 12.415,147.24 12.397,155.223 12.981,140.74 
				13.63,140.74 13.64,142.635 13.838,155.514 14.18,140.719 14.644,140.711 14.693,142.926 14.872,154.941 15.226,144.886 
				15.297,140.777 15.946,140.711 15.875,144.299 16.013,154.501 16.596,140.517 17.246,140.517 17.325,141.619 17.296,155.806 
				17.929,140.439 17.295,124.819 			"/>
		</g>
		<g>
			<polygon class="st0" points="17.244,108.594 16.595,108.594 16.01,94.607 15.874,104.811 15.944,108.397 15.296,108.332 
				14.87,94.167 14.647,103.046 14.692,106.183 14.642,108.397 14.178,108.389 13.836,93.594 13.639,106.474 13.628,108.369 
				12.979,108.369 12.396,93.886 12.492,106.212 12.33,108.361 11.681,108.295 10.955,92.718 11.033,103.01 10.869,107.847 
				11.033,114.582 10.958,124.873 11.684,109.295 12.333,109.23 12.494,111.379 12.415,115.722 12.397,123.706 12.981,109.222 
				13.63,109.222 13.64,111.118 13.838,123.997 14.18,109.201 14.644,109.194 14.693,111.408 14.872,123.424 15.226,113.368 
				15.297,109.259 15.946,109.194 15.875,112.781 16.013,122.984 16.596,108.999 17.246,108.999 17.325,110.101 17.296,124.288 
				17.929,108.921 17.295,93.302 			"/>
		</g>
		<g>
			<polygon class="st0" points="17.244,77.076 16.595,77.076 16.01,63.09 15.874,73.293 15.944,76.879 15.296,76.814 14.87,62.649 
				14.647,71.528 14.692,74.665 14.642,76.879 14.178,76.872 13.836,62.076 13.639,74.956 13.628,76.851 12.979,76.851 
				12.396,62.368 12.492,74.695 12.33,76.844 11.681,76.777 10.955,61.2 11.033,71.492 10.869,76.329 11.033,83.064 10.958,93.355 
				11.684,77.777 12.333,77.712 12.494,79.861 12.415,84.205 12.397,92.188 12.981,77.704 13.63,77.704 13.64,79.6 13.838,92.479 
				14.18,77.683 14.644,77.676 14.693,79.89 14.872,91.906 15.226,81.85 15.297,77.741 15.946,77.676 15.875,81.264 16.013,91.466 
				16.596,77.48 17.246,77.48 17.325,78.583 17.296,92.77 17.929,77.403 17.295,61.784 			"/>
		</g>
		<g>
			<polygon class="st0" points="17.244,45.558 16.595,45.558 16.01,31.572 15.874,41.775 15.944,45.362 15.296,45.296 14.87,31.131 
				14.647,40.01 14.692,43.147 14.642,45.362 14.178,45.354 13.836,30.559 13.639,43.438 13.628,45.333 12.979,45.333 12.396,30.85 
				12.492,43.177 12.33,45.326 11.681,45.259 10.955,29.682 11.033,39.974 10.869,44.811 11.033,51.546 10.958,61.837 11.684,46.26 
				12.333,46.194 12.494,48.343 12.415,52.687 12.397,60.67 12.981,46.186 13.63,46.186 13.64,48.082 13.838,60.961 14.18,46.165 
				14.644,46.158 14.693,48.372 14.872,60.388 15.226,50.332 15.297,46.223 15.946,46.158 15.875,49.746 16.013,59.948 
				16.596,45.963 17.246,45.963 17.325,47.065 17.296,61.252 17.929,45.885 17.295,30.266 			"/>
		</g>
		<g>
			<polygon class="st0" points="46.217,17.244 46.217,16.595 60.473,16.01 50.073,15.874 46.417,15.944 46.484,15.296 60.922,14.87 
				51.872,14.647 48.674,14.692 46.417,14.642 46.426,14.178 61.506,13.836 48.378,13.639 46.447,13.628 46.447,12.979 
				61.209,12.396 48.645,12.492 46.454,12.33 46.522,11.681 62.399,10.955 51.909,11.033 46.979,10.869 40.114,11.033 
				29.625,10.958 45.502,11.684 45.569,12.333 43.379,12.494 38.952,12.415 30.814,12.397 45.577,12.981 45.577,13.63 43.645,13.64 
				30.518,13.838 45.599,14.18 45.606,14.644 43.349,14.693 31.102,14.872 41.352,15.226 45.54,15.297 45.606,15.946 41.949,15.875 
				31.55,16.013 45.805,16.596 45.805,17.246 44.681,17.325 30.221,17.296 45.884,17.929 61.804,17.295 			"/>
		</g>
		<g>
			<polygon class="st0" points="78.342,17.244 78.342,16.595 92.598,16.01 82.198,15.874 78.542,15.944 78.609,15.296 93.047,14.87 
				83.997,14.647 80.8,14.692 78.542,14.642 78.551,14.178 93.631,13.836 80.503,13.639 78.572,13.628 78.572,12.979 93.334,12.396 
				80.77,12.492 78.579,12.33 78.647,11.681 94.524,10.955 84.034,11.033 79.104,10.869 72.239,11.033 61.75,10.958 77.627,11.684 
				77.694,12.333 75.504,12.494 71.077,12.415 62.939,12.397 77.702,12.981 77.702,13.63 75.77,13.64 62.643,13.838 77.724,14.18 
				77.731,14.644 75.474,14.693 63.227,14.872 73.477,15.226 77.665,15.297 77.731,15.946 74.074,15.875 63.675,16.013 
				77.93,16.596 77.93,17.246 76.806,17.325 62.346,17.296 78.009,17.929 93.929,17.295 			"/>
		</g>
		<g>
			<polygon class="st0" points="110.467,17.244 110.467,16.595 124.723,16.01 114.323,15.874 110.667,15.944 110.734,15.296 
				125.172,14.87 116.123,14.647 112.925,14.692 110.667,14.642 110.676,14.178 125.756,13.836 112.628,13.639 110.697,13.628 
				110.697,12.979 125.459,12.396 112.895,12.492 110.704,12.33 110.772,11.681 126.649,10.955 116.159,11.033 111.229,10.869 
				104.364,11.033 93.875,10.958 109.752,11.684 109.819,12.333 107.629,12.494 103.202,12.415 95.065,12.397 109.827,12.981 
				109.827,13.63 107.895,13.64 94.768,13.838 109.849,14.18 109.856,14.644 107.599,14.693 95.352,14.872 105.602,15.226 
				109.79,15.297 109.856,15.946 106.199,15.875 95.8,16.013 110.055,16.596 110.055,17.246 108.931,17.325 94.471,17.296 
				110.134,17.929 126.054,17.295 			"/>
		</g>
		<g>
			<polygon class="st0" points="142.593,17.244 142.593,16.595 156.848,16.01 146.448,15.874 142.792,15.944 142.859,15.296 
				157.297,14.87 148.248,14.647 145.05,14.692 142.792,14.642 142.801,14.178 157.881,13.836 144.753,13.639 142.822,13.628 
				142.822,12.979 157.584,12.396 145.02,12.492 142.829,12.33 142.897,11.681 158.774,10.955 148.284,11.033 143.354,10.869 
				136.489,11.033 126,10.958 141.877,11.684 141.944,12.333 139.754,12.494 135.327,12.415 127.19,12.397 141.952,12.981 
				141.952,13.63 140.02,13.64 126.893,13.838 141.974,14.18 141.981,14.644 139.724,14.693 127.477,14.872 137.727,15.226 
				141.915,15.297 141.981,15.946 138.324,15.875 127.925,16.013 142.18,16.596 142.18,17.246 141.056,17.325 126.596,17.296 
				142.259,17.929 158.179,17.295 			"/>
		</g>
		<g>
			<polygon class="st0" points="174.718,17.244 174.718,16.595 188.973,16.01 178.573,15.874 174.918,15.944 174.984,15.296 
				189.422,14.87 180.373,14.647 177.175,14.692 174.918,14.642 174.926,14.178 190.006,13.836 176.878,13.639 174.947,13.628 
				174.947,12.979 189.709,12.396 177.145,12.492 174.954,12.33 175.022,11.681 190.899,10.955 180.409,11.033 175.479,10.869 
				168.614,11.033 158.125,10.958 174.002,11.684 174.069,12.333 171.879,12.494 167.452,12.415 159.315,12.397 174.077,12.981 
				174.077,13.63 172.145,13.64 159.018,13.838 174.099,14.18 174.106,14.644 171.849,14.693 159.602,14.872 169.852,15.226 
				174.04,15.297 174.106,15.946 170.449,15.875 160.05,16.013 174.305,16.596 174.305,17.246 173.181,17.325 158.721,17.296 
				174.384,17.929 190.305,17.295 			"/>
		</g>
		<g>
			<polygon class="st0" points="206.843,17.244 206.843,16.595 221.098,16.01 210.698,15.874 207.043,15.944 207.109,15.296 
				221.547,14.87 212.498,14.647 209.3,14.692 207.043,14.642 207.051,14.178 222.131,13.836 209.003,13.639 207.072,13.628 
				207.072,12.979 221.834,12.396 209.27,12.492 207.08,12.33 207.147,11.681 223.024,10.955 212.534,11.033 207.604,10.869 
				200.739,11.033 190.25,10.958 206.127,11.684 206.194,12.333 204.004,12.494 199.577,12.415 191.44,12.397 206.202,12.981 
				206.202,13.63 204.27,13.64 191.143,13.838 206.224,14.18 206.231,14.644 203.974,14.693 191.727,14.872 201.977,15.226 
				206.165,15.297 206.231,15.946 202.574,15.875 192.175,16.013 206.43,16.596 206.43,17.246 205.307,17.325 190.846,17.296 
				206.509,17.929 222.43,17.295 			"/>
		</g>
		<g>
			<polygon class="st0" points="238.968,17.244 238.968,16.595 253.224,16.01 242.824,15.874 239.168,15.944 239.234,15.296 
				253.672,14.87 244.623,14.647 241.425,14.692 239.168,14.642 239.176,14.178 254.256,13.836 241.128,13.639 239.197,13.628 
				239.197,12.979 253.959,12.396 241.395,12.492 239.205,12.33 239.272,11.681 255.149,10.955 244.659,11.033 239.729,10.869 
				232.864,11.033 222.375,10.958 238.252,11.684 238.319,12.333 236.129,12.494 231.702,12.415 223.565,12.397 238.327,12.981 
				238.327,13.63 236.396,13.64 223.268,13.838 238.349,14.18 238.356,14.644 236.099,14.693 223.852,14.872 234.102,15.226 
				238.29,15.297 238.356,15.946 234.699,15.875 224.301,16.013 238.555,16.596 238.555,17.246 237.432,17.325 222.971,17.296 
				238.634,17.929 254.555,17.295 			"/>
		</g>
		<g>
			<polygon class="st0" points="271.093,17.244 271.093,16.595 285.349,16.01 274.948,15.874 271.293,15.944 271.359,15.296 
				285.798,14.87 276.747,14.647 273.55,14.692 271.293,14.642 271.301,14.178 286.381,13.836 273.253,13.639 271.322,13.628 
				271.322,12.979 286.084,12.396 273.52,12.492 271.33,12.33 271.397,11.681 287.274,10.955 276.784,11.033 271.854,10.869 
				264.989,11.033 254.5,10.958 270.377,11.684 270.444,12.333 268.254,12.494 263.827,12.415 255.69,12.397 270.452,12.981 
				270.452,13.63 268.521,13.64 255.394,13.838 270.474,14.18 270.481,14.644 268.224,14.693 255.977,14.872 266.227,15.226 
				270.415,15.297 270.481,15.946 266.824,15.875 256.426,16.013 270.68,16.596 270.68,17.246 269.557,17.325 255.096,17.296 
				270.759,17.929 286.68,17.295 			"/>
		</g>
		<g>
			<polygon class="st0" points="303.218,17.244 303.218,16.595 317.474,16.01 307.073,15.874 303.418,15.944 303.484,15.296 
				317.923,14.87 308.873,14.647 305.675,14.692 303.418,14.642 303.426,14.178 318.506,13.836 305.378,13.639 303.447,13.628 
				303.447,12.979 318.209,12.396 305.645,12.492 303.454,12.33 303.522,11.681 319.399,10.955 308.909,11.033 303.979,10.869 
				297.114,11.033 286.625,10.958 302.503,11.684 302.569,12.333 300.379,12.494 295.952,12.415 287.815,12.397 302.577,12.981 
				302.577,13.63 300.646,13.64 287.519,13.838 302.599,14.18 302.606,14.644 300.35,14.693 288.103,14.872 298.352,15.226 
				302.54,15.297 302.606,15.946 298.949,15.875 288.551,16.013 302.806,16.596 302.806,17.246 301.682,17.325 287.222,17.296 
				302.884,17.929 318.805,17.295 			"/>
		</g>
		<g>
			<polygon class="st0" points="335.343,17.244 335.343,16.595 349.599,16.01 339.198,15.874 335.543,15.944 335.609,15.296 
				350.048,14.87 340.998,14.647 337.8,14.692 335.543,14.642 335.551,14.178 350.632,13.836 337.503,13.639 335.572,13.628 
				335.572,12.979 350.334,12.396 337.77,12.492 335.579,12.33 335.647,11.681 351.524,10.955 341.034,11.033 336.104,10.869 
				329.239,11.033 318.75,10.958 334.628,11.684 334.694,12.333 332.504,12.494 328.077,12.415 319.94,12.397 334.702,12.981 
				334.702,13.63 332.771,13.64 319.644,13.838 334.724,14.18 334.731,14.644 332.475,14.693 320.228,14.872 330.477,15.226 
				334.665,15.297 334.731,15.946 331.074,15.875 320.676,16.013 334.931,16.596 334.931,17.246 333.807,17.325 319.347,17.296 
				335.009,17.929 350.93,17.295 			"/>
		</g>
		<g>
			<polygon class="st0" points="367.468,17.244 367.468,16.595 381.724,16.01 371.323,15.874 367.668,15.944 367.734,15.296 
				382.173,14.87 373.123,14.647 369.925,14.692 367.668,14.642 367.677,14.178 382.757,13.836 369.628,13.639 367.697,13.628 
				367.697,12.979 382.459,12.396 369.895,12.492 367.704,12.33 367.772,11.681 383.649,10.955 373.159,11.033 368.229,10.869 
				361.364,11.033 350.875,10.958 366.753,11.684 366.819,12.333 364.629,12.494 360.202,12.415 352.065,12.397 366.827,12.981 
				366.827,13.63 364.896,13.64 351.769,13.838 366.849,14.18 366.856,14.644 364.6,14.693 352.353,14.872 362.602,15.226 
				366.79,15.297 366.856,15.946 363.199,15.875 352.801,16.013 367.056,16.596 367.056,17.246 365.932,17.325 351.472,17.296 
				367.134,17.929 383.055,17.295 			"/>
		</g>
		<g>
			<polygon class="st0" points="399.593,17.244 399.593,16.595 413.849,16.01 403.448,15.874 399.793,15.944 399.859,15.296 
				414.298,14.87 405.248,14.647 402.05,14.692 399.793,14.642 399.802,14.178 414.882,13.836 401.753,13.639 399.822,13.628 
				399.822,12.979 414.584,12.396 402.021,12.492 399.829,12.33 399.897,11.681 415.774,10.955 405.284,11.033 400.354,10.869 
				393.489,11.033 383,10.958 398.878,11.684 398.944,12.333 396.754,12.494 392.327,12.415 384.19,12.397 398.952,12.981 
				398.952,13.63 397.021,13.64 383.894,13.838 398.975,14.18 398.981,14.644 396.725,14.693 384.478,14.872 394.727,15.226 
				398.915,15.297 398.981,15.946 395.324,15.875 384.926,16.013 399.181,16.596 399.181,17.246 398.057,17.325 383.597,17.296 
				399.259,17.929 415.18,17.295 			"/>
		</g>
		<g>
			<polygon class="st0" points="431.718,17.244 431.718,16.595 445.974,16.01 435.573,15.874 431.918,15.944 431.984,15.296 
				446.423,14.87 437.373,14.647 434.175,14.692 431.918,14.642 431.927,14.178 447.007,13.836 433.878,13.639 431.947,13.628 
				431.947,12.979 446.709,12.396 434.146,12.492 431.955,12.33 432.022,11.681 447.899,10.955 437.409,11.033 432.479,10.869 
				425.614,11.033 415.125,10.958 431.003,11.684 431.069,12.333 428.88,12.494 424.452,12.415 416.315,12.397 431.077,12.981 
				431.077,13.63 429.146,13.64 416.019,13.838 431.1,14.18 431.106,14.644 428.85,14.693 416.603,14.872 426.852,15.226 
				431.04,15.297 431.106,15.946 427.449,15.875 417.051,16.013 431.306,16.596 431.306,17.246 430.182,17.325 415.722,17.296 
				431.384,17.929 447.305,17.295 			"/>
		</g>
		<g>
			<polygon class="st0" points="463.843,17.244 463.843,16.595 478.099,16.01 467.699,15.874 464.043,15.944 464.109,15.296 
				478.548,14.87 469.498,14.647 466.3,14.692 464.043,14.642 464.052,14.178 479.132,13.836 466.003,13.639 464.072,13.628 
				464.072,12.979 478.834,12.396 466.271,12.492 464.08,12.33 464.147,11.681 480.024,10.955 469.534,11.033 464.604,10.869 
				457.739,11.033 447.25,10.958 463.128,11.684 463.194,12.333 461.005,12.494 456.577,12.415 448.44,12.397 463.202,12.981 
				463.202,13.63 461.271,13.64 448.144,13.838 463.225,14.18 463.231,14.644 460.975,14.693 448.728,14.872 458.977,15.226 
				463.165,15.297 463.231,15.946 459.574,15.875 449.176,16.013 463.431,16.596 463.431,17.246 462.307,17.325 447.847,17.296 
				463.509,17.929 479.43,17.295 			"/>
		</g>
		<g>
			<polygon class="st0" points="495.968,17.244 495.968,16.595 510.224,16.01 499.824,15.874 496.168,15.944 496.234,15.296 
				510.673,14.87 501.623,14.647 498.425,14.692 496.168,14.642 496.177,14.178 511.257,13.836 498.129,13.639 496.197,13.628 
				496.197,12.979 510.959,12.396 498.396,12.492 496.205,12.33 496.272,11.681 512.149,10.955 501.659,11.033 496.729,10.869 
				489.864,11.033 479.375,10.958 495.253,11.684 495.319,12.333 493.13,12.494 488.702,12.415 480.565,12.397 495.328,12.981 
				495.328,13.63 493.396,13.64 480.269,13.838 495.35,14.18 495.356,14.644 493.1,14.693 480.853,14.872 491.103,15.226 
				495.29,15.297 495.356,15.946 491.699,15.875 481.301,16.013 495.556,16.596 495.556,17.246 494.432,17.325 479.972,17.296 
				495.634,17.929 511.555,17.295 			"/>
		</g>
		<g>
			<polygon class="st0" points="524.583,45.911 525.231,45.911 525.815,59.897 525.952,49.693 525.882,46.107 526.53,46.172 
				526.956,60.337 527.179,51.458 527.134,48.321 527.185,46.107 527.648,46.115 527.99,60.91 528.188,48.03 528.198,46.136 
				528.847,46.136 529.431,60.619 529.334,48.292 529.496,46.143 530.145,46.209 530.871,61.786 530.794,51.494 530.957,46.658 
				530.794,39.922 530.869,29.631 530.143,45.209 529.494,45.274 529.333,43.125 529.411,38.782 529.43,30.799 528.845,45.282 
				528.196,45.282 528.187,43.387 527.987,30.508 527.646,45.304 527.183,45.311 527.133,43.096 526.954,31.081 526.6,41.137 
				526.529,45.245 525.88,45.311 525.951,41.723 525.813,31.521 525.23,45.506 524.58,45.506 524.501,44.403 524.53,30.216 
				523.897,45.583 524.531,61.203 			"/>
		</g>
		<g>
			<polygon class="st0" points="524.583,77.428 525.231,77.428 525.815,91.415 525.952,81.211 525.882,77.625 526.53,77.69 
				526.956,91.855 527.179,82.977 527.134,79.839 527.185,77.625 527.648,77.633 527.99,92.428 528.188,79.548 528.198,77.653 
				528.847,77.653 529.431,92.136 529.334,79.81 529.496,77.661 530.145,77.727 530.871,93.304 530.794,83.012 530.957,78.176 
				530.794,71.44 530.869,61.149 530.143,76.727 529.494,76.792 529.333,74.644 529.411,70.3 529.43,62.316 528.845,76.8 
				528.196,76.8 528.187,74.904 527.987,62.026 527.646,76.821 527.183,76.829 527.133,74.614 526.954,62.599 526.6,72.654 
				526.529,76.763 525.88,76.829 525.951,73.241 525.813,63.039 525.23,77.023 524.58,77.023 524.501,75.921 524.53,61.734 
				523.897,77.101 524.531,92.721 			"/>
		</g>
		<g>
			<polygon class="st0" points="524.583,108.946 525.231,108.946 525.815,122.933 525.952,112.729 525.882,109.143 526.53,109.208 
				526.956,123.373 527.179,114.494 527.134,111.357 527.185,109.143 527.648,109.151 527.99,123.946 528.188,111.066 
				528.198,109.171 528.847,109.171 529.431,123.654 529.334,111.328 529.496,109.179 530.145,109.245 530.871,124.822 
				530.794,114.53 530.957,109.693 530.794,102.958 530.869,92.667 530.143,108.245 529.494,108.31 529.333,106.161 
				529.411,101.817 529.43,93.834 528.845,108.318 528.196,108.318 528.187,106.422 527.987,93.543 527.646,108.339 
				527.183,108.346 527.133,106.132 526.954,94.116 526.6,104.172 526.529,108.281 525.88,108.346 525.951,104.759 525.813,94.556 
				525.23,108.542 524.58,108.542 524.501,107.439 524.53,93.252 523.897,108.619 524.531,124.238 			"/>
		</g>
		<g>
			<polygon class="st0" points="524.583,140.464 525.231,140.464 525.815,154.45 525.952,144.247 525.882,140.661 526.53,140.726 
				526.956,154.891 527.179,146.012 527.134,142.875 527.185,140.661 527.648,140.668 527.99,155.464 528.188,142.584 
				528.198,140.689 528.847,140.689 529.431,155.172 529.334,142.845 529.496,140.696 530.145,140.763 530.871,156.34 
				530.794,146.048 530.957,141.211 530.794,134.476 530.869,124.185 530.143,139.763 529.494,139.828 529.333,137.679 
				529.411,133.335 529.43,125.353 528.845,139.836 528.196,139.836 528.187,137.94 527.987,125.062 527.646,139.857 
				527.183,139.864 527.133,137.65 526.954,125.634 526.6,135.69 526.529,139.799 525.88,139.864 525.951,136.276 525.813,126.074 
				525.23,140.06 524.58,140.06 524.501,138.957 524.53,124.77 523.897,140.137 524.531,155.756 			"/>
		</g>
		<g>
			<polygon class="st0" points="524.583,171.982 525.231,171.982 525.815,185.968 525.952,175.765 525.882,172.178 526.53,172.244 
				526.956,186.409 527.179,177.53 527.134,174.393 527.185,172.178 527.648,172.187 527.99,186.981 528.188,174.102 
				528.198,172.207 528.847,172.207 529.431,186.69 529.334,174.363 529.496,172.214 530.145,172.281 530.871,187.858 
				530.794,177.566 530.957,172.729 530.794,165.994 530.869,155.703 530.143,171.28 529.494,171.346 529.333,169.197 
				529.411,164.854 529.43,156.87 528.845,171.354 528.196,171.354 528.187,169.458 527.987,156.579 527.646,171.375 
				527.183,171.382 527.133,169.168 526.954,157.152 526.6,167.208 526.529,171.317 525.88,171.382 525.951,167.794 
				525.813,157.592 525.23,171.577 524.58,171.577 524.501,170.475 524.53,156.288 523.897,171.654 524.531,187.274 			"/>
		</g>
		<g>
			<polygon class="st0" points="524.583,203.5 525.231,203.5 525.815,217.486 525.952,207.283 525.882,203.696 526.53,203.762 
				526.956,217.927 527.179,209.048 527.134,205.911 527.185,203.696 527.648,203.705 527.99,218.5 528.188,205.62 528.198,203.725 
				528.847,203.725 529.431,218.208 529.334,205.881 529.496,203.732 530.145,203.798 530.871,219.376 530.794,209.084 
				530.957,204.247 530.794,197.512 530.869,187.221 530.143,202.798 529.494,202.863 529.333,200.715 529.411,196.371 
				529.43,188.388 528.845,202.872 528.196,202.872 528.187,200.976 527.987,188.097 527.646,202.893 527.183,202.9 
				527.133,200.686 526.954,188.67 526.6,198.726 526.529,202.834 525.88,202.9 525.951,199.313 525.813,189.11 525.23,203.095 
				524.58,203.095 524.501,201.993 524.53,187.806 523.897,203.172 524.531,218.792 			"/>
		</g>
		<g>
			<polygon class="st0" points="524.583,235.018 525.231,235.018 525.815,249.004 525.952,238.801 525.882,235.214 526.53,235.279 
				526.956,249.445 527.179,240.566 527.134,237.428 527.185,235.214 527.648,235.222 527.99,250.018 528.188,237.137 
				528.198,235.243 528.847,235.243 529.431,249.726 529.334,237.399 529.496,235.25 530.145,235.316 530.871,250.894 
				530.794,240.602 530.957,235.765 530.794,229.03 530.869,218.739 530.143,234.316 529.494,234.381 529.333,232.233 
				529.411,227.889 529.43,219.906 528.845,234.39 528.196,234.39 528.187,232.494 527.987,219.615 527.646,234.411 
				527.183,234.418 527.133,232.204 526.954,220.188 526.6,230.244 526.529,234.353 525.88,234.418 525.951,230.83 525.813,220.628 
				525.23,234.613 524.58,234.613 524.501,233.511 524.53,219.324 523.897,234.69 524.531,250.31 			"/>
		</g>
		<g>
			<polygon class="st0" points="524.583,266.536 525.231,266.536 525.815,280.522 525.952,270.318 525.882,266.732 526.53,266.797 
				526.956,280.962 527.179,272.083 527.134,268.946 527.185,266.732 527.648,266.74 527.99,281.535 528.188,268.655 
				528.198,266.761 528.847,266.761 529.431,281.244 529.334,268.917 529.496,266.768 530.145,266.834 530.871,282.412 
				530.794,272.12 530.957,267.283 530.794,260.548 530.869,250.257 530.143,265.834 529.494,265.899 529.333,263.751 
				529.411,259.407 529.43,251.424 528.845,265.907 528.196,265.907 528.187,264.012 527.987,251.133 527.646,265.929 
				527.183,265.936 527.133,263.722 526.954,251.706 526.6,261.762 526.529,265.871 525.88,265.936 525.951,262.348 
				525.813,252.146 525.23,266.131 524.58,266.131 524.501,265.028 524.53,250.841 523.897,266.208 524.531,281.828 			"/>
		</g>
		<g>
			<polygon class="st0" points="524.583,298.054 525.231,298.054 525.815,312.04 525.952,301.836 525.882,298.25 526.53,298.315 
				526.956,312.48 527.179,303.602 527.134,300.464 527.185,298.25 527.648,298.258 527.99,313.053 528.188,300.173 
				528.198,298.279 528.847,298.279 529.431,312.762 529.334,300.435 529.496,298.286 530.145,298.352 530.871,313.93 
				530.794,303.637 530.957,298.801 530.794,292.065 530.869,281.774 530.143,297.352 529.494,297.417 529.333,295.269 
				529.411,290.925 529.43,282.942 528.845,297.425 528.196,297.425 528.187,295.53 527.987,282.651 527.646,297.446 
				527.183,297.454 527.133,295.239 526.954,283.224 526.6,293.28 526.529,297.388 525.88,297.454 525.951,293.866 525.813,283.664 
				525.23,297.649 524.58,297.649 524.501,296.546 524.53,282.359 523.897,297.726 524.531,313.346 			"/>
		</g>
		<g>
			<polygon class="st0" points="524.583,329.571 525.231,329.571 525.815,343.558 525.952,333.354 525.882,329.768 526.53,329.833 
				526.956,343.999 527.179,335.119 527.134,331.982 527.185,329.768 527.648,329.776 527.99,344.571 528.188,331.691 
				528.198,329.796 528.847,329.796 529.431,344.279 529.334,331.953 529.496,329.804 530.145,329.87 530.871,345.447 
				530.794,335.155 530.957,330.319 530.794,323.583 530.869,313.292 530.143,328.87 529.494,328.935 529.333,326.787 
				529.411,322.443 529.43,314.46 528.845,328.943 528.196,328.943 528.187,327.048 527.987,314.169 527.646,328.964 
				527.183,328.972 527.133,326.757 526.954,314.742 526.6,324.797 526.529,328.906 525.88,328.972 525.951,325.384 
				525.813,315.182 525.23,329.167 524.58,329.167 524.501,328.064 524.53,313.877 523.897,329.244 524.531,344.864 			"/>
		</g>
		<g>
			<polygon class="st0" points="524.583,361.089 525.231,361.089 525.815,375.075 525.952,364.872 525.882,361.286 526.53,361.351 
				526.956,375.517 527.179,366.638 527.134,363.5 527.185,361.286 527.648,361.294 527.99,376.089 528.188,363.209 
				528.198,361.314 528.847,361.314 529.431,375.798 529.334,363.471 529.496,361.322 530.145,361.388 530.871,376.965 
				530.794,366.673 530.957,361.837 530.794,355.102 530.869,344.811 530.143,360.388 529.494,360.453 529.333,358.305 
				529.411,353.961 529.43,345.978 528.845,360.461 528.196,360.461 528.187,358.565 527.987,345.687 527.646,360.482 
				527.183,360.489 527.133,358.275 526.954,346.259 526.6,356.315 526.529,360.424 525.88,360.489 525.951,356.902 
				525.813,346.699 525.23,360.685 524.58,360.685 524.501,359.582 524.53,345.395 523.897,360.762 524.531,376.382 			"/>
		</g>
		<g>
			<polygon class="st0" points="524.583,392.607 525.231,392.607 525.815,406.594 525.952,396.39 525.882,392.804 526.53,392.869 
				526.956,407.034 527.179,398.155 527.134,395.018 527.185,392.804 527.648,392.812 527.99,407.606 528.188,394.727 
				528.198,392.832 528.847,392.832 529.431,407.315 529.334,394.988 529.496,392.84 530.145,392.906 530.871,408.483 
				530.794,398.191 530.957,393.354 530.794,386.619 530.869,376.328 530.143,391.905 529.494,391.971 529.333,389.822 
				529.411,385.479 529.43,377.495 528.845,391.979 528.196,391.979 528.187,390.083 527.987,377.204 527.646,392 527.183,392.007 
				527.133,389.793 526.954,377.777 526.6,387.833 526.529,391.942 525.88,392.007 525.951,388.42 525.813,378.218 525.23,392.202 
				524.58,392.202 524.501,391.1 524.53,376.913 523.897,392.279 524.531,407.899 			"/>
		</g>
		<g>
			<polygon class="st0" points="524.583,424.125 525.231,424.125 525.815,438.111 525.952,427.908 525.882,424.321 526.53,424.387 
				526.956,438.552 527.179,429.673 527.134,426.536 527.185,424.321 527.648,424.329 527.99,439.125 528.188,426.245 
				528.198,424.351 528.847,424.351 529.431,438.833 529.334,426.507 529.496,424.357 530.145,424.424 530.871,440.001 
				530.794,429.709 530.957,424.872 530.794,418.137 530.869,407.846 530.143,423.424 529.494,423.488 529.333,421.34 
				529.411,416.996 529.43,409.014 528.845,423.497 528.196,423.497 528.187,421.602 527.987,408.723 527.646,423.519 
				527.183,423.525 527.133,421.311 526.954,409.295 526.6,419.352 526.529,423.46 525.88,423.525 525.951,419.938 525.813,409.735 
				525.23,423.721 524.58,423.721 524.501,422.618 524.53,408.431 523.897,423.798 524.531,439.417 			"/>
		</g>
		<g>
			<polygon class="st0" points="524.583,455.643 525.231,455.643 525.815,469.629 525.952,459.426 525.882,455.839 526.53,455.904 
				526.956,470.07 527.179,461.191 527.134,458.054 527.185,455.839 527.648,455.848 527.99,470.643 528.188,457.763 
				528.198,455.868 528.847,455.868 529.431,470.351 529.334,458.024 529.496,455.875 530.145,455.941 530.871,471.519 
				530.794,461.227 530.957,456.391 530.794,449.655 530.869,439.364 530.143,454.941 529.494,455.007 529.333,452.858 
				529.411,448.515 529.43,440.531 528.845,455.015 528.196,455.015 528.187,453.119 527.987,440.24 527.646,455.036 
				527.183,455.043 527.133,452.829 526.954,440.813 526.6,450.869 526.529,454.978 525.88,455.043 525.951,451.455 
				525.813,441.253 525.23,455.238 524.58,455.238 524.501,454.136 524.53,439.949 523.897,455.315 524.531,470.936 			"/>
		</g>
		<g>
			<polygon class="st0" points="524.583,487.161 525.231,487.161 525.815,501.147 525.952,490.943 525.882,487.357 526.53,487.423 
				526.956,501.588 527.179,492.709 527.134,489.571 527.185,487.357 527.648,487.365 527.99,502.16 528.188,489.28 
				528.198,487.386 528.847,487.386 529.431,501.869 529.334,489.542 529.496,487.394 530.145,487.46 530.871,503.037 
				530.794,492.745 530.957,487.908 530.794,481.173 530.869,470.882 530.143,486.459 529.494,486.524 529.333,484.376 
				529.411,480.032 529.43,472.049 528.845,486.532 528.196,486.532 528.187,484.637 527.987,471.758 527.646,486.554 
				527.183,486.561 527.133,484.347 526.954,472.331 526.6,482.387 526.529,486.496 525.88,486.561 525.951,482.974 
				525.813,472.771 525.23,486.756 524.58,486.756 524.501,485.653 524.53,471.467 523.897,486.833 524.531,502.453 			"/>
		</g>
		<g>
			<polygon class="st0" points="524.583,518.679 525.231,518.679 525.815,532.665 525.952,522.462 525.882,518.875 526.53,518.94 
				526.956,533.105 527.179,524.227 527.134,521.09 527.185,518.875 527.648,518.883 527.99,533.679 528.188,520.799 
				528.198,518.904 528.847,518.904 529.431,533.387 529.334,521.06 529.496,518.911 530.145,518.978 530.871,534.555 
				530.794,524.263 530.957,519.426 530.794,512.69 530.869,502.399 530.143,517.978 529.494,518.042 529.333,515.894 
				529.411,511.55 529.43,503.567 528.845,518.051 528.196,518.051 528.187,516.155 527.987,503.276 527.646,518.071 
				527.183,518.079 527.133,515.864 526.954,503.849 526.6,513.904 526.529,518.014 525.88,518.079 525.951,514.491 
				525.813,504.289 525.23,518.274 524.58,518.274 524.501,517.172 524.53,502.984 523.897,518.352 524.531,533.971 			"/>
		</g>
		<g>
			<polygon class="st0" points="524.583,550.196 525.231,550.196 525.815,564.183 525.952,553.979 525.882,550.393 526.53,550.458 
				526.956,564.623 527.179,555.744 527.134,552.607 527.185,550.393 527.648,550.401 527.99,565.196 528.188,552.316 
				528.198,550.422 528.847,550.422 529.431,564.904 529.334,552.578 529.496,550.429 530.145,550.495 530.871,566.072 
				530.794,555.78 530.957,550.944 530.794,544.209 530.869,533.918 530.143,549.495 529.494,549.561 529.333,547.412 
				529.411,543.068 529.43,535.085 528.845,549.568 528.196,549.568 528.187,547.673 527.987,534.794 527.646,549.59 
				527.183,549.597 527.133,547.383 526.954,535.366 526.6,545.423 526.529,549.531 525.88,549.597 525.951,546.009 
				525.813,535.807 525.23,549.792 524.58,549.792 524.501,548.689 524.53,534.502 523.897,549.869 524.531,565.489 			"/>
		</g>
		<g>
			<polygon class="st0" points="524.583,581.715 525.231,581.715 525.815,595.701 525.952,585.497 525.882,581.911 526.53,581.977 
				526.956,596.142 527.179,587.263 527.134,584.125 527.185,581.911 527.648,581.919 527.99,596.714 528.188,583.834 
				528.198,581.939 528.847,581.939 529.431,596.423 529.334,584.096 529.496,581.946 530.145,582.013 530.871,597.591 
				530.794,587.299 530.957,582.462 530.794,575.727 530.869,565.436 530.143,581.013 529.494,581.078 529.333,578.93 
				529.411,574.586 529.43,566.603 528.845,581.086 528.196,581.086 528.187,579.19 527.987,566.312 527.646,581.107 
				527.183,581.114 527.133,578.9 526.954,566.885 526.6,576.94 526.529,581.049 525.88,581.114 525.951,577.527 525.813,567.324 
				525.23,581.31 524.58,581.31 524.501,580.207 524.53,566.021 523.897,581.387 524.531,597.007 			"/>
		</g>
		<g>
			<polygon class="st0" points="524.583,613.232 525.231,613.232 525.815,627.219 525.952,617.016 525.882,613.429 526.53,613.494 
				526.956,627.659 527.179,618.78 527.134,615.643 527.185,613.429 527.648,613.437 527.99,628.232 528.188,615.352 
				528.198,613.458 528.847,613.458 529.431,627.94 529.334,615.613 529.496,613.465 530.145,613.531 530.871,629.108 
				530.794,618.816 530.957,613.979 530.794,607.244 530.869,596.953 530.143,612.53 529.494,612.596 529.333,610.447 
				529.411,606.104 529.43,598.121 528.845,612.604 528.196,612.604 528.187,610.709 527.987,597.83 527.646,612.625 
				527.183,612.633 527.133,610.418 526.954,598.402 526.6,608.458 526.529,612.567 525.88,612.633 525.951,609.045 
				525.813,598.843 525.23,612.828 524.58,612.828 524.501,611.726 524.53,597.538 523.897,612.905 524.531,628.524 			"/>
		</g>
		<g>
			<polygon class="st0" points="524.583,644.75 525.231,644.75 525.815,658.736 525.952,648.533 525.882,644.946 526.53,645.012 
				526.956,659.177 527.179,650.298 527.134,647.161 527.185,644.946 527.648,644.955 527.99,659.75 528.188,646.87 
				528.198,644.976 528.847,644.976 529.431,659.458 529.334,647.132 529.496,644.982 530.145,645.049 530.871,660.626 
				530.794,650.334 530.957,645.498 530.794,638.763 530.869,628.472 530.143,644.049 529.494,644.114 529.333,641.966 
				529.411,637.622 529.43,629.639 528.845,644.122 528.196,644.122 528.187,642.227 527.987,629.348 527.646,644.144 
				527.183,644.15 527.133,641.937 526.954,629.92 526.6,639.977 526.529,644.085 525.88,644.15 525.951,640.563 525.813,630.36 
				525.23,644.346 524.58,644.346 524.501,643.243 524.53,629.056 523.897,644.423 524.531,660.043 			"/>
		</g>
		<g>
			<polygon class="st0" points="524.583,676.269 525.231,676.269 525.815,690.255 525.952,680.051 525.882,676.465 526.53,676.53 
				526.956,690.695 527.179,681.816 527.134,678.679 527.185,676.465 527.648,676.473 527.99,691.268 528.188,678.388 
				528.198,676.493 528.847,676.493 529.431,690.977 529.334,678.649 529.496,676.5 530.145,676.566 530.871,692.145 
				530.794,681.852 530.957,677.016 530.794,670.28 530.869,659.989 530.143,675.566 529.494,675.632 529.333,673.483 
				529.411,669.14 529.43,661.156 528.845,675.64 528.196,675.64 528.187,673.744 527.987,660.865 527.646,675.661 527.183,675.668 
				527.133,673.454 526.954,661.438 526.6,671.494 526.529,675.603 525.88,675.668 525.951,672.08 525.813,661.878 525.23,675.863 
				524.58,675.863 524.501,674.761 524.53,660.574 523.897,675.94 524.531,691.561 			"/>
		</g>
		<g>
			<polygon class="st0" points="495.608,704.583 495.608,705.231 481.353,705.815 491.753,705.952 495.408,705.882 495.342,706.53 
				480.904,706.956 489.954,707.179 493.151,707.134 495.408,707.185 495.4,707.648 480.32,707.99 493.448,708.188 495.379,708.198 
				495.379,708.847 480.617,709.431 493.182,709.334 495.372,709.496 495.305,710.145 479.427,710.871 489.917,710.794 
				494.847,710.957 501.712,710.794 512.201,710.869 496.324,710.143 496.258,709.494 498.447,709.333 502.875,709.411 
				511.012,709.43 496.249,708.845 496.249,708.196 498.181,708.187 511.309,707.987 496.228,707.646 496.221,707.183 
				498.478,707.133 510.725,706.954 500.475,706.6 496.287,706.529 496.221,705.88 499.877,705.951 510.275,705.813 496.021,705.23 
				496.021,704.58 497.145,704.501 511.605,704.53 495.942,703.897 480.021,704.531 			"/>
		</g>
		<g>
			<polygon class="st0" points="463.483,704.583 463.483,705.231 449.228,705.815 459.628,705.952 463.283,705.882 463.217,706.53 
				448.779,706.956 457.829,707.179 461.026,707.134 463.283,707.185 463.275,707.648 448.195,707.99 461.323,708.188 
				463.254,708.198 463.254,708.847 448.492,709.431 461.057,709.334 463.247,709.496 463.18,710.145 447.302,710.871 
				457.792,710.794 462.722,710.957 469.587,710.794 480.076,710.869 464.199,710.143 464.133,709.494 466.322,709.333 
				470.75,709.411 478.887,709.43 464.124,708.845 464.124,708.196 466.056,708.187 479.183,707.987 464.103,707.646 
				464.095,707.183 466.353,707.133 478.6,706.954 468.35,706.6 464.162,706.529 464.095,705.88 467.752,705.951 478.15,705.813 
				463.896,705.23 463.896,704.58 465.02,704.501 479.48,704.53 463.817,703.897 447.896,704.531 			"/>
		</g>
		<g>
			<polygon class="st0" points="431.358,704.583 431.358,705.231 417.103,705.815 427.503,705.952 431.158,705.882 431.092,706.53 
				416.654,706.956 425.704,707.179 428.901,707.134 431.158,707.185 431.15,707.648 416.07,707.99 429.198,708.188 
				431.129,708.198 431.129,708.847 416.367,709.431 428.932,709.334 431.122,709.496 431.055,710.145 415.177,710.871 
				425.667,710.794 430.597,710.957 437.462,710.794 447.951,710.869 432.074,710.143 432.007,709.494 434.197,709.333 
				438.625,709.411 446.762,709.43 431.999,708.845 431.999,708.196 433.931,708.187 447.058,707.987 431.978,707.646 
				431.97,707.183 434.228,707.133 446.475,706.954 436.225,706.6 432.037,706.529 431.97,705.88 435.627,705.951 446.025,705.813 
				431.771,705.23 431.771,704.58 432.895,704.501 447.355,704.53 431.692,703.897 415.771,704.531 			"/>
		</g>
		<g>
			<polygon class="st0" points="399.233,704.583 399.233,705.231 384.978,705.815 395.378,705.952 399.033,705.882 398.967,706.53 
				384.528,706.956 393.579,707.179 396.776,707.134 399.033,707.185 399.025,707.648 383.945,707.99 397.073,708.188 
				399.004,708.198 399.004,708.847 384.242,709.431 396.807,709.334 398.997,709.496 398.93,710.145 383.052,710.871 
				393.542,710.794 398.472,710.957 405.337,710.794 415.826,710.869 399.949,710.143 399.882,709.494 402.072,709.333 
				406.5,709.411 414.637,709.43 399.874,708.845 399.874,708.196 401.806,708.187 414.933,707.987 399.853,707.646 
				399.845,707.183 402.103,707.133 414.35,706.954 404.1,706.6 399.912,706.529 399.845,705.88 403.502,705.951 413.9,705.813 
				399.646,705.23 399.646,704.58 400.77,704.501 415.23,704.53 399.567,703.897 383.646,704.531 			"/>
		</g>
		<g>
			<polygon class="st0" points="367.108,704.583 367.108,705.231 352.853,705.815 363.253,705.952 366.908,705.882 366.842,706.53 
				352.403,706.956 361.454,707.179 364.651,707.134 366.908,707.185 366.9,707.648 351.82,707.99 364.948,708.188 366.879,708.198 
				366.879,708.847 352.117,709.431 364.682,709.334 366.872,709.496 366.805,710.145 350.927,710.871 361.417,710.794 
				366.347,710.957 373.212,710.794 383.701,710.869 367.824,710.143 367.757,709.494 369.947,709.333 374.374,709.411 
				382.512,709.43 367.749,708.845 367.749,708.196 369.681,708.187 382.808,707.987 367.728,707.646 367.72,707.183 
				369.977,707.133 382.225,706.954 371.975,706.6 367.786,706.529 367.72,705.88 371.377,705.951 381.775,705.813 367.521,705.23 
				367.521,704.58 368.645,704.501 383.105,704.53 367.442,703.897 351.521,704.531 			"/>
		</g>
		<g>
			<polygon class="st0" points="334.983,704.583 334.983,705.231 320.728,705.815 331.128,705.952 334.783,705.882 334.717,706.53 
				320.278,706.956 329.329,707.179 332.526,707.134 334.783,707.185 334.775,707.648 319.695,707.99 332.823,708.188 
				334.754,708.198 334.754,708.847 319.992,709.431 332.557,709.334 334.747,709.496 334.679,710.145 318.802,710.871 
				329.292,710.794 334.222,710.957 341.087,710.794 351.576,710.869 335.698,710.143 335.632,709.494 337.822,709.333 
				342.249,709.411 350.387,709.43 335.624,708.845 335.624,708.196 337.556,708.187 350.683,707.987 335.603,707.646 
				335.595,707.183 337.852,707.133 350.1,706.954 339.85,706.6 335.661,706.529 335.595,705.88 339.252,705.951 349.65,705.813 
				335.396,705.23 335.396,704.58 336.52,704.501 350.98,704.53 335.317,703.897 319.396,704.531 			"/>
		</g>
		<g>
			<polygon class="st0" points="302.858,704.583 302.858,705.231 288.603,705.815 299.003,705.952 302.658,705.882 302.592,706.53 
				288.153,706.956 297.204,707.179 300.401,707.134 302.658,707.185 302.65,707.648 287.57,707.99 300.698,708.188 
				302.629,708.198 302.629,708.847 287.867,709.431 300.432,709.334 302.622,709.496 302.554,710.145 286.677,710.871 
				297.167,710.794 302.097,710.957 308.962,710.794 319.451,710.869 303.573,710.143 303.507,709.494 305.697,709.333 
				310.124,709.411 318.262,709.43 303.499,708.845 303.499,708.196 305.431,708.187 318.558,707.987 303.478,707.646 
				303.47,707.183 305.727,707.133 317.974,706.954 307.725,706.6 303.536,706.529 303.47,705.88 307.127,705.951 317.525,705.813 
				303.271,705.23 303.271,704.58 304.395,704.501 318.855,704.53 303.192,703.897 287.271,704.531 			"/>
		</g>
		<g>
			<polygon class="st0" points="270.733,704.583 270.733,705.231 256.478,705.815 266.877,705.952 270.533,705.882 270.467,706.53 
				256.029,706.956 265.079,707.179 268.276,707.134 270.533,707.185 270.525,707.648 255.445,707.99 268.573,708.188 
				270.504,708.198 270.504,708.847 255.742,709.431 268.306,709.334 270.497,709.496 270.429,710.145 254.552,710.871 
				265.042,710.794 269.972,710.957 276.837,710.794 287.326,710.869 271.449,710.143 271.382,709.494 273.572,709.333 
				277.999,709.411 286.137,709.43 271.374,708.845 271.374,708.196 273.306,708.187 286.433,707.987 271.352,707.646 
				271.345,707.183 273.602,707.133 285.849,706.954 275.6,706.6 271.412,706.529 271.345,705.88 275.002,705.951 285.4,705.813 
				271.146,705.23 271.146,704.58 272.27,704.501 286.73,704.53 271.067,703.897 255.146,704.531 			"/>
		</g>
		<g>
			<polygon class="st0" points="238.608,704.583 238.608,705.231 224.353,705.815 234.752,705.952 238.408,705.882 238.342,706.53 
				223.904,706.956 232.954,707.179 236.151,707.134 238.408,707.185 238.4,707.648 223.32,707.99 236.448,708.188 238.379,708.198 
				238.379,708.847 223.617,709.431 236.181,709.334 238.372,709.496 238.304,710.145 222.427,710.871 232.917,710.794 
				237.847,710.957 244.712,710.794 255.201,710.869 239.324,710.143 239.257,709.494 241.447,709.333 245.875,709.411 
				254.011,709.43 239.249,708.845 239.249,708.196 241.181,708.187 254.308,707.987 239.227,707.646 239.22,707.183 
				241.477,707.133 253.724,706.954 243.474,706.6 239.287,706.529 239.22,705.88 242.877,705.951 253.275,705.813 239.021,705.23 
				239.021,704.58 240.145,704.501 254.605,704.53 238.942,703.897 223.021,704.531 			"/>
		</g>
		<g>
			<polygon class="st0" points="206.483,704.583 206.483,705.231 192.228,705.815 202.627,705.952 206.283,705.882 206.217,706.53 
				191.779,706.956 200.829,707.179 204.026,707.134 206.283,707.185 206.275,707.648 191.195,707.99 204.323,708.188 
				206.254,708.198 206.254,708.847 191.492,709.431 204.056,709.334 206.247,709.496 206.179,710.145 190.302,710.871 
				200.792,710.794 205.722,710.957 212.587,710.794 223.076,710.869 207.199,710.143 207.132,709.494 209.322,709.333 
				213.75,709.411 221.886,709.43 207.124,708.845 207.124,708.196 209.056,708.187 222.183,707.987 207.102,707.646 
				207.095,707.183 209.352,707.133 221.599,706.954 211.349,706.6 207.162,706.529 207.095,705.88 210.751,705.951 221.15,705.813 
				206.896,705.23 206.896,704.58 208.02,704.501 222.48,704.53 206.817,703.897 190.896,704.531 			"/>
		</g>
		<g>
			<polygon class="st0" points="174.358,704.583 174.358,705.231 160.103,705.815 170.502,705.952 174.158,705.882 174.092,706.53 
				159.653,706.956 168.704,707.179 171.901,707.134 174.158,707.185 174.15,707.648 159.07,707.99 172.198,708.188 
				174.129,708.198 174.129,708.847 159.367,709.431 171.931,709.334 174.122,709.496 174.054,710.145 158.177,710.871 
				168.667,710.794 173.597,710.957 180.462,710.794 190.951,710.869 175.074,710.143 175.007,709.494 177.197,709.333 
				181.624,709.411 189.761,709.43 174.999,708.845 174.999,708.196 176.931,708.187 190.058,707.987 174.977,707.646 
				174.97,707.183 177.227,707.133 189.474,706.954 179.224,706.6 175.036,706.529 174.97,705.88 178.626,705.951 189.025,705.813 
				174.771,705.23 174.771,704.58 175.895,704.501 190.355,704.53 174.692,703.897 158.771,704.531 			"/>
		</g>
		<g>
			<polygon class="st0" points="142.233,704.583 142.233,705.231 127.978,705.815 138.377,705.952 142.033,705.882 141.967,706.53 
				127.528,706.956 136.579,707.179 139.776,707.134 142.033,707.185 142.025,707.648 126.945,707.99 140.073,708.188 
				142.004,708.198 142.004,708.847 127.242,709.431 139.806,709.334 141.997,709.496 141.929,710.145 126.052,710.871 
				136.542,710.794 141.472,710.957 148.336,710.794 158.826,710.869 142.948,710.143 142.882,709.494 145.072,709.333 
				149.499,709.411 157.636,709.43 142.874,708.845 142.874,708.196 144.806,708.187 157.933,707.987 142.852,707.646 
				142.845,707.183 145.102,707.133 157.349,706.954 147.099,706.6 142.911,706.529 142.845,705.88 146.501,705.951 156.9,705.813 
				142.646,705.23 142.646,704.58 143.77,704.501 158.23,704.53 142.567,703.897 126.646,704.531 			"/>
		</g>
		<g>
			<polygon class="st0" points="110.108,704.583 110.108,705.231 95.853,705.815 106.252,705.952 109.908,705.882 109.842,706.53 
				95.403,706.956 104.454,707.179 107.651,707.134 109.908,707.185 109.9,707.648 94.82,707.99 107.948,708.188 109.879,708.198 
				109.879,708.847 95.117,709.431 107.681,709.334 109.872,709.496 109.804,710.145 93.927,710.871 104.417,710.794 
				109.347,710.957 116.211,710.794 126.701,710.869 110.823,710.143 110.757,709.494 112.947,709.333 117.374,709.411 
				125.511,709.43 110.749,708.845 110.749,708.196 112.681,708.187 125.808,707.987 110.727,707.646 110.72,707.183 
				112.977,707.133 125.224,706.954 114.974,706.6 110.786,706.529 110.72,705.88 114.376,705.951 124.775,705.813 110.521,705.23 
				110.521,704.58 111.645,704.501 126.105,704.53 110.442,703.897 94.521,704.531 			"/>
		</g>
		<g>
			<polygon class="st0" points="77.983,704.583 77.983,705.231 63.728,705.815 74.127,705.952 77.783,705.882 77.717,706.53 
				63.278,706.956 72.329,707.179 75.526,707.134 77.783,707.185 77.775,707.648 62.695,707.99 75.823,708.188 77.754,708.198 
				77.754,708.847 62.992,709.431 75.556,709.334 77.747,709.496 77.679,710.145 61.801,710.871 72.292,710.794 77.222,710.957 
				84.086,710.794 94.576,710.869 78.698,710.143 78.632,709.494 80.822,709.333 85.249,709.411 93.386,709.43 78.624,708.845 
				78.624,708.196 80.556,708.187 93.683,707.987 78.602,707.646 78.595,707.183 80.852,707.133 93.099,706.954 82.849,706.6 
				78.661,706.529 78.595,705.88 82.251,705.951 92.65,705.813 78.396,705.23 78.396,704.58 79.52,704.501 93.98,704.53 
				78.317,703.897 62.396,704.531 			"/>
		</g>
		<g>
			<polygon class="st0" points="45.858,704.583 45.858,705.231 31.603,705.815 42.002,705.952 45.658,705.882 45.591,706.53 
				31.153,706.956 40.203,707.179 43.401,707.134 45.658,707.185 45.65,707.648 30.57,707.99 43.698,708.188 45.629,708.198 
				45.629,708.847 30.867,709.431 43.431,709.334 45.622,709.496 45.554,710.145 29.676,710.871 40.167,710.794 45.097,710.957 
				51.961,710.794 62.451,710.869 46.573,710.143 46.507,709.494 48.697,709.333 53.124,709.411 61.261,709.43 46.499,708.845 
				46.499,708.196 48.431,708.187 61.558,707.987 46.477,707.646 46.47,707.183 48.727,707.133 60.974,706.954 50.724,706.6 
				46.536,706.529 46.47,705.88 50.126,705.951 60.525,705.813 46.271,705.23 46.271,704.58 47.395,704.501 61.854,704.53 
				46.192,703.897 30.271,704.531 			"/>
		</g>
		<g>
			<path class="st0" d="M28.692,0.41l0.55,9.257l-0.917,17.692l-7.792,1.192L0.367,27.635L0,0.777l5.774-0.642L28.692,0.41z
				 M27.592,26.352L27.042,2.06L1.924,2.517L1.742,26.81L27.592,26.352z"/>
			<polygon class="st0" points="26.398,13.885 2.508,12.7 23.021,12.742 24.616,12.624 24.616,11.674 4.396,10.819 19.147,10.619 
				24.333,10.723 24.238,9.772 18.296,9.669 3.759,9.147 21.131,8.89 24.333,8.815 24.322,8.135 2.929,7.637 21.552,7.345 
				24.292,7.331 24.292,6.38 3.352,5.527 21.172,5.668 24.28,5.431 24.185,4.48 1.664,3.417 26.281,3.291 			"/>
			<polygon class="st0" points="2.475,25.252 26.36,24.302 5.848,24.345 4.253,24.227 4.253,23.276 24.475,22.422 9.722,22.222 
				4.538,22.326 4.631,21.376 10.573,21.271 25.111,20.751 7.738,20.492 4.538,20.418 4.548,19.739 25.94,19.241 7.319,18.948 
				4.579,18.934 4.579,17.984 25.518,17.13 7.696,17.271 4.589,17.033 4.684,16.083 27.205,15.021 2.659,14.16 			"/>
		</g>
		<g>
			<path class="st0" d="M541.417,28.692l-9.258,0.55l-17.692-0.917l-1.192-7.791l0.917-20.167L541.049,0l0.643,5.774L541.417,28.692
				z M515.475,27.592l24.292-0.55l-0.458-25.118l-24.292-0.183L515.475,27.592z"/>
			<polygon class="st0" points="527.941,26.398 529.126,2.508 529.085,23.021 529.203,24.616 530.152,24.616 531.008,4.396 
				531.207,19.147 531.103,24.333 532.054,24.238 532.157,18.296 532.679,3.759 532.937,21.131 533.011,24.333 533.69,24.322 
				534.189,2.929 534.481,21.552 534.495,24.292 535.446,24.292 536.299,3.352 536.158,21.172 536.396,24.28 537.347,24.185 
				538.409,1.664 538.535,26.281 			"/>
			<polygon class="st0" points="516.574,2.475 517.523,26.36 517.48,5.848 517.599,4.253 518.55,4.253 519.403,24.475 
				519.604,9.722 519.5,4.538 520.45,4.631 520.556,10.573 521.075,25.111 521.334,7.738 521.408,4.538 522.087,4.548 
				522.586,25.939 522.878,7.319 522.893,4.579 523.843,4.579 524.696,25.518 524.556,7.696 524.793,4.589 525.744,4.684 
				526.805,27.205 527.667,2.659 			"/>
		</g>
		<g>
			<path class="st0" d="M513.134,721.417l-0.55-9.258l0.918-17.692l7.791-1.192l20.166,0.917l0.367,26.857l-5.774,0.643
				L513.134,721.417z M514.234,695.475l0.55,24.292l25.117-0.458l0.183-24.292L514.234,695.475z"/>
			<polygon class="st0" points="515.428,707.941 539.317,709.126 518.805,709.085 517.21,709.203 517.21,710.152 537.431,711.008 
				522.68,711.207 517.493,711.103 517.588,712.054 523.53,712.157 538.067,712.679 520.694,712.937 517.493,713.011 
				517.504,713.69 538.897,714.189 520.274,714.481 517.534,714.495 517.534,715.446 538.474,716.299 520.653,716.158 
				517.546,716.396 517.642,717.347 540.162,718.409 515.546,718.535 			"/>
			<polygon class="st0" points="539.352,696.574 515.466,697.523 535.979,697.48 537.573,697.599 537.573,698.55 517.352,699.403 
				532.104,699.604 537.289,699.5 537.194,700.45 531.253,700.556 516.715,701.075 534.088,701.334 537.289,701.408 
				537.278,702.087 515.887,702.586 534.507,702.878 537.247,702.893 537.247,703.843 516.309,704.696 534.13,704.556 
				537.237,704.793 537.142,705.744 514.621,706.805 539.167,707.667 			"/>
		</g>
		<g>
			<path class="st0" d="M0.41,693.135l9.257-0.551l17.692,0.918l1.192,7.791l-0.917,20.166l-26.858,0.367l-0.642-5.774L0.41,693.135
				z M26.352,694.234l-24.292,0.55l0.458,25.117l24.292,0.183L26.352,694.234z"/>
			<polygon class="st0" points="13.885,695.428 12.7,719.317 12.742,698.805 12.624,697.21 11.674,697.21 10.819,717.431 
				10.619,702.68 10.723,697.493 9.772,697.588 9.669,703.53 9.147,718.067 8.89,700.694 8.815,697.493 8.135,697.504 
				7.637,718.897 7.345,700.274 7.331,697.534 6.38,697.534 5.527,718.474 5.668,700.654 5.431,697.546 4.48,697.642 3.417,720.162 
				3.291,695.545 			"/>
			<polygon class="st0" points="25.252,719.352 24.302,695.466 24.345,715.979 24.227,717.573 23.276,717.573 22.422,697.352 
				22.222,712.104 22.326,717.289 21.376,717.194 21.271,711.253 20.751,696.715 20.492,714.088 20.418,717.289 19.739,717.278 
				19.241,695.887 18.948,714.507 18.934,717.247 17.984,717.247 17.13,696.309 17.271,714.13 17.033,717.237 16.083,717.142 
				15.021,694.621 14.16,719.167 			"/>
		</g>
	</g>
</g>
</svg>
