<?xml version="1.0" encoding="utf-8"?>
<!-- Generator: Adobe Illustrator 14.0.0, SVG Export Plug-In . SVG Version: 6.00 Build 43363)  -->
<!DOCTYPE svg PUBLIC "-//W3C//DTD SVG 1.1//EN" "http://www.w3.org/Graphics/SVG/1.1/DTD/svg11.dtd">
<svg version="1.1" id="Hand_x5F_Drawn_x5F_4_xA0_Image_1_"
	 xmlns="http://www.w3.org/2000/svg" xmlns:xlink="http://www.w3.org/1999/xlink" x="0px" y="0px" width="729px" height="930px"
	 viewBox="0 0 729 930" style="enable-background:new 0 0 729 930;" xml:space="preserve">
<style type="text/css">
<![CDATA[
	.st0{fill:#000000;fill-rule:evenodd;clip-rule:evenodd;}
]]>
</style>
<g>
	<g>
		<path class="st0" d="M15,5c0.399,3.733-0.799,5.868-4,6c-0.839-1.161-1.319-2.681-1-5C13.729,7.701,11.583,5.409,15,5z"/>
		<path class="st0" d="M717,6c1.794-0.127,2.109,1.224,4,1c0.302,2.635-1.385,3.282-4,3C717,8.667,717,7.333,717,6z"/>
		<path class="st0" d="M701,10c0.667,0,1.333,0,2,0c0,0.667,0,1.333,0,2c-0.667,0-1.333,0-2,0C701,11.333,701,10.667,701,10z"/>
		<path class="st0" d="M720,51c2.917-1.47,2.917,4.47,0,3C720,53,720,52,720,51z"/>
		<path class="st0" d="M717,103c-4.084-4.255,1.729-8.389-2-13c1.086-0.247,0.678-1.988,2-2c-2.635-6.97,0.076-7.937-1-16
			c1.332-1.001,3.019-1.648,4-3c2.555,0.112,1.984,3.349,2,6c-4.113,0.468,0.785-2.514-2-4c-1.753,0.914-3.475,1.859-3,5
			c0.31,1.357,2.504,0.83,4,1c-3.666,2.013-3.175,3.64-4,7c0.147,2.186,2.52,2.147,5,2c-1.151,1.182-1.132,3.535-1,6
			c-1.151,3.235-1.132-2.686-1-4c-1.483,0.85-2.15,2.517-2,5c0.161,1.172,1.823,0.843,3,1c-0.729,2.271,1.802,7.802-2,7
			c-0.826-2.826,1.409-2.591,1-5C715.215,94.548,717.515,100.181,717,103z"/>
		<path class="st0" d="M720,104C724.138,106.127,718.668,112.296,720,104L720,104z"/>
		<path class="st0" d="M720,115c0.65-2.82,1.161,2.303,1,3C720.536,120.008,719.121,118.807,720,115z"/>
		<path class="st0" d="M717,137c-5.507-0.836-0.076-5.332,0-7c0.122-2.667-2.152-4.954-1-8c1.907-0.426,1.81-2.857,5-2
			c-3.276,1.314-6.078,7.603-1,9C716.655,131.382,717.45,131.723,717,137z"/>
		<path class="st0" d="M720,123c3.356,0.914,0.495,1.859,1,5C718.831,128.168,720.547,124.453,720,123z"/>
		<path class="st0" d="M720,148c3.073-1.53,3.073,6.53,0,5C720,151.333,720,149.667,720,148z"/>
		<path class="st0" d="M720,166c0.381-1.904,1.272,0.639,1,2C720.619,169.904,719.728,167.361,720,166z"/>
		<path class="st0" d="M720,170c-2.151,0.849-2.318,3.682-2,7c2.187-0.147,2.147-2.52,2-5c2.313-1.271,2.256,10.221-1,11
			c1.131-3.14-0.287-2.642,1-5c-3.986-0.652-2.864,3.802-3,7c-3.279-0.314-2.131-6.325,0-7C714.785,175.662,714.416,169.588,720,170
			z"/>
		<path class="st0" d="M9,171c1.44,0.226,0.349,2.985,2,3C9.871,177.213,8.146,173.037,9,171z"/>
		<path class="st0" d="M720,188c0.381-1.904,1.272,0.639,1,2C720.619,191.904,719.728,189.361,720,188z"/>
		<path class="st0" d="M719,196c2.917-1.47,2.917,4.47,0,3C719,198,719,197,719,196z"/>
		<path class="st0" d="M720,217c0.381-1.904,1.272,0.639,1,2C720.619,220.904,719.728,218.361,720,217z"/>
		<path class="st0" d="M14,252c1.054,1.12,0.02,8.637-1,11c-2.726-0.92,1.397-3.126,0-6c-3.589-0.589-0.027,5.973-4,5
			C9.218,257.218,12.68,255.68,14,252z"/>
		<path class="st0" d="M11,255C8.416,258.443,8.584,249.857,11,255L11,255z"/>
		<path class="st0" d="M716,283c-1.058-1.957-0.001-5.018-1-9c4.814,0.148,2.396-6.938,6-8c-1.984,1.892-0.485,4.724,0,7
			c-3.19-0.857-3.093,1.574-5,2c0.776,0.89,1.075,2.258,1,4c1.483-0.85,2.15-2.517,2-5C722.548,277.614,717.172,280.789,716,283z"/>
		<path class="st0" d="M9,274c1.44,0.227,0.349,2.984,2,3C9.677,280.073,6.427,275.263,9,274z"/>
		<path class="st0" d="M720,279c3.76,0.384,0.074,8.956-1,11c-2.995-0.658,0.956-2.138,0-4c-4.139-0.472-2.656,4.677-4,7
			c-2.209-0.125-0.425-4.242-1-6C716.407,284.741,720.989,284.656,720,279z"/>
		<path class="st0" d="M717,301c-4.871-0.335-2.518-8.509,1-9C716.189,295.667,716.287,296.037,717,301z"/>
		<path class="st0" d="M719,294c4.416-0.145-0.095,2.449,1,5C717.831,299.168,719.547,295.453,719,294z"/>
		<path class="st0" d="M721,323c-1.151,5.378,1.138,8.295-1,13c-2.934-0.85,1.301-2.517,0-5c-4.527-1.861-1.738,3.595-4,4
			c0.147,2.186,2.52,2.147,5,2c-1.837,1.413,1.567,4.857-1,7c-2.209-0.125-0.425-4.242-1-6c-2.812,1.248-3.306,4.099-2,7
			c-4.395,0.497-0.932-4.189-1-6c-0.098-2.576-2.878-5.551,0-7c0.745-3.078-2.745-1.922-2-5
			C715.779,325.113,716.906,322.573,721,323z M719,330c-0.443-1.89,1.36-6.027-2-5C715.413,326.494,715.538,330.701,719,330z"/>
		<path class="st0" d="M14,353c2.831-0.164-0.831,6.164,2,6c-0.43,2.767-3.146,0.052-2-2c-1.763,0.903-3.097,2.237-4,4
			C7.352,358.286,14.067,356.45,14,353z"/>
		<path class="st0" d="M14,361c3.16,0.189,2.319,7.387,1,9c-2.726-0.92,1.397-3.126,0-6c-2.039,0.294-1.961,2.706-4,3
			c-0.723,3.056,1.022,3.644,1,6c-5.343-2.915,0.257-6.692-2-11C13.212,362.982,12.434,364.847,14,361z"/>
		<path class="st0" d="M9,416c1.44,0.227,0.349,2.984,2,3C9.871,422.213,8.146,418.037,9,416z"/>
		<path class="st0" d="M716,423C711.416,422.333,716.804,416.946,716,423L716,423z"/>
		<path class="st0" d="M719,436c3.61-1.194,0.81,1.602,1,3c0.453,3.322,2.21,8.064-1,10c-2.861-1.425,2.711-5.425,0-7
			c-2.394,1.273-4.071,3.262-4,7C710.872,443.168,720.096,442.123,719,436z"/>
		<path class="st0" d="M720,600c2.781,1.219,1.857,6.143,2,10c-1.333,0-2.667,0-4,0C720.532,607.253,721.506,604.488,720,600z"/>
		<path class="st0" d="M11,657c-1.342-0.658-1.862-2.138-2-4C12.008,651.992,10.772,655.228,11,657z"/>
		<path class="st0" d="M717,657c-1.701,0.368-1.887-0.78-2-2c0.851,0.184,0.943-0.39,1-1C717.172,654.161,716.844,655.823,717,657z"
			/>
		<path class="st0" d="M717,698C712.416,697.333,717.804,691.946,717,698L717,698z"/>
		<path class="st0" d="M16,705c0.226-1.583,1.15-0.049,1,1C16.774,707.583,15.85,706.049,16,705z"/>
		<path class="st0" d="M721,717c2.169-0.169,0.453,3.547,1,5c-4.441-0.441-5.443,2.557-5,7c-2.936-2.608-0.541-4.331-1-9
			C718.052,724.151,719.284,718.833,721,717z"/>
		<path class="st0" d="M16,722C17.158,718.049,17.158,725.951,16,722L16,722z"/>
		<path class="st0" d="M717,740c-3.944,0.61-1.176-5.49-2-8c2.6-1.733,6.533-2.134,5-8c1.434,1.232,1.895,3.438,2,6
			c-1.907,0.426-1.81,2.857-5,2C717,734.667,717,737.333,717,740z"/>
		<path class="st0" d="M721,743c2.432-1.197-1.233,6.326,2,8c-0.776,0.89-1.075,2.258-1,4c-3.737,0.263-5.834,2.166-5,7
			c-2.67-3.057-0.659-4.614-2-9c2.583,2.486,6.639,1.809,6-4c-2.615-0.282-4.302,0.365-4,3c-2.236-0.431-0.405-4.929-1-7
			C716.982,749.502,720.327,746.746,721,743z"/>
		<path class="st0" d="M718,847c-2.612-2.832-3.616-7.647-3-12c0.59-4.17,6.837-7.812,3-12c-2.236,0.431-0.405,4.929-1,7
			c-2.555-0.111-1.984-3.349-2-6c4.192-3.218,4.454-5.49,5-11c-5.736-0.012-3.411,3.284-3,7c-6.699-5.55,4.163-8.563,3-15
			c3.572,7.307-2.059,18.063,1,25c-3.387,2.656-5.698,3.156-4,9c3.093,0.093,2.98-3.02,3-6C724.851,839.24,713.287,840.622,718,847z
			"/>
		<path class="st0" d="M9,856c0.381-1.903,1.272,0.639,1,2C9.619,859.903,8.728,857.361,9,856z"/>
		<path class="st0" d="M10,916c2.813,0.188,4.26,1.739,4,5c-2.358,1.468-1.86,2.11-5,1C8.868,919.535,8.849,917.182,10,916z M12,918
			c-0.277-0.276-1.517,0.482-1,1C11.277,919.276,12.517,918.518,12,918z"/>
		<path class="st0" d="M482,918c-0.367-1.701,0.78-1.887,2-2c-0.184,0.851,0.39,0.943,1,1C484.839,918.172,483.177,917.844,482,918z
			"/>
		<path class="st0" d="M533,922c1.902-0.097-0.62-3.903-2-4c-1.794-0.127-2.109,1.225-4,1c0.649,1.017,2.3,1.034,2,3
			c-3.705,0.039-5.798-1.536-8-3c0.844-4.106,3.901-0.804,6-1c5.338-0.5,12.634-2.099,19-2c0.783,0.012,1.662,0.938,3,1
			c3.323,0.153,9.628-1.767,11,2c-3.336-1.067-3.414,0.317-7-1c-0.318,4.318,6.937,1.063,7,5c-9.721,1.018-14.55-0.803-22,0
			c1.448-3.043,0.172-5.112-4-5c-1.063,3.729,3.75,1.583,3,5c-2.465,0.132-4.818,0.151-6-1C531.247,920.742,532.988,920.991,533,922
			z M540,920c1.686,0.165,4.594,2.119,7,0C544.837,919.357,540.78,916.255,540,920z M548,922c1.78-0.553,4.153-0.514,5-2
			c-1.553-0.229-4.666-3.845-6-1C548.165,919.168,548.086,920.581,548,922z M526,919c-0.775,0.225-1.973,0.027-2,1
			C524.775,919.775,525.973,919.973,526,919z"/>
		<path class="st0" d="M140,919C140.417,914.666,145.804,920.054,140,919L140,919z"/>
		<path class="st0" d="M523,921c-1.891,1.984-3.506,1.704-6,1c0.161-1.172,1.823-0.844,3-1c-0.846-2.154-4.387-1.613-6-3
			C517.614,914.452,520.789,919.828,523,921z"/>
		<path class="st0" d="M568,922c-0.411,3.376-4.756,0.561-7,0c0.847-2.931,3.22,0.598,5,0c1.477-4.81-5.746-0.921-5-5
			C565.545,916.455,566.488,919.512,568,922z"/>
		<path class="st0" d="M126,919c1.034-1.034,1.553,0.446,1,1C125.965,921.034,125.447,919.554,126,919z"/>
		<path class="st0" d="M719,919c0.464,3.131-0.869,4.464-4,4C711.888,920.244,716.244,915.888,719,919z"/>
		<path class="st0" d="M700,8c-1.486,0.847-1.447,3.22-2,5c-2.396-0.605-4.563-1.438-8-1c2.144-3.815-1.534-5.099-6-5
			c-0.144,3.144,2.564,3.436,5,4c-7.216,3.941-22.014,0.739-33,0c0.127-1.794-1.225-2.109-1-4c-2.465,0.132-4.818,0.151-6-1
			c0.554,2.78,3.866,2.8,6,4c-8.381,0.462-19.174,3.253-30,1c0-1.333,0-2.667,0-4c-2.333,0-4.667,0-7,0
			c-0.169,4.878,3.519,1.232,5,3c-2.556,3.002-10.782,1.031-15,1c-0.127-1.794,1.225-2.109,1-4c-1.333,0-2.667,0-4,0
			c-3.314,0.319,3.9,3.095,0,4c-3.207-0.792-2.107-5.893-8-4c-0.334,3.667,5.074,1.593,4,6c-4.193-3.134-14.092-1.445-17-1
			c-1.838-1.416-2.402-7.467-8-4c0.257,2.077,4.394,0.273,5,2c-18.062,3.155-48.086-1.53-58,1c-2.767-0.43-0.052-3.146,2-2
			c-0.14-2.86-4.171-1.829-7-2c-0.296,2.63,3.88,0.787,3,4c-9.14-3.113-24.642,3.187-36,0c-2.64-0.741-3.67-4.495-7-3
			c0.732,0.934,1.818,1.515,3,2c-5.785,1.434-15.406-1.914-22-3c-0.601,3.934,6.921-0.254,6,4c-21.253-1.866-44.479,0.682-66-1
			c-0.282-1.615,0.945-1.722,1-3c-2.333,0-4.667,0-7,0c0.437,1.23,1.279,2.054,3,2c-4.172,2.123-14.563,3.228-19,1
			c-13.571,3.041-28.994,2.334-44,0c0.847-2.931,3.22,0.598,5,0c0.652-3.986-3.802-2.865-7-3c-0.474,3.141,1.247,4.086,3,5
			c-12.103-0.399-33.998-2.212-48,0c4.551-2.904-4.818-1.28-10-2c-0.652-3.902,3.802,0.512,7-1c-1.052-2.615-4.063-3.271-8-3
			c-3.176-0.839,1.775-1.319,3-1c1.163-0.163,1.779,0.221,2,1c9.516-1.293,20.071-0.209,31-1c0.627,2.039,5.053,0.281,4,4
			c3.736,0.09,2.85,1.121,6,0c0.296-2.63-3.88-0.787-3-4c9.261,1.625,17.197,0.68,25,1c3.511-0.178,3.289,3.378,6,4
			c1.793,0.127,2.109-1.224,4-1c-0.112-2.555-3.349-1.985-6-2c0.847-1.486,3.22-1.447,5-2c1.759,3.241,4.301,5.699,9,6
			c-0.738-4.988-1.983-3.29-7-4c3.805-3.247,7.687-0.261,14-1c0.07,3.597,4.173,3.16,8,3c-1.33-2.73-4.468-2.937-7-2
			c-1.542-4.209,5.175-0.159,5-3c8.184,4.19,16.712,1.726,26,1c0.844,3.013,5.638,5.632,9,3c-1.733-2.804-2.62-0.94-6-1
			c2.57-3.818,6-0.611,11-2c2.547,1.787,3.722,4.945,9,4c-0.147-2.186-2.52-2.147-5-2c-3.235-1.151,2.686-1.132,4-1
			c2.396-0.605,4.563-1.438,8-1c1.613,1.387,3.936,2.064,5,4c1.937-2.209,2.382-4.576,9-4c2.245,1.088,1.854,4.812,6,4
			c0.467-2.134-1.429-1.905-3-2c1.232-1.434,3.438-1.895,6-2c0.091,2.729-1.666,2.013,0,4c1.667,0,3.333,0,5,0
			c-0.649-1.017-2.299-1.034-2-3c4.676,0.97,8.526-0.973,12-1c1.957-0.015,2.273,1.921,3,2c1.034,0.112,2.97-1.99,5-2
			c5.023-0.025,10.881,0.188,18,1c-0.247,1.086-1.988,0.678-2,2c0.15,1.85,3.387,0.614,4,2c2.953-0.87-2.32-1.497-1-4
			c13.262-0.987,23.771-0.621,39,0c4.752,0.194,9.637,0.671,14,0c11.169-1.717,26.915,1.207,40-1c1.104,3.229,3.182,5.485,8,5
			c1.477-4.81-5.746-0.92-5-5c7.729,2.09,11.766-1.317,21,1c-1.852,1.927-1.832,0.79-1,4c2.487-0.109,3.096-1.874,5,0
			c1.447-3.781-2.748-1.919-2-5c15.988,0.945,38.404-0.045,55,1c4.969,0.313,10.176-2.579,14,1c5.229-4.251,18.437,1.656,25-1
			c2.503-0.169,3.131,1.536,4,3c1.165-3.501,3.034-6.299,6-8c4.056,1.277,7.44,3.226,8,8c-1.759,3.242-5.191,4.809-9,6
			c0.85,2.934,2.517-1.301,5,0c0,3.667,0,7.333,0,11c-3.492,0.895-1.708-3.262-1-4c-4.396-0.396-3.451,4.548-5,7
			c2.826,0.826,2.591-1.409,5-1c1.427,1.334,1.427,5.666,0,7c-2.341-0.257-0.576-4.394,0-5c-3.969-0.969-3.104,2.896-4,5
			c0.257,2.077,4.394,0.273,5,2c0,1.667,0,3.333,0,5c-3.149,0.483-0.749-4.584-3-5c-1.615-0.282-1.722,0.945-3,1
			c1.764,0.901,2.254,0.08,1,4c0.102,1.927,3.727-1.553,5,1c-0.443,1.89,1.36,6.027-2,5c-0.409-2.409,1.826-2.174,1-5
			c-3.135-0.468-2.819,2.514-4,4c0.15,1.85,3.387,0.614,4,2c-1.519,2.148-4.346,2.988-4,7c0.102,1.927,3.727-1.553,5,1
			c0.956,1.862-2.995,3.342,0,4c-1.129,3.213-2.854-0.963-2-3c-2.812-0.145-2.884,2.449-3,5c0.91,2.736,3.504-1.775,5,1
			c0,1.333,0,2.667,0,4c-4.658,0.88,0.675-3.296-2-3c-3.093-0.093-2.98,3.02-3,6c-3.691-0.803-0.829-4.117,0-6
			c-1.931-5.292-2.103-11.099,0-16c-2.253-6.688-2.302-14.914-2-23c0.046-1.218,1.795-1.346,2-2c1.304-4.166-1.853-12.069-4-14
			c-1.659,1.674-5.871,0.796-9,1C704.305,8.362,701.912,8.421,700,8z M714,9c2.313,1.354,3.313,4.021,8,3
			c0.485-1.182,1.066-2.267,2-3c-0.646-3.687-3.422-5.245-7-6C716.6,5.6,714.016,6.016,714,9z M697,10c0.146-2.812-2.449-2.884-5-3
			C691.542,10.125,694.137,10.197,697,10z M710,8c-1.177,0.157-2.839-0.172-3,1C708.177,8.843,709.839,9.172,710,8z M718,21
			c2.635,0.301,3.282-1.385,3-4C717.771,16.105,719.595,20.262,718,21z M518,10c0.344-3.677-3.644-3.023-6-4
			C512.233,9.1,515.547,9.12,518,10z M534,7c-3.74,1.328-6.913-2.981-9,0C526.722,8.369,532.988,10.93,534,7z M536,9
			c1.758-0.575,5.875,1.208,6-1C540.718,6.625,536.021,6.259,536,9z M558,8C548.694,3.981,550.88,12.146,558,8L558,8z M566,8
			c-1.786,0.004-5.817-2.693-7,0C559.845,8.937,565.375,10.136,566,8z M573,9c1.542-3.019-5.175-2.631-5-1
			C569.161,8.839,570.681,9.319,573,9z M588,11c2.928-1.955-3.17-6.057-5-3C585.358,8.309,584.86,11.473,588,11z M633,9
			c-0.198-1.896-5.831-3.374-7-1C626.198,9.896,631.831,11.374,633,9z M641,9c-0.97-1.697-2.764-2.569-6-2
			C633.729,10.366,640.071,11.134,641,9z M648,7c-2.071,0.595-6.569-1.236-7,1C644.146,8.413,647.145,11.889,648,7z M663,9
			c-0.998-1.097-5.452-3.753-7-1C657.574,8.52,661.355,11.85,663,9z M668,11c1.666-1.987-0.091-1.271,0-4c-1.333,0-2.667,0-4,0
			C664.122,9.544,665.455,10.878,668,11z M677,11c-0.133-3.201-2.268-4.399-6-4C671.036,10.297,673.844,10.823,677,11z M683,11
			c0.638-3.638-2.07-3.929-5-4C677.302,10.698,679.582,11.418,683,11z M550,8C539.577,6.866,543.985,11.041,550,8L550,8z M384,9
			c1.875,1.535,8.755,0.377,6-2C390.088,8.739,383.912,4.961,384,9z M415,9c0.146-2.812-2.449-2.884-5-3
			C408.734,9.933,412.358,8.975,415,9z M440,8c1.78-0.598,4.153,2.931,5,0C443.497,6.845,440.789,4.49,440,8z M431,8
			C421.694,3.981,423.88,12.146,431,8L431,8z M490,10c1.271-3.366-5.071-4.134-6-2C485.778,8.888,486.542,10.792,490,10z M504,8
			c-0.694-0.783-5.58-2.226-6,0C498.694,8.783,503.58,10.226,504,8z M511,8c-0.606-0.576-4.743-2.34-5,0
			C506.606,8.576,510.743,10.34,511,8z M476,8c-1.453,0.547-5.169-1.168-5,1C472.453,8.453,476.169,10.168,476,8z M289,8
			c-1.869-0.798-3.663-1.671-6-2C281.728,9.366,288.072,10.134,289,8z M295,9c0.958-3.624-4.316-1.017-5-3
			C289.855,8.812,292.449,8.884,295,9z M299,10c3.099-1.845-2.009-5.605-3-3C297.889,7.111,296.694,10.306,299,10z M301,7
			c-0.683,3.095,5.729,4.164,7,2C305.409,7.531,304.282,5.313,301,7z M314,8c-1.314-1.02-3.686-0.98-5-2
			C307.81,8.973,313.215,10.296,314,8z M329,10c0.683-3.095-5.729-4.164-7-2C324.223,8.777,325.899,10.101,329,10z M346,11
			c-0.132-3.201-2.267-4.399-6-4C338.344,11.989,344.856,8.811,346,11z M368,9c-1.778-0.888-2.542-2.792-6-2
			C360.728,10.366,367.071,11.134,368,9z M383,10c0.582-3.582-2.96-3.041-6-3C377.924,11.309,380.153,8.517,383,10z"/>
		<path class="st0" d="M65,11c-0.853-2.814-2.841-4.492-7-4c7.099-4.173,12.114,1.337,20-3c4.434,1.608,6.76,2.094,12,1
			c2.654,1.346,3.003,4.997,7,5c1.086-0.247,0.678-1.988,2-2c0.601-3.934-6.921,0.254-6-4c4.396-0.396,6.771,1.229,7,5
			c2.465-0.132,4.818-0.151,6,1c1.266-3.933-2.359-2.975-5-3c7.166-3.482,13.469-1.163,23-1c3.367,0.058,7.199-1.937,11-2
			c2.008-0.033,2.217,1.9,3,2c0.99,0.126,2.456-2.01,4-2c0.864,0.006,2.662,1.984,3,2c12.403,0.566,28.539-2.639,47-1
			c3.481,1.519,3.539,6.461,9,6c1.521-1.144-2.4-5.259-5-3c2.678-3.708,7.569-1.75,11-2c3.731-0.271,6.939-0.067,10,0
			c9.247,0.202,18.263-0.431,27-1c4.42-0.288,10.482-1.259,13,1c0.807-0.86,2.739-0.594,3-2c0.606,1.727,4.743-0.077,5,2
			c2.928,0.261,3.072-2.261,6-2c3.827,0.84,2.791,6.542,7,7c-2.023,2.28-6.23-1.713-9-2c-1.484,0.437,0.395,1.28,0,3
			c-1.597-2.069-6.103-1.231-8-3c-1.179,0.06-0.501,1.167,0,1c-7.861,2.611-20.555-0.909-31,0c6.117-1.76,1.835-2.279-3-3
			c-2.856,1.242,4.346,2.908,1,5c-17.152-4.301-33.01,6.508-45-6c-2,0-4,0-6,0c1.636,3.697,6.463,4.203,11,5
			c-5.706,0.683-14.856,0.881-22,0c-3.396-0.419-7.526-1.163-11-1c-2.091,0.098-4.39,1.851-7,2c-8.163,0.467-17.292-0.342-27,0
			c-0.877-4.661,2.593,1.377,3-2c-0.667-4.46-2.571-1.885-7-3c-2.114,0.309,1.05,3.473,3,3c-4.273,4.564-18.37-0.662-29,1
			c-0.282-1.615,0.945-1.722,1-3c-2.319,0.319-3.839-0.161-5-1c-1.551,0.905-0.52,3.681,0,4c-0.91,2.715-3.504-1.019-5-1
			c-1.188,0.047-0.489,1.182,0,1c-2.417,0.9-15.703,2.245-12-4c-1.667,0-3.333,0-5,0c-0.128,3.794,4.526,2.807,5,6
			c-6.473-2.527-19.605,1.605-21-6c-2.091,2.18-2.854-0.5-6,0c-0.582,3.582,2.959,3.041,6,3c-10.987,3.334-19.641,1.334-30,1
			c-2.629-0.296-0.787,3.88-4,3c-1.753,9.993,2.827,24.773-1,32c4.23,19.036,0.695,36.031,0,52c-2.168,0.168-0.453-3.547-1-5
			c-3.686-0.092-3.445,5.01-1,6c-1.98,3.187-3.89-2.016-3-5c1.336-0.997,1.964-2.703,4-3c0.204-3.129-0.674-7.341,1-9
			c-4.001-1.268-3.821,6.756-2,8c-8.162,0.777,2.309-10.586,3-17c-0.87-2.954-1.497,2.32-4,1c-1.497,3.041,3.021,6.582-1,6
			c-0.352-4.019,0.016-7.317,3-8c-0.982-1.352-2.668-1.999-4-3c2.299-3.604,1.014-4.848,1-10c1.275-3.72,5.089-6.816,3-11
			c-4.772,1.921-0.523,4.696-2,7c-5.178-3.11,2.362-8.074-1-13c0.82-4.18,5.882-4.118,4-11c-4.331,0.792-0.543,7.482-4,7
			c-0.041-5.794,1.464-7.272-1-11c1.023,0.977,2.023,1.977,3,3c2.804-1.733,0.94-2.62,1-6c-3.236-1.236-0.764,3.236-4,2
			c4.43-9.12-4.897-12.754-2-22c3.223-3.146,9.567-2.018,12,1c-0.319,2.319,0.161,3.839,1,5c3.736,0.09,2.85,1.121,6,0
			c-0.707-4.003-4.693-0.057-6-2c2.249-4.39,8.563,0.787,12-3c6.38,3.91,19.039-2.03,25,1C58.705,6.867,59.689,12.098,65,11z M51,8
			c1.793,0.94,5.559,5.018,8,2C57.416,8.851,53.649,4.773,51,8z M218,9c3.499-1.404,6.401,2.805,8,0
			C225.305,7.612,218.024,4.693,218,9z M201,8c2.372,1.628,5.784,2.216,9,3C209.65,5.984,202.644,6.888,201,8z M177,11
			c1.321-2.299-2.767-6.103-8-5C168.862,10.471,173.824,9.842,177,11z M161,8c2.482,1.37,6.444,3.511,10,2
			C167.7,8.957,164.457,3.046,161,8z M153,8c2.347,0.986,4.913,1.754,8,2C161.195,5.809,154.547,4.836,153,8z M14,64
			c-1.443,1.557-4.027,1.973-3,6C14.872,71.46,15.297,64.404,14,64z M9,4c-0.319,2.348-1.58,3.753-1,7c3.821,1.344,5.379,2.315,9,0
			c1.121-3.15,0.09-2.264,0-6C13.077,4.074,13.283,2.822,9,4z M72,7c-0.376,3.501,5.302,4.217,6,1C74.944,8.723,74.356,6.978,72,7z
			 M84,9c0.955-2.824-6.504-4.938-6-1C80.6,9.817,81.016,7.567,84,9z M107,8c3.449,0.551,4.428,3.572,9,3
			C116.137,5.934,109.246,5.312,107,8z M125,7c0,1,0,2,0,3c2.162,2.255,3.411-0.828,7,0C132.469,6.182,126.187,6.107,125,7z M139,9
			c-0.562-1.851-4.906-4.988-7-2C133.316,8.096,136.512,12.382,139,9z M152,9c1.53-3.073-6.53-3.073-5,0C148.667,9,150.333,9,152,9z
			 M142,6c-0.221,0.779-0.837,1.163-2,1c-0.327,3.994,5.224,2.11,7,4C146.559,8.108,144.892,6.441,142,6z M194,11
			c0.582-3.964-5.542-6.392-8-4C188.526,8.474,190.467,10.533,194,11z M210,8c2.223,0.777,3.899,2.101,7,2
			C217.482,6.428,210.792,4.29,210,8z M257,9c0.652-3.986-3.802-2.865-7-3C250.078,9.256,254.532,8.135,257,9z M258,8
			c3.469-0.802,3.844,1.489,7,1C266.168,4.899,258.047,4.982,258,8z M267,8c3.059-0.725,2.941,1.725,6,1
			C274.099,5.096,267.043,4.992,267,8z M242,8c-0.845-0.937-6.375-2.136-7,0C236.686,8.166,239.593,10.119,242,8z M249,9
			c1.411-3.192-5.984-2.527-6-1C245.442,8.998,245.131,8.332,249,9z M33,8c-1.758,0.575-5.875-1.208-6,1
			C28.283,10.375,32.979,10.741,33,8z M36,10c-0.584-0.925,8.379,0.879,5-2C41.979,9.319,31.866,6.366,36,10z M12,15
			c-0.277-0.277-1.517,0.483-1,1C11.277,16.277,12.517,15.517,12,15z M11,22c3.019,1.542,2.631-5.175,1-5
			C11.161,18.161,10.681,19.681,11,22z M13,46c-0.948-2.492,3.57-6.033-1-6C10.843,41.065,11.633,44.606,13,46z M13,64
			c0.986-2.347,1.754-4.913,2-8C10.82,55.094,9.235,63.055,13,64z"/>
		<path class="st0" d="M14,98c1.44-1.236,2.171,6.599,2,8c-0.265,2.173-1.952,2.872-2,4c-0.329,7.645-0.03,16.585,0,25
			c0.123,34.298-0.844,69.1,1,104c0.228,4.304,0.601,12.37-5,13c1.572-4.678-0.829-3.322-1-8c2.982,5.081,2.743-1.708,4-4
			c-0.013-2.35-2.729,0.365-2,2c-5.271-8.852,2.191-13.646,3-20c-3.132,0.535-3.603,3.73-4,7c-3.493-5.713,7.325-10.388,3-17
			c-2.857,1.509-3.112,6.216-2,9c-3.767-1.778-0.41-4.463-2-8c5.229-1.929,3.948-5.051,5-10c-4.844-0.969-2.314,2.896-2,5
			c-2.689,0.689-1.933-2.067-3-3c-0.422-3.422,2.995-3.005,4-5c-0.15-1.85-3.386-0.614-4-2c1.26-4.365,0.294-4.446-1-8
			c3.568-3.099,5.182-8.151,6-14c-5.718-0.268-2.608,7.359-4,9c-4.522-1.414-0.172-9.767,3-10c-0.153-4.557-0.827-3.923,0-8
			c-1.017,0.65-1.034,2.299-3,2c1.119-1.44,1.078-2.44-1-3c-0.302-5.425,1.376-6.649,0-11c1.23,0.437,2.054,1.28,2,3
			c3.243-1.895,0.996-4.101,2-9c-2.629-0.296-0.787,3.88-4,3c2.255-2.162-0.828-3.411,0-7c3.834-0.182,0.363,0.818,1,3
			c4.634,0.634,2.532-5.468,3-9c-1.753,0.914-3.474,1.859-3,5c-3.394-5.097,5.478-6.495,3-14c-3.412,1.57-2.731,4.254-2,8
			c-2.886-1.324-2.021-6.306,0-8c-1.387-1-2.604-2.05-2-6c0.54-3.531,2.845-3.898,0-8c2.689-0.689,1.933,2.067,3,3
			c5.04-1.419-1.019-5.755,1-7c-0.013-2.35-2.729,0.365-2,2c-1.575-2.674,0.443-4.967-2-8c2.689-0.689,1.933,2.067,3,3
			c2.86-0.14,1.829-4.171,2-7c-0.309-2.114-3.473,1.05-3,3C7.649,102.226,13.589,100.323,14,98z M12,192
			c-0.276-1.753,2.816-4.99,0-6C10.792,188.263,9.108,190.397,12,192z M13,128c-1.995-2.408,1.746-4.842-1-7
			C10.122,122.187,8.2,128.469,13,128z M12,166c0.777-2.223,2.101-3.899,2-7C9.356,159.222,9.415,164.711,12,166z M11,198
			c3.019,1.542,2.631-5.174,1-5C11.161,194.161,10.681,195.681,11,198z M12,251c0.292-0.614,2.487-3.85,0-4
			C12.956,248.862,9.005,250.342,12,251z M12,238c-0.045-1.793,2.036-5.559,0-8C10.288,233.45,9.193,235.286,12,238z"/>
		<path class="st0" d="M715,108c0.643-3.024,1.563-5.771,5-6c-3.338,2.853-2.43,4.436-2,10c0.805-0.529,1.623-1.043,3-1
			c-1.741,2.925-3.644,5.69-4,10C714.514,118.104,718.244,110.547,715,108z"/>
		<path class="st0" d="M715,192c-0.1-4.433,1.185-7.482,5-8c-0.949,1.514-6.726,8.031,0,8c-2.076,0.388-6.015,8.742,0,8
			c-0.194,3.139-3.955,2.711-3,7c2.565-0.102,1.607-3.727,3-5c1.585,2.722,1.351,5.899-3,6c-0.605,2.062,1.613,6.947-2,6
			c0.842-9.709,0.517-11.247,2-21C716.973,192.027,715.775,192.224,715,192z"/>
		<path class="st0" d="M720,209c3.633,0.638-2.32,4.675,1,5c-2.392,0.941-4.059,2.608-5,5c0.147,2.186,2.52,2.147,5,2
			c-0.583,8.3-0.675,13.771,0,20c-5.546-0.546-2.078,7.922-6,9c1-6.812,0.52-6.691,0-14c2.951-1.606,6.341-3.879,4-8
			c-2.555,0.112-1.984,3.349-2,6c-2.32-3.847-2.882-9.78,0-12C711.69,218.003,719.817,213.784,720,209z M716,227
			c3.969,0.969,3.104-2.896,4-5C716.299,221.299,717.506,225.506,716,227z M719,241c-0.575-1.758,1.209-5.875-1-6
			C716.674,237.108,714.767,240.545,719,241z"/>
		<path class="st0" d="M719,249c2.091-0.008,3.916,8.367,0,8c-0.022-2.356,1.723-2.944,1-6c-4.921,0.311-1.325,3.345-3,6
			c0.161,1.172,1.823,0.843,3,1c0,1.667,0,3.333,0,5c-1.357-0.31-0.829-2.504-1-4c-3.21-0.877-2.073,2.593-4,3
			c0.658,1.342,2.138,1.862,4,2c-1.326,1.674-2.649,3.351-2,7c-4.492-5.366-0.074-11.209-2-19c2.098-1.903,5.275-2.725,5-7
			C721.375,241.772,721.741,250.198,719,249z"/>
		<path class="st0" d="M722,158c-0.636,0.861-0.707,4.805-2,6c-0.267,0.247-1.833-0.297-2,0c-1.073,1.91,0.332,5.869-3,6
			c2.186-6.748-1.451-13.896,6-16c-1.765,3.712-3.041,2.709-3,7c-0.184,0.851,0.39,0.943,1,1
			C721.652,162.319,718.064,156.398,722,158z"/>
		<path class="st0" d="M722,138c0.723,3.056-1.022,3.644-1,6c-3.144-1.394,1.375-4.935-1-6c-4.234,0.132-3.646,5.683-3,8
			c0.805-0.529,1.623-1.043,3-1c-3.937,4.103-0.91,3.051-2,10c-5.198-2.867-1.041-9.419-3-16c3.658-2.205,5.063-2.788,5-7
			C723.878,133.025,716.901,138.695,722,138z"/>
		<path class="st0" d="M721,81c0.708,4.665-1.708,4.665-1,0C720.908,79.017,723.358,79.017,721,81z"/>
		<path class="st0" d="M11,308c-1.856-9.321-6.254-27.336,3-33c-2.837-0.323-0.988-1.289-1-6c-4.31-1.31-1.239,4.761-5,4
			c2.584-4.109,0.966-4.254,0-9c2.679,1.12,1.5,4.396,6,1c-1.455,5.29,1.668,9.786,1,15c-0.694,5.419-5.293,9.487-5,16
			c4.46-0.667,1.885-2.571,3-7c4.523,7.414,0.238,18.792,2,26c-4.426-1.692-6.484,4.092-4,6c-5.91,1.661,0.534-6.473-2-11
			c1.388-3.193,0.612,3.911,2,4c3.385-0.615,1.27-6.73,3-9C13.691,302.886,10.527,306.05,11,308z M12,297
			c-1.069,2.491-3.464,6.57,1,7C12.405,301.928,14.236,297.431,12,297z M11,287c1.858-1.809,2.284-5.05,3-8
			C9.675,279.427,7.953,284.416,11,287z"/>
		<path class="st0" d="M14,339c-3.433,1.621-4.712,5.075-2,8c0.89-0.443,1.789-0.878,2-2c2.236,0.431,0.405,4.928,1,7
			c-1.357-0.31-0.83-2.504-1-4c-2.057,2.003-3.7,3.705-2,7c-3.565-0.844-3.565-5.156,0-6c-1.483-1.184-1.556-3.777-3-5
			c1.745-3.921,4.468-6.865,5-12c-3.409-0.076-2.961,3.706-3,7c-6.258-4.517,6.964-9.577,2-16c-3.46,0.739-3.401,4.992-2,8
			c-6.563-5.153,3.565-8.443,2-15c3.701,0.337,0.843,3.051,1,5c0.466,5.797,2.322,16.833,0,22C12.133,345.694,14.813,341.269,14,339
			z"/>
		<path class="st0" d="M717,308c2.31-2.923,2.734-1.935,3-6c-7.272,0.56-1.341,9.093-4,11c0.147,2.186,2.52,2.147,5,2
			c-0.729,2.271,1.802,7.802-2,7c0-2,0-4,0-6c-2.555,0.112-1.984,3.349-2,6c-5.15-3.076,1.077-11.818-3-18
			c2.829-1.537,4.26-5.068,8-3c-2.953,4.099,3.21,11.157-3,12C720.256,311.837,721.287,306.474,717,308z"/>
		<path class="st0" d="M718,345c4.663,0.434,0.921,5.102,1,7c0.221,5.318,1.379,11.343,1,17c-4.416,0.145,0.095-2.449-1-5
			c-2.09-0.423-2.648,0.686-4,1c-0.221,3.887,0.412,6.921,5,6c-0.729,2.271,1.802,7.802-2,7c-0.5-3.146,2.18-3.909,0-6
			c-2.555,0.112-1.984,3.349-2,6c0.257,2.077,4.394,0.273,5,2c-1.051,5.823-1.707,8.114-2,13c-2.319,0.319-3.839-0.161-5-1
			c-0.857-3.19,1.574-3.093,2-5c-1.894-7.352,0.188-14.34-2-22c4.313-2.561,5.143-4.678,4-11c-3.204,1.778-2.523,4.463-2,8
			c-2.759-0.904-2-2.485-2-4c0-5.32,2.414-3.649,0-9C715.177,347.51,716.511,346.177,718,345z M718,353c0.938-0.845,2.136-6.375,0-7
			C716.376,347.181,714.365,352.33,718,353z M716,385c3.959,1.153,5.314-4.65,2-5C717.571,381.904,715.846,382.512,716,385z
			 M716,392c3.019,1.542,2.631-5.174,1-5C717.409,389.409,715.174,389.174,716,392z"/>
		<path class="st0" d="M14,371c3.181,0.879,3.388,4.017,2,7c-1.357-0.31-0.83-2.504-1-4c-4.18,2.011-3.43,3.436-3,9
			C7.725,379.035,12.178,374.485,14,371z"/>
		<path class="st0" d="M15,383c-3.398,1.726-4.427,3.598-3,8c-7.269-3.5,2.971-5.947,2-12c3.6,4.782,0.43,10.188,2,17
			c-1.378,3.183-0.99-3.534-1-5c-1.386,1.614-2.833,3.167-4,5C9.349,392.646,16.155,389.183,15,383z"/>
		<path class="st0" d="M719,396c-5.145,0.535-2.916,3.898-4,7c-2.559-2.625-0.744-9.361,4-8c1.674,2.551,2.375,4.491,1,8
			c-0.164,0.418-6.313,1.49-4,6c4.81,1.476,0.921-5.746,5-5c-0.672,5.04-2.496,4.979,0,9c-3.007,5.506,0.852,11.63,0,19
			c-2.306,3.028-5.613,5.053-6,10c-2.394-5.02,1.132-9.718-1-15c0.906-3.761,5.11-4.223,5-9c-0.111-2.448-3.306-0.212-3,1
			c-3.038-3.104,5.707-2.911,3-9c-4.81-1.476-0.921,5.746-5,5c1.295-4.905-1.835-11.955,5-13C719,400,719,398,719,396z M717,429
			c0.221-0.779,0.838-1.163,2-1c-0.547-1.453,1.169-5.168-1-5C717.283,424.065,714.096,427.606,717,429z M717,435
			c0.717-1.065,3.904-4.606,1-6C717.283,430.065,714.096,433.606,717,435z"/>
		<path class="st0" d="M14,421c-3.079,1.903-4.262,2.725-3,7c-1.486-0.847-1.447-3.22-2-5c3.882-1.87,6.045-8.223,5-12
			c-2.88,0.12-1.736,4.265-5,4c4.04-2.444-1.602-4.846,1-8c1.357,0.31,0.83,2.504,1,4c2.533-1.133,2.901-4.432,3-8
			c-0.677-2.188-3.323,1.895-4,3c-2.71-0.905,0.842-3.681,2-4c-0.565-2.081-2.857-3.232-1-5c2.275,3.138,0.298,2.472,4,1
			c0.232,5.968,1.78,14.881-1,19c4.39,8.622-3.588,12.908-3,21c2.326-1.008,3.225-3.442,3-7c2.801-0.574-1.058,7.823,0,12
			c-0.915,1.083-1.893-6.095-4,0c-1.217-2.563,1.746-4.053-1-8C10.08,429.747,15.119,428.452,14,421z"/>
		<path class="st0" d="M9,445c2.295,2.075,3.215,4.086,5,0c2.009,1.115,1.147,7.735,0,9c-2.931-0.847,0.598-3.22,0-5
			c-3.131-0.464-4.464,0.869-4,4c2.306,3.027,7.646,3.021,9,7c0,2.667,0,5.333,0,8c-1.762,0.905-1.652,3.681-4,4
			c1.213,13.431-1.555,20.562,0,30c-3.313,0.818-6.471,5.551-4,9c2.78-0.554,2.8-3.866,4-6c2.255-2.349-0.828,2.629,0,5
			c-2.473,1.193-3.91,3.424-5,6c0.162,1.172,1.823,0.844,3,1c1.892-5.56,2.147-2.911,2,3c-1.336-1.261-1.964-3.006-4-1
			c5.229,4.326,3.167,9.899,4,18c-1.333-5.631-6.4-0.673-4,3c2.007,0.34,3.129-0.204,3-2c2.168-0.169,0.453,3.547,1,5
			c-2.558,0.044-1.219-0.743-1-2c-3.131-0.464-4.464,0.869-4,4c0.914,3.356,1.859,0.495,5,1c0,2.333,0,4.667,0,7
			c-2.676,1.324-5.854,2.146-5,7c3.698,0.698,4.418-1.582,4-5c4.131,4.85-3.703,6.26-4,10c0.437,1.23,1.28,2.054,3,2
			c2.168,0.169,0.453-3.547,1-5c1.546-3.057,0.881,4.338,1,6c-3.454-0.787-4.399,0.935-5,3c0.111,2.448,3.306,0.212,3-1
			c2.236,0.431,0.405,4.929,1,7c-1.378,3.184-0.99-3.533-1-5c-5.057,1.783,0.001,6.58-4,7c-0.24-5.157,2.205-10.361-1-13
			c2.659-4.85,0.929-14.178,1-22c0.079-8.72-0.207-17.515,0-28c0.035-1.763,0.542-2.82,2-4c-1.326-1.674-2.649-3.351-2-7
			c2.351-1.982,5.126-3.54,4-9c-0.81,0.19-0.997,1.003-2,1c-1.656-0.428,0.089,3.729,1,4c-3.896,2.255-2.64-7.175-1-10
			c2.806-0.428-2.506,3.729,1,4c1.487-1.514,1.611-4.389,2-7c-0.677-2.188-3.323,1.895-4,3c-1.192-3.852,5.653-5.346,4-11
			c-1.793-0.127-2.109,1.225-4,1c0,1.667,0,3.333,0,5c-1.47,3.084-1.47-5.784,0-6c0.745-3.078-2.745-1.922-2-5
			c3.228-0.895,1.405,3.262,3,4c1.444-1.223,1.517-3.816,3-5c-5.192,2.218-9.296-2.681-13-5c-0.732-8.399,0.793-14.54,9-14
			C5.506,452.154,11.384,449.315,9,445z M3,462c0.153,0.465,3.185,0.03,2,2c-1.427-0.39-1.687-1.2-3,0c1.162,4.069,0.726,3.944,3,6
			c0.113-1.22,0.299-2.367,2-2c-0.055,1.278-1.282,1.385-1,3c3.236,1.235,0.764-3.235,4-2c0.095,1.571-0.134,3.467,2,3
			c-0.009-4.324-4.717-3.95-6-7c1.887-3.738-0.985-5.727,0-7c1.987,0.013,1.271,2.729,4,2c0.279-2.279-0.241-3.759-2-4
			C5.542,457.639,1.809,458.386,3,462z M15,460c-0.239,1.427-1.646,1.687-2,3c1.891,0.224,2.207-1.127,4-1
			c-0.034-2.699-3.859-6.718-6-4c2.084,0.294-1.484,2.706,2,3C13.239,459.914,14.646,458.599,15,460z M11,462
			C7.631,458.963,7.968,465.697,11,462L11,462z M11,468c1.593,1.004,4.024,0.945,2,3c3.556,0.498,5.38-5.876,3-8
			c-0.221,0.779-0.837,1.163-2,1c-1.236,3.235,3.236,0.764,2,4C14.22,468.598,11.847,465.069,11,468z M12,526
			c-1.326,1.674-2.649,3.351-2,7c1.333,0,2.667,0,4,0C13.611,530.389,13.487,527.514,12,526z M11,525c2.917,1.47,2.917-4.47,0-3
			C11,523,11,524,11,525z M14,548c-4.255-2.172-6.021,6.262-2,6C12.888,552.222,14.792,551.458,14,548z"/>
		<path class="st0" d="M717,509c3.652,1.569,3.811-8.473,2-6c-2.71-0.905,0.842-3.681,2-4c0.605-2.062-1.613-6.947,2-6
			c-2.941,10.342,0.127,16.828,0,29c-4.689,0.152,0.494-4.055-2-5c-2.09-0.424-2.648,0.686-4,1c-0.282,2.615,0.365,4.302,3,4
			c-1.442,1.558-4.026,1.974-3,6c4.824,1.49,2.076-4.59,6-4c-0.191,22.053-1.321,50.774-1,74c-2.992,0.008-4.202,1.798-5,4
			c-3.087-2.193,1.406-5.182,4-5c-0.575-1.758,1.209-5.875-1-6c-3.409-0.076-2.961,3.705-3,7c-2.029-3.004-2.171-6.285-1-10
			c0.954,3.054,5.701,1.25,5-3c0.031-1.479-5.031,0.187-5,2c-3.098-3.815,7.038-2.924,5-9c-1.665-0.954-3.985,0.504-1-3
			c-3.409-0.076-2.961,3.705-3,7c-0.839,3.177-1.319-1.774-1-3c1.86-6.82-3.233-10.42,1-17c-0.719-2.043-3.135-3.957-1-6
			c1.357,0.31,0.829,2.504,1,4c1.888-1.446,4.433-2.233,4-6c-0.577-2.088-3.776,1.441-6,1c1.816-2.6-0.433-3.016,1-6
			c1.172,0.161,0.844,1.823,1,3c3.61-0.756,6.18-3.148,4-7c-3.141-0.475-4.086,1.247-5,3c0.059-4.194-1.514-10.164-1-16
			c0.024-0.277,1.999-1.955,2-2c0.032-1.559-2.128-2.498-2-4c0.098-1.146,2.01-2.783,2-4c-0.042-5.378-1.838-10.718-2-16
			c-0.052-1.691,0.974-3.08,1-5c0.044-3.175-2.592-6.38,1-9c-2.455-4.885-0.684-12.188-2-20c-3.525-3.432-7.561-5.482-8-10
			c-1.437-14.77,23.929-17.578,21,3c-8.897,5.426-4.142,14.009-6,27c-2.967,0.366-4.934,1.733-6,4c0.521,0.386,1.479,4.857,2,2
			C719.198,501.243,714.845,502.993,717,509z M720,479c-2.031-0.249-4.853,3.658-2,5c0.168-1.165,1.581-1.086,3-1
			c0.785-4.118-1.535-5.132-1-9c-3.638-0.638-3.93,2.07-4,5C717.862,479.956,719.342,476.005,720,479z M715,452
			c-7.778-0.543-7.478,16.707-1,14c-5.501-1.857,1.348-4.689-4-6c4.726-1.019,3.328-1.938,2-6c2.092,0.621,3.758,5.129,5,1
			C715.594,454.739,715.86,452.807,715,452z M714,463c-0.779,0.221-1.162,0.837-1,2C713.779,464.779,714.162,464.163,714,463z
			 M719,457c0.485-1.182,1.066-2.267,2-3c-0.207,4.013,0.254,4.473,2,2c0.075,1.742-0.224,3.11-1,4c1.891-0.224,2.206,1.127,4,1
			c0.046-5.404-5.304-10.664-10-8C718.762,452.572,716.938,456.728,719,457z M719,460C720.158,463.951,720.158,456.049,719,460
			L719,460z M722,463c-0.688,2.688,2.067,1.933,3,3c-0.225-1.891,1.127-2.207,1-4C724.258,461.925,722.89,462.223,722,463z M719,469
			c-1.257-0.41-2.044-1.29-2-3c2.358,0.309,1.86,3.473,5,3c2.502-3.003-2.656-4.748-7-4C713.672,468.423,717.228,471.979,719,469z
			 M721,472c-1.453,0.547-5.169-1.169-5,1C717.453,472.453,721.169,474.169,721,472z M720,491c2.436-1.229,0.115-6.021-1-7
			C717.049,485.26,716.465,490.204,720,491z M717,516c5.394,1.505,4.491-5.793,1-6C716.849,511.182,716.868,513.535,717,516z
			 M721,570c-1.377,0.043-2.195-0.471-3-1c-0.839,1.161-1.319,2.681-1,5C720.943,575.276,719.597,571.264,721,570z M717,535
			c2.813-0.188,4.261-1.739,4-5c-1,0-2,0-3,0C717.161,531.161,716.681,532.681,717,535z M718,544c1.243-3.124,4.979-4.349,3-8
			C717.15,535.207,715.532,541.788,718,544z M718,568c0.168-1.165,1.581-1.086,3-1c0.04-3.04,0.582-6.582-3-6
			C718.004,562.786,715.307,566.817,718,568z"/>
		<path class="st0" d="M10,590c-1.299-1.807-0.483-3.669-1-8c2.111-0.889,2.956-3.045,6-3c-1.212,2.455-4.66,2.674-5,6
			c0.905,2.71,3.681-0.842,4-2C17.404,586.148,8.89,585.832,10,590z"/>
		<path class="st0" d="M14,587c3.499,4.042-1.458,7.645-3,10c-1.378,2.105,0.791,5.148-2,4C8.737,594.403,15.406,594.739,14,587z"/>
		<path class="st0" d="M9,591c3.125-0.306-2.542,2.889,1,3C8.313,597.513,7.053,591.668,9,591z"/>
		<path class="st0" d="M14,603c-0.437-1.484-1.28,0.395-3,0c-2.168-0.169-0.453,3.547-1,5c-4.359-1.674,0.205-7.317,4-7
			c-0.769-3.769,1.22-4.78,1-8c1.969,4.333-0.464,12.847-1,18c-1.166-3.681-3.487-3.186-3,2C6.518,608.126,14.962,607.672,14,603z"
			/>
		<path class="st0" d="M716,609c0.521,1.479,1.479,2.521,2,4c3.235,1.235,0.765-3.235,4-2c-0.625,16.462,0.395,20.572,0,37
			c-2.982,1.018-4.399,3.601-7,5c0.99-4.763,3.993-4.744,1-9c3.555-1.555,0.604,3.396,3,3c3.367-0.903,0.117-2.237,2-4
			c0.716-1.621-4.716-1.622-4,0c-3.09-3.481,5.751-3.539,4-9c-0.076-1.933-4.659,1.729-2-2c-4.178,0.67-0.076,5.818-2,7
			c-2.236-0.431-0.405-4.929-1-7c2.697-1.303,4.78-3.22,5-7c-0.247-1.086-1.988-0.678-2-2c-2.555,0.111-1.984,3.349-2,6
			c-1.546,3.057-0.881-4.338-1-6c2.163-0.57,6.266-4.312,3-7c-3.36-1.026-1.557,3.11-2,5c-3.855-1.484,0.133-4.859,0-7
			c-0.173-2.774-3.369-5.698-1-11c1.57,0.43,0.854,3.146,4,2C719.318,606.985,716.955,607.288,716,609z M719,614
			c-0.276-0.276-1.518,0.482-1,1C718.276,615.276,719.518,614.518,719,614z"/>
		<path class="st0" d="M720,650c4.465-0.17,0.936,4.881,1,6c0.163,2.818,1.916,5.57,1,9c-3.671-0.004-3.832,3.501-6,5
			c0.776,0.89,1.075,2.258,1,4c1.794,0.127,2.109-1.225,4-1c0-2,0-4,0-6c2.075-0.354,0.751,5.125,1,8c0.293,3.39,1.243,6.432,1,9
			c-1.71-3.709-6.941,0.983-6,6c2.892-0.441,4.559-2.108,5-5c3.812,4.857-4.918,5.714-6,9c-0.491-3.343,1.482-8.994-1-14
			c2.134-0.468,1.904,1.429,2,3c3.534-1.022,6.049-4.171,4-8c-4.427-1.427-2.616,3.384-6,3c1.708-3.839,0.67-9.416,0-12
			c2.379-0.604,5.691-1.029,6-6c-1.538-2.744-5.861,0.044-6,2C712.633,657.93,722.699,657.727,720,650z"/>
		<path class="st0" d="M721,691c2.209,0.125,0.425,4.242,1,6c-3.006,1.661-5.897,3.436-5,9c0.805-0.529,1.623-1.043,3-1
			c2.169,0.169,0.453-3.547,1-5c3.226,4.326-0.633,6.004,1,13c-4.236,0.097-3.273,5.394-7,6c0.512-5.488,7.176-4.824,6-12
			c-4.476-0.476-5.004,2.996-5,7c-3.075-3.455,2.021-9.179-1-13C717.717,697.661,721.541,694.918,721,691z"/>
		<path class="st0" d="M13,614c-2.182-0.088-3.118,6.088-2,6c-4.881,1.605,0.073-7.952,3-8c2.558,2.465,3.688,10.915-3,11
			c0.282,1.615-0.945,1.722-1,3c1.187,2.08,6.128-0.46,5-4c1.411,10.182,1.441,19.092,2,31c-2.473-1.402-1.765-3.445-1-6
			c-1.773,1.227-2.897,3.103-5,4c-1.769-1.191,3.018-4.248,5-5c0.127-1.794-1.224-2.109-1-4c-5.959-0.68-3.015,6.002-6,6
			c0.259-4.589,1.063-4.831,0-9c1.963-5.069,6.896-6.545,6-12c-4.442,1.196-4.55,6.331-7,7c1.37-4.821,1.835-5.031,1-11
			c1.904-0.429,2.512-2.154,5-2C12.905,617.192,16.646,614.758,13,614z M14,634c-1.449,2.551-5.468,2.532-4,8
			C13.472,642.089,16.906,636.973,14,634z"/>
		<path class="st0" d="M10,658c1.502-1.497,4.211-1.789,5-4c3.143,3.86-6.435,3.527-4,10c3.201-0.133,4.399-2.268,4-6
			c3.02,2.818-1.224,10.831-4,8c-1.434,1.232-1.895,3.438-2,6C6.569,666.551,12.524,665.339,10,658z"/>
		<path class="st0" d="M15,668c2.704-1.977-0.312,5.06-2,6c-0.418,0.232-2.15-1.858-2,0C8.173,671.75,15.963,671.696,15,668z"/>
		<path class="st0" d="M16,671c4.513,7.338-8.714,9.281-5,16c2.986-1.348,4.417-4.249,5-8c2.459-2.096-0.739,3.575,0,6
			c-2.358,0.309-1.86,3.473-5,3c0,2,0,4,0,6c2.367-0.966,4.913-1.754,4-6c2.22-1.869,0.622,7.302-1,8c-3.21-0.832-2.073-0.852-4,1
			c-0.857,3.19,1.574,3.093,2,5c2.813-0.188,4.26-1.739,4-5c2.285-2.156,0.171,5.302-1,6c-1.314,1.02-3.686,0.98-5,2
			c0.7,3.078,0.7,1.922,0,5c2.111,2.204,2.956-1.283,6-1c-1.138,3.862-7.039,2.961-5,10c3.333-0.668,5.429-2.57,5-7
			c1.546-3.057,0.881,4.338,1,6c-4.196,0.806-9.338,4.866-6,10c2.932-0.067,3.714-2.286,5-4c3,4.704-7.741,4.231-6,11
			c0.697,1.903,4.553-1.353,5-3c2.475,3.521-6.254,4.379-5,10c-0.642-8.529-2.127-21.471,1-30c-0.248-1.086-1.988-0.678-2-2
			c0.015-2.651-0.555-5.889,2-6c-1.969-2.604-1.36-4.514-1-8c0.546-5.293-3.08-10.65,1-16c-1.687-0.96-2.947-3.142-1-5
			c2.099,0.279-1.449,2.671,1,4C14.815,678.482,16.099,675.433,16,671z"/>
		<path class="st0" d="M721,735c3.098-0.508-3.528,7.572-5,9C713.535,740.817,720.901,738.939,721,735z"/>
		<path class="st0" d="M15,744c-3.67-0.58-6.613,5.306-3,6c-3.416,3.011-3.006-3.247-2-6c3.413-0.254,5.194-2.14,5-6
			c1.938,4.666,0.417,8.841,0,15c-3.229,1.104-5.485,3.182-5,8C5.462,753.105,17.144,752.828,15,744z"/>
		<path class="st0" d="M11,768c-1.378,3.184-0.99-3.533-1-5c1.498-1.502,3.008-2.992,5-4c-0.086-1.419-0.165-2.832,1-3
			c0.547-1.453-1.168-5.169,1-5c-0.059,5.94-0.522,11.478-6,12C11,764.667,11,766.333,11,768z"/>
		<path class="st0" d="M16,770c-4.776-0.776-5.911,2.089-6,6c-1.891-3.271-0.657-7.799,5-8c0.218-3.658,1.374-3.836,0-7
			C19.257,762.287,14.902,765.97,16,770z"/>
		<path class="st0" d="M720,765c-0.667,0-1.333,0-2,0c-2.652-0.318,0.936,5.602-3,4c-0.236-4.236,2.076-5.924,5-7
			c-0.34-2.007,0.205-3.129,2-3c-0.655,5.023-2.166,4.648-1,10c-0.067,2.933-2.286,3.714-4,5c-0.443,1.89,1.36,6.026-2,5
			c-1.154-3.249,3.055-6.151,0-8C717.069,770.891,720.929,772.422,720,765z"/>
		<path class="st0" d="M715,792c2.062,0.271,0.238,4.428,3,4c2.246-0.42,0.027-5.306,2-6c-1.5-3.305-2.445,2.078-5,1
			c1.515-3.485,6.271-3.729,5-10c-2.152,0.848-3.537,2.463-3,6c-6.209-4.8,5.119-6.89,3-14c0.84-3.177,1.319,1.774,1,3
			c0.493,9.902-0.894,18.361,0,26c-1.927,0.406-0.79,3.877-4,3c1.121,3.149,0.09,2.264,0,6c-6.309-5.26,6.39-9.464,1-13
			c-2.169-0.169-0.453,3.547-1,5C713.441,799.821,717.915,796.93,715,792z"/>
		<path class="st0" d="M10,777c4.601,0.268,3.638-5.029,7-6c-0.215,6.118-6.631,6.036-6,13c3.297-0.036,3.823-2.844,4-6
			c1.014,6.882-0.124,14.05,0,23c-2.058,1.941-6.102,1.898-5,7c-4.128-5.831,5.096-6.877,4-13c-0.354-1.567-1.761,0.875-2-1
			c-3.426,1.643-0.588,3.344-2,7c-2.236-0.431-0.405-4.929-1-7c1.904-0.429,2.512-2.154,5-2c0-2.333,0-4.667,0-7
			c-0.89,0.615-1.789,1.209-2,0c-1.581,1.752-1.339,5.328-2,8C7.657,786.886,11.602,785.698,10,777z"/>
		<path class="st0" d="M15,801c0.012,15.371-0.381,37.532,0,53c-0.641-2.422-3.859-4.779-4,0c-3.952-0.318,0.741-3.095-2-4
			c1.578-0.094,5.717-0.917,5-6c-5.135-2.135-0.908,5.092-5,4c-0.835-6.168,6.787-3.88,5-11c-3.297,0.036-3.823,2.844-4,6
			c-4.149-6.182,5.724-6.918,4-14c-5.234-1.567-0.638,6.695-5,6c0.764-4.594,1.116-5.877,0-11c2.656-2.011,5.897-3.436,5-9
			c-2.422,0.577-2.224,3.776-3,6c-4.239-5.612,5.33-5.973,3-13c-3.744-0.078-3.412,3.922-4,7C6.836,809.474,14.013,805.702,15,801z
			 M14,823c-3.125-0.458-3.197,2.137-3,5C13.812,828.146,13.884,825.551,14,823z"/>
		<path class="st0" d="M720,840c3.476,1.352,0.453,10.268-3,11c-0.186,2.822,3.937,2.507,0,4c0.932,2.137,4.019-1.887,3-5
			c4.52,5.564-5.012,5.621-3,12c2.065-0.602,3.787-1.547,3-5c4.27,5.644-5.086,6.217-3,13c2.635,0.302,3.282-1.385,3-4
			c1.546-3.057,0.881,4.338,1,6c1.503,4.218-0.15,5.307,0,12c-2.453,2.61-0.078-4.458-1-5c-0.456-0.269-4.316,2.272-3,4
			c-0.305,2.638,2.088,2.579,4,3c-1.162,1.838-5.307,0.693-4,5c4.538,1.871,1.36-3.973,5-3c0.409,2.409-1.826,2.174-1,5
			c-4.733-1.384-6.049,3.657-4,6c2.635,0.302,3.282-1.385,3-4c0.84-3.177,1.319,1.774,1,3c-3.192,1.475-2.742,6.591-6,8
			c2.494-6.001-2.787-15.266,2-20c-2.501-2.402-0.949-2.647-1-7c4.07,0.07,4.305-3.695,4-8c-2.641,0.359-3.598,2.402-3,6
			c-0.839,3.177-1.319-1.774-1-3c0.826-7.555,0.186-15.058-1-22C716.189,847.522,721.498,847.164,720,840z"/>
		<path class="st0" d="M658,919c0.729,4.381-1.987-0.806-2,2c3.942,3.043,2.863-2.154,5-3c1,0,2,0,3,0c2.822-0.155,2.507,2.827,4,4
			c1.161-0.839,2.681-1.319,5-1c0.169-2.169-3.547-0.453-5-1c3.558-4.852,11.448,1.858,15-3c1.313,1.02,3.687,0.98,5,2
			c1.479-0.521,2.521-1.479,4-2c2.853,2.982,6.771-0.963,9,3c0.586-2.538,6.183-2.699,8-1c-2.126,2.161-3.724-1.011-6,1
			c6.248,5.398,10.867-6.76,13-12c2.476,0.965-1.378,3.84,0,7c4.503,0.174,1.635-3.6,2-6c0.308-2.022,3.803-4.772,1-7
			c4.544-2.111,0.919,4.938,1,6c0.388,5.07,1.521,9.489,4,13c-0.37,7.297-10.865,10.68-13,3c-5.763,0.096-11.477,0.144-15-2
			c-7.992,3.574-21.398-0.354-33,2c-1.806,0.366-5.746,1.055-7,1c-3.385-0.147-7.759-3.863-13-1c0.468-4.113-2.515,0.785-4-2
			c-3.193,2.14-8.463,2.204-14,2c-1.878-1.768,1.19-2.919-1-5c-1.333,0-2.667,0-4,0c-2.961,1.755,3.83,2.075,3,5
			c-3.787-0.251-5.71-7.572-10-4c-2.43-5.906,3.698-0.971,5-1c4.367-0.098,10.967-1.087,16-1c1.861,0.032,2.367,1.946,3,2
			C642.609,920.48,651.644,915.813,658,919z M714,926c5.968,0.968,6.773-3.227,8-7C717.177,911.855,707.815,919.705,714,926z
			 M649,921c2.487-0.154,3.096,1.571,5,2c-0.138-1.862-0.658-3.342-2-4C651.706,921.084,649.294,917.516,649,921z M681,921
			c2.111,1.328,2.955-0.493,6,1c0-0.667,0-1.333,0-2c-1.003,0.003-1.19-0.81-2-1C685.716,921.716,680.284,918.284,681,921z M689,921
			c1.89-0.443,6.026,1.36,5-2C691.52,918.853,689.147,918.813,689,921z M626,922c2.555,0.526,3.5,1.326,5-1
			C629.727,919.638,626.102,919.455,626,922z M636,920C629.596,918.846,633.804,923.055,636,920L636,920z M641,920
			c-0.276-0.276-1.518,0.482-1,1C640.276,921.276,641.518,920.518,641,920z M647,920c-1.496,0.171-3.69-0.357-4,1
			C644.329,922.299,646.721,922.318,647,920z M665,920c-1.177,0.156-2.839-0.172-3,1C663.177,920.844,664.839,921.172,665,920z
			 M680,921c-0.606-0.576-4.743-2.341-5,0C675.606,921.576,679.743,923.341,680,921z M700,920c-0.775,0.225-1.973,0.027-2,1
			C698.775,920.775,699.973,920.973,700,920z"/>
		<path class="st0" d="M582,918c0.044,2.558-0.743,1.22-2,1c0.646,6.235,7.312,0.735,12,2c-0.102-2.565-3.727-1.607-5-3
			c-1.172,0.161-0.844,1.823-1,3c-5.762-6.977,7.622-2.852,14-3c3.164-0.073,5.713-1.731,8-1c0.586,2.081,2.102,3.232,3,5
			c4.178,0.226,4.723-1.626,8,0c-8.31,4.282-17.908,0.895-26,1c-8.771,0.114-16.154,3.191-24,0c0.31-1.357,2.504-0.829,4-1
			c-0.996-4.683-5.204-1.61-6-5C574.619,915.991,576.066,919.618,582,918z M573,920c1.907,0.426,1.81,2.857,5,2
			C579.19,919.027,573.785,917.704,573,920z M593,921c2.319-0.319,3.839,0.161,5,1c0.705-3.117-5.202-4.691-6-3
			C592.779,919.221,593.162,919.838,593,921z M599,921c1.496-0.17,3.69,0.357,4-1C601.671,918.701,599.279,918.682,599,921z
			 M608,919c-1.333,0-2.667,0-4,0C603.212,922.851,608.788,922.851,608,919z"/>
		<path class="st0" d="M14,881c-1.005-2.516-4.422,0.796-4,3c0.91,2.735,3.504-1.774,5,1c0.772,4.772-1.564,6.437-1,11
			c2.118,5.4,3.686,11.239,1,17c1.354,2.313,4.02,3.313,3,8c1.395,1.53,5.176,2.84,7,1c-0.909-2.092-2.951-3.049-6-3
			c17.662-1.851,39.439,0.516,57-2c4.163,2.25,5.544,5.225,10,5c-16.454,2.799-26.53,0.873-41,1c0.529-0.805,1.043-1.623,1-3
			c-1.333,0-2.667,0-4,0c-2.578,0.241,1.373,1.721,0,4c-6.492-1.884-16.868,2.012-24-1c-6.749,6.459-12.483,1.375-13-4
			c-0.348-3.616,3.857-4.233,5-7c0.122-0.296-0.173-2.106,0-3c0.905-4.664,0.349-14.857-1-20c1.692,2.136,5.772,3.077,5-2
			c-1.614-3.363-3.167,3.144-5,0c-1.397-6.755,2.935-13.032,0-18c0.914-1.753,1.859-3.475,5-3c0.147-2.48,0.186-4.853-2-5
			c-1.747,0.92-2.207,3.126-2,6c-1.559-3.474-1.688-8.14,4-8c-0.777-0.89-1.075-2.258-1-4c3.959,2.626,0.922,7.865,1,12
			c0.075,3.947,1.982,8.911,1,14c-0.851-0.184-0.943,0.39-1,1C13.307,883.908,12.444,880.92,14,881z M11,872c1,0,2,0,3,0
			c0.279-2.279-0.241-3.759-2-4C11.686,869.352,10.577,869.91,11,872z M12,879c0.211-1.209,1.11-0.615,2,0
			c-0.109-2.487-1.874-3.096,0-5C11.027,872.81,9.704,878.215,12,879z M12,898c0.783-0.694,2.226-5.58,0-6
			C11.217,892.694,9.774,897.58,12,898z M13,905c0.221-0.779,0.837-1.162,2-1c0.15-2.483-0.517-4.15-2-5
			C12.217,899.694,10.774,904.58,13,905z M11,912c1.376-0.043,2.196,0.471,3,1c0.818-0.726,2.682-6.921-1-6
			C12.571,908.904,10.846,909.513,11,912z M6,920c1.122,4.183,6.891,5.029,10,2C18.155,912.58,5.723,911.731,6,920z M40,921
			c-1.892-1.108-4.724-1.275-7-2C32.896,923.555,38.556,921.307,40,921z M52,920c-1.352-0.314-1.91-1.424-4-1
			C46.398,921.785,52.319,921.766,52,920z M59,920c-2.263-0.901-4.397-1.238-6,0C53.694,920.783,58.58,922.226,59,920z M60,920
			c-1.23,3.324,6.76,2.445,7,1C65.074,918.975,62.976,918.675,60,920z M73,920c-2.319,0.319-3.839-0.16-5-1
			C67.614,922.099,72.816,923.072,73,920z M79,920c-0.606-0.576-4.743-2.341-5,0C74.606,920.576,78.744,922.341,79,920z M32,922
			c0.947-3.613-3.938-1.395-6-2C25.053,923.613,29.938,921.395,32,922z"/>
		<path class="st0" d="M182,919c-2.999-0.449,0.293-2.837,1-3c2.2-0.508,1.593,1.601,5,2c4.9,0.574,11.997-1.59,13,5
			c1.554-1.207,3.897-3.195,6-1c-0.141-3.919-4.485-2.92-7-2c1.833-4.156,10.205-1.885,14-2c2.835-0.086,9.284-3.403,13-1
			c0.301,4.085-1.385-0.169-4,1c0.031,4.1,6.812,5.211,9,4c2.341-1.136-2.561-3.345-4-4c0.685-2.329,7.627,2.609,8-2
			c4.8,4.252,11.989-1.646,16,3c2.777-0.938,6.543-3.02,8,0c1.204-1.129,1.813-2.854,5-2c3.547,2.453,7.6,4.4,13,5
			c-0.64-3.36-4.795-3.205-9-3c3.182-5.728,10.282,0.72,12,3c1.772-2.499,1.274-1.08,5-1c0.601-3.935-6.921,0.254-6-4
			c3.649-0.649,5.326,0.674,7,2c3.429-5.2,9.109,2.661,12-2c3.159,0.972,7.653,4.369,6,7c-8.599-1.339-20.658-0.185-31-2
			c-1.086,0.247-0.678,1.988-2,2c-8.581-0.862-20.045,0.724-29-2c-1.086,0.247-0.678,1.988-2,2c-11.101-1.363-18.018,0.135-29-1
			c5.86-0.94,2.688-4.297-2-5c-3.955,1.066,0.254,3.033,0,6c-2.247-1.953-7.522-0.871-10,0c-0.36-4.008-7.457-6.498-11-4
			c1.373,1.96,6.127,0.54,8,2c-5.656,1.267-17.835,2.335-21,0c-5.364,0.83-12.196,3.035-16,0c-5.976,4.021-20.212,0.979-30,2
			c-5.242,0.547-15.631,0.432-24,0c-9.882-0.51-16.63-0.586-25-5c4.503-0.64,11.459-0.947,15-1c-3.371,1.271-0.095,4.546,4,4
			c1.236-3.235-3.236-0.765-2-4c9.987-0.734,12.757,1.203,22-1c4.902,1.098,4.073,7.927,12,6c0.686-3.353-1.678-3.655-4-4
			c0.61-3.54,6.875,0.738,10-2c0.309,2.358,3.473,1.86,3,5c2,0,4,0,6,0c2.114-0.309-1.05-3.473-3-3c4.023-3.632,4.317,4.973,10,3
			c1.621-1.044-2.204-5.063-6-4c-0.881-1.129,6.098-1.177,9-1c3.416,0.208,6.041,2.438,9,1c-6.092,2.541,1.109,4.88,6,3
			c0.589-3.589-5.973-0.027-5-4c5.044,0.858,5.591,0.271,11,0c0.898,1.768,2.414,2.919,3,5c2.333,0,4.667,0,7,0
			C188.964,918.624,183.861,916.245,182,919z M179,922c-0.036-3.298-2.844-3.823-6-4C172.657,921.677,176.643,921.023,179,922z
			 M88,921c0.694,0.783,5.58,2.226,6,0C92.217,919.118,90.083,918.781,88,921z M161,920c-1.883-0.829-5.197-3.691-6,0
			c1.904,1.874,2.512,0.109,5,0C159.997,920.556,160.81,921.135,161,920z M109,921c-3.027-0.306-3.573-3.094-8-2
			C99.732,923.001,107.756,922.82,109,921z M110,921c2.091,0.576,2.854,2.479,6,2c-0.122-2.545-1.456-3.878-4-4
			C111.988,920.322,110.248,919.914,110,921z M123,923c-0.132-3.201-2.267-4.399-6-4C117.036,922.298,119.844,922.822,123,923z
			 M134,920c-1.411,3.192,5.984,2.527,6,1C137.889,919.236,137.044,918.746,134,920z M217,922c1.753-0.914,4.99-0.344,6-2
			c-2.903-2.165-2.594-1.338-7-2C215.925,919.742,216.223,921.11,217,922z M233,920c2.287,1.575,4.748,2.938,8,1
			C238.713,918.66,236.252,917.297,233,920z M252,922c0.557-4.891-6.278-2.388-10-3C244.144,923.422,247.83,920.269,252,922z
			 M254,921c1.786-0.004,5.817,2.693,7,0C259.314,918.871,256.407,919.102,254,921z M262,921c2.38,0.696,4.771,1.558,7,0
			C267.819,919.376,262.67,917.365,262,921z M287,921c2.963-0.054,6.346,1.565,9,0C293.423,919.729,288.775,917.61,287,921z
			 M297,921c1.686,0.325,4.494,1.335,6,0C301.693,919.594,297.707,917.405,297,921z"/>
		<path class="st0" d="M395,922c2.342-1.136-2.561-3.345-4-4c-0.933,1.067-3.688,0.312-3,3c-2.225-1.442-4.822-2.512-9-2
			c3.257-5.784,8.201,1.242,13-3c9.518,3.742,18.067,1.986,32,2c0.367,1.701-0.78,1.887-2,2c0.577,2.423,3.776,2.224,6,3
			c2.188-0.677-1.895-3.323-3-4c5.823-2.103,10.855,1.123,19-1c0.127,1.794-1.224,2.109-1,4c-2.408-1.305-6.449-3.247-7,0
			c-2.735-2.496-4.265-0.405-7-2c2.439,5.535,11.582,2.126,17,2c1.337-0.52-3.685-6.009,3-5c-1.896,3.492-0.093,5.032,3,6
			c2.378-0.294-1.111-2.706-2-3c2.573-3.567,4.317,5.458,7,2c2.068-0.558-1.349-3.869-4-3c0.223-3.11,4.977-1.689,8-2
			c0.302,4.085-1.385-0.169-4,1c0.962,2.634,4.835,5.664,8,3c-0.733-0.934-1.818-1.515-3-2c3.105-4.052,7.338-1.66,13-2
			c-2.009,2.039,0.442,1.961,1,4c2.333,0,4.667,0,7,0c-0.153-3.514-6.117-1.216-6-5c5.594,0.073,5.699,5.634,11,6
			c0.279-2.279-0.241-3.759-2-4c5.17-3.772,7.167,0.635,14-1c2.171,0.829,2.226,3.774,5,4c2.578-0.241-1.373-1.721,0-4
			c-0.933,0.611-3.688,2.327-3-1c6.662,0.554,12.148-0.033,14,7c-8.721-2.449-14.702,2.332-21-2c-6.071,3.363-21.659,3.532-24-3
			c-3.458-0.813-4.222,1.867-6,0c0.591,2.076,1.924,3.409,4,4c1.4-0.354,0.086-1.761-1-2c1.346-2.857,2.557,2.662,5,2
			c-2.37,3.931-5.884,0.857-9,1c-6.882,0.316-13.715,1.904-21,2c-3.001,0.039-5.07-0.286-8,0c-5.213,0.509-10.301-1.974-15-2
			c-6.099-0.035-12.393,1.914-18,1c-9.729-1.585-19.492,1.073-29-2c0.92-2.726,3.126,1.396,6,0c-0.265-3.33-6.532-3.968-9-2
			c0.649,1.017,2.299,1.034,2,3c-4.518,1.185-4.333-2.334-5-5c-1.794-0.127-2.109,1.225-4,1c0.529,0.805,1.043,1.623,1,3
			c-4.913-1.428-19.305,5.753-22-3c-2.333,0-4.667,0-7,0c0.08,3.587,6.538,0.795,8,3c-9.631,1.303-25.558,0.881-35,0
			c-0.182-3.834,0.818-0.362,3-1c-0.532-3.42-4.818-1.53-7-1c0.889-6.421,7.811-0.094,11-4c0.111,1.889,3.306,0.694,3,3
			c1.907-0.426,1.81-2.857,5-2c4.278,2.135,6.144,4.625,11,4c-0.14-2.86-4.171-1.829-7-2c0.679-3.943,3.5-0.868,6-1
			c5.094-0.268,13.273-2.449,17,1c-1.394,3.144-4.935-1.375-6,1c-0.168,2.169,3.547,0.453,5,1c1.288-2.871,6.69-8.127,12-3
			c2.217,0.551,1.424-1.909,3-2c1.912,0.421,4.305,0.362,4,3c2.487,0.154,3.096-1.571,5-2c3.738-0.071,5.727,1.606,7,4
			C387.438,921.831,390.063,920.895,395,922z M361,920c-1.765-2.755-9.479-3.061-10,1C355.294,919.615,358.363,921.549,361,920z
			 M496,919C491.221,916.22,493.578,922.28,496,919L496,919z M513,920c-2.091-0.576-2.854-2.479-6-2
			C507.034,921.827,510.859,921.174,513,920z M397,921c3.514,0.196,7.89,4.719,11,2C405.744,921.319,398.898,916.77,397,921z
			 M490,921c0.667,0,1.333,0,2,0c1.555-2.461-3.396-2.94-3-1C489.61,920.057,490.184,920.149,490,921z M502,920
			c-0.613-0.292-3.85-2.487-4,0C498.613,920.292,501.85,922.487,502,920z M412,921c-1.161-0.84-2.681-1.319-5-1
			C405.458,923.019,412.175,922.631,412,921z M420,920C413.596,918.846,417.804,923.055,420,920L420,920z M314,921
			c0.016-1.651,2.773-0.56,3-2C314.963,918.146,310.787,919.871,314,921z M320,921c3.16-1.378,6.035,2.476,7,0
			C325.819,919.376,320.67,917.365,320,921z"/>
		<g>
		</g>
	</g>
</g>
</svg>
