<?xml version="1.0" encoding="utf-8"?>
<!-- Generator: Adobe Illustrator 14.0.0, SVG Export Plug-In . SVG Version: 6.00 Build 43363)  -->
<!DOCTYPE svg PUBLIC "-//W3C//DTD SVG 1.1//EN" "http://www.w3.org/Graphics/SVG/1.1/DTD/svg11.dtd">
<svg version="1.1" id="Layer_1" xmlns="http://www.w3.org/2000/svg" xmlns:xlink="http://www.w3.org/1999/xlink" x="0px" y="0px"
	 width="541.133px" height="721.133px" viewBox="0 0 541.133 721.133" style="enable-background:new 0 0 541.133 721.133;"
	 xml:space="preserve">
<style type="text/css">
<![CDATA[
	.st0{fill:#B76810;}
	.st1{fill:#DB7C1A;}
	.st2{fill:#DE9855;}
]]>
</style>
<g>
	<g>
		<g>
			<rect x="13.483" y="661.555" class="st1" width="1.239" height="30.801"/>
			<g>
				<path class="st0" d="M0.087,691.24c2.205,0.469,6.193-0.868,9.603-4.259c3.409-3.391,4.85-7.374,4.284-9.546l0,0
					c-2.152-0.53-6.197,0.866-9.605,4.255C0.963,685.077-0.37,689.086,0.087,691.24z"/>
				<path class="st2" d="M28.104,691.24c-2.203,0.469-6.193-0.868-9.602-4.259c-3.408-3.391-4.849-7.374-4.284-9.546l0,0
					c2.153-0.53,6.197,0.866,9.605,4.255C27.228,685.077,28.56,689.086,28.104,691.24z"/>
			</g>
			<g>
				<path class="st0" d="M28.104,676.142c-2.203,0.47-6.193-0.869-9.602-4.259c-3.408-3.389-4.849-7.373-4.284-9.544v-0.003
					c2.153-0.53,6.197,0.869,9.605,4.257C27.228,669.979,28.56,673.989,28.104,676.142z"/>
				<path class="st2" d="M0.087,676.142c2.205,0.47,6.193-0.869,9.603-4.259c3.409-3.389,4.85-7.373,4.284-9.544v-0.003
					c-2.152-0.53-6.197,0.869-9.605,4.257C0.963,669.979-0.37,673.989,0.087,676.142z"/>
			</g>
		</g>
		<g>
			<rect x="13.483" y="631.432" class="st1" width="1.239" height="30.801"/>
			<g>
				<path class="st0" d="M0.087,661.117c2.205,0.469,6.193-0.868,9.603-4.259c3.409-3.391,4.85-7.374,4.284-9.546l0,0
					c-2.152-0.53-6.197,0.866-9.605,4.255C0.963,654.954-0.37,658.963,0.087,661.117z"/>
				<path class="st2" d="M28.104,661.117c-2.203,0.469-6.193-0.868-9.602-4.259c-3.408-3.391-4.849-7.374-4.284-9.546l0,0
					c2.153-0.53,6.197,0.866,9.605,4.255C27.228,654.954,28.56,658.963,28.104,661.117z"/>
			</g>
			<g>
				<path class="st0" d="M28.104,646.019c-2.203,0.47-6.193-0.869-9.602-4.259c-3.408-3.389-4.849-7.373-4.284-9.544v-0.003
					c2.153-0.53,6.197,0.869,9.605,4.257C27.228,639.856,28.56,643.866,28.104,646.019z"/>
				<path class="st2" d="M0.087,646.019c2.205,0.47,6.193-0.869,9.603-4.259c3.409-3.389,4.85-7.373,4.284-9.544v-0.003
					c-2.152-0.53-6.197,0.869-9.605,4.257C0.963,639.856-0.37,643.866,0.087,646.019z"/>
			</g>
		</g>
		<g>
			<rect x="13.483" y="601.309" class="st1" width="1.239" height="30.801"/>
			<g>
				<path class="st0" d="M0.087,630.994c2.205,0.469,6.193-0.868,9.603-4.259c3.409-3.391,4.85-7.374,4.284-9.546l0,0
					c-2.152-0.53-6.197,0.866-9.605,4.255C0.963,624.831-0.37,628.84,0.087,630.994z"/>
				<path class="st2" d="M28.104,630.994c-2.203,0.469-6.193-0.868-9.602-4.259c-3.408-3.391-4.849-7.374-4.284-9.546l0,0
					c2.153-0.53,6.197,0.866,9.605,4.255C27.228,624.831,28.56,628.84,28.104,630.994z"/>
			</g>
			<g>
				<path class="st0" d="M28.104,615.896c-2.203,0.47-6.193-0.869-9.602-4.259c-3.408-3.389-4.849-7.373-4.284-9.544v-0.003
					c2.153-0.53,6.197,0.869,9.605,4.257C27.228,609.733,28.56,613.743,28.104,615.896z"/>
				<path class="st2" d="M0.087,615.896c2.205,0.47,6.193-0.869,9.603-4.259c3.409-3.389,4.85-7.373,4.284-9.544v-0.003
					c-2.152-0.53-6.197,0.869-9.605,4.257C0.963,609.733-0.37,613.743,0.087,615.896z"/>
			</g>
		</g>
		<g>
			<rect x="13.483" y="571.186" class="st1" width="1.239" height="30.801"/>
			<g>
				<path class="st0" d="M0.087,600.871c2.205,0.469,6.193-0.868,9.603-4.259c3.409-3.391,4.85-7.374,4.284-9.546l0,0
					c-2.152-0.53-6.197,0.866-9.605,4.255C0.963,594.708-0.37,598.717,0.087,600.871z"/>
				<path class="st2" d="M28.104,600.871c-2.203,0.469-6.193-0.868-9.602-4.259c-3.408-3.391-4.849-7.374-4.284-9.546l0,0
					c2.153-0.53,6.197,0.866,9.605,4.255C27.228,594.708,28.56,598.717,28.104,600.871z"/>
			</g>
			<g>
				<path class="st0" d="M28.104,585.773c-2.203,0.47-6.193-0.869-9.602-4.259c-3.408-3.389-4.849-7.373-4.284-9.544v-0.003
					c2.153-0.53,6.197,0.869,9.605,4.257C27.228,579.61,28.56,583.62,28.104,585.773z"/>
				<path class="st2" d="M0.087,585.773c2.205,0.47,6.193-0.869,9.603-4.259c3.409-3.389,4.85-7.373,4.284-9.544v-0.003
					c-2.152-0.53-6.197,0.869-9.605,4.257C0.963,579.61-0.37,583.62,0.087,585.773z"/>
			</g>
		</g>
		<g>
			<rect x="13.483" y="541.063" class="st1" width="1.239" height="30.801"/>
			<g>
				<path class="st0" d="M0.087,570.748c2.205,0.469,6.193-0.868,9.603-4.259c3.409-3.391,4.85-7.374,4.284-9.546l0,0
					c-2.152-0.53-6.197,0.866-9.605,4.255C0.963,564.584-0.37,568.594,0.087,570.748z"/>
				<path class="st2" d="M28.104,570.748c-2.203,0.469-6.193-0.868-9.602-4.259c-3.408-3.391-4.849-7.374-4.284-9.546l0,0
					c2.153-0.53,6.197,0.866,9.605,4.255C27.228,564.584,28.56,568.594,28.104,570.748z"/>
			</g>
			<g>
				<path class="st0" d="M28.104,555.65c-2.203,0.47-6.193-0.869-9.602-4.259c-3.408-3.389-4.849-7.373-4.284-9.544v-0.003
					c2.153-0.53,6.197,0.869,9.605,4.257C27.228,549.487,28.56,553.497,28.104,555.65z"/>
				<path class="st2" d="M0.087,555.65c2.205,0.47,6.193-0.869,9.603-4.259c3.409-3.389,4.85-7.373,4.284-9.544v-0.003
					c-2.152-0.53-6.197,0.869-9.605,4.257C0.963,549.487-0.37,553.497,0.087,555.65z"/>
			</g>
		</g>
		<g>
			<rect x="13.483" y="510.94" class="st1" width="1.239" height="30.801"/>
			<g>
				<path class="st0" d="M0.087,540.625c2.205,0.469,6.193-0.868,9.603-4.259c3.409-3.391,4.85-7.374,4.284-9.546l0,0
					c-2.152-0.53-6.197,0.866-9.605,4.255C0.963,534.461-0.37,538.471,0.087,540.625z"/>
				<path class="st2" d="M28.104,540.625c-2.203,0.469-6.193-0.868-9.602-4.259c-3.408-3.391-4.849-7.374-4.284-9.546l0,0
					c2.153-0.53,6.197,0.866,9.605,4.255C27.228,534.461,28.56,538.471,28.104,540.625z"/>
			</g>
			<g>
				<path class="st0" d="M28.104,525.527c-2.203,0.47-6.193-0.869-9.602-4.259c-3.408-3.389-4.849-7.373-4.284-9.544v-0.003
					c2.153-0.53,6.197,0.869,9.605,4.257C27.228,519.364,28.56,523.374,28.104,525.527z"/>
				<path class="st2" d="M0.087,525.527c2.205,0.47,6.193-0.869,9.603-4.259c3.409-3.389,4.85-7.373,4.284-9.544v-0.003
					c-2.152-0.53-6.197,0.869-9.605,4.257C0.963,519.364-0.37,523.374,0.087,525.527z"/>
			</g>
		</g>
		<g>
			<rect x="13.483" y="480.817" class="st1" width="1.239" height="30.801"/>
			<g>
				<path class="st0" d="M0.087,510.501c2.205,0.469,6.193-0.868,9.603-4.259c3.409-3.391,4.85-7.374,4.284-9.546l0,0
					c-2.152-0.53-6.197,0.866-9.605,4.255C0.963,504.338-0.37,508.348,0.087,510.501z"/>
				<path class="st2" d="M28.104,510.501c-2.203,0.469-6.193-0.868-9.602-4.259c-3.408-3.391-4.849-7.374-4.284-9.546l0,0
					c2.153-0.53,6.197,0.866,9.605,4.255C27.228,504.338,28.56,508.348,28.104,510.501z"/>
			</g>
			<g>
				<path class="st0" d="M28.104,495.404c-2.203,0.47-6.193-0.869-9.602-4.259c-3.408-3.389-4.849-7.373-4.284-9.544v-0.003
					c2.153-0.53,6.197,0.869,9.605,4.257C27.228,489.241,28.56,493.25,28.104,495.404z"/>
				<path class="st2" d="M0.087,495.404c2.205,0.47,6.193-0.869,9.603-4.259c3.409-3.389,4.85-7.373,4.284-9.544v-0.003
					c-2.152-0.53-6.197,0.869-9.605,4.257C0.963,489.241-0.37,493.25,0.087,495.404z"/>
			</g>
		</g>
		<g>
			<rect x="13.483" y="450.694" class="st1" width="1.239" height="30.801"/>
			<g>
				<path class="st0" d="M0.087,480.378c2.205,0.469,6.193-0.868,9.603-4.259c3.409-3.391,4.85-7.374,4.284-9.546l0,0
					c-2.152-0.53-6.197,0.866-9.605,4.255C0.963,474.215-0.37,478.225,0.087,480.378z"/>
				<path class="st2" d="M28.104,480.378c-2.203,0.469-6.193-0.868-9.602-4.259c-3.408-3.391-4.849-7.374-4.284-9.546l0,0
					c2.153-0.53,6.197,0.866,9.605,4.255C27.228,474.215,28.56,478.225,28.104,480.378z"/>
			</g>
			<g>
				<path class="st0" d="M28.104,465.281c-2.203,0.47-6.193-0.869-9.602-4.259c-3.408-3.389-4.849-7.373-4.284-9.544v-0.003
					c2.153-0.53,6.197,0.869,9.605,4.257C27.228,459.118,28.56,463.127,28.104,465.281z"/>
				<path class="st2" d="M0.087,465.281c2.205,0.47,6.193-0.869,9.603-4.259c3.409-3.389,4.85-7.373,4.284-9.544v-0.003
					c-2.152-0.53-6.197,0.869-9.605,4.257C0.963,459.118-0.37,463.127,0.087,465.281z"/>
			</g>
		</g>
		<g>
			<rect x="13.483" y="420.571" class="st1" width="1.239" height="30.801"/>
			<g>
				<path class="st0" d="M0.087,450.255c2.205,0.469,6.193-0.868,9.603-4.259c3.409-3.391,4.85-7.374,4.284-9.546l0,0
					c-2.152-0.53-6.197,0.866-9.605,4.255C0.963,444.092-0.37,448.102,0.087,450.255z"/>
				<path class="st2" d="M28.104,450.255c-2.203,0.469-6.193-0.868-9.602-4.259c-3.408-3.391-4.849-7.374-4.284-9.546l0,0
					c2.153-0.53,6.197,0.866,9.605,4.255C27.228,444.092,28.56,448.102,28.104,450.255z"/>
			</g>
			<g>
				<path class="st0" d="M28.104,435.158c-2.203,0.47-6.193-0.869-9.602-4.259c-3.408-3.389-4.849-7.373-4.284-9.544v-0.003
					c2.153-0.53,6.197,0.869,9.605,4.257C27.228,428.995,28.56,433.004,28.104,435.158z"/>
				<path class="st2" d="M0.087,435.158c2.205,0.47,6.193-0.869,9.603-4.259c3.409-3.389,4.85-7.373,4.284-9.544v-0.003
					c-2.152-0.53-6.197,0.869-9.605,4.257C0.963,428.995-0.37,433.004,0.087,435.158z"/>
			</g>
		</g>
		<g>
			<rect x="13.483" y="390.448" class="st1" width="1.239" height="30.801"/>
			<g>
				<path class="st0" d="M0.087,420.132c2.205,0.469,6.193-0.868,9.603-4.259c3.409-3.391,4.85-7.374,4.284-9.546l0,0
					c-2.152-0.53-6.197,0.866-9.605,4.255C0.963,413.969-0.37,417.979,0.087,420.132z"/>
				<path class="st2" d="M28.104,420.132c-2.203,0.469-6.193-0.868-9.602-4.259c-3.408-3.391-4.849-7.374-4.284-9.546l0,0
					c2.153-0.53,6.197,0.866,9.605,4.255C27.228,413.969,28.56,417.979,28.104,420.132z"/>
			</g>
			<g>
				<path class="st0" d="M28.104,405.035c-2.203,0.47-6.193-0.869-9.602-4.259c-3.408-3.389-4.849-7.373-4.284-9.544v-0.003
					c2.153-0.53,6.197,0.869,9.605,4.257C27.228,398.872,28.56,402.881,28.104,405.035z"/>
				<path class="st2" d="M0.087,405.035c2.205,0.47,6.193-0.869,9.603-4.259c3.409-3.389,4.85-7.373,4.284-9.544v-0.003
					c-2.152-0.53-6.197,0.869-9.605,4.257C0.963,398.872-0.37,402.881,0.087,405.035z"/>
			</g>
		</g>
		<g>
			<rect x="13.483" y="360.325" class="st1" width="1.239" height="30.801"/>
			<g>
				<path class="st0" d="M0.087,390.009c2.205,0.469,6.193-0.868,9.603-4.259c3.409-3.391,4.85-7.374,4.284-9.546l0,0
					c-2.152-0.53-6.197,0.866-9.605,4.255C0.963,383.846-0.37,387.856,0.087,390.009z"/>
				<path class="st2" d="M28.104,390.009c-2.203,0.469-6.193-0.868-9.602-4.259c-3.408-3.391-4.849-7.374-4.284-9.546l0,0
					c2.153-0.53,6.197,0.866,9.605,4.255C27.228,383.846,28.56,387.856,28.104,390.009z"/>
			</g>
			<g>
				<path class="st0" d="M28.104,374.912c-2.203,0.47-6.193-0.869-9.602-4.259c-3.408-3.389-4.849-7.373-4.284-9.544v-0.002
					c2.153-0.53,6.197,0.869,9.605,4.256C27.228,368.749,28.56,372.758,28.104,374.912z"/>
				<path class="st2" d="M0.087,374.912c2.205,0.47,6.193-0.869,9.603-4.259c3.409-3.389,4.85-7.373,4.284-9.544v-0.002
					c-2.152-0.53-6.197,0.869-9.605,4.256C0.963,368.749-0.37,372.758,0.087,374.912z"/>
			</g>
		</g>
		<g>
			<rect x="13.483" y="330.202" class="st1" width="1.239" height="30.8"/>
			<g>
				<path class="st0" d="M0.087,359.886c2.205,0.469,6.193-0.868,9.603-4.258c3.409-3.391,4.85-7.374,4.284-9.547l0,0
					c-2.152-0.53-6.197,0.866-9.605,4.255C0.963,353.723-0.37,357.733,0.087,359.886z"/>
				<path class="st2" d="M28.104,359.886c-2.203,0.469-6.193-0.868-9.602-4.258c-3.408-3.391-4.849-7.374-4.284-9.547l0,0
					c2.153-0.53,6.197,0.866,9.605,4.255C27.228,353.723,28.56,357.733,28.104,359.886z"/>
			</g>
			<g>
				<path class="st0" d="M28.104,344.789c-2.203,0.47-6.193-0.869-9.602-4.259c-3.408-3.389-4.849-7.374-4.284-9.544v-0.002
					c2.153-0.53,6.197,0.868,9.605,4.256C27.228,338.625,28.56,342.635,28.104,344.789z"/>
				<path class="st2" d="M0.087,344.789c2.205,0.47,6.193-0.869,9.603-4.259c3.409-3.389,4.85-7.374,4.284-9.544v-0.002
					c-2.152-0.53-6.197,0.868-9.605,4.256C0.963,338.625-0.37,342.635,0.087,344.789z"/>
			</g>
		</g>
		<g>
			<rect x="13.483" y="300.079" class="st1" width="1.239" height="30.8"/>
			<g>
				<path class="st0" d="M0.087,329.763c2.205,0.469,6.193-0.868,9.603-4.258c3.409-3.391,4.85-7.374,4.284-9.547l0,0
					c-2.152-0.53-6.197,0.866-9.605,4.255C0.963,323.6-0.37,327.61,0.087,329.763z"/>
				<path class="st2" d="M28.104,329.763c-2.203,0.469-6.193-0.868-9.602-4.258c-3.408-3.391-4.849-7.374-4.284-9.547l0,0
					c2.153-0.53,6.197,0.866,9.605,4.255C27.228,323.6,28.56,327.61,28.104,329.763z"/>
			</g>
			<g>
				<path class="st0" d="M28.104,314.666c-2.203,0.47-6.193-0.869-9.602-4.259c-3.408-3.389-4.849-7.374-4.284-9.544v-0.002
					c2.153-0.53,6.197,0.868,9.605,4.256C27.228,308.502,28.56,312.512,28.104,314.666z"/>
				<path class="st2" d="M0.087,314.666c2.205,0.47,6.193-0.869,9.603-4.259c3.409-3.389,4.85-7.374,4.284-9.544v-0.002
					c-2.152-0.53-6.197,0.868-9.605,4.256C0.963,308.502-0.37,312.512,0.087,314.666z"/>
			</g>
		</g>
		<g>
			<rect x="13.483" y="269.956" class="st1" width="1.239" height="30.8"/>
			<g>
				<path class="st0" d="M0.087,299.64c2.205,0.469,6.193-0.868,9.603-4.258c3.409-3.391,4.85-7.374,4.284-9.547l0,0
					c-2.152-0.53-6.197,0.866-9.605,4.255C0.963,293.477-0.37,297.487,0.087,299.64z"/>
				<path class="st2" d="M28.104,299.64c-2.203,0.469-6.193-0.868-9.602-4.258c-3.408-3.391-4.849-7.374-4.284-9.547l0,0
					c2.153-0.53,6.197,0.866,9.605,4.255C27.228,293.477,28.56,297.487,28.104,299.64z"/>
			</g>
			<g>
				<path class="st0" d="M28.104,284.542c-2.203,0.47-6.193-0.869-9.602-4.259c-3.408-3.389-4.849-7.374-4.284-9.544v-0.002
					c2.153-0.53,6.197,0.868,9.605,4.256C27.228,278.379,28.56,282.389,28.104,284.542z"/>
				<path class="st2" d="M0.087,284.542c2.205,0.47,6.193-0.869,9.603-4.259c3.409-3.389,4.85-7.374,4.284-9.544v-0.002
					c-2.152-0.53-6.197,0.868-9.605,4.256C0.963,278.379-0.37,282.389,0.087,284.542z"/>
			</g>
		</g>
		<g>
			<rect x="13.483" y="239.833" class="st1" width="1.239" height="30.8"/>
			<g>
				<path class="st0" d="M0.087,269.517c2.205,0.469,6.193-0.868,9.603-4.258c3.409-3.391,4.85-7.374,4.284-9.547l0,0
					c-2.152-0.53-6.197,0.866-9.605,4.255C0.963,263.354-0.37,267.364,0.087,269.517z"/>
				<path class="st2" d="M28.104,269.517c-2.203,0.469-6.193-0.868-9.602-4.258c-3.408-3.391-4.849-7.374-4.284-9.547l0,0
					c2.153-0.53,6.197,0.866,9.605,4.255C27.228,263.354,28.56,267.364,28.104,269.517z"/>
			</g>
			<g>
				<path class="st0" d="M28.104,254.419c-2.203,0.47-6.193-0.869-9.602-4.259c-3.408-3.389-4.849-7.374-4.284-9.544v-0.002
					c2.153-0.53,6.197,0.868,9.605,4.256C27.228,248.256,28.56,252.266,28.104,254.419z"/>
				<path class="st2" d="M0.087,254.419c2.205,0.47,6.193-0.869,9.603-4.259c3.409-3.389,4.85-7.374,4.284-9.544v-0.002
					c-2.152-0.53-6.197,0.868-9.605,4.256C0.963,248.256-0.37,252.266,0.087,254.419z"/>
			</g>
		</g>
		<g>
			<rect x="13.483" y="209.709" class="st1" width="1.239" height="30.8"/>
			<g>
				<path class="st0" d="M0.087,239.394c2.205,0.469,6.193-0.868,9.603-4.258c3.409-3.391,4.85-7.374,4.284-9.547l0,0
					c-2.152-0.53-6.197,0.866-9.605,4.255C0.963,233.23-0.37,237.241,0.087,239.394z"/>
				<path class="st2" d="M28.104,239.394c-2.203,0.469-6.193-0.868-9.602-4.258c-3.408-3.391-4.849-7.374-4.284-9.547l0,0
					c2.153-0.53,6.197,0.866,9.605,4.255C27.228,233.23,28.56,237.241,28.104,239.394z"/>
			</g>
			<g>
				<path class="st0" d="M28.104,224.296c-2.203,0.47-6.193-0.869-9.602-4.259c-3.408-3.389-4.849-7.374-4.284-9.544v-0.002
					c2.153-0.53,6.197,0.868,9.605,4.256C27.228,218.133,28.56,222.143,28.104,224.296z"/>
				<path class="st2" d="M0.087,224.296c2.205,0.47,6.193-0.869,9.603-4.259c3.409-3.389,4.85-7.374,4.284-9.544v-0.002
					c-2.152-0.53-6.197,0.868-9.605,4.256C0.963,218.133-0.37,222.143,0.087,224.296z"/>
			</g>
		</g>
		<g>
			<rect x="13.483" y="179.586" class="st1" width="1.239" height="30.8"/>
			<g>
				<path class="st0" d="M0.087,209.271c2.205,0.469,6.193-0.868,9.603-4.258c3.409-3.391,4.85-7.374,4.284-9.547l0,0
					c-2.152-0.53-6.197,0.866-9.605,4.255C0.963,203.107-0.37,207.118,0.087,209.271z"/>
				<path class="st2" d="M28.104,209.271c-2.203,0.469-6.193-0.868-9.602-4.258c-3.408-3.391-4.849-7.374-4.284-9.547l0,0
					c2.153-0.53,6.197,0.866,9.605,4.255C27.228,203.107,28.56,207.118,28.104,209.271z"/>
			</g>
			<g>
				<path class="st0" d="M28.104,194.173c-2.203,0.47-6.193-0.869-9.602-4.259c-3.408-3.389-4.849-7.374-4.284-9.544v-0.002
					c2.153-0.53,6.197,0.868,9.605,4.256C27.228,188.01,28.56,192.02,28.104,194.173z"/>
				<path class="st2" d="M0.087,194.173c2.205,0.47,6.193-0.869,9.603-4.259c3.409-3.389,4.85-7.374,4.284-9.544v-0.002
					c-2.152-0.53-6.197,0.868-9.605,4.256C0.963,188.01-0.37,192.02,0.087,194.173z"/>
			</g>
		</g>
		<g>
			<rect x="13.483" y="149.463" class="st1" width="1.239" height="30.801"/>
			<g>
				<path class="st0" d="M0.087,179.148c2.205,0.469,6.193-0.868,9.603-4.258c3.409-3.391,4.85-7.374,4.284-9.547l0,0
					c-2.152-0.53-6.197,0.866-9.605,4.255C0.963,172.984-0.37,176.995,0.087,179.148z"/>
				<path class="st2" d="M28.104,179.148c-2.203,0.469-6.193-0.868-9.602-4.258c-3.408-3.391-4.849-7.374-4.284-9.547l0,0
					c2.153-0.53,6.197,0.866,9.605,4.255C27.228,172.984,28.56,176.995,28.104,179.148z"/>
			</g>
			<g>
				<path class="st0" d="M28.104,164.05c-2.203,0.47-6.193-0.869-9.602-4.259c-3.408-3.389-4.849-7.374-4.284-9.544v-0.002
					c2.153-0.53,6.197,0.868,9.605,4.256C27.228,157.887,28.56,161.897,28.104,164.05z"/>
				<path class="st2" d="M0.087,164.05c2.205,0.47,6.193-0.869,9.603-4.259c3.409-3.389,4.85-7.374,4.284-9.544v-0.002
					c-2.152-0.53-6.197,0.868-9.605,4.256C0.963,157.887-0.37,161.897,0.087,164.05z"/>
			</g>
		</g>
		<g>
			<rect x="13.483" y="119.34" class="st1" width="1.239" height="30.801"/>
			<g>
				<path class="st0" d="M0.087,149.025c2.205,0.469,6.193-0.868,9.603-4.258c3.409-3.391,4.85-7.374,4.284-9.547l0,0
					c-2.152-0.53-6.197,0.866-9.605,4.255C0.963,142.861-0.37,146.872,0.087,149.025z"/>
				<path class="st2" d="M28.104,149.025c-2.203,0.469-6.193-0.868-9.602-4.258c-3.408-3.391-4.849-7.374-4.284-9.547l0,0
					c2.153-0.53,6.197,0.866,9.605,4.255C27.228,142.861,28.56,146.872,28.104,149.025z"/>
			</g>
			<g>
				<path class="st0" d="M28.104,133.927c-2.203,0.47-6.193-0.869-9.602-4.259c-3.408-3.389-4.849-7.374-4.284-9.544v-0.002
					c2.153-0.53,6.197,0.868,9.605,4.256C27.228,127.764,28.56,131.774,28.104,133.927z"/>
				<path class="st2" d="M0.087,133.927c2.205,0.47,6.193-0.869,9.603-4.259c3.409-3.389,4.85-7.374,4.284-9.544v-0.002
					c-2.152-0.53-6.197,0.868-9.605,4.256C0.963,127.764-0.37,131.774,0.087,133.927z"/>
			</g>
		</g>
		<g>
			<rect x="13.483" y="89.217" class="st1" width="1.239" height="30.801"/>
			<g>
				<path class="st0" d="M0.087,118.902c2.205,0.469,6.193-0.868,9.603-4.258c3.409-3.391,4.85-7.374,4.284-9.547l0,0
					c-2.152-0.53-6.197,0.866-9.605,4.255C0.963,112.738-0.37,116.749,0.087,118.902z"/>
				<path class="st2" d="M28.104,118.902c-2.203,0.469-6.193-0.868-9.602-4.258c-3.408-3.391-4.849-7.374-4.284-9.547l0,0
					c2.153-0.53,6.197,0.866,9.605,4.255C27.228,112.738,28.56,116.749,28.104,118.902z"/>
			</g>
			<g>
				<path class="st0" d="M28.104,103.804c-2.203,0.47-6.193-0.869-9.602-4.259c-3.408-3.389-4.849-7.374-4.284-9.544v-0.002
					c2.153-0.53,6.197,0.868,9.605,4.256C27.228,97.641,28.56,101.651,28.104,103.804z"/>
				<path class="st2" d="M0.087,103.804c2.205,0.47,6.193-0.869,9.603-4.259c3.409-3.389,4.85-7.374,4.284-9.544v-0.002
					c-2.152-0.53-6.197,0.868-9.605,4.256C0.963,97.641-0.37,101.651,0.087,103.804z"/>
			</g>
		</g>
		<g>
			<rect x="13.483" y="59.094" class="st1" width="1.239" height="30.801"/>
			<g>
				<path class="st0" d="M0.087,88.779c2.205,0.469,6.193-0.868,9.603-4.258c3.409-3.391,4.85-7.374,4.284-9.547l0,0
					c-2.152-0.53-6.197,0.866-9.605,4.255C0.963,82.615-0.37,86.625,0.087,88.779z"/>
				<path class="st2" d="M28.104,88.779c-2.203,0.469-6.193-0.868-9.602-4.258c-3.408-3.391-4.849-7.374-4.284-9.547l0,0
					c2.153-0.53,6.197,0.866,9.605,4.255C27.228,82.615,28.56,86.625,28.104,88.779z"/>
			</g>
			<g>
				<path class="st0" d="M28.104,73.681c-2.203,0.47-6.193-0.869-9.602-4.259c-3.408-3.389-4.849-7.374-4.284-9.544v-0.002
					c2.153-0.53,6.197,0.868,9.605,4.256C27.228,67.518,28.56,71.528,28.104,73.681z"/>
				<path class="st2" d="M0.087,73.681c2.205,0.47,6.193-0.869,9.603-4.259c3.409-3.389,4.85-7.374,4.284-9.544v-0.002
					c-2.152-0.53-6.197,0.868-9.605,4.256C0.963,67.518-0.37,71.528,0.087,73.681z"/>
			</g>
		</g>
		<g>
			<rect x="13.483" y="28.971" class="st1" width="1.239" height="30.801"/>
			<g>
				<path class="st0" d="M0.087,58.656c2.205,0.469,6.193-0.868,9.603-4.258c3.409-3.391,4.85-7.374,4.284-9.547l0,0
					c-2.152-0.53-6.197,0.866-9.605,4.255C0.963,52.492-0.37,56.502,0.087,58.656z"/>
				<path class="st2" d="M28.104,58.656c-2.203,0.469-6.193-0.868-9.602-4.258c-3.408-3.391-4.849-7.374-4.284-9.547l0,0
					c2.153-0.53,6.197,0.866,9.605,4.255C27.228,52.492,28.56,56.502,28.104,58.656z"/>
			</g>
			<g>
				<path class="st0" d="M28.104,43.558c-2.203,0.47-6.193-0.869-9.602-4.259c-3.408-3.389-4.849-7.374-4.284-9.544v-0.002
					c2.153-0.53,6.197,0.868,9.605,4.256C27.228,37.395,28.56,41.405,28.104,43.558z"/>
				<path class="st2" d="M0.087,43.558c2.205,0.47,6.193-0.869,9.603-4.259c3.409-3.389,4.85-7.374,4.284-9.544v-0.002
					c-2.152-0.53-6.197,0.868-9.605,4.256C0.963,37.395-0.37,41.405,0.087,43.558z"/>
			</g>
		</g>
		<g>
			<rect x="28.777" y="13.483" class="st1" width="30.848" height="1.239"/>
			<g>
				<path class="st0" d="M29.895,0.087c-0.47,2.205,0.87,6.193,4.265,9.603c3.396,3.409,7.385,4.85,9.561,4.284l0,0
					c0.531-2.152-0.868-6.197-4.262-9.605C36.068,0.963,32.052-0.37,29.895,0.087z"/>
				<path class="st2" d="M29.895,28.104c-0.47-2.203,0.87-6.193,4.265-9.602c3.396-3.408,7.385-4.849,9.561-4.284l0,0
					c0.531,2.153-0.868,6.197-4.262,9.605C36.068,27.228,32.052,28.56,29.895,28.104z"/>
			</g>
			<g>
				<path class="st0" d="M45.016,28.104c-0.471-2.203,0.871-6.193,4.266-9.602c3.394-3.408,7.385-4.849,9.559-4.284h0.002
					c0.531,2.153-0.87,6.197-4.263,9.605C51.188,27.228,47.172,28.56,45.016,28.104z"/>
				<path class="st2" d="M45.016,0.087c-0.471,2.205,0.871,6.193,4.266,9.603c3.394,3.409,7.385,4.85,9.559,4.284h0.002
					c0.531-2.152-0.87-6.197-4.263-9.605C51.188,0.963,47.172-0.37,45.016,0.087z"/>
			</g>
		</g>
		<g>
			<rect x="58.947" y="13.483" class="st1" width="30.847" height="1.239"/>
			<g>
				<path class="st0" d="M60.064,0.087c-0.47,2.205,0.87,6.193,4.265,9.603c3.396,3.409,7.385,4.85,9.562,4.284l0,0
					c0.531-2.152-0.868-6.197-4.262-9.605C66.237,0.963,62.221-0.37,60.064,0.087z"/>
				<path class="st2" d="M60.064,28.104c-0.47-2.203,0.87-6.193,4.265-9.602c3.396-3.408,7.385-4.849,9.562-4.284l0,0
					c0.531,2.153-0.868,6.197-4.262,9.605C66.237,27.228,62.221,28.56,60.064,28.104z"/>
			</g>
			<g>
				<path class="st0" d="M75.185,28.104c-0.471-2.203,0.87-6.193,4.265-9.602c3.394-3.408,7.385-4.849,9.559-4.284h0.002
					c0.531,2.153-0.87,6.197-4.263,9.605C81.358,27.228,77.342,28.56,75.185,28.104z"/>
				<path class="st2" d="M75.185,0.087c-0.471,2.205,0.87,6.193,4.265,9.603c3.394,3.409,7.385,4.85,9.559,4.284h0.002
					c0.531-2.152-0.87-6.197-4.263-9.605C81.358,0.963,77.342-0.37,75.185,0.087z"/>
			</g>
		</g>
		<g>
			<rect x="89.116" y="13.483" class="st1" width="30.848" height="1.239"/>
			<g>
				<path class="st0" d="M90.233,0.087c-0.47,2.205,0.87,6.193,4.265,9.603c3.396,3.409,7.385,4.85,9.561,4.284l0,0
					c0.531-2.152-0.868-6.197-4.262-9.605C96.406,0.963,92.39-0.37,90.233,0.087z"/>
				<path class="st2" d="M90.233,28.104c-0.47-2.203,0.87-6.193,4.265-9.602c3.396-3.408,7.385-4.849,9.561-4.284l0,0
					c0.531,2.153-0.868,6.197-4.262,9.605C96.406,27.228,92.39,28.56,90.233,28.104z"/>
			</g>
			<g>
				<path class="st0" d="M105.354,28.104c-0.471-2.203,0.871-6.193,4.266-9.602c3.394-3.408,7.385-4.849,9.559-4.284h0.002
					c0.531,2.153-0.87,6.197-4.263,9.605C111.527,27.228,107.511,28.56,105.354,28.104z"/>
				<path class="st2" d="M105.354,0.087c-0.471,2.205,0.871,6.193,4.266,9.603c3.394,3.409,7.385,4.85,9.559,4.284h0.002
					c0.531-2.152-0.87-6.197-4.263-9.605C111.527,0.963,107.511-0.37,105.354,0.087z"/>
			</g>
		</g>
		<g>
			<rect x="119.285" y="13.483" class="st1" width="30.847" height="1.239"/>
			<g>
				<path class="st0" d="M120.402,0.087c-0.47,2.205,0.87,6.193,4.265,9.603c3.396,3.409,7.385,4.85,9.562,4.284l0,0
					c0.531-2.152-0.868-6.197-4.262-9.605C126.576,0.963,122.559-0.37,120.402,0.087z"/>
				<path class="st2" d="M120.402,28.104c-0.47-2.203,0.87-6.193,4.265-9.602c3.396-3.408,7.385-4.849,9.562-4.284l0,0
					c0.531,2.153-0.868,6.197-4.262,9.605C126.576,27.228,122.559,28.56,120.402,28.104z"/>
			</g>
			<g>
				<path class="st0" d="M135.523,28.104c-0.471-2.203,0.87-6.193,4.265-9.602c3.394-3.408,7.385-4.849,9.559-4.284h0.002
					c0.531,2.153-0.87,6.197-4.263,9.605C141.696,27.228,137.68,28.56,135.523,28.104z"/>
				<path class="st2" d="M135.523,0.087c-0.471,2.205,0.87,6.193,4.265,9.603c3.394,3.409,7.385,4.85,9.559,4.284h0.002
					c0.531-2.152-0.87-6.197-4.263-9.605C141.696,0.963,137.68-0.37,135.523,0.087z"/>
			</g>
		</g>
		<g>
			<rect x="149.454" y="13.483" class="st1" width="30.848" height="1.239"/>
			<g>
				<path class="st0" d="M150.572,0.087c-0.47,2.205,0.87,6.193,4.265,9.603c3.396,3.409,7.385,4.85,9.561,4.284l0,0
					c0.531-2.152-0.867-6.197-4.262-9.605C156.745,0.963,152.729-0.37,150.572,0.087z"/>
				<path class="st2" d="M150.572,28.104c-0.47-2.203,0.87-6.193,4.265-9.602c3.396-3.408,7.385-4.849,9.561-4.284l0,0
					c0.531,2.153-0.867,6.197-4.262,9.605C156.745,27.228,152.729,28.56,150.572,28.104z"/>
			</g>
			<g>
				<path class="st0" d="M165.692,28.104c-0.471-2.203,0.871-6.193,4.266-9.602c3.394-3.408,7.385-4.849,9.559-4.284h0.002
					c0.531,2.153-0.87,6.197-4.263,9.605C171.865,27.228,167.849,28.56,165.692,28.104z"/>
				<path class="st2" d="M165.692,0.087c-0.471,2.205,0.871,6.193,4.266,9.603c3.394,3.409,7.385,4.85,9.559,4.284h0.002
					c0.531-2.152-0.87-6.197-4.263-9.605C171.865,0.963,167.849-0.37,165.692,0.087z"/>
			</g>
		</g>
		<g>
			<rect x="179.624" y="13.483" class="st1" width="30.847" height="1.239"/>
			<g>
				<path class="st0" d="M180.741,0.087c-0.47,2.205,0.87,6.193,4.265,9.603c3.396,3.409,7.385,4.85,9.562,4.284l0,0
					c0.531-2.152-0.868-6.197-4.262-9.605C186.914,0.963,182.897-0.37,180.741,0.087z"/>
				<path class="st2" d="M180.741,28.104c-0.47-2.203,0.87-6.193,4.265-9.602c3.396-3.408,7.385-4.849,9.562-4.284l0,0
					c0.531,2.153-0.868,6.197-4.262,9.605C186.914,27.228,182.897,28.56,180.741,28.104z"/>
			</g>
			<g>
				<path class="st0" d="M195.862,28.104c-0.471-2.203,0.87-6.193,4.265-9.602c3.394-3.408,7.385-4.849,9.559-4.284h0.002
					c0.531,2.153-0.87,6.197-4.263,9.605C202.035,27.228,198.019,28.56,195.862,28.104z"/>
				<path class="st2" d="M195.862,0.087c-0.471,2.205,0.87,6.193,4.265,9.603c3.394,3.409,7.385,4.85,9.559,4.284h0.002
					c0.531-2.152-0.87-6.197-4.263-9.605C202.035,0.963,198.019-0.37,195.862,0.087z"/>
			</g>
		</g>
		<g>
			<rect x="209.792" y="13.483" class="st1" width="30.848" height="1.239"/>
			<g>
				<path class="st0" d="M210.91,0.087c-0.47,2.205,0.87,6.193,4.265,9.603c3.396,3.409,7.385,4.85,9.561,4.284l0,0
					c0.531-2.152-0.868-6.197-4.262-9.605C217.083,0.963,213.067-0.37,210.91,0.087z"/>
				<path class="st2" d="M210.91,28.104c-0.47-2.203,0.87-6.193,4.265-9.602c3.396-3.408,7.385-4.849,9.561-4.284l0,0
					c0.531,2.153-0.868,6.197-4.262,9.605C217.083,27.228,213.067,28.56,210.91,28.104z"/>
			</g>
			<g>
				<path class="st0" d="M226.031,28.104c-0.471-2.203,0.871-6.193,4.266-9.602c3.394-3.408,7.385-4.849,9.559-4.284h0.002
					c0.531,2.153-0.87,6.197-4.263,9.605C232.204,27.228,228.188,28.56,226.031,28.104z"/>
				<path class="st2" d="M226.031,0.087c-0.471,2.205,0.871,6.193,4.266,9.603c3.394,3.409,7.385,4.85,9.559,4.284h0.002
					c0.531-2.152-0.87-6.197-4.263-9.605C232.204,0.963,228.188-0.37,226.031,0.087z"/>
			</g>
		</g>
		<g>
			<rect x="239.962" y="13.483" class="st1" width="30.847" height="1.239"/>
			<g>
				<path class="st0" d="M241.079,0.087c-0.47,2.205,0.87,6.193,4.265,9.603c3.396,3.409,7.385,4.85,9.562,4.284l0,0
					c0.531-2.152-0.868-6.197-4.262-9.605C247.252,0.963,243.236-0.37,241.079,0.087z"/>
				<path class="st2" d="M241.079,28.104c-0.47-2.203,0.87-6.193,4.265-9.602c3.396-3.408,7.385-4.849,9.562-4.284l0,0
					c0.531,2.153-0.868,6.197-4.262,9.605C247.252,27.228,243.236,28.56,241.079,28.104z"/>
			</g>
			<g>
				<path class="st0" d="M256.2,28.104c-0.471-2.203,0.87-6.193,4.265-9.602c3.394-3.408,7.385-4.849,9.559-4.284h0.002
					c0.531,2.153-0.87,6.197-4.263,9.605C262.373,27.228,258.357,28.56,256.2,28.104z"/>
				<path class="st2" d="M256.2,0.087c-0.471,2.205,0.87,6.193,4.265,9.603c3.394,3.409,7.385,4.85,9.559,4.284h0.002
					c0.531-2.152-0.87-6.197-4.263-9.605C262.373,0.963,258.357-0.37,256.2,0.087z"/>
			</g>
		</g>
		<g>
			<rect x="270.131" y="13.483" class="st1" width="30.847" height="1.239"/>
			<g>
				<path class="st0" d="M271.249,0.087c-0.47,2.205,0.869,6.193,4.265,9.603c3.396,3.409,7.386,4.85,9.562,4.284l0,0
					c0.531-2.152-0.867-6.197-4.262-9.605C277.421,0.963,273.405-0.37,271.249,0.087z"/>
				<path class="st2" d="M271.249,28.104c-0.47-2.203,0.869-6.193,4.265-9.602c3.396-3.408,7.386-4.849,9.562-4.284l0,0
					c0.531,2.153-0.867,6.197-4.262,9.605C277.421,27.228,273.405,28.56,271.249,28.104z"/>
			</g>
			<g>
				<path class="st0" d="M286.37,28.104c-0.471-2.203,0.87-6.193,4.265-9.602c3.395-3.408,7.385-4.849,9.56-4.284h0.002
					c0.531,2.153-0.87,6.197-4.263,9.605C292.542,27.228,288.526,28.56,286.37,28.104z"/>
				<path class="st2" d="M286.37,0.087c-0.471,2.205,0.87,6.193,4.265,9.603c3.395,3.409,7.385,4.85,9.56,4.284h0.002
					c0.531-2.152-0.87-6.197-4.263-9.605C292.542,0.963,288.526-0.37,286.37,0.087z"/>
			</g>
		</g>
		<g>
			<rect x="300.3" y="13.483" class="st1" width="30.848" height="1.239"/>
			<g>
				<path class="st0" d="M301.417,0.087c-0.47,2.205,0.87,6.193,4.266,9.603c3.396,3.409,7.385,4.85,9.561,4.284l0,0
					c0.531-2.152-0.867-6.197-4.262-9.605C307.59,0.963,303.575-0.37,301.417,0.087z"/>
				<path class="st2" d="M301.417,28.104c-0.47-2.203,0.87-6.193,4.266-9.602c3.396-3.408,7.385-4.849,9.561-4.284l0,0
					c0.531,2.153-0.867,6.197-4.262,9.605C307.59,27.228,303.575,28.56,301.417,28.104z"/>
			</g>
			<g>
				<path class="st0" d="M316.539,28.104c-0.471-2.203,0.87-6.193,4.266-9.602c3.394-3.408,7.385-4.849,9.559-4.284h0.002
					c0.531,2.153-0.869,6.197-4.263,9.605C322.711,27.228,318.695,28.56,316.539,28.104z"/>
				<path class="st2" d="M316.539,0.087c-0.471,2.205,0.87,6.193,4.266,9.603c3.394,3.409,7.385,4.85,9.559,4.284h0.002
					c0.531-2.152-0.869-6.197-4.263-9.605C322.711,0.963,318.695-0.37,316.539,0.087z"/>
			</g>
		</g>
		<g>
			<rect x="330.469" y="13.483" class="st1" width="30.848" height="1.239"/>
			<g>
				<path class="st0" d="M331.586,0.087c-0.47,2.205,0.87,6.193,4.266,9.603c3.396,3.409,7.385,4.85,9.562,4.284l0,0
					c0.53-2.152-0.868-6.197-4.263-9.605C337.76,0.963,333.744-0.37,331.586,0.087z"/>
				<path class="st2" d="M331.586,28.104c-0.47-2.203,0.87-6.193,4.266-9.602c3.396-3.408,7.385-4.849,9.562-4.284l0,0
					c0.53,2.153-0.868,6.197-4.263,9.605C337.76,27.228,333.744,28.56,331.586,28.104z"/>
			</g>
			<g>
				<path class="st0" d="M346.708,28.104c-0.471-2.203,0.87-6.193,4.266-9.602c3.394-3.408,7.385-4.849,9.559-4.284h0.003
					c0.53,2.153-0.87,6.197-4.264,9.605C352.88,27.228,348.865,28.56,346.708,28.104z"/>
				<path class="st2" d="M346.708,0.087c-0.471,2.205,0.87,6.193,4.266,9.603c3.394,3.409,7.385,4.85,9.559,4.284h0.003
					c0.53-2.152-0.87-6.197-4.264-9.605C352.88,0.963,348.865-0.37,346.708,0.087z"/>
			</g>
		</g>
		<g>
			<rect x="360.638" y="13.483" class="st1" width="30.848" height="1.239"/>
			<g>
				<path class="st0" d="M361.756,0.087c-0.47,2.205,0.869,6.193,4.265,9.603c3.396,3.409,7.386,4.85,9.562,4.284l0,0
					c0.53-2.152-0.867-6.197-4.262-9.605C367.929,0.963,363.913-0.37,361.756,0.087z"/>
				<path class="st2" d="M361.756,28.104c-0.47-2.203,0.869-6.193,4.265-9.602c3.396-3.408,7.386-4.849,9.562-4.284l0,0
					c0.53,2.153-0.867,6.197-4.262,9.605C367.929,27.228,363.913,28.56,361.756,28.104z"/>
			</g>
			<g>
				<path class="st0" d="M376.876,28.104c-0.471-2.203,0.871-6.193,4.266-9.602c3.394-3.408,7.385-4.849,9.56-4.284h0.002
					c0.531,2.153-0.87,6.197-4.264,9.605C383.049,27.228,379.034,28.56,376.876,28.104z"/>
				<path class="st2" d="M376.876,0.087c-0.471,2.205,0.871,6.193,4.266,9.603c3.394,3.409,7.385,4.85,9.56,4.284h0.002
					c0.531-2.152-0.87-6.197-4.264-9.605C383.049,0.963,379.034-0.37,376.876,0.087z"/>
			</g>
		</g>
		<g>
			<rect x="390.808" y="13.483" class="st1" width="30.847" height="1.239"/>
			<g>
				<path class="st0" d="M391.925,0.087c-0.47,2.205,0.869,6.193,4.265,9.603c3.396,3.409,7.386,4.85,9.562,4.284l0,0
					c0.531-2.152-0.867-6.197-4.262-9.605C398.098,0.963,394.082-0.37,391.925,0.087z"/>
				<path class="st2" d="M391.925,28.104c-0.47-2.203,0.869-6.193,4.265-9.602c3.396-3.408,7.386-4.849,9.562-4.284l0,0
					c0.531,2.153-0.867,6.197-4.262,9.605C398.098,27.228,394.082,28.56,391.925,28.104z"/>
			</g>
			<g>
				<path class="st0" d="M407.046,28.104c-0.471-2.203,0.87-6.193,4.265-9.602c3.395-3.408,7.385-4.849,9.56-4.284h0.002
					c0.531,2.153-0.87,6.197-4.263,9.605C413.219,27.228,409.203,28.56,407.046,28.104z"/>
				<path class="st2" d="M407.046,0.087c-0.471,2.205,0.87,6.193,4.265,9.603c3.395,3.409,7.385,4.85,9.56,4.284h0.002
					c0.531-2.152-0.87-6.197-4.263-9.605C413.219,0.963,409.203-0.37,407.046,0.087z"/>
			</g>
		</g>
		<g>
			<rect x="420.977" y="13.483" class="st1" width="30.848" height="1.239"/>
			<g>
				<path class="st0" d="M422.094,0.087c-0.47,2.205,0.87,6.193,4.266,9.603c3.396,3.409,7.385,4.85,9.561,4.284l0,0
					c0.531-2.152-0.867-6.197-4.262-9.605C428.267,0.963,424.251-0.37,422.094,0.087z"/>
				<path class="st2" d="M422.094,28.104c-0.47-2.203,0.87-6.193,4.266-9.602c3.396-3.408,7.385-4.849,9.561-4.284l0,0
					c0.531,2.153-0.867,6.197-4.262,9.605C428.267,27.228,424.251,28.56,422.094,28.104z"/>
			</g>
			<g>
				<path class="st0" d="M437.215,28.104c-0.471-2.203,0.87-6.193,4.266-9.602c3.394-3.408,7.385-4.849,9.559-4.284h0.002
					c0.531,2.153-0.869,6.197-4.263,9.605C443.388,27.228,439.372,28.56,437.215,28.104z"/>
				<path class="st2" d="M437.215,0.087c-0.471,2.205,0.87,6.193,4.266,9.603c3.394,3.409,7.385,4.85,9.559,4.284h0.002
					c0.531-2.152-0.869-6.197-4.263-9.605C443.388,0.963,439.372-0.37,437.215,0.087z"/>
			</g>
		</g>
		<g>
			<rect x="451.146" y="13.483" class="st1" width="30.848" height="1.239"/>
			<g>
				<path class="st0" d="M452.263,0.087c-0.47,2.205,0.87,6.193,4.266,9.603c3.396,3.409,7.386,4.85,9.562,4.284l0,0
					c0.53-2.152-0.868-6.197-4.263-9.605C458.437,0.963,454.42-0.37,452.263,0.087z"/>
				<path class="st2" d="M452.263,28.104c-0.47-2.203,0.87-6.193,4.266-9.602c3.396-3.408,7.386-4.849,9.562-4.284l0,0
					c0.53,2.153-0.868,6.197-4.263,9.605C458.437,27.228,454.42,28.56,452.263,28.104z"/>
			</g>
			<g>
				<path class="st0" d="M467.384,28.104c-0.471-2.203,0.87-6.193,4.266-9.602c3.394-3.408,7.385-4.849,9.559-4.284h0.003
					c0.53,2.153-0.87,6.197-4.264,9.605C473.557,27.228,469.542,28.56,467.384,28.104z"/>
				<path class="st2" d="M467.384,0.087c-0.471,2.205,0.87,6.193,4.266,9.603c3.394,3.409,7.385,4.85,9.559,4.284h0.003
					c0.53-2.152-0.87-6.197-4.264-9.605C473.557,0.963,469.542-0.37,467.384,0.087z"/>
			</g>
		</g>
		<g>
			<rect x="481.315" y="13.483" class="st1" width="30.848" height="1.239"/>
			<g>
				<path class="st0" d="M482.433,0.087c-0.47,2.205,0.869,6.193,4.265,9.603c3.396,3.409,7.386,4.85,9.562,4.284l0,0
					c0.53-2.152-0.868-6.197-4.262-9.605C488.606,0.963,484.589-0.37,482.433,0.087z"/>
				<path class="st2" d="M482.433,28.104c-0.47-2.203,0.869-6.193,4.265-9.602c3.396-3.408,7.386-4.849,9.562-4.284l0,0
					c0.53,2.153-0.868,6.197-4.262,9.605C488.606,27.228,484.589,28.56,482.433,28.104z"/>
			</g>
			<g>
				<path class="st0" d="M497.553,28.104c-0.471-2.203,0.871-6.193,4.266-9.602c3.394-3.408,7.385-4.849,9.56-4.284h0.002
					c0.531,2.153-0.87,6.197-4.264,9.605C503.726,27.228,499.71,28.56,497.553,28.104z"/>
				<path class="st2" d="M497.553,0.087c-0.471,2.205,0.871,6.193,4.266,9.603c3.394,3.409,7.385,4.85,9.56,4.284h0.002
					c0.531-2.152-0.87-6.197-4.264-9.605C503.726,0.963,499.71-0.37,497.553,0.087z"/>
			</g>
		</g>
		<g>
			<rect x="526.412" y="28.778" class="st1" width="1.238" height="30.801"/>
			<g>
				<path class="st0" d="M541.046,29.894c-2.204-0.469-6.192,0.868-9.603,4.258c-3.408,3.391-4.85,7.374-4.283,9.547l0,0
					c2.151,0.53,6.197-0.866,9.604-4.255C540.17,36.058,541.503,32.047,541.046,29.894z"/>
				<path class="st2" d="M513.03,29.894c2.203-0.469,6.193,0.868,9.603,4.258c3.407,3.391,4.85,7.374,4.284,9.547l0,0
					c-2.152,0.53-6.197-0.866-9.605-4.255C513.906,36.058,512.574,32.047,513.03,29.894z"/>
			</g>
			<g>
				<path class="st0" d="M513.03,44.992c2.203-0.47,6.193,0.869,9.603,4.259c3.407,3.389,4.85,7.374,4.284,9.544v0.002
					c-2.152,0.53-6.197-0.868-9.605-4.256C513.906,51.155,512.574,47.145,513.03,44.992z"/>
				<path class="st2" d="M541.046,44.992c-2.204-0.47-6.192,0.869-9.603,4.259c-3.408,3.389-4.85,7.374-4.283,9.544v0.002
					c2.151,0.53,6.197-0.868,9.604-4.256C540.17,51.155,541.503,47.145,541.046,44.992z"/>
			</g>
		</g>
		<g>
			<rect x="526.412" y="58.901" class="st1" width="1.238" height="30.801"/>
			<g>
				<path class="st0" d="M541.046,60.017c-2.204-0.469-6.192,0.868-9.603,4.258c-3.408,3.391-4.85,7.374-4.283,9.547l0,0
					c2.151,0.53,6.197-0.866,9.604-4.255C540.17,66.181,541.503,62.17,541.046,60.017z"/>
				<path class="st2" d="M513.03,60.017c2.203-0.469,6.193,0.868,9.603,4.258c3.407,3.391,4.85,7.374,4.284,9.547l0,0
					c-2.152,0.53-6.197-0.866-9.605-4.255C513.906,66.181,512.574,62.17,513.03,60.017z"/>
			</g>
			<g>
				<path class="st0" d="M513.03,75.115c2.203-0.47,6.193,0.869,9.603,4.259c3.407,3.389,4.85,7.374,4.284,9.544v0.002
					c-2.152,0.53-6.197-0.868-9.605-4.256C513.906,81.278,512.574,77.268,513.03,75.115z"/>
				<path class="st2" d="M541.046,75.115c-2.204-0.47-6.192,0.869-9.603,4.259c-3.408,3.389-4.85,7.374-4.283,9.544v0.002
					c2.151,0.53,6.197-0.868,9.604-4.256C540.17,81.278,541.503,77.268,541.046,75.115z"/>
			</g>
		</g>
		<g>
			<rect x="526.412" y="89.024" class="st1" width="1.238" height="30.801"/>
			<g>
				<path class="st0" d="M541.046,90.14c-2.204-0.469-6.192,0.868-9.603,4.258c-3.408,3.391-4.85,7.374-4.283,9.547l0,0
					c2.151,0.53,6.197-0.866,9.604-4.255C540.17,96.304,541.503,92.293,541.046,90.14z"/>
				<path class="st2" d="M513.03,90.14c2.203-0.469,6.193,0.868,9.603,4.258c3.407,3.391,4.85,7.374,4.284,9.547l0,0
					c-2.152,0.53-6.197-0.866-9.605-4.255C513.906,96.304,512.574,92.293,513.03,90.14z"/>
			</g>
			<g>
				<path class="st0" d="M513.03,105.238c2.203-0.47,6.193,0.869,9.603,4.259c3.407,3.389,4.85,7.374,4.284,9.544v0.002
					c-2.152,0.53-6.197-0.868-9.605-4.256C513.906,111.401,512.574,107.391,513.03,105.238z"/>
				<path class="st2" d="M541.046,105.238c-2.204-0.47-6.192,0.869-9.603,4.259c-3.408,3.389-4.85,7.374-4.283,9.544v0.002
					c2.151,0.53,6.197-0.868,9.604-4.256C540.17,111.401,541.503,107.391,541.046,105.238z"/>
			</g>
		</g>
		<g>
			<rect x="526.412" y="119.147" class="st1" width="1.238" height="30.801"/>
			<g>
				<path class="st0" d="M541.046,120.263c-2.204-0.469-6.192,0.868-9.603,4.258c-3.408,3.391-4.85,7.374-4.283,9.547l0,0
					c2.151,0.53,6.197-0.866,9.604-4.255C540.17,126.427,541.503,122.417,541.046,120.263z"/>
				<path class="st2" d="M513.03,120.263c2.203-0.469,6.193,0.868,9.603,4.258c3.407,3.391,4.85,7.374,4.284,9.547l0,0
					c-2.152,0.53-6.197-0.866-9.605-4.255C513.906,126.427,512.574,122.417,513.03,120.263z"/>
			</g>
			<g>
				<path class="st0" d="M513.03,135.361c2.203-0.47,6.193,0.869,9.603,4.259c3.407,3.389,4.85,7.374,4.284,9.544v0.002
					c-2.152,0.53-6.197-0.868-9.605-4.256C513.906,141.524,512.574,137.514,513.03,135.361z"/>
				<path class="st2" d="M541.046,135.361c-2.204-0.47-6.192,0.869-9.603,4.259c-3.408,3.389-4.85,7.374-4.283,9.544v0.002
					c2.151,0.53,6.197-0.868,9.604-4.256C540.17,141.524,541.503,137.514,541.046,135.361z"/>
			</g>
		</g>
		<g>
			<rect x="526.412" y="149.27" class="st1" width="1.238" height="30.801"/>
			<g>
				<path class="st0" d="M541.046,150.386c-2.204-0.469-6.192,0.868-9.603,4.258c-3.408,3.391-4.85,7.374-4.283,9.547l0,0
					c2.151,0.53,6.197-0.866,9.604-4.255C540.17,156.55,541.503,152.54,541.046,150.386z"/>
				<path class="st2" d="M513.03,150.386c2.203-0.469,6.193,0.868,9.603,4.258c3.407,3.391,4.85,7.374,4.284,9.547l0,0
					c-2.152,0.53-6.197-0.866-9.605-4.255C513.906,156.55,512.574,152.54,513.03,150.386z"/>
			</g>
			<g>
				<path class="st0" d="M513.03,165.484c2.203-0.47,6.193,0.869,9.603,4.259c3.407,3.389,4.85,7.374,4.284,9.544v0.002
					c-2.152,0.53-6.197-0.868-9.605-4.256C513.906,171.647,512.574,167.637,513.03,165.484z"/>
				<path class="st2" d="M541.046,165.484c-2.204-0.47-6.192,0.869-9.603,4.259c-3.408,3.389-4.85,7.374-4.283,9.544v0.002
					c2.151,0.53,6.197-0.868,9.604-4.256C540.17,171.647,541.503,167.637,541.046,165.484z"/>
			</g>
		</g>
		<g>
			<rect x="526.412" y="179.393" class="st1" width="1.238" height="30.801"/>
			<g>
				<path class="st0" d="M541.046,180.509c-2.204-0.469-6.192,0.868-9.603,4.258c-3.408,3.391-4.85,7.374-4.283,9.547l0,0
					c2.151,0.53,6.197-0.866,9.604-4.255C540.17,186.673,541.503,182.663,541.046,180.509z"/>
				<path class="st2" d="M513.03,180.509c2.203-0.469,6.193,0.868,9.603,4.258c3.407,3.391,4.85,7.374,4.284,9.547l0,0
					c-2.152,0.53-6.197-0.866-9.605-4.255C513.906,186.673,512.574,182.663,513.03,180.509z"/>
			</g>
			<g>
				<path class="st0" d="M513.03,195.607c2.203-0.47,6.193,0.869,9.603,4.259c3.407,3.389,4.85,7.374,4.284,9.544v0.002
					c-2.152,0.53-6.197-0.868-9.605-4.256C513.906,201.77,512.574,197.76,513.03,195.607z"/>
				<path class="st2" d="M541.046,195.607c-2.204-0.47-6.192,0.869-9.603,4.259c-3.408,3.389-4.85,7.374-4.283,9.544v0.002
					c2.151,0.53,6.197-0.868,9.604-4.256C540.17,201.77,541.503,197.76,541.046,195.607z"/>
			</g>
		</g>
		<g>
			<rect x="526.412" y="209.517" class="st1" width="1.238" height="30.8"/>
			<g>
				<path class="st0" d="M541.046,210.632c-2.204-0.469-6.192,0.868-9.603,4.258c-3.408,3.391-4.85,7.374-4.283,9.547l0,0
					c2.151,0.53,6.197-0.866,9.604-4.255C540.17,216.796,541.503,212.786,541.046,210.632z"/>
				<path class="st2" d="M513.03,210.632c2.203-0.469,6.193,0.868,9.603,4.258c3.407,3.391,4.85,7.374,4.284,9.547l0,0
					c-2.152,0.53-6.197-0.866-9.605-4.255C513.906,216.796,512.574,212.786,513.03,210.632z"/>
			</g>
			<g>
				<path class="st0" d="M513.03,225.73c2.203-0.47,6.193,0.869,9.603,4.259c3.407,3.389,4.85,7.374,4.284,9.544v0.002
					c-2.152,0.53-6.197-0.868-9.605-4.256C513.906,231.893,512.574,227.883,513.03,225.73z"/>
				<path class="st2" d="M541.046,225.73c-2.204-0.47-6.192,0.869-9.603,4.259c-3.408,3.389-4.85,7.374-4.283,9.544v0.002
					c2.151,0.53,6.197-0.868,9.604-4.256C540.17,231.893,541.503,227.883,541.046,225.73z"/>
			</g>
		</g>
		<g>
			<rect x="526.412" y="239.64" class="st1" width="1.238" height="30.8"/>
			<g>
				<path class="st0" d="M541.046,240.755c-2.204-0.469-6.192,0.868-9.603,4.258c-3.408,3.391-4.85,7.374-4.283,9.547l0,0
					c2.151,0.53,6.197-0.866,9.604-4.255C540.17,246.919,541.503,242.909,541.046,240.755z"/>
				<path class="st2" d="M513.03,240.755c2.203-0.469,6.193,0.868,9.603,4.258c3.407,3.391,4.85,7.374,4.284,9.547l0,0
					c-2.152,0.53-6.197-0.866-9.605-4.255C513.906,246.919,512.574,242.909,513.03,240.755z"/>
			</g>
			<g>
				<path class="st0" d="M513.03,255.853c2.203-0.47,6.193,0.869,9.603,4.259c3.407,3.389,4.85,7.374,4.284,9.544v0.002
					c-2.152,0.53-6.197-0.868-9.605-4.256C513.906,262.016,512.574,258.006,513.03,255.853z"/>
				<path class="st2" d="M541.046,255.853c-2.204-0.47-6.192,0.869-9.603,4.259c-3.408,3.389-4.85,7.374-4.283,9.544v0.002
					c2.151,0.53,6.197-0.868,9.604-4.256C540.17,262.016,541.503,258.006,541.046,255.853z"/>
			</g>
		</g>
		<g>
			<rect x="526.412" y="269.763" class="st1" width="1.238" height="30.8"/>
			<g>
				<path class="st0" d="M541.046,270.878c-2.204-0.469-6.192,0.868-9.603,4.258c-3.408,3.391-4.85,7.374-4.283,9.547l0,0
					c2.151,0.53,6.197-0.866,9.604-4.255C540.17,277.042,541.503,273.032,541.046,270.878z"/>
				<path class="st2" d="M513.03,270.878c2.203-0.469,6.193,0.868,9.603,4.258c3.407,3.391,4.85,7.374,4.284,9.547l0,0
					c-2.152,0.53-6.197-0.866-9.605-4.255C513.906,277.042,512.574,273.032,513.03,270.878z"/>
			</g>
			<g>
				<path class="st0" d="M513.03,285.976c2.203-0.47,6.193,0.869,9.603,4.259c3.407,3.389,4.85,7.374,4.284,9.544v0.002
					c-2.152,0.53-6.197-0.868-9.605-4.256C513.906,292.139,512.574,288.129,513.03,285.976z"/>
				<path class="st2" d="M541.046,285.976c-2.204-0.47-6.192,0.869-9.603,4.259c-3.408,3.389-4.85,7.374-4.283,9.544v0.002
					c2.151,0.53,6.197-0.868,9.604-4.256C540.17,292.139,541.503,288.129,541.046,285.976z"/>
			</g>
		</g>
		<g>
			<rect x="526.412" y="299.886" class="st1" width="1.238" height="30.8"/>
			<g>
				<path class="st0" d="M541.046,301.001c-2.204-0.469-6.192,0.868-9.603,4.258c-3.408,3.391-4.85,7.374-4.283,9.547l0,0
					c2.151,0.53,6.197-0.866,9.604-4.255C540.17,307.165,541.503,303.155,541.046,301.001z"/>
				<path class="st2" d="M513.03,301.001c2.203-0.469,6.193,0.868,9.603,4.258c3.407,3.391,4.85,7.374,4.284,9.547l0,0
					c-2.152,0.53-6.197-0.866-9.605-4.255C513.906,307.165,512.574,303.155,513.03,301.001z"/>
			</g>
			<g>
				<path class="st0" d="M513.03,316.099c2.203-0.47,6.193,0.869,9.603,4.259c3.407,3.389,4.85,7.374,4.284,9.544v0.002
					c-2.152,0.53-6.197-0.868-9.605-4.256C513.906,322.262,512.574,318.252,513.03,316.099z"/>
				<path class="st2" d="M541.046,316.099c-2.204-0.47-6.192,0.869-9.603,4.259c-3.408,3.389-4.85,7.374-4.283,9.544v0.002
					c2.151,0.53,6.197-0.868,9.604-4.256C540.17,322.262,541.503,318.252,541.046,316.099z"/>
			</g>
		</g>
		<g>
			<rect x="526.412" y="330.009" class="st1" width="1.238" height="30.8"/>
			<g>
				<path class="st0" d="M541.046,331.125c-2.204-0.469-6.192,0.868-9.603,4.258c-3.408,3.391-4.85,7.374-4.283,9.547l0,0
					c2.151,0.53,6.197-0.866,9.604-4.255C540.17,337.288,541.503,333.278,541.046,331.125z"/>
				<path class="st2" d="M513.03,331.125c2.203-0.469,6.193,0.868,9.603,4.258c3.407,3.391,4.85,7.374,4.284,9.547l0,0
					c-2.152,0.53-6.197-0.866-9.605-4.255C513.906,337.288,512.574,333.278,513.03,331.125z"/>
			</g>
			<g>
				<path class="st0" d="M513.03,346.222c2.203-0.47,6.193,0.869,9.603,4.259c3.407,3.389,4.85,7.374,4.284,9.544v0.002
					c-2.152,0.53-6.197-0.868-9.605-4.256C513.906,352.385,512.574,348.375,513.03,346.222z"/>
				<path class="st2" d="M541.046,346.222c-2.204-0.47-6.192,0.869-9.603,4.259c-3.408,3.389-4.85,7.374-4.283,9.544v0.002
					c2.151,0.53,6.197-0.868,9.604-4.256C540.17,352.385,541.503,348.375,541.046,346.222z"/>
			</g>
		</g>
		<g>
			<rect x="526.412" y="360.132" class="st1" width="1.238" height="30.8"/>
			<g>
				<path class="st0" d="M541.046,361.248c-2.204-0.469-6.192,0.868-9.603,4.259c-3.408,3.391-4.85,7.374-4.283,9.546l0,0
					c2.151,0.53,6.197-0.866,9.604-4.255C540.17,367.411,541.503,363.401,541.046,361.248z"/>
				<path class="st2" d="M513.03,361.248c2.203-0.469,6.193,0.868,9.603,4.259c3.407,3.391,4.85,7.374,4.284,9.546l0,0
					c-2.152,0.53-6.197-0.866-9.605-4.255C513.906,367.411,512.574,363.401,513.03,361.248z"/>
			</g>
			<g>
				<path class="st0" d="M513.03,376.345c2.203-0.47,6.193,0.869,9.603,4.259c3.407,3.389,4.85,7.373,4.284,9.544v0.003
					c-2.152,0.53-6.197-0.869-9.605-4.257C513.906,382.508,512.574,378.499,513.03,376.345z"/>
				<path class="st2" d="M541.046,376.345c-2.204-0.47-6.192,0.869-9.603,4.259c-3.408,3.389-4.85,7.373-4.283,9.544v0.003
					c2.151,0.53,6.197-0.869,9.604-4.257C540.17,382.508,541.503,378.499,541.046,376.345z"/>
			</g>
		</g>
		<g>
			<rect x="526.412" y="390.254" class="st1" width="1.238" height="30.801"/>
			<g>
				<path class="st0" d="M541.046,391.371c-2.204-0.469-6.192,0.868-9.603,4.259c-3.408,3.391-4.85,7.374-4.283,9.546l0,0
					c2.151,0.53,6.197-0.866,9.604-4.255C540.17,397.534,541.503,393.524,541.046,391.371z"/>
				<path class="st2" d="M513.03,391.371c2.203-0.469,6.193,0.868,9.603,4.259c3.407,3.391,4.85,7.374,4.284,9.546l0,0
					c-2.152,0.53-6.197-0.866-9.605-4.255C513.906,397.534,512.574,393.524,513.03,391.371z"/>
			</g>
			<g>
				<path class="st0" d="M513.03,406.468c2.203-0.47,6.193,0.869,9.603,4.259c3.407,3.389,4.85,7.373,4.284,9.544v0.003
					c-2.152,0.53-6.197-0.869-9.605-4.257C513.906,412.631,512.574,408.622,513.03,406.468z"/>
				<path class="st2" d="M541.046,406.468c-2.204-0.47-6.192,0.869-9.603,4.259c-3.408,3.389-4.85,7.373-4.283,9.544v0.003
					c2.151,0.53,6.197-0.869,9.604-4.257C540.17,412.631,541.503,408.622,541.046,406.468z"/>
			</g>
		</g>
		<g>
			<rect x="526.412" y="420.377" class="st1" width="1.238" height="30.801"/>
			<g>
				<path class="st0" d="M541.046,421.494c-2.204-0.469-6.192,0.868-9.603,4.259c-3.408,3.391-4.85,7.374-4.283,9.546l0,0
					c2.151,0.53,6.197-0.866,9.604-4.255C540.17,427.657,541.503,423.647,541.046,421.494z"/>
				<path class="st2" d="M513.03,421.494c2.203-0.469,6.193,0.868,9.603,4.259c3.407,3.391,4.85,7.374,4.284,9.546l0,0
					c-2.152,0.53-6.197-0.866-9.605-4.255C513.906,427.657,512.574,423.647,513.03,421.494z"/>
			</g>
			<g>
				<path class="st0" d="M513.03,436.591c2.203-0.47,6.193,0.869,9.603,4.259c3.407,3.389,4.85,7.373,4.284,9.544v0.003
					c-2.152,0.53-6.197-0.869-9.605-4.257C513.906,442.754,512.574,438.745,513.03,436.591z"/>
				<path class="st2" d="M541.046,436.591c-2.204-0.47-6.192,0.869-9.603,4.259c-3.408,3.389-4.85,7.373-4.283,9.544v0.003
					c2.151,0.53,6.197-0.869,9.604-4.257C540.17,442.754,541.503,438.745,541.046,436.591z"/>
			</g>
		</g>
		<g>
			<rect x="526.412" y="450.5" class="st1" width="1.238" height="30.801"/>
			<g>
				<path class="st0" d="M541.046,451.617c-2.204-0.469-6.192,0.868-9.603,4.259c-3.408,3.391-4.85,7.374-4.283,9.546l0,0
					c2.151,0.53,6.197-0.866,9.604-4.255C540.17,457.78,541.503,453.77,541.046,451.617z"/>
				<path class="st2" d="M513.03,451.617c2.203-0.469,6.193,0.868,9.603,4.259c3.407,3.391,4.85,7.374,4.284,9.546l0,0
					c-2.152,0.53-6.197-0.866-9.605-4.255C513.906,457.78,512.574,453.77,513.03,451.617z"/>
			</g>
			<g>
				<path class="st0" d="M513.03,466.714c2.203-0.47,6.193,0.869,9.603,4.259c3.407,3.389,4.85,7.373,4.284,9.544v0.003
					c-2.152,0.53-6.197-0.869-9.605-4.257C513.906,472.877,512.574,468.868,513.03,466.714z"/>
				<path class="st2" d="M541.046,466.714c-2.204-0.47-6.192,0.869-9.603,4.259c-3.408,3.389-4.85,7.373-4.283,9.544v0.003
					c2.151,0.53,6.197-0.869,9.604-4.257C540.17,472.877,541.503,468.868,541.046,466.714z"/>
			</g>
		</g>
		<g>
			<rect x="526.412" y="480.624" class="st1" width="1.238" height="30.801"/>
			<g>
				<path class="st0" d="M541.046,481.74c-2.204-0.469-6.192,0.868-9.603,4.259c-3.408,3.391-4.85,7.374-4.283,9.546l0,0
					c2.151,0.53,6.197-0.866,9.604-4.255C540.17,487.903,541.503,483.893,541.046,481.74z"/>
				<path class="st2" d="M513.03,481.74c2.203-0.469,6.193,0.868,9.603,4.259c3.407,3.391,4.85,7.374,4.284,9.546l0,0
					c-2.152,0.53-6.197-0.866-9.605-4.255C513.906,487.903,512.574,483.893,513.03,481.74z"/>
			</g>
			<g>
				<path class="st0" d="M513.03,496.837c2.203-0.47,6.193,0.869,9.603,4.259c3.407,3.389,4.85,7.373,4.284,9.544v0.003
					c-2.152,0.53-6.197-0.869-9.605-4.257C513.906,503,512.574,498.991,513.03,496.837z"/>
				<path class="st2" d="M541.046,496.837c-2.204-0.47-6.192,0.869-9.603,4.259c-3.408,3.389-4.85,7.373-4.283,9.544v0.003
					c2.151,0.53,6.197-0.869,9.604-4.257C540.17,503,541.503,498.991,541.046,496.837z"/>
			</g>
		</g>
		<g>
			<rect x="526.412" y="510.747" class="st1" width="1.238" height="30.801"/>
			<g>
				<path class="st0" d="M541.046,511.863c-2.204-0.469-6.192,0.868-9.603,4.259c-3.408,3.391-4.85,7.374-4.283,9.546l0,0
					c2.151,0.53,6.197-0.866,9.604-4.255C540.17,518.026,541.503,514.016,541.046,511.863z"/>
				<path class="st2" d="M513.03,511.863c2.203-0.469,6.193,0.868,9.603,4.259c3.407,3.391,4.85,7.374,4.284,9.546l0,0
					c-2.152,0.53-6.197-0.866-9.605-4.255C513.906,518.026,512.574,514.016,513.03,511.863z"/>
			</g>
			<g>
				<path class="st0" d="M513.03,526.96c2.203-0.47,6.193,0.869,9.603,4.259c3.407,3.389,4.85,7.373,4.284,9.544v0.003
					c-2.152,0.53-6.197-0.869-9.605-4.257C513.906,533.124,512.574,529.114,513.03,526.96z"/>
				<path class="st2" d="M541.046,526.96c-2.204-0.47-6.192,0.869-9.603,4.259c-3.408,3.389-4.85,7.373-4.283,9.544v0.003
					c2.151,0.53,6.197-0.869,9.604-4.257C540.17,533.124,541.503,529.114,541.046,526.96z"/>
			</g>
		</g>
		<g>
			<rect x="526.412" y="540.87" class="st1" width="1.238" height="30.801"/>
			<g>
				<path class="st0" d="M541.046,541.986c-2.204-0.469-6.192,0.868-9.603,4.259c-3.408,3.391-4.85,7.374-4.283,9.546l0,0
					c2.151,0.53,6.197-0.866,9.604-4.255C540.17,548.149,541.503,544.139,541.046,541.986z"/>
				<path class="st2" d="M513.03,541.986c2.203-0.469,6.193,0.868,9.603,4.259c3.407,3.391,4.85,7.374,4.284,9.546l0,0
					c-2.152,0.53-6.197-0.866-9.605-4.255C513.906,548.149,512.574,544.139,513.03,541.986z"/>
			</g>
			<g>
				<path class="st0" d="M513.03,557.083c2.203-0.47,6.193,0.869,9.603,4.259c3.407,3.389,4.85,7.373,4.284,9.544v0.003
					c-2.152,0.53-6.197-0.869-9.605-4.257C513.906,563.247,512.574,559.237,513.03,557.083z"/>
				<path class="st2" d="M541.046,557.083c-2.204-0.47-6.192,0.869-9.603,4.259c-3.408,3.389-4.85,7.373-4.283,9.544v0.003
					c2.151,0.53,6.197-0.869,9.604-4.257C540.17,563.247,541.503,559.237,541.046,557.083z"/>
			</g>
		</g>
		<g>
			<rect x="526.412" y="570.993" class="st1" width="1.238" height="30.801"/>
			<g>
				<path class="st0" d="M541.046,572.109c-2.204-0.469-6.192,0.868-9.603,4.259c-3.408,3.391-4.85,7.374-4.283,9.546l0,0
					c2.151,0.53,6.197-0.866,9.604-4.255C540.17,578.272,541.503,574.262,541.046,572.109z"/>
				<path class="st2" d="M513.03,572.109c2.203-0.469,6.193,0.868,9.603,4.259c3.407,3.391,4.85,7.374,4.284,9.546l0,0
					c-2.152,0.53-6.197-0.866-9.605-4.255C513.906,578.272,512.574,574.262,513.03,572.109z"/>
			</g>
			<g>
				<path class="st0" d="M513.03,587.207c2.203-0.47,6.193,0.869,9.603,4.259c3.407,3.389,4.85,7.373,4.284,9.544v0.003
					c-2.152,0.53-6.197-0.869-9.605-4.257C513.906,593.37,512.574,589.36,513.03,587.207z"/>
				<path class="st2" d="M541.046,587.207c-2.204-0.47-6.192,0.869-9.603,4.259c-3.408,3.389-4.85,7.373-4.283,9.544v0.003
					c2.151,0.53,6.197-0.869,9.604-4.257C540.17,593.37,541.503,589.36,541.046,587.207z"/>
			</g>
		</g>
		<g>
			<rect x="526.412" y="601.116" class="st1" width="1.238" height="30.801"/>
			<g>
				<path class="st0" d="M541.046,602.232c-2.204-0.469-6.192,0.868-9.603,4.259c-3.408,3.391-4.85,7.374-4.283,9.546l0,0
					c2.151,0.53,6.197-0.866,9.604-4.255C540.17,608.395,541.503,604.385,541.046,602.232z"/>
				<path class="st2" d="M513.03,602.232c2.203-0.469,6.193,0.868,9.603,4.259c3.407,3.391,4.85,7.374,4.284,9.546l0,0
					c-2.152,0.53-6.197-0.866-9.605-4.255C513.906,608.395,512.574,604.385,513.03,602.232z"/>
			</g>
			<g>
				<path class="st0" d="M513.03,617.33c2.203-0.47,6.193,0.869,9.603,4.259c3.407,3.389,4.85,7.373,4.284,9.544v0.003
					c-2.152,0.53-6.197-0.869-9.605-4.257C513.906,623.493,512.574,619.483,513.03,617.33z"/>
				<path class="st2" d="M541.046,617.33c-2.204-0.47-6.192,0.869-9.603,4.259c-3.408,3.389-4.85,7.373-4.283,9.544v0.003
					c2.151,0.53,6.197-0.869,9.604-4.257C540.17,623.493,541.503,619.483,541.046,617.33z"/>
			</g>
		</g>
		<g>
			<rect x="526.412" y="631.239" class="st1" width="1.238" height="30.801"/>
			<g>
				<path class="st0" d="M541.046,632.355c-2.204-0.469-6.192,0.868-9.603,4.259c-3.408,3.391-4.85,7.374-4.283,9.546l0,0
					c2.151,0.53,6.197-0.866,9.604-4.255C540.17,638.518,541.503,634.508,541.046,632.355z"/>
				<path class="st2" d="M513.03,632.355c2.203-0.469,6.193,0.868,9.603,4.259c3.407,3.391,4.85,7.374,4.284,9.546l0,0
					c-2.152,0.53-6.197-0.866-9.605-4.255C513.906,638.518,512.574,634.508,513.03,632.355z"/>
			</g>
			<g>
				<path class="st0" d="M513.03,647.453c2.203-0.47,6.193,0.869,9.603,4.259c3.407,3.389,4.85,7.373,4.284,9.544v0.003
					c-2.152,0.53-6.197-0.869-9.605-4.257C513.906,653.616,512.574,649.606,513.03,647.453z"/>
				<path class="st2" d="M541.046,647.453c-2.204-0.47-6.192,0.869-9.603,4.259c-3.408,3.389-4.85,7.373-4.283,9.544v0.003
					c2.151,0.53,6.197-0.869,9.604-4.257C540.17,653.616,541.503,649.606,541.046,647.453z"/>
			</g>
		</g>
		<g>
			<rect x="526.412" y="661.362" class="st1" width="1.238" height="30.801"/>
			<g>
				<path class="st0" d="M541.046,662.478c-2.204-0.469-6.192,0.868-9.603,4.259c-3.408,3.391-4.85,7.374-4.283,9.546l0,0
					c2.151,0.53,6.197-0.866,9.604-4.255C540.17,668.641,541.503,664.631,541.046,662.478z"/>
				<path class="st2" d="M513.03,662.478c2.203-0.469,6.193,0.868,9.603,4.259c3.407,3.391,4.85,7.374,4.284,9.546l0,0
					c-2.152,0.53-6.197-0.866-9.605-4.255C513.906,668.641,512.574,664.631,513.03,662.478z"/>
			</g>
			<g>
				<path class="st0" d="M513.03,677.576c2.203-0.47,6.193,0.869,9.603,4.259c3.407,3.389,4.85,7.373,4.284,9.544v0.003
					c-2.152,0.53-6.197-0.869-9.605-4.257C513.906,683.739,512.574,679.729,513.03,677.576z"/>
				<path class="st2" d="M541.046,677.576c-2.204-0.47-6.192,0.869-9.603,4.259c-3.408,3.389-4.85,7.373-4.283,9.544v0.003
					c2.151,0.53,6.197-0.869,9.604-4.257C540.17,683.739,541.503,679.729,541.046,677.576z"/>
			</g>
		</g>
		<g>
			<rect x="481.509" y="706.412" class="st1" width="30.847" height="1.238"/>
			<g>
				<path class="st0" d="M511.239,721.046c0.47-2.204-0.869-6.192-4.265-9.603c-3.396-3.408-7.386-4.85-9.562-4.283l0,0
					c-0.531,2.151,0.867,6.197,4.262,9.604C505.066,720.17,509.083,721.503,511.239,721.046z"/>
				<path class="st2" d="M511.239,693.03c0.47,2.203-0.869,6.193-4.265,9.603c-3.396,3.407-7.386,4.85-9.562,4.284l0,0
					c-0.531-2.152,0.867-6.197,4.262-9.605C505.066,693.906,509.083,692.574,511.239,693.03z"/>
			</g>
			<g>
				<path class="st0" d="M496.118,693.03c0.471,2.203-0.87,6.193-4.265,9.603c-3.395,3.407-7.385,4.85-9.56,4.284h-0.002
					c-0.531-2.152,0.87-6.197,4.263-9.605C489.945,693.906,493.961,692.574,496.118,693.03z"/>
				<path class="st2" d="M496.118,721.046c0.471-2.204-0.87-6.192-4.265-9.603c-3.395-3.408-7.385-4.85-9.56-4.283h-0.002
					c-0.531,2.151,0.87,6.197,4.263,9.604C489.945,720.17,493.961,721.503,496.118,721.046z"/>
			</g>
		</g>
		<g>
			<rect x="451.339" y="706.412" class="st1" width="30.848" height="1.238"/>
			<g>
				<path class="st0" d="M481.07,721.046c0.47-2.204-0.87-6.192-4.266-9.603c-3.396-3.408-7.385-4.85-9.561-4.283l0,0
					c-0.531,2.151,0.867,6.197,4.262,9.604C474.897,720.17,478.913,721.503,481.07,721.046z"/>
				<path class="st2" d="M481.07,693.03c0.47,2.203-0.87,6.193-4.266,9.603c-3.396,3.407-7.385,4.85-9.561,4.284l0,0
					c-0.531-2.152,0.867-6.197,4.262-9.605C474.897,693.906,478.913,692.574,481.07,693.03z"/>
			</g>
			<g>
				<path class="st0" d="M465.949,693.03c0.471,2.203-0.87,6.193-4.266,9.603c-3.394,3.407-7.385,4.85-9.559,4.284h-0.002
					c-0.531-2.152,0.869-6.197,4.263-9.605C459.776,693.906,463.792,692.574,465.949,693.03z"/>
				<path class="st2" d="M465.949,721.046c0.471-2.204-0.87-6.192-4.266-9.603c-3.394-3.408-7.385-4.85-9.559-4.283h-0.002
					c-0.531,2.151,0.869,6.197,4.263,9.604C459.776,720.17,463.792,721.503,465.949,721.046z"/>
			</g>
		</g>
		<g>
			<rect x="421.17" y="706.412" class="st1" width="30.848" height="1.238"/>
			<g>
				<path class="st0" d="M450.901,721.046c0.47-2.204-0.87-6.192-4.266-9.603c-3.396-3.408-7.385-4.85-9.562-4.283l0,0
					c-0.53,2.151,0.868,6.197,4.263,9.604C444.727,720.17,448.744,721.503,450.901,721.046z"/>
				<path class="st2" d="M450.901,693.03c0.47,2.203-0.87,6.193-4.266,9.603c-3.396,3.407-7.385,4.85-9.562,4.284l0,0
					c-0.53-2.152,0.868-6.197,4.263-9.605C444.727,693.906,448.744,692.574,450.901,693.03z"/>
			</g>
			<g>
				<path class="st0" d="M435.78,693.03c0.471,2.203-0.87,6.193-4.266,9.603c-3.394,3.407-7.385,4.85-9.559,4.284h-0.003
					c-0.53-2.152,0.87-6.197,4.264-9.605C429.607,693.906,433.623,692.574,435.78,693.03z"/>
				<path class="st2" d="M435.78,721.046c0.471-2.204-0.87-6.192-4.266-9.603c-3.394-3.408-7.385-4.85-9.559-4.283h-0.003
					c-0.53,2.151,0.87,6.197,4.264,9.604C429.607,720.17,433.623,721.503,435.78,721.046z"/>
			</g>
		</g>
		<g>
			<rect x="391.001" y="706.412" class="st1" width="30.848" height="1.238"/>
			<g>
				<path class="st0" d="M420.731,721.046c0.47-2.204-0.869-6.192-4.265-9.603c-3.396-3.408-7.386-4.85-9.562-4.283l0,0
					c-0.53,2.151,0.867,6.197,4.262,9.604C414.558,720.17,418.575,721.503,420.731,721.046z"/>
				<path class="st2" d="M420.731,693.03c0.47,2.203-0.869,6.193-4.265,9.603c-3.396,3.407-7.386,4.85-9.562,4.284l0,0
					c-0.53-2.152,0.867-6.197,4.262-9.605C414.558,693.906,418.575,692.574,420.731,693.03z"/>
			</g>
			<g>
				<path class="st0" d="M405.611,693.03c0.471,2.203-0.871,6.193-4.266,9.603c-3.394,3.407-7.385,4.85-9.56,4.284h-0.002
					c-0.531-2.152,0.87-6.197,4.264-9.605C399.438,693.906,403.454,692.574,405.611,693.03z"/>
				<path class="st2" d="M405.611,721.046c0.471-2.204-0.871-6.192-4.266-9.603c-3.394-3.408-7.385-4.85-9.56-4.283h-0.002
					c-0.531,2.151,0.87,6.197,4.264,9.604C399.438,720.17,403.454,721.503,405.611,721.046z"/>
			</g>
		</g>
		<g>
			<rect x="360.833" y="706.412" class="st1" width="30.847" height="1.238"/>
			<g>
				<path class="st0" d="M390.562,721.046c0.47-2.204-0.869-6.192-4.265-9.603c-3.396-3.408-7.386-4.85-9.562-4.283l0,0
					c-0.531,2.151,0.867,6.197,4.262,9.604C384.389,720.17,388.406,721.503,390.562,721.046z"/>
				<path class="st2" d="M390.562,693.03c0.47,2.203-0.869,6.193-4.265,9.603c-3.396,3.407-7.386,4.85-9.562,4.284l0,0
					c-0.531-2.152,0.867-6.197,4.262-9.605C384.389,693.906,388.406,692.574,390.562,693.03z"/>
			</g>
			<g>
				<path class="st0" d="M375.441,693.03c0.471,2.203-0.87,6.193-4.265,9.603c-3.395,3.407-7.385,4.85-9.56,4.284h-0.002
					c-0.531-2.152,0.87-6.197,4.263-9.605C369.268,693.906,373.285,692.574,375.441,693.03z"/>
				<path class="st2" d="M375.441,721.046c0.471-2.204-0.87-6.192-4.265-9.603c-3.395-3.408-7.385-4.85-9.56-4.283h-0.002
					c-0.531,2.151,0.87,6.197,4.263,9.604C369.268,720.17,373.285,721.503,375.441,721.046z"/>
			</g>
		</g>
		<g>
			<rect x="330.663" y="706.412" class="st1" width="30.848" height="1.238"/>
			<g>
				<path class="st0" d="M360.393,721.046c0.47-2.204-0.87-6.192-4.266-9.603c-3.396-3.408-7.385-4.85-9.561-4.283l0,0
					c-0.531,2.151,0.867,6.197,4.262,9.604C354.22,720.17,358.236,721.503,360.393,721.046z"/>
				<path class="st2" d="M360.393,693.03c0.47,2.203-0.87,6.193-4.266,9.603c-3.396,3.407-7.385,4.85-9.561,4.284l0,0
					c-0.531-2.152,0.867-6.197,4.262-9.605C354.22,693.906,358.236,692.574,360.393,693.03z"/>
			</g>
			<g>
				<path class="st0" d="M345.272,693.03c0.471,2.203-0.87,6.193-4.266,9.603c-3.394,3.407-7.385,4.85-9.559,4.284h-0.002
					c-0.531-2.152,0.869-6.197,4.263-9.605C339.099,693.906,343.116,692.574,345.272,693.03z"/>
				<path class="st2" d="M345.272,721.046c0.471-2.204-0.87-6.192-4.266-9.603c-3.394-3.408-7.385-4.85-9.559-4.283h-0.002
					c-0.531,2.151,0.869,6.197,4.263,9.604C339.099,720.17,343.116,721.503,345.272,721.046z"/>
			</g>
		</g>
		<g>
			<rect x="300.494" y="706.412" class="st1" width="30.848" height="1.238"/>
			<g>
				<path class="st0" d="M330.224,721.046c0.47-2.204-0.87-6.192-4.266-9.603c-3.396-3.408-7.386-4.85-9.562-4.283l0,0
					c-0.53,2.151,0.868,6.197,4.263,9.604C324.05,720.17,328.067,721.503,330.224,721.046z"/>
				<path class="st2" d="M330.224,693.03c0.47,2.203-0.87,6.193-4.266,9.603c-3.396,3.407-7.386,4.85-9.562,4.284l0,0
					c-0.53-2.152,0.868-6.197,4.263-9.605C324.05,693.906,328.067,692.574,330.224,693.03z"/>
			</g>
			<g>
				<path class="st0" d="M315.103,693.03c0.471,2.203-0.87,6.193-4.266,9.603c-3.394,3.407-7.385,4.85-9.559,4.284h-0.003
					c-0.53-2.152,0.87-6.197,4.264-9.605C308.93,693.906,312.946,692.574,315.103,693.03z"/>
				<path class="st2" d="M315.103,721.046c0.471-2.204-0.87-6.192-4.266-9.603c-3.394-3.408-7.385-4.85-9.559-4.283h-0.003
					c-0.53,2.151,0.87,6.197,4.264,9.604C308.93,720.17,312.946,721.503,315.103,721.046z"/>
			</g>
		</g>
		<g>
			<rect x="270.325" y="706.412" class="st1" width="30.848" height="1.238"/>
			<g>
				<path class="st0" d="M300.054,721.046c0.47-2.204-0.869-6.192-4.265-9.603c-3.396-3.408-7.386-4.85-9.562-4.283l0,0
					c-0.53,2.151,0.868,6.197,4.262,9.604C293.881,720.17,297.898,721.503,300.054,721.046z"/>
				<path class="st2" d="M300.054,693.03c0.47,2.203-0.869,6.193-4.265,9.603c-3.396,3.407-7.386,4.85-9.562,4.284l0,0
					c-0.53-2.152,0.868-6.197,4.262-9.605C293.881,693.906,297.898,692.574,300.054,693.03z"/>
			</g>
			<g>
				<path class="st0" d="M284.934,693.03c0.471,2.203-0.871,6.193-4.266,9.603c-3.394,3.407-7.385,4.85-9.559,4.284h-0.002
					c-0.531-2.152,0.87-6.197,4.264-9.605C278.761,693.906,282.777,692.574,284.934,693.03z"/>
				<path class="st2" d="M284.934,721.046c0.471-2.204-0.871-6.192-4.266-9.603c-3.394-3.408-7.385-4.85-9.559-4.283h-0.002
					c-0.531,2.151,0.87,6.197,4.264,9.604C278.761,720.17,282.777,721.503,284.934,721.046z"/>
			</g>
		</g>
		<g>
			<rect x="240.155" y="706.412" class="st1" width="30.848" height="1.238"/>
			<g>
				<path class="st0" d="M269.885,721.046c0.47-2.204-0.87-6.192-4.265-9.603c-3.396-3.408-7.385-4.85-9.561-4.283l0,0
					c-0.531,2.151,0.867,6.197,4.262,9.604C263.712,720.17,267.729,721.503,269.885,721.046z"/>
				<path class="st2" d="M269.885,693.03c0.47,2.203-0.87,6.193-4.265,9.603c-3.396,3.407-7.385,4.85-9.561,4.284l0,0
					c-0.531-2.152,0.867-6.197,4.262-9.605C263.712,693.906,267.729,692.574,269.885,693.03z"/>
			</g>
			<g>
				<path class="st0" d="M254.765,693.03c0.471,2.203-0.871,6.193-4.266,9.603c-3.394,3.407-7.385,4.85-9.559,4.284h-0.002
					c-0.531-2.152,0.87-6.197,4.263-9.605C248.592,693.906,252.608,692.574,254.765,693.03z"/>
				<path class="st2" d="M254.765,721.046c0.471-2.204-0.871-6.192-4.266-9.603c-3.394-3.408-7.385-4.85-9.559-4.283h-0.002
					c-0.531,2.151,0.87,6.197,4.263,9.604C248.592,720.17,252.608,721.503,254.765,721.046z"/>
			</g>
		</g>
		<g>
			<rect x="209.986" y="706.412" class="st1" width="30.847" height="1.238"/>
			<g>
				<path class="st0" d="M239.716,721.046c0.47-2.204-0.87-6.192-4.265-9.603c-3.396-3.408-7.385-4.85-9.562-4.283l0,0
					c-0.531,2.151,0.868,6.197,4.262,9.604C233.543,720.17,237.56,721.503,239.716,721.046z"/>
				<path class="st2" d="M239.716,693.03c0.47,2.203-0.87,6.193-4.265,9.603c-3.396,3.407-7.385,4.85-9.562,4.284l0,0
					c-0.531-2.152,0.868-6.197,4.262-9.605C233.543,693.906,237.56,692.574,239.716,693.03z"/>
			</g>
			<g>
				<path class="st0" d="M224.595,693.03c0.471,2.203-0.87,6.193-4.265,9.603c-3.394,3.407-7.385,4.85-9.559,4.284h-0.002
					c-0.531-2.152,0.87-6.197,4.263-9.605C218.422,693.906,222.438,692.574,224.595,693.03z"/>
				<path class="st2" d="M224.595,721.046c0.471-2.204-0.87-6.192-4.265-9.603c-3.394-3.408-7.385-4.85-9.559-4.283h-0.002
					c-0.531,2.151,0.87,6.197,4.263,9.604C218.422,720.17,222.438,721.503,224.595,721.046z"/>
			</g>
		</g>
		<g>
			<rect x="179.817" y="706.412" class="st1" width="30.848" height="1.238"/>
			<g>
				<path class="st0" d="M209.547,721.046c0.47-2.204-0.87-6.192-4.265-9.603c-3.396-3.408-7.385-4.85-9.561-4.283l0,0
					c-0.531,2.151,0.868,6.197,4.262,9.604C203.374,720.17,207.39,721.503,209.547,721.046z"/>
				<path class="st2" d="M209.547,693.03c0.47,2.203-0.87,6.193-4.265,9.603c-3.396,3.407-7.385,4.85-9.561,4.284l0,0
					c-0.531-2.152,0.868-6.197,4.262-9.605C203.374,693.906,207.39,692.574,209.547,693.03z"/>
			</g>
			<g>
				<path class="st0" d="M194.426,693.03c0.471,2.203-0.871,6.193-4.266,9.603c-3.394,3.407-7.385,4.85-9.559,4.284H180.6
					c-0.531-2.152,0.87-6.197,4.263-9.605C188.253,693.906,192.27,692.574,194.426,693.03z"/>
				<path class="st2" d="M194.426,721.046c0.471-2.204-0.871-6.192-4.266-9.603c-3.394-3.408-7.385-4.85-9.559-4.283H180.6
					c-0.531,2.151,0.87,6.197,4.263,9.604C188.253,720.17,192.27,721.503,194.426,721.046z"/>
			</g>
		</g>
		<g>
			<rect x="149.648" y="706.412" class="st1" width="30.847" height="1.238"/>
			<g>
				<path class="st0" d="M179.378,721.046c0.47-2.204-0.87-6.192-4.265-9.603c-3.396-3.408-7.385-4.85-9.562-4.283l0,0
					c-0.531,2.151,0.868,6.197,4.262,9.604C173.205,720.17,177.221,721.503,179.378,721.046z"/>
				<path class="st2" d="M179.378,693.03c0.47,2.203-0.87,6.193-4.265,9.603c-3.396,3.407-7.385,4.85-9.562,4.284l0,0
					c-0.531-2.152,0.868-6.197,4.262-9.605C173.205,693.906,177.221,692.574,179.378,693.03z"/>
			</g>
			<g>
				<path class="st0" d="M164.257,693.03c0.471,2.203-0.87,6.193-4.265,9.603c-3.394,3.407-7.385,4.85-9.559,4.284h-0.002
					c-0.531-2.152,0.87-6.197,4.263-9.605C158.084,693.906,162.1,692.574,164.257,693.03z"/>
				<path class="st2" d="M164.257,721.046c0.471-2.204-0.87-6.192-4.265-9.603c-3.394-3.408-7.385-4.85-9.559-4.283h-0.002
					c-0.531,2.151,0.87,6.197,4.263,9.604C158.084,720.17,162.1,721.503,164.257,721.046z"/>
			</g>
		</g>
		<g>
			<rect x="119.479" y="706.412" class="st1" width="30.848" height="1.238"/>
			<g>
				<path class="st0" d="M149.208,721.046c0.47-2.204-0.87-6.192-4.265-9.603c-3.396-3.408-7.385-4.85-9.561-4.283l0,0
					c-0.531,2.151,0.867,6.197,4.262,9.604C143.036,720.17,147.052,721.503,149.208,721.046z"/>
				<path class="st2" d="M149.208,693.03c0.47,2.203-0.87,6.193-4.265,9.603c-3.396,3.407-7.385,4.85-9.561,4.284l0,0
					c-0.531-2.152,0.867-6.197,4.262-9.605C143.036,693.906,147.052,692.574,149.208,693.03z"/>
			</g>
			<g>
				<path class="st0" d="M134.088,693.03c0.471,2.203-0.871,6.193-4.266,9.603c-3.394,3.407-7.385,4.85-9.559,4.284h-0.002
					c-0.531-2.152,0.87-6.197,4.263-9.605C127.915,693.906,131.931,692.574,134.088,693.03z"/>
				<path class="st2" d="M134.088,721.046c0.471-2.204-0.871-6.192-4.266-9.603c-3.394-3.408-7.385-4.85-9.559-4.283h-0.002
					c-0.531,2.151,0.87,6.197,4.263,9.604C127.915,720.17,131.931,721.503,134.088,721.046z"/>
			</g>
		</g>
		<g>
			<rect x="89.31" y="706.412" class="st1" width="30.847" height="1.238"/>
			<g>
				<path class="st0" d="M119.04,721.046c0.47-2.204-0.87-6.192-4.265-9.603c-3.396-3.408-7.385-4.85-9.562-4.283l0,0
					c-0.531,2.151,0.868,6.197,4.262,9.604C112.866,720.17,116.883,721.503,119.04,721.046z"/>
				<path class="st2" d="M119.04,693.03c0.47,2.203-0.87,6.193-4.265,9.603c-3.396,3.407-7.385,4.85-9.562,4.284l0,0
					c-0.531-2.152,0.868-6.197,4.262-9.605C112.866,693.906,116.883,692.574,119.04,693.03z"/>
			</g>
			<g>
				<path class="st0" d="M103.918,693.03c0.471,2.203-0.87,6.193-4.265,9.603c-3.394,3.407-7.385,4.85-9.559,4.284h-0.002
					c-0.531-2.152,0.87-6.197,4.263-9.605C97.746,693.906,101.762,692.574,103.918,693.03z"/>
				<path class="st2" d="M103.918,721.046c0.471-2.204-0.87-6.192-4.265-9.603c-3.394-3.408-7.385-4.85-9.559-4.283h-0.002
					c-0.531,2.151,0.87,6.197,4.263,9.604C97.746,720.17,101.762,721.503,103.918,721.046z"/>
			</g>
		</g>
		<g>
			<rect x="59.14" y="706.412" class="st1" width="30.848" height="1.238"/>
			<g>
				<path class="st0" d="M88.87,721.046c0.47-2.204-0.87-6.192-4.265-9.603c-3.396-3.408-7.385-4.85-9.561-4.283l0,0
					c-0.531,2.151,0.868,6.197,4.262,9.604C82.697,720.17,86.713,721.503,88.87,721.046z"/>
				<path class="st2" d="M88.87,693.03c0.47,2.203-0.87,6.193-4.265,9.603c-3.396,3.407-7.385,4.85-9.561,4.284l0,0
					c-0.531-2.152,0.868-6.197,4.262-9.605C82.697,693.906,86.713,692.574,88.87,693.03z"/>
			</g>
			<g>
				<path class="st0" d="M73.75,693.03c0.471,2.203-0.871,6.193-4.266,9.603c-3.394,3.407-7.385,4.85-9.559,4.284h-0.002
					c-0.531-2.152,0.87-6.197,4.263-9.605C67.577,693.906,71.593,692.574,73.75,693.03z"/>
				<path class="st2" d="M73.75,721.046c0.471-2.204-0.871-6.192-4.266-9.603c-3.394-3.408-7.385-4.85-9.559-4.283h-0.002
					c-0.531,2.151,0.87,6.197,4.263,9.604C67.577,720.17,71.593,721.503,73.75,721.046z"/>
			</g>
		</g>
		<g>
			<rect x="28.971" y="706.412" class="st1" width="30.847" height="1.238"/>
			<g>
				<path class="st0" d="M58.701,721.046c0.47-2.204-0.87-6.192-4.265-9.603c-3.396-3.408-7.385-4.85-9.562-4.283l0,0
					c-0.531,2.151,0.868,6.197,4.262,9.604C52.528,720.17,56.544,721.503,58.701,721.046z"/>
				<path class="st2" d="M58.701,693.03c0.47,2.203-0.87,6.193-4.265,9.603c-3.396,3.407-7.385,4.85-9.562,4.284l0,0
					c-0.531-2.152,0.868-6.197,4.262-9.605C52.528,693.906,56.544,692.574,58.701,693.03z"/>
			</g>
			<g>
				<path class="st0" d="M43.58,693.03c0.471,2.203-0.87,6.193-4.265,9.603c-3.394,3.407-7.385,4.85-9.559,4.284h-0.002
					c-0.531-2.152,0.87-6.197,4.263-9.605C37.407,693.906,41.423,692.574,43.58,693.03z"/>
				<path class="st2" d="M43.58,721.046c0.471-2.204-0.87-6.192-4.265-9.603c-3.394-3.408-7.385-4.85-9.559-4.283h-0.002
					c-0.531,2.151,0.87,6.197,4.263,9.604C37.407,720.17,41.423,721.503,43.58,721.046z"/>
			</g>
		</g>
		<g>
			<path class="st1" d="M13.486,19.025c0,3.551,0,7.029,0,10.64h1.237c0-3.611,0-7.089,0-10.64H13.486z"/>
			<path class="st0" d="M9.455,14.09c1.225-1.893,4.997-3.761,9.82-3.761c4.818,0,8.67,1.814,9.817,3.759l0,0
				c-1.146,1.899-4.999,3.765-9.817,3.765C14.458,17.854,10.665,15.945,9.455,14.09z"/>
		</g>
		<g>
			<path class="st1" d="M522.108,13.486c-3.551,0-7.027,0-10.641,0v1.237c3.613,0,7.09,0,10.641,0V13.486z"/>
			<path class="st0" d="M527.043,9.455c1.893,1.225,3.761,4.997,3.761,9.82c0,4.818-1.814,8.67-3.759,9.817l0,0
				c-1.899-1.146-3.766-4.999-3.766-9.817C523.28,14.458,525.189,10.665,527.043,9.455z"/>
		</g>
		<g>
			<path class="st1" d="M527.648,702.108c0-3.551,0-7.028,0-10.64h-1.237c0,3.611,0,7.089,0,10.64H527.648z"/>
			<path class="st0" d="M531.678,707.043c-1.225,1.893-4.996,3.761-9.819,3.761c-4.818,0-8.671-1.814-9.817-3.759l0,0
				c1.146-1.899,4.999-3.766,9.817-3.766C526.675,703.28,530.469,705.189,531.678,707.043z"/>
		</g>
		<g>
			<path class="st1" d="M19.025,707.648c3.552,0,7.028,0,10.641,0v-1.237c-3.613,0-7.089,0-10.641,0V707.648z"/>
			<path class="st0" d="M14.09,711.678c-1.893-1.225-3.761-4.996-3.761-9.819c0-4.818,1.814-8.671,3.759-9.817l0,0
				c1.899,1.146,3.765,4.999,3.765,9.817C17.854,706.675,15.945,710.469,14.09,711.678z"/>
		</g>
	</g>
</g>
</svg>
