<?xml version="1.0" encoding="utf-8"?>
<!-- Generator: Adobe Illustrator 14.0.0, SVG Export Plug-In . SVG Version: 6.00 Build 43363)  -->
<!DOCTYPE svg PUBLIC "-//W3C//DTD SVG 1.1//EN" "http://www.w3.org/Graphics/SVG/1.1/DTD/svg11.dtd">
<svg version="1.1" id="Layer_1" xmlns="http://www.w3.org/2000/svg" xmlns:xlink="http://www.w3.org/1999/xlink" x="0px" y="0px"
	 width="535.529px" height="716.529px" viewBox="0 0 535.529 716.529" style="enable-background:new 0 0 535.529 716.529;"
	 xml:space="preserve">
<style type="text/css">
<![CDATA[
	.st0{fill:#BC083E;}
]]>
</style>
<g>
	<g>
		<g>
			<rect y="676.196" class="st0" width="5.632" height="5.633"/>
			<rect y="659.299" class="st0" width="5.632" height="5.633"/>
			<rect x="16.898" y="676.196" class="st0" width="5.632" height="5.633"/>
			<rect x="16.898" y="659.299" class="st0" width="5.632" height="5.633"/>
		</g>
		<g>
			<rect y="641.497" class="st0" width="5.632" height="5.632"/>
			<rect y="624.599" class="st0" width="5.632" height="5.633"/>
			<rect x="16.898" y="641.497" class="st0" width="5.632" height="5.632"/>
			<rect x="16.898" y="624.599" class="st0" width="5.632" height="5.633"/>
		</g>
		<g>
			<rect y="606.797" class="st0" width="5.632" height="5.633"/>
			<rect y="589.898" class="st0" width="5.632" height="5.633"/>
			<rect x="16.898" y="606.797" class="st0" width="5.632" height="5.633"/>
			<rect x="16.898" y="589.898" class="st0" width="5.632" height="5.633"/>
		</g>
		<g>
			<rect y="572.097" class="st0" width="5.632" height="5.633"/>
			<rect y="555.199" class="st0" width="5.632" height="5.632"/>
			<rect x="16.898" y="572.097" class="st0" width="5.632" height="5.633"/>
			<rect x="16.898" y="555.199" class="st0" width="5.632" height="5.632"/>
		</g>
		<g>
			<rect y="537.396" class="st0" width="5.632" height="5.633"/>
			<rect y="520.499" class="st0" width="5.632" height="5.633"/>
			<rect x="16.898" y="537.396" class="st0" width="5.632" height="5.633"/>
			<rect x="16.898" y="520.499" class="st0" width="5.632" height="5.633"/>
		</g>
		<g>
			<rect y="502.696" class="st0" width="5.632" height="5.633"/>
			<rect y="485.799" class="st0" width="5.632" height="5.633"/>
			<rect x="16.898" y="502.696" class="st0" width="5.632" height="5.633"/>
			<rect x="16.898" y="485.799" class="st0" width="5.632" height="5.633"/>
		</g>
		<g>
			<rect y="467.997" class="st0" width="5.632" height="5.632"/>
			<rect y="451.099" class="st0" width="5.632" height="5.633"/>
			<rect x="16.898" y="467.997" class="st0" width="5.632" height="5.632"/>
			<rect x="16.898" y="451.099" class="st0" width="5.632" height="5.633"/>
		</g>
		<g>
			<rect y="433.297" class="st0" width="5.632" height="5.633"/>
			<rect y="416.398" class="st0" width="5.632" height="5.633"/>
			<rect x="16.898" y="433.297" class="st0" width="5.632" height="5.633"/>
			<rect x="16.898" y="416.398" class="st0" width="5.632" height="5.633"/>
		</g>
		<g>
			<rect y="398.597" class="st0" width="5.632" height="5.633"/>
			<rect y="381.699" class="st0" width="5.632" height="5.632"/>
			<rect x="16.898" y="398.597" class="st0" width="5.632" height="5.633"/>
			<rect x="16.898" y="381.699" class="st0" width="5.632" height="5.632"/>
		</g>
		<g>
			<rect y="363.896" class="st0" width="5.632" height="5.633"/>
			<rect y="346.999" class="st0" width="5.632" height="5.632"/>
			<rect x="16.898" y="363.896" class="st0" width="5.632" height="5.633"/>
			<rect x="16.898" y="346.999" class="st0" width="5.632" height="5.632"/>
		</g>
		<g>
			<rect y="329.197" class="st0" width="5.632" height="5.632"/>
			<rect y="312.299" class="st0" width="5.632" height="5.633"/>
			<rect x="16.898" y="329.197" class="st0" width="5.632" height="5.632"/>
			<rect x="16.898" y="312.299" class="st0" width="5.632" height="5.633"/>
		</g>
		<g>
			<rect y="294.497" class="st0" width="5.632" height="5.633"/>
			<rect y="277.599" class="st0" width="5.632" height="5.633"/>
			<rect x="16.898" y="294.497" class="st0" width="5.632" height="5.633"/>
			<rect x="16.898" y="277.599" class="st0" width="5.632" height="5.633"/>
		</g>
		<g>
			<rect y="259.797" class="st0" width="5.632" height="5.632"/>
			<rect y="242.899" class="st0" width="5.632" height="5.632"/>
			<rect x="16.898" y="259.797" class="st0" width="5.632" height="5.632"/>
			<rect x="16.898" y="242.899" class="st0" width="5.632" height="5.632"/>
		</g>
		<g>
			<rect y="225.097" class="st0" width="5.632" height="5.633"/>
			<rect y="208.199" class="st0" width="5.632" height="5.633"/>
			<rect x="16.898" y="225.097" class="st0" width="5.632" height="5.633"/>
			<rect x="16.898" y="208.199" class="st0" width="5.632" height="5.633"/>
		</g>
		<g>
			<rect y="190.396" class="st0" width="5.632" height="5.633"/>
			<rect y="173.499" class="st0" width="5.632" height="5.632"/>
			<rect x="16.898" y="190.396" class="st0" width="5.632" height="5.633"/>
			<rect x="16.898" y="173.499" class="st0" width="5.632" height="5.632"/>
		</g>
		<g>
			<rect y="155.697" class="st0" width="5.632" height="5.632"/>
			<rect y="138.799" class="st0" width="5.632" height="5.633"/>
			<rect x="16.898" y="155.697" class="st0" width="5.632" height="5.632"/>
			<rect x="16.898" y="138.799" class="st0" width="5.632" height="5.633"/>
		</g>
		<g>
			<rect y="120.997" class="st0" width="5.632" height="5.633"/>
			<rect y="104.099" class="st0" width="5.632" height="5.633"/>
			<rect x="16.898" y="120.997" class="st0" width="5.632" height="5.633"/>
			<rect x="16.898" y="104.099" class="st0" width="5.632" height="5.633"/>
		</g>
		<g>
			<rect y="86.297" class="st0" width="5.632" height="5.632"/>
			<rect y="69.399" class="st0" width="5.632" height="5.632"/>
			<rect x="16.898" y="86.297" class="st0" width="5.632" height="5.632"/>
			<rect x="16.898" y="69.399" class="st0" width="5.632" height="5.632"/>
		</g>
		<g>
			<rect y="51.597" class="st0" width="5.632" height="5.633"/>
			<rect y="34.699" class="st0" width="5.632" height="5.633"/>
			<rect x="16.898" y="51.597" class="st0" width="5.632" height="5.633"/>
			<rect x="16.898" y="34.699" class="st0" width="5.632" height="5.633"/>
		</g>
		<g>
			<rect x="34.2" class="st0" width="5.632" height="5.632"/>
			<rect x="51.098" class="st0" width="5.633" height="5.632"/>
			<rect x="34.2" y="16.898" class="st0" width="5.632" height="5.632"/>
			<rect x="51.098" y="16.898" class="st0" width="5.633" height="5.632"/>
		</g>
		<g>
			<rect x="68.4" class="st0" width="5.633" height="5.632"/>
			<rect x="85.298" class="st0" width="5.633" height="5.632"/>
			<rect x="68.4" y="16.898" class="st0" width="5.633" height="5.632"/>
			<rect x="85.298" y="16.898" class="st0" width="5.633" height="5.632"/>
		</g>
		<g>
			<rect x="102.6" class="st0" width="5.632" height="5.632"/>
			<rect x="119.498" class="st0" width="5.632" height="5.632"/>
			<rect x="102.6" y="16.898" class="st0" width="5.632" height="5.632"/>
			<rect x="119.498" y="16.898" class="st0" width="5.632" height="5.632"/>
		</g>
		<g>
			<rect x="136.8" class="st0" width="5.633" height="5.632"/>
			<rect x="153.698" class="st0" width="5.633" height="5.632"/>
			<rect x="136.8" y="16.898" class="st0" width="5.633" height="5.632"/>
			<rect x="153.698" y="16.898" class="st0" width="5.633" height="5.632"/>
		</g>
		<g>
			<rect x="171" class="st0" width="5.633" height="5.632"/>
			<rect x="187.898" class="st0" width="5.632" height="5.632"/>
			<rect x="171" y="16.898" class="st0" width="5.633" height="5.632"/>
			<rect x="187.898" y="16.898" class="st0" width="5.632" height="5.632"/>
		</g>
		<g>
			<rect x="205.2" class="st0" width="5.632" height="5.632"/>
			<rect x="222.098" class="st0" width="5.633" height="5.632"/>
			<rect x="205.2" y="16.898" class="st0" width="5.632" height="5.632"/>
			<rect x="222.098" y="16.898" class="st0" width="5.633" height="5.632"/>
		</g>
		<g>
			<rect x="239.4" class="st0" width="5.633" height="5.632"/>
			<rect x="256.298" class="st0" width="5.633" height="5.632"/>
			<rect x="239.4" y="16.898" class="st0" width="5.633" height="5.632"/>
			<rect x="256.298" y="16.898" class="st0" width="5.633" height="5.632"/>
		</g>
		<g>
			<rect x="273.6" class="st0" width="5.633" height="5.632"/>
			<rect x="290.498" class="st0" width="5.633" height="5.632"/>
			<rect x="273.6" y="16.898" class="st0" width="5.633" height="5.632"/>
			<rect x="290.498" y="16.898" class="st0" width="5.633" height="5.632"/>
		</g>
		<g>
			<rect x="307.8" class="st0" width="5.633" height="5.632"/>
			<rect x="324.698" class="st0" width="5.632" height="5.632"/>
			<rect x="307.8" y="16.898" class="st0" width="5.633" height="5.632"/>
			<rect x="324.698" y="16.898" class="st0" width="5.632" height="5.632"/>
		</g>
		<g>
			<rect x="342" class="st0" width="5.633" height="5.632"/>
			<rect x="358.897" class="st0" width="5.633" height="5.632"/>
			<rect x="342" y="16.898" class="st0" width="5.633" height="5.632"/>
			<rect x="358.897" y="16.898" class="st0" width="5.633" height="5.632"/>
		</g>
		<g>
			<rect x="376.2" class="st0" width="5.633" height="5.632"/>
			<rect x="393.098" class="st0" width="5.633" height="5.632"/>
			<rect x="376.2" y="16.898" class="st0" width="5.633" height="5.632"/>
			<rect x="393.098" y="16.898" class="st0" width="5.633" height="5.632"/>
		</g>
		<g>
			<rect x="410.4" class="st0" width="5.632" height="5.632"/>
			<rect x="427.298" class="st0" width="5.633" height="5.632"/>
			<rect x="410.4" y="16.898" class="st0" width="5.632" height="5.632"/>
			<rect x="427.298" y="16.898" class="st0" width="5.633" height="5.632"/>
		</g>
		<g>
			<rect x="444.6" class="st0" width="5.633" height="5.632"/>
			<rect x="461.498" class="st0" width="5.633" height="5.632"/>
			<rect x="444.6" y="16.898" class="st0" width="5.633" height="5.632"/>
			<rect x="461.498" y="16.898" class="st0" width="5.633" height="5.632"/>
		</g>
		<g>
			<rect x="478.8" class="st0" width="5.633" height="5.632"/>
			<rect x="495.698" class="st0" width="5.632" height="5.632"/>
			<rect x="478.8" y="16.898" class="st0" width="5.633" height="5.632"/>
			<rect x="495.698" y="16.898" class="st0" width="5.632" height="5.632"/>
		</g>
		<g>
			<rect x="529.897" y="34.7" class="st0" width="5.632" height="5.632"/>
			<rect x="529.897" y="51.598" class="st0" width="5.632" height="5.633"/>
			<rect x="512.999" y="34.7" class="st0" width="5.632" height="5.632"/>
			<rect x="512.999" y="51.598" class="st0" width="5.632" height="5.633"/>
		</g>
		<g>
			<rect x="529.897" y="69.4" class="st0" width="5.632" height="5.633"/>
			<rect x="529.897" y="86.298" class="st0" width="5.632" height="5.633"/>
			<rect x="512.999" y="69.4" class="st0" width="5.632" height="5.633"/>
			<rect x="512.999" y="86.298" class="st0" width="5.632" height="5.633"/>
		</g>
		<g>
			<rect x="529.897" y="104.1" class="st0" width="5.632" height="5.632"/>
			<rect x="529.897" y="120.998" class="st0" width="5.632" height="5.632"/>
			<rect x="512.999" y="104.1" class="st0" width="5.632" height="5.632"/>
			<rect x="512.999" y="120.998" class="st0" width="5.632" height="5.632"/>
		</g>
		<g>
			<rect x="529.897" y="138.8" class="st0" width="5.632" height="5.633"/>
			<rect x="529.897" y="155.698" class="st0" width="5.632" height="5.633"/>
			<rect x="512.999" y="138.8" class="st0" width="5.632" height="5.633"/>
			<rect x="512.999" y="155.698" class="st0" width="5.632" height="5.633"/>
		</g>
		<g>
			<rect x="529.897" y="173.5" class="st0" width="5.632" height="5.633"/>
			<rect x="529.897" y="190.398" class="st0" width="5.632" height="5.632"/>
			<rect x="512.999" y="173.5" class="st0" width="5.632" height="5.633"/>
			<rect x="512.999" y="190.398" class="st0" width="5.632" height="5.632"/>
		</g>
		<g>
			<rect x="529.897" y="208.2" class="st0" width="5.632" height="5.632"/>
			<rect x="529.897" y="225.098" class="st0" width="5.632" height="5.633"/>
			<rect x="512.999" y="208.2" class="st0" width="5.632" height="5.632"/>
			<rect x="512.999" y="225.098" class="st0" width="5.632" height="5.633"/>
		</g>
		<g>
			<rect x="529.897" y="242.9" class="st0" width="5.632" height="5.633"/>
			<rect x="529.897" y="259.798" class="st0" width="5.632" height="5.633"/>
			<rect x="512.999" y="242.9" class="st0" width="5.632" height="5.633"/>
			<rect x="512.999" y="259.798" class="st0" width="5.632" height="5.633"/>
		</g>
		<g>
			<rect x="529.897" y="277.6" class="st0" width="5.632" height="5.632"/>
			<rect x="529.897" y="294.498" class="st0" width="5.632" height="5.632"/>
			<rect x="512.999" y="277.6" class="st0" width="5.632" height="5.632"/>
			<rect x="512.999" y="294.498" class="st0" width="5.632" height="5.632"/>
		</g>
		<g>
			<rect x="529.897" y="312.3" class="st0" width="5.632" height="5.633"/>
			<rect x="529.897" y="329.198" class="st0" width="5.632" height="5.633"/>
			<rect x="512.999" y="312.3" class="st0" width="5.632" height="5.633"/>
			<rect x="512.999" y="329.198" class="st0" width="5.632" height="5.633"/>
		</g>
		<g>
			<rect x="529.897" y="347" class="st0" width="5.632" height="5.633"/>
			<rect x="529.897" y="363.897" class="st0" width="5.632" height="5.633"/>
			<rect x="512.999" y="347" class="st0" width="5.632" height="5.633"/>
			<rect x="512.999" y="363.897" class="st0" width="5.632" height="5.633"/>
		</g>
		<g>
			<rect x="529.897" y="381.7" class="st0" width="5.632" height="5.633"/>
			<rect x="529.897" y="398.598" class="st0" width="5.632" height="5.633"/>
			<rect x="512.999" y="381.7" class="st0" width="5.632" height="5.633"/>
			<rect x="512.999" y="398.598" class="st0" width="5.632" height="5.633"/>
		</g>
		<g>
			<rect x="529.897" y="416.4" class="st0" width="5.632" height="5.632"/>
			<rect x="529.897" y="433.298" class="st0" width="5.632" height="5.633"/>
			<rect x="512.999" y="416.4" class="st0" width="5.632" height="5.632"/>
			<rect x="512.999" y="433.298" class="st0" width="5.632" height="5.633"/>
		</g>
		<g>
			<rect x="529.897" y="451.1" class="st0" width="5.632" height="5.633"/>
			<rect x="529.897" y="467.998" class="st0" width="5.632" height="5.633"/>
			<rect x="512.999" y="451.1" class="st0" width="5.632" height="5.633"/>
			<rect x="512.999" y="467.998" class="st0" width="5.632" height="5.633"/>
		</g>
		<g>
			<rect x="529.897" y="485.8" class="st0" width="5.632" height="5.633"/>
			<rect x="529.897" y="502.698" class="st0" width="5.632" height="5.632"/>
			<rect x="512.999" y="485.8" class="st0" width="5.632" height="5.633"/>
			<rect x="512.999" y="502.698" class="st0" width="5.632" height="5.632"/>
		</g>
		<g>
			<rect x="529.897" y="520.5" class="st0" width="5.632" height="5.633"/>
			<rect x="529.897" y="537.397" class="st0" width="5.632" height="5.633"/>
			<rect x="512.999" y="520.5" class="st0" width="5.632" height="5.633"/>
			<rect x="512.999" y="537.397" class="st0" width="5.632" height="5.633"/>
		</g>
		<g>
			<rect x="529.897" y="555.2" class="st0" width="5.632" height="5.633"/>
			<rect x="529.897" y="572.098" class="st0" width="5.632" height="5.633"/>
			<rect x="512.999" y="555.2" class="st0" width="5.632" height="5.633"/>
			<rect x="512.999" y="572.098" class="st0" width="5.632" height="5.633"/>
		</g>
		<g>
			<rect x="529.897" y="589.9" class="st0" width="5.632" height="5.632"/>
			<rect x="529.897" y="606.798" class="st0" width="5.632" height="5.633"/>
			<rect x="512.999" y="589.9" class="st0" width="5.632" height="5.632"/>
			<rect x="512.999" y="606.798" class="st0" width="5.632" height="5.633"/>
		</g>
		<g>
			<rect x="529.897" y="624.6" class="st0" width="5.632" height="5.633"/>
			<rect x="529.897" y="641.498" class="st0" width="5.632" height="5.633"/>
			<rect x="512.999" y="624.6" class="st0" width="5.632" height="5.633"/>
			<rect x="512.999" y="641.498" class="st0" width="5.632" height="5.633"/>
		</g>
		<g>
			<rect x="529.897" y="659.3" class="st0" width="5.632" height="5.633"/>
			<rect x="529.897" y="676.198" class="st0" width="5.632" height="5.632"/>
			<rect x="512.999" y="659.3" class="st0" width="5.632" height="5.633"/>
			<rect x="512.999" y="676.198" class="st0" width="5.632" height="5.632"/>
		</g>
		<g>
			<rect x="495.696" y="710.897" class="st0" width="5.633" height="5.632"/>
			<rect x="478.799" y="710.897" class="st0" width="5.633" height="5.632"/>
			<rect x="495.696" y="693.999" class="st0" width="5.633" height="5.632"/>
			<rect x="478.799" y="693.999" class="st0" width="5.633" height="5.632"/>
		</g>
		<g>
			<rect x="461.497" y="710.897" class="st0" width="5.632" height="5.632"/>
			<rect x="444.599" y="710.897" class="st0" width="5.633" height="5.632"/>
			<rect x="461.497" y="693.999" class="st0" width="5.632" height="5.632"/>
			<rect x="444.599" y="693.999" class="st0" width="5.633" height="5.632"/>
		</g>
		<g>
			<rect x="427.297" y="710.897" class="st0" width="5.633" height="5.632"/>
			<rect x="410.398" y="710.897" class="st0" width="5.633" height="5.632"/>
			<rect x="427.297" y="693.999" class="st0" width="5.633" height="5.632"/>
			<rect x="410.398" y="693.999" class="st0" width="5.633" height="5.632"/>
		</g>
		<g>
			<rect x="393.097" y="710.897" class="st0" width="5.633" height="5.632"/>
			<rect x="376.199" y="710.897" class="st0" width="5.632" height="5.632"/>
			<rect x="393.097" y="693.999" class="st0" width="5.633" height="5.632"/>
			<rect x="376.199" y="693.999" class="st0" width="5.632" height="5.632"/>
		</g>
		<g>
			<rect x="358.896" y="710.897" class="st0" width="5.633" height="5.632"/>
			<rect x="341.999" y="710.897" class="st0" width="5.633" height="5.632"/>
			<rect x="358.896" y="693.999" class="st0" width="5.633" height="5.632"/>
			<rect x="341.999" y="693.999" class="st0" width="5.633" height="5.632"/>
		</g>
		<g>
			<rect x="324.696" y="710.897" class="st0" width="5.633" height="5.632"/>
			<rect x="307.799" y="710.897" class="st0" width="5.633" height="5.632"/>
			<rect x="324.696" y="693.999" class="st0" width="5.633" height="5.632"/>
			<rect x="307.799" y="693.999" class="st0" width="5.633" height="5.632"/>
		</g>
		<g>
			<rect x="290.497" y="710.897" class="st0" width="5.632" height="5.632"/>
			<rect x="273.599" y="710.897" class="st0" width="5.633" height="5.632"/>
			<rect x="290.497" y="693.999" class="st0" width="5.632" height="5.632"/>
			<rect x="273.599" y="693.999" class="st0" width="5.633" height="5.632"/>
		</g>
		<g>
			<rect x="256.297" y="710.897" class="st0" width="5.632" height="5.632"/>
			<rect x="239.399" y="710.897" class="st0" width="5.632" height="5.632"/>
			<rect x="256.297" y="693.999" class="st0" width="5.632" height="5.632"/>
			<rect x="239.399" y="693.999" class="st0" width="5.632" height="5.632"/>
		</g>
		<g>
			<rect x="222.097" y="710.897" class="st0" width="5.633" height="5.632"/>
			<rect x="205.199" y="710.897" class="st0" width="5.633" height="5.632"/>
			<rect x="222.097" y="693.999" class="st0" width="5.633" height="5.632"/>
			<rect x="205.199" y="693.999" class="st0" width="5.633" height="5.632"/>
		</g>
		<g>
			<rect x="187.896" y="710.897" class="st0" width="5.633" height="5.632"/>
			<rect x="170.999" y="710.897" class="st0" width="5.632" height="5.632"/>
			<rect x="187.896" y="693.999" class="st0" width="5.633" height="5.632"/>
			<rect x="170.999" y="693.999" class="st0" width="5.632" height="5.632"/>
		</g>
		<g>
			<rect x="153.697" y="710.897" class="st0" width="5.632" height="5.632"/>
			<rect x="136.799" y="710.897" class="st0" width="5.633" height="5.632"/>
			<rect x="153.697" y="693.999" class="st0" width="5.632" height="5.632"/>
			<rect x="136.799" y="693.999" class="st0" width="5.633" height="5.632"/>
		</g>
		<g>
			<rect x="119.497" y="710.897" class="st0" width="5.633" height="5.632"/>
			<rect x="102.599" y="710.897" class="st0" width="5.633" height="5.632"/>
			<rect x="119.497" y="693.999" class="st0" width="5.633" height="5.632"/>
			<rect x="102.599" y="693.999" class="st0" width="5.633" height="5.632"/>
		</g>
		<g>
			<rect x="85.297" y="710.897" class="st0" width="5.632" height="5.632"/>
			<rect x="68.399" y="710.897" class="st0" width="5.632" height="5.632"/>
			<rect x="85.297" y="693.999" class="st0" width="5.632" height="5.632"/>
			<rect x="68.399" y="693.999" class="st0" width="5.632" height="5.632"/>
		</g>
		<g>
			<rect x="51.097" y="710.897" class="st0" width="5.633" height="5.632"/>
			<rect x="34.199" y="710.897" class="st0" width="5.633" height="5.632"/>
			<rect x="51.097" y="693.999" class="st0" width="5.633" height="5.632"/>
			<rect x="34.199" y="693.999" class="st0" width="5.633" height="5.632"/>
		</g>
		<g>
			<rect class="st0" width="5.633" height="5.632"/>
			<rect x="16.898" class="st0" width="5.632" height="5.632"/>
			<rect y="16.898" class="st0" width="5.633" height="5.632"/>
			<rect x="16.898" y="16.898" class="st0" width="5.632" height="5.632"/>
		</g>
		<g>
			<rect x="529.897" class="st0" width="5.632" height="5.633"/>
			<rect x="529.897" y="16.898" class="st0" width="5.632" height="5.632"/>
			<rect x="512.999" class="st0" width="5.632" height="5.633"/>
			<rect x="512.999" y="16.898" class="st0" width="5.632" height="5.632"/>
		</g>
		<g>
			<rect x="529.896" y="710.897" class="st0" width="5.633" height="5.632"/>
			<rect x="512.999" y="710.897" class="st0" width="5.633" height="5.632"/>
			<rect x="529.896" y="693.999" class="st0" width="5.633" height="5.632"/>
			<rect x="512.999" y="693.999" class="st0" width="5.633" height="5.632"/>
		</g>
		<g>
			<rect y="710.896" class="st0" width="5.632" height="5.633"/>
			<rect y="693.999" class="st0" width="5.632" height="5.633"/>
			<rect x="16.898" y="710.896" class="st0" width="5.632" height="5.633"/>
			<rect x="16.898" y="693.999" class="st0" width="5.632" height="5.633"/>
		</g>
	</g>
</g>
</svg>
