<?xml version="1.0" encoding="utf-8"?>
<!-- Generator: Adobe Illustrator 14.0.0, SVG Export Plug-In . SVG Version: 6.00 Build 43363)  -->
<!DOCTYPE svg PUBLIC "-//W3C//DTD SVG 1.1//EN" "http://www.w3.org/Graphics/SVG/1.1/DTD/svg11.dtd">
<svg version="1.1" id="Nouveau_x5F_28_xA0_Image_1_"
	 xmlns="http://www.w3.org/2000/svg" xmlns:xlink="http://www.w3.org/1999/xlink" x="0px" y="0px" width="729px" height="969px"
	 viewBox="0 0 729 969" style="enable-background:new 0 0 729 969;" xml:space="preserve">
<style type="text/css">
<![CDATA[
	.st0{fill-rule:evenodd;clip-rule:evenodd;fill:none;stroke:#000000;stroke-width:2.8284;stroke-linecap:round;}
	.st1{fill-rule:evenodd;clip-rule:evenodd;fill:none;stroke:#000000;stroke-width:1.8371;stroke-linecap:round;}
	.st2{fill-rule:evenodd;clip-rule:evenodd;fill:none;stroke:#000000;stroke-width:2.4853;stroke-linecap:round;}
	.st3{fill-rule:evenodd;clip-rule:evenodd;fill:none;stroke:#000000;stroke-width:2.3905;stroke-linecap:round;}
	.st4{fill-rule:evenodd;clip-rule:evenodd;fill:none;stroke:#000000;stroke-width:2.9848;stroke-linecap:round;}
	.st5{fill-rule:evenodd;clip-rule:evenodd;fill:none;stroke:#000000;stroke-width:2.7255;stroke-linecap:round;}
	.st6{fill-rule:evenodd;clip-rule:evenodd;fill:none;stroke:#000000;stroke-width:2.708;stroke-linecap:round;}
	.st7{fill-rule:evenodd;clip-rule:evenodd;fill:none;stroke:#000000;stroke-width:1.7795;stroke-linecap:round;}
	.st8{fill-rule:evenodd;clip-rule:evenodd;fill:none;stroke:#000000;stroke-width:2.4605;stroke-linecap:round;}
	.st9{fill-rule:evenodd;clip-rule:evenodd;fill:none;stroke:#000000;stroke-width:3.1623;stroke-linecap:round;}
	.st10{fill:#000000;fill-rule:evenodd;clip-rule:evenodd;}
	.st11{fill-rule:evenodd;clip-rule:evenodd;fill:none;stroke:#000000;stroke-width:1.8127;stroke-linecap:round;}
	.st12{fill-rule:evenodd;clip-rule:evenodd;fill:none;stroke:#000000;stroke-width:2.9059;stroke-linecap:round;}
	.st13{fill-rule:evenodd;clip-rule:evenodd;fill:none;stroke:#000000;stroke-width:2.9297;stroke-linecap:round;}
	.st14{fill-rule:evenodd;clip-rule:evenodd;fill:none;stroke:#000000;stroke-width:3.7417;stroke-linecap:round;}
	.st15{fill-rule:evenodd;clip-rule:evenodd;fill:none;stroke:#000000;stroke-width:2.4309;stroke-linecap:round;}
	.st16{fill-rule:evenodd;clip-rule:evenodd;fill:none;stroke:#000000;stroke-width:2.5495;stroke-linecap:round;}
	.st17{fill-rule:evenodd;clip-rule:evenodd;fill:none;stroke:#000000;stroke-width:1.8974;stroke-linecap:round;}
	.st18{fill-rule:evenodd;clip-rule:evenodd;fill:none;stroke:#000000;stroke-width:2.7689;stroke-linecap:round;}
	.st19{fill-rule:evenodd;clip-rule:evenodd;fill:none;stroke:#000000;stroke-width:2.5584;stroke-linecap:round;}
	.st20{fill-rule:evenodd;clip-rule:evenodd;fill:none;stroke:#000000;stroke-width:3.9821;stroke-linecap:round;}
	.st21{fill-rule:evenodd;clip-rule:evenodd;fill:none;stroke:#000000;stroke-width:1.291;stroke-linecap:round;}
	.st22{fill-rule:evenodd;clip-rule:evenodd;fill:none;stroke:#000000;stroke-width:4.0708;stroke-linecap:round;}
	.st23{fill-rule:evenodd;clip-rule:evenodd;fill:none;stroke:#000000;stroke-width:2.9761;stroke-linecap:round;}
	.st24{fill-rule:evenodd;clip-rule:evenodd;fill:none;stroke:#000000;stroke-width:3.1358;stroke-linecap:round;}
	.st25{fill-rule:evenodd;clip-rule:evenodd;fill:none;stroke:#000000;stroke-width:1.6394;stroke-linecap:round;}
	.st26{fill-rule:evenodd;clip-rule:evenodd;fill:none;stroke:#000000;stroke-width:2.8595;stroke-linecap:round;}
	.st27{fill-rule:evenodd;clip-rule:evenodd;fill:none;stroke:#000000;stroke-width:1.6733;stroke-linecap:round;}
	.st28{fill-rule:evenodd;clip-rule:evenodd;fill:none;stroke:#000000;stroke-width:2.5604;stroke-linecap:round;}
	.st29{fill-rule:evenodd;clip-rule:evenodd;fill:none;stroke:#000000;stroke-width:2.7839;stroke-linecap:round;}
	.st30{fill-rule:evenodd;clip-rule:evenodd;fill:none;stroke:#000000;stroke-width:2.7951;stroke-linecap:round;}
]]>
</style>
<g>
	<g>
		<path class="st10" d="M5,25C11.325,2.965,47.849,8.279,76,7c48.754-2.214,101.214,0,155,0c126.479,0,257.127,0,385,0
			c26.351,0,53.518,2.607,77,0c8.021-0.891,17.567-5.331,24,1c2.342,2.304,3.793,7.072,4,9c2.064,19.214-28.631,21.424-27,40
			c0,0.333,0,0.667,0,1l0.5,0.5L695,59c-2.275,0.725-0.298,5.702-4,5c-5.896-10.424,0.438-21.712,5-30l1.5,0.5L699,35
			c2.055-0.279,1.996-2.671,3-4l1.5,0.5L705,32c3.629-1.038,6.208-3.125,8-6l1.5,0.5L714,25c3.915-7.462-2.562-17.94-10-14
			c5.439,1.743,11.617,7.467,9,14l-1.5-0.5L712,26c-0.869,1.464-1.497,3.169-4,3c0.287-5.954,0.231-11.565-4-13l-1.5,0.5L702,18
			c-1.927-0.407-0.79-3.877-4-3l-1.5,0.5L696,17c-10.423-6.895-24.293-4-36-4c-193.176,0-394.011,0-588,0
			c-1.948,2.052-4.716,3.284-7,5l-1.167-1.5L62,17c0.429-2.3-6.008,1.721-3,2l1.3,1.3L62,21c-3.286,4.505-9.27,14.289-16,9l0.5-1.5
			L46,27c0.851,0.184,0.943-0.39,1-1l1.5,0.5L49,25c1.833-1.167,3.386-2.614,5-4c-1.567-0.354,0.875-1.761-1-2
			c-1.498,1.502-1.789,4.211-4,5h-2v2c-2.217,0.55-1.424-1.91-3-2c-0.897,2.103-1.554,4.446-3,6h-2v2c-3.15,3.239-0.749-2.605-3-3
			c1.612,5.54-5.384,8.269-6,3l0.5-1.5L30,29c1.927-0.102-1.553-3.727,1-5l1.5-1.167L32,21c3.299-1.494-3.345-1.178-2-4
			c4.26-3.321,14.703,4.438,10-2c4.071-1.057,4.737,0.281,10,0c-1.124-3.58-6.321-2.157-9-2c-9.154,0.536-21.78,3.973-21,13
			c1.883,1.45,5.197,1.47,6,4l-0.5,1.5L27,31c1.149,12.482-10.618,12.048-15,19c-0.016,6.683-0.169,13.502,3,17l-0.5,1l0.5,1
			c-2.961,68.861-1.255,147.815-2,219c-1.127,107.706,0,214.557,0,322c0,17.76,1.493,36.285,1,54c-2.453,88.167-0.755,178.496,1,267
			c0.89,0.443,1.789,0.878,2,2l-1.5,0.5L16,935c-1.484,0.437,0.395,1.279,0,3l0.5,1.5L17,941c-1.818,3.521,7.26,4.713,13,4
			c-4.667,10.665-17.258,3.764-20-4c-1.045,16.531,21.381,11.542,23,1l-0.5-1.5L32,939c1.44-0.56,2.44-1.56,3-3l0.5-1.5L34,934
			c6.922-5.007,18.932-11.262,30-6c0.072,3.405-2.941,3.725-5,5l-0.5-1.5L57,931c-19.424-0.217-18.2,24.598-34,27
			c-6.073,0.924-14.187-0.888-17-7c-3.113-6.765,1.224-17.519,2-24c2.003-16.725,0-35.735,0-54c0-230.058,0-468.638,0-699
			c0-36.229,2.721-72.878,0-107c-0.924-11.591-4.543-23.871,6-29l1.833,0.5L17,37c4.207-6.901-5.851-8.129-9-11l-1.167-1.5L5,25z"/>
		<path class="st10" d="M697.5,56.5L696,56c2.219-4.115,8.129-4.538,11-8c-1.617-1.872-7.405,5.849-10,3
			c3.364-8.303,11.273-12.06,18-17l0.5,1.5L716,37c0.633,4.034,4.285,5.048,4,10l-1.833-0.5L717,48c-0.851,0.184-0.943-0.39-1-1
			c-1.465,4.159,6.065,7.914,4,16c-3.321,2.344-3.382-5.487-7-6c1.167,3.86,6.361,8.936,4,13l-1.5-0.5L715,71
			c-0.973-0.027-0.775-1.224-1-2c-4.492-3.406,4.103,10.566-2,12c-2.436-4.146-10.964,3.224-14-3l1.7-0.7L701,76
			c6.075,2.652,10.203-5.387,6-4c2.137,0.931-1.887,4.019-5,3c-2.593-1.283,0.77-5.979-1-6l0.5-1.833L700,66
			c3.159-5.588-7.855,4.945-7,0c-1.036-7.056,10.947-6.358,10-10c-1.232,1.434-3.438,1.895-6,2L697.5,56.5z M708,61
			C706.264,67.611,710.553,52.909,708,61L708,61z"/>
		<path class="st10" d="M718.5,73.5L718,72c1.859-4.556,3.87,0.762,4,1c3.359,6.146,1,34.69,1,53c0,230.008,0,463.164,0,696
			c0,36.913,1.885,72.975,0,107c-0.916,16.539-5.958,36.371-20,34l0.5-1.5L703,960c2.195-3.407-5.505-14.417-10-8l-0.5,1l0.5,1
			c-5.062,3.72-7.732,8.282-14,9c-4.476,0.513-11.516-2.6-16-3c-23.478-2.094-48.942,0-74,0c-155.931,0-317.214,0-476,0
			c-15.694,0-32.699,2.141-42-3l1.5-0.5L72,955c4.021-3.046,6.097-0.188,10,0c46.58,2.233,95.053,0,144,0c117.907,0,240.235,0,360,0
			c25.01,0,51.631,0.816,73-1l0.5,1.5l1.5-0.5c7.532-0.532,12.229,1.771,20,1c6.485-4.515,6.529-15.471,18-15
			c3.954,1.046,3.311,6.689,8,7c10.14-3.199,11.509-20.484,10-32c0.044,2.558-0.743,1.22-2,1c1.729,2.625,1.555,14.851-2,9
			c-0.078,3.49,1.049,5.422,1,7c-0.096,3.1-1.319,2.806-2,5c0.302-0.973-2.812-4.45-2-1c0.129,0.549,2.104,6.297-2,7
			c-1.086-0.247-0.678-1.988-2-2l0.5-1.5L706,939c-0.31-1.357-2.504-0.829-4-1l-1.5,0.5L700,940c-1.773-1.227-2.897-3.103-5-4
			c2.132-1.535,2.891-4.443,4-7l1.5,0.5L700,928c0.851-1.723,8.845-5.025,6-4c-1.162,0.162-1.779-0.221-2-1
			c0.19-0.81,1.003-0.997,1-2h2v-2c0.097-2.57,3.903-1.43,4-4c-2.665-2.546-3.297,2.579-5,4l-1.5,0.5l0.5,1.5
			c-2.306-0.306-1.111,2.889-3,3l-0.5-1.5L700,922c-2.584-12.49,12.575-15.249,17-24c1.066-274.504,1.007-552.647,0-825L718.5,73.5z
			 M718,913c-0.01-1.467,0.378-8.184-1-5C717.01,909.467,716.622,916.184,718,913z"/>
		<path class="st10" d="M69.5,953.5L70,955c-4.797-0.203-7.519-2.481-11-4c-1.884,1.628,5.228,2.716,5,6
			c-8.445,1.111-11.809-2.857-17-5c0.536,3.06,7.559,2.94,5,6c-6.991,1.633-11.082-4.885-14-4l-1.357,1.214L37,957
			c-10.164-2.173,1.024-8.503,3-13c3.838-3.161,5.913-8.087,11-10c3.866,1.967-2.909,7.645-4,11c4.894-1.773,4.459-8.874,9-11
			l0.5,1.5L58,936c0.851,2.537-3.321,7.233-1,5c3.164-3.188,4.342-13.634,11-10c-0.426,1.907-2.857,1.81-2,5
			c0.149,2.402,2.576-9.123,9-7c-0.239,3.616,4.333,5.612,6,10c0.438,3.438-0.395,5.605-1,8c-3.219,1.393,4.844,0.435,1,3
			c-3.272,5.972-13.608-3.943-12,1c2.995,0.057,7.511,2.493,2,3L69.5,953.5z M75,946c1.818-3.123,2.406-6.241,0-9
			c-1.667,0-3.333,0-5,0c-0.301,4.085,1.385-0.169,4,1c1.466,1.585,2.063,7.939-2,7c0.003-0.556-0.81-1.135-1,0
			C72.352,945.314,72.91,946.423,75,946z M63,945c1.182-0.485,2.267-1.066,3-2C64.663,942.846,60.487,944.571,63,945z"/>
		<path class="st10" d="M27.5,24.5L26,25c-5.577-2.283,2.91-7.63,6-4l-1.5,1.167L31,24c-0.81,0.19-0.997,1.003-2,1L27.5,24.5z"/>
		<path class="st10" d="M24.5,49.5L26,50c-3.075,4.925-5.88,10.12-9,15l-0.5-1.5L15,64c-1.001-8.827,0.566-19.885,9-16L24.5,49.5z"
			/>
		<path class="st10" d="M667.5,951.5L666,951c4.776-3.224,9.971-6.029,15-9l0.5,1.5l1.5,0.5c3.572,8.121-6.988,10.187-16,9
			L667.5,951.5z"/>
		<g>
			<path class="st5" d="M715.5,35.5c0.334-0.042,0.668-0.083,1.002-0.125c1.643,1.081,2.294,1.867,2.498,2.625"/>
			<path class="st29" d="M719,50c-0.235-1.045-0.496-2.228-0.833-3.5"/>
			<path class="st27" d="M72.5,956.5c-1.453-0.295-1.734-1.43-3-3"/>
			<path class="st0" d="M36.643,955.214c0.628,0.236,1.406,0.592,2.19,0.953"/>
			<path class="st3" d="M56.5,935.5c1.211-1.43,1.338-2.334,2-4"/>
			<path class="st21" d="M711.5,24.5c1,0.643,2,1.22,3,2"/>
			<path class="st17" d="M25.5,31.5c1-0.643,2-1.22,3-2"/>
			<path class="st23" d="M28.5,29.5c-0.692-1.292-0.946-3.327-1-5"/>
			<path class="st9" d="M30.5,22.167c0.667,0.222,1.333,0.445,2,0.667"/>
			<path class="st7" d="M697.5,56.5c-1.374,0.93-1.533,1.721-3,2"/>
			<path class="st6" d="M697.5,34.5c2.559-6.035,3.328-13.719-1-19"/>
			<path class="st28" d="M697.5,927.5c1.17-1.785,2.697-3.311,4-5"/>
			<path class="st11" d="M718.5,73.5c-1.968-0.644-2.64-2.095-3-4"/>
			<path class="st14" d="M693.5,72.5c1.015-0.472,1.886-0.774,2.75-1"/>
			<path class="st22" d="M696.25,71.5c1.008-2.128,3.076-3.568,5.25-4.333"/>
			<path class="st12" d="M703.5,31.5c1.553-4.837,1.732-10.536-1-15"/>
			<path class="st24" d="M60.3,20.3c0.9-0.597,2.696-2.208,3.534-3.8"/>
			<path class="st18" d="M28.5,29.5c0.667,0.333,1.333,0.667,2,1"/>
			<path class="st19" d="M40.5,32.5c2.668-0.113,3.756-3.025,6-4"/>
			<path class="st16" d="M48.5,26.5c-0.391-0.754-0.902-1.595-1.5-2.5"/>
			<path class="st4" d="M6.833,24.5c-2.582,7.383,9.164,7.026,9,14"/>
			<path class="st1" d="M14.5,68c1.705-0.687,1.188-3.127,2-4.5"/>
			<path class="st15" d="M24.5,49.5c4.944-6.018,11.145-10.951,16-17"/>
			<path class="st16" d="M40.5,32.5c-0.391-0.754-0.902-1.595-1.5-2.5"/>
			<path class="st20" d="M696.25,71.5c0.675,2.192,1.893,4.137,3.45,5.8"/>
			<path class="st16" d="M704.5,919.5c0.754,0.391,1.595,0.902,2.5,1.5"/>
			<path class="st13" d="M706.5,940.5c-2.143,0.034-4.913,0.427-6-2"/>
			<path class="st2" d="M697.5,927.5c-4.902,5.733-10.427,11.049-16,16"/>
			<path class="st25" d="M667.5,951.5c-2.857,0.965-6.325,1.274-8,4"/>
			<path class="st21" d="M697.5,927.5c1,0.643,2,1.22,3,2"/>
			<path class="st30" d="M16.5,939.5c4.842,2.993,10.814,3.216,16,1"/>
			<path class="st8" d="M35.5,934.5c-6.124,3.201-14.358,3.803-20-1"/>
			<path class="st26" d="M692.5,953c5.794-0.789,5.908,7.582,11,8.5"/>
		</g>
	</g>
</g>
</svg>
