<?xml version="1.0" encoding="utf-8"?>
<!-- Generator: Adobe Illustrator 14.0.0, SVG Export Plug-In . SVG Version: 6.00 Build 43363)  -->
<!DOCTYPE svg PUBLIC "-//W3C//DTD SVG 1.1//EN" "http://www.w3.org/Graphics/SVG/1.1/DTD/svg11.dtd">
<svg version="1.1" id="hand_draw_border_5_at_96dpi_xA0_Image_1_"
	 xmlns="http://www.w3.org/2000/svg" xmlns:xlink="http://www.w3.org/1999/xlink" x="0px" y="0px" width="612px" height="792px"
	 viewBox="0 0 612 792" style="enable-background:new 0 0 612 792;" xml:space="preserve">
<style type="text/css">
<![CDATA[
	.st0{fill:none;stroke:#000000;stroke-width:2.0385;stroke-linecap:round;}
	.st1{fill:none;stroke:#000000;stroke-width:2.0218;stroke-linecap:round;}
	.st2{fill:none;stroke:#000000;stroke-width:1.829;stroke-linecap:round;}
	.st3{fill:none;stroke:#000000;stroke-width:1.8371;stroke-linecap:round;}
	.st4{fill:none;stroke:#000000;stroke-width:1.4031;stroke-linecap:round;}
	.st5{fill:none;stroke:#000000;stroke-width:1.7952;stroke-linecap:round;}
	.st6{fill:none;stroke:#000000;stroke-width:1.5144;stroke-linecap:round;}
	.st7{fill:none;stroke:#000000;stroke-width:2.3598;stroke-linecap:round;}
	.st8{fill:none;stroke:#000000;stroke-width:1.3062;stroke-linecap:round;}
	.st9{fill:none;stroke:#000000;stroke-width:1.6754;stroke-linecap:round;}
	.st10{fill:none;stroke:#000000;stroke-width:2.2721;stroke-linecap:round;}
	.st11{fill:none;stroke:#000000;stroke-width:1.9793;stroke-linecap:round;}
	.st12{fill:none;stroke:#000000;stroke-width:3.5838;stroke-linecap:round;}
	.st13{fill:none;stroke:#000000;stroke-width:1.5162;stroke-linecap:round;}
	.st14{fill:none;stroke:#000000;stroke-width:1.6202;stroke-linecap:round;}
	.st15{fill:none;stroke:#000000;stroke-width:2.3117;stroke-linecap:round;}
	.st16{fill:none;stroke:#000000;stroke-width:1.5462;stroke-linecap:round;}
	.st17{fill:none;stroke:#000000;stroke-width:1.3733;stroke-linecap:round;}
	.st18{fill:none;stroke:#000000;stroke-width:1.7906;stroke-linecap:round;}
	.st19{fill:none;stroke:#000000;stroke-width:3.0923;stroke-linecap:round;}
	.st20{fill:none;stroke:#000000;stroke-width:1.6108;stroke-linecap:round;}
	.st21{fill:none;stroke:#000000;stroke-width:2.0554;stroke-linecap:round;}
	.st22{fill:none;stroke:#000000;stroke-width:1.6875;stroke-linecap:round;}
	.st23{fill:none;stroke:#000000;stroke-width:2.3717;stroke-linecap:round;}
	.st24{fill:none;stroke:#000000;stroke-width:2.6071;stroke-linecap:round;}
	.st25{fill:none;stroke:#000000;stroke-width:2.1999;stroke-linecap:round;}
	.st26{fill:none;stroke:#000000;stroke-width:3.7947;stroke-linecap:round;}
	.st27{fill:none;stroke:#000000;stroke-width:2.3135;stroke-linecap:round;}
	.st28{fill:none;stroke:#000000;stroke-width:1.9591;stroke-linecap:round;}
	.st29{fill:none;stroke:#000000;stroke-width:1.8114;stroke-linecap:round;}
	.st30{fill:none;stroke:#000000;stroke-width:2.3238;stroke-linecap:round;}
	.st31{fill:none;stroke:#000000;stroke-width:2.6339;stroke-linecap:round;}
	.st32{fill:none;stroke:#000000;stroke-width:1.9268;stroke-linecap:round;}
	.st33{fill:none;stroke:#000000;stroke-width:3.7997;stroke-linecap:round;}
	.st34{fill:none;stroke:#000000;stroke-width:2.2434;stroke-linecap:round;}
	.st35{fill:none;stroke:#000000;stroke-width:1.9039;stroke-linecap:round;}
	.st36{fill:none;stroke:#000000;stroke-width:0.8874;stroke-linecap:round;}
	.st37{fill:none;stroke:#000000;stroke-width:1.175;stroke-linecap:round;}
	.st38{fill:none;stroke:#000000;stroke-width:2.054;stroke-linecap:round;}
	.st39{fill:none;stroke:#000000;stroke-width:3.7839;stroke-linecap:round;}
	.st40{fill:none;stroke:#000000;stroke-width:2.1433;stroke-linecap:round;}
	.st41{fill:none;stroke:#000000;stroke-width:1.7848;stroke-linecap:round;}
	.st42{fill:none;stroke:#000000;stroke-width:1.9742;stroke-linecap:round;}
	.st43{fill:none;stroke:#000000;stroke-width:1.9451;stroke-linecap:round;}
	.st44{fill:none;stroke:#000000;stroke-width:1.5931;stroke-linecap:round;}
	.st45{fill:none;stroke:#000000;stroke-width:2.2587;stroke-linecap:round;}
	.st46{fill:none;stroke:#000000;stroke-width:2.8395;stroke-linecap:round;}
	.st47{fill:none;stroke:#000000;stroke-width:2.4875;stroke-linecap:round;}
	.st48{fill:none;stroke:#000000;stroke-width:2.1213;stroke-linecap:round;}
	.st49{fill:none;stroke:#000000;stroke-width:2.6728;stroke-linecap:round;}
	.st50{fill:none;stroke:#000000;stroke-width:2.5656;stroke-linecap:round;}
	.st51{fill:none;stroke:#000000;stroke-width:2.0482;stroke-linecap:round;}
	.st52{fill:none;stroke:#000000;stroke-width:2.0253;stroke-linecap:round;}
	.st53{fill:none;stroke:#000000;stroke-width:1.729;stroke-linecap:round;}
	.st54{fill:none;stroke:#000000;stroke-width:1.8821;stroke-linecap:round;}
	.st55{fill:none;stroke:#000000;stroke-width:1.6771;stroke-linecap:round;}
	.st56{fill:none;stroke:#000000;stroke-width:1.7552;stroke-linecap:round;}
	.st57{fill:none;stroke:#000000;stroke-width:2.3592;stroke-linecap:round;}
	.st58{fill:none;stroke:#000000;stroke-width:2.4996;stroke-linecap:round;}
	.st59{fill:none;stroke:#000000;stroke-width:3.7749;stroke-linecap:round;}
	.st60{fill:none;stroke:#000000;stroke-width:1.6613;stroke-linecap:round;}
	.st61{fill:none;stroke:#000000;stroke-width:1.9984;stroke-linecap:round;}
	.st62{fill:none;stroke:#000000;stroke-width:1.3521;stroke-linecap:round;}
	.st63{fill:none;stroke:#000000;stroke-width:1.3791;stroke-linecap:round;}
	.st64{fill:none;stroke:#000000;stroke-width:1.7735;stroke-linecap:round;}
	.st65{fill:none;stroke:#000000;stroke-width:2.5763;stroke-linecap:round;}
	.st66{fill:none;stroke:#000000;stroke-width:1.9432;stroke-linecap:round;}
	.st67{fill:none;stroke:#000000;stroke-width:2.0642;stroke-linecap:round;}
	.st68{fill:none;stroke:#000000;stroke-width:2.1558;stroke-linecap:round;}
	.st69{fill:none;stroke:#000000;stroke-width:2.3452;stroke-linecap:round;}
	.st70{fill:none;stroke:#000000;stroke-width:2.447;stroke-linecap:round;}
	.st71{fill:none;stroke:#000000;stroke-width:1.8857;stroke-linecap:round;}
	.st72{fill:none;stroke:#000000;stroke-width:2.8062;stroke-linecap:round;}
	.st73{fill:none;stroke:#000000;stroke-width:1.9688;stroke-linecap:round;}
	.st74{fill:none;stroke:#000000;stroke-width:3.8243;stroke-linecap:round;}
	.st75{fill:none;stroke:#000000;stroke-width:1.9791;stroke-linecap:round;}
	.st76{fill:none;stroke:#000000;stroke-width:2.0078;stroke-linecap:round;}
	.st77{fill:none;stroke:#000000;stroke-width:1.4629;stroke-linecap:round;}
	.st78{fill:none;stroke:#000000;stroke-width:1.9624;stroke-linecap:round;}
	.st79{fill:none;stroke:#000000;stroke-width:1.989;stroke-linecap:round;}
	.st80{fill:none;stroke:#000000;stroke-width:2.0969;stroke-linecap:round;}
	.st81{fill:none;stroke:#000000;stroke-width:1.8593;stroke-linecap:round;}
	.st82{fill:none;stroke:#000000;stroke-width:2.4922;stroke-linecap:round;}
	.st83{fill:none;stroke:#000000;stroke-width:1.8467;stroke-linecap:round;}
	.st84{fill:none;stroke:#000000;stroke-width:2.22;stroke-linecap:round;}
	.st85{fill:none;stroke:#000000;stroke-width:2.295;stroke-linecap:round;}
	.st86{fill:none;stroke:#000000;stroke-width:1.7519;stroke-linecap:round;}
	.st87{fill:none;stroke:#000000;stroke-width:1.187;stroke-linecap:round;}
	.st88{fill:none;stroke:#000000;stroke-width:2.2881;stroke-linecap:round;}
	.st89{fill:none;stroke:#000000;stroke-width:1.7995;stroke-linecap:round;}
	.st90{fill:none;stroke:#000000;stroke-width:2.2787;stroke-linecap:round;}
	.st91{fill:none;stroke:#000000;stroke-width:1.7008;stroke-linecap:round;}
	.st92{fill:none;stroke:#000000;stroke-width:1.9566;stroke-linecap:round;}
	.st93{fill:none;stroke:#000000;stroke-width:1.7505;stroke-linecap:round;}
	.st94{fill:none;stroke:#000000;stroke-width:3.2977;stroke-linecap:round;}
	.st95{fill:none;stroke:#000000;stroke-width:2.0121;stroke-linecap:round;}
	.st96{fill:none;stroke:#000000;stroke-width:2.0194;stroke-linecap:round;}
	.st97{fill:none;stroke:#000000;stroke-width:1.3829;stroke-linecap:round;}
	.st98{fill:none;stroke:#000000;stroke-width:1.3144;stroke-linecap:round;}
	.st99{fill:none;stroke:#000000;stroke-width:2.7042;stroke-linecap:round;}
	.st100{fill:none;stroke:#000000;stroke-width:2.0753;stroke-linecap:round;}
	.st101{fill:none;stroke:#000000;stroke-width:1.1456;stroke-linecap:round;}
	.st102{fill:none;stroke:#000000;stroke-width:2.1866;stroke-linecap:round;}
	.st103{fill:none;stroke:#000000;stroke-width:1.9843;stroke-linecap:round;}
	.st104{fill:none;stroke:#000000;stroke-width:2.0721;stroke-linecap:round;}
	.st105{fill:none;stroke:#000000;stroke-width:2.7145;stroke-linecap:round;}
	.st106{fill:none;stroke:#000000;stroke-width:2.2388;stroke-linecap:round;}
	.st107{fill:none;stroke:#000000;stroke-width:1.491;stroke-linecap:round;}
	.st108{fill:none;stroke:#000000;stroke-width:1.9458;stroke-linecap:round;}
	.st109{fill:none;stroke:#000000;stroke-width:2.2656;stroke-linecap:round;}
	.st110{fill:none;stroke:#000000;stroke-width:1.3815;stroke-linecap:round;}
	.st111{fill:#010101;}
	.st112{fill:none;stroke:#000000;stroke-width:1.9726;stroke-linecap:round;}
	.st113{fill:none;stroke:#000000;stroke-width:3.7873;stroke-linecap:round;}
	.st114{fill:none;stroke:#000000;stroke-width:2.3061;stroke-linecap:round;}
	.st115{fill:none;stroke:#000000;stroke-width:2.1467;stroke-linecap:round;}
	.st116{fill:none;stroke:#000000;stroke-width:2.0125;stroke-linecap:round;}
	.st117{fill:none;stroke:#000000;stroke-width:2.5981;stroke-linecap:round;}
	.st118{fill:none;stroke:#000000;stroke-width:2.2548;stroke-linecap:round;}
	.st119{fill:none;stroke:#000000;stroke-width:1.942;stroke-linecap:round;}
	.st120{fill:none;stroke:#000000;stroke-width:2.4701;stroke-linecap:round;}
	.st121{fill:none;stroke:#000000;stroke-width:1.5;stroke-linecap:round;}
	.st122{fill:none;stroke:#000000;stroke-width:2.8262;stroke-linecap:round;}
	.st123{fill:none;stroke:#000000;stroke-width:1.2282;stroke-linecap:round;}
	.st124{fill:none;stroke:#000000;stroke-width:1.9494;stroke-linecap:round;}
	.st125{fill:none;stroke:#000000;stroke-width:2.4286;stroke-linecap:round;}
	.st126{fill:none;stroke:#000000;stroke-width:1.692;stroke-linecap:round;}
	.st127{fill:none;stroke:#000000;stroke-width:2.4648;stroke-linecap:round;}
	.st128{fill:none;stroke:#000000;stroke-width:1.6432;stroke-linecap:round;}
	.st129{fill:none;stroke:#000000;stroke-width:3.1375;stroke-linecap:round;}
	.st130{fill:none;stroke:#000000;stroke-width:1.6826;stroke-linecap:round;}
	.st131{fill:none;stroke:#000000;stroke-width:2.3585;stroke-linecap:round;}
	.st132{fill:none;stroke:#000000;stroke-width:1.4879;stroke-linecap:round;}
	.st133{fill:none;stroke:#000000;stroke-width:1.284;stroke-linecap:round;}
	.st134{fill:none;stroke:#000000;stroke-width:3.2071;stroke-linecap:round;}
	.st135{fill:none;stroke:#000000;stroke-width:2.4634;stroke-linecap:round;}
	.st136{fill:none;stroke:#000000;stroke-width:1.0216;stroke-linecap:round;}
	.st137{fill:none;stroke:#000000;stroke-width:2.1345;stroke-linecap:round;}
	.st138{fill:none;stroke:#000000;stroke-width:0.9741;stroke-linecap:round;}
	.st139{fill:none;stroke:#000000;stroke-width:2.9047;stroke-linecap:round;}
	.st140{fill:none;stroke:#000000;stroke-width:2.0106;stroke-linecap:round;}
	.st141{fill:none;stroke:#000000;stroke-width:2.2229;stroke-linecap:round;}
]]>
</style>
<path class="st111" d="M591,19.5c1.49,0.01,0.954,2.046,3,1.5c0.607-0.143,0.748-0.752,1.5-0.75l0.375,1.125L597,21c0,0.5,0,1,0,1.5
	l-1.125,0.375L596.25,24c-0.75,0-1.5,0-2.25,0c-0.668,6.168,5.369,5.631,6.75,9.75l-1.275,0.525L598.5,35.25
	c-3.069-0.431-3.547-3.453-6.75-3.75l0.375-1.125L591,30c0.223-1.307-2.91-2.63-2.25,0l-0.975,0.975l-0.525,1.275
	c-1.973,0.222-0.59-2.91-3-2.25c-1.041,0.959-0.459,3.541-1.5,4.5l-1.125-0.375L580.5,34.5c-2.135,1.366-2.735,4.264-5.25,5.25
	l-1.575-0.075L572.25,39c0-0.25,0-0.5,0-0.75l1.125-0.875L573,36c0.25,0,0.5,0,0.75,0c1.911-2.067,5.708-5.479,4.5-8.25
	c-3,0-6,0-9,0l0.375-1.375L568.5,25.5c0-0.5,0-1,0-1.5l1.375,0.375l0.875-1.125c1.567-0.317,1.986,0.514,3,0.75
	c-3-0.75-4.375-1.125-4.375-1.125L568.5,24c-1.807,0.307-1.63-1.37-3.75-0.75v-1.5v-1.5c2.388-1.113,6.995-0.005,9-1.5l1.018-0.911
	L574.5,16.5c1.211-0.211,1.291,0.709,2.25,0.75l-0.375,1.125l1.125,0.375c0.959,1.025,3.541,1.025,4.5,0l0.875,1.125l1.375-0.375
	c0.267,1.07,3.821,2.562,4.5,0.75l1.375,0.375L591,19.5z"/>
<path class="st111" d="M581.625,579.375L582,578.25c0.5,0,1,0,1.5,0l-0.375,1.125l1.125,0.375c-2.428,4.604,1.193,11.726-0.75,15.75
	c-5.262-3.762-5.453-10.088-3-16.5L581.625,579.375z"/>
<path class="st111" d="M108.75,41.25c5.33,0.42,12.391-0.891,16.5,0.75c-1.691,4.069-13.265,2.221-17.25,1.5l1.125-0.875
	L108.75,41.25z"/>
<path class="st111" d="M25.875,427.125L25.5,426c2.454-1.046,2.374-4.626,6.75-3.75c0.675,4.426-1.131,6.369-4.5,6.75l-1.125-0.375
	L25.5,429c0-0.25,0-0.5,0-0.75L25.875,427.125z"/>
<path class="st111" d="M32.25,54.75c-0.333,0.667-0.659,1.341-1.5,1.5l-0.875-1.125L28.5,55.5c-0.8-2.553-0.233,2.087-2.25,0.75
	v-1.5h-1.5c-0.789-4.769,1.637-9.095-0.75-11.25c-2.246,0.493,0.717,1.603,0,3l-0.75-0.375L22.5,46.5c-1.49-0.01-0.954-2.046-3-1.5
	l0.375-0.75L19.5,43.5c0.316-2.566-2.246-2.254-3-3.75l1.125-0.375L17.25,38.25c0-0.25,0-0.5,0-0.75l1.125,0.375L19.5,37.5
	c0.72,1.28,2.356,1.644,3.75,2.25c2.02-0.887-0.003-3.911,0-5.25l1.125,0.375l0.375-1.125c0.25,0,0.5,0,0.75,0l0.375,1.125L27,34.5
	c-0.064,1.064-0.124,2.124,0.75,2.25c-1.111-2.447,4.216-2.167,1.5-3.75l0.375-1.125L29.25,30.75C29.112,30.112,29.542,30.042,30,30
	l1.125,1.5L32.25,30c0.25,0,0.5,0,0.75,0l-0.375,1.375l1.125,0.875c0.143,0.607,0.752,0.748,0.75,1.5c0.5,0,1,0,1.5,0
	c0-0.5,0-1,0-1.5l0.375-0.75L36,30.75c2.849-3.401,0.649-11.851,2.25-16.5l1.125,0.375L40.5,14.25
	c0.489,4.011-0.985,9.985,0.75,12.75l1.125,0.375L43.5,27c-0.138,0.638,0.292,0.708,0.75,0.75l0.375,1.125L45.75,28.5
	c-0.697,4.553-5.977,4.523-7.5,8.25l-1.125-0.375L36.75,37.5c-1.306,2.112-3.828,3.837-2.25,6.75c-3.433-2.582-7.884,7.801-3,9
	l-0.375,1.125L32.25,54.75z"/>
<path class="st111" d="M33.375,138.375l1.125,0.375c0.201,2.7-1.385,3.615-1.5,6l-1.375-0.375l-0.875-1.125c0-2,0-4,0-6l0.75,0.375
	l0.75-0.375c0.5,0,1,0,1.5,0L33.375,138.375z"/>
<path class="st111" d="M28.625,20.125l2.125,0.125c-0.577,2.827,0.915,3.585,0.75,6l-1.375-0.375L29.25,27
	c-1.694-2.306-3.791-4.209-4.5-7.5l1.125,0.375l0.375-1.125c0.25,0,0.5,0,0.75,0L28.625,20.125z"/>
<path class="st111" d="M585.75,735.75c-0.064,1.064-0.124,2.124,0.75,2.25l-0.375,1.125l0.375,1.125c0.067,2.046-1.249,1.51,0,3
	c1.807,0.307,1.63-1.37,3.75-0.75l0.375,1.125l1.125-0.375c0,0.75,0,1.5,0,2.25l0.375,0.75L592.5,747
	c-0.923,0.327-1.54,0.96-1.5,2.25l-0.375,1.125L591,751.5c-4.085,6.614,3.597,12.354,3.75,19.5c-1.111,2.421-3.876-0.313-3.75,2.25
	l-1.375-0.375L588.75,774c-1.58,1.92-0.401,6.599-3.75,6.75c-1.053-6.93,0.618-21.255,0.75-27c-0.021-0.729-0.918-0.582-1.5-0.75
	c-2.604,5.646-4.445,12.055-5.25,19.5l-1.375-0.375l-0.875,1.125c-2.037,0.536,0.537-3.536-1.5-3l-0.375-1.125l-1.125,0.375
	c0.652-5.108,4.828-10.658,3.75-15c-1.688,2.607-4.218-2.512-6,0l-0.375-1.125L570,753c0.143-0.607,0.752-0.748,0.75-1.5
	l1.125-0.875l-0.375-1.375c0.75,0,1.5,0,2.25,0c0.327-0.923,0.96-1.54,2.25-1.5c0.096-1.346-0.918-1.582-0.75-3l1.339,0.268
	L577.5,744c0.638,0.138,0.707-0.293,0.75-0.75l1.375,0.375l0.875-1.125c0.25,0,0.5,0,0.75,0c1.614-1.636,0.841-5.659,2.25-7.5
	l0.875,1.125L585.75,735.75z"/>
<path class="st111" d="M28.5,753.75c3.368,0.368,5.62-0.38,8.25-0.75c-1.539-3.959-0.318-9.841,1.5-12.75l0.375,1.125L39.75,741
	c0,0.5,0,1,0,1.5c2.009,1.716,1.756-5.211,5.25-4.5c1.024,0.24,0.716,7.2,1.5,3c3.445,0.703-1.603,4.204,0.75,6H46.5v0.75
	c-0.968,2.308-5.229,5.236-4.5,6.75l-0.375,1.125L42,756.75c-0.5,0-1,0-1.5,0c-0.629,0.87-0.989,2.011-0.75,3.75l-1.125-0.375
	l-0.375,1.125c-1.725,1.775-0.269,6.731-0.75,9.75l-1.375-0.375l-0.875,1.125c-2.395,0.855-1.438,5.063-3.75,6l-0.375-1.125
	L30,776.25c-2.124-1.127-1.887-4.613-3-6.75l-1.125-0.375L24.75,769.5c0.122-0.872-0.166-1.335-0.75-1.5l0.375-1.375l-1.125-0.875
	c0.143-0.607,0.752-0.748,0.75-1.5l1.125-0.875L24.75,762c2.153-1.097,5.212-1.287,6-3.75c-1.567-0.317-1.986,0.514-3,0.75
	l-0.375-1.125L27,756.75c0.211-1.211-0.709-1.291-0.75-2.25l1.125-0.375L28.5,753.75z M33,765.75
	C34.847,761.087,30.65,763.277,33,765.75L33,765.75z"/>
<path class="st111" d="M44.625,757.125L44.25,756c1.178-0.322,0.641-2.359,3-1.5c0.869,2.632,2.952,4.049,3,7.5l-1.375-0.375
	L48,762.75c-0.25,0-0.5,0-0.75,0l-0.75-0.375l-0.75,0.375c-0.432-1.568-1.859-2.141-1.5-4.5L44.625,757.125z"/>
<g>
	<path class="st63" d="M595.875,21.375c1.776-5.042,3.622-11.182,1.125-16.125"/>
	<path class="st108" d="M586.575,47.175c8.728,8.021,0.448,13.956-3.11,24.306c-0.013,0.036-1.621,4.324-2.183,6.032
		c-7.592,23.077,12.454,26.417,4.093,45.862"/>
	<path class="st113" d="M585.375,123.375c0.016,0.485,0.069,0.931,0.125,1.375"/>
	<path class="st76" d="M585.5,124.75c7.949,5.97,9.209,18.808,5.398,27.504c-19.115,8.542-21.244,34.708-7.475,48.071"/>
	<path class="st80" d="M583.425,200.325c2.58-3.517,1.735-9.023,4.677-11.986c4.429,2.765,3.076,11.066,1.441,15.462
		c-2.189,1.676-3.794-1.015-5.793-1.551"/>
	<path class="st89" d="M583.75,202.25c-11.594,19.584-5.599,43.649,2.26,63.914"/>
	<path class="st12" d="M586.01,266.164c0.543,1.005,0.74,2.186,1.225,3.233"/>
	<path class="st95" d="M587.233,269.396c1.204,0.297,2.385,0.9,3.118,1.932c3.383,6.423-2.269,11.924-5.15,17.536
		c-5.628,10.953-8.059,25.073,0.388,35.402"/>
	<path class="st70" d="M583.875,417.375c10.914,8.873,1.764,33.922,2.67,46.199c0.266,3.613,3.813,9.043,4.602,13.24
		c0.515,2.73,0.503,5.177,0.645,7.733c1.134,20.474-11.879,35.595-7.165,49.826"/>
	<path class="st48" d="M584.625,534.375c2.489-1.229,3.063-4.31,5.549-5.467c8.978-1.534,6.584,11.283,1.478,14.623
		c-3.021,0.906-4.649-2.809-6.727-4.356"/>
	<path class="st9" d="M584.925,539.175c-6.874,11.301-7.754,27.085-3.3,40.2"/>
	<path class="st86" d="M583.125,579.375c1.496-1.47,3.334-2.102,4.985-3.177c0.441-0.146,1.101-0.147,1.626-0.152
		c3.133,1.279,4.424,3.051,6.621,4.984c10.01,8.809,6.534,20.122,2.34,34.079c-3.532,11.751-2.016,26.521-4.696,38.41
		c-0.911,4.037-2.215,6.954-2.626,10.604"/>
	<path class="st41" d="M597,722.25c0.175-0.212,0.35-0.424,0.525-0.636c0.378-12.743-8.619-23.109-6.9-36.489"/>
	<path class="st106" d="M583.875,417.375c-1.864,1.152-3.761,2.457-6.017,2.612c-1.584-0.146-3.197-0.827-4.222-2.074
		c-0.749-1.952,0.211-4.472,2.053-5.424c3.08-0.459,5.89,1.447,8.186,3.386"/>
	<path class="st140" d="M583.875,415.875c19.948-17.291-11.101-45.139-2.821-71.732c1.768-5.675,5.036-10.211,7.571-16.768"/>
	<path class="st29" d="M570.375,41.875c-0.216,1.51-0.329,2.368-0.375,3.125"/>
	<path class="st64" d="M569.625,12.75c-0.221-1.269,0.11-2.904-0.921-3.854c-0.545-1.338-0.859-3.219,0.498-4.195
		c5.896-0.918,9.615,5.554,13.173,9.174"/>
	<path class="st8" d="M582.375,13.875c3.367-2.203,3.87-7.137,7.5-9"/>
	<path class="st33" d="M582.375,13.875c-0.007,0.442-0.029,0.734-0.054,1.018"/>
	<path class="st94" d="M582.321,14.893c0.558,0.847,0.998,1.41,1.366,1.982"/>
	<path class="st1" d="M583.688,16.875c2.443,0.402,5.544,1.258,6.438,3.75"/>
	<path class="st31" d="M569.625,12.75c1.85,1.561,2.934,3.951,5.143,5.089"/>
	<path class="st56" d="M569.625,12.75c-5.005-1.348-9.334-4.402-13.985-6.552c-1.155-0.255-3.169-0.65-3.567,0.905
		c2.106,6.384,7.906,10.227,12.679,14.647"/>
	<path class="st121" d="M582.321,14.893c-2.239,0.705-4.749,1.229-5.946,3.482"/>
	<path class="st65" d="M583.688,16.875c-0.287,0.583-0.506,1.796-0.813,3"/>
	<path class="st23" d="M569.375,22.875c0.167,0.5,0.333,1,0.5,1.5"/>
	<path class="st55" d="M564.75,21.75c-1.134,1.478-1.02,3.708-0.161,5.304"/>
	<path class="st19" d="M564.589,27.054c0.065,0.016,0.13,0.032,0.195,0.048"/>
	<path class="st7" d="M564.784,27.102c1.476-0.873,3.278-0.143,4.841-0.727"/>
	<path class="st127" d="M601.982,36.161c-0.653-0.534-1.916-1.312-2.509-1.886"/>
	<path class="st60" d="M589.875,32.625c4.505,4.414,9.233,8.773,14.735,11.422c1.311,0.646,3.229,0.49,3.868-1.017
		c1.528-8.659-4.538-17.277-12.604-20.155"/>
	<path class="st78" d="M564.784,27.102c0.672,4.727,3.746,9.019,8.591,10.273"/>
	<path class="st14" d="M564.589,27.054c-2.866,0.696-5.563,2.003-7.541,4.245c-3.112,8.044,6.579,12.916,13.327,10.577"/>
	<path class="st109" d="M570.375,41.875c1.133-1.025,2.563-1.81,3.3-2.2"/>
	<path class="st113" d="M589.125,32.625c0.25,0,0.5,0,0.75,0"/>
	<path class="st32" d="M589.875,32.625c0.59-0.59,1.414-1.414,2.25-2.25"/>
	<path class="st71" d="M586.125,43.875c2.916-3.127,0.628-8.045,3-11.25"/>
	<path class="st99" d="M589.125,32.625c-0.352-0.507-0.813-1.061-1.35-1.65"/>
	<path class="st18" d="M573.675,39.675c1.813,2.13,0.38,3.056,0.271,4.682c-0.884,13.271,8.563,14.789,12.629,2.818"/>
	<path class="st134" d="M586.575,47.175c-0.013-1.121-0.218-2.21-0.45-3.3"/>
	<path class="st34" d="M586.125,43.875c-3.475-1.717-4.42-6.217-4.5-9.75"/>
	<path class="st85" d="M585.375,123.375c-3.689-1.875-9.479,0.052-10.109,4.518c0.06,2.07,2.277,3.247,4.128,3.345
		c3.138-0.601,4.387-4.187,6.106-6.487"/>
	<path class="st129" d="M583.425,200.325c0.062,0.693,0.217,1.505,0.325,1.925"/>
	<path class="st115" d="M586.01,266.164c-11.342-4.106-19.904,13.286-9.635,19.738c1.019,0.192,2.031-0.078,2.844-0.164
		c4.94-3.913,6.811-10.388,8.016-16.341"/>
	<path class="st59" d="M583.875,417.375c0-0.5,0-1,0-1.5"/>
	<path class="st46" d="M584.625,534.375c-0.22,1.629,0.329,3.202,0.3,4.8"/>
	<path class="st0" d="M593.625,682.875c10.63,5.227,13.435-11.725,7.669-17.752c-2.9-2.522-6.437-0.13-8.419,2.252"/>
	<path class="st43" d="M543.375,24.375c-10.646,3.742-7.143,23.443-21.75,19.25"/>
	<path class="st120" d="M478.125,42.125c4.438,0.495,8.626-0.139,14.431-0.084c8.467,0.08,19.593,2.904,24.569,0.334"/>
	<path class="st2" d="M515.625,40.125c-6.833-6.055,6.989-11.266,9.924-4.76c0.147,0.439,0.149,1.096,0.155,1.622
		c-0.803,1.492-1.604,3.124-3.329,3.888"/>
	<path class="st73" d="M63.375,34.875c7.275-8.113,19.379-2.958,15.5,8.25"/>
	<path class="st99" d="M78.875,43.125c0.167,0.25,0.333,0.5,0.5,0.75"/>
	<path class="st104" d="M79.375,43.875c2.756-0.261,3.759,2.569,5.761,3.613c2.653-0.983,6.892-1.339,7.118-4.959
		c4.582-3.71,11.323,0.998,16.872,0.096"/>
	<path class="st100" d="M78.875,43.125c-2.207-0.121-4.623,0.347-6.342,1.797c-1.688,2.591-2.13,7.17-0.284,9.615
		c1.515,0.596,3.275-0.428,4.292-1.508c2.086-2.588,1.961-6.1,2.834-9.154"/>
	<path class="st62" d="M21,177c-0.239-1.427,0.427-2.716,0.375-4.125"/>
	<path class="st125" d="M27.75,458.625c1.102-10.095-4.726-20.069-1.125-30"/>
	<path class="st58" d="M25.875,427.125c-13.03-12.207-3.962-31.177-8.85-45.9"/>
	<path class="st54" d="M14.625,374.625c6.035-20.546-3.611-41.944,3-62.25"/>
	<path class="st39" d="M17.625,312.375c0-1.375,0-2.75,0-4.125"/>
	<path class="st84" d="M17.625,308.25c0.542-12.448-4.89-25.206-1.875-37.5"/>
	<path class="st93" d="M17.625,312.375c1.692,1.412,3.715,1.21,5.415,0.211c1.558-1.959,2.086-6.761-1.549-6.575
		c-1.291,0.718-2.432,1.723-3.866,2.238"/>
	<path class="st69" d="M13.125,384.375c-0.339-1.698,0.694-3.118,1.5-4.5"/>
	<path class="st118" d="M13.425,375.075c-5.236-1.472-4.286,6.132-3.8,9.3"/>
	<path class="st40" d="M30.375,745.125c0.795,1.22,1.553,2.467,2.25,3.75"/>
	<path class="st79" d="M76.875,771.375c0.879,0.701,1.441,1.167,1.926,1.63c3.489,1.314,5.725-0.35,7.106-1.183
		c13.168-7.946,34.018-3.513,48.718-0.072"/>
	<path class="st116" d="M73.125,773.25c1.578,0.375,2.638-1.032,3.75-1.875"/>
	<path class="st26" d="M76.875,771.375c0-0.5,0-1,0-1.5"/>
	<path class="st124" d="M76.875,769.875c4.579-3.908,7.657-11.62,5.917-17.39C76.262,754.764,74.941,763.95,76.875,769.875"/>
	<path class="st50" d="M420.375,782.625c12.528-2.295,35.504,1.317,50.674,1.085c14.736-0.227,33.965,5.291,42.701-5.21"/>
	<path class="st52" d="M513.75,778.5c-2.055-2.018-6.278-1.494-6.701-5.057c0.21-4.272,6.349-6.806,9.47-3.845
		c0.715,2.798,0.064,5.64-0.894,8.275"/>
	<path class="st126" d="M515.625,777.875c11.004,2.475,8.91-19.348,21.982-12.098c-0.226,4.809,3.879,12.099,9.426,10.403
		c-8.257-6.452-3.145-16.709,4.592-20.932"/>
	<path class="st99" d="M513.75,778.5c0.322-0.088,1.197-0.4,1.875-0.625"/>
	<path class="st42" d="M28.398,60.034c0.077,0.154,0.155,0.309,0.232,0.463c-3.985,14.121,2.827,31.221,2.725,47.317
		c-0.068,10.672,9.363,18.718,2.021,30.56"/>
	<path class="st3" d="M31.625,144.375c-1.123,8.011-8.486,14.093-7.625,23.25"/>
	<path class="st101" d="M25.125,142.125c2.117,1.451,3.646,4.286,6.5,2.25"/>
	<path class="st133" d="M25.875,131.625c0.077-0.173,0.153-0.347,0.23-0.52c0.852-0.212,1.455-0.493,2.006-0.574
		c0.403,0.071,0.89,0.313,1.32,0.548c1.103,2.023,2.359,4.133,2.069,6.545"/>
	<path class="st87" d="M11.25,56.25c-0.091,0.163-0.182,0.325-0.273,0.487c0.164,1.973,0.744,3.923,1.615,5.676
		c0.595,0.403,1.212,0.526,1.952,0.584c2.903-1.919,5.329-4.821,6.831-7.873"/>
	<path class="st44" d="M11.25,56.25c-0.882-5.406,2.707-11.694,8.625-12"/>
	<path class="st97" d="M8.625,40.125c0.744,0.746,1.603,1.016,2.25,1.5"/>
	<path class="st4" d="M4.5,47.25c0.008-2.824,1.67-5.348,3.563-7.313"/>
	<path class="st130" d="M8.063,39.938c-3.313-3.61-2.524-9.7,1.313-12.563"/>
	<path class="st15" d="M8.063,39.938C8.25,40,8.438,40.063,8.625,40.125"/>
	<path class="st123" d="M8.625,40.125c1.83-1.875,4.425-1.276,6.702-1.807c0.31,0.428,1.124,0.607,2.298,1.057"/>
	<path class="st38" d="M18.375,37.875c0.299-2.107-0.772-4.001-1.125-6"/>
	<path class="st61" d="M28.625,20.125c1.322-0.905,1.442-2.549,1.375-4"/>
	<path class="st136" d="M39.375,10.125c-1.944-2.036-1.841-5.007-3-7.5"/>
	<path class="st36" d="M34.375,49.375c0.407,0.233,0.729,0.456,1.047,0.678c-0.061,2.292,0.987,4.301,0.953,6.572"/>
	<path class="st98" d="M34.375,49.375c-1.932,0.844-1.551,3.766-3.25,5"/>
	<path class="st138" d="M11.25,56.25c4.974-1.502,10.948-4.582,12-10.125"/>
	<path class="st77" d="M28.625,20.125c-2.737-6.064-5.882-21.897-15.33-15.08c-0.292,10.737,4.863,21.236,11.08,29.83"/>
	<path class="st35" d="M25.875,34.875c0.891-1.315,1.996-2.905,3.75-3"/>
	<path class="st102" d="M31.125,31.5c-0.238-1.896-0.682-3.743-1-5.625"/>
	<path class="st55" d="M19.5,11.25c2.484,2.663,4.092,5.75,6.375,8.625"/>
	<path class="st107" d="M50.438,9.75c-0.263-2.112-0.794-4.312-2.396-5.807c-0.361-0.164-0.621-0.464-0.907-0.742
		c-0.43-0.141-1.1-0.164-1.656-0.203c-3.127,1.354-3.741,5.218-6.104,7.126"/>
	<path class="st114" d="M39.375,10.125c0,1.5,0,3,0,4.5"/>
	<path class="st91" d="M41.625,38.625c8.524-6.298,17.643-15.003,16.864-26.094c-1.719-2.781-4.95-4.563-8.052-2.781"/>
	<path class="st24" d="M50.438,9.75c-0.187,2.332-1.754,4.093-2.063,6.375"/>
	<path class="st22" d="M48.375,16.125c0.215,0.25,0.43,0.501,0.645,0.752c0.192,4.232-1.647,8.645-4.395,11.998"/>
	<path class="st51" d="M48.375,16.125c-3.664,2.367-4.6,7.317-6,11.25"/>
	<path class="st103" d="M36.375,31.5c-1.25-0.073-2.5-0.4-3.75-0.125"/>
	<path class="st110" d="M34.375,49.375c0.786-3.277,1.115-7.67,4.063-9.438"/>
	<path class="st23" d="M38.438,39.938c0.125-0.375,0.25-0.75,0.375-1.125"/>
	<path class="st128" d="M38.813,38.813c-0.757-0.704-1.214-1.561-1.688-2.438"/>
	<path class="st15" d="M41.625,38.625c-1.03-0.03-1.968,0.032-2.813,0.188"/>
	<path class="st132" d="M38.438,39.938c5.032,5.78,4.684,19.079,13.273,19.271c5.463-8.862-5.813-14.513-10.085-20.584"/>
	<path class="st13" d="M26.25,54.75c-2.018,0.967-2.841,4.125-1.472,5.858c0.791,0.271,2.104-0.062,3.62-0.574"/>
	<path class="st131" d="M28.398,60.034c0.62-1.587,1.02-3.266,1.477-4.909"/>
	<path class="st21" d="M21.125,235.125c2.082,7.237-2.833,14.578-3.5,21.75"/>
	<path class="st141" d="M21.125,235.125c-6.366,0.787-8.128-9.654-3.155-12.026c0.396,0.083,0.795,0.285,1.195,0.492
		c1.284,2.495,0.998,5.633,2.96,7.784"/>
	<path class="st81" d="M22.125,231.375c7.658-11.801,0.511-27.579-0.75-40.5"/>
	<path class="st129" d="M21.125,235.125c0.471-1.21,0.746-2.484,1-3.75"/>
	<path class="st25" d="M590.518,779.786c-1.3,3.467-1.727,7.369-4.873,9.743c-0.429,0.171-0.975,0.229-1.444,0.267
		c-4.965-4.417-5.806-11.435-6.574-17.671"/>
	<path class="st5" d="M574.875,769.125c-2.864,7.065-8.695,13.253-13.667,6.261c-5.499-7.732,4.229-16.557,9.917-22.011"/>
	<path class="st68" d="M571.875,750.625c-6.11-6.484-17.893-19.587-7.76-27.424c1.334-0.44,2.781-0.251,3.938,0.531
		c1.954,1.35,2.24,3.926,4.697,4.768"/>
	<path class="st28" d="M572.75,728.5c1.729-2.801,2.911-6.087,5.605-8.282c0.711-0.051,1.758-0.7,2.49-0.913
		c0.708,0.366,1.454,0.858,2.083,1.261c2.378,4.744,1.766,10.418,1.445,15.561"/>
	<path class="st105" d="M572.75,728.5c0.712,1.737,0.876,3.64,1.625,5.375"/>
	<path class="st137" d="M576.589,745.018c-0.807-1.692-0.831-3.574-1.285-5.355"/>
	<path class="st53" d="M590.625,743.625c0.217-0.283,0.435-0.566,0.651-0.85c1.968,0.133,4.161-1.655,5.973-0.501
		c0.313,2.668-3.281,3.196-5.124,3.976"/>
	<path class="st67" d="M595.875,753.938c15.159,3.653,18.041-24.179,5.366-27.14c-5.789,3.027-10.899,7.477-15.116,12.327"/>
	<path class="st96" d="M579.625,743.625c-0.665-1.649-0.828-3.74-2.5-4.75"/>
	<path class="st66" d="M590.518,779.786c2.955,3.523,8.12,5.698,11.846,1.874c2.033-10.157-3.336-18.906-6.487-27.723"/>
	<path class="st88" d="M595.875,753.938c-2.116-0.584-3.436-2.487-5.25-3.563"/>
	<path class="st122" d="M590.518,779.786c-0.396-2.286-0.301-4.64-0.893-6.911"/>
	<path class="st20" d="M38.625,741.375c1.501-3.477,2.98-8.503,7.216-9.056c0.964,0.583,2.448,0.997,2.534,2.306"/>
	<path class="st16" d="M46.5,747c7.148,3.832,9.951,12.523,12,19.875"/>
	<path class="st92" d="M46.875,771.375c-0.111,3.581-3.658,8.322-7.428,5.643c-2.004-1.542-2.28-4.244-3.322-6.393"/>
	<path class="st90" d="M24.375,766.625c-3.971,1.929-7.838,6.16-12.594,5.113c-0.588-0.404-1.243-1.11-1.808-1.589
		c-3.125-8.914,7.198-16.919,15.152-17.774"/>
	<path class="st10" d="M25.125,752.375c0.504-7.795-2.128-16.075-2.664-22.682c-0.649-7.995,3.65-13.644,2.598-20.533
		c-0.548-3.593-3.073-7.685-4.559-11.16"/>
	<path class="st74" d="M20.5,698c-0.208-0.042-0.417-0.083-0.625-0.125"/>
	<path class="st135" d="M19.875,697.875c-1.365,1.038-2.683,2.513-4.508,2.612c-0.838-0.044-2.188-0.712-2.718-1.324
		c-0.66-1.399,0.068-3.144,1.245-4.015C16.129,694.363,18.633,696.066,19.875,697.875"/>
	<path class="st75" d="M20.5,698c3.809-1.765,7.427-7.95,8.553-11.857c4.813-16.693-16.434-40.97-0.553-47.143"/>
	<path class="st129" d="M28.5,639c0.451-0.369,0.99-0.613,1.534-0.854"/>
	<path class="st112" d="M30.034,638.146c-0.946-12.046,12.209-28.355-2.391-36.325"/>
	<path class="st33" d="M27.643,601.821c-0.236,0.028-0.624,0.042-1.018,0.054"/>
	<path class="st82" d="M27.643,601.821c8.423-12.529-6.389-24.901-2.791-37.037"/>
	<path class="st117" d="M24.852,564.784c-0.319-1.561-1.568-2.786-1.602-4.409"/>
	<path class="st27" d="M23.25,560.375c-0.231-0.202-0.462-0.404-0.692-0.606c-2.932-11.55-6.883-26.575-0.045-37.274
		c5.202-8.142,5.783-25.077,6.028-36.542c0.108-5.047,1.205-8.967-1.755-12.219"/>
	<path class="st11" d="M26.786,473.732c-1.912,0.389-1.736,2.177-2.587,3.382c-0.084,0.257-0.151,0.582-0.218,0.911
		c-0.774,0.796-1.586,0.875-2.58,0.802c-3.385-2.789-2.08-8.222-1.173-11.888c0.919-0.701,1.962-0.856,2.745-0.84
		c1.062,0.495,1.844,1.32,2.527,1.899"/>
	<path class="st37" d="M25.5,468c0.533-0.494,1.168-0.9,1.657-1.287c0.147-0.644,0.17-1.373,0.218-2.088"/>
	<path class="st127" d="M25.125,752.375c0.58,0.467,1.357,0.974,2.25,1.75"/>
	<path class="st49" d="M26.786,473.732c0.543-2.017-0.684-3.89-1.286-5.732"/>
	<path class="st83" d="M24.852,564.784c1.718,0.381,2.882,2.028,4.655,2.164c0.849-0.364,1.424-0.621,1.804-0.855
		c1.018-2.727-0.257-5.287-1.325-7.617c-2.311-2.48-4.692,0.844-6.736,1.899"/>
	<path class="st45" d="M26.625,601.875c-2.029-1.558-4.602-0.464-6.138,1.22c-0.726,1.848-1.428,5.478,1.339,5.857
		C24.352,607.489,25.15,604.259,26.625,601.875"/>
	<path class="st57" d="M28.5,639c0.307,3.401-1.927,9.034,2.61,10.451c0.6-0.048,1.844-0.156,3.147-1.026
		c1.85-3.816,0.021-9.013-4.223-10.276"/>
	<path class="st3" d="M41.625,755.625c1.277,0.266,1.665,0.704,3,1.5"/>
	<path class="st3" d="M50.325,766.425c2.524,0.784,4.111,3.845,7.05,3.2"/>
	<path class="st72" d="M46.875,771.375c0.96-0.791,1.083-2.018,1.375-3.125"/>
	<path class="st6" d="M48.25,768.25c-1.394-1.609-1.958-3.775-1.75-5.875"/>
	<path class="st88" d="M27.375,757.875c-1.57,0.556-3.171,1.235-4.5,2.25"/>
	<path class="st30" d="M22.232,762.911c0.904,0.153,1.908,0.227,2.893,0.464"/>
	<path class="st17" d="M46.875,771.375c-5.943-0.457-6.962-6.701-8.25-11.25"/>
	<path class="st139" d="M48.25,768.25c0.308-0.143,1.315-1.104,2.075-1.825"/>
	<path class="st47" d="M50.325,766.425c-0.203-1.671-0.836-3.243-1.45-4.8"/>
	<path class="st119" d="M25.875,769.125c-0.948,3.553-2.697,7.248-1.649,10.955c2.605,2.602,5.618-1.285,6.899-3.455"/>
</g>
</svg>
