<?xml version="1.0" encoding="utf-8"?>
<!-- Generator: Adobe Illustrator 14.0.0, SVG Export Plug-In . SVG Version: 6.00 Build 43363)  -->
<!DOCTYPE svg PUBLIC "-//W3C//DTD SVG 1.1//EN" "http://www.w3.org/Graphics/SVG/1.1/DTD/svg11.dtd">
<svg version="1.1" id="Layer_1" xmlns="http://www.w3.org/2000/svg" xmlns:xlink="http://www.w3.org/1999/xlink" x="0px" y="0px"
	 width="538.689px" height="718.689px" viewBox="0 0 538.689 718.689" style="enable-background:new 0 0 538.689 718.689;"
	 xml:space="preserve">
<style type="text/css">
<![CDATA[
	.st0{fill:#0090A6;}
]]>
</style>
<g>
	<g>
		<g>
			<path class="st0" d="M12.848,667.336l12.844,12.828l-12.844,12.828L0.004,680.164L12.848,667.336z M12.845,671.348l-8.827,8.816
				l8.827,8.815l8.827-8.815L12.845,671.348z"/>
		</g>
		<g>
			<path class="st0" d="M12.848,641.67l12.844,12.828l-12.844,12.829L0.004,654.498L12.848,641.67z M12.845,645.682l-8.827,8.816
				l8.827,8.816l8.827-8.816L12.845,645.682z"/>
		</g>
		<g>
			<path class="st0" d="M12.848,616.005l12.844,12.828l-12.844,12.828L0.004,628.833L12.848,616.005z M12.845,620.017l-8.827,8.816
				l8.827,8.815l8.827-8.815L12.845,620.017z"/>
		</g>
		<g>
			<path class="st0" d="M12.848,590.339l12.844,12.828l-12.844,12.829L0.004,603.167L12.848,590.339z M12.845,594.351l-8.827,8.816
				l8.827,8.816l8.827-8.816L12.845,594.351z"/>
		</g>
		<g>
			<path class="st0" d="M12.848,564.674l12.844,12.828L12.848,590.33L0.004,577.502L12.848,564.674z M12.845,568.686l-8.827,8.816
				l8.827,8.815l8.827-8.815L12.845,568.686z"/>
		</g>
		<g>
			<path class="st0" d="M12.848,539.008l12.844,12.828l-12.844,12.829L0.004,551.836L12.848,539.008z M12.845,543.021l-8.827,8.815
				l8.827,8.816l8.827-8.816L12.845,543.021z"/>
		</g>
		<g>
			<path class="st0" d="M12.848,513.343l12.844,12.828l-12.844,12.828L0.004,526.171L12.848,513.343z M12.845,517.354l-8.827,8.816
				l8.827,8.815l8.827-8.815L12.845,517.354z"/>
		</g>
		<g>
			<path class="st0" d="M12.848,487.677l12.844,12.828l-12.844,12.829L0.004,500.505L12.848,487.677z M12.845,491.689l-8.827,8.815
				l8.827,8.816l8.827-8.816L12.845,491.689z"/>
		</g>
		<g>
			<path class="st0" d="M12.848,462.012l12.844,12.828l-12.844,12.828L0.004,474.84L12.848,462.012z M12.845,466.023l-8.827,8.816
				l8.827,8.815l8.827-8.815L12.845,466.023z"/>
		</g>
		<g>
			<path class="st0" d="M12.848,436.346l12.844,12.828l-12.844,12.829L0.004,449.174L12.848,436.346z M12.845,440.358l-8.827,8.815
				l8.827,8.816l8.827-8.816L12.845,440.358z"/>
		</g>
		<g>
			<path class="st0" d="M12.848,410.681l12.844,12.828l-12.844,12.828L0.004,423.509L12.848,410.681z M12.845,414.692l-8.827,8.816
				l8.827,8.816l8.827-8.816L12.845,414.692z"/>
		</g>
		<g>
			<path class="st0" d="M12.848,385.015l12.844,12.828l-12.844,12.829L0.004,397.843L12.848,385.015z M12.845,389.027l-8.827,8.815
				l8.827,8.816l8.827-8.816L12.845,389.027z"/>
		</g>
		<g>
			<path class="st0" d="M12.848,359.35l12.844,12.828l-12.844,12.828L0.004,372.178L12.848,359.35z M12.845,363.361l-8.827,8.816
				l8.827,8.816l8.827-8.816L12.845,363.361z"/>
		</g>
		<g>
			<path class="st0" d="M12.848,333.684l12.844,12.828l-12.844,12.829L0.004,346.512L12.848,333.684z M12.845,337.696l-8.827,8.816
				l8.827,8.816l8.827-8.816L12.845,337.696z"/>
		</g>
		<g>
			<path class="st0" d="M12.848,308.019l12.844,12.828l-12.844,12.829L0.004,320.847L12.848,308.019z M12.845,312.031l-8.827,8.816
				l8.827,8.816l8.827-8.816L12.845,312.031z"/>
		</g>
		<g>
			<path class="st0" d="M12.848,282.353l12.844,12.828L12.848,308.01L0.004,295.181L12.848,282.353z M12.845,286.365l-8.827,8.816
				l8.827,8.816l8.827-8.816L12.845,286.365z"/>
		</g>
		<g>
			<path class="st0" d="M12.848,256.688l12.844,12.828l-12.844,12.829L0.004,269.516L12.848,256.688z M12.845,260.7l-8.827,8.816
				l8.827,8.816l8.827-8.816L12.845,260.7z"/>
		</g>
		<g>
			<path class="st0" d="M12.848,231.022l12.844,12.828l-12.844,12.829L0.004,243.85L12.848,231.022z M12.845,235.034l-8.827,8.816
				l8.827,8.816l8.827-8.816L12.845,235.034z"/>
		</g>
		<g>
			<path class="st0" d="M12.848,205.356l12.844,12.828l-12.844,12.829L0.004,218.185L12.848,205.356z M12.845,209.369l-8.827,8.816
				l8.827,8.816l8.827-8.816L12.845,209.369z"/>
		</g>
		<g>
			<path class="st0" d="M12.848,179.691l12.844,12.828l-12.844,12.828L0.004,192.52L12.848,179.691z M12.845,183.703l-8.827,8.816
				l8.827,8.816l8.827-8.816L12.845,183.703z"/>
		</g>
		<g>
			<path class="st0" d="M12.848,154.026l12.844,12.828l-12.844,12.829L0.004,166.854L12.848,154.026z M12.845,158.038l-8.827,8.816
				l8.827,8.816l8.827-8.816L12.845,158.038z"/>
		</g>
		<g>
			<path class="st0" d="M12.848,128.36l12.844,12.828l-12.844,12.829L0.004,141.188L12.848,128.36z M12.845,132.372l-8.827,8.816
				l8.827,8.816l8.827-8.816L12.845,132.372z"/>
		</g>
		<g>
			<path class="st0" d="M12.848,102.695l12.844,12.828l-12.844,12.829L0.004,115.523L12.848,102.695z M12.845,106.707l-8.827,8.816
				l8.827,8.816l8.827-8.816L12.845,106.707z"/>
		</g>
		<g>
			<path class="st0" d="M12.848,77.029l12.844,12.828l-12.844,12.829L0.004,89.857L12.848,77.029z M12.845,81.041l-8.827,8.816
				l8.827,8.816l8.827-8.816L12.845,81.041z"/>
		</g>
		<g>
			<path class="st0" d="M12.848,51.364l12.844,12.828L12.848,77.021L0.004,64.192L12.848,51.364z M12.845,55.376l-8.827,8.816
				l8.827,8.816l8.827-8.816L12.845,55.376z"/>
		</g>
		<g>
			<path class="st0" d="M12.848,25.698l12.844,12.828L12.848,51.355L0.004,38.526L12.848,25.698z M12.845,29.71l-8.827,8.816
				l8.827,8.816l8.827-8.816L12.845,29.71z"/>
		</g>
		<g>
			<path class="st0" d="M51.336,12.848L38.517,25.691l-12.82-12.844l12.82-12.844L51.336,12.848z M47.327,12.845l-8.81-8.827
				l-8.81,8.827l8.81,8.827L47.327,12.845z"/>
		</g>
		<g>
			<path class="st0" d="M76.983,12.848L64.165,25.691l-12.82-12.844l12.82-12.844L76.983,12.848z M72.974,12.845l-8.81-8.827
				l-8.81,8.827l8.81,8.827L72.974,12.845z"/>
		</g>
		<g>
			<path class="st0" d="M102.631,12.848L89.812,25.691l-12.82-12.844l12.82-12.844L102.631,12.848z M98.622,12.845l-8.81-8.827
				l-8.81,8.827l8.81,8.827L98.622,12.845z"/>
		</g>
		<g>
			<path class="st0" d="M128.278,12.848l-12.819,12.844l-12.82-12.844l12.82-12.844L128.278,12.848z M124.27,12.845l-8.81-8.827
				l-8.81,8.827l8.81,8.827L124.27,12.845z"/>
		</g>
		<g>
			<path class="st0" d="M153.926,12.848l-12.819,12.844l-12.82-12.844l12.82-12.844L153.926,12.848z M149.917,12.845l-8.81-8.827
				l-8.81,8.827l8.81,8.827L149.917,12.845z"/>
		</g>
		<g>
			<path class="st0" d="M179.574,12.848l-12.819,12.844l-12.82-12.844l12.82-12.844L179.574,12.848z M175.564,12.845l-8.81-8.827
				l-8.81,8.827l8.81,8.827L175.564,12.845z"/>
		</g>
		<g>
			<path class="st0" d="M205.221,12.848l-12.819,12.844l-12.819-12.844l12.819-12.844L205.221,12.848z M201.212,12.845l-8.81-8.827
				l-8.81,8.827l8.81,8.827L201.212,12.845z"/>
		</g>
		<g>
			<path class="st0" d="M230.869,12.848l-12.819,12.844L205.23,12.848l12.819-12.844L230.869,12.848z M226.859,12.845l-8.81-8.827
				l-8.81,8.827l8.81,8.827L226.859,12.845z"/>
		</g>
		<g>
			<path class="st0" d="M256.516,12.848l-12.819,12.844l-12.819-12.844l12.819-12.844L256.516,12.848z M252.507,12.845l-8.81-8.827
				l-8.81,8.827l8.81,8.827L252.507,12.845z"/>
		</g>
		<g>
			<path class="st0" d="M282.164,12.848l-12.819,12.844l-12.82-12.844l12.82-12.844L282.164,12.848z M278.154,12.845l-8.81-8.827
				l-8.81,8.827l8.81,8.827L278.154,12.845z"/>
		</g>
		<g>
			<path class="st0" d="M307.812,12.848l-12.819,12.844l-12.819-12.844l12.819-12.844L307.812,12.848z M303.802,12.845l-8.81-8.827
				l-8.811,8.827l8.811,8.827L303.802,12.845z"/>
		</g>
		<g>
			<path class="st0" d="M333.459,12.848L320.64,25.691L307.82,12.848L320.64,0.004L333.459,12.848z M329.449,12.845l-8.81-8.827
				l-8.81,8.827l8.81,8.827L329.449,12.845z"/>
		</g>
		<g>
			<path class="st0" d="M359.106,12.848l-12.819,12.844l-12.819-12.844l12.819-12.844L359.106,12.848z M355.097,12.845l-8.81-8.827
				l-8.81,8.827l8.81,8.827L355.097,12.845z"/>
		</g>
		<g>
			<path class="st0" d="M384.754,12.848l-12.819,12.844l-12.819-12.844l12.819-12.844L384.754,12.848z M380.744,12.845l-8.81-8.827
				l-8.81,8.827l8.81,8.827L380.744,12.845z"/>
		</g>
		<g>
			<path class="st0" d="M410.401,12.848l-12.819,12.844l-12.819-12.844l12.819-12.844L410.401,12.848z M406.392,12.845l-8.81-8.827
				l-8.81,8.827l8.81,8.827L406.392,12.845z"/>
		</g>
		<g>
			<path class="st0" d="M436.049,12.848l-12.819,12.844L410.41,12.848l12.819-12.844L436.049,12.848z M432.039,12.845l-8.81-8.827
				l-8.81,8.827l8.81,8.827L432.039,12.845z"/>
		</g>
		<g>
			<path class="st0" d="M461.696,12.848l-12.819,12.844l-12.819-12.844l12.819-12.844L461.696,12.848z M457.687,12.845l-8.81-8.827
				l-8.81,8.827l8.81,8.827L457.687,12.845z"/>
		</g>
		<g>
			<path class="st0" d="M487.344,12.848l-12.819,12.844l-12.819-12.844l12.819-12.844L487.344,12.848z M483.335,12.845l-8.811-8.827
				l-8.81,8.827l8.81,8.827L483.335,12.845z"/>
		</g>
		<g>
			<path class="st0" d="M512.991,12.848l-12.819,12.844l-12.819-12.844l12.819-12.844L512.991,12.848z M508.982,12.845l-8.811-8.827
				l-8.81,8.827l8.81,8.827L508.982,12.845z"/>
		</g>
		<g>
			<path class="st0" d="M525.842,51.354l-12.844-12.828l12.844-12.829l12.844,12.829L525.842,51.354z M525.845,47.342l8.827-8.816
				l-8.827-8.816l-8.827,8.816L525.845,47.342z"/>
		</g>
		<g>
			<path class="st0" d="M525.842,77.02l-12.844-12.828l12.844-12.829l12.844,12.829L525.842,77.02z M525.845,73.007l8.827-8.816
				l-8.827-8.816l-8.827,8.816L525.845,73.007z"/>
		</g>
		<g>
			<path class="st0" d="M525.842,102.685l-12.844-12.828l12.844-12.829l12.844,12.829L525.842,102.685z M525.845,98.673l8.827-8.816
				l-8.827-8.816l-8.827,8.816L525.845,98.673z"/>
		</g>
		<g>
			<path class="st0" d="M525.842,128.351l-12.844-12.828l12.844-12.829l12.844,12.829L525.842,128.351z M525.845,124.338
				l8.827-8.816l-8.827-8.816l-8.827,8.816L525.845,124.338z"/>
		</g>
		<g>
			<path class="st0" d="M525.842,154.016l-12.844-12.828l12.844-12.829l12.844,12.829L525.842,154.016z M525.845,150.004
				l8.827-8.816l-8.827-8.816l-8.827,8.816L525.845,150.004z"/>
		</g>
		<g>
			<path class="st0" d="M525.842,179.682l-12.844-12.828l12.844-12.829l12.844,12.829L525.842,179.682z M525.845,175.669
				l8.827-8.816l-8.827-8.816l-8.827,8.816L525.845,175.669z"/>
		</g>
		<g>
			<path class="st0" d="M525.842,205.347l-12.844-12.828l12.844-12.828l12.844,12.828L525.842,205.347z M525.845,201.335
				l8.827-8.816l-8.827-8.816l-8.827,8.816L525.845,201.335z"/>
		</g>
		<g>
			<path class="st0" d="M525.842,231.012l-12.844-12.828l12.844-12.829l12.844,12.829L525.842,231.012z M525.845,227l8.827-8.816
				l-8.827-8.816l-8.827,8.816L525.845,227z"/>
		</g>
		<g>
			<path class="st0" d="M525.842,256.678l-12.844-12.828l12.844-12.829l12.844,12.829L525.842,256.678z M525.845,252.666
				l8.827-8.816l-8.827-8.816l-8.827,8.816L525.845,252.666z"/>
		</g>
		<g>
			<path class="st0" d="M525.842,282.343l-12.844-12.828l12.844-12.829l12.844,12.829L525.842,282.343z M525.845,278.332
				l8.827-8.816l-8.827-8.816l-8.827,8.816L525.845,278.332z"/>
		</g>
		<g>
			<path class="st0" d="M525.842,308.009l-12.844-12.828l12.844-12.829l12.844,12.829L525.842,308.009z M525.845,303.997
				l8.827-8.816l-8.827-8.816l-8.827,8.816L525.845,303.997z"/>
		</g>
		<g>
			<path class="st0" d="M525.842,333.674l-12.844-12.828l12.844-12.829l12.844,12.829L525.842,333.674z M525.845,329.662
				l8.827-8.816l-8.827-8.816l-8.827,8.816L525.845,329.662z"/>
		</g>
		<g>
			<path class="st0" d="M525.842,359.34l-12.844-12.828l12.844-12.829l12.844,12.829L525.842,359.34z M525.845,355.328l8.827-8.816
				l-8.827-8.816l-8.827,8.816L525.845,355.328z"/>
		</g>
		<g>
			<path class="st0" d="M525.842,385.005l-12.844-12.828l12.844-12.828l12.844,12.828L525.842,385.005z M525.845,380.993
				l8.827-8.816l-8.827-8.815l-8.827,8.815L525.845,380.993z"/>
		</g>
		<g>
			<path class="st0" d="M525.842,410.671l-12.844-12.828l12.844-12.829l12.844,12.829L525.842,410.671z M525.845,406.659
				l8.827-8.816l-8.827-8.816l-8.827,8.816L525.845,406.659z"/>
		</g>
		<g>
			<path class="st0" d="M525.842,436.336l-12.844-12.828l12.844-12.828l12.844,12.828L525.842,436.336z M525.845,432.324
				l8.827-8.816l-8.827-8.815l-8.827,8.815L525.845,432.324z"/>
		</g>
		<g>
			<path class="st0" d="M525.842,462.002l-12.844-12.828l12.844-12.829l12.844,12.829L525.842,462.002z M525.845,457.99l8.827-8.816
				l-8.827-8.816l-8.827,8.816L525.845,457.99z"/>
		</g>
		<g>
			<path class="st0" d="M525.842,487.667l-12.844-12.828l12.844-12.828l12.844,12.828L525.842,487.667z M525.845,483.655
				l8.827-8.816l-8.827-8.815l-8.827,8.815L525.845,483.655z"/>
		</g>
		<g>
			<path class="st0" d="M525.842,513.333l-12.844-12.828l12.844-12.829l12.844,12.829L525.842,513.333z M525.845,509.32l8.827-8.815
				l-8.827-8.816l-8.827,8.816L525.845,509.32z"/>
		</g>
		<g>
			<path class="st0" d="M525.842,538.998l-12.844-12.828l12.844-12.828l12.844,12.828L525.842,538.998z M525.845,534.986
				l8.827-8.816l-8.827-8.815l-8.827,8.815L525.845,534.986z"/>
		</g>
		<g>
			<path class="st0" d="M525.842,564.664l-12.844-12.828l12.844-12.829l12.844,12.829L525.842,564.664z M525.845,560.651
				l8.827-8.815l-8.827-8.816l-8.827,8.816L525.845,560.651z"/>
		</g>
		<g>
			<path class="st0" d="M525.842,590.329l-12.844-12.828l12.844-12.828l12.844,12.828L525.842,590.329z M525.845,586.317
				l8.827-8.816l-8.827-8.815l-8.827,8.815L525.845,586.317z"/>
		</g>
		<g>
			<path class="st0" d="M525.842,615.995l-12.844-12.828l12.844-12.829l12.844,12.829L525.842,615.995z M525.845,611.982
				l8.827-8.815l-8.827-8.816l-8.827,8.816L525.845,611.982z"/>
		</g>
		<g>
			<path class="st0" d="M525.842,641.66l-12.844-12.828l12.844-12.828l12.844,12.828L525.842,641.66z M525.845,637.648l8.827-8.816
				l-8.827-8.816l-8.827,8.816L525.845,637.648z"/>
		</g>
		<g>
			<path class="st0" d="M525.842,667.326l-12.844-12.828l12.844-12.829l12.844,12.829L525.842,667.326z M525.845,663.313
				l8.827-8.815l-8.827-8.816l-8.827,8.816L525.845,663.313z"/>
		</g>
		<g>
			<path class="st0" d="M525.842,692.991l-12.844-12.828l12.844-12.828l12.844,12.828L525.842,692.991z M525.845,688.979
				l8.827-8.816l-8.827-8.816l-8.827,8.816L525.845,688.979z"/>
		</g>
		<g>
			<path class="st0" d="M487.354,705.842l12.819-12.844l12.819,12.844l-12.819,12.844L487.354,705.842z M491.362,705.845
				l8.811,8.827l8.81-8.827l-8.81-8.827L491.362,705.845z"/>
		</g>
		<g>
			<path class="st0" d="M461.706,705.842l12.819-12.844l12.819,12.844l-12.819,12.844L461.706,705.842z M465.715,705.845
				l8.811,8.827l8.81-8.827l-8.81-8.827L465.715,705.845z"/>
		</g>
		<g>
			<path class="st0" d="M436.059,705.842l12.819-12.844l12.819,12.844l-12.819,12.844L436.059,705.842z M440.067,705.845
				l8.811,8.827l8.81-8.827l-8.81-8.827L440.067,705.845z"/>
		</g>
		<g>
			<path class="st0" d="M410.411,705.842l12.819-12.844l12.819,12.844l-12.819,12.844L410.411,705.842z M414.42,705.845l8.811,8.827
				l8.81-8.827l-8.81-8.827L414.42,705.845z"/>
		</g>
		<g>
			<path class="st0" d="M384.764,705.842l12.819-12.844l12.819,12.844l-12.819,12.844L384.764,705.842z M388.772,705.845
				l8.811,8.827l8.81-8.827l-8.81-8.827L388.772,705.845z"/>
		</g>
		<g>
			<path class="st0" d="M359.116,705.842l12.818-12.844l12.82,12.844l-12.82,12.844L359.116,705.842z M363.125,705.845l8.81,8.827
				l8.811-8.827l-8.811-8.827L363.125,705.845z"/>
		</g>
		<g>
			<path class="st0" d="M333.469,705.842l12.818-12.844l12.82,12.844l-12.82,12.844L333.469,705.842z M337.478,705.845l8.81,8.827
				l8.811-8.827l-8.811-8.827L337.478,705.845z"/>
		</g>
		<g>
			<path class="st0" d="M307.821,705.842l12.818-12.844l12.82,12.844l-12.82,12.844L307.821,705.842z M311.83,705.845l8.81,8.827
				l8.811-8.827l-8.811-8.827L311.83,705.845z"/>
		</g>
		<g>
			<path class="st0" d="M282.174,705.842l12.818-12.844l12.82,12.844l-12.82,12.844L282.174,705.842z M286.183,705.845l8.81,8.827
				l8.811-8.827l-8.811-8.827L286.183,705.845z"/>
		</g>
		<g>
			<path class="st0" d="M256.526,705.842l12.819-12.844l12.82,12.844l-12.82,12.844L256.526,705.842z M260.535,705.845l8.81,8.827
				l8.811-8.827l-8.811-8.827L260.535,705.845z"/>
		</g>
		<g>
			<path class="st0" d="M230.878,705.842l12.819-12.844l12.82,12.844l-12.82,12.844L230.878,705.842z M234.888,705.845l8.81,8.827
				l8.81-8.827l-8.81-8.827L234.888,705.845z"/>
		</g>
		<g>
			<path class="st0" d="M205.231,705.842l12.819-12.844l12.82,12.844l-12.82,12.844L205.231,705.842z M209.24,705.845l8.81,8.827
				l8.81-8.827l-8.81-8.827L209.24,705.845z"/>
		</g>
		<g>
			<path class="st0" d="M179.583,705.842l12.819-12.844l12.82,12.844l-12.82,12.844L179.583,705.842z M183.593,705.845l8.81,8.827
				l8.81-8.827l-8.81-8.827L183.593,705.845z"/>
		</g>
		<g>
			<path class="st0" d="M153.936,705.842l12.819-12.844l12.82,12.844l-12.82,12.844L153.936,705.842z M157.945,705.845l8.81,8.827
				l8.81-8.827l-8.81-8.827L157.945,705.845z"/>
		</g>
		<g>
			<path class="st0" d="M128.288,705.842l12.819-12.844l12.82,12.844l-12.82,12.844L128.288,705.842z M132.297,705.845l8.81,8.827
				l8.81-8.827l-8.81-8.827L132.297,705.845z"/>
		</g>
		<g>
			<path class="st0" d="M102.641,705.842l12.819-12.844l12.819,12.844l-12.819,12.844L102.641,705.842z M106.65,705.845l8.81,8.827
				l8.81-8.827l-8.81-8.827L106.65,705.845z"/>
		</g>
		<g>
			<path class="st0" d="M76.993,705.842l12.819-12.844l12.819,12.844l-12.819,12.844L76.993,705.842z M81.002,705.845l8.81,8.827
				l8.81-8.827l-8.81-8.827L81.002,705.845z"/>
		</g>
		<g>
			<path class="st0" d="M51.346,705.842l12.819-12.844l12.819,12.844l-12.819,12.844L51.346,705.842z M55.355,705.845l8.81,8.827
				l8.81-8.827l-8.81-8.827L55.355,705.845z"/>
		</g>
		<g>
			<path class="st0" d="M25.698,705.842l12.819-12.844l12.819,12.844l-12.819,12.844L25.698,705.842z M29.708,705.845l8.81,8.827
				l8.81-8.827l-8.81-8.827L29.708,705.845z"/>
		</g>
		<g>
			<path class="st0" d="M25.688,12.848L12.845,25.691L0,12.848L12.845,0.004L25.688,12.848z M21.672,12.845l-8.827-8.827
				l-8.827,8.827l8.827,8.827L21.672,12.845z"/>
		</g>
		<g>
			<path class="st0" d="M525.842,25.688l-12.844-12.844L525.842,0l12.844,12.845L525.842,25.688z M525.845,21.672l8.827-8.827
				l-8.827-8.827l-8.827,8.827L525.845,21.672z"/>
		</g>
		<g>
			<path class="st0" d="M513.001,705.842l12.844-12.844l12.845,12.844l-12.845,12.844L513.001,705.842z M517.018,705.845
				l8.827,8.827l8.827-8.827l-8.827-8.827L517.018,705.845z"/>
		</g>
		<g>
			<path class="st0" d="M12.848,693.001l12.844,12.844l-12.844,12.845L0.004,705.845L12.848,693.001z M12.845,697.018l-8.827,8.827
				l8.827,8.827l8.827-8.827L12.845,697.018z"/>
		</g>
	</g>
</g>
</svg>
