<?xml version="1.0" encoding="utf-8"?>
<!-- Generator: Adobe Illustrator 14.0.0, SVG Export Plug-In . SVG Version: 6.00 Build 43363)  -->
<!DOCTYPE svg PUBLIC "-//W3C//DTD SVG 1.1//EN" "http://www.w3.org/Graphics/SVG/1.1/DTD/svg11.dtd">
<svg version="1.1" id="Layer_1" xmlns="http://www.w3.org/2000/svg" xmlns:xlink="http://www.w3.org/1999/xlink" x="0px" y="0px"
	 width="530.494px" height="710.494px" viewBox="0 0 530.494 710.494" style="enable-background:new 0 0 530.494 710.494;"
	 xml:space="preserve">
<style type="text/css">
<![CDATA[
	.st0{fill-rule:evenodd;clip-rule:evenodd;fill:none;stroke:#090D0A;stroke-width:1.5;}
	.st1{fill:#090D0A;}
]]>
</style>
<g>
	<g>
		<g>
			<line class="st0" x1="8.747" y1="689.274" x2="8.747" y2="608.562"/>
			<g>
				<path class="st1" d="M8.747,640.812c-0.435-0.979-1.173-1.267-1.673-0.687c-0.905,0.98-0.735,2.483-0.439,2.902
					c-0.472-0.077-0.845,0.596-0.985,1.117c-0.182,0.683-0.251,1.428,0.617,2.12c1.316,0.825,1.899,2.176,1.706,3.713
					c0.257,0.064,0.515,0.081,0.775,0.056c0.26,0.025,0.519,0.009,0.775-0.056c-0.193-1.537,0.39-2.888,1.706-3.713
					c0.868-0.692,0.799-1.438,0.617-2.12c-0.14-0.521-0.513-1.194-0.985-1.117c0.295-0.419,0.465-1.922-0.44-2.902
					C9.92,639.545,9.182,639.833,8.747,640.812z"/>
			</g>
			<g>
				<g>
					<path class="st1" d="M8.83,690.272c0.167,1.648,0.583,3.219,1.602,2.583c0.653-0.407,0.273-1.963,0.005-2.477
						c0.183,0.35,0.729,0.759,1.111,0.379c0.543-0.478,0.136-2.043-0.613-4.031c-1.452-3.165-1.537-5.768-1.159-7.821
						c0.419,3.403,2.477,5.359,3.463,4.411c1.222-1.07,0.735-3.307,0.222-4.025c0.728,0.293,1.19-0.536,1.323-1.235
						c0.172-0.915,0.162-1.964-1.255-3.294c-2.618-2.092-2.741-3.54-3.172-4.652c-0.434-1.142,0.287-1.537,0.534-0.547
						c1.29,3.199,2.452,3.311,3.163,3.131c0.723-0.198,1.146-1.677,0.697-2.702c1.339,0.489,2.243,0.169,2.656-1.479
						c0.424-2.115-0.756-3.17-2.649-3.367c1.094-0.914,0.511-2.862-1.26-2.958c-2.6-0.19-2.744-0.885-3.5-1.73
						c-0.751-0.84-0.672-1.881-0.079-1.113c1.421,1.717,3.001,1.574,3.334,0.475c0.362-1.1,0.142-1.966-0.767-2.912
						c1.131-0.532,1.052-2.744-0.724-2.636c-2.954-0.317-3.369-2.41-3.323-3.033"/>
				</g>
				<g>
					<path class="st1" d="M8.664,690.272c-0.167,1.648-0.583,3.219-1.602,2.583c-0.653-0.407-0.273-1.963-0.005-2.477
						c-0.183,0.35-0.729,0.759-1.111,0.379c-0.543-0.478-0.136-2.043,0.613-4.031c1.452-3.165,1.537-5.768,1.159-7.821
						c-0.419,3.403-2.477,5.359-3.463,4.411c-1.222-1.07-0.735-3.307-0.222-4.025c-0.728,0.293-1.189-0.536-1.323-1.235
						c-0.172-0.915-0.162-1.964,1.254-3.294c2.619-2.092,2.742-3.54,3.173-4.652c0.434-1.142-0.287-1.537-0.534-0.547
						c-1.291,3.199-2.452,3.311-3.163,3.131c-0.723-0.198-1.146-1.677-0.697-2.702c-1.339,0.489-2.243,0.169-2.656-1.479
						c-0.424-2.115,0.756-3.17,2.649-3.367c-1.095-0.914-0.511-2.862,1.26-2.958c2.6-0.19,2.744-0.885,3.501-1.73
						c0.75-0.84,0.671-1.881,0.078-1.113c-1.421,1.717-3.002,1.574-3.334,0.475c-0.362-1.1-0.142-1.966,0.767-2.912
						c-1.131-0.532-1.052-2.744,0.724-2.636c2.954-0.317,3.369-2.41,3.323-3.033"/>
				</g>
			</g>
		</g>
		<g>
			<line class="st0" x1="8.747" y1="604.836" x2="8.747" y2="524.123"/>
			<g>
				<path class="st1" d="M8.747,556.373c-0.435-0.979-1.173-1.266-1.673-0.687c-0.905,0.981-0.735,2.483-0.439,2.902
					c-0.472-0.077-0.845,0.596-0.985,1.118c-0.182,0.683-0.251,1.427,0.617,2.119c1.316,0.825,1.899,2.176,1.706,3.713
					c0.257,0.064,0.515,0.081,0.775,0.057c0.26,0.024,0.519,0.008,0.775-0.057c-0.193-1.537,0.39-2.888,1.706-3.713
					c0.868-0.692,0.799-1.437,0.617-2.119c-0.14-0.522-0.513-1.195-0.985-1.118c0.295-0.419,0.465-1.921-0.44-2.902
					C9.92,555.107,9.182,555.395,8.747,556.373z"/>
			</g>
			<g>
				<g>
					<path class="st1" d="M8.83,605.834c0.167,1.648,0.583,3.219,1.602,2.583c0.653-0.407,0.273-1.962,0.005-2.476
						c0.183,0.35,0.729,0.758,1.111,0.378c0.543-0.478,0.136-2.043-0.613-4.031c-1.452-3.165-1.537-5.767-1.159-7.821
						c0.419,3.403,2.477,5.359,3.463,4.411c1.222-1.069,0.735-3.307,0.222-4.025c0.728,0.294,1.19-0.536,1.323-1.234
						c0.172-0.916,0.162-1.965-1.255-3.295c-2.618-2.092-2.741-3.54-3.172-4.651c-0.434-1.142,0.287-1.537,0.534-0.548
						c1.29,3.2,2.452,3.311,3.163,3.132c0.723-0.199,1.146-1.678,0.697-2.703c1.339,0.489,2.243,0.169,2.656-1.479
						c0.424-2.115-0.756-3.17-2.649-3.367c1.094-0.914,0.511-2.862-1.26-2.958c-2.6-0.19-2.744-0.885-3.5-1.729
						c-0.751-0.841-0.672-1.882-0.079-1.114c1.421,1.717,3.001,1.574,3.334,0.476c0.362-1.101,0.142-1.967-0.767-2.913
						c1.131-0.532,1.052-2.743-0.724-2.636c-2.954-0.316-3.369-2.409-3.323-3.033"/>
				</g>
				<g>
					<path class="st1" d="M8.664,605.834c-0.167,1.648-0.583,3.219-1.602,2.583c-0.653-0.407-0.273-1.962-0.005-2.476
						c-0.183,0.35-0.729,0.758-1.111,0.378c-0.543-0.478-0.136-2.043,0.613-4.031c1.452-3.165,1.537-5.767,1.159-7.821
						c-0.419,3.403-2.477,5.359-3.463,4.411c-1.222-1.069-0.735-3.307-0.222-4.025c-0.728,0.294-1.189-0.536-1.323-1.234
						c-0.172-0.916-0.162-1.965,1.254-3.295c2.619-2.092,2.742-3.54,3.173-4.651c0.434-1.142-0.287-1.537-0.534-0.548
						c-1.291,3.2-2.452,3.311-3.163,3.132c-0.723-0.199-1.146-1.678-0.697-2.703c-1.339,0.489-2.243,0.169-2.656-1.479
						c-0.424-2.115,0.756-3.17,2.649-3.367c-1.095-0.914-0.511-2.862,1.26-2.958c2.6-0.19,2.744-0.885,3.501-1.729
						c0.75-0.841,0.671-1.882,0.078-1.114c-1.421,1.717-3.002,1.574-3.334,0.476c-0.362-1.101-0.142-1.967,0.767-2.913
						c-1.131-0.532-1.052-2.743,0.724-2.636c2.954-0.316,3.369-2.409,3.323-3.033"/>
				</g>
			</g>
		</g>
		<g>
			<line class="st0" x1="8.747" y1="520.398" x2="8.747" y2="439.686"/>
			<g>
				<path class="st1" d="M8.747,471.935c-0.435-0.978-1.173-1.266-1.673-0.687c-0.905,0.981-0.735,2.484-0.439,2.903
					c-0.472-0.078-0.845,0.596-0.985,1.117c-0.182,0.683-0.251,1.427,0.617,2.12c1.316,0.824,1.899,2.175,1.706,3.713
					c0.257,0.063,0.515,0.081,0.775,0.056c0.26,0.025,0.519,0.008,0.775-0.056c-0.193-1.538,0.39-2.889,1.706-3.713
					c0.868-0.693,0.799-1.438,0.617-2.12c-0.14-0.521-0.513-1.195-0.985-1.117c0.295-0.419,0.465-1.922-0.44-2.903
					C9.92,470.669,9.182,470.957,8.747,471.935z"/>
			</g>
			<g>
				<g>
					<path class="st1" d="M8.83,521.396c0.167,1.648,0.583,3.219,1.602,2.583c0.653-0.406,0.273-1.962,0.005-2.476
						c0.183,0.35,0.729,0.759,1.111,0.378c0.543-0.477,0.136-2.043-0.613-4.03c-1.452-3.166-1.537-5.768-1.159-7.821
						c0.419,3.403,2.477,5.358,3.463,4.411c1.222-1.07,0.735-3.308,0.222-4.026c0.728,0.294,1.19-0.535,1.323-1.234
						c0.172-0.916,0.162-1.965-1.255-3.294c-2.618-2.093-2.741-3.54-3.172-4.652c-0.434-1.142,0.287-1.537,0.534-0.547
						c1.29,3.199,2.452,3.31,3.163,3.131c0.723-0.198,1.146-1.678,0.697-2.703c1.339,0.49,2.243,0.17,2.656-1.479
						c0.424-2.116-0.756-3.17-2.649-3.368c1.094-0.913,0.511-2.862-1.26-2.958c-2.6-0.189-2.744-0.885-3.5-1.729
						c-0.751-0.84-0.672-1.882-0.079-1.114c1.421,1.718,3.001,1.574,3.334,0.476c0.362-1.1,0.142-1.967-0.767-2.912
						c1.131-0.533,1.052-2.744-0.724-2.637c-2.954-0.316-3.369-2.409-3.323-3.033"/>
				</g>
				<g>
					<path class="st1" d="M8.664,521.396c-0.167,1.648-0.583,3.219-1.602,2.583c-0.653-0.406-0.273-1.962-0.005-2.476
						c-0.183,0.35-0.729,0.759-1.111,0.378c-0.543-0.477-0.136-2.043,0.613-4.03c1.452-3.166,1.537-5.768,1.159-7.821
						c-0.419,3.403-2.477,5.358-3.463,4.411c-1.222-1.07-0.735-3.308-0.222-4.026c-0.728,0.294-1.189-0.535-1.323-1.234
						c-0.172-0.916-0.162-1.965,1.254-3.294c2.619-2.093,2.742-3.54,3.173-4.652c0.434-1.142-0.287-1.537-0.534-0.547
						c-1.291,3.199-2.452,3.31-3.163,3.131c-0.723-0.198-1.146-1.678-0.697-2.703c-1.339,0.49-2.243,0.17-2.656-1.479
						c-0.424-2.116,0.756-3.17,2.649-3.368c-1.095-0.913-0.511-2.862,1.26-2.958c2.6-0.189,2.744-0.885,3.501-1.729
						c0.75-0.84,0.671-1.882,0.078-1.114c-1.421,1.718-3.002,1.574-3.334,0.476c-0.362-1.1-0.142-1.967,0.767-2.912
						c-1.131-0.533-1.052-2.744,0.724-2.637c2.954-0.316,3.369-2.409,3.323-3.033"/>
				</g>
			</g>
		</g>
		<g>
			<line class="st0" x1="8.747" y1="435.96" x2="8.747" y2="355.247"/>
			<g>
				<path class="st1" d="M8.747,387.497c-0.435-0.979-1.173-1.267-1.673-0.687c-0.905,0.98-0.735,2.483-0.439,2.902
					c-0.472-0.078-0.845,0.596-0.985,1.117c-0.182,0.683-0.251,1.427,0.617,2.12c1.316,0.824,1.899,2.176,1.706,3.713
					c0.257,0.064,0.515,0.081,0.775,0.056c0.26,0.025,0.519,0.009,0.775-0.056c-0.193-1.537,0.39-2.889,1.706-3.713
					c0.868-0.693,0.799-1.438,0.617-2.12c-0.14-0.521-0.513-1.195-0.985-1.117c0.295-0.419,0.465-1.922-0.44-2.902
					C9.92,386.23,9.182,386.519,8.747,387.497z"/>
			</g>
			<g>
				<g>
					<path class="st1" d="M8.83,436.958c0.167,1.648,0.583,3.218,1.602,2.583c0.653-0.407,0.273-1.963,0.005-2.477
						c0.183,0.35,0.729,0.759,1.111,0.379c0.543-0.478,0.136-2.044-0.613-4.031c-1.452-3.166-1.537-5.768-1.159-7.821
						c0.419,3.403,2.477,5.359,3.463,4.411c1.222-1.07,0.735-3.307,0.222-4.025c0.728,0.293,1.19-0.536,1.323-1.235
						c0.172-0.915,0.162-1.964-1.255-3.294c-2.618-2.092-2.741-3.54-3.172-4.652c-0.434-1.142,0.287-1.537,0.534-0.547
						c1.29,3.199,2.452,3.311,3.163,3.131c0.723-0.198,1.146-1.677,0.697-2.702c1.339,0.489,2.243,0.169,2.656-1.479
						c0.424-2.115-0.756-3.17-2.649-3.367c1.094-0.914,0.511-2.862-1.26-2.959c-2.6-0.189-2.744-0.884-3.5-1.729
						c-0.751-0.84-0.672-1.881-0.079-1.113c1.421,1.717,3.001,1.574,3.334,0.475c0.362-1.1,0.142-1.966-0.767-2.912
						c1.131-0.532,1.052-2.744-0.724-2.636c-2.954-0.317-3.369-2.41-3.323-3.033"/>
				</g>
				<g>
					<path class="st1" d="M8.664,436.958c-0.167,1.648-0.583,3.218-1.602,2.583c-0.653-0.407-0.273-1.963-0.005-2.477
						c-0.183,0.35-0.729,0.759-1.111,0.379c-0.543-0.478-0.136-2.044,0.613-4.031c1.452-3.166,1.537-5.768,1.159-7.821
						c-0.419,3.403-2.477,5.359-3.463,4.411c-1.222-1.07-0.735-3.307-0.222-4.025c-0.728,0.293-1.189-0.536-1.323-1.235
						c-0.172-0.915-0.162-1.964,1.254-3.294c2.619-2.092,2.742-3.54,3.173-4.652c0.434-1.142-0.287-1.537-0.534-0.547
						c-1.291,3.199-2.452,3.311-3.163,3.131c-0.723-0.198-1.146-1.677-0.697-2.702c-1.339,0.489-2.243,0.169-2.656-1.479
						c-0.424-2.115,0.756-3.17,2.649-3.367c-1.095-0.914-0.511-2.862,1.26-2.959c2.6-0.189,2.744-0.884,3.501-1.729
						c0.75-0.84,0.671-1.881,0.078-1.113c-1.421,1.717-3.002,1.574-3.334,0.475c-0.362-1.1-0.142-1.966,0.767-2.912
						c-1.131-0.532-1.052-2.744,0.724-2.636c2.954-0.317,3.369-2.41,3.323-3.033"/>
				</g>
			</g>
		</g>
		<g>
			<line class="st0" x1="8.747" y1="351.522" x2="8.747" y2="270.809"/>
			<g>
				<path class="st1" d="M8.747,303.059c-0.435-0.978-1.173-1.266-1.673-0.687c-0.905,0.981-0.735,2.484-0.439,2.903
					c-0.472-0.078-0.845,0.595-0.985,1.117c-0.182,0.683-0.251,1.427,0.617,2.12c1.316,0.825,1.899,2.175,1.706,3.713
					c0.257,0.064,0.515,0.081,0.775,0.056c0.26,0.025,0.519,0.008,0.775-0.056c-0.193-1.538,0.39-2.888,1.706-3.713
					c0.868-0.693,0.799-1.438,0.617-2.12c-0.14-0.522-0.513-1.195-0.985-1.117c0.295-0.419,0.465-1.922-0.44-2.903
					C9.92,301.792,9.182,302.081,8.747,303.059z"/>
			</g>
			<g>
				<g>
					<path class="st1" d="M8.83,352.52c0.167,1.648,0.583,3.219,1.602,2.583c0.653-0.407,0.273-1.962,0.005-2.476
						c0.183,0.35,0.729,0.759,1.111,0.378c0.543-0.478,0.136-2.043-0.613-4.031c-1.452-3.166-1.537-5.768-1.159-7.822
						c0.419,3.404,2.477,5.359,3.463,4.411c1.222-1.07,0.735-3.307,0.222-4.025c0.728,0.293,1.19-0.536,1.323-1.235
						c0.172-0.916,0.162-1.964-1.255-3.294c-2.618-2.092-2.741-3.54-3.172-4.652c-0.434-1.142,0.287-1.537,0.534-0.547
						c1.29,3.2,2.452,3.311,3.163,3.131c0.723-0.199,1.146-1.677,0.697-2.703c1.339,0.489,2.243,0.169,2.656-1.479
						c0.424-2.116-0.756-3.17-2.649-3.368c1.094-0.914,0.511-2.862-1.26-2.958c-2.6-0.19-2.744-0.885-3.5-1.73
						c-0.751-0.84-0.672-1.881-0.079-1.114c1.421,1.717,3.001,1.574,3.334,0.475c0.362-1.1,0.142-1.966-0.767-2.913
						c1.131-0.532,1.052-2.744-0.724-2.636c-2.954-0.317-3.369-2.41-3.323-3.033"/>
				</g>
				<g>
					<path class="st1" d="M8.664,352.52c-0.167,1.648-0.583,3.219-1.602,2.583c-0.653-0.407-0.273-1.962-0.005-2.476
						c-0.183,0.35-0.729,0.759-1.111,0.378c-0.543-0.478-0.136-2.043,0.613-4.031c1.452-3.166,1.537-5.768,1.159-7.822
						c-0.419,3.404-2.477,5.359-3.463,4.411c-1.222-1.07-0.735-3.307-0.222-4.025c-0.728,0.293-1.189-0.536-1.323-1.235
						c-0.172-0.916-0.162-1.964,1.254-3.294c2.619-2.092,2.742-3.54,3.173-4.652c0.434-1.142-0.287-1.537-0.534-0.547
						c-1.291,3.2-2.452,3.311-3.163,3.131c-0.723-0.199-1.146-1.677-0.697-2.703c-1.339,0.489-2.243,0.169-2.656-1.479
						c-0.424-2.116,0.756-3.17,2.649-3.368c-1.095-0.914-0.511-2.862,1.26-2.958c2.6-0.19,2.744-0.885,3.501-1.73
						c0.75-0.84,0.671-1.881,0.078-1.114c-1.421,1.717-3.002,1.574-3.334,0.475c-0.362-1.1-0.142-1.966,0.767-2.913
						c-1.131-0.532-1.052-2.744,0.724-2.636c2.954-0.317,3.369-2.41,3.323-3.033"/>
				</g>
			</g>
		</g>
		<g>
			<line class="st0" x1="8.747" y1="267.083" x2="8.747" y2="186.371"/>
			<g>
				<path class="st1" d="M8.747,218.621c-0.435-0.979-1.173-1.266-1.673-0.687c-0.905,0.981-0.735,2.483-0.439,2.902
					c-0.472-0.078-0.845,0.596-0.985,1.118c-0.182,0.683-0.251,1.427,0.617,2.12c1.316,0.824,1.899,2.175,1.706,3.712
					c0.257,0.064,0.515,0.081,0.775,0.056c0.26,0.025,0.519,0.008,0.775-0.056c-0.193-1.537,0.39-2.888,1.706-3.712
					c0.868-0.693,0.799-1.438,0.617-2.12c-0.14-0.522-0.513-1.195-0.985-1.118c0.295-0.419,0.465-1.921-0.44-2.902
					C9.92,217.354,9.182,217.642,8.747,218.621z"/>
			</g>
			<g>
				<g>
					<path class="st1" d="M8.83,268.081c0.167,1.648,0.583,3.219,1.602,2.583c0.653-0.407,0.273-1.962,0.005-2.476
						c0.183,0.35,0.729,0.758,1.111,0.378c0.543-0.478,0.136-2.043-0.613-4.031c-1.452-3.166-1.537-5.767-1.159-7.821
						c0.419,3.403,2.477,5.359,3.463,4.411c1.222-1.07,0.735-3.307,0.222-4.025c0.728,0.293,1.19-0.536,1.323-1.235
						c0.172-0.916,0.162-1.965-1.255-3.294c-2.618-2.092-2.741-3.54-3.172-4.652c-0.434-1.142,0.287-1.537,0.534-0.547
						c1.29,3.2,2.452,3.31,3.163,3.131c0.723-0.199,1.146-1.677,0.697-2.703c1.339,0.489,2.243,0.169,2.656-1.479
						c0.424-2.115-0.756-3.17-2.649-3.367c1.094-0.914,0.511-2.862-1.26-2.958c-2.6-0.19-2.744-0.885-3.5-1.729
						c-0.751-0.84-0.672-1.882-0.079-1.114c1.421,1.717,3.001,1.574,3.334,0.475c0.362-1.1,0.142-1.967-0.767-2.913
						c1.131-0.533,1.052-2.744-0.724-2.636c-2.954-0.316-3.369-2.409-3.323-3.033"/>
				</g>
				<g>
					<path class="st1" d="M8.664,268.081c-0.167,1.648-0.583,3.219-1.602,2.583c-0.653-0.407-0.273-1.962-0.005-2.476
						c-0.183,0.35-0.729,0.758-1.111,0.378c-0.543-0.478-0.136-2.043,0.613-4.031c1.452-3.166,1.537-5.767,1.159-7.821
						c-0.419,3.403-2.477,5.359-3.463,4.411c-1.222-1.07-0.735-3.307-0.222-4.025c-0.728,0.293-1.189-0.536-1.323-1.235
						c-0.172-0.916-0.162-1.965,1.254-3.294c2.619-2.092,2.742-3.54,3.173-4.652c0.434-1.142-0.287-1.537-0.534-0.547
						c-1.291,3.2-2.452,3.31-3.163,3.131c-0.723-0.199-1.146-1.677-0.697-2.703c-1.339,0.489-2.243,0.169-2.656-1.479
						c-0.424-2.115,0.756-3.17,2.649-3.367c-1.095-0.914-0.511-2.862,1.26-2.958c2.6-0.19,2.744-0.885,3.501-1.729
						c0.75-0.84,0.671-1.882,0.078-1.114c-1.421,1.717-3.002,1.574-3.334,0.475c-0.362-1.1-0.142-1.967,0.767-2.913
						c-1.131-0.533-1.052-2.744,0.724-2.636c2.954-0.316,3.369-2.409,3.323-3.033"/>
				</g>
			</g>
		</g>
		<g>
			<line class="st0" x1="8.747" y1="182.646" x2="8.747" y2="101.933"/>
			<g>
				<path class="st1" d="M8.747,134.182c-0.435-0.978-1.173-1.266-1.673-0.687c-0.905,0.981-0.735,2.484-0.439,2.903
					c-0.472-0.078-0.845,0.596-0.985,1.117c-0.182,0.683-0.251,1.427,0.617,2.12c1.316,0.825,1.899,2.175,1.706,3.713
					c0.257,0.064,0.515,0.081,0.775,0.056c0.26,0.025,0.519,0.008,0.775-0.056c-0.193-1.538,0.39-2.888,1.706-3.713
					c0.868-0.693,0.799-1.438,0.617-2.12c-0.14-0.521-0.513-1.195-0.985-1.117c0.295-0.419,0.465-1.922-0.44-2.903
					C9.92,132.917,9.182,133.204,8.747,134.182z"/>
			</g>
			<g>
				<g>
					<path class="st1" d="M8.83,183.643c0.167,1.648,0.583,3.219,1.602,2.583c0.653-0.407,0.273-1.962,0.005-2.476
						c0.183,0.35,0.729,0.759,1.111,0.378c0.543-0.477,0.136-2.043-0.613-4.031c-1.452-3.166-1.537-5.767-1.159-7.821
						c0.419,3.403,2.477,5.359,3.463,4.411c1.222-1.07,0.735-3.307,0.222-4.025c0.728,0.293,1.19-0.536,1.323-1.235
						c0.172-0.916,0.162-1.965-1.255-3.294c-2.618-2.092-2.741-3.54-3.172-4.652c-0.434-1.142,0.287-1.537,0.534-0.547
						c1.29,3.2,2.452,3.31,3.163,3.131c0.723-0.198,1.146-1.677,0.697-2.703c1.339,0.49,2.243,0.169,2.656-1.479
						c0.424-2.116-0.756-3.17-2.649-3.368c1.094-0.914,0.511-2.862-1.26-2.958c-2.6-0.19-2.744-0.885-3.5-1.73
						c-0.751-0.84-0.672-1.881-0.079-1.114c1.421,1.717,3.001,1.574,3.334,0.475c0.362-1.1,0.142-1.966-0.767-2.912
						c1.131-0.533,1.052-2.744-0.724-2.636c-2.954-0.316-3.369-2.41-3.323-3.033"/>
				</g>
				<g>
					<path class="st1" d="M8.664,183.643c-0.167,1.648-0.583,3.219-1.602,2.583c-0.653-0.407-0.273-1.962-0.005-2.476
						c-0.183,0.35-0.729,0.759-1.111,0.378c-0.543-0.477-0.136-2.043,0.613-4.031c1.452-3.166,1.537-5.767,1.159-7.821
						c-0.419,3.403-2.477,5.359-3.463,4.411c-1.222-1.07-0.735-3.307-0.222-4.025c-0.728,0.293-1.189-0.536-1.323-1.235
						c-0.172-0.916-0.162-1.965,1.254-3.294c2.619-2.092,2.742-3.54,3.173-4.652c0.434-1.142-0.287-1.537-0.534-0.547
						c-1.291,3.2-2.452,3.31-3.163,3.131c-0.723-0.198-1.146-1.677-0.697-2.703c-1.339,0.49-2.243,0.169-2.656-1.479
						c-0.424-2.116,0.756-3.17,2.649-3.368c-1.095-0.914-0.511-2.862,1.26-2.958c2.6-0.19,2.744-0.885,3.501-1.73
						c0.75-0.84,0.671-1.881,0.078-1.114c-1.421,1.717-3.002,1.574-3.334,0.475c-0.362-1.1-0.142-1.966,0.767-2.912
						c-1.131-0.533-1.052-2.744,0.724-2.636c2.954-0.316,3.369-2.41,3.323-3.033"/>
				</g>
			</g>
		</g>
		<g>
			<line class="st0" x1="8.747" y1="98.207" x2="8.747" y2="17.494"/>
			<g>
				<path class="st1" d="M8.747,49.744c-0.435-0.978-1.173-1.266-1.673-0.687c-0.905,0.981-0.735,2.483-0.439,2.902
					c-0.472-0.077-0.845,0.596-0.985,1.118c-0.182,0.683-0.251,1.427,0.617,2.12c1.316,0.824,1.899,2.175,1.706,3.712
					c0.257,0.064,0.515,0.082,0.775,0.056c0.26,0.025,0.519,0.008,0.775-0.056c-0.193-1.537,0.39-2.888,1.706-3.712
					c0.868-0.693,0.799-1.438,0.617-2.12c-0.14-0.522-0.513-1.195-0.985-1.118c0.295-0.419,0.465-1.921-0.44-2.902
					C9.92,48.478,9.182,48.766,8.747,49.744z"/>
			</g>
			<g>
				<g>
					<path class="st1" d="M8.83,99.205c0.167,1.648,0.583,3.218,1.602,2.583c0.653-0.407,0.273-1.962,0.005-2.476
						c0.183,0.35,0.729,0.759,1.111,0.378c0.543-0.478,0.136-2.043-0.613-4.031c-1.452-3.166-1.537-5.768-1.159-7.822
						c0.419,3.404,2.477,5.359,3.463,4.411c1.222-1.07,0.735-3.307,0.222-4.025c0.728,0.293,1.19-0.536,1.323-1.235
						c0.172-0.916,0.162-1.964-1.255-3.294c-2.618-2.092-2.741-3.54-3.172-4.652c-0.434-1.142,0.287-1.537,0.534-0.547
						c1.29,3.2,2.452,3.311,3.163,3.131c0.723-0.199,1.146-1.677,0.697-2.703c1.339,0.489,2.243,0.169,2.656-1.479
						c0.424-2.116-0.756-3.17-2.649-3.368c1.094-0.914,0.511-2.862-1.26-2.958c-2.6-0.19-2.744-0.884-3.5-1.729
						c-0.751-0.84-0.672-1.881-0.079-1.114c1.421,1.717,3.001,1.574,3.334,0.475c0.362-1.1,0.142-1.966-0.767-2.913
						c1.131-0.532,1.052-2.744-0.724-2.636c-2.954-0.317-3.369-2.41-3.323-3.033"/>
				</g>
				<g>
					<path class="st1" d="M8.664,99.205c-0.167,1.648-0.583,3.218-1.602,2.583c-0.653-0.407-0.273-1.962-0.005-2.476
						c-0.183,0.35-0.729,0.759-1.111,0.378c-0.543-0.478-0.136-2.043,0.613-4.031c1.452-3.166,1.537-5.768,1.159-7.822
						c-0.419,3.404-2.477,5.359-3.463,4.411c-1.222-1.07-0.735-3.307-0.222-4.025c-0.728,0.293-1.189-0.536-1.323-1.235
						c-0.172-0.916-0.162-1.964,1.254-3.294c2.619-2.092,2.742-3.54,3.173-4.652c0.434-1.142-0.287-1.537-0.534-0.547
						c-1.291,3.2-2.452,3.311-3.163,3.131c-0.723-0.199-1.146-1.677-0.697-2.703c-1.339,0.489-2.243,0.169-2.656-1.479
						c-0.424-2.116,0.756-3.17,2.649-3.368c-1.095-0.914-0.511-2.862,1.26-2.958c2.6-0.19,2.744-0.884,3.501-1.729
						c0.75-0.84,0.671-1.881,0.078-1.114C6.153,69.993,4.572,69.85,4.24,68.75c-0.362-1.1-0.142-1.966,0.767-2.913
						c-1.131-0.532-1.052-2.744,0.724-2.636c2.954-0.317,3.369-2.41,3.323-3.033"/>
				</g>
			</g>
		</g>
		<g>
			<line class="st0" x1="21.138" y1="8.747" x2="100.079" y2="8.747"/>
			<g>
				<path class="st1" d="M68.537,8.747c0.957-0.435,1.238-1.173,0.671-1.673c-0.959-0.905-2.429-0.735-2.839-0.439
					c0.076-0.472-0.583-0.845-1.093-0.985c-0.668-0.182-1.396-0.251-2.074,0.617c-0.806,1.316-2.127,1.899-3.631,1.706
					c-0.063,0.257-0.079,0.515-0.055,0.775c-0.024,0.26-0.008,0.519,0.055,0.775c1.504-0.193,2.825,0.39,3.631,1.706
					c0.678,0.868,1.406,0.799,2.074,0.617c0.51-0.14,1.168-0.513,1.093-0.985c0.41,0.295,1.879,0.465,2.839-0.44
					C69.775,9.92,69.494,9.182,68.537,8.747z"/>
			</g>
			<g>
				<g>
					<path class="st1" d="M20.162,8.83c-1.612,0.167-3.148,0.583-2.526,1.602c0.398,0.653,1.919,0.273,2.422,0.005
						c-0.342,0.183-0.742,0.729-0.37,1.111c0.467,0.543,1.998,0.136,3.942-0.613c3.096-1.452,5.641-1.537,7.649-1.159
						c-3.329,0.419-5.241,2.477-4.314,3.463c1.046,1.222,3.234,0.735,3.937,0.222c-0.287,0.728,0.524,1.19,1.208,1.323
						c0.896,0.172,1.921,0.162,3.222-1.255c2.046-2.618,3.462-2.741,4.55-3.172c1.117-0.434,1.503,0.287,0.535,0.534
						c-3.129,1.29-3.237,2.452-3.063,3.163c0.194,0.723,1.641,1.146,2.644,0.697c-0.479,1.339-0.166,2.243,1.447,2.656
						c2.069,0.424,3.1-0.756,3.293-2.649c0.894,1.094,2.799,0.511,2.893-1.26c0.186-2.6,0.865-2.744,1.692-3.5
						c0.822-0.751,1.84-0.672,1.089-0.079c-1.679,1.421-1.54,3.001-0.465,3.334c1.076,0.362,1.923,0.142,2.849-0.767
						c0.521,1.131,2.684,1.052,2.578-0.724c0.31-2.954,2.357-3.369,2.967-3.323"/>
				</g>
				<g>
					<path class="st1" d="M20.162,8.664c-1.612-0.167-3.148-0.583-2.526-1.602c0.398-0.653,1.919-0.273,2.422-0.005
						c-0.342-0.183-0.742-0.729-0.37-1.111c0.467-0.543,1.998-0.136,3.942,0.613c3.096,1.452,5.641,1.537,7.649,1.159
						c-3.329-0.419-5.241-2.477-4.314-3.463c1.046-1.222,3.234-0.735,3.937-0.222c-0.287-0.728,0.524-1.189,1.208-1.323
						c0.896-0.172,1.921-0.162,3.222,1.254c2.046,2.619,3.462,2.742,4.55,3.173c1.117,0.434,1.503-0.287,0.535-0.534
						c-3.129-1.291-3.237-2.452-3.063-3.163c0.194-0.723,1.641-1.146,2.644-0.697c-0.479-1.339-0.166-2.243,1.447-2.656
						c2.069-0.424,3.1,0.756,3.293,2.649c0.894-1.095,2.799-0.511,2.893,1.26c0.186,2.6,0.865,2.744,1.692,3.501
						c0.822,0.75,1.84,0.671,1.089,0.078c-1.679-1.421-1.54-3.002-0.465-3.334c1.076-0.362,1.923-0.142,2.849,0.767
						c0.521-1.131,2.684-1.052,2.578,0.724c0.31,2.954,2.357,3.369,2.967,3.323"/>
				</g>
			</g>
		</g>
		<g>
			<line class="st0" x1="103.722" y1="8.747" x2="182.663" y2="8.747"/>
			<g>
				<path class="st1" d="M151.121,8.747c0.957-0.435,1.238-1.173,0.671-1.673c-0.959-0.905-2.429-0.735-2.839-0.439
					c0.076-0.472-0.583-0.845-1.093-0.985c-0.667-0.182-1.396-0.251-2.073,0.617c-0.807,1.316-2.128,1.899-3.631,1.706
					c-0.063,0.257-0.08,0.515-0.055,0.775c-0.025,0.26-0.008,0.519,0.055,0.775c1.503-0.193,2.825,0.39,3.631,1.706
					c0.678,0.868,1.406,0.799,2.073,0.617c0.51-0.14,1.169-0.513,1.093-0.985c0.41,0.295,1.879,0.465,2.839-0.44
					C152.359,9.92,152.078,9.182,151.121,8.747z"/>
			</g>
			<g>
				<g>
					<path class="st1" d="M102.747,8.83c-1.612,0.167-3.148,0.583-2.527,1.602c0.398,0.653,1.919,0.273,2.422,0.005
						c-0.342,0.183-0.742,0.729-0.37,1.111c0.467,0.543,1.999,0.136,3.942-0.613c3.096-1.452,5.641-1.537,7.65-1.159
						c-3.329,0.419-5.242,2.477-4.314,3.463c1.047,1.222,3.234,0.735,3.937,0.222c-0.287,0.728,0.524,1.19,1.208,1.323
						c0.896,0.172,1.921,0.162,3.222-1.255c2.046-2.618,3.462-2.741,4.549-3.172c1.117-0.434,1.504,0.287,0.536,0.534
						c-3.129,1.29-3.238,2.452-3.063,3.163c0.194,0.723,1.641,1.146,2.643,0.697c-0.479,1.339-0.166,2.243,1.447,2.656
						c2.069,0.424,3.101-0.756,3.293-2.649c0.894,1.094,2.8,0.511,2.894-1.26c0.186-2.6,0.865-2.744,1.692-3.5
						c0.821-0.751,1.84-0.672,1.089-0.079c-1.68,1.421-1.54,3.001-0.465,3.334c1.076,0.362,1.923,0.142,2.849-0.767
						c0.521,1.131,2.683,1.052,2.578-0.724c0.31-2.954,2.356-3.369,2.966-3.323"/>
				</g>
				<g>
					<path class="st1" d="M102.747,8.664c-1.612-0.167-3.148-0.583-2.527-1.602c0.398-0.653,1.919-0.273,2.422-0.005
						c-0.342-0.183-0.742-0.729-0.37-1.111c0.467-0.543,1.999-0.136,3.942,0.613c3.096,1.452,5.641,1.537,7.65,1.159
						c-3.329-0.419-5.242-2.477-4.314-3.463c1.047-1.222,3.234-0.735,3.937-0.222c-0.287-0.728,0.524-1.189,1.208-1.323
						c0.896-0.172,1.921-0.162,3.222,1.254c2.046,2.619,3.462,2.742,4.549,3.173c1.117,0.434,1.504-0.287,0.536-0.534
						c-3.129-1.291-3.238-2.452-3.063-3.163c0.194-0.723,1.641-1.146,2.643-0.697c-0.479-1.339-0.166-2.243,1.447-2.656
						c2.069-0.424,3.101,0.756,3.293,2.649c0.894-1.095,2.8-0.511,2.894,1.26c0.186,2.6,0.865,2.744,1.692,3.501
						c0.821,0.75,1.84,0.671,1.089,0.078c-1.68-1.421-1.54-3.002-0.465-3.334c1.076-0.362,1.923-0.142,2.849,0.767
						c0.521-1.131,2.683-1.052,2.578,0.724c0.31,2.954,2.356,3.369,2.966,3.323"/>
				</g>
			</g>
		</g>
		<g>
			<line class="st0" x1="186.306" y1="8.747" x2="265.247" y2="8.747"/>
			<g>
				<path class="st1" d="M233.706,8.747c0.957-0.435,1.238-1.173,0.671-1.673c-0.959-0.905-2.429-0.735-2.839-0.439
					c0.076-0.472-0.583-0.845-1.093-0.985c-0.668-0.182-1.396-0.251-2.074,0.617c-0.806,1.316-2.127,1.899-3.631,1.706
					c-0.063,0.257-0.079,0.515-0.055,0.775c-0.024,0.26-0.008,0.519,0.055,0.775c1.504-0.193,2.825,0.39,3.631,1.706
					c0.678,0.868,1.406,0.799,2.074,0.617c0.51-0.14,1.168-0.513,1.093-0.985c0.41,0.295,1.879,0.465,2.839-0.44
					C234.943,9.92,234.662,9.182,233.706,8.747z"/>
			</g>
			<g>
				<g>
					<path class="st1" d="M185.331,8.83c-1.612,0.167-3.148,0.583-2.526,1.602c0.398,0.653,1.919,0.273,2.422,0.005
						c-0.342,0.183-0.742,0.729-0.37,1.111c0.467,0.543,1.998,0.136,3.942-0.613c3.096-1.452,5.641-1.537,7.649-1.159
						c-3.329,0.419-5.241,2.477-4.314,3.463c1.046,1.222,3.234,0.735,3.937,0.222c-0.287,0.728,0.524,1.19,1.208,1.323
						c0.896,0.172,1.921,0.162,3.222-1.255c2.046-2.618,3.462-2.741,4.55-3.172c1.117-0.434,1.503,0.287,0.535,0.534
						c-3.129,1.29-3.237,2.452-3.063,3.163c0.194,0.723,1.641,1.146,2.644,0.697c-0.479,1.339-0.166,2.243,1.447,2.656
						c2.069,0.424,3.1-0.756,3.293-2.649c0.894,1.094,2.799,0.511,2.893-1.26c0.186-2.6,0.865-2.744,1.692-3.5
						c0.822-0.751,1.84-0.672,1.089-0.079c-1.679,1.421-1.54,3.001-0.465,3.334c1.076,0.362,1.923,0.142,2.849-0.767
						c0.521,1.131,2.684,1.052,2.578-0.724c0.31-2.954,2.357-3.369,2.967-3.323"/>
				</g>
				<g>
					<path class="st1" d="M185.331,8.664c-1.612-0.167-3.148-0.583-2.526-1.602c0.398-0.653,1.919-0.273,2.422-0.005
						c-0.342-0.183-0.742-0.729-0.37-1.111c0.467-0.543,1.998-0.136,3.942,0.613c3.096,1.452,5.641,1.537,7.649,1.159
						c-3.329-0.419-5.241-2.477-4.314-3.463c1.046-1.222,3.234-0.735,3.937-0.222c-0.287-0.728,0.524-1.189,1.208-1.323
						c0.896-0.172,1.921-0.162,3.222,1.254c2.046,2.619,3.462,2.742,4.55,3.173c1.117,0.434,1.503-0.287,0.535-0.534
						c-3.129-1.291-3.237-2.452-3.063-3.163c0.194-0.723,1.641-1.146,2.644-0.697c-0.479-1.339-0.166-2.243,1.447-2.656
						c2.069-0.424,3.1,0.756,3.293,2.649c0.894-1.095,2.799-0.511,2.893,1.26c0.186,2.6,0.865,2.744,1.692,3.501
						c0.822,0.75,1.84,0.671,1.089,0.078c-1.679-1.421-1.54-3.002-0.465-3.334c1.076-0.362,1.923-0.142,2.849,0.767
						c0.521-1.131,2.684-1.052,2.578,0.724c0.31,2.954,2.357,3.369,2.967,3.323"/>
				</g>
			</g>
		</g>
		<g>
			<line class="st0" x1="268.891" y1="8.747" x2="347.831" y2="8.747"/>
			<g>
				<path class="st1" d="M316.29,8.747c0.956-0.435,1.238-1.173,0.671-1.673c-0.959-0.905-2.429-0.735-2.839-0.439
					c0.076-0.472-0.582-0.845-1.093-0.985c-0.668-0.182-1.396-0.251-2.073,0.617c-0.807,1.316-2.128,1.899-3.632,1.706
					c-0.063,0.257-0.079,0.515-0.055,0.775c-0.024,0.26-0.008,0.519,0.055,0.775c1.504-0.193,2.825,0.39,3.632,1.706
					c0.678,0.868,1.405,0.799,2.073,0.617c0.511-0.14,1.169-0.513,1.093-0.985c0.41,0.295,1.88,0.465,2.839-0.44
					C317.528,9.92,317.246,9.182,316.29,8.747z"/>
			</g>
			<g>
				<g>
					<path class="st1" d="M267.915,8.83c-1.612,0.167-3.148,0.583-2.527,1.602c0.398,0.653,1.919,0.273,2.422,0.005
						c-0.343,0.183-0.743,0.729-0.37,1.111c0.467,0.543,1.998,0.136,3.942-0.613c3.096-1.452,5.641-1.537,7.649-1.159
						c-3.329,0.419-5.241,2.477-4.314,3.463c1.047,1.222,3.234,0.735,3.938,0.222c-0.287,0.728,0.523,1.19,1.207,1.323
						c0.896,0.172,1.922,0.162,3.223-1.255c2.046-2.618,3.462-2.741,4.55-3.172c1.116-0.434,1.503,0.287,0.535,0.534
						c-3.13,1.29-3.237,2.452-3.063,3.163c0.194,0.723,1.641,1.146,2.644,0.697c-0.479,1.339-0.166,2.243,1.446,2.656
						c2.069,0.424,3.101-0.756,3.294-2.649c0.894,1.094,2.799,0.511,2.893-1.26c0.187-2.6,0.865-2.744,1.692-3.5
						c0.821-0.751,1.84-0.672,1.089-0.079c-1.679,1.421-1.539,3.001-0.465,3.334c1.076,0.362,1.924,0.142,2.849-0.767
						c0.521,1.131,2.684,1.052,2.578-0.724c0.31-2.954,2.357-3.369,2.967-3.323"/>
				</g>
				<g>
					<path class="st1" d="M267.915,8.664c-1.612-0.167-3.148-0.583-2.527-1.602c0.398-0.653,1.919-0.273,2.422-0.005
						c-0.343-0.183-0.743-0.729-0.37-1.111c0.467-0.543,1.998-0.136,3.942,0.613c3.096,1.452,5.641,1.537,7.649,1.159
						c-3.329-0.419-5.241-2.477-4.314-3.463c1.047-1.222,3.234-0.735,3.938-0.222c-0.287-0.728,0.523-1.189,1.207-1.323
						c0.896-0.172,1.922-0.162,3.223,1.254c2.046,2.619,3.462,2.742,4.55,3.173c1.116,0.434,1.503-0.287,0.535-0.534
						c-3.13-1.291-3.237-2.452-3.063-3.163c0.194-0.723,1.641-1.146,2.644-0.697c-0.479-1.339-0.166-2.243,1.446-2.656
						c2.069-0.424,3.101,0.756,3.294,2.649c0.894-1.095,2.799-0.511,2.893,1.26c0.187,2.6,0.865,2.744,1.692,3.501
						c0.821,0.75,1.84,0.671,1.089,0.078c-1.679-1.421-1.539-3.002-0.465-3.334c1.076-0.362,1.924-0.142,2.849,0.767
						c0.521-1.131,2.684-1.052,2.578,0.724c0.31,2.954,2.357,3.369,2.967,3.323"/>
				</g>
			</g>
		</g>
		<g>
			<line class="st0" x1="351.475" y1="8.747" x2="430.415" y2="8.747"/>
			<g>
				<path class="st1" d="M398.874,8.747c0.957-0.435,1.238-1.173,0.672-1.673c-0.96-0.905-2.43-0.735-2.84-0.439
					c0.076-0.472-0.582-0.845-1.093-0.985c-0.667-0.182-1.396-0.251-2.073,0.617c-0.807,1.316-2.128,1.899-3.631,1.706
					c-0.063,0.257-0.08,0.515-0.055,0.775c-0.025,0.26-0.008,0.519,0.055,0.775c1.503-0.193,2.824,0.39,3.631,1.706
					c0.678,0.868,1.406,0.799,2.073,0.617c0.511-0.14,1.169-0.513,1.093-0.985c0.41,0.295,1.88,0.465,2.84-0.44
					C400.112,9.92,399.831,9.182,398.874,8.747z"/>
			</g>
			<g>
				<g>
					<path class="st1" d="M350.499,8.83c-1.612,0.167-3.147,0.583-2.526,1.602c0.397,0.653,1.919,0.273,2.422,0.005
						c-0.342,0.183-0.742,0.729-0.37,1.111c0.467,0.543,1.998,0.136,3.942-0.613c3.096-1.452,5.641-1.537,7.649-1.159
						c-3.329,0.419-5.241,2.477-4.314,3.463c1.047,1.222,3.234,0.735,3.938,0.222c-0.287,0.728,0.524,1.19,1.208,1.323
						c0.896,0.172,1.921,0.162,3.222-1.255c2.046-2.618,3.462-2.741,4.55-3.172c1.116-0.434,1.504,0.287,0.535,0.534
						c-3.129,1.29-3.237,2.452-3.063,3.163c0.194,0.723,1.641,1.146,2.644,0.697c-0.479,1.339-0.166,2.243,1.446,2.656
						c2.069,0.424,3.101-0.756,3.294-2.649c0.894,1.094,2.8,0.511,2.894-1.26c0.186-2.6,0.865-2.744,1.691-3.5
						c0.821-0.751,1.84-0.672,1.09-0.079c-1.68,1.421-1.54,3.001-0.465,3.334c1.075,0.362,1.923,0.142,2.849-0.767
						c0.521,1.131,2.683,1.052,2.578-0.724c0.31-2.954,2.356-3.369,2.966-3.323"/>
				</g>
				<g>
					<path class="st1" d="M350.499,8.664c-1.612-0.167-3.147-0.583-2.526-1.602c0.397-0.653,1.919-0.273,2.422-0.005
						c-0.342-0.183-0.742-0.729-0.37-1.111c0.467-0.543,1.998-0.136,3.942,0.613c3.096,1.452,5.641,1.537,7.649,1.159
						c-3.329-0.419-5.241-2.477-4.314-3.463c1.047-1.222,3.234-0.735,3.938-0.222c-0.287-0.728,0.524-1.189,1.208-1.323
						c0.896-0.172,1.921-0.162,3.222,1.254c2.046,2.619,3.462,2.742,4.55,3.173c1.116,0.434,1.504-0.287,0.535-0.534
						c-3.129-1.291-3.237-2.452-3.063-3.163c0.194-0.723,1.641-1.146,2.644-0.697c-0.479-1.339-0.166-2.243,1.446-2.656
						c2.069-0.424,3.101,0.756,3.294,2.649c0.894-1.095,2.8-0.511,2.894,1.26c0.186,2.6,0.865,2.744,1.691,3.501
						c0.821,0.75,1.84,0.671,1.09,0.078c-1.68-1.421-1.54-3.002-0.465-3.334c1.075-0.362,1.923-0.142,2.849,0.767
						c0.521-1.131,2.683-1.052,2.578,0.724c0.31,2.954,2.356,3.369,2.966,3.323"/>
				</g>
			</g>
		</g>
		<g>
			<line class="st0" x1="434.059" y1="8.747" x2="513" y2="8.747"/>
			<g>
				<path class="st1" d="M481.458,8.747c0.957-0.435,1.238-1.173,0.672-1.673c-0.96-0.905-2.43-0.735-2.839-0.439
					c0.075-0.472-0.583-0.845-1.093-0.985c-0.668-0.182-1.396-0.251-2.074,0.617c-0.807,1.316-2.127,1.899-3.631,1.706
					c-0.063,0.257-0.079,0.515-0.055,0.775c-0.024,0.26-0.008,0.519,0.055,0.775c1.504-0.193,2.824,0.39,3.631,1.706
					c0.678,0.868,1.406,0.799,2.074,0.617c0.51-0.14,1.168-0.513,1.093-0.985c0.409,0.295,1.879,0.465,2.839-0.44
					C482.696,9.92,482.415,9.182,481.458,8.747z"/>
			</g>
			<g>
				<g>
					<path class="st1" d="M433.083,8.83c-1.612,0.167-3.147,0.583-2.526,1.602c0.398,0.653,1.92,0.273,2.422,0.005
						c-0.342,0.183-0.742,0.729-0.37,1.111c0.467,0.543,1.998,0.136,3.942-0.613c3.097-1.452,5.641-1.537,7.649-1.159
						c-3.328,0.419-5.241,2.477-4.313,3.463c1.046,1.222,3.233,0.735,3.937,0.222c-0.287,0.728,0.524,1.19,1.208,1.323
						c0.896,0.172,1.921,0.162,3.222-1.255c2.046-2.618,3.463-2.741,4.55-3.172c1.117-0.434,1.504,0.287,0.535,0.534
						c-3.129,1.29-3.237,2.452-3.063,3.163c0.194,0.723,1.641,1.146,2.644,0.697c-0.479,1.339-0.165,2.243,1.447,2.656
						c2.068,0.424,3.1-0.756,3.293-2.649c0.894,1.094,2.8,0.511,2.894-1.26c0.186-2.6,0.865-2.744,1.691-3.5
						c0.822-0.751,1.841-0.672,1.09-0.079c-1.68,1.421-1.54,3.001-0.465,3.334c1.076,0.362,1.923,0.142,2.849-0.767
						c0.521,1.131,2.684,1.052,2.578-0.724c0.31-2.954,2.356-3.369,2.967-3.323"/>
				</g>
				<g>
					<path class="st1" d="M433.083,8.664c-1.612-0.167-3.147-0.583-2.526-1.602c0.398-0.653,1.92-0.273,2.422-0.005
						c-0.342-0.183-0.742-0.729-0.37-1.111c0.467-0.543,1.998-0.136,3.942,0.613c3.097,1.452,5.641,1.537,7.649,1.159
						c-3.328-0.419-5.241-2.477-4.313-3.463c1.046-1.222,3.233-0.735,3.937-0.222c-0.287-0.728,0.524-1.189,1.208-1.323
						c0.896-0.172,1.921-0.162,3.222,1.254c2.046,2.619,3.463,2.742,4.55,3.173c1.117,0.434,1.504-0.287,0.535-0.534
						c-3.129-1.291-3.237-2.452-3.063-3.163c0.194-0.723,1.641-1.146,2.644-0.697c-0.479-1.339-0.165-2.243,1.447-2.656
						c2.068-0.424,3.1,0.756,3.293,2.649c0.894-1.095,2.8-0.511,2.894,1.26c0.186,2.6,0.865,2.744,1.691,3.501
						c0.822,0.75,1.841,0.671,1.09,0.078c-1.68-1.421-1.54-3.002-0.465-3.334c1.076-0.362,1.923-0.142,2.849,0.767
						c0.521-1.131,2.684-1.052,2.578,0.724c0.31,2.954,2.356,3.369,2.967,3.323"/>
				</g>
			</g>
		</g>
		<g>
			<line class="st0" x1="521.747" y1="21.22" x2="521.747" y2="101.933"/>
			<g>
				<path class="st1" d="M521.747,69.683c0.436,0.979,1.174,1.266,1.674,0.687c0.904-0.981,0.734-2.484,0.439-2.903
					c0.471,0.078,0.845-0.596,0.984-1.117c0.183-0.683,0.252-1.427-0.617-2.12c-1.316-0.825-1.898-2.176-1.705-3.713
					c-0.257-0.064-0.516-0.081-0.775-0.056c-0.26-0.025-0.519-0.008-0.775,0.056c0.193,1.537-0.39,2.888-1.705,3.713
					c-0.869,0.693-0.8,1.438-0.617,2.12c0.14,0.521,0.513,1.195,0.984,1.117c-0.295,0.419-0.465,1.921,0.439,2.903
					C520.573,70.949,521.312,70.661,521.747,69.683z"/>
			</g>
			<g>
				<g>
					<path class="st1" d="M521.664,20.222c-0.167-1.648-0.583-3.219-1.603-2.583c-0.652,0.407-0.272,1.963-0.004,2.476
						c-0.184-0.35-0.729-0.758-1.111-0.378c-0.544,0.478-0.137,2.043,0.612,4.031c1.452,3.166,1.537,5.767,1.159,7.821
						c-0.419-3.403-2.477-5.359-3.463-4.411c-1.223,1.07-0.735,3.307-0.223,4.025c-0.729-0.293-1.189,0.536-1.323,1.235
						c-0.173,0.916-0.162,1.965,1.255,3.294c2.618,2.092,2.741,3.54,3.172,4.652c0.434,1.142-0.287,1.538-0.533,0.547
						c-1.29-3.2-2.451-3.31-3.163-3.131c-0.724,0.198-1.146,1.677-0.697,2.702c-1.339-0.489-2.243-0.169-2.656,1.479
						c-0.424,2.115,0.756,3.17,2.649,3.367c-1.095,0.914-0.512,2.862,1.26,2.958c2.6,0.19,2.744,0.885,3.5,1.729
						c0.752,0.84,0.672,1.882,0.079,1.114c-1.421-1.717-3.001-1.574-3.335-0.475c-0.361,1.1-0.141,1.966,0.768,2.912
						c-1.131,0.533-1.053,2.744,0.724,2.636c2.954,0.316,3.368,2.41,3.323,3.033"/>
				</g>
				<g>
					<path class="st1" d="M521.83,20.222c0.167-1.648,0.583-3.219,1.603-2.583c0.652,0.407,0.273,1.963,0.004,2.476
						c0.184-0.35,0.73-0.758,1.111-0.378c0.544,0.478,0.137,2.043-0.612,4.031c-1.452,3.166-1.537,5.767-1.159,7.821
						c0.419-3.403,2.477-5.359,3.463-4.411c1.223,1.07,0.735,3.307,0.223,4.025c0.729-0.293,1.189,0.536,1.323,1.235
						c0.172,0.916,0.162,1.965-1.255,3.294c-2.619,2.092-2.741,3.54-3.172,4.652c-0.434,1.142,0.286,1.538,0.533,0.547
						c1.291-3.2,2.451-3.31,3.163-3.131c0.724,0.198,1.146,1.677,0.697,2.702c1.339-0.489,2.243-0.169,2.656,1.479
						c0.424,2.115-0.756,3.17-2.649,3.367c1.095,0.914,0.511,2.862-1.26,2.958c-2.6,0.19-2.744,0.885-3.501,1.729
						c-0.751,0.84-0.671,1.882-0.078,1.114c1.421-1.717,3.002-1.574,3.335-0.475c0.361,1.1,0.142,1.966-0.768,2.912
						c1.131,0.533,1.053,2.744-0.724,2.636c-2.954,0.316-3.369,2.41-3.323,3.033"/>
				</g>
			</g>
		</g>
		<g>
			<line class="st0" x1="521.747" y1="105.658" x2="521.747" y2="186.371"/>
			<g>
				<path class="st1" d="M521.747,154.121c0.436,0.978,1.174,1.266,1.674,0.687c0.904-0.981,0.734-2.484,0.439-2.903
					c0.471,0.078,0.845-0.596,0.984-1.117c0.183-0.683,0.252-1.427-0.617-2.12c-1.316-0.825-1.898-2.175-1.705-3.713
					c-0.257-0.064-0.516-0.081-0.775-0.056c-0.26-0.025-0.519-0.008-0.775,0.056c0.193,1.538-0.39,2.888-1.705,3.713
					c-0.869,0.693-0.8,1.438-0.617,2.12c0.14,0.521,0.513,1.195,0.984,1.117c-0.295,0.419-0.465,1.922,0.439,2.903
					C520.573,155.387,521.312,155.099,521.747,154.121z"/>
			</g>
			<g>
				<g>
					<path class="st1" d="M521.664,104.66c-0.167-1.648-0.583-3.219-1.603-2.583c-0.652,0.407-0.272,1.962-0.004,2.476
						c-0.184-0.35-0.729-0.759-1.111-0.378c-0.544,0.478-0.137,2.043,0.612,4.031c1.452,3.166,1.537,5.767,1.159,7.822
						c-0.419-3.404-2.477-5.359-3.463-4.412c-1.223,1.07-0.735,3.307-0.223,4.026c-0.729-0.293-1.189,0.536-1.323,1.234
						c-0.173,0.916-0.162,1.965,1.255,3.295c2.618,2.092,2.741,3.54,3.172,4.652c0.434,1.142-0.287,1.537-0.533,0.547
						c-1.29-3.2-2.451-3.31-3.163-3.131c-0.724,0.199-1.146,1.677-0.697,2.703c-1.339-0.49-2.243-0.169-2.656,1.479
						c-0.424,2.116,0.756,3.17,2.649,3.368c-1.095,0.914-0.512,2.862,1.26,2.958c2.6,0.19,2.744,0.885,3.5,1.73
						c0.752,0.84,0.672,1.881,0.079,1.114c-1.421-1.717-3.001-1.574-3.335-0.475c-0.361,1.1-0.141,1.966,0.768,2.913
						c-1.131,0.532-1.053,2.743,0.724,2.636c2.954,0.316,3.368,2.41,3.323,3.033"/>
				</g>
				<g>
					<path class="st1" d="M521.83,104.66c0.167-1.648,0.583-3.219,1.603-2.583c0.652,0.407,0.273,1.962,0.004,2.476
						c0.184-0.35,0.73-0.759,1.111-0.378c0.544,0.478,0.137,2.043-0.612,4.031c-1.452,3.166-1.537,5.767-1.159,7.822
						c0.419-3.404,2.477-5.359,3.463-4.412c1.223,1.07,0.735,3.307,0.223,4.026c0.729-0.293,1.189,0.536,1.323,1.234
						c0.172,0.916,0.162,1.965-1.255,3.295c-2.619,2.092-2.741,3.54-3.172,4.652c-0.434,1.142,0.286,1.537,0.533,0.547
						c1.291-3.2,2.451-3.31,3.163-3.131c0.724,0.199,1.146,1.677,0.697,2.703c1.339-0.49,2.243-0.169,2.656,1.479
						c0.424,2.116-0.756,3.17-2.649,3.368c1.095,0.914,0.511,2.862-1.26,2.958c-2.6,0.19-2.744,0.885-3.501,1.73
						c-0.751,0.84-0.671,1.881-0.078,1.114c1.421-1.717,3.002-1.574,3.335-0.475c0.361,1.1,0.142,1.966-0.768,2.913
						c1.131,0.532,1.053,2.743-0.724,2.636c-2.954,0.316-3.369,2.41-3.323,3.033"/>
				</g>
			</g>
		</g>
		<g>
			<line class="st0" x1="521.747" y1="190.096" x2="521.747" y2="270.809"/>
			<g>
				<path class="st1" d="M521.747,238.559c0.436,0.979,1.174,1.266,1.674,0.687c0.904-0.981,0.734-2.483,0.439-2.902
					c0.471,0.078,0.845-0.596,0.984-1.118c0.183-0.683,0.252-1.427-0.617-2.12c-1.316-0.824-1.898-2.175-1.705-3.712
					c-0.257-0.064-0.516-0.082-0.775-0.056c-0.26-0.025-0.519-0.008-0.775,0.056c0.193,1.537-0.39,2.888-1.705,3.712
					c-0.869,0.693-0.8,1.438-0.617,2.12c0.14,0.522,0.513,1.195,0.984,1.118c-0.295,0.419-0.465,1.921,0.439,2.902
					C520.573,239.825,521.312,239.538,521.747,238.559z"/>
			</g>
			<g>
				<g>
					<path class="st1" d="M521.664,189.099c-0.167-1.649-0.583-3.219-1.603-2.583c-0.652,0.407-0.272,1.962-0.004,2.476
						c-0.184-0.35-0.729-0.759-1.111-0.378c-0.544,0.478-0.137,2.043,0.612,4.031c1.452,3.166,1.537,5.768,1.159,7.822
						c-0.419-3.404-2.477-5.359-3.463-4.411c-1.223,1.07-0.735,3.307-0.223,4.025c-0.729-0.293-1.189,0.536-1.323,1.235
						c-0.173,0.916-0.162,1.964,1.255,3.294c2.618,2.092,2.741,3.54,3.172,4.652c0.434,1.142-0.287,1.537-0.533,0.547
						c-1.29-3.2-2.451-3.311-3.163-3.131c-0.724,0.199-1.146,1.677-0.697,2.703c-1.339-0.489-2.243-0.169-2.656,1.479
						c-0.424,2.116,0.756,3.17,2.649,3.368c-1.095,0.914-0.512,2.862,1.26,2.958c2.6,0.19,2.744,0.885,3.5,1.729
						c0.752,0.84,0.672,1.881,0.079,1.114c-1.421-1.717-3.001-1.574-3.335-0.475c-0.361,1.1-0.141,1.967,0.768,2.913
						c-1.131,0.533-1.053,2.744,0.724,2.636c2.954,0.316,3.368,2.409,3.323,3.033"/>
				</g>
				<g>
					<path class="st1" d="M521.83,189.099c0.167-1.649,0.583-3.219,1.603-2.583c0.652,0.407,0.273,1.962,0.004,2.476
						c0.184-0.35,0.73-0.759,1.111-0.378c0.544,0.478,0.137,2.043-0.612,4.031c-1.452,3.166-1.537,5.768-1.159,7.822
						c0.419-3.404,2.477-5.359,3.463-4.411c1.223,1.07,0.735,3.307,0.223,4.025c0.729-0.293,1.189,0.536,1.323,1.235
						c0.172,0.916,0.162,1.964-1.255,3.294c-2.619,2.092-2.741,3.54-3.172,4.652c-0.434,1.142,0.286,1.537,0.533,0.547
						c1.291-3.2,2.451-3.311,3.163-3.131c0.724,0.199,1.146,1.677,0.697,2.703c1.339-0.489,2.243-0.169,2.656,1.479
						c0.424,2.116-0.756,3.17-2.649,3.368c1.095,0.914,0.511,2.862-1.26,2.958c-2.6,0.19-2.744,0.885-3.501,1.729
						c-0.751,0.84-0.671,1.881-0.078,1.114c1.421-1.717,3.002-1.574,3.335-0.475c0.361,1.1,0.142,1.967-0.768,2.913
						c1.131,0.533,1.053,2.744-0.724,2.636c-2.954,0.316-3.369,2.409-3.323,3.033"/>
				</g>
			</g>
		</g>
		<g>
			<line class="st0" x1="521.747" y1="274.534" x2="521.747" y2="355.247"/>
			<g>
				<path class="st1" d="M521.747,322.997c0.436,0.979,1.174,1.266,1.674,0.687c0.904-0.981,0.734-2.484,0.439-2.903
					c0.471,0.078,0.845-0.596,0.984-1.117c0.183-0.683,0.252-1.427-0.617-2.12c-1.316-0.825-1.898-2.175-1.705-3.713
					c-0.257-0.064-0.516-0.081-0.775-0.056c-0.26-0.025-0.519-0.008-0.775,0.056c0.193,1.538-0.39,2.888-1.705,3.713
					c-0.869,0.693-0.8,1.438-0.617,2.12c0.14,0.521,0.513,1.195,0.984,1.117c-0.295,0.419-0.465,1.922,0.439,2.903
					C520.573,324.263,521.312,323.976,521.747,322.997z"/>
			</g>
			<g>
				<g>
					<path class="st1" d="M521.664,273.537c-0.167-1.648-0.583-3.219-1.603-2.583c-0.652,0.407-0.272,1.963-0.004,2.477
						c-0.184-0.35-0.729-0.759-1.111-0.378c-0.544,0.477-0.137,2.043,0.612,4.031c1.452,3.166,1.537,5.767,1.159,7.821
						c-0.419-3.403-2.477-5.359-3.463-4.411c-1.223,1.07-0.735,3.307-0.223,4.025c-0.729-0.293-1.189,0.536-1.323,1.235
						c-0.173,0.916-0.162,1.965,1.255,3.294c2.618,2.092,2.741,3.54,3.172,4.652c0.434,1.142-0.287,1.538-0.533,0.547
						c-1.29-3.2-2.451-3.31-3.163-3.131c-0.724,0.198-1.146,1.677-0.697,2.702c-1.339-0.489-2.243-0.169-2.656,1.479
						c-0.424,2.116,0.756,3.17,2.649,3.368c-1.095,0.914-0.512,2.862,1.26,2.958c2.6,0.19,2.744,0.885,3.5,1.73
						c0.752,0.84,0.672,1.881,0.079,1.114c-1.421-1.717-3.001-1.574-3.335-0.475c-0.361,1.1-0.141,1.966,0.768,2.912
						c-1.131,0.533-1.053,2.744,0.724,2.636c2.954,0.316,3.368,2.41,3.323,3.033"/>
				</g>
				<g>
					<path class="st1" d="M521.83,273.537c0.167-1.648,0.583-3.219,1.603-2.583c0.652,0.407,0.273,1.963,0.004,2.477
						c0.184-0.35,0.73-0.759,1.111-0.378c0.544,0.477,0.137,2.043-0.612,4.031c-1.452,3.166-1.537,5.767-1.159,7.821
						c0.419-3.403,2.477-5.359,3.463-4.411c1.223,1.07,0.735,3.307,0.223,4.025c0.729-0.293,1.189,0.536,1.323,1.235
						c0.172,0.916,0.162,1.965-1.255,3.294c-2.619,2.092-2.741,3.54-3.172,4.652c-0.434,1.142,0.286,1.538,0.533,0.547
						c1.291-3.2,2.451-3.31,3.163-3.131c0.724,0.198,1.146,1.677,0.697,2.702c1.339-0.489,2.243-0.169,2.656,1.479
						c0.424,2.116-0.756,3.17-2.649,3.368c1.095,0.914,0.511,2.862-1.26,2.958c-2.6,0.19-2.744,0.885-3.501,1.73
						c-0.751,0.84-0.671,1.881-0.078,1.114c1.421-1.717,3.002-1.574,3.335-0.475c0.361,1.1,0.142,1.966-0.768,2.912
						c1.131,0.533,1.053,2.744-0.724,2.636c-2.954,0.316-3.369,2.41-3.323,3.033"/>
				</g>
			</g>
		</g>
		<g>
			<line class="st0" x1="521.747" y1="358.973" x2="521.747" y2="439.686"/>
			<g>
				<path class="st1" d="M521.747,407.436c0.436,0.979,1.174,1.266,1.674,0.687c0.904-0.981,0.734-2.483,0.439-2.902
					c0.471,0.077,0.845-0.596,0.984-1.117c0.183-0.683,0.252-1.428-0.617-2.12c-1.316-0.825-1.898-2.176-1.705-3.713
					c-0.257-0.064-0.516-0.081-0.775-0.057c-0.26-0.024-0.519-0.008-0.775,0.057c0.193,1.537-0.39,2.888-1.705,3.713
					c-0.869,0.692-0.8,1.438-0.617,2.12c0.14,0.521,0.513,1.194,0.984,1.117c-0.295,0.419-0.465,1.921,0.439,2.902
					C520.573,408.701,521.312,408.414,521.747,407.436z"/>
			</g>
			<g>
				<g>
					<path class="st1" d="M521.664,357.975c-0.167-1.648-0.583-3.219-1.603-2.583c-0.652,0.407-0.272,1.962-0.004,2.476
						c-0.184-0.35-0.729-0.758-1.111-0.378c-0.544,0.478-0.137,2.043,0.612,4.031c1.452,3.165,1.537,5.767,1.159,7.821
						c-0.419-3.403-2.477-5.359-3.463-4.411c-1.223,1.07-0.735,3.307-0.223,4.025c-0.729-0.293-1.189,0.536-1.323,1.234
						c-0.173,0.916-0.162,1.965,1.255,3.295c2.618,2.092,2.741,3.54,3.172,4.651c0.434,1.142-0.287,1.537-0.533,0.548
						c-1.29-3.2-2.451-3.311-3.163-3.131c-0.724,0.198-1.146,1.677-0.697,2.702c-1.339-0.489-2.243-0.169-2.656,1.479
						c-0.424,2.115,0.756,3.17,2.649,3.367c-1.095,0.914-0.512,2.862,1.26,2.958c2.6,0.19,2.744,0.885,3.5,1.729
						c0.752,0.841,0.672,1.882,0.079,1.114c-1.421-1.717-3.001-1.574-3.335-0.475c-0.361,1.1-0.141,1.966,0.768,2.912
						c-1.131,0.532-1.053,2.743,0.724,2.636c2.954,0.316,3.368,2.41,3.323,3.033"/>
				</g>
				<g>
					<path class="st1" d="M521.83,357.975c0.167-1.648,0.583-3.219,1.603-2.583c0.652,0.407,0.273,1.962,0.004,2.476
						c0.184-0.35,0.73-0.758,1.111-0.378c0.544,0.478,0.137,2.043-0.612,4.031c-1.452,3.165-1.537,5.767-1.159,7.821
						c0.419-3.403,2.477-5.359,3.463-4.411c1.223,1.07,0.735,3.307,0.223,4.025c0.729-0.293,1.189,0.536,1.323,1.234
						c0.172,0.916,0.162,1.965-1.255,3.295c-2.619,2.092-2.741,3.54-3.172,4.651c-0.434,1.142,0.286,1.537,0.533,0.548
						c1.291-3.2,2.451-3.311,3.163-3.131c0.724,0.198,1.146,1.677,0.697,2.702c1.339-0.489,2.243-0.169,2.656,1.479
						c0.424,2.115-0.756,3.17-2.649,3.367c1.095,0.914,0.511,2.862-1.26,2.958c-2.6,0.19-2.744,0.885-3.501,1.729
						c-0.751,0.841-0.671,1.882-0.078,1.114c1.421-1.717,3.002-1.574,3.335-0.475c0.361,1.1,0.142,1.966-0.768,2.912
						c1.131,0.532,1.053,2.743-0.724,2.636c-2.954,0.316-3.369,2.41-3.323,3.033"/>
				</g>
			</g>
		</g>
		<g>
			<line class="st0" x1="521.747" y1="443.41" x2="521.747" y2="524.123"/>
			<g>
				<path class="st1" d="M521.747,491.874c0.436,0.978,1.174,1.266,1.674,0.687c0.904-0.981,0.734-2.484,0.439-2.903
					c0.471,0.078,0.845-0.596,0.984-1.117c0.183-0.683,0.252-1.427-0.617-2.12c-1.316-0.824-1.898-2.175-1.705-3.713
					c-0.257-0.063-0.516-0.081-0.775-0.056c-0.26-0.025-0.519-0.008-0.775,0.056c0.193,1.538-0.39,2.889-1.705,3.713
					c-0.869,0.693-0.8,1.438-0.617,2.12c0.14,0.521,0.513,1.195,0.984,1.117c-0.295,0.419-0.465,1.922,0.439,2.903
					C520.573,493.14,521.312,492.852,521.747,491.874z"/>
			</g>
			<g>
				<g>
					<path class="st1" d="M521.664,442.413c-0.167-1.648-0.583-3.219-1.603-2.583c-0.652,0.406-0.272,1.962-0.004,2.476
						c-0.184-0.35-0.729-0.759-1.111-0.378c-0.544,0.478-0.137,2.043,0.612,4.03c1.452,3.166,1.537,5.768,1.159,7.821
						c-0.419-3.403-2.477-5.358-3.463-4.411c-1.223,1.07-0.735,3.308-0.223,4.026c-0.729-0.294-1.189,0.535-1.323,1.234
						c-0.173,0.916-0.162,1.965,1.255,3.295c2.618,2.092,2.741,3.539,3.172,4.651c0.434,1.142-0.287,1.537-0.533,0.547
						c-1.29-3.199-2.451-3.31-3.163-3.131c-0.724,0.199-1.146,1.678-0.697,2.703c-1.339-0.49-2.243-0.17-2.656,1.479
						c-0.424,2.116,0.756,3.171,2.649,3.368c-1.095,0.913-0.512,2.862,1.26,2.958c2.6,0.189,2.744,0.885,3.5,1.729
						c0.752,0.84,0.672,1.882,0.079,1.114c-1.421-1.718-3.001-1.574-3.335-0.476c-0.361,1.101-0.141,1.967,0.768,2.913
						c-1.131,0.532-1.053,2.743,0.724,2.636c2.954,0.316,3.368,2.409,3.323,3.033"/>
				</g>
				<g>
					<path class="st1" d="M521.83,442.413c0.167-1.648,0.583-3.219,1.603-2.583c0.652,0.406,0.273,1.962,0.004,2.476
						c0.184-0.35,0.73-0.759,1.111-0.378c0.544,0.478,0.137,2.043-0.612,4.03c-1.452,3.166-1.537,5.768-1.159,7.821
						c0.419-3.403,2.477-5.358,3.463-4.411c1.223,1.07,0.735,3.308,0.223,4.026c0.729-0.294,1.189,0.535,1.323,1.234
						c0.172,0.916,0.162,1.965-1.255,3.295c-2.619,2.092-2.741,3.539-3.172,4.651c-0.434,1.142,0.286,1.537,0.533,0.547
						c1.291-3.199,2.451-3.31,3.163-3.131c0.724,0.199,1.146,1.678,0.697,2.703c1.339-0.49,2.243-0.17,2.656,1.479
						c0.424,2.116-0.756,3.171-2.649,3.368c1.095,0.913,0.511,2.862-1.26,2.958c-2.6,0.189-2.744,0.885-3.501,1.729
						c-0.751,0.84-0.671,1.882-0.078,1.114c1.421-1.718,3.002-1.574,3.335-0.476c0.361,1.101,0.142,1.967-0.768,2.913
						c1.131,0.532,1.053,2.743-0.724,2.636c-2.954,0.316-3.369,2.409-3.323,3.033"/>
				</g>
			</g>
		</g>
		<g>
			<line class="st0" x1="521.747" y1="527.849" x2="521.747" y2="608.562"/>
			<g>
				<path class="st1" d="M521.747,576.312c0.436,0.979,1.174,1.267,1.674,0.687c0.904-0.98,0.734-2.483,0.439-2.902
					c0.471,0.078,0.845-0.596,0.984-1.117c0.183-0.683,0.252-1.427-0.617-2.12c-1.316-0.824-1.898-2.176-1.705-3.713
					c-0.257-0.063-0.516-0.081-0.775-0.056c-0.26-0.025-0.519-0.008-0.775,0.056c0.193,1.537-0.39,2.889-1.705,3.713
					c-0.869,0.693-0.8,1.438-0.617,2.12c0.14,0.521,0.513,1.195,0.984,1.117c-0.295,0.419-0.465,1.922,0.439,2.902
					C520.573,577.578,521.312,577.29,521.747,576.312z"/>
			</g>
			<g>
				<g>
					<path class="st1" d="M521.664,526.851c-0.167-1.648-0.583-3.218-1.603-2.583c-0.652,0.407-0.272,1.963-0.004,2.477
						c-0.184-0.35-0.729-0.759-1.111-0.379c-0.544,0.478-0.137,2.044,0.612,4.031c1.452,3.166,1.537,5.768,1.159,7.821
						c-0.419-3.403-2.477-5.359-3.463-4.411c-1.223,1.07-0.735,3.307-0.223,4.025c-0.729-0.293-1.189,0.536-1.323,1.235
						c-0.173,0.916-0.162,1.964,1.255,3.294c2.618,2.092,2.741,3.54,3.172,4.652c0.434,1.142-0.287,1.537-0.533,0.547
						c-1.29-3.199-2.451-3.311-3.163-3.131c-0.724,0.198-1.146,1.677-0.697,2.702c-1.339-0.489-2.243-0.169-2.656,1.479
						c-0.424,2.115,0.756,3.17,2.649,3.367c-1.095,0.914-0.512,2.862,1.26,2.959c2.6,0.189,2.744,0.885,3.5,1.729
						c0.752,0.84,0.672,1.881,0.079,1.113c-1.421-1.717-3.001-1.573-3.335-0.475c-0.361,1.1-0.141,1.967,0.768,2.912
						c-1.131,0.533-1.053,2.744,0.724,2.637c2.954,0.316,3.368,2.409,3.323,3.032"/>
				</g>
				<g>
					<path class="st1" d="M521.83,526.851c0.167-1.648,0.583-3.218,1.603-2.583c0.652,0.407,0.273,1.963,0.004,2.477
						c0.184-0.35,0.73-0.759,1.111-0.379c0.544,0.478,0.137,2.044-0.612,4.031c-1.452,3.166-1.537,5.768-1.159,7.821
						c0.419-3.403,2.477-5.359,3.463-4.411c1.223,1.07,0.735,3.307,0.223,4.025c0.729-0.293,1.189,0.536,1.323,1.235
						c0.172,0.916,0.162,1.964-1.255,3.294c-2.619,2.092-2.741,3.54-3.172,4.652c-0.434,1.142,0.286,1.537,0.533,0.547
						c1.291-3.199,2.451-3.311,3.163-3.131c0.724,0.198,1.146,1.677,0.697,2.702c1.339-0.489,2.243-0.169,2.656,1.479
						c0.424,2.115-0.756,3.17-2.649,3.367c1.095,0.914,0.511,2.862-1.26,2.959c-2.6,0.189-2.744,0.885-3.501,1.729
						c-0.751,0.84-0.671,1.881-0.078,1.113c1.421-1.717,3.002-1.573,3.335-0.475c0.361,1.1,0.142,1.967-0.768,2.912
						c1.131,0.533,1.053,2.744-0.724,2.637c-2.954,0.316-3.369,2.409-3.323,3.032"/>
				</g>
			</g>
		</g>
		<g>
			<line class="st0" x1="521.747" y1="612.287" x2="521.747" y2="693"/>
			<g>
				<path class="st1" d="M521.747,660.75c0.436,0.979,1.174,1.266,1.674,0.687c0.904-0.98,0.734-2.483,0.439-2.902
					c0.471,0.077,0.845-0.596,0.984-1.117c0.183-0.683,0.252-1.428-0.617-2.12c-1.316-0.825-1.898-2.176-1.705-3.713
					c-0.257-0.064-0.516-0.081-0.775-0.057c-0.26-0.024-0.519-0.008-0.775,0.057c0.193,1.537-0.39,2.888-1.705,3.713
					c-0.869,0.692-0.8,1.438-0.617,2.12c0.14,0.521,0.513,1.194,0.984,1.117c-0.295,0.419-0.465,1.922,0.439,2.902
					C520.573,662.016,521.312,661.729,521.747,660.75z"/>
			</g>
			<g>
				<g>
					<path class="st1" d="M521.664,611.289c-0.167-1.648-0.583-3.219-1.603-2.583c-0.652,0.407-0.272,1.963-0.004,2.476
						c-0.184-0.35-0.729-0.758-1.111-0.378c-0.544,0.478-0.137,2.043,0.612,4.031c1.452,3.165,1.537,5.767,1.159,7.821
						c-0.419-3.403-2.477-5.359-3.463-4.411c-1.223,1.07-0.735,3.307-0.223,4.025c-0.729-0.293-1.189,0.536-1.323,1.234
						c-0.173,0.916-0.162,1.965,1.255,3.295c2.618,2.092,2.741,3.54,3.172,4.651c0.434,1.142-0.287,1.538-0.533,0.548
						c-1.29-3.2-2.451-3.311-3.163-3.131c-0.724,0.198-1.146,1.677-0.697,2.702c-1.339-0.489-2.243-0.169-2.656,1.479
						c-0.424,2.115,0.756,3.17,2.649,3.367c-1.095,0.914-0.512,2.862,1.26,2.958c2.6,0.19,2.744,0.885,3.5,1.73
						c0.752,0.84,0.672,1.881,0.079,1.113c-1.421-1.717-3.001-1.574-3.335-0.475c-0.361,1.1-0.141,1.966,0.768,2.912
						c-1.131,0.532-1.053,2.743,0.724,2.636c2.954,0.316,3.368,2.41,3.323,3.033"/>
				</g>
				<g>
					<path class="st1" d="M521.83,611.289c0.167-1.648,0.583-3.219,1.603-2.583c0.652,0.407,0.273,1.963,0.004,2.476
						c0.184-0.35,0.73-0.758,1.111-0.378c0.544,0.478,0.137,2.043-0.612,4.031c-1.452,3.165-1.537,5.767-1.159,7.821
						c0.419-3.403,2.477-5.359,3.463-4.411c1.223,1.07,0.735,3.307,0.223,4.025c0.729-0.293,1.189,0.536,1.323,1.234
						c0.172,0.916,0.162,1.965-1.255,3.295c-2.619,2.092-2.741,3.54-3.172,4.651c-0.434,1.142,0.286,1.538,0.533,0.548
						c1.291-3.2,2.451-3.311,3.163-3.131c0.724,0.198,1.146,1.677,0.697,2.702c1.339-0.489,2.243-0.169,2.656,1.479
						c0.424,2.115-0.756,3.17-2.649,3.367c1.095,0.914,0.511,2.862-1.26,2.958c-2.6,0.19-2.744,0.885-3.501,1.73
						c-0.751,0.84-0.671,1.881-0.078,1.113c1.421-1.717,3.002-1.574,3.335-0.475c0.361,1.1,0.142,1.966-0.768,2.912
						c1.131,0.532,1.053,2.743-0.724,2.636c-2.954,0.316-3.369,2.41-3.323,3.033"/>
				</g>
			</g>
		</g>
		<g>
			<line class="st0" x1="509.356" y1="701.747" x2="430.415" y2="701.747"/>
			<g>
				<path class="st1" d="M461.957,701.747c-0.957,0.435-1.238,1.173-0.671,1.673c0.959,0.905,2.429,0.736,2.839,0.439
					c-0.076,0.473,0.582,0.846,1.093,0.986c0.667,0.182,1.396,0.25,2.073-0.617c0.807-1.316,2.128-1.9,3.631-1.706
					c0.063-0.257,0.08-0.515,0.055-0.775c0.025-0.261,0.008-0.519-0.055-0.775c-1.503,0.193-2.824-0.39-3.631-1.706
					c-0.678-0.867-1.406-0.799-2.073-0.617c-0.511,0.141-1.169,0.514-1.093,0.985c-0.41-0.296-1.88-0.466-2.839,0.44
					C460.719,700.574,461,701.313,461.957,701.747z"/>
			</g>
			<g>
				<g>
					<path class="st1" d="M510.332,701.664c1.612-0.166,3.147-0.582,2.526-1.602c-0.397-0.653-1.919-0.273-2.422-0.006
						c0.342-0.183,0.742-0.729,0.37-1.111c-0.467-0.543-1.998-0.136-3.942,0.613c-3.096,1.452-5.641,1.537-7.649,1.159
						c3.329-0.419,5.241-2.478,4.314-3.464c-1.047-1.222-3.234-0.734-3.938-0.222c0.287-0.728-0.524-1.19-1.208-1.323
						c-0.896-0.172-1.921-0.162-3.222,1.255c-2.046,2.618-3.462,2.741-4.55,3.173c-1.116,0.434-1.504-0.287-0.535-0.534
						c3.129-1.29,3.237-2.452,3.063-3.163c-0.194-0.723-1.641-1.146-2.644-0.697c0.479-1.339,0.166-2.243-1.446-2.656
						c-2.069-0.424-3.101,0.756-3.294,2.648c-0.894-1.094-2.8-0.51-2.894,1.261c-0.186,2.6-0.865,2.744-1.691,3.501
						c-0.821,0.75-1.84,0.672-1.09,0.078c1.68-1.422,1.54-3.002,0.465-3.334c-1.075-0.362-1.923-0.143-2.849,0.767
						c-0.521-1.131-2.683-1.052-2.578,0.724c-0.31,2.954-2.356,3.369-2.966,3.323"/>
				</g>
				<g>
					<path class="st1" d="M510.332,701.83c1.612,0.166,3.147,0.582,2.526,1.602c-0.397,0.653-1.919,0.273-2.422,0.006
						c0.342,0.183,0.742,0.729,0.37,1.111c-0.467,0.543-1.998,0.136-3.942-0.613c-3.096-1.452-5.641-1.537-7.649-1.159
						c3.329,0.419,5.241,2.478,4.314,3.464c-1.047,1.222-3.234,0.734-3.938,0.222c0.287,0.728-0.524,1.189-1.208,1.323
						c-0.896,0.172-1.921,0.162-3.222-1.254c-2.046-2.619-3.462-2.742-4.55-3.174c-1.116-0.434-1.504,0.287-0.535,0.534
						c3.129,1.29,3.237,2.452,3.063,3.163c-0.194,0.723-1.641,1.146-2.644,0.697c0.479,1.339,0.166,2.243-1.446,2.656
						c-2.069,0.424-3.101-0.756-3.294-2.649c-0.894,1.095-2.8,0.511-2.894-1.26c-0.186-2.6-0.865-2.743-1.691-3.501
						c-0.821-0.75-1.84-0.672-1.09-0.078c1.68,1.422,1.54,3.002,0.465,3.334c-1.075,0.362-1.923,0.143-2.849-0.767
						c-0.521,1.131-2.683,1.052-2.578-0.724c-0.31-2.954-2.356-3.369-2.966-3.322"/>
				</g>
			</g>
		</g>
		<g>
			<line class="st0" x1="426.772" y1="701.747" x2="347.831" y2="701.747"/>
			<g>
				<path class="st1" d="M379.373,701.747c-0.957,0.435-1.238,1.173-0.672,1.673c0.96,0.905,2.43,0.736,2.839,0.439
					c-0.075,0.473,0.583,0.846,1.093,0.986c0.668,0.182,1.396,0.25,2.074-0.617c0.806-1.316,2.127-1.9,3.631-1.706
					c0.063-0.257,0.079-0.515,0.055-0.775c0.024-0.261,0.008-0.519-0.055-0.775c-1.504,0.193-2.825-0.39-3.631-1.706
					c-0.678-0.867-1.406-0.799-2.074-0.617c-0.51,0.141-1.168,0.514-1.093,0.985c-0.409-0.296-1.879-0.466-2.839,0.44
					C378.135,700.574,378.416,701.313,379.373,701.747z"/>
			</g>
			<g>
				<g>
					<path class="st1" d="M427.748,701.664c1.612-0.166,3.147-0.582,2.526-1.602c-0.398-0.653-1.92-0.273-2.422-0.006
						c0.342-0.183,0.742-0.729,0.37-1.111c-0.467-0.543-1.998-0.136-3.942,0.613c-3.097,1.452-5.641,1.537-7.649,1.159
						c3.328-0.419,5.241-2.478,4.313-3.464c-1.046-1.222-3.233-0.734-3.937-0.222c0.287-0.728-0.524-1.19-1.208-1.323
						c-0.896-0.172-1.921-0.162-3.222,1.255c-2.046,2.618-3.463,2.741-4.55,3.173c-1.117,0.434-1.504-0.287-0.535-0.534
						c3.129-1.29,3.237-2.452,3.063-3.163c-0.194-0.723-1.641-1.146-2.644-0.697c0.479-1.339,0.165-2.243-1.447-2.656
						c-2.068-0.424-3.1,0.756-3.293,2.648c-0.894-1.094-2.8-0.51-2.894,1.261c-0.186,2.6-0.865,2.744-1.691,3.501
						c-0.822,0.75-1.841,0.672-1.09,0.078c1.68-1.422,1.54-3.002,0.465-3.334c-1.076-0.362-1.923-0.143-2.849,0.767
						c-0.521-1.131-2.684-1.052-2.578,0.724c-0.31,2.954-2.356,3.369-2.967,3.323"/>
				</g>
				<g>
					<path class="st1" d="M427.748,701.83c1.612,0.166,3.147,0.582,2.526,1.602c-0.398,0.653-1.92,0.273-2.422,0.006
						c0.342,0.183,0.742,0.729,0.37,1.111c-0.467,0.543-1.998,0.136-3.942-0.613c-3.097-1.452-5.641-1.537-7.649-1.159
						c3.328,0.419,5.241,2.478,4.313,3.464c-1.046,1.222-3.233,0.734-3.937,0.222c0.287,0.728-0.524,1.189-1.208,1.323
						c-0.896,0.172-1.921,0.162-3.222-1.254c-2.046-2.619-3.463-2.742-4.55-3.174c-1.117-0.434-1.504,0.287-0.535,0.534
						c3.129,1.29,3.237,2.452,3.063,3.163c-0.194,0.723-1.641,1.146-2.644,0.697c0.479,1.339,0.165,2.243-1.447,2.656
						c-2.068,0.424-3.1-0.756-3.293-2.649c-0.894,1.095-2.8,0.511-2.894-1.26c-0.186-2.6-0.865-2.743-1.691-3.501
						c-0.822-0.75-1.841-0.672-1.09-0.078c1.68,1.422,1.54,3.002,0.465,3.334c-1.076,0.362-1.923,0.143-2.849-0.767
						c-0.521,1.131-2.684,1.052-2.578-0.724c-0.31-2.954-2.356-3.369-2.967-3.322"/>
				</g>
			</g>
		</g>
		<g>
			<line class="st0" x1="344.188" y1="701.747" x2="265.247" y2="701.747"/>
			<g>
				<path class="st1" d="M296.789,701.747c-0.957,0.435-1.238,1.173-0.672,1.673c0.96,0.905,2.43,0.736,2.839,0.439
					c-0.076,0.473,0.583,0.846,1.093,0.986c0.668,0.182,1.396,0.25,2.073-0.617c0.807-1.316,2.128-1.9,3.632-1.706
					c0.063-0.257,0.079-0.515,0.055-0.775c0.024-0.261,0.008-0.519-0.055-0.775c-1.504,0.193-2.825-0.39-3.632-1.706
					c-0.678-0.867-1.405-0.799-2.073-0.617c-0.51,0.141-1.169,0.514-1.093,0.985c-0.409-0.296-1.879-0.466-2.839,0.44
					C295.551,700.574,295.832,701.313,296.789,701.747z"/>
			</g>
			<g>
				<g>
					<path class="st1" d="M345.163,701.664c1.612-0.166,3.148-0.582,2.527-1.602c-0.398-0.653-1.92-0.273-2.422-0.006
						c0.342-0.183,0.742-0.729,0.37-1.111c-0.467-0.543-1.999-0.136-3.942,0.613c-3.097,1.452-5.641,1.537-7.65,1.159
						c3.329-0.419,5.242-2.478,4.314-3.464c-1.047-1.222-3.234-0.734-3.937-0.222c0.286-0.728-0.524-1.19-1.208-1.323
						c-0.896-0.172-1.922-0.162-3.223,1.255c-2.046,2.618-3.462,2.741-4.549,3.173c-1.117,0.434-1.504-0.287-0.536-0.534
						c3.13-1.29,3.238-2.452,3.063-3.163c-0.194-0.723-1.641-1.146-2.643-0.697c0.479-1.339,0.165-2.243-1.447-2.656
						c-2.069-0.424-3.101,0.756-3.293,2.648c-0.895-1.094-2.8-0.51-2.894,1.261c-0.186,2.6-0.865,2.744-1.692,3.501
						c-0.821,0.75-1.84,0.672-1.089,0.078c1.68-1.422,1.539-3.002,0.465-3.334c-1.076-0.362-1.924-0.143-2.849,0.767
						c-0.521-1.131-2.684-1.052-2.578,0.724c-0.31,2.954-2.356,3.369-2.967,3.323"/>
				</g>
				<g>
					<path class="st1" d="M345.163,701.83c1.612,0.166,3.148,0.582,2.527,1.602c-0.398,0.653-1.92,0.273-2.422,0.006
						c0.342,0.183,0.742,0.729,0.37,1.111c-0.467,0.543-1.999,0.136-3.942-0.613c-3.097-1.452-5.641-1.537-7.65-1.159
						c3.329,0.419,5.242,2.478,4.314,3.464c-1.047,1.222-3.234,0.734-3.937,0.222c0.286,0.728-0.524,1.189-1.208,1.323
						c-0.896,0.172-1.922,0.162-3.223-1.254c-2.046-2.619-3.462-2.742-4.549-3.174c-1.117-0.434-1.504,0.287-0.536,0.534
						c3.13,1.29,3.238,2.452,3.063,3.163c-0.194,0.723-1.641,1.146-2.643,0.697c0.479,1.339,0.165,2.243-1.447,2.656
						c-2.069,0.424-3.101-0.756-3.293-2.649c-0.895,1.095-2.8,0.511-2.894-1.26c-0.186-2.6-0.865-2.743-1.692-3.501
						c-0.821-0.75-1.84-0.672-1.089-0.078c1.68,1.422,1.539,3.002,0.465,3.334c-1.076,0.362-1.924,0.143-2.849-0.767
						c-0.521,1.131-2.684,1.052-2.578-0.724c-0.31-2.954-2.356-3.369-2.967-3.322"/>
				</g>
			</g>
		</g>
		<g>
			<line class="st0" x1="261.604" y1="701.747" x2="182.663" y2="701.747"/>
			<g>
				<path class="st1" d="M214.205,701.747c-0.957,0.435-1.238,1.173-0.671,1.673c0.959,0.905,2.429,0.736,2.839,0.439
					c-0.076,0.473,0.583,0.846,1.093,0.986c0.667,0.182,1.396,0.25,2.073-0.617c0.807-1.316,2.128-1.9,3.631-1.706
					c0.063-0.257,0.08-0.515,0.055-0.775c0.025-0.261,0.008-0.519-0.055-0.775c-1.503,0.193-2.825-0.39-3.631-1.706
					c-0.678-0.867-1.406-0.799-2.073-0.617c-0.51,0.141-1.169,0.514-1.093,0.985c-0.41-0.296-1.879-0.466-2.839,0.44
					C212.966,700.574,213.248,701.313,214.205,701.747z"/>
			</g>
			<g>
				<g>
					<path class="st1" d="M262.579,701.664c1.612-0.166,3.148-0.582,2.527-1.602c-0.398-0.653-1.919-0.273-2.422-0.006
						c0.342-0.183,0.742-0.729,0.37-1.111c-0.467-0.543-1.999-0.136-3.942,0.613c-3.096,1.452-5.641,1.537-7.65,1.159
						c3.329-0.419,5.242-2.478,4.314-3.464c-1.047-1.222-3.234-0.734-3.937-0.222c0.287-0.728-0.524-1.19-1.208-1.323
						c-0.896-0.172-1.921-0.162-3.222,1.255c-2.046,2.618-3.462,2.741-4.549,3.173c-1.117,0.434-1.504-0.287-0.536-0.534
						c3.129-1.29,3.238-2.452,3.063-3.163c-0.194-0.723-1.641-1.146-2.643-0.697c0.479-1.339,0.166-2.243-1.447-2.656
						c-2.069-0.424-3.101,0.756-3.293,2.648c-0.894-1.094-2.8-0.51-2.894,1.261c-0.186,2.6-0.865,2.744-1.692,3.501
						c-0.821,0.75-1.84,0.672-1.089,0.078c1.68-1.422,1.54-3.002,0.465-3.334c-1.076-0.362-1.923-0.143-2.849,0.767
						c-0.521-1.131-2.683-1.052-2.578,0.724c-0.31,2.954-2.356,3.369-2.966,3.323"/>
				</g>
				<g>
					<path class="st1" d="M262.579,701.83c1.612,0.166,3.148,0.582,2.527,1.602c-0.398,0.653-1.919,0.273-2.422,0.006
						c0.342,0.183,0.742,0.729,0.37,1.111c-0.467,0.543-1.999,0.136-3.942-0.613c-3.096-1.452-5.641-1.537-7.65-1.159
						c3.329,0.419,5.242,2.478,4.314,3.464c-1.047,1.222-3.234,0.734-3.937,0.222c0.287,0.728-0.524,1.189-1.208,1.323
						c-0.896,0.172-1.921,0.162-3.222-1.254c-2.046-2.619-3.462-2.742-4.549-3.174c-1.117-0.434-1.504,0.287-0.536,0.534
						c3.129,1.29,3.238,2.452,3.063,3.163c-0.194,0.723-1.641,1.146-2.643,0.697c0.479,1.339,0.166,2.243-1.447,2.656
						c-2.069,0.424-3.101-0.756-3.293-2.649c-0.894,1.095-2.8,0.511-2.894-1.26c-0.186-2.6-0.865-2.743-1.692-3.501
						c-0.821-0.75-1.84-0.672-1.089-0.078c1.68,1.422,1.54,3.002,0.465,3.334c-1.076,0.362-1.923,0.143-2.849-0.767
						c-0.521,1.131-2.683,1.052-2.578-0.724c-0.31-2.954-2.356-3.369-2.966-3.322"/>
				</g>
			</g>
		</g>
		<g>
			<line class="st0" x1="179.02" y1="701.747" x2="100.079" y2="701.747"/>
			<g>
				<path class="st1" d="M131.62,701.747c-0.957,0.435-1.238,1.173-0.671,1.673c0.959,0.905,2.429,0.736,2.839,0.439
					c-0.076,0.473,0.583,0.846,1.093,0.986c0.668,0.182,1.396,0.25,2.074-0.617c0.806-1.316,2.127-1.9,3.631-1.706
					c0.063-0.257,0.079-0.515,0.055-0.775c0.024-0.261,0.008-0.519-0.055-0.775c-1.504,0.193-2.825-0.39-3.631-1.706
					c-0.678-0.867-1.406-0.799-2.074-0.617c-0.51,0.141-1.168,0.514-1.093,0.985c-0.41-0.296-1.879-0.466-2.839,0.44
					C130.382,700.574,130.664,701.313,131.62,701.747z"/>
			</g>
			<g>
				<g>
					<path class="st1" d="M179.995,701.664c1.612-0.166,3.148-0.582,2.526-1.602c-0.398-0.653-1.919-0.273-2.422-0.006
						c0.342-0.183,0.742-0.729,0.37-1.111c-0.467-0.543-1.998-0.136-3.942,0.613c-3.096,1.452-5.641,1.537-7.649,1.159
						c3.329-0.419,5.241-2.478,4.314-3.464c-1.046-1.222-3.234-0.734-3.937-0.222c0.287-0.728-0.524-1.19-1.208-1.323
						c-0.896-0.172-1.921-0.162-3.222,1.255c-2.046,2.618-3.462,2.741-4.55,3.173c-1.117,0.434-1.503-0.287-0.535-0.534
						c3.129-1.29,3.237-2.452,3.063-3.163c-0.194-0.723-1.641-1.146-2.644-0.697c0.479-1.339,0.166-2.243-1.447-2.656
						c-2.069-0.424-3.1,0.756-3.293,2.648c-0.894-1.094-2.799-0.51-2.893,1.261c-0.186,2.6-0.865,2.744-1.692,3.501
						c-0.822,0.75-1.84,0.672-1.089,0.078c1.679-1.422,1.54-3.002,0.464-3.334c-1.076-0.362-1.923-0.143-2.848,0.767
						c-0.521-1.131-2.684-1.052-2.578,0.724c-0.31,2.954-2.357,3.369-2.967,3.323"/>
				</g>
				<g>
					<path class="st1" d="M179.995,701.83c1.612,0.166,3.148,0.582,2.526,1.602c-0.398,0.653-1.919,0.273-2.422,0.006
						c0.342,0.183,0.742,0.729,0.37,1.111c-0.467,0.543-1.998,0.136-3.942-0.613c-3.096-1.452-5.641-1.537-7.649-1.159
						c3.329,0.419,5.241,2.478,4.314,3.464c-1.046,1.222-3.234,0.734-3.937,0.222c0.287,0.728-0.524,1.189-1.208,1.323
						c-0.896,0.172-1.921,0.162-3.222-1.254c-2.046-2.619-3.462-2.742-4.55-3.174c-1.117-0.434-1.503,0.287-0.535,0.534
						c3.129,1.29,3.237,2.452,3.063,3.163c-0.194,0.723-1.641,1.146-2.644,0.697c0.479,1.339,0.166,2.243-1.447,2.656
						c-2.069,0.424-3.1-0.756-3.293-2.649c-0.894,1.095-2.799,0.511-2.893-1.26c-0.186-2.6-0.865-2.743-1.692-3.501
						c-0.822-0.75-1.84-0.672-1.089-0.078c1.679,1.422,1.54,3.002,0.464,3.334c-1.076,0.362-1.923,0.143-2.848-0.767
						c-0.521,1.131-2.684,1.052-2.578-0.724c-0.31-2.954-2.357-3.369-2.967-3.322"/>
				</g>
			</g>
		</g>
		<g>
			<line class="st0" x1="96.435" y1="701.747" x2="17.494" y2="701.747"/>
			<g>
				<path class="st1" d="M49.036,701.747c-0.957,0.435-1.238,1.173-0.671,1.673c0.959,0.905,2.429,0.736,2.839,0.439
					c-0.076,0.473,0.583,0.846,1.093,0.986c0.667,0.182,1.396,0.25,2.073-0.617c0.807-1.316,2.128-1.9,3.631-1.706
					c0.063-0.257,0.08-0.515,0.055-0.775c0.025-0.261,0.008-0.519-0.055-0.775c-1.503,0.193-2.825-0.39-3.631-1.706
					c-0.678-0.867-1.406-0.799-2.073-0.617c-0.51,0.141-1.169,0.514-1.093,0.985c-0.41-0.296-1.879-0.466-2.839,0.44
					C47.798,700.574,48.079,701.313,49.036,701.747z"/>
			</g>
			<g>
				<g>
					<path class="st1" d="M97.411,701.664c1.612-0.166,3.148-0.582,2.527-1.602c-0.398-0.653-1.919-0.273-2.422-0.006
						c0.342-0.183,0.742-0.729,0.37-1.111c-0.467-0.543-1.999-0.136-3.942,0.613c-3.096,1.452-5.641,1.537-7.65,1.159
						c3.329-0.419,5.242-2.478,4.314-3.464c-1.047-1.222-3.234-0.734-3.937-0.222c0.287-0.728-0.524-1.19-1.208-1.323
						c-0.896-0.172-1.921-0.162-3.222,1.255c-2.046,2.618-3.462,2.741-4.549,3.173c-1.117,0.434-1.504-0.287-0.536-0.534
						c3.129-1.29,3.238-2.452,3.063-3.163c-0.194-0.723-1.641-1.146-2.643-0.697c0.479-1.339,0.166-2.243-1.447-2.656
						c-2.069-0.424-3.101,0.756-3.293,2.648c-0.894-1.094-2.8-0.51-2.894,1.261c-0.186,2.6-0.865,2.744-1.692,3.501
						c-0.821,0.75-1.84,0.672-1.089,0.078c1.68-1.422,1.54-3.002,0.465-3.334c-1.076-0.362-1.923-0.143-2.849,0.767
						c-0.521-1.131-2.683-1.052-2.578,0.724c-0.31,2.954-2.356,3.369-2.966,3.323"/>
				</g>
				<g>
					<path class="st1" d="M97.411,701.83c1.612,0.166,3.148,0.582,2.527,1.602c-0.398,0.653-1.919,0.273-2.422,0.006
						c0.342,0.183,0.742,0.729,0.37,1.111c-0.467,0.543-1.999,0.136-3.942-0.613c-3.096-1.452-5.641-1.537-7.65-1.159
						c3.329,0.419,5.242,2.478,4.314,3.464c-1.047,1.222-3.234,0.734-3.937,0.222c0.287,0.728-0.524,1.189-1.208,1.323
						c-0.896,0.172-1.921,0.162-3.222-1.254c-2.046-2.619-3.462-2.742-4.549-3.174c-1.117-0.434-1.504,0.287-0.536,0.534
						c3.129,1.29,3.238,2.452,3.063,3.163c-0.194,0.723-1.641,1.146-2.643,0.697c0.479,1.339,0.166,2.243-1.447,2.656
						c-2.069,0.424-3.101-0.756-3.293-2.649c-0.894,1.095-2.8,0.511-2.894-1.26c-0.186-2.6-0.865-2.743-1.692-3.501
						c-0.821-0.75-1.84-0.672-1.089-0.078c1.68,1.422,1.54,3.002,0.465,3.334c-1.076,0.362-1.923,0.143-2.849-0.767
						c-0.521,1.131-2.683,1.052-2.578-0.724c-0.31-2.954-2.356-3.369-2.966-3.322"/>
				</g>
			</g>
		</g>
	</g>
</g>
</svg>
