<?xml version="1.0" encoding="utf-8"?>
<!-- Generator: Adobe Illustrator 14.0.0, SVG Export Plug-In . SVG Version: 6.00 Build 43363)  -->
<!DOCTYPE svg PUBLIC "-//W3C//DTD SVG 1.1//EN" "http://www.w3.org/Graphics/SVG/1.1/DTD/svg11.dtd">
<svg version="1.1" id="Nouveau_x5F_4_xA0_Image_1_" xmlns="http://www.w3.org/2000/svg" xmlns:xlink="http://www.w3.org/1999/xlink"
	 x="0px" y="0px" width="729px" height="969px" viewBox="0 0 729 969" style="enable-background:new 0 0 729 969;"
	 xml:space="preserve">
<style type="text/css">
<![CDATA[
	.st0{fill-rule:evenodd;clip-rule:evenodd;fill:none;stroke:#000000;stroke-width:2.5443;stroke-linecap:round;}
	.st1{fill-rule:evenodd;clip-rule:evenodd;fill:none;stroke:#000000;stroke-width:4.2104;stroke-linecap:round;}
	.st2{fill-rule:evenodd;clip-rule:evenodd;fill:none;stroke:#000000;stroke-width:3.8331;stroke-linecap:round;}
	.st3{fill-rule:evenodd;clip-rule:evenodd;fill:none;stroke:#000000;stroke-width:2.7928;stroke-linecap:round;}
	.st4{fill-rule:evenodd;clip-rule:evenodd;fill:none;stroke:#000000;stroke-width:3.648;stroke-linecap:round;}
	.st5{fill-rule:evenodd;clip-rule:evenodd;fill:none;stroke:#000000;stroke-width:3.1034;stroke-linecap:round;}
	.st6{fill-rule:evenodd;clip-rule:evenodd;fill:none;stroke:#000000;stroke-width:2.6771;stroke-linecap:round;}
	.st7{fill-rule:evenodd;clip-rule:evenodd;fill:none;stroke:#000000;stroke-width:2.6833;stroke-linecap:round;}
	.st8{fill-rule:evenodd;clip-rule:evenodd;fill:none;stroke:#000000;stroke-width:2.1712;stroke-linecap:round;}
	.st9{fill-rule:evenodd;clip-rule:evenodd;fill:none;stroke:#000000;stroke-width:2.1909;stroke-linecap:round;}
	.st10{fill-rule:evenodd;clip-rule:evenodd;fill:none;stroke:#000000;stroke-width:2.2898;stroke-linecap:round;}
	.st11{fill-rule:evenodd;clip-rule:evenodd;fill:none;stroke:#000000;stroke-width:2.9155;stroke-linecap:round;}
	.st12{fill-rule:evenodd;clip-rule:evenodd;fill:none;stroke:#000000;stroke-width:2.4034;stroke-linecap:round;}
	.st13{fill-rule:evenodd;clip-rule:evenodd;fill:none;stroke:#000000;stroke-width:2.2669;stroke-linecap:round;}
	.st14{fill-rule:evenodd;clip-rule:evenodd;fill:none;stroke:#000000;stroke-width:2.1794;stroke-linecap:round;}
	.st15{fill-rule:evenodd;clip-rule:evenodd;fill:none;stroke:#000000;stroke-width:2.6157;stroke-linecap:round;}
	.st16{fill-rule:evenodd;clip-rule:evenodd;fill:none;stroke:#000000;stroke-width:3.1249;stroke-linecap:round;}
	.st17{fill-rule:evenodd;clip-rule:evenodd;fill:none;stroke:#000000;stroke-width:3.2071;stroke-linecap:round;}
	.st18{fill-rule:evenodd;clip-rule:evenodd;fill:none;stroke:#000000;stroke-width:2.8983;stroke-linecap:round;}
	.st19{fill-rule:evenodd;clip-rule:evenodd;fill:none;stroke:#000000;stroke-width:1.5811;stroke-linecap:round;}
	.st20{fill-rule:evenodd;clip-rule:evenodd;fill:none;stroke:#000000;stroke-width:2.1654;stroke-linecap:round;}
	.st21{fill-rule:evenodd;clip-rule:evenodd;fill:none;stroke:#000000;stroke-width:2.8284;stroke-linecap:round;}
	.st22{fill-rule:evenodd;clip-rule:evenodd;fill:none;stroke:#000000;stroke-width:2.2091;stroke-linecap:round;}
	.st23{fill-rule:evenodd;clip-rule:evenodd;fill:none;stroke:#000000;stroke-width:3.1512;stroke-linecap:round;}
	.st24{fill-rule:evenodd;clip-rule:evenodd;fill:none;stroke:#000000;stroke-width:4.3028;stroke-linecap:round;}
	.st25{fill-rule:evenodd;clip-rule:evenodd;fill:none;stroke:#000000;stroke-width:2.7157;stroke-linecap:round;}
	.st26{fill-rule:evenodd;clip-rule:evenodd;fill:none;stroke:#000000;stroke-width:2.2771;stroke-linecap:round;}
	.st27{fill-rule:evenodd;clip-rule:evenodd;fill:none;stroke:#000000;stroke-width:2.557;stroke-linecap:round;}
	.st28{fill-rule:evenodd;clip-rule:evenodd;fill:none;stroke:#000000;stroke-width:3.0923;stroke-linecap:round;}
	.st29{fill-rule:evenodd;clip-rule:evenodd;fill:none;stroke:#000000;stroke-width:2.49;stroke-linecap:round;}
	.st30{fill-rule:evenodd;clip-rule:evenodd;fill:none;stroke:#000000;stroke-width:2.6268;stroke-linecap:round;}
	.st31{fill-rule:evenodd;clip-rule:evenodd;fill:none;stroke:#000000;stroke-width:2.3664;stroke-linecap:round;}
	.st32{fill-rule:evenodd;clip-rule:evenodd;fill:none;stroke:#000000;stroke-width:3.1225;stroke-linecap:round;}
	.st33{fill-rule:evenodd;clip-rule:evenodd;fill:none;stroke:#000000;stroke-width:2.2913;stroke-linecap:round;}
	.st34{fill-rule:evenodd;clip-rule:evenodd;fill:none;stroke:#000000;stroke-width:2.7255;stroke-linecap:round;}
	.st35{fill-rule:evenodd;clip-rule:evenodd;fill:none;stroke:#000000;stroke-width:4.177;stroke-linecap:round;}
	.st36{fill-rule:evenodd;clip-rule:evenodd;fill:none;stroke:#000000;stroke-width:2.708;stroke-linecap:round;}
	.st37{fill-rule:evenodd;clip-rule:evenodd;fill:none;stroke:#000000;stroke-width:2.552;stroke-linecap:round;}
	.st38{fill-rule:evenodd;clip-rule:evenodd;fill:none;stroke:#000000;stroke-width:2.4495;stroke-linecap:round;}
	.st39{fill-rule:evenodd;clip-rule:evenodd;fill:none;stroke:#000000;stroke-width:2.2514;stroke-linecap:round;}
	.st40{fill-rule:evenodd;clip-rule:evenodd;fill:none;stroke:#000000;stroke-width:2.7873;stroke-linecap:round;}
	.st41{fill-rule:evenodd;clip-rule:evenodd;fill:none;stroke:#000000;stroke-width:3.1623;stroke-linecap:round;}
	.st42{fill:#000000;fill-rule:evenodd;clip-rule:evenodd;}
	.st43{fill-rule:evenodd;clip-rule:evenodd;fill:none;stroke:#000000;stroke-width:2.2532;stroke-linecap:round;}
	.st44{fill-rule:evenodd;clip-rule:evenodd;fill:none;stroke:#000000;stroke-width:2.8711;stroke-linecap:round;}
	.st45{fill-rule:evenodd;clip-rule:evenodd;fill:none;stroke:#000000;stroke-width:2.9627;stroke-linecap:round;}
	.st46{fill-rule:evenodd;clip-rule:evenodd;fill:none;stroke:#000000;stroke-width:2.9833;stroke-linecap:round;}
	.st47{fill-rule:evenodd;clip-rule:evenodd;fill:none;stroke:#000000;stroke-width:3.0255;stroke-linecap:round;}
	.st48{fill-rule:evenodd;clip-rule:evenodd;fill:none;stroke:#000000;stroke-width:2.9439;stroke-linecap:round;}
	.st49{fill-rule:evenodd;clip-rule:evenodd;fill:none;stroke:#000000;stroke-width:2.2174;stroke-linecap:round;}
	.st50{fill-rule:evenodd;clip-rule:evenodd;fill:none;stroke:#000000;stroke-width:3.4105;stroke-linecap:round;}
	.st51{fill-rule:evenodd;clip-rule:evenodd;fill:none;stroke:#000000;stroke-width:2.3743;stroke-linecap:round;}
	.st52{fill-rule:evenodd;clip-rule:evenodd;fill:none;stroke:#000000;stroke-width:2.7625;stroke-linecap:round;}
	.st53{fill-rule:evenodd;clip-rule:evenodd;fill:none;stroke:#000000;stroke-width:4.2183;stroke-linecap:round;}
	.st54{fill-rule:evenodd;clip-rule:evenodd;fill:none;stroke:#000000;stroke-width:2.5955;stroke-linecap:round;}
	.st55{fill-rule:evenodd;clip-rule:evenodd;fill:none;stroke:#000000;stroke-width:4.3076;stroke-linecap:round;}
	.st56{fill-rule:evenodd;clip-rule:evenodd;fill:none;stroke:#000000;stroke-width:2.3094;stroke-linecap:round;}
	.st57{fill-rule:evenodd;clip-rule:evenodd;fill:none;stroke:#000000;stroke-width:4.0346;stroke-linecap:round;}
	.st58{fill-rule:evenodd;clip-rule:evenodd;fill:none;stroke:#000000;stroke-width:2.8577;stroke-linecap:round;}
	.st59{fill-rule:evenodd;clip-rule:evenodd;fill:none;stroke:#000000;stroke-width:3.0827;stroke-linecap:round;}
	.st60{fill-rule:evenodd;clip-rule:evenodd;fill:none;stroke:#000000;stroke-width:2.7203;stroke-linecap:round;}
	.st61{fill-rule:evenodd;clip-rule:evenodd;fill:none;stroke:#000000;stroke-width:2.9326;stroke-linecap:round;}
	.st62{fill-rule:evenodd;clip-rule:evenodd;fill:none;stroke:#000000;stroke-width:2.4931;stroke-linecap:round;}
	.st63{fill-rule:evenodd;clip-rule:evenodd;fill:none;stroke:#000000;stroke-width:2.4278;stroke-linecap:round;}
	.st64{fill-rule:evenodd;clip-rule:evenodd;fill:none;stroke:#000000;stroke-width:2.2361;stroke-linecap:round;}
	.st65{fill-rule:evenodd;clip-rule:evenodd;fill:none;stroke:#000000;stroke-width:2.582;stroke-linecap:round;}
	.st66{fill-rule:evenodd;clip-rule:evenodd;fill:none;stroke:#000000;stroke-width:4.1454;stroke-linecap:round;}
	.st67{fill-rule:evenodd;clip-rule:evenodd;fill:none;stroke:#000000;stroke-width:2.6646;stroke-linecap:round;}
	.st68{fill-rule:evenodd;clip-rule:evenodd;fill:none;stroke:#000000;stroke-width:2.6552;stroke-linecap:round;}
	.st69{fill-rule:evenodd;clip-rule:evenodd;fill:none;stroke:#000000;stroke-width:3.1479;stroke-linecap:round;}
	.st70{fill-rule:evenodd;clip-rule:evenodd;fill:none;stroke:#000000;stroke-width:2.6458;stroke-linecap:round;}
	.st71{fill-rule:evenodd;clip-rule:evenodd;fill:none;stroke:#000000;stroke-width:2.8881;stroke-linecap:round;}
	.st72{fill-rule:evenodd;clip-rule:evenodd;fill:none;stroke:#000000;stroke-width:3.4454;stroke-linecap:round;}
	.st73{fill-rule:evenodd;clip-rule:evenodd;fill:none;stroke:#000000;stroke-width:3.4319;stroke-linecap:round;}
	.st74{fill-rule:evenodd;clip-rule:evenodd;fill:none;stroke:#000000;stroke-width:2.245;stroke-linecap:round;}
	.st75{fill-rule:evenodd;clip-rule:evenodd;fill:none;stroke:#000000;stroke-width:2.7839;stroke-linecap:round;}
	.st76{fill-rule:evenodd;clip-rule:evenodd;fill:none;stroke:#000000;stroke-width:2.7019;stroke-linecap:round;}
	.st77{fill-rule:evenodd;clip-rule:evenodd;fill:none;stroke:#000000;stroke-width:2.8723;stroke-linecap:round;}
	.st78{fill-rule:evenodd;clip-rule:evenodd;fill:none;stroke:#000000;stroke-width:2.6009;stroke-linecap:round;}
	.st79{fill-rule:evenodd;clip-rule:evenodd;fill:none;stroke:#000000;stroke-width:4.1802;stroke-linecap:round;}
	.st80{fill-rule:evenodd;clip-rule:evenodd;fill:none;stroke:#000000;stroke-width:3.559;stroke-linecap:round;}
	.st81{fill-rule:evenodd;clip-rule:evenodd;fill:none;stroke:#000000;stroke-width:2.4518;stroke-linecap:round;}
]]>
</style>
<g>
	<g>
		<path class="st42" d="M154,5c11.274-7.794,13.762,12.831,4,12C153.71,16.635,151.848,10.499,154,5z"/>
		<path class="st42" d="M257,5c11.274-7.794,13.762,12.831,4,12C256.71,16.635,254.848,10.499,257,5z"/>
		<path class="st42" d="M360,5c11.274-7.794,13.763,12.831,4,12C359.71,16.635,357.848,10.499,360,5z"/>
		<path class="st42" d="M463,5c11.274-7.794,13.763,12.831,4,12C462.711,16.635,460.849,10.499,463,5z"/>
		<path class="st42" d="M566,5c11.274-7.794,13.763,12.831,4,12C565.711,16.635,563.849,10.499,566,5z"/>
		<path class="st42" d="M165,13c0.862-3.986-1.493-7.388,0-9c3.146-0.479,3.909,1.424,6,2c0.664,5.331-0.582,8.751-4,10l-0.7-1.7
			L165,13z"/>
		<path class="st42" d="M268,13c0.862-3.986-1.493-7.388,0-9c3.146-0.479,3.909,1.424,6,2c0.664,5.331-0.582,8.751-4,10l-0.7-1.7
			L268,13z"/>
		<path class="st42" d="M371,13c0.862-3.986-1.493-7.388,0-9c3.146-0.479,3.909,1.424,6,2c0.664,5.331-0.582,8.751-4,10l-0.7-1.7
			L371,13z"/>
		<path class="st42" d="M474,13c0.862-3.986-1.493-7.388,0-9c3.146-0.479,3.909,1.424,6,2c0.664,5.331-0.582,8.751-4,10l-0.7-1.7
			L474,13z"/>
		<path class="st42" d="M577,13c0.862-3.986-1.493-7.388,0-9c3.146-0.479,3.909,1.424,6,2c0.664,5.331-0.582,8.751-4,10l-0.7-1.7
			L577,13z"/>
		<path class="st42" d="M169,17c2.944-5.898,7.831-2.472,13-1c-1.5,6.839-6.319,3.771-12,3l0.5-1.5L169,17z"/>
		<path class="st42" d="M272,17c2.944-5.898,7.831-2.472,13-1c-1.5,6.839-6.319,3.771-12,3l0.5-1.5L272,17z"/>
		<path class="st42" d="M375,17c2.944-5.898,7.831-2.472,13-1c-1.5,6.839-6.318,3.771-12,3l0.5-1.5L375,17z"/>
		<path class="st42" d="M478,17c2.944-5.898,7.831-2.472,13-1c-1.5,6.839-6.318,3.771-12,3l0.5-1.5L478,17z"/>
		<path class="st42" d="M581,17c2.944-5.898,7.831-2.472,13-1c-1.5,6.839-6.318,3.771-12,3l0.5-1.5L581,17z"/>
		<path class="st42" d="M147,19c-5.239,1.213-10.767,3.572-12-3c3.916-1.454,13.152-4.509,14,2l-1.5-0.5L147,19z"/>
		<path class="st42" d="M250,19c-5.239,1.213-10.767,3.572-12-3c3.916-1.454,13.152-4.509,14,2l-1.5-0.5L250,19z"/>
		<path class="st42" d="M353,19c-5.239,1.213-10.767,3.572-12-3c3.916-1.454,13.152-4.509,14,2l-1.5-0.5L353,19z"/>
		<path class="st42" d="M456,19c-5.239,1.213-10.768,3.572-12-3c3.915-1.454,13.152-4.509,14,2l-1.5-0.5L456,19z"/>
		<path class="st42" d="M559,19c-5.239,1.213-10.768,3.572-12-3c3.915-1.454,13.152-4.509,14,2l-1.5-0.5L559,19z"/>
		<path class="st42" d="M717,47c-3.246-3.276,1.55-4.724-3-8c0.553-4.114,4.078-5.256,9-5C721.322,39.538,726.992,46.876,717,47z"/>
		<path class="st42" d="M717,921c9.992,0.123,4.322,7.462,6,13c-6.757,0.455-7.911-1.935-9-5c-1.149-3.234,1.991-0.457,3-3
			C717.471,924.814,713.159,922.84,717,921z"/>
		<path class="st42" d="M149,951c-3.6,5.428-8.62,2.871-14,1c1.5-6.839,6.319-3.771,12-3l0.5,1.5L149,951z"/>
		<path class="st42" d="M170,949c5.681-0.771,10.5-3.839,12,3c-4.793,1.849-10.304,4.649-13-1l1.5-0.5L170,949z"/>
		<path class="st42" d="M252,951c-3.6,5.428-8.62,2.871-14,1c1.5-6.839,6.319-3.771,12-3l0.5,1.5L252,951z"/>
		<path class="st42" d="M273,949c5.681-0.771,10.5-3.839,12,3c-4.793,1.849-10.304,4.649-13-1l1.5-0.5L273,949z"/>
		<path class="st42" d="M355,951c-3.6,5.428-8.62,2.871-14,1c1.5-6.839,6.319-3.771,12-3l0.5,1.5L355,951z"/>
		<path class="st42" d="M376,949c5.682-0.771,10.5-3.839,12,3c-4.793,1.849-10.305,4.649-13-1l1.5-0.5L376,949z"/>
		<path class="st42" d="M458,951c-3.601,5.428-8.62,2.871-14,1c1.5-6.839,6.318-3.771,12-3l0.5,1.5L458,951z"/>
		<path class="st42" d="M479,949c5.682-0.771,10.5-3.839,12,3c-4.793,1.849-10.305,4.649-13-1l1.5-0.5L479,949z"/>
		<path class="st42" d="M561,951c-3.601,5.428-8.62,2.871-14,1c1.5-6.839,6.318-3.771,12-3l0.5,1.5L561,951z"/>
		<path class="st42" d="M582,949c5.682-0.771,10.5-3.839,12,3c-4.793,1.849-10.305,4.649-13-1l1.5-0.5L582,949z"/>
		<path class="st42" d="M167,952c3.418,1.249,4.664,4.67,4,10c-2.162,0.838-3.411,2.589-7,2c0.841-2.492,1.309-5.357,1-9l1.3-1.3
			L167,952z"/>
		<path class="st42" d="M270,952c3.418,1.249,4.664,4.67,4,10c-2.162,0.838-3.411,2.589-7,2c0.841-2.492,1.309-5.357,1-9l1.3-1.3
			L270,952z"/>
		<path class="st42" d="M373,952c3.418,1.249,4.664,4.67,4,10c-2.162,0.838-3.411,2.589-7,2c0.841-2.492,1.309-5.357,1-9l1.3-1.3
			L373,952z"/>
		<path class="st42" d="M476,952c3.418,1.249,4.664,4.67,4,10c-2.162,0.838-3.411,2.589-7,2c0.841-2.492,1.309-5.357,1-9l1.3-1.3
			L476,952z"/>
		<path class="st42" d="M579,952c3.418,1.249,4.664,4.67,4,10c-2.162,0.838-3.411,2.589-7,2c0.841-2.492,1.309-5.357,1-9l1.3-1.3
			L579,952z"/>
		<path class="st42" d="M161,951c2.226,2.44,3.664,5.67,3,11c-4.694,2.194-4.938,2.895-10,1C151.88,957.652,153.605,949.907,161,951
			z"/>
		<path class="st42" d="M264,951c2.226,2.44,3.664,5.67,3,11c-4.694,2.194-4.938,2.895-10,1C254.88,957.652,256.605,949.907,264,951
			z"/>
		<path class="st42" d="M367,951c2.227,2.44,3.664,5.67,3,11c-4.694,2.194-4.938,2.895-10,1C357.88,957.652,359.605,949.907,367,951
			z"/>
		<path class="st42" d="M470,951c2.227,2.44,3.664,5.67,3,11c-4.694,2.194-4.938,2.895-10,1C460.88,957.652,462.605,949.907,470,951
			z"/>
		<path class="st42" d="M573,951c2.227,2.44,3.664,5.67,3,11c-4.694,2.194-4.938,2.895-10,1C563.88,957.652,565.605,949.907,573,951
			z"/>
		<path class="st42" d="M152,17c-6.42-0.223-8.664-12.466-1-13c2.461-1.555,2.94,3.396,1,3c-0.58,3.247,0.681,4.652,1,7
			l-1.357,1.214L152,17z"/>
		<path class="st42" d="M199,19.5l-2-1.5c0.431-2.236,4.928-0.405,7-1l-0.5,1.833L205,20c-1.5,1.167-2.445,2.888-5,3l-1.167-1.5
			L197,22c0-0.333,0-0.667,0-1L199,19.5z"/>
		<path class="st42" d="M254.643,15.214L255,17c-6.42-0.223-8.664-12.466-1-13c4.557,0.577-1.252,7.061,2,10L254.643,15.214z"/>
		<path class="st42" d="M302,19.5l-2-1.5c0.431-2.236,4.928-0.405,7-1l-0.5,1.833L308,20c-1.5,1.167-2.445,2.888-5,3l-1.167-1.5
			L300,22c0-0.333,0-0.667,0-1L302,19.5z"/>
		<path class="st42" d="M357.643,15.214L358,17c-6.42-0.223-8.664-12.466-1-13c4.557,0.577-1.252,7.061,2,10L357.643,15.214z"/>
		<path class="st42" d="M405,19.5l-2-1.5c0.431-2.236,4.929-0.405,7-1l-0.5,1.833L411,20c-1.5,1.167-2.445,2.888-5,3l-1.167-1.5
			L403,22c0-0.333,0-0.667,0-1L405,19.5z"/>
		<path class="st42" d="M460.643,15.214L461,17c-6.42-0.223-8.664-12.466-1-13c4.557,0.577-1.252,7.061,2,10L460.643,15.214z"/>
		<path class="st42" d="M508,19.5l-2-1.5c0.431-2.236,4.929-0.405,7-1l-0.5,1.833L514,20c-1.5,1.167-2.445,2.888-5,3l-1.167-1.5
			L506,22c0-0.333,0-0.667,0-1L508,19.5z"/>
		<path class="st42" d="M563.643,15.214L564,17c-6.42-0.223-8.664-12.466-1-13c4.557,0.577-1.252,7.061,2,10L563.643,15.214z"/>
		<path class="st42" d="M611,19.5l-2-1.5c0.431-2.236,4.929-0.405,7-1l-0.5,1.833L617,20c-1.5,1.167-2.445,2.888-5,3l-1.167-1.5
			L609,22c0-0.333,0-0.667,0-1L611,19.5z"/>
		<path class="st42" d="M698.5,18.833L698,17c3,0,6,0,9,0l-0.5,1.833L708,20c4.506,10.561-15.739,9.144-10,21l-1.786-0.357L695,42
			c-10.346-7.515,7.602-16.233,2-22L698.5,18.833z"/>
		<path class="st42" d="M715.7,19.3L717,18c19.328,5.332-0.887,17.438-11,19c-0.473,3.14,2.691,2.642,3,5l-1.5,0.5L708,44
			c-4.162-1.172-7.662-3.005-8-8c2.73-6.718,17.72-6.125,14-16L715.7,19.3z"/>
		<path class="st42" d="M707.5,925.5l1.5,0.5c-0.294,2.039-2.706,1.961-3,4c6.655,3.372,31.858,12.427,11,20l-1.3-1.3L714,948
			c3.899-10.38-12.578-8.647-14-17c1.064-3.936,3.913-6.087,8-7L707.5,925.5z"/>
		<path class="st42" d="M706.5,949.167L707,951c-2.667,0-5.333,0-8,0l0.5-1.833L698,948c2.716-6.842-12.615-14.431-3-22l0.7,1.7
			l1.3,1.3c-1.517,10.965,15.198,8.646,11,19L706.5,949.167z"/>
		<path class="st42" d="M615.5,949.167L616,951c-2,0-4,0-6,0l0.5-2.25L609,947c0-0.333,0-0.667,0-1l1.833,0.5L612,945
			c2.555,0.111,3.5,1.833,5,3L615.5,949.167z"/>
		<path class="st42" d="M563.643,952.786L565,954c-2.642,3.037,1.204,8.019-1,10c-9.156,0.881-6.511-12.985,0-13L563.643,952.786z"
			/>
		<path class="st42" d="M512.5,949.167L513,951c-2,0-4,0-6,0l0.5-2.25L506,947c0-0.333,0-0.667,0-1l1.833,0.5L509,945
			c2.555,0.111,3.5,1.833,5,3L512.5,949.167z"/>
		<path class="st42" d="M460.643,952.786L462,954c-2.642,3.037,1.204,8.019-1,10c-9.156,0.881-6.511-12.985,0-13L460.643,952.786z"
			/>
		<path class="st42" d="M409.5,949.167L410,951c-2,0-4,0-6,0l0.5-2.25L403,947c0-0.333,0-0.667,0-1l1.833,0.5L406,945
			c2.555,0.111,3.5,1.833,5,3L409.5,949.167z"/>
		<path class="st42" d="M357.643,952.786L359,954c-2.642,3.037,1.205,8.019-1,10c-9.156,0.881-6.511-12.985,0-13L357.643,952.786z"
			/>
		<path class="st42" d="M306.5,949.167L307,951c-2,0-4,0-6,0l0.5-2.25L300,947c0-0.333,0-0.667,0-1l1.833,0.5L303,945
			c2.555,0.111,3.5,1.833,5,3L306.5,949.167z"/>
		<path class="st42" d="M254.643,952.786L256,954c-2.642,3.037,1.205,8.019-1,10c-9.156,0.881-6.511-12.985,0-13L254.643,952.786z"
			/>
		<path class="st42" d="M203.5,949.167L204,951c-2,0-4,0-6,0l0.5-2.25L197,947c0-0.333,0-0.667,0-1l1.833,0.5L200,945
			c2.555,0.111,3.5,1.833,5,3L203.5,949.167z"/>
		<path class="st42" d="M151.643,952.786L153,954c-2.642,3.037,1.205,8.019-1,10c-9.156,0.881-6.511-12.985,0-13L151.643,952.786z"
			/>
		<path class="st42" d="M30.5,949.167L31,951c-2.667,0-5.333,0-8,0l0.5-1.833L22,948c-6.864-9.696,13.022-7.712,10-20l1.833,0.5
			L35,927c8.798,6.866-6.518,13.536-3,21L30.5,949.167z"/>
		<path class="st42" d="M14.3,948.7L13,950c-19.647-5.212-0.953-17.175,10-19c0-1,0-2,0-3l1.833,0.5L26,927
			c11.783,7.668-12.062,10.49-12,19c0.89,0.443,1.789,0.878,2,2L14.3,948.7z"/>
		<path class="st42" d="M11.5,922.833L13,924c1.132,3.921,4.354,5.433,1,9c-3.059-0.726-2.941,1.726-6,1
			c-2.589,1.858-0.562-2.058-1-4c-0.68-3.013-1.874-9.4,5-9L11.5,922.833z"/>
		<path class="st42" d="M11.5,45.167L12,47c-8.951,0.257-4.751-10.197-4-13c7.87-0.2,9.186,5.583,5,10L11.5,45.167z"/>
		<path class="st42" d="M23.5,41.5L23,40c0-0.667,0-1.333,0-2c-3.396-5.577-18.438-4.186-19-12c-0.253-3.517,2.766-7.291,9-8
			l-0.5,1.833L14,21c-0.14,9.978,25.039,12.716,10,22L23.5,41.5z"/>
		<path class="st42" d="M23.5,18.833L23,17c2.667,0,5.333,0,8,0l-0.5,1.833L32,20c-3.518,7.464,11.798,14.134,3,21l-1.167-1.5L32,40
			c3.01-12.275-16.997-10.172-10-20L23.5,18.833z"/>
		<path class="st42" d="M170,33c0.6,4.651-16.186,5.243-21,2l0.5-1.5L148,33c4.728-4.4,12.625-2.036,20-2v2H170z"/>
		<path class="st42" d="M143.5,32.5L144,34c-0.89,0.777-2.258,1.075-4,1l0.5-2.25L139,31c0-0.333,0-0.667,0-1l1.833,0.5L142,29
			c4.381-0.729-0.806,1.987,2,2L143.5,32.5z"/>
		<path class="st42" d="M140.5,935.25L140,933c1.419-0.086,2.832-0.165,3,1l0.5,1.5l0.5,1.5c-2.806,0.013,2.381,2.729-2,2
			l-1.167-1.5L139,938c0-0.333,0-0.667,0-1L140.5,935.25z"/>
		<path class="st42" d="M148.5,934.5L148,933c2.08-0.893,6.353-1.93,10-2c5.225-0.102,13.27,0.946,12,4h-2v2
			c-7.311,0.208-13.142,1.783-19-1L148.5,934.5z"/>
		<path class="st42" d="M244,935.5V933c1.163-0.162,1.779,0.221,2,1l0.5,1.5l0.5,1.5c-0.851-0.184-0.943,0.39-1,1
			c1.54,0.529,0.063,1.043-1,1l-1.167-1.5L242,938c0-0.333,0-0.667,0-1L244,935.5z"/>
		<path class="st42" d="M251.5,934.5L251,933c2.08-0.893,6.353-1.93,10-2c5.225-0.102,13.27,0.946,12,4h-2v2
			c-7.311,0.208-13.142,1.783-19-1L251.5,934.5z"/>
		<path class="st42" d="M347,935.5V933c1.163-0.162,1.779,0.221,2,1l0.5,1.5l0.5,1.5c-2.806,0.013,2.381,2.729-2,2l-1.167-1.5
			L345,938c0-0.333,0-0.667,0-1L347,935.5z"/>
		<path class="st42" d="M354.5,934.5L354,933c2.08-0.893,6.353-1.93,10-2c5.225-0.102,13.271,0.946,12,4h-2v2
			c-7.311,0.208-13.142,1.783-19-1L354.5,934.5z"/>
		<path class="st42" d="M450,935.5V933c1.163-0.162,1.779,0.221,2,1l0.5,1.5l0.5,1.5c-2.806,0.013,2.381,2.729-2,2l-1.167-1.5
			L448,938c0-0.333,0-0.667,0-1L450,935.5z"/>
		<path class="st42" d="M457.5,934.5L457,933c2.08-0.893,6.353-1.93,10-2c5.225-0.102,13.271,0.946,12,4h-2v2
			c-7.311,0.208-13.142,1.783-19-1L457.5,934.5z"/>
		<path class="st42" d="M553,935.5V933c1.162-0.162,1.779,0.221,2,1l0.5,1.5l0.5,1.5c-2.806,0.013,2.381,2.729-2,2l-1.167-1.5
			L551,938c0-0.333,0-0.667,0-1L553,935.5z"/>
		<path class="st42" d="M560.5,934.5L560,933c1.813-0.75,5.809-1.856,9-2c5.563-0.25,14.198,0.864,13,4h-2v2
			c-7.311,0.208-13.143,1.783-19-1L560.5,934.5z"/>
		<path class="st42" d="M580,33h2c0.6,4.651-16.186,5.243-21,2l0.5-1.5L560,33c4.728-4.4,12.625-2.036,20-2V33z"/>
		<path class="st42" d="M555.5,32.5L557,33c-0.658,1.342-2.138,1.862-4,2v-2.5l-2-1.5c0-0.333,0-0.667,0-1l1.833,0.5L554,29
			c4.381-0.729-0.806,1.987,2,2L555.5,32.5z"/>
		<path class="st42" d="M477,33h2c0.6,4.651-16.186,5.243-21,2l0.5-1.5L457,33c4.728-4.4,12.625-2.036,20-2V33z"/>
		<path class="st42" d="M452.5,32.5L454,33c-0.658,1.342-2.138,1.862-4,2v-2.5l-2-1.5c0-0.333,0-0.667,0-1l1.833,0.5L451,29
			c4.381-0.729-0.806,1.987,2,2L452.5,32.5z"/>
		<path class="st42" d="M374,33h2c0.6,4.651-16.186,5.243-21,2l0.5-1.5L354,33c4.728-4.4,12.625-2.036,20-2V33z"/>
		<path class="st42" d="M349.5,32.5L351,33c-0.658,1.342-2.138,1.862-4,2v-2.5l-2-1.5c0-0.333,0-0.667,0-1l1.833,0.5L348,29
			c4.381-0.729-0.806,1.987,2,2L349.5,32.5z"/>
		<path class="st42" d="M271,33h2c0.6,4.651-16.186,5.243-21,2l0.5-1.5L251,33c4.728-4.4,12.625-2.036,20-2V33z"/>
		<path class="st42" d="M246.5,32.5L248,33c-0.658,1.342-2.138,1.862-4,2v-2.5l-2-1.5c0-0.333,0-0.667,0-1l1.833,0.5L245,29
			c4.381-0.729-0.806,1.987,2,2L246.5,32.5z"/>
		<g>
			<path class="st41" d="M164.5,16.5c0.773-0.987,1.221-1.588,1.8-2.2"/>
			<path class="st41" d="M267.5,16.5c0.773-0.987,1.221-1.588,1.8-2.2"/>
			<path class="st41" d="M370.5,16.5c0.772-0.987,1.221-1.588,1.8-2.2"/>
			<path class="st41" d="M473.5,16.5c0.772-0.987,1.221-1.588,1.8-2.2"/>
			<path class="st41" d="M576.5,16.5c0.772-0.987,1.221-1.588,1.8-2.2"/>
			<path class="st8" d="M170.5,17.5c-1.595,0.759-2.932,2.088-2.5,4"/>
			<path class="st8" d="M273.5,17.5c-1.595,0.759-2.932,2.088-2.5,4"/>
			<path class="st8" d="M376.5,17.5c-1.595,0.759-2.932,2.088-2.5,4"/>
			<path class="st8" d="M479.5,17.5c-1.595,0.759-2.932,2.088-2.5,4"/>
			<path class="st8" d="M582.5,17.5c-1.596,0.759-2.932,2.088-2.5,4"/>
			<path class="st9" d="M149.167,20.833c0.008-0.979-0.641-1.624-1.667-3.333"/>
			<path class="st9" d="M252.167,20.833c0.008-0.979-0.641-1.624-1.667-3.333"/>
			<path class="st9" d="M355.167,20.833c0.008-0.979-0.641-1.624-1.667-3.333"/>
			<path class="st9" d="M458.167,20.833c0.007-0.979-0.642-1.624-1.667-3.333"/>
			<path class="st9" d="M561.167,20.833c0.007-0.979-0.642-1.624-1.667-3.333"/>
			<path class="st56" d="M147.5,950.5c1.239-1.485,1.382-2.422,1.667-3.333"/>
			<path class="st8" d="M170.5,950.5c-1.595-0.759-2.932-2.088-2.5-4"/>
			<path class="st56" d="M250.5,950.5c1.239-1.485,1.382-2.422,1.667-3.333"/>
			<path class="st8" d="M273.5,950.5c-1.595-0.759-2.932-2.088-2.5-4"/>
			<path class="st56" d="M353.5,950.5c1.239-1.485,1.382-2.422,1.667-3.333"/>
			<path class="st8" d="M376.5,950.5c-1.595-0.759-2.932-2.088-2.5-4"/>
			<path class="st56" d="M456.5,950.5c1.239-1.485,1.382-2.422,1.667-3.333"/>
			<path class="st8" d="M479.5,950.5c-1.595-0.759-2.932-2.088-2.5-4"/>
			<path class="st56" d="M559.5,950.5c1.239-1.485,1.382-2.422,1.667-3.333"/>
			<path class="st8" d="M582.5,950.5c-1.596-0.759-2.932-2.088-2.5-4"/>
			<path class="st41" d="M164.5,951.5c0.773,0.987,1.221,1.589,1.8,2.2"/>
			<path class="st41" d="M267.5,951.5c0.773,0.987,1.221,1.589,1.8,2.2"/>
			<path class="st41" d="M370.5,951.5c0.772,0.987,1.221,1.589,1.8,2.2"/>
			<path class="st41" d="M473.5,951.5c0.772,0.987,1.221,1.589,1.8,2.2"/>
			<path class="st41" d="M576.5,951.5c0.772,0.987,1.221,1.589,1.8,2.2"/>
			<path class="st15" d="M158.5,23.5c3.053,2.575,6.832,3.162,10.75,3.25"/>
			<path class="st33" d="M169.25,26.75c6.912-1.627,12.898-5.82,20.036-5.393"/>
			<path class="st80" d="M189.286,21.357c3.148-1.117,6.26-2.381,9.714-1.857"/>
			<path class="st17" d="M203.5,18.833c4.99-0.311,10.388-1.062,15.214,0.523"/>
			<path class="st73" d="M218.714,19.357c3.972-1.959,8.326,1.13,12.331,1.779"/>
			<path class="st0" d="M231.045,21.136c7.014-0.464,13.596,4.209,20.705,5.614"/>
			<path class="st54" d="M251.75,26.75c3.482-0.44,7.351-0.212,9.75-3.25"/>
			<path class="st51" d="M261.5,23.5c0.562-4.136-4.638-5.536-6.857-8.286"/>
			<path class="st15" d="M261.5,23.5c3.053,2.575,6.832,3.162,10.75,3.25"/>
			<path class="st33" d="M272.25,26.75c6.912-1.627,12.898-5.82,20.036-5.393"/>
			<path class="st80" d="M292.286,21.357c3.148-1.117,6.26-2.381,9.714-1.857"/>
			<path class="st17" d="M306.5,18.833c4.99-0.311,10.388-1.062,15.214,0.523"/>
			<path class="st50" d="M321.714,19.357c3.972-1.959,8.326,1.13,12.331,1.779"/>
			<path class="st27" d="M334.045,21.136c7.014-0.464,13.596,4.209,20.705,5.614"/>
			<path class="st54" d="M354.75,26.75c3.482-0.44,7.351-0.212,9.75-3.25"/>
			<path class="st51" d="M364.5,23.5c0.562-4.136-4.638-5.536-6.857-8.286"/>
			<path class="st15" d="M364.5,23.5c3.054,2.575,6.832,3.162,10.75,3.25"/>
			<path class="st33" d="M375.25,26.75c6.912-1.627,12.897-5.82,20.036-5.393"/>
			<path class="st80" d="M395.286,21.357c3.148-1.117,6.26-2.381,9.714-1.857"/>
			<path class="st17" d="M409.5,18.833c4.99-0.311,10.388-1.062,15.214,0.523"/>
			<path class="st50" d="M424.714,19.357c3.972-1.959,8.326,1.13,12.332,1.779"/>
			<path class="st27" d="M437.046,21.136c7.013-0.464,13.596,4.209,20.704,5.614"/>
			<path class="st65" d="M457.75,26.75c3.482-0.44,7.351-0.212,9.75-3.25"/>
			<path class="st51" d="M467.5,23.5c0.563-4.136-4.639-5.536-6.857-8.286"/>
			<path class="st30" d="M467.5,23.5c3.054,2.575,6.832,3.162,10.75,3.25"/>
			<path class="st33" d="M478.25,26.75c6.912-1.627,12.897-5.82,20.036-5.393"/>
			<path class="st80" d="M498.286,21.357c3.148-1.117,6.26-2.381,9.714-1.857"/>
			<path class="st17" d="M512.5,18.833c4.99-0.311,10.388-1.062,15.214,0.523"/>
			<path class="st50" d="M527.714,19.357c3.972-1.959,8.326,1.13,12.332,1.779"/>
			<path class="st0" d="M540.046,21.136c7.013-0.464,13.596,4.209,20.704,5.614"/>
			<path class="st65" d="M560.75,26.75c3.482-0.44,7.351-0.212,9.75-3.25"/>
			<path class="st51" d="M570.5,23.5c0.563-4.136-4.639-5.536-6.857-8.286"/>
			<path class="st30" d="M570.5,23.5c3.054,2.575,6.832,3.162,10.75,3.25"/>
			<path class="st33" d="M581.25,26.75c6.912-1.627,12.897-5.82,20.036-5.393"/>
			<path class="st80" d="M601.286,21.357c3.148-1.117,6.26-2.381,9.714-1.857"/>
			<path class="st59" d="M615.5,18.833c27.598-0.554,55.407-0.556,83,0"/>
			<path class="st32" d="M706.5,18.833c2.955-0.235,6.544-1.092,9.2,0.466"/>
			<path class="st21" d="M710.5,923.5c-0.786,0.667-1.886,1.333-3,2"/>
			<path class="st12" d="M570.5,944.5c0.563,4.137-4.639,5.535-6.857,8.286"/>
			<path class="st81" d="M467.5,944.5c0.563,4.137-4.639,5.536-6.857,8.286"/>
			<path class="st63" d="M364.5,944.5c0.562,4.137-4.638,5.536-6.857,8.286"/>
			<path class="st63" d="M261.5,944.5c0.562,4.137-4.638,5.536-6.857,8.286"/>
			<path class="st72" d="M221.196,948.021c-5.631,2.066-11.816,1.695-17.696,1.146"/>
			<path class="st63" d="M158.5,944.5c0.562,4.137-4.638,5.536-6.857,8.286"/>
			<path class="st29" d="M14.5,920.5c-1.214,1.134-2.114,1.746-3,2.333"/>
			<path class="st62" d="M14.5,920.5c-5.275-4.726-3.812-19.537-4.002-28c-2.665-118.353,2.708-249.574,0-370
				c-1.115-49.561,1.1-99.091,0-148c-0.943-41.927-1.421-83.836-0.495-125c1.132-50.344-1.075-100.202,0-148
				c0.396-17.624-1.806-42.013,4.498-54"/>
			<path class="st70" d="M14.5,47.5c-1.214-1.134-2.114-1.746-3-2.333"/>
			<path class="st7" d="M14.5,47.5c1.605-1.064,2.199-1.896,4-3"/>
			<path class="st45" d="M18.5,44.5c1.292-0.821,3.327-1.759,5-3"/>
			<path class="st16" d="M12.5,19.833c3.309-1.898,7.372-1.498,11-1"/>
			<path class="st5" d="M30.5,18.833c28.303-0.209,57.083-1.249,85.214,0.523"/>
			<path class="st50" d="M115.714,19.357c3.972-1.959,8.326,1.13,12.331,1.779"/>
			<path class="st27" d="M128.045,21.136c7.014-0.464,13.596,4.209,20.705,5.614"/>
			<path class="st54" d="M148.75,26.75c3.482-0.44,7.351-0.212,9.75-3.25"/>
			<path class="st51" d="M158.5,23.5c0.562-4.136-4.638-5.536-6.857-8.286"/>
			<path class="st38" d="M18.5,44.5c1.002,2.31,2.511,4.163,5,5"/>
			<path class="st34" d="M23.5,49.5c2.295-4.274,8.351-5.213,10.333-10"/>
			<path class="st18" d="M145.5,31.5c-0.667,0.333-1.333,0.667-2,1"/>
			<path class="st28" d="M23.5,49.5c5.911,3.234,0.207,12.041-4.933,7.44c-0.801-1.061-0.687-2.833-0.567-4.44"/>
			<path class="st52" d="M14.5,920.5c3.125,3.065,7.865,4.293,10.333,8"/>
			<path class="st32" d="M14.3,948.7c2.649,1.469,6.254,0.779,9.2,0.467"/>
			<path class="st76" d="M23.5,918.5c2.295,4.274,8.351,5.214,10.333,10"/>
			<path class="st23" d="M30.5,949.167c29.107-0.178,58.891,2.04,87.696-1.146"/>
			<path class="st24" d="M118.196,948.021c4.13-7.346,13.399-14.198,22.304-12.771"/>
			<path class="st60" d="M146.5,936.5c0.524-0.81,1.257-1.409,2-2"/>
			<path class="st46" d="M170.5,937.5c1.689-1.373,3.758-2.426,6-2.25"/>
			<path class="st53" d="M176.5,935.25c8.969-1.797,16.757,5.253,22.333,11.25"/>
			<path class="st55" d="M221.196,948.021c4.203-7.371,13.795-14.702,22.804-12.521"/>
			<path class="st60" d="M249.5,936.5c0.524-0.81,1.257-1.409,2-2"/>
			<path class="st46" d="M273.5,937.5c1.689-1.373,3.758-2.426,6-2.25"/>
			<path class="st53" d="M279.5,935.25c8.969-1.797,16.757,5.253,22.333,11.25"/>
			<path class="st72" d="M306.5,949.167c5.887,0.534,12.057,0.933,17.696-1.146"/>
			<path class="st55" d="M324.196,948.021c4.203-7.371,13.795-14.702,22.804-12.521"/>
			<path class="st60" d="M352.5,936.5c0.524-0.81,1.257-1.409,2-2"/>
			<path class="st46" d="M376.5,937.5c1.688-1.373,3.759-2.426,6-2.25"/>
			<path class="st53" d="M382.5,935.25c8.97-1.797,16.757,5.253,22.333,11.25"/>
			<path class="st72" d="M409.5,949.167c5.887,0.534,12.057,0.933,17.695-1.146"/>
			<path class="st55" d="M427.195,948.021c4.204-7.371,13.796-14.702,22.805-12.521"/>
			<path class="st60" d="M455.5,936.5c0.524-0.81,1.257-1.409,2-2"/>
			<path class="st46" d="M479.5,937.5c1.688-1.373,3.759-2.426,6-2.25"/>
			<path class="st53" d="M485.5,935.25c8.97-1.797,16.757,5.253,22.333,11.25"/>
			<path class="st72" d="M512.5,949.167c5.887,0.534,12.057,0.933,17.695-1.146"/>
			<path class="st55" d="M530.195,948.021c4.204-7.371,13.796-14.702,22.805-12.521"/>
			<path class="st60" d="M558.5,936.5c0.524-0.81,1.257-1.409,2-2"/>
			<path class="st69" d="M582.5,937.5c1.688-1.373,3.759-2.426,6-2.25"/>
			<path class="st1" d="M588.5,935.25c8.97-1.797,16.757,5.253,22.333,11.25"/>
			<path class="st59" d="M615.5,949.167c27.931,0.554,56.074,0.556,84,0"/>
			<path class="st47" d="M695.7,927.7c1.372-2.316,3.823-3.502,5.8-5.2"/>
			<path class="st32" d="M706.5,949.167c2.955,0.234,6.544,1.092,9.2-0.467"/>
			<path class="st44" d="M711.5,914.5c0.088-1.883-1.03-3.372-1.632-4.185c-2.724-1.717-6.2,0.413-6.782,3.367
				c0.328,4.665,6.268,5.459,7.414,9.817"/>
			<path class="st20" d="M710.5,923.5c7.209-1.049,7.992-12.609,8.398-20c1.866-33.912,0.102-69.349,0.102-105
				c0-171.186,0-349.84,0-523c0-71.862,1.871-142.185-0.003-209c-0.319-11.414,1.991-13.117-7.647-21.499
				c-0.283-0.167-0.566-0.334-0.85-0.501"/>
			<path class="st40" d="M710.5,44.5c-0.602,4.458-6.67,4.552-7.416,9.181c0.031,3.01,3.318,5.542,6.209,4.298
				c1.652-0.836,2.323-2.712,2.207-4.479"/>
			<path class="st36" d="M710.5,44.5c-0.786-0.667-1.886-1.333-3-2"/>
			<path class="st58" d="M701.5,45.5c-1.942-1.372-4.216-2.619-5.286-4.857"/>
			<path class="st64" d="M582.5,30.5c-0.754,0.754-1.595,1.595-2.5,2.5"/>
			<path class="st77" d="M557.5,31.5c-0.667,0.333-1.333,0.667-2,1"/>
			<path class="st64" d="M479.5,30.5c-0.754,0.754-1.596,1.595-2.5,2.5"/>
			<path class="st77" d="M454.5,31.5c-0.667,0.333-1.333,0.667-2,1"/>
			<path class="st31" d="M376.5,30.5c-0.754,0.754-1.596,1.595-2.5,2.5"/>
			<path class="st77" d="M351.5,31.5c-0.667,0.333-1.333,0.667-2,1"/>
			<path class="st31" d="M273.5,30.5c-0.754,0.754-1.595,1.595-2.5,2.5"/>
			<path class="st77" d="M248.5,31.5c-0.667,0.333-1.333,0.667-2,1"/>
			<path class="st31" d="M170.5,30.5c-0.754,0.754-1.595,1.595-2.5,2.5"/>
			<path class="st66" d="M115.714,19.357c6.55,6.258,14.655,15.191,24.786,13.393"/>
			<path class="st35" d="M218.714,19.357c6.627,6.267,15.04,15.722,25.286,13.143"/>
			<path class="st79" d="M321.714,19.357c6.627,6.267,15.04,15.722,25.286,13.143"/>
			<path class="st35" d="M424.714,19.357c6.628,6.267,15.04,15.722,25.286,13.143"/>
			<path class="st35" d="M527.714,19.357c6.628,6.267,15.04,15.722,25.286,13.143"/>
			<path class="st39" d="M189.286,21.357c-3.616,5.215-11.881,5.265-13.929,11.429"/>
			<path class="st57" d="M175.357,32.786c0.152,0.129,0.304,0.258,0.457,0.387c9.156,1.341,17.307-5.295,23.02-11.673"/>
			<path class="st39" d="M292.286,21.357c-3.616,5.215-11.881,5.265-13.929,11.429"/>
			<path class="st57" d="M278.357,32.786c0.152,0.129,0.304,0.258,0.457,0.387c9.156,1.341,17.307-5.295,23.02-11.673"/>
			<path class="st39" d="M395.286,21.357c-3.616,5.215-11.882,5.265-13.929,11.429"/>
			<path class="st57" d="M381.357,32.786c0.152,0.129,0.304,0.258,0.456,0.387c9.156,1.341,17.307-5.295,23.02-11.673"/>
			<path class="st39" d="M498.286,21.357c-3.616,5.215-11.882,5.265-13.929,11.429"/>
			<path class="st57" d="M484.357,32.786c0.152,0.129,0.304,0.258,0.456,0.387c9.156,1.341,17.307-5.295,23.02-11.673"/>
			<path class="st39" d="M601.286,21.357c-3.616,5.215-11.882,5.265-13.929,11.429"/>
			<path class="st57" d="M587.357,32.786c0.151,0.129,0.304,0.258,0.456,0.387c9.156,1.341,17.307-5.295,23.02-11.673"/>
			<path class="st74" d="M128.045,21.136c2.778,4.977,9.569,4.979,12.788,9.364"/>
			<path class="st21" d="M169.25,26.75c0.255,1.32,0.796,2.655,1.25,3.75"/>
			<path class="st75" d="M170.5,30.5c1.582,1.299,3.331,1.855,4.857,2.286"/>
			<path class="st49" d="M231.045,21.136c2.778,4.977,9.569,4.979,12.788,9.364"/>
			<path class="st21" d="M272.25,26.75c0.255,1.32,0.796,2.655,1.25,3.75"/>
			<path class="st75" d="M273.5,30.5c1.582,1.299,3.332,1.855,4.857,2.286"/>
			<path class="st49" d="M334.045,21.136c2.778,4.977,9.569,4.979,12.788,9.364"/>
			<path class="st21" d="M375.25,26.75c0.255,1.32,0.796,2.655,1.25,3.75"/>
			<path class="st75" d="M376.5,30.5c1.581,1.299,3.331,1.855,4.857,2.286"/>
			<path class="st14" d="M437.046,21.136c2.777,4.977,9.569,4.979,12.787,9.364"/>
			<path class="st11" d="M478.25,26.75c0.255,1.32,0.796,2.655,1.25,3.75"/>
			<path class="st21" d="M479.5,30.5c1.581,1.299,3.331,1.855,4.857,2.286"/>
			<path class="st14" d="M540.046,21.136c2.777,4.977,9.569,4.979,12.787,9.364"/>
			<path class="st11" d="M581.25,26.75c0.255,1.32,0.796,2.655,1.25,3.75"/>
			<path class="st21" d="M582.5,30.5c1.581,1.299,3.331,1.855,4.857,2.286"/>
			<path class="st6" d="M148.75,26.75c-0.602,1.624-1.307,3.084-3.25,4.75"/>
			<path class="st19" d="M145.5,31.5c0.707,1.411,2.319,3.112,4,2"/>
			<path class="st6" d="M251.75,26.75c-0.602,1.624-1.307,3.084-3.25,4.75"/>
			<path class="st19" d="M248.5,31.5c0.707,1.411,2.319,3.112,4,2"/>
			<path class="st6" d="M354.75,26.75c-0.602,1.624-1.307,3.084-3.25,4.75"/>
			<path class="st19" d="M351.5,31.5c0.707,1.411,2.319,3.112,4,2"/>
			<path class="st6" d="M457.75,26.75c-0.602,1.624-1.307,3.084-3.25,4.75"/>
			<path class="st19" d="M454.5,31.5c0.707,1.411,2.318,3.112,4,2"/>
			<path class="st25" d="M560.75,26.75c-0.602,1.624-1.307,3.084-3.25,4.75"/>
			<path class="st19" d="M557.5,31.5c0.707,1.411,2.318,3.112,4,2"/>
			<path class="st71" d="M23.5,918.5c1.7-1.332,2.91-3.364,2.458-5.575c-0.847-3.492-5.845-4.054-7.787-1.255
				c-0.503,1.54-0.25,3.29,0.162,4.1C20.085,916.949,20.91,919.953,23.5,918.5"/>
			<path class="st78" d="M148.75,941.25c3.482,0.44,7.351,0.212,9.75,3.25"/>
			<path class="st67" d="M158.5,944.5c2.708-2.492,6.375-3.305,10-3"/>
			<path class="st9" d="M168.5,941.5c0.354-1.702,0.939-2.22,2-4"/>
			<path class="st64" d="M170.5,937.5c-0.754-0.754-1.595-1.595-2.5-2.5"/>
			<path class="st78" d="M251.75,941.25c3.482,0.44,7.351,0.212,9.75,3.25"/>
			<path class="st67" d="M261.5,944.5c2.708-2.492,6.375-3.305,10-3"/>
			<path class="st56" d="M271.5,941.5c0.354-1.702,0.939-2.22,2-4"/>
			<path class="st64" d="M273.5,937.5c-0.754-0.754-1.595-1.595-2.5-2.5"/>
			<path class="st78" d="M354.75,941.25c3.482,0.44,7.351,0.212,9.75,3.25"/>
			<path class="st67" d="M364.5,944.5c2.708-2.492,6.375-3.305,10-3"/>
			<path class="st56" d="M374.5,941.5c0.354-1.702,0.939-2.22,2-4"/>
			<path class="st64" d="M376.5,937.5c-0.754-0.754-1.596-1.595-2.5-2.5"/>
			<path class="st78" d="M457.75,941.25c3.482,0.44,7.351,0.212,9.75,3.25"/>
			<path class="st68" d="M467.5,944.5c2.708-2.492,6.375-3.305,10-3"/>
			<path class="st56" d="M477.5,941.5c0.354-1.702,0.939-2.22,2-4"/>
			<path class="st64" d="M479.5,937.5c-0.754-0.754-1.596-1.595-2.5-2.5"/>
			<path class="st65" d="M560.75,941.25c3.482,0.44,7.351,0.212,9.75,3.25"/>
			<path class="st67" d="M570.5,944.5c2.708-2.492,6.375-3.305,10-3"/>
			<path class="st9" d="M580.5,941.5c0.354-1.702,0.939-2.22,2-4"/>
			<path class="st64" d="M582.5,937.5c-0.754-0.754-1.595-1.595-2.5-2.5"/>
			<path class="st2" d="M118.196,948.021c3.24,1.248,6.718-0.267,9.85-1.158"/>
			<path class="st22" d="M128.045,946.863c2.778-4.976,9.569-4.979,12.788-9.363"/>
			<path class="st37" d="M128.045,946.863c7.014,0.465,13.596-4.209,20.705-5.613"/>
			<path class="st3" d="M148.75,941.25c-0.765-1.779-1.469-3.142-2.25-4.75"/>
			<path class="st48" d="M146.5,936.5c-1.281-0.295-2.048-0.66-3-1"/>
			<path class="st10" d="M168.5,941.5c7.403,0.763,13.154,5.565,20.455,5.363"/>
			<path class="st64" d="M188.955,946.863c-2.458-5.777-12.114-4.878-12.455-11.613"/>
			<path class="st4" d="M188.955,946.863c3.226,0.364,6.16,2.267,9.545,1.887"/>
			<path class="st2" d="M221.196,948.021c3.24,1.248,6.718-0.267,9.85-1.158"/>
			<path class="st64" d="M231.045,946.863c2.778-4.976,9.569-4.979,12.788-9.363"/>
			<path class="st27" d="M231.045,946.863c7.014,0.465,13.596-4.209,20.705-5.613"/>
			<path class="st3" d="M251.75,941.25c-0.765-1.779-1.469-3.142-2.25-4.75"/>
			<path class="st61" d="M249.5,936.5c-1.281-0.295-2.048-0.66-3-1"/>
			<path class="st13" d="M271.5,941.5c7.403,0.763,13.154,5.565,20.455,5.363"/>
			<path class="st43" d="M291.955,946.863c-2.458-5.777-12.114-4.878-12.455-11.613"/>
			<path class="st4" d="M291.955,946.863c3.226,0.364,6.16,2.267,9.545,1.887"/>
			<path class="st2" d="M324.196,948.021c3.24,1.248,6.718-0.267,9.85-1.158"/>
			<path class="st64" d="M334.045,946.863c2.778-4.976,9.569-4.979,12.788-9.363"/>
			<path class="st27" d="M334.045,946.863c7.014,0.465,13.596-4.209,20.705-5.613"/>
			<path class="st3" d="M354.75,941.25c-0.765-1.779-1.469-3.142-2.25-4.75"/>
			<path class="st48" d="M352.5,936.5c-1.281-0.295-2.048-0.66-3-1"/>
			<path class="st10" d="M374.5,941.5c7.402,0.763,13.154,5.565,20.454,5.363"/>
			<path class="st43" d="M394.954,946.863c-2.458-5.777-12.113-4.878-12.454-11.613"/>
			<path class="st4" d="M394.954,946.863c3.227,0.364,6.161,2.267,9.546,1.887"/>
			<path class="st2" d="M427.195,948.021c3.24,1.248,6.718-0.267,9.851-1.158"/>
			<path class="st22" d="M437.046,946.863c2.777-4.976,9.569-4.979,12.787-9.363"/>
			<path class="st27" d="M437.046,946.863c7.013,0.465,13.596-4.209,20.704-5.613"/>
			<path class="st3" d="M457.75,941.25c-0.766-1.779-1.469-3.142-2.25-4.75"/>
			<path class="st48" d="M455.5,936.5c-1.281-0.295-2.048-0.66-3-1"/>
			<path class="st10" d="M477.5,941.5c7.402,0.763,13.154,5.565,20.454,5.363"/>
			<path class="st43" d="M497.954,946.863c-2.458-5.777-12.113-4.878-12.454-11.613"/>
			<path class="st4" d="M497.954,946.863c3.227,0.364,6.161,2.267,9.546,1.887"/>
			<path class="st2" d="M530.195,948.021c3.24,1.248,6.718-0.267,9.851-1.158"/>
			<path class="st22" d="M540.046,946.863c2.777-4.976,9.569-4.979,12.787-9.363"/>
			<path class="st27" d="M540.046,946.863c7.013,0.465,13.596-4.209,20.704-5.613"/>
			<path class="st3" d="M560.75,941.25c-0.766-1.779-1.469-3.142-2.25-4.75"/>
			<path class="st48" d="M558.5,936.5c-1.281-0.295-2.049-0.66-3-1"/>
			<path class="st10" d="M580.5,941.5c7.402,0.763,13.154,5.565,20.454,5.363"/>
			<path class="st26" d="M600.954,946.863c-2.458-5.777-12.113-4.878-12.454-11.613"/>
			<path class="st4" d="M600.954,946.863c3.227,0.364,6.161,2.267,9.546,1.887"/>
		</g>
	</g>
</g>
</svg>
