<?xml version="1.0" encoding="utf-8"?>
<!-- Generator: Adobe Illustrator 14.0.0, SVG Export Plug-In . SVG Version: 6.00 Build 43363)  -->
<!DOCTYPE svg PUBLIC "-//W3C//DTD SVG 1.1//EN" "http://www.w3.org/Graphics/SVG/1.1/DTD/svg11.dtd">
<svg version="1.1" id="Layer_1" xmlns="http://www.w3.org/2000/svg" xmlns:xlink="http://www.w3.org/1999/xlink" x="0px" y="0px"
	 width="2104.643px" height="2770.277px" viewBox="78.178 77.861 2104.643 2770.277"
	 style="enable-background:new 78.178 77.861 2104.643 2770.277;" xml:space="preserve">
<style type="text/css">
<![CDATA[
	.st0{fill:none;stroke:#586521;stroke-width:4.2772;stroke-linecap:round;stroke-linejoin:round;}
	.st1{fill:none;stroke:#586521;stroke-width:4.28;stroke-linecap:round;stroke-linejoin:round;}
	.st2{fill:#FFF0AD;}
	.st3{fill:#FFFFFF;}
]]>
</style>
<title>corners-menu-portrait</title>
<g id="corners-menu-portrait">
	<line id="Line" class="st1" x1="240.5" y1="116.5" x2="323.5" y2="116.5"/>
	<line id="Line-Copy" class="st1" x1="117" y1="322" x2="117" y2="239"/>
	
		<g id="Group-81-Copy" transform="translate(218.000000, 217.500000) scale(-1, 1) translate(-218.000000, -217.500000) translate(80.000000, 80.000000)">
		<path id="Fill-1" class="st3" d="M233.476,72.395l-0.015-0.015c-1.138-2.44-3.15-4.583-5.922-5.921
			c-3.792-1.842-9.019-2.167-15.392,0.333c-4.005,1.574-7.57,4.125-10.616,7.171c3.045-3.045,5.597-6.602,7.179-10.616
			c2.498-6.358,2.173-11.576,0.34-15.37c-1.294-2.69-3.349-4.665-5.693-5.832c2.196,0.999,18.09,7.526,34.258-4.258
			C224.921,55.294,233.476,72.395,233.476,72.395"/>
		<path id="Fill-3" class="st3" d="M162.794,143.047v0.006c-0.599-0.295-17.395-8.315-34.502,4.149
			c12.464-17.101,4.444-33.904,4.146-34.502h0.009c1.138,2.44,3.157,4.592,5.928,5.928c3.794,1.841,9.021,2.167,15.385-0.332
			c4.005-1.576,7.562-4.125,10.616-7.17c-3.045,3.045-5.597,6.602-7.18,10.616c-2.498,6.356-2.173,11.568-0.34,15.368
			C158.196,139.89,160.348,141.909,162.794,143.047"/>
		<path id="Fill-5" class="st3" d="M238.03,147.202c-17.098-12.464-33.903-4.444-34.502-4.147v-0.008
			c2.447-1.138,4.598-3.157,5.937-5.937c1.833-3.798,2.158-9.01-0.34-15.368c-1.574-4.014-4.125-7.57-7.179-10.616
			c3.054,3.045,6.61,5.597,10.625,7.17c6.365,2.498,11.585,2.173,15.377,0.334c2.72-1.309,4.715-3.409,5.871-5.79
			C233.01,114.571,226.032,130.753,238.03,147.202"/>
		<polyline id="Stroke-33" class="st0" points="258.743,234.928 258.743,16.942 40.757,16.942 		"/>
		<path id="Fill-35" class="st2" d="M241.801,252.781c4.773,1.616,11.275-0.391,15.009-8.955c1.375-3.156,1.933-6.612,1.933-10.029
			c0,3.417,0.576,6.89,1.951,10.049c3.715,8.546,10.216,10.553,14.989,8.937c-1.8,0.687-14.45,5.98-16.94,21.771
			C256.253,258.763,243.604,253.468,241.801,252.781"/>
		<path id="Stroke-37" class="st0" d="M241.801,252.781c4.773,1.616,11.275-0.391,15.009-8.955
			c1.375-3.156,1.933-6.612,1.933-10.029c0,3.417,0.576,6.89,1.951,10.049c3.715,8.546,10.216,10.553,14.989,8.937
			c-1.8,0.687-14.45,5.98-16.94,21.771C256.253,258.763,243.604,253.468,241.801,252.781z"/>
		<path id="Fill-39" class="st2" d="M21.771,0c-1.617,4.773,0.389,11.275,8.954,15.009c3.157,1.375,6.613,1.933,10.03,1.933
			c-3.417,0-6.891,0.576-10.049,1.951c-8.546,3.715-10.552,10.216-8.935,14.989c-0.687-1.8-5.982-14.45-21.771-16.94
			C15.79,14.453,21.085,1.803,21.771,0"/>
		<path id="Stroke-41" class="st0" d="M21.771,0c-1.617,4.773,0.389,11.275,8.954,15.009c3.157,1.375,6.613,1.933,10.03,1.933
			c-3.417,0-6.891,0.576-10.049,1.951c-8.546,3.715-10.552,10.216-8.935,14.989c-0.687-1.8-5.982-14.45-21.771-16.94
			C15.79,14.453,21.085,1.803,21.771,0z"/>
		<path id="Fill-43" class="st2" d="M189.349,92.333c0,3.831,1.463,7.644,4.375,10.565c-5.832-5.834-15.295-5.834-21.127,0
			c2.913-2.921,4.375-6.734,4.375-10.565c0-3.822-1.463-7.643-4.375-10.564c2.913,2.921,6.743,4.384,10.564,4.384
			c3.821,0,7.65-1.462,10.563-4.384C190.812,84.689,189.349,88.511,189.349,92.333"/>
		<path id="Fill-63" class="st3" d="M164.79,73.962c-3.045-3.045-6.602-5.597-10.616-7.171c-10.86-4.267-18.392-0.304-21.202,5.344
			c0.999-2.194,7.52-18.09-4.258-34.25c16.159,11.784,32.056,5.257,34.25,4.258c-5.648,2.81-9.611,10.342-5.345,21.202
			C159.193,67.36,161.745,70.917,164.79,73.962"/>
		<g id="Group" transform="translate(128.293212, 37.882915)">
			<path id="Stroke-15" class="st0" d="M44.723,44.306l-8.225-8.225c-3.047-3.048-6.604-5.599-10.616-7.175
				C0.698,19.015-6.578,53.38,21.398,50.399"/>
			<path id="Stroke-17" class="st0" d="M44.723,44.306l-8.225-8.225c-3.047-3.048-5.599-6.604-7.175-10.616
				C19.432,0.28,53.798-6.995,50.816,20.98"/>
			<path id="Stroke-21" class="st0" d="M65.431,65.014l8.225,8.225c3.048,3.047,6.604,5.599,10.616,7.175
				c25.185,9.891,32.46-24.475,4.485-21.493"/>
			<path id="Stroke-23" class="st0" d="M65.431,65.014l8.225,8.225c3.048,3.047,5.599,6.604,7.175,10.616
				c9.891,25.184-24.475,32.46-21.493,4.484"/>
			<path id="Stroke-25" class="st0" d="M75.222,105.18c0,0,17.1-8.552,34.515,4.141c-12.693-17.415-4.141-34.515-4.141-34.515"/>
			<path id="Stroke-27" class="st0" d="M65.014,44.306l8.225-8.225c3.047-3.048,5.599-6.604,7.175-10.616
				C90.305,0.28,55.94-6.995,58.921,20.98"/>
			<path id="Stroke-29" class="st0" d="M65.014,44.306l8.225-8.225c3.047-3.048,6.604-5.599,10.616-7.175
				c25.184-9.891,32.462,24.474,4.484,21.493"/>
			<path id="Stroke-31" class="st0" d="M105.18,34.515c0,0-8.552-17.1,4.141-34.515C91.906,12.693,74.805,4.141,74.805,4.141"/>
			<path id="Stroke-45" class="st0" d="M61.055,54.45c0,3.831,1.463,7.644,4.375,10.565c-5.832-5.834-15.295-5.834-21.127,0
				c2.913-2.921,4.375-6.734,4.375-10.565c0-3.822-1.463-7.643-4.375-10.564c2.913,2.921,6.743,4.384,10.564,4.384
				c3.821,0,7.65-1.462,10.563-4.384C62.518,46.807,61.055,50.628,61.055,54.45z"/>
			<path id="Stroke-47" class="st0" d="M44.306,65.014l-8.225,8.225c-3.047,3.047-5.599,6.604-7.175,10.616
				c-9.891,25.184,24.474,32.46,21.493,4.484"/>
			<path id="Stroke-49" class="st0" d="M44.306,65.014l-8.225,8.225c-3.047,3.047-6.604,5.599-10.616,7.175
				C0.281,90.306-6.997,55.94,20.98,58.921"/>
			<path id="Stroke-51" class="st0" d="M4.14,74.805c0,0,8.552,17.1-4.141,34.515c17.415-12.692,34.515-4.14,34.515-4.14"/>
			<path id="Stroke-65" class="st0" d="M36.497,36.079c-3.045-3.045-6.602-5.597-10.616-7.171
				c-10.86-4.267-18.392-0.304-21.203,5.344c0.999-2.194,7.52-18.09-4.258-34.25C16.579,11.786,32.476,5.259,34.67,4.26
				c-5.648,2.81-9.611,10.342-5.345,21.202C30.9,29.477,33.451,33.034,36.497,36.079z"/>
		</g>
	</g>
	
		<g id="Group-81-Copy-2" transform="translate(218.000000, 2708.500000) scale(-1, -1) translate(-218.000000, -2708.500000) translate(80.000000, 2571.000000)">
		<path id="Fill-1_1_" class="st3" d="M233.476,72.395l-0.015-0.015c-1.138-2.44-3.15-4.583-5.922-5.922
			c-3.792-1.842-9.019-2.167-15.392,0.333c-4.005,1.574-7.57,4.126-10.616,7.171c3.045-3.045,5.597-6.602,7.179-10.616
			c2.498-6.356,2.173-11.576,0.34-15.369c-1.294-2.69-3.349-4.664-5.693-5.832c2.196,0.998,18.09,7.525,34.258-4.259
			C224.921,55.294,233.476,72.395,233.476,72.395"/>
		<path id="Fill-3_1_" class="st3" d="M162.794,143.047v0.006c-0.599-0.295-17.395-8.313-34.502,4.149
			c12.464-17.101,4.444-33.903,4.146-34.503h0.009c1.138,2.439,3.157,4.592,5.928,5.929c3.794,1.841,9.021,2.167,15.385-0.331
			c4.005-1.576,7.562-4.126,10.616-7.171c-3.045,3.045-5.597,6.603-7.18,10.616c-2.498,6.354-2.173,11.566-0.34,15.367
			C158.196,139.891,160.348,141.909,162.794,143.047"/>
		<path id="Fill-5_1_" class="st3" d="M238.03,147.201c-17.098-12.463-33.903-4.443-34.502-4.146v-0.009
			c2.447-1.138,4.598-3.156,5.937-5.937c1.833-3.799,2.158-9.01-0.34-15.368c-1.574-4.015-4.125-7.57-7.179-10.616
			c3.054,3.046,6.61,5.598,10.625,7.171c6.365,2.498,11.585,2.173,15.377,0.334c2.72-1.31,4.715-3.409,5.871-5.789
			C233.01,114.57,226.032,130.754,238.03,147.201"/>
		<polyline id="Stroke-33_1_" class="st0" points="258.743,234.928 258.743,16.941 40.757,16.941 		"/>
		<path id="Fill-35_1_" class="st2" d="M241.801,252.781c4.773,1.615,11.275-0.391,15.009-8.955
			c1.375-3.156,1.933-6.612,1.933-10.029c0,3.417,0.576,6.891,1.951,10.049c3.715,8.547,10.216,10.553,14.989,8.937
			c-1.8,0.686-14.45,5.98-16.94,21.771C256.253,258.763,243.604,253.467,241.801,252.781"/>
		<path id="Stroke-37_1_" class="st0" d="M241.801,252.781c4.773,1.615,11.275-0.391,15.009-8.955
			c1.375-3.156,1.933-6.612,1.933-10.029c0,3.417,0.576,6.891,1.951,10.049c3.715,8.547,10.216,10.553,14.989,8.937
			c-1.8,0.686-14.45,5.98-16.94,21.771C256.253,258.763,243.604,253.467,241.801,252.781z"/>
		<path id="Fill-39_1_" class="st2" d="M21.771,0c-1.617,4.773,0.389,11.273,8.954,15.009c3.157,1.375,6.613,1.935,10.03,1.935
			c-3.417,0-6.891,0.574-10.049,1.949c-8.546,3.715-10.552,10.217-8.935,14.989C21.085,32.081,15.79,19.432,0,16.941
			C15.79,14.453,21.085,1.803,21.771,0"/>
		<path id="Stroke-41_1_" class="st0" d="M21.771,0c-1.617,4.773,0.389,11.273,8.954,15.009c3.157,1.375,6.613,1.935,10.03,1.935
			c-3.417,0-6.891,0.574-10.049,1.949c-8.546,3.715-10.552,10.217-8.935,14.989C21.085,32.081,15.79,19.432,0,16.941
			C15.79,14.453,21.085,1.803,21.771,0z"/>
		<path id="Fill-43_1_" class="st2" d="M189.349,92.333c0,3.83,1.463,7.644,4.375,10.563c-5.832-5.834-15.295-5.834-21.127,0
			c2.913-2.92,4.375-6.733,4.375-10.563c0-3.822-1.463-7.644-4.375-10.565c2.913,2.922,6.743,4.386,10.564,4.386
			c3.821,0,7.65-1.464,10.563-4.386C190.812,84.689,189.349,88.511,189.349,92.333"/>
		<path id="Fill-63_1_" class="st3" d="M164.79,73.962c-3.045-3.046-6.602-5.597-10.616-7.171
			c-10.86-4.268-18.392-0.304-21.202,5.345c0.999-2.194,7.52-18.091-4.258-34.25c16.159,11.783,32.056,5.257,34.25,4.259
			c-5.648,2.81-9.611,10.343-5.345,21.201C159.193,67.359,161.745,70.916,164.79,73.962"/>
		<g id="Group_1_" transform="translate(128.293212, 37.882915)">
			<path id="Stroke-15_1_" class="st0" d="M44.723,44.306l-8.225-8.225c-3.047-3.048-6.604-5.599-10.616-7.175
				C0.698,19.015-6.578,53.38,21.398,50.398"/>
			<path id="Stroke-17_1_" class="st0" d="M44.723,44.306l-8.225-8.225c-3.047-3.048-5.599-6.604-7.175-10.616
				C19.432,0.28,53.798-6.995,50.816,20.98"/>
			<path id="Stroke-21_1_" class="st0" d="M65.431,65.014l8.225,8.227c3.048,3.048,6.604,5.599,10.616,7.175
				c25.185,9.892,32.46-24.476,4.485-21.493"/>
			<path id="Stroke-23_1_" class="st0" d="M65.431,65.014l8.225,8.227c3.048,3.048,5.599,6.604,7.175,10.615
				c9.891,25.185-24.475,32.461-21.493,4.484"/>
			<path id="Stroke-25_1_" class="st0" d="M75.222,105.18c0,0,17.1-8.553,34.515,4.142c-12.693-17.415-4.141-34.517-4.141-34.517"/>
			<path id="Stroke-27_1_" class="st0" d="M65.014,44.306l8.225-8.225c3.047-3.048,5.599-6.604,7.175-10.616
				C90.305,0.28,55.94-6.995,58.921,20.98"/>
			<path id="Stroke-29_1_" class="st0" d="M65.014,44.306l8.225-8.225c3.047-3.048,6.604-5.599,10.616-7.175
				c25.184-9.893,32.462,24.474,4.484,21.492"/>
			<path id="Stroke-31_1_" class="st0" d="M105.18,34.516c0,0-8.552-17.101,4.141-34.516C91.906,12.691,74.805,4.141,74.805,4.141"
				/>
			<path id="Stroke-45_1_" class="st0" d="M61.055,54.449c0,3.831,1.463,7.645,4.375,10.564c-5.832-5.834-15.295-5.834-21.127,0
				c2.913-2.921,4.375-6.733,4.375-10.564c0-3.821-1.463-7.644-4.375-10.564c2.913,2.922,6.743,4.385,10.564,4.385
				c3.821,0,7.65-1.463,10.563-4.385C62.518,46.807,61.055,50.628,61.055,54.449z"/>
			<path id="Stroke-47_1_" class="st0" d="M44.306,65.014l-8.225,8.227c-3.047,3.048-5.599,6.604-7.175,10.615
				c-9.891,25.185,24.474,32.461,21.493,4.484"/>
			<path id="Stroke-49_1_" class="st0" d="M44.306,65.014l-8.225,8.227c-3.047,3.048-6.604,5.599-10.616,7.175
				C0.281,90.306-6.997,55.939,20.98,58.921"/>
			<path id="Stroke-51_1_" class="st0" d="M4.14,74.805c0,0,8.552,17.102-4.141,34.517c17.415-12.693,34.515-4.142,34.515-4.142"/>
			<path id="Stroke-65_1_" class="st0" d="M36.497,36.079c-3.045-3.046-6.602-5.597-10.616-7.171
				c-10.86-4.268-18.392-0.305-21.203,5.344c0.999-2.193,7.52-18.09-4.258-34.249C16.58,11.786,32.476,5.26,34.671,4.261
				c-5.648,2.811-9.611,10.343-5.345,21.202C30.9,29.476,33.451,33.033,36.497,36.079z"/>
		</g>
	</g>
	<g id="Group-81-Copy-4" transform="translate(1905.000000, 80.000000)">
		<path id="Fill-1_2_" class="st3" d="M233.477,72.395l-0.016-0.015c-1.138-2.44-3.15-4.583-5.922-5.921
			c-3.792-1.842-9.02-2.167-15.393,0.333c-4.006,1.574-7.569,4.125-10.615,7.171c3.046-3.045,5.597-6.602,7.18-10.616
			c2.498-6.358,2.173-11.576,0.34-15.37c-1.294-2.69-3.349-4.665-5.692-5.832c2.196,0.999,18.091,7.526,34.259-4.258
			C224.922,55.294,233.477,72.395,233.477,72.395"/>
		<path id="Fill-3_2_" class="st3" d="M162.794,143.047v0.006c-0.599-0.295-17.396-8.315-34.502,4.149
			c12.464-17.101,4.444-33.904,4.146-34.502h0.01c1.138,2.44,3.156,4.592,5.928,5.928c3.795,1.841,9.021,2.167,15.386-0.332
			c4.006-1.576,7.563-4.125,10.616-7.17c-3.046,3.045-5.597,6.602-7.18,10.616c-2.498,6.356-2.173,11.568-0.34,15.368
			C158.196,139.89,160.348,141.909,162.794,143.047"/>
		<path id="Fill-5_2_" class="st3" d="M238.029,147.202c-17.099-12.464-33.903-4.444-34.502-4.147v-0.008
			c2.446-1.138,4.598-3.157,5.938-5.937c1.832-3.798,2.157-9.01-0.341-15.368c-1.573-4.014-4.125-7.57-7.179-10.616
			c3.054,3.045,6.609,5.597,10.624,7.17c6.363,2.498,11.585,2.173,15.377,0.334c2.72-1.309,4.716-3.409,5.87-5.79
			C233.011,114.571,226.032,130.753,238.029,147.202"/>
		<polyline id="Stroke-33_2_" class="st0" points="258.742,234.928 258.742,16.942 40.757,16.942 		"/>
		<path id="Fill-35_2_" class="st2" d="M241.801,252.781c4.773,1.616,11.274-0.391,15.01-8.955
			c1.375-3.156,1.934-6.612,1.934-10.029c0,3.417,0.575,6.89,1.95,10.049c3.715,8.546,10.216,10.553,14.988,8.937
			c-1.801,0.687-14.449,5.98-16.938,21.771C256.254,258.763,243.604,253.468,241.801,252.781"/>
		<path id="Stroke-37_2_" class="st0" d="M241.801,252.781c4.773,1.616,11.274-0.391,15.01-8.955
			c1.375-3.156,1.934-6.612,1.934-10.029c0,3.417,0.575,6.89,1.95,10.049c3.715,8.546,10.216,10.553,14.988,8.937
			c-1.801,0.687-14.449,5.98-16.938,21.771C256.254,258.763,243.604,253.468,241.801,252.781z"/>
		<path id="Fill-39_2_" class="st2" d="M21.771,0c-1.617,4.773,0.389,11.275,8.953,15.009c3.157,1.375,6.612,1.933,10.03,1.933
			c-3.418,0-6.891,0.576-10.05,1.951c-8.546,3.715-10.552,10.216-8.936,14.989c-0.687-1.8-5.981-14.45-21.771-16.94
			C15.789,14.453,21.085,1.803,21.771,0"/>
		<path id="Stroke-41_2_" class="st0" d="M21.771,0c-1.617,4.773,0.389,11.275,8.953,15.009c3.157,1.375,6.612,1.933,10.03,1.933
			c-3.418,0-6.891,0.576-10.05,1.951c-8.546,3.715-10.552,10.216-8.936,14.989c-0.687-1.8-5.981-14.45-21.771-16.94
			C15.789,14.453,21.085,1.803,21.771,0z"/>
		<path id="Fill-43_2_" class="st2" d="M189.349,92.333c0,3.831,1.464,7.644,4.376,10.565c-5.832-5.834-15.296-5.834-21.128,0
			c2.913-2.921,4.376-6.734,4.376-10.565c0-3.822-1.463-7.643-4.376-10.564c2.913,2.921,6.743,4.384,10.565,4.384
			c3.821,0,7.648-1.462,10.563-4.384C190.813,84.689,189.349,88.511,189.349,92.333"/>
		<path id="Fill-63_2_" class="st3" d="M164.79,73.962c-3.045-3.045-6.603-5.597-10.616-7.171
			c-10.859-4.267-18.392-0.304-21.202,5.344c0.999-2.194,7.521-18.09-4.258-34.25c16.159,11.784,32.056,5.257,34.25,4.258
			c-5.647,2.81-9.61,10.342-5.345,21.202C159.193,67.36,161.745,70.917,164.79,73.962"/>
		<g id="Group_2_" transform="translate(128.293212, 37.882915)">
			<path id="Stroke-15_2_" class="st0" d="M44.723,44.306l-8.227-8.225c-3.047-3.048-6.604-5.599-10.615-7.175
				C0.698,19.015-6.577,53.38,21.397,50.399"/>
			<path id="Stroke-17_2_" class="st0" d="M44.723,44.306l-8.227-8.225c-3.047-3.048-5.599-6.604-7.175-10.616
				C19.432,0.28,53.798-6.995,50.816,20.98"/>
			<path id="Stroke-21_2_" class="st0" d="M65.431,65.014l8.226,8.225c3.047,3.047,6.604,5.599,10.616,7.175
				c25.184,9.891,32.459-24.475,4.483-21.493"/>
			<path id="Stroke-23_2_" class="st0" d="M65.431,65.014l8.226,8.225c3.047,3.047,5.599,6.604,7.175,10.616
				c9.892,25.184-24.475,32.46-21.493,4.484"/>
			<path id="Stroke-25_2_" class="st0" d="M75.222,105.18c0,0,17.101-8.552,34.515,4.141c-12.692-17.415-4.14-34.515-4.14-34.515"/>
			<path id="Stroke-27_2_" class="st0" d="M65.014,44.306l8.225-8.225c3.048-3.048,5.6-6.604,7.176-10.616
				C90.305,0.28,55.94-6.995,58.922,20.98"/>
			<path id="Stroke-29_2_" class="st0" d="M65.014,44.306l8.225-8.225c3.048-3.048,6.604-5.599,10.616-7.175
				c25.185-9.891,32.462,24.474,4.483,21.493"/>
			<path id="Stroke-31_2_" class="st0" d="M105.18,34.515c0,0-8.554-17.1,4.14-34.515C91.906,12.693,74.805,4.141,74.805,4.141"/>
			<path id="Stroke-45_2_" class="st0" d="M61.055,54.45c0,3.831,1.463,7.644,4.376,10.565c-5.832-5.834-15.297-5.834-21.129,0
				c2.914-2.921,4.377-6.734,4.377-10.565c0-3.822-1.464-7.643-4.377-10.564c2.914,2.921,6.743,4.384,10.565,4.384
				c3.821,0,7.649-1.462,10.563-4.384C62.518,46.807,61.055,50.628,61.055,54.45z"/>
			<path id="Stroke-47_2_" class="st0" d="M44.306,65.014l-8.227,8.225c-3.048,3.047-5.599,6.604-7.175,10.616
				c-9.891,25.184,24.475,32.46,21.493,4.484"/>
			<path id="Stroke-49_2_" class="st0" d="M44.306,65.014l-8.227,8.225c-3.048,3.047-6.604,5.599-10.616,7.175
				C0.281,90.306-6.997,55.94,20.98,58.921"/>
			<path id="Stroke-51_2_" class="st0" d="M4.14,74.805c0,0,8.553,17.1-4.142,34.515c17.415-12.692,34.517-4.14,34.517-4.14"/>
			<path id="Stroke-65_2_" class="st0" d="M36.497,36.079c-3.045-3.045-6.602-5.597-10.616-7.171
				c-10.858-4.267-18.392-0.304-21.201,5.344c0.998-2.194,7.52-18.09-4.259-34.25C16.58,11.786,32.477,5.259,34.671,4.26
				c-5.647,2.81-9.61,10.342-5.345,21.202C30.9,29.477,33.452,33.034,36.497,36.079z"/>
		</g>
	</g>
	
		<g id="Group-81-Copy-5" transform="translate(2043.000000, 2708.500000) scale(1, -1) translate(-2043.000000, -2708.500000) translate(1905.000000, 2571.000000)">
		<path id="Fill-1_3_" class="st3" d="M233.477,72.395l-0.016-0.015c-1.138-2.44-3.15-4.583-5.922-5.922
			c-3.792-1.842-9.02-2.167-15.393,0.333c-4.006,1.574-7.569,4.126-10.615,7.171c3.046-3.045,5.597-6.602,7.18-10.616
			c2.498-6.356,2.173-11.576,0.34-15.369c-1.294-2.69-3.349-4.664-5.692-5.832c2.196,0.998,18.091,7.525,34.259-4.259
			C224.922,55.294,233.477,72.395,233.477,72.395"/>
		<path id="Fill-3_3_" class="st3" d="M162.794,143.047v0.006c-0.599-0.295-17.396-8.313-34.502,4.149
			c12.464-17.101,4.444-33.903,4.146-34.503h0.01c1.138,2.439,3.156,4.592,5.928,5.929c3.795,1.841,9.021,2.167,15.386-0.331
			c4.006-1.576,7.563-4.126,10.616-7.171c-3.046,3.045-5.597,6.603-7.18,10.616c-2.498,6.354-2.173,11.566-0.34,15.367
			C158.196,139.891,160.348,141.909,162.794,143.047"/>
		<path id="Fill-5_3_" class="st3" d="M238.029,147.201c-17.099-12.463-33.903-4.443-34.502-4.146v-0.009
			c2.446-1.138,4.598-3.156,5.938-5.937c1.832-3.799,2.157-9.01-0.341-15.368c-1.573-4.015-4.125-7.57-7.179-10.616
			c3.054,3.046,6.609,5.598,10.624,7.171c6.363,2.498,11.585,2.173,15.377,0.334c2.72-1.31,4.716-3.409,5.87-5.789
			C233.011,114.57,226.032,130.754,238.029,147.201"/>
		<polyline id="Stroke-33_3_" class="st0" points="258.742,234.928 258.742,16.941 40.757,16.941 		"/>
		<path id="Fill-35_3_" class="st2" d="M241.801,252.781c4.773,1.615,11.274-0.391,15.01-8.955
			c1.375-3.156,1.934-6.612,1.934-10.029c0,3.417,0.575,6.891,1.95,10.049c3.715,8.547,10.216,10.553,14.988,8.937
			c-1.801,0.686-14.449,5.98-16.938,21.771C256.254,258.763,243.604,253.467,241.801,252.781"/>
		<path id="Stroke-37_3_" class="st0" d="M241.801,252.781c4.773,1.615,11.274-0.391,15.01-8.955
			c1.375-3.156,1.934-6.612,1.934-10.029c0,3.417,0.575,6.891,1.95,10.049c3.715,8.547,10.216,10.553,14.988,8.937
			c-1.801,0.686-14.449,5.98-16.938,21.771C256.254,258.763,243.604,253.467,241.801,252.781z"/>
		<path id="Fill-39_3_" class="st2" d="M21.771,0c-1.617,4.773,0.389,11.273,8.953,15.009c3.157,1.375,6.612,1.935,10.03,1.935
			c-3.418,0-6.891,0.574-10.05,1.949c-8.546,3.715-10.552,10.217-8.936,14.989c-0.685-1.801-5.98-14.45-21.77-16.94
			C15.789,14.453,21.085,1.803,21.771,0"/>
		<path id="Stroke-41_3_" class="st0" d="M21.771,0c-1.617,4.773,0.389,11.273,8.953,15.009c3.157,1.375,6.612,1.935,10.03,1.935
			c-3.418,0-6.891,0.574-10.05,1.949c-8.546,3.715-10.552,10.217-8.936,14.989c-0.685-1.801-5.98-14.45-21.77-16.94
			C15.789,14.453,21.085,1.803,21.771,0z"/>
		<path id="Fill-43_3_" class="st2" d="M189.349,92.333c0,3.83,1.464,7.644,4.376,10.563c-5.832-5.834-15.296-5.834-21.128,0
			c2.913-2.92,4.376-6.733,4.376-10.563c0-3.822-1.463-7.644-4.376-10.565c2.913,2.922,6.743,4.386,10.565,4.386
			c3.821,0,7.648-1.464,10.563-4.386C190.813,84.689,189.349,88.511,189.349,92.333"/>
		<path id="Fill-63_3_" class="st3" d="M164.79,73.962c-3.045-3.046-6.603-5.597-10.616-7.171
			c-10.859-4.268-18.392-0.304-21.202,5.345c0.999-2.194,7.521-18.091-4.258-34.25c16.159,11.783,32.056,5.257,34.25,4.259
			c-5.647,2.81-9.61,10.343-5.345,21.201C159.193,67.359,161.745,70.916,164.79,73.962"/>
		<g id="Group_3_" transform="translate(128.293212, 37.882915)">
			<path id="Stroke-15_3_" class="st0" d="M44.723,44.306l-8.227-8.225c-3.047-3.048-6.604-5.599-10.615-7.175
				C0.698,19.015-6.577,53.38,21.397,50.398"/>
			<path id="Stroke-17_3_" class="st0" d="M44.723,44.306l-8.227-8.225c-3.047-3.048-5.599-6.604-7.175-10.616
				C19.432,0.28,53.798-6.995,50.816,20.98"/>
			<path id="Stroke-21_3_" class="st0" d="M65.431,65.014l8.226,8.227c3.047,3.048,6.604,5.599,10.616,7.175
				c25.184,9.892,32.459-24.476,4.483-21.493"/>
			<path id="Stroke-23_3_" class="st0" d="M65.431,65.014l8.226,8.227c3.047,3.048,5.599,6.604,7.175,10.615
				c9.892,25.185-24.475,32.461-21.493,4.484"/>
			<path id="Stroke-25_3_" class="st0" d="M75.222,105.18c0,0,17.101-8.553,34.515,4.142c-12.692-17.415-4.14-34.517-4.14-34.517"/>
			<path id="Stroke-27_3_" class="st0" d="M65.014,44.306l8.225-8.225c3.048-3.048,5.6-6.604,7.176-10.616
				C90.305,0.28,55.94-6.995,58.922,20.98"/>
			<path id="Stroke-29_3_" class="st0" d="M65.014,44.306l8.225-8.225c3.048-3.048,6.604-5.599,10.616-7.175
				c25.185-9.893,32.462,24.474,4.483,21.492"/>
			<path id="Stroke-31_3_" class="st0" d="M105.18,34.516c0,0-8.554-17.101,4.14-34.516C91.906,12.691,74.805,4.141,74.805,4.141"/>
			<path id="Stroke-45_3_" class="st0" d="M61.055,54.449c0,3.831,1.463,7.645,4.376,10.564c-5.832-5.834-15.297-5.834-21.129,0
				c2.914-2.921,4.377-6.733,4.377-10.564c0-3.821-1.464-7.644-4.377-10.564c2.914,2.922,6.743,4.385,10.565,4.385
				c3.821,0,7.649-1.463,10.563-4.385C62.518,46.807,61.055,50.628,61.055,54.449z"/>
			<path id="Stroke-47_3_" class="st0" d="M44.306,65.014L36.08,73.24c-3.048,3.048-5.599,6.604-7.175,10.615
				c-9.891,25.185,24.475,32.461,21.493,4.484"/>
			<path id="Stroke-49_3_" class="st0" d="M44.306,65.014L36.08,73.24c-3.048,3.048-6.604,5.599-10.616,7.175
				C0.281,90.306-6.997,55.939,20.98,58.921"/>
			<path id="Stroke-51_3_" class="st0" d="M4.14,74.805c0,0,8.553,17.102-4.142,34.517c17.415-12.693,34.517-4.142,34.517-4.142"/>
			<path id="Stroke-65_3_" class="st0" d="M36.497,36.079c-3.045-3.046-6.602-5.597-10.616-7.171
				c-10.858-4.268-18.392-0.305-21.201,5.344c0.998-2.193,7.52-18.09-4.259-34.249C16.58,11.786,32.476,5.26,34.671,4.261
				c-5.647,2.811-9.61,10.343-5.345,21.202C30.9,29.476,33.452,33.033,36.497,36.079z"/>
		</g>
	</g>
</g>
</svg>
