<?xml version="1.0" encoding="utf-8"?>
<!-- Generator: Adobe Illustrator 14.0.0, SVG Export Plug-In . SVG Version: 6.00 Build 43363)  -->
<!DOCTYPE svg PUBLIC "-//W3C//DTD SVG 1.1//EN" "http://www.w3.org/Graphics/SVG/1.1/DTD/svg11.dtd">
<svg version="1.1" id="Layer_1" xmlns="http://www.w3.org/2000/svg" xmlns:xlink="http://www.w3.org/1999/xlink" x="0px" y="0px"
	 width="545.066px" height="725.066px" viewBox="0 0 545.066 725.066" style="enable-background:new 0 0 545.066 725.066;"
	 xml:space="preserve">
<style type="text/css">
<![CDATA[
	.st0{fill:#FFFFFF;}
	.st1{fill:#090D0A;}
]]>
</style>
<g>
	<g>
		<g>
			<g>
				<path class="st1" d="M491.967,8.295c-18.204,0.344-49.426-0.211-44.239-1.453l-3.686-0.765
					C459.521,6.202,524.176,6.225,491.967,8.295z"/>
				<path class="st0" d="M496.337,13.833c-15.742-0.43-3.698-0.765-0.961-1.228l21.652,0.111
					C523.609,13.318,505.419,13.664,496.337,13.833z"/>
				<path class="st1" d="M487.162,25.565l6.397,0.297c-6.397-0.297-15.742-0.431-21.863-0.418
					c-0.526-0.617,11.294-1.258,23.824-0.973C492.822,24.938,480.542,24.962,487.162,25.565z"/>
				<path class="st1" d="M172.366,12.781c-4.686,1.86,15.927,4.593,41.989,6.39l-9.833,3.102
					c-19.678-1.501-59.035-0.652-89.769-0.592c-11.807,0.64,28.523,1.023-1.725,1.698c-3.422-0.455-0.948-1.231-7.345-1.527
					c-27.062,0.825-12.82,3.263-71.815,2.608l-9.833-0.75l-4.917-0.375l-2.458-0.188l-0.614-0.047l-0.01,0
					c3.15-3.152-7.059,7.055,7.063-7.067l0,0.005l-0.001,0.019l-0.003,0.039l-0.006,0.077l-0.012,0.154l-0.023,0.307l-0.094,1.229
					c0.047,101.51,2.569,207.219,1.065,303.819c1.575,17.204,1.057,66.892,2.042,96.876l-0.924,0.711
					c1.574,17.23-0.372,46.478-0.174,67.867l-0.886,19.164c-1.527,7.332-0.725-54.835-3.003-37.645
					c-1.304,41.041,2.141,69.116,0.514,104.222c-0.393,34.156,0.678,30.234,1.181,51.387c0.938,5.423,0.913-6.871,1.995-4.66
					c0.307,38.237-0.77,58.334-1.869,77.289l-0.411,7.089l-0.201,3.566l-0.049,0.897l-0.025,0.45l-0.006,0.113
					c-2.753-2.747,6.16,6.188-6.173-6.152l0.028,0.002l0.056,0.003l0.226,0.013l1.814,0.097c4.862,0.256,9.918,0.492,15.435,0.688
					c11.033,0.39,23.906,0.615,40.744,0.505c2.461-0.776,56.284-2.733,6.16-3.867l-23.837,0.974l-16.229-1.047
					c18.441-0.037,52.361,0.05,48.438-1.021c24.298,3.496,126.65-3.334,75.461,2.006c-31.472-0.861-40.594-0.688-60.996,0.738
					c71.065,0.322,133.706,1.738,192.24,1.776l17.203-1.574c1.237,1.538,29.761,2.561,57.745,2.968
					c12.044-0.335,27.549-0.208,23.837-0.973c5.437-0.937-101.997-0.57-51.821-3.288c65.129,0.642,133.97,2.049,175.721,4.276
					c-30.497,0.368-52.36-0.052-84.582,2.018c-109.145,2.065-227.358,0.45-333.106,2.973c-3.923-1.072-31.959-1.479-23.561-2.573
					c-9.833-0.751-36.908,0.072-44.24-1.454c-5.118,0.097-10.291,0.184-15.511,0.263l-0.979,0.014l-0.245,0.004
					c5.298,5.302,1.468,1.435,2.65,2.602l-0.001-0.061l-0.002-0.123l-0.007-0.49l-0.028-1.964l-0.054-3.94l-0.099-7.927
					c-0.124-10.608-0.215-21.368-0.281-32.208c-0.132-21.68-0.162-43.68-0.138-65.435c0.048-43.509,0.31-86.034,0.39-123.041
					c-2.731,20.64-1.782-44.753-2.903-65.392c1.194-19.428,0.666-52.861,0.618-77.436c-0.469-2.698-0.651-17.954-1.416-14.255
					c0.344,18.191-0.258,24.812-0.53,43.489c-2.019-7.634,0.074-40.067,0.174-67.84l1.107,14.505
					c0.062-46.214,3.499-101.247,1.566-142.828l-1.934,35.394c-0.874-51.624,1.774-115.252-0.613-153.397
					c-0.704,34.434,0.799,91.717-1.822,90.704c-1.392-1.961-1.318-42.028-0.738-60.969c0.653-20.514,0.788-39.852,0.684-58.426
					l-0.005-0.87l-0.003-0.435c6.769-6.754,1.908-1.873,3.433-3.38l0.054,0l0.108,0l0.217-0.001l1.735-0.012l3.456-0.028
					l6.864-0.069c4.554-0.052,9.067-0.114,13.545-0.182c8.957-0.137,17.773-0.299,26.501-0.452
					C103.482,11.301,136.984,10.849,172.366,12.781z"/>
				<path class="st1" d="M61.036,8.227C44.135,8.26,33.563,8.512,26.198,8.866c-3.683,0.177-6.564,0.379-9.034,0.593L16.256,9.54
					l-0.221,0.02c-12.94,12.938-3.586,3.594-6.474,6.485l0.001,0.014l0.002,0.028l0.005,0.055l0.01,0.109l0.041,0.433l0.165,1.664
					c0.11,1.078,0.222,2.102,0.332,3.121c0.883,8.149,1.708,15.961,1.541,48.414c-1.403-8.134-2.573,23.548-2.686,45.201
					c0.812,20.902,0.247,45.977,0.285,64.391c-0.286,12.557-1.984,10.833-2.033-13.781c1.404-30.353,0.989-64.641,0.556-98.53
					C7.564,50.217,7.343,33.373,7.342,17.17l0-0.759v-0.189v-0.095V16.08c3.876-3.892-8.678,8.644,8.691-8.737l0.379,0l1.513,0.001
					l3.015,0.008l5.978,0.034c3.962,0.031,7.875,0.079,11.732,0.148C46.363,7.673,53.848,7.894,61.036,8.227z"/>
				<path class="st0" d="M119.504,15.969c-33.709,0.22-20.876-3.042-54.059-2.206c14.018-1.722,18.415-0.034,49.149-0.098
					l-17.717,0.962L119.504,15.969z"/>
				<path class="st1" d="M11.582,186.884c0.197,21.402-0.628,71.263-2.474,72.737c-0.149,3.185-1.084-2.225-0.751,9.833
					C8.933,250.512,9.132,194.979,11.582,186.884z"/>
				<path class="st0" d="M18.946,91.811c0.331,12.043,0.354,24.337,0.393,42.752C19.007,122.519,18.207,107.79,18.946,91.811z"/>
				<path class="st1" d="M15.028,214.934c1.379-4.186,0.344,18.204,0.356,24.324l-0.59,12.807
					C14.462,239.995,14.275,224.74,15.028,214.934z"/>
				<path class="st1" d="M10.925,399.736c-0.555,31.222-1.759-32.459-1.995,4.673l-0.195-21.39l2.141-7.857L10.925,399.736z"/>
				<path class="st1" d="M9.018,447.411c0.48,8.885,0.651,17.98,0.219,33.71l-0.787-8.635C8.13,466.616,9.042,459.705,9.018,447.411
					z"/>
				<path class="st1" d="M13.869,406.646c0.49,15.032-0.591,12.795-1.035,22.39C12.207,423.351,13.683,391.431,13.869,406.646z"/>
				<path class="st1" d="M26.802,556.464c-1.722-14.019-0.699-42.528-1.215-69.828C26.104,513.936,27.05,525.479,26.802,556.464z"/>
				<path class="st1" d="M538.294,202.429c-0.592,12.768-0.101,27.773,0.381,36.618l0.604-6.66L538.294,202.429z"/>
				<path class="st1" d="M539.157,17.073l-0.093-0.618l-0.045-0.289l-0.011-0.07l-0.006-0.035L539,16.044l-0.001-0.008
					c2.168,2.163-18.876-18.872-9.972-9.967l-0.137,0.022l-0.968,0.165c-0.575,0.104-1.013,0.199-1.32,0.284
					c-0.615,0.171-0.713,0.305-0.361,0.414c0.351,0.108,1.15,0.192,2.328,0.26l0.46,0.025c-7.856-7.859,10.711,10.706,8.798,8.797
					l-0.001,0.008v0.015l-0.002,0.03l-0.003,0.061l-0.006,0.122l-0.012,0.251l-0.044,1.089c-0.028,0.77-0.054,1.625-0.078,2.559
					c-0.197,7.465-0.327,19.877-1.072,32.783c-0.395,34.157,1.219,69.814,1.132,103.761l1.12,20.652
					C539.551,136.8,540.181,65.511,539.157,17.073z"/>
				<path class="st0" d="M504.195,15.979c6.324,0.219,13.113,0.292,20.028,0.277c1.465,0.084,4.055-0.209,4.612,0.171l0.053,5.219
					c0.044,3.477,0.102,6.943,0.166,10.355c0.259,13.648,0.631,26.435,0.647,35.643c0.125-15.486,0.206-33.246,0.27-49.837
					l0.006-1.552c-1.961-2.332-1.432-0.65-2.268-1.172l-3.063-0.011l-6.011-0.021c-3.948-0.014-7.77-0.027-11.41-0.041
					c-7.281-0.026-13.841-0.051-19.247-0.079C485.254,15.398,497.798,15.681,504.195,15.979z"/>
				<path class="st1" d="M539.408,530.836c-0.085-43.002,1.492-102.722-1.068-149.948c-0.419,21.889-1.033,22.376-1.429,56.52
					c-2.671-25.574,0.358-52.598,0.297-83.332c-0.565,25.088-1.71-7.845-1.908-29.261c0.689-40.541,0.409-104.958,0.298-160.281
					c-0.972-23.824,0.568-101.997-2.027-90.703c-0.111-16.855,0.332-26.444,0.873-34.952c0.271-4.254,0.566-8.237,0.83-12.724
					c0.131-2.243,0.255-4.612,0.363-7.204l0.078-1.987l0.019-0.511l0.01-0.257l0.004-0.129l0.001-0.033
					c-13.425-13.42-3.73-3.72-6.73-6.716l-0.017,0l-0.065-0.002l-1.051-0.035c-1.42-0.045-2.906-0.086-4.473-0.122
					c-74.5,3.076-133.666-5.592-213.853-1.888c4.936-1.551-34.868-1.318-50.374-1.441c-33.907-0.086-114.041-0.236-96.376,2.658
					c23.1,1.958,69.801-1.217,105.195,0.714c60.943,3.115-63.654,1.207-64.667,3.827c8.858-0.477,13.755,1.825,40.791,0.997
					c-57.534,1.196,23.812,2.885-5.686,4.485c65.866,1.563,59.732,1.575,93.138,4.899c39.58-0.541,28.537-2.831,39.856-4.087
					c42.028-1.316,75.159,1.702,111.606,1.013c-13.781,2.03,1.454,2.809,25.511,3.07c6.014,0.065,12.579,0.098,19.38,0.11
					l0.639,0.001l0.319,0h0.08h0.04c6.703,6.684-9.083-9.109-7.461-7.464v0.16l-0.002,1.283l-0.002,2.58l0.002,5.199l0.02,10.456
					c0.037,13.914,0.111,27.508,0.133,38.259c-0.197,55.546,3.582,18.717,3.236,77.462c-1.943,29.234-2.584-59.508-4.664-20.942
					l0.822,27.036c1.577,17.243,3.607,31.011,4.728,51.677c0.024,12.293,0.062,30.734-0.554,31.208
					c-0.665-24.114-2.19-16.743-3.066,8.608c0.639,11.793,0.801,14.729,1.428,20.389c4.371-49.61,0.255,52.137,2.793,87.018
					c3.591,101.813-5.133,53.321-3.242,153.384c3.793-30.695,1.981,66.155,3.435,98.852c-0.099,27.772-1.159,37.855-2.354,57.257
					c0.417,7.635,0.63,29.076,1.367,32.328c5.082-15.506,9.868-79.885,14.076-163.27
					C539.609,532.731,539.516,530.77,539.408,530.836z"/>
			</g>
		</g>
	</g>
</g>
</svg>
