<?xml version="1.0" encoding="utf-8"?>
<!-- Generator: Adobe Illustrator 14.0.0, SVG Export Plug-In . SVG Version: 6.00 Build 43363)  -->
<!DOCTYPE svg PUBLIC "-//W3C//DTD SVG 1.1//EN" "http://www.w3.org/Graphics/SVG/1.1/DTD/svg11.dtd">
<svg version="1.1" id="Layer_1" xmlns="http://www.w3.org/2000/svg" xmlns:xlink="http://www.w3.org/1999/xlink" x="0px" y="0px"
	 width="2261px" height="2926px" viewBox="0 0 2261 2926" style="enable-background:new 0 0 2261 2926;" xml:space="preserve">
<style type="text/css">
<![CDATA[
	.st0{fill:none;stroke:#212843;stroke-width:4;stroke-linecap:square;}
]]>
</style>
<title>classic-vibes-border</title>
<g id="classic-vibes-border">
	<line id="Line-6" class="st0" x1="0" y1="116" x2="2261" y2="116"/>
	<line id="Line-6-Copy" class="st0" x1="0" y1="2810" x2="2261" y2="2810"/>
	<path class="st0" d="M2145-0.5c0.5,976,0.5,1951,0,2927.447"/>
	<path class="st0" d="M116-0.5c-0.5,976-0.5,1950,0,2926.438"/>
	
		<rect id="Rectangle" x="92" y="92" transform="matrix(-0.7071 0.7071 -0.7071 -0.7071 280.0488 116)" class="st0" width="48" height="48"/>
	
		<rect id="Rectangle-Copy-2" x="2121" y="92" transform="matrix(-0.7071 0.7071 -0.7071 -0.7071 3743.7686 -1318.7196)" class="st0" width="48" height="48"/>
	
		<rect id="Rectangle-Copy" x="92" y="2786" transform="matrix(-0.7071 0.7071 -0.7071 -0.7071 2185.0081 4714.9307)" class="st0" width="48" height="48"/>
	
		<rect id="Rectangle-Copy-3" x="2121" y="2786" transform="matrix(-0.7071 0.7071 -0.7071 -0.7071 5648.7139 3280.2261)" class="st0" width="48" height="48"/>
</g>
</svg>
