<?xml version="1.0" encoding="utf-8"?>
<!-- Generator: Adobe Illustrator 14.0.0, SVG Export Plug-In . SVG Version: 6.00 Build 43363)  -->
<!DOCTYPE svg PUBLIC "-//W3C//DTD SVG 1.1//EN" "http://www.w3.org/Graphics/SVG/1.1/DTD/svg11.dtd">
<svg version="1.1" id="Nouveau_x5F_20_xA0_Image_1_"
	 xmlns="http://www.w3.org/2000/svg" xmlns:xlink="http://www.w3.org/1999/xlink" x="0px" y="0px" width="729px" height="969px"
	 viewBox="0 0 729 969" style="enable-background:new 0 0 729 969;" xml:space="preserve">
<style type="text/css">
<![CDATA[
	.st0{fill:#000000;fill-rule:evenodd;clip-rule:evenodd;}
]]>
</style>
<g>
	<g>
		<path class="st0" d="M709,937c5.786-0.39,11.162-1.944,14,4c6.546,13.709-12.063,23.11-19,24c-17.538,2.249-30.88-6.749-43-8
			c-23.477-2.424-49.129,0-74,0c-143.936,0-298.2,0-444,0c-25.27,0-50.664-1.916-74,0c-12.619,1.036-23.892,7.164-35,8
			c-11.961,0.899-35.525-6.049-29-23c2.096-5.445,5.187-7.789,14-4c-11.065-11.545-2.814-38.138-7-59
			c-1.471-7.329-6.538-13.514-7-20c-0.836-11.738,6.808-20.454,8-32c0.682-6.604,0.429-14.876-1-22c-1.34-6.681-6.529-13.396-7-20
			c-0.826-11.591,6.815-20.523,8-32c0.699-6.768,0.449-14.78-1-22c-1.335-6.655-6.536-13.486-7-20c-0.793-11.128,6.775-20.14,8-32
			c0.674-6.524,0.233-14.16-1-21c-1.329-7.369-6.721-15.072-7-22c-0.455-11.283,6.873-20.082,8-31c0.7-6.78,0.443-14.806-1-22
			c-1.446-7.209-6.716-13.952-7-21c-0.466-11.561,6.9-20.343,8-31c0.693-6.718,0.488-14.585-1-22c-1.238-6.17-6.521-13.27-7-20
			c-0.797-11.186,6.804-20.419,8-32c0.708-6.857,0.426-14.894-1-22c-1.481-7.383-6.718-14.009-7-21c-0.455-11.264,6.876-20.114,8-31
			c0.708-6.855,0.449-14.776-1-22c-1.416-7.056-6.725-14.175-7-21c-0.451-11.183,6.843-19.794,8-31c0.675-6.537,0.485-14.6-1-22
			c-1.213-6.047-6.53-13.41-7-20c-0.789-11.069,6.765-20.041,8-32c0.686-6.646,0.436-14.842-1-22c-1.437-7.162-6.721-14.085-7-21
			c-0.421-10.448,6.771-19.091,8-31c0.663-6.425,0.458-14.737-1-22c-1.287-6.414-6.527-13.363-7-20c-0.632-8.868,6.712-20.609,8-31
			c1.585-12.784-1.53-23.618-4-34C4.708,35.961-1.767,8.146,19,4c12.023-2.401,28.714,0,44,0c193.142,0,377.903,0,572,0
			c20.967,0,73.176-4.838,83,4c15.612,14.046-5.262,55.106-3,78c1.165,11.797,8.458,20.655,8,32c-0.31,7.679-5.404,12.556-7,20
			c-1.351,6.303-1.446,14.466-1,21c0.768,11.232,7.734,21.11,8,33c0.167,7.463-5.275,11.953-7,20c-1.393,6.497-1.528,15.688-1,22
			c0.983,11.762,8.077,22.528,8,31c-0.071,7.845-5.41,13.922-7,22c-1.354,6.885-1.544,14.495-1,21c0.98,11.723,8.09,21.158,8,31
			c-0.064,7.026-5.358,13.338-7,21c-1.419,6.624-1.438,14.598-1,21c0.825,12.074,8.453,21.758,8,33c-0.287,7.116-5.463,12.828-7,20
			c-1.848,8.625-1.308,17.928,0,26c1.427,8.81,7.092,17.014,7,27c-0.074,8.127-5.289,13.015-7,21c-1.439,6.716-1.543,15.504-1,22
			c0.919,10.983,8.418,21.648,8,32c-0.276,6.859-5.508,13.038-7,20c-1.429,6.667-1.418,14.878-1,21c0.815,11.932,8.47,21.366,8,33
			c-0.289,7.174-5.506,13.026-7,20c-1.505,7.023-1.538,15.565-1,22c0.892,10.66,8.105,19.432,8,31c-0.067,7.377-5.467,14.209-7,22
			c-1.301,6.611-1.558,14.331-1,21c0.938,11.213,8.451,20.814,8,32c-0.326,8.07-5.53,13.14-7,20c-1.459,6.808-1.568,15.204-1,22
			c0.86,10.281,7.733,20.087,8,32c0.131,5.851-5.293,12.033-7,20C711.503,898.985,720.779,924.667,709,937z M668,9
			C467.956,9,266.899,9,67,9c-15.948,0-37.117-1.492-46,2c-8.046,4.75-3.614,22.996-3,36c0.664,14.042,1.106,31.57,0,43
			c-0.631,6.521-5.179,16.613-5,21c0.18,4.425,4.323,10.054,5,15c1.551,11.339,1.114,26.489,0,38c-0.693,7.167-5.259,14.633-5,21
			c0.19,4.66,4.309,9.944,5,15c1.612,11.783,1.227,27.481,0,39c-0.741,6.953-5.246,13.959-5,20c0.192,4.714,4.339,10.169,5,15
			c1.61,11.772,1.253,27.233,0,39c-0.682,6.404-5.266,13.485-5,20c0.198,4.861,4.36,10.322,5,15c1.654,12.092,1.255,27.214,0,39
			c-0.667,6.267-5.271,13.345-5,20c0.191,4.693,4.371,10.398,5,15c1.628,11.905,1.125,26.371,0,38c-0.63,6.511-5.278,14.173-5,21
			c0.195,4.798,4.316,9.997,5,15c1.633,11.938,1.28,26.978,0,39c-0.656,6.158-5.27,13.382-5,20c0.192,4.717,4.32,10.03,5,15
			c1.598,11.686,1.121,26.416,0,38c-0.66,6.823-5.282,14.084-5,21c0.198,4.86,4.36,10.321,5,15c1.62,11.842,1.128,26.339,0,38
			c-0.641,6.62-5.276,14.229-5,21c0.194,4.761,4.385,10.502,5,15c1.671,12.216,1.229,27.456,0,39c-0.69,6.479-5.275,13.253-5,20
			c0.181,4.447,4.342,10.192,5,15c1.596,11.666,1.246,27.303,0,39c-0.719,6.755-5.252,13.813-5,20c0.143,3.518,4.115,8.529,5,15
			c2.391,17.479-2.491,43.597,0,57c0.951,5.117,9.413,14.088,8,19c-2.308,8.023-6.15-0.335-9,5c9.055,13.561,27.957,5.92,42,5
			c49.618-3.252,101.293,0,153,0c125.3,0,258.008,0,382,0c26.119,0,52.449-1.892,77,0c13.088,1.008,34.163,8.572,40-6
			c-18.096,1.604-2.498-14.953-1-24c2.284-13.797-2.62-39.721,0-57c0.885-5.835,4.859-10.539,5-14c0.264-6.48-4.319-13.971-5-21
			c-1.178-12.174-1.664-28.028,0-39c0.712-4.696,4.839-10.049,5-14c0.288-7.07-4.391-14.915-5-22c-1-11.627-1.797-26.155,0-38
			c0.711-4.69,4.813-9.39,5-14c0.291-7.13-4.383-14.827-5-22c-1.009-11.73-1.752-26.451,0-38c0.726-4.784,4.813-9.421,5-14
			c0.284-6.984-4.355-14.514-5-22c-1.004-11.664-1.688-26.865,0-38c0.739-4.874,4.821-9.624,5-14c0.276-6.788-4.319-13.963-5-21
			c-1.13-11.676-1.78-27.26,0-39c0.729-4.811,4.813-9.391,5-14c0.279-6.848-4.369-14.483-5-21c-1.148-11.872-1.804-27.106,0-39
			c0.722-4.758,4.809-9.314,5-14c0.131-3.21-2.322-6.828-3-10c-2.717-12.719-4.349-34.514-2-50c0.686-4.52,4.82-9.581,5-14
			c0.285-6.99-4.327-14.049-5-21c-1.121-11.583-1.811-27.063,0-39c0.708-4.668,4.815-9.48,5-14c0.283-6.944-4.354-14.332-5-21
			c-1.14-11.78-1.83-26.935,0-39c0.685-4.516,4.813-9.431,5-14c0.289-7.089-4.386-14.857-5-22c-0.998-11.607-1.794-26.168,0-38
			c0.671-4.422,4.822-9.643,5-14c0.287-7.052-4.418-15.239-5-22c-1.147-13.334-0.639-28.599,0-42c0.569-11.947,4.834-25.105-2-36
			C695.117,7.401,681.094,9,668,9z"/>
		<g>
		</g>
	</g>
</g>
</svg>
