<?xml version="1.0" encoding="utf-8"?>
<!-- Generator: Adobe Illustrator 14.0.0, SVG Export Plug-In . SVG Version: 6.00 Build 43363)  -->
<!DOCTYPE svg PUBLIC "-//W3C//DTD SVG 1.1//EN" "http://www.w3.org/Graphics/SVG/1.1/DTD/svg11.dtd">
<svg version="1.1" id="Layer_1" xmlns="http://www.w3.org/2000/svg" xmlns:xlink="http://www.w3.org/1999/xlink" x="0px" y="0px"
	 width="543.446px" height="723.446px" viewBox="0 0 543.446 723.446" style="enable-background:new 0 0 543.446 723.446;"
	 xml:space="preserve">
<style type="text/css">
<![CDATA[
	.st0{fill:#ED1B23;}
	.st1{fill:#FCB53A;}
	.st2{fill:#2F69B3;}
]]>
</style>
<g>
	<g>
		<g>
			<polygon class="st1" points="2.574,669.248 0,684.691 5.15,684.691 			"/>
			<polygon class="st0" points="7.075,694.859 5.146,684.688 9.006,684.688 			"/>
			<polygon class="st0" points="21.24,694.859 19.309,684.688 23.171,684.688 			"/>
			<polygon class="st1" points="25.743,669.248 23.167,684.691 28.319,684.691 			"/>
			<polygon class="st1" points="11.583,669.248 9.008,684.691 14.158,684.691 			"/>
			<polygon class="st1" points="16.729,669.248 14.154,684.691 19.304,684.691 			"/>
			<polygon class="st2" points="2.574,669.252 0,653.809 5.15,653.809 			"/>
			<polygon class="st0" points="7.075,643.642 5.146,653.812 9.006,653.812 			"/>
			<polygon class="st0" points="21.24,643.642 19.309,653.812 23.171,653.812 			"/>
			<polygon class="st2" points="25.743,669.252 23.167,653.809 28.319,653.809 			"/>
			<polygon class="st2" points="11.583,669.252 9.008,653.809 14.158,653.809 			"/>
			<polygon class="st2" points="16.729,669.252 14.154,653.809 19.304,653.809 			"/>
		</g>
		<g>
			<polygon class="st1" points="2.574,617.994 0,633.438 5.15,633.438 			"/>
			<polygon class="st0" points="7.075,643.606 5.146,633.435 9.006,633.435 			"/>
			<polygon class="st0" points="21.24,643.606 19.309,633.435 23.171,633.435 			"/>
			<polygon class="st1" points="25.743,617.994 23.167,633.438 28.319,633.438 			"/>
			<polygon class="st1" points="11.583,617.994 9.008,633.438 14.158,633.438 			"/>
			<polygon class="st1" points="16.729,617.994 14.154,633.438 19.304,633.438 			"/>
			<polygon class="st2" points="2.574,618 0,602.556 5.15,602.556 			"/>
			<polygon class="st0" points="7.075,592.389 5.146,602.558 9.006,602.558 			"/>
			<polygon class="st0" points="21.24,592.389 19.309,602.558 23.171,602.558 			"/>
			<polygon class="st2" points="25.743,618 23.167,602.556 28.319,602.556 			"/>
			<polygon class="st2" points="11.583,618 9.008,602.556 14.158,602.556 			"/>
			<polygon class="st2" points="16.729,618 14.154,602.556 19.304,602.556 			"/>
		</g>
		<g>
			<polygon class="st1" points="2.574,566.741 0,582.184 5.15,582.184 			"/>
			<polygon class="st0" points="7.075,592.352 5.146,582.182 9.006,582.182 			"/>
			<polygon class="st0" points="21.24,592.352 19.309,582.182 23.171,582.182 			"/>
			<polygon class="st1" points="25.743,566.741 23.167,582.184 28.319,582.184 			"/>
			<polygon class="st1" points="11.583,566.741 9.008,582.184 14.158,582.184 			"/>
			<polygon class="st1" points="16.729,566.741 14.154,582.184 19.304,582.184 			"/>
			<polygon class="st2" points="2.574,566.746 0,551.302 5.15,551.302 			"/>
			<polygon class="st0" points="7.075,541.135 5.146,551.305 9.006,551.305 			"/>
			<polygon class="st0" points="21.24,541.135 19.309,551.305 23.171,551.305 			"/>
			<polygon class="st2" points="25.743,566.746 23.167,551.302 28.319,551.302 			"/>
			<polygon class="st2" points="11.583,566.746 9.008,551.302 14.158,551.302 			"/>
			<polygon class="st2" points="16.729,566.746 14.154,551.302 19.304,551.302 			"/>
		</g>
		<g>
			<polygon class="st1" points="2.574,515.488 0,530.931 5.15,530.931 			"/>
			<polygon class="st0" points="7.075,541.099 5.146,530.928 9.006,530.928 			"/>
			<polygon class="st0" points="21.24,541.099 19.309,530.928 23.171,530.928 			"/>
			<polygon class="st1" points="25.743,515.488 23.167,530.931 28.319,530.931 			"/>
			<polygon class="st1" points="11.583,515.488 9.008,530.931 14.158,530.931 			"/>
			<polygon class="st1" points="16.729,515.488 14.154,530.931 19.304,530.931 			"/>
			<polygon class="st2" points="2.574,515.493 0,500.049 5.15,500.049 			"/>
			<polygon class="st0" points="7.075,489.882 5.146,500.051 9.006,500.051 			"/>
			<polygon class="st0" points="21.24,489.882 19.309,500.051 23.171,500.051 			"/>
			<polygon class="st2" points="25.743,515.493 23.167,500.049 28.319,500.049 			"/>
			<polygon class="st2" points="11.583,515.493 9.008,500.049 14.158,500.049 			"/>
			<polygon class="st2" points="16.729,515.493 14.154,500.049 19.304,500.049 			"/>
		</g>
		<g>
			<polygon class="st1" points="2.574,464.234 0,479.677 5.15,479.677 			"/>
			<polygon class="st0" points="7.075,489.846 5.146,479.675 9.006,479.675 			"/>
			<polygon class="st0" points="21.24,489.846 19.309,479.675 23.171,479.675 			"/>
			<polygon class="st1" points="25.743,464.234 23.167,479.677 28.319,479.677 			"/>
			<polygon class="st1" points="11.583,464.234 9.008,479.677 14.158,479.677 			"/>
			<polygon class="st1" points="16.729,464.234 14.154,479.677 19.304,479.677 			"/>
			<polygon class="st2" points="2.574,464.24 0,448.795 5.15,448.795 			"/>
			<polygon class="st0" points="7.075,438.628 5.146,448.798 9.006,448.798 			"/>
			<polygon class="st0" points="21.24,438.628 19.309,448.798 23.171,448.798 			"/>
			<polygon class="st2" points="25.743,464.24 23.167,448.795 28.319,448.795 			"/>
			<polygon class="st2" points="11.583,464.24 9.008,448.795 14.158,448.795 			"/>
			<polygon class="st2" points="16.729,464.24 14.154,448.795 19.304,448.795 			"/>
		</g>
		<g>
			<polygon class="st1" points="2.574,412.981 0,428.424 5.15,428.424 			"/>
			<polygon class="st0" points="7.075,438.592 5.146,428.421 9.006,428.421 			"/>
			<polygon class="st0" points="21.24,438.592 19.309,428.421 23.171,428.421 			"/>
			<polygon class="st1" points="25.743,412.981 23.167,428.424 28.319,428.424 			"/>
			<polygon class="st1" points="11.583,412.981 9.008,428.424 14.158,428.424 			"/>
			<polygon class="st1" points="16.729,412.981 14.154,428.424 19.304,428.424 			"/>
			<polygon class="st2" points="2.574,412.986 0,397.542 5.15,397.542 			"/>
			<polygon class="st0" points="7.075,387.375 5.146,397.545 9.006,397.545 			"/>
			<polygon class="st0" points="21.24,387.375 19.309,397.545 23.171,397.545 			"/>
			<polygon class="st2" points="25.743,412.986 23.167,397.542 28.319,397.542 			"/>
			<polygon class="st2" points="11.583,412.986 9.008,397.542 14.158,397.542 			"/>
			<polygon class="st2" points="16.729,412.986 14.154,397.542 19.304,397.542 			"/>
		</g>
		<g>
			<polygon class="st1" points="2.574,361.727 0,377.171 5.15,377.171 			"/>
			<polygon class="st0" points="7.075,387.339 5.146,377.168 9.006,377.168 			"/>
			<polygon class="st0" points="21.24,387.339 19.309,377.168 23.171,377.168 			"/>
			<polygon class="st1" points="25.743,361.727 23.167,377.171 28.319,377.171 			"/>
			<polygon class="st1" points="11.583,361.727 9.008,377.171 14.158,377.171 			"/>
			<polygon class="st1" points="16.729,361.727 14.154,377.171 19.304,377.171 			"/>
			<polygon class="st2" points="2.574,361.733 0,346.289 5.15,346.289 			"/>
			<polygon class="st0" points="7.075,336.122 5.146,346.292 9.006,346.292 			"/>
			<polygon class="st0" points="21.24,336.122 19.309,346.292 23.171,346.292 			"/>
			<polygon class="st2" points="25.743,361.733 23.167,346.289 28.319,346.289 			"/>
			<polygon class="st2" points="11.583,361.733 9.008,346.289 14.158,346.289 			"/>
			<polygon class="st2" points="16.729,361.733 14.154,346.289 19.304,346.289 			"/>
		</g>
		<g>
			<polygon class="st1" points="2.574,310.474 0,325.917 5.15,325.917 			"/>
			<polygon class="st0" points="7.075,336.086 5.146,325.915 9.006,325.915 			"/>
			<polygon class="st0" points="21.24,336.086 19.309,325.915 23.171,325.915 			"/>
			<polygon class="st1" points="25.743,310.474 23.167,325.917 28.319,325.917 			"/>
			<polygon class="st1" points="11.583,310.474 9.008,325.917 14.158,325.917 			"/>
			<polygon class="st1" points="16.729,310.474 14.154,325.917 19.304,325.917 			"/>
			<polygon class="st2" points="2.574,310.479 0,295.036 5.15,295.036 			"/>
			<polygon class="st0" points="7.075,284.869 5.146,295.039 9.006,295.039 			"/>
			<polygon class="st0" points="21.24,284.869 19.309,295.039 23.171,295.039 			"/>
			<polygon class="st2" points="25.743,310.479 23.167,295.036 28.319,295.036 			"/>
			<polygon class="st2" points="11.583,310.479 9.008,295.036 14.158,295.036 			"/>
			<polygon class="st2" points="16.729,310.479 14.154,295.036 19.304,295.036 			"/>
		</g>
		<g>
			<polygon class="st1" points="2.574,259.221 0,274.665 5.15,274.665 			"/>
			<polygon class="st0" points="7.075,284.833 5.146,274.662 9.006,274.662 			"/>
			<polygon class="st0" points="21.24,284.833 19.309,274.662 23.171,274.662 			"/>
			<polygon class="st1" points="25.743,259.221 23.167,274.665 28.319,274.665 			"/>
			<polygon class="st1" points="11.583,259.221 9.008,274.665 14.158,274.665 			"/>
			<polygon class="st1" points="16.729,259.221 14.154,274.665 19.304,274.665 			"/>
			<polygon class="st2" points="2.574,259.226 0,243.782 5.15,243.782 			"/>
			<polygon class="st0" points="7.075,233.615 5.146,243.785 9.006,243.785 			"/>
			<polygon class="st0" points="21.24,233.615 19.309,243.785 23.171,243.785 			"/>
			<polygon class="st2" points="25.743,259.226 23.167,243.782 28.319,243.782 			"/>
			<polygon class="st2" points="11.583,259.226 9.008,243.782 14.158,243.782 			"/>
			<polygon class="st2" points="16.729,259.226 14.154,243.782 19.304,243.782 			"/>
		</g>
		<g>
			<polygon class="st1" points="2.574,207.967 0,223.411 5.15,223.411 			"/>
			<polygon class="st0" points="7.075,233.579 5.146,223.408 9.006,223.408 			"/>
			<polygon class="st0" points="21.24,233.579 19.309,223.408 23.171,223.408 			"/>
			<polygon class="st1" points="25.743,207.967 23.167,223.411 28.319,223.411 			"/>
			<polygon class="st1" points="11.583,207.967 9.008,223.411 14.158,223.411 			"/>
			<polygon class="st1" points="16.729,207.967 14.154,223.411 19.304,223.411 			"/>
			<polygon class="st2" points="2.574,207.973 0,192.529 5.15,192.529 			"/>
			<polygon class="st0" points="7.075,182.362 5.146,192.532 9.006,192.532 			"/>
			<polygon class="st0" points="21.24,182.362 19.309,192.532 23.171,192.532 			"/>
			<polygon class="st2" points="25.743,207.973 23.167,192.529 28.319,192.529 			"/>
			<polygon class="st2" points="11.583,207.973 9.008,192.529 14.158,192.529 			"/>
			<polygon class="st2" points="16.729,207.973 14.154,192.529 19.304,192.529 			"/>
		</g>
		<g>
			<polygon class="st1" points="2.574,156.714 0,172.158 5.15,172.158 			"/>
			<polygon class="st0" points="7.075,182.326 5.146,172.155 9.006,172.155 			"/>
			<polygon class="st0" points="21.24,182.326 19.309,172.155 23.171,172.155 			"/>
			<polygon class="st1" points="25.743,156.714 23.167,172.158 28.319,172.158 			"/>
			<polygon class="st1" points="11.583,156.714 9.008,172.158 14.158,172.158 			"/>
			<polygon class="st1" points="16.729,156.714 14.154,172.158 19.304,172.158 			"/>
			<polygon class="st2" points="2.574,156.719 0,141.276 5.15,141.276 			"/>
			<polygon class="st0" points="7.075,131.109 5.146,141.278 9.006,141.278 			"/>
			<polygon class="st0" points="21.24,131.109 19.309,141.278 23.171,141.278 			"/>
			<polygon class="st2" points="25.743,156.719 23.167,141.276 28.319,141.276 			"/>
			<polygon class="st2" points="11.583,156.719 9.008,141.276 14.158,141.276 			"/>
			<polygon class="st2" points="16.729,156.719 14.154,141.276 19.304,141.276 			"/>
		</g>
		<g>
			<polygon class="st1" points="2.574,105.46 0,120.904 5.15,120.904 			"/>
			<polygon class="st0" points="7.075,131.073 5.146,120.902 9.006,120.902 			"/>
			<polygon class="st0" points="21.24,131.073 19.309,120.902 23.171,120.902 			"/>
			<polygon class="st1" points="25.743,105.46 23.167,120.904 28.319,120.904 			"/>
			<polygon class="st1" points="11.583,105.46 9.008,120.904 14.158,120.904 			"/>
			<polygon class="st1" points="16.729,105.46 14.154,120.904 19.304,120.904 			"/>
			<polygon class="st2" points="2.574,105.466 0,90.022 5.15,90.022 			"/>
			<polygon class="st0" points="7.075,79.855 5.146,90.025 9.006,90.025 			"/>
			<polygon class="st0" points="21.24,79.855 19.309,90.025 23.171,90.025 			"/>
			<polygon class="st2" points="25.743,105.466 23.167,90.022 28.319,90.022 			"/>
			<polygon class="st2" points="11.583,105.466 9.008,90.022 14.158,90.022 			"/>
			<polygon class="st2" points="16.729,105.466 14.154,90.022 19.304,90.022 			"/>
		</g>
		<g>
			<polygon class="st1" points="2.574,54.208 0,69.651 5.15,69.651 			"/>
			<polygon class="st0" points="7.075,79.819 5.146,69.648 9.006,69.648 			"/>
			<polygon class="st0" points="21.24,79.819 19.309,69.648 23.171,69.648 			"/>
			<polygon class="st1" points="25.743,54.208 23.167,69.651 28.319,69.651 			"/>
			<polygon class="st1" points="11.583,54.208 9.008,69.651 14.158,69.651 			"/>
			<polygon class="st1" points="16.729,54.208 14.154,69.651 19.304,69.651 			"/>
			<polygon class="st2" points="2.574,54.213 0,38.769 5.15,38.769 			"/>
			<polygon class="st0" points="7.075,28.602 5.146,38.772 9.006,38.772 			"/>
			<polygon class="st0" points="21.24,28.602 19.309,38.772 23.171,38.772 			"/>
			<polygon class="st2" points="25.743,54.213 23.167,38.769 28.319,38.769 			"/>
			<polygon class="st2" points="11.583,54.213 9.008,38.769 14.158,38.769 			"/>
			<polygon class="st2" points="16.729,54.213 14.154,38.769 19.304,38.769 			"/>
		</g>
		<g>
			<polygon class="st1" points="55.588,2.574 39.307,0 39.307,5.15 			"/>
			<polygon class="st0" points="28.588,7.075 39.31,5.146 39.31,9.006 			"/>
			<polygon class="st0" points="28.588,21.24 39.31,19.309 39.31,23.171 			"/>
			<polygon class="st1" points="55.588,25.743 39.307,23.167 39.307,28.319 			"/>
			<polygon class="st1" points="55.588,11.583 39.307,9.008 39.307,14.158 			"/>
			<polygon class="st1" points="55.588,16.729 39.307,14.154 39.307,19.304 			"/>
			<polygon class="st2" points="55.583,2.574 71.864,0 71.864,5.15 			"/>
			<polygon class="st0" points="82.582,7.075 71.861,5.146 71.861,9.006 			"/>
			<polygon class="st0" points="82.582,21.24 71.861,19.309 71.861,23.171 			"/>
			<polygon class="st2" points="55.583,25.743 71.864,23.167 71.864,28.319 			"/>
			<polygon class="st2" points="55.583,11.583 71.864,9.008 71.864,14.158 			"/>
			<polygon class="st2" points="55.583,16.729 71.864,14.154 71.864,19.304 			"/>
		</g>
		<g>
			<polygon class="st1" points="109.621,2.574 93.34,0 93.34,5.15 			"/>
			<polygon class="st0" points="82.62,7.075 93.343,5.146 93.343,9.006 			"/>
			<polygon class="st0" points="82.62,21.24 93.343,19.309 93.343,23.171 			"/>
			<polygon class="st1" points="109.621,25.743 93.34,23.167 93.34,28.319 			"/>
			<polygon class="st1" points="109.621,11.583 93.34,9.008 93.34,14.158 			"/>
			<polygon class="st1" points="109.621,16.729 93.34,14.154 93.34,19.304 			"/>
			<polygon class="st2" points="109.615,2.574 125.896,0 125.896,5.15 			"/>
			<polygon class="st0" points="136.615,7.075 125.894,5.146 125.894,9.006 			"/>
			<polygon class="st0" points="136.615,21.24 125.894,19.309 125.894,23.171 			"/>
			<polygon class="st2" points="109.615,25.743 125.896,23.167 125.896,28.319 			"/>
			<polygon class="st2" points="109.615,11.583 125.896,9.008 125.896,14.158 			"/>
			<polygon class="st2" points="109.615,16.729 125.896,14.154 125.896,19.304 			"/>
		</g>
		<g>
			<polygon class="st1" points="163.653,2.574 147.373,0 147.373,5.15 			"/>
			<polygon class="st0" points="136.653,7.075 147.375,5.146 147.375,9.006 			"/>
			<polygon class="st0" points="136.653,21.24 147.375,19.309 147.375,23.171 			"/>
			<polygon class="st1" points="163.653,25.743 147.373,23.167 147.373,28.319 			"/>
			<polygon class="st1" points="163.653,11.583 147.373,9.008 147.373,14.158 			"/>
			<polygon class="st1" points="163.653,16.729 147.373,14.154 147.373,19.304 			"/>
			<polygon class="st2" points="163.648,2.574 179.929,0 179.929,5.15 			"/>
			<polygon class="st0" points="190.647,7.075 179.926,5.146 179.926,9.006 			"/>
			<polygon class="st0" points="190.647,21.24 179.926,19.309 179.926,23.171 			"/>
			<polygon class="st2" points="163.648,25.743 179.929,23.167 179.929,28.319 			"/>
			<polygon class="st2" points="163.648,11.583 179.929,9.008 179.929,14.158 			"/>
			<polygon class="st2" points="163.648,16.729 179.929,14.154 179.929,19.304 			"/>
		</g>
		<g>
			<polygon class="st1" points="217.686,2.574 201.405,0 201.405,5.15 			"/>
			<polygon class="st0" points="190.686,7.075 201.408,5.146 201.408,9.006 			"/>
			<polygon class="st0" points="190.686,21.24 201.408,19.309 201.408,23.171 			"/>
			<polygon class="st1" points="217.686,25.743 201.405,23.167 201.405,28.319 			"/>
			<polygon class="st1" points="217.686,11.583 201.405,9.008 201.405,14.158 			"/>
			<polygon class="st1" points="217.686,16.729 201.405,14.154 201.405,19.304 			"/>
			<polygon class="st2" points="217.681,2.574 233.961,0 233.961,5.15 			"/>
			<polygon class="st0" points="244.68,7.075 233.958,5.146 233.958,9.006 			"/>
			<polygon class="st0" points="244.68,21.24 233.958,19.309 233.958,23.171 			"/>
			<polygon class="st2" points="217.681,25.743 233.961,23.167 233.961,28.319 			"/>
			<polygon class="st2" points="217.681,11.583 233.961,9.008 233.961,14.158 			"/>
			<polygon class="st2" points="217.681,16.729 233.961,14.154 233.961,19.304 			"/>
		</g>
		<g>
			<polygon class="st1" points="271.718,2.574 255.438,0 255.438,5.15 			"/>
			<polygon class="st0" points="244.718,7.075 255.44,5.146 255.44,9.006 			"/>
			<polygon class="st0" points="244.718,21.24 255.44,19.309 255.44,23.171 			"/>
			<polygon class="st1" points="271.718,25.743 255.438,23.167 255.438,28.319 			"/>
			<polygon class="st1" points="271.718,11.583 255.438,9.008 255.438,14.158 			"/>
			<polygon class="st1" points="271.718,16.729 255.438,14.154 255.438,19.304 			"/>
			<polygon class="st2" points="271.713,2.574 287.995,0 287.995,5.15 			"/>
			<polygon class="st0" points="298.712,7.075 287.992,5.146 287.992,9.006 			"/>
			<polygon class="st0" points="298.712,21.24 287.992,19.309 287.992,23.171 			"/>
			<polygon class="st2" points="271.713,25.743 287.995,23.167 287.995,28.319 			"/>
			<polygon class="st2" points="271.713,11.583 287.995,9.008 287.995,14.158 			"/>
			<polygon class="st2" points="271.713,16.729 287.995,14.154 287.995,19.304 			"/>
		</g>
		<g>
			<polygon class="st1" points="325.751,2.574 309.47,0 309.47,5.15 			"/>
			<polygon class="st0" points="298.75,7.075 309.473,5.146 309.473,9.006 			"/>
			<polygon class="st0" points="298.75,21.24 309.473,19.309 309.473,23.171 			"/>
			<polygon class="st1" points="325.751,25.743 309.47,23.167 309.47,28.319 			"/>
			<polygon class="st1" points="325.751,11.583 309.47,9.008 309.47,14.158 			"/>
			<polygon class="st1" points="325.751,16.729 309.47,14.154 309.47,19.304 			"/>
			<polygon class="st2" points="325.746,2.574 342.027,0 342.027,5.15 			"/>
			<polygon class="st0" points="352.745,7.075 342.024,5.146 342.024,9.006 			"/>
			<polygon class="st0" points="352.745,21.24 342.024,19.309 342.024,23.171 			"/>
			<polygon class="st2" points="325.746,25.743 342.027,23.167 342.027,28.319 			"/>
			<polygon class="st2" points="325.746,11.583 342.027,9.008 342.027,14.158 			"/>
			<polygon class="st2" points="325.746,16.729 342.027,14.154 342.027,19.304 			"/>
		</g>
		<g>
			<polygon class="st1" points="379.784,2.574 363.502,0 363.502,5.15 			"/>
			<polygon class="st0" points="352.784,7.075 363.505,5.146 363.505,9.006 			"/>
			<polygon class="st0" points="352.784,21.24 363.505,19.309 363.505,23.171 			"/>
			<polygon class="st1" points="379.784,25.743 363.502,23.167 363.502,28.319 			"/>
			<polygon class="st1" points="379.784,11.583 363.502,9.008 363.502,14.158 			"/>
			<polygon class="st1" points="379.784,16.729 363.502,14.154 363.502,19.304 			"/>
			<polygon class="st2" points="379.778,2.574 396.059,0 396.059,5.15 			"/>
			<polygon class="st0" points="406.778,7.075 396.056,5.146 396.056,9.006 			"/>
			<polygon class="st0" points="406.778,21.24 396.056,19.309 396.056,23.171 			"/>
			<polygon class="st2" points="379.778,25.743 396.059,23.167 396.059,28.319 			"/>
			<polygon class="st2" points="379.778,11.583 396.059,9.008 396.059,14.158 			"/>
			<polygon class="st2" points="379.778,16.729 396.059,14.154 396.059,19.304 			"/>
		</g>
		<g>
			<polygon class="st1" points="433.817,2.574 417.536,0 417.536,5.15 			"/>
			<polygon class="st0" points="406.816,7.075 417.539,5.146 417.539,9.006 			"/>
			<polygon class="st0" points="406.816,21.24 417.539,19.309 417.539,23.171 			"/>
			<polygon class="st1" points="433.817,25.743 417.536,23.167 417.536,28.319 			"/>
			<polygon class="st1" points="433.817,11.583 417.536,9.008 417.536,14.158 			"/>
			<polygon class="st1" points="433.817,16.729 417.536,14.154 417.536,19.304 			"/>
			<polygon class="st2" points="433.811,2.574 450.092,0 450.092,5.15 			"/>
			<polygon class="st0" points="460.81,7.075 450.089,5.146 450.089,9.006 			"/>
			<polygon class="st0" points="460.81,21.24 450.089,19.309 450.089,23.171 			"/>
			<polygon class="st2" points="433.811,25.743 450.092,23.167 450.092,28.319 			"/>
			<polygon class="st2" points="433.811,11.583 450.092,9.008 450.092,14.158 			"/>
			<polygon class="st2" points="433.811,16.729 450.092,14.154 450.092,19.304 			"/>
		</g>
		<g>
			<polygon class="st1" points="487.849,2.574 471.568,0 471.568,5.15 			"/>
			<polygon class="st0" points="460.848,7.075 471.571,5.146 471.571,9.006 			"/>
			<polygon class="st0" points="460.848,21.24 471.571,19.309 471.571,23.171 			"/>
			<polygon class="st1" points="487.849,25.743 471.568,23.167 471.568,28.319 			"/>
			<polygon class="st1" points="487.849,11.583 471.568,9.008 471.568,14.158 			"/>
			<polygon class="st1" points="487.849,16.729 471.568,14.154 471.568,19.304 			"/>
			<polygon class="st2" points="487.843,2.574 504.125,0 504.125,5.15 			"/>
			<polygon class="st0" points="514.843,7.075 504.122,5.146 504.122,9.006 			"/>
			<polygon class="st0" points="514.843,21.24 504.122,19.309 504.122,23.171 			"/>
			<polygon class="st2" points="487.843,25.743 504.125,23.167 504.125,28.319 			"/>
			<polygon class="st2" points="487.843,11.583 504.125,9.008 504.125,14.158 			"/>
			<polygon class="st2" points="487.843,16.729 504.125,14.154 504.125,19.304 			"/>
		</g>
		<g>
			<polygon class="st1" points="540.873,54.199 543.446,38.755 538.296,38.755 			"/>
			<polygon class="st0" points="536.372,28.587 538.3,38.758 534.44,38.758 			"/>
			<polygon class="st0" points="522.207,28.587 524.137,38.758 520.275,38.758 			"/>
			<polygon class="st1" points="517.704,54.199 520.28,38.755 515.127,38.755 			"/>
			<polygon class="st1" points="531.863,54.199 534.438,38.755 529.288,38.755 			"/>
			<polygon class="st1" points="526.717,54.199 529.292,38.755 524.142,38.755 			"/>
			<polygon class="st2" points="540.873,54.193 543.446,69.637 538.296,69.637 			"/>
			<polygon class="st0" points="536.372,79.804 538.3,69.634 534.44,69.634 			"/>
			<polygon class="st0" points="522.207,79.804 524.137,69.634 520.275,69.634 			"/>
			<polygon class="st2" points="517.704,54.193 520.28,69.637 515.127,69.637 			"/>
			<polygon class="st2" points="531.863,54.193 534.438,69.637 529.288,69.637 			"/>
			<polygon class="st2" points="526.717,54.193 529.292,69.637 524.142,69.637 			"/>
		</g>
		<g>
			<polygon class="st1" points="540.873,105.452 543.446,90.008 538.296,90.008 			"/>
			<polygon class="st0" points="536.372,79.84 538.3,90.011 534.44,90.011 			"/>
			<polygon class="st0" points="522.207,79.84 524.137,90.011 520.275,90.011 			"/>
			<polygon class="st1" points="517.704,105.452 520.28,90.008 515.127,90.008 			"/>
			<polygon class="st1" points="531.863,105.452 534.438,90.008 529.288,90.008 			"/>
			<polygon class="st1" points="526.717,105.452 529.292,90.008 524.142,90.008 			"/>
			<polygon class="st2" points="540.873,105.447 543.446,120.891 538.296,120.891 			"/>
			<polygon class="st0" points="536.372,131.058 538.3,120.888 534.44,120.888 			"/>
			<polygon class="st0" points="522.207,131.058 524.137,120.888 520.275,120.888 			"/>
			<polygon class="st2" points="517.704,105.447 520.28,120.891 515.127,120.891 			"/>
			<polygon class="st2" points="531.863,105.447 534.438,120.891 529.288,120.891 			"/>
			<polygon class="st2" points="526.717,105.447 529.292,120.891 524.142,120.891 			"/>
		</g>
		<g>
			<polygon class="st1" points="540.873,156.706 543.446,141.262 538.296,141.262 			"/>
			<polygon class="st0" points="536.372,131.094 538.3,141.265 534.44,141.265 			"/>
			<polygon class="st0" points="522.207,131.094 524.137,141.265 520.275,141.265 			"/>
			<polygon class="st1" points="517.704,156.706 520.28,141.262 515.127,141.262 			"/>
			<polygon class="st1" points="531.863,156.706 534.438,141.262 529.288,141.262 			"/>
			<polygon class="st1" points="526.717,156.706 529.292,141.262 524.142,141.262 			"/>
			<polygon class="st2" points="540.873,156.7 543.446,172.144 538.296,172.144 			"/>
			<polygon class="st0" points="536.372,182.311 538.3,172.141 534.44,172.141 			"/>
			<polygon class="st0" points="522.207,182.311 524.137,172.141 520.275,172.141 			"/>
			<polygon class="st2" points="517.704,156.7 520.28,172.144 515.127,172.144 			"/>
			<polygon class="st2" points="531.863,156.7 534.438,172.144 529.288,172.144 			"/>
			<polygon class="st2" points="526.717,156.7 529.292,172.144 524.142,172.144 			"/>
		</g>
		<g>
			<polygon class="st1" points="540.873,207.959 543.446,192.515 538.296,192.515 			"/>
			<polygon class="st0" points="536.372,182.347 538.3,192.518 534.44,192.518 			"/>
			<polygon class="st0" points="522.207,182.347 524.137,192.518 520.275,192.518 			"/>
			<polygon class="st1" points="517.704,207.959 520.28,192.515 515.127,192.515 			"/>
			<polygon class="st1" points="531.863,207.959 534.438,192.515 529.288,192.515 			"/>
			<polygon class="st1" points="526.717,207.959 529.292,192.515 524.142,192.515 			"/>
			<polygon class="st2" points="540.873,207.954 543.446,223.397 538.296,223.397 			"/>
			<polygon class="st0" points="536.372,233.564 538.3,223.395 534.44,223.395 			"/>
			<polygon class="st0" points="522.207,233.564 524.137,223.395 520.275,223.395 			"/>
			<polygon class="st2" points="517.704,207.954 520.28,223.397 515.127,223.397 			"/>
			<polygon class="st2" points="531.863,207.954 534.438,223.397 529.288,223.397 			"/>
			<polygon class="st2" points="526.717,207.954 529.292,223.397 524.142,223.397 			"/>
		</g>
		<g>
			<polygon class="st1" points="540.873,259.212 543.446,243.769 538.296,243.769 			"/>
			<polygon class="st0" points="536.372,233.601 538.3,243.771 534.44,243.771 			"/>
			<polygon class="st0" points="522.207,233.601 524.137,243.771 520.275,243.771 			"/>
			<polygon class="st1" points="517.704,259.212 520.28,243.769 515.127,243.769 			"/>
			<polygon class="st1" points="531.863,259.212 534.438,243.769 529.288,243.769 			"/>
			<polygon class="st1" points="526.717,259.212 529.292,243.769 524.142,243.769 			"/>
			<polygon class="st2" points="540.873,259.207 543.446,274.65 538.296,274.65 			"/>
			<polygon class="st0" points="536.372,284.818 538.3,274.648 534.44,274.648 			"/>
			<polygon class="st0" points="522.207,284.818 524.137,274.648 520.275,274.648 			"/>
			<polygon class="st2" points="517.704,259.207 520.28,274.65 515.127,274.65 			"/>
			<polygon class="st2" points="531.863,259.207 534.438,274.65 529.288,274.65 			"/>
			<polygon class="st2" points="526.717,259.207 529.292,274.65 524.142,274.65 			"/>
		</g>
		<g>
			<polygon class="st1" points="540.873,310.465 543.446,295.022 538.296,295.022 			"/>
			<polygon class="st0" points="536.372,284.854 538.3,295.024 534.44,295.024 			"/>
			<polygon class="st0" points="522.207,284.854 524.137,295.024 520.275,295.024 			"/>
			<polygon class="st1" points="517.704,310.465 520.28,295.022 515.127,295.022 			"/>
			<polygon class="st1" points="531.863,310.465 534.438,295.022 529.288,295.022 			"/>
			<polygon class="st1" points="526.717,310.465 529.292,295.022 524.142,295.022 			"/>
			<polygon class="st2" points="540.873,310.46 543.446,325.904 538.296,325.904 			"/>
			<polygon class="st0" points="536.372,336.071 538.3,325.901 534.44,325.901 			"/>
			<polygon class="st0" points="522.207,336.071 524.137,325.901 520.275,325.901 			"/>
			<polygon class="st2" points="517.704,310.46 520.28,325.904 515.127,325.904 			"/>
			<polygon class="st2" points="531.863,310.46 534.438,325.904 529.288,325.904 			"/>
			<polygon class="st2" points="526.717,310.46 529.292,325.904 524.142,325.904 			"/>
		</g>
		<g>
			<polygon class="st1" points="540.873,361.719 543.446,346.275 538.296,346.275 			"/>
			<polygon class="st0" points="536.372,336.107 538.3,346.278 534.44,346.278 			"/>
			<polygon class="st0" points="522.207,336.107 524.137,346.278 520.275,346.278 			"/>
			<polygon class="st1" points="517.704,361.719 520.28,346.275 515.127,346.275 			"/>
			<polygon class="st1" points="531.863,361.719 534.438,346.275 529.288,346.275 			"/>
			<polygon class="st1" points="526.717,361.719 529.292,346.275 524.142,346.275 			"/>
			<polygon class="st2" points="540.873,361.713 543.446,377.157 538.296,377.157 			"/>
			<polygon class="st0" points="536.372,387.325 538.3,377.155 534.44,377.155 			"/>
			<polygon class="st0" points="522.207,387.325 524.137,377.155 520.275,377.155 			"/>
			<polygon class="st2" points="517.704,361.713 520.28,377.157 515.127,377.157 			"/>
			<polygon class="st2" points="531.863,361.713 534.438,377.157 529.288,377.157 			"/>
			<polygon class="st2" points="526.717,361.713 529.292,377.157 524.142,377.157 			"/>
		</g>
		<g>
			<polygon class="st1" points="540.873,412.972 543.446,397.529 538.296,397.529 			"/>
			<polygon class="st0" points="536.372,387.361 538.3,397.532 534.44,397.532 			"/>
			<polygon class="st0" points="522.207,387.361 524.137,397.532 520.275,397.532 			"/>
			<polygon class="st1" points="517.704,412.972 520.28,397.529 515.127,397.529 			"/>
			<polygon class="st1" points="531.863,412.972 534.438,397.529 529.288,397.529 			"/>
			<polygon class="st1" points="526.717,412.972 529.292,397.529 524.142,397.529 			"/>
			<polygon class="st2" points="540.873,412.967 543.446,428.411 538.296,428.411 			"/>
			<polygon class="st0" points="536.372,438.578 538.3,428.408 534.44,428.408 			"/>
			<polygon class="st0" points="522.207,438.578 524.137,428.408 520.275,428.408 			"/>
			<polygon class="st2" points="517.704,412.967 520.28,428.411 515.127,428.411 			"/>
			<polygon class="st2" points="531.863,412.967 534.438,428.411 529.288,428.411 			"/>
			<polygon class="st2" points="526.717,412.967 529.292,428.411 524.142,428.411 			"/>
		</g>
		<g>
			<polygon class="st1" points="540.873,464.225 543.446,448.782 538.296,448.782 			"/>
			<polygon class="st0" points="536.372,438.614 538.3,448.785 534.44,448.785 			"/>
			<polygon class="st0" points="522.207,438.614 524.137,448.785 520.275,448.785 			"/>
			<polygon class="st1" points="517.704,464.225 520.28,448.782 515.127,448.782 			"/>
			<polygon class="st1" points="531.863,464.225 534.438,448.782 529.288,448.782 			"/>
			<polygon class="st1" points="526.717,464.225 529.292,448.782 524.142,448.782 			"/>
			<polygon class="st2" points="540.873,464.22 543.446,479.664 538.296,479.664 			"/>
			<polygon class="st0" points="536.372,489.831 538.3,479.662 534.44,479.662 			"/>
			<polygon class="st0" points="522.207,489.831 524.137,479.662 520.275,479.662 			"/>
			<polygon class="st2" points="517.704,464.22 520.28,479.664 515.127,479.664 			"/>
			<polygon class="st2" points="531.863,464.22 534.438,479.664 529.288,479.664 			"/>
			<polygon class="st2" points="526.717,464.22 529.292,479.664 524.142,479.664 			"/>
		</g>
		<g>
			<polygon class="st1" points="540.873,515.479 543.446,500.036 538.296,500.036 			"/>
			<polygon class="st0" points="536.372,489.867 538.3,500.038 534.44,500.038 			"/>
			<polygon class="st0" points="522.207,489.867 524.137,500.038 520.275,500.038 			"/>
			<polygon class="st1" points="517.704,515.479 520.28,500.036 515.127,500.036 			"/>
			<polygon class="st1" points="531.863,515.479 534.438,500.036 529.288,500.036 			"/>
			<polygon class="st1" points="526.717,515.479 529.292,500.036 524.142,500.036 			"/>
			<polygon class="st2" points="540.873,515.473 543.446,530.917 538.296,530.917 			"/>
			<polygon class="st0" points="536.372,541.084 538.3,530.915 534.44,530.915 			"/>
			<polygon class="st0" points="522.207,541.084 524.137,530.915 520.275,530.915 			"/>
			<polygon class="st2" points="517.704,515.473 520.28,530.917 515.127,530.917 			"/>
			<polygon class="st2" points="531.863,515.473 534.438,530.917 529.288,530.917 			"/>
			<polygon class="st2" points="526.717,515.473 529.292,530.917 524.142,530.917 			"/>
		</g>
		<g>
			<polygon class="st1" points="540.873,566.732 543.446,551.289 538.296,551.289 			"/>
			<polygon class="st0" points="536.372,541.121 538.3,551.292 534.44,551.292 			"/>
			<polygon class="st0" points="522.207,541.121 524.137,551.292 520.275,551.292 			"/>
			<polygon class="st1" points="517.704,566.732 520.28,551.289 515.127,551.289 			"/>
			<polygon class="st1" points="531.863,566.732 534.438,551.289 529.288,551.289 			"/>
			<polygon class="st1" points="526.717,566.732 529.292,551.289 524.142,551.289 			"/>
			<polygon class="st2" points="540.873,566.727 543.446,582.17 538.296,582.17 			"/>
			<polygon class="st0" points="536.372,592.337 538.3,582.167 534.44,582.167 			"/>
			<polygon class="st0" points="522.207,592.337 524.137,582.167 520.275,582.167 			"/>
			<polygon class="st2" points="517.704,566.727 520.28,582.17 515.127,582.17 			"/>
			<polygon class="st2" points="531.863,566.727 534.438,582.17 529.288,582.17 			"/>
			<polygon class="st2" points="526.717,566.727 529.292,582.17 524.142,582.17 			"/>
		</g>
		<g>
			<polygon class="st1" points="540.873,617.986 543.446,602.542 538.296,602.542 			"/>
			<polygon class="st0" points="536.372,592.374 538.3,602.544 534.44,602.544 			"/>
			<polygon class="st0" points="522.207,592.374 524.137,602.544 520.275,602.544 			"/>
			<polygon class="st1" points="517.704,617.986 520.28,602.542 515.127,602.542 			"/>
			<polygon class="st1" points="531.863,617.986 534.438,602.542 529.288,602.542 			"/>
			<polygon class="st1" points="526.717,617.986 529.292,602.542 524.142,602.542 			"/>
			<polygon class="st2" points="540.873,617.98 543.446,633.424 538.296,633.424 			"/>
			<polygon class="st0" points="536.372,643.591 538.3,633.421 534.44,633.421 			"/>
			<polygon class="st0" points="522.207,643.591 524.137,633.421 520.275,633.421 			"/>
			<polygon class="st2" points="517.704,617.98 520.28,633.424 515.127,633.424 			"/>
			<polygon class="st2" points="531.863,617.98 534.438,633.424 529.288,633.424 			"/>
			<polygon class="st2" points="526.717,617.98 529.292,633.424 524.142,633.424 			"/>
		</g>
		<g>
			<polygon class="st1" points="540.873,669.239 543.446,653.795 538.296,653.795 			"/>
			<polygon class="st0" points="536.372,643.627 538.3,653.798 534.44,653.798 			"/>
			<polygon class="st0" points="522.207,643.627 524.137,653.798 520.275,653.798 			"/>
			<polygon class="st1" points="517.704,669.239 520.28,653.795 515.127,653.795 			"/>
			<polygon class="st1" points="531.863,669.239 534.438,653.795 529.288,653.795 			"/>
			<polygon class="st1" points="526.717,669.239 529.292,653.795 524.142,653.795 			"/>
			<polygon class="st2" points="540.873,669.234 543.446,684.677 538.296,684.677 			"/>
			<polygon class="st0" points="536.372,694.844 538.3,684.674 534.44,684.674 			"/>
			<polygon class="st0" points="522.207,694.844 524.137,684.674 520.275,684.674 			"/>
			<polygon class="st2" points="517.704,669.234 520.28,684.677 515.127,684.677 			"/>
			<polygon class="st2" points="531.863,669.234 534.438,684.677 529.288,684.677 			"/>
			<polygon class="st2" points="526.717,669.234 529.292,684.677 524.142,684.677 			"/>
		</g>
		<g>
			<polygon class="st1" points="487.858,720.873 504.139,723.446 504.139,718.296 			"/>
			<polygon class="st0" points="514.859,716.372 504.136,718.3 504.136,714.44 			"/>
			<polygon class="st0" points="514.859,702.207 504.136,704.137 504.136,700.275 			"/>
			<polygon class="st1" points="487.858,697.704 504.139,700.28 504.139,695.127 			"/>
			<polygon class="st1" points="487.858,711.863 504.139,714.438 504.139,709.288 			"/>
			<polygon class="st1" points="487.858,706.717 504.139,709.292 504.139,704.142 			"/>
			<polygon class="st2" points="487.864,720.873 471.583,723.446 471.583,718.296 			"/>
			<polygon class="st0" points="460.864,716.372 471.585,718.3 471.585,714.44 			"/>
			<polygon class="st0" points="460.864,702.207 471.585,704.137 471.585,700.275 			"/>
			<polygon class="st2" points="487.864,697.704 471.583,700.28 471.583,695.127 			"/>
			<polygon class="st2" points="487.864,711.863 471.583,714.438 471.583,709.288 			"/>
			<polygon class="st2" points="487.864,706.717 471.583,709.292 471.583,704.142 			"/>
		</g>
		<g>
			<polygon class="st1" points="433.826,720.873 450.107,723.446 450.107,718.296 			"/>
			<polygon class="st0" points="460.826,716.372 450.104,718.3 450.104,714.44 			"/>
			<polygon class="st0" points="460.826,702.207 450.104,704.137 450.104,700.275 			"/>
			<polygon class="st1" points="433.826,697.704 450.107,700.28 450.107,695.127 			"/>
			<polygon class="st1" points="433.826,711.863 450.107,714.438 450.107,709.288 			"/>
			<polygon class="st1" points="433.826,706.717 450.107,709.292 450.107,704.142 			"/>
			<polygon class="st2" points="433.831,720.873 417.55,723.446 417.55,718.296 			"/>
			<polygon class="st0" points="406.832,716.372 417.553,718.3 417.553,714.44 			"/>
			<polygon class="st0" points="406.832,702.207 417.553,704.137 417.553,700.275 			"/>
			<polygon class="st2" points="433.831,697.704 417.55,700.28 417.55,695.127 			"/>
			<polygon class="st2" points="433.831,711.863 417.55,714.438 417.55,709.288 			"/>
			<polygon class="st2" points="433.831,706.717 417.55,709.292 417.55,704.142 			"/>
		</g>
		<g>
			<polygon class="st1" points="379.792,720.873 396.074,723.446 396.074,718.296 			"/>
			<polygon class="st0" points="406.793,716.372 396.071,718.3 396.071,714.44 			"/>
			<polygon class="st0" points="406.793,702.207 396.071,704.137 396.071,700.275 			"/>
			<polygon class="st1" points="379.792,697.704 396.074,700.28 396.074,695.127 			"/>
			<polygon class="st1" points="379.792,711.863 396.074,714.438 396.074,709.288 			"/>
			<polygon class="st1" points="379.792,706.717 396.074,709.292 396.074,704.142 			"/>
			<polygon class="st2" points="379.798,720.873 363.517,723.446 363.517,718.296 			"/>
			<polygon class="st0" points="352.799,716.372 363.52,718.3 363.52,714.44 			"/>
			<polygon class="st0" points="352.799,702.207 363.52,704.137 363.52,700.275 			"/>
			<polygon class="st2" points="379.798,697.704 363.517,700.28 363.517,695.127 			"/>
			<polygon class="st2" points="379.798,711.863 363.517,714.438 363.517,709.288 			"/>
			<polygon class="st2" points="379.798,706.717 363.517,709.292 363.517,704.142 			"/>
		</g>
		<g>
			<polygon class="st1" points="325.76,720.873 342.042,723.446 342.042,718.296 			"/>
			<polygon class="st0" points="352.761,716.372 342.039,718.3 342.039,714.44 			"/>
			<polygon class="st0" points="352.761,702.207 342.039,704.137 342.039,700.275 			"/>
			<polygon class="st1" points="325.76,697.704 342.042,700.28 342.042,695.127 			"/>
			<polygon class="st1" points="325.76,711.863 342.042,714.438 342.042,709.288 			"/>
			<polygon class="st1" points="325.76,706.717 342.042,709.292 342.042,704.142 			"/>
			<polygon class="st2" points="325.766,720.873 309.485,723.446 309.485,718.296 			"/>
			<polygon class="st0" points="298.766,716.372 309.488,718.3 309.488,714.44 			"/>
			<polygon class="st0" points="298.766,702.207 309.488,704.137 309.488,700.275 			"/>
			<polygon class="st2" points="325.766,697.704 309.485,700.28 309.485,695.127 			"/>
			<polygon class="st2" points="325.766,711.863 309.485,714.438 309.485,709.288 			"/>
			<polygon class="st2" points="325.766,706.717 309.485,709.292 309.485,704.142 			"/>
		</g>
		<g>
			<polygon class="st1" points="271.728,720.873 288.008,723.446 288.008,718.296 			"/>
			<polygon class="st0" points="298.728,716.372 288.006,718.3 288.006,714.44 			"/>
			<polygon class="st0" points="298.728,702.207 288.006,704.137 288.006,700.275 			"/>
			<polygon class="st1" points="271.728,697.704 288.008,700.28 288.008,695.127 			"/>
			<polygon class="st1" points="271.728,711.863 288.008,714.438 288.008,709.288 			"/>
			<polygon class="st1" points="271.728,706.717 288.008,709.292 288.008,704.142 			"/>
			<polygon class="st2" points="271.733,720.873 255.452,723.446 255.452,718.296 			"/>
			<polygon class="st0" points="244.734,716.372 255.455,718.3 255.455,714.44 			"/>
			<polygon class="st0" points="244.734,702.207 255.455,704.137 255.455,700.275 			"/>
			<polygon class="st2" points="271.733,697.704 255.452,700.28 255.452,695.127 			"/>
			<polygon class="st2" points="271.733,711.863 255.452,714.438 255.452,709.288 			"/>
			<polygon class="st2" points="271.733,706.717 255.452,709.292 255.452,704.142 			"/>
		</g>
		<g>
			<polygon class="st1" points="217.695,720.873 233.976,723.446 233.976,718.296 			"/>
			<polygon class="st0" points="244.696,716.372 233.973,718.3 233.973,714.44 			"/>
			<polygon class="st0" points="244.696,702.207 233.973,704.137 233.973,700.275 			"/>
			<polygon class="st1" points="217.695,697.704 233.976,700.28 233.976,695.127 			"/>
			<polygon class="st1" points="217.695,711.863 233.976,714.438 233.976,709.288 			"/>
			<polygon class="st1" points="217.695,706.717 233.976,709.292 233.976,704.142 			"/>
			<polygon class="st2" points="217.701,720.873 201.419,723.446 201.419,718.296 			"/>
			<polygon class="st0" points="190.701,716.372 201.422,718.3 201.422,714.44 			"/>
			<polygon class="st0" points="190.701,702.207 201.422,704.137 201.422,700.275 			"/>
			<polygon class="st2" points="217.701,697.704 201.419,700.28 201.419,695.127 			"/>
			<polygon class="st2" points="217.701,711.863 201.419,714.438 201.419,709.288 			"/>
			<polygon class="st2" points="217.701,706.717 201.419,709.292 201.419,704.142 			"/>
		</g>
		<g>
			<polygon class="st1" points="163.663,720.873 179.943,723.446 179.943,718.296 			"/>
			<polygon class="st0" points="190.663,716.372 179.941,718.3 179.941,714.44 			"/>
			<polygon class="st0" points="190.663,702.207 179.941,704.137 179.941,700.275 			"/>
			<polygon class="st1" points="163.663,697.704 179.943,700.28 179.943,695.127 			"/>
			<polygon class="st1" points="163.663,711.863 179.943,714.438 179.943,709.288 			"/>
			<polygon class="st1" points="163.663,706.717 179.943,709.292 179.943,704.142 			"/>
			<polygon class="st2" points="163.668,720.873 147.387,723.446 147.387,718.296 			"/>
			<polygon class="st0" points="136.668,716.372 147.39,718.3 147.39,714.44 			"/>
			<polygon class="st0" points="136.668,702.207 147.39,704.137 147.39,700.275 			"/>
			<polygon class="st2" points="163.668,697.704 147.387,700.28 147.387,695.127 			"/>
			<polygon class="st2" points="163.668,711.863 147.387,714.438 147.387,709.288 			"/>
			<polygon class="st2" points="163.668,706.717 147.387,709.292 147.387,704.142 			"/>
		</g>
		<g>
			<polygon class="st1" points="109.63,720.873 125.911,723.446 125.911,718.296 			"/>
			<polygon class="st0" points="136.63,716.372 125.908,718.3 125.908,714.44 			"/>
			<polygon class="st0" points="136.63,702.207 125.908,704.137 125.908,700.275 			"/>
			<polygon class="st1" points="109.63,697.704 125.911,700.28 125.911,695.127 			"/>
			<polygon class="st1" points="109.63,711.863 125.911,714.438 125.911,709.288 			"/>
			<polygon class="st1" points="109.63,706.717 125.911,709.292 125.911,704.142 			"/>
			<polygon class="st2" points="109.635,720.873 93.354,723.446 93.354,718.296 			"/>
			<polygon class="st0" points="82.636,716.372 93.357,718.3 93.357,714.44 			"/>
			<polygon class="st0" points="82.636,702.207 93.357,704.137 93.357,700.275 			"/>
			<polygon class="st2" points="109.635,697.704 93.354,700.28 93.354,695.127 			"/>
			<polygon class="st2" points="109.635,711.863 93.354,714.438 93.354,709.288 			"/>
			<polygon class="st2" points="109.635,706.717 93.354,709.292 93.354,704.142 			"/>
		</g>
		<g>
			<polygon class="st1" points="55.597,720.873 71.878,723.446 71.878,718.296 			"/>
			<polygon class="st0" points="82.598,716.372 71.875,718.3 71.875,714.44 			"/>
			<polygon class="st0" points="82.598,702.207 71.875,704.137 71.875,700.275 			"/>
			<polygon class="st1" points="55.597,697.704 71.878,700.28 71.878,695.127 			"/>
			<polygon class="st1" points="55.597,711.863 71.878,714.438 71.878,709.288 			"/>
			<polygon class="st1" points="55.597,706.717 71.878,709.292 71.878,704.142 			"/>
			<polygon class="st2" points="55.603,720.873 39.322,723.446 39.322,718.296 			"/>
			<polygon class="st0" points="28.604,716.372 39.325,718.3 39.325,714.44 			"/>
			<polygon class="st0" points="28.604,702.207 39.325,704.137 39.325,700.275 			"/>
			<polygon class="st2" points="55.603,697.704 39.322,700.28 39.322,695.127 			"/>
			<polygon class="st2" points="55.603,711.863 39.322,714.438 39.322,709.288 			"/>
			<polygon class="st2" points="55.603,706.717 39.322,709.292 39.322,704.142 			"/>
		</g>
		<g>
			<polygon class="st0" points="17.879,9.004 28.563,7.074 17.879,5.141 17.879,5.141 17.879,5.141 17.876,5.141 17.876,5.141 
				7.192,7.074 17.876,9.004 17.876,9.004 17.879,9.004 17.879,9.004 			"/>
			<polygon class="st0" points="9.007,17.884 9.007,17.884 9.007,17.884 7.078,7.201 5.146,17.884 5.146,17.884 5.146,17.884 
				5.146,17.887 5.146,17.887 7.078,28.571 9.007,17.887 9.007,17.887 			"/>
			<polygon class="st0" points="22.401,22.391 28.542,21.236 22.821,20.162 23.172,18.296 23.172,18.296 23.172,18.293 
				23.172,18.291 23.172,18.291 21.242,8.022 19.312,18.291 19.31,18.291 19.312,18.293 19.31,18.296 19.312,18.296 19.546,19.546 
				18.273,19.306 18.273,19.306 18.271,19.306 18.271,19.306 18.271,19.306 8.001,21.236 18.271,23.168 18.271,23.168 
				18.271,23.168 18.273,23.168 18.273,23.168 20.16,22.813 21.242,28.563 			"/>
		</g>
		<g>
			<polygon class="st0" points="534.442,17.879 536.373,28.563 538.305,17.879 538.305,17.879 538.305,17.879 538.305,17.876 
				538.305,17.876 536.373,7.192 534.442,17.876 534.442,17.876 534.442,17.879 534.442,17.879 			"/>
			<polygon class="st0" points="525.563,9.007 525.563,9.007 525.563,9.007 536.246,7.078 525.563,5.146 525.563,5.146 
				525.563,5.146 525.559,5.146 525.559,5.146 514.875,7.078 525.559,9.007 525.559,9.007 			"/>
			<polygon class="st0" points="521.055,22.401 522.209,28.542 523.284,22.821 525.15,23.172 525.15,23.172 525.153,23.172 
				525.156,23.172 525.156,23.172 535.424,21.242 525.156,19.312 525.156,19.31 525.153,19.312 525.15,19.31 525.15,19.312 
				523.9,19.546 524.14,18.273 524.14,18.273 524.14,18.271 524.14,18.271 524.14,18.271 522.209,8.001 520.279,18.271 
				520.279,18.271 520.279,18.271 520.279,18.273 520.279,18.273 520.633,20.16 514.882,21.242 			"/>
		</g>
		<g>
			<polygon class="st0" points="525.567,714.442 514.882,716.373 525.567,718.305 525.567,718.305 525.568,718.305 525.57,718.305 
				525.57,718.305 536.254,716.373 525.57,714.442 525.57,714.442 525.568,714.442 525.567,714.442 			"/>
			<polygon class="st0" points="534.439,705.563 534.439,705.563 534.439,705.563 536.369,716.246 538.299,705.563 538.299,705.563 
				538.299,705.563 538.299,705.559 538.299,705.559 536.369,694.875 534.439,705.559 534.439,705.559 			"/>
			<polygon class="st0" points="521.045,701.055 514.905,702.209 520.625,703.284 520.274,705.15 520.274,705.15 520.274,705.153 
				520.274,705.156 520.274,705.156 522.204,715.424 524.135,705.156 524.136,705.156 524.135,705.153 524.136,705.15 
				524.135,705.15 523.9,703.9 525.173,704.14 525.173,704.14 525.175,704.14 525.176,704.14 525.176,704.14 535.445,702.209 
				525.176,700.279 525.176,700.279 525.175,700.279 525.173,700.279 525.173,700.279 523.287,700.633 522.204,694.882 			"/>
		</g>
		<g>
			<polygon class="st0" points="9.004,705.567 7.074,694.882 5.141,705.567 5.141,705.567 5.141,705.568 5.141,705.57 5.141,705.57 
				7.074,716.254 9.004,705.57 9.004,705.57 9.004,705.568 9.004,705.567 			"/>
			<polygon class="st0" points="17.884,714.439 17.884,714.439 17.884,714.439 7.201,716.369 17.884,718.299 17.884,718.299 
				17.884,718.299 17.887,718.299 17.887,718.299 28.571,716.369 17.887,714.439 17.887,714.439 			"/>
			<polygon class="st0" points="22.391,701.045 21.236,694.905 20.162,700.625 18.296,700.274 18.296,700.274 18.293,700.274 
				18.291,700.274 18.291,700.274 8.022,702.204 18.291,704.135 18.291,704.136 18.293,704.135 18.296,704.136 18.296,704.135 
				19.546,703.9 19.306,705.173 19.306,705.173 19.306,705.175 19.306,705.176 19.306,705.176 21.236,715.445 23.168,705.176 
				23.168,705.176 23.168,705.175 23.168,705.173 23.168,705.173 22.813,703.287 28.563,702.204 			"/>
		</g>
	</g>
</g>
</svg>
