<?xml version="1.0" encoding="utf-8"?>
<!-- Generator: Adobe Illustrator 14.0.0, SVG Export Plug-In . SVG Version: 6.00 Build 43363)  -->
<!DOCTYPE svg PUBLIC "-//W3C//DTD SVG 1.1//EN" "http://www.w3.org/Graphics/SVG/1.1/DTD/svg11.dtd">
<svg version="1.1" id="Layer_2" xmlns="http://www.w3.org/2000/svg" xmlns:xlink="http://www.w3.org/1999/xlink" x="0px" y="0px"
	 width="612px" height="792px" viewBox="0 0 612 792" style="enable-background:new 0 0 612 792;" xml:space="preserve">
<style type="text/css">
<![CDATA[
	.st0{fill:#F15B26;}
]]>
</style>
<path class="st0" d="M591.157,35.703c-0.232,0-0.434-0.16-0.486-0.387c-0.508-2.188-2.477-2.506-4.998-2.693
	c-0.036-0.002-0.072-0.009-0.106-0.02c-2.368-0.711-3.92-1.286-5.108-3.684c-0.909,0.208-2.362,0.269-2.401,0.269l0,0
	c-1.688-0.072-3.262-1.01-4.32-2.572c-1.169-1.724-1.505-3.908-0.878-5.698c1.192-3.404,4.371-4.594,7.444-5.745
	c2.071-0.775,4.027-1.508,5.399-2.863c2.842-2.808,2.136-6.953-0.029-9.597c-0.719-0.877-2.073-1.574-3.295-1.694
	c-0.576-0.057-1.398-0.012-2.045,0.518c-0.289,0.238-0.435,0.474-0.443,0.718c-0.021,0.626,0.814,1.416,1.368,1.939
	c0.155,0.147,0.319,0.295,0.486,0.445c1.178,1.062,2.644,2.383,2.056,4.381c-0.358,1.217-1.809,2.713-3.215,2.896
	c-0.55,0.072-1.053-0.068-1.453-0.399c-0.948,1.334-1.771,1.607-3.528,1.95l-0.54,0.101c-1.557,0.282-3.32,0.602-3.801,2.021
	c-0.139,0.404-0.808,0.405-0.946,0c-0.481-1.419-2.245-1.739-3.803-2.021l-0.539-0.101c-1.756-0.343-2.579-0.616-3.527-1.951
	c-0.402,0.332-0.898,0.471-1.455,0.4c-1.405-0.183-2.855-1.679-3.213-2.896c-0.589-1.998,0.876-3.318,2.053-4.379
	c0.167-0.15,0.332-0.299,0.488-0.447c0.554-0.523,1.391-1.313,1.368-1.939c-0.008-0.245-0.153-0.48-0.444-0.719
	c-0.646-0.53-1.467-0.575-2.043-0.518c-1.222,0.12-2.576,0.817-3.295,1.694c-2.167,2.644-2.873,6.79-0.029,9.597
	c1.372,1.355,3.328,2.087,5.398,2.863c3.073,1.151,6.253,2.341,7.445,5.744c0.627,1.791,0.29,3.974-0.878,5.698
	c-1.059,1.563-2.634,2.5-4.321,2.573c0.002-0.006-1.469-0.056-2.401-0.27c-1.189,2.399-2.74,2.973-5.108,3.685
	c-0.034,0.01-0.07,0.017-0.106,0.02c-2.521,0.188-4.49,0.505-4.998,2.693c-0.105,0.454-0.868,0.454-0.974,0
	c-0.507-2.188-2.477-2.506-4.998-2.693c-0.036-0.002-0.072-0.009-0.106-0.02c-2.368-0.711-3.919-1.286-5.107-3.684
	c-0.933,0.214-2.407,0.264-2.401,0.269c-1.688-0.072-3.263-1.011-4.322-2.574c-1.168-1.724-1.503-3.907-0.876-5.697
	c1.191-3.403,4.37-4.593,7.444-5.744c2.069-0.775,4.025-1.507,5.397-2.862c2.844-2.808,2.138-6.954-0.029-9.598
	c-0.719-0.877-2.072-1.574-3.295-1.694c-0.574-0.057-1.396-0.012-2.043,0.518c-0.291,0.239-0.436,0.474-0.444,0.719
	c-0.021,0.627,0.815,1.416,1.368,1.938c0.157,0.148,0.321,0.296,0.488,0.446c1.177,1.062,2.641,2.382,2.053,4.38
	c-0.356,1.216-1.807,2.712-3.213,2.896c-0.551,0.072-1.052-0.068-1.453-0.4c-0.949,1.334-1.772,1.608-3.529,1.951l-0.539,0.101
	c-1.557,0.282-3.321,0.602-3.803,2.021c-0.139,0.405-0.808,0.404-0.945,0c-0.481-1.418-2.245-1.738-3.801-2.021l-0.541-0.101
	c-1.756-0.343-2.578-0.616-3.527-1.951c-0.4,0.331-0.898,0.47-1.453,0.4c-1.405-0.182-2.856-1.678-3.215-2.895
	c-0.588-1.999,0.878-3.32,2.055-4.382c0.167-0.15,0.331-0.298,0.486-0.445c0.555-0.523,1.39-1.313,1.368-1.939
	c-0.009-0.245-0.153-0.48-0.443-0.718c-0.646-0.53-1.468-0.577-2.042-0.518c-1.222,0.12-2.578,0.816-3.297,1.694
	c-2.166,2.644-2.872,6.79-0.029,9.597c1.372,1.355,3.328,2.087,5.399,2.863c3.073,1.151,6.252,2.341,7.443,5.745
	c0.627,1.791,0.291,3.974-0.877,5.698c-1.06,1.563-2.634,2.5-4.321,2.573c0.004,0.002-1.47-0.055-2.402-0.269
	c-1.188,2.399-2.739,2.973-5.108,3.684c-0.034,0.01-0.07,0.017-0.106,0.02c-2.52,0.188-4.489,0.505-4.997,2.693
	c-0.053,0.226-0.254,0.387-0.486,0.387l0,0c-0.231,0-0.434-0.161-0.486-0.387c-0.507-2.188-2.476-2.505-4.998-2.693
	c-0.036-0.002-0.072-0.009-0.106-0.02c-2.369-0.711-3.921-1.286-5.107-3.684c-0.908,0.208-2.362,0.269-2.401,0.269l0,0
	c-1.688-0.072-3.263-1.01-4.321-2.573c-1.168-1.724-1.505-3.907-0.878-5.698c1.191-3.404,4.37-4.594,7.443-5.745
	c2.071-0.776,4.027-1.508,5.399-2.863c2.843-2.807,2.137-6.953-0.029-9.597c-0.719-0.877-2.072-1.574-3.294-1.694
	c-0.578-0.059-1.398-0.013-2.045,0.518c-0.289,0.239-0.435,0.474-0.443,0.719c-0.021,0.627,0.815,1.416,1.368,1.938
	c0.157,0.148,0.32,0.296,0.487,0.446c1.177,1.062,2.642,2.382,2.054,4.38c-0.358,1.216-1.808,2.713-3.213,2.896
	c-0.557,0.072-1.053-0.068-1.455-0.4c-0.947,1.334-1.771,1.608-3.527,1.951l-0.539,0.1c-1.557,0.282-3.321,0.602-3.803,2.021
	c-0.069,0.203-0.26,0.339-0.474,0.339l0,0c-0.214,0-0.404-0.137-0.473-0.339c-0.48-1.419-2.244-1.739-3.801-2.021l-0.54-0.101
	c-1.757-0.343-2.58-0.616-3.528-1.951c-0.402,0.332-0.902,0.472-1.453,0.4c-1.406-0.182-2.856-1.679-3.214-2.896
	c-0.588-1.999,0.878-3.32,2.055-4.382c0.167-0.149,0.33-0.297,0.485-0.444c0.554-0.522,1.391-1.311,1.369-1.938
	c-0.009-0.245-0.153-0.48-0.442-0.719c-0.648-0.532-1.469-0.577-2.047-0.518c-1.221,0.121-2.575,0.817-3.293,1.694
	c-2.167,2.645-2.872,6.79-0.029,9.597c1.372,1.355,3.328,2.087,5.399,2.863c3.073,1.151,6.252,2.341,7.443,5.745
	c0.627,1.79,0.291,3.972-0.877,5.697c-1.059,1.563-2.634,2.501-4.321,2.574c-0.016,0.002-1.472-0.055-2.402-0.269
	c-1.187,2.399-2.738,2.973-5.106,3.684c-0.034,0.01-0.07,0.017-0.106,0.02c-2.522,0.188-4.492,0.505-4.999,2.693
	c-0.105,0.453-0.868,0.454-0.974,0c-0.507-2.188-2.477-2.506-4.998-2.693c-0.036-0.002-0.071-0.009-0.105-0.02
	c-2.37-0.712-3.921-1.286-5.108-3.684c-0.909,0.208-2.363,0.269-2.401,0.269l0,0c-1.688-0.072-3.262-1.01-4.321-2.572
	c-1.168-1.724-1.504-3.908-0.877-5.698c1.191-3.404,4.37-4.594,7.444-5.745c2.071-0.776,4.027-1.508,5.398-2.863
	c2.843-2.808,2.137-6.954-0.029-9.597c-0.718-0.877-2.072-1.574-3.294-1.694c-0.574-0.057-1.398-0.012-2.045,0.518
	c-0.29,0.238-0.435,0.474-0.443,0.718c-0.021,0.626,0.813,1.416,1.367,1.939c0.156,0.147,0.32,0.295,0.487,0.445
	c1.178,1.062,2.643,2.383,2.055,4.381c-0.358,1.217-1.81,2.713-3.215,2.896c-0.56,0.07-1.053-0.069-1.453-0.4
	c-0.949,1.334-1.771,1.608-3.528,1.951l-0.539,0.101c-1.556,0.282-3.319,0.602-3.802,2.021c-0.139,0.404-0.807,0.405-0.945,0
	c-0.481-1.419-2.247-1.739-3.804-2.021l-0.539-0.1c-1.758-0.343-2.58-0.616-3.529-1.951c-0.4,0.332-0.896,0.471-1.453,0.4
	c-1.405-0.183-2.855-1.679-3.213-2.896c-0.588-1.998,0.876-3.318,2.053-4.38c0.167-0.15,0.332-0.299,0.488-0.446
	c0.554-0.523,1.39-1.312,1.368-1.939c-0.009-0.245-0.152-0.48-0.443-0.719c-0.648-0.532-1.477-0.577-2.047-0.518
	c-1.221,0.121-2.574,0.818-3.291,1.694c-2.168,2.645-2.874,6.791-0.029,9.598c1.371,1.355,3.327,2.087,5.397,2.863
	c3.074,1.151,6.253,2.341,7.444,5.745c0.627,1.79,0.292,3.973-0.876,5.697c-1.06,1.563-2.635,2.501-4.322,2.574
	c0-0.006-1.469-0.056-2.402-0.27c-1.188,2.399-2.738,2.973-5.107,3.685c-0.034,0.01-0.069,0.017-0.105,0.02
	c-2.522,0.188-4.492,0.505-4.999,2.693c-0.105,0.453-0.868,0.454-0.974,0c-0.508-2.188-2.477-2.506-4.997-2.693
	c-0.036-0.002-0.072-0.009-0.106-0.02c-2.368-0.711-3.92-1.285-5.108-3.684c-0.908,0.208-2.362,0.269-2.401,0.269l0,0
	c-1.688-0.072-3.263-1.01-4.321-2.573c-1.168-1.724-1.505-3.907-0.878-5.698c1.192-3.404,4.371-4.594,7.444-5.745
	c2.071-0.775,4.027-1.508,5.399-2.863c2.842-2.808,2.137-6.953-0.029-9.597c-0.719-0.877-2.074-1.574-3.296-1.694
	c-0.573-0.057-1.397-0.012-2.043,0.518c-0.29,0.239-0.436,0.474-0.443,0.719c-0.022,0.626,0.814,1.416,1.368,1.939
	c0.156,0.147,0.32,0.296,0.487,0.446c1.177,1.062,2.642,2.382,2.054,4.38c-0.357,1.217-1.809,2.713-3.215,2.896
	c-0.55,0.072-1.052-0.068-1.453-0.4c-0.948,1.334-1.771,1.608-3.528,1.951l-0.54,0.101c-1.557,0.282-3.32,0.602-3.801,2.021
	c-0.139,0.404-0.808,0.404-0.946,0c-0.48-1.419-2.245-1.739-3.802-2.021l-0.54-0.101c-1.756-0.343-2.579-0.616-3.527-1.951
	c-0.402,0.332-0.898,0.471-1.454,0.4c-1.405-0.183-2.855-1.679-3.214-2.896c-0.588-1.998,0.877-3.318,2.054-4.38
	c0.167-0.15,0.331-0.299,0.487-0.446c0.554-0.523,1.391-1.313,1.368-1.939c-0.008-0.245-0.153-0.48-0.443-0.719
	c-0.646-0.531-1.47-0.575-2.043-0.518c-1.222,0.12-2.576,0.817-3.296,1.694c-2.166,2.645-2.872,6.79-0.029,9.597
	c1.372,1.355,3.328,2.087,5.399,2.863c3.073,1.151,6.252,2.341,7.444,5.744c0.627,1.791,0.29,3.974-0.878,5.698
	c-1.059,1.563-2.634,2.5-4.321,2.573c-0.015,0.002-1.471-0.055-2.402-0.269c-1.188,2.398-2.739,2.973-5.107,3.684
	c-0.034,0.01-0.07,0.017-0.106,0.02c-2.521,0.188-4.491,0.505-4.998,2.693c-0.053,0.226-0.255,0.387-0.486,0.387l0,0
	c-0.232,0-0.434-0.161-0.486-0.387c-0.508-2.188-2.477-2.506-4.998-2.693c-0.036-0.002-0.072-0.009-0.106-0.02
	c-2.369-0.711-3.92-1.286-5.108-3.685c-0.91,0.208-2.361,0.27-2.4,0.27l0,0c-1.689-0.072-3.264-1.011-4.323-2.574
	c-1.168-1.724-1.503-3.907-0.876-5.697c1.191-3.403,4.37-4.593,7.444-5.744c2.07-0.775,4.026-1.507,5.398-2.862
	c2.843-2.808,2.137-6.954-0.029-9.598c-0.718-0.877-2.071-1.574-3.293-1.694c-0.577-0.059-1.4-0.013-2.046,0.518
	c-0.29,0.239-0.435,0.474-0.443,0.719c-0.021,0.627,0.814,1.416,1.368,1.938c0.156,0.148,0.321,0.296,0.488,0.447
	c1.177,1.062,2.642,2.382,2.054,4.38c-0.358,1.216-1.81,2.713-3.214,2.896c-0.557,0.072-1.053-0.068-1.454-0.399
	c-0.948,1.334-1.771,1.607-3.528,1.95l-0.54,0.101c-1.557,0.282-3.32,0.602-3.803,2.021c-0.138,0.405-0.807,0.404-0.945,0
	c-0.48-1.418-2.245-1.738-3.801-2.021l-0.54-0.101c-1.756-0.343-2.579-0.616-3.528-1.951c-0.4,0.331-0.898,0.47-1.452,0.4
	c-1.406-0.182-2.857-1.678-3.216-2.895c-0.587-1.999,0.878-3.32,2.056-4.382c0.166-0.15,0.33-0.298,0.487-0.445
	c0.553-0.523,1.389-1.313,1.367-1.939c-0.009-0.245-0.154-0.48-0.444-0.718c-0.646-0.53-1.467-0.577-2.041-0.518
	c-1.223,0.12-2.578,0.816-3.298,1.694c-2.166,2.644-2.871,6.79-0.028,9.598c1.372,1.354,3.328,2.087,5.398,2.862
	c3.073,1.151,6.252,2.341,7.443,5.745c0.627,1.791,0.291,3.974-0.877,5.698c-1.059,1.562-2.633,2.5-4.319,2.572
	c-0.016,0.002-1.472-0.055-2.403-0.269c-1.188,2.398-2.739,2.973-5.107,3.684c-0.034,0.01-0.07,0.017-0.106,0.02
	c-2.521,0.188-4.491,0.505-4.998,2.693c-0.053,0.226-0.255,0.387-0.487,0.387l0,0c-0.231,0-0.434-0.161-0.486-0.387
	c-0.507-2.188-2.477-2.505-4.998-2.693c-0.036-0.002-0.072-0.009-0.106-0.02c-2.369-0.711-3.921-1.286-5.107-3.684
	c-0.932,0.214-2.411,0.264-2.401,0.269c-1.688-0.072-3.263-1.01-4.321-2.573c-1.168-1.725-1.505-3.908-0.878-5.698
	c1.192-3.404,4.371-4.594,7.444-5.745c2.07-0.775,4.026-1.508,5.398-2.863c2.844-2.807,2.138-6.953-0.029-9.597
	c-0.719-0.877-2.073-1.574-3.294-1.694c-0.578-0.059-1.396-0.013-2.044,0.518c-0.29,0.238-0.436,0.474-0.443,0.718
	c-0.021,0.627,0.814,1.417,1.368,1.939c0.155,0.146,0.319,0.294,0.485,0.444c1.177,1.062,2.643,2.383,2.055,4.382
	c-0.357,1.217-1.808,2.713-3.214,2.896c-0.55,0.071-1.051-0.068-1.453-0.4c-0.948,1.334-1.771,1.608-3.528,1.951l-0.539,0.101
	c-1.557,0.282-3.32,0.602-3.802,2.021c-0.139,0.404-0.808,0.404-0.946,0c-0.481-1.419-2.245-1.739-3.802-2.021l-0.54-0.1
	c-1.757-0.343-2.58-0.616-3.527-1.951c-0.401,0.332-0.898,0.471-1.455,0.4c-1.405-0.183-2.854-1.679-3.213-2.896
	c-0.588-1.998,0.877-3.318,2.054-4.38c0.167-0.15,0.332-0.299,0.487-0.446c0.554-0.523,1.391-1.312,1.369-1.939
	c-0.009-0.245-0.154-0.48-0.443-0.719c-0.648-0.532-1.476-0.577-2.047-0.518c-1.221,0.121-2.574,0.818-3.292,1.694
	c-2.166,2.645-2.873,6.791-0.03,9.598c1.372,1.355,3.328,2.087,5.399,2.863c3.074,1.151,6.253,2.341,7.444,5.745
	c0.627,1.791,0.291,3.974-0.878,5.698c-1.059,1.563-2.633,2.5-4.321,2.573c-0.015,0.002-1.471-0.055-2.402-0.269
	c-1.187,2.399-2.738,2.973-5.106,3.684c-0.034,0.01-0.07,0.017-0.106,0.02c-2.522,0.188-4.492,0.505-4.999,2.693
	c-0.104,0.454-0.868,0.454-0.972,0c-0.508-2.188-2.477-2.506-4.998-2.693c-0.036-0.002-0.071-0.009-0.106-0.02
	c-2.369-0.711-3.921-1.286-5.108-3.684c-0.921,0.211-2.414,0.263-2.402,0.269c-1.688-0.072-3.263-1.01-4.322-2.573
	c-1.168-1.725-1.504-3.908-0.878-5.698c1.193-3.404,4.371-4.594,7.445-5.745c2.071-0.775,4.027-1.508,5.399-2.863
	c2.843-2.808,2.137-6.954-0.029-9.597c-0.718-0.877-2.073-1.574-3.294-1.694c-0.575-0.057-1.398-0.012-2.044,0.518
	c-0.29,0.238-0.435,0.474-0.443,0.719c-0.021,0.627,0.814,1.416,1.367,1.939c0.156,0.147,0.32,0.295,0.487,0.445
	c1.177,1.062,2.643,2.383,2.055,4.381c-0.358,1.216-1.808,2.713-3.214,2.896c-0.549,0.073-1.052-0.068-1.453-0.4
	c-0.949,1.334-1.771,1.608-3.528,1.951l-0.54,0.101c-1.556,0.282-3.32,0.602-3.802,2.021c-0.137,0.405-0.809,0.404-0.946,0
	c-0.481-1.419-2.246-1.739-3.802-2.021l-0.54-0.101c-1.756-0.343-2.579-0.616-3.528-1.951c-0.401,0.332-0.899,0.471-1.454,0.4
	c-1.406-0.183-2.856-1.679-3.214-2.896c-0.587-1.998,0.876-3.318,2.053-4.38c0.167-0.15,0.332-0.299,0.488-0.446
	c0.553-0.523,1.39-1.313,1.368-1.939c-0.008-0.245-0.153-0.48-0.443-0.718c-0.646-0.53-1.467-0.575-2.044-0.518
	c-1.221,0.12-2.576,0.817-3.295,1.694c-2.166,2.645-2.872,6.79-0.029,9.597c1.372,1.355,3.328,2.087,5.399,2.863
	c3.074,1.151,6.253,2.341,7.444,5.745c0.627,1.791,0.291,3.974-0.877,5.698c-1.059,1.563-2.634,2.5-4.321,2.573h0
	c-0.039,0-1.493-0.061-2.402-0.269c-1.188,2.398-2.739,2.972-5.107,3.684c-0.035,0.01-0.07,0.017-0.106,0.02
	c-2.521,0.188-4.491,0.505-4.998,2.693c-0.053,0.226-0.255,0.387-0.487,0.387l0,0c-0.232,0-0.434-0.161-0.486-0.387
	c-0.507-2.188-2.476-2.506-4.998-2.693c-0.036-0.002-0.071-0.009-0.106-0.02c-2.369-0.711-3.921-1.286-5.108-3.684
	c-0.92,0.211-2.396,0.263-2.402,0.269c-1.688-0.072-3.263-1.01-4.322-2.573c-1.168-1.725-1.504-3.908-0.877-5.698
	c1.192-3.404,4.371-4.594,7.445-5.745c2.071-0.775,4.027-1.508,5.399-2.863c2.842-2.808,2.137-6.953-0.03-9.597
	c-0.718-0.877-2.072-1.574-3.294-1.694c-0.577-0.058-1.399-0.013-2.045,0.518c-0.29,0.238-0.434,0.474-0.443,0.718
	c-0.021,0.627,0.814,1.417,1.368,1.939c0.156,0.147,0.321,0.296,0.488,0.446c1.177,1.062,2.641,2.382,2.053,4.38
	c-0.357,1.216-1.808,2.713-3.214,2.896c-0.549,0.073-1.053-0.068-1.454-0.4c-0.949,1.334-1.772,1.608-3.529,1.951l-0.539,0.101
	c-1.557,0.282-3.32,0.602-3.802,2.021c-0.137,0.404-0.807,0.405-0.946,0c-0.481-1.419-2.246-1.739-3.802-2.021l-0.54-0.101
	c-1.756-0.343-2.579-0.616-3.528-1.951c-0.401,0.332-0.899,0.472-1.454,0.4c-1.406-0.183-2.855-1.679-3.213-2.896
	c-0.588-1.999,0.877-3.32,2.055-4.381c0.167-0.15,0.331-0.298,0.487-0.445c0.553-0.522,1.389-1.312,1.368-1.938
	c-0.008-0.245-0.154-0.48-0.444-0.719c-0.646-0.531-1.467-0.575-2.043-0.518c-1.221,0.12-2.576,0.817-3.295,1.694
	c-2.167,2.644-2.873,6.79-0.03,9.597c1.373,1.355,3.328,2.087,5.399,2.863c3.074,1.151,6.252,2.341,7.444,5.745
	c0.627,1.79,0.291,3.973-0.877,5.697c-1.059,1.563-2.634,2.501-4.321,2.573h0c-0.039,0-1.493-0.061-2.402-0.269
	c-1.188,2.398-2.74,2.973-5.107,3.684c-0.035,0.01-0.07,0.017-0.106,0.02c-2.521,0.188-4.491,0.505-4.999,2.693
	c-0.052,0.226-0.253,0.387-0.486,0.387l0,0c-0.232,0-0.434-0.161-0.486-0.387c-0.507-2.188-2.476-2.506-4.998-2.693
	c-0.036-0.002-0.072-0.009-0.107-0.02c-2.369-0.712-3.92-1.286-5.108-3.685c-0.921,0.211-2.415,0.263-2.4,0.27
	c-1.688-0.072-3.263-1.01-4.321-2.573c-1.168-1.724-1.505-3.907-0.878-5.698c1.192-3.404,4.371-4.594,7.445-5.745
	c2.071-0.775,4.027-1.507,5.398-2.862c2.843-2.808,2.138-6.954-0.028-9.598c-0.719-0.877-2.075-1.575-3.296-1.694
	c-0.572-0.057-1.396-0.012-2.043,0.518c-0.291,0.238-0.435,0.474-0.443,0.718c-0.022,0.626,0.814,1.416,1.368,1.939
	c0.156,0.147,0.321,0.296,0.488,0.446c1.177,1.062,2.641,2.382,2.054,4.38c-0.358,1.216-1.809,2.713-3.214,2.896
	c-0.558,0.071-1.054-0.068-1.454-0.4c-0.949,1.334-1.772,1.608-3.528,1.951l-0.54,0.101c-1.556,0.282-3.32,0.602-3.801,2.021
	c-0.137,0.404-0.808,0.405-0.945,0c-0.482-1.419-2.247-1.739-3.803-2.021l-0.54-0.101c-1.757-0.343-2.58-0.616-3.528-1.951
	c-0.4,0.332-0.897,0.471-1.453,0.4c-1.405-0.182-2.856-1.679-3.215-2.895c-0.587-1.999,0.878-3.32,2.056-4.382
	c0.166-0.15,0.331-0.298,0.486-0.445c0.553-0.522,1.389-1.312,1.368-1.938c-0.008-0.245-0.154-0.48-0.444-0.719
	c-0.646-0.53-1.467-0.575-2.044-0.518c-1.222,0.12-2.576,0.817-3.294,1.694c-2.167,2.644-2.873,6.79-0.029,9.597
	c1.372,1.355,3.328,2.087,5.398,2.863c3.074,1.151,6.252,2.341,7.444,5.745c0.627,1.79,0.292,3.973-0.876,5.697
	c-1.059,1.563-2.634,2.501-4.322,2.574h0c-0.039,0-1.491-0.061-2.401-0.27c-1.188,2.399-2.74,2.973-5.108,3.685
	c-0.035,0.01-0.07,0.017-0.106,0.02c-2.522,0.188-4.492,0.505-4.998,2.693c-0.105,0.453-0.867,0.455-0.973,0
	c-0.507-2.188-2.477-2.506-4.998-2.693c-0.036-0.002-0.072-0.009-0.106-0.02c-2.368-0.711-3.919-1.286-5.108-3.684
	c-0.92,0.21-2.396,0.262-2.401,0.269c-1.688-0.072-3.263-1.01-4.321-2.573c-1.168-1.724-1.505-3.907-0.878-5.698
	c1.192-3.404,4.371-4.594,7.444-5.745c2.07-0.775,4.026-1.508,5.398-2.863c2.843-2.808,2.137-6.953-0.029-9.597
	c-0.718-0.877-2.073-1.574-3.294-1.694c-0.575-0.057-1.397-0.012-2.044,0.518c-0.29,0.238-0.435,0.474-0.444,0.718
	c-0.021,0.626,0.815,1.416,1.369,1.939c0.156,0.147,0.321,0.296,0.487,0.446c1.177,1.062,2.642,2.382,2.054,4.38
	c-0.358,1.216-1.808,2.713-3.213,2.896c-0.558,0.071-1.054-0.068-1.454-0.4c-0.948,1.334-1.771,1.608-3.528,1.951l-0.54,0.101
	c-1.557,0.282-3.32,0.602-3.802,2.021c-0.137,0.404-0.807,0.405-0.946,0c-0.481-1.419-2.246-1.739-3.802-2.021l-0.54-0.101
	c-1.757-0.343-2.58-0.616-3.528-1.951c-0.4,0.332-0.898,0.471-1.453,0.4c-1.405-0.182-2.856-1.679-3.215-2.895
	c-0.586-1.999,0.877-3.319,2.054-4.381c0.167-0.15,0.331-0.298,0.487-0.446c0.553-0.523,1.39-1.312,1.369-1.939
	c-0.008-0.245-0.154-0.48-0.444-0.719c-0.647-0.531-1.471-0.577-2.044-0.518c-1.221,0.12-2.576,0.817-3.294,1.694
	c-2.167,2.644-2.873,6.79-0.03,9.597c1.373,1.355,3.329,2.087,5.399,2.863c3.074,1.151,6.252,2.341,7.444,5.745
	c0.627,1.791,0.291,3.974-0.878,5.698c-1.058,1.563-2.633,2.5-4.32,2.573h0c-0.039,0-1.493-0.061-2.402-0.269
	c-1.188,2.398-2.739,2.973-5.107,3.684c-0.035,0.01-0.07,0.017-0.106,0.02c-2.522,0.188-4.492,0.505-4.998,2.693
	c-0.105,0.453-0.868,0.455-0.973,0c-0.508-2.188-2.477-2.506-4.999-2.693c-0.036-0.002-0.072-0.009-0.107-0.02
	c-2.367-0.711-3.919-1.286-5.107-3.684c-0.921,0.211-2.417,0.263-2.402,0.269c-1.688-0.072-3.263-1.01-4.321-2.573
	c-1.168-1.725-1.504-3.908-0.876-5.698c1.191-3.403,4.37-4.593,7.444-5.744c2.07-0.775,4.026-1.508,5.399-2.863
	c2.842-2.807,2.136-6.953-0.03-9.597c-0.718-0.877-2.073-1.574-3.295-1.694c-0.572-0.057-1.396-0.012-2.043,0.518
	c-0.29,0.238-0.436,0.474-0.444,0.719c-0.021,0.627,0.814,1.416,1.368,1.939c0.156,0.147,0.32,0.295,0.486,0.445
	c1.178,1.062,2.643,2.383,2.055,4.381c-0.358,1.216-1.808,2.713-3.214,2.896c-0.555,0.071-1.052-0.068-1.453-0.399
	c-0.948,1.334-1.771,1.607-3.528,1.95l-0.54,0.101c-1.557,0.282-3.321,0.602-3.802,2.021c-0.139,0.405-0.809,0.404-0.946,0
	c-0.481-1.419-2.246-1.739-3.802-2.021l-0.54-0.101c-1.756-0.343-2.579-0.616-3.527-1.951c-0.401,0.332-0.899,0.472-1.454,0.4
	c-1.406-0.183-2.856-1.679-3.214-2.896c-0.587-1.998,0.878-3.319,2.054-4.38c0.167-0.15,0.331-0.298,0.487-0.446
	c0.554-0.523,1.39-1.313,1.369-1.939c-0.009-0.245-0.154-0.48-0.444-0.718c-0.646-0.53-1.466-0.575-2.044-0.518
	c-1.221,0.12-2.576,0.817-3.295,1.694c-2.166,2.644-2.872,6.79-0.028,9.597c1.372,1.355,3.328,2.087,5.398,2.863
	c3.074,1.151,6.252,2.341,7.444,5.745c0.627,1.791,0.291,3.974-0.878,5.698c-1.058,1.563-2.633,2.5-4.32,2.573h0
	c-0.039,0-1.493-0.061-2.402-0.269c-1.187,2.398-2.739,2.973-5.107,3.684c-0.035,0.01-0.07,0.017-0.106,0.02
	c-2.522,0.188-4.491,0.505-4.998,2.693c-0.104,0.453-0.867,0.455-0.973,0c-0.507-2.188-2.477-2.506-4.998-2.693
	c-0.036-0.002-0.072-0.009-0.106-0.02c-2.369-0.711-3.92-1.286-5.107-3.684c-0.92,0.211-2.399,0.263-2.402,0.269
	c-1.688-0.072-3.262-1.01-4.321-2.573c-1.168-1.725-1.504-3.908-0.878-5.698c1.193-3.404,4.371-4.594,7.445-5.745
	c2.071-0.775,4.027-1.508,5.399-2.863c2.842-2.808,2.137-6.953-0.029-9.597c-0.718-0.877-2.073-1.574-3.294-1.694
	c-0.574-0.057-1.397-0.012-2.044,0.518c-0.29,0.238-0.436,0.474-0.444,0.719c-0.021,0.627,0.815,1.416,1.368,1.939
	c0.156,0.147,0.32,0.295,0.486,0.445c1.178,1.062,2.643,2.383,2.055,4.381c-0.358,1.216-1.808,2.713-3.214,2.896
	c-0.55,0.073-1.052-0.068-1.453-0.4c-0.949,1.334-1.772,1.608-3.528,1.951l-0.54,0.101c-1.556,0.282-3.321,0.602-3.802,2.021
	c-0.138,0.405-0.809,0.404-0.946,0c-0.481-1.419-2.246-1.739-3.802-2.021l-0.54-0.101c-1.756-0.343-2.579-0.616-3.528-1.951
	c-0.401,0.332-0.899,0.471-1.454,0.4c-1.405-0.183-2.856-1.679-3.214-2.896c-0.587-1.998,0.877-3.318,2.054-4.38
	c0.167-0.15,0.332-0.299,0.488-0.446c0.554-0.523,1.39-1.313,1.368-1.939c-0.008-0.245-0.153-0.48-0.443-0.718
	c-0.646-0.53-1.465-0.575-2.044-0.518c-1.221,0.12-2.576,0.817-3.295,1.694c-2.166,2.644-2.871,6.79-0.028,9.597
	c1.371,1.355,3.327,2.087,5.398,2.863c3.074,1.151,6.253,2.341,7.444,5.745c0.627,1.791,0.291,3.974-0.877,5.698
	c-1.059,1.563-2.633,2.5-4.321,2.573h0c-0.039,0-1.493-0.061-2.402-0.269c-1.188,2.398-2.739,2.973-5.107,3.684
	c-0.035,0.01-0.071,0.017-0.107,0.02c-2.521,0.188-4.49,0.505-4.998,2.693c-0.053,0.226-0.254,0.387-0.486,0.387l0,0
	c-0.232,0-0.434-0.161-0.487-0.387c-0.506-2.188-2.476-2.506-4.997-2.693c-0.036-0.002-0.072-0.009-0.106-0.02
	c-2.369-0.711-3.921-1.286-5.108-3.684c-0.921,0.211-2.419,0.263-2.402,0.269c-1.688-0.072-3.262-1.01-4.321-2.573
	c-1.168-1.725-1.504-3.908-0.877-5.698c1.192-3.404,4.371-4.594,7.444-5.745c2.071-0.775,4.027-1.508,5.399-2.863
	c2.842-2.808,2.136-6.953-0.03-9.597c-0.718-0.877-2.072-1.574-3.294-1.694c-0.578-0.058-1.398-0.013-2.045,0.518
	c-0.29,0.238-0.435,0.474-0.443,0.718c-0.021,0.627,0.814,1.417,1.368,1.939C51.835,4.342,52,4.491,52.167,4.641
	c1.177,1.062,2.641,2.382,2.053,4.38c-0.358,1.216-1.808,2.713-3.214,2.896c-0.55,0.073-1.052-0.068-1.453-0.4
	c-0.949,1.334-1.772,1.608-3.529,1.951l-0.539,0.101c-1.557,0.282-3.321,0.602-3.802,2.021c-0.138,0.404-0.808,0.405-0.946,0
	c-0.482-1.419-2.246-1.739-3.802-2.021l-0.54-0.101c-1.756-0.343-2.579-0.616-3.528-1.951c-0.401,0.332-0.9,0.472-1.454,0.4
	c-1.405-0.183-2.855-1.679-3.213-2.896c-0.588-1.999,0.877-3.32,2.055-4.381c0.167-0.15,0.331-0.298,0.487-0.445
	c0.553-0.522,1.389-1.312,1.367-1.938c-0.008-0.245-0.153-0.48-0.443-0.719c-0.646-0.531-1.466-0.575-2.043-0.518
	c-1.221,0.12-2.577,0.817-3.295,1.694c-2.167,2.644-2.873,6.79-0.03,9.597c1.372,1.355,3.328,2.087,5.399,2.863
	c3.074,1.151,6.252,2.341,7.444,5.745c0.627,1.79,0.291,3.973-0.877,5.697c-1.059,1.563-2.634,2.501-4.322,2.573h0
	c-0.039,0-1.493-0.061-2.401-0.269c-1.188,2.398-2.74,2.973-5.108,3.684c-0.035,0.01-0.07,0.017-0.106,0.02
	c-2.521,0.188-4.491,0.505-4.999,2.693c-0.052,0.226-0.253,0.387-0.486,0.387l0,0c-0.232,0-0.434-0.161-0.487-0.387
	c-0.506-2.188-2.476-2.506-4.998-2.693c-0.036-0.002-0.071-0.009-0.106-0.02c-2.369-0.712-3.92-1.286-5.108-3.685
	c-0.921,0.211-2.399,0.263-2.401,0.27c-1.688-0.072-3.263-1.01-4.321-2.573c-1.168-1.724-1.504-3.907-0.878-5.698
	c1.192-3.404,4.371-4.594,7.444-5.745c2.071-0.775,4.027-1.507,5.398-2.862c2.843-2.808,2.138-6.954-0.028-9.598
	c-0.718-0.877-2.073-1.574-3.295-1.694c-0.573-0.059-1.398-0.013-2.044,0.518c-0.29,0.238-0.435,0.474-0.443,0.718
	c-0.022,0.626,0.814,1.416,1.368,1.939c0.157,0.147,0.321,0.296,0.488,0.446c1.177,1.062,2.641,2.382,2.053,4.38
	c-0.358,1.216-1.808,2.713-3.214,2.896c-0.558,0.071-1.053-0.068-1.454-0.4c-0.949,1.334-1.772,1.608-3.529,1.951l-0.54,0.101
	c-1.556,0.282-3.32,0.602-3.801,2.021L0,15.268c0.67-1.976,2.924-2.384,4.569-2.683l0.526-0.098c1.848-0.36,2.33-0.577,3.241-2.058
	c0.09-0.148,0.247-0.199,0.426-0.237c0.174,0,0.335,0.091,0.426,0.24c0.236,0.391,0.54,0.548,0.952,0.494
	c0.958-0.124,2.131-1.326,2.385-2.187c0.41-1.395-0.646-2.348-1.765-3.356c-0.173-0.156-0.343-0.31-0.505-0.463
	c-0.725-0.684-1.717-1.622-1.68-2.699c0.019-0.54,0.29-1.03,0.807-1.455c0.72-0.593,1.68-0.852,2.776-0.741
	c1.488,0.146,3.083,0.973,3.97,2.055c2.453,2.994,3.226,7.713-0.042,10.941c-1.524,1.504-3.672,2.309-5.75,3.087
	c-2.99,1.12-5.814,2.177-6.852,5.14c-0.524,1.498-0.232,3.34,0.762,4.808c0.88,1.298,2.169,2.077,3.537,2.136
	c0.207-0.002,2.08-0.236,2.44-0.314c0.247-0.107,0.536,0.003,0.65,0.25c0.001,0.003,0.003,0.006,0.004,0.009
	c0.98,2.202,2.105,2.741,4.608,3.495c1.745,0.13,4.208,0.333,5.356,2.233c1.148-1.901,3.612-2.104,5.356-2.233
	c2.501-0.754,3.625-1.292,4.606-3.492c0-0.001,0.001-0.003,0.002-0.005h0c0,0,0-0.001,0-0.001c0.08-0.178,0.255-0.293,0.45-0.295
	c0.072,0.002,0.136,0.012,0.198,0.038c0.346,0.076,2.238,0.313,2.456,0.315c1.357-0.059,2.647-0.837,3.527-2.136
	c0.994-1.467,1.286-3.309,0.762-4.807c-1.037-2.962-3.862-4.02-6.852-5.139c-2.078-0.778-4.227-1.583-5.75-3.087
	c-3.269-3.228-2.495-7.947-0.042-10.941c0.887-1.083,2.483-1.909,3.97-2.055c1.094-0.111,2.054,0.148,2.775,0.741
	c0.517,0.425,0.789,0.915,0.808,1.456c0.037,1.077-0.956,2.015-1.68,2.698c-0.161,0.153-0.332,0.306-0.503,0.461
	c-1.119,1.009-2.176,1.962-1.766,3.358c0.253,0.86,1.426,2.063,2.384,2.187c0.411,0.054,0.715-0.104,0.952-0.494
	c0.09-0.149,0.251-0.24,0.426-0.24h0.001c0.173,0,0.334,0.089,0.425,0.237c0.911,1.481,1.394,1.698,3.24,2.058l0.526,0.098
	c1.364,0.247,3.145,0.57,4.097,1.798c0.951-1.228,2.733-1.551,4.096-1.798l0.527-0.098c1.848-0.36,2.33-0.577,3.241-2.058
	c0.091-0.148,0.252-0.237,0.425-0.237c0,0,0.001,0,0.002,0c0.174,0,0.335,0.091,0.425,0.24c0.236,0.391,0.536,0.548,0.952,0.494
	c0.958-0.124,2.131-1.326,2.385-2.187c0.41-1.395-0.646-2.348-1.764-3.356c-0.173-0.156-0.343-0.31-0.505-0.463
	c-0.724-0.684-1.717-1.621-1.68-2.699c0.019-0.54,0.29-1.03,0.806-1.455c0.722-0.593,1.682-0.852,2.778-0.741
	c1.487,0.146,3.082,0.973,3.968,2.055c2.453,2.994,3.226,7.713-0.041,10.94c-1.524,1.505-3.673,2.309-5.751,3.087
	c-2.99,1.12-5.815,2.177-6.853,5.14c-0.524,1.498-0.232,3.34,0.762,4.807c0.88,1.298,2.169,2.077,3.537,2.136
	c0.208-0.002,2.1-0.239,2.446-0.315c0.062-0.026,0.12-0.039,0.199-0.039c0.195,0.002,0.37,0.117,0.449,0.295c0,0,0,0,0,0.001h0
	c0,0.001,0.001,0.003,0.002,0.005c0.979,2.199,2.104,2.738,4.607,3.492c1.744,0.13,4.207,0.333,5.355,2.233
	c1.148-1.901,3.611-2.104,5.356-2.233c2.504-0.754,3.628-1.293,4.609-3.498c0.08-0.178,0.255-0.293,0.45-0.295
	c0.069,0.002,0.137,0.012,0.198,0.039c0.346,0.076,2.239,0.313,2.457,0.314c1.357-0.059,2.646-0.837,3.526-2.135
	c0.994-1.467,1.286-3.31,0.762-4.808c-1.038-2.962-3.862-4.02-6.853-5.139c-2.078-0.778-4.227-1.583-5.75-3.087
	c-3.268-3.228-2.495-7.947-0.042-10.941c0.887-1.083,2.482-1.909,3.969-2.055c1.094-0.111,2.055,0.148,2.776,0.741
	c0.518,0.425,0.789,0.915,0.808,1.455c0.037,1.077-0.956,2.015-1.681,2.699c-0.162,0.153-0.332,0.307-0.504,0.463
	c-1.119,1.009-2.175,1.961-1.765,3.356c0.254,0.861,1.427,2.063,2.385,2.187c0.411,0.054,0.715-0.103,0.952-0.494
	c0.09-0.149,0.251-0.24,0.426-0.24c0.165,0.009,0.335,0.089,0.426,0.237c0.911,1.481,1.394,1.698,3.24,2.058l0.526,0.098
	c1.364,0.247,3.146,0.57,4.097,1.797c0.952-1.228,2.734-1.551,4.097-1.798l0.527-0.098c1.847-0.36,2.329-0.577,3.24-2.058
	c0.091-0.148,0.252-0.237,0.425-0.237c0,0,0.001,0,0.002,0c0.173,0,0.335,0.091,0.425,0.24c0.236,0.391,0.537,0.548,0.952,0.494
	c0.958-0.124,2.131-1.326,2.385-2.187c0.411-1.396-0.647-2.349-1.766-3.358c-0.172-0.155-0.342-0.309-0.503-0.461
	c-0.724-0.684-1.717-1.622-1.68-2.699c0.018-0.541,0.291-1.03,0.808-1.456c0.72-0.593,1.68-0.852,2.776-0.741
	c1.487,0.146,3.082,0.973,3.969,2.055c2.453,2.994,3.226,7.713-0.041,10.94c-1.524,1.505-3.673,2.309-5.75,3.087
	c-2.991,1.12-5.815,2.177-6.853,5.14c-0.524,1.498-0.232,3.34,0.762,4.807c0.879,1.298,2.168,2.077,3.537,2.136
	c0.207-0.002,2.1-0.239,2.446-0.315c0.062-0.026,0.129-0.034,0.199-0.039c0.195,0.002,0.37,0.117,0.449,0.295
	c0.98,2.204,2.105,2.743,4.609,3.498c1.744,0.13,4.207,0.333,5.356,2.233c1.147-1.901,3.611-2.104,5.356-2.233
	c2.501-0.754,3.626-1.292,4.605-3.492c0.001-0.002,0.001-0.003,0.002-0.005h0c0,0,0-0.001,0-0.001
	c0.08-0.178,0.254-0.293,0.45-0.295c0.074,0.005,0.137,0.013,0.198,0.039c0.346,0.076,2.239,0.313,2.457,0.314
	c1.357-0.059,2.646-0.837,3.526-2.135c0.994-1.467,1.286-3.31,0.762-4.808c-1.038-2.962-3.862-4.02-6.852-5.139
	c-2.078-0.778-4.226-1.583-5.75-3.087c-3.269-3.228-2.495-7.947-0.042-10.941c0.887-1.083,2.482-1.909,3.969-2.055
	c1.093-0.111,2.055,0.148,2.776,0.741c0.518,0.425,0.789,0.915,0.808,1.455c0.037,1.077-0.956,2.015-1.681,2.699
	c-0.162,0.153-0.332,0.307-0.504,0.462c-1.119,1.009-2.175,1.961-1.765,3.357c0.253,0.86,1.427,2.063,2.385,2.187
	c0.414,0.053,0.715-0.103,0.952-0.494c0.09-0.149,0.251-0.24,0.425-0.24c0.001,0,0.001,0,0.001,0c0.174,0,0.335,0.089,0.426,0.237
	c0.911,1.481,1.394,1.698,3.24,2.058l0.526,0.098c1.364,0.247,3.146,0.57,4.097,1.797c0.952-1.228,2.733-1.551,4.097-1.798
	l0.526-0.098c1.848-0.36,2.33-0.578,3.24-2.058c0.091-0.148,0.251-0.238,0.425-0.238c0,0,0.001,0,0.001,0
	c0.174,0,0.335,0.091,0.425,0.24c0.236,0.391,0.535,0.548,0.952,0.494c0.958-0.124,2.132-1.326,2.385-2.187
	c0.411-1.396-0.647-2.349-1.766-3.358c-0.172-0.155-0.342-0.309-0.503-0.461c-0.725-0.684-1.717-1.622-1.68-2.699
	c0.019-0.541,0.291-1.03,0.808-1.456c0.72-0.593,1.678-0.852,2.775-0.741c1.487,0.146,3.083,0.973,3.969,2.055
	c2.453,2.994,3.227,7.713-0.041,10.941c-1.524,1.504-3.673,2.309-5.75,3.087c-2.99,1.119-5.815,2.177-6.852,5.14
	c-0.525,1.498-0.233,3.339,0.761,4.807c0.88,1.299,2.169,2.078,3.537,2.137c0.208-0.002,2.1-0.239,2.446-0.315
	c0.062-0.026,0.129-0.035,0.199-0.038c0.194,0.002,0.37,0.117,0.449,0.295c0.981,2.205,2.105,2.744,4.61,3.498
	c1.744,0.13,4.207,0.333,5.356,2.233c1.147-1.901,3.611-2.104,5.356-2.233c2.504-0.754,3.627-1.293,4.608-3.498
	c0.08-0.178,0.254-0.293,0.45-0.295c0.065,0.005,0.136,0.013,0.198,0.039c0.347,0.076,2.239,0.313,2.457,0.314
	c1.357-0.059,2.647-0.837,3.526-2.135c0.994-1.467,1.286-3.31,0.761-4.808c-1.037-2.962-3.861-4.02-6.852-5.139
	c-2.078-0.778-4.226-1.583-5.75-3.087c-3.268-3.228-2.495-7.947-0.041-10.941c0.886-1.082,2.48-1.909,3.967-2.055
	c1.094-0.11,2.056,0.147,2.777,0.741c0.518,0.425,0.79,0.915,0.808,1.456c0.037,1.078-0.956,2.015-1.681,2.699
	c-0.162,0.153-0.332,0.306-0.504,0.462c-1.119,1.009-2.175,1.961-1.765,3.357c0.253,0.86,1.428,2.063,2.386,2.187
	c0.409,0.054,0.714-0.103,0.952-0.494c0.09-0.149,0.251-0.24,0.425-0.24c0.145,0.009,0.335,0.089,0.427,0.238
	c0.91,1.48,1.392,1.698,3.24,2.058l0.526,0.098c1.364,0.247,3.145,0.57,4.097,1.798c0.951-1.228,2.732-1.551,4.096-1.798
	l0.526-0.098c1.848-0.36,2.33-0.578,3.24-2.058c0.091-0.148,0.251-0.238,0.425-0.238c0,0,0.001,0,0.001,0
	c0.174,0,0.335,0.091,0.425,0.24c0.237,0.391,0.542,0.548,0.952,0.494c0.958-0.125,2.131-1.327,2.385-2.187
	c0.41-1.396-0.646-2.348-1.765-3.357c-0.172-0.156-0.343-0.309-0.504-0.462c-0.725-0.684-1.718-1.622-1.681-2.699
	c0.019-0.54,0.29-1.03,0.808-1.455c0.72-0.593,1.68-0.852,2.776-0.741c1.487,0.146,3.082,0.973,3.968,2.055
	c2.454,2.994,3.227,7.713-0.041,10.941c-1.524,1.504-3.672,2.309-5.75,3.087c-2.99,1.119-5.815,2.177-6.853,5.14
	c-0.524,1.498-0.232,3.34,0.762,4.808c0.88,1.298,2.169,2.077,3.537,2.136c0.208-0.002,2.1-0.239,2.445-0.315
	c0.062-0.026,0.126-0.035,0.198-0.038c0.195,0.002,0.37,0.117,0.45,0.295c0.981,2.205,2.105,2.744,4.609,3.498
	c1.745,0.13,4.208,0.333,5.356,2.233c1.148-1.901,3.611-2.104,5.356-2.233c2.504-0.754,3.628-1.293,4.609-3.498
	c0.008-0.018,0.017-0.035,0.027-0.051c0-0.001,0.001-0.002,0.001-0.002c0.126-0.212,0.394-0.301,0.625-0.203
	c0.36,0.078,2.233,0.312,2.45,0.313c1.358-0.059,2.647-0.837,3.527-2.136c0.994-1.467,1.286-3.309,0.761-4.807
	c-1.038-2.962-3.862-4.021-6.852-5.14c-2.078-0.778-4.226-1.583-5.75-3.087c-3.268-3.228-2.495-7.947-0.042-10.941
	c0.887-1.083,2.482-1.909,3.969-2.055c1.092-0.111,2.055,0.148,2.776,0.741c0.517,0.425,0.79,0.915,0.808,1.456
	c0.037,1.077-0.956,2.015-1.68,2.698c-0.162,0.153-0.332,0.306-0.504,0.461c-1.119,1.009-2.176,1.962-1.766,3.358
	c0.253,0.86,1.428,2.063,2.385,2.187c0.412,0.053,0.715-0.103,0.952-0.494c0.09-0.149,0.252-0.24,0.426-0.24
	c0.135,0.009,0.335,0.089,0.427,0.238c0.91,1.48,1.392,1.698,3.24,2.058l0.526,0.098c1.363,0.247,3.145,0.57,4.097,1.798
	c0.951-1.228,2.732-1.551,4.096-1.798l0.526-0.098c1.848-0.36,2.33-0.577,3.241-2.058c0.091-0.148,0.251-0.237,0.425-0.237
	c0,0,0.001,0,0.001,0c0.174,0,0.335,0.091,0.426,0.24c0.236,0.391,0.541,0.548,0.952,0.494c0.958-0.124,2.131-1.326,2.385-2.187
	c0.41-1.395-0.646-2.348-1.765-3.356c-0.172-0.156-0.343-0.31-0.504-0.463c-0.725-0.684-1.718-1.622-1.681-2.699
	c0.019-0.54,0.29-1.03,0.808-1.455c0.72-0.592,1.677-0.85,2.775-0.741c1.487,0.146,3.083,0.972,3.97,2.055
	c2.453,2.994,3.226,7.713-0.042,10.941c-1.524,1.504-3.672,2.309-5.75,3.087c-2.99,1.12-5.815,2.177-6.853,5.14
	c-0.524,1.498-0.232,3.34,0.762,4.808c0.88,1.298,2.169,2.077,3.537,2.136c0.206-0.002,2.08-0.236,2.439-0.314
	c0.247-0.107,0.537,0.003,0.65,0.25c0.001,0.003,0.003,0.006,0.004,0.009c0.981,2.202,2.105,2.741,4.608,3.495
	c1.745,0.13,4.208,0.333,5.356,2.233c1.149-1.901,3.612-2.104,5.356-2.233c2.501-0.754,3.626-1.292,4.607-3.492
	c0-0.001,0.001-0.003,0.002-0.005h0c0,0,0-0.001,0-0.001c0.079-0.178,0.255-0.293,0.449-0.295c0.072,0.002,0.137,0.012,0.199,0.038
	c0.346,0.076,2.238,0.313,2.456,0.315c1.358-0.059,2.647-0.837,3.527-2.136c0.994-1.467,1.286-3.309,0.761-4.807
	c-1.037-2.962-3.861-4.02-6.852-5.139c-2.078-0.778-4.227-1.583-5.75-3.087c-3.268-3.228-2.495-7.947-0.042-10.941
	c0.887-1.083,2.483-1.909,3.97-2.055c1.094-0.111,2.054,0.148,2.774,0.741c0.517,0.425,0.789,0.915,0.808,1.456
	c0.037,1.077-0.956,2.015-1.68,2.698c-0.162,0.153-0.332,0.306-0.504,0.461c-1.119,1.009-2.176,1.962-1.766,3.358
	c0.253,0.86,1.426,2.063,2.384,2.187c0.411,0.054,0.715-0.104,0.952-0.494c0.09-0.149,0.252-0.24,0.426-0.24c0,0,0.001,0,0.001,0
	c0.173,0,0.334,0.089,0.425,0.237c0.911,1.481,1.393,1.698,3.24,2.058l0.527,0.098c1.363,0.247,3.145,0.57,4.097,1.798
	c0.951-1.228,2.732-1.551,4.096-1.798l0.526-0.098c1.848-0.36,2.33-0.577,3.241-2.058c0.09-0.148,0.251-0.237,0.425-0.237
	c0,0,0.001,0,0.002,0c0.174,0,0.335,0.091,0.425,0.24c0.236,0.391,0.535,0.548,0.952,0.494c0.958-0.124,2.131-1.326,2.385-2.187
	c0.41-1.395-0.646-2.348-1.765-3.356c-0.173-0.156-0.343-0.31-0.505-0.463c-0.725-0.684-1.717-1.621-1.68-2.699
	c0.019-0.54,0.29-1.03,0.806-1.455c0.721-0.593,1.681-0.852,2.778-0.741c1.487,0.146,3.082,0.973,3.968,2.055
	c2.453,2.994,3.226,7.713-0.041,10.94c-1.524,1.505-3.673,2.309-5.751,3.087c-2.99,1.12-5.815,2.177-6.853,5.14
	c-0.524,1.498-0.232,3.34,0.763,4.807c0.879,1.298,2.168,2.077,3.537,2.136c0.207-0.002,2.099-0.239,2.446-0.315
	c0.062-0.026,0.124-0.039,0.198-0.039c0.195,0.002,0.37,0.117,0.45,0.295c0,0,0,0,0,0.001h0c0,0.001,0.001,0.003,0.002,0.005
	c0.979,2.199,2.104,2.738,4.606,3.492c1.745,0.13,4.208,0.333,5.355,2.233c1.149-1.901,3.612-2.104,5.356-2.233
	c2.504-0.754,3.628-1.293,4.609-3.498c0.079-0.178,0.255-0.293,0.449-0.295c0.069,0.002,0.137,0.012,0.198,0.039
	c0.346,0.076,2.238,0.313,2.456,0.314c1.357-0.059,2.647-0.837,3.527-2.136c0.994-1.467,1.286-3.31,0.762-4.808
	c-1.038-2.962-3.862-4.02-6.853-5.139c-2.078-0.778-4.227-1.583-5.75-3.087c-3.268-3.228-2.494-7.947-0.042-10.941
	c0.887-1.083,2.482-1.909,3.97-2.055c1.094-0.111,2.054,0.148,2.776,0.741c0.517,0.425,0.789,0.915,0.807,1.455
	c0.037,1.077-0.956,2.015-1.68,2.699c-0.162,0.153-0.332,0.307-0.505,0.463c-1.118,1.009-2.175,1.961-1.765,3.356
	c0.253,0.861,1.427,2.063,2.385,2.187c0.41,0.054,0.715-0.103,0.952-0.494c0.09-0.149,0.251-0.24,0.426-0.24c0,0,0.001,0,0.001,0
	c0.173,0,0.334,0.089,0.425,0.237c0.911,1.481,1.393,1.698,3.24,2.058l0.527,0.098c1.364,0.247,3.146,0.57,4.097,1.797
	c0.952-1.228,2.733-1.551,4.097-1.798l0.526-0.098c1.847-0.36,2.329-0.577,3.24-2.058c0.09-0.148,0.251-0.237,0.425-0.237
	c0,0,0.001,0,0.002,0c0.174,0,0.335,0.091,0.425,0.24c0.236,0.391,0.541,0.548,0.952,0.494c0.958-0.124,2.131-1.326,2.385-2.187
	c0.411-1.396-0.647-2.349-1.766-3.358c-0.171-0.155-0.342-0.309-0.503-0.461c-0.725-0.684-1.717-1.622-1.68-2.699
	c0.019-0.541,0.291-1.03,0.808-1.456c0.721-0.593,1.679-0.852,2.776-0.741c1.487,0.146,3.082,0.973,3.968,2.055
	c2.453,2.993,3.227,7.712-0.041,10.94c-1.524,1.505-3.672,2.309-5.75,3.087c-2.99,1.12-5.815,2.177-6.853,5.14
	c-0.524,1.498-0.232,3.34,0.763,4.807c0.879,1.298,2.168,2.077,3.536,2.136c0.208-0.002,2.1-0.239,2.446-0.315
	c0.061-0.026,0.127-0.034,0.198-0.039c0.195,0.002,0.37,0.117,0.45,0.295c0.979,2.204,2.104,2.743,4.609,3.498
	c1.744,0.13,4.207,0.333,5.355,2.234c1.148-1.901,3.612-2.104,5.357-2.234c2.504-0.754,3.628-1.293,4.606-3.498
	c0.079-0.178,0.255-0.293,0.45-0.295c0.081,0.002,0.136,0.013,0.198,0.039c0.347,0.076,2.239,0.313,2.456,0.314
	c1.358-0.059,2.647-0.837,3.527-2.136c0.994-1.467,1.287-3.31,0.762-4.808c-1.037-2.962-3.861-4.02-6.853-5.139
	c-2.077-0.778-4.227-1.583-5.751-3.087c-3.267-3.228-2.493-7.947-0.039-10.941c0.885-1.082,2.479-1.908,3.965-2.055
	c1.092-0.11,2.057,0.147,2.779,0.741c0.518,0.425,0.789,0.915,0.808,1.456c0.036,1.078-0.956,2.015-1.682,2.699
	c-0.161,0.153-0.331,0.306-0.504,0.462c-1.118,1.009-2.176,1.961-1.765,3.356c0.253,0.86,1.427,2.063,2.384,2.187
	c0.415,0.054,0.716-0.104,0.953-0.494c0.09-0.149,0.251-0.24,0.425-0.24c0.001,0,0.002,0,0.002,0c0.174,0,0.334,0.09,0.425,0.238
	c0.911,1.48,1.393,1.698,3.24,2.058l0.526,0.098c1.364,0.247,3.146,0.57,4.099,1.798c0.95-1.228,2.731-1.551,4.095-1.798
	l0.526-0.098c1.848-0.36,2.331-0.577,3.241-2.058c0.091-0.148,0.252-0.237,0.426-0.237c0.001,0,0.001,0,0.002,0
	c0.173,0,0.334,0.091,0.425,0.24c0.236,0.391,0.542,0.547,0.95,0.494c0.959-0.124,2.132-1.326,2.386-2.187
	c0.41-1.396-0.646-2.35-1.767-3.359c-0.171-0.155-0.341-0.308-0.502-0.46c-0.726-0.684-1.717-1.622-1.681-2.699
	c0.019-0.54,0.29-1.03,0.808-1.455c0.72-0.593,1.68-0.849,2.776-0.741c1.487,0.146,3.081,0.973,3.968,2.055
	c2.453,2.994,3.227,7.713-0.041,10.941c-1.524,1.504-3.673,2.309-5.75,3.087c-2.99,1.119-5.815,2.177-6.853,5.14
	c-0.523,1.498-0.232,3.34,0.763,4.807c0.879,1.298,2.168,2.077,3.536,2.136c0.208-0.002,2.1-0.239,2.445-0.315
	c0.063-0.026,0.133-0.039,0.199-0.039c0.195,0.002,0.37,0.117,0.449,0.295c0.979,2.204,2.104,2.743,4.608,3.498
	c1.744,0.13,4.208,0.333,5.355,2.233c1.149-1.9,3.612-2.104,5.356-2.233c2.504-0.755,3.628-1.294,4.609-3.498
	c0.079-0.178,0.254-0.293,0.449-0.295c0.068,0.002,0.137,0.013,0.199,0.039c0.346,0.076,2.238,0.313,2.456,0.314
	c1.357-0.059,2.646-0.837,3.524-2.135c0.995-1.467,1.287-3.31,0.763-4.808c-1.037-2.962-3.862-4.02-6.853-5.139
	c-2.077-0.778-4.227-1.583-5.75-3.087c-3.268-3.228-2.494-7.947-0.042-10.941c0.889-1.083,2.484-1.91,3.972-2.056
	c1.091-0.104,2.053,0.149,2.773,0.741c0.517,0.425,0.789,0.915,0.808,1.455c0.037,1.077-0.955,2.015-1.679,2.699
	c-0.162,0.153-0.332,0.306-0.505,0.461c-1.119,1.009-2.176,1.962-1.767,3.358c0.254,0.86,1.429,2.063,2.387,2.187
	c0.409,0.052,0.714-0.104,0.951-0.494c0.091-0.15,0.251-0.25,0.427-0.24c0.174,0,0.335,0.089,0.426,0.237
	c0.91,1.481,1.393,1.698,3.239,2.058l0.527,0.098c1.363,0.247,3.145,0.57,4.096,1.797c0.953-1.228,2.734-1.551,4.098-1.798
	l0.526-0.098c1.849-0.36,2.331-0.578,3.241-2.058c0.091-0.148,0.251-0.238,0.425-0.238c0.15-0.035,0.335,0.09,0.427,0.24
	c0.237,0.391,0.534,0.548,0.952,0.494c0.957-0.124,2.131-1.326,2.385-2.187c0.41-1.395-0.646-2.348-1.765-3.356
	c-0.173-0.156-0.343-0.31-0.505-0.463c-0.725-0.683-1.718-1.62-1.681-2.698c0.019-0.541,0.29-1.03,0.808-1.456
	c0.722-0.594,1.684-0.848,2.778-0.741c1.486,0.147,3.081,0.973,3.966,2.056c2.453,2.993,3.228,7.712-0.041,10.94
	c-1.523,1.504-3.672,2.309-5.749,3.087c-2.991,1.12-5.815,2.177-6.854,5.14c-0.524,1.498-0.232,3.339,0.762,4.807
	c0.88,1.299,2.169,2.078,3.538,2.137c0.206-0.002,2.079-0.236,2.439-0.314c0.231-0.097,0.498-0.01,0.625,0.202
	c0.002,0.001,0.002,0.001,0.002,0.002c0.01,0.016,0.019,0.033,0.026,0.051c0.98,2.205,2.104,2.744,4.608,3.498
	c1.745,0.13,4.209,0.333,5.356,2.233c1.148-1.901,3.611-2.104,5.355-2.233c2.504-0.754,3.629-1.293,4.609-3.498
	c0.079-0.178,0.255-0.293,0.449-0.295c0.072,0.002,0.138,0.013,0.198,0.038c0.346,0.076,2.238,0.313,2.456,0.315
	c1.358-0.059,2.647-0.837,3.527-2.136c0.994-1.467,1.287-3.31,0.762-4.808c-1.038-2.962-3.862-4.02-6.853-5.139
	c-2.078-0.778-4.227-1.583-5.751-3.087c-3.267-3.228-2.494-7.947-0.041-10.941c0.888-1.083,2.482-1.909,3.971-2.055
	c1.091-0.108,2.054,0.148,2.774,0.741c0.518,0.425,0.789,0.915,0.808,1.455c0.037,1.077-0.955,2.015-1.68,2.699
	c-0.163,0.153-0.332,0.307-0.505,0.463c-1.118,1.009-2.176,1.961-1.765,3.356c0.253,0.861,1.427,2.063,2.385,2.187
	c0.416,0.052,0.715-0.104,0.951-0.494c0.091-0.149,0.252-0.24,0.426-0.24c0.001,0,0.001,0,0.002,0c0.173,0,0.334,0.089,0.425,0.237
	c0.911,1.481,1.394,1.698,3.24,2.058l0.526,0.098c1.364,0.247,3.146,0.57,4.098,1.797c0.951-1.228,2.731-1.55,4.096-1.797
	l0.526-0.098c1.848-0.36,2.331-0.578,3.241-2.058c0.091-0.148,0.252-0.237,0.425-0.237c0.001,0,0.001,0,0.002,0
	c0.174,0,0.336,0.091,0.426,0.241c0.235,0.391,0.541,0.548,0.95,0.494c0.959-0.124,2.133-1.326,2.386-2.187
	c0.411-1.395-0.646-2.348-1.765-3.356c-0.172-0.156-0.343-0.31-0.505-0.463c-0.725-0.684-1.717-1.622-1.68-2.699
	c0.019-0.54,0.29-1.03,0.808-1.455c0.72-0.593,1.678-0.849,2.775-0.741c1.488,0.146,3.083,0.973,3.97,2.055
	c2.452,2.994,3.226,7.713-0.041,10.94c-1.524,1.505-3.673,2.309-5.751,3.087c-2.989,1.12-5.814,2.177-6.853,5.14
	c-0.524,1.498-0.232,3.34,0.763,4.808c0.879,1.298,2.168,2.077,3.536,2.136c0.208-0.002,2.1-0.239,2.445-0.315
	c0.062-0.026,0.125-0.039,0.198-0.039c0.194,0.002,0.369,0.117,0.449,0.295c0,0,0,0.001,0,0.001l0,0
	c0.001,0,0.001,0.001,0.001,0.002c0.982,2.202,2.107,2.74,4.609,3.495c1.744,0.13,4.206,0.332,5.354,2.233
	c1.147-1.901,3.613-2.104,5.357-2.233c2.503-0.754,3.627-1.293,4.606-3.496c0.002-0.003,0.004-0.006,0.004-0.008
	c0.113-0.246,0.405-0.354,0.65-0.25c0.359,0.077,2.234,0.312,2.451,0.313c1.357-0.059,2.647-0.838,3.528-2.137
	c0.993-1.467,1.285-3.309,0.761-4.806c-1.038-2.962-3.862-4.02-6.853-5.14c-2.078-0.778-4.227-1.583-5.75-3.087
	c-3.269-3.228-2.495-7.947-0.041-10.941c0.885-1.082,2.479-1.908,3.966-2.055c1.091-0.11,2.056,0.147,2.778,0.741
	c0.518,0.425,0.789,0.915,0.808,1.456c0.037,1.078-0.956,2.015-1.681,2.699c-0.161,0.153-0.332,0.306-0.505,0.462
	c-1.118,1.009-2.175,1.961-1.765,3.356c0.254,0.86,1.427,2.063,2.385,2.187c0.407,0.054,0.715-0.104,0.952-0.494
	c0.092-0.15,0.285-0.25,0.427-0.24c0.174,0,0.335,0.09,0.425,0.238c0.911,1.48,1.393,1.698,3.24,2.058l0.527,0.098
	c1.363,0.247,3.146,0.57,4.098,1.798c0.951-1.228,2.733-1.551,4.097-1.798l0.526-0.098c1.847-0.36,2.329-0.577,3.24-2.058
	c0.09-0.148,0.251-0.237,0.425-0.237c0.185-0.035,0.336,0.09,0.427,0.24c0.237,0.391,0.541,0.548,0.951,0.494
	c0.958-0.124,2.133-1.326,2.387-2.188c0.41-1.395-0.646-2.348-1.766-3.357c-0.173-0.156-0.344-0.309-0.506-0.461
	c-0.724-0.685-1.716-1.623-1.679-2.7c0.019-0.54,0.291-1.03,0.808-1.455c0.721-0.592,1.686-0.849,2.775-0.741
	c1.488,0.146,3.084,0.973,3.97,2.055c2.452,2.993,3.226,7.712-0.041,10.94c-1.524,1.505-3.673,2.309-5.751,3.087
	c-2.99,1.119-5.814,2.177-6.853,5.14c-0.524,1.498-0.231,3.34,0.763,4.808c0.88,1.298,2.168,2.077,3.535,2.136
	c0.208-0.002,2.1-0.239,2.446-0.315c0.062-0.026,0.128-0.039,0.198-0.039c0.195,0.002,0.371,0.117,0.45,0.295
	c0.979,2.204,2.104,2.743,4.608,3.498c1.744,0.13,4.208,0.333,5.356,2.233c1.147-1.901,3.611-2.104,5.356-2.233
	c2.502-0.754,3.627-1.293,4.605-3.493c0-0.001,0.001-0.003,0.002-0.004l0,0c0,0,0,0,0,0c0.079-0.179,0.255-0.293,0.449-0.296
	c0.081,0.002,0.137,0.013,0.199,0.039c0.346,0.076,2.238,0.313,2.456,0.314c1.357-0.059,2.647-0.838,3.526-2.137
	c0.995-1.467,1.286-3.309,0.762-4.806c-1.037-2.962-3.862-4.021-6.853-5.14c-2.077-0.778-4.226-1.583-5.75-3.087
	c-3.268-3.228-2.494-7.947-0.041-10.941c0.887-1.082,2.48-1.908,3.968-2.055c1.1-0.109,2.057,0.148,2.778,0.741
	c0.517,0.425,0.788,0.916,0.806,1.456c0.037,1.079-0.955,2.015-1.681,2.699c-0.161,0.152-0.331,0.305-0.502,0.46
	c-1.119,1.009-2.177,1.962-1.766,3.359c0.253,0.861,1.426,2.063,2.385,2.187c0.417,0.055,0.715-0.104,0.95-0.494
	c0.091-0.15,0.216-0.25,0.428-0.24c0.173,0,0.334,0.089,0.425,0.237c0.91,1.481,1.394,1.698,3.241,2.058l0.526,0.098
	c1.364,0.247,3.146,0.57,4.096,1.797c0.953-1.228,2.734-1.551,4.099-1.798l0.525-0.098c1.848-0.36,2.329-0.577,3.24-2.058
	c0.091-0.148,0.252-0.238,0.425-0.238c0.001,0,0.001,0,0.002,0c0.174,0,0.335,0.091,0.426,0.24c0.235,0.391,0.541,0.548,0.951,0.494
	c0.959-0.125,2.132-1.327,2.385-2.187c0.411-1.396-0.646-2.348-1.765-3.357c-0.172-0.156-0.342-0.309-0.504-0.462
	c-0.725-0.683-1.717-1.62-1.68-2.698c0.019-0.541,0.289-1.03,0.807-1.456c0.722-0.593,1.682-0.849,2.777-0.741
	c1.487,0.146,3.081,0.973,3.968,2.055c2.453,2.994,3.227,7.713-0.041,10.941c-1.524,1.504-3.673,2.309-5.751,3.087
	c-2.99,1.119-5.814,2.177-6.852,5.139c-0.525,1.498-0.232,3.341,0.762,4.808c0.88,1.298,2.169,2.077,3.537,2.136
	c0.208-0.002,2.101-0.239,2.446-0.315c0.062-0.025,0.132-0.039,0.198-0.038c0.194,0.002,0.37,0.117,0.449,0.295
	c0.979,2.204,2.104,2.743,4.608,3.498c1.744,0.13,4.208,0.333,5.355,2.233c1.148-1.901,3.611-2.104,5.355-2.233
	c2.503-0.754,3.627-1.293,4.608-3.495c0-0.001,0-0.001,0.001-0.002l0,0c0,0,0-0.001,0-0.001c0.08-0.178,0.255-0.292,0.45-0.295
	c0.067,0.002,0.136,0.013,0.198,0.039c0.346,0.076,2.238,0.313,2.455,0.314c1.357-0.059,2.646-0.837,3.526-2.135
	c0.994-1.467,1.287-3.31,0.763-4.808c-1.038-2.962-3.862-4.02-6.853-5.139c-2.077-0.778-4.227-1.583-5.75-3.087
	c-3.268-3.228-2.494-7.947-0.042-10.941c0.888-1.083,2.484-1.91,3.971-2.056c1.093-0.104,2.054,0.149,2.774,0.741
	c0.517,0.425,0.789,0.915,0.808,1.455c0.037,1.077-0.955,2.015-1.68,2.699c-0.161,0.153-0.331,0.306-0.504,0.461
	c-1.119,1.009-2.176,1.962-1.767,3.358c0.254,0.86,1.429,2.063,2.387,2.187c0.408,0.052,0.714-0.104,0.951-0.494
	c0.091-0.149,0.251-0.24,0.425-0.24c0.001,0,0.001,0,0.001,0c0.175,0,0.336,0.089,0.426,0.237c0.911,1.481,1.394,1.698,3.24,2.058
	l0.526,0.098c1.364,0.247,3.145,0.57,4.097,1.797c0.952-1.228,2.734-1.551,4.097-1.798l0.527-0.098
	c1.848-0.36,2.33-0.578,3.24-2.058c0.091-0.148,0.252-0.237,0.426-0.237c0.001,0,0.001,0,0.001,0c0.174,0,0.335,0.091,0.426,0.24
	c0.236,0.391,0.544,0.548,0.952,0.494c0.958-0.125,2.131-1.327,2.384-2.187c0.41-1.396-0.646-2.348-1.765-3.357
	c-0.172-0.156-0.343-0.309-0.505-0.462c-0.725-0.683-1.717-1.62-1.68-2.698c0.019-0.541,0.29-1.03,0.808-1.456
	c0.721-0.592,1.677-0.849,2.775-0.741c1.487,0.146,3.083,0.973,3.969,2.055c2.453,2.994,3.228,7.713-0.041,10.941
	c-1.523,1.504-3.672,2.309-5.75,3.087c-2.99,1.12-5.815,2.177-6.853,5.14c-0.524,1.498-0.232,3.339,0.762,4.807
	c0.879,1.299,2.168,2.078,3.537,2.137c0.208-0.002,2.1-0.239,2.445-0.315c0.062-0.025,0.137-0.039,0.198-0.038
	c0.195,0.002,0.37,0.117,0.449,0.295c0.981,2.205,2.105,2.744,4.609,3.498c1.744,0.13,4.207,0.333,5.356,2.234
	c1.148-1.901,3.611-2.104,5.355-2.234c2.504-0.754,3.628-1.293,4.609-3.498c0.008-0.018,0.017-0.035,0.026-0.051
	c0-0.001,0-0.001,0.002-0.002c0.127-0.213,0.394-0.301,0.625-0.202c0.359,0.078,2.233,0.312,2.45,0.313
	c1.358-0.059,2.647-0.837,3.526-2.136c0.995-1.467,1.287-3.31,0.763-4.808c-1.038-2.962-3.863-4.02-6.853-5.139
	c-2.078-0.778-4.227-1.583-5.751-3.087c-3.269-3.228-2.494-7.947-0.041-10.941c0.887-1.083,2.481-1.909,3.969-2.055
	c1.1-0.109,2.056,0.148,2.775,0.741c0.519,0.425,0.79,0.915,0.809,1.455c0.037,1.077-0.955,2.015-1.68,2.699
	c-0.163,0.154-0.334,0.307-0.506,0.463c-1.119,1.008-2.175,1.961-1.765,3.356c0.254,0.86,1.427,2.063,2.386,2.187
	c0.406,0.054,0.715-0.104,0.951-0.494c0.091-0.15,0.25-0.25,0.427-0.24c0.174,0,0.335,0.089,0.426,0.237
	c0.911,1.481,1.394,1.698,3.24,2.058l0.526,0.098c1.363,0.247,3.145,0.57,4.097,1.798c0.952-1.228,2.732-1.55,4.097-1.797
	l0.526-0.098c1.848-0.36,2.33-0.578,3.241-2.058c0.091-0.148,0.251-0.237,0.425-0.237c0.147-0.035,0.337,0.09,0.427,0.241
	c0.236,0.391,0.541,0.548,0.951,0.494c0.959-0.124,2.133-1.326,2.386-2.187c0.411-1.396-0.647-2.349-1.766-3.357
	c-0.173-0.156-0.343-0.309-0.505-0.461c-0.725-0.685-1.716-1.623-1.68-2.7c0.019-0.54,0.291-1.03,0.808-1.455
	c0.722-0.592,1.687-0.849,2.776-0.741c1.487,0.146,3.083,0.973,3.969,2.055c2.453,2.994,3.226,7.713-0.04,10.94
	c-1.524,1.505-3.674,2.309-5.751,3.087c-2.991,1.12-5.814,2.177-6.853,5.14c-0.525,1.498-0.232,3.34,0.762,4.808
	c0.88,1.298,2.168,2.077,3.536,2.136c0.207-0.002,2.099-0.239,2.445-0.315c0.063-0.026,0.125-0.039,0.199-0.039
	c0.194,0.002,0.37,0.117,0.449,0.295c0.98,2.204,2.105,2.743,4.609,3.498c1.744,0.13,4.207,0.333,5.355,2.233
	c1.147-1.901,3.611-2.104,5.357-2.233c2.504-0.754,3.628-1.293,4.606-3.498c0.079-0.178,0.255-0.293,0.45-0.295
	c0.076,0.002,0.136,0.013,0.198,0.039c0.347,0.076,2.239,0.313,2.456,0.314c1.357-0.059,2.647-0.837,3.527-2.136
	c0.994-1.467,1.286-3.309,0.762-4.807c-1.037-2.962-3.861-4.02-6.853-5.139c-2.077-0.778-4.227-1.583-5.751-3.087
	c-3.267-3.228-2.493-7.947-0.039-10.941c0.885-1.082,2.479-1.908,3.965-2.055c1.093-0.11,2.056,0.147,2.779,0.741
	c0.517,0.425,0.789,0.915,0.808,1.455c0.036,1.078-0.956,2.015-1.681,2.699c-0.162,0.153-0.331,0.306-0.504,0.461
	c-1.119,1.009-2.176,1.962-1.766,3.358c0.253,0.86,1.427,2.063,2.385,2.187c0.406,0.054,0.715-0.104,0.952-0.494
	c0.09-0.149,0.251-0.24,0.425-0.24h0.002c0.174,0,0.334,0.09,0.425,0.238c0.911,1.48,1.393,1.698,3.24,2.058l0.526,0.098
	c1.646,0.298,3.899,0.707,4.571,2.683l-0.946,0.321c-0.481-1.419-2.246-1.739-3.803-2.021l-0.54-0.1
	c-1.757-0.343-2.579-0.616-3.527-1.951c-0.401,0.332-0.898,0.471-1.455,0.4c-1.405-0.183-2.854-1.679-3.213-2.896
	c-0.588-1.999,0.878-3.32,2.056-4.381c0.166-0.15,0.33-0.298,0.485-0.445c0.554-0.522,1.39-1.312,1.368-1.939
	c-0.008-0.245-0.153-0.48-0.442-0.718c-0.648-0.532-1.475-0.577-2.047-0.518c-1.221,0.121-2.574,0.818-3.292,1.694
	c-2.166,2.645-2.873,6.791-0.03,9.598c1.372,1.355,3.328,2.087,5.399,2.863c3.074,1.151,6.253,2.341,7.444,5.745
	c0.627,1.79,0.291,3.973-0.878,5.697c-1.059,1.563-2.633,2.501-4.321,2.573c0.004,0.002-1.471-0.055-2.402-0.269
	c-1.187,2.399-2.738,2.973-5.106,3.684c-0.034,0.01-0.07,0.017-0.106,0.02c-2.522,0.188-4.492,0.505-4.999,2.693
	C591.591,35.542,591.39,35.703,591.157,35.703z"/>
<path class="st0" d="M591.157,756.297c-0.232,0-0.434,0.16-0.486,0.387c-0.508,2.188-2.477,2.506-4.998,2.693
	c-0.036,0.003-0.072,0.01-0.106,0.02c-2.368,0.712-3.92,1.286-5.108,3.685c-0.909-0.209-2.362-0.27-2.401-0.27l0,0
	c-1.688,0.072-3.262,1.011-4.32,2.572c-1.169,1.725-1.505,3.908-0.878,5.698c1.192,3.404,4.371,4.594,7.444,5.745
	c2.071,0.775,4.027,1.508,5.399,2.862c2.842,2.808,2.136,6.953-0.029,9.598c-0.719,0.877-2.073,1.574-3.295,1.694
	c-0.576,0.057-1.398,0.012-2.045-0.519c-0.289-0.238-0.435-0.474-0.443-0.718c-0.021-0.626,0.814-1.416,1.368-1.939
	c0.155-0.147,0.319-0.296,0.486-0.445c1.178-1.062,2.644-2.383,2.056-4.381c-0.358-1.217-1.809-2.714-3.215-2.896
	c-0.55-0.072-1.053,0.067-1.453,0.399c-0.948-1.334-1.771-1.607-3.528-1.95l-0.54-0.101c-1.557-0.282-3.32-0.603-3.801-2.021
	c-0.139-0.404-0.808-0.405-0.946,0c-0.481,1.419-2.245,1.738-3.803,2.021l-0.539,0.101c-1.756,0.343-2.579,0.616-3.527,1.95
	c-0.402-0.331-0.898-0.471-1.455-0.399c-1.405,0.183-2.855,1.679-3.213,2.896c-0.589,1.997,0.876,3.317,2.053,4.379
	c0.167,0.15,0.332,0.299,0.488,0.447c0.554,0.522,1.391,1.313,1.368,1.938c-0.008,0.245-0.153,0.48-0.444,0.719
	c-0.646,0.53-1.467,0.575-2.043,0.519c-1.222-0.12-2.576-0.817-3.295-1.694c-2.167-2.645-2.873-6.79-0.029-9.598
	c1.372-1.354,3.328-2.087,5.398-2.862c3.073-1.151,6.253-2.341,7.445-5.744c0.627-1.791,0.29-3.975-0.878-5.698
	c-1.059-1.563-2.634-2.501-4.321-2.573c0.002,0.006-1.469,0.056-2.401,0.27c-1.189-2.398-2.74-2.973-5.108-3.685
	c-0.034-0.01-0.07-0.017-0.106-0.02c-2.521-0.188-4.49-0.505-4.998-2.693c-0.105-0.453-0.868-0.453-0.974,0
	c-0.507,2.188-2.477,2.506-4.998,2.693c-0.036,0.003-0.072,0.01-0.106,0.02c-2.368,0.712-3.919,1.286-5.107,3.685
	c-0.933-0.214-2.407-0.264-2.401-0.27c-1.688,0.072-3.263,1.011-4.322,2.574c-1.168,1.724-1.503,3.907-0.876,5.697
	c1.191,3.403,4.37,4.593,7.444,5.744c2.069,0.775,4.025,1.507,5.397,2.862c2.844,2.808,2.138,6.953-0.029,9.598
	c-0.719,0.877-2.072,1.574-3.295,1.694c-0.574,0.057-1.396,0.012-2.043-0.519c-0.291-0.238-0.436-0.474-0.444-0.719
	c-0.021-0.627,0.815-1.416,1.368-1.938c0.157-0.147,0.321-0.296,0.488-0.446c1.177-1.062,2.641-2.382,2.053-4.38
	c-0.356-1.216-1.807-2.713-3.213-2.896c-0.551-0.072-1.052,0.067-1.453,0.399c-0.949-1.334-1.772-1.607-3.529-1.95l-0.539-0.101
	c-1.557-0.282-3.321-0.602-3.803-2.021c-0.139-0.405-0.808-0.404-0.945,0c-0.481,1.418-2.245,1.738-3.801,2.021l-0.541,0.101
	c-1.756,0.343-2.578,0.616-3.527,1.95c-0.4-0.331-0.898-0.47-1.453-0.399c-1.405,0.182-2.856,1.678-3.215,2.895
	c-0.588,1.999,0.878,3.32,2.055,4.382c0.167,0.15,0.331,0.298,0.486,0.445c0.555,0.523,1.39,1.313,1.368,1.939
	c-0.009,0.244-0.153,0.479-0.443,0.718c-0.646,0.53-1.468,0.577-2.042,0.519c-1.222-0.12-2.578-0.816-3.297-1.694
	c-2.166-2.645-2.872-6.79-0.029-9.598c1.372-1.354,3.328-2.087,5.399-2.862c3.073-1.151,6.252-2.341,7.443-5.745
	c0.627-1.79,0.291-3.974-0.877-5.697c-1.06-1.563-2.634-2.501-4.321-2.573c0.004-0.002-1.47,0.056-2.402,0.27
	c-1.188-2.399-2.739-2.973-5.108-3.685c-0.034-0.01-0.07-0.017-0.106-0.02c-2.52-0.188-4.489-0.505-4.997-2.693
	c-0.053-0.226-0.254-0.387-0.486-0.387l0,0c-0.231,0-0.434,0.161-0.486,0.387c-0.507,2.188-2.476,2.506-4.998,2.693
	c-0.036,0.003-0.072,0.01-0.106,0.02c-2.369,0.712-3.921,1.286-5.107,3.685c-0.908-0.209-2.362-0.27-2.401-0.27l0,0
	c-1.688,0.072-3.263,1.011-4.321,2.573c-1.168,1.724-1.505,3.907-0.878,5.697c1.191,3.404,4.37,4.594,7.443,5.745
	c2.071,0.775,4.027,1.508,5.399,2.862c2.843,2.808,2.137,6.953-0.029,9.598c-0.719,0.877-2.072,1.574-3.294,1.694
	c-0.578,0.059-1.398,0.013-2.045-0.519c-0.289-0.238-0.435-0.474-0.443-0.719c-0.021-0.627,0.815-1.416,1.368-1.938
	c0.157-0.147,0.32-0.296,0.487-0.446c1.177-1.062,2.642-2.382,2.054-4.38c-0.358-1.217-1.808-2.713-3.213-2.896
	c-0.557-0.072-1.053,0.067-1.455,0.399c-0.947-1.334-1.771-1.607-3.527-1.95l-0.539-0.101c-1.557-0.282-3.321-0.602-3.803-2.021
	c-0.069-0.203-0.26-0.339-0.474-0.339l0,0c-0.214,0-0.404,0.137-0.473,0.339c-0.48,1.419-2.244,1.738-3.801,2.021l-0.54,0.101
	c-1.757,0.343-2.58,0.616-3.528,1.95c-0.402-0.332-0.902-0.472-1.453-0.399c-1.406,0.182-2.856,1.679-3.214,2.896
	c-0.588,1.999,0.878,3.32,2.055,4.382c0.167,0.149,0.33,0.298,0.485,0.444c0.554,0.522,1.391,1.312,1.369,1.938
	c-0.009,0.245-0.153,0.48-0.442,0.72c-0.648,0.531-1.469,0.576-2.047,0.518c-1.221-0.121-2.575-0.817-3.293-1.694
	c-2.167-2.645-2.872-6.79-0.029-9.598c1.372-1.354,3.328-2.087,5.399-2.862c3.073-1.151,6.252-2.341,7.443-5.745
	c0.627-1.789,0.291-3.972-0.877-5.696c-1.059-1.563-2.634-2.502-4.321-2.574c-0.016-0.002-1.472,0.056-2.402,0.27
	c-1.187-2.399-2.738-2.973-5.106-3.685c-0.034-0.01-0.07-0.017-0.106-0.02c-2.522-0.188-4.492-0.505-4.999-2.693
	c-0.105-0.452-0.868-0.453-0.974,0c-0.507,2.188-2.477,2.506-4.998,2.693c-0.036,0.003-0.071,0.01-0.105,0.02
	c-2.37,0.712-3.921,1.286-5.108,3.685c-0.909-0.209-2.363-0.27-2.401-0.27l0,0c-1.688,0.072-3.262,1.011-4.321,2.572
	c-1.168,1.725-1.504,3.908-0.877,5.698c1.191,3.404,4.37,4.594,7.444,5.745c2.071,0.775,4.027,1.508,5.398,2.862
	c2.843,2.809,2.137,6.954-0.029,9.598c-0.718,0.877-2.072,1.574-3.294,1.694c-0.574,0.057-1.398,0.012-2.045-0.519
	c-0.29-0.238-0.435-0.474-0.443-0.718c-0.021-0.626,0.813-1.416,1.367-1.939c0.156-0.147,0.32-0.296,0.487-0.445
	c1.178-1.062,2.643-2.383,2.055-4.381c-0.358-1.218-1.81-2.714-3.215-2.896c-0.56-0.07-1.053,0.068-1.453,0.399
	c-0.949-1.334-1.771-1.607-3.528-1.95l-0.539-0.101c-1.556-0.282-3.319-0.602-3.802-2.021c-0.139-0.404-0.807-0.405-0.945,0
	c-0.481,1.419-2.247,1.738-3.804,2.021l-0.539,0.101c-1.758,0.343-2.58,0.616-3.529,1.95c-0.4-0.331-0.896-0.471-1.453-0.399
	c-1.405,0.183-2.855,1.679-3.213,2.896c-0.588,1.997,0.876,3.318,2.053,4.38c0.167,0.15,0.332,0.299,0.488,0.446
	c0.554,0.522,1.39,1.312,1.368,1.938c-0.009,0.245-0.152,0.48-0.443,0.719c-0.648,0.532-1.477,0.577-2.047,0.519
	c-1.221-0.121-2.574-0.818-3.291-1.694c-2.168-2.645-2.874-6.79-0.029-9.598c1.371-1.355,3.327-2.087,5.397-2.862
	c3.074-1.151,6.253-2.341,7.444-5.745c0.627-1.789,0.292-3.973-0.876-5.696c-1.06-1.563-2.635-2.502-4.322-2.574
	c0,0.006-1.469,0.056-2.402,0.27c-1.188-2.398-2.738-2.973-5.107-3.685c-0.034-0.01-0.069-0.017-0.105-0.02
	c-2.522-0.188-4.492-0.505-4.999-2.693c-0.105-0.452-0.868-0.453-0.974,0c-0.508,2.188-2.477,2.506-4.997,2.693
	c-0.036,0.003-0.072,0.01-0.106,0.02c-2.368,0.712-3.92,1.285-5.108,3.685c-0.908-0.209-2.362-0.27-2.401-0.27l0,0
	c-1.688,0.072-3.263,1.011-4.321,2.573c-1.168,1.724-1.505,3.907-0.878,5.697c1.192,3.404,4.371,4.594,7.444,5.745
	c2.071,0.775,4.027,1.508,5.399,2.862c2.842,2.808,2.137,6.953-0.029,9.598c-0.719,0.877-2.074,1.574-3.296,1.694
	c-0.573,0.057-1.397,0.012-2.043-0.519c-0.29-0.238-0.436-0.474-0.443-0.719c-0.022-0.626,0.814-1.416,1.368-1.938
	c0.156-0.147,0.32-0.296,0.487-0.446c1.177-1.062,2.642-2.383,2.054-4.38c-0.357-1.217-1.809-2.714-3.215-2.896
	c-0.55-0.072-1.052,0.067-1.453,0.399c-0.948-1.334-1.771-1.607-3.528-1.95l-0.54-0.101c-1.557-0.282-3.32-0.603-3.801-2.021
	c-0.139-0.404-0.808-0.404-0.946,0c-0.48,1.419-2.245,1.738-3.802,2.021l-0.54,0.101c-1.756,0.343-2.579,0.616-3.527,1.95
	c-0.402-0.331-0.898-0.471-1.454-0.399c-1.405,0.183-2.855,1.679-3.214,2.896c-0.588,1.997,0.877,3.318,2.054,4.38
	c0.167,0.15,0.331,0.299,0.487,0.446c0.554,0.522,1.391,1.313,1.368,1.938c-0.008,0.245-0.153,0.48-0.443,0.719
	c-0.646,0.531-1.47,0.575-2.043,0.519c-1.222-0.12-2.576-0.817-3.296-1.694c-2.166-2.645-2.872-6.79-0.029-9.598
	c1.372-1.354,3.328-2.087,5.399-2.862c3.073-1.151,6.252-2.341,7.444-5.744c0.627-1.791,0.29-3.975-0.878-5.698
	c-1.059-1.563-2.634-2.501-4.321-2.573c-0.015-0.002-1.471,0.056-2.402,0.27c-1.188-2.398-2.739-2.973-5.107-3.685
	c-0.034-0.01-0.07-0.017-0.106-0.02c-2.521-0.188-4.491-0.505-4.998-2.693c-0.053-0.226-0.255-0.387-0.486-0.387l0,0
	c-0.232,0-0.434,0.161-0.486,0.387c-0.508,2.188-2.477,2.506-4.998,2.693c-0.036,0.003-0.072,0.01-0.106,0.02
	c-2.369,0.712-3.92,1.286-5.108,3.685c-0.91-0.208-2.361-0.27-2.4-0.27l0,0c-1.689,0.072-3.264,1.011-4.323,2.574
	c-1.168,1.724-1.503,3.907-0.876,5.697c1.191,3.403,4.37,4.593,7.444,5.744c2.07,0.775,4.026,1.507,5.398,2.862
	c2.843,2.808,2.137,6.953-0.029,9.598c-0.718,0.877-2.071,1.573-3.293,1.694c-0.577,0.059-1.4,0.013-2.046-0.519
	c-0.29-0.238-0.435-0.474-0.443-0.719c-0.021-0.627,0.814-1.416,1.368-1.938c0.156-0.147,0.321-0.296,0.488-0.446
	c1.177-1.062,2.642-2.383,2.054-4.38c-0.358-1.217-1.81-2.713-3.214-2.896c-0.557-0.072-1.053,0.067-1.454,0.399
	c-0.948-1.334-1.771-1.607-3.528-1.95l-0.54-0.101c-1.557-0.282-3.32-0.602-3.803-2.021c-0.138-0.405-0.807-0.404-0.945,0
	c-0.48,1.418-2.245,1.738-3.801,2.021l-0.54,0.101c-1.756,0.343-2.579,0.616-3.528,1.95c-0.4-0.331-0.898-0.47-1.452-0.399
	c-1.406,0.182-2.857,1.678-3.216,2.895c-0.587,1.999,0.878,3.32,2.056,4.382c0.166,0.15,0.33,0.298,0.487,0.445
	c0.553,0.523,1.389,1.313,1.367,1.939c-0.009,0.244-0.154,0.479-0.444,0.718c-0.646,0.53-1.467,0.577-2.041,0.519
	c-1.223-0.12-2.578-0.816-3.298-1.694c-2.166-2.644-2.871-6.79-0.028-9.598c1.372-1.354,3.328-2.087,5.398-2.862
	c3.073-1.151,6.252-2.341,7.443-5.745c0.627-1.79,0.291-3.974-0.877-5.698c-1.059-1.562-2.633-2.5-4.319-2.572
	c-0.016-0.002-1.472,0.056-2.403,0.27c-1.188-2.398-2.739-2.973-5.107-3.685c-0.034-0.01-0.07-0.017-0.106-0.02
	c-2.521-0.188-4.491-0.505-4.998-2.693c-0.053-0.226-0.255-0.387-0.487-0.387l0,0c-0.231,0-0.434,0.161-0.486,0.387
	c-0.507,2.188-2.477,2.506-4.998,2.693c-0.036,0.003-0.072,0.01-0.106,0.02c-2.369,0.712-3.921,1.286-5.107,3.685
	c-0.932-0.214-2.411-0.264-2.401-0.27c-1.688,0.072-3.263,1.011-4.321,2.573c-1.168,1.725-1.505,3.907-0.878,5.697
	c1.192,3.404,4.371,4.594,7.444,5.745c2.07,0.775,4.026,1.508,5.398,2.862c2.844,2.808,2.138,6.953-0.029,9.598
	c-0.719,0.877-2.073,1.574-3.294,1.694c-0.578,0.059-1.396,0.013-2.044-0.519c-0.29-0.238-0.436-0.474-0.443-0.718
	c-0.021-0.627,0.814-1.417,1.368-1.939c0.155-0.146,0.319-0.295,0.485-0.444c1.177-1.062,2.643-2.383,2.055-4.382
	c-0.357-1.217-1.808-2.714-3.214-2.896c-0.55-0.071-1.051,0.067-1.453,0.399c-0.948-1.334-1.771-1.607-3.528-1.95l-0.539-0.101
	c-1.557-0.282-3.32-0.602-3.802-2.021c-0.139-0.404-0.808-0.404-0.946,0c-0.481,1.419-2.245,1.738-3.802,2.021l-0.54,0.101
	c-1.757,0.343-2.58,0.616-3.527,1.95c-0.401-0.331-0.898-0.471-1.455-0.399c-1.405,0.183-2.854,1.679-3.213,2.896
	c-0.588,1.997,0.877,3.318,2.054,4.38c0.167,0.15,0.332,0.299,0.487,0.446c0.554,0.522,1.391,1.312,1.369,1.938
	c-0.009,0.245-0.154,0.48-0.443,0.719c-0.648,0.532-1.476,0.577-2.047,0.519c-1.221-0.121-2.574-0.818-3.292-1.694
	c-2.166-2.645-2.873-6.79-0.03-9.598c1.372-1.354,3.328-2.087,5.399-2.862c3.074-1.151,6.253-2.341,7.444-5.745
	c0.627-1.79,0.291-3.974-0.878-5.697c-1.059-1.563-2.633-2.501-4.321-2.573c-0.015-0.002-1.471,0.056-2.402,0.27
	c-1.187-2.399-2.738-2.973-5.106-3.685c-0.034-0.01-0.07-0.017-0.106-0.02c-2.522-0.188-4.492-0.505-4.999-2.693
	c-0.104-0.453-0.868-0.453-0.972,0c-0.508,2.188-2.477,2.506-4.998,2.693c-0.036,0.003-0.071,0.01-0.106,0.02
	c-2.369,0.712-3.921,1.286-5.108,3.685c-0.921-0.211-2.414-0.263-2.402-0.27c-1.688,0.072-3.263,1.011-4.322,2.573
	c-1.168,1.725-1.504,3.907-0.878,5.697c1.193,3.404,4.371,4.594,7.445,5.745c2.071,0.775,4.027,1.508,5.399,2.862
	c2.843,2.809,2.137,6.954-0.029,9.598c-0.718,0.877-2.073,1.574-3.294,1.694c-0.575,0.057-1.398,0.012-2.044-0.519
	c-0.29-0.238-0.435-0.474-0.443-0.719c-0.021-0.627,0.814-1.416,1.367-1.938c0.156-0.147,0.32-0.295,0.487-0.445
	c1.177-1.062,2.643-2.383,2.055-4.381c-0.358-1.217-1.808-2.713-3.214-2.896c-0.549-0.073-1.052,0.067-1.453,0.399
	c-0.949-1.334-1.771-1.607-3.528-1.95l-0.54-0.101c-1.556-0.282-3.32-0.602-3.802-2.021c-0.137-0.405-0.809-0.404-0.946,0
	c-0.481,1.419-2.246,1.738-3.802,2.021l-0.54,0.101c-1.756,0.343-2.579,0.616-3.528,1.95c-0.401-0.331-0.899-0.471-1.454-0.399
	c-1.406,0.183-2.856,1.679-3.214,2.896c-0.587,1.997,0.876,3.318,2.053,4.38c0.167,0.15,0.332,0.299,0.488,0.446
	c0.553,0.523,1.39,1.313,1.368,1.939c-0.008,0.244-0.153,0.479-0.443,0.718c-0.646,0.53-1.467,0.575-2.044,0.519
	c-1.221-0.12-2.576-0.817-3.295-1.694c-2.166-2.645-2.872-6.79-0.029-9.598c1.372-1.354,3.328-2.087,5.399-2.862
	c3.074-1.151,6.253-2.341,7.444-5.745c0.627-1.79,0.291-3.974-0.877-5.697c-1.059-1.563-2.634-2.501-4.321-2.573h0
	c-0.039,0-1.493,0.061-2.402,0.269c-1.188-2.397-2.739-2.972-5.107-3.684c-0.035-0.01-0.07-0.017-0.106-0.02
	c-2.521-0.188-4.491-0.505-4.998-2.693c-0.053-0.226-0.255-0.387-0.487-0.387l0,0c-0.232,0-0.434,0.161-0.486,0.387
	c-0.507,2.188-2.476,2.506-4.998,2.693c-0.036,0.003-0.071,0.01-0.106,0.02c-2.369,0.712-3.921,1.286-5.108,3.685
	c-0.92-0.211-2.396-0.263-2.402-0.27c-1.688,0.072-3.263,1.011-4.322,2.573c-1.168,1.725-1.504,3.907-0.877,5.697
	c1.192,3.404,4.371,4.594,7.445,5.745c2.071,0.775,4.027,1.508,5.399,2.862c2.842,2.808,2.137,6.953-0.03,9.598
	c-0.718,0.877-2.072,1.573-3.294,1.694c-0.577,0.058-1.399,0.013-2.045-0.519c-0.29-0.238-0.434-0.474-0.443-0.718
	c-0.021-0.627,0.814-1.417,1.368-1.939c0.156-0.147,0.321-0.296,0.488-0.446c1.177-1.062,2.641-2.383,2.053-4.38
	c-0.357-1.217-1.808-2.713-3.214-2.896c-0.549-0.073-1.053,0.067-1.454,0.399c-0.949-1.334-1.772-1.607-3.529-1.95l-0.539-0.101
	c-1.557-0.282-3.32-0.602-3.802-2.021c-0.137-0.404-0.807-0.405-0.946,0c-0.481,1.419-2.246,1.738-3.802,2.021l-0.54,0.101
	c-1.756,0.343-2.579,0.616-3.528,1.95c-0.401-0.332-0.899-0.472-1.454-0.399c-1.406,0.183-2.855,1.679-3.213,2.896
	c-0.588,1.998,0.877,3.319,2.055,4.381c0.167,0.15,0.331,0.298,0.487,0.445c0.553,0.522,1.389,1.312,1.368,1.938
	c-0.008,0.245-0.154,0.48-0.444,0.719c-0.646,0.531-1.467,0.575-2.043,0.519c-1.221-0.12-2.576-0.817-3.295-1.694
	c-2.167-2.645-2.873-6.79-0.03-9.598c1.373-1.354,3.328-2.087,5.399-2.862c3.074-1.151,6.252-2.341,7.444-5.745
	c0.627-1.79,0.291-3.973-0.877-5.697c-1.059-1.563-2.634-2.501-4.321-2.573h0c-0.039,0-1.493,0.061-2.402,0.27
	c-1.188-2.398-2.74-2.973-5.107-3.685c-0.035-0.01-0.07-0.017-0.106-0.02c-2.521-0.188-4.491-0.505-4.999-2.693
	c-0.052-0.226-0.253-0.387-0.486-0.387l0,0c-0.232,0-0.434,0.161-0.486,0.387c-0.507,2.188-2.476,2.506-4.998,2.693
	c-0.036,0.003-0.072,0.01-0.107,0.02c-2.369,0.712-3.92,1.286-5.108,3.685c-0.921-0.211-2.415-0.263-2.4-0.27
	c-1.688,0.072-3.263,1.011-4.321,2.573c-1.168,1.724-1.505,3.907-0.878,5.697c1.192,3.404,4.371,4.594,7.445,5.745
	c2.071,0.775,4.027,1.507,5.398,2.862c2.843,2.808,2.138,6.953-0.028,9.598c-0.719,0.877-2.075,1.574-3.296,1.694
	c-0.572,0.057-1.396,0.012-2.043-0.519c-0.291-0.238-0.435-0.474-0.443-0.718c-0.022-0.627,0.814-1.416,1.368-1.939
	c0.156-0.147,0.321-0.296,0.488-0.446c1.177-1.062,2.641-2.383,2.054-4.38c-0.358-1.217-1.809-2.713-3.214-2.896
	c-0.558-0.071-1.054,0.068-1.454,0.399c-0.949-1.334-1.772-1.607-3.528-1.95l-0.54-0.101c-1.556-0.282-3.32-0.602-3.801-2.021
	c-0.137-0.404-0.808-0.405-0.945,0c-0.482,1.419-2.247,1.738-3.803,2.021l-0.54,0.101c-1.757,0.343-2.58,0.616-3.528,1.95
	c-0.4-0.331-0.897-0.471-1.453-0.399c-1.405,0.182-2.856,1.679-3.215,2.895c-0.587,1.999,0.878,3.32,2.056,4.382
	c0.166,0.15,0.331,0.298,0.486,0.445c0.553,0.522,1.389,1.312,1.368,1.938c-0.008,0.245-0.154,0.48-0.444,0.719
	c-0.646,0.53-1.467,0.575-2.044,0.519c-1.222-0.12-2.576-0.817-3.294-1.694c-2.167-2.645-2.873-6.79-0.029-9.598
	c1.372-1.354,3.328-2.087,5.398-2.862c3.074-1.151,6.252-2.341,7.444-5.745c0.627-1.789,0.292-3.973-0.876-5.696
	c-1.059-1.563-2.634-2.502-4.322-2.574h0c-0.039,0-1.491,0.062-2.401,0.27c-1.188-2.398-2.74-2.973-5.108-3.685
	c-0.035-0.01-0.07-0.017-0.106-0.02c-2.522-0.188-4.492-0.505-4.998-2.693c-0.105-0.452-0.867-0.454-0.973,0
	c-0.507,2.188-2.477,2.506-4.998,2.693c-0.036,0.003-0.072,0.01-0.106,0.02c-2.368,0.712-3.919,1.286-5.108,3.684
	c-0.92-0.21-2.396-0.262-2.401-0.269c-1.688,0.072-3.263,1.011-4.321,2.573c-1.168,1.724-1.505,3.907-0.878,5.697
	c1.192,3.404,4.371,4.594,7.444,5.745c2.07,0.775,4.026,1.508,5.398,2.862c2.843,2.808,2.137,6.953-0.029,9.598
	c-0.718,0.877-2.073,1.574-3.294,1.694c-0.575,0.057-1.397,0.012-2.044-0.519c-0.29-0.238-0.435-0.474-0.444-0.718
	c-0.021-0.627,0.815-1.416,1.369-1.939c0.156-0.147,0.321-0.296,0.487-0.446c1.177-1.062,2.642-2.382,2.054-4.38
	c-0.358-1.217-1.808-2.713-3.213-2.896c-0.558-0.071-1.054,0.068-1.454,0.399c-0.948-1.334-1.771-1.607-3.528-1.95l-0.54-0.101
	c-1.557-0.282-3.32-0.602-3.802-2.021c-0.137-0.404-0.807-0.405-0.946,0c-0.481,1.419-2.246,1.738-3.802,2.021l-0.54,0.101
	c-1.757,0.343-2.58,0.616-3.528,1.95c-0.4-0.331-0.898-0.471-1.453-0.399c-1.405,0.182-2.856,1.679-3.215,2.895
	c-0.586,1.999,0.877,3.319,2.054,4.381c0.167,0.15,0.331,0.299,0.487,0.446c0.553,0.522,1.39,1.312,1.369,1.938
	c-0.008,0.245-0.154,0.48-0.444,0.719c-0.647,0.531-1.471,0.577-2.044,0.519c-1.221-0.12-2.576-0.817-3.294-1.694
	c-2.167-2.645-2.873-6.79-0.03-9.598c1.373-1.354,3.329-2.087,5.399-2.862c3.074-1.151,6.252-2.341,7.444-5.745
	c0.627-1.79,0.291-3.974-0.878-5.697c-1.058-1.563-2.633-2.501-4.32-2.573h0c-0.039,0-1.493,0.061-2.402,0.27
	c-1.188-2.398-2.739-2.973-5.107-3.685c-0.035-0.01-0.07-0.017-0.106-0.02c-2.522-0.188-4.492-0.505-4.998-2.693
	c-0.105-0.452-0.868-0.454-0.973,0c-0.508,2.188-2.477,2.506-4.999,2.693c-0.036,0.003-0.072,0.01-0.107,0.02
	c-2.367,0.712-3.919,1.286-5.107,3.685c-0.921-0.211-2.417-0.263-2.402-0.27c-1.688,0.072-3.263,1.011-4.321,2.573
	c-1.168,1.725-1.504,3.908-0.876,5.698c1.191,3.403,4.37,4.593,7.444,5.744c2.07,0.775,4.026,1.508,5.399,2.862
	c2.842,2.808,2.136,6.953-0.03,9.598c-0.718,0.877-2.073,1.574-3.295,1.694c-0.572,0.057-1.396,0.012-2.043-0.519
	c-0.29-0.238-0.436-0.474-0.444-0.719c-0.021-0.627,0.814-1.416,1.368-1.938c0.156-0.147,0.32-0.295,0.486-0.445
	c1.178-1.062,2.643-2.383,2.055-4.381c-0.358-1.217-1.808-2.713-3.214-2.896c-0.555-0.071-1.052,0.068-1.453,0.399
	c-0.948-1.334-1.771-1.607-3.528-1.95l-0.54-0.101c-1.557-0.282-3.321-0.602-3.802-2.021c-0.139-0.405-0.809-0.404-0.946,0
	c-0.481,1.419-2.246,1.738-3.802,2.021l-0.54,0.101c-1.756,0.343-2.579,0.616-3.527,1.95c-0.401-0.332-0.899-0.472-1.454-0.399
	c-1.406,0.183-2.856,1.679-3.214,2.896c-0.587,1.998,0.878,3.318,2.054,4.38c0.167,0.15,0.331,0.299,0.487,0.446
	c0.554,0.523,1.39,1.313,1.369,1.939c-0.009,0.244-0.154,0.479-0.444,0.718c-0.646,0.53-1.466,0.575-2.044,0.519
	c-1.221-0.12-2.576-0.817-3.295-1.694c-2.166-2.645-2.872-6.79-0.028-9.598c1.372-1.354,3.328-2.087,5.398-2.862
	c3.074-1.151,6.252-2.341,7.444-5.745c0.627-1.79,0.291-3.974-0.878-5.697c-1.058-1.563-2.633-2.501-4.32-2.573h0
	c-0.039,0-1.493,0.061-2.402,0.27c-1.187-2.398-2.739-2.973-5.107-3.685c-0.035-0.01-0.07-0.017-0.106-0.02
	c-2.522-0.188-4.491-0.505-4.998-2.693c-0.104-0.452-0.867-0.454-0.973,0c-0.507,2.188-2.477,2.506-4.998,2.693
	c-0.036,0.003-0.072,0.01-0.106,0.02c-2.369,0.712-3.92,1.286-5.107,3.685c-0.92-0.211-2.399-0.263-2.402-0.27
	c-1.688,0.072-3.262,1.011-4.321,2.573c-1.168,1.725-1.504,3.907-0.878,5.697c1.193,3.404,4.371,4.594,7.445,5.745
	c2.071,0.775,4.027,1.508,5.399,2.862c2.842,2.808,2.137,6.953-0.029,9.598c-0.718,0.877-2.073,1.574-3.294,1.694
	c-0.574,0.057-1.397,0.012-2.044-0.519c-0.29-0.238-0.436-0.474-0.444-0.719c-0.021-0.627,0.815-1.416,1.368-1.938
	c0.156-0.147,0.32-0.295,0.486-0.445c1.178-1.062,2.643-2.383,2.055-4.381c-0.358-1.217-1.808-2.713-3.214-2.896
	c-0.55-0.073-1.052,0.067-1.453,0.399c-0.949-1.334-1.772-1.607-3.528-1.95l-0.54-0.101c-1.556-0.282-3.321-0.602-3.802-2.021
	c-0.138-0.405-0.809-0.404-0.946,0c-0.481,1.419-2.246,1.738-3.802,2.021l-0.54,0.101c-1.756,0.343-2.579,0.616-3.528,1.95
	c-0.401-0.331-0.899-0.471-1.454-0.399c-1.405,0.183-2.856,1.679-3.214,2.896c-0.587,1.997,0.877,3.318,2.054,4.38
	c0.167,0.15,0.332,0.299,0.488,0.446c0.554,0.523,1.39,1.313,1.368,1.939c-0.008,0.244-0.153,0.479-0.443,0.718
	c-0.646,0.53-1.465,0.575-2.044,0.519c-1.221-0.12-2.576-0.817-3.295-1.694c-2.166-2.645-2.871-6.79-0.028-9.598
	c1.371-1.355,3.327-2.087,5.398-2.862c3.074-1.151,6.253-2.341,7.444-5.745c0.627-1.79,0.291-3.974-0.877-5.697
	c-1.059-1.563-2.633-2.501-4.321-2.573h0c-0.039,0-1.493,0.061-2.402,0.27c-1.188-2.398-2.739-2.973-5.107-3.685
	c-0.035-0.01-0.071-0.017-0.107-0.02c-2.521-0.188-4.49-0.505-4.998-2.693c-0.053-0.226-0.254-0.387-0.486-0.387l0,0
	c-0.232,0-0.434,0.161-0.487,0.387c-0.506,2.188-2.476,2.506-4.997,2.693c-0.036,0.003-0.072,0.01-0.106,0.02
	c-2.369,0.712-3.921,1.286-5.108,3.685c-0.921-0.211-2.419-0.263-2.402-0.27c-1.688,0.072-3.262,1.011-4.321,2.573
	c-1.168,1.725-1.504,3.907-0.877,5.697c1.192,3.404,4.371,4.594,7.444,5.745c2.071,0.775,4.027,1.508,5.399,2.862
	c2.842,2.808,2.136,6.953-0.03,9.598c-0.718,0.877-2.072,1.573-3.294,1.694c-0.578,0.058-1.398,0.013-2.045-0.519
	c-0.29-0.238-0.435-0.474-0.443-0.718c-0.021-0.627,0.814-1.417,1.368-1.939c0.157-0.147,0.321-0.296,0.488-0.446
	c1.177-1.062,2.641-2.383,2.053-4.38c-0.358-1.217-1.808-2.713-3.214-2.896c-0.55-0.073-1.052,0.067-1.453,0.399
	c-0.949-1.334-1.772-1.607-3.529-1.95l-0.539-0.101c-1.557-0.282-3.321-0.602-3.802-2.021c-0.138-0.404-0.808-0.405-0.946,0
	c-0.482,1.419-2.246,1.738-3.802,2.021l-0.54,0.101c-1.756,0.343-2.579,0.616-3.528,1.95c-0.401-0.332-0.9-0.472-1.454-0.399
	c-1.405,0.183-2.855,1.679-3.213,2.896c-0.588,1.998,0.877,3.319,2.055,4.381c0.167,0.15,0.331,0.298,0.487,0.445
	c0.553,0.522,1.389,1.312,1.367,1.938c-0.008,0.245-0.153,0.48-0.443,0.719c-0.646,0.531-1.466,0.575-2.043,0.519
	c-1.221-0.12-2.577-0.817-3.295-1.694c-2.167-2.645-2.873-6.79-0.03-9.598c1.372-1.354,3.328-2.087,5.399-2.862
	c3.074-1.151,6.252-2.341,7.444-5.745c0.627-1.79,0.291-3.973-0.877-5.697c-1.059-1.563-2.634-2.501-4.322-2.573h0
	c-0.039,0-1.493,0.061-2.401,0.27c-1.188-2.398-2.74-2.973-5.108-3.685c-0.035-0.01-0.07-0.017-0.106-0.02
	c-2.521-0.188-4.491-0.505-4.999-2.693c-0.052-0.226-0.253-0.387-0.486-0.387l0,0c-0.232,0-0.434,0.161-0.487,0.387
	c-0.506,2.188-2.476,2.506-4.998,2.693c-0.036,0.003-0.071,0.01-0.106,0.02c-2.369,0.712-3.92,1.286-5.108,3.685
	c-0.921-0.211-2.399-0.263-2.401-0.27c-1.688,0.072-3.263,1.011-4.321,2.573c-1.168,1.724-1.504,3.907-0.878,5.697
	c1.192,3.404,4.371,4.594,7.444,5.745c2.071,0.775,4.027,1.507,5.398,2.862c2.843,2.808,2.138,6.953-0.028,9.598
	c-0.718,0.877-2.073,1.574-3.295,1.694c-0.573,0.059-1.398,0.013-2.044-0.519c-0.29-0.238-0.435-0.474-0.443-0.718
	c-0.022-0.627,0.814-1.416,1.368-1.939c0.157-0.147,0.321-0.296,0.488-0.446c1.177-1.062,2.641-2.383,2.053-4.38
	c-0.358-1.217-1.808-2.713-3.214-2.896c-0.558-0.071-1.053,0.068-1.454,0.399c-0.949-1.334-1.772-1.607-3.529-1.95l-0.54-0.101
	c-1.556-0.282-3.32-0.602-3.801-2.021L0,776.732c0.67,1.976,2.924,2.385,4.569,2.683l0.526,0.098c1.848,0.36,2.33,0.577,3.241,2.059
	c0.09,0.148,0.247,0.198,0.426,0.237c0.174-0.001,0.335-0.092,0.426-0.24c0.236-0.392,0.54-0.549,0.952-0.494
	c0.958,0.124,2.131,1.326,2.385,2.187c0.41,1.396-0.646,2.348-1.765,3.356c-0.173,0.156-0.343,0.31-0.505,0.463
	c-0.725,0.685-1.717,1.622-1.68,2.699c0.019,0.54,0.29,1.03,0.807,1.455c0.72,0.593,1.68,0.852,2.776,0.74
	c1.488-0.146,3.083-0.973,3.97-2.055c2.453-2.994,3.226-7.714-0.042-10.941c-1.524-1.504-3.672-2.309-5.75-3.087
	c-2.99-1.119-5.814-2.177-6.852-5.14c-0.524-1.497-0.232-3.34,0.762-4.808c0.88-1.298,2.169-2.076,3.537-2.136
	c0.207,0.003,2.08,0.236,2.44,0.314c0.247,0.106,0.536-0.004,0.65-0.25c0.001-0.003,0.003-0.006,0.004-0.009
	c0.98-2.202,2.105-2.741,4.608-3.495c1.745-0.13,4.208-0.333,5.356-2.233c1.148,1.9,3.612,2.104,5.356,2.233
	c2.501,0.754,3.625,1.292,4.606,3.492c0,0.001,0.001,0.003,0.002,0.005h0l0,0.001c0.079,0.178,0.255,0.293,0.449,0.295
	c0.072-0.002,0.136-0.012,0.198-0.038c0.346-0.076,2.238-0.313,2.456-0.314c1.357,0.059,2.647,0.837,3.527,2.136
	c0.994,1.468,1.286,3.31,0.762,4.808c-1.037,2.962-3.862,4.02-6.852,5.139c-2.078,0.778-4.227,1.583-5.75,3.087
	c-3.269,3.229-2.495,7.947-0.042,10.941c0.887,1.083,2.483,1.909,3.97,2.055c1.094,0.111,2.054-0.147,2.775-0.74
	c0.517-0.426,0.789-0.915,0.808-1.456c0.037-1.077-0.956-2.015-1.68-2.698c-0.161-0.152-0.332-0.306-0.503-0.461
	c-1.119-1.009-2.176-1.962-1.766-3.358c0.253-0.86,1.426-2.063,2.384-2.187c0.411-0.055,0.715,0.104,0.952,0.494
	c0.09,0.148,0.251,0.239,0.426,0.24h0.001c0.173,0,0.334-0.09,0.425-0.237c0.911-1.481,1.394-1.698,3.24-2.059l0.526-0.098
	c1.364-0.247,3.145-0.57,4.097-1.798c0.951,1.228,2.733,1.551,4.096,1.798l0.527,0.098c1.848,0.36,2.33,0.577,3.241,2.059
	c0.091,0.147,0.252,0.237,0.425,0.237c0,0,0.001,0,0.002,0c0.174-0.001,0.335-0.092,0.425-0.24c0.236-0.392,0.536-0.548,0.952-0.494
	c0.958,0.124,2.131,1.326,2.385,2.187c0.41,1.396-0.646,2.348-1.764,3.356c-0.173,0.156-0.343,0.31-0.505,0.463
	c-0.724,0.684-1.717,1.621-1.68,2.699c0.019,0.54,0.29,1.029,0.806,1.455c0.722,0.593,1.682,0.852,2.778,0.74
	c1.487-0.146,3.082-0.973,3.968-2.055c2.453-2.994,3.226-7.713-0.041-10.94c-1.524-1.505-3.673-2.31-5.751-3.088
	c-2.99-1.119-5.815-2.177-6.853-5.14c-0.524-1.497-0.232-3.34,0.762-4.807c0.88-1.299,2.169-2.077,3.537-2.137
	c0.208,0.003,2.1,0.239,2.446,0.315c0.062,0.025,0.12,0.039,0.199,0.038c0.195-0.002,0.37-0.117,0.449-0.295v-0.001h0
	c0-0.002,0.001-0.003,0.002-0.005c0.979-2.199,2.104-2.738,4.607-3.492c1.744-0.13,4.207-0.333,5.355-2.233
	c1.148,1.9,3.611,2.104,5.356,2.233c2.504,0.754,3.628,1.293,4.609,3.498c0.08,0.178,0.255,0.293,0.45,0.295
	c0.069-0.002,0.137-0.012,0.198-0.038c0.346-0.076,2.239-0.313,2.457-0.314c1.357,0.059,2.646,0.837,3.526,2.135
	c0.994,1.468,1.286,3.311,0.762,4.809c-1.038,2.962-3.862,4.02-6.853,5.139c-2.078,0.778-4.227,1.583-5.75,3.087
	c-3.268,3.228-2.495,7.947-0.042,10.941c0.887,1.082,2.482,1.908,3.969,2.055c1.094,0.111,2.055-0.147,2.776-0.74
	c0.518-0.425,0.789-0.915,0.808-1.455c0.037-1.077-0.956-2.015-1.681-2.699c-0.162-0.153-0.332-0.307-0.504-0.463
	c-1.119-1.009-2.175-1.961-1.765-3.356c0.254-0.86,1.427-2.063,2.385-2.187c0.411-0.055,0.715,0.103,0.952,0.494
	c0.09,0.148,0.251,0.239,0.426,0.24c0.165-0.009,0.335-0.089,0.426-0.237c0.911-1.481,1.394-1.698,3.24-2.059l0.526-0.098
	c1.364-0.247,3.146-0.57,4.097-1.798c0.952,1.228,2.734,1.551,4.097,1.798l0.527,0.098c1.847,0.36,2.329,0.577,3.24,2.059
	c0.091,0.147,0.252,0.237,0.425,0.237c0,0,0.001,0,0.002,0c0.173-0.001,0.335-0.092,0.425-0.24c0.236-0.392,0.537-0.549,0.952-0.494
	c0.958,0.124,2.131,1.326,2.385,2.187c0.411,1.396-0.647,2.35-1.766,3.358c-0.172,0.155-0.342,0.309-0.503,0.461
	c-0.724,0.684-1.717,1.621-1.68,2.698c0.018,0.541,0.291,1.03,0.808,1.456c0.72,0.593,1.68,0.852,2.776,0.74
	c1.487-0.146,3.082-0.973,3.969-2.055c2.453-2.994,3.226-7.713-0.041-10.94c-1.524-1.505-3.673-2.31-5.75-3.088
	c-2.991-1.119-5.815-2.177-6.853-5.14c-0.524-1.497-0.232-3.34,0.762-4.807c0.879-1.299,2.168-2.077,3.537-2.137
	c0.207,0.003,2.1,0.239,2.446,0.315c0.062,0.025,0.129,0.034,0.199,0.038c0.195-0.002,0.37-0.117,0.449-0.295
	c0.98-2.204,2.105-2.743,4.609-3.498c1.744-0.13,4.207-0.333,5.356-2.233c1.147,1.9,3.611,2.104,5.356,2.233
	c2.501,0.754,3.626,1.292,4.605,3.492c0.001,0.002,0.001,0.003,0.002,0.005h0v0.001c0.08,0.178,0.254,0.293,0.45,0.295
	c0.074-0.005,0.137-0.013,0.198-0.038c0.346-0.076,2.239-0.313,2.457-0.314c1.357,0.059,2.646,0.837,3.526,2.135
	c0.994,1.468,1.286,3.311,0.762,4.809c-1.038,2.962-3.862,4.02-6.852,5.139c-2.078,0.778-4.226,1.583-5.75,3.087
	c-3.269,3.228-2.495,7.947-0.042,10.941c0.887,1.082,2.482,1.908,3.969,2.055c1.093,0.111,2.055-0.147,2.776-0.74
	c0.518-0.425,0.789-0.915,0.808-1.455c0.037-1.077-0.956-2.015-1.681-2.699c-0.162-0.153-0.332-0.307-0.504-0.462
	c-1.119-1.009-2.175-1.962-1.765-3.357c0.253-0.86,1.427-2.063,2.385-2.187c0.414-0.053,0.715,0.103,0.952,0.494
	c0.09,0.148,0.251,0.239,0.425,0.24c0.001,0,0.001,0,0.001,0c0.174,0,0.335-0.09,0.426-0.237c0.911-1.481,1.394-1.698,3.24-2.059
	l0.526-0.098c1.364-0.247,3.146-0.57,4.097-1.798c0.952,1.228,2.733,1.551,4.097,1.798l0.526,0.098
	c1.848,0.36,2.33,0.578,3.24,2.058c0.091,0.148,0.251,0.238,0.425,0.238c0,0,0.001,0,0.001,0c0.174-0.001,0.335-0.092,0.425-0.24
	c0.236-0.392,0.535-0.548,0.952-0.494c0.958,0.124,2.132,1.326,2.385,2.187c0.411,1.396-0.647,2.35-1.766,3.358
	c-0.172,0.155-0.342,0.309-0.503,0.461c-0.725,0.684-1.717,1.621-1.68,2.698c0.019,0.541,0.291,1.03,0.808,1.456
	c0.72,0.593,1.678,0.852,2.775,0.74c1.487-0.146,3.083-0.973,3.969-2.055c2.453-2.994,3.227-7.714-0.041-10.941
	c-1.524-1.504-3.673-2.309-5.75-3.087c-2.99-1.119-5.815-2.177-6.852-5.14c-0.525-1.497-0.233-3.339,0.761-4.807
	c0.88-1.299,2.169-2.077,3.537-2.137c0.208,0.003,2.1,0.239,2.446,0.315c0.062,0.026,0.129,0.035,0.199,0.038
	c0.194-0.002,0.37-0.117,0.449-0.295c0.981-2.205,2.105-2.744,4.61-3.498c1.744-0.13,4.207-0.333,5.356-2.233
	c1.147,1.9,3.611,2.104,5.356,2.233c2.504,0.754,3.627,1.293,4.608,3.498c0.08,0.178,0.254,0.293,0.45,0.295
	c0.065-0.005,0.136-0.013,0.198-0.038c0.347-0.076,2.239-0.313,2.457-0.314c1.357,0.059,2.647,0.837,3.526,2.135
	c0.994,1.468,1.286,3.311,0.761,4.809c-1.037,2.962-3.861,4.02-6.852,5.139c-2.078,0.778-4.226,1.583-5.75,3.087
	c-3.268,3.229-2.495,7.947-0.041,10.941c0.886,1.082,2.48,1.908,3.967,2.055c1.094,0.11,2.056-0.147,2.777-0.74
	c0.518-0.426,0.79-0.915,0.808-1.456c0.037-1.078-0.956-2.015-1.681-2.698c-0.162-0.153-0.332-0.307-0.504-0.462
	c-1.119-1.009-2.175-1.962-1.765-3.357c0.253-0.86,1.428-2.063,2.386-2.187c0.409-0.055,0.714,0.103,0.952,0.494
	c0.09,0.148,0.251,0.239,0.425,0.24c0.145-0.009,0.335-0.09,0.427-0.238c0.91-1.48,1.392-1.697,3.24-2.058l0.526-0.098
	c1.364-0.247,3.145-0.57,4.097-1.798c0.951,1.228,2.732,1.551,4.096,1.798l0.526,0.098c1.848,0.36,2.33,0.578,3.24,2.058
	c0.091,0.148,0.251,0.238,0.425,0.238c0,0,0.001,0,0.001,0c0.174-0.001,0.335-0.092,0.425-0.24c0.237-0.391,0.542-0.549,0.952-0.494
	c0.958,0.124,2.131,1.326,2.385,2.187c0.41,1.396-0.646,2.349-1.765,3.357c-0.172,0.156-0.343,0.309-0.504,0.462
	c-0.725,0.685-1.718,1.622-1.681,2.699c0.019,0.54,0.29,1.03,0.808,1.455c0.72,0.593,1.68,0.852,2.776,0.74
	c1.487-0.146,3.082-0.973,3.968-2.055c2.454-2.994,3.227-7.713-0.041-10.941c-1.524-1.504-3.672-2.309-5.75-3.087
	c-2.99-1.119-5.815-2.177-6.853-5.14c-0.524-1.497-0.232-3.34,0.762-4.808c0.88-1.298,2.169-2.076,3.537-2.136
	c0.208,0.003,2.1,0.239,2.445,0.315c0.062,0.026,0.126,0.035,0.198,0.038c0.195-0.002,0.37-0.117,0.45-0.295
	c0.981-2.205,2.105-2.744,4.609-3.498c1.745-0.13,4.208-0.333,5.356-2.233c1.148,1.9,3.611,2.104,5.356,2.233
	c2.504,0.754,3.628,1.293,4.609,3.498c0.008,0.018,0.017,0.035,0.027,0.051c0,0.001,0.001,0.002,0.001,0.003
	c0.126,0.212,0.394,0.3,0.625,0.202c0.36-0.078,2.233-0.312,2.45-0.313c1.358,0.059,2.647,0.837,3.527,2.136
	c0.994,1.468,1.286,3.31,0.761,4.807c-1.038,2.963-3.862,4.021-6.852,5.14c-2.078,0.778-4.226,1.583-5.75,3.087
	c-3.268,3.229-2.495,7.947-0.042,10.941c0.887,1.082,2.482,1.908,3.969,2.055c1.092,0.111,2.055-0.147,2.776-0.74
	c0.517-0.426,0.79-0.915,0.808-1.456c0.037-1.077-0.956-2.015-1.68-2.698c-0.162-0.153-0.332-0.306-0.504-0.461
	c-1.119-1.01-2.176-1.963-1.766-3.358c0.253-0.86,1.428-2.063,2.385-2.187c0.412-0.053,0.715,0.103,0.952,0.494
	c0.09,0.148,0.252,0.239,0.426,0.24c0.135-0.009,0.335-0.09,0.427-0.238c0.91-1.48,1.392-1.697,3.24-2.058l0.526-0.098
	c1.363-0.247,3.145-0.57,4.097-1.798c0.951,1.229,2.732,1.551,4.096,1.798l0.526,0.098c1.848,0.36,2.33,0.577,3.241,2.059
	c0.091,0.147,0.251,0.237,0.425,0.237c0,0,0.001,0,0.001,0c0.174-0.001,0.335-0.092,0.426-0.24c0.236-0.392,0.541-0.549,0.952-0.494
	c0.958,0.124,2.131,1.326,2.385,2.187c0.41,1.396-0.646,2.348-1.765,3.356c-0.172,0.156-0.343,0.31-0.504,0.463
	c-0.725,0.685-1.718,1.622-1.681,2.699c0.019,0.54,0.29,1.03,0.808,1.455c0.72,0.592,1.677,0.85,2.775,0.74
	c1.487-0.146,3.083-0.972,3.97-2.055c2.453-2.994,3.226-7.714-0.042-10.941c-1.524-1.504-3.672-2.309-5.75-3.087
	c-2.99-1.119-5.815-2.177-6.853-5.14c-0.524-1.497-0.232-3.34,0.762-4.808c0.88-1.298,2.169-2.076,3.537-2.136
	c0.206,0.003,2.08,0.236,2.439,0.314c0.247,0.106,0.537-0.004,0.65-0.25c0.001-0.003,0.003-0.006,0.004-0.009
	c0.981-2.202,2.105-2.741,4.608-3.495c1.745-0.13,4.208-0.333,5.356-2.233c1.149,1.9,3.612,2.104,5.356,2.233
	c2.501,0.754,3.626,1.292,4.607,3.492c0,0,0.001,0.003,0.002,0.005h0l0,0.001c0.079,0.178,0.254,0.293,0.449,0.295
	c0.072-0.002,0.137-0.012,0.199-0.038c0.346-0.076,2.238-0.313,2.456-0.314c1.358,0.059,2.647,0.837,3.527,2.136
	c0.994,1.468,1.286,3.31,0.761,4.808c-1.037,2.962-3.861,4.02-6.852,5.139c-2.078,0.778-4.227,1.583-5.75,3.087
	c-3.268,3.229-2.495,7.947-0.042,10.941c0.887,1.083,2.483,1.909,3.97,2.055c1.094,0.111,2.054-0.147,2.774-0.74
	c0.517-0.426,0.789-0.915,0.808-1.456c0.037-1.077-0.956-2.015-1.68-2.698c-0.162-0.152-0.332-0.306-0.504-0.461
	c-1.119-1.009-2.176-1.962-1.766-3.358c0.253-0.86,1.426-2.063,2.384-2.187c0.411-0.055,0.715,0.104,0.952,0.494
	c0.09,0.148,0.252,0.239,0.426,0.24c0,0,0.001,0,0.001,0c0.173,0,0.334-0.09,0.425-0.237c0.911-1.481,1.393-1.698,3.24-2.059
	l0.527-0.098c1.363-0.247,3.145-0.57,4.097-1.798c0.951,1.228,2.732,1.551,4.096,1.798l0.526,0.098
	c1.848,0.36,2.33,0.577,3.241,2.059c0.09,0.147,0.251,0.237,0.425,0.237c0,0,0.001,0,0.002,0c0.174-0.001,0.335-0.092,0.425-0.24
	c0.236-0.392,0.535-0.548,0.952-0.494c0.958,0.124,2.131,1.326,2.385,2.187c0.41,1.396-0.646,2.348-1.765,3.356
	c-0.173,0.156-0.343,0.31-0.505,0.463c-0.725,0.684-1.717,1.621-1.68,2.699c0.019,0.54,0.29,1.029,0.806,1.455
	c0.721,0.593,1.681,0.852,2.778,0.74c1.487-0.146,3.082-0.973,3.968-2.055c2.453-2.994,3.226-7.713-0.041-10.94
	c-1.524-1.505-3.673-2.31-5.751-3.088c-2.99-1.119-5.815-2.177-6.853-5.14c-0.524-1.497-0.232-3.34,0.763-4.807
	c0.879-1.299,2.168-2.077,3.537-2.137c0.207,0.003,2.099,0.239,2.446,0.315c0.062,0.025,0.124,0.039,0.198,0.038
	c0.195-0.002,0.37-0.117,0.45-0.295v-0.001h0c0-0.002,0.001-0.003,0.002-0.005c0.979-2.199,2.104-2.738,4.606-3.492
	c1.745-0.13,4.208-0.333,5.355-2.233c1.149,1.9,3.612,2.104,5.356,2.233c2.504,0.754,3.628,1.293,4.609,3.498
	c0.079,0.178,0.255,0.293,0.449,0.295c0.069-0.002,0.137-0.012,0.198-0.038c0.346-0.076,2.238-0.313,2.456-0.314
	c1.357,0.059,2.647,0.837,3.527,2.136c0.994,1.467,1.286,3.31,0.762,4.808c-1.038,2.962-3.862,4.02-6.853,5.139
	c-2.078,0.778-4.227,1.583-5.75,3.087c-3.268,3.228-2.494,7.947-0.042,10.941c0.887,1.082,2.482,1.908,3.97,2.055
	c1.094,0.111,2.054-0.147,2.776-0.74c0.517-0.425,0.789-0.915,0.807-1.455c0.037-1.077-0.956-2.015-1.68-2.699
	c-0.162-0.153-0.332-0.307-0.505-0.463c-1.118-1.009-2.175-1.961-1.765-3.356c0.253-0.86,1.427-2.063,2.385-2.187
	c0.41-0.055,0.715,0.103,0.952,0.494c0.09,0.148,0.251,0.239,0.426,0.24c0,0,0.001,0,0.001,0c0.173,0,0.334-0.09,0.425-0.237
	c0.911-1.481,1.393-1.698,3.24-2.059l0.527-0.098c1.364-0.247,3.146-0.57,4.097-1.798c0.952,1.228,2.733,1.551,4.097,1.798
	l0.526,0.098c1.847,0.36,2.329,0.577,3.24,2.059c0.09,0.147,0.251,0.237,0.425,0.237c0,0,0.001,0,0.002,0
	c0.174-0.001,0.335-0.092,0.425-0.24c0.236-0.392,0.541-0.549,0.952-0.494c0.958,0.124,2.131,1.326,2.385,2.187
	c0.411,1.396-0.647,2.35-1.766,3.358c-0.171,0.155-0.342,0.309-0.503,0.461c-0.725,0.684-1.717,1.621-1.68,2.698
	c0.019,0.541,0.291,1.03,0.808,1.456c0.721,0.593,1.679,0.852,2.776,0.74c1.487-0.146,3.082-0.973,3.968-2.055
	c2.453-2.993,3.227-7.713-0.041-10.94c-1.524-1.505-3.672-2.31-5.75-3.088c-2.99-1.119-5.815-2.177-6.853-5.14
	c-0.524-1.497-0.232-3.34,0.763-4.807c0.879-1.299,2.168-2.077,3.536-2.137c0.208,0.003,2.1,0.239,2.446,0.315
	c0.061,0.025,0.127,0.034,0.198,0.038c0.195-0.002,0.37-0.117,0.45-0.295c0.979-2.204,2.104-2.743,4.609-3.498
	c1.744-0.13,4.207-0.333,5.355-2.234c1.148,1.901,3.612,2.104,5.357,2.234c2.504,0.754,3.628,1.293,4.606,3.498
	c0.079,0.178,0.255,0.293,0.45,0.295c0.081-0.002,0.136-0.013,0.198-0.038c0.347-0.076,2.239-0.313,2.456-0.314
	c1.358,0.059,2.647,0.837,3.527,2.136c0.994,1.467,1.287,3.31,0.762,4.808c-1.037,2.962-3.861,4.02-6.853,5.139
	c-2.077,0.778-4.227,1.583-5.751,3.087c-3.267,3.228-2.493,7.947-0.039,10.941c0.885,1.081,2.479,1.908,3.965,2.055
	c1.092,0.11,2.057-0.147,2.779-0.74c0.518-0.426,0.789-0.915,0.808-1.456c0.036-1.078-0.956-2.015-1.682-2.698
	c-0.161-0.153-0.331-0.307-0.504-0.463c-1.118-1.009-2.176-1.961-1.765-3.356c0.253-0.86,1.427-2.063,2.384-2.187
	c0.415-0.055,0.716,0.104,0.953,0.494c0.09,0.148,0.251,0.239,0.425,0.24c0.001,0,0.002,0,0.002,0c0.174,0,0.334-0.09,0.425-0.238
	c0.911-1.48,1.393-1.697,3.24-2.058l0.526-0.098c1.364-0.247,3.146-0.569,4.099-1.798c0.95,1.228,2.731,1.551,4.095,1.798
	l0.526,0.098c1.848,0.36,2.331,0.577,3.241,2.059c0.091,0.147,0.252,0.237,0.426,0.237c0.001,0,0.001,0,0.002,0
	c0.173-0.001,0.334-0.092,0.425-0.24c0.236-0.392,0.542-0.547,0.95-0.494c0.959,0.124,2.132,1.326,2.386,2.187
	c0.41,1.396-0.646,2.35-1.767,3.359c-0.171,0.155-0.341,0.308-0.502,0.46c-0.726,0.684-1.717,1.621-1.681,2.699
	c0.019,0.54,0.29,1.029,0.808,1.455c0.72,0.593,1.68,0.849,2.776,0.74c1.487-0.146,3.081-0.973,3.968-2.055
	c2.453-2.994,3.227-7.714-0.041-10.941c-1.524-1.504-3.673-2.309-5.75-3.087c-2.99-1.119-5.815-2.177-6.853-5.14
	c-0.523-1.497-0.232-3.34,0.763-4.807c0.879-1.299,2.168-2.077,3.536-2.137c0.208,0.003,2.1,0.239,2.445,0.315
	c0.063,0.025,0.133,0.039,0.199,0.038c0.195-0.002,0.37-0.117,0.449-0.295c0.979-2.204,2.104-2.743,4.608-3.498
	c1.744-0.13,4.208-0.333,5.355-2.233c1.149,1.9,3.612,2.104,5.356,2.233c2.504,0.755,3.628,1.294,4.609,3.498
	c0.079,0.178,0.254,0.293,0.449,0.295c0.068-0.002,0.137-0.013,0.199-0.038c0.346-0.076,2.238-0.313,2.456-0.314
	c1.357,0.059,2.646,0.837,3.524,2.135c0.995,1.468,1.287,3.31,0.763,4.809c-1.037,2.962-3.862,4.02-6.853,5.139
	c-2.077,0.778-4.227,1.583-5.75,3.087c-3.268,3.229-2.494,7.947-0.042,10.941c0.889,1.083,2.484,1.909,3.972,2.056
	c1.091,0.104,2.053-0.149,2.773-0.741c0.517-0.425,0.789-0.915,0.808-1.455c0.037-1.076-0.955-2.015-1.679-2.699
	c-0.162-0.153-0.332-0.306-0.505-0.461c-1.119-1.01-2.176-1.963-1.767-3.358c0.254-0.86,1.429-2.063,2.387-2.187
	c0.409-0.052,0.714,0.104,0.951,0.494c0.091,0.149,0.251,0.25,0.427,0.24c0.174,0,0.335-0.09,0.426-0.237
	c0.91-1.481,1.393-1.698,3.239-2.059l0.527-0.098c1.363-0.247,3.145-0.57,4.096-1.798c0.953,1.228,2.734,1.551,4.098,1.798
	l0.526,0.098c1.849,0.36,2.331,0.578,3.241,2.058c0.091,0.148,0.251,0.238,0.425,0.238c0.15,0.034,0.335-0.091,0.427-0.24
	c0.237-0.392,0.534-0.549,0.952-0.494c0.957,0.124,2.131,1.326,2.385,2.187c0.41,1.396-0.646,2.348-1.765,3.356
	c-0.173,0.156-0.343,0.31-0.505,0.463c-0.725,0.684-1.718,1.62-1.681,2.698c0.019,0.541,0.29,1.03,0.808,1.456
	c0.722,0.594,1.684,0.848,2.778,0.74c1.486-0.146,3.081-0.973,3.966-2.056c2.453-2.993,3.228-7.712-0.041-10.94
	c-1.523-1.504-3.672-2.309-5.749-3.087c-2.991-1.119-5.815-2.177-6.854-5.14c-0.524-1.497-0.232-3.339,0.762-4.807
	c0.88-1.299,2.169-2.077,3.538-2.137c0.206,0.003,2.079,0.236,2.439,0.314c0.231,0.097,0.498,0.01,0.625-0.202
	c0.002-0.001,0.002-0.002,0.002-0.003c0.01-0.016,0.019-0.033,0.026-0.051c0.98-2.205,2.104-2.744,4.608-3.498
	c1.745-0.13,4.209-0.333,5.356-2.233c1.148,1.9,3.611,2.104,5.355,2.233c2.504,0.754,3.629,1.293,4.609,3.498
	c0.079,0.178,0.255,0.293,0.449,0.295c0.072-0.002,0.138-0.013,0.198-0.038c0.346-0.076,2.238-0.313,2.456-0.314
	c1.358,0.059,2.647,0.837,3.527,2.136c0.994,1.467,1.287,3.31,0.762,4.808c-1.038,2.962-3.862,4.02-6.853,5.139
	c-2.078,0.778-4.227,1.583-5.751,3.087c-3.267,3.228-2.494,7.947-0.041,10.941c0.888,1.083,2.482,1.909,3.971,2.055
	c1.091,0.108,2.054-0.148,2.774-0.74c0.518-0.425,0.789-0.915,0.808-1.455c0.037-1.077-0.955-2.015-1.68-2.699
	c-0.163-0.153-0.332-0.307-0.505-0.463c-1.118-1.009-2.176-1.961-1.765-3.356c0.253-0.86,1.427-2.063,2.385-2.187
	c0.416-0.052,0.715,0.104,0.951,0.494c0.091,0.148,0.252,0.239,0.426,0.24c0.001,0,0.001,0,0.002,0c0.173,0,0.334-0.09,0.425-0.237
	c0.911-1.481,1.394-1.698,3.24-2.059l0.526-0.098c1.364-0.247,3.146-0.57,4.098-1.798c0.951,1.228,2.731,1.551,4.096,1.798
	l0.526,0.098c1.848,0.36,2.331,0.578,3.241,2.059c0.091,0.147,0.252,0.237,0.425,0.237c0.001,0,0.001,0,0.002,0
	c0.174-0.001,0.336-0.092,0.426-0.241c0.235-0.391,0.541-0.548,0.95-0.493c0.959,0.124,2.133,1.326,2.386,2.187
	c0.411,1.396-0.646,2.348-1.765,3.356c-0.172,0.156-0.343,0.31-0.505,0.463c-0.725,0.685-1.717,1.622-1.68,2.699
	c0.019,0.54,0.29,1.03,0.808,1.455c0.72,0.593,1.678,0.849,2.775,0.74c1.488-0.146,3.083-0.973,3.97-2.055
	c2.452-2.994,3.226-7.713-0.041-10.94c-1.524-1.505-3.673-2.31-5.751-3.088c-2.989-1.119-5.814-2.177-6.853-5.14
	c-0.524-1.497-0.232-3.34,0.763-4.808c0.879-1.298,2.168-2.076,3.536-2.136c0.208,0.003,2.1,0.239,2.445,0.315
	c0.062,0.025,0.125,0.039,0.198,0.038c0.194-0.002,0.369-0.117,0.449-0.295v-0.001l0,0c0.001-0.001,0.001-0.002,0.001-0.002
	c0.982-2.202,2.107-2.741,4.609-3.495c1.744-0.13,4.206-0.332,5.354-2.233c1.147,1.9,3.613,2.104,5.357,2.233
	c2.503,0.754,3.627,1.293,4.606,3.496c0.002,0.003,0.004,0.006,0.004,0.008c0.113,0.246,0.405,0.354,0.65,0.25
	c0.359-0.077,2.234-0.312,2.451-0.313c1.357,0.059,2.647,0.838,3.528,2.137c0.993,1.467,1.285,3.309,0.761,4.806
	c-1.038,2.963-3.862,4.021-6.853,5.14c-2.078,0.778-4.227,1.583-5.75,3.087c-3.269,3.228-2.495,7.947-0.041,10.941
	c0.885,1.081,2.479,1.908,3.966,2.055c1.091,0.11,2.056-0.147,2.778-0.74c0.518-0.426,0.789-0.915,0.808-1.456
	c0.037-1.078-0.956-2.015-1.681-2.698c-0.161-0.153-0.332-0.307-0.505-0.463c-1.118-1.009-2.175-1.961-1.765-3.356
	c0.254-0.86,1.427-2.063,2.385-2.187c0.407-0.055,0.715,0.104,0.952,0.494c0.092,0.149,0.285,0.25,0.427,0.24
	c0.174,0,0.335-0.09,0.425-0.238c0.911-1.48,1.393-1.697,3.24-2.058l0.527-0.098c1.363-0.247,3.146-0.569,4.098-1.798
	c0.951,1.229,2.733,1.551,4.097,1.798l0.526,0.098c1.847,0.36,2.329,0.577,3.24,2.059c0.09,0.147,0.251,0.237,0.425,0.237
	c0.185,0.034,0.336-0.091,0.427-0.24c0.237-0.392,0.541-0.549,0.951-0.494c0.958,0.124,2.133,1.326,2.387,2.188
	c0.41,1.395-0.646,2.348-1.766,3.356c-0.173,0.156-0.344,0.309-0.506,0.462c-0.724,0.685-1.716,1.623-1.679,2.699
	c0.019,0.54,0.291,1.03,0.808,1.455c0.721,0.592,1.686,0.849,2.775,0.74c1.488-0.146,3.084-0.973,3.97-2.055
	c2.452-2.993,3.226-7.713-0.041-10.94c-1.524-1.505-3.673-2.31-5.751-3.088c-2.99-1.119-5.814-2.177-6.853-5.14
	c-0.524-1.498-0.231-3.34,0.763-4.808c0.88-1.298,2.168-2.076,3.535-2.136c0.208,0.003,2.1,0.239,2.446,0.315
	c0.062,0.025,0.128,0.039,0.198,0.038c0.195-0.002,0.371-0.117,0.45-0.295c0.979-2.204,2.104-2.743,4.608-3.498
	c1.744-0.13,4.208-0.333,5.356-2.233c1.147,1.9,3.611,2.104,5.356,2.233c2.502,0.754,3.627,1.293,4.605,3.492
	c0,0.002,0.001,0.003,0.002,0.005l0,0c0,0,0,0,0,0.001c0.079,0.178,0.255,0.293,0.449,0.295c0.081-0.002,0.137-0.013,0.199-0.038
	c0.346-0.076,2.238-0.313,2.456-0.314c1.357,0.059,2.647,0.838,3.526,2.137c0.995,1.467,1.286,3.309,0.762,4.806
	c-1.037,2.963-3.862,4.021-6.853,5.14c-2.077,0.778-4.226,1.583-5.75,3.087c-3.268,3.228-2.494,7.947-0.041,10.941
	c0.887,1.082,2.48,1.908,3.968,2.055c1.1,0.109,2.057-0.147,2.778-0.74c0.517-0.426,0.788-0.916,0.806-1.456
	c0.037-1.078-0.955-2.015-1.681-2.698c-0.161-0.152-0.331-0.305-0.502-0.46c-1.119-1.01-2.177-1.963-1.766-3.359
	c0.253-0.86,1.426-2.063,2.385-2.187c0.417-0.056,0.715,0.104,0.95,0.494c0.091,0.149,0.216,0.25,0.428,0.24
	c0.173,0,0.334-0.09,0.425-0.237c0.91-1.481,1.394-1.698,3.241-2.059l0.526-0.098c1.364-0.247,3.146-0.57,4.096-1.798
	c0.953,1.229,2.734,1.551,4.099,1.798l0.525,0.098c1.848,0.36,2.329,0.577,3.24,2.058c0.091,0.148,0.252,0.238,0.425,0.238
	c0.001,0,0.001,0,0.002,0c0.174-0.001,0.335-0.092,0.426-0.24c0.235-0.391,0.541-0.549,0.951-0.494
	c0.959,0.124,2.132,1.326,2.385,2.187c0.411,1.396-0.646,2.349-1.765,3.357c-0.172,0.156-0.342,0.309-0.504,0.462
	c-0.725,0.684-1.717,1.62-1.68,2.698c0.019,0.541,0.289,1.03,0.807,1.456c0.722,0.593,1.682,0.849,2.777,0.74
	c1.487-0.146,3.081-0.973,3.968-2.055c2.453-2.994,3.227-7.714-0.041-10.941c-1.524-1.504-3.673-2.309-5.751-3.087
	c-2.99-1.119-5.814-2.177-6.852-5.139c-0.525-1.498-0.232-3.341,0.762-4.809c0.88-1.298,2.169-2.076,3.537-2.136
	c0.208,0.003,2.101,0.239,2.446,0.315c0.062,0.025,0.132,0.039,0.198,0.038c0.194-0.002,0.37-0.117,0.449-0.295
	c0.979-2.204,2.104-2.743,4.608-3.498c1.744-0.13,4.208-0.333,5.355-2.233c1.148,1.9,3.611,2.104,5.355,2.233
	c2.503,0.754,3.627,1.293,4.608,3.494l0.001,0.003l0,0v0.001c0.08,0.178,0.255,0.293,0.45,0.295
	c0.067-0.002,0.136-0.013,0.198-0.038c0.346-0.076,2.238-0.313,2.455-0.314c1.357,0.059,2.646,0.837,3.526,2.135
	c0.994,1.468,1.287,3.311,0.763,4.809c-1.038,2.962-3.862,4.02-6.853,5.139c-2.077,0.778-4.227,1.583-5.75,3.087
	c-3.268,3.228-2.494,7.947-0.042,10.941c0.888,1.083,2.484,1.909,3.971,2.056c1.093,0.104,2.054-0.149,2.774-0.741
	c0.517-0.425,0.789-0.915,0.808-1.455c0.037-1.076-0.955-2.015-1.68-2.699c-0.161-0.153-0.331-0.306-0.504-0.461
	c-1.119-1.01-2.176-1.963-1.767-3.358c0.254-0.86,1.429-2.063,2.387-2.187c0.408-0.052,0.714,0.104,0.951,0.494
	c0.091,0.148,0.251,0.239,0.425,0.24c0.001,0,0.001,0,0.001,0c0.175,0,0.336-0.09,0.426-0.237c0.911-1.481,1.394-1.698,3.24-2.059
	l0.526-0.098c1.364-0.247,3.145-0.57,4.097-1.798c0.952,1.228,2.734,1.551,4.097,1.798l0.527,0.098
	c1.848,0.36,2.33,0.578,3.24,2.059c0.091,0.147,0.252,0.237,0.426,0.237c0.001,0,0.001,0,0.001,0
	c0.174-0.001,0.335-0.092,0.426-0.24c0.236-0.392,0.544-0.549,0.952-0.494c0.958,0.124,2.131,1.326,2.384,2.187
	c0.41,1.396-0.646,2.349-1.765,3.357c-0.172,0.156-0.343,0.309-0.505,0.462c-0.725,0.684-1.717,1.62-1.68,2.698
	c0.019,0.541,0.29,1.03,0.808,1.456c0.721,0.592,1.677,0.849,2.775,0.74c1.487-0.146,3.083-0.973,3.969-2.055
	c2.453-2.994,3.228-7.713-0.041-10.941c-1.523-1.504-3.672-2.309-5.75-3.087c-2.99-1.119-5.815-2.177-6.853-5.14
	c-0.524-1.497-0.232-3.339,0.762-4.807c0.879-1.299,2.168-2.077,3.537-2.137c0.208,0.003,2.1,0.239,2.445,0.315
	c0.062,0.025,0.137,0.039,0.198,0.038c0.195-0.002,0.37-0.117,0.449-0.295c0.981-2.205,2.105-2.744,4.609-3.498
	c1.744-0.13,4.207-0.333,5.356-2.234c1.148,1.901,3.611,2.104,5.355,2.234c2.504,0.754,3.628,1.293,4.609,3.498
	c0.008,0.018,0.017,0.034,0.026,0.051c0,0.001,0,0.002,0.002,0.003c0.127,0.213,0.394,0.301,0.625,0.202
	c0.359-0.078,2.233-0.312,2.45-0.313c1.358,0.059,2.647,0.837,3.526,2.136c0.995,1.467,1.287,3.31,0.763,4.808
	c-1.038,2.962-3.863,4.02-6.853,5.139c-2.078,0.778-4.227,1.583-5.751,3.087c-3.269,3.229-2.494,7.947-0.041,10.941
	c0.887,1.082,2.481,1.908,3.969,2.055c1.1,0.109,2.056-0.147,2.775-0.74c0.519-0.425,0.79-0.915,0.809-1.455
	c0.037-1.077-0.955-2.015-1.68-2.699c-0.163-0.153-0.334-0.307-0.506-0.463c-1.119-1.009-2.175-1.961-1.765-3.356
	c0.254-0.86,1.427-2.063,2.386-2.187c0.406-0.055,0.715,0.104,0.951,0.494c0.091,0.149,0.25,0.25,0.427,0.24
	c0.174,0,0.335-0.09,0.426-0.237c0.911-1.481,1.394-1.698,3.24-2.059l0.526-0.098c1.363-0.247,3.145-0.57,4.097-1.798
	c0.952,1.228,2.732,1.551,4.097,1.798l0.526,0.098c1.848,0.36,2.33,0.578,3.241,2.059c0.091,0.147,0.251,0.237,0.425,0.237
	c0.147,0.034,0.337-0.091,0.427-0.241c0.236-0.391,0.541-0.548,0.951-0.493c0.959,0.124,2.133,1.326,2.386,2.187
	c0.411,1.396-0.647,2.349-1.766,3.357c-0.173,0.156-0.343,0.309-0.505,0.462c-0.725,0.685-1.716,1.623-1.68,2.699
	c0.019,0.54,0.291,1.03,0.808,1.455c0.722,0.592,1.687,0.849,2.776,0.74c1.487-0.146,3.083-0.973,3.969-2.055
	c2.453-2.994,3.226-7.713-0.04-10.94c-1.524-1.505-3.674-2.31-5.751-3.088c-2.991-1.119-5.814-2.177-6.853-5.14
	c-0.525-1.498-0.232-3.34,0.762-4.808c0.88-1.298,2.168-2.076,3.536-2.136c0.207,0.003,2.099,0.239,2.445,0.315
	c0.063,0.025,0.125,0.039,0.199,0.038c0.194-0.002,0.37-0.117,0.449-0.295c0.98-2.204,2.105-2.743,4.609-3.498
	c1.744-0.13,4.207-0.333,5.355-2.233c1.147,1.9,3.611,2.104,5.357,2.233c2.504,0.754,3.628,1.293,4.606,3.498
	c0.079,0.178,0.255,0.293,0.45,0.295c0.076-0.002,0.136-0.013,0.198-0.038c0.347-0.076,2.239-0.313,2.456-0.314
	c1.357,0.059,2.647,0.837,3.527,2.136c0.994,1.468,1.286,3.31,0.762,4.808c-1.037,2.962-3.861,4.02-6.853,5.139
	c-2.077,0.778-4.227,1.583-5.751,3.087c-3.267,3.228-2.493,7.947-0.039,10.941c0.885,1.081,2.479,1.908,3.965,2.055
	c1.093,0.11,2.056-0.147,2.779-0.74c0.517-0.426,0.789-0.915,0.808-1.455c0.036-1.078-0.956-2.016-1.681-2.699
	c-0.162-0.152-0.331-0.306-0.504-0.461c-1.119-1.009-2.176-1.962-1.766-3.358c0.253-0.86,1.427-2.063,2.385-2.187
	c0.406-0.055,0.715,0.104,0.952,0.494c0.09,0.148,0.251,0.239,0.425,0.24h0.002c0.174,0,0.334-0.09,0.425-0.238
	c0.911-1.48,1.393-1.697,3.24-2.058l0.526-0.098c1.646-0.298,3.899-0.706,4.571-2.683l-0.946-0.32
	c-0.481,1.419-2.246,1.738-3.803,2.021l-0.54,0.101c-1.757,0.343-2.579,0.616-3.527,1.95c-0.401-0.331-0.898-0.471-1.455-0.399
	c-1.405,0.183-2.854,1.679-3.213,2.896c-0.588,1.998,0.878,3.319,2.056,4.381c0.166,0.15,0.33,0.298,0.485,0.445
	c0.554,0.522,1.39,1.313,1.368,1.939c-0.008,0.244-0.153,0.479-0.442,0.718c-0.648,0.532-1.475,0.577-2.047,0.519
	c-1.221-0.121-2.574-0.818-3.292-1.694c-2.166-2.645-2.873-6.79-0.03-9.598c1.372-1.354,3.328-2.087,5.399-2.862
	c3.074-1.151,6.253-2.341,7.444-5.745c0.627-1.79,0.291-3.973-0.878-5.697c-1.059-1.563-2.633-2.501-4.321-2.573
	c0.004-0.002-1.471,0.056-2.402,0.27c-1.187-2.399-2.738-2.973-5.106-3.685c-0.034-0.01-0.07-0.017-0.106-0.02
	c-2.522-0.188-4.492-0.505-4.999-2.693C591.591,756.458,591.39,756.297,591.157,756.297z"/>
</svg>
