<?xml version="1.0" encoding="utf-8"?>
<!-- Generator: Adobe Illustrator 14.0.0, SVG Export Plug-In . SVG Version: 6.00 Build 43363)  -->
<!DOCTYPE svg PUBLIC "-//W3C//DTD SVG 1.1//EN" "http://www.w3.org/Graphics/SVG/1.1/DTD/svg11.dtd">
<svg version="1.1" id="Background_copy_xA0_Image_1_"
	 xmlns="http://www.w3.org/2000/svg" xmlns:xlink="http://www.w3.org/1999/xlink" x="0px" y="0px" width="729px" height="969px"
	 viewBox="0 0 729 969" style="enable-background:new 0 0 729 969;" xml:space="preserve">
<style type="text/css">
<![CDATA[
	.st0{fill-rule:evenodd;clip-rule:evenodd;fill:none;stroke:#000000;stroke-width:3.3597;stroke-linecap:round;}
	.st1{fill-rule:evenodd;clip-rule:evenodd;fill:none;stroke:#000000;stroke-width:1.8166;stroke-linecap:round;}
	.st2{fill-rule:evenodd;clip-rule:evenodd;fill:none;stroke:#000000;stroke-width:2.0354;stroke-linecap:round;}
	.st3{fill-rule:evenodd;clip-rule:evenodd;fill:none;stroke:#000000;stroke-width:1.4355;stroke-linecap:round;}
	.st4{fill-rule:evenodd;clip-rule:evenodd;fill:none;stroke:#000000;stroke-width:4.062;stroke-linecap:round;}
	.st5{fill-rule:evenodd;clip-rule:evenodd;fill:none;stroke:#000000;stroke-width:1.9215;stroke-linecap:round;}
	.st6{fill-rule:evenodd;clip-rule:evenodd;fill:none;stroke:#000000;stroke-width:2.925;stroke-linecap:round;}
	.st7{fill-rule:evenodd;clip-rule:evenodd;fill:none;stroke:#000000;stroke-width:1.5736;stroke-linecap:round;}
	.st8{fill-rule:evenodd;clip-rule:evenodd;fill:none;stroke:#000000;stroke-width:1.4726;stroke-linecap:round;}
	.st9{fill-rule:evenodd;clip-rule:evenodd;fill:none;stroke:#000000;stroke-width:3.0938;stroke-linecap:round;}
	.st10{fill-rule:evenodd;clip-rule:evenodd;fill:none;stroke:#000000;stroke-width:2.0237;stroke-linecap:round;}
	.st11{fill-rule:evenodd;clip-rule:evenodd;fill:none;stroke:#000000;stroke-width:1.8484;stroke-linecap:round;}
	.st12{fill-rule:evenodd;clip-rule:evenodd;fill:none;stroke:#000000;stroke-width:1.732;stroke-linecap:round;}
	.st13{fill-rule:evenodd;clip-rule:evenodd;fill:none;stroke:#000000;stroke-width:1.8784;stroke-linecap:round;}
	.st14{fill-rule:evenodd;clip-rule:evenodd;fill:none;stroke:#000000;stroke-width:1.4206;stroke-linecap:round;}
	.st15{fill-rule:evenodd;clip-rule:evenodd;fill:none;stroke:#000000;stroke-width:2.0381;stroke-linecap:round;}
	.st16{fill-rule:evenodd;clip-rule:evenodd;fill:none;stroke:#000000;stroke-width:2.7749;stroke-linecap:round;}
	.st17{fill-rule:evenodd;clip-rule:evenodd;fill:none;stroke:#000000;stroke-width:2.746;stroke-linecap:round;}
	.st18{fill-rule:evenodd;clip-rule:evenodd;fill:none;stroke:#000000;stroke-width:2.1909;stroke-linecap:round;}
	.st19{fill-rule:evenodd;clip-rule:evenodd;fill:none;stroke:#000000;stroke-width:1.1643;stroke-linecap:round;}
	.st20{fill-rule:evenodd;clip-rule:evenodd;fill:none;stroke:#000000;stroke-width:1.5557;stroke-linecap:round;}
	.st21{fill-rule:evenodd;clip-rule:evenodd;fill:none;stroke:#000000;stroke-width:1.7451;stroke-linecap:round;}
	.st22{fill-rule:evenodd;clip-rule:evenodd;fill:none;stroke:#000000;stroke-width:3.4641;stroke-linecap:round;}
	.st23{fill-rule:evenodd;clip-rule:evenodd;fill:none;stroke:#000000;stroke-width:2.3979;stroke-linecap:round;}
	.st24{fill-rule:evenodd;clip-rule:evenodd;fill:none;stroke:#000000;stroke-width:1.9148;stroke-linecap:round;}
	.st25{fill-rule:evenodd;clip-rule:evenodd;fill:none;stroke:#000000;stroke-width:1.9251;stroke-linecap:round;}
	.st26{fill-rule:evenodd;clip-rule:evenodd;fill:none;stroke:#000000;stroke-width:1.6088;stroke-linecap:round;}
	.st27{fill-rule:evenodd;clip-rule:evenodd;fill:none;stroke:#000000;stroke-width:3;stroke-linecap:round;}
	.st28{fill-rule:evenodd;clip-rule:evenodd;fill:none;stroke:#000000;stroke-width:3.3381;stroke-linecap:round;}
	.st29{fill-rule:evenodd;clip-rule:evenodd;fill:none;stroke:#000000;stroke-width:2.7735;stroke-linecap:round;}
	.st30{fill-rule:evenodd;clip-rule:evenodd;fill:none;stroke:#000000;stroke-width:2.3894;stroke-linecap:round;}
	.st31{fill-rule:evenodd;clip-rule:evenodd;fill:none;stroke:#000000;stroke-width:2.0917;stroke-linecap:round;}
	.st32{fill-rule:evenodd;clip-rule:evenodd;fill:none;stroke:#000000;stroke-width:1.5969;stroke-linecap:round;}
	.st33{fill-rule:evenodd;clip-rule:evenodd;fill:none;stroke:#000000;stroke-width:1.7728;stroke-linecap:round;}
	.st34{fill-rule:evenodd;clip-rule:evenodd;fill:none;stroke:#000000;stroke-width:1.7043;stroke-linecap:round;}
	.st35{fill-rule:evenodd;clip-rule:evenodd;fill:none;stroke:#000000;stroke-width:2.1448;stroke-linecap:round;}
	.st36{fill-rule:evenodd;clip-rule:evenodd;fill:none;stroke:#000000;stroke-width:1.633;stroke-linecap:round;}
	.st37{fill-rule:evenodd;clip-rule:evenodd;fill:none;stroke:#000000;stroke-width:2.5268;stroke-linecap:round;}
	.st38{fill-rule:evenodd;clip-rule:evenodd;fill:none;stroke:#000000;stroke-width:2.2529;stroke-linecap:round;}
	.st39{fill-rule:evenodd;clip-rule:evenodd;fill:none;stroke:#000000;stroke-width:1.6997;stroke-linecap:round;}
	.st40{fill-rule:evenodd;clip-rule:evenodd;fill:none;stroke:#000000;stroke-width:1.2792;stroke-linecap:round;}
	.st41{fill-rule:evenodd;clip-rule:evenodd;fill:none;stroke:#000000;stroke-width:2.8284;stroke-linecap:round;}
	.st42{fill-rule:evenodd;clip-rule:evenodd;fill:none;stroke:#000000;stroke-width:1.2728;stroke-linecap:round;}
	.st43{fill-rule:evenodd;clip-rule:evenodd;fill:none;stroke:#000000;stroke-width:4.3589;stroke-linecap:round;}
	.st44{fill-rule:evenodd;clip-rule:evenodd;fill:none;stroke:#000000;stroke-width:2.22;stroke-linecap:round;}
	.st45{fill-rule:evenodd;clip-rule:evenodd;fill:none;stroke:#000000;stroke-width:3.1885;stroke-linecap:round;}
	.st46{fill-rule:evenodd;clip-rule:evenodd;fill:none;stroke:#000000;stroke-width:1.6257;stroke-linecap:round;}
	.st47{fill-rule:evenodd;clip-rule:evenodd;fill:none;stroke:#000000;stroke-width:2.2494;stroke-linecap:round;}
	.st48{fill-rule:evenodd;clip-rule:evenodd;fill:none;stroke:#000000;stroke-width:1.2249;stroke-linecap:round;}
	.st49{fill-rule:evenodd;clip-rule:evenodd;fill:none;stroke:#000000;stroke-width:2.2991;stroke-linecap:round;}
	.st50{fill-rule:evenodd;clip-rule:evenodd;fill:none;stroke:#000000;stroke-width:3.2146;stroke-linecap:round;}
	.st51{fill-rule:evenodd;clip-rule:evenodd;fill:none;stroke:#000000;stroke-width:2.7416;stroke-linecap:round;}
	.st52{fill-rule:evenodd;clip-rule:evenodd;fill:none;stroke:#000000;stroke-width:2.4615;stroke-linecap:round;}
	.st53{fill-rule:evenodd;clip-rule:evenodd;fill:none;stroke:#000000;stroke-width:2.195;stroke-linecap:round;}
	.st54{fill-rule:evenodd;clip-rule:evenodd;fill:none;stroke:#000000;stroke-width:3.8586;stroke-linecap:round;}
	.st55{fill-rule:evenodd;clip-rule:evenodd;fill:none;stroke:#000000;stroke-width:2.9019;stroke-linecap:round;}
	.st56{fill-rule:evenodd;clip-rule:evenodd;fill:none;stroke:#000000;stroke-width:3.4278;stroke-linecap:round;}
	.st57{fill-rule:evenodd;clip-rule:evenodd;fill:none;stroke:#000000;stroke-width:3.1145;stroke-linecap:round;}
	.st58{fill-rule:evenodd;clip-rule:evenodd;fill:none;stroke:#000000;stroke-width:2.3708;stroke-linecap:round;}
	.st59{fill-rule:evenodd;clip-rule:evenodd;fill:none;stroke:#000000;stroke-width:1.7221;stroke-linecap:round;}
	.st60{fill-rule:evenodd;clip-rule:evenodd;fill:none;stroke:#000000;stroke-width:2.1564;stroke-linecap:round;}
	.st61{fill-rule:evenodd;clip-rule:evenodd;fill:none;stroke:#000000;stroke-width:1.7097;stroke-linecap:round;}
	.st62{fill-rule:evenodd;clip-rule:evenodd;fill:none;stroke:#000000;stroke-width:2.6165;stroke-linecap:round;}
	.st63{fill-rule:evenodd;clip-rule:evenodd;fill:none;stroke:#000000;stroke-width:2;stroke-linecap:round;}
	.st64{fill-rule:evenodd;clip-rule:evenodd;fill:none;stroke:#000000;stroke-width:1.7594;stroke-linecap:round;}
	.st65{fill-rule:evenodd;clip-rule:evenodd;fill:none;stroke:#000000;stroke-width:1.8105;stroke-linecap:round;}
	.st66{fill-rule:evenodd;clip-rule:evenodd;fill:none;stroke:#000000;stroke-width:2.1044;stroke-linecap:round;}
	.st67{fill-rule:evenodd;clip-rule:evenodd;fill:none;stroke:#000000;stroke-width:1.9685;stroke-linecap:round;}
	.st68{fill-rule:evenodd;clip-rule:evenodd;fill:none;stroke:#000000;stroke-width:2.7775;stroke-linecap:round;}
	.st69{fill-rule:evenodd;clip-rule:evenodd;fill:none;stroke:#000000;stroke-width:3.6055;stroke-linecap:round;}
	.st70{fill-rule:evenodd;clip-rule:evenodd;fill:none;stroke:#000000;stroke-width:5.244;stroke-linecap:round;}
	.st71{fill-rule:evenodd;clip-rule:evenodd;fill:none;stroke:#000000;stroke-width:2.3632;stroke-linecap:round;}
	.st72{fill-rule:evenodd;clip-rule:evenodd;fill:none;stroke:#000000;stroke-width:2.3238;stroke-linecap:round;}
	.st73{fill-rule:evenodd;clip-rule:evenodd;fill:none;stroke:#000000;stroke-width:2.7608;stroke-linecap:round;}
	.st74{fill-rule:evenodd;clip-rule:evenodd;fill:none;stroke:#000000;stroke-width:1.5313;stroke-linecap:round;}
	.st75{fill-rule:evenodd;clip-rule:evenodd;fill:none;stroke:#000000;stroke-width:1.5904;stroke-linecap:round;}
	.st76{fill-rule:evenodd;clip-rule:evenodd;fill:none;stroke:#000000;stroke-width:1.964;stroke-linecap:round;}
	.st77{fill-rule:evenodd;clip-rule:evenodd;fill:none;stroke:#000000;stroke-width:1.4832;stroke-linecap:round;}
	.st78{fill-rule:evenodd;clip-rule:evenodd;fill:none;stroke:#000000;stroke-width:2.708;stroke-linecap:round;}
	.st79{fill-rule:evenodd;clip-rule:evenodd;fill:none;stroke:#000000;stroke-width:3.3325;stroke-linecap:round;}
	.st80{fill-rule:evenodd;clip-rule:evenodd;fill:none;stroke:#000000;stroke-width:2.4495;stroke-linecap:round;}
	.st81{fill-rule:evenodd;clip-rule:evenodd;fill:none;stroke:#000000;stroke-width:2.1985;stroke-linecap:round;}
	.st82{fill-rule:evenodd;clip-rule:evenodd;fill:none;stroke:#000000;stroke-width:1.8361;stroke-linecap:round;}
	.st83{fill-rule:evenodd;clip-rule:evenodd;fill:none;stroke:#000000;stroke-width:1.5986;stroke-linecap:round;}
	.st84{fill-rule:evenodd;clip-rule:evenodd;fill:none;stroke:#000000;stroke-width:1.7839;stroke-linecap:round;}
	.st85{fill-rule:evenodd;clip-rule:evenodd;fill:none;stroke:#000000;stroke-width:1.9671;stroke-linecap:round;}
	.st86{fill-rule:evenodd;clip-rule:evenodd;fill:none;stroke:#000000;stroke-width:3.0659;stroke-linecap:round;}
	.st87{fill-rule:evenodd;clip-rule:evenodd;fill:none;stroke:#000000;stroke-width:1.4509;stroke-linecap:round;}
	.st88{fill-rule:evenodd;clip-rule:evenodd;fill:none;stroke:#000000;stroke-width:1.8464;stroke-linecap:round;}
	.st89{fill-rule:evenodd;clip-rule:evenodd;fill:none;stroke:#000000;stroke-width:1.0801;stroke-linecap:round;}
	.st90{fill-rule:evenodd;clip-rule:evenodd;fill:none;stroke:#000000;stroke-width:1.556;stroke-linecap:round;}
	.st91{fill-rule:evenodd;clip-rule:evenodd;fill:none;stroke:#000000;stroke-width:2.2608;stroke-linecap:round;}
	.st92{fill-rule:evenodd;clip-rule:evenodd;fill:none;stroke:#000000;stroke-width:1.815;stroke-linecap:round;}
	.st93{fill-rule:evenodd;clip-rule:evenodd;fill:none;stroke:#000000;stroke-width:2.0817;stroke-linecap:round;}
	.st94{fill-rule:evenodd;clip-rule:evenodd;fill:none;stroke:#000000;stroke-width:3.055;stroke-linecap:round;}
	.st95{fill-rule:evenodd;clip-rule:evenodd;fill:none;stroke:#000000;stroke-width:1.7795;stroke-linecap:round;}
	.st96{fill-rule:evenodd;clip-rule:evenodd;fill:none;stroke:#000000;stroke-width:3.8079;stroke-linecap:round;}
	.st97{fill-rule:evenodd;clip-rule:evenodd;fill:none;stroke:#000000;stroke-width:2.1213;stroke-linecap:round;}
	.st98{fill-rule:evenodd;clip-rule:evenodd;fill:none;stroke:#000000;stroke-width:2.2617;stroke-linecap:round;}
	.st99{fill-rule:evenodd;clip-rule:evenodd;fill:none;stroke:#000000;stroke-width:3.1623;stroke-linecap:round;}
	.st100{fill-rule:evenodd;clip-rule:evenodd;fill:none;stroke:#000000;stroke-width:1.4142;stroke-linecap:round;}
	.st101{fill-rule:evenodd;clip-rule:evenodd;fill:none;stroke:#000000;stroke-width:1.3693;stroke-linecap:round;}
	.st102{fill-rule:evenodd;clip-rule:evenodd;fill:none;stroke:#000000;stroke-width:1.5546;stroke-linecap:round;}
	.st103{fill-rule:evenodd;clip-rule:evenodd;fill:none;stroke:#000000;stroke-width:1.4868;stroke-linecap:round;}
	.st104{fill-rule:evenodd;clip-rule:evenodd;fill:none;stroke:#000000;stroke-width:1.5846;stroke-linecap:round;}
	.st105{fill:#000000;fill-rule:evenodd;clip-rule:evenodd;}
	.st106{fill-rule:evenodd;clip-rule:evenodd;fill:none;stroke:#000000;stroke-width:2.2532;stroke-linecap:round;}
	.st107{fill-rule:evenodd;clip-rule:evenodd;fill:none;stroke:#000000;stroke-width:1.7678;stroke-linecap:round;}
	.st108{fill-rule:evenodd;clip-rule:evenodd;fill:none;stroke:#000000;stroke-width:2.3022;stroke-linecap:round;}
	.st109{fill-rule:evenodd;clip-rule:evenodd;fill:none;stroke:#000000;stroke-width:1.645;stroke-linecap:round;}
	.st110{fill-rule:evenodd;clip-rule:evenodd;fill:none;stroke:#000000;stroke-width:1.354;stroke-linecap:round;}
	.st111{fill-rule:evenodd;clip-rule:evenodd;fill:none;stroke:#000000;stroke-width:1.4907;stroke-linecap:round;}
	.st112{fill-rule:evenodd;clip-rule:evenodd;fill:none;stroke:#000000;stroke-width:2.7568;stroke-linecap:round;}
	.st113{fill-rule:evenodd;clip-rule:evenodd;fill:none;stroke:#000000;stroke-width:1.4616;stroke-linecap:round;}
	.st114{fill-rule:evenodd;clip-rule:evenodd;fill:none;stroke:#000000;stroke-width:1.2566;stroke-linecap:round;}
	.st115{fill-rule:evenodd;clip-rule:evenodd;fill:none;stroke:#000000;stroke-width:2.4238;stroke-linecap:round;}
	.st116{fill-rule:evenodd;clip-rule:evenodd;fill:none;stroke:#000000;stroke-width:1.5;stroke-linecap:round;}
	.st117{fill-rule:evenodd;clip-rule:evenodd;fill:none;stroke:#000000;stroke-width:1.5667;stroke-linecap:round;}
	.st118{fill-rule:evenodd;clip-rule:evenodd;fill:none;stroke:#000000;stroke-width:1.6583;stroke-linecap:round;}
	.st119{fill-rule:evenodd;clip-rule:evenodd;fill:none;stroke:#000000;stroke-width:1.5044;stroke-linecap:round;}
	.st120{fill-rule:evenodd;clip-rule:evenodd;fill:none;stroke:#000000;stroke-width:2.9627;stroke-linecap:round;}
	.st121{fill-rule:evenodd;clip-rule:evenodd;fill:none;stroke:#000000;stroke-width:2.1602;stroke-linecap:round;}
	.st122{fill-rule:evenodd;clip-rule:evenodd;fill:none;stroke:#000000;stroke-width:2.6141;stroke-linecap:round;}
	.st123{fill-rule:evenodd;clip-rule:evenodd;fill:none;stroke:#000000;stroke-width:1.995;stroke-linecap:round;}
	.st124{fill-rule:evenodd;clip-rule:evenodd;fill:none;stroke:#000000;stroke-width:1.8257;stroke-linecap:round;}
	.st125{fill-rule:evenodd;clip-rule:evenodd;fill:none;stroke:#000000;stroke-width:2.7689;stroke-linecap:round;}
	.st126{fill-rule:evenodd;clip-rule:evenodd;fill:none;stroke:#000000;stroke-width:2.0248;stroke-linecap:round;}
	.st127{fill-rule:evenodd;clip-rule:evenodd;fill:none;stroke:#000000;stroke-width:2.3452;stroke-linecap:round;}
	.st128{fill-rule:evenodd;clip-rule:evenodd;fill:none;stroke:#000000;stroke-width:3.0823;stroke-linecap:round;}
	.st129{fill-rule:evenodd;clip-rule:evenodd;fill:none;stroke:#000000;stroke-width:3.7091;stroke-linecap:round;}
	.st130{fill-rule:evenodd;clip-rule:evenodd;fill:none;stroke:#000000;stroke-width:3.3665;stroke-linecap:round;}
	.st131{fill-rule:evenodd;clip-rule:evenodd;fill:none;stroke:#000000;stroke-width:2.1858;stroke-linecap:round;}
	.st132{fill-rule:evenodd;clip-rule:evenodd;fill:none;stroke:#000000;stroke-width:4.1952;stroke-linecap:round;}
	.st133{fill-rule:evenodd;clip-rule:evenodd;fill:none;stroke:#000000;stroke-width:4.4721;stroke-linecap:round;}
	.st134{fill-rule:evenodd;clip-rule:evenodd;fill:none;stroke:#000000;stroke-width:2.7634;stroke-linecap:round;}
	.st135{fill-rule:evenodd;clip-rule:evenodd;fill:none;stroke:#000000;stroke-width:1.7888;stroke-linecap:round;}
	.st136{fill-rule:evenodd;clip-rule:evenodd;fill:none;stroke:#000000;stroke-width:2.4833;stroke-linecap:round;}
	.st137{fill-rule:evenodd;clip-rule:evenodd;fill:none;stroke:#000000;stroke-width:1.9097;stroke-linecap:round;}
	.st138{fill-rule:evenodd;clip-rule:evenodd;fill:none;stroke:#000000;stroke-width:2.2689;stroke-linecap:round;}
	.st139{fill-rule:evenodd;clip-rule:evenodd;fill:none;stroke:#000000;stroke-width:1.8605;stroke-linecap:round;}
	.st140{fill-rule:evenodd;clip-rule:evenodd;fill:none;stroke:#000000;stroke-width:1.8708;stroke-linecap:round;}
	.st141{fill-rule:evenodd;clip-rule:evenodd;fill:none;stroke:#000000;stroke-width:1.5492;stroke-linecap:round;}
	.st142{fill-rule:evenodd;clip-rule:evenodd;fill:none;stroke:#000000;stroke-width:2.4198;stroke-linecap:round;}
	.st143{fill-rule:evenodd;clip-rule:evenodd;fill:none;stroke:#000000;stroke-width:1.344;stroke-linecap:round;}
	.st144{fill-rule:evenodd;clip-rule:evenodd;fill:none;stroke:#000000;stroke-width:1.8126;stroke-linecap:round;}
	.st145{fill-rule:evenodd;clip-rule:evenodd;fill:none;stroke:#000000;stroke-width:2.8536;stroke-linecap:round;}
	.st146{fill-rule:evenodd;clip-rule:evenodd;fill:none;stroke:#000000;stroke-width:2.3094;stroke-linecap:round;}
	.st147{fill-rule:evenodd;clip-rule:evenodd;fill:none;stroke:#000000;stroke-width:1.4056;stroke-linecap:round;}
	.st148{fill-rule:evenodd;clip-rule:evenodd;fill:none;stroke:#000000;stroke-width:1.6832;stroke-linecap:round;}
	.st149{fill-rule:evenodd;clip-rule:evenodd;fill:none;stroke:#000000;stroke-width:3.1972;stroke-linecap:round;}
	.st150{fill-rule:evenodd;clip-rule:evenodd;fill:none;stroke:#000000;stroke-width:3.5657;stroke-linecap:round;}
	.st151{fill-rule:evenodd;clip-rule:evenodd;fill:none;stroke:#000000;stroke-width:1.4;stroke-linecap:round;}
	.st152{fill-rule:evenodd;clip-rule:evenodd;fill:none;stroke:#000000;stroke-width:4.0708;stroke-linecap:round;}
	.st153{fill-rule:evenodd;clip-rule:evenodd;fill:none;stroke:#000000;stroke-width:2.273;stroke-linecap:round;}
	.st154{fill-rule:evenodd;clip-rule:evenodd;fill:none;stroke:#000000;stroke-width:1.5728;stroke-linecap:round;}
	.st155{fill-rule:evenodd;clip-rule:evenodd;fill:none;stroke:#000000;stroke-width:1.6903;stroke-linecap:round;}
	.st156{fill-rule:evenodd;clip-rule:evenodd;fill:none;stroke:#000000;stroke-width:2.6992;stroke-linecap:round;}
	.st157{fill-rule:evenodd;clip-rule:evenodd;fill:none;stroke:#000000;stroke-width:1.6353;stroke-linecap:round;}
	.st158{fill-rule:evenodd;clip-rule:evenodd;fill:none;stroke:#000000;stroke-width:2.2361;stroke-linecap:round;}
	.st159{fill-rule:evenodd;clip-rule:evenodd;fill:none;stroke:#000000;stroke-width:1.8547;stroke-linecap:round;}
	.st160{fill-rule:evenodd;clip-rule:evenodd;fill:none;stroke:#000000;stroke-width:1.339;stroke-linecap:round;}
	.st161{fill-rule:evenodd;clip-rule:evenodd;fill:none;stroke:#000000;stroke-width:1.1738;stroke-linecap:round;}
	.st162{fill-rule:evenodd;clip-rule:evenodd;fill:none;stroke:#000000;stroke-width:2.0412;stroke-linecap:round;}
	.st163{fill-rule:evenodd;clip-rule:evenodd;fill:none;stroke:#000000;stroke-width:2.7988;stroke-linecap:round;}
	.st164{fill-rule:evenodd;clip-rule:evenodd;fill:none;stroke:#000000;stroke-width:3.0822;stroke-linecap:round;}
	.st165{fill-rule:evenodd;clip-rule:evenodd;fill:none;stroke:#000000;stroke-width:1.3964;stroke-linecap:round;}
	.st166{fill-rule:evenodd;clip-rule:evenodd;fill:none;stroke:#000000;stroke-width:2.1795;stroke-linecap:round;}
	.st167{fill-rule:evenodd;clip-rule:evenodd;fill:none;stroke:#000000;stroke-width:1.8918;stroke-linecap:round;}
	.st168{fill-rule:evenodd;clip-rule:evenodd;fill:none;stroke:#000000;stroke-width:2.5604;stroke-linecap:round;}
	.st169{fill-rule:evenodd;clip-rule:evenodd;fill:none;stroke:#000000;stroke-width:2.0494;stroke-linecap:round;}
	.st170{fill-rule:evenodd;clip-rule:evenodd;fill:none;stroke:#000000;stroke-width:2.6458;stroke-linecap:round;}
	.st171{fill-rule:evenodd;clip-rule:evenodd;fill:none;stroke:#000000;stroke-width:2.2803;stroke-linecap:round;}
	.st172{fill-rule:evenodd;clip-rule:evenodd;fill:none;stroke:#000000;stroke-width:3.873;stroke-linecap:round;}
	.st173{fill-rule:evenodd;clip-rule:evenodd;fill:none;stroke:#000000;stroke-width:1.4557;stroke-linecap:round;}
	.st174{fill-rule:evenodd;clip-rule:evenodd;fill:none;stroke:#000000;stroke-width:1.9843;stroke-linecap:round;}
	.st175{fill-rule:evenodd;clip-rule:evenodd;fill:none;stroke:#000000;stroke-width:3.4319;stroke-linecap:round;}
	.st176{fill-rule:evenodd;clip-rule:evenodd;fill:none;stroke:#000000;stroke-width:2.9277;stroke-linecap:round;}
	.st177{fill-rule:evenodd;clip-rule:evenodd;fill:none;stroke:#000000;stroke-width:3.0414;stroke-linecap:round;}
	.st178{fill-rule:evenodd;clip-rule:evenodd;fill:none;stroke:#000000;stroke-width:1.4005;stroke-linecap:round;}
	.st179{fill-rule:evenodd;clip-rule:evenodd;fill:none;stroke:#000000;stroke-width:3.06;stroke-linecap:round;}
	.st180{fill-rule:evenodd;clip-rule:evenodd;fill:none;stroke:#000000;stroke-width:1.4337;stroke-linecap:round;}
	.st181{fill-rule:evenodd;clip-rule:evenodd;fill:none;stroke:#000000;stroke-width:3.0984;stroke-linecap:round;}
]]>
</style>
<g>
	<g>
		<path class="st105" d="M72.5,3.5L72,2c6.364,0.844,10.249,4.485,11,9c2.221,13.346-16.188,18.403-23,25l-0.5-1.5L58,34
			c2.29-11.525,23.171-15.368,14-29L72.5,3.5z"/>
		<path class="st105" d="M636,0c0,0.667,0,1.333,0,2c-0.578,5.384-10.322,2.941-14,3C452.199,7.71,278.042,5.903,110,5
			c-4.997-0.027-14.812,2.262-15-3c0.003-1.003-0.81-1.19-1-2C274.666,0,455.334,0,636,0z"/>
		<path class="st105" d="M77,2c0.125-2.208,4.242-0.425,6-1c0,1.333,0,2.667,0,4C79.956,5.044,79.111,2.889,77,2z"/>
		<path class="st105" d="M670,35c-5.126-5.001-20.61-9.11-22-19c-0.932-6.625,2.186-13.596,12-14l-0.5,1.5L661,4
			c-0.982,1.352-2.669,1.999-4,3c-1.685,15.018,11.499,15.167,15,25l-1.301,1.3L670,35z"/>
		<path class="st105" d="M14,99c0-1,0-2,0-3c6.286-6.452,16.507-19.018,26-13c-5.65,8.016-17.144,10.19-24,17l-0.5-1.5L14,99z"/>
		<path class="st105" d="M28.5,105.5L27,106c0-1.667,0-3.333,0-5l1.5-0.5L28,99c0.667,0,1.333,0,2,0c1.656,2.009,3.589,7.648-1,8
			L28.5,105.5z"/>
		<path class="st105" d="M23,20l1-1c0.333,0,0.667,0,1,0l1,0.5l1-0.5c1.595,0.738-0.228,4.895,3,4l0.5,1.5L32,25
			c0,1.333,0,2.667,0,4l-2.5-0.5L29,31c-1.333,0-2.667,0-4,0l-0.5-1.5L23,29c0.248-1.086,1.988-0.678,2-2
			c-3.15,0.483-2.264-3.069-6-2v-2v-2c1.71-0.21,2.59,1.705,3,0L23,20z"/>
		<path class="st105" d="M48.5,36.5L50,37c-0.729,2.729,1.987,2.013,2,4l-1.5,0.5L51,43c-2.063,1.707-5.937-1.385-8-3l0.5-1.5L43,37
			c0.851,0.184,0.943-0.39,1-1l1.5,0.5L45,35c1.333,0,2.667,0,4,0L48.5,36.5z"/>
		<path class="st105" d="M62,61.75L63,60c1.357,0.31,0.83,2.504,1,4l-1.5-0.5L63,65c-2.319,0.319-3.839-0.161-5-1l0.5-1.5L57,62
			l2.1-0.1L60,60c0.333,0,0.667,0,1,0L62,61.75z"/>
		<path class="st105" d="M72.5,74.5L71,75c2.226-12.641-9.376-20.715-3-31l1.5,0.5L71,44c0.581,10.705,9.431,22.364,2,32L72.5,74.5z
			"/>
		<path class="st105" d="M53.5,88.5L54,90c-4.659,1.979-14.442,1.361-18-1c3.392-6.592,8.983-1.27,17-2L53.5,88.5z"/>
		<path class="st105" d="M58,55c0,0.667,0,1.333,0,2l-2.25-0.5L54,58c-1.163,0.163-1.779-0.221-2-1l-0.5-1L51,55
			c0.959-1.687,3.142-2.947,5-1l0.5,1.5L58,55z"/>
		<path class="st105" d="M726,45c1.67,4.063-1.737,5.39-3,7c-4.313-0.688-5.576-4.425-6-9l1.5,0.5L719,42
			c0.954,0.522,3.318,4.486,4,2l1.5,0.5L726,45z"/>
		<path class="st105" d="M685.5,52.5L687,53c1.142,2.932,0.589,3.714-2,5l-1.167-1.5L682,57c0-0.333,0-0.667,0-1l0.1-2.1L683,52
			c1.439,0.534,2.439-3.897,3-1L685.5,52.5z"/>
		<path class="st105" d="M672.5,61.5L673,63c-0.891,0.777-2.259,1.075-4,1l-0.5-1.5L667,63c-0.086-1.419-0.166-2.832,1-3l2,1.5V59
			c0.333,0,0.666,0,1,0l0.899,1.9L674,61L672.5,61.5z"/>
		<path class="st105" d="M678.643,87.214L680,86c5.675-0.683,13.048-4.357,15,2c-4.543,0.816-13.724,2.244-18,0L678.643,87.214z"/>
		<path class="st105" d="M658.5,71.5L658,73c-5.935-9.59,2.11-19.855,2-30l1.5,0.5L662,42c7.793,8.194-2.065,19.167-2,29L658.5,71.5
			z"/>
		<path class="st105" d="M673.5,45.5L672,45c0.664-4.045,3.005-1.745,5-3l0.5,1.5L678,45c0,0.333,0,0.667,0,1l-2.278,1.556L673,48
			c0-0.333,0-0.667,0-1L673.5,45.5z"/>
		<path class="st105" d="M704.5,17.5L705,16c0.972,0.027,0.775,1.224,1,2l-0.167,2.833L708,19l-0.5,1.5L709,20
			c-0.185,0.851,0.39,0.943,1,1l0.5,1.5L711,24c-1.274,1.393-4.899,0.435-5,3l0.5,1.5L706,30c-3.236-0.569-5.03,0.303-6,2l-1-1.5
			l-1-1.5c1.283-1.314,1.283-3.686,0-5l1-1.5l1-1.5c1.086,0.247,0.678,1.988,2,2c1.151-1.182,1.132-3.535,1-6L704.5,17.5z"/>
		<path class="st105" d="M724,12h2c1.066,0.933,0.311,3.689,3,3c0,2,0,4,0,6c-0.805,0.529-1.624,1.043-3,1l0.5-1.5L725,20
			c0.184-0.851-0.391-0.943-1-1l0.5-1.5L723,17c-0.227-1.44-2.985-0.349-3-2l0.5-1l-0.5-1c0.81-0.19,0.996-1.003,2-1H724z"/>
		<path class="st105" d="M675,56l-2-1c0-0.333,0-0.667,0-1l1.5,0.5L675,53c0.738-0.708,4.895-2.492,4,1l-1.5,1.167L678,57
			c-0.811,0.19-0.997,1.003-2,1L675,56z"/>
		<path class="st105" d="M729,81c0,295.998,0,592,0,888c-3.334,0-6.667,0-10,0c-1.363-5.029,4.026-3.307,6-5c0-28.667,0-57.333,0-86
			c0.383-3.384-4.427-1.573-3-6c-1.012-4.678,4.011-3.322,3-8c0-236.367,0-483.56,0-725c0-21.81,2.362-43.965-4-57l1.785,0.357
			L724,81c0.81-0.19,0.996-1.003,2-1l1.166,1.5L729,81z"/>
		<path class="st105" d="M700.5,82.5L702,82c6.938,3.729,14.033,7.3,15,17l-1.5-0.5L715,100c-4.563-8.833-21.656-10.26-23-19
			c2.646-2.294,6.353-2.294,9,0L700.5,82.5z"/>
		<path class="st105" d="M3.833,884.5L2,885c0-9.667,0-19.333,0-29l1.833,0.5L5,855c2.207,11.201,3.602,20.688,0,31L3.833,884.5z"/>
		<path class="st105" d="M3.833,99.5L2,100c0-4.667,0-9.333,0-14l2.5,0.5L5,84c0.333,0,0.667,0,1,0l1.214,1.357L9,85
			c-1.991,4.675-2.586,10.747-4,16L3.833,99.5z"/>
		<g>
			<path class="st141" d="M57,2c1.618-0.521,3.474-0.185,5-1"/>
			<path class="st134" d="M62,1c1.124,0.07,2.887,0.489,4.5,0.5"/>
			<path class="st125" d="M66.5,1.5c2.063,0.498,3.997,1.396,6,2"/>
			<path class="st52" d="M63.5,40.5c-1.057,0.293-1.886,0.459-2.839,0.439c-2.239-1.15-2.955-4.597-1.161-6.439"/>
			<path class="st175" d="M91.167,2.167C93.695,5.512,90.397,9.928,87,11"/>
			<path class="st112" d="M85.5,1c1.987-0.25,3.891,0.334,5.667,1.167"/>
			<path class="st120" d="M646.5,1.5c1.666,1.128,3.333,0.96,5,0.5"/>
			<path class="st86" d="M639.833,2.167c-0.173,0.222-0.346,0.443-0.518,0.665c-1.332,3.611,1.443,8.152,5.185,8.668"/>
			<path class="st29" d="M639.833,2.167C641.858,1.12,644.327,0.5,646.5,1.5"/>
			<path class="st106" d="M659.5,3.5c4.051-2.527,9.004-1.143,13.5-1.5"/>
			<path class="st181" d="M668.5,40c0.702,0.026,1.254-0.008,1.798-0.045c2.029-1.591,2.206-4.809,0.401-6.655"/>
			<path class="st92" d="M661,8c2.699-0.826,5.619-1.119,8.5-1"/>
			<path class="st163" d="M692.5,77.5c4.317-1.943,8.302-5.031,11.666-8.333"/>
			<path class="st71" d="M692.5,77.5c-6.506,8.697-29.85,1.947-18.533-8.38c0.417,0.007,0.972,0.189,1.533,0.38"/>
			<path class="st30" d="M692.5,77.5c-0.933-1.887-1.705-2.188-2.749-3.185c-2.377-10.894,12.642-13.382,19.415-8.481"/>
			<path class="st123" d="M21,67c7.079-4.986,21.064-3.668,20.5,7.5"/>
			<path class="st142" d="M55.5,70.5c0.691-0.292,1.27-0.38,1.843-0.458c3.565,0.974,3.621,5.284,2.851,8.151
				C50.585,88.448,34.145,78.916,26.5,70"/>
			<path class="st33" d="M15.5,98.5c-3.393,7.615,8.702,12.853,13,7"/>
			<path class="st97" d="M24,100c1.124-0.042,2.887-0.066,4.5,0.5"/>
			<path class="st48" d="M17.5,968.5c232.333,0,464.667,0,697,0"/>
			<path class="st100" d="M1,17c-0.167-0.167-0.333-0.333-0.5-0.5"/>
			<path class="st170" d="M1,17c0.621,0.149,1.847,0.618,3,1"/>
			<line class="st133" x1="4" y1="18" x2="4" y2="18"/>
			<path class="st130" d="M4,18c0.52-1.681,1.51-3.135,2.333-4.667"/>
			<path class="st63" d="M6.333,13.333C4.001,12.082,2.263,10.29,1,8"/>
			<path class="st169" d="M1,8C0.807,6.52,1.48,4.785,0.5,3.5"/>
			<path class="st133" d="M6.333,13.333c0.139-0.07,0.278-0.139,0.417-0.208"/>
			<path class="st50" d="M6.75,13.125C7.365,11.933,8.263,10.868,9,10"/>
			<path class="st25" d="M9,10C7.919,8.577,5.69,8.127,5.064,6.49C5.345,4.913,7.076,4.136,7,2.5"/>
			<path class="st96" d="M9,10c0.252-0.077,0.728-0.355,1.214-0.643"/>
			<path class="st23" d="M10.214,9.357c0.243-0.697,0.562-1.293,0.884-1.884C11.893,7.133,13.249,6.977,14.5,6.5"/>
			<path class="st168" d="M14.5,6.5c0.1-0.284,0.2-0.568,0.3-0.853c1.069-0.499,2.405-0.645,3.7-1.147"/>
			<path class="st166" d="M21.75,3c0.53-0.82,1.464-0.894,2.083-1.167"/>
			<path class="st148" d="M23.833,1.833C26.031,4.332,24.379,8.138,24,11"/>
			<path class="st102" d="M26,19.5c0.508-6.114,2.515-12.258,2.167-18.333"/>
			<path class="st35" d="M28.167,1.167C28.899,0.938,30.258,1.108,31.5,1.5"/>
			<path class="st140" d="M31.5,1.5c1.694-1.142,3.377-0.982,4.667-0.333"/>
			<path class="st173" d="M36.167,1.167c0.848,3.968-4.389,7.808-2.543,10.726c3.529-2.834,7.418-6.256,8.543-10.726"/>
			<path class="st111" d="M42.167,1.167C43.839,0.406,46.068,0.005,47.5,1.5"/>
			<path class="st9" d="M47.5,1.5c1.373-0.04,2.624,0.042,3.75,0.25"/>
			<path class="st164" d="M51.25,1.75c0.137,0.53,0.195,1.138,0.25,1.75"/>
			<path class="st159" d="M53.5,7c5.465,0.21,11.359-0.399,17,0.5"/>
			<path class="st12" d="M37.167,14.167c-2.791,2.982-7.075,5.682-6.667,10.333"/>
			<path class="st26" d="M30.5,24.5c7.146-5.846,15.801-9.025,24.75-10.75"/>
			<path class="st18" d="M55.25,13.75c0.665-1.265,1.441-1.61,2.25-2.25"/>
			<path class="st164" d="M55.25,13.75c0.175,0.825,0.191,1.809,0.25,2.75"/>
			<path class="st108" d="M55.5,16.5c0.62,0.625,1.056,1.265,1.357,1.917c-0.468,1.193-1.131,2.536-1.524,3.583"/>
			<path class="st99" d="M55.333,22c0.737,2.108-0.59,4.143-1.548,5.929"/>
			<path class="st63" d="M53.786,27.929c-0.973,2.067-1.647,3.113-2.036,4.071"/>
			<path class="st124" d="M51.75,32c0.242,0.966,0.254,2.163,0.1,2.958c-0.752,0.33-2.104,0.639-3.35,1.542"/>
			<path class="st58" d="M56,45.25c0.165-0.057,0.329-0.114,0.493-0.171c0.532,0.069,1.182,0.382,1.746,0.698
				c1.813,5.102,3.986,10.31,3.761,15.973"/>
			<path class="st15" d="M53.5,88.5c8.541,1.317,16.071-6.651,19-14"/>
			<path class="st37" d="M75,41c-2.475-0.955-5.498,0.685-5.5,3.5"/>
			<path class="st20" d="M53.5,88.5c0.242-0.619,0.421-1.041,0.597-1.453C65.2,86.19,71.965,71.291,62.5,63.5"/>
			<path class="st61" d="M31.5,1.5c-0.503,2.297-1.071,4.612-1,7"/>
			<path class="st51" d="M37.167,14.167C42.801,12.558,49.248,11.558,53.5,7"/>
			<path class="st136" d="M53.5,7c-0.239-1.06-1.104-2.276-2-3.5"/>
			<path class="st151" d="M51.5,3.5c-2.273,2.488-5.129,4.46-8,6"/>
			<path class="st101" d="M47.5,1.5c-1.159,6.043-10.501,7.012-10.333,12.667"/>
			<path class="st147" d="M19,23c-4.889,2.729-11.403,2.66-17,2.25"/>
			<path class="st97" d="M2,25.25C1.985,26.454,2.114,27.212,2.25,28"/>
			<path class="st117" d="M2.25,28c3.734,0.628,6.603-0.298,10.25-0.5"/>
			<path class="st97" d="M2.25,28C2.075,28.649,2.059,29.618,2,30.5"/>
			<path class="st158" d="M2,30.5c0.167,0.333,0.333,0.667,0.5,1"/>
			<path class="st44" d="M2.5,31.5c2.313-0.605,4.721-0.309,7-1"/>
			<path class="st67" d="M2.5,31.5c-0.862,1.504-0.289,3.376,0.667,4.667"/>
			<path class="st77" d="M3.167,36.167c3.04-0.575,6.848-1.842,8.333-4.667"/>
			<path class="st155" d="M3.167,36.167C2.713,37.409,1.539,39.413,3.5,40"/>
			<path class="st178" d="M3.5,40c4.778,0.713,7.021-4.635,10.104-6.911C13.557,37.134,9.544,43.661,4.5,44.5"/>
			<path class="st80" d="M4.5,44.5c0.343,1.75,0.627,3.465,2,4"/>
			<path class="st75" d="M6.5,48.5c2.505-0.921,3.527-3.858,6-5"/>
			<path class="st180" d="M12.5,43.5c2.336-5.579,4.807-13.649,12-14"/>
			<path class="st21" d="M20.5,14.5c1.44-3.451,1.653-7.711,1.25-11.5"/>
			<path class="st153" d="M21.75,3c-0.843-0.026-1.437,0.008-2.018,0.044C19.349,3.283,18.925,3.883,18.5,4.5"/>
			<path class="st81" d="M18.25,11.75c1.169-2.126,0.953-4.985,0.25-7.25"/>
			<path class="st114" d="M13,15c3.782,0.863,6.424,3.829,10,5"/>
			<path class="st140" d="M23,20c-0.234-2.099-1.244-3.873-2.5-5.5"/>
			<path class="st41" d="M20.5,14.5c-1.158-0.9-1.652-1.892-2.25-2.75"/>
			<path class="st164" d="M18.25,11.75c-0.25-0.083-0.5-0.167-0.75-0.25"/>
			<path class="st155" d="M17.5,11.5c-0.93-1.722-2.284-3.151-3-5"/>
			<path class="st14" d="M10.214,9.357c2.12,1.389,4.707,2.182,7.286,2.143"/>
			<path class="st27" d="M16.5,21.5c1.134,0.442,1.718,0.99,2.5,1.5"/>
			<path class="st39" d="M13,15c-1.992-0.847-4.292-0.824-6.25-1.875"/>
			<path class="st164" d="M4,18c1.351,0.351,2.382,0.382,3.5,0.5"/>
			<path class="st161" d="M7.5,18.5c1.254-2.135,4.069-1.588,5.5-3.5"/>
			<path class="st6" d="M34.5,35c2.177,0.206,3.802,1.807,5.5,3"/>
			<path class="st72" d="M40,38c1.351-0.029,2.382,0.229,3.5,0.5"/>
			<path class="st42" d="M39.5,32.5c1.186,2.158,4.284,2.299,6,4"/>
			<path class="st64" d="M51.75,32c-4.07-0.013-9.311,0.445-12.25-2.5"/>
			<path class="st24" d="M53.786,27.929c-4.793,0.375-9.499-0.373-14.286-0.429"/>
			<path class="st107" d="M55.333,22c-4.313,0.672-8.363,2.337-12.833,2.5"/>
			<path class="st59" d="M55.5,16.5c-4.628,2.6-9.732,4.394-15,5"/>
			<path class="st12" d="M16.5,21.5c-0.497-0.729-0.854-1.217-1.203-1.694C12.731,19.042,10.045,19.26,7.5,18.5"/>
			<path class="st91" d="M4,18c-0.405,1.411,0.277,2.525,0.858,3.581c3.754,0.632,7.91,0.767,11.642-0.081"/>
			<path class="st83" d="M24.5,29.5c-6.505,6.416-7.596,15.979-10.261,24.264c0.867,0.374,2.671-0.101,4.261-0.264"/>
			<path class="st167" d="M18.5,53.5c1.285-3.245,1.424-6.624,2-10"/>
			<path class="st115" d="M18.5,53.5c0.332,0.187,0.664,0.375,0.996,0.562c1.408-0.171,2.542-0.963,4.004-1.562"/>
			<path class="st85" d="M23.5,52.5c-1.026-3.902-0.084-8.074-1-12"/>
			<path class="st122" d="M23.5,52.5c1.333,0.692,2.667,0.339,4,0"/>
			<path class="st34" d="M27.5,52.5c-1.036-3.596-0.138-7.745-2-11"/>
			<path class="st170" d="M27.5,52.5c1.333-0.208,2.667-0.524,4-1"/>
			<path class="st7" d="M31.5,51.5c-0.093-4.012-3.028-7.1-3-11"/>
			<path class="st127" d="M31.5,51.5c1.132-0.394,2.52-1.649,3.5-2.5"/>
			<path class="st109" d="M35,49c-1.195-3.145-2.778-6.285-3.5-9.5"/>
			<path class="st56" d="M35,49c0.303,0.134,2.225-1.288,3.333-2.333"/>
			<path class="st79" d="M38.333,46.667c0.779-4.575-3.56-7.359-3.833-11.667"/>
			<path class="st4" d="M34.5,35c-1.565-2.237-3.46-4.233-5-6.5"/>
			<path class="st166" d="M38.333,46.667c2.308,2.516,4.433,5.839,6.833,8.5"/>
			<path class="st121" d="M45.167,55.167c0.533-0.087,1.491-0.355,2.333-0.667"/>
			<path class="st89" d="M47.5,54.5c-0.654-1.612-2.554-2.372-3-4"/>
			<path class="st164" d="M47.5,54.5c0.637-0.03,1.195-0.138,1.75-0.25"/>
			<path class="st181" d="M49.25,54.25c0.251-1.187,0.188-2.366,0.083-3.25"/>
			<path class="st19" d="M49.333,51c-2.794,0.031-4.335-2.596-5.833-4.5"/>
			<path class="st40" d="M40,38c2.123,4.457,5.633,8.704,9.786,11.643"/>
			<path class="st69" d="M49.786,49.643c0.321-0.214,0.643-0.429,0.964-0.643"/>
			<path class="st110" d="M50.75,49c-0.992-1.205-1.592-3.13-3.25-3.5"/>
			<path class="st27" d="M50.75,49c1.593,0.414,3.184,0.971,4.75,1.5"/>
			<path class="st97" d="M55.5,50.5c0.543-1.646,0.447-3.3,0.5-5.25"/>
			<path class="st12" d="M56,45.25c-2.334-0.655-3.279-3.019-5.5-3.75"/>
			<path class="st140" d="M55.5,50.5c1.106,1.376,2.026,3.294,1,5"/>
			<path class="st99" d="M49.786,49.643c-0.151,0.452-0.302,0.905-0.452,1.357"/>
			<path class="st72" d="M49.25,54.25c0.456,0.995,1.223,1.513,2.25,1.75"/>
			<path class="st62" d="M45.167,55.167c-0.043,0.176-0.087,0.353-0.13,0.529c-0.071,0.493,0.094,0.96,0.271,1.426
				c3.348,2.419,6.771,4.826,10.576,6.521c0.73-0.053,1.71-0.559,2.618-1.142"/>
			<path class="st22" d="M59.1,61.9c-0.833-1.978-2.534-3.425-3.35-5.4"/>
			<path class="st93" d="M3.5,40c-0.015,1.864-0.409,2.644-0.418,3.429C3.298,43.73,3.89,44.113,4.5,44.5"/>
			<path class="st88" d="M6.5,48.5c0.282,1.066,0.654,1.941,1.197,2.693c0.905,0.058,1.609-0.169,2.248-0.326
				c1.698-2.049,2.688-4.629,2.556-7.367"/>
			<path class="st172" d="M691.9,45.9c-0.05,0.034-0.1,0.067-0.149,0.1"/>
			<path class="st46" d="M691.75,46c-1.787,2.423-3.186,5.446-6.25,6.5"/>
			<path class="st55" d="M683.833,56.5c-2.398,3.021-7.353,7.457-11.333,5"/>
			<path class="st57" d="M672.5,85.5c1.868,1.278,4.348,0.427,6.143,1.714"/>
			<path class="st84" d="M672.5,85.5c-7.288-0.384-11.939-7.763-14-14"/>
			<path class="st53" d="M655.833,40.833c0.109-0.173,0.22-0.345,0.329-0.518c0.579-0.23,1.454-0.237,2.148-0.255
				c1.286,0.878,2.458,2.048,3.189,3.44"/>
			<path class="st104" d="M672.5,85.5c-7.548-4.971-11.483-15.728-4-23"/>
			<path class="st138" d="M670,61.5c-2.285-4.699,0.099-12.313,3.5-16"/>
			<path class="st4" d="M683.445,39.278c-0.236-0.969-0.368-2.284-0.444-3.278"/>
			<path class="st35" d="M683,36c-1.218-0.834-2.719-0.831-3.741-1.941c-0.202-0.688,0.025-1.664,0.241-2.559"/>
			<path class="st76" d="M679.5,31.5c-1.324-1.289-3.516-2.948-2-5"/>
			<path class="st66" d="M677.5,26.5c-1.526-1.178-2.748-3.028-2-5"/>
			<path class="st156" d="M675.5,21.5c-0.444-1.42-0.873-2.58-1.046-3.446c0.155-0.428,0.594-0.988,1.046-1.554"/>
			<path class="st164" d="M675.5,16.5c-0.015-1.015,0.113-1.886,0.25-2.75"/>
			<path class="st78" d="M675.75,13.75c-0.482-0.509-1.075-1.284-1.75-2.25"/>
			<path class="st118" d="M675.75,13.75c8.459,0.848,16.067,4.7,23.25,8.75"/>
			<path class="st38" d="M699,22.5c-1.072-10.08-13.868-9.978-21.212-13.292c-0.245-0.435-0.452-0.884-0.658-1.334
				c-0.095-1.146,1.241-3.089,2.37-4.374"/>
			<path class="st31" d="M679.5,3.5c0.095-0.335,0.19-0.67,0.285-1.006c1.295-0.895,2.62-0.833,3.715-0.994"/>
			<line class="st164" x1="683.5" y1="1.5" x2="683.5" y2="1.5"/>
			<path class="st126" d="M683.5,1.5c1.637-1.813,3.955-0.376,5.75,0.25"/>
			<path class="st1" d="M689.25,1.75c1.216-1.577,3.869-1.673,5.25-0.25"/>
			<path class="st1" d="M694.5,1.5c1.666-1.169,3.333-1.026,5,0"/>
			<path class="st171" d="M699.5,1.5c1.029-0.351,1.771-0.382,2.5-0.5"/>
			<path class="st143" d="M702,1c1.024,5.462,0.782,11.138,2.5,16.5"/>
			<line class="st94" x1="706.5" y1="1.5" x2="706.5" y2="1.5"/>
			<path class="st41" d="M706.5,1.5c0.666,0.333,1.333,0.667,2,1"/>
			<path class="st2" d="M708.5,2.5c1.767-1.274,3.577,0.222,4,2"/>
			<path class="st166" d="M712.5,4.5c1.479-1.068,3.354-0.165,3.75,1.5"/>
			<path class="st49" d="M716.25,6c1.769,0.151,3.169,1.287,3.85,2.9"/>
			<path class="st4" d="M720.1,8.9c0.608,0.07,1.313,0.077,1.9,0.1"/>
			<path class="st131" d="M722,9c1.971-1.289,3.169-4.282,1-6"/>
			<path class="st170" d="M722,9c0.679,1.037,1.39,2.17,2,3"/>
			<path class="st146" d="M724,12c1.182-0.962,2.803-0.941,3.833-2.167"/>
			<path class="st111" d="M727.833,9.833c0.674-1.354,0.711-2.845,0.667-4.333"/>
			<path class="st23" d="M726.25,38.75c0.65,1.437,0.707,3.176,0.75,4.25"/>
			<path class="st24" d="M727,43c-0.821,0.671-1.61,0.991-2.5,1.5"/>
			<path class="st77" d="M679.5,3.5c2.637,2.66,5.721,6.216,9.704,5.661c-1.281-2.934-5.375-4.009-5.704-7.661"/>
			<path class="st119" d="M699.5,1.5c0.232,3.283,0.424,6.993,2,10"/>
			<path class="st103" d="M694.5,1.5c0.546,3.714,2.265,6.887,4,10"/>
			<path class="st65" d="M689.25,1.75c0.767,3.541,3.247,6.897,6.25,8.75"/>
			<path class="st80" d="M708.167,16.167c0.444-0.342,0.889-0.997,1.334-1.667"/>
			<path class="st36" d="M709.5,14.5c-2.652-3.606,0.652-8.141-1-12"/>
			<path class="st74" d="M706.5,1.5c-1.178,4.301-0.938,11.164,1.666,14.667"/>
			<path class="st163" d="M709.5,14.5c1.157-0.9,1.651-1.892,2.25-2.75"/>
			<path class="st139" d="M711.75,11.75c-1.164-2.149-0.122-5.045,0.75-7.25"/>
			<path class="st41" d="M711.75,11.75c0.25-0.083,0.5-0.167,0.75-0.25"/>
			<path class="st100" d="M712.5,11.5c0.546-2.418,2.654-3.525,3.75-5.5"/>
			<path class="st5" d="M712.5,11.5c2.702-0.194,5.273-1.311,7.6-2.6"/>
			<path class="st95" d="M708.167,16.167c-0.445,1.718-1.476,3.146-2.333,4.667"/>
			<path class="st160" d="M675.5,16.5c5.178,1.575,9.457,4.477,15,5"/>
			<path class="st157" d="M675.5,21.5c4.543,1.903,9.563,1.426,14,3"/>
			<path class="st18" d="M677.5,26.5c3.831,0.67,8.265,0.961,12,0"/>
			<path class="st144" d="M679.5,31.5c3.302-0.338,6.662-0.097,10-1"/>
			<path class="st104" d="M683,36c2.832-1.236,5.77-1.997,8.5-3.5"/>
			<path class="st149" d="M683.945,39.389c1.907-0.467,3.578-1.672,5.556-1.889"/>
			<path class="st174" d="M689.5,37.5c3.625-1.71,5.527-6.004,9.5-7"/>
			<path class="st162" d="M710.5,22.5c1.498-1.321,3.043-3.406,5.333-3.333"/>
			<path class="st140" d="M715.833,19.167c2.616-1.726,5.851-0.643,8.667-1.667"/>
			<path class="st100" d="M720.5,14c-5.079,0.307-9.195,3.501-13,6.5"/>
			<path class="st10" d="M715.833,19.167c0.035,0.13,0.071,0.26,0.106,0.391c2.569,2.488,7.286,1.458,10.561,0.943"/>
			<path class="st24" d="M706.5,28.5c4.141,0.005,6.563,4.165,9.75,6.25"/>
			<path class="st162" d="M716.25,34.75c3.852-1.927,5.663,4.825,10,4"/>
			<path class="st41" d="M726.25,38.75c0.416-0.417,0.833-0.833,1.25-1.25"/>
			<path class="st164" d="M727.5,37.5c0.014-1.015-0.114-1.886-0.25-2.75"/>
			<path class="st82" d="M727.25,34.75c-2.679-1.011-5.712-0.969-7.75-3.25"/>
			<path class="st153" d="M727.25,34.75c0.671-0.894,0.739-2.729,0.5-3.75"/>
			<path class="st8" d="M727.75,31c-3.717,0.44-6.868-1.914-10.25-2.5"/>
			<path class="st35" d="M727.75,31c0.304-0.883,0.13-2.235-0.25-3.5"/>
			<path class="st87" d="M727.5,27.5c-3.424,1.189-6.645-0.983-10-1"/>
			<path class="st80" d="M727.5,27.5c0.35-1.029,0.381-1.771,0.5-2.5"/>
			<path class="st3" d="M728,25c-5.627-0.504-12.058-0.567-17.5-2.5"/>
			<path class="st45" d="M692.333,42c0.281,1.173-0.024,2.966-0.434,3.9"/>
			<path class="st41" d="M691.9,45.9c0.786,1.318,2.28,2.192,3.601,2.6"/>
			<path class="st135" d="M695.5,48.5c0.825-3.496,2.011-6.981,4-10"/>
			<path class="st121" d="M695.5,48.5c1,0.321,2,0.61,3,1"/>
			<path class="st154" d="M698.5,49.5c1.543-2.887,1.775-6.865,4-9"/>
			<path class="st27" d="M698.5,49.5c0.922,1.37,2.897,1.953,4.5,1.833"/>
			<path class="st32" d="M703,51.333c0.081-3.331-0.005-6.922,1.5-9.833"/>
			<path class="st145" d="M703,51.333c1.53,0.729,2.937,0.564,4.5,0.167"/>
			<path class="st137" d="M707.5,51.5c-1.077-2.926-0.272-6.039,0-9"/>
			<path class="st176" d="M707.5,51.5c1.013,0.678,2.552,0.66,4,0"/>
			<path class="st90" d="M711.5,51.5c-1.557-3.074,0.138-7.657-2-10"/>
			<path class="st13" d="M711.5,51.5c1.349,0.42,2.704,0.604,3.852,0.583c0.368-0.475,0.479-0.973,0.578-1.472
				c-2.017-7.79-4.473-15.593-9.43-22.111"/>
			<path class="st113" d="M683,47c4.275,0.638,5.313-5.093,9.333-5"/>
			<path class="st60" d="M692.333,42c1.532-4.294,6.577-6.768,6.667-11.5"/>
			<path class="st11" d="M717.833,38.5c2.78,1.181,4.67,3.844,6.667,6"/>
			<path class="st177" d="M716.25,34.75c0.188,1.108,1.027,2.451,1.583,3.75"/>
			<path class="st165" d="M684.5,44c2.31-1.082,6.098-3.552,5-6.5"/>
			<path class="st68" d="M717.833,38.5c-0.334,1.667,0.125,3.333,0.667,5"/>
			<path class="st152" d="M675.722,47.556c1.95,0.578,4.016,0.236,5.978,0.744"/>
			<path class="st43" d="M681.7,48.3c0.434-0.433,0.867-0.866,1.301-1.3"/>
			<path class="st170" d="M683,47c0.282-0.904,0.954-2.239,1.5-3"/>
			<path class="st116" d="M684.5,44c0.015-1.424,0.027-2.494-0.556-4.611"/>
			<path class="st70" d="M683.945,39.389c-0.25-0.051-0.378-0.082-0.5-0.111"/>
			<path class="st54" d="M683.445,39.278c-2.009,1.382-3.926,2.865-5.944,4.222"/>
			<path class="st101" d="M691.75,46c-2.338,0.145-2.895,1.109-4.25,1.5"/>
			<path class="st28" d="M681.7,48.3c0.088,1.859-0.632,3.863,0.4,5.6"/>
			<path class="st16" d="M674.5,54.5c-1.242-2.415-0.055-4.871,1.222-6.944"/>
			<path class="st150" d="M675,56c-1.289,1.443-2.101,3.253-3.101,4.9"/>
			<path class="st122" d="M682.1,53.9c-1.232,0.941-2.976,1.377-4.6,1.267"/>
			<path class="st179" d="M717.5,73.5c2.289,2.615,3.595,5.875,5.285,8.857"/>
			<path class="st47" d="M715.5,98.5c2.997,8.392-11.85,11.403-14.418,3.744c0.266-1.075,1.109-2.355,3.281-3.466
				c0.724-0.075,1.43,0.068,2.137,0.222"/>
			<path class="st73" d="M700.5,82.5c7.558-7.763,14.78-17.57,24.666-22.333"/>
			<path class="st98" d="M725.167,60.167c-0.053-0.438-1.143-2.275-2.285-2.966c-3.832,0.567-7.647,1.979-10.381,4.799"/>
			<path class="st133" d="M725.167,60.167c0.602,1.034,0.948,2.038,1.334,2.833"/>
			<path class="st129" d="M726.5,63c0.522,6.085,1.243,12.381,0.666,18.5"/>
			<path class="st45" d="M5.1,966.9c0.792,0.432,2.149,0.522,3.4,0.6"/>
			<path class="st0" d="M5.1,966.9c-2.713-27.117-1.495-55.016-1.267-82.4"/>
			<path class="st128" d="M3.833,856.5c-0.556-252.265-0.556-504.74,0-757"/>
			<path class="st97" d="M7,58.5c0-0.667,0-1.333,0-2"/>
			<path class="st144" d="M7,58.5c4.014,0.408,7.939,1.856,11,4.5"/>
			<path class="st132" d="M7,58.5c-0.895,1.025-1.345,2.129-1.5,3.333"/>
			<path class="st17" d="M5.5,61.833c9.367,2.982,13.414,13.404,21.857,17.952"/>
			<path class="st152" d="M5.5,61.833C1.823,69.18,2.478,78.736,4.5,86.5"/>
			<path class="st50" d="M7.214,85.357c1.501-3.416,3.273-6.703,5.286-9.857"/>
		</g>
	</g>
</g>
</svg>
