<?xml version="1.0" encoding="utf-8"?>
<!-- Generator: Adobe Illustrator 14.0.0, SVG Export Plug-In . SVG Version: 6.00 Build 43363)  -->
<!DOCTYPE svg PUBLIC "-//W3C//DTD SVG 1.1//EN" "http://www.w3.org/Graphics/SVG/1.1/DTD/svg11.dtd">
<svg version="1.1" id="Nouveau_x5F_26_xA0_Image_1_"
	 xmlns="http://www.w3.org/2000/svg" xmlns:xlink="http://www.w3.org/1999/xlink" x="0px" y="0px" width="729px" height="969px"
	 viewBox="0 0 729 969" style="enable-background:new 0 0 729 969;" xml:space="preserve">
<style type="text/css">
<![CDATA[
	.st0{fill-rule:evenodd;clip-rule:evenodd;fill:none;stroke:#000000;stroke-width:1.6769;stroke-linecap:round;}
	.st1{fill-rule:evenodd;clip-rule:evenodd;fill:none;stroke:#000000;stroke-width:3.0826;stroke-linecap:round;}
	.st2{fill-rule:evenodd;clip-rule:evenodd;fill:none;stroke:#000000;stroke-width:2.6833;stroke-linecap:round;}
	.st3{fill-rule:evenodd;clip-rule:evenodd;fill:none;stroke:#000000;stroke-width:3.0759;stroke-linecap:round;}
	.st4{fill-rule:evenodd;clip-rule:evenodd;fill:none;stroke:#000000;stroke-width:2.3979;stroke-linecap:round;}
	.st5{fill-rule:evenodd;clip-rule:evenodd;fill:none;stroke:#000000;stroke-width:1.9748;stroke-linecap:round;}
	.st6{fill-rule:evenodd;clip-rule:evenodd;fill:none;stroke:#000000;stroke-width:3.6056;stroke-linecap:round;}
	.st7{fill-rule:evenodd;clip-rule:evenodd;fill:none;stroke:#000000;stroke-width:3.2016;stroke-linecap:round;}
	.st8{fill-rule:evenodd;clip-rule:evenodd;fill:none;stroke:#000000;stroke-width:2.491;stroke-linecap:round;}
	.st9{fill-rule:evenodd;clip-rule:evenodd;fill:none;stroke:#000000;stroke-width:2.8284;stroke-linecap:round;}
	.st10{fill-rule:evenodd;clip-rule:evenodd;fill:none;stroke:#000000;stroke-width:2.8087;stroke-linecap:round;}
	.st11{fill-rule:evenodd;clip-rule:evenodd;fill:none;stroke:#000000;stroke-width:4.0415;stroke-linecap:round;}
	.st12{fill-rule:evenodd;clip-rule:evenodd;fill:none;stroke:#000000;stroke-width:3.3282;stroke-linecap:round;}
	.st13{fill-rule:evenodd;clip-rule:evenodd;fill:none;stroke:#000000;stroke-width:3.2146;stroke-linecap:round;}
	.st14{fill-rule:evenodd;clip-rule:evenodd;fill:none;stroke:#000000;stroke-width:2.3396;stroke-linecap:round;}
	.st15{fill-rule:evenodd;clip-rule:evenodd;fill:none;stroke:#000000;stroke-width:3.1754;stroke-linecap:round;}
	.st16{fill-rule:evenodd;clip-rule:evenodd;fill:none;stroke:#000000;stroke-width:2.543;stroke-linecap:round;}
	.st17{fill-rule:evenodd;clip-rule:evenodd;fill:none;stroke:#000000;stroke-width:1.4832;stroke-linecap:round;}
	.st18{fill-rule:evenodd;clip-rule:evenodd;fill:none;stroke:#000000;stroke-width:2.1985;stroke-linecap:round;}
	.st19{fill-rule:evenodd;clip-rule:evenodd;fill:none;stroke:#000000;stroke-width:3.0659;stroke-linecap:round;}
	.st20{fill-rule:evenodd;clip-rule:evenodd;fill:none;stroke:#000000;stroke-width:2.8636;stroke-linecap:round;}
	.st21{fill-rule:evenodd;clip-rule:evenodd;fill:none;stroke:#000000;stroke-width:1.7454;stroke-linecap:round;}
	.st22{fill-rule:evenodd;clip-rule:evenodd;fill:none;stroke:#000000;stroke-width:1.2383;stroke-linecap:round;}
	.st23{fill-rule:evenodd;clip-rule:evenodd;fill:none;stroke:#000000;stroke-width:3.2404;stroke-linecap:round;}
	.st24{fill:#000000;fill-rule:evenodd;clip-rule:evenodd;}
	.st25{fill-rule:evenodd;clip-rule:evenodd;fill:none;stroke:#000000;stroke-width:1.8127;stroke-linecap:round;}
	.st26{fill-rule:evenodd;clip-rule:evenodd;fill:none;stroke:#000000;stroke-width:1.6771;stroke-linecap:round;}
	.st27{fill-rule:evenodd;clip-rule:evenodd;fill:none;stroke:#000000;stroke-width:2.4838;stroke-linecap:round;}
	.st28{fill-rule:evenodd;clip-rule:evenodd;fill:none;stroke:#000000;stroke-width:2.0207;stroke-linecap:round;}
	.st29{fill-rule:evenodd;clip-rule:evenodd;fill:none;stroke:#000000;stroke-width:2.0933;stroke-linecap:round;}
	.st30{fill-rule:evenodd;clip-rule:evenodd;fill:none;stroke:#000000;stroke-width:2.3805;stroke-linecap:round;}
	.st31{fill-rule:evenodd;clip-rule:evenodd;fill:none;stroke:#000000;stroke-width:2.892;stroke-linecap:round;}
	.st32{fill-rule:evenodd;clip-rule:evenodd;fill:none;stroke:#000000;stroke-width:1.9306;stroke-linecap:round;}
	.st33{fill-rule:evenodd;clip-rule:evenodd;fill:none;stroke:#000000;stroke-width:2.569;stroke-linecap:round;}
	.st34{fill-rule:evenodd;clip-rule:evenodd;fill:none;stroke:#000000;stroke-width:3.6223;stroke-linecap:round;}
	.st35{fill-rule:evenodd;clip-rule:evenodd;fill:none;stroke:#000000;stroke-width:1.9365;stroke-linecap:round;}
	.st36{fill-rule:evenodd;clip-rule:evenodd;fill:none;stroke:#000000;stroke-width:1.8708;stroke-linecap:round;}
	.st37{fill-rule:evenodd;clip-rule:evenodd;fill:none;stroke:#000000;stroke-width:1.5492;stroke-linecap:round;}
	.st38{fill-rule:evenodd;clip-rule:evenodd;fill:none;stroke:#000000;stroke-width:1.5916;stroke-linecap:round;}
	.st39{fill-rule:evenodd;clip-rule:evenodd;fill:none;stroke:#000000;stroke-width:1.291;stroke-linecap:round;}
	.st40{fill-rule:evenodd;clip-rule:evenodd;fill:none;stroke:#000000;stroke-width:2.7535;stroke-linecap:round;}
	.st41{fill-rule:evenodd;clip-rule:evenodd;fill:none;stroke:#000000;stroke-width:3.0822;stroke-linecap:round;}
	.st42{fill-rule:evenodd;clip-rule:evenodd;fill:none;stroke:#000000;stroke-width:2.6458;stroke-linecap:round;}
	.st43{fill-rule:evenodd;clip-rule:evenodd;fill:none;stroke:#000000;stroke-width:2.1772;stroke-linecap:round;}
	.st44{fill-rule:evenodd;clip-rule:evenodd;fill:none;stroke:#000000;stroke-width:3.06;stroke-linecap:round;}
	.st45{fill-rule:evenodd;clip-rule:evenodd;fill:none;stroke:#000000;stroke-width:2.8723;stroke-linecap:round;}
	.st46{fill-rule:evenodd;clip-rule:evenodd;fill:none;stroke:#000000;stroke-width:1.7541;stroke-linecap:round;}
]]>
</style>
<g>
	<g>
		<path class="st24" d="M666,48c2.954-9.136,7.479-21.303,3-32c5.938-1.227,12.658-0.917,16,3h-1v1c1.035,2.632,3.965,3.368,5,6
			l-0.5,1.5L690,27c-0.409,2.409,1.826,2.174,1,5l-0.5,1.5L692,33c0,2,0,4,0,6l-1.5-0.5L691,40c0.826,2.826-1.409,2.591-1,5
			l-1.5-0.5L689,46c-0.294,2.039-2.706,1.961-3,4l-0.5,1l0.5,1c-1.16,0.839-2.681,1.319-5,1l0.5-1l-0.5-1
			c-2.126-1.541-3.724-3.609-6-5h-1v1c-2.678-2.693-3.803,1.273-6,2l-0.5-1.5L666,48z M678,34c0.285-3.293,5.748-10.792,0-11
			c2.011,5.668-4.96,14.986-1,13l0.5,1.5L678,39c0.443,1.454,0.878-0.102,2,0l0.5,1.5L681,42c0,0.333,0,0.667,0,1
			c1.89-0.443,6.026,1.36,5-2c-1,0-2,0-3,0l0.5-1.833L682,38c1.977-2.366,7.215-6.283,3-9c-0.877,3.457-2.103,6.564-5,8l-0.7-1.7
			L678,34z"/>
		<path class="st24" d="M61,49c-3.388-7.244-6.138,3.434-13,4c-6.991,0.577-9.094-1.922-12-10l1.5,0.5L37,42
			c1.622,0.715,1.622-4.715,0-4l-0.5-1.5L35,37c0.094-5.572,0.502-10.831,4-13v1h1c2.092-1.242,3.758-2.908,5-5v-1h-1
			c3.556-4.386,10.299-4.052,17-3c-0.753,4.247-3.669,6.331-3,12l-1.5-0.5L57,29c-1.172,0.162-0.843,1.823-1,3l-1.833-0.5L53,33
			c-2.584-2.082,0.327-9.66-4-10c-0.713,5.047,1.366,7.301,2,11l-1.3,1.3L49,37c-3.06-1.274-2.94-5.726-6-7
			c-1.063,5.063,2.956,5.044,4,8l-1.5,1.167L46,41c-1,0-2,0-3,0c-1.542,3.019,5.174,2.631,5,1l0.5-1.5L48,39
			c1.71-0.21,2.59,1.705,3,0l2.5,0.5L54,37c0-0.333,0-0.667,0-1l2.5-0.5L56,33c0.333,0,0.667,0,1,0l1,0.5l1-0.5
			c0.683,5.65,3.177,9.49,4,15l-1.5-0.5L61,49z"/>
		<path class="st24" d="M41,22h-1c0.443-0.89,0.878-1.789,2-2v1h1c-0.443,0.89-0.878,1.789-2,2V22z"/>
		<path class="st24" d="M679,88c9.352-0.769,13.935-19.636,25-9l-1.357,1.214L703,82c-10.344-3.43-14.247,19.012-25,9l1.5-1.167
			L679,88z"/>
		<path class="st24" d="M711.786,75.643L710,76c0.656-3.758,6.406-6.354,3-11c-1.968-1.983-5.712-0.637-8,0l-0.5-1.5L703,63
			c1.957-4.067,9.958-5.068,15-3c2.722,6.76,0.315,15.143-5,17L711.786,75.643z"/>
		<path class="st24" d="M704.5,947.5l2.5-0.5c0,2.667,0,5.333,0,8l-1.5-0.5L705,956c-7.04,2.441-3.309-4.464-3-10l1.5,0.5l0.5-1.5
			c0.333,0,0.667,0,1,0L704.5,947.5z"/>
		<path class="st24" d="M23.833,954.5L22,955c0-3.333,0-6.667,0-10l2.5,0.5L25,943c0.333,0,0.667,0,1,0l0.5,1.5L28,944
			c-2.387,3.892,4.375,14.047-3,12L23.833,954.5z"/>
		<path class="st24" d="M25.5,81.5L25,80c8.489-13.433,15.889,6.668,25,8l-0.5,1.833L51,91c-0.111,1.889-3.306,0.694-3,3
			c-10.822,0.392-11.163-14.706-22-11L25.5,81.5z"/>
		<path class="st24" d="M36.214,56.643L35,58c-4.13-3.521-11.765-10.243-19-20c-4.689-6.324-15.782-24.598-3-31
			c5.113-2.562,13.133,1.474,18,2c25.475,2.755,55.234,0,84,0c162.2,0,334.945,0,499,0c28.292,0,57.062,2.293,83,0
			c10.688-0.945,17.813-4.186,22,0c15.462,15.462-21.231,45.189-27,52l-1.214-1.357L689,60c6.951-15.262,24.996-24.045,23-45
			c-13.56-3.607-28.314-2-42-2c-208.846,0-423.299,0-634,0c-5.397,0-13.571-2.345-18,3c-4.25,16.921,13.919,27.834,20,41
			L36.214,56.643z"/>
		<path class="st24" d="M35,935.5l-1,0.5c0-0.333,0-0.667,0-1l-0.5-1l-0.5-1c1.989-1.412-4.035-3.231-2-8v-1.667L32,922
			c3.033-0.967,5.326-2.674,8-4l-0.5-1l-0.5-1c1.279-1.367,4.721-1.367,6,0l-0.5,1l0.5,1c8.756,2.91,14.742,8.592,18,17
			c-3.104,11.563-8.831,20.502-23,21l-1.5-0.5L39,957c-4.241-0.426-5.918-3.415-7-7l1.5,0.5L33,949c-0.059-5.271,8.257-8.65,3-13
			L35,935.5z M45,925c0-0.667,0-1.333,0-2c-3.555-1.555-0.604,3.396-3,3l-1-1.75L39,924c-0.667,0-1.333,0-2,0
			c-0.086,1.419-0.165,2.832,1,3l-0.5,2.5L40,930l-0.25,3.625L43,932l-1.833,3.389L44,938c0,0.333,0,0.667,0,1l-2.971,0.677L43,942
			c0,0.333,0,0.667,0,1l-1.5,0.5L42,945c-2.077,0.257-0.273,4.394-2,5c2.182,0.182,3.182-0.818,3-3l1.833,0.5L46,946
			c2.396-0.396-0.555,4.555,3,3c1.484-0.437-0.395-1.279,0-3l1.167-1.833L50,942c3.078-0.745,1.922,2.745,5,2c0-0.667,0-1.333,0-2
			l1.5-2.3L56,937c1.701,0.368,1.887-0.78,2-2c-1.064-2.27-6.286-0.381-9-1l0.5-1.833L48,931c0.793-2.207,4.701-1.3,5-4
			c-1.479-1.158-2.521-1.158-4,0l-1.333-2.333L45,925z"/>
		<path class="st24" d="M695.5,937.5l0.5,1.5c-0.973,0.027-0.775,1.225-1,2l-1-0.5l-1,0.5c-4.694-2.945,3.25,2.883,2,8
			c-1.393,5.698-8.317,7.63-15,6c-6.127-1.494-14.289-14.226-13-22c1.439-8.681,10.463-11.277,17-15l0.5-1l-0.5-1
			c3.39-2.149,9.787-0.201,12,2l-1.5,0.5l0.5,1.5c4.97,2.634,1.822,11.778,1,13l-0.5,1l0.5,1c0.19,0.81,1.003,0.997,1,2L695.5,937.5
			z M687,926c-0.854-0.602-2.575-5.985-3-1l-2.667-0.333L680,927c-0.805-0.529-1.623-1.043-3-1c-1.247,4.247,3.326,2.674,4,5
			l-1.5,1.167L680,934c-3,0-6,0-9,0c-0.917,5.424,13.058-0.202,13,0l0.5-1.5L684,931l2.682,0.772L687,929
			c0.851,0.184,0.943-0.39,1-1l1.5,0.5l1.5-0.5c1.766,0.318,1.785-5.602-1-4c0,0.333,0,0.667,0,1l-1.833-0.5L687,926z M684,939
			c-4.438,0.563-9.711,0.289-10,5c1.794,0.127,2.109-1.225,4-1l0.75,2.125L681,945c0.127,1.794-1.225,2.109-1,4
			c3.72,0.386,1.851-4.816,5-5l0.5,1.5l1.5,0.5c0.228,1.772-1.008,5.008,2,4c-1.651-2.224,0.213-5.423-1-6l-0.5-1.5L686,943
			c0-0.333,0-0.667,0-1l1.5-3.167L684,939z"/>
		<g>
			<path class="st38" d="M684,19c2.992,1.396,5.535,4.059,7,7"/>
			<path class="st46" d="M691,26c0.869,1.922,2.287,3.751,2,6"/>
			<path class="st22" d="M693,32c0.736,2.456,0.86,5.557,0,8"/>
			<path class="st36" d="M693,40c0.034,2.117-0.679,4.364-2,6"/>
			<path class="st46" d="M691,46c-0.559,2.424-3.102,4.392-5.5,5"/>
			<path class="st26" d="M681.5,52c-3.509,0.073-6.074-3.147-7.5-6"/>
			<path class="st43" d="M673.5,74c-9.401-4.975-9.893-17.812-6-26.5"/>
			<path class="st7" d="M677.5,37.5c0.772-0.987,1.221-1.588,1.8-2.2"/>
			<path class="st39" d="M691,26c-0.649,0.292-1.618,0.838-2.5,1.5"/>
			<path class="st19" d="M680.5,40.5c1-0.338,2-0.933,3-1.333"/>
			<path class="st39" d="M693,32c-0.649,0.292-1.618,0.838-2.5,1.5"/>
			<path class="st39" d="M693,40c-0.649-0.292-1.618-0.838-2.5-1.5"/>
			<path class="st39" d="M691,46c-0.649-0.292-1.618-0.838-2.5-1.5"/>
			<path class="st32" d="M37.5,43.5c-1.666-1.892-1.948-4.708-1-7"/>
			<path class="st17" d="M39,25c0.3-0.875,0.979-1.857,2-3"/>
			<path class="st17" d="M42,21c1.125-1.109,2.143-1.387,3-2"/>
			<path class="st29" d="M55,74c10.13-3.909,10.934-18.004,6.5-26.5"/>
			<path class="st23" d="M56.5,35.5c-1.219-0.668-1.849-2.381-2.333-4"/>
			<path class="st37" d="M58,33.5c-0.459-1.991-0.053-4.35-1.5-6"/>
			<path class="st13" d="M53.5,39.5c-1.438-1.247-2.541-2.801-3.8-4.2"/>
			<path class="st45" d="M45.5,39.167c1.281,0.526,2.048,0.903,3,1.333"/>
			<path class="st33" d="M702.643,80.214c1.332,1.014,2.415,2.64,3.357,3.786"/>
			<path class="st16" d="M706,84c2.076-2.644,3.496-5.724,5.786-8.357"/>
			<path class="st8" d="M685.5,75.5c7.982-0.553,12.939-7.411,19-12"/>
			<path class="st27" d="M706,84c-0.646,287.641,2.221,576.363-1.5,863.5"/>
			<path class="st3" d="M705.5,954.5c0.512,2.067,1.12,4.865-0.203,6.695c-227.039,0.427-454.448,0.669-681.371-0.121
				c-0.696-2.069-0.54-4.452-0.092-6.574"/>
			<path class="st34" d="M23.25,83.75c-3.252-6.148-12.255-11.244-10.276-19.178c0.253-0.651,1.341-1.839,2.069-2.555
				C27.109,59.336,33.262,75.188,44.5,76"/>
			<path class="st2" d="M23.25,83.75c0.613-0.336,1.536-1.32,2.25-2.25"/>
			<path class="st40" d="M49.5,89.833c0.37-0.142,0.739-0.284,1.109-0.426c7.813-11.917-9.485-22.521-14.395-32.765"/>
			<path class="st1" d="M23.25,83.75C24.5,370.894,22,658.664,24.5,945.5"/>
			<path class="st14" d="M26.5,944.5c0.748-4.005,3.839-6.812,8-7"/>
			<path class="st30" d="M34.5,937.5c0.273-0.667,0.391-1.333,0.5-2"/>
			<path class="st28" d="M33.5,934c-3.828-1.604-6.765-7.941-2.5-10.667"/>
			<path class="st5" d="M31,923.333c-0.27-4.186,5.076-6.129,8.5-6.333"/>
			<path class="st0" d="M44.5,917c9.584,0.163,17.718,9.313,20.238,17.948C63.007,946.704,51.437,962.096,38.5,955.5"/>
			<path class="st21" d="M694,940.5c8.968,17.043-11.225,19.825-20.433,11.934c-13.822-11.848-8.958-32.82,10.933-35.434"/>
			<path class="st18" d="M695.5,937.5c4.496,0.751,7.149,4.635,8,9"/>
			<path class="st20" d="M679.5,89.833c-0.338-0.181-0.676-0.361-1.014-0.542c-6.59-11.379,7.429-20.31,12.3-29.648"/>
			<path class="st35" d="M695.5,934c1.098-0.571,3.051-2.515,4.196-3.846c1.334-4.54-0.492-9.952-5.196-11.654"/>
			<path class="st12" d="M39.75,933.625c1.786-3.814,6.575-4.904,7.917-8.958"/>
			<path class="st42" d="M689.5,928.5c-0.405-1.333-0.866-2.667-1.333-4"/>
			<path class="st10" d="M37.5,929.5c2.271-0.958,2.646-3.229,3.5-5.25"/>
			<path class="st31" d="M41.167,935.389c2.206-2.315,5.336-2.795,8.333-3.222"/>
			<path class="st6" d="M686.682,931.772c-1.055-2.961-4.521-3.998-5.349-7.105"/>
			<path class="st11" d="M41.167,935.389c5.069,1.896,10.611,1.377,15.333,4.312"/>
			<path class="st41" d="M684.5,932.5c-1.667,0.027-3.333,0.044-5-0.333"/>
			<path class="st25" d="M34.5,937.5c1.919,4.368-5.674,8.596-1,13"/>
			<path class="st44" d="M41.029,939.677c3.377,0.849,6.392,2.375,9.137,4.49"/>
			<path class="st15" d="M678.75,945.125c1.88-3.404,6.109-3.735,8.75-6.292"/>
			<path class="st9" d="M41.5,943.5c1.134,0.6,2.471,2.381,3.333,4"/>
			<path class="st4" d="M685.5,945.5c0.667-0.976,1.333-1.887,2-3"/>
		</g>
	</g>
</g>
</svg>
