<?xml version="1.0" encoding="utf-8"?>
<!-- Generator: Adobe Illustrator 14.0.0, SVG Export Plug-In . SVG Version: 6.00 Build 43363)  -->
<!DOCTYPE svg PUBLIC "-//W3C//DTD SVG 1.1//EN" "http://www.w3.org/Graphics/SVG/1.1/DTD/svg11.dtd">
<svg version="1.1" id="Layer_1" xmlns="http://www.w3.org/2000/svg" xmlns:xlink="http://www.w3.org/1999/xlink" x="0px" y="0px"
	 width="532.19px" height="712.19px" viewBox="0 0 532.19 712.19" style="enable-background:new 0 0 532.19 712.19;"
	 xml:space="preserve">
<style type="text/css">
<![CDATA[
	.st0{fill:#003C7A;}
	.st1{fill:#000000;}
]]>
</style>
<g>
	<g>
		<g>
			<path class="st0" d="M1.137,557.962l4.583,2.773l-2.796,53.109c1.404,1.063,2.81,4.779,2.81,8.495
				c-1.405,0.265-2.81,1.327-2.81,2.919c0,1.593,1.404,2.656,2.81,2.921c0,3.715-1.405,7.433-2.81,8.493l2.794,53.081l-4.582,2.772
				h10.051l-4.597-2.782l2.793-53.071c-1.124-1.061-2.528-4.778-2.528-8.493c1.404-0.265,2.809-1.328,2.809-2.921
				c0-1.592-1.404-2.654-2.809-2.919c0-3.716,1.404-7.432,2.528-8.495l-2.795-53.1l4.6-2.783H1.137z"/>
		</g>
		<g>
			<path class="st0" d="M1.137,423.384l4.583,2.774l-2.796,53.109c1.404,1.063,2.81,4.779,2.81,8.495
				c-1.405,0.264-2.81,1.326-2.81,2.919s1.404,2.655,2.81,2.92c0,3.715-1.405,7.433-2.81,8.494l2.794,53.08l-4.582,2.773h10.051
				l-4.597-2.783l2.793-53.07c-1.124-1.062-2.528-4.779-2.528-8.494c1.404-0.265,2.809-1.327,2.809-2.92s-1.404-2.655-2.809-2.919
				c0-3.716,1.404-7.433,2.528-8.495l-2.795-53.1l4.6-2.784H1.137z"/>
		</g>
		<g>
			<path class="st0" d="M1.137,288.806l4.583,2.774L2.924,344.69c1.404,1.063,2.81,4.779,2.81,8.495
				c-1.405,0.264-2.81,1.327-2.81,2.919c0,1.593,1.404,2.655,2.81,2.92c0,3.716-1.405,7.433-2.81,8.494l2.794,53.08l-4.582,2.773
				h10.051l-4.597-2.783l2.793-53.07c-1.124-1.062-2.528-4.778-2.528-8.494c1.404-0.265,2.809-1.327,2.809-2.92
				c0-1.592-1.404-2.655-2.809-2.919c0-3.716,1.404-7.433,2.528-8.495l-2.795-53.1l4.6-2.784H1.137z"/>
		</g>
		<g>
			<path class="st0" d="M1.137,154.229l4.583,2.774l-2.796,53.109c1.404,1.063,2.81,4.779,2.81,8.495
				c-1.405,0.264-2.81,1.327-2.81,2.919c0,1.593,1.404,2.656,2.81,2.92c0,3.715-1.405,7.433-2.81,8.494l2.794,53.081l-4.582,2.773
				h10.051l-4.597-2.782l2.793-53.071c-1.124-1.061-2.528-4.778-2.528-8.494c1.404-0.265,2.809-1.328,2.809-2.92
				c0-1.592-1.404-2.655-2.809-2.919c0-3.716,1.404-7.432,2.528-8.495l-2.795-53.1l4.6-2.784H1.137z"/>
		</g>
		<g>
			<path class="st0" d="M1.137,19.65l4.583,2.774L2.924,75.534c1.404,1.063,2.81,4.779,2.81,8.495
				c-1.405,0.264-2.81,1.327-2.81,2.919c0,1.593,1.404,2.655,2.81,2.92c0,3.715-1.405,7.433-2.81,8.494l2.794,53.081l-4.582,2.773
				h10.051l-4.597-2.783l2.793-53.071c-1.124-1.061-2.528-4.779-2.528-8.494c1.404-0.265,2.809-1.327,2.809-2.92
				c0-1.592-1.404-2.655-2.809-2.919c0-3.716,1.404-7.432,2.528-8.495l-2.795-53.1l4.6-2.784H1.137z"/>
		</g>
		<g>
			<path class="st0" d="M183.947,1.137L180.56,5.72l-64.837-2.796c-1.297,1.404-5.834,2.81-10.371,2.81
				c-0.322-1.405-1.62-2.81-3.563-2.81c-1.944,0-3.242,1.404-3.565,2.81c-4.536,0-9.074-1.405-10.37-2.81L23.051,5.719l-3.385-4.582
				v10.051l3.397-4.597l64.791,2.793c1.295-1.124,5.834-2.528,10.37-2.528c0.323,1.404,1.621,2.809,3.565,2.809
				c1.944,0,3.241-1.404,3.563-2.809c4.537,0,9.074,1.404,10.371,2.528l64.826-2.795l3.398,4.6V1.137z"/>
		</g>
		<g>
			<path class="st0" d="M348.244,1.137l-3.387,4.583l-64.838-2.796c-1.298,1.404-5.835,2.81-10.371,2.81
				c-0.322-1.405-1.62-2.81-3.563-2.81c-1.944,0-3.242,1.404-3.565,2.81c-4.536,0-9.074-1.405-10.37-2.81l-64.802,2.794
				l-3.385-4.582v10.051l3.397-4.597l64.791,2.793c1.295-1.124,5.834-2.528,10.37-2.528c0.323,1.404,1.621,2.809,3.565,2.809
				c1.944,0,3.241-1.404,3.563-2.809c4.536,0,9.073,1.404,10.371,2.528l64.826-2.795l3.398,4.6V1.137z"/>
		</g>
		<g>
			<path class="st0" d="M512.54,1.137l-3.387,4.583l-64.837-2.796c-1.298,1.404-5.835,2.81-10.371,2.81
				c-0.322-1.405-1.62-2.81-3.563-2.81c-1.944,0-3.242,1.404-3.565,2.81c-4.535,0-9.074-1.405-10.369-2.81l-64.803,2.794
				l-3.385-4.582v10.051l3.396-4.597l64.791,2.793c1.295-1.124,5.834-2.528,10.369-2.528c0.323,1.404,1.621,2.809,3.565,2.809
				c1.943,0,3.241-1.404,3.563-2.809c4.536,0,9.073,1.404,10.371,2.528l64.825-2.795l3.398,4.6V1.137z"/>
		</g>
		<g>
			<path class="st0" d="M531.053,154.229l-4.583-2.774l2.796-53.109c-1.404-1.063-2.81-4.779-2.81-8.495
				c1.405-0.264,2.81-1.327,2.81-2.919c0-1.593-1.404-2.655-2.81-2.92c0-3.715,1.405-7.433,2.81-8.494l-2.794-53.081l4.581-2.773
				h-10.051l4.597,2.783l-2.793,53.071c1.124,1.061,2.528,4.779,2.528,8.494c-1.404,0.265-2.809,1.327-2.809,2.92
				c0,1.592,1.404,2.655,2.809,2.919c0,3.716-1.404,7.432-2.528,8.495l2.796,53.1l-4.6,2.784H531.053z"/>
		</g>
		<g>
			<path class="st0" d="M531.053,288.806l-4.583-2.774l2.796-53.109c-1.404-1.063-2.81-4.779-2.81-8.495
				c1.405-0.264,2.81-1.327,2.81-2.919c0-1.593-1.404-2.656-2.81-2.92c0-3.715,1.405-7.433,2.81-8.494l-2.794-53.081l4.581-2.773
				h-10.051l4.597,2.783l-2.793,53.071c1.124,1.061,2.528,4.778,2.528,8.494c-1.404,0.265-2.809,1.328-2.809,2.92
				c0,1.592,1.404,2.655,2.809,2.919c0,3.716-1.404,7.432-2.528,8.495l2.796,53.1l-4.6,2.784H531.053z"/>
		</g>
		<g>
			<path class="st0" d="M531.053,423.384l-4.583-2.774l2.796-53.109c-1.404-1.063-2.81-4.779-2.81-8.495
				c1.405-0.264,2.81-1.327,2.81-2.919c0-1.593-1.404-2.655-2.81-2.92c0-3.715,1.405-7.433,2.81-8.494l-2.794-53.081l4.581-2.773
				h-10.051l4.597,2.783l-2.793,53.071c1.124,1.061,2.528,4.779,2.528,8.494c-1.404,0.265-2.809,1.327-2.809,2.92
				c0,1.592,1.404,2.655,2.809,2.919c0,3.716-1.404,7.433-2.528,8.495l2.796,53.1l-4.6,2.784H531.053z"/>
		</g>
		<g>
			<path class="st0" d="M531.053,557.962l-4.583-2.774l2.796-53.109c-1.404-1.063-2.81-4.779-2.81-8.495
				c1.405-0.265,2.81-1.327,2.81-2.919c0-1.593-1.404-2.655-2.81-2.92c0-3.716,1.405-7.434,2.81-8.494l-2.794-53.081l4.581-2.772
				h-10.051l4.597,2.782l-2.793,53.071c1.124,1.061,2.528,4.778,2.528,8.494c-1.404,0.265-2.809,1.327-2.809,2.92
				c0,1.592,1.404,2.654,2.809,2.919c0,3.716-1.404,7.432-2.528,8.495l2.796,53.1l-4.6,2.784H531.053z"/>
		</g>
		<g>
			<path class="st0" d="M531.053,692.54l-4.583-2.774l2.796-53.108c-1.404-1.063-2.81-4.779-2.81-8.495
				c1.405-0.265,2.81-1.327,2.81-2.919c0-1.593-1.404-2.656-2.81-2.921c0-3.715,1.405-7.433,2.81-8.493l-2.794-53.081l4.581-2.772
				h-10.051l4.597,2.782l-2.793,53.071c1.124,1.061,2.528,4.778,2.528,8.493c-1.404,0.265-2.809,1.328-2.809,2.921
				c0,1.592,1.404,2.654,2.809,2.919c0,3.716-1.404,7.432-2.528,8.495l2.796,53.1l-4.6,2.783H531.053z"/>
		</g>
		<g>
			<path class="st0" d="M348.244,711.053l3.387-4.583l64.837,2.796c1.298-1.404,5.835-2.81,10.371-2.81
				c0.323,1.405,1.62,2.81,3.563,2.81c1.945,0,3.242-1.404,3.565-2.81c4.536,0,9.074,1.405,10.369,2.81l64.803-2.794l3.386,4.581
				v-10.051l-3.397,4.597l-64.791-2.793c-1.295,1.124-5.833,2.528-10.369,2.528c-0.323-1.404-1.62-2.809-3.565-2.809
				c-1.943,0-3.24,1.404-3.563,2.809c-4.536,0-9.073-1.404-10.371-2.528l-64.825,2.796l-3.398-4.6V711.053z"/>
		</g>
		<g>
			<path class="st0" d="M183.947,711.053l3.387-4.583l64.837,2.796c1.297-1.404,5.834-2.81,10.371-2.81
				c0.322,1.405,1.62,2.81,3.563,2.81c1.944,0,3.242-1.404,3.564-2.81c4.536,0,9.074,1.405,10.37,2.81l64.802-2.794l3.386,4.581
				v-10.051l-3.397,4.597l-64.79-2.793c-1.296,1.124-5.834,2.528-10.37,2.528c-0.322-1.404-1.62-2.809-3.564-2.809
				c-1.944,0-3.241,1.404-3.563,2.809c-4.537,0-9.074-1.404-10.371-2.528l-64.826,2.796l-3.399-4.6V711.053z"/>
		</g>
		<g>
			<path class="st0" d="M19.65,711.053l3.387-4.583l64.837,2.796c1.297-1.404,5.834-2.81,10.371-2.81
				c0.322,1.405,1.62,2.81,3.563,2.81c1.944,0,3.242-1.404,3.565-2.81c4.536,0,9.074,1.405,10.37,2.81l64.802-2.794l3.385,4.581
				v-10.051l-3.397,4.597l-64.791-2.793c-1.295,1.124-5.834,2.528-10.37,2.528c-0.323-1.404-1.621-2.809-3.565-2.809
				c-1.944,0-3.241,1.404-3.563,2.809c-4.537,0-9.074-1.404-10.371-2.528l-64.826,2.796l-3.399-4.6V711.053z"/>
		</g>
		<g>
			<path class="st1" d="M0,0.017c0.29,1.101,0.461,2.548,0.52,3.301C3.821,4.648,7.987,8.237,9.407,9.83c0,0,0,0-0.058,0.059
				c-3.791-2.577-7.034-4.084-8.48-3.908C1.1,6.908,1.216,7.949,1.33,8.643c4.517,0,7.816,2.142,8.743,3.068c0,0,0,0-0.059,0.057
				c-2.488-0.868-6.193-1.333-8.336-0.925c0.29,0.984,0.348,2.197,0.406,2.836c5.442-1.737,8.568-0.694,10.479,0.057
				c-0.348,0.696-0.289,1.68,0.404,2.375c0.868,0.868,2.258,0.868,3.126,0c0.812-0.812,0.812-2.203-0.057-3.071
				c-0.695-0.693-1.681-0.75-2.374-0.403c-0.754-1.91-1.795-5.038-0.058-10.479c-0.637-0.058-1.854-0.117-2.836-0.405
				c-0.348,2.083,0.059,5.846,0.927,8.335c0,0,0,0-0.058,0.059c-0.927-0.925-3.07-4.225-3.07-8.741
				C7.874,1.29,6.83,1.173,5.906,0.943C5.731,2.391,7.236,5.634,9.813,9.425c0,0,0,0-0.058,0.056
				C8.163,8.064,4.573,3.897,3.243,0.597C2.488,0.539,1.1,0.305,0,0.017z"/>
			<polygon class="st0" points="19.661,11.181 16.44,6.155 19.661,1.127 			"/>
			<polygon class="st0" points="1.155,19.664 6.18,16.446 11.208,19.664 			"/>
		</g>
		<g>
			<path class="st1" d="M532.173,0c-1.101,0.29-2.548,0.461-3.301,0.52c-1.33,3.301-4.919,7.467-6.512,8.887c0,0,0,0-0.059-0.058
				c2.577-3.791,4.084-7.034,3.907-8.48c-0.927,0.231-1.968,0.347-2.662,0.461c0,4.517-2.142,7.816-3.068,8.743c0,0,0,0-0.058-0.059
				c0.869-2.488,1.333-6.193,0.926-8.336c-0.983,0.29-2.197,0.348-2.836,0.406c1.736,5.442,0.694,8.568-0.058,10.479
				c-0.695-0.348-1.679-0.289-2.375,0.404c-0.868,0.868-0.868,2.258,0,3.126c0.812,0.812,2.203,0.812,3.071-0.057
				c0.693-0.695,0.75-1.681,0.403-2.374c1.909-0.754,5.038-1.795,10.479-0.058c0.059-0.637,0.117-1.854,0.405-2.836
				c-2.083-0.348-5.846,0.059-8.336,0.927c0,0,0,0-0.059-0.058c0.926-0.927,4.226-3.07,8.741-3.07
				c0.117-0.693,0.233-1.737,0.464-2.661c-1.447-0.175-4.691,1.331-8.482,3.908c0,0,0,0-0.056-0.058
				c1.417-1.592,5.583-5.183,8.884-6.512C531.652,2.488,531.885,1.1,532.173,0z"/>
			<polygon class="st0" points="521.009,19.659 526.036,16.44 531.063,19.659 			"/>
			<polygon class="st0" points="512.523,1.155 515.745,6.18 512.523,11.208 			"/>
		</g>
		<g>
			<path class="st1" d="M532.19,712.174c-0.289-1.102-0.461-2.549-0.52-3.301c-3.301-1.331-7.468-4.92-8.888-6.514c0,0,0,0,0.059-0.058
				c3.791,2.577,7.034,4.084,8.48,3.907c-0.23-0.927-0.347-1.968-0.461-2.662c-4.518,0-7.816-2.142-8.743-3.068c0,0,0,0,0.059-0.058
				c2.488,0.869,6.193,1.333,8.336,0.926c-0.29-0.983-0.348-2.197-0.406-2.836c-5.441,1.736-8.567,0.694-10.479-0.058
				c0.348-0.695,0.288-1.68-0.404-2.375c-0.868-0.868-2.258-0.868-3.126,0c-0.812,0.812-0.812,2.203,0.057,3.071
				c0.695,0.693,1.681,0.75,2.374,0.403c0.754,1.909,1.795,5.038,0.059,10.479c0.637,0.059,1.854,0.117,2.836,0.405
				c0.349-2.083-0.059-5.846-0.927-8.336c0,0,0,0,0.059-0.058c0.927,0.925,3.069,4.225,3.069,8.74
				c0.693,0.117,1.736,0.233,2.661,0.464c0.175-1.448-1.331-4.691-3.908-8.482c0,0,0,0,0.059-0.056
				c1.592,1.417,5.183,5.583,6.513,8.884C529.703,711.652,531.091,711.885,532.19,712.174z"/>
			<polygon class="st0" points="512.529,701.009 515.75,706.036 512.529,711.063 			"/>
			<polygon class="st0" points="531.035,692.527 526.01,695.745 520.983,692.527 			"/>
		</g>
		<g>
			<path class="st1" d="M0.017,712.19c1.101-0.289,2.548-0.461,3.301-0.52c1.331-3.301,4.919-7.468,6.513-8.888c0,0,0,0,0.059,0.059
				c-2.577,3.791-4.084,7.034-3.908,8.48c0.927-0.23,1.968-0.347,2.662-0.461c0-4.518,2.142-7.816,3.068-8.743c0,0,0,0,0.057,0.059
				c-0.868,2.488-1.333,6.193-0.925,8.336c0.984-0.29,2.197-0.348,2.836-0.406c-1.737-5.441-0.694-8.567,0.057-10.479
				c0.696,0.348,1.68,0.288,2.375-0.404c0.868-0.868,0.868-2.258,0-3.126c-0.812-0.812-2.203-0.812-3.071,0.057
				c-0.693,0.695-0.75,1.681-0.403,2.374c-1.91,0.754-5.038,1.795-10.479,0.059c-0.058,0.637-0.117,1.854-0.405,2.836
				c2.083,0.349,5.846-0.059,8.335-0.927c0,0,0,0,0.059,0.059c-0.925,0.927-4.225,3.069-8.741,3.069
				c-0.117,0.693-0.233,1.736-0.463,2.661c1.447,0.175,4.691-1.331,8.482-3.908c0,0,0,0,0.056,0.059
				c-1.417,1.592-5.583,5.183-8.884,6.513C0.539,709.703,0.305,711.091,0.017,712.19z"/>
			<polygon class="st0" points="11.181,692.531 6.155,695.75 1.127,692.531 			"/>
			<polygon class="st0" points="19.667,711.035 16.446,706.01 19.667,700.983 			"/>
		</g>
	</g>
</g>
</svg>
