<?xml version="1.0" encoding="utf-8"?>
<!-- Generator: Adobe Illustrator 14.0.0, SVG Export Plug-In . SVG Version: 6.00 Build 43363)  -->
<!DOCTYPE svg PUBLIC "-//W3C//DTD SVG 1.1//EN" "http://www.w3.org/Graphics/SVG/1.1/DTD/svg11.dtd">
<svg version="1.1" id="Nouveau_x5F_39_xA0_Image_1_"
	 xmlns="http://www.w3.org/2000/svg" xmlns:xlink="http://www.w3.org/1999/xlink" x="0px" y="0px" width="700.878px"
	 height="926.166px" viewBox="13.473 20.834 700.878 926.166" style="enable-background:new 13.473 20.834 700.878 926.166;"
	 xml:space="preserve">
<style type="text/css">
<![CDATA[
	.st0{fill-rule:evenodd;clip-rule:evenodd;fill:none;stroke:#000000;stroke-width:3.0938;stroke-linecap:round;}
	.st1{fill-rule:evenodd;clip-rule:evenodd;fill:none;stroke:#000000;stroke-width:2.6968;stroke-linecap:round;}
	.st2{fill-rule:evenodd;clip-rule:evenodd;fill:none;stroke:#000000;stroke-width:2.8445;stroke-linecap:round;}
	.st3{fill-rule:evenodd;clip-rule:evenodd;fill:none;stroke:#000000;stroke-width:3;stroke-linecap:round;}
	.st4{fill-rule:evenodd;clip-rule:evenodd;fill:none;stroke:#000000;stroke-width:1.2;stroke-linecap:round;}
	.st5{fill-rule:evenodd;clip-rule:evenodd;fill:none;stroke:#000000;stroke-width:3.1885;stroke-linecap:round;}
	.st6{fill-rule:evenodd;clip-rule:evenodd;fill:none;stroke:#000000;stroke-width:2.1381;stroke-linecap:round;}
	.st7{fill-rule:evenodd;clip-rule:evenodd;fill:none;stroke:#000000;stroke-width:2.7175;stroke-linecap:round;}
	.st8{fill-rule:evenodd;clip-rule:evenodd;fill:none;stroke:#000000;stroke-width:1.964;stroke-linecap:round;}
	.st9{fill-rule:evenodd;clip-rule:evenodd;fill:none;stroke:#000000;stroke-width:3.0865;stroke-linecap:round;}
	.st10{fill-rule:evenodd;clip-rule:evenodd;fill:none;stroke:#000000;stroke-width:3.087;stroke-linecap:round;}
	.st11{fill-rule:evenodd;clip-rule:evenodd;fill:none;stroke:#000000;stroke-width:2.1213;stroke-linecap:round;}
	.st12{fill-rule:evenodd;clip-rule:evenodd;fill:none;stroke:#000000;stroke-width:3.1623;stroke-linecap:round;}
	.st13{fill-rule:evenodd;clip-rule:evenodd;fill:none;stroke:#000000;stroke-width:3.6515;stroke-linecap:round;}
	.st14{fill:#000000;fill-rule:evenodd;clip-rule:evenodd;}
	.st15{fill-rule:evenodd;clip-rule:evenodd;fill:none;stroke:#000000;stroke-width:3.1091;stroke-linecap:round;}
	.st16{fill-rule:evenodd;clip-rule:evenodd;fill:none;stroke:#000000;stroke-width:1.3333;stroke-linecap:round;}
	.st17{fill-rule:evenodd;clip-rule:evenodd;fill:none;stroke:#000000;stroke-width:3.0896;stroke-linecap:round;}
	.st18{fill-rule:evenodd;clip-rule:evenodd;fill:none;stroke:#000000;stroke-width:3.0912;stroke-linecap:round;}
	.st19{fill-rule:evenodd;clip-rule:evenodd;fill:none;stroke:#000000;stroke-width:2.273;stroke-linecap:round;}
	.st20{fill-rule:evenodd;clip-rule:evenodd;fill:none;stroke:#000000;stroke-width:3.7125;stroke-linecap:round;}
	.st21{fill-rule:evenodd;clip-rule:evenodd;fill:none;stroke:#000000;stroke-width:2.6646;stroke-linecap:round;}
	.st22{fill-rule:evenodd;clip-rule:evenodd;fill:none;stroke:#000000;stroke-width:3.0822;stroke-linecap:round;}
	.st23{fill-rule:evenodd;clip-rule:evenodd;fill:none;stroke:#000000;stroke-width:2.8723;stroke-linecap:round;}
	.st24{fill-rule:evenodd;clip-rule:evenodd;fill:none;stroke:#000000;stroke-width:3.0984;stroke-linecap:round;}
	.st25{fill-rule:evenodd;clip-rule:evenodd;fill:none;stroke:#000000;stroke-width:3.559;stroke-linecap:round;}
	.st26{fill-rule:evenodd;clip-rule:evenodd;fill:none;stroke:#000000;stroke-width:1.3565;stroke-linecap:round;}
]]>
</style>
<g>
	<g>
		<path class="st14" d="M30,26c-1.889-0.111-0.694-3.306-3-3c1.157-3.843,8.761-1.239,13-2c-0.236,4.43-1.072,8.262-5,9
			c-0.025-2.641,0.933-6.266-3-5l-1.5-0.5L30,26z"/>
		<path class="st14" d="M21,41c-1.208,3.126-3.334,5.332-7,6c-0.84-4.217-0.425-10.37,1-15C19.501,32.499,18.229,38.771,21,41z"/>
		<path class="st14" d="M119,43c-0.965,2.035-3.84,2.16-7,2c-4.121-9.943,2.341-16.405,10-10l-1.5,1.167L121,38
			c-1.89,0.443-6.027-1.36-5,2c0.667,0,1.333,0,2,0l-0.5,1.833L119,43z"/>
		<path class="st14" d="M123.5,36.833L123,35c4,0,8,0,12,0l-0.5,1.833L136,38c0,0.667,0,1.333,0,2l-1.5,1.167L135,43c-5,0-10,0-15,0
			l0.5-1.833L119,40c0.226-1.44,2.985-0.349,3-2L123.5,36.833z"/>
		<path class="st14" d="M140.5,36.5L140,35c-0.093-3.093,3.02-2.98,6-3c0,4.333,0,8.667,0,13c-2.319,0.319-3.839-0.161-5-1l0.5-1.5
			L141,41c0.086-1.419,0.165-2.832-1-3L140.5,36.5z"/>
		<path class="st14" d="M191,43c-0.965,2.035-3.84,2.16-7,2c-4.121-9.943,2.341-16.405,10-10l-1.5,1.167L193,38
			c-1.89,0.443-6.027-1.36-5,2c0.667,0,1.333,0,2,0l-0.5,1.833L191,43z"/>
		<path class="st14" d="M195.5,36.833L195,35c4,0,8,0,12,0l-0.5,1.833L208,38c0,0.667,0,1.333,0,2l-1.5,1.167L207,43c-5,0-10,0-15,0
			l0.5-1.833L191,40c0.226-1.44,2.985-0.349,3-2L195.5,36.833z"/>
		<path class="st14" d="M212.5,36.5L212,35c-0.093-3.093,3.02-2.98,6-3c0,4.333,0,8.667,0,13c-2.319,0.319-3.839-0.161-5-1l0.5-1.5
			L213,41c0.086-1.419,0.165-2.832-1-3L212.5,36.5z"/>
		<path class="st14" d="M263,43c-0.965,2.035-3.84,2.16-7,2c-4.121-9.943,2.341-16.405,10-10l-1.5,1.167L265,38
			c-1.89,0.443-6.027-1.36-5,2c0.667,0,1.333,0,2,0l-0.5,1.833L263,43z"/>
		<path class="st14" d="M267.5,36.833L267,35c4,0,8,0,12,0l-0.5,1.833L280,38c0,0.667,0,1.333,0,2l-1.5,1.167L279,43c-5,0-10,0-15,0
			l0.5-1.833L263,40c0.227-1.44,2.984-0.349,3-2L267.5,36.833z"/>
		<path class="st14" d="M284.5,36.5L284,35c-0.093-3.093,3.02-2.98,6-3c0,4.333,0,8.667,0,13c-2.319,0.319-3.839-0.161-5-1l0.5-1.5
			L285,41c0.086-1.419,0.165-2.832-1-3L284.5,36.5z"/>
		<path class="st14" d="M335,43c-0.965,2.035-3.84,2.16-7,2c-4.121-9.943,2.341-16.405,10-10l-1.5,1.167L337,38
			c-1.89,0.443-6.027-1.36-5,2c0.667,0,1.333,0,2,0l-0.5,1.833L335,43z"/>
		<path class="st14" d="M339.5,36.833L339,35c4,0,8,0,12,0l-0.5,1.833L352,38c0,0.667,0,1.333,0,2l-1.5,1.167L351,43c-5,0-10,0-15,0
			l0.5-1.833L335,40c0.227-1.44,2.984-0.349,3-2L339.5,36.833z"/>
		<path class="st14" d="M356.5,36.5L356,35c-0.093-3.093,3.02-2.98,6-3c0,4.333,0,8.667,0,13c-2.319,0.319-3.839-0.161-5-1l0.5-1.5
			L357,41c0.086-1.419,0.165-2.832-1-3L356.5,36.5z"/>
		<path class="st14" d="M407,43c-0.965,2.035-3.84,2.16-7,2c-4.121-9.943,2.341-16.405,10-10l-1.5,1.167L409,38
			c-1.89,0.443-6.026-1.36-5,2c0.667,0,1.333,0,2,0l-0.5,1.833L407,43z"/>
		<path class="st14" d="M411.5,36.833L411,35c4,0,8,0,12,0l-0.5,1.833L424,38c0,0.667,0,1.333,0,2l-1.5,1.167L423,43c-5,0-10,0-15,0
			l0.5-1.833L407,40c0.227-1.44,2.984-0.349,3-2L411.5,36.833z"/>
		<path class="st14" d="M428.5,36.5L428,35c-0.093-3.093,3.02-2.98,6-3c0,4.333,0,8.667,0,13c-2.319,0.319-3.839-0.161-5-1l0.5-1.5
			L429,41c0.086-1.419,0.165-2.832-1-3L428.5,36.5z"/>
		<path class="st14" d="M479,43c-0.965,2.035-3.84,2.16-7,2c-4.121-9.943,2.341-16.405,10-10l-1.5,1.167L481,38
			c-1.89,0.443-6.026-1.36-5,2c0.667,0,1.333,0,2,0l-0.5,1.833L479,43z"/>
		<path class="st14" d="M483.5,36.833L483,35c4,0,8,0,12,0l-0.5,1.833L496,38c0,0.667,0,1.333,0,2l-1.5,1.167L495,43c-5,0-10,0-15,0
			l0.5-1.833L479,40c0.227-1.44,2.984-0.349,3-2L483.5,36.833z"/>
		<path class="st14" d="M500.5,36.5L500,35c-0.093-3.093,3.02-2.98,6-3c0,4.333,0,8.667,0,13c-2.319,0.319-3.839-0.161-5-1l0.5-1.5
			L501,41c0.086-1.419,0.165-2.832-1-3L500.5,36.5z"/>
		<path class="st14" d="M551,43c-0.965,2.035-3.84,2.16-7,2c-4.121-9.943,2.341-16.405,10-10l-1.5,1.167L553,38
			c-1.89,0.443-6.026-1.36-5,2c0.667,0,1.333,0,2,0l-0.5,1.833L551,43z"/>
		<path class="st14" d="M555.5,36.833L555,35c4,0,8,0,12,0l-0.5,1.833L568,38c0,0.667,0,1.333,0,2l-1.5,1.167L567,43c-5,0-10,0-15,0
			l0.5-1.833L551,40c0.227-1.44,2.984-0.349,3-2L555.5,36.833z"/>
		<path class="st14" d="M572.5,36.5L572,35c-0.093-3.093,3.02-2.98,6-3c0,4.333,0,8.667,0,13c-2.319,0.319-3.839-0.161-5-1l0.5-1.5
			L573,41c0.086-1.419,0.165-2.832-1-3L572.5,36.5z"/>
		<path class="st14" d="M623,43c-0.965,2.035-3.84,2.16-7,2c-4.121-9.943,2.341-16.405,10-10l-1.5,1.167L625,38
			c-1.89,0.443-6.026-1.36-5,2c0.667,0,1.333,0,2,0l-0.5,1.833L623,43z"/>
		<path class="st14" d="M627.5,36.833L627,35c4,0,8,0,12,0l-0.5,1.833L640,38c0,0.667,0,1.333,0,2l-1.5,1.167L639,43c-5,0-10,0-15,0
			l0.5-1.833L623,40c0.227-1.44,2.984-0.349,3-2L627.5,36.833z"/>
		<path class="st14" d="M644.5,36.5L644,35c-0.093-3.093,3.02-2.98,6-3c0,4.333,0,8.667,0,13c-2.319,0.319-3.839-0.161-5-1l0.5-1.5
			L645,41c0.086-1.419,0.165-2.832-1-3L644.5,36.5z"/>
		<path class="st14" d="M83,43c-0.87,1.464-1.497,3.169-4,3c-1.68-2.733-3.25-9.509-1-13c2.48-0.147,4.853-0.186,5,2l-1.5,1.167
			L82,38c-0.333,0-0.667,0-1,0c-0.163,1.163,0.221,1.779,1,2l-0.5,1.833L83,43z"/>
		<path class="st14" d="M85.5,36.833L85,35c5,0,10,0,15,0l-0.5,1.833L101,38c-3.947,2.645,0.459,0.904,2,3l-1.5,1.167L102,44
			c-6.397-1.505-11.301,1.453-17-1l1.5-1.167L86,40c0.851,0.184,0.943-0.39,1-1c-1.419,0.086-2.832,0.165-3-1L85.5,36.833z"/>
		<path class="st14" d="M104.5,36.5L104,35c0.147-2.186,2.52-2.147,5-2c1.917,2.417,0.631,8.036,1,12c-1.453-0.547-5.168,1.168-5-1
			l-0.5-1.5L104,41c1.274-0.226,1.311-2.984,0-3L104.5,36.5z"/>
		<path class="st14" d="M155,43c-0.87,1.464-1.497,3.169-4,3c-1.68-2.733-3.25-9.509-1-13c2.48-0.147,4.853-0.186,5,2l-1.5,1.167
			L154,38c-0.333,0-0.667,0-1,0c-0.163,1.163,0.221,1.779,1,2l-0.5,1.833L155,43z"/>
		<path class="st14" d="M157.5,36.833L157,35c5,0,10,0,15,0l-0.5,1.833L173,38c-3.947,2.645,0.459,0.904,2,3l-1.5,1.167L174,44
			c-6.397-1.505-11.301,1.453-17-1l1.5-1.167L158,40c0.851,0.184,0.943-0.39,1-1c-1.419,0.086-2.832,0.165-3-1L157.5,36.833z"/>
		<path class="st14" d="M176.5,36.5L176,35c0.147-2.186,2.52-2.147,5-2c1.917,2.417,0.631,8.036,1,12c-1.453-0.547-5.168,1.168-5-1
			l-0.5-1.5L176,41c1.274-0.226,1.311-2.984,0-3L176.5,36.5z"/>
		<path class="st14" d="M227,43c-0.87,1.464-1.497,3.169-4,3c-1.68-2.733-3.25-9.509-1-13c2.48-0.147,4.853-0.186,5,2l-1.5,1.167
			L226,38c-0.333,0-0.667,0-1,0c-0.163,1.163,0.221,1.779,1,2l-0.5,1.833L227,43z"/>
		<path class="st14" d="M229.5,36.833L229,35c5,0,10,0,15,0l-0.5,1.833L245,38c-3.947,2.645,0.459,0.904,2,3l-1.5,1.167L246,44
			c-6.397-1.505-11.301,1.453-17-1l1.5-1.167L230,40c0.851,0.184,0.943-0.39,1-1c-1.419,0.086-2.832,0.165-3-1L229.5,36.833z"/>
		<path class="st14" d="M248.5,36.5L248,35c0.147-2.186,2.52-2.147,5-2c1.917,2.417,0.631,8.036,1,12c-1.453-0.547-5.168,1.168-5-1
			l-0.5-1.5L248,41c1.274-0.226,1.311-2.984,0-3L248.5,36.5z"/>
		<path class="st14" d="M299,43c-0.87,1.464-1.497,3.169-4,3c-1.68-2.733-3.25-9.509-1-13c2.48-0.147,4.853-0.186,5,2l-1.5,1.167
			L298,38c-0.333,0-0.667,0-1,0c-0.163,1.163,0.221,1.779,1,2l-0.5,1.833L299,43z"/>
		<path class="st14" d="M301.5,36.833L301,35c5,0,10,0,15,0l-0.5,1.833L317,38c-3.947,2.645,0.459,0.904,2,3l-1.5,1.167L318,44
			c-6.397-1.505-11.301,1.453-17-1l1.5-1.167L302,40c0.851,0.184,0.943-0.39,1-1c-1.419,0.086-2.832,0.165-3-1L301.5,36.833z"/>
		<path class="st14" d="M320.5,36.5L320,35c0.147-2.186,2.52-2.147,5-2c1.917,2.417,0.631,8.036,1,12c-1.453-0.547-5.168,1.168-5-1
			l-0.5-1.5L320,41c1.274-0.226,1.311-2.984,0-3L320.5,36.5z"/>
		<path class="st14" d="M371,43c-0.869,1.464-1.497,3.169-4,3c-1.68-2.733-3.25-9.509-1-13c2.48-0.147,4.853-0.186,5,2l-1.5,1.167
			L370,38c-0.333,0-0.667,0-1,0c-0.163,1.163,0.221,1.779,1,2l-0.5,1.833L371,43z"/>
		<path class="st14" d="M373.5,36.833L373,35c5,0,10,0,15,0l-0.5,1.833L389,38c-3.946,2.645,0.459,0.904,2,3l-1.5,1.167L390,44
			c-6.396-1.505-11.301,1.453-17-1l1.5-1.167L374,40c0.851,0.184,0.943-0.39,1-1c-1.419,0.086-2.832,0.165-3-1L373.5,36.833z"/>
		<path class="st14" d="M392.5,36.5L392,35c0.147-2.186,2.52-2.147,5-2c1.917,2.417,0.631,8.036,1,12c-1.453-0.547-5.169,1.168-5-1
			l-0.5-1.5L392,41c1.273-0.226,1.311-2.984,0-3L392.5,36.5z"/>
		<path class="st14" d="M443,43c-0.869,1.464-1.497,3.169-4,3c-1.68-2.733-3.251-9.509-1-13c2.48-0.147,4.853-0.186,5,2l-1.5,1.167
			L442,38c-0.333,0-0.667,0-1,0c-0.163,1.163,0.221,1.779,1,2l-0.5,1.833L443,43z"/>
		<path class="st14" d="M445.5,36.833L445,35c5,0,10,0,15,0l-0.5,1.833L461,38c-3.946,2.645,0.459,0.904,2,3l-1.5,1.167L462,44
			c-6.396-1.505-11.301,1.453-17-1l1.5-1.167L446,40c0.851,0.184,0.943-0.39,1-1c-1.419,0.086-2.832,0.165-3-1L445.5,36.833z"/>
		<path class="st14" d="M464.5,36.5L464,35c0.147-2.186,2.52-2.147,5-2c1.917,2.417,0.631,8.036,1,12c-1.453-0.547-5.169,1.168-5-1
			l-0.5-1.5L464,41c1.273-0.226,1.311-2.984,0-3L464.5,36.5z"/>
		<path class="st14" d="M515,43c-0.869,1.464-1.497,3.169-4,3c-1.68-2.733-3.251-9.509-1-13c2.48-0.147,4.853-0.186,5,2l-1.5,1.167
			L514,38c-0.333,0-0.667,0-1,0c-0.162,1.163,0.221,1.779,1,2l-0.5,1.833L515,43z"/>
		<path class="st14" d="M517.5,36.833L517,35c5,0,10,0,15,0l-0.5,1.833L533,38c-3.946,2.645,0.459,0.904,2,3l-1.5,1.167L534,44
			c-6.396-1.505-11.301,1.453-17-1l1.5-1.167L518,40c0.851,0.184,0.943-0.39,1-1c-1.419,0.086-2.832,0.165-3-1L517.5,36.833z"/>
		<path class="st14" d="M536.5,36.5L536,35c0.147-2.186,2.52-2.147,5-2c1.916,2.417,0.631,8.036,1,12c-1.453-0.547-5.169,1.168-5-1
			l-0.5-1.5L536,41c1.273-0.226,1.311-2.984,0-3L536.5,36.5z"/>
		<path class="st14" d="M587,43c-0.869,1.464-1.497,3.169-4,3c-1.68-2.733-3.251-9.509-1-13c2.48-0.147,4.853-0.186,5,2l-1.5,1.167
			L586,38c-0.333,0-0.667,0-1,0c-0.162,1.163,0.221,1.779,1,2l-0.5,1.833L587,43z"/>
		<path class="st14" d="M589.5,36.833L589,35c5,0,10,0,15,0l-0.5,1.833L605,38c-3.946,2.645,0.459,0.904,2,3l-1.5,1.167L606,44
			c-6.396-1.505-11.301,1.453-17-1l1.5-1.167L590,40c0.851,0.184,0.943-0.39,1-1c-1.419,0.086-2.832,0.165-3-1L589.5,36.833z"/>
		<path class="st14" d="M608.5,36.5L608,35c0.147-2.186,2.52-2.147,5-2c1.916,2.417,0.631,8.036,1,12c-1.453-0.547-5.169,1.168-5-1
			l-0.5-1.5L608,41c1.273-0.226,1.311-2.984,0-3L608.5,36.5z"/>
		<path class="st14" d="M662,34c6.455-1.428,12.47,2.827,17,0c3.102,2.651,1.658,7.079,0,10c-1.656,0.143-8.354-1.941-14-1
			l0.5-1.833L664,40c-0.593-2.375,8.666,0.155,5-2c-2.391-0.609-7.255,1.255-8-1l1.5-1.167L662,34z"/>
		<path class="st14" d="M662.5,41.833L664,43c-1.812,2.188-7.83,0.17-10,2c-1.563-2.293-1.563-9.707,0-12
			c2.319-0.319,3.839,0.161,5,1l-0.5,1.5L659,37c-2.732,2.64,0.642,3.598,4,3L662.5,41.833z"/>
		<path class="st14" d="M29,64c0-4,0-8,0-12c1.617-1.633,4.183,0.893,8,0c0,4.667,0,9.333,0,14l-1.833-0.5L34,67
			c-1.086-0.247-0.678-1.988-2-2l-1.167-1.5L29,64z"/>
		<path class="st14" d="M35.833,70.5L37,69c2.236,0.431,0.405,4.928,1,7c-3.675-0.325-8.853,0.853-11-1
			c-1.322-1.307-0.218-5.293,2-6l1.167,1.5L32,70c0.247,1.258,1.988,1.009,2,0L35.833,70.5z"/>
		<path class="st14" d="M691,61c0-3,0-6,0-9c1.758-0.575,5.875,1.208,6-1c2.4,2.933,2.017,8.65,2,14l-1.833-0.5L696,66
			c-2.716,0.715,0.716-4.715-2-4l-1.167-1.5L691,61z"/>
		<path class="st14" d="M697.833,70.5L699,69c2.555,0.112,1.984,3.349,2,6c-2.048,1.548-8.952,1.548-11,0
			c0.575-1.758-1.209-5.875,1-6l1.167,1.5L694,70c0.247,1.258,1.988,1.009,2,0L697.833,70.5z"/>
		<path class="st14" d="M29,86c-1.526-1.807-3.604-3.063-3-7c2.554-1.576,10.446-1.576,13,0c0.857,3.19-1.574,3.093-2,5l-1.5-0.5
			L34,83c-1.615-0.282-1.722,0.945-3,1l-1.5,0.5L29,86z"/>
		<path class="st14" d="M34.167,91.5L36,91c-0.067,4.106,2.753,10.529,0,14l-1.167-1.5L33,104c0.163-1.163-0.221-1.779-1-2
			c-0.083,1.583,0.481,3.814-1,4l-1.167-1.5L28,105c-0.067-5.067,1.719-8.281,1-14l1.833,0.5L32,90c0.333,0,0.667,0,1,0L34.167,91.5
			z"/>
		<path class="st14" d="M34.833,108.5L36,107c2.152,0.848,3.537,2.463,3,6c-3.888,0.99-10.415,3.505-13,0
			c-0.15-2.483,0.517-4.15,2-5l1.167,1.5L31,109c0,0.333,0,0.667,0,1c1.701,0.368,1.887-0.78,2-2L34.833,108.5z"/>
		<path class="st14" d="M691,84c-1.759-0.241-2.279-1.721-2-4c2.127-2.003,8.925-3.098,12-1c0.207,2.874-0.254,5.08-2,6l-1.167-1.5
			L696,84c-0.247-1.258-1.988-1.009-2,0l-1.5-0.5L691,84z"/>
		<path class="st14" d="M697.167,87.5L699,87c0,5,0,10,0,15l-1.833-0.5L696,103c-0.81-0.19-0.997-1.003-2-1l-1.167-1.5L691,101
			c0-4.333,0-8.667,0-13l1.833,0.5L694,87c0.81-0.19,0.997-1.003,2-1L697.167,87.5z"/>
		<path class="st14" d="M697.5,106.5l1.5-0.5c1.972,0.789,3.595,3.498,2,5c-2.417,1.917-8.035,0.631-12,1
			c0.084-3.249,0.516-6.151,2-8l1.167,1.5L694,105c-0.551,2.051,1.91,2.386,2,1L697.5,106.5z"/>
		<path class="st14" d="M692,139c-1.82-7.18-0.497-17.503-3-24c4.228-1.224,10.441-2.481,13,0c0.279,2.279-0.241,3.759-2,4l-1.5-0.5
			L697,119c-0.027-0.973-1.225-0.776-2-1c0.609,2.391-1.255,7.255,1,8l1.167,1.5L699,127c0,3.667,0,7.333,0,11l-1.833-0.5L696,139
			c-0.81,0.19-0.997,1.003-2,1l-0.5-1.5L692,139z"/>
		<path class="st14" d="M698,122.75l2,0.25c0.162,1.163-0.221,1.779-1,2l-1-1.75l-2-0.25c-0.162-1.163,0.221-1.779,1-2L698,122.75z"
			/>
		<path class="st14" d="M698.5,144.5l0.5-1.5c2.152,0.848,3.537,2.463,3,6c-2.555,1.576-10.445,1.576-13,0
			c0.125-3.542,1.643-5.691,3-8l0.5,1.5l1.5,0.5c-0.688,3.327,2.067,1.611,3,1L698.5,144.5z"/>
		<path class="st14" d="M29,122c-8.75-4.148,5.117-8.627,10-5c-0.105,2.561-0.566,4.767-2,6l-1.167-1.5L34,122
			c-0.247-1.258-1.988-1.009-2,0l-1.5-0.5L29,122z"/>
		<path class="st14" d="M35.167,127.5L37,127c0,4.667,0,9.333,0,14l-1.833-0.5L34,142c-0.667,0-1.333,0-2,0l-1.167-1.5L29,141
			c0-4.667,0-9.333,0-14l1.833,0.5L32,126c0.667,0,1.333,0,2,0L35.167,127.5z"/>
		<path class="st14" d="M35.5,144.5L37,144c1.759,0.241,2.279,1.721,2,4c-2.44,2.227-7.14,2.193-12,2c-1.426-3.033,0.475-5.326,2-8
			l1.167,1.5L32,143c-0.086,1.419-0.165,2.832,1,3c0.19-0.81,1.003-0.997,1-2L35.5,144.5z"/>
		<path class="st14" d="M29,160c-1.526-1.807-3.604-3.063-3-7c2.554-1.576,10.446-1.576,13,0c0.857,3.19-1.574,3.093-2,5l-1.5-0.5
			L34,157c-1.615-0.282-1.722,0.945-3,1l-1.5,0.5L29,160z"/>
		<path class="st14" d="M34.167,165.5L36,165c-0.067,4.106,2.753,10.529,0,14l-1.167-1.5L33,178c0.163-1.163-0.221-1.779-1-2
			c-0.083,1.583,0.481,3.814-1,4l-1.167-1.5L28,179c-0.067-5.067,1.719-8.281,1-14l1.833,0.5L32,164c0.333,0,0.667,0,1,0
			L34.167,165.5z"/>
		<path class="st14" d="M34.833,182.5L36,181c2.152,0.848,3.537,2.463,3,6c-3.888,0.99-10.415,3.504-13,0
			c-0.15-2.483,0.517-4.15,2-5l1.167,1.5L31,183c0,0.333,0,0.667,0,1c1.701,0.368,1.887-0.78,2-2L34.833,182.5z"/>
		<path class="st14" d="M691,158c-1.759-0.241-2.279-1.721-2-4c2.127-2.003,8.925-3.098,12-1c0.207,2.874-0.254,5.08-2,6l-1.167-1.5
			L696,158c-0.247-1.258-1.988-1.009-2,0l-1.5-0.5L691,158z"/>
		<path class="st14" d="M697.167,161.5L699,161c0,5,0,10,0,15l-1.833-0.5L696,177c-0.81-0.19-0.997-1.003-2-1l-1.167-1.5L691,175
			c0-4.333,0-8.667,0-13l1.833,0.5L694,161c0.81-0.19,0.997-1.003,2-1L697.167,161.5z"/>
		<path class="st14" d="M697.5,180.5l1.5-0.5c1.972,0.789,3.595,3.498,2,5c-2.417,1.917-8.035,0.631-12,1
			c0.084-3.249,0.516-6.151,2-8l1.167,1.5L694,179c-0.551,2.051,1.91,2.386,2,1L697.5,180.5z"/>
		<path class="st14" d="M692,213c-1.82-7.18-0.497-17.503-3-24c4.228-1.224,10.441-2.481,13,0c0.279,2.279-0.241,3.759-2,4l-1.5-0.5
			L697,193c-0.027-0.973-1.225-0.776-2-1c0.609,2.391-1.255,7.255,1,8l1.167,1.5L699,201c0,3.667,0,7.333,0,11l-1.833-0.5L696,213
			c-0.81,0.19-0.997,1.003-2,1l-0.5-1.5L692,213z"/>
		<path class="st14" d="M698,196.75l2,0.25c0.162,1.163-0.221,1.779-1,2l-1-1.75l-2-0.25c-0.162-1.163,0.221-1.779,1-2L698,196.75z"
			/>
		<path class="st14" d="M698.5,218.5l0.5-1.5c2.152,0.848,3.537,2.463,3,6c-2.555,1.576-10.445,1.576-13,0
			c0.125-3.542,1.643-5.691,3-8l0.5,1.5l1.5,0.5c-0.688,3.327,2.067,1.611,3,1L698.5,218.5z"/>
		<path class="st14" d="M29,196c-8.75-4.148,5.117-8.627,10-5c-0.105,2.561-0.566,4.767-2,6l-1.167-1.5L34,196
			c-0.247-1.258-1.988-1.009-2,0l-1.5-0.5L29,196z"/>
		<path class="st14" d="M35.167,201.5L37,201c0,4.667,0,9.333,0,14l-1.833-0.5L34,216c-0.667,0-1.333,0-2,0l-1.167-1.5L29,215
			c0-4.667,0-9.333,0-14l1.833,0.5L32,200c0.667,0,1.333,0,2,0L35.167,201.5z"/>
		<path class="st14" d="M35.5,218.5L37,218c1.759,0.241,2.279,1.721,2,4c-2.44,2.227-7.14,2.193-12,2c-1.426-3.033,0.475-5.326,2-8
			l1.167,1.5L32,217c-0.086,1.419-0.165,2.832,1,3c0.19-0.81,1.003-0.997,1-2L35.5,218.5z"/>
		<path class="st14" d="M29,234c-1.526-1.807-3.604-3.063-3-7c2.554-1.576,10.446-1.576,13,0c0.857,3.19-1.574,3.093-2,5l-1.5-0.5
			L34,231c-1.615-0.282-1.722,0.945-3,1l-1.5,0.5L29,234z"/>
		<path class="st14" d="M34.167,239.5L36,239c-0.067,4.106,2.753,10.529,0,14l-1.167-1.5L33,252c0.163-1.163-0.221-1.779-1-2
			c-0.083,1.583,0.481,3.814-1,4l-1.167-1.5L28,253c-0.067-5.067,1.719-8.281,1-14l1.833,0.5L32,238c0.333,0,0.667,0,1,0
			L34.167,239.5z"/>
		<path class="st14" d="M34.833,256.5L36,255c2.152,0.848,3.537,2.463,3,6c-3.888,0.99-10.415,3.504-13,0
			c-0.15-2.483,0.517-4.15,2-5l1.167,1.5L31,257c0,0.333,0,0.667,0,1c1.701,0.368,1.887-0.78,2-2L34.833,256.5z"/>
		<path class="st14" d="M691,232c-1.759-0.241-2.279-1.721-2-4c2.127-2.003,8.925-3.098,12-1c0.207,2.874-0.254,5.08-2,6l-1.167-1.5
			L696,232c-0.247-1.258-1.988-1.009-2,0l-1.5-0.5L691,232z"/>
		<path class="st14" d="M697.167,235.5L699,235c0,5,0,10,0,15l-1.833-0.5L696,251c-0.81-0.19-0.997-1.003-2-1l-1.167-1.5L691,249
			c0-4.333,0-8.667,0-13l1.833,0.5L694,235c0.81-0.19,0.997-1.003,2-1L697.167,235.5z"/>
		<path class="st14" d="M697.5,254.5l1.5-0.5c1.972,0.789,3.595,3.498,2,5c-2.417,1.917-8.035,0.631-12,1
			c0.084-3.249,0.516-6.151,2-8l1.167,1.5L694,253c-0.551,2.051,1.91,2.386,2,1L697.5,254.5z"/>
		<path class="st14" d="M692,287c-1.82-7.18-0.497-17.503-3-24c4.228-1.224,10.441-2.481,13,0c0.279,2.279-0.241,3.759-2,4l-1.5-0.5
			L697,267c-0.027-0.973-1.225-0.776-2-1c0.609,2.391-1.255,7.255,1,8l1.167,1.5L699,275c0,3.667,0,7.333,0,11l-1.833-0.5L696,287
			c-0.81,0.19-0.997,1.003-2,1l-0.5-1.5L692,287z"/>
		<path class="st14" d="M698,270.75l2,0.25c0.162,1.163-0.221,1.779-1,2l-1-1.75l-2-0.25c-0.162-1.163,0.221-1.779,1-2L698,270.75z"
			/>
		<path class="st14" d="M698.5,292.5l0.5-1.5c2.152,0.848,3.537,2.463,3,6c-2.555,1.576-10.445,1.576-13,0
			c0.125-3.542,1.643-5.691,3-8l0.5,1.5l1.5,0.5c-0.688,3.327,2.067,1.611,3,1L698.5,292.5z"/>
		<path class="st14" d="M29,270c-8.75-4.148,5.117-8.627,10-5c-0.105,2.561-0.566,4.767-2,6l-1.167-1.5L34,270
			c-0.247-1.258-1.988-1.009-2,0l-1.5-0.5L29,270z"/>
		<path class="st14" d="M35.167,275.5L37,275c0,4.667,0,9.333,0,14l-1.833-0.5L34,290c-0.667,0-1.333,0-2,0l-1.167-1.5L29,289
			c0-4.667,0-9.333,0-14l1.833,0.5L32,274c0.667,0,1.333,0,2,0L35.167,275.5z"/>
		<path class="st14" d="M35.5,292.5L37,292c1.759,0.241,2.279,1.721,2,4c-2.44,2.227-7.14,2.193-12,2c-1.426-3.033,0.475-5.326,2-8
			l1.167,1.5L32,291c-0.086,1.419-0.165,2.832,1,3c0.19-0.81,1.003-0.997,1-2L35.5,292.5z"/>
		<path class="st14" d="M29,308c-1.526-1.807-3.604-3.063-3-7c2.554-1.576,10.446-1.576,13,0c0.857,3.19-1.574,3.093-2,5l-1.5-0.5
			L34,305c-1.615-0.282-1.722,0.945-3,1l-1.5,0.5L29,308z"/>
		<path class="st14" d="M34.167,313.5L36,313c-0.067,4.106,2.753,10.529,0,14l-1.167-1.5L33,326c0.163-1.163-0.221-1.779-1-2
			c-0.083,1.583,0.481,3.814-1,4l-1.167-1.5L28,327c-0.067-5.067,1.719-8.281,1-14l1.833,0.5L32,312c0.333,0,0.667,0,1,0
			L34.167,313.5z"/>
		<path class="st14" d="M34.833,330.5L36,329c2.152,0.848,3.537,2.463,3,6c-3.888,0.99-10.415,3.504-13,0
			c-0.15-2.483,0.517-4.15,2-5l1.167,1.5L31,331c0,0.333,0,0.667,0,1c1.701,0.368,1.887-0.78,2-2L34.833,330.5z"/>
		<path class="st14" d="M691,306c-1.759-0.241-2.279-1.721-2-4c2.127-2.003,8.925-3.097,12-1c0.207,2.874-0.254,5.08-2,6l-1.167-1.5
			L696,306c-0.247-1.258-1.988-1.009-2,0l-1.5-0.5L691,306z"/>
		<path class="st14" d="M697.167,309.5L699,309c0,5,0,10,0,15l-1.833-0.5L696,325c-0.81-0.19-0.997-1.003-2-1l-1.167-1.5L691,323
			c0-4.333,0-8.667,0-13l1.833,0.5L694,309c0.81-0.19,0.997-1.003,2-1L697.167,309.5z"/>
		<path class="st14" d="M697.5,328.5l1.5-0.5c1.972,0.789,3.595,3.498,2,5c-2.417,1.917-8.035,0.631-12,1
			c0.084-3.249,0.516-6.151,2-8l1.167,1.5L694,327c-0.551,2.051,1.91,2.386,2,1L697.5,328.5z"/>
		<path class="st14" d="M692,361c-1.82-7.18-0.497-17.503-3-24c4.228-1.224,10.441-2.481,13,0c0.279,2.279-0.241,3.759-2,4l-1.5-0.5
			L697,341c-0.027-0.973-1.225-0.776-2-1c0.609,2.391-1.255,7.255,1,8l1.167,1.5L699,349c0,3.667,0,7.333,0,11l-1.833-0.5L696,361
			c-0.81,0.19-0.997,1.003-2,1l-0.5-1.5L692,361z"/>
		<path class="st14" d="M698,344.75l2,0.25c0.162,1.163-0.221,1.779-1,2l-1-1.75l-2-0.25c-0.162-1.163,0.221-1.779,1-2L698,344.75z"
			/>
		<path class="st14" d="M698.5,366.5l0.5-1.5c2.152,0.848,3.537,2.463,3,6c-2.555,1.576-10.445,1.576-13,0
			c0.125-3.542,1.643-5.691,3-8l0.5,1.5l1.5,0.5c-0.688,3.327,2.067,1.611,3,1L698.5,366.5z"/>
		<path class="st14" d="M29,344c-8.75-4.148,5.117-8.627,10-5c-0.105,2.561-0.566,4.767-2,6l-1.167-1.5L34,344
			c-0.247-1.258-1.988-1.009-2,0l-1.5-0.5L29,344z"/>
		<path class="st14" d="M35.167,349.5L37,349c0,4.667,0,9.333,0,14l-1.833-0.5L34,364c-0.667,0-1.333,0-2,0l-1.167-1.5L29,363
			c0-4.667,0-9.333,0-14l1.833,0.5L32,348c0.667,0,1.333,0,2,0L35.167,349.5z"/>
		<path class="st14" d="M35.5,366.5L37,366c1.759,0.241,2.279,1.721,2,4c-2.44,2.227-7.14,2.193-12,2c-1.426-3.033,0.475-5.326,2-8
			l1.167,1.5L32,365c-0.086,1.419-0.165,2.832,1,3c0.19-0.81,1.003-0.997,1-2L35.5,366.5z"/>
		<path class="st14" d="M29,382c-1.526-1.807-3.604-3.063-3-7c2.554-1.576,10.446-1.576,13,0c0.857,3.19-1.574,3.093-2,5l-1.5-0.5
			L34,379c-1.615-0.282-1.722,0.945-3,1l-1.5,0.5L29,382z"/>
		<path class="st14" d="M34.167,387.5L36,387c-0.067,4.106,2.753,10.529,0,14l-1.167-1.5L33,400c0.163-1.163-0.221-1.779-1-2
			c-0.083,1.583,0.481,3.814-1,4l-1.167-1.5L28,401c-0.067-5.067,1.719-8.281,1-14l1.833,0.5L32,386c0.333,0,0.667,0,1,0
			L34.167,387.5z"/>
		<path class="st14" d="M34.833,404.5L36,403c2.152,0.848,3.537,2.463,3,6c-3.888,0.99-10.415,3.504-13,0
			c-0.15-2.483,0.517-4.15,2-5l1.167,1.5L31,405c0,0.333,0,0.667,0,1c1.701,0.368,1.887-0.78,2-2L34.833,404.5z"/>
		<path class="st14" d="M691,380c-1.759-0.241-2.279-1.721-2-4c2.127-2.003,8.925-3.097,12-1c0.207,2.874-0.254,5.08-2,6l-1.167-1.5
			L696,380c-0.247-1.258-1.988-1.009-2,0l-1.5-0.5L691,380z"/>
		<path class="st14" d="M697.167,383.5L699,383c0,5,0,10,0,15l-1.833-0.5L696,399c-0.81-0.19-0.997-1.003-2-1l-1.167-1.5L691,397
			c0-4.333,0-8.667,0-13l1.833,0.5L694,383c0.81-0.19,0.997-1.003,2-1L697.167,383.5z"/>
		<path class="st14" d="M697.5,402.5l1.5-0.5c1.972,0.789,3.595,3.498,2,5c-2.417,1.917-8.035,0.631-12,1
			c0.084-3.249,0.516-6.151,2-8l1.167,1.5L694,401c-0.551,2.051,1.91,2.386,2,1L697.5,402.5z"/>
		<path class="st14" d="M692,435c-1.82-7.18-0.497-17.503-3-24c4.228-1.224,10.441-2.481,13,0c0.279,2.279-0.241,3.759-2,4l-1.5-0.5
			L697,415c-0.027-0.973-1.225-0.776-2-1c0.609,2.391-1.255,7.255,1,8l1.167,1.5L699,423c0,3.667,0,7.333,0,11l-1.833-0.5L696,435
			c-0.81,0.19-0.997,1.003-2,1l-0.5-1.5L692,435z"/>
		<path class="st14" d="M698,418.75l2,0.25c0.162,1.163-0.221,1.779-1,2l-1-1.75l-2-0.25c-0.162-1.163,0.221-1.779,1-2L698,418.75z"
			/>
		<path class="st14" d="M698.5,440.5l0.5-1.5c2.152,0.848,3.537,2.463,3,6c-2.555,1.576-10.445,1.576-13,0
			c0.125-3.542,1.643-5.691,3-8l0.5,1.5l1.5,0.5c-0.688,3.327,2.067,1.611,3,1L698.5,440.5z"/>
		<path class="st14" d="M29,418c-8.75-4.148,5.117-8.627,10-5c-0.105,2.561-0.566,4.767-2,6l-1.167-1.5L34,418
			c-0.247-1.258-1.988-1.009-2,0l-1.5-0.5L29,418z"/>
		<path class="st14" d="M35.167,423.5L37,423c0,4.667,0,9.333,0,14l-1.833-0.5L34,438c-0.667,0-1.333,0-2,0l-1.167-1.5L29,437
			c0-4.667,0-9.333,0-14l1.833,0.5L32,422c0.667,0,1.333,0,2,0L35.167,423.5z"/>
		<path class="st14" d="M35.5,440.5L37,440c1.759,0.241,2.279,1.721,2,4c-2.44,2.227-7.14,2.193-12,2c-1.426-3.033,0.475-5.326,2-8
			l1.167,1.5L32,439c-0.086,1.419-0.165,2.832,1,3c0.19-0.81,1.003-0.997,1-2L35.5,440.5z"/>
		<path class="st14" d="M29,456c-1.526-1.807-3.604-3.063-3-7c2.554-1.576,10.446-1.576,13,0c0.857,3.19-1.574,3.093-2,5l-1.5-0.5
			L34,453c-1.615-0.282-1.722,0.945-3,1l-1.5,0.5L29,456z"/>
		<path class="st14" d="M34.167,461.5L36,461c-0.067,4.106,2.753,10.529,0,14l-1.167-1.5L33,474c0.163-1.163-0.221-1.779-1-2
			c-0.083,1.583,0.481,3.814-1,4l-1.167-1.5L28,475c-0.067-5.067,1.719-8.281,1-14l1.833,0.5L32,460c0.333,0,0.667,0,1,0
			L34.167,461.5z"/>
		<path class="st14" d="M34.833,478.5L36,477c2.152,0.848,3.537,2.463,3,6c-3.888,0.99-10.415,3.505-13,0
			c-0.15-2.483,0.517-4.15,2-5l1.167,1.5L31,479c0,0.333,0,0.667,0,1c1.701,0.368,1.887-0.78,2-2L34.833,478.5z"/>
		<path class="st14" d="M691,454c-1.759-0.241-2.279-1.721-2-4c2.127-2.003,8.925-3.097,12-1c0.207,2.874-0.254,5.08-2,6l-1.167-1.5
			L696,454c-0.247-1.258-1.988-1.009-2,0l-1.5-0.5L691,454z"/>
		<path class="st14" d="M697.167,457.5L699,457c0,5,0,10,0,15l-1.833-0.5L696,473c-0.81-0.19-0.997-1.003-2-1l-1.167-1.5L691,471
			c0-4.333,0-8.667,0-13l1.833,0.5L694,457c0.81-0.19,0.997-1.003,2-1L697.167,457.5z"/>
		<path class="st14" d="M697.5,476.5l1.5-0.5c1.972,0.789,3.595,3.498,2,5c-2.417,1.917-8.035,0.631-12,1
			c0.084-3.249,0.516-6.151,2-8l1.167,1.5L694,475c-0.551,2.051,1.91,2.386,2,1L697.5,476.5z"/>
		<path class="st14" d="M692,509c-1.82-7.18-0.497-17.503-3-24c4.228-1.224,10.441-2.481,13,0c0.279,2.279-0.241,3.759-2,4l-1.5-0.5
			L697,489c-0.027-0.973-1.225-0.776-2-1c0.609,2.391-1.255,7.255,1,8l1.167,1.5L699,497c0,3.667,0,7.333,0,11l-1.833-0.5L696,509
			c-0.81,0.19-0.997,1.003-2,1l-0.5-1.5L692,509z"/>
		<path class="st14" d="M698,492.75l2,0.25c0.162,1.163-0.221,1.779-1,2l-1-1.75l-2-0.25c-0.162-1.163,0.221-1.779,1-2L698,492.75z"
			/>
		<path class="st14" d="M698.5,514.5l0.5-1.5c2.152,0.848,3.537,2.463,3,6c-2.555,1.576-10.445,1.576-13,0
			c0.125-3.541,1.643-5.691,3-8l0.5,1.5l1.5,0.5c-0.688,3.327,2.067,1.611,3,1L698.5,514.5z"/>
		<path class="st14" d="M29,492c-8.75-4.147,5.117-8.627,10-5c-0.105,2.562-0.566,4.768-2,6l-1.167-1.5L34,492
			c-0.247-1.258-1.988-1.009-2,0l-1.5-0.5L29,492z"/>
		<path class="st14" d="M35.167,497.5L37,497c0,4.667,0,9.333,0,14l-1.833-0.5L34,512c-0.667,0-1.333,0-2,0l-1.167-1.5L29,511
			c0-4.667,0-9.333,0-14l1.833,0.5L32,496c0.667,0,1.333,0,2,0L35.167,497.5z"/>
		<path class="st14" d="M35.5,514.5L37,514c1.759,0.241,2.279,1.721,2,4c-2.44,2.227-7.14,2.193-12,2c-1.426-3.033,0.475-5.326,2-8
			l1.167,1.5L32,513c-0.086,1.419-0.165,2.832,1,3c0.19-0.81,1.003-0.997,1-2L35.5,514.5z"/>
		<path class="st14" d="M29,530c-1.526-1.807-3.604-3.063-3-7c2.554-1.576,10.446-1.576,13,0c0.857,3.19-1.574,3.093-2,5l-1.5-0.5
			L34,527c-1.615-0.282-1.722,0.945-3,1l-1.5,0.5L29,530z"/>
		<path class="st14" d="M34.167,535.5L36,535c-0.067,4.105,2.753,10.529,0,14l-1.167-1.5L33,548c0.163-1.162-0.221-1.779-1-2
			c-0.083,1.583,0.481,3.814-1,4l-1.167-1.5L28,549c-0.067-5.066,1.719-8.281,1-14l1.833,0.5L32,534c0.333,0,0.667,0,1,0
			L34.167,535.5z"/>
		<path class="st14" d="M34.833,552.5L36,551c2.152,0.848,3.537,2.463,3,6c-3.888,0.989-10.415,3.505-13,0
			c-0.15-2.483,0.517-4.15,2-5l1.167,1.5L31,553c0,0.333,0,0.667,0,1c1.701,0.368,1.887-0.78,2-2L34.833,552.5z"/>
		<path class="st14" d="M691,528c-1.759-0.241-2.279-1.721-2-4c2.127-2.004,8.925-3.098,12-1c0.207,2.874-0.254,5.08-2,6l-1.167-1.5
			L696,528c-0.247-1.258-1.988-1.009-2,0l-1.5-0.5L691,528z"/>
		<path class="st14" d="M697.167,531.5L699,531c0,5,0,10,0,15l-1.833-0.5L696,547c-0.81-0.19-0.997-1.003-2-1l-1.167-1.5L691,545
			c0-4.333,0-8.667,0-13l1.833,0.5L694,531c0.81-0.19,0.997-1.003,2-1L697.167,531.5z"/>
		<path class="st14" d="M697.5,550.5l1.5-0.5c1.972,0.789,3.595,3.497,2,5c-2.417,1.916-8.035,0.631-12,1
			c0.084-3.249,0.516-6.151,2-8l1.167,1.5L694,549c-0.551,2.051,1.91,2.386,2,1L697.5,550.5z"/>
		<path class="st14" d="M692,583c-1.82-7.18-0.497-17.503-3-24c4.228-1.224,10.441-2.481,13,0c0.279,2.279-0.241,3.759-2,4l-1.5-0.5
			L697,563c-0.027-0.973-1.225-0.775-2-1c0.609,2.391-1.255,7.256,1,8l1.167,1.5L699,571c0,3.667,0,7.333,0,11l-1.833-0.5L696,583
			c-0.81,0.19-0.997,1.003-2,1l-0.5-1.5L692,583z"/>
		<path class="st14" d="M698,566.75l2,0.25c0.162,1.162-0.221,1.779-1,2l-1-1.75l-2-0.25c-0.162-1.162,0.221-1.779,1-2L698,566.75z"
			/>
		<path class="st14" d="M698.5,588.5l0.5-1.5c2.152,0.848,3.537,2.463,3,6c-2.555,1.576-10.445,1.576-13,0
			c0.125-3.541,1.643-5.691,3-8l0.5,1.5l1.5,0.5c-0.688,3.327,2.067,1.611,3,1L698.5,588.5z"/>
		<path class="st14" d="M29,566c-8.75-4.147,5.117-8.627,10-5c-0.105,2.562-0.566,4.768-2,6l-1.167-1.5L34,566
			c-0.247-1.258-1.988-1.009-2,0l-1.5-0.5L29,566z"/>
		<path class="st14" d="M35.167,571.5L37,571c0,4.667,0,9.333,0,14l-1.833-0.5L34,586c-0.667,0-1.333,0-2,0l-1.167-1.5L29,585
			c0-4.667,0-9.333,0-14l1.833,0.5L32,570c0.667,0,1.333,0,2,0L35.167,571.5z"/>
		<path class="st14" d="M35.5,588.5L37,588c1.759,0.241,2.279,1.721,2,4c-2.44,2.227-7.14,2.193-12,2c-1.426-3.033,0.475-5.326,2-8
			l1.167,1.5L32,587c-0.086,1.419-0.165,2.832,1,3c0.19-0.81,1.003-0.997,1-2L35.5,588.5z"/>
		<path class="st14" d="M29,604c-1.526-1.807-3.604-3.063-3-7c2.554-1.576,10.446-1.576,13,0c0.857,3.19-1.574,3.093-2,5l-1.5-0.5
			L34,601c-1.615-0.282-1.722,0.945-3,1l-1.5,0.5L29,604z"/>
		<path class="st14" d="M34.167,609.5L36,609c-0.067,4.105,2.753,10.529,0,14l-1.167-1.5L33,622c0.163-1.162-0.221-1.779-1-2
			c-0.083,1.583,0.481,3.814-1,4l-1.167-1.5L28,623c-0.067-5.066,1.719-8.281,1-14l1.833,0.5L32,608c0.333,0,0.667,0,1,0
			L34.167,609.5z"/>
		<path class="st14" d="M34.833,626.5L36,625c2.152,0.848,3.537,2.463,3,6c-3.888,0.989-10.415,3.505-13,0
			c-0.15-2.483,0.517-4.15,2-5l1.167,1.5L31,627c0,0.333,0,0.667,0,1c1.701,0.368,1.887-0.78,2-2L34.833,626.5z"/>
		<path class="st14" d="M691,602c-1.759-0.241-2.279-1.721-2-4c2.127-2.004,8.925-3.098,12-1c0.207,2.874-0.254,5.08-2,6l-1.167-1.5
			L696,602c-0.247-1.258-1.988-1.009-2,0l-1.5-0.5L691,602z"/>
		<path class="st14" d="M697.167,605.5L699,605c0,5,0,10,0,15l-1.833-0.5L696,621c-0.81-0.19-0.997-1.003-2-1l-1.167-1.5L691,619
			c0-4.333,0-8.667,0-13l1.833,0.5L694,605c0.81-0.19,0.997-1.003,2-1L697.167,605.5z"/>
		<path class="st14" d="M697.5,624.5l1.5-0.5c1.972,0.789,3.595,3.497,2,5c-2.417,1.916-8.035,0.631-12,1
			c0.084-3.249,0.516-6.151,2-8l1.167,1.5L694,623c-0.551,2.051,1.91,2.386,2,1L697.5,624.5z"/>
		<path class="st14" d="M692,657c-1.82-7.18-0.497-17.503-3-24c4.228-1.224,10.441-2.481,13,0c0.279,2.279-0.241,3.759-2,4l-1.5-0.5
			L697,637c-0.027-0.973-1.225-0.775-2-1c0.609,2.391-1.255,7.256,1,8l1.167,1.5L699,645c0,3.667,0,7.333,0,11l-1.833-0.5L696,657
			c-0.81,0.19-0.997,1.003-2,1l-0.5-1.5L692,657z"/>
		<path class="st14" d="M698,640.75l2,0.25c0.162,1.162-0.221,1.779-1,2l-1-1.75l-2-0.25c-0.162-1.162,0.221-1.779,1-2L698,640.75z"
			/>
		<path class="st14" d="M698.5,662.5l0.5-1.5c2.152,0.848,3.537,2.463,3,6c-2.555,1.576-10.445,1.576-13,0
			c0.125-3.541,1.643-5.691,3-8l0.5,1.5l1.5,0.5c-0.688,3.327,2.067,1.611,3,1L698.5,662.5z"/>
		<path class="st14" d="M29,640c-8.75-4.147,5.117-8.627,10-5c-0.105,2.562-0.566,4.768-2,6l-1.167-1.5L34,640
			c-0.247-1.258-1.988-1.009-2,0l-1.5-0.5L29,640z"/>
		<path class="st14" d="M35.167,645.5L37,645c0,4.667,0,9.333,0,14l-1.833-0.5L34,660c-0.667,0-1.333,0-2,0l-1.167-1.5L29,659
			c0-4.667,0-9.333,0-14l1.833,0.5L32,644c0.667,0,1.333,0,2,0L35.167,645.5z"/>
		<path class="st14" d="M35.5,662.5L37,662c1.759,0.241,2.279,1.721,2,4c-2.44,2.227-7.14,2.193-12,2c-1.426-3.033,0.475-5.326,2-8
			l1.167,1.5L32,661c-0.086,1.419-0.165,2.832,1,3c0.19-0.81,1.003-0.997,1-2L35.5,662.5z"/>
		<path class="st14" d="M29,678c-1.526-1.807-3.604-3.063-3-7c2.554-1.576,10.446-1.576,13,0c0.857,3.19-1.574,3.093-2,5l-1.5-0.5
			L34,675c-1.615-0.282-1.722,0.945-3,1l-1.5,0.5L29,678z"/>
		<path class="st14" d="M34.167,683.5L36,683c-0.067,4.105,2.753,10.529,0,14l-1.167-1.5L33,696c0.163-1.162-0.221-1.779-1-2
			c-0.083,1.583,0.481,3.814-1,4l-1.167-1.5L28,697c-0.067-5.066,1.719-8.281,1-14l1.833,0.5L32,682c0.333,0,0.667,0,1,0
			L34.167,683.5z"/>
		<path class="st14" d="M34.833,700.5L36,699c2.152,0.848,3.537,2.463,3,6c-3.888,0.989-10.415,3.505-13,0
			c-0.15-2.483,0.517-4.15,2-5l1.167,1.5L31,701c0,0.333,0,0.667,0,1c1.701,0.368,1.887-0.78,2-2L34.833,700.5z"/>
		<path class="st14" d="M691,676c-1.759-0.241-2.279-1.721-2-4c2.127-2.004,8.925-3.098,12-1c0.207,2.874-0.254,5.08-2,6l-1.167-1.5
			L696,676c-0.247-1.258-1.988-1.009-2,0l-1.5-0.5L691,676z"/>
		<path class="st14" d="M697.167,679.5L699,679c0,5,0,10,0,15l-1.833-0.5L696,695c-0.81-0.19-0.997-1.003-2-1l-1.167-1.5L691,693
			c0-4.333,0-8.667,0-13l1.833,0.5L694,679c0.81-0.19,0.997-1.003,2-1L697.167,679.5z"/>
		<path class="st14" d="M697.5,698.5l1.5-0.5c1.972,0.789,3.595,3.497,2,5c-2.417,1.916-8.035,0.631-12,1
			c0.084-3.249,0.516-6.151,2-8l1.167,1.5L694,697c-0.551,2.051,1.91,2.386,2,1L697.5,698.5z"/>
		<path class="st14" d="M692,731c-1.82-7.18-0.497-17.503-3-24c4.228-1.224,10.441-2.481,13,0c0.279,2.279-0.241,3.759-2,4l-1.5-0.5
			L697,711c-0.027-0.973-1.225-0.775-2-1c0.609,2.391-1.255,7.256,1,8l1.167,1.5L699,719c0,3.667,0,7.333,0,11l-1.833-0.5L696,731
			c-0.81,0.19-0.997,1.003-2,1l-0.5-1.5L692,731z"/>
		<path class="st14" d="M698,714.75l2,0.25c0.162,1.162-0.221,1.779-1,2l-1-1.75l-2-0.25c-0.162-1.162,0.221-1.779,1-2L698,714.75z"
			/>
		<path class="st14" d="M698.5,736.5l0.5-1.5c2.152,0.848,3.537,2.463,3,6c-2.555,1.576-10.445,1.576-13,0
			c0.125-3.541,1.643-5.691,3-8l0.5,1.5l1.5,0.5c-0.688,3.327,2.067,1.611,3,1L698.5,736.5z"/>
		<path class="st14" d="M29,714c-8.75-4.147,5.117-8.627,10-5c-0.105,2.562-0.566,4.768-2,6l-1.167-1.5L34,714
			c-0.247-1.258-1.988-1.009-2,0l-1.5-0.5L29,714z"/>
		<path class="st14" d="M35.167,719.5L37,719c0,4.667,0,9.333,0,14l-1.833-0.5L34,734c-0.667,0-1.333,0-2,0l-1.167-1.5L29,733
			c0-4.667,0-9.333,0-14l1.833,0.5L32,718c0.667,0,1.333,0,2,0L35.167,719.5z"/>
		<path class="st14" d="M35.5,736.5L37,736c1.759,0.241,2.279,1.721,2,4c-2.44,2.227-7.14,2.193-12,2c-1.426-3.033,0.475-5.326,2-8
			l1.167,1.5L32,735c-0.086,1.419-0.165,2.832,1,3c0.19-0.81,1.003-0.997,1-2L35.5,736.5z"/>
		<path class="st14" d="M29,752c-1.526-1.807-3.604-3.063-3-7c2.554-1.576,10.446-1.576,13,0c0.857,3.19-1.574,3.093-2,5l-1.5-0.5
			L34,749c-1.615-0.282-1.722,0.945-3,1l-1.5,0.5L29,752z"/>
		<path class="st14" d="M34.167,757.5L36,757c-0.067,4.105,2.753,10.529,0,14l-1.167-1.5L33,770c0.163-1.162-0.221-1.779-1-2
			c-0.083,1.583,0.481,3.814-1,4l-1.167-1.5L28,771c-0.067-5.066,1.719-8.281,1-14l1.833,0.5L32,756c0.333,0,0.667,0,1,0
			L34.167,757.5z"/>
		<path class="st14" d="M34.833,774.5L36,773c2.152,0.848,3.537,2.463,3,6c-3.888,0.989-10.415,3.505-13,0
			c-0.15-2.483,0.517-4.15,2-5l1.167,1.5L31,775c0,0.333,0,0.667,0,1c1.701,0.368,1.887-0.78,2-2L34.833,774.5z"/>
		<path class="st14" d="M691,750c-1.759-0.241-2.279-1.721-2-4c2.127-2.004,8.925-3.098,12-1c0.207,2.874-0.254,5.08-2,6l-1.167-1.5
			L696,750c-0.247-1.258-1.988-1.009-2,0l-1.5-0.5L691,750z"/>
		<path class="st14" d="M697.167,753.5L699,753c0,5,0,10,0,15l-1.833-0.5L696,769c-0.81-0.19-0.997-1.003-2-1l-1.167-1.5L691,767
			c0-4.333,0-8.667,0-13l1.833,0.5L694,753c0.81-0.19,0.997-1.003,2-1L697.167,753.5z"/>
		<path class="st14" d="M697.5,772.5l1.5-0.5c1.972,0.789,3.595,3.497,2,5c-2.417,1.916-8.035,0.631-12,1
			c0.084-3.249,0.516-6.151,2-8l1.167,1.5L694,771c-0.551,2.051,1.91,2.386,2,1L697.5,772.5z"/>
		<path class="st14" d="M692,805c-1.82-7.18-0.497-17.503-3-24c4.228-1.224,10.441-2.481,13,0c0.279,2.279-0.241,3.759-2,4l-1.5-0.5
			L697,785c-0.027-0.973-1.225-0.775-2-1c0.609,2.391-1.255,7.256,1,8l1.167,1.5L699,793c0,3.667,0,7.333,0,11l-1.833-0.5L696,805
			c-0.81,0.19-0.997,1.003-2,1l-0.5-1.5L692,805z"/>
		<path class="st14" d="M698,788.75l2,0.25c0.162,1.162-0.221,1.779-1,2l-1-1.75l-2-0.25c-0.162-1.162,0.221-1.779,1-2L698,788.75z"
			/>
		<path class="st14" d="M698.5,810.5l0.5-1.5c2.152,0.848,3.537,2.463,3,6c-2.555,1.576-10.445,1.576-13,0
			c0.125-3.541,1.643-5.691,3-8l0.5,1.5l1.5,0.5c-0.688,3.327,2.067,1.611,3,1L698.5,810.5z"/>
		<path class="st14" d="M29,788c-8.75-4.147,5.117-8.627,10-5c-0.105,2.562-0.566,4.768-2,6l-1.167-1.5L34,788
			c-0.247-1.258-1.988-1.009-2,0l-1.5-0.5L29,788z"/>
		<path class="st14" d="M35.167,793.5L37,793c0,4.667,0,9.333,0,14l-1.833-0.5L34,808c-0.667,0-1.333,0-2,0l-1.167-1.5L29,807
			c0-4.667,0-9.333,0-14l1.833,0.5L32,792c0.667,0,1.333,0,2,0L35.167,793.5z"/>
		<path class="st14" d="M35.5,810.5L37,810c1.759,0.241,2.279,1.721,2,4c-2.44,2.227-7.14,2.193-12,2c-1.426-3.033,0.475-5.326,2-8
			l1.167,1.5L32,809c-0.086,1.419-0.165,2.832,1,3c0.19-0.81,1.003-0.997,1-2L35.5,810.5z"/>
		<path class="st14" d="M29,826c-1.526-1.807-3.604-3.063-3-7c2.554-1.576,10.446-1.576,13,0c0.857,3.19-1.574,3.093-2,5l-1.5-0.5
			L34,823c-1.615-0.282-1.722,0.945-3,1l-1.5,0.5L29,826z"/>
		<path class="st14" d="M34.167,831.5L36,831c-0.067,4.105,2.753,10.529,0,14l-1.167-1.5L33,844c0.163-1.162-0.221-1.779-1-2
			c-0.083,1.583,0.481,3.814-1,4l-1.167-1.5L28,845c-0.067-5.066,1.719-8.281,1-14l1.833,0.5L32,830c0.333,0,0.667,0,1,0
			L34.167,831.5z"/>
		<path class="st14" d="M34.833,848.5L36,847c2.152,0.848,3.537,2.463,3,6c-3.888,0.989-10.415,3.505-13,0
			c-0.15-2.483,0.517-4.15,2-5l1.167,1.5L31,849c0,0.333,0,0.667,0,1c1.701,0.368,1.887-0.78,2-2L34.833,848.5z"/>
		<path class="st14" d="M691,824c-1.759-0.241-2.279-1.721-2-4c2.127-2.004,8.925-3.098,12-1c0.207,2.874-0.254,5.08-2,6l-1.167-1.5
			L696,824c-0.247-1.258-1.988-1.009-2,0l-1.5-0.5L691,824z"/>
		<path class="st14" d="M697.167,827.5L699,827c0,5,0,10,0,15l-1.833-0.5L696,843c-0.81-0.19-0.997-1.003-2-1l-1.167-1.5L691,841
			c0-4.333,0-8.667,0-13l1.833,0.5L694,827c0.81-0.19,0.997-1.003,2-1L697.167,827.5z"/>
		<path class="st14" d="M697.5,846.5l1.5-0.5c1.972,0.789,3.595,3.497,2,5c-2.417,1.916-8.035,0.631-12,1
			c0.084-3.249,0.516-6.151,2-8l1.167,1.5L694,845c-0.551,2.051,1.91,2.386,2,1L697.5,846.5z"/>
		<path class="st14" d="M692,879c-1.82-7.18-0.497-17.503-3-24c4.228-1.224,10.441-2.481,13,0c0.279,2.279-0.241,3.759-2,4l-1.5-0.5
			L697,859c-0.027-0.973-1.225-0.775-2-1c0.609,2.391-1.255,7.256,1,8l1.167,1.5L699,867c0,3.667,0,7.333,0,11l-1.833-0.5L696,879
			c-0.81,0.19-0.997,1.003-2,1l-0.5-1.5L692,879z"/>
		<path class="st14" d="M698,862.75l2,0.25c0.162,1.162-0.221,1.779-1,2l-1-1.75l-2-0.25c-0.162-1.162,0.221-1.779,1-2L698,862.75z"
			/>
		<path class="st14" d="M698.5,884.5l0.5-1.5c2.152,0.848,3.537,2.463,3,6c-2.555,1.576-10.445,1.576-13,0
			c0.125-3.541,1.643-5.691,3-8l0.5,1.5l1.5,0.5c-0.688,3.327,2.067,1.611,3,1L698.5,884.5z"/>
		<path class="st14" d="M29,862c-8.75-4.147,5.117-8.627,10-5c-0.105,2.562-0.566,4.768-2,6l-1.167-1.5L34,862
			c-0.247-1.258-1.988-1.009-2,0l-1.5-0.5L29,862z"/>
		<path class="st14" d="M35.167,867.5L37,867c0,4.667,0,9.333,0,14l-1.833-0.5L34,882c-0.667,0-1.333,0-2,0l-1.167-1.5L29,881
			c0-4.667,0-9.333,0-14l1.833,0.5L32,866c0.667,0,1.333,0,2,0L35.167,867.5z"/>
		<path class="st14" d="M35.5,884.5L37,884c1.759,0.241,2.279,1.721,2,4c-2.44,2.227-7.14,2.193-12,2c-1.426-3.033,0.475-5.326,2-8
			l1.167,1.5L32,883c-0.086,1.419-0.165,2.832,1,3c0.19-0.81,1.003-0.997,1-2L35.5,884.5z"/>
		<path class="st14" d="M691,899c-5.127-5.732,3.69-8.768,10-6c0.16,3.16,0.035,6.035-2,7l-1.167-1.5L696,899
			c0.551-2.051-1.909-2.386-2-1l-1.833-0.5L691,899z"/>
		<path class="st14" d="M697.167,903.5L699,903c0.521,5.521-0.573,9.427-1,14c-3.156,0.489-3.531-1.802-7-1c0-2.667,0-5.333,0-8
			l1.833,0.5L694,907c2.784,0.45-0.784-5.45,2-5L697.167,903.5z"/>
		<path class="st14" d="M29,900c-2.86-0.14-1.829-4.171-2-7c3.667,0,7.333,0,11,0c-0.575,1.758,1.208,5.875-1,6l-1.167-1.5L34,898
			c-0.65-1.697-2.299-0.625-2,1l-1.833-0.5L29,900z"/>
		<path class="st14" d="M35.167,904.5L37,904c-0.405,4.262,0.968,10.302-1,13c-2,0-4,0-6,0c-2.011-2.989-0.565-9.435-1-14l1.833,0.5
			L32,902c0.81,0.19,0.997,1.003,2,1L35.167,904.5z"/>
		<path class="st14" d="M43,921c1,0,2,0,3,0l0.1,2.1L48,924c-0.354,1.313-1.761,1.573-2,3l-1.5-0.5L43,926
			c-2.816,0.566-5.971,5.963-5,7c0.903-1.763,2.237-3.097,4-4l1.5,0.5L45,929c1.378,1.289,0.99,4.344,1,7
			c-8.041,3.058-17.532,1.77-25-1c0.605-2.062-1.614-6.947,2-6l1.5,0.5L26,929c1.45-1.284,6.525-4.052,4-6c-4,6-5.167,4.5-5.167,4.5
			L23,928c0.022-2.355-1.723-2.944-1-6c3.703-3.032,10.449-4.933,14-2l-0.5,1.5L36,923c-2.882,4.78,1.842,1.106,3-1l2.25,0.5L43,921
			z"/>
		<path class="st14" d="M50,925.5l1-0.5c4.333,0,8.667,0,13,0l-0.5,1.833L65,928c0.379,2.474-9.5-0.294-6,2
			c2.072,0.595,6.569-1.236,7,1l-1.5,1.167L65,934c-5.667,0-11.333,0-17,0c-1.362-2.969-1.446-7.246,1-9L50,925.5z"/>
		<path class="st14" d="M69.5,926.167L68,925c0.125-2.209,4.242-0.425,6-1c0.698,2.578,1.838,7.142,0,11
			c-1.332,1.302-3.018,0.615-4-1l-0.5-1.5L69,931c1.274-0.227,1.311-2.984,0-3L69.5,926.167z"/>
		<path class="st14" d="M680,922c3.815-0.371,8.627-7.497,11-3l-1.5,1.167L690,922c-2.527,0.229,5.609,5.159,2,1l0.5-1.5L692,920
			c2.26-3.573,11.822-0.789,14,2c0.723,3.056-1.022,3.645-1,6l-1.833-0.5L702,929c-2.291-1.376-2.349-4.984-5-6c5,6,6.5,6.5,6.5,6.5
			l1.5-0.5c7.588,4.315-7.613,12.017-13,7l0.5-1.833L691,933c-1.727-1.656-3.596-8.338-6-6l-1.5-0.5L682,926
			c-0.891-0.443-1.788-0.878-2-2l1.75-1L680,922z"/>
		<path class="st14" d="M690.5,934.5l0.5,1.5c-2.01,3.627-6.717,0.712-9-1c0-2.333,0-4.667,0-7l1.833,0.5L685,927
			c2.013,1.987,3.27,4.73,6,6L690.5,934.5z"/>
		<path class="st14" d="M677.5,926.5l0.5-1.5c3.46,0.739,3.401,4.992,2,8c-5.82,0.514-11.188,1.479-18,1l0.5-1.833L661,931
			c6.634-2.484,12.344-0.111,3-3l1.5-1.167L665,925c4,0,8,0,12,0L677.5,926.5z"/>
		<path class="st14" d="M658.5,932.5l0.5,1.5c-2.081,0.565-3.232,2.857-5,1c-1.854-2.146-0.675-7.325-1-11
			c2.391,0.609,7.256-1.255,8,1l-1.5,1.167L660,928c-0.667,0-1.333,0-2,0c-0.282,1.615,0.945,1.722,1,3L658.5,932.5z"/>
		<path class="st14" d="M14,922c4.598-0.932,3.484,3.85,7,4c-2.404,3.263-1.005,10.328-7,10C14.833,930.172,12.474,925.621,14,922z"
			/>
		<path class="st14" d="M714,922c-0.435,4.565,1.011,11.011-1,14c-4.205-0.795-3.786-6.214-6-9
			C708.246,924.246,710.149,922.149,714,922z"/>
		<path class="st14" d="M84,933c-0.848,2.152-2.463,3.537-6,3c-1.576-2.555-1.576-10.445,0-13c2.48-0.147,4.853-0.187,5,2l-0.5,1.5
			L83,928c-1.781,0.732-0.144,1.818,0,3l-0.5,1.5L84,933z"/>
		<path class="st14" d="M88.5,926.833L88,925c8.805,0.472,16.525-0.142,23-2c1.104,3.027,1.895,10.127,0,13
			c-2.279,0.279-3.759-0.241-4-2l0.5-1.5L107,931c0.333,0,0.667,0,1,0c1.015-3.427-7.512-2.382-8-1c1.453,0.547,5.168-1.169,5,1
			l-1.5,1.167L104,934c-6.088,0.755-9.068-1.599-15-1l0.5-1.833L88,930c-0.19-0.81-1.003-0.997-1-2L88.5,926.833z"/>
		<path class="st14" d="M120,933c-0.87,1.464-1.497,3.17-4,3c-2.995-2.006-1.791-8.209-2-13c3.1-0.1,5.547,0.453,7,2l-1.5,1.167
			L120,928c-0.333,0-0.667,0-1,0c-0.163,1.162,0.221,1.779,1,2l-0.5,1.5L120,933z"/>
		<path class="st14" d="M124.5,926.833L124,925c4.333,0,8.667,0,13,0l-0.5,1.833L138,928c0.19,0.81,1.003,0.997,1,2l-1.5,1.167
			L138,933c-4.333,0-8.667,0-13,0l0.5-1.833L124,930c-0.19-0.81-1.003-0.997-1-2L124.5,926.833z"/>
		<path class="st14" d="M141.5,926.5L141,925c0.241-1.759,1.721-2.279,4-2c2.227,2.44,2.193,7.14,2,12c-3.472,1.865-5.292-0.509-8-2
			l1.5-1.167L140,930c0.667,0,1.333,0,2,0c0.163-1.162-0.221-1.779-1-2L141.5,926.5z"/>
		<path class="st14" d="M156,933c-0.848,2.152-2.463,3.537-6,3c-1.576-2.555-1.576-10.445,0-13c2.48-0.147,4.853-0.187,5,2l-0.5,1.5
			l0.5,1.5c-1.781,0.732-0.144,1.818,0,3l-0.5,1.5L156,933z"/>
		<path class="st14" d="M160.5,926.833L160,925c8.805,0.472,16.525-0.142,23-2c1.104,3.027,1.895,10.127,0,13
			c-2.279,0.279-3.759-0.241-4-2l0.5-1.5L179,931c0.333,0,0.667,0,1,0c1.015-3.427-7.512-2.382-8-1c1.453,0.547,5.168-1.169,5,1
			l-1.5,1.167L176,934c-6.088,0.755-9.068-1.599-15-1l0.5-1.833L160,930c-0.19-0.81-1.003-0.997-1-2L160.5,926.833z"/>
		<path class="st14" d="M192,933c-0.87,1.464-1.497,3.17-4,3c-2.995-2.006-1.791-8.209-2-13c3.1-0.1,5.547,0.453,7,2l-1.5,1.167
			L192,928c-0.333,0-0.667,0-1,0c-0.163,1.162,0.221,1.779,1,2l-0.5,1.5L192,933z"/>
		<path class="st14" d="M196.5,926.833L196,925c4.333,0,8.667,0,13,0l-0.5,1.833L210,928c0.19,0.81,1.003,0.997,1,2l-1.5,1.167
			L210,933c-4.333,0-8.667,0-13,0l0.5-1.833L196,930c-0.19-0.81-1.003-0.997-1-2L196.5,926.833z"/>
		<path class="st14" d="M213.5,926.5L213,925c0.241-1.759,1.721-2.279,4-2c2.227,2.44,2.193,7.14,2,12c-3.472,1.865-5.292-0.509-8-2
			l1.5-1.167L212,930c0.667,0,1.333,0,2,0c0.163-1.162-0.221-1.779-1-2L213.5,926.5z"/>
		<path class="st14" d="M228,933c-0.848,2.152-2.463,3.537-6,3c-1.576-2.555-1.576-10.445,0-13c2.48-0.147,4.853-0.187,5,2l-0.5,1.5
			l0.5,1.5c-1.781,0.732-0.144,1.818,0,3l-0.5,1.5L228,933z"/>
		<path class="st14" d="M232.5,926.833L232,925c8.805,0.472,16.525-0.142,23-2c1.104,3.027,1.895,10.127,0,13
			c-2.279,0.279-3.759-0.241-4-2l0.5-1.5L251,931c0.333,0,0.667,0,1,0c1.015-3.427-7.512-2.382-8-1c1.453,0.547,5.168-1.169,5,1
			l-1.5,1.167L248,934c-6.088,0.755-9.068-1.599-15-1l0.5-1.833L232,930c-0.19-0.81-1.003-0.997-1-2L232.5,926.833z"/>
		<path class="st14" d="M264,933c-0.87,1.464-1.497,3.17-4,3c-2.995-2.006-1.791-8.209-2-13c3.1-0.1,5.547,0.453,7,2l-1.5,1.167
			L264,928c-0.333,0-0.667,0-1,0c-0.163,1.162,0.221,1.779,1,2l-0.5,1.5L264,933z"/>
		<path class="st14" d="M268.5,926.833L268,925c4.333,0,8.667,0,13,0l-0.5,1.833L282,928c0.19,0.81,1.003,0.997,1,2l-1.5,1.167
			L282,933c-4.333,0-8.667,0-13,0l0.5-1.833L268,930c-0.19-0.81-1.003-0.997-1-2L268.5,926.833z"/>
		<path class="st14" d="M285.5,926.5L285,925c0.241-1.759,1.721-2.279,4-2c2.227,2.44,2.193,7.14,2,12c-3.472,1.865-5.292-0.509-8-2
			l1.5-1.167L284,930c0.667,0,1.333,0,2,0c0.163-1.162-0.221-1.779-1-2L285.5,926.5z"/>
		<path class="st14" d="M300,933c-0.848,2.152-2.463,3.537-6,3c-1.576-2.555-1.576-10.445,0-13c2.48-0.147,4.853-0.187,5,2l-0.5,1.5
			l0.5,1.5c-1.781,0.732-0.144,1.818,0,3l-0.5,1.5L300,933z"/>
		<path class="st14" d="M304.5,926.833L304,925c8.805,0.472,16.525-0.142,23-2c1.104,3.027,1.895,10.127,0,13
			c-2.279,0.279-3.759-0.241-4-2l0.5-1.5L323,931c0.333,0,0.667,0,1,0c1.015-3.427-7.512-2.382-8-1c1.453,0.547,5.168-1.169,5,1
			l-1.5,1.167L320,934c-6.088,0.755-9.068-1.599-15-1l0.5-1.833L304,930c-0.19-0.81-1.003-0.997-1-2L304.5,926.833z"/>
		<path class="st14" d="M336,933c-0.87,1.464-1.497,3.17-4,3c-2.995-2.006-1.791-8.209-2-13c3.1-0.1,5.547,0.453,7,2l-1.5,1.167
			L336,928c-0.333,0-0.667,0-1,0c-0.163,1.162,0.221,1.779,1,2l-0.5,1.5L336,933z"/>
		<path class="st14" d="M340.5,926.833L340,925c4.333,0,8.667,0,13,0l-0.5,1.833L354,928c0.19,0.81,1.003,0.997,1,2l-1.5,1.167
			L354,933c-4.333,0-8.667,0-13,0l0.5-1.833L340,930c-0.19-0.81-1.003-0.997-1-2L340.5,926.833z"/>
		<path class="st14" d="M357.5,926.5L357,925c0.241-1.759,1.721-2.279,4-2c2.227,2.44,2.193,7.14,2,12c-3.472,1.865-5.292-0.509-8-2
			l1.5-1.167L356,930c0.667,0,1.333,0,2,0c0.163-1.162-0.221-1.779-1-2L357.5,926.5z"/>
		<path class="st14" d="M372,933c-0.848,2.152-2.463,3.537-6,3c-1.576-2.555-1.576-10.445,0-13c2.48-0.147,4.853-0.187,5,2l-0.5,1.5
			l0.5,1.5c-1.78,0.732-0.145,1.818,0,3l-0.5,1.5L372,933z"/>
		<path class="st14" d="M376.5,926.833L376,925c8.805,0.472,16.524-0.142,23-2c1.104,3.027,1.895,10.127,0,13
			c-2.279,0.279-3.759-0.241-4-2l0.5-1.5L395,931c0.333,0,0.667,0,1,0c1.015-3.427-7.512-2.382-8-1c1.453,0.547,5.169-1.169,5,1
			l-1.5,1.167L392,934c-6.088,0.755-9.068-1.599-15-1l0.5-1.833L376,930c-0.19-0.81-1.003-0.997-1-2L376.5,926.833z"/>
		<path class="st14" d="M408,933c-0.869,1.464-1.497,3.17-4,3c-2.994-2.006-1.791-8.209-2-13c3.1-0.1,5.547,0.453,7,2l-1.5,1.167
			L408,928c-0.333,0-0.667,0-1,0c-0.163,1.162,0.221,1.779,1,2l-0.5,1.5L408,933z"/>
		<path class="st14" d="M412.5,926.833L412,925c4.333,0,8.667,0,13,0l-0.5,1.833L426,928c0.19,0.81,1.003,0.997,1,2l-1.5,1.167
			L426,933c-4.333,0-8.667,0-13,0l0.5-1.833L412,930c-0.19-0.81-1.003-0.997-1-2L412.5,926.833z"/>
		<path class="st14" d="M429.5,926.5L429,925c0.241-1.759,1.721-2.279,4-2c2.227,2.44,2.193,7.14,2,12c-3.473,1.865-5.292-0.509-8-2
			l1.5-1.167L428,930c0.667,0,1.333,0,2,0c0.163-1.162-0.221-1.779-1-2L429.5,926.5z"/>
		<path class="st14" d="M444,933c-0.848,2.152-2.463,3.537-6,3c-1.576-2.555-1.576-10.445,0-13c2.48-0.147,4.853-0.187,5,2l-0.5,1.5
			l0.5,1.5c-1.78,0.732-0.145,1.818,0,3l-0.5,1.5L444,933z"/>
		<path class="st14" d="M448.5,926.833L448,925c8.805,0.472,16.524-0.142,23-2c1.104,3.027,1.895,10.127,0,13
			c-2.279,0.279-3.759-0.241-4-2l0.5-1.5L467,931c0.333,0,0.667,0,1,0c1.015-3.427-7.512-2.382-8-1c1.453,0.547,5.169-1.169,5,1
			l-1.5,1.167L464,934c-6.088,0.755-9.068-1.599-15-1l0.5-1.833L448,930c-0.19-0.81-1.003-0.997-1-2L448.5,926.833z"/>
		<path class="st14" d="M480,933c-0.869,1.464-1.497,3.17-4,3c-2.994-2.006-1.791-8.209-2-13c3.1-0.1,5.547,0.453,7,2l-1.5,1.167
			L480,928c-0.333,0-0.667,0-1,0c-0.163,1.162,0.221,1.779,1,2l-0.5,1.5L480,933z"/>
		<path class="st14" d="M484.5,926.833L484,925c4.333,0,8.667,0,13,0l-0.5,1.833L498,928c0.19,0.81,1.003,0.997,1,2l-1.5,1.167
			L498,933c-4.333,0-8.667,0-13,0l0.5-1.833L484,930c-0.19-0.81-1.003-0.997-1-2L484.5,926.833z"/>
		<path class="st14" d="M501.5,926.5L501,925c0.241-1.759,1.721-2.279,4-2c2.227,2.44,2.193,7.14,2,12c-3.473,1.865-5.292-0.509-8-2
			l1.5-1.167L500,930c0.667,0,1.333,0,2,0c0.163-1.162-0.221-1.779-1-2L501.5,926.5z"/>
		<path class="st14" d="M516,933c-0.848,2.152-2.463,3.537-6,3c-1.576-2.555-1.576-10.445,0-13c2.48-0.147,4.853-0.187,5,2l-0.5,1.5
			l0.5,1.5c-1.78,0.732-0.145,1.818,0,3l-0.5,1.5L516,933z"/>
		<path class="st14" d="M520.5,926.833L520,925c8.805,0.472,16.524-0.142,23-2c1.104,3.027,1.895,10.127,0,13
			c-2.279,0.279-3.759-0.241-4-2l0.5-1.5L539,931c0.333,0,0.667,0,1,0c1.015-3.427-7.512-2.382-8-1c1.453,0.547,5.169-1.169,5,1
			l-1.5,1.167L536,934c-6.088,0.755-9.068-1.599-15-1l0.5-1.833L520,930c-0.19-0.81-1.003-0.997-1-2L520.5,926.833z"/>
		<path class="st14" d="M552,933c-0.869,1.464-1.497,3.17-4,3c-2.994-2.006-1.791-8.209-2-13c3.1-0.1,5.547,0.453,7,2l-1.5,1.167
			L552,928c-0.333,0-0.667,0-1,0c-0.162,1.162,0.221,1.779,1,2l-0.5,1.5L552,933z"/>
		<path class="st14" d="M556.5,926.833L556,925c4.333,0,8.667,0,13,0l-0.5,1.833L570,928c0.19,0.81,1.003,0.997,1,2l-1.5,1.167
			L570,933c-4.333,0-8.667,0-13,0l0.5-1.833L556,930c-0.19-0.81-1.003-0.997-1-2L556.5,926.833z"/>
		<path class="st14" d="M573.5,926.5L573,925c0.241-1.759,1.721-2.279,4-2c2.227,2.44,2.193,7.14,2,12c-3.473,1.865-5.292-0.509-8-2
			l1.5-1.167L572,930c0.667,0,1.333,0,2,0c0.162-1.162-0.221-1.779-1-2L573.5,926.5z"/>
		<path class="st14" d="M588,933c-0.848,2.152-2.463,3.537-6,3c-1.576-2.555-1.576-10.445,0-13c2.48-0.147,4.853-0.187,5,2l-0.5,1.5
			l0.5,1.5c-1.78,0.732-0.145,1.818,0,3l-0.5,1.5L588,933z"/>
		<path class="st14" d="M592.5,926.833L592,925c8.805,0.472,16.524-0.142,23-2c1.104,3.027,1.895,10.127,0,13
			c-2.279,0.279-3.759-0.241-4-2l0.5-1.5L611,931c0.333,0,0.667,0,1,0c1.015-3.427-7.512-2.382-8-1c1.453,0.547,5.169-1.169,5,1
			l-1.5,1.167L608,934c-6.088,0.755-9.068-1.599-15-1l0.5-1.833L592,930c-0.19-0.81-1.003-0.997-1-2L592.5,926.833z"/>
		<path class="st14" d="M624,933c-0.869,1.464-1.497,3.17-4,3c-2.994-2.006-1.791-8.209-2-13c3.1-0.1,5.547,0.453,7,2l-1.5,1.167
			L624,928c-0.333,0-0.667,0-1,0c-0.162,1.162,0.221,1.779,1,2l-0.5,1.5L624,933z"/>
		<path class="st14" d="M628.5,926.833L628,925c4.333,0,8.667,0,13,0l-0.5,1.833L642,928c0.19,0.81,1.003,0.997,1,2l-1.5,1.167
			L642,933c-4.333,0-8.667,0-13,0l0.5-1.833L628,930c-0.19-0.81-1.003-0.997-1-2L628.5,926.833z"/>
		<path class="st14" d="M645.5,926.5L645,925c0.241-1.759,1.721-2.279,4-2c2.227,2.44,2.193,7.14,2,12c-3.473,1.865-5.292-0.509-8-2
			l1.5-1.167L644,930c0.667,0,1.333,0,2,0c0.162-1.162-0.221-1.779-1-2L645.5,926.5z"/>
		<path class="st14" d="M38,943c1.759,0.241,2.279,1.721,2,4c-1.333,0-2.667,0-4,0l0.5-1.833L35,944c0-0.333,0-0.667,0-1l1.5,0.5
			L38,943z"/>
		<path class="st14" d="M31.5,945.167L32,947c-1.333,0-2.667,0-4,0c0.962-2.705,1.617-5.716,3-8c4.689-0.152-0.495,4.055,2,5
			L31.5,945.167z"/>
		<path class="st14" d="M693,943c0,0.333,0,0.667,0,1l-1.5,1.167L692,947c-1.333,0-2.667,0-4,0c-0.15-2.483,0.517-4.15,2-5
			l1.167,1.5L693,943z"/>
		<path class="st14" d="M696.5,945.167L695,944c0.19-0.81,1.003-0.997,1-2l1,0.5l1,0.5c1.759,0.241,2.279,1.721,2,4
			c-1.333,0-2.667,0-4,0L696.5,945.167z"/>
		<path class="st14" d="M706,39c-0.333,0-0.667,0-1,0l-1.5-0.5L702,39c-1.925-2.501-3.156,4.11-5,5l-1.167-1.5L694,43
			c0.061-2.087-5.984,3.164-4,3l-0.5,1.833L691,49c-2.451,4.35-8.365-2.188-12-3c-0.473-3.14,2.691-2.642,3-5l1.5,0.5L685,42
			c4.168-0.166,3.489-5.177,6-7l1.5-1.167L692,32c2.409,0.409,2.174-1.826,5-1l1.5,0.5L699,30c3.535,0.465,3.516,4.484,8,4
			c0,1.333,0,2.667,0,4l-1.5-0.5L706,39z"/>
		<path class="st14" d="M703.167,40.5L705,40c-0.022,2.356,1.723,2.944,1,6c-2.264,3.04-10.366,4.549-14,3l0.5-1.833L691,46
			c0.443-0.89,0.878-1.789,2-2l1.5,2.5L697,45c3.021-0.646,2.791-4.542,5-6L703.167,40.5z"/>
		<path class="st14" d="M683.833,39.5L682,40c0-2.333,0-4.667,0-7c2.28-1.881,7.803-4.773,10-1l-1.5,1.167L691,35
			c-2.73,1.27-3.987,4.013-6,6L683.833,39.5z"/>
		<path class="st14" d="M696.5,27.5L695,28c0-1,0-2,0-3c-3.36-1.027-1.557,3.11-2,5c-4.041-0.625-4.002-5.332-5-9c4,0,8,0,12,0
			c0.988,3.989-2.988,3.011-2,7L696.5,27.5z"/>
		<path class="st14" d="M708.5,41.5L708,40c1.199-3.468,1.229-8.104,6-8c-0.614,5.609,1.039,10.866,0,14
			c-2.404,1.674-5.612-2.53-7-5L708.5,41.5z"/>
		<path class="st14" d="M49,44c-2.446-1.754-2.362-6.031-1-9c3,0,6,0,9,0l-0.5,1.833L58,38c2.601,2.066,7.213,2.12,12,2
			c0.282-1.615-0.945-1.722-1-3l1.5-1.167L70,34c0.89-0.777,2.258-1.075,4-1c1.762,4.161,0.172,9.392,0,12
			c-6.304-1.696-15.22-0.78-23-1l-1-0.5L49,44z"/>
		<path class="st14" d="M46.5,45.5L48,46c-3.28,0.694-7.502,7.489-12,3l1.5-1.167L37,46c2.447-0.003-2.997-5.447-3-3l-1.833-0.5
			L31,44c-2.052-0.682-3.284-7.293-5-5l-1.833-0.5L23,40c-7.877-4.192,6.067-12.296,13-8l-0.5,1.833L37,35
			c1.326,2.057,3.107,8.826,6,6l1.5,0.5L46,42c0.934,0.733,1.515,1.818,2,3L46.5,45.5z"/>
		<path class="st14" d="M35.5,47.5L36,49c-3.454,1.659-11.208,0.209-14-2c-0.58-3.247,0.681-4.652,1-7l1.833,0.5L26,39
			c1.844,0.89,3.075,7.501,5,5l1.833,0.5L34,43c1.23,0.437,2.054,1.28,2,3L35.5,47.5z"/>
		<path class="st14" d="M37.5,33.5L37,32c0.859-2.065,6.96-1.055,8,0c1.546,1.454,0.881,5.119,1,8l-1.833-0.5L43,41
			c-2.717-1.283-2.878-5.122-6-6L37.5,33.5z"/>
		<g>
			<path class="st11" d="M31,26.5c-0.06-0.667-0.276-1.333-0.5-2"/>
			<path class="st22" d="M134.5,36.833c1.95-0.541,4.004-0.25,6-0.333"/>
			<path class="st15" d="M117.5,41.833c1-0.214,2-0.407,3-0.667"/>
			<path class="st15" d="M123.5,36.833c-1-0.214-2-0.407-3-0.667"/>
			<path class="st23" d="M134.5,41.167c2.322,0.473,4.799,0.276,7,1.333"/>
			<path class="st22" d="M206.5,36.833c1.95-0.541,4.004-0.25,6-0.333"/>
			<path class="st15" d="M189.5,41.833c1-0.214,2-0.407,3-0.667"/>
			<path class="st15" d="M195.5,36.833c-1-0.214-2-0.407-3-0.667"/>
			<path class="st23" d="M206.5,41.167c2.322,0.473,4.799,0.276,7,1.333"/>
			<path class="st22" d="M278.5,36.833c1.95-0.541,4.004-0.25,6-0.333"/>
			<path class="st15" d="M261.5,41.833c1-0.214,2-0.407,3-0.667"/>
			<path class="st15" d="M267.5,36.833c-1-0.214-2-0.407-3-0.667"/>
			<path class="st23" d="M278.5,41.167c2.322,0.473,4.799,0.276,7,1.333"/>
			<path class="st22" d="M350.5,36.833c1.95-0.541,4.004-0.25,6-0.333"/>
			<path class="st15" d="M333.5,41.833c1-0.214,2-0.407,3-0.667"/>
			<path class="st15" d="M339.5,36.833c-1-0.214-2-0.407-3-0.667"/>
			<path class="st23" d="M350.5,41.167c2.322,0.473,4.799,0.276,7,1.333"/>
			<path class="st22" d="M422.5,36.833c1.95-0.541,4.004-0.25,6-0.333"/>
			<path class="st15" d="M405.5,41.833c1-0.214,2-0.407,3-0.667"/>
			<path class="st15" d="M411.5,36.833c-1-0.214-2-0.407-3-0.667"/>
			<path class="st23" d="M422.5,41.167c2.321,0.473,4.799,0.276,7,1.333"/>
			<path class="st22" d="M494.5,36.833c1.95-0.541,4.004-0.25,6-0.333"/>
			<path class="st15" d="M477.5,41.833c1-0.214,2-0.407,3-0.667"/>
			<path class="st15" d="M483.5,36.833c-1-0.214-2-0.407-3-0.667"/>
			<path class="st23" d="M494.5,41.167c2.321,0.473,4.799,0.276,7,1.333"/>
			<path class="st22" d="M566.5,36.833c1.95-0.541,4.004-0.25,6-0.333"/>
			<path class="st15" d="M549.5,41.833c1-0.214,2-0.407,3-0.667"/>
			<path class="st15" d="M555.5,36.833c-1-0.214-2-0.407-3-0.667"/>
			<path class="st23" d="M566.5,41.167c2.321,0.473,4.799,0.276,7,1.333"/>
			<path class="st22" d="M638.5,36.833c1.95-0.541,4.004-0.25,6-0.333"/>
			<path class="st15" d="M621.5,41.833c1-0.214,2-0.407,3-0.667"/>
			<path class="st15" d="M627.5,36.833c-1-0.214-2-0.407-3-0.667"/>
			<path class="st23" d="M638.5,41.167c2.321,0.473,4.799,0.276,7,1.333"/>
			<path class="st24" d="M81.5,36.167c1.333,0.248,2.667,0.344,4,0.667"/>
			<path class="st24" d="M104.5,42.5c-1,0.02-2-0.152-3-0.333"/>
			<path class="st0" d="M81.5,41.833c1.667-0.39,3.333-0.342,5,0"/>
			<path class="st22" d="M104.5,36.5c-1.667-0.028-3.333-0.044-5,0.333"/>
			<path class="st24" d="M153.5,36.167c1.333,0.248,2.667,0.344,4,0.667"/>
			<path class="st24" d="M176.5,42.5c-1,0.02-2-0.152-3-0.333"/>
			<path class="st0" d="M153.5,41.833c1.667-0.39,3.333-0.342,5,0"/>
			<path class="st22" d="M176.5,36.5c-1.667-0.028-3.333-0.044-5,0.333"/>
			<path class="st24" d="M225.5,36.167c1.333,0.248,2.667,0.344,4,0.667"/>
			<path class="st24" d="M248.5,42.5c-1,0.02-2-0.152-3-0.333"/>
			<path class="st0" d="M225.5,41.833c1.667-0.39,3.333-0.342,5,0"/>
			<path class="st22" d="M248.5,36.5c-1.667-0.028-3.333-0.044-5,0.333"/>
			<path class="st24" d="M297.5,36.167c1.333,0.248,2.667,0.344,4,0.667"/>
			<path class="st24" d="M320.5,42.5c-1,0.02-2-0.152-3-0.333"/>
			<path class="st0" d="M297.5,41.833c1.667-0.39,3.333-0.342,5,0"/>
			<path class="st22" d="M320.5,36.5c-1.667-0.028-3.333-0.044-5,0.333"/>
			<path class="st24" d="M369.5,36.167c1.333,0.248,2.667,0.344,4,0.667"/>
			<path class="st24" d="M392.5,42.5c-1,0.02-2-0.152-3-0.333"/>
			<path class="st0" d="M369.5,41.833c1.667-0.39,3.333-0.342,5,0"/>
			<path class="st22" d="M392.5,36.5c-1.667-0.028-3.333-0.044-5,0.333"/>
			<path class="st24" d="M441.5,36.167c1.333,0.248,2.667,0.344,4,0.667"/>
			<path class="st24" d="M464.5,42.5c-1,0.02-2-0.152-3-0.333"/>
			<path class="st0" d="M441.5,41.833c1.667-0.39,3.333-0.342,5,0"/>
			<path class="st22" d="M464.5,36.5c-1.667-0.028-3.333-0.044-5,0.333"/>
			<path class="st24" d="M513.5,36.167c1.333,0.248,2.667,0.344,4,0.667"/>
			<path class="st24" d="M536.5,42.5c-1,0.02-2-0.152-3-0.333"/>
			<path class="st0" d="M513.5,41.833c1.667-0.39,3.333-0.342,5,0"/>
			<path class="st22" d="M536.5,36.5c-1.667-0.028-3.333-0.044-5,0.333"/>
			<path class="st24" d="M585.5,36.167c1.333,0.248,2.667,0.344,4,0.667"/>
			<path class="st24" d="M608.5,42.5c-1,0.02-2-0.152-3-0.333"/>
			<path class="st0" d="M585.5,41.833c1.667-0.39,3.333-0.342,5,0"/>
			<path class="st22" d="M608.5,36.5c-1.667-0.028-3.333-0.044-5,0.333"/>
			<path class="st22" d="M658.5,35.5c1.333-0.053,2.667,0.057,4,0.333"/>
			<path class="st15" d="M662.5,41.833c1-0.214,2-0.407,3-0.667"/>
			<path class="st17" d="M30.167,70.5c0.701-2.278-0.067-4.726,0.667-7"/>
			<path class="st0" d="M35.833,70.5c-0.334-1.667-0.254-3.333-0.667-5"/>
			<path class="st10" d="M692.167,70.5c0.822-3.271-0.175-6.732,0.666-10"/>
			<path class="st18" d="M697.833,70.5c-0.634-1.948,0.009-4.056-0.666-6"/>
			<path class="st0" d="M29.167,109.5c0.334-1.667,0.254-3.333,0.667-5"/>
			<path class="st2" d="M30.833,91.5c-0.473-2.322-0.276-4.799-1.333-7"/>
			<path class="st7" d="M34.167,91.5c0.446-2.667,0.899-5.332,1.333-8"/>
			<path class="st0" d="M34.833,108.5c-0.39-1.667-0.342-3.333,0-5"/>
			<path class="st0" d="M692.167,105.5c0.334-1.667,0.254-3.333,0.666-5"/>
			<path class="st22" d="M692.833,88.5c-0.361-1.667-0.298-3.333-0.333-5"/>
			<path class="st24" d="M697.167,87.5c0.247-1.333,0.344-2.667,0.666-4"/>
			<path class="st22" d="M697.5,106.5c0.027-1.667,0.044-3.333-0.333-5"/>
			<path class="st19" d="M692.5,142.5c0.371-1.333,0.517-2.667,1-4"/>
			<path class="st5" d="M697.167,127.5c0.27-1.729,0.484-3.433,0.833-4.25"/>
			<path class="st12" d="M698,122.75c0.434-0.852,0.472-2.663,0.5-4.25"/>
			<path class="st21" d="M698.5,144.5c-0.756-2.261-0.788-4.687-1.333-7"/>
			<path class="st15" d="M30.167,143.5c0.214-1,0.407-2,0.667-3"/>
			<path class="st22" d="M30.833,127.5c-0.54-1.95-0.25-4.004-0.333-6"/>
			<path class="st18" d="M35.167,127.5c0.634-1.948-0.008-4.056,0.667-6"/>
			<path class="st22" d="M35.5,144.5c0.053-1.333-0.057-2.667-0.333-4"/>
			<path class="st0" d="M29.167,183.5c0.334-1.667,0.254-3.333,0.667-5"/>
			<path class="st2" d="M30.833,165.5c-0.473-2.322-0.276-4.799-1.333-7"/>
			<path class="st7" d="M34.167,165.5c0.446-2.667,0.899-5.332,1.333-8"/>
			<path class="st0" d="M34.833,182.5c-0.39-1.667-0.342-3.333,0-5"/>
			<path class="st0" d="M692.167,179.5c0.334-1.667,0.254-3.333,0.666-5"/>
			<path class="st22" d="M692.833,162.5c-0.361-1.667-0.298-3.333-0.333-5"/>
			<path class="st24" d="M697.167,161.5c0.247-1.333,0.344-2.667,0.666-4"/>
			<path class="st22" d="M697.5,180.5c0.027-1.667,0.044-3.333-0.333-5"/>
			<path class="st19" d="M692.5,216.5c0.371-1.333,0.517-2.667,1-4"/>
			<path class="st5" d="M697.167,201.5c0.27-1.729,0.484-3.433,0.833-4.25"/>
			<path class="st12" d="M698,196.75c0.434-0.852,0.472-2.663,0.5-4.25"/>
			<path class="st21" d="M698.5,218.5c-0.756-2.261-0.788-4.687-1.333-7"/>
			<path class="st15" d="M30.167,217.5c0.214-1,0.407-2,0.667-3"/>
			<path class="st22" d="M30.833,201.5c-0.54-1.95-0.25-4.004-0.333-6"/>
			<path class="st18" d="M35.167,201.5c0.634-1.948-0.008-4.056,0.667-6"/>
			<path class="st22" d="M35.5,218.5c0.053-1.333-0.057-2.667-0.333-4"/>
			<path class="st0" d="M29.167,257.5c0.334-1.667,0.254-3.333,0.667-5"/>
			<path class="st2" d="M30.833,239.5c-0.473-2.322-0.276-4.799-1.333-7"/>
			<path class="st7" d="M34.167,239.5c0.446-2.667,0.899-5.332,1.333-8"/>
			<path class="st0" d="M34.833,256.5c-0.39-1.667-0.342-3.333,0-5"/>
			<path class="st0" d="M692.167,253.5c0.334-1.667,0.254-3.333,0.666-5"/>
			<path class="st22" d="M692.833,236.5c-0.361-1.667-0.298-3.333-0.333-5"/>
			<path class="st24" d="M697.167,235.5c0.247-1.333,0.344-2.667,0.666-4"/>
			<path class="st22" d="M697.5,254.5c0.027-1.667,0.044-3.333-0.333-5"/>
			<path class="st19" d="M692.5,290.5c0.371-1.333,0.517-2.667,1-4"/>
			<path class="st5" d="M697.167,275.5c0.27-1.729,0.484-3.433,0.833-4.25"/>
			<path class="st12" d="M698,270.75c0.434-0.852,0.472-2.663,0.5-4.25"/>
			<path class="st21" d="M698.5,292.5c-0.756-2.261-0.788-4.687-1.333-7"/>
			<path class="st15" d="M30.167,291.5c0.214-1,0.407-2,0.667-3"/>
			<path class="st22" d="M30.833,275.5c-0.54-1.95-0.25-4.004-0.333-6"/>
			<path class="st18" d="M35.167,275.5c0.634-1.948-0.008-4.056,0.667-6"/>
			<path class="st22" d="M35.5,292.5c0.053-1.333-0.057-2.667-0.333-4"/>
			<path class="st0" d="M29.167,331.5c0.334-1.667,0.254-3.333,0.667-5"/>
			<path class="st2" d="M30.833,313.5c-0.473-2.322-0.276-4.799-1.333-7"/>
			<path class="st7" d="M34.167,313.5c0.446-2.667,0.899-5.332,1.333-8"/>
			<path class="st0" d="M34.833,330.5c-0.39-1.667-0.342-3.333,0-5"/>
			<path class="st0" d="M692.167,327.5c0.334-1.667,0.254-3.333,0.666-5"/>
			<path class="st22" d="M692.833,310.5c-0.361-1.667-0.298-3.333-0.333-5"/>
			<path class="st24" d="M697.167,309.5c0.247-1.333,0.344-2.667,0.666-4"/>
			<path class="st22" d="M697.5,328.5c0.027-1.667,0.044-3.333-0.333-5"/>
			<path class="st19" d="M692.5,364.5c0.371-1.333,0.517-2.667,1-4"/>
			<path class="st5" d="M697.167,349.5c0.27-1.729,0.484-3.433,0.833-4.25"/>
			<path class="st12" d="M698,344.75c0.434-0.852,0.472-2.663,0.5-4.25"/>
			<path class="st21" d="M698.5,366.5c-0.756-2.261-0.788-4.687-1.333-7"/>
			<path class="st15" d="M30.167,365.5c0.214-1,0.407-2,0.667-3"/>
			<path class="st22" d="M30.833,349.5c-0.54-1.95-0.25-4.004-0.333-6"/>
			<path class="st18" d="M35.167,349.5c0.634-1.948-0.008-4.056,0.667-6"/>
			<path class="st22" d="M35.5,366.5c0.053-1.333-0.057-2.667-0.333-4"/>
			<path class="st0" d="M29.167,405.5c0.334-1.667,0.254-3.333,0.667-5"/>
			<path class="st2" d="M30.833,387.5c-0.473-2.322-0.276-4.799-1.333-7"/>
			<path class="st7" d="M34.167,387.5c0.446-2.667,0.899-5.332,1.333-8"/>
			<path class="st0" d="M34.833,404.5c-0.39-1.667-0.342-3.333,0-5"/>
			<path class="st0" d="M692.167,401.5c0.334-1.667,0.254-3.333,0.666-5"/>
			<path class="st22" d="M692.833,384.5c-0.361-1.667-0.298-3.333-0.333-5"/>
			<path class="st24" d="M697.167,383.5c0.247-1.333,0.344-2.667,0.666-4"/>
			<path class="st22" d="M697.5,402.5c0.027-1.667,0.044-3.333-0.333-5"/>
			<path class="st19" d="M692.5,438.5c0.371-1.333,0.517-2.667,1-4"/>
			<path class="st5" d="M697.167,423.5c0.27-1.729,0.484-3.433,0.833-4.25"/>
			<path class="st12" d="M698,418.75c0.434-0.852,0.472-2.663,0.5-4.25"/>
			<path class="st21" d="M698.5,440.5c-0.756-2.261-0.788-4.687-1.333-7"/>
			<path class="st15" d="M30.167,439.5c0.214-1,0.407-2,0.667-3"/>
			<path class="st22" d="M30.833,423.5c-0.54-1.95-0.25-4.004-0.333-6"/>
			<path class="st18" d="M35.167,423.5c0.634-1.948-0.008-4.056,0.667-6"/>
			<path class="st22" d="M35.5,440.5c0.053-1.333-0.057-2.667-0.333-4"/>
			<path class="st0" d="M29.167,479.5c0.334-1.667,0.254-3.333,0.667-5"/>
			<path class="st2" d="M30.833,461.5c-0.473-2.322-0.276-4.799-1.333-7"/>
			<path class="st7" d="M34.167,461.5c0.446-2.667,0.899-5.332,1.333-8"/>
			<path class="st0" d="M34.833,478.5c-0.39-1.667-0.342-3.333,0-5"/>
			<path class="st0" d="M692.167,475.5c0.334-1.667,0.254-3.333,0.666-5"/>
			<path class="st22" d="M692.833,458.5c-0.361-1.667-0.298-3.333-0.333-5"/>
			<path class="st24" d="M697.167,457.5c0.247-1.333,0.344-2.667,0.666-4"/>
			<path class="st22" d="M697.5,476.5c0.027-1.667,0.044-3.333-0.333-5"/>
			<path class="st19" d="M692.5,512.5c0.371-1.333,0.517-2.667,1-4"/>
			<path class="st5" d="M697.167,497.5c0.27-1.729,0.484-3.433,0.833-4.25"/>
			<path class="st12" d="M698,492.75c0.434-0.853,0.472-2.663,0.5-4.25"/>
			<path class="st21" d="M698.5,514.5c-0.756-2.261-0.788-4.687-1.333-7"/>
			<path class="st15" d="M30.167,513.5c0.214-1,0.407-2,0.667-3"/>
			<path class="st22" d="M30.833,497.5c-0.54-1.95-0.25-4.004-0.333-6"/>
			<path class="st18" d="M35.167,497.5c0.634-1.948-0.008-4.056,0.667-6"/>
			<path class="st22" d="M35.5,514.5c0.053-1.333-0.057-2.667-0.333-4"/>
			<path class="st0" d="M29.167,553.5c0.334-1.667,0.254-3.333,0.667-5"/>
			<path class="st2" d="M30.833,535.5c-0.473-2.321-0.276-4.799-1.333-7"/>
			<path class="st7" d="M34.167,535.5c0.446-2.666,0.899-5.332,1.333-8"/>
			<path class="st0" d="M34.833,552.5c-0.39-1.667-0.342-3.333,0-5"/>
			<path class="st0" d="M692.167,549.5c0.334-1.667,0.254-3.333,0.666-5"/>
			<path class="st22" d="M692.833,532.5c-0.361-1.667-0.298-3.333-0.333-5"/>
			<path class="st24" d="M697.167,531.5c0.247-1.333,0.344-2.667,0.666-4"/>
			<path class="st22" d="M697.5,550.5c0.027-1.667,0.044-3.333-0.333-5"/>
			<path class="st19" d="M692.5,586.5c0.371-1.333,0.517-2.667,1-4"/>
			<path class="st5" d="M697.167,571.5c0.27-1.729,0.484-3.433,0.833-4.25"/>
			<path class="st12" d="M698,566.75c0.434-0.853,0.472-2.663,0.5-4.25"/>
			<path class="st21" d="M698.5,588.5c-0.756-2.261-0.788-4.687-1.333-7"/>
			<path class="st15" d="M30.167,587.5c0.214-1,0.407-2,0.667-3"/>
			<path class="st22" d="M30.833,571.5c-0.54-1.95-0.25-4.004-0.333-6"/>
			<path class="st18" d="M35.167,571.5c0.634-1.948-0.008-4.056,0.667-6"/>
			<path class="st22" d="M35.5,588.5c0.053-1.333-0.057-2.667-0.333-4"/>
			<path class="st0" d="M29.167,627.5c0.334-1.667,0.254-3.333,0.667-5"/>
			<path class="st2" d="M30.833,609.5c-0.473-2.321-0.276-4.799-1.333-7"/>
			<path class="st7" d="M34.167,609.5c0.446-2.666,0.899-5.332,1.333-8"/>
			<path class="st0" d="M34.833,626.5c-0.39-1.667-0.342-3.333,0-5"/>
			<path class="st0" d="M692.167,623.5c0.334-1.667,0.254-3.333,0.666-5"/>
			<path class="st22" d="M692.833,606.5c-0.361-1.667-0.298-3.333-0.333-5"/>
			<path class="st24" d="M697.167,605.5c0.247-1.333,0.344-2.667,0.666-4"/>
			<path class="st22" d="M697.5,624.5c0.027-1.667,0.044-3.333-0.333-5"/>
			<path class="st19" d="M692.5,660.5c0.371-1.333,0.517-2.667,1-4"/>
			<path class="st5" d="M697.167,645.5c0.27-1.729,0.484-3.433,0.833-4.25"/>
			<path class="st12" d="M698,640.75c0.434-0.853,0.472-2.663,0.5-4.25"/>
			<path class="st21" d="M698.5,662.5c-0.756-2.261-0.788-4.687-1.333-7"/>
			<path class="st15" d="M30.167,661.5c0.214-1,0.407-2,0.667-3"/>
			<path class="st22" d="M30.833,645.5c-0.54-1.95-0.25-4.004-0.333-6"/>
			<path class="st18" d="M35.167,645.5c0.634-1.948-0.008-4.056,0.667-6"/>
			<path class="st22" d="M35.5,662.5c0.053-1.333-0.057-2.667-0.333-4"/>
			<path class="st0" d="M29.167,701.5c0.334-1.667,0.254-3.333,0.667-5"/>
			<path class="st2" d="M30.833,683.5c-0.473-2.321-0.276-4.799-1.333-7"/>
			<path class="st7" d="M34.167,683.5c0.446-2.666,0.899-5.332,1.333-8"/>
			<path class="st0" d="M34.833,700.5c-0.39-1.667-0.342-3.333,0-5"/>
			<path class="st0" d="M692.167,697.5c0.334-1.667,0.254-3.333,0.666-5"/>
			<path class="st22" d="M692.833,680.5c-0.361-1.667-0.298-3.333-0.333-5"/>
			<path class="st24" d="M697.167,679.5c0.247-1.333,0.344-2.667,0.666-4"/>
			<path class="st22" d="M697.5,698.5c0.027-1.667,0.044-3.333-0.333-5"/>
			<path class="st19" d="M692.5,734.5c0.371-1.333,0.517-2.667,1-4"/>
			<path class="st5" d="M697.167,719.5c0.27-1.729,0.484-3.433,0.833-4.25"/>
			<path class="st12" d="M698,714.75c0.434-0.853,0.472-2.663,0.5-4.25"/>
			<path class="st21" d="M698.5,736.5c-0.756-2.261-0.788-4.687-1.333-7"/>
			<path class="st15" d="M30.167,735.5c0.214-1,0.407-2,0.667-3"/>
			<path class="st22" d="M30.833,719.5c-0.54-1.95-0.25-4.004-0.333-6"/>
			<path class="st18" d="M35.167,719.5c0.634-1.948-0.008-4.056,0.667-6"/>
			<path class="st22" d="M35.5,736.5c0.053-1.333-0.057-2.667-0.333-4"/>
			<path class="st0" d="M29.167,775.5c0.334-1.667,0.254-3.333,0.667-5"/>
			<path class="st2" d="M30.833,757.5c-0.473-2.321-0.276-4.799-1.333-7"/>
			<path class="st7" d="M34.167,757.5c0.446-2.666,0.899-5.332,1.333-8"/>
			<path class="st0" d="M34.833,774.5c-0.39-1.667-0.342-3.333,0-5"/>
			<path class="st0" d="M692.167,771.5c0.334-1.667,0.254-3.333,0.666-5"/>
			<path class="st22" d="M692.833,754.5c-0.361-1.667-0.298-3.333-0.333-5"/>
			<path class="st24" d="M697.167,753.5c0.247-1.333,0.344-2.667,0.666-4"/>
			<path class="st22" d="M697.5,772.5c0.027-1.667,0.044-3.333-0.333-5"/>
			<path class="st19" d="M692.5,808.5c0.371-1.333,0.517-2.667,1-4"/>
			<path class="st5" d="M697.167,793.5c0.27-1.729,0.484-3.433,0.833-4.25"/>
			<path class="st12" d="M698,788.75c0.434-0.853,0.472-2.663,0.5-4.25"/>
			<path class="st21" d="M698.5,810.5c-0.756-2.261-0.788-4.687-1.333-7"/>
			<path class="st15" d="M30.167,809.5c0.214-1,0.407-2,0.667-3"/>
			<path class="st22" d="M30.833,793.5c-0.54-1.95-0.25-4.004-0.333-6"/>
			<path class="st18" d="M35.167,793.5c0.634-1.948-0.008-4.056,0.667-6"/>
			<path class="st22" d="M35.5,810.5c0.053-1.333-0.057-2.667-0.333-4"/>
			<path class="st0" d="M29.167,849.5c0.334-1.667,0.254-3.333,0.667-5"/>
			<path class="st2" d="M30.833,831.5c-0.473-2.321-0.276-4.799-1.333-7"/>
			<path class="st7" d="M34.167,831.5c0.446-2.666,0.899-5.332,1.333-8"/>
			<path class="st0" d="M34.833,848.5c-0.39-1.667-0.342-3.333,0-5"/>
			<path class="st0" d="M692.167,845.5c0.334-1.667,0.254-3.333,0.666-5"/>
			<path class="st22" d="M692.833,828.5c-0.361-1.667-0.298-3.333-0.333-5"/>
			<path class="st24" d="M697.167,827.5c0.247-1.333,0.344-2.667,0.666-4"/>
			<path class="st22" d="M697.5,846.5c0.027-1.667,0.044-3.333-0.333-5"/>
			<path class="st19" d="M692.5,882.5c0.371-1.333,0.517-2.667,1-4"/>
			<path class="st5" d="M697.167,867.5c0.27-1.729,0.484-3.433,0.833-4.25"/>
			<path class="st12" d="M698,862.75c0.434-0.853,0.472-2.663,0.5-4.25"/>
			<path class="st21" d="M698.5,884.5c-0.756-2.261-0.788-4.687-1.333-7"/>
			<path class="st15" d="M30.167,883.5c0.214-1,0.407-2,0.667-3"/>
			<path class="st22" d="M30.833,867.5c-0.54-1.95-0.25-4.004-0.333-6"/>
			<path class="st18" d="M35.167,867.5c0.634-1.948-0.008-4.056,0.667-6"/>
			<path class="st22" d="M35.5,884.5c0.053-1.333-0.057-2.667-0.333-4"/>
			<path class="st9" d="M692.833,908.5c-0.847-3.604,0.197-7.4-0.666-11"/>
			<path class="st0" d="M697.167,903.5c0.334-1.667,0.254-3.333,0.666-5"/>
			<path class="st0" d="M30.833,903.5c-0.334-1.667-0.254-3.333-0.667-5"/>
			<path class="st17" d="M35.167,904.5c0.701-2.277-0.067-4.727,0.667-7"/>
			<path class="st18" d="M69.5,932.5c-1.667,0.027-3.333,0.044-5-0.333"/>
			<path class="st8" d="M50,925.5c-0.126-0.522-0.445-1.174-0.754-1.749c-0.967-0.525-2.429-0.641-3.146-0.651"/>
			<path class="st22" d="M24.5,929.5c0.04-0.667,0.184-1.333,0.333-2"/>
			<path class="st25" d="M35.5,921.5c1.478-0.72,2.898-1.403,4-1.44c0.68,0.221,1.22,1.361,1.75,2.44"/>
			<path class="st3" d="M43.5,929.5c0.357-1,0.78-2,1-3"/>
			<path class="st18" d="M69.5,926.167c-1.948,0.634-4.056-0.009-6,0.666"/>
			<path class="st23" d="M689.5,920.167c1.281,0.525,2.049,0.902,3,1.333"/>
			<path class="st15" d="M683.833,928.5c-0.182-0.667-0.26-1.333-0.333-2"/>
			<path class="st18" d="M659.5,926.167c1.948,0.634,4.056-0.009,6,0.666"/>
			<path class="st16" d="M677.5,926.5c-0.055-0.849,0.065-1.712,0.313-2.585c0.93-0.382,2.145-0.738,3.938-0.915"/>
			<path class="st22" d="M703.5,929.5c-0.04-0.667-0.185-1.333-0.333-2"/>
			<path class="st22" d="M690.5,934.5c0.667-0.04,1.333-0.185,2-0.333"/>
			<path class="st22" d="M658.5,932.5c1.333,0.053,2.667-0.057,4-0.333"/>
			<path class="st22" d="M82.5,926.5c1.998,0.091,4.051-0.255,6,0.333"/>
			<path class="st1" d="M82.5,932.5c2.261-0.756,4.687-0.788,7-1.333"/>
			<path class="st22" d="M103.5,932.167c1.333,0.3,2.667,0.287,4,0.333"/>
			<path class="st22" d="M119.5,931.5c1.998-0.091,4.051,0.255,6-0.333"/>
			<path class="st0" d="M124.5,926.833c-1.667-0.334-3.333-0.253-5-0.666"/>
			<path class="st15" d="M137.5,931.167c1,0.214,2,0.406,3,0.666"/>
			<path class="st22" d="M141.5,926.5c-1.667-0.027-3.333-0.044-5,0.333"/>
			<path class="st22" d="M154.5,926.5c1.998,0.091,4.051-0.255,6,0.333"/>
			<path class="st1" d="M154.5,932.5c2.261-0.756,4.687-0.788,7-1.333"/>
			<path class="st22" d="M175.5,932.167c1.333,0.3,2.667,0.287,4,0.333"/>
			<path class="st22" d="M191.5,931.5c1.998-0.091,4.051,0.255,6-0.333"/>
			<path class="st0" d="M196.5,926.833c-1.667-0.334-3.333-0.253-5-0.666"/>
			<path class="st15" d="M209.5,931.167c1,0.214,2,0.406,3,0.666"/>
			<path class="st22" d="M213.5,926.5c-1.667-0.027-3.333-0.044-5,0.333"/>
			<path class="st22" d="M226.5,926.5c1.998,0.091,4.051-0.255,6,0.333"/>
			<path class="st1" d="M226.5,932.5c2.261-0.756,4.687-0.788,7-1.333"/>
			<path class="st22" d="M247.5,932.167c1.333,0.3,2.667,0.287,4,0.333"/>
			<path class="st22" d="M263.5,931.5c1.998-0.091,4.051,0.255,6-0.333"/>
			<path class="st0" d="M268.5,926.833c-1.667-0.334-3.333-0.253-5-0.666"/>
			<path class="st15" d="M281.5,931.167c1,0.214,2,0.406,3,0.666"/>
			<path class="st22" d="M285.5,926.5c-1.667-0.027-3.333-0.044-5,0.333"/>
			<path class="st22" d="M298.5,926.5c1.998,0.091,4.051-0.255,6,0.333"/>
			<path class="st1" d="M298.5,932.5c2.261-0.756,4.687-0.788,7-1.333"/>
			<path class="st22" d="M319.5,932.167c1.333,0.3,2.667,0.287,4,0.333"/>
			<path class="st22" d="M335.5,931.5c1.998-0.091,4.051,0.255,6-0.333"/>
			<path class="st0" d="M340.5,926.833c-1.667-0.334-3.333-0.253-5-0.666"/>
			<path class="st15" d="M353.5,931.167c1,0.214,2,0.406,3,0.666"/>
			<path class="st22" d="M357.5,926.5c-1.667-0.027-3.333-0.044-5,0.333"/>
			<path class="st22" d="M370.5,926.5c1.998,0.091,4.052-0.255,6,0.333"/>
			<path class="st1" d="M370.5,932.5c2.261-0.756,4.687-0.788,7-1.333"/>
			<path class="st22" d="M391.5,932.167c1.333,0.3,2.667,0.287,4,0.333"/>
			<path class="st22" d="M407.5,931.5c1.998-0.091,4.052,0.255,6-0.333"/>
			<path class="st0" d="M412.5,926.833c-1.667-0.334-3.333-0.253-5-0.666"/>
			<path class="st15" d="M425.5,931.167c1,0.214,2,0.406,3,0.666"/>
			<path class="st22" d="M429.5,926.5c-1.667-0.027-3.333-0.044-5,0.333"/>
			<path class="st22" d="M442.5,926.5c1.998,0.091,4.052-0.255,6,0.333"/>
			<path class="st1" d="M442.5,932.5c2.261-0.756,4.687-0.788,7-1.333"/>
			<path class="st22" d="M463.5,932.167c1.333,0.3,2.667,0.287,4,0.333"/>
			<path class="st22" d="M479.5,931.5c1.998-0.091,4.052,0.255,6-0.333"/>
			<path class="st0" d="M484.5,926.833c-1.667-0.334-3.333-0.253-5-0.666"/>
			<path class="st15" d="M497.5,931.167c1,0.214,2,0.406,3,0.666"/>
			<path class="st22" d="M501.5,926.5c-1.667-0.027-3.333-0.044-5,0.333"/>
			<path class="st22" d="M514.5,926.5c1.998,0.091,4.052-0.255,6,0.333"/>
			<path class="st1" d="M514.5,932.5c2.261-0.756,4.687-0.788,7-1.333"/>
			<path class="st22" d="M535.5,932.167c1.333,0.3,2.667,0.287,4,0.333"/>
			<path class="st22" d="M551.5,931.5c1.998-0.091,4.052,0.255,6-0.333"/>
			<path class="st0" d="M556.5,926.833c-1.667-0.334-3.333-0.253-5-0.666"/>
			<path class="st15" d="M569.5,931.167c1,0.214,2,0.406,3,0.666"/>
			<path class="st22" d="M573.5,926.5c-1.667-0.027-3.333-0.044-5,0.333"/>
			<path class="st22" d="M586.5,926.5c1.998,0.091,4.052-0.255,6,0.333"/>
			<path class="st1" d="M586.5,932.5c2.261-0.756,4.687-0.788,7-1.333"/>
			<path class="st22" d="M607.5,932.167c1.333,0.3,2.667,0.287,4,0.333"/>
			<path class="st22" d="M623.5,931.5c1.998-0.091,4.052,0.255,6-0.333"/>
			<path class="st0" d="M628.5,926.833c-1.667-0.334-3.333-0.253-5-0.666"/>
			<path class="st15" d="M641.5,931.167c1,0.214,2,0.406,3,0.666"/>
			<path class="st22" d="M645.5,926.5c-1.667-0.027-3.333-0.044-5,0.333"/>
			<path class="st0" d="M31.5,945.167c1.667,0.39,3.333,0.342,5,0"/>
			<path class="st22" d="M36.5,943.5c0-0.667,0-1.333,0-2"/>
			<path class="st0" d="M691.5,945.167c1.667,0.39,3.333,0.342,5,0"/>
			<path class="st11" d="M697,942.5c0-0.667,0-1.333,0-2"/>
			<path class="st15" d="M691.167,943.5c0.182-0.667,0.26-1.333,0.333-2"/>
			<path class="st15" d="M692.5,47.167c-1,0.214-2,0.407-3,0.667"/>
			<path class="st15" d="M683.5,41.5c0.04-0.667,0.185-1.333,0.333-2"/>
			<path class="st12" d="M690.5,33.167c0.667,0.222,1.333,0.445,2,0.667"/>
			<path class="st6" d="M698.5,31.5c-0.916-1.333-1.618-2.667-2-4"/>
			<path class="st4" d="M708.5,41.5c-1.318-1.333-1.911-2.667-3-4"/>
			<path class="st22" d="M703.167,40.5c0.182-0.667,0.26-1.333,0.333-2"/>
			<path class="st13" d="M694.5,46.5c0.537-1.739,0.953-2.853,1.333-4"/>
			<path class="st20" d="M56.5,36.833c4.49-1.21,9.406-1.192,14-1"/>
			<path class="st26" d="M46.5,45.5c1.49-0.062,3.147-1.189,3.5-2"/>
			<path class="st15" d="M44.5,41.5c-0.04-0.667-0.184-1.333-0.333-2"/>
			<path class="st22" d="M37.5,33.5c-0.667,0.04-1.333,0.184-2,0.333"/>
			<path class="st12" d="M24.167,38.5c0.222,0.667,0.445,1.333,0.667,2"/>
			<path class="st22" d="M35.5,47.5c0.667,0.04,1.333,0.184,2,0.333"/>
			<path class="st12" d="M32.167,42.5c0.222,0.667,0.445,1.333,0.667,2"/>
		</g>
	</g>
</g>
</svg>
