<?xml version="1.0" encoding="utf-8"?>
<!-- Generator: Adobe Illustrator 14.0.0, SVG Export Plug-In . SVG Version: 6.00 Build 43363)  -->
<!DOCTYPE svg PUBLIC "-//W3C//DTD SVG 1.1//EN" "http://www.w3.org/Graphics/SVG/1.1/DTD/svg11.dtd">
<svg version="1.1" id="Nouveau_x5F_9_xA0_Image_1_" xmlns="http://www.w3.org/2000/svg" xmlns:xlink="http://www.w3.org/1999/xlink"
	 x="0px" y="0px" width="729px" height="969px" viewBox="0 0 729 969" style="enable-background:new 0 0 729 969;"
	 xml:space="preserve">
<style type="text/css">
<![CDATA[
	.st0{fill-rule:evenodd;clip-rule:evenodd;fill:none;stroke:#000000;stroke-width:3.3407;stroke-linecap:round;}
	.st1{fill-rule:evenodd;clip-rule:evenodd;fill:none;stroke:#000000;stroke-width:3.1334;stroke-linecap:round;}
	.st2{fill-rule:evenodd;clip-rule:evenodd;fill:none;stroke:#000000;stroke-width:3.6253;stroke-linecap:round;}
	.st3{fill-rule:evenodd;clip-rule:evenodd;fill:none;stroke:#000000;stroke-width:3.6056;stroke-linecap:round;}
	.st4{fill-rule:evenodd;clip-rule:evenodd;fill:none;stroke:#000000;stroke-width:3.7611;stroke-linecap:round;}
	.st5{fill-rule:evenodd;clip-rule:evenodd;fill:none;stroke:#000000;stroke-width:3.594;stroke-linecap:round;}
	.st6{fill-rule:evenodd;clip-rule:evenodd;fill:none;stroke:#000000;stroke-width:3.1623;stroke-linecap:round;}
	.st7{fill-rule:evenodd;clip-rule:evenodd;fill:none;stroke:#000000;stroke-width:1.3693;stroke-linecap:round;}
	.st8{fill:#000000;fill-rule:evenodd;clip-rule:evenodd;}
	.st9{fill-rule:evenodd;clip-rule:evenodd;fill:none;stroke:#000000;stroke-width:2.5495;stroke-linecap:round;}
	.st10{fill-rule:evenodd;clip-rule:evenodd;fill:none;stroke:#000000;stroke-width:3.7112;stroke-linecap:round;}
	.st11{fill-rule:evenodd;clip-rule:evenodd;fill:none;stroke:#000000;stroke-width:3.5424;stroke-linecap:round;}
	.st12{fill-rule:evenodd;clip-rule:evenodd;fill:none;stroke:#000000;stroke-width:1.8439;stroke-linecap:round;}
]]>
</style>
<g>
	<g>
		<path class="st8" d="M699,56c0,0.333,0,0.667,0,1c11.716,3.001,9.498-12.873,21-13c2.934,8.253,1,17.317,1,26
			c0.001,288.781,0,584.07,0,874l-1-0.5l-1,0.5c-3.78-2.542-1.929-8.521-2-12c-2.919-141.592,0-287.761,0-431
			c0-148.176,0-296.742,0-444c-4.827-3.975-6.287,3.501-9,5c-4.393,2.427-10.682,4.97-16,0c0.111-1.889,3.306-0.694,3-3
			c-6.665,4.729-16.731,4.875-19-2c-4.223-12.799,11.78-20.984,20-25l1.3,1.3L699,34c-3.889,5.626-21.712,13.464-11,21
			c0.533-14.467,13.391-16.609,18-27l1.167,1.5L709,29c-0.771,9.895-9.538,11.795-10,22l-1.5-0.5L697,52
			c-5.274,1.83-5.274,4.219,0,1l0.7,1.7L699,56z"/>
		<path class="st8" d="M718.5,947.5l1.5-0.5c1.403,1.946,3.266,6.44,1,9c-1.343,4.275,5.873,5.098,1,7c-4.95,2.661-9.583-0.181-11-4
			c-5.329,5.386-13.826,2.729-20,3c-47.736,2.099-100.818,0-151,0c-159.61,0-314.584,0-477,0c-14.461,0-29.201-1.833-43-1
			c-2.3,0.139-2.608-0.721-4,0c-2.54,1.315-4.88,4.55-11,2c-3.11-2.315,1.288-0.794,2-3c1.651-5.112-1.919-14.171,4-16
			c0.333,0,0.667,0,1,0l0.5,1.5L14,945c-0.454,4.787,0.723,7.944,3,10c11.178-0.502,29.986,5.339,44,2l1.5-1.167L62,954
			c19.731,4.938,53.729,3,83,3c143.986,0,292.871,0,438,0c29.265,0,60.779,2.042,83-3l-0.5,1.833L667,957
			c9.488,3.301,28.451-1.298,38-2c2.24-0.165,5.574-1.267,7,1c-0.453-4.311,4.195-7.074,2-10l1.5-0.5l1.5-0.5
			c1.162-0.162,1.779,0.221,2,1L718.5,947.5z"/>
		<path class="st8" d="M18.5,943.5L17,943c15.954-11.115,33.224,5.252,45,11l-1.5,1.167L61,957c-17.454-0.88-25.34-11.326-43-12
			L18.5,943.5z"/>
		<path class="st8" d="M667.5,955.167L666,954c12.252-5.241,27.23-20.946,44-12l-1.5,1.167L709,945
			c-16.583,1.417-24.973,11.027-42,12L667.5,955.167z"/>
		<path class="st8" d="M699.5,15.5L698,16c-27.124-3.638-55.319-2-83-2c-180.747,0-365.671,0-548,0c-12.314,0-26.855-2.955-38,4
			l-1.167-1.5L26,17c0-0.333,0-0.667,0-1l-0.5-1.5L25,13c0.606-1.727,4.743,0.077,5-2c-26.318,0.908-10.551,34.264,0,41
			c1.147,1.2,2.535,0.39,1,0c-2.494-9.506-10.69-13.31-12-24l1.833,0.5L22,27c4.018,10.701,19.221,15.375,18,28
			c13.315-8.218-10.764-16.187-13-24l1.3-1.3L29,28c6.777,8.945,28.425,12.718,23,28c-3.146,8.862-9.684,4.188-17,7
			c-5.538,2.128-14.791,2.956-17-5l1.3-1.3L20,55c2.503,1.449,3.927,2.422,7,1c-1.556-2.655-11.927-11.506-17-21
			c-4.337-8.117-8.764-23.25,1-29c8.174-4.814,23.588,2.928,35,4c25.436,2.39,52.486,0,80,0c155.893,0,319.432,0,477,0
			c26.884,0,54.134,2.139,79,0c9.217-0.793,30.236-10.39,38-2c12.801,13.834-9.013,38.928-16,44l-0.7-1.7L702,49
			c5.816-8.148,15.907-22.422,8-35c-1.706-1.413-10.745-4.631-10-2l-0.5,1.833L701,15c0,0.333,0,0.667,0,1L699.5,15.5z"/>
		<path class="st8" d="M17.7,55.3L17,57c-1.161-0.839-2.681-1.319-5-1c-2.33,285.67-0.336,575.668-1,863l-1.833-0.5L8,920
			C6.169,639.736,7,352.396,7,69c0-7.894-1.506-16.293,1-24c6.482-3.498,8.995,4.773,11,9L17.7,55.3z"/>
		<g>
			<path class="st7" d="M720,943.5c0.324,0.633,0.503,1.841,0.185,2.703c-0.508,0.276-1.095,0.781-1.685,1.297"/>
			<path class="st6" d="M60.5,955.167c0.667,0.222,1.333,0.444,2,0.666"/>
			<path class="st1" d="M708.5,943.167c2.448,0.329,4.998,0.779,7,2.333"/>
			<path class="st0" d="M697.3,33.3c5.372-4.427,7.63-12.461,2.2-17.8"/>
			<path class="st3" d="M19.3,56.7c-0.528-0.472-1.044-0.956-1.6-1.4"/>
			<path class="st4" d="M8.5,943.5c0.71-8.222,0.86-16.756,0.667-25"/>
			<path class="st3" d="M699.1,53.1c-0.509,0.704-0.956,1.158-1.399,1.6"/>
			<path class="st5" d="M20.833,28.5c-2.112-4.917-0.45-11.683,4.667-14"/>
			<path class="st11" d="M699.5,13.833c0.336-0.08,0.672-0.16,1.009-0.239c7.118,1.3,9.118,10.008,6.658,15.906"/>
			<path class="st2" d="M699.1,53.1c1.682-0.492,2.941-1.66,4.2-2.8"/>
			<path class="st10" d="M28.3,29.7c-3.663-3.245-2.736-9.389-0.466-13.2"/>
			<path class="st9" d="M699.1,53.1c-0.709-1.005-1.097-1.757-1.6-2.6"/>
			<path class="st12" d="M18.5,943.5c-1.559,1.088-3.224,1.29-4.937,0.583c-0.297,0.216-0.678,0.808-1.063,1.417"/>
			<path class="st6" d="M667.5,955.167c-0.667,0.222-1.333,0.444-2,0.666"/>
		</g>
	</g>
</g>
</svg>
