<?xml version="1.0" encoding="utf-8"?>
<!-- Generator: Adobe Illustrator 14.0.0, SVG Export Plug-In . SVG Version: 6.00 Build 43363)  -->
<!DOCTYPE svg PUBLIC "-//W3C//DTD SVG 1.1//EN" "http://www.w3.org/Graphics/SVG/1.1/DTD/svg11.dtd">
<svg version="1.1" id="Layer_1" xmlns="http://www.w3.org/2000/svg" xmlns:xlink="http://www.w3.org/1999/xlink" x="0px" y="0px"
	 width="612px" height="792px" viewBox="0 0 612 792" style="enable-background:new 0 0 612 792;" xml:space="preserve">
<style type="text/css">
<![CDATA[
	.st0{fill:#BA5915;}
]]>
</style>
<path class="st0" d="M440,0l17,23h8.125l-17-23H440z M423.75,0l17,23h8.125l-17-23H423.75z M456.25,0l17,23h8.125l-17-23H456.25z
	 M407.5,0l17,23h8.125l-17-23H407.5z M358.75,0l17,23h8.125l-17-23H358.75z M326.25,0l17,23h8.125l-17-23H326.25z M342.5,0l17,23
	h8.125l-17-23H342.5z M375,0l17,23h8.125l-17-23H375z M391.25,0l17,23h8.125l-17-23H391.25z M0,20.294L2,23h8.125L0,9.301V20.294z
	 M310,0l17,23h8.125l-17-23H310z M586.25,0l17,23h8.125l-17-23H586.25z M610.625,0H602.5l9.5,12.853V1.86L610.625,0z M570,0l17,23
	h8.125l-17-23H570z M521.25,0l17,23h8.125l-17-23H521.25z M553.75,0l17,23h8.125l-17-23H553.75z M472.5,0l17,23h8.125l-17-23H472.5z
	 M505,0l17,23h8.125l-17-23H505z M537.5,0l17,23h8.125l-17-23H537.5z M488.75,0l17,23h8.125l-17-23H488.75z M98.75,0l17,23h8.125
	l-17-23H98.75z M66.25,0l17,23h8.125l-17-23H66.25z M82.5,0l17,23h8.125l-17-23H82.5z M115,0l17,23h8.125l-17-23H115z M33.75,0
	l17,23h8.125l-17-23H33.75z M1.25,0l17,23h8.125l-17-23H1.25z M17.5,0l17,23h8.125l-17-23H17.5z M50,0l17,23h8.125l-17-23H50z
	 M131.25,0l17,23h8.125l-17-23H131.25z M228.75,0l17,23h8.125l-17-23H228.75z M147.5,0l17,23h8.125l-17-23H147.5z M261.25,0l17,23
	h8.125l-17-23H261.25z M245,0l17,23h8.125l-17-23H245z M277.5,0l17,23h8.125l-17-23H277.5z M293.75,0l17,23h8.125l-17-23H293.75z
	 M163.75,0l17,23h8.125l-17-23H163.75z M180,0l17,23h8.125l-17-23H180z M196.25,0l17,23h8.125l-17-23H196.25z M212.5,0l17,23h8.125
	l-17-23H212.5z"/>
<path class="st0" d="M172,792l-17-23h-8.125l17,23H172z M188.25,792l-17-23h-8.125l17,23H188.25z M155.75,792l-17-23h-8.125l17,23
	H155.75z M204.5,792l-17-23h-8.125l17,23H204.5z M253.25,792l-17-23h-8.125l17,23H253.25z M285.75,792l-17-23h-8.125l17,23H285.75z
	 M269.5,792l-17-23h-8.125l17,23H269.5z M237,792l-17-23h-8.125l17,23H237z M220.75,792l-17-23h-8.125l17,23H220.75z M612,771.706
	L610,769h-8.125L612,782.699V771.706z M302,792l-17-23h-8.125l17,23H302z M25.75,792l-17-23H0.625l17,23H25.75z M1.375,792H9.5
	L0,779.146v10.993L1.375,792z M42,792l-17-23h-8.125l17,23H42z M90.75,792l-17-23h-8.125l17,23H90.75z M58.25,792l-17-23h-8.125
	l17,23H58.25z M139.5,792l-17-23h-8.125l17,23H139.5z M107,792l-17-23h-8.125l17,23H107z M74.5,792l-17-23h-8.125l17,23H74.5z
	 M123.25,792l-17-23h-8.125l17,23H123.25z M513.25,792l-17-23h-8.125l17,23H513.25z M545.75,792l-17-23h-8.125l17,23H545.75z
	 M529.5,792l-17-23h-8.125l17,23H529.5z M497,792l-17-23h-8.125l17,23H497z M578.25,792l-17-23h-8.125l17,23H578.25z M610.75,792
	l-17-23h-8.125l17,23H610.75z M594.5,792l-17-23h-8.125l17,23H594.5z M562,792l-17-23h-8.125l17,23H562z M480.75,792l-17-23h-8.125
	l17,23H480.75z M383.25,792l-17-23h-8.125l17,23H383.25z M464.5,792l-17-23h-8.125l17,23H464.5z M350.75,792l-17-23h-8.125l17,23
	H350.75z M367,792l-17-23h-8.125l17,23H367z M334.5,792l-17-23h-8.125l17,23H334.5z M318.25,792l-17-23h-8.125l17,23H318.25z
	 M448.25,792l-17-23h-8.125l17,23H448.25z M432,792l-17-23h-8.125l17,23H432z M415.75,792l-17-23h-8.125l17,23H415.75z M399.5,792
	l-17-23h-8.125l17,23H399.5z"/>
</svg>
