<?xml version="1.0" encoding="utf-8"?>
<!-- Generator: Adobe Illustrator 14.0.0, SVG Export Plug-In . SVG Version: 6.00 Build 43363)  -->
<!DOCTYPE svg PUBLIC "-//W3C//DTD SVG 1.1//EN" "http://www.w3.org/Graphics/SVG/1.1/DTD/svg11.dtd">
<svg version="1.1" id="Nouveau_x5F_10_xA0_Image_1_"
	 xmlns="http://www.w3.org/2000/svg" xmlns:xlink="http://www.w3.org/1999/xlink" x="0px" y="0px" width="729px" height="969px"
	 viewBox="0 0 729 969" style="enable-background:new 0 0 729 969;" xml:space="preserve">
<style type="text/css">
<![CDATA[
	.st0{fill-rule:evenodd;clip-rule:evenodd;fill:none;stroke:#000000;stroke-width:2.0354;stroke-linecap:round;}
	.st1{fill-rule:evenodd;clip-rule:evenodd;fill:none;stroke:#000000;stroke-width:3.7353;stroke-linecap:round;}
	.st2{fill-rule:evenodd;clip-rule:evenodd;fill:none;stroke:#000000;stroke-width:2.0102;stroke-linecap:round;}
	.st3{fill-rule:evenodd;clip-rule:evenodd;fill:none;stroke:#000000;stroke-width:3.0938;stroke-linecap:round;}
	.st4{fill-rule:evenodd;clip-rule:evenodd;fill:none;stroke:#000000;stroke-width:2.9093;stroke-linecap:round;}
	.st5{fill-rule:evenodd;clip-rule:evenodd;fill:none;stroke:#000000;stroke-width:2.132;stroke-linecap:round;}
	.st6{fill-rule:evenodd;clip-rule:evenodd;fill:none;stroke:#000000;stroke-width:1.1464;stroke-linecap:round;}
	.st7{fill-rule:evenodd;clip-rule:evenodd;fill:none;stroke:#000000;stroke-width:1.965;stroke-linecap:round;}
	.st8{fill-rule:evenodd;clip-rule:evenodd;fill:none;stroke:#000000;stroke-width:3.0589;stroke-linecap:round;}
	.st9{fill-rule:evenodd;clip-rule:evenodd;fill:none;stroke:#000000;stroke-width:1.5396;stroke-linecap:round;}
	.st10{fill-rule:evenodd;clip-rule:evenodd;fill:none;stroke:#000000;stroke-width:2.0976;stroke-linecap:round;}
	.st11{fill-rule:evenodd;clip-rule:evenodd;fill:none;stroke:#000000;stroke-width:3.182;stroke-linecap:round;}
	.st12{fill-rule:evenodd;clip-rule:evenodd;fill:none;stroke:#000000;stroke-width:3.1885;stroke-linecap:round;}
	.st13{fill-rule:evenodd;clip-rule:evenodd;fill:none;stroke:#000000;stroke-width:3.3912;stroke-linecap:round;}
	.st14{fill-rule:evenodd;clip-rule:evenodd;fill:none;stroke:#000000;stroke-width:2.0616;stroke-linecap:round;}
	.st15{fill-rule:evenodd;clip-rule:evenodd;fill:none;stroke:#000000;stroke-width:2;stroke-linecap:round;}
	.st16{fill-rule:evenodd;clip-rule:evenodd;fill:none;stroke:#000000;stroke-width:2.772;stroke-linecap:round;}
	.st17{fill-rule:evenodd;clip-rule:evenodd;fill:none;stroke:#000000;stroke-width:2.6204;stroke-linecap:round;}
	.st18{fill-rule:evenodd;clip-rule:evenodd;fill:none;stroke:#000000;stroke-width:1.4832;stroke-linecap:round;}
	.st19{fill-rule:evenodd;clip-rule:evenodd;fill:none;stroke:#000000;stroke-width:2.708;stroke-linecap:round;}
	.st20{fill-rule:evenodd;clip-rule:evenodd;fill:none;stroke:#000000;stroke-width:1.2947;stroke-linecap:round;}
	.st21{fill-rule:evenodd;clip-rule:evenodd;fill:none;stroke:#000000;stroke-width:1.941;stroke-linecap:round;}
	.st22{fill-rule:evenodd;clip-rule:evenodd;fill:none;stroke:#000000;stroke-width:3.1937;stroke-linecap:round;}
	.st23{fill-rule:evenodd;clip-rule:evenodd;fill:none;stroke:#000000;stroke-width:2.7303;stroke-linecap:round;}
	.st24{fill-rule:evenodd;clip-rule:evenodd;fill:none;stroke:#000000;stroke-width:1.6485;stroke-linecap:round;}
	.st25{fill-rule:evenodd;clip-rule:evenodd;fill:none;stroke:#000000;stroke-width:3.8079;stroke-linecap:round;}
	.st26{fill-rule:evenodd;clip-rule:evenodd;fill:none;stroke:#000000;stroke-width:2.1213;stroke-linecap:round;}
	.st27{fill-rule:evenodd;clip-rule:evenodd;fill:none;stroke:#000000;stroke-width:1.6036;stroke-linecap:round;}
	.st28{fill:#000000;fill-rule:evenodd;clip-rule:evenodd;}
	.st29{fill-rule:evenodd;clip-rule:evenodd;fill:none;stroke:#000000;stroke-width:2.6652;stroke-linecap:round;}
	.st30{fill-rule:evenodd;clip-rule:evenodd;fill:none;stroke:#000000;stroke-width:3.1091;stroke-linecap:round;}
	.st31{fill-rule:evenodd;clip-rule:evenodd;fill:none;stroke:#000000;stroke-width:1.592;stroke-linecap:round;}
	.st32{fill-rule:evenodd;clip-rule:evenodd;fill:none;stroke:#000000;stroke-width:3.4389;stroke-linecap:round;}
	.st33{fill-rule:evenodd;clip-rule:evenodd;fill:none;stroke:#000000;stroke-width:2.9368;stroke-linecap:round;}
	.st34{fill-rule:evenodd;clip-rule:evenodd;fill:none;stroke:#000000;stroke-width:1.8974;stroke-linecap:round;}
	.st35{fill-rule:evenodd;clip-rule:evenodd;fill:none;stroke:#000000;stroke-width:3.5147;stroke-linecap:round;}
	.st36{fill-rule:evenodd;clip-rule:evenodd;fill:none;stroke:#000000;stroke-width:1.3988;stroke-linecap:round;}
	.st37{fill-rule:evenodd;clip-rule:evenodd;fill:none;stroke:#000000;stroke-width:1.972;stroke-linecap:round;}
	.st38{fill-rule:evenodd;clip-rule:evenodd;fill:none;stroke:#000000;stroke-width:3.5071;stroke-linecap:round;}
	.st39{fill-rule:evenodd;clip-rule:evenodd;fill:none;stroke:#000000;stroke-width:2.4833;stroke-linecap:round;}
	.st40{fill-rule:evenodd;clip-rule:evenodd;fill:none;stroke:#000000;stroke-width:1.5836;stroke-linecap:round;}
	.st41{fill-rule:evenodd;clip-rule:evenodd;fill:none;stroke:#000000;stroke-width:1.5119;stroke-linecap:round;}
	.st42{fill-rule:evenodd;clip-rule:evenodd;fill:none;stroke:#000000;stroke-width:3.0912;stroke-linecap:round;}
	.st43{fill-rule:evenodd;clip-rule:evenodd;fill:none;stroke:#000000;stroke-width:1.5689;stroke-linecap:round;}
	.st44{fill-rule:evenodd;clip-rule:evenodd;fill:none;stroke:#000000;stroke-width:1.291;stroke-linecap:round;}
	.st45{fill-rule:evenodd;clip-rule:evenodd;fill:none;stroke:#000000;stroke-width:2.2361;stroke-linecap:round;}
	.st46{fill-rule:evenodd;clip-rule:evenodd;fill:none;stroke:#000000;stroke-width:1.7743;stroke-linecap:round;}
	.st47{fill-rule:evenodd;clip-rule:evenodd;fill:none;stroke:#000000;stroke-width:1.6733;stroke-linecap:round;}
	.st48{fill-rule:evenodd;clip-rule:evenodd;fill:none;stroke:#000000;stroke-width:2.5604;stroke-linecap:round;}
	.st49{fill-rule:evenodd;clip-rule:evenodd;fill:none;stroke:#000000;stroke-width:2.7477;stroke-linecap:round;}
	.st50{fill-rule:evenodd;clip-rule:evenodd;fill:none;stroke:#000000;stroke-width:1.4731;stroke-linecap:round;}
	.st51{fill-rule:evenodd;clip-rule:evenodd;fill:none;stroke:#000000;stroke-width:3.0984;stroke-linecap:round;}
	.st52{fill-rule:evenodd;clip-rule:evenodd;fill:none;stroke:#000000;stroke-width:1.2649;stroke-linecap:round;}
]]>
</style>
<g>
	<g>
		<path class="st28" d="M49,17c-0.767,3.232-2.767,5.233-6,6l0.357-1.786L42,20c-0.319-2.319,0.161-3.839,1-5l1.833,0.5L46,14
			c0.667,0,1.333,0,2,0l-0.5,1.833L49,17z"/>
		<path class="st28" d="M31.5,27l0.5,1c0,0.333,0,0.667,0,1l-2.5,0.5L27,30c-1,0-2,0-3,0l0.5-1.5L23,28c0.982-1.352,2.668-1.999,4-3
			c0.826-2.826-1.409-2.591-1-5c2.984-0.016,3.4-2.6,6-3c-1.069,3.736,2.483,2.85,2,6c-0.889,0.294-4.378,2.706-2,3L31.5,27z"/>
		<path class="st28" d="M68.833,10.833L68,10c3.82-8.933,12.299-5.513,26-5c42.955,1.608,90.426-0.912,131-1
			c128.486-0.28,262.373,1,394,1c12.727,0,27.03-1.93,35,0c4.731,1.146,3.926,1.051,8,6l-0.833,0.833L661,13
			c-7.84-6.277-26.052-4-44-4C448.611,9,280.084,9,110,9c-16.091,0-32.878-1.953-41,3L68.833,10.833z"/>
		<path class="st28" d="M717,39h-1c1.888-0.846,4.534-6.043,7-3c0,302.323,0,604.683,0,907l-1.5-0.5L721,944c-0.333,0-0.667,0-1,0
			l0.5-2.5L718,942c-0.667-300.325,1.333-603.345-1-902V39z"/>
		<path class="st28" d="M721.167,954.5L723,954c-0.01,2.656,0.378,5.711-1,7c-3.083,2.917-8.489,3.511-15,3l0.5-1.5L706,962
			c1.603-1.73,3.737-2.93,6-4l0.5,1.5l1.5-0.5c2.73-1.27,3.987-4.013,6-6L721.167,954.5z"/>
		<path class="st28" d="M688.5,961.167L689,963c-216.664,0-433.338,0-650,0l-0.5-1.5L37,961c2.393-4.185,2.948-2.531,6-3
			c12.138-1.865,27.089,0,41,0c172.698,0,348.559,0,522,0c26.779,0,55.354-3.054,80,0c2.189,0.271,2.762-0.755,4,2L688.5,961.167z"
			/>
		<path class="st28" d="M21.5,962.5L22,964c-6.942,0.609-12.527-0.14-16-3c-1.968-2.698-0.595-8.738-1-13l1.833,0.5L8,947
			c1.342,0.658,1.862,2.138,2,4l-1.5-0.5L9,952c0.309,3.074,3.621,8.313,6,6h1v-1c2.075,1.925,4.844,3.156,7,5L21.5,962.5z"/>
		<path class="st28" d="M6.833,942.5L5,943C5,657.321,5,357.025,5,65c0-13.751-3.333-37.394,6-27l-0.5,1l0.5,1
			c-2.333,298.658-0.333,601.679-1,902l-2.5-0.5L8,944L6.833,942.5z"/>
		<path class="st28" d="M24.5,32.833L26,34c-3.948,2.684-15.967,7.603-16-3l1.5,0.5L12,30c3.224,1.443,8.388,0.945,13,1L24.5,32.833
			z"/>
		<path class="st28" d="M8.5,23.5L8,25c-1.732-2.808-5.91-8.477-2-11l1.5,0.5L8,13c2.402,1.729,4.374,7.648,2,11L8.5,23.5z"/>
		<path class="st28" d="M37.5,955.5L36,956c1.304-4.348-5.456-4.601-1-8l1.833,0.5L38,947c5.376-1.381,3.041,8.576,1,9L37.5,955.5z"
			/>
		<path class="st28" d="M28.5,942.5L29,944c-4.53,0.64-4.265,5.639-8,2l0.5-1.833L20,943c1.324-1.41,6.306-4.271,8-2L28.5,942.5z"/>
		<path class="st28" d="M27.5,953.5L26,954c0-0.333,0-0.667,0-1l2.167-0.167L27,951c-4.798-6.604,4.159-3.094,6,0
			c-0.797,2.202-2.007,3.992-5,4L27.5,953.5z"/>
		<path class="st28" d="M690.5,955.5L689,956c-0.437-2.027-4.653-10.104,1-9l1.167,1.5L693,948c0.027,0.973,1.225,0.775,2,1
			c-0.511,2.823-2.42,4.247-3,7L690.5,955.5z"/>
		<path class="st28" d="M701.5,942.833L701,941c2.829,0.171,6.86-0.86,7,2l-1.5,1.167L707,946c-2.872,3.729-3.527-1.087-7-2
			L701.5,942.833z"/>
		<path class="st28" d="M701.167,953.5L700,955c-9.225-0.04,1.458-13.799,3-5c-1.438,1.2,4.118,1.22,0,4L701.167,953.5z"/>
		<path class="st28" d="M12.5,27.5L12,26c2.349-1.981,1.028-2.74,5-4c-3.073-1.562,1.737-3.48,3-4c1.007,2.66,4.903,2.431,6,5
			c-0.745,3.255-4.959,3.041-7,5l-1.5,0.5L18,30c-3.056,0.723-3.644-1.022-6-1L12.5,27.5z"/>
		<path class="st28" d="M715,30c3.353-0.686,3.655,1.678,4,4c-2.798,5.997-12.469,2.997-17,0l1.5-1.167L703,31c3.667,0,7.333,0,11,0
			l1.5,0.5L715,30z"/>
		<path class="st28" d="M721.5,14.5L722,13c4.342,2.955,0.064,8.524-1,12l-1-0.5l-1-0.5c-4.117-1.432-0.832-8.354,1-10L721.5,14.5z"
			/>
		<path class="st28" d="M715.5,27.5L717,28c-0.027,0.973-1.225,0.776-2,1l-1.5-0.5L714,30c-1.333,0-2.667,0-4,0l0.5-1.5L709,28
			c-1.41-2.256-6.513-0.82-6-5c1.917-2.083,3.833-4.167,7-5c3.951,4.336,2.254,3.458,6,8L715.5,27.5z"/>
		<path class="st28" d="M698,25c-5.037,0.41-2.28-6.171-1-8c2.359,0.974,3.82,2.846,6,4c-0.354,1.313-1.761,1.573-2,3l-1.833-0.5
			L698,25z"/>
		<g>
			<path class="st10" d="M29.5,29.5c1.532,0.443,2.732,0.054,4,0"/>
			<path class="st20" d="M29.5,34.5c14.154-5.512,26.889-14.407,39.333-23.667"/>
			<path class="st52" d="M661.167,11.833C678.407,23.092,695.613,39.038,717,39"/>
			<path class="st3" d="M721.167,949.5c0.39,1.667,0.342,3.333,0,5"/>
			<path class="st46" d="M703,962c-4.713,1.194-9.822,0.415-14.5-0.833"/>
			<path class="st15" d="M25,962c-1.045,0.98-2.228,0.777-3.5,0.5"/>
			<path class="st42" d="M6.833,948.5c-0.45-1.948-0.506-4.055,0-6"/>
			<path class="st15" d="M29.5,34.5c-0.343-1.044-0.895-1.658-1.25-2.25"/>
			<path class="st51" d="M28.25,32.25c-1.108,0.172-2.451,0.272-3.75,0.583"/>
			<path class="st27" d="M7.5,14.5c-0.115-0.281-0.23-0.562-0.346-0.843C7.344,11.289,9.145,9.265,11,8"/>
			<path class="st15" d="M11,8c9.515-2.512,20.067,2.911,30,1"/>
			<path class="st8" d="M41,9c0.016-0.152,0.032-0.305,0.048-0.458c2.08-1.841,5.442-0.262,7.452,0.958"/>
			<path class="st24" d="M48.5,9.5c2.676-2.286,6.367-3.774,10-3.5"/>
			<path class="st22" d="M58.5,6c0.348-0.252,1.234-0.387,2-0.5"/>
			<path class="st50" d="M58.5,6c-1.794,3.405-6.316,3.034-9,5.5"/>
			<path class="st33" d="M49.5,11.5c-0.09,2.096-0.66,3.118-2,4.333"/>
			<path class="st45" d="M48.5,9.5c0.333,0.667,0.667,1.333,1,2"/>
			<path class="st36" d="M29.5,34.5c-0.104,0.229-0.209,0.458-0.314,0.686C23.582,38.352,17.135,41.199,10.5,39"/>
			<path class="st21" d="M7.5,941.5c4.289,7.676,9.303,16.408,19,18"/>
			<path class="st38" d="M26.5,959.5c3.726-0.546,8.97-0.596,11-4"/>
			<path class="st26" d="M26,952c0.473,0.1,1.311,0.46,2.167,0.833"/>
			<path class="st4" d="M27.5,953.5c-4.453,6.527-12.934-6.559-6-9.333"/>
			<path class="st25" d="M28.5,942.5c3.101,1.113,6.071,3.651,8.333,6"/>
			<path class="st44" d="M26.5,959.5c-0.671,1.029-0.992,1.771-1.5,2.5"/>
			<path class="st43" d="M25,962c4.351,1.059,9.171,0.557,13.5-0.5"/>
			<path class="st26" d="M703,962c0.044-0.621-0.342-1.847-0.75-3"/>
			<path class="st1" d="M702.25,959c-4.067,0.084-9.064-0.061-11.75-3.5"/>
			<path class="st35" d="M691.167,948.5c3.169-2.048,6.051-6.313,10.333-5.667"/>
			<path class="st29" d="M701.167,953.5c0.178,0.335,0.355,0.67,0.533,1.006c5.438,3.832,12.192-8.014,4.8-10.339"/>
			<path class="st2" d="M702.25,959c9.434-1.284,14.757-9.678,18.25-17.5"/>
			<path class="st52" d="M42,12c-0.372-0.962-0.517-2.15-1-3"/>
			<path class="st40" d="M11,8c7.639,6.712,21.113,4.177,31,4"/>
			<path class="st49" d="M31.5,27c4.022-1.878,8.936-2.195,11.857-5.786"/>
			<path class="st14" d="M8.5,23.5c0.014,2.347,2.147,3.219,4,4"/>
			<path class="st19" d="M42,12c1.039,0.201,1.996,1.956,2.833,3.5"/>
			<path class="st13" d="M28.25,32.25c0.249-0.691,0.683-1.63,1.25-2.75"/>
			<path class="st5" d="M24.5,28.5c-2.211,0.69-4.796,0.792-7,0"/>
			<path class="st18" d="M12.5,27.5c-0.905,1.546-0.836,2.863-1,4"/>
			<path class="st23" d="M721.167,949.5c0.183-2.316,1.416-4.73,0.333-7"/>
			<path class="st0" d="M703,962c1.287,1.128,2.85,0.96,4.5,0.5"/>
			<path class="st9" d="M721.167,949.5c-3.748,2.168-6.696,6.145-8.667,10"/>
			<path class="st41" d="M16,958c-2.836-2.237-4.451-5.603-7.5-7.5"/>
			<path class="st6" d="M670.5,6.5c0.908,1.762,2.366,1.729,4,3"/>
			<path class="st39" d="M668,6c0.649-0.029,1.618,0.229,2.5,0.5"/>
			<path class="st34" d="M670.5,6.5c1.854-1.221,3.642,0.454,5.5,0.5"/>
			<path class="st11" d="M682.383,16.676c-2.954-0.875-4.03-5.13-1.943-7.342C682.285,8.437,686.46,5.989,687,9.5"/>
			<path class="st7" d="M687,9.5c9.997,0.033,19.485-2.178,29.344-2.509c2.895,1.424,4.592,4.441,5.156,7.509"/>
			<path class="st37" d="M720,24.5c-0.612,2.066-2.757,2.438-4.5,3"/>
			<path class="st16" d="M699.954,26.864c3.069,1.865,7.047,2.814,10.546,1.636"/>
			<path class="st31" d="M686,12c9.597,1.463,19.495,0.021,29-1"/>
			<path class="st32" d="M682.383,16.676c2.229,6.437,8.864,7.132,13.117,11.157"/>
			<path class="st12" d="M695.5,27.833c1.712-0.259,3.405-0.467,4.454-0.97"/>
			<path class="st30" d="M699.954,26.864c-0.299-1.255-0.499-2.278-0.787-3.364"/>
			<path class="st48" d="M682.383,16.676c1.412-1.425,2.028-3.781,3.617-4.676"/>
			<path class="st47" d="M686,12c0.458-0.955,0.81-1.772,1-2.5"/>
			<path class="st44" d="M715.5,31.5c-0.643-1-1.22-2-2-3"/>
			<path class="st17" d="M695.5,27.833c0.33,3.828,5.062,4.126,8,5"/>
		</g>
	</g>
</g>
</svg>
