<?xml version="1.0" encoding="utf-8"?>
<!-- Generator: Adobe Illustrator 14.0.0, SVG Export Plug-In . SVG Version: 6.00 Build 43363)  -->
<!DOCTYPE svg PUBLIC "-//W3C//DTD SVG 1.1//EN" "http://www.w3.org/Graphics/SVG/1.1/DTD/svg11.dtd">
<svg version="1.1" id="Layer_1" xmlns="http://www.w3.org/2000/svg" xmlns:xlink="http://www.w3.org/1999/xlink" x="0px" y="0px"
	 width="540.26px" height="721.043px" viewBox="0 0 540.26 721.043" style="enable-background:new 0 0 540.26 721.043;"
	 xml:space="preserve">
<style type="text/css">
<![CDATA[
	.st0{fill:#221E1F;}
	.st1{fill:#FFFFFF;}
]]>
</style>
<g>
	<g>
		<g>
			<rect y="606.862" class="st0" width="28.578" height="4.947"/>
			<rect y="666.194" class="st0" width="28.578" height="4.943"/>
			<rect y="656.306" class="st0" width="28.578" height="4.943"/>
			<rect y="646.417" class="st0" width="28.578" height="4.947"/>
			<rect y="636.531" class="st0" width="28.578" height="4.942"/>
			<rect y="626.638" class="st0" width="28.578" height="4.947"/>
			<rect y="616.752" class="st0" width="28.578" height="4.942"/>
			<rect x="20.066" y="603.955" width="3.582" height="69.579"/>
			<rect x="4.383" y="603.955" width="3.586" height="69.579"/>
			<rect x="21.266" y="603.902" class="st1" width="1.188" height="69.682"/>
			<rect x="5.578" y="603.902" class="st1" width="1.193" height="69.693"/>
		</g>
		<g>
			<rect y="537.308" class="st0" width="28.578" height="4.946"/>
			<rect y="596.64" class="st0" width="28.578" height="4.942"/>
			<rect y="586.751" class="st0" width="28.578" height="4.942"/>
			<rect y="576.861" class="st0" width="28.578" height="4.948"/>
			<rect y="566.976" class="st0" width="28.578" height="4.943"/>
			<rect y="557.082" class="st0" width="28.578" height="4.948"/>
			<rect y="547.197" class="st0" width="28.578" height="4.942"/>
			<rect x="20.066" y="534.4" width="3.582" height="69.578"/>
			<rect x="4.383" y="534.4" width="3.586" height="69.578"/>
			<rect x="21.266" y="534.348" class="st1" width="1.188" height="69.682"/>
			<rect x="5.578" y="534.348" class="st1" width="1.193" height="69.692"/>
		</g>
		<g>
			<rect y="467.752" class="st0" width="28.578" height="4.947"/>
			<rect y="527.084" class="st0" width="28.578" height="4.943"/>
			<rect y="517.196" class="st0" width="28.578" height="4.942"/>
			<rect y="507.307" class="st0" width="28.578" height="4.947"/>
			<rect y="497.421" class="st0" width="28.578" height="4.942"/>
			<rect y="487.527" class="st0" width="28.578" height="4.948"/>
			<rect y="477.642" class="st0" width="28.578" height="4.943"/>
			<rect x="20.066" y="464.845" width="3.582" height="69.579"/>
			<rect x="4.383" y="464.845" width="3.586" height="69.579"/>
			<rect x="21.266" y="464.792" class="st1" width="1.188" height="69.683"/>
			<rect x="5.578" y="464.792" class="st1" width="1.193" height="69.693"/>
		</g>
		<g>
			<rect y="398.197" class="st0" width="28.578" height="4.946"/>
			<rect y="457.529" class="st0" width="28.578" height="4.942"/>
			<rect y="447.641" class="st0" width="28.578" height="4.942"/>
			<rect y="437.751" class="st0" width="28.578" height="4.948"/>
			<rect y="427.866" class="st0" width="28.578" height="4.942"/>
			<rect y="417.972" class="st0" width="28.578" height="4.948"/>
			<rect y="408.087" class="st0" width="28.578" height="4.942"/>
			<rect x="20.066" y="395.29" width="3.582" height="69.578"/>
			<rect x="4.383" y="395.29" width="3.586" height="69.578"/>
			<rect x="21.266" y="395.237" class="st1" width="1.188" height="69.682"/>
			<rect x="5.578" y="395.237" class="st1" width="1.193" height="69.693"/>
		</g>
		<g>
			<rect y="328.642" class="st0" width="28.578" height="4.947"/>
			<rect y="387.975" class="st0" width="28.578" height="4.942"/>
			<rect y="378.086" class="st0" width="28.578" height="4.942"/>
			<rect y="368.196" class="st0" width="28.578" height="4.947"/>
			<rect y="358.311" class="st0" width="28.578" height="4.942"/>
			<rect y="348.417" class="st0" width="28.578" height="4.948"/>
			<rect y="338.532" class="st0" width="28.578" height="4.942"/>
			<rect x="20.066" y="325.735" width="3.582" height="69.579"/>
			<rect x="4.383" y="325.735" width="3.586" height="69.579"/>
			<rect x="21.266" y="325.682" class="st1" width="1.188" height="69.682"/>
			<rect x="5.578" y="325.682" class="st1" width="1.193" height="69.693"/>
		</g>
		<g>
			<rect y="259.087" class="st0" width="28.578" height="4.947"/>
			<rect y="318.419" class="st0" width="28.578" height="4.943"/>
			<rect y="308.53" class="st0" width="28.578" height="4.943"/>
			<rect y="298.641" class="st0" width="28.578" height="4.948"/>
			<rect y="288.755" class="st0" width="28.578" height="4.943"/>
			<rect y="278.862" class="st0" width="28.578" height="4.948"/>
			<rect y="268.977" class="st0" width="28.578" height="4.942"/>
			<rect x="20.066" y="256.18" width="3.582" height="69.579"/>
			<rect x="4.383" y="256.18" width="3.586" height="69.579"/>
			<rect x="21.266" y="256.127" class="st1" width="1.188" height="69.682"/>
			<rect x="5.578" y="256.127" class="st1" width="1.193" height="69.693"/>
		</g>
		<g>
			<rect y="189.532" class="st0" width="28.578" height="4.947"/>
			<rect y="248.864" class="st0" width="28.578" height="4.943"/>
			<rect y="238.976" class="st0" width="28.578" height="4.942"/>
			<rect y="229.086" class="st0" width="28.578" height="4.948"/>
			<rect y="219.2" class="st0" width="28.578" height="4.943"/>
			<rect y="209.307" class="st0" width="28.578" height="4.948"/>
			<rect y="199.421" class="st0" width="28.578" height="4.943"/>
			<rect x="20.066" y="186.625" width="3.582" height="69.579"/>
			<rect x="4.383" y="186.625" width="3.586" height="69.579"/>
			<rect x="21.266" y="186.572" class="st1" width="1.188" height="69.682"/>
			<rect x="5.578" y="186.572" class="st1" width="1.193" height="69.693"/>
		</g>
		<g>
			<rect y="119.977" class="st0" width="28.578" height="4.947"/>
			<rect y="179.309" class="st0" width="28.578" height="4.943"/>
			<rect y="169.42" class="st0" width="28.578" height="4.942"/>
			<rect y="159.531" class="st0" width="28.578" height="4.948"/>
			<rect y="149.646" class="st0" width="28.578" height="4.942"/>
			<rect y="139.752" class="st0" width="28.578" height="4.947"/>
			<rect y="129.866" class="st0" width="28.578" height="4.943"/>
			<rect x="20.066" y="117.069" width="3.582" height="69.579"/>
			<rect x="4.383" y="117.069" width="3.586" height="69.579"/>
			<rect x="21.266" y="117.017" class="st1" width="1.188" height="69.682"/>
			<rect x="5.578" y="117.017" class="st1" width="1.193" height="69.693"/>
		</g>
		<g>
			<rect y="50.421" class="st0" width="28.578" height="4.947"/>
			<rect y="109.754" class="st0" width="28.578" height="4.942"/>
			<rect y="99.865" class="st0" width="28.578" height="4.942"/>
			<rect y="89.976" class="st0" width="28.578" height="4.948"/>
			<rect y="80.09" class="st0" width="28.578" height="4.942"/>
			<rect y="70.196" class="st0" width="28.578" height="4.948"/>
			<rect y="60.311" class="st0" width="28.578" height="4.943"/>
			<rect x="20.066" y="47.514" width="3.582" height="69.579"/>
			<rect x="4.383" y="47.514" width="3.586" height="69.579"/>
			<rect x="21.266" y="47.461" class="st1" width="1.188" height="69.682"/>
			<rect x="5.578" y="47.461" class="st1" width="1.193" height="69.693"/>
		</g>
		<g>
			<rect x="103.952" class="st0" width="4.523" height="28.578"/>
			<rect x="49.702" class="st0" width="4.52" height="28.578"/>
			<rect x="58.744" class="st0" width="4.52" height="28.578"/>
			<rect x="67.782" class="st0" width="4.524" height="28.578"/>
			<rect x="76.826" class="st0" width="4.52" height="28.578"/>
			<rect x="85.869" class="st0" width="4.524" height="28.578"/>
			<rect x="94.913" class="st0" width="4.52" height="28.578"/>
			<rect x="47.51" y="20.066" width="63.624" height="3.582"/>
			<rect x="47.51" y="4.383" width="63.624" height="3.586"/>
			<rect x="47.464" y="21.266" class="st1" width="63.718" height="1.188"/>
			<rect x="47.454" y="5.578" class="st1" width="63.728" height="1.193"/>
		</g>
		<g>
			<rect x="167.554" class="st0" width="4.523" height="28.578"/>
			<rect x="113.304" class="st0" width="4.52" height="28.578"/>
			<rect x="122.346" class="st0" width="4.52" height="28.578"/>
			<rect x="131.384" class="st0" width="4.524" height="28.578"/>
			<rect x="140.428" class="st0" width="4.52" height="28.578"/>
			<rect x="149.47" class="st0" width="4.524" height="28.578"/>
			<rect x="158.514" class="st0" width="4.52" height="28.578"/>
			<rect x="111.112" y="20.066" width="63.624" height="3.582"/>
			<rect x="111.112" y="4.383" width="63.624" height="3.586"/>
			<rect x="111.066" y="21.266" class="st1" width="63.718" height="1.188"/>
			<rect x="111.056" y="5.578" class="st1" width="63.728" height="1.193"/>
		</g>
		<g>
			<rect x="231.156" class="st0" width="4.523" height="28.578"/>
			<rect x="176.906" class="st0" width="4.52" height="28.578"/>
			<rect x="185.948" class="st0" width="4.52" height="28.578"/>
			<rect x="194.986" class="st0" width="4.524" height="28.578"/>
			<rect x="204.03" class="st0" width="4.52" height="28.578"/>
			<rect x="213.072" class="st0" width="4.524" height="28.578"/>
			<rect x="222.116" class="st0" width="4.52" height="28.578"/>
			<rect x="174.714" y="20.066" width="63.623" height="3.582"/>
			<rect x="174.714" y="4.383" width="63.623" height="3.586"/>
			<rect x="174.668" y="21.266" class="st1" width="63.718" height="1.188"/>
			<rect x="174.658" y="5.578" class="st1" width="63.728" height="1.193"/>
		</g>
		<g>
			<rect x="294.757" class="st0" width="4.523" height="28.578"/>
			<rect x="240.507" class="st0" width="4.52" height="28.578"/>
			<rect x="249.55" class="st0" width="4.52" height="28.578"/>
			<rect x="258.588" class="st0" width="4.524" height="28.578"/>
			<rect x="267.632" class="st0" width="4.52" height="28.578"/>
			<rect x="276.674" class="st0" width="4.524" height="28.578"/>
			<rect x="285.718" class="st0" width="4.52" height="28.578"/>
			<rect x="238.316" y="20.066" width="63.623" height="3.582"/>
			<rect x="238.316" y="4.383" width="63.623" height="3.586"/>
			<rect x="238.27" y="21.266" class="st1" width="63.718" height="1.188"/>
			<rect x="238.26" y="5.578" class="st1" width="63.728" height="1.193"/>
		</g>
		<g>
			<rect x="358.36" class="st0" width="4.523" height="28.578"/>
			<rect x="304.109" class="st0" width="4.521" height="28.578"/>
			<rect x="313.152" class="st0" width="4.52" height="28.578"/>
			<rect x="322.19" class="st0" width="4.524" height="28.578"/>
			<rect x="331.234" class="st0" width="4.52" height="28.578"/>
			<rect x="340.276" class="st0" width="4.524" height="28.578"/>
			<rect x="349.32" class="st0" width="4.52" height="28.578"/>
			<rect x="301.918" y="20.066" width="63.623" height="3.582"/>
			<rect x="301.918" y="4.383" width="63.623" height="3.586"/>
			<rect x="301.872" y="21.266" class="st1" width="63.718" height="1.188"/>
			<rect x="301.862" y="5.578" class="st1" width="63.728" height="1.193"/>
		</g>
		<g>
			<rect x="421.961" class="st0" width="4.523" height="28.578"/>
			<rect x="367.711" class="st0" width="4.52" height="28.578"/>
			<rect x="376.753" class="st0" width="4.52" height="28.578"/>
			<rect x="385.792" class="st0" width="4.524" height="28.578"/>
			<rect x="394.835" class="st0" width="4.521" height="28.578"/>
			<rect x="403.878" class="st0" width="4.524" height="28.578"/>
			<rect x="412.922" class="st0" width="4.52" height="28.578"/>
			<rect x="365.52" y="20.066" width="63.623" height="3.582"/>
			<rect x="365.52" y="4.383" width="63.623" height="3.586"/>
			<rect x="365.474" y="21.266" class="st1" width="63.718" height="1.188"/>
			<rect x="365.463" y="5.578" class="st1" width="63.729" height="1.193"/>
		</g>
		<g>
			<rect x="485.563" class="st0" width="4.523" height="28.578"/>
			<rect x="431.313" class="st0" width="4.52" height="28.578"/>
			<rect x="440.355" class="st0" width="4.521" height="28.578"/>
			<rect x="449.394" class="st0" width="4.524" height="28.578"/>
			<rect x="458.438" class="st0" width="4.52" height="28.578"/>
			<rect x="467.48" class="st0" width="4.524" height="28.578"/>
			<rect x="476.524" class="st0" width="4.52" height="28.578"/>
			<rect x="429.122" y="20.066" width="63.624" height="3.582"/>
			<rect x="429.122" y="4.383" width="63.624" height="3.586"/>
			<rect x="429.076" y="21.266" class="st1" width="63.718" height="1.188"/>
			<rect x="429.065" y="5.578" class="st1" width="63.729" height="1.193"/>
		</g>
		<g>
			<rect x="511.682" y="109.233" class="st0" width="28.578" height="4.947"/>
			<rect x="511.682" y="49.906" class="st0" width="28.578" height="4.942"/>
			<rect x="511.682" y="59.794" class="st0" width="28.578" height="4.943"/>
			<rect x="511.682" y="69.679" class="st0" width="28.578" height="4.948"/>
			<rect x="511.682" y="79.569" class="st0" width="28.578" height="4.942"/>
			<rect x="511.682" y="89.458" class="st0" width="28.578" height="4.948"/>
			<rect x="511.682" y="99.348" class="st0" width="28.578" height="4.943"/>
			<rect x="516.612" y="47.509" width="3.582" height="69.579"/>
			<rect x="532.292" y="47.509" width="3.586" height="69.579"/>
			<rect x="517.807" y="47.458" class="st1" width="1.188" height="69.682"/>
			<rect x="533.489" y="47.447" class="st1" width="1.193" height="69.693"/>
		</g>
		<g>
			<rect x="511.682" y="178.789" class="st0" width="28.578" height="4.947"/>
			<rect x="511.682" y="119.461" class="st0" width="28.578" height="4.942"/>
			<rect x="511.682" y="129.349" class="st0" width="28.578" height="4.943"/>
			<rect x="511.682" y="139.234" class="st0" width="28.578" height="4.948"/>
			<rect x="511.682" y="149.124" class="st0" width="28.578" height="4.943"/>
			<rect x="511.682" y="159.013" class="st0" width="28.578" height="4.948"/>
			<rect x="511.682" y="168.903" class="st0" width="28.578" height="4.943"/>
			<rect x="516.612" y="117.064" width="3.582" height="69.578"/>
			<rect x="532.292" y="117.064" width="3.586" height="69.578"/>
			<rect x="517.807" y="117.014" class="st1" width="1.188" height="69.682"/>
			<rect x="533.489" y="117.002" class="st1" width="1.193" height="69.693"/>
		</g>
		<g>
			<rect x="511.682" y="248.344" class="st0" width="28.578" height="4.947"/>
			<rect x="511.682" y="189.016" class="st0" width="28.578" height="4.943"/>
			<rect x="511.682" y="198.904" class="st0" width="28.578" height="4.943"/>
			<rect x="511.682" y="208.789" class="st0" width="28.578" height="4.948"/>
			<rect x="511.682" y="218.679" class="st0" width="28.578" height="4.943"/>
			<rect x="511.682" y="228.568" class="st0" width="28.578" height="4.948"/>
			<rect x="511.682" y="238.458" class="st0" width="28.578" height="4.943"/>
			<rect x="516.612" y="186.62" width="3.582" height="69.578"/>
			<rect x="532.292" y="186.62" width="3.586" height="69.578"/>
			<rect x="517.807" y="186.569" class="st1" width="1.188" height="69.682"/>
			<rect x="533.489" y="186.558" class="st1" width="1.193" height="69.693"/>
		</g>
		<g>
			<rect x="511.682" y="317.899" class="st0" width="28.578" height="4.947"/>
			<rect x="511.682" y="258.571" class="st0" width="28.578" height="4.943"/>
			<rect x="511.682" y="268.459" class="st0" width="28.578" height="4.943"/>
			<rect x="511.682" y="278.344" class="st0" width="28.578" height="4.948"/>
			<rect x="511.682" y="288.234" class="st0" width="28.578" height="4.943"/>
			<rect x="511.682" y="298.123" class="st0" width="28.578" height="4.948"/>
			<rect x="511.682" y="308.014" class="st0" width="28.578" height="4.942"/>
			<rect x="516.612" y="256.175" width="3.582" height="69.578"/>
			<rect x="532.292" y="256.175" width="3.586" height="69.578"/>
			<rect x="517.807" y="256.124" class="st1" width="1.188" height="69.682"/>
			<rect x="533.489" y="256.113" class="st1" width="1.193" height="69.693"/>
		</g>
		<g>
			<rect x="511.682" y="387.454" class="st0" width="28.578" height="4.947"/>
			<rect x="511.682" y="328.126" class="st0" width="28.578" height="4.943"/>
			<rect x="511.682" y="338.015" class="st0" width="28.578" height="4.943"/>
			<rect x="511.682" y="347.899" class="st0" width="28.578" height="4.948"/>
			<rect x="511.682" y="357.79" class="st0" width="28.578" height="4.943"/>
			<rect x="511.682" y="367.678" class="st0" width="28.578" height="4.948"/>
			<rect x="511.682" y="377.568" class="st0" width="28.578" height="4.943"/>
			<rect x="516.612" y="325.729" width="3.582" height="69.579"/>
			<rect x="532.292" y="325.729" width="3.586" height="69.579"/>
			<rect x="517.807" y="325.679" class="st1" width="1.188" height="69.682"/>
			<rect x="533.489" y="325.668" class="st1" width="1.193" height="69.693"/>
		</g>
		<g>
			<rect x="511.682" y="457.009" class="st0" width="28.578" height="4.947"/>
			<rect x="511.682" y="397.682" class="st0" width="28.578" height="4.942"/>
			<rect x="511.682" y="407.569" class="st0" width="28.578" height="4.943"/>
			<rect x="511.682" y="417.454" class="st0" width="28.578" height="4.948"/>
			<rect x="511.682" y="427.345" class="st0" width="28.578" height="4.942"/>
			<rect x="511.682" y="437.233" class="st0" width="28.578" height="4.947"/>
			<rect x="511.682" y="447.124" class="st0" width="28.578" height="4.942"/>
			<rect x="516.612" y="395.285" width="3.582" height="69.578"/>
			<rect x="532.292" y="395.285" width="3.586" height="69.578"/>
			<rect x="517.807" y="395.234" class="st1" width="1.188" height="69.682"/>
			<rect x="533.489" y="395.223" class="st1" width="1.193" height="69.693"/>
		</g>
		<g>
			<rect x="511.682" y="526.564" class="st0" width="28.578" height="4.946"/>
			<rect x="511.682" y="467.236" class="st0" width="28.578" height="4.942"/>
			<rect x="511.682" y="477.125" class="st0" width="28.578" height="4.942"/>
			<rect x="511.682" y="487.01" class="st0" width="28.578" height="4.947"/>
			<rect x="511.682" y="496.899" class="st0" width="28.578" height="4.943"/>
			<rect x="511.682" y="506.788" class="st0" width="28.578" height="4.948"/>
			<rect x="511.682" y="516.679" class="st0" width="28.578" height="4.943"/>
			<rect x="516.612" y="464.84" width="3.582" height="69.578"/>
			<rect x="532.292" y="464.84" width="3.586" height="69.578"/>
			<rect x="517.807" y="464.789" class="st1" width="1.188" height="69.682"/>
			<rect x="533.489" y="464.778" class="st1" width="1.193" height="69.692"/>
		</g>
		<g>
			<rect x="511.682" y="596.119" class="st0" width="28.578" height="4.947"/>
			<rect x="511.682" y="536.791" class="st0" width="28.578" height="4.943"/>
			<rect x="511.682" y="546.68" class="st0" width="28.578" height="4.943"/>
			<rect x="511.682" y="556.564" class="st0" width="28.578" height="4.948"/>
			<rect x="511.682" y="566.455" class="st0" width="28.578" height="4.942"/>
			<rect x="511.682" y="576.344" class="st0" width="28.578" height="4.947"/>
			<rect x="511.682" y="586.234" class="st0" width="28.578" height="4.942"/>
			<rect x="516.612" y="534.396" width="3.582" height="69.578"/>
			<rect x="532.292" y="534.396" width="3.586" height="69.578"/>
			<rect x="517.807" y="534.345" class="st1" width="1.188" height="69.682"/>
			<rect x="533.489" y="534.333" class="st1" width="1.193" height="69.693"/>
		</g>
		<g>
			<rect x="511.682" y="665.675" class="st0" width="28.578" height="4.946"/>
			<rect x="511.682" y="606.347" class="st0" width="28.578" height="4.942"/>
			<rect x="511.682" y="616.235" class="st0" width="28.578" height="4.942"/>
			<rect x="511.682" y="626.119" class="st0" width="28.578" height="4.948"/>
			<rect x="511.682" y="636.01" class="st0" width="28.578" height="4.943"/>
			<rect x="511.682" y="645.898" class="st0" width="28.578" height="4.948"/>
			<rect x="511.682" y="655.789" class="st0" width="28.578" height="4.942"/>
			<rect x="516.612" y="603.95" width="3.582" height="69.578"/>
			<rect x="532.292" y="603.95" width="3.586" height="69.578"/>
			<rect x="517.807" y="603.899" class="st1" width="1.188" height="69.682"/>
			<rect x="533.489" y="603.889" class="st1" width="1.193" height="69.692"/>
		</g>
		<g>
			<rect x="431.785" y="692.465" class="st0" width="4.523" height="28.578"/>
			<rect x="486.039" y="692.465" class="st0" width="4.52" height="28.578"/>
			<rect x="476.997" y="692.465" class="st0" width="4.52" height="28.578"/>
			<rect x="467.954" y="692.465" class="st0" width="4.524" height="28.578"/>
			<rect x="458.915" y="692.465" class="st0" width="4.52" height="28.578"/>
			<rect x="449.868" y="692.465" class="st0" width="4.524" height="28.578"/>
			<rect x="440.828" y="692.465" class="st0" width="4.521" height="28.578"/>
			<rect x="429.126" y="697.395" width="63.623" height="3.582"/>
			<rect x="429.126" y="713.074" width="63.623" height="3.586"/>
			<rect x="429.079" y="698.59" class="st1" width="63.718" height="1.188"/>
			<rect x="429.079" y="714.271" class="st1" width="63.728" height="1.193"/>
		</g>
		<g>
			<rect x="368.183" y="692.465" class="st0" width="4.523" height="28.578"/>
			<rect x="422.437" y="692.465" class="st0" width="4.52" height="28.578"/>
			<rect x="413.395" y="692.465" class="st0" width="4.52" height="28.578"/>
			<rect x="404.352" y="692.465" class="st0" width="4.524" height="28.578"/>
			<rect x="395.312" y="692.465" class="st0" width="4.52" height="28.578"/>
			<rect x="386.265" y="692.465" class="st0" width="4.524" height="28.578"/>
			<rect x="377.226" y="692.465" class="st0" width="4.52" height="28.578"/>
			<rect x="365.525" y="697.395" width="63.623" height="3.582"/>
			<rect x="365.525" y="713.074" width="63.623" height="3.586"/>
			<rect x="365.476" y="698.59" class="st1" width="63.718" height="1.188"/>
			<rect x="365.476" y="714.271" class="st1" width="63.729" height="1.193"/>
		</g>
		<g>
			<rect x="304.582" y="692.465" class="st0" width="4.523" height="28.578"/>
			<rect x="358.835" y="692.465" class="st0" width="4.52" height="28.578"/>
			<rect x="349.792" y="692.465" class="st0" width="4.521" height="28.578"/>
			<rect x="340.75" y="692.465" class="st0" width="4.524" height="28.578"/>
			<rect x="331.71" y="692.465" class="st0" width="4.52" height="28.578"/>
			<rect x="322.664" y="692.465" class="st0" width="4.524" height="28.578"/>
			<rect x="313.625" y="692.465" class="st0" width="4.52" height="28.578"/>
			<rect x="301.922" y="697.395" width="63.624" height="3.582"/>
			<rect x="301.922" y="713.074" width="63.624" height="3.586"/>
			<rect x="301.875" y="698.59" class="st1" width="63.718" height="1.188"/>
			<rect x="301.875" y="714.271" class="st1" width="63.728" height="1.193"/>
		</g>
		<g>
			<rect x="240.979" y="692.465" class="st0" width="4.523" height="28.578"/>
			<rect x="295.233" y="692.465" class="st0" width="4.52" height="28.578"/>
			<rect x="286.191" y="692.465" class="st0" width="4.52" height="28.578"/>
			<rect x="277.148" y="692.465" class="st0" width="4.524" height="28.578"/>
			<rect x="268.108" y="692.465" class="st0" width="4.52" height="28.578"/>
			<rect x="259.062" y="692.465" class="st0" width="4.524" height="28.578"/>
			<rect x="250.022" y="692.465" class="st0" width="4.52" height="28.578"/>
			<rect x="238.321" y="697.395" width="63.623" height="3.582"/>
			<rect x="238.321" y="713.074" width="63.623" height="3.586"/>
			<rect x="238.272" y="698.59" class="st1" width="63.718" height="1.188"/>
			<rect x="238.272" y="714.271" class="st1" width="63.728" height="1.193"/>
		</g>
		<g>
			<rect x="177.377" y="692.465" class="st0" width="4.523" height="28.578"/>
			<rect x="231.631" y="692.465" class="st0" width="4.52" height="28.578"/>
			<rect x="222.589" y="692.465" class="st0" width="4.52" height="28.578"/>
			<rect x="213.546" y="692.465" class="st0" width="4.524" height="28.578"/>
			<rect x="204.506" y="692.465" class="st0" width="4.52" height="28.578"/>
			<rect x="195.46" y="692.465" class="st0" width="4.524" height="28.578"/>
			<rect x="186.42" y="692.465" class="st0" width="4.52" height="28.578"/>
			<rect x="174.719" y="697.395" width="63.624" height="3.582"/>
			<rect x="174.719" y="713.074" width="63.624" height="3.586"/>
			<rect x="174.671" y="698.59" class="st1" width="63.718" height="1.188"/>
			<rect x="174.671" y="714.271" class="st1" width="63.728" height="1.193"/>
		</g>
		<g>
			<rect x="113.775" y="692.465" class="st0" width="4.523" height="28.578"/>
			<rect x="168.029" y="692.465" class="st0" width="4.52" height="28.578"/>
			<rect x="158.987" y="692.465" class="st0" width="4.52" height="28.578"/>
			<rect x="149.944" y="692.465" class="st0" width="4.524" height="28.578"/>
			<rect x="140.905" y="692.465" class="st0" width="4.52" height="28.578"/>
			<rect x="131.858" y="692.465" class="st0" width="4.524" height="28.578"/>
			<rect x="122.818" y="692.465" class="st0" width="4.52" height="28.578"/>
			<rect x="111.117" y="697.395" width="63.623" height="3.582"/>
			<rect x="111.117" y="713.074" width="63.623" height="3.586"/>
			<rect x="111.069" y="698.59" class="st1" width="63.718" height="1.188"/>
			<rect x="111.069" y="714.271" class="st1" width="63.728" height="1.193"/>
		</g>
		<g>
			<rect x="50.173" y="692.465" class="st0" width="4.523" height="28.578"/>
			<rect x="104.427" y="692.465" class="st0" width="4.52" height="28.578"/>
			<rect x="95.385" y="692.465" class="st0" width="4.52" height="28.578"/>
			<rect x="86.342" y="692.465" class="st0" width="4.524" height="28.578"/>
			<rect x="77.303" y="692.465" class="st0" width="4.52" height="28.578"/>
			<rect x="68.256" y="692.465" class="st0" width="4.524" height="28.578"/>
			<rect x="59.217" y="692.465" class="st0" width="4.52" height="28.578"/>
			<rect x="47.515" y="697.395" width="63.623" height="3.582"/>
			<rect x="47.515" y="713.074" width="63.623" height="3.586"/>
			<rect x="47.467" y="698.59" class="st1" width="63.718" height="1.188"/>
			<rect x="47.467" y="714.271" class="st1" width="63.728" height="1.193"/>
		</g>
		<g>
			<g>
				<line x1="7.952" y1="47.52" x2="4.363" y2="47.52"/>
				<polygon class="st0" points="46.176,28.674 44.593,0.143 39.84,0.404 41.419,28.941 				"/>
				<polygon class="st0" points="35.297,31.688 15.089,11.475 11.723,14.848 31.929,35.051 				"/>
				
					<rect x="18.562" y="14.63" transform="matrix(0.3873 0.9219 -0.9219 0.3873 35.811 -19.8651)" class="st0" width="28.581" height="4.763"/>
				
					<rect x="0.474" y="40.4" transform="matrix(0.9985 0.0554 -0.0554 0.9985 2.3937 -0.7525)" class="st0" width="28.58" height="4.763"/>
				
					<rect x="2.948" y="30.246" transform="matrix(0.922 0.3872 -0.3872 0.922 13.979 -4.1292)" class="st0" width="28.578" height="4.762"/>
				<line x1="23.645" y1="47.52" x2="20.059" y2="47.52"/>
				<path d="M29.821,29.822c4.525-4.523,11.314-6.166,17.749-6.166v-3.584c-7.614,0-15.262,2.229-20.252,7.193
					c-4.995,4.984-7.258,12.652-7.258,20.254h3.586C23.645,41.125,25.297,34.34,29.821,29.822z"/>
				<path d="M18.725,18.73c7.496-7.484,18.222-10.771,28.844-10.771V4.375c-11.946,0-23.516,4.004-31.347,11.818
					C8.387,24.018,4.363,35.6,4.363,47.52h3.589C7.952,36.936,11.25,26.215,18.725,18.73z"/>
				<path class="st1" d="M28.973,28.973c4.765-4.746,11.842-6.512,18.633-6.512V21.27c-7.313,0-14.646,2.09-19.43,6.832
					c-4.786,4.775-6.919,12.14-6.919,19.454h1.192C22.45,40.808,24.227,33.73,28.973,28.973z"/>
				<path class="st1" d="M17.903,17.887c7.729-7.709,18.726-11.125,29.704-11.125V5.572c-11.642,0-22.874,3.859-30.493,11.443
					C9.485,24.63,5.581,35.923,5.581,47.556h1.19C6.771,36.62,10.195,25.597,17.903,17.887z"/>
			</g>
		</g>
		<g>
			<g>
				<line x1="492.741" y1="7.952" x2="492.741" y2="4.363"/>
				<polygon class="st0" points="511.586,46.176 540.118,44.593 539.856,39.84 511.319,41.419 				"/>
				<polygon class="st0" points="508.573,35.297 528.786,15.089 525.413,11.723 505.209,31.929 				"/>
				
					<rect x="508.958" y="30.471" transform="matrix(-0.9219 0.3873 -0.3873 -0.9219 1018.3764 -139.5332)" class="st0" width="28.581" height="4.763"/>
				
					<rect x="483.189" y="12.382" transform="matrix(-0.0554 0.9985 -0.9985 -0.0554 539.7916 -481.1324)" class="st0" width="28.58" height="4.763"/>
				
					<rect x="493.344" y="14.856" transform="matrix(-0.3872 0.922 -0.922 -0.3872 720.0972 -444.1175)" class="st0" width="28.578" height="4.762"/>
				<line x1="492.741" y1="23.645" x2="492.741" y2="20.059"/>
				<path d="M510.438,29.821c4.523,4.527,6.166,11.31,6.166,17.753h3.584c0-7.623-2.229-15.265-7.193-20.257
					c-4.984-4.995-12.652-7.258-20.254-7.258v3.586C499.135,23.645,505.92,25.297,510.438,29.821z"/>
				<path d="M521.53,18.725c7.484,7.498,10.771,18.218,10.771,28.849h3.584c0-11.955-4.004-23.519-11.818-31.352
					c-7.824-7.835-19.406-11.859-31.326-11.859v3.589C503.325,7.952,514.045,11.25,521.53,18.725z"/>
				<path class="st1" d="M511.288,28.973c4.746,4.768,6.512,11.834,6.512,18.641h1.191c0-7.329-2.09-14.65-6.832-19.438
					c-4.773-4.786-12.143-6.919-19.451-6.919v1.192C499.45,22.45,506.532,24.227,511.288,28.973z"/>
				<path class="st1" d="M522.374,17.903c7.709,7.733,11.125,18.718,11.125,29.711h1.189c0-11.657-3.859-22.878-11.443-30.5
					c-7.613-7.629-18.91-11.533-30.537-11.533v1.19C503.637,6.771,514.665,10.195,522.374,17.903z"/>
			</g>
		</g>
		<g>
			<g>
				<line x1="532.308" y1="673.523" x2="535.898" y2="673.523"/>
				<polygon class="st0" points="494.083,692.369 495.667,720.9 500.419,720.639 498.841,692.102 				"/>
				<polygon class="st0" points="504.962,689.355 525.171,709.568 528.537,706.195 508.332,685.992 				"/>
				
					<rect x="493.117" y="701.65" transform="matrix(-0.3873 -0.9219 0.9219 -0.3873 54.8713 1444.5266)" class="st0" width="28.581" height="4.763"/>
				
					<rect x="511.206" y="675.88" transform="matrix(-0.9985 -0.0554 0.0554 -0.9985 1012.5958 1384.6045)" class="st0" width="28.581" height="4.763"/>
				
					<rect x="508.733" y="686.035" transform="matrix(-0.922 -0.3872 0.3872 -0.922 738.6753 1525.6517)" class="st0" width="28.579" height="4.761"/>
				<line x1="516.615" y1="673.523" x2="520.201" y2="673.523"/>
				<path d="M510.439,691.221c-4.525,4.523-11.313,6.166-17.748,6.166v3.584c7.614,0,15.262-2.229,20.252-7.193
					c4.996-4.984,7.258-12.652,7.258-20.254h-3.586C516.615,679.918,514.962,686.703,510.439,691.221z"/>
				<path d="M521.535,702.313c-7.496,7.484-18.222,10.771-28.844,10.771v3.584c11.946,0,23.516-4.004,31.348-11.818
					c7.834-7.824,11.859-19.406,11.859-31.326h-3.59C532.308,684.107,529.011,694.828,521.535,702.313z"/>
				<path class="st1" d="M511.287,692.07c-4.765,4.746-11.842,6.512-18.633,6.512v1.191c7.313,0,14.646-2.09,19.43-6.832
					c4.787-4.775,6.92-12.14,6.92-19.454h-1.193C517.81,680.235,516.033,687.313,511.287,692.07z"/>
				<path class="st1" d="M522.357,703.156c-7.729,7.709-18.726,11.125-29.703,11.125v1.189c11.642,0,22.873-3.859,30.492-11.443
					c7.629-7.615,11.533-18.907,11.533-30.54h-1.189C533.49,684.423,530.066,695.445,522.357,703.156z"/>
			</g>
		</g>
		<g>
			<g>
				<line x1="47.52" y1="713.091" x2="47.52" y2="716.681"/>
				<polygon class="st0" points="28.674,674.866 0.143,676.45 0.404,681.202 28.941,679.624 				"/>
				<polygon class="st0" points="31.688,685.745 11.475,705.954 14.848,709.319 35.051,689.114 				"/>
				
					<rect x="2.721" y="685.809" transform="matrix(0.9219 -0.3873 0.3873 0.9219 -265.2329 60.3103)" class="st0" width="28.581" height="4.763"/>
				
					<rect x="28.491" y="703.898" transform="matrix(0.0554 -0.9985 0.9985 0.0554 -664.7835 709.8522)" class="st0" width="28.581" height="4.763"/>
				
					<rect x="18.337" y="701.425" transform="matrix(0.3872 -0.922 0.922 0.3872 -628.9069 461.3599)" class="st0" width="28.579" height="4.761"/>
				<line x1="47.52" y1="697.397" x2="47.52" y2="700.983"/>
				<path d="M29.822,691.222c-4.523-4.527-6.166-11.31-6.166-17.752h-3.584c0,7.622,2.229,15.265,7.193,20.256
					c4.984,4.996,12.652,7.258,20.254,7.258v-3.586C41.125,697.397,34.34,695.745,29.822,691.222z"/>
				<path d="M18.73,702.317C11.246,694.82,7.959,684.1,7.959,673.47H4.375c0,11.954,4.004,23.519,11.818,31.352
					c7.824,7.834,19.406,11.859,31.326,11.859v-3.59C36.936,713.091,26.215,709.794,18.73,702.317z"/>
				<path class="st1" d="M28.973,692.069c-4.746-4.768-6.512-11.834-6.512-18.641H21.27c0,7.329,2.09,14.65,6.832,19.438
					c4.774,4.787,12.142,6.92,19.452,6.92v-1.193C40.81,698.593,33.729,696.815,28.973,692.069z"/>
				<path class="st1" d="M17.887,703.14c-7.709-7.732-11.125-18.718-11.125-29.711H5.572c0,11.657,3.859,22.878,11.443,30.5
					c7.614,7.629,18.91,11.533,30.538,11.533v-1.189C36.623,714.272,25.596,710.849,17.887,703.14z"/>
			</g>
		</g>
	</g>
</g>
</svg>
