<?xml version="1.0" encoding="utf-8"?>
<!-- Generator: Adobe Illustrator 14.0.0, SVG Export Plug-In . SVG Version: 6.00 Build 43363)  -->
<!DOCTYPE svg PUBLIC "-//W3C//DTD SVG 1.1//EN" "http://www.w3.org/Graphics/SVG/1.1/DTD/svg11.dtd">
<svg version="1.1" id="Layer_1" xmlns="http://www.w3.org/2000/svg" xmlns:xlink="http://www.w3.org/1999/xlink" x="0px" y="0px"
	 width="576.041px" height="756px" viewBox="0 0 576.041 756" style="enable-background:new 0 0 576.041 756;" xml:space="preserve"
	>
<style type="text/css">
<![CDATA[
	.st0{fill:#F3C727;}
	.st1{fill:#25408F;}
]]>
</style>
<polygon class="st1" points="565.5,749 566.541,7.042 570.041,7.042 569,749 "/>
<rect x="7.375" y="746" class="st1" width="561.625" height="3.5"/>
<rect x="6" y="6" class="st1" width="3.5" height="743.354"/>
<g>
	<path class="st0" d="M0,225.792c0,25,15,9,15,40C15,250.292,0,256.292,0,225.792z"/>
	<path class="st0" d="M0,206.979c0,25,15,9,15,40C15,231.479,0,237.479,0,206.979z"/>
	<path class="st0" d="M0,188.167c0,25,15,9,15,40C15,212.667,0,218.667,0,188.167z"/>
	<path class="st0" d="M0,169.354c0,25,15,9,15,40C15,193.854,0,199.854,0,169.354z"/>
	<path class="st0" d="M0,150.542c0,25,15,9,15,40C15,175.042,0,181.042,0,150.542z"/>
	<path class="st0" d="M0,131.729c0,25,15,9,15,40C15,156.229,0,162.229,0,131.729z"/>
	<path class="st0" d="M0,112.917c0,25,15,9,15,40C15,137.417,0,143.417,0,112.917z"/>
	<path class="st0" d="M0,94.104c0,25,15,9,15,40C15,118.604,0,124.604,0,94.104z"/>
	<path class="st0" d="M0,75.292c0,25,15,9,15,40C15,99.792,0,105.792,0,75.292z"/>
	<path class="st0" d="M0,56.479c0,25,15,9,15,40C15,80.979,0,86.979,0,56.479z"/>
	<path class="st0" d="M0,37.667c0,25,15,9,15,40C15,62.167,0,68.167,0,37.667z"/>
	<path class="st0" d="M0,18.854c0,25,15,9,15,40C15,43.354,0,49.354,0,18.854z"/>
	<path class="st0" d="M0,0.042c0,25,15,9,15,40C15,24.542,0,30.542,0,0.042z"/>
</g>
<g>
	<path class="st0" d="M0,338.771c0,25,15,9,15,40C15,363.271,0,369.271,0,338.771z"/>
	<path class="st0" d="M0,319.958c0,25,15,9,15,40C15,344.458,0,350.458,0,319.958z"/>
	<path class="st0" d="M0,301.146c0,25,15,9,15,40C15,325.646,0,331.646,0,301.146z"/>
	<path class="st0" d="M0,282.333c0,25,15,9,15,40C15,306.833,0,312.833,0,282.333z"/>
	<path class="st0" d="M0,263.521c0,25,15,9,15,40C15,288.021,0,294.021,0,263.521z"/>
	<path class="st0" d="M0,244.708c0,25,15,9,15,40C15,269.208,0,275.208,0,244.708z"/>
</g>
<g>
	<path class="st0" d="M0,529.209c0-25,15-9,15-40C15,504.709,0,498.709,0,529.209z"/>
	<path class="st0" d="M0,548.021c0-25,15-9,15-40C15,523.521,0,517.521,0,548.021z"/>
	<path class="st0" d="M0,566.834c0-25,15-9,15-40C15,542.334,0,536.334,0,566.834z"/>
	<path class="st0" d="M0,585.646c0-25,15-9,15-40C15,561.146,0,555.146,0,585.646z"/>
	<path class="st0" d="M0,604.459c0-25,15-9,15-40C15,579.959,0,573.959,0,604.459z"/>
	<path class="st0" d="M0,623.271c0-25,15-9,15-40C15,598.771,0,592.771,0,623.271z"/>
	<path class="st0" d="M0,642.084c0-25,15-9,15-40C15,617.584,0,611.584,0,642.084z"/>
	<path class="st0" d="M0,660.896c0-25,15-9,15-40C15,636.396,0,630.396,0,660.896z"/>
	<path class="st0" d="M0,679.708c0-24.999,15-8.999,15-39.999C15,655.209,0,649.209,0,679.708z"/>
	<path class="st0" d="M0,698.521c0-24.999,15-9,15-39.999C15,674.021,0,668.021,0,698.521z"/>
	<path class="st0" d="M0,717.333c0-25,15-9,15-40C15,692.833,0,686.833,0,717.333z"/>
	<path class="st0" d="M0,736.146c0-25,15-9,15-40C15,711.646,0,705.646,0,736.146z"/>
	<path class="st0" d="M0,754.958c0-25,15-9,15-40C15,730.458,0,724.458,0,754.958z"/>
</g>
<g>
	<path class="st0" d="M0,416.229c0-25,15-9,15-40C15,391.729,0,385.729,0,416.229z"/>
	<path class="st0" d="M0,435.041c0-25,15-9,15-40C15,410.541,0,404.541,0,435.041z"/>
	<path class="st0" d="M0,453.854c0-25,15-9,15-40C15,429.354,0,423.354,0,453.854z"/>
	<path class="st0" d="M0,472.666c0-25,15-9,15-40C15,448.166,0,442.166,0,472.666z"/>
	<path class="st0" d="M0,491.479c0-25,15-9,15-40C15,466.979,0,460.979,0,491.479z"/>
	<path class="st0" d="M0,510.291c0-25,15-9,15-40C15,485.791,0,479.791,0,510.291z"/>
</g>
<g>
	<path class="st0" d="M576.041,226.833c0,25-15,9-15,40C561.041,251.333,576.041,257.333,576.041,226.833z"/>
	<path class="st0" d="M576.041,208.021c0,25-15,9-15,40C561.041,232.521,576.041,238.521,576.041,208.021z"/>
	<path class="st0" d="M576.041,189.208c0,25-15,9-15,40C561.041,213.708,576.041,219.708,576.041,189.208z"/>
	<path class="st0" d="M576.041,170.396c0,25-15,9-15,40C561.041,194.896,576.041,200.896,576.041,170.396z"/>
	<path class="st0" d="M576.041,151.583c0,25-15,9-15,40C561.041,176.083,576.041,182.083,576.041,151.583z"/>
	<path class="st0" d="M576.041,132.771c0,25-15,9-15,40C561.041,157.271,576.041,163.271,576.041,132.771z"/>
	<path class="st0" d="M576.041,113.958c0,25-15,9-15,40C561.041,138.458,576.041,144.458,576.041,113.958z"/>
	<path class="st0" d="M576.041,95.146c0,25-15,9-15,40C561.041,119.646,576.041,125.646,576.041,95.146z"/>
	<path class="st0" d="M576.041,76.333c0,25-15,9-15,40C561.041,100.833,576.041,106.833,576.041,76.333z"/>
	<path class="st0" d="M576.041,57.521c0,25-15,9-15,40C561.041,82.021,576.041,88.021,576.041,57.521z"/>
	<path class="st0" d="M576.041,38.708c0,25-15,9-15,40C561.041,63.208,576.041,69.208,576.041,38.708z"/>
	<path class="st0" d="M576.041,19.896c0,25-15,9-15,40C561.041,44.396,576.041,50.396,576.041,19.896z"/>
	<path class="st0" d="M576.041,1.083c0,25-15,9-15,40C561.041,25.583,576.041,31.583,576.041,1.083z"/>
</g>
<g>
	<path class="st0" d="M576.041,339.813c0,25-15,9-15,40C561.041,364.313,576.041,370.313,576.041,339.813z"/>
	<path class="st0" d="M576.041,321c0,25-15,9-15,40C561.041,345.5,576.041,351.5,576.041,321z"/>
	<path class="st0" d="M576.041,302.188c0,25-15,9-15,40C561.041,326.688,576.041,332.688,576.041,302.188z"/>
	<path class="st0" d="M576.041,283.375c0,25-15,9-15,40C561.041,307.875,576.041,313.875,576.041,283.375z"/>
	<path class="st0" d="M576.041,264.563c0,25-15,9-15,40C561.041,289.063,576.041,295.063,576.041,264.563z"/>
	<path class="st0" d="M576.041,245.75c0,25-15,9-15,40C561.041,270.25,576.041,276.25,576.041,245.75z"/>
</g>
<g>
	<path class="st0" d="M576.041,530.25c0-25-15-9-15-40C561.041,505.75,576.041,499.75,576.041,530.25z"/>
	<path class="st0" d="M576.041,549.063c0-25-15-9-15-40C561.041,524.563,576.041,518.563,576.041,549.063z"/>
	<path class="st0" d="M576.041,567.875c0-25-15-9-15-40C561.041,543.375,576.041,537.375,576.041,567.875z"/>
	<path class="st0" d="M576.041,586.688c0-25-15-9-15-40C561.041,562.188,576.041,556.188,576.041,586.688z"/>
	<path class="st0" d="M576.041,605.5c0-25-15-9-15-40C561.041,581,576.041,575,576.041,605.5z"/>
	<path class="st0" d="M576.041,624.313c0-25-15-9-15-40C561.041,599.813,576.041,593.813,576.041,624.313z"/>
	<path class="st0" d="M576.041,643.125c0-25-15-9-15-40C561.041,618.625,576.041,612.625,576.041,643.125z"/>
	<path class="st0" d="M576.041,661.938c0-25-15-9-15-40C561.041,637.438,576.041,631.438,576.041,661.938z"/>
	<path class="st0" d="M576.041,680.75c0-25-15-9-15-40C561.041,656.25,576.041,650.25,576.041,680.75z"/>
	<path class="st0" d="M576.041,699.563c0-25-15-9-15-40C561.041,675.063,576.041,669.063,576.041,699.563z"/>
	<path class="st0" d="M576.041,718.375c0-25-15-9-15-40C561.041,693.875,576.041,687.875,576.041,718.375z"/>
	<path class="st0" d="M576.041,737.188c0-25-15-9-15-40C561.041,712.688,576.041,706.688,576.041,737.188z"/>
	<path class="st0" d="M576.041,756c0-25-15-9-15-40C561.041,731.5,576.041,725.5,576.041,756z"/>
</g>
<g>
	<path class="st0" d="M576.041,417.271c0-25-15-9-15-40C561.041,392.771,576.041,386.771,576.041,417.271z"/>
	<path class="st0" d="M576.041,436.084c0-25-15-9-15-40C561.041,411.584,576.041,405.584,576.041,436.084z"/>
	<path class="st0" d="M576.041,454.896c0-25-15-9-15-40C561.041,430.396,576.041,424.396,576.041,454.896z"/>
	<path class="st0" d="M576.041,473.709c0-25-15-9-15-40C561.041,449.209,576.041,443.209,576.041,473.709z"/>
	<path class="st0" d="M576.041,492.521c0-25-15-9-15-40C561.041,468.021,576.041,462.021,576.041,492.521z"/>
	<path class="st0" d="M576.041,511.334c0-25-15-9-15-40C561.041,486.834,576.041,480.834,576.041,511.334z"/>
</g>
<rect x="6" y="6" class="st1" width="561.625" height="3.5"/>
<g>
	<path class="st0" d="M245.079,0c27.13,0,9.767,15,43.409,15C271.667,15,278.178,0,245.079,0z"/>
	<path class="st0" d="M224.663,0c27.131,0,9.767,15,43.409,15C251.251,15,257.762,0,224.663,0z"/>
	<path class="st0" d="M204.248,0c27.13,0,9.767,15,43.409,15C230.835,15,237.347,0,204.248,0z"/>
	<path class="st0" d="M183.832,0c27.13,0,9.767,15,43.409,15C210.42,15,216.931,0,183.832,0z"/>
	<path class="st0" d="M163.416,0c27.13,0,9.767,15,43.409,15C190.004,15,196.515,0,163.416,0z"/>
	<path class="st0" d="M143,0c27.13,0,9.767,15,43.409,15C169.588,15,176.1,0,143,0z"/>
	<path class="st0" d="M122.584,0c27.131,0,9.767,15,43.409,15C149.172,15,155.684,0,122.584,0z"/>
	<path class="st0" d="M102.169,0c27.13,0,9.767,15,43.409,15C128.757,15,135.268,0,102.169,0z"/>
	<path class="st0" d="M81.753,0c27.13,0,9.767,15,43.409,15C108.341,15,114.853,0,81.753,0z"/>
	<path class="st0" d="M61.337,0c27.131,0,9.767,15,43.409,15C87.925,15,94.437,0,61.337,0z"/>
	<path class="st0" d="M40.922,0c27.13,0,9.767,15,43.409,15C67.51,15,74.021,0,40.922,0z"/>
	<path class="st0" d="M20.506,0c27.131,0,9.768,15,43.409,15C47.094,15,53.605,0,20.506,0z"/>
	<path class="st0" d="M0.09,0C27.221,0,9.857,15,43.5,15C26.678,15,33.189,0,0.09,0z"/>
</g>
<g>
	<path class="st0" d="M330.921,0c-27.131,0-9.767,15-43.409,15C304.333,15,297.822,0,330.921,0z"/>
	<path class="st0" d="M351.337,0c-27.131,0-9.768,15-43.409,15C324.749,15,318.238,0,351.337,0z"/>
	<path class="st0" d="M371.752,0c-27.13,0-9.767,15-43.408,15C345.165,15,338.653,0,371.752,0z"/>
	<path class="st0" d="M392.168,0c-27.131,0-9.767,15-43.408,15C365.58,15,359.068,0,392.168,0z"/>
	<path class="st0" d="M412.584,0c-27.131,0-9.768,15-43.408,15C385.996,15,379.485,0,412.584,0z"/>
	<path class="st0" d="M432.999,0c-27.13,0-9.767,15-43.408,15C406.411,15,399.9,0,432.999,0z"/>
	<path class="st0" d="M453.415,0c-27.13,0-9.767,15-43.409,15C426.827,15,420.315,0,453.415,0z"/>
	<path class="st0" d="M473.831,0c-27.13,0-9.767,15-43.408,15C447.243,15,440.731,0,473.831,0z"/>
	<path class="st0" d="M494.246,0c-27.13,0-9.767,15-43.408,15C467.658,15,461.147,0,494.246,0z"/>
	<path class="st0" d="M514.662,0c-27.131,0-9.767,15-43.409,15C488.074,15,481.563,0,514.662,0z"/>
	<path class="st0" d="M535.078,0c-27.13,0-9.768,15-43.409,15C508.49,15,501.979,0,535.078,0z"/>
	<path class="st0" d="M555.494,0c-27.131,0-9.767,15-43.409,15C528.906,15,522.395,0,555.494,0z"/>
	<path class="st0" d="M575.91,0c-27.131,0-9.768,15-43.409,15C549.322,15,542.811,0,575.91,0z"/>
</g>
<g>
	<path class="st0" d="M245.079,755.5c27.13,0,9.767-15,43.409-15C271.667,740.5,278.178,755.5,245.079,755.5z"/>
	<path class="st0" d="M224.663,755.5c27.131,0,9.767-15,43.409-15C251.251,740.5,257.762,755.5,224.663,755.5z"/>
	<path class="st0" d="M204.248,755.5c27.13,0,9.767-15,43.409-15C230.835,740.5,237.347,755.5,204.248,755.5z"/>
	<path class="st0" d="M183.832,755.5c27.13,0,9.767-15,43.409-15C210.42,740.5,216.931,755.5,183.832,755.5z"/>
	<path class="st0" d="M163.416,755.5c27.13,0,9.767-15,43.409-15C190.004,740.5,196.515,755.5,163.416,755.5z"/>
	<path class="st0" d="M143,755.5c27.13,0,9.767-15,43.409-15C169.588,740.5,176.1,755.5,143,755.5z"/>
	<path class="st0" d="M122.584,755.5c27.131,0,9.767-15,43.409-15C149.172,740.5,155.684,755.5,122.584,755.5z"/>
	<path class="st0" d="M102.169,755.5c27.13,0,9.767-15,43.409-15C128.757,740.5,135.268,755.5,102.169,755.5z"/>
	<path class="st0" d="M81.753,755.5c27.13,0,9.767-15,43.409-15C108.341,740.5,114.853,755.5,81.753,755.5z"/>
	<path class="st0" d="M61.337,755.5c27.131,0,9.767-15,43.409-15C87.925,740.5,94.437,755.5,61.337,755.5z"/>
	<path class="st0" d="M40.922,755.5c27.13,0,9.767-15,43.409-15C67.51,740.5,74.021,755.5,40.922,755.5z"/>
	<path class="st0" d="M20.506,755.5c27.131,0,9.768-15,43.409-15C47.094,740.5,53.605,755.5,20.506,755.5z"/>
	<path class="st0" d="M0.09,755.5c27.13,0,9.767-15,43.409-15C26.678,740.5,33.189,755.5,0.09,755.5z"/>
</g>
<g>
	<path class="st0" d="M330.921,755.5c-27.131,0-9.767-15-43.409-15C304.333,740.5,297.822,755.5,330.921,755.5z"/>
	<path class="st0" d="M351.337,755.5c-27.131,0-9.768-15-43.409-15C324.749,740.5,318.238,755.5,351.337,755.5z"/>
	<path class="st0" d="M371.752,755.5c-27.13,0-9.767-15-43.408-15C345.165,740.5,338.653,755.5,371.752,755.5z"/>
	<path class="st0" d="M392.168,755.5c-27.131,0-9.767-15-43.408-15C365.58,740.5,359.068,755.5,392.168,755.5z"/>
	<path class="st0" d="M412.584,755.5c-27.131,0-9.768-15-43.408-15C385.996,740.5,379.485,755.5,412.584,755.5z"/>
	<path class="st0" d="M432.999,755.5c-27.13,0-9.767-15-43.408-15C406.411,740.5,399.9,755.5,432.999,755.5z"/>
	<path class="st0" d="M453.415,755.5c-27.13,0-9.767-15-43.409-15C426.827,740.5,420.315,755.5,453.415,755.5z"/>
	<path class="st0" d="M473.831,755.5c-27.13,0-9.767-15-43.408-15C447.243,740.5,440.731,755.5,473.831,755.5z"/>
	<path class="st0" d="M494.246,755.5c-27.13,0-9.767-15-43.408-15C467.658,740.5,461.147,755.5,494.246,755.5z"/>
	<path class="st0" d="M514.662,755.5c-27.131,0-9.767-15-43.409-15C488.074,740.5,481.563,755.5,514.662,755.5z"/>
	<path class="st0" d="M535.078,755.5c-27.13,0-9.768-15-43.409-15C508.49,740.5,501.979,755.5,535.078,755.5z"/>
	<path class="st0" d="M555.494,755.5c-27.131,0-9.767-15-43.409-15C528.906,740.5,522.395,755.5,555.494,755.5z"/>
	<path class="st0" d="M575.91,755.5c-27.131,0-9.768-15-43.409-15C549.322,740.5,542.811,755.5,575.91,755.5z"/>
</g>
</svg>
