<?xml version="1.0" encoding="utf-8"?>
<!-- Generator: Adobe Illustrator 14.0.0, SVG Export Plug-In . SVG Version: 6.00 Build 43363)  -->
<!DOCTYPE svg PUBLIC "-//W3C//DTD SVG 1.1//EN" "http://www.w3.org/Graphics/SVG/1.1/DTD/svg11.dtd">
<svg version="1.1" id="Layer_1" xmlns="http://www.w3.org/2000/svg" xmlns:xlink="http://www.w3.org/1999/xlink" x="0px" y="0px"
	 width="535.799px" height="716.799px" viewBox="0 0 535.799 716.799" style="enable-background:new 0 0 535.799 716.799;"
	 xml:space="preserve">
<style type="text/css">
<![CDATA[
	.st0{opacity:0.8;fill:#587BBD;}
]]>
</style>
<g>
	<g>
		<g>
			<g>
				<path class="st0" d="M0,682.099h22.8v-22.8H0V682.099z M16.987,670.699c0,3.083-2.5,5.585-5.586,5.585
					c-3.085,0-5.586-2.502-5.586-5.585c0-3.087,2.5-5.587,5.586-5.587C14.486,665.112,16.987,667.612,16.987,670.699z"/>
			</g>
		</g>
		<g>
			<g>
				<path class="st0" d="M0,647.398h22.8v-22.8H0V647.398z M16.987,635.999c0,3.084-2.5,5.585-5.586,5.585
					c-3.085,0-5.586-2.501-5.586-5.585c0-3.086,2.5-5.587,5.586-5.587C14.486,630.412,16.987,632.913,16.987,635.999z"/>
			</g>
		</g>
		<g>
			<g>
				<path class="st0" d="M0,612.699h22.8v-22.801H0V612.699z M16.987,601.299c0,3.084-2.5,5.585-5.586,5.585
					c-3.085,0-5.586-2.501-5.586-5.585c0-3.086,2.5-5.587,5.586-5.587C14.486,595.712,16.987,598.213,16.987,601.299z"/>
			</g>
		</g>
		<g>
			<g>
				<path class="st0" d="M0,577.999h22.8v-22.8H0V577.999z M16.987,566.599c0,3.084-2.5,5.585-5.586,5.585
					c-3.085,0-5.586-2.501-5.586-5.585c0-3.086,2.5-5.587,5.586-5.587C14.486,561.012,16.987,563.513,16.987,566.599z"/>
			</g>
		</g>
		<g>
			<g>
				<path class="st0" d="M0,543.299h22.8v-22.8H0V543.299z M16.987,531.898c0,3.084-2.5,5.586-5.586,5.586
					c-3.085,0-5.586-2.502-5.586-5.586c0-3.086,2.5-5.587,5.586-5.587C14.486,526.312,16.987,528.813,16.987,531.898z"/>
			</g>
		</g>
		<g>
			<g>
				<path class="st0" d="M0,508.599h22.8v-22.8H0V508.599z M16.987,497.199c0,3.083-2.5,5.585-5.586,5.585
					c-3.085,0-5.586-2.502-5.586-5.585c0-3.087,2.5-5.587,5.586-5.587C14.486,491.612,16.987,494.112,16.987,497.199z"/>
			</g>
		</g>
		<g>
			<g>
				<path class="st0" d="M0,473.898h22.8v-22.8H0V473.898z M16.987,462.499c0,3.084-2.5,5.585-5.586,5.585
					c-3.085,0-5.586-2.501-5.586-5.585c0-3.086,2.5-5.587,5.586-5.587C14.486,456.912,16.987,459.413,16.987,462.499z"/>
			</g>
		</g>
		<g>
			<g>
				<path class="st0" d="M0,439.199h22.8v-22.801H0V439.199z M16.987,427.799c0,3.084-2.5,5.585-5.586,5.585
					c-3.085,0-5.586-2.501-5.586-5.585c0-3.086,2.5-5.587,5.586-5.587C14.486,422.212,16.987,424.713,16.987,427.799z"/>
			</g>
		</g>
		<g>
			<g>
				<path class="st0" d="M0,404.499h22.8v-22.8H0V404.499z M16.987,393.099c0,3.084-2.5,5.585-5.586,5.585
					c-3.085,0-5.586-2.501-5.586-5.585c0-3.086,2.5-5.587,5.586-5.587C14.486,387.512,16.987,390.013,16.987,393.099z"/>
			</g>
		</g>
		<g>
			<g>
				<path class="st0" d="M0,369.799h22.8v-22.8H0V369.799z M16.987,358.399c0,3.083-2.5,5.585-5.586,5.585
					c-3.085,0-5.586-2.502-5.586-5.585c0-3.086,2.5-5.587,5.586-5.587C14.486,352.812,16.987,355.313,16.987,358.399z"/>
			</g>
		</g>
		<g>
			<g>
				<path class="st0" d="M0,335.099h22.8v-22.8H0V335.099z M16.987,323.699c0,3.084-2.5,5.585-5.586,5.585
					c-3.085,0-5.586-2.501-5.586-5.585c0-3.086,2.5-5.587,5.586-5.587C14.486,318.112,16.987,320.613,16.987,323.699z"/>
			</g>
		</g>
		<g>
			<g>
				<path class="st0" d="M0,300.399h22.8v-22.8H0V300.399z M16.987,288.999c0,3.083-2.5,5.585-5.586,5.585
					c-3.085,0-5.586-2.501-5.586-5.585c0-3.086,2.5-5.587,5.586-5.587C14.486,283.412,16.987,285.913,16.987,288.999z"/>
			</g>
		</g>
		<g>
			<g>
				<path class="st0" d="M0,265.699h22.8v-22.8H0V265.699z M16.987,254.299c0,3.084-2.5,5.585-5.586,5.585
					c-3.085,0-5.586-2.501-5.586-5.585c0-3.086,2.5-5.587,5.586-5.587C14.486,248.712,16.987,251.213,16.987,254.299z"/>
			</g>
		</g>
		<g>
			<g>
				<path class="st0" d="M0,230.999h22.8v-22.8H0V230.999z M16.987,219.599c0,3.084-2.5,5.585-5.586,5.585
					c-3.085,0-5.586-2.501-5.586-5.585c0-3.086,2.5-5.587,5.586-5.587C14.486,214.012,16.987,216.513,16.987,219.599z"/>
			</g>
		</g>
		<g>
			<g>
				<path class="st0" d="M0,196.299h22.8v-22.8H0V196.299z M16.987,184.899c0,3.083-2.5,5.585-5.586,5.585
					c-3.085,0-5.586-2.501-5.586-5.585c0-3.086,2.5-5.587,5.586-5.587C14.486,179.312,16.987,181.813,16.987,184.899z"/>
			</g>
		</g>
		<g>
			<g>
				<path class="st0" d="M0,161.599h22.8v-22.8H0V161.599z M16.987,150.199c0,3.084-2.5,5.585-5.586,5.585
					c-3.085,0-5.586-2.501-5.586-5.585c0-3.086,2.5-5.587,5.586-5.587C14.486,144.612,16.987,147.113,16.987,150.199z"/>
			</g>
		</g>
		<g>
			<g>
				<path class="st0" d="M0,126.899h22.8v-22.8H0V126.899z M16.987,115.499c0,3.083-2.5,5.585-5.586,5.585
					c-3.085,0-5.586-2.501-5.586-5.585c0-3.086,2.5-5.587,5.586-5.587C14.486,109.912,16.987,112.413,16.987,115.499z"/>
			</g>
		</g>
		<g>
			<g>
				<path class="st0" d="M0,92.199h22.8v-22.8H0V92.199z M16.987,80.799c0,3.084-2.5,5.585-5.586,5.585
					c-3.085,0-5.586-2.501-5.586-5.585c0-3.086,2.5-5.587,5.586-5.587C14.486,75.212,16.987,77.713,16.987,80.799z"/>
			</g>
		</g>
		<g>
			<g>
				<path class="st0" d="M0,57.499h22.8v-22.8H0V57.499z M16.987,46.099c0,3.084-2.5,5.585-5.586,5.585
					c-3.085,0-5.586-2.501-5.586-5.585c0-3.086,2.5-5.587,5.586-5.587C14.486,40.512,16.987,43.013,16.987,46.099z"/>
			</g>
		</g>
		<g>
			<g>
				<path class="st0" d="M36.643,0v22.8h22.8V0H36.643z M48.043,16.987c-3.084,0-5.585-2.5-5.585-5.586
					c0-3.085,2.501-5.586,5.585-5.586c3.086,0,5.587,2.5,5.587,5.586C53.63,14.486,51.129,16.987,48.043,16.987z"/>
			</g>
		</g>
		<g>
			<g>
				<path class="st0" d="M73.286,0v22.8h22.8V0H73.286z M84.686,16.987c-3.083,0-5.585-2.5-5.585-5.586
					c0-3.085,2.501-5.586,5.585-5.586c3.086,0,5.587,2.5,5.587,5.586C90.272,14.486,87.772,16.987,84.686,16.987z"/>
			</g>
		</g>
		<g>
			<g>
				<path class="st0" d="M109.929,0v22.8h22.8V0H109.929z M121.329,16.987c-3.084,0-5.585-2.5-5.585-5.586
					c0-3.085,2.501-5.586,5.585-5.586c3.086,0,5.587,2.5,5.587,5.586C126.916,14.486,124.415,16.987,121.329,16.987z"/>
			</g>
		</g>
		<g>
			<g>
				<path class="st0" d="M146.571,0v22.8h22.8V0H146.571z M157.972,16.987c-3.084,0-5.585-2.5-5.585-5.586
					c0-3.085,2.501-5.586,5.585-5.586c3.086,0,5.587,2.5,5.587,5.586C163.559,14.486,161.058,16.987,157.972,16.987z"/>
			</g>
		</g>
		<g>
			<g>
				<path class="st0" d="M183.214,0v22.8h22.8V0H183.214z M194.614,16.987c-3.084,0-5.585-2.5-5.585-5.586
					c0-3.085,2.501-5.586,5.585-5.586c3.086,0,5.587,2.5,5.587,5.586C200.201,14.486,197.7,16.987,194.614,16.987z"/>
			</g>
		</g>
		<g>
			<g>
				<path class="st0" d="M219.857,0v22.8h22.8V0H219.857z M231.257,16.987c-3.084,0-5.585-2.5-5.585-5.586
					c0-3.085,2.501-5.586,5.585-5.586c3.086,0,5.587,2.5,5.587,5.586C236.844,14.486,234.343,16.987,231.257,16.987z"/>
			</g>
		</g>
		<g>
			<g>
				<path class="st0" d="M256.5,0v22.8h22.8V0H256.5z M267.9,16.987c-3.083,0-5.585-2.5-5.585-5.586
					c0-3.085,2.501-5.586,5.585-5.586c3.086,0,5.587,2.5,5.587,5.586C273.487,14.486,270.986,16.987,267.9,16.987z"/>
			</g>
		</g>
		<g>
			<g>
				<path class="st0" d="M293.143,0v22.8h22.8V0H293.143z M304.543,16.987c-3.084,0-5.585-2.5-5.585-5.586
					c0-3.085,2.501-5.586,5.585-5.586c3.086,0,5.587,2.5,5.587,5.586C310.13,14.486,307.629,16.987,304.543,16.987z"/>
			</g>
		</g>
		<g>
			<g>
				<path class="st0" d="M329.786,0v22.8h22.8V0H329.786z M341.186,16.987c-3.084,0-5.585-2.5-5.585-5.586
					c0-3.085,2.501-5.586,5.585-5.586c3.086,0,5.587,2.5,5.587,5.586C346.772,14.486,344.271,16.987,341.186,16.987z"/>
			</g>
		</g>
		<g>
			<g>
				<path class="st0" d="M366.429,0v22.8h22.8V0H366.429z M377.828,16.987c-3.083,0-5.585-2.5-5.585-5.586
					c0-3.085,2.502-5.586,5.585-5.586c3.087,0,5.587,2.5,5.587,5.586C383.415,14.486,380.915,16.987,377.828,16.987z"/>
			</g>
		</g>
		<g>
			<g>
				<path class="st0" d="M403.071,0v22.8h22.8V0H403.071z M414.472,16.987c-3.084,0-5.585-2.5-5.585-5.586
					c0-3.085,2.501-5.586,5.585-5.586c3.086,0,5.587,2.5,5.587,5.586C420.059,14.486,417.558,16.987,414.472,16.987z"/>
			</g>
		</g>
		<g>
			<g>
				<path class="st0" d="M439.714,0v22.8h22.801V0H439.714z M451.114,16.987c-3.084,0-5.585-2.5-5.585-5.586
					c0-3.085,2.501-5.586,5.585-5.586c3.086,0,5.587,2.5,5.587,5.586C456.701,14.486,454.2,16.987,451.114,16.987z"/>
			</g>
		</g>
		<g>
			<g>
				<path class="st0" d="M476.357,0v22.8h22.8V0H476.357z M487.757,16.987c-3.084,0-5.585-2.5-5.585-5.586
					c0-3.085,2.501-5.586,5.585-5.586c3.087,0,5.587,2.5,5.587,5.586C493.344,14.486,490.844,16.987,487.757,16.987z"/>
			</g>
		</g>
		<g>
			<g>
				<path class="st0" d="M535.798,34.7h-22.8v22.8h22.8V34.7z M518.812,46.1c0-3.084,2.501-5.585,5.587-5.585
					c3.085,0,5.586,2.501,5.586,5.585c0,3.086-2.501,5.587-5.586,5.587C521.313,51.687,518.812,49.186,518.812,46.1z"/>
			</g>
		</g>
		<g>
			<g>
				<path class="st0" d="M535.798,69.4h-22.8v22.8h22.8V69.4z M518.812,80.8c0-3.083,2.501-5.585,5.587-5.585
					c3.085,0,5.586,2.501,5.586,5.585c0,3.086-2.501,5.587-5.586,5.587C521.313,86.387,518.812,83.886,518.812,80.8z"/>
			</g>
		</g>
		<g>
			<g>
				<path class="st0" d="M535.798,104.1h-22.8v22.8h22.8V104.1z M518.812,115.5c0-3.084,2.501-5.585,5.587-5.585
					c3.085,0,5.586,2.501,5.586,5.585c0,3.086-2.501,5.587-5.586,5.587C521.313,121.087,518.812,118.586,518.812,115.5z"/>
			</g>
		</g>
		<g>
			<g>
				<path class="st0" d="M535.798,138.8h-22.8v22.8h22.8V138.8z M518.812,150.2c0-3.084,2.501-5.585,5.587-5.585
					c3.085,0,5.586,2.501,5.586,5.585c0,3.086-2.501,5.587-5.586,5.587C521.313,155.787,518.812,153.286,518.812,150.2z"/>
			</g>
		</g>
		<g>
			<g>
				<path class="st0" d="M535.798,173.5h-22.8v22.8h22.8V173.5z M518.812,184.9c0-3.083,2.501-5.585,5.587-5.585
					c3.085,0,5.586,2.501,5.586,5.585c0,3.086-2.501,5.587-5.586,5.587C521.313,190.487,518.812,187.986,518.812,184.9z"/>
			</g>
		</g>
		<g>
			<g>
				<path class="st0" d="M535.798,208.2h-22.8V231h22.8V208.2z M518.812,219.6c0-3.084,2.501-5.585,5.587-5.585
					c3.085,0,5.586,2.501,5.586,5.585c0,3.086-2.501,5.587-5.586,5.587C521.313,225.187,518.812,222.686,518.812,219.6z"/>
			</g>
		</g>
		<g>
			<g>
				<path class="st0" d="M535.798,242.9h-22.8v22.8h22.8V242.9z M518.812,254.3c0-3.083,2.501-5.585,5.587-5.585
					c3.085,0,5.586,2.501,5.586,5.585c0,3.086-2.501,5.587-5.586,5.587C521.313,259.887,518.812,257.386,518.812,254.3z"/>
			</g>
		</g>
		<g>
			<g>
				<path class="st0" d="M535.798,277.6h-22.8v22.8h22.8V277.6z M518.812,289c0-3.084,2.501-5.585,5.587-5.585
					c3.085,0,5.586,2.501,5.586,5.585c0,3.086-2.501,5.587-5.586,5.587C521.313,294.587,518.812,292.086,518.812,289z"/>
			</g>
		</g>
		<g>
			<g>
				<path class="st0" d="M535.798,312.3h-22.8v22.8h22.8V312.3z M518.812,323.7c0-3.084,2.501-5.585,5.587-5.585
					c3.085,0,5.586,2.501,5.586,5.585c0,3.086-2.501,5.587-5.586,5.587C521.313,329.287,518.812,326.786,518.812,323.7z"/>
			</g>
		</g>
		<g>
			<g>
				<path class="st0" d="M535.798,347h-22.8v22.8h22.8V347z M518.812,358.4c0-3.083,2.501-5.585,5.587-5.585
					c3.085,0,5.586,2.501,5.586,5.585c0,3.086-2.501,5.587-5.586,5.587C521.313,363.987,518.812,361.486,518.812,358.4z"/>
			</g>
		</g>
		<g>
			<g>
				<path class="st0" d="M535.798,381.7h-22.8v22.8h22.8V381.7z M518.812,393.1c0-3.083,2.501-5.585,5.587-5.585
					c3.085,0,5.586,2.502,5.586,5.585c0,3.087-2.501,5.587-5.586,5.587C521.313,398.687,518.812,396.187,518.812,393.1z"/>
			</g>
		</g>
		<g>
			<g>
				<path class="st0" d="M535.798,416.4h-22.8v22.8h22.8V416.4z M518.812,427.8c0-3.084,2.501-5.585,5.587-5.585
					c3.085,0,5.586,2.501,5.586,5.585c0,3.086-2.501,5.587-5.586,5.587C521.313,433.387,518.812,430.886,518.812,427.8z"/>
			</g>
		</g>
		<g>
			<g>
				<path class="st0" d="M535.798,451.1h-22.8V473.9h22.8V451.1z M518.812,462.5c0-3.084,2.501-5.585,5.587-5.585
					c3.085,0,5.586,2.501,5.586,5.585c0,3.086-2.501,5.587-5.586,5.587C521.313,468.087,518.812,465.586,518.812,462.5z"/>
			</g>
		</g>
		<g>
			<g>
				<path class="st0" d="M535.798,485.8h-22.8v22.8h22.8V485.8z M518.812,497.2c0-3.084,2.501-5.585,5.587-5.585
					c3.085,0,5.586,2.501,5.586,5.585c0,3.086-2.501,5.587-5.586,5.587C521.313,502.787,518.812,500.286,518.812,497.2z"/>
			</g>
		</g>
		<g>
			<g>
				<path class="st0" d="M535.798,520.5h-22.8v22.8h22.8V520.5z M518.812,531.9c0-3.084,2.501-5.586,5.587-5.586
					c3.085,0,5.586,2.502,5.586,5.586c0,3.086-2.501,5.587-5.586,5.587C521.313,537.487,518.812,534.986,518.812,531.9z"/>
			</g>
		</g>
		<g>
			<g>
				<path class="st0" d="M535.798,555.2h-22.8V578h22.8V555.2z M518.812,566.6c0-3.083,2.501-5.585,5.587-5.585
					c3.085,0,5.586,2.502,5.586,5.585c0,3.087-2.501,5.587-5.586,5.587C521.313,572.187,518.812,569.687,518.812,566.6z"/>
			</g>
		</g>
		<g>
			<g>
				<path class="st0" d="M535.798,589.9h-22.8v22.8h22.8V589.9z M518.812,601.3c0-3.084,2.501-5.585,5.587-5.585
					c3.085,0,5.586,2.501,5.586,5.585c0,3.086-2.501,5.587-5.586,5.587C521.313,606.887,518.812,604.386,518.812,601.3z"/>
			</g>
		</g>
		<g>
			<g>
				<path class="st0" d="M535.798,624.6h-22.8V647.4h22.8V624.6z M518.812,636c0-3.084,2.501-5.585,5.587-5.585
					c3.085,0,5.586,2.501,5.586,5.585c0,3.086-2.501,5.587-5.586,5.587C521.313,641.587,518.812,639.086,518.812,636z"/>
			</g>
		</g>
		<g>
			<g>
				<path class="st0" d="M535.798,659.3h-22.8v22.8h22.8V659.3z M518.812,670.7c0-3.084,2.501-5.585,5.587-5.585
					c3.085,0,5.586,2.501,5.586,5.585c0,3.086-2.501,5.587-5.586,5.587C521.313,676.287,518.812,673.786,518.812,670.7z"/>
			</g>
		</g>
		<g>
			<g>
				<path class="st0" d="M499.156,716.798v-22.8h-22.8v22.8H499.156z M487.756,699.812c3.084,0,5.585,2.501,5.585,5.587
					c0,3.085-2.501,5.586-5.585,5.586c-3.086,0-5.587-2.501-5.587-5.586C482.169,702.313,484.67,699.812,487.756,699.812z"/>
			</g>
		</g>
		<g>
			<g>
				<path class="st0" d="M462.513,716.798v-22.8h-22.8v22.8H462.513z M451.113,699.812c3.084,0,5.585,2.501,5.585,5.587
					c0,3.085-2.501,5.586-5.585,5.586c-3.086,0-5.587-2.501-5.587-5.586C445.526,702.313,448.027,699.812,451.113,699.812z"/>
			</g>
		</g>
		<g>
			<g>
				<path class="st0" d="M425.87,716.798v-22.8h-22.8v22.8H425.87z M414.471,699.812c3.083,0,5.585,2.501,5.585,5.587
					c0,3.085-2.502,5.586-5.585,5.586c-3.087,0-5.587-2.501-5.587-5.586C408.884,702.313,411.384,699.812,414.471,699.812z"/>
			</g>
		</g>
		<g>
			<g>
				<path class="st0" d="M389.228,716.798v-22.8h-22.8v22.8H389.228z M377.827,699.812c3.084,0,5.585,2.501,5.585,5.587
					c0,3.085-2.501,5.586-5.585,5.586c-3.086,0-5.587-2.501-5.587-5.586C372.24,702.313,374.741,699.812,377.827,699.812z"/>
			</g>
		</g>
		<g>
			<g>
				<path class="st0" d="M352.585,716.798v-22.8h-22.801v22.8H352.585z M341.185,699.812c3.084,0,5.585,2.501,5.585,5.587
					c0,3.085-2.501,5.586-5.585,5.586c-3.086,0-5.587-2.501-5.587-5.586C335.598,702.313,338.099,699.812,341.185,699.812z"/>
			</g>
		</g>
		<g>
			<g>
				<path class="st0" d="M315.941,716.798v-22.8h-22.8v22.8H315.941z M304.542,699.812c3.084,0,5.585,2.501,5.585,5.587
					c0,3.085-2.501,5.586-5.585,5.586c-3.086,0-5.587-2.501-5.587-5.586C298.955,702.313,301.456,699.812,304.542,699.812z"/>
			</g>
		</g>
		<g>
			<g>
				<path class="st0" d="M279.299,716.798v-22.8h-22.8v22.8H279.299z M267.899,699.812c3.083,0,5.585,2.501,5.585,5.587
					c0,3.085-2.502,5.586-5.585,5.586c-3.086,0-5.587-2.501-5.587-5.586C262.312,702.313,264.813,699.812,267.899,699.812z"/>
			</g>
		</g>
		<g>
			<g>
				<path class="st0" d="M242.656,716.798v-22.8h-22.8v22.8H242.656z M231.256,699.812c3.084,0,5.585,2.501,5.585,5.587
					c0,3.085-2.501,5.586-5.585,5.586c-3.086,0-5.587-2.501-5.587-5.586C225.669,702.313,228.17,699.812,231.256,699.812z"/>
			</g>
		</g>
		<g>
			<g>
				<path class="st0" d="M206.013,716.798v-22.8h-22.8v22.8H206.013z M194.613,699.812c3.083,0,5.585,2.501,5.585,5.587
					c0,3.085-2.501,5.586-5.585,5.586c-3.086,0-5.587-2.501-5.587-5.586C189.026,702.313,191.527,699.812,194.613,699.812z"/>
			</g>
		</g>
		<g>
			<g>
				<path class="st0" d="M169.37,716.798v-22.8h-22.8v22.8H169.37z M157.97,699.812c3.084,0,5.585,2.501,5.585,5.587
					c0,3.085-2.501,5.586-5.585,5.586c-3.086,0-5.587-2.501-5.587-5.586C152.383,702.313,154.884,699.812,157.97,699.812z"/>
			</g>
		</g>
		<g>
			<g>
				<path class="st0" d="M132.728,716.798v-22.8h-22.8v22.8H132.728z M121.328,699.812c3.083,0,5.585,2.501,5.585,5.587
					c0,3.085-2.501,5.586-5.585,5.586c-3.086,0-5.587-2.501-5.587-5.586C115.741,702.313,118.241,699.812,121.328,699.812z"/>
			</g>
		</g>
		<g>
			<g>
				<path class="st0" d="M96.084,716.798v-22.8h-22.8v22.8H96.084z M84.685,699.812c3.084,0,5.585,2.501,5.585,5.587
					c0,3.085-2.501,5.586-5.585,5.586c-3.086,0-5.587-2.501-5.587-5.586C79.098,702.313,81.599,699.812,84.685,699.812z"/>
			</g>
		</g>
		<g>
			<g>
				<path class="st0" d="M59.442,716.798v-22.8h-22.8v22.8H59.442z M48.042,699.812c3.084,0,5.585,2.501,5.585,5.587
					c0,3.085-2.501,5.586-5.585,5.586c-3.086,0-5.587-2.501-5.587-5.586C42.455,702.313,44.956,699.812,48.042,699.812z"/>
			</g>
		</g>
		<g>
			<g>
				<path class="st0" d="M0,0v22.8h22.8V0H0z M11.4,16.987c-3.083,0-5.585-2.5-5.585-5.586c0-3.085,2.501-5.586,5.585-5.586
					c3.086,0,5.587,2.5,5.587,5.586C16.987,14.486,14.486,16.987,11.4,16.987z"/>
			</g>
		</g>
		<g>
			<g>
				<path class="st0" d="M535.798,0h-22.8v22.8h22.8V0z M518.812,11.4c0-3.083,2.501-5.585,5.587-5.585
					c3.085,0,5.586,2.501,5.586,5.585c0,3.086-2.501,5.587-5.586,5.587C521.313,16.987,518.812,14.486,518.812,11.4z"/>
			</g>
		</g>
		<g>
			<g>
				<path class="st0" d="M535.799,716.798v-22.8h-22.8v22.8H535.799z M524.398,699.812c3.084,0,5.586,2.501,5.586,5.587
					c0,3.085-2.502,5.586-5.586,5.586c-3.086,0-5.587-2.501-5.587-5.586C518.812,702.313,521.313,699.812,524.398,699.812z"/>
			</g>
		</g>
		<g>
			<g>
				<path class="st0" d="M0,716.799h22.8v-22.8H0V716.799z M16.987,705.398c0,3.084-2.5,5.586-5.586,5.586
					c-3.085,0-5.586-2.502-5.586-5.586c0-3.086,2.5-5.587,5.586-5.587C14.486,699.812,16.987,702.313,16.987,705.398z"/>
			</g>
		</g>
	</g>
</g>
</svg>
