<?xml version="1.0" encoding="utf-8"?>
<!-- Generator: Adobe Illustrator 14.0.0, SVG Export Plug-In . SVG Version: 6.00 Build 43363)  -->
<!DOCTYPE svg PUBLIC "-//W3C//DTD SVG 1.1//EN" "http://www.w3.org/Graphics/SVG/1.1/DTD/svg11.dtd">
<svg version="1.1" id="Nouveau_x5F_12_xA0_Image_1_"
	 xmlns="http://www.w3.org/2000/svg" xmlns:xlink="http://www.w3.org/1999/xlink" x="0px" y="0px" width="729px" height="969px"
	 viewBox="0 0 729 969" style="enable-background:new 0 0 729 969;" xml:space="preserve">
<style type="text/css">
<![CDATA[
	.st0{fill-rule:evenodd;clip-rule:evenodd;fill:none;stroke:#000000;stroke-width:1.7321;stroke-linecap:round;}
	.st1{fill-rule:evenodd;clip-rule:evenodd;fill:none;stroke:#000000;stroke-width:3.4023;stroke-linecap:round;}
	.st2{fill-rule:evenodd;clip-rule:evenodd;fill:none;stroke:#000000;stroke-width:1.5207;stroke-linecap:round;}
	.st3{fill-rule:evenodd;clip-rule:evenodd;fill:none;stroke:#000000;stroke-width:3.3166;stroke-linecap:round;}
	.st4{fill-rule:evenodd;clip-rule:evenodd;fill:none;stroke:#000000;stroke-width:2.9155;stroke-linecap:round;}
	.st5{fill-rule:evenodd;clip-rule:evenodd;fill:none;stroke:#000000;stroke-width:4.1982;stroke-linecap:round;}
	.st6{fill-rule:evenodd;clip-rule:evenodd;fill:none;stroke:#000000;stroke-width:2.1794;stroke-linecap:round;}
	.st7{fill-rule:evenodd;clip-rule:evenodd;fill:none;stroke:#000000;stroke-width:2.3979;stroke-linecap:round;}
	.st8{fill-rule:evenodd;clip-rule:evenodd;fill:none;stroke:#000000;stroke-width:1.7657;stroke-linecap:round;}
	.st9{fill-rule:evenodd;clip-rule:evenodd;fill:none;stroke:#000000;stroke-width:1.8012;stroke-linecap:round;}
	.st10{fill-rule:evenodd;clip-rule:evenodd;fill:none;stroke:#000000;stroke-width:1.2536;stroke-linecap:round;}
	.st11{fill-rule:evenodd;clip-rule:evenodd;fill:none;stroke:#000000;stroke-width:3.1258;stroke-linecap:round;}
	.st12{fill-rule:evenodd;clip-rule:evenodd;fill:none;stroke:#000000;stroke-width:1.9748;stroke-linecap:round;}
	.st13{fill-rule:evenodd;clip-rule:evenodd;fill:none;stroke:#000000;stroke-width:1.9654;stroke-linecap:round;}
	.st14{fill-rule:evenodd;clip-rule:evenodd;fill:none;stroke:#000000;stroke-width:2.0532;stroke-linecap:round;}
	.st15{fill-rule:evenodd;clip-rule:evenodd;fill:none;stroke:#000000;stroke-width:1.8841;stroke-linecap:round;}
	.st16{fill-rule:evenodd;clip-rule:evenodd;fill:none;stroke:#000000;stroke-width:1.633;stroke-linecap:round;}
	.st17{fill-rule:evenodd;clip-rule:evenodd;fill:none;stroke:#000000;stroke-width:1.5811;stroke-linecap:round;}
	.st18{fill-rule:evenodd;clip-rule:evenodd;fill:none;stroke:#000000;stroke-width:3.2016;stroke-linecap:round;}
	.st19{fill-rule:evenodd;clip-rule:evenodd;fill:none;stroke:#000000;stroke-width:2.0976;stroke-linecap:round;}
	.st20{fill-rule:evenodd;clip-rule:evenodd;fill:none;stroke:#000000;stroke-width:2.8284;stroke-linecap:round;}
	.st21{fill-rule:evenodd;clip-rule:evenodd;fill:none;stroke:#000000;stroke-width:1.5499;stroke-linecap:round;}
	.st22{fill-rule:evenodd;clip-rule:evenodd;fill:none;stroke:#000000;stroke-width:2.1102;stroke-linecap:round;}
	.st23{fill-rule:evenodd;clip-rule:evenodd;fill:none;stroke:#000000;stroke-width:3.6839;stroke-linecap:round;}
	.st24{fill-rule:evenodd;clip-rule:evenodd;fill:none;stroke:#000000;stroke-width:3.221;stroke-linecap:round;}
	.st25{fill-rule:evenodd;clip-rule:evenodd;fill:none;stroke:#000000;stroke-width:2.6926;stroke-linecap:round;}
	.st26{fill-rule:evenodd;clip-rule:evenodd;fill:none;stroke:#000000;stroke-width:1.6525;stroke-linecap:round;}
	.st27{fill-rule:evenodd;clip-rule:evenodd;fill:none;stroke:#000000;stroke-width:3.3912;stroke-linecap:round;}
	.st28{fill-rule:evenodd;clip-rule:evenodd;fill:none;stroke:#000000;stroke-width:2.195;stroke-linecap:round;}
	.st29{fill-rule:evenodd;clip-rule:evenodd;fill:none;stroke:#000000;stroke-width:3.0332;stroke-linecap:round;}
	.st30{fill-rule:evenodd;clip-rule:evenodd;fill:none;stroke:#000000;stroke-width:2.49;stroke-linecap:round;}
	.st31{fill-rule:evenodd;clip-rule:evenodd;fill:none;stroke:#000000;stroke-linecap:round;}
	.st32{fill-rule:evenodd;clip-rule:evenodd;fill:none;stroke:#000000;stroke-width:1.893;stroke-linecap:round;}
	.st33{fill-rule:evenodd;clip-rule:evenodd;fill:none;stroke:#000000;stroke-width:2.3238;stroke-linecap:round;}
	.st34{fill-rule:evenodd;clip-rule:evenodd;fill:none;stroke:#000000;stroke-width:1.7633;stroke-linecap:round;}
	.st35{fill-rule:evenodd;clip-rule:evenodd;fill:none;stroke:#000000;stroke-width:2.2072;stroke-linecap:round;}
	.st36{fill-rule:evenodd;clip-rule:evenodd;fill:none;stroke:#000000;stroke-width:1.964;stroke-linecap:round;}
	.st37{fill-rule:evenodd;clip-rule:evenodd;fill:none;stroke:#000000;stroke-width:2.708;stroke-linecap:round;}
	.st38{fill-rule:evenodd;clip-rule:evenodd;fill:none;stroke:#000000;stroke-width:2.4495;stroke-linecap:round;}
	.st39{fill-rule:evenodd;clip-rule:evenodd;fill:none;stroke:#000000;stroke-width:1.7974;stroke-linecap:round;}
	.st40{fill-rule:evenodd;clip-rule:evenodd;fill:none;stroke:#000000;stroke-width:1.5986;stroke-linecap:round;}
	.st41{fill-rule:evenodd;clip-rule:evenodd;fill:none;stroke:#000000;stroke-width:2.1756;stroke-linecap:round;}
	.st42{fill-rule:evenodd;clip-rule:evenodd;fill:none;stroke:#000000;stroke-width:1.1314;stroke-linecap:round;}
	.st43{fill-rule:evenodd;clip-rule:evenodd;fill:none;stroke:#000000;stroke-width:1.6641;stroke-linecap:round;}
	.st44{fill-rule:evenodd;clip-rule:evenodd;fill:none;stroke:#000000;stroke-width:3.1937;stroke-linecap:round;}
	.st45{fill-rule:evenodd;clip-rule:evenodd;fill:none;stroke:#000000;stroke-width:1.8638;stroke-linecap:round;}
	.st46{fill-rule:evenodd;clip-rule:evenodd;fill:none;stroke:#000000;stroke-width:2.1213;stroke-linecap:round;}
	.st47{fill-rule:evenodd;clip-rule:evenodd;fill:none;stroke:#000000;stroke-width:2.1016;stroke-linecap:round;}
	.st48{fill-rule:evenodd;clip-rule:evenodd;fill:none;stroke:#000000;stroke-width:1.5411;stroke-linecap:round;}
	.st49{fill-rule:evenodd;clip-rule:evenodd;fill:none;stroke:#000000;stroke-width:3.2404;stroke-linecap:round;}
	.st50{fill-rule:evenodd;clip-rule:evenodd;fill:none;stroke:#000000;stroke-width:1.833;stroke-linecap:round;}
	.st51{fill-rule:evenodd;clip-rule:evenodd;fill:none;stroke:#000000;stroke-width:1.6036;stroke-linecap:round;}
	.st52{fill-rule:evenodd;clip-rule:evenodd;fill:none;stroke:#000000;stroke-width:2.3604;stroke-linecap:round;}
	.st53{fill:#000000;fill-rule:evenodd;clip-rule:evenodd;}
	.st54{fill-rule:evenodd;clip-rule:evenodd;fill:none;stroke:#000000;stroke-width:1.8127;stroke-linecap:round;}
	.st55{fill-rule:evenodd;clip-rule:evenodd;fill:none;stroke:#000000;stroke-width:1.8397;stroke-linecap:round;}
	.st56{fill-rule:evenodd;clip-rule:evenodd;fill:none;stroke:#000000;stroke-width:3.1091;stroke-linecap:round;}
	.st57{fill-rule:evenodd;clip-rule:evenodd;fill:none;stroke:#000000;stroke-width:4.1231;stroke-linecap:round;}
	.st58{fill-rule:evenodd;clip-rule:evenodd;fill:none;stroke:#000000;stroke-width:1.8997;stroke-linecap:round;}
	.st59{fill-rule:evenodd;clip-rule:evenodd;fill:none;stroke:#000000;stroke-width:1.6583;stroke-linecap:round;}
	.st60{fill-rule:evenodd;clip-rule:evenodd;fill:none;stroke:#000000;stroke-width:2.0207;stroke-linecap:round;}
	.st61{fill-rule:evenodd;clip-rule:evenodd;fill:none;stroke:#000000;stroke-width:1.6922;stroke-linecap:round;}
	.st62{fill-rule:evenodd;clip-rule:evenodd;fill:none;stroke:#000000;stroke-width:2.7689;stroke-linecap:round;}
	.st63{fill-rule:evenodd;clip-rule:evenodd;fill:none;stroke:#000000;stroke-width:1.5912;stroke-linecap:round;}
	.st64{fill-rule:evenodd;clip-rule:evenodd;fill:none;stroke:#000000;stroke-width:2.3452;stroke-linecap:round;}
	.st65{fill-rule:evenodd;clip-rule:evenodd;fill:none;stroke:#000000;stroke-width:3.668;stroke-linecap:round;}
	.st66{fill-rule:evenodd;clip-rule:evenodd;fill:none;stroke:#000000;stroke-width:1.6869;stroke-linecap:round;}
	.st67{fill-rule:evenodd;clip-rule:evenodd;fill:none;stroke:#000000;stroke-width:1.6296;stroke-linecap:round;}
	.st68{fill-rule:evenodd;clip-rule:evenodd;fill:none;stroke:#000000;stroke-width:4.0825;stroke-linecap:round;}
	.st69{fill-rule:evenodd;clip-rule:evenodd;fill:none;stroke:#000000;stroke-width:3.5254;stroke-linecap:round;}
	.st70{fill-rule:evenodd;clip-rule:evenodd;fill:none;stroke:#000000;stroke-width:4.3012;stroke-linecap:round;}
	.st71{fill-rule:evenodd;clip-rule:evenodd;fill:none;stroke:#000000;stroke-width:2.0584;stroke-linecap:round;}
	.st72{fill-rule:evenodd;clip-rule:evenodd;fill:none;stroke:#000000;stroke-width:1.291;stroke-linecap:round;}
	.st73{fill-rule:evenodd;clip-rule:evenodd;fill:none;stroke:#000000;stroke-width:3.1358;stroke-linecap:round;}
	.st74{fill-rule:evenodd;clip-rule:evenodd;fill:none;stroke:#000000;stroke-width:2.2361;stroke-linecap:round;}
	.st75{fill-rule:evenodd;clip-rule:evenodd;fill:none;stroke:#000000;stroke-width:1.765;stroke-linecap:round;}
	.st76{fill-rule:evenodd;clip-rule:evenodd;fill:none;stroke:#000000;stroke-width:2.582;stroke-linecap:round;}
	.st77{fill-rule:evenodd;clip-rule:evenodd;fill:none;stroke:#000000;stroke-width:1.245;stroke-linecap:round;}
	.st78{fill-rule:evenodd;clip-rule:evenodd;fill:none;stroke:#000000;stroke-width:2.1557;stroke-linecap:round;}
	.st79{fill-rule:evenodd;clip-rule:evenodd;fill:none;stroke:#000000;stroke-width:3.0822;stroke-linecap:round;}
	.st80{fill-rule:evenodd;clip-rule:evenodd;fill:none;stroke:#000000;stroke-width:1.6733;stroke-linecap:round;}
	.st81{fill-rule:evenodd;clip-rule:evenodd;fill:none;stroke:#000000;stroke-width:1.9014;stroke-linecap:round;}
	.st82{fill-rule:evenodd;clip-rule:evenodd;fill:none;stroke:#000000;stroke-width:1.9149;stroke-linecap:round;}
	.st83{fill-rule:evenodd;clip-rule:evenodd;fill:none;stroke:#000000;stroke-width:2.6458;stroke-linecap:round;}
	.st84{fill-rule:evenodd;clip-rule:evenodd;fill:none;stroke:#000000;stroke-width:3.873;stroke-linecap:round;}
	.st85{fill-rule:evenodd;clip-rule:evenodd;fill:none;stroke:#000000;stroke-width:1.8439;stroke-linecap:round;}
	.st86{fill-rule:evenodd;clip-rule:evenodd;fill:none;stroke:#000000;stroke-width:2.9277;stroke-linecap:round;}
	.st87{fill-rule:evenodd;clip-rule:evenodd;fill:none;stroke:#000000;stroke-width:2.8723;stroke-linecap:round;}
	.st88{fill-rule:evenodd;clip-rule:evenodd;fill:none;stroke:#000000;stroke-width:2.2136;stroke-linecap:round;}
	.st89{fill-rule:evenodd;clip-rule:evenodd;fill:none;stroke:#000000;stroke-width:4.0927;stroke-linecap:round;}
]]>
</style>
<g>
	<g>
		<path class="st53" d="M69,16c5.603-4.702,15.787-5.122,18,3c0.239,4.746-3.714-2.964-6,1c-3.667,0-7.333,0-11,0l0.5-1.5L69,19
			l0.5-1.5L69,16z"/>
		<path class="st53" d="M69.5,22.5L70,21c2.483-0.15,4.15,0.517,5,2l-0.5,1.5L76,24c1.14,2.194,2.581,4.086,2,8l-1.833-0.5L75,33
			c-3.678-2.322-5.992-6.008-7-11L69.5,22.5z"/>
		<path class="st53" d="M644,16c2.949-6.266,10.653-2.726,15,0l-0.5,1.5L659,19l-1.5-0.5L658,20c-4.262-0.405-10.302,0.968-13-1
			l0.5-1.833L644,16z"/>
		<path class="st53" d="M659.167,21.167L659,20c4.208,2.859-2.46,11.308-6,13l-1.167-1.5L650,32c0.673-5.661,2.353-10.314,8-11
			L659.167,21.167z"/>
		<path class="st53" d="M68,27c4.848,3.115,8.166,16.11-1,17c3.934-5.911-5.805-11.29-1-18l0.5,1.5L68,27z"/>
		<path class="st53" d="M657,40c-3.123-4.826,1.04-10.932,4-13l0.5,1.5L663,29c0.812,5.145-0.807,7.86-3,10l-1.833-0.5L657,40z"/>
		<path class="st53" d="M674,40c1.419-0.086,2.832-0.165,3,1c-0.924,5.096-7.09,10.216-12,8l1.5-1l-1.5-1
			c0.002-4.664,3.779-5.554,7-7l1,0.5L674,40z"/>
		<path class="st53" d="M48,50c0-2,0-4,0-6c4.114,0.553,5.605,3.728,5,9l-1.833-0.5L50,54c-0.934-0.733-1.515-1.818-2-3l1.5-0.5
			L48,50z"/>
		<path class="st53" d="M47.5,50.5L48,51c-0.333,0-0.667,0-1,0L47.5,50.5L47,50c0.333,0,0.667,0,1,0L47.5,50.5z"/>
		<path class="st53" d="M45.5,50.5L47,51c-1.456,3.249-5.353,8.134-10,5c4.154-2.513,3.556-9.777,9-11c2.168-0.168,0.453,3.547,1,5
			L45.5,50.5z"/>
		<path class="st53" d="M682,49c-1.166,2.501-3.487,3.846-3,8c-8.656-1.172-1.236-18.083,4-11l-1.5,1.167L682,49z"/>
		<path class="st53" d="M706,79c0.184,0.851-0.39,0.943-1,1c0.027,0.973,1.225,0.776,2,1C706.545,86.218,700.926,78.771,706,79z"/>
		<path class="st53" d="M10,40c5.563,0.437,7.406,4.594,8,10l-1.5-0.5L15,50c-2.976-0.357-5.074-1.593-7-3l0.5-1.5L7,45
			c0.26-4.247-3.888-4.638,1-6l0.5,1.5L10,40z"/>
		<path class="st53" d="M17.5,52.5L18,51c0.743-8.905-0.233-20.292,11-21c4.182,0.551-3.475,4.685-1,10l-0.5,1l0.5,1
			c-1.342,0.658-1.862,2.138-2,4l-1.5-0.5L25,47c1.32,2.503-3.954,3.13-1,4c0.658-1.342,2.138-1.862,4-2l1.5,0.5L29,48
			c4.811,0.954,3.862-7.408,7-5c5.197,11.981-8.533,16.598-19,13l0.5-1.5L16,54c0-0.667,0-1.333,0-2L17.5,52.5z"/>
		<path class="st53" d="M21.357,59.786L21,58c8.05,0.642,13.095,7.261,10,16c-0.277,2.805-4.359-2.226-6-4
			c-2.452-2.65-6.302-4.653-5-9L21.357,59.786z"/>
		<path class="st53" d="M9.5,29.167L10,31c-3.817,0.817-3.872-2.128-5-4c-0.705-3.737,5.202-0.071,6,1L9.5,29.167z"/>
		<path class="st53" d="M14.167,25.5L13,27C6.116,24.684,3.756,12.453,8,5c4.091-0.424,0.541,6.793,4,7c1.647,1.686,2.173,4.494,4,6
			c0,2.667,0,5.333,0,8L14.167,25.5z"/>
		<path class="st53" d="M32.5,5.5L32,4c2.09-0.423,2.648,0.686,4,1l-0.5,1L36,7c-1.987,0.013-1.271,2.729-4,2
			c-0.529-0.804-1.043-1.624-1-3L32.5,5.5z"/>
		<path class="st53" d="M38.5,16.5L39,15c0.333,0,0.667,0,1,0l2.375,1L44,14l-0.5,1.5L45,15c0.739,4.406-3.237,4.097-4,7h-2h-2
			c-2.009-2.039,0.442-1.961,1-4L38.5,16.5z"/>
		<path class="st53" d="M711,49c-0.554-7.726,6.473-11.489,13-9c-0.558,2.442-3.869,2.131-3,6l-1.5-0.5L720,47
			c-1.617,2.05-4.813,2.521-7,4l-0.5-1.5L711,49z"/>
		<path class="st53" d="M707.5,60.5L709,61c-1.089,6.244-4.401,10.266-10,12l-0.5-1.5L697,71c-1.886-8.901,5.732-13.579,11-12
			L707.5,60.5z"/>
		<path class="st53" d="M711,54v2c-11.831,5.122-25.382-4.904-17-14c2.077,0.257,0.273,4.394,2,5c0.333,0,0.667,0,1,0l-0.5,1.5
			L698,48c3.751-0.693,6.652,4.604,8,3c-1.23-0.437-2.054-1.28-2-3l0.5-1.5L703,47c-0.776-0.89-1.075-2.258-1-4l0.5-1.5L701,42
			c-1.178-3.489-0.164-9.169-3-11c11.627-4.283,11.821,11.504,13,21V54z"/>
		<path class="st53" d="M698.833,44.833L701,45c0,0.333,0,0.667,0,1l-1.5-0.5L699,47L698.833,44.833z"/>
		<path class="st53" d="M707,14c0-2.333,0-4.667,0-7l1.5,0.5L710,7c4.775,4.047,0.906,9.886,1,17l-1.833-0.5L708,25
			c-1.579-2.087-2.073-5.26-2-9l3,0.25L707,14z"/>
		<path class="st53" d="M711.5,26.833L711,25c0.9-8.433,6.945-11.722,8-20c8.687,6.961,1.035,19.086-4,24l-1.833-0.5L712,30
			c-0.891-0.443-1.788-0.878-2-2L711.5,26.833z"/>
		<path class="st53" d="M715.75,31l0.25-2v2v2c-1.162,0.163-1.779-0.221-2-1L715.75,31z"/>
		<path class="st53" d="M719,29h-2c-0.093-3.093,3.02-2.98,6-3c0.261,3.26-1.188,4.813-4,5V29z"/>
		<path class="st53" d="M57,40c4.665,1.669,6.741,5.926,10,9c-2.1-0.57-4.218,1.843-8,1c-3.38-0.753-9.913-8.656-10-7
			c0.113-2.161,2.93-3.405,5-3l1.5,0.5L57,40z"/>
		<g>
			<path class="st80" d="M70.5,18.5c-1.198,1.714-1.449,2.531-1,4"/>
			<path class="st79" d="M74.5,24.5c1-0.753,2.002-1.107,3.003-1.471c2.496,1.896,5.483,2.714,7.997,4.471"/>
			<path class="st62" d="M77,33.5c-0.313-0.667-0.575-1.333-0.833-2"/>
			<path class="st11" d="M69.5,17.5c-1.063-0.09-1.938-0.482-2.703-0.931c-0.184-0.759-0.159-1.334-0.124-1.902
				c6.222-8.714,17.675-7.819,29.887-7.247c56.713,2.656,117.76-0.081,178.939-0.081c59.487,0,119.477,0,180,0
				c67.302,0,134.338-2.78,196.003,0.267c1.007,0.05,4.81,1.88,7.145,4.962c0.284,0.311,0.568,0.622,0.853,0.933"/>
			<path class="st87" d="M658.5,17.5c0.667-0.06,1.333-0.276,2-0.5"/>
			<path class="st62" d="M651,33.5c0.313-0.667,0.574-1.333,0.833-2"/>
			<path class="st72" d="M659.167,21.167c-0.409-0.766-0.966-1.746-1.667-2.667"/>
			<path class="st25" d="M643,18.5c0.535-0.453,1.624-0.927,2.5-1.333"/>
			<path class="st3" d="M642.5,27.5c2.783-1.271,5.546-2.633,8-4.5"/>
			<path class="st82" d="M66.5,25.5c0.379,0.471,0.153,1.229,0,2"/>
			<path class="st64" d="M661.5,28.5c0.273-0.667,0.391-1.333,0.5-2"/>
			<path class="st20" d="M659,41.5c-0.331-1-0.534-2-0.833-3"/>
			<path class="st46" d="M664.5,48c0.667,0,1.333,0,2,0"/>
			<path class="st73" d="M666.833,35.167c1.857,2.125,6.134,1.584,6.167,5.333"/>
			<path class="st20" d="M51,54.5c0.233-0.667,0.207-1.333,0.167-2"/>
			<path class="st31" d="M49.5,50.5c-0.667,0-1.333,0-2,0"/>
			<path class="st31" d="M47.5,50.5c-0.667,0-1.333,0-2,0"/>
			<path class="st84" d="M689.5,56c-4.486-1.144-3.852-7.242-8-8.833"/>
			<path class="st49" d="M30.5,42c0.028-0.963,0.208-2.15,0.5-3.5"/>
			<path class="st72" d="M27.833,46.833c0.409,0.766,0.965,1.746,1.667,2.667"/>
			<path class="st12" d="M13.5,64.5c2.98-1.32,3.537-5.964,7.857-4.714"/>
			<path class="st0" d="M14,72c3.067-1.993,7.173-2.674,10.238-0.238c4.365,5.516,1.747,15.552-6.072,15.405"/>
			<path class="st45" d="M16,90c1.906,2.874,5.123,7.201,1,10"/>
			<path class="st41" d="M17,100c6.045,4.33,10.048-4.982,7-9.5"/>
			<path class="st1" d="M17,100c-3.153-0.672-4.904-3.836-7.826-4.923c-0.71-0.043-1.307,0.39-1.854,0.82
				C5.967,384.875,5.926,674.554,7.341,963.559c237.673,0.899,475.727,0.408,713.46,0.245c1.815-288.727-0.142-578.293,0.98-867.133
				c-0.711-0.957-1.374-1.256-1.909-1.538c-3.572,0.3-5.33,4.24-8.873,4.867"/>
			<path class="st14" d="M711,100c-1.476,1.248-4.359,1.663-5.718,0.057c-1.955-3.249-1.787-7.7-0.154-11.036
				c0.852-0.404,2.038-1.29,2.872-2.021"/>
			<path class="st2" d="M708,87c-0.844-0.702-1.584-0.746-2.388-0.97c-11.853-8.309,6.775-24.783,11.888-9.53"/>
			<path class="st32" d="M711,100c-0.681-1.093-1.599-2.483-1.919-3.453c0.131-0.957,0.658-2.198,1.419-3.047"/>
			<path class="st59" d="M10.5,76.5c1.64-1.161,1.938-3.27,3.5-4.5"/>
			<path class="st55" d="M14,72c-0.832-2.333-1.552-5.069-0.5-7.5"/>
			<path class="st29" d="M13.5,64.5c-0.861-1.373-0.905-2.624-1.25-3.75"/>
			<path class="st28" d="M12.25,60.75C9.96,59.979,9.88,57.492,10,55.5"/>
			<path class="st47" d="M12.25,60.75c1.25-2.55,2.522-5.016,5.25-6.25"/>
			<path class="st7" d="M17.5,52.5c-0.321-1-0.61-2-1-3"/>
			<path class="st13" d="M7,72c-1.535-8.214-3.565-18.55,1.5-26.5"/>
			<path class="st9" d="M8.5,40.5c1.583-1.579,3.647-2.277,4.5-4.5"/>
			<path class="st33" d="M13,36c-1.119-1.433-0.994-2.881-0.5-4.5"/>
			<path class="st76" d="M12.5,31.5c-1.114-0.925-1.994-1.701-3-2.333"/>
			<path class="st86" d="M12.5,31.5c1.153-0.886,1.69-2.006,2.333-3"/>
			<path class="st56" d="M14.833,28.5c-0.214-1-0.407-2-0.667-3"/>
			<path class="st57" d="M14.833,28.5c0.254-0.046,0.508-0.092,0.762-0.139c0.544-0.152,1.032-0.387,1.517-0.626
				C22.844,21.247,15.428,12.199,21,6"/>
			<path class="st71" d="M13,36c4.464-4.518,10.217-7.466,15.75-10.75"/>
			<path class="st83" d="M28.75,25.25c-0.03-1.416,0.54-3.143,1-4.5"/>
			<path class="st15" d="M29.75,20.75C20.68,18.723,22.893,2.314,32.5,5.5"/>
			<path class="st69" d="M42.375,16C41.187,12.411,43.254,8.856,45,6"/>
			<path class="st0" d="M30.5,25.5c2.187,1.707,5.537,0.564,7.5,2.75"/>
			<path class="st21" d="M38,28.25c14.731-6.638,17.069,18.982,1.807,14.943C33.749,40.307,35.204,32.844,38,28.25"/>
			<path class="st66" d="M49.75,22c0.547,2.585,0.775,5.46,2.983,7.267c9.104,5.276,14.32-7.429,9.1-14.1"/>
			<path class="st60" d="M50.5,16.5c3.059-2.953,7.612-3.228,11.333-1.333"/>
			<path class="st34" d="M61.833,15.167c7.767-11.915-15.447-14.546-14-1.333"/>
			<path class="st82" d="M29.75,20.75c3.446-0.453,6.326-1.712,8.75-4.25"/>
			<path class="st77" d="M38.5,16.5c-0.133-3.326,0.642-6.881-1.29-9.718C36.559,6.41,36.054,6.173,35.5,6"/>
			<path class="st74" d="M39,22c3.34,2.79,7.124-0.306,10.75,0"/>
			<path class="st88" d="M49.75,22c0.565-1.786-0.178-3.782,0.75-5.5"/>
			<path class="st16" d="M50.5,16.5c-0.96-0.96-1.816-1.816-2.667-2.667"/>
			<path class="st54" d="M47.833,13.833c-1.54,0.173-3.188,0.523-4.333,1.667"/>
			<path class="st79" d="M28.75,25.25c0.53,0.137,1.138,0.195,1.75,0.25"/>
			<path class="st19" d="M30.5,25.5c2.287-2.337,5.867-1.873,8.5-3.5"/>
			<path class="st80" d="M24.5,45.5c1.77,1.17,2.619,1.405,3.333,1.333"/>
			<path class="st5" d="M27.833,46.833C28.871,45.34,30.661,44.041,30.5,42"/>
			<path class="st46" d="M30.5,42c-0.782-0.363-1.804-0.693-3-1"/>
			<path class="st61" d="M10.5,76.5c0.909,4.659,3.155,8.704,7.667,10.667"/>
			<path class="st85" d="M16,90c1.45-1.431,1.77-2.176,2.167-2.833"/>
			<path class="st51" d="M10.5,76.5c-1.042,0.317-1.762,0.407-2.439,0.648c-3.136,2.79-3.377,7.671-1.281,11.072
				c0.344,0.322,0.651,0.682,0.956,1.044c2.753,0.983,5.4,1.32,8.264,0.736"/>
			<path class="st19" d="M708,87c0.635,0,1.732,0,2.75,0"/>
			<path class="st50" d="M710.75,87c4.197-1.684,6.54-5.927,6.75-10.5"/>
			<path class="st0" d="M710.75,87c0.2,0.618,0.542,1.466,1.02,2.249c3.459,1.851,8.104,1.412,10.5-1.98
				c1.694-4.127,0.516-10.323-4.77-10.769"/>
			<path class="st22" d="M719.5,45.5c6.132,6.991,3.393,18.578,1.5,27"/>
			<path class="st39" d="M716.5,60.5c0.328-0.19,0.656-0.38,0.984-0.57c0.818-1.67,1.126-3.558,1.016-5.43"/>
			<path class="st37" d="M715.5,65.5c-0.06,0.667-0.276,1.333-0.5,2"/>
			<path class="st59" d="M715.5,65.5c-3.491-0.696-3.38-7.438-8-5"/>
			<path class="st6" d="M698.5,73.5c-0.379-0.471-0.153-1.229,0-2"/>
			<path class="st38" d="M715.5,65.5c0.426-1.667,0.76-3.333,1-5"/>
			<path class="st6" d="M716.5,60.5c-2.2-1.69-2.365-5.38-5.5-6.5"/>
			<path class="st17" d="M696.5,48.5c0.863-1.386,1.675-2.61,2.333-3.667"/>
			<path class="st70" d="M698.833,44.833c-0.075-0.242-0.203-0.537-0.333-0.833"/>
			<path class="st89" d="M698.5,44c-0.686-1.422-0.253-3.085-1-4.5"/>
			<path class="st17" d="M698.5,44c1.333-0.868,2.667-1.479,4-2.5"/>
			<path class="st52" d="M711,54c0.881-1.124,0.864-2.887,1.5-4.5"/>
			<path class="st48" d="M699.5,45.5c1.094,1.605,3.439,2.799,5,1"/>
			<path class="st7" d="M708.5,7.5c-0.558-0.994-0.997-1.147-1.5-1.5"/>
			<path class="st83" d="M716,31c1.036-0.679,2.17-1.39,3-2"/>
			<path class="st43" d="M697.5,25.5c-2.063,1.588-5.34,0.554-7,3"/>
			<path class="st26" d="M690.5,28.5c3.066,4.471,3.836,12.312-2.145,14.855c-1.495,0.144-3.295,0.21-4.701,0
				c-0.86-1.786-2.557-2.459-4.487-2.521"/>
			<path class="st10" d="M679.167,40.833c-0.442,1.191-0.745,2.209-1.667,2.667"/>
			<path class="st75" d="M666.167,15.167c-0.761-1.455-0.93-3.173-1.551-4.721c1.995-9.042,16.508-6.741,15.634,2.555"/>
			<path class="st36" d="M680.25,13c1.473,0.324,2.872,0.898,4.25,1.5"/>
			<path class="st27" d="M684.5,14.5c0.606-0.222,1.057-0.444,1.5-0.667"/>
			<path class="st65" d="M686,13.833c0.41-2.77-1.194-5.199-2.167-7.667"/>
			<path class="st68" d="M686,13.833c1.043,0.674,2.038,1.172,2.667,1.5"/>
			<path class="st8" d="M688.667,15.333c2.196-2.375,0.612-6.212,3.095-8.58C697.359,2.286,705.984,6.685,705,14"/>
			<path class="st17" d="M705,14c1.207,0.568,3.009,1.731,4,2.25"/>
			<path class="st79" d="M688.5,22.5c0.333,0,0.667,0,1,0"/>
			<path class="st42" d="M689.5,22.5c1.412-1.413,2.582-2.582,3.5-3.5"/>
			<path class="st59" d="M684.5,14.5c-0.943,3.565,3.089,5.018,4,8"/>
			<path class="st81" d="M689.5,22.5c2.732,0.699,5.969,0.713,8,3"/>
			<path class="st44" d="M697.5,25.5c0.667-0.04,1.333-0.184,2-0.333"/>
			<path class="st30" d="M699.5,25.167c-0.209-1.934-0.524-3.242-1-4.667"/>
			<path class="st58" d="M666.167,15.167c3.813-1.909,8.509-1.623,11.833,1.083"/>
			<path class="st24" d="M688.667,15.333c0.308,2.401,3.042,2.161,4.333,3.667"/>
			<path class="st74" d="M693,19c1.672,0.972,3.62,1.203,5.5,1.5"/>
			<path class="st78" d="M678.5,21.5c3.312,0.438,6.61,2.669,10,1"/>
			<path class="st54" d="M680.25,13c-0.549,1.239-0.637,2.957-2.25,3.25"/>
			<path class="st67" d="M666.167,15.167c-0.919,3.134-1.385,6.157-1.625,9.375c1.195,5.75,9.358,8.235,12.728,2.727
				c0.68-1.886,0.552-3.89,1.23-5.769"/>
			<path class="st46" d="M678.5,21.5c-0.543-1.646-0.447-3.3-0.5-5.25"/>
			<path class="st18" d="M715.75,31c-0.763-0.199-1.906-1.362-2.583-2.5"/>
			<path class="st4" d="M711.5,26.833c-1.227-1.053-1.55-1.88-2.333-3.333"/>
			<path class="st40" d="M705,14c-1.057,3.083-3.536,5.278-6.5,6.5"/>
			<path class="st35" d="M699.5,25.167c6.129,2.741,10.917,7.006,16.173,10.779c1.831-0.779,1.537-3.68,0.327-4.945"/>
			<path class="st63" d="M690.5,28.5c-7.876-4.448-16.955,4.98-11.333,12.333"/>
			<path class="st23" d="M55.5,40.5c-0.41-3.385,3.722-3.882,6-5"/>
		</g>
	</g>
</g>
</svg>
