<?xml version="1.0" encoding="utf-8"?>
<!-- Generator: Adobe Illustrator 14.0.0, SVG Export Plug-In . SVG Version: 6.00 Build 43363)  -->
<!DOCTYPE svg PUBLIC "-//W3C//DTD SVG 1.1//EN" "http://www.w3.org/Graphics/SVG/1.1/DTD/svg11.dtd">
<svg version="1.1" id="Layer_1" xmlns="http://www.w3.org/2000/svg" xmlns:xlink="http://www.w3.org/1999/xlink" x="0px" y="0px"
	 width="545.066px" height="725.066px" viewBox="0 0 545.066 725.066" style="enable-background:new 0 0 545.066 725.066;"
	 xml:space="preserve">
<style type="text/css">
<![CDATA[
	.st0{fill:#000000;fill-rule:evenodd;clip-rule:evenodd;}
]]>
</style>
<g>
	<g>
		<g>
			<path class="st0" d="M543.549,681.791v12.727c-0.176-0.049-0.14-2.224-0.18-3.634c-0.035-2.066-0.182-1.011-0.181,0
				C542.874,690.455,543.113,680.625,543.549,681.791z"/>
			<path class="st0" d="M5.478,371.388c-0.527-1.538,0.108-5.851,0-9.087c0.3,2.423,1.146-0.661,1.08,5.454
				C6.023,365.362,5.67,366.146,5.478,371.388z"/>
			<path class="st0" d="M260.51,6.378c-7.601,0.152-7.196-0.487-10.907-0.721C250.752,5.036,263.057,5.536,260.51,6.378z"/>
			<path class="st0" d="M61.919,718.869c-5.207,0.036-9.921,0.022-9.09-0.54C57.629,718.333,64.219,718.161,61.919,718.869z"/>
			<path class="st0" d="M6.197,389.564c0.518,0.232,0.855,2.276,0.721,9.09C6.44,398.028,6.31,393.884,6.197,389.564z"/>
			<path class="st0" d="M196.891,8.177c4.749-0.049,9.097-0.06,7.271,0.54C200.685,8.642,196.338,8.652,196.891,8.177z"/>
			<path class="st0" d="M533.648,363.698c0.001-11.503,1.104-11.868,1.801-16.355C535.872,355.563,534.689,370.262,533.648,363.698z
				"/>
			<path class="st0" d="M534.369,87.414c0.18-1.435-0.067-6.355,0.359-9.087c0.586,2.11-0.49,9.645,0.54,7.273
				c0.074,4.378-0.329,3.95-0.18,9.087c-0.222-2.031-0.37-1.583-0.36,1.814c-0.145-1.257-0.493-2.825-0.54,0
				c-0.211-0.291-0.151-3.313-0.18-5.453c-0.32,1.617-0.458,5.079-1.08,3.639C533.072,89.993,533.954,83.348,534.369,87.414z"/>
			<path class="st0" d="M10.157,613.14c0.308,5.412,0.661,23.437,0.181,32.719C9.934,637.752,10.104,620.523,10.157,613.14z"/>
			<path class="st0" d="M364.117,11.418c-1.284,0.399-8.53,0.598-10.907,0.36c-2.825-0.64,6.174-0.109,5.454-0.54
				c-7.801-0.705-10.48,0.978-18.178,0.36c-0.308-0.511,6.148-0.352,3.637-1.08c8.639-0.059,11.509,0.049,21.812,0v0.54
				C359.135,10.764,360.346,11.079,364.117,11.418z"/>
			<path class="st0" d="M10.697,171.446c-0.196-6.383,1.104-4.869,0.721,1.817C11.095,173.494,11.038,171.036,10.697,171.446z"/>
			<path class="st0" d="M534.369,321.896c-0.035,1.47-0.182,1.81-0.181,3.634h-0.36c0.261-6.874-0.494-3.486-0.359-9.087
				C533.843,317.505,534.051,320.259,534.369,321.896z"/>
			<path class="st0" d="M11.958,24.213c0.877,8.178-0.337,20.781-0.72,23.63C11.083,34.772,10.632,30.286,11.958,24.213z"/>
			<path class="st0" d="M276.867,10.878c2.618,0.041,0.637,0.537,3.637,0.54c-1.184,0.183-4.179,0.186-3.637,0.54
				C269.228,11.721,276.877,11.367,276.867,10.878z"/>
			<path class="st0" d="M533.469,111.042c-0.471,0.51-0.774-0.661-0.721-5.449c0.21,0.296,0.32-0.404,0.36-1.819
				C533.35,104.967,533.444,107.659,533.469,111.042z"/>
			<path class="st0" d="M280.504,11.958c4.872,0.553-3.69,1.307-10.907,1.259C273.456,12.82,277.837,12.474,280.504,11.958z"/>
			<path class="st0" d="M532.748,558.192c-0.48-5.794-0.484-9.369-0.72-14.541c0.146,0.962,0.292,1.894,0.54,1.814
				C532.424,551.772,532.837,552.453,532.748,558.192z"/>
			<path class="st0" d="M12.858,16.943l0.118-0.73L13,16.045l0.001-0.01c-2.709,2.708,3.692-3.693,3.034-3.033l0.002,0l0.005,0
				l0.021,0.003l0.041,0.006l0.081,0.011l0.311,0.039c0.401,0.047,0.755,0.076,1.084,0.09c0.66,0.028,1.223-0.001,1.879-0.05
				c1.313-0.099,2.999-0.278,6.572-0.243c0.229,0.323-2.229,0.379-1.817,0.72c-2.951,0.052-5.065,0.021-6.975-0.029l-0.708-0.02
				l-0.349-0.011l-0.087-0.002l-0.043-0.001h-0.011l-0.005,0c2.251-2.251-3.07,3.067-2.522,2.521v0.002l0,0.022l-0.005,0.173
				l-0.043,1.386c-0.027,0.932-0.052,1.892-0.067,2.959C13.161,19.938,13.115,17.377,12.858,16.943z"/>
			<path class="st0" d="M287.309,710.409c5.885,0.096,7.712,1.465,0,1.439c2.773-0.814-6.975-0.39-9.088-0.72
				c0.962-0.145,1.896-0.292,1.817-0.54C288.662,710.666,285.067,710.786,287.309,710.409z"/>
			<path class="st0" d="M531.309,236.465c0.507,1.834-0.05,7.717,0,10.902C530.662,246.085,531.056,238.837,531.309,236.465z"/>
			<path class="st0" d="M193.257,14.118c-0.496,0.371-8.049,0.043-7.273,0.54C179.524,14.276,189.884,13.579,193.257,14.118z"/>
			<path class="st0" d="M193.257,15.378v0.54c-3.222-0.041-9.104,0.181-7.273-0.36C189.246,15.58,189.82,15.337,193.257,15.378z"/>
			<path class="st0" d="M352.744,709.509c-5.138,0.148-4.709-0.254-9.087-0.18c0.572-0.424,8.616-0.107,7.271-0.721
				C357.029,708.773,351.827,708.943,352.744,709.509z"/>
			<path class="st0" d="M528.969,401.872c-0.209-0.296-0.32,0.399-0.36,1.82c-0.093-4.709-0.325-4.251-0.36-12.727
				C528.693,392.533,528.909,396.414,528.969,401.872z"/>
			<path class="st0" d="M18.258,100.556c-0.034,5.742-1.33,4.216-1.62,1.817c0.13-4.137,1.026-0.542,0.9-7.271h0.36
				c-0.033,1.546,0.069,1.714,0.18,1.817C17.832,101.626,17.496,102.632,18.258,100.556z"/>
			<path class="st0" d="M216.885,16.818c0.335,0.153-0.708,0.169-1.817,0.18c0.641,0.206,3.2,0.456,3.637,0.179
				c3.939-0.03,0.823,0.639,1.817,0.9c-4.12-0.378-8.932-0.794-16.36-0.36v-0.719C209.896,17.086,210.581,16.673,216.885,16.818z"/>
			<path class="st0" d="M18.258,236.882c0.386,7.004-0.757,14.119-0.9,21.811C16.6,250.409,17.733,240.402,18.258,236.882z"/>
			<path class="st0" d="M527.529,414.594c0.376,1.612-0.059,10.152-0.541,9.093C526.903,417.977,527.473,418.884,527.529,414.594z"
				/>
			<path class="st0" d="M526.988,381.878c-0.337,3.462-0.02,4.566,0,9.088c-0.66-5.429-0.16-7.707-0.9-1.819v-10.902
				C526.664,376.687,526.646,381.104,526.988,381.878z"/>
			<path class="st0" d="M421.817,706.448c-3.674-1.023-10.412,0.365-10.907-0.72c-5.697-0.084-5.123,0.452-7.271,0.72
				c-8.883-0.556-17.169-0.902-29.081-0.359c-3.609-0.123-4.159-0.549-7.271-0.72c-1.85,0.116-1.882,0.413-5.454,0.359
				c-0.513-0.29,1.719-0.31,1.817-0.54c-6.97,0.154-11.444,0.076-14.541-0.54c13.22,0.55,11.064-0.791,21.812-0.899v0.72h-5.453
				c-0.511,0.29,1.718,0.31,1.819,0.54c5.631-0.402,17.354-0.201,18.175-1.08c5.854,0.963,22.025,0.424,25.447,1.26
				c5.769-0.208-0.392-0.717,9.09-0.72c-0.644,0.237-3.2,0.283-3.637,0.54c8.139,0.266,5.587-0.527,12.724-0.36
				c1.559,0.835-2.859,0.188-3.634,0.54c5.661,0.398,8.965-0.016,14.541,0v0.54C434.418,705.554,424.233,705.788,421.817,706.448z"
				/>
			<path class="st0" d="M458.172,705.909c-1.361-0.555,6.264-0.221,3.634-0.9c13.401,0.283,10.024,0.363,21.811,0.72
				C481.351,706.913,465.908,705.854,458.172,705.909z"/>
			<path class="st0" d="M19.338,55.114c0.587-3.765,0.841-10.897,1.8-10.907c0.041,7.596-0.292,8.584,0,14.541
				c-0.724,0.262-0.476-4.662-0.36-9.087C20.318,51.554,19.955,60.437,19.338,55.114z"/>
			<path class="st0" d="M525.729,460.035c-0.672,0.124-0.875-4.491-1.26-7.268c0.27-6.04,0.751,7.185,0.9-1.819
				C525.636,452.496,525.756,455.521,525.729,460.035z"/>
			<path class="st0" d="M173.263,19.697c8.395,0.179-2.776,1.285-7.273,0.721C168.204,20.157,173.25,20.177,173.263,19.697z"/>
			<path class="st0" d="M524.648,340.07c-0.008,5.986-0.304,9.048-0.18,16.36c-0.471-2.522-0.51-9.393-0.721-14.541
				C524.173,339.222,524.084,338.054,524.648,340.07z"/>
			<path class="st0" d="M358.198,704.288c-5.249-0.113-9.386-0.682-12.724,0c-5.836,0.158-3.768-0.467-7.271-0.539
				C341.063,703.241,357.804,703.472,358.198,704.288z"/>
			<path class="st0" d="M463.622,703.749c0.644-0.236,3.2-0.283,3.637-0.541c-5.32-0.047-5.584,0.408-10.907,0.361
				c0.158-0.256,0.301-0.51-1.816-0.541c5.818,0.004,13.72,0.031,23.631-0.359c3.36,0.027,1.116,0.609,3.634,0.721
				c11.013-0.215,23.652-0.579,32.718,0.539C494.232,704.517,481.936,703.624,463.622,703.749z"/>
			<path class="st0" d="M22.038,49.661c-0.367-0.535-0.353-4.918-0.72-5.454c0.121-4.228,0.944-1.368,0.72-9.087
				C22.899,38.421,21.78,41.73,22.038,49.661z"/>
			<path class="st0" d="M390.916,703.39c-4.014-0.023-0.771-0.765-1.817-1.081C394.084,702.313,393.416,703.157,390.916,703.39z"/>
			<path class="st0" d="M523.389,412.779v5.453c-0.484,0.952-0.894,0.809-0.539,9.088c-0.377-1.048-0.515-4.507-1.081-3.634
				c0.427-3.541-0.603-5.587,0-10.907C522.087,423.381,522.195,408.638,523.389,412.779z"/>
			<path class="st0" d="M522.668,538.198c-0.086,8.207-1.152,6.538-1.979,7.268v-7.268c0.58,0.809,0.976,3.48,1.62,3.634
				C522.242,538.74,522.449,538.402,522.668,538.198z"/>
			<path class="st0" d="M522.488,490.937c-0.301,5.789-0.383-5.606-1.079-1.814c0.788-3.104,0.358-9.19,0.179-16.36
				C522.297,476.233,522.352,486.444,522.488,490.937z"/>
			<path class="st0" d="M22.758,682.21c-0.289-7.152,0.777-0.629,0.72-5.453C23.993,679.345,23.06,687.325,22.758,682.21z"/>
			<path class="st0" d="M23.298,87.833c0.022-4.016,0.764-0.772,1.08-1.82c-0.095,1.462-0.188,2.951-0.181,5.454
				C23.643,92.827,23.978,85.199,23.298,87.833z"/>
			<path class="st0" d="M76.926,23.838c-2.224,0.256-6.94,0.408-9.09,0.18c-2.246-0.582,5.882-0.137,3.636-0.72
				C75.663,23.243,73.491,23.818,76.926,23.838z"/>
			<path class="st0" d="M141.896,701.589c1.563-0.146,1.08-0.493,3.634-0.54c-0.345-0.146-1.822-0.18-1.817-0.36
				c-3.461,0.077-4.565,0.388-9.087,0.36c0.727-0.853,17.701-0.689,16.357,0C146.129,701.048,147.034,701.618,141.896,701.589z"/>
			<path class="st0" d="M23.478,444.097c0.034-1.472,0.18-1.813,0.179-3.637h0.36v7.271c0.307,0.668,0.34-1.418,0.36-3.634
				c0.16,0.535,0.788,4.918,0.36,5.451c0.005,1.768,0.22,1.412,0.36,1.819C24.381,458.072,23.989,450.491,23.478,444.097z"/>
			<path class="st0" d="M24.018,122.367c0.164-3.185,0.334-6.313,0.9-5.453C24.931,122.362,24.388,126.137,24.018,122.367z"/>
			<path class="st0" d="M24.918,135.091c-0.112-4.916,1.458-7.601,0.54-9.087c0.586-5.19,0.778,3.508,0.54,9.087H24.918z"/>
			<path class="st0" d="M25.458,476.814c0.268,2.736,1.026,0.542,0.9,7.271C25.683,485.446,25.48,482.036,25.458,476.814z"/>
			<path class="st0" d="M25.638,449.548c0.307-1.743,0.395-5.708,0.54-9.088c0.507,0.34,0.768,3.163,0.721,9.088
				c-0.361-0.617-0.563,0.372-0.54,3.636C25.867,454.508,25.996,449.572,25.638,449.548z"/>
			<path class="st0" d="M244.149,25.818h5.454c1.681,0.313-0.062,0.966,5.453,0.899c-1.545,0.268-4.573,0.388-9.087,0.36
				C246.063,26.542,240.622,26.164,244.149,25.818z"/>
			<path class="st0" d="M25.998,287.777c0.584,6.075,0.422-3.449,0.72-5.454h0.36c0.066,3.092-0.14,3.43-0.36,3.634
				c-0.029,2.113,0.04,3.234,0.181,3.636C26.738,293.548,25.892,295.146,25.998,287.777z"/>
			<path class="st0" d="M25.998,98.737c0.159-4.051,1.4-8.491,1.26,0C26.6,99.134,26.567,101.234,25.998,98.737z"/>
			<path class="st0" d="M265.963,26.717c1.042,0.316-2.197,1.058,1.817,1.081c1.585,0.37-9.248,0.359-3.634,0.54
				c-3.476,0.828-7.233-1.209,0-0.9c-1.644-0.606-4.068-0.022-7.272-0.36C257.142,26.684,261.454,26.691,265.963,26.717z"/>
			<path class="st0" d="M27.438,405.925c0.32,3.393,0.458-1.477,1.08,0c-0.164,3.193-0.63,3.323-0.9,5.454
				c-0.033,1.545,0.07,1.713,0.18,1.816C27.492,419.562,27.335,409.643,27.438,405.925z"/>
			<path class="st0" d="M27.978,329.582c0.572-0.278,0.792-4.122,1.44-3.636c0.156,3.9-0.056,9.684,0.18,16.36
				C28.702,345.75,27.46,339.947,27.978,329.582z"/>
			<path class="st0" d="M27.798,176.896c-0.028-9.62,0.809-1.095,1.62-3.634c-0.029,2.113,0.04,3.234,0.18,3.634
				C29.239,185.644,28.466,176.1,27.798,176.896z"/>
			<path class="st0" d="M28.878,224.158c0.407-1.948,0.792-4.125,1.08-7.271c0.236,0.641,0.283,3.2,0.54,3.634
				c-0.078,8.303-0.656,11.553-0.9,18.177C28.983,237.634,28.746,232.754,28.878,224.158z"/>
			<path class="st0" d="M227.792,7.278c-1.501,0.509,2.562,0.466,1.817,0.899c-2.421-0.18-5.485-0.296-7.271-0.54
				C223.083,7.412,224.683,7.27,227.792,7.278v-0.72c-4.998-0.166-8.821-0.447-12.724-0.72c4.549,0.03,5.69-0.276,7.271-0.54
				c-4.216,0.058-6.979-0.03-9.087-0.18c-2.709,0.577-12.817,1.364-19.994,0.9c5.88,0.223,1.386-0.582,7.271-0.36
				c-0.251-0.335-1.196-0.602-3.637-0.72c-1.546,0.528-4.576-0.234-9.087,0c0.427,1.02-0.091,1.735-3.636,3.061
				c4.78-0.054,1.432,0.698,7.271,0.54c2.633-0.681-4.995-0.346-3.634-0.9c6.516-0.348,6.659,0.069,12.724,0.18
				c5.53-0.317-4.963-0.557,0-0.72c4.75,0.488,5.572,0.246,10.904,0c2.899,0.936,4.043,1.353,9.09,1.44
				c-2.825,0.834-11.252-0.005-14.541,0.72c10.288,0.318,14.775-0.49,25.445,0C227.696,8.16,235.762,7.648,227.792,7.278z
				 M204.161,6.197c1.975,0.045,1.233,0.358,3.636,0.36c-0.441,0.316-3.128,0.41-7.27,0.36
				C199.203,6.427,204.139,6.556,204.161,6.197z"/>
			<path class="st0" d="M6.197,371.388c0.14,0.412,0.355,0.052,0.36,1.819c-0.204,5.525-1.33,0.698-1.44,10.904
				c0.564,1.958,0.994,5.099,1.26,1.819c-0.438-1.142-0.096-9.186,0.36-7.271c-0.032,6.23,0.607-0.16,0.72,7.271
				c0.086,5.718-0.257,7.105-0.36,10.904c0.564,4.174,0.508-3.32,0.72,0c-0.196,4.115-0.736,10.22-1.26,5.454
				c1.049,7.428-0.058,31.817,1.26,34.537c0.074,4.379-0.329,3.949-0.18,9.087c0.446,2.359,0.874-4.055,0.9,0
				c-0.539,5.567-0.268,12.916-0.9,19.994c0.317,3.423,0.557-2.484,0.72,3.637c-0.703-1.274-0.009,6.371,0,9.088
				c0.459-0.957,0.63-2.411,0.9,1.816c-0.257,5.283-1.154,4.103-1.26,10.907c0.646,0.461,0.659-5.458,1.26-5.453
				c-0.527,5.403-0.47,6.947-0.72,16.359c0.239,1.825,0.669,1.719,0.72,5.451c-0.834,2.434,0.415,4.238-0.18,9.09
				c0.47-0.508,0.9-0.613,0.72,5.454c0.34,0.406,0.397-2.049,0.72-1.82c0.066-8.993-0.706-11.87,0-18.175
				c0.312,9.83,0.075,19.025,0.72,19.995c-0.371,2.317-0.913,2.898-0.9,9.087c0.578,1.593,0.373-4.714,0.72-5.453
				c-0.082,17.992-1.242,27.824-0.18,41.808c-0.367-8.355,0.398-6.334,0-12.724c0.526-3.598,0.584-0.642,0.9-5.454
				c-0.44-2.603-0.658-2.827-0.9-3.636c0.85-2.138,0.053-10.123,0.72-12.724c0.086,10.028,0.511,16.648,0.9,23.63
				c-0.638-2.051-1.095,6.933-0.72,9.088c-0.129-2.946,0.849-2.946,0.72,0c-0.183,5.764,0.102,10.702-0.72,12.724
				c0.987,2.264,0.229,8.377,0,12.724c0.833-2.485,0.845,12.665,0.36,3.637c-0.087,6.328,0.451,6.349,0.72,9.087
				c-0.401,1.859,0.235,8.358,0,14.544c0.269,0.308,0.664-0.651,0.72,1.816c-0.236,6.282-0.799,12.065-0.54,18.178
				c0.491,1.323,0.362-3.609,0.72-3.637c-0.156,7.034,0.439,6.467,0.54,10.907c-0.563,1.237-0.303,5.534,0,7.27
				c-0.491,0.163-0.362-3.027-0.72,0c-0.026,4.51-0.034,8.821,0.36,9.088c0.047-2.554,0.395-2.071,0.54-3.634
				c-0.361,3.705,0.08,3.563,0.18,7.271c-0.234,3.53-0.952-3.64-1.08,3.634c0.548,2.28,0.7,1.391,1.08-1.817
				c0.057,2.458,0.257,3.472,0.181,7.271c-0.836-2.601-1.023-0.495-1.08,3.637c-1.049,3.32-0.749-6.987-1.62-5.453
				c-0.209,11.2,0.495,13.185,0.9,18.177c-0.139,3.731-0.339,8.959-0.405,13.366c-0.016,1.102-0.024,2.151-0.021,3.115l0.005,0.705
				l0.004,0.339l0.002,0.167l0,0.041c6.813,6.812,1.892,1.888,3.414,3.408h0.005h0.01h0.02l0.082-0.002l1.216-0.034
				c1.504-0.059,2.514-0.177,2.739-0.377c-0.656,0.018-1.397,0.03-2.178,0.037l-1.196,0.006h-0.61h-0.076h-0.01h-0.005
				c2.713,2.714-3.702-3.698-3.041-3.04v-0.019v-0.039l0-0.152l0.001-0.307c0.008-1.633,0.037-3.246,0.084-4.481
				c0.095-2.471,0.266-3.431,0.496-0.01c-0.198,0.056-0.286,0.646-0.307,1.557c-0.01,0.455-0.003,0.991,0.015,1.581l0.035,0.923
				l0.022,0.485l0.013,0.247l0.006,0.125l0.003,0.063l0.001,0.016v0.009l0,0.004c-0.581-0.578,5.051,5.05,2.669,2.667l0.032-0.001
				c2.686-0.144,5.812-0.387,7.68-0.39c-11.568,0.097-4.881-0.718,0-0.899c0.789,0.898,3.212-0.14,7.27,0
				c-0.907,1.021,4.84,0.983,3.634,2.34c4.115,0.439,7.995,0.063,10.907,0.359c-8.878,0.768-6.232,1.297,0,2.16
				c12.046-0.363,20.152-0.611,34.535-0.899c-1.583-0.625,2.798-0.618,5.453-0.36c-0.101-0.85,6.637-1.023,10.907-1.44
				c1.83,0.374,8.04,0.493,7.271-0.179c-6.486,0.058-11.067,0.406-14.541-0.182c1.23-0.418,6.04-0.481,7.27-0.899
				c-5.061,0.288-5.027-0.777-1.817-0.72c4.881,0.755,2.076,1.242,9.087,1.619c0.205-0.219,0.542-0.426,3.637-0.359
				c-1.581,0.696,3.04,0.779,5.451,1.08c4.263-0.911-1.265-1.455-3.634-1.98c4.001,0.163,8.513-0.096,7.271,0.9
				c10.416-0.191,27.578-0.201,14.541,1.08c1.324-0.294-3.612-0.783-3.634-0.36c2.677,0.396,3.91,0.933,10.904,0.9
				c1.319-0.551-3.136-0.529-1.817-1.079c5.224,0.25,9.233-0.492,10.907,0c-1.104,0.31-8.624-0.015-9.09,0.359
				c5.251,0.127,6.693,0.858,10.907,0.18c-2.954,0.054-4.904-0.243-1.817-0.36c8.331,0.793,26.039-0.099,25.448-0.36
				c3.466,0.077,3.289,0.516,9.087,0.36c3.584-0.125-0.449-1.004,3.636-1.079c-2.47,0.564,4.329,1.103,5.451,0.719
				c-2.961-0.021,1.733-0.768,5.453-0.719c0.417,0.318-1.832,0.9,3.637,0.719c5.697-0.23-3.957-0.856,3.634-0.899
				c0.16,1.403,24.999-0.351,23.63,0.899c12.418,0.045,21.205-0.871,30.901-0.539c0.454-0.795,8.513-0.838,12.724-1.26
				c-3.73-0.172-8.651-0.224-9.09-0.721c5.727,0.087,4.117-0.552,10.907-0.359c-0.779,0.342-3.915,0.451-3.636,0.899
				c11.932,0.37,18.436-0.394,32.718-0.359c-1.852-0.896,3.765-0.771,5.453-0.9c-2.828-0.046-1.26-0.396,0-0.54
				c-3.195,0.104-10.678-0.218-10.904,0.18c2.384,0.003,2.314,0.5,0,0.54c-3.977-0.267-9.785-0.351-12.724-0.72
				c0.744-0.227,2.342-0.368,5.453-0.36c-0.099,0.31,1.397,0.462,3.634,0.54c-1.858-0.783-2.063-0.327,5.453-0.359
				c2.567-1.041-19.834-0.548-10.906-1.621c1.543,0.698,23.906,0.606,14.541,1.262c11.48-0.178,12.856,0.646,18.177,1.079
				c-0.271-0.446,0.942-0.747,3.637-0.9c1.442,0.257,8.542,0.05,9.087,0c-3.841-0.056,1.911-0.625,5.454-0.54
				c0.101,0.189,2.329,0.142,1.816-0.18c-6.565,0.107-12.127,0.298-16.357-0.18c1.397-0.678-2.219-0.861-1.817-1.44
				c-10.647-0.274-6.938,0.873-14.543,0.899c8.367-0.443-3.437-0.955,1.819-1.439c3.42,0.418,8.412,0.35,10.904-0.18
				c-2.322-0.01-2.517-0.23-5.453-0.18c-3.407,0.043,1.033,0.296-1.817,0.359c-4.103-0.49-8.914-0.375-12.724-0.54
				c-1.913-0.669,6.132-0.353,7.271-0.72c-3.407-0.043,1.033-0.297-1.817-0.359c0.355,0.096-14.181-0.055-7.271,0.539
				c0.099-0.189,2.33-0.142,1.817,0.18c-7.884-0.309-5.404-1.01-9.087-1.979c-2.503-0.008-3.992,0.085-5.454,0.181
				c0.533-0.214,7.32-0.681,1.817-0.9c-4.436,0.654-11.186-0.033-5.453-0.72c-5.891,0.648-14.724-0.114-21.812,0.359
				c1.417,0.04,2.113,0.151,1.817,0.36c6.289-0.064,9.677-0.211,14.543,0.18c-1.652,0.654-5.365,0.109-10.907,0.18
				c2.258,0.451,7.192,1.477,0,1.801c4.019,0.143,4.549,0.629,7.271,0.899c-4.672,0.018-2.599,0.703-7.271,0.721
				c1.351-0.768-9.908-0.63-10.907-0.181c-2.093-0.867,8.454-0.482,9.09-1.08c-7.031,0.389-7.682-0.731-14.543-1.26
				c7.238-0.225,12.803,0.637,16.36,0.18c-3.518-0.191-4.75-0.609-7.27-0.9c-2.044,1.108-17.601,0.09-19.994,0.181
				c8.68,0.065,7.899-1.515,16.357-0.899c-0.407-0.341,2.049-0.397,1.817-0.721c-2.5,0.008-3.989-0.084-5.451-0.18
				c-2.286,0.613-8.005,0.887-14.543,1.08c-0.283-0.212,0.313-0.512-1.817-0.54c-5.715,0.329,6.117,0.609,0,0.899
				c-2.806-0.232-8.385-1.803-7.271-1.26c-0.079,0.248,0.855,0.396,1.817,0.54c-10.727,0.327-15.535-0.317-23.628-0.72
				c-3.274,0.276-5.453,0.66-7.271,1.08c-1.822,0-2.165,0.146-3.636,0.18v-0.72c-5.84-0.159-2.488,0.593-7.271,0.54
				c-5.414-0.424-5.039-0.299-1.817-0.9c-13.431-0.016-21.999,0.42-27.267-0.54c-6.107,0.781,10.222,0.585,9.09,1.44
				c-5.375,0.248-5.069,1.059-12.724,1.08c6.464-0.57-3.254-2.098-7.271-1.08c2.719,0.03,6.708-0.064,7.271,0.18
				c-2.882,1.309-20.771,0.993-21.814-0.54c-10.589,0.089-10.54-0.876-18.175-1.08c-2.951,0.628-13.158,0.28-18.177,0
				c0.745,0.435-3.321,0.392-1.817,0.9c3.908,0.016,10.345,0.363,7.271,0.899c-5.835-0.201-8.439-0.725-14.543-0.899
				c-0.498,0.528,7.283,0.669,0,0.899c-3.937-1.074-12.351,0.074-23.628-0.18c-0.251,0.336-1.196,0.602-3.636,0.721
				c-2.502-0.008-3.992,0.084-5.454,0.18c-0.717-0.311,2.7-0.461,0-0.541c-0.505,0.418-4.854,0.414-7.271,0.181
				c-1.558,0.574,2.862,0.557,3.637,0.899c-5.606,0.045-5.574,0.648-9.09,0.9c-0.474-0.527,4.109-0.553,3.636-1.08
				c-9.506-0.019-12.196-0.712-16.36-1.26c0.599,0.421,2.189,0.744,3.637,1.08c-2.878,0.56-6.287,0.854-10.68,1.019
				c-1.098,0.041-2.258,0.074-3.486,0.102l-1.895,0.036l-0.49,0.008l-0.248,0.004c-1.094-1.09,9.496,9.497,5.013,5.012v-0.008
				v-0.016l0-0.031l-0.001-0.062l-0.002-0.125l-0.014-1.016c-0.035-2.745-0.054-5.794-0.074-9.201
				c0.828,3.05,0.872-5.759,1.259-1.817c-0.058-4.216,0.029-6.977,0.181-9.09c-0.575-1.997-0.596,10.723-1.08,3.637
				c0.664-2.998,0.628-12.557,0.359-19.994c-0.096,13.269-1.404,0.885-1.98,10.904c0.139-8.06-0.751-5.742-0.899-10.904
				c2.12-6.659,1.249-34.503,2.34-45.441c-0.796-2.883-0.733-5.022-0.9,1.816c-0.603-4.319,0.047-10.057-0.72-12.724
				c0.942-0.417,0.185-5.409,0.18-10.907c0.789,0.018,2.054,0.994,1.8,9.09c0.474-7.727,1.179-2.727,1.98-5.453
				c0.181-10.912-0.823-13.333-0.36-21.813c-1.162-3.713-0.777-12.512-1.44-14.541c0.356-5.813,0.356-3.43,0-5.453
				c0.47-1.923,0.377-9.526,0.9-10.904c-0.241-1.196-0.335-3.886-0.36-7.271c0.459-7.534,1.051,1.116,1.44-1.819v-3.634
				c-0.01-1.109-0.026-2.15-0.179-1.82c-0.427-0.295-0.477-10.271-0.36-19.994c0.67,1.926,0.581-3.826,0.9-5.45
				c0.045,12.051,0.002,18.426-0.18,30.898c0.449-0.481,0.601-6.822,1.08-1.817c0.208-14.785,0.846-24.661,0.36-32.718
				c0.487,2.932,1.144,5.52,1.8,10.907c-0.28-6.462,0.611-1.095,0.54-5.454c-1.222,3.265-1.625-18.426-1.98-7.271
				c-0.125-6.871-0.235-8.828,0-14.543c-0.452-0.313-0.437,4.073-0.72,5.453c0.211,0.286,0.511-0.311,0.54,1.819
				c-0.423,0.58-0.403,5.626-0.72,7.271c-1.609-7.063-0.041-7.541,0-19.994c-0.784-2.468-0.651,4.329-1.081,5.451
				c-0.093-2.688-0.266-4.581-0.359-7.271c-0.508,0.932-0.765,4.4-1.26,5.453c-0.071-7.985,0.221-12.307,0.9-12.724
				c0.127-9.161-0.664-9.05-0.721-16.357c0.56-4.665,0.838-2.699,1.44,0c-0.523-16.483-1.376-28.293-1.62-41.808
				c0.583,4.565,1.52,0.54,1.98-1.817c0.89,3.131,0.842,15.731,2.34,12.724c-0.194-9.526,1.162-11.116,0.9-10.906
				c-0.057-4.275-0.853-1.078-0.72-7.271c0.761-6.058,0.048-24.37,0.54-30.901c0.001,1.011-0.146,2.063-0.18,0
				c0.047-2.554,0.395-2.071,0.54-3.634c-0.108,4.724,0.072,6.541,0.54,5.453c-0.02-4.521-0.337-5.628,0-9.09
				c-0.977,1.208-0.967-5.015-1.08-12.724c-0.314-1.679-0.966,0.062-0.9-5.453c0.425,4.319,0.688-2.281,1.08-3.634
				c-0.239-1.827-0.669-1.718-0.72-5.453c0.764-11.021-0.88-12.081-0.181-25.448c0.345,5.105,0.939-2.498,1.44-1.817
				c0.077-8.052-1.049-3.95-1.08-10.907c0.317-0.437,0.411-3.126,0.36-7.271c-0.689,3.348-0.797-1.06-0.54-7.271
				c-2.365,1.129-2.459-20.391-2.52-34.535c-0.119,10.291,1.601,9.649,0.9,19.994c0.549-0.712,0.917,4.778,1.08-1.819
				c-0.982-1.836,0.627-2.988,0.359-9.087c-0.68,1.198-0.337-12.733-0.18-14.541c-0.5-0.409-0.509-5.764-0.9-7.271
				c0.494-5.614-0.113-11.706,0.54-16.36c-0.863-1.366-0.244-27.869-0.36-30.901c-0.137,6.777-0.853,0.991-0.72-5.451
				c0.314-0.135,0.56,0.404,0.72,1.817c-0.172-3.385,0.539-6.074,0-7.27c0.277,5.485-0.932,4.783-0.9,1.817
				c0.255-2.35,0.854-7.522,0.18-9.087c-0.029,2.137,0.031,5.158-0.18,5.451c-0.533-18.189,0.708-21.37,1.98-21.811
				c-0.104,1.102-0.422,8.622,0,9.087c0.251-5.468,0.932,3.779,1.26-1.817c-0.035-6.314-0.637-6.901-0.72-12.724
				c-0.354-0.542-0.357,2.456-0.54,3.636c0.04-3.437-0.203-4.011-0.181-7.271c0.414,1.25,1.162,1.181,1.621-1.819
				c-0.729-3.04-1.021-1.866-1.44-3.634c-0.13-8.582,1.124-3.195,0.9-12.724c-1.114-0.952-1.653,3.91-1.98,10.907
				c0.149,5.944,0.63-8.981,0.899-1.819h-0.359c-0.132,4.96,0.357,3.659,0.359,7.271c-0.905-6.218-0.389,6.612-1.08,7.273
				c0.545-8.547-0.708-7.998-0.9-9.09c0.489-3.797,0.468-14.933,1.261-10.907c-0.648-8.779-1.184,4.805-1.98,3.636
				c0-1.824-0.146-2.162-0.18-3.636c0.379-3.346,0.511-6.375,0.54-9.087c0.109,1.047,0.854,4.255,0.9,0
				c-0.313-2.939-1.252-5.002-0.72-10.907c-0.705,0.266-0.719,6.198-1.44,1.819c-0.214,3.893-0.195,10.155-0.54,12.724
				c0.393-0.33,0.573,1.487,0.54,5.451c-0.212,0.286-0.511-0.311-0.54,1.819c0.28,0.476,0.125,3.986,0,5.453h0.36
				c0.839,1.593-0.248-4.716,0.36-5.453c0.355,1.257,0.48,4.847,0.54,9.087c-0.55,1.726-1.178,2.643-1.44,7.271
				c-0.014-4.672-0.839-2.599-0.36-7.271c-0.582-2.246-0.137,5.882-0.72,3.636c0.401-2.004,0.126-10.848,0.899-9.09
				c-0.148-5.138,0.254-4.709,0.181-9.087c-0.638-0.983-0.443,6.437-1.08,5.454c-0.027-2.421,0.731-5.485,0.18-7.271
				c-0.177,2.456-0.48,3.631-0.72,5.451c0.031-7.66-0.403-1.245-0.541,0c-0.033-11.595,1.114-1.23,1.081-10.904
				c-0.439-4.608-0.384,3.833-1.081,1.817c-0.25,2.315-0.078,8.905-0.54,9.087c-0.554,1.356-0.345-4.988-0.899-3.634
				c0.147,11.397-0.622,11.841-0.541,18.177c-0.488-4.958-0.448,4.702-1.08,3.634c-0.286-7.409-0.414-16.422-0.36-27.265
				c-1.166,2.907-0.733,0.845-1.98,1.817c0.104-5.9-0.123-8.456-0.18-12.724c0.595-3.072,1.294-5.111,1.8-9.087
				c-0.066-2.465-0.597-8.205,0-12.724c-0.212-0.281-0.511,0.313-0.54-1.817c-0.536-11.415,0.564-2.068,1.08-7.271
				c-0.563,0.555,0.457-5.253-0.18-5.453c-0.087,3.234-0.192-0.787-0.36-1.82c0.126,4.517-0.77,7.7-0.9,3.637
				c-0.096-2.618,0.702-4.436,0.18-5.454c-0.524,1.891-0.393-8.414-1.26-1.817c-0.223-12.546,0.462-15.934,1.44-16.36
				c0.04,1.413,0.005,3.587,0.18,3.637c0.192-6.79-0.447-5.18-0.36-10.907c0.291-4.381,0.967-9.551,2.161-5.453
				c0.169-7.769-0.714-4.916-0.72-10.904c1.282-7.226,3.133,16.831,3.78-3.637c0.73-0.5,0.673-8.949,1.259-10.904
				c-0.484-0.123-0.865-4.156-0.54-7.272c-0.615-1.364-0.229,7.386-0.9,5.453v-5.453c0.544,0.341,0.677-1.108,0.653-3.282
				l-0.016-0.847l-0.006-0.221l-0.003-0.112l-0.002-0.056l0-0.014v-0.007v-0.003c4.315-4.317-5.88,5.876-4.828,4.827l0.028,0
				l0.458-0.016l1.92-0.079c1.315-0.06,2.677-0.126,3.954-0.169c-0.229,0.578-4.004,0.803-5.454,1.26l-0.594-0.02l-0.255-0.014
				l-0.03-0.002l-0.015-0.001l-0.007,0h-0.004h-0.002c-1.259,1.258,10.958-10.958,5.786-5.786l-0.004,0.058l-0.009,0.112
				c-0.024,0.29-0.054,0.519-0.087,0.714c-0.066,0.39-0.146,0.643-0.219,0.968c-0.146,0.65-0.262,1.593-0.183,4.511
				c1.382-1.455,0.937,5.165,1.08,14.541c0.77,1.6,1.359,2.061,0.72,9.087c0.694-0.458,1.855-8.173,1.8,3.637
				c-0.343-0.774-0.326-5.195-0.9-3.637c-0.008,13.818,0.836,8.41,1.26,16.36c-0.373,1.08-1.183-2.246-1.26,1.817
				c0.989-0.16,1.984,6.878,3.06,3.636c0.206-5.717-0.282-4.417-0.36-7.27c0.492,1.324,0.363-3.609,0.721-3.637
				c-0.11-4.346,0.226-13.187-0.18-14.541c-0.053,8.315-0.338-7.342-0.72-7.271c1.058,1.433,1.308-4.34,1.169-10.992l-0.171-5.056
				l-0.128-2.466l-0.018-0.3l-0.009-0.149l-0.004-0.074l-0.002-0.037l-0.001-0.009c2.464-2.471-21.47,21.471-11.333,11.336
				l0.019-0.001l0.588-0.037l1.141-0.077c2.976-0.212,5.381-0.47,6.426-0.72c0.505,1.25,17.117-0.19,19.994,0.72
				c-0.402,0.226-2.835,0.368,1.817,0.36c-2.638-0.798-1.775-1.385,5.454-1.62c-5.118-0.112-2.032-0.242-5.454-0.72
				c3.212-0.338,5.306,0.214,9.087-0.18c-0.53,0.111-4.521,0.692,0,0.72c2.125-0.904,3.871-0.853,14.543-0.72
				c2.803-0.757-9.406-0.029-9.09-0.54c7.655-0.272,2.428-0.708,7.271-1.26c-1.982-0.404-8.922-0.316-10.905-0.72
				c14.691-0.408,5.311,0.632,23.628,0.9c6.106-0.85-1.758-0.991,1.819-1.98c-5.84,0.159-2.493-0.593-7.273-0.54
				c-3.19,0.637,6.107,0.927,1.82,1.08c-3.366-0.447-6.682-0.898-10.907-1.26c6.97,0.032,0.658-0.147,1.817-0.54
				c10.727-1.11,29.712-0.981,25.447,0.9c4.551,0.238,5.69-0.711,7.271-0.18c-8.427,0.646-0.293,0.911-5.454,1.98
				c4.48,0.816,13.025,1.23,21.814,1.62c9.28-0.224,18.335-1.42,25.447-1.26c-6.183,0.348-8.313,1.096-16.36,1.26
				c-1.354,0.554,4.987,0.346,3.636,0.9c10.922-0.059,16.215-0.674,27.265-0.72c1.375,0.884,7.28,1.319,12.724,1.8
				c-0.207-0.741,8.496-0.599,9.087-1.26c-7.312,0.035-7.443,0.022-5.451-0.54c-5.35-0.191-12.043-0.248-16.36-0.541
				c0.745-0.226,2.345-0.367,5.454-0.359c-0.251-0.335-1.196-0.602-3.637-0.72c0.419,0.882-20.85-0.226-10.904-0.72
				c-0.619,0.031,7.233,0.779,9.087,0c3.693,1.037,16.71,1.315,23.631,1.08c-0.025,0.357-4.96,0.228-3.637,0.719
				c8.37,0.229,2.899-0.913,7.271-1.08c4.906,0.658,1.568,0.473,9.09,0c0.007,0.756-7.623,0.756-3.637,1.44
				c8.37,0.229,2.899-0.913,7.271-1.08c2.404,0.002,1.662,0.315,3.637,0.36c0.054-1.441,17.738-0.663,21.811-1.98
				c-5.015-0.104-6.38-0.568-12.724-0.54c-5.893,0.391-17.1-0.186-27.265-0.36c8.328,0.868-7.968,1.409-7.271,1.98
				c-3.802-0.618-6.834,0.086-9.09-0.18c-1.864-0.605,5.653-0.28,9.09-0.36c2.618-0.4,4.563-0.869,3.634-1.62
				c-2.404,0.623-15.904,0.613-5.451,1.08c-3.575-0.055-3.607,0.243-5.454,0.359c-2.041-0.038-2.83-0.199-3.636-0.359
				c-0.89-0.568,3.276-0.636,1.817-1.26c-5.318,0.12-8.932,0.637-12.724,0c-0.094-0.33,9.316-0.609,3.636-0.9
				c-2.907,0.313-8.183,0.39-14.541,0.36c0.528-0.783-3.399-0.996-3.636-1.26c-8.757,0.084-16.594-1.475-32.718-1.26
				c1.997-0.858-10.828-0.248-10.907-0.9c4.352,0.108,8.294,0.259,14.543,0.18c-1.504-1.382,8.51-1.501,14.541-0.9
				c-1.593,0.637-0.229,0.442-1.817,1.08c7.298-0.233,20.685-0.527,23.628-0.18c-2.108,0.151-4.872,0.237-9.087,0.18
				c-0.547,0.354,2.453,0.356,3.634,0.54c6.856-0.107,10.601-0.629,10.907-0.9c8.212-0.114,12.828,0.356,19.995,0.18
				c-4.098,0.389,1.506,0.614,0,1.26c5.917-0.25,13.727,0.7,10.907,0.18c-2.618-0.101-4.436-0.281-5.454-0.541
				c1.943-0.348,1.262-0.955,9.087-0.719c0.979-0.418-2.938-1.241-5.451-0.72c2.283,0.074,3.715,0.231,3.634,0.54
				c-6.718-0.351-24.276-0.711-34.535-1.26c-0.882,0.212-1.938,0.408-3.636,0.54c-2.401-0.002-1.662-0.315-3.634-0.36
				c-0.436,0.196-2.993,0.432-3.636,0.18c0.395-0.885,9.489-0.106,12.724-0.9c-3.126,0.009-4.662-0.138-5.453-0.36
				c6.538-0.192,12.576-0.434,14.543-1.08c-3.114-0.171-3.664-0.597-7.272-0.72c3.178,1.26-19.753,2.933-30.899,2.16
				c4.039-0.32,6.43-0.803,7.271-1.44c-5.278-0.502-4.716,0.591-12.724,0.36c4.521-1.042-5.619-0.213-7.271-1.08
				c-0.385,0.217-2.019,0.111-3.636,0c5.197,0.892-8.577,0.771-10.907,1.44c2.11,0.151,4.872,0.237,9.09,0.18
				c-1.252-0.484,3.757-0.348,5.454-0.54c1.307,0.271,1.386,0.758,0,0.9c-6.81-0.132-10.162-0.103-16.36,0.18
				c-3.908-0.61-0.365-1.762,3.637-2.16c1.144,0.1,5.49,0.731,7.27,0.18c-5.988-0.269,3.089-0.509,3.634-0.72
				c-5.754-0.428-9.238,0.038-12.724-0.54c-1.585-0.942,9.684-1.172,10.907-0.36c2.504-0.232,1.799-0.783,1.817-1.261
				c-8.304,0.262-11.04-0.411-19.994-0.54c3.264,0.023,4.255-0.179,3.636-0.54c-11.785,0.352-9.44-0.751-12.724-1.08
				c-2.121,0.444-4.753,0.664-7.271,0.179c0.584,0.718-6.832,0.644-9.09,1.081c-0.88-0.213-1.938-0.408-3.634-0.541
				c-0.022,0.239-3.186,0.165-3.637,0.36c8.589-0.196,5.2,0.62,1.819,0.72c4.546,0.261,7.137,0.436,12.724,0.18v0.54
				c-11.634,0.004-19.575-0.367-29.084,0.36c2.985-1.136-12.66-0.427-10.907-1.44c-3.385,0.025-6.075,0.118-7.27,0.36
				c5.024,0.755,12.3,1.211,27.265,1.08c-0.508,0.609-2.89,1.033-1.817,1.799c7.202,0.043,7.803,0.739,5.454,1.26
				c4.746,0.07,9.97,0.093,12.724,0.36c-9.573-0.168-1.03,0.576-7.27,0.899c0.266-0.446,0.337-0.873-3.637-0.899
				c2.194,0.757-2.934,0.789-3.634,1.26c2.719,0.031,6.708-0.064,7.271,0.18c0.093,0.309-1.4,0.461-3.637,0.54
				c-2.229-0.559-8.451-0.723-7.271-1.621c-7.96,0.38-5.855-0.091-7.27-0.359c-4.798,0.448,0.212,0.823-9.087,0.899
				c-4.023-0.259,2.288-0.438-1.82-0.54c-1.785,0.244-4.849,0.36-7.27,0.54c4.891-0.468-2.222-0.542-1.817-1.08h10.907
				c2.283-0.209,4.156-1.175-3.637-0.9c3.139,0.866-0.678,0.573-9.087,0.541c-1.841,0.208-1.018,0.458-1.055,0.645
				c-0.019,0.093-0.252,0.17-1.141,0.217l-0.365,0.017l-0.102,0.003l-0.052,0.001l-0.006,0h-0.003
				c1.243-1.244-1.698,1.694-1.395,1.393l0,0.013l0.001,0.027l0.006,0.225c0.008,0.311,0.013,0.67,0.017,1.083
				c0.007,0.828,0.005,1.874-0.008,3.195c-1.147-1.09-1.474,6.144-1.799,12.724c0.784,3.069,0.937,6.632,1.26,10.907
				c-0.797,5.979-0.14,15.468-1.08,19.994c-0.153-2.702-0.58-2.63-0.9-3.634v3.634c-0.109,0.104-0.213,0.271-0.18,1.817
				c0.393-0.325,0.572,1.489,0.54,5.454c-0.627-3.074-0.629-0.67-0.9,3.636c-0.171-3.73-0.581-5.037-0.9-7.271
				c0.041-7.593-0.292-8.584,0-14.543c-0.63,2.993-1.378-6.329-1.08-12.724c-0.54-3.271-1.284-4.573-1.62,1.819
				C8.315,53.948,9.111,58.28,8.897,69.655c1.272,1.935,0.936,10.724,1.08,21.811c-0.411-0.508-0.676,0.439-0.72,3.636
				c1.072-6.666,0.769,9.975,1.26,14.541c0.028-2.14-0.031-5.16,0.18-5.454c0.104,1.104,0.422,8.622,0,9.09
				c-0.32,1.085-0.747-5.328-0.899,0c0.576,7.177-0.278,16.767,0.18,19.995c-0.055-3.693,0.521,0.375,0.54,1.817
				c-0.252,5.33,0.096,7.815-0.54,10.907c0.632,1.62,0.592-0.35,1.08,3.634c0.028-2.137-0.031-5.157,0.18-5.453
				c0.002,2.406,0.315,1.664,0.36,3.636c-0.546-0.668-0.374,5.924-0.54,9.087c0.646-0.261-0.019,4.662,0.36,9.09
				c0.595-5.409,0.44,1.391,0.9-1.817c-0.569-3.553,0.115-9.576,0.359-10.907c-0.356-3.067-0.873-4.509-0.899-10.907
				c0.353,4.576,0.948-9.955,0.72-10.907c-0.003,2.384-0.5,2.317-0.54,0c0.509-3.343,0.75-9.393,1.62-9.087
				c-0.007,2.502,0.085,3.992,0.18,5.454c-0.335,0.249-0.602,1.198-0.72,3.634c0.784,2.155,0.466,4.152,1.08,7.273
				c-0.656,2.234-1.149,0.616-1.8,7.271c0.14,0.399,0.209,1.521,0.18,3.634c0.31,0.718,0.461-2.697,0.54,0
				c-0.416,3.148,0.216,11.03,0.54,12.724c-0.319,1.627-0.229,7.378-0.9,5.453c-0.04,3.437,0.204,4.011,0.181,7.271
				c-0.333-4.001-0.569,10.48-0.72,12.724c-0.529-5.258-0.443-6.092-1.44-7.27c-0.335,3.232,0.146,4.62,0,10.907h-0.72
				c0.153-3.799-0.873-8.612-0.9-16.36c-0.554-1.351-0.346,4.99-0.9,3.636c-0.317,21.878,1.889,31.865,0.9,49.076
				c1.192-2.749,0.511,0.991,0.72,5.453c-0.077-2.929,0.671-6.097,0.72-1.817c-0.894,2.68-0.046,13.828-0.72,16.358
				c0.131-4.956-0.357-3.659-0.36-7.271c-0.459,3.604-0.827-1.886-1.08,1.819c0.76,2.431-0.172,4.238-0.181,9.087
				c0.673,1.943,0.513-4.514,1.081-3.636c0.001,3.612,0.491,2.313,0.36,7.272c-0.357-0.024-0.229-4.96-0.72-3.636
				c0.364,12.726-0.519,20.966-0.359,30.901c0.577,2.022,0.803-8.621,1.26-1.819c-0.221,3.225-0.559,5.269-0.72,9.09
				c0.033-3.967-0.147-5.784-0.54-5.453c-0.083,6.439-0.4,10.498-0.361,18.177c1.082,0.961,0.022-10.236,0.54-12.724
				c0.36,5.02,0.366,6.888,1.081,7.271c-0.953,3.131-0.254,16.296-0.9,21.811c-0.259-1.016-0.439-2.835-0.54-5.453
				c0.143-0.2,0.545-6.008,0.18-5.451c-0.654,7.327-0.489,13.375-0.361,23.628c0.681,2.633,0.346-4.995,0.9-3.634
				c-0.766,5.641,0.343,9.534-0.36,14.541c0.314,0.138,0.56-0.407,0.72-1.817c0.222-5.883-0.582-1.391-0.36-7.271
				c0.181-2.416,0.17-6.765,0.54-7.273c0.246,7.596,0.11,7.739,0.54,12.724c-0.763,1.378-0.83,9.79-1.08,16.36
				c-0.631-2.709-0.303-15.115-1.08-16.36c-0.083,8.488,0.348,11.62-0.18,16.36c-0.181-0.007-0.214,1.472-0.36,1.817
				c0.03-4.548-0.276-5.69-0.54-7.27c0.148,5.138-0.254,4.708-0.18,9.087c0.464,4.827,0.864-0.247,1.08,5.453
				c-0.884,0.629,0.341,1.176,0,7.271c-0.896-2.835-0.635,1.304-0.18,5.453h-0.9C7.438,372.729,5.781,366.624,6.197,371.388z
				 M216.885,22.217c-8.974-0.142-11.661-0.05-19.994,0.181v-0.36v-0.36C200.211,21.91,214.577,21.432,216.885,22.217z
				 M18.978,27.85h-0.72c-0.013,7.399,0.665,7.823,1.439,7.271c-0.21,3.927-0.51,6.958-0.899,9.087
				c0.14-1.617,0.193-4.105,0.18-7.271c-0.679-1.398-0.861,2.216-1.44,1.817c-0.921-6.4,0.044-10.211,0.18-19.994
				c0.316-1.043,1.058,2.197,1.081-1.817C19.006,20.286,18.466,23.084,18.978,27.85z M16.278,176.896
				c-0.315,4.497-0.397,3.659-0.36-3.634c0.679,4.354,1.16,4.938,1.799,3.634c0.205,0.345,0.101,1.824,0,1.819v3.634
				c-0.291,0.513-0.309-1.718-0.54-1.817c-0.501,2.719-0.295,7.586,0.181,9.087c-0.269,0.974-0.212,1.813-0.72,3.637v7.271
				c0.101,2.241,0.696-1.351,0.54,7.271c0.347-0.73,0.016-8.323,0.721-5.454c-0.108,6.541,0.064,10.253,0.54,10.907
				c-0.111,8.838-0.111,9.339,0,18.177c0.362-5.431,0.529-12.827,0.54-21.811c0.35-2.549,1.159-5.939,1.62-1.819
				c0.093,15.314,1.762,29.099,2.52,43.625c0.033,6.928-0.463,11.959,0.18,12.724c0.149,5.138-0.254,4.709-0.18,9.087
				c-0.237-0.638-0.283-3.2-0.54-3.634v5.454c0.865,1.558,0.772,12.805,1.62,14.541c0.507,24.575-1.614,24.077-1.799,45.442
				c-0.271-6.072-0.663-4.026-1.08-5.454c-0.485,8.656-2.3,7.596-1.8,23.631c-0.368-1.741-0.712-3.715-1.08-5.454
				c-0.265,6.913,0.805,0.36,0.54,7.271c-0.763-2.867-0.643,7.544-0.18,7.271c-0.271,2.426-0.776,0.592-1.081,0
				c-0.222,5.882,0.583,1.39,0.36,7.27c-0.672,0.165-0.513,2.039-1.08,0c0.305-10.963-1.095-4.698-0.72-16.357
				c0.673,8.594,0.439-7.231,1.62-3.636c0.061-3.649-0.037-5.688-0.36-5.454c0.181-7.211,0.726,0.289,1.08,1.819
				c-0.18-2.423-0.297-5.488-0.54-7.273c0.078-2.85,0.566-1.553,0.36-7.27c0.184,1.775,0.363,3.594,0.54,5.453
				c0.413-5.337,0.579-2.643,0.9-7.271c0.239,1.825,0.669,1.719,0.72,5.454c0.656-1.142-0.485-9.184,0.36-7.271
				c-0.056-2.468-0.451-1.509-0.72-1.819c0.092-4.625,0.307-7.048-0.36-7.271c0.319-5.966,0.729,2.121,0.9,3.637
				c0.272-17.766-2.202-7.334-2.52,3.634c-0.39,0.308-0.082-6.444-0.18-9.087c0.453-3.437,0.964,4.11,0.9-5.453
				c0.322,3.284,0.901-0.119,0.719-7.271c0.555-1.351,0.347,4.99,0.9,3.636c-0.704-4.822-0.018-12.729-1.08-12.724
				c0.177,9.129-1.385,12.973-1.98,19.994c0.058,4.268,0.285,6.822,0.18,12.724c-0.425-7.199-0.693-2.088-1.62-3.636
				c0.104-3.799,0.446-5.187,0.36-10.907c0.491,0.165,0.362-3.028,0.719,0c-0.154-1.464-0.106-4.975-0.359-5.451
				c0.541-1.553,0.538-15.051,1.08-10.907c-0.035-6.324-0.52-8.079-0.9-10.907c0.132,8.695-1.678,9.765-0.36,21.813
				c-0.505,0.809-0.35,2.443-0.9,5.451c0.439-5.02-0.201-3.146-0.36,0c-0.11-7.934,0.005-20.512,0.54-25.445
				c-0.056-3.128-0.625,2.359-0.54-5.454h-1.08c-0.059,6.041,0.885,1.973,0.54,10.905c-0.677-0.441-0.708-7.392-1.08-10.905
				c0.414-3.086,1.318-1.232,1.62-5.453c0.007-3.109-0.134-4.709-0.36-5.454c0.365-6.003,1.316-6.094,1.08-18.177
				c0.358-3.027,0.229,0.166,0.72,0c-0.246-2.315-0.278-8.902,0.18-9.087c-0.883-7.443,0.776-26.944-0.54-32.718
				c0.024,3.385,0.118,6.075,0.36,7.271c-0.252,5.298-0.621-3.22-1.08-1.817c0.752-5.443-0.922-14.415,0.36-19.994
				c-0.29-3.321-0.57,1.28-0.9-3.636C15.699,189.238,16,183.181,16.278,176.896z M20.958,471.361
				c0.15,15.243-0.383,13.231-0.18,23.628c-0.546,2.87-0.374-11.787-0.54-1.817c-0.145-0.961-0.292-1.896-0.541-1.816
				c-0.05-2.937,0.17-3.129,0.181-5.453c-0.27-0.035-0.736,6.752-0.9,1.816c-0.313,2.907-0.39,8.183-0.36,14.543
				c-0.403,1.391-0.574-8.395-0.9-1.819c-0.554-1.812,0.201-4.911,0.36-5.453c-0.541-4.84-1.31-7.369-1.26-18.175
				c0.974,0.969,0.759,4.137,1.62,0c0.192,6.792-0.447,5.18-0.36,10.904c0.725-4.79,1.112-4.859,2.16-3.634
				c-1.327-7.177,0.335-12.359,0.72-18.178c0.407,8.257,0.911,1.436,1.44,3.637C22.073,476.654,21.514,474.211,20.958,471.361z
				 M7.638,407.742c0.145,0.961,0.292,1.896,0.54,1.816c-0.075,3.477-0.065,7.825-0.54,7.271
				C7.511,411.238,7.511,413.339,7.638,407.742z M8.538,455.001c-0.051-2.934,0.17-3.129,0.179-5.453
				c0.397,2.056,0.994,2.09,1.081,7.272C9.152,456.154,9.139,451.938,8.538,455.001z M8.717,438.644
				c0.125-1.447-0.025-15.988,0.9-18.178c0.097,7.039-0.458,7.485-0.54,12.724c0.181,4.426,0.796-3.563,0.72,5.454
				c-0.255-0.156-0.51-0.301-0.54,1.816C8.918,439.1,9.133,435.036,8.717,438.644z M8.717,456.82c0.175,0.05,0.14,2.224,0.18,3.634
				c0.491,0.165,0.363-3.027,0.72,0v5.453C9.097,465.104,8.797,462.076,8.717,456.82z M14.298,335.036
				c0.448-1.528,0.964-2.376,1.62-1.817c0.106,12.588-0.336,19.632-0.9,25.445c-0.576-2.737-0.078-7.84-0.36-10.905
				c-0.21,0.293-0.151,3.313-0.18,5.454c-0.564-1.257-0.234-4.85-0.18-9.09c-0.607,7.123-1.064-12.344-0.9-18.177h-0.54
				c0.594,9.043-0.723-2.364-1.26,5.454c-0.162-3.821-0.279-8.079-0.54-10.904c-0.558,1.028-0.473,8.55-1.08,9.087
				c-0.566-9.321,0.592-21.022,0.36-27.264c0.613,3.188,0.67-0.589,0.9-5.454c0.671,1.708,0.937,7.504,1.979,5.454
				c-0.066,3.091,0.141,3.429,0.36,3.634c-0.14,1.62-0.193,4.105-0.18,7.271c0.68,2.633,0.346-4.993,0.9-3.634
				c0.3,3.612-0.017,2.313,0,7.271c0.658-0.397,0.69-2.498,1.26,0v10.907c-0.113-3.099-0.544-2.993-0.72-5.453
				C13.874,328.542,14.602,322.45,14.298,335.036z M11.058,136.908c0.004-6.913,0.938-6.62,0.72,1.819
				C11.455,138.957,11.398,136.501,11.058,136.908z M60.565,11.238c2.699,0.212,8.121,0.156,7.271,0.72
				c-1.472-0.034-1.813-0.181-3.634-0.18c-1.849,0.116-1.881,0.414-5.453,0.36C60.274,11.929,61.145,11.655,60.565,11.238z
				 M11.418,124.185c0.034-2.064,0.181-1.009,0.18,0c0.268-0.792-0.071-2.325,0-5.451c0.757,0.372,0.756-6.908,1.44-7.273
				c-0.571,4.539-0.685,13.686-1.44,16.36C11.627,125.708,11.558,124.586,11.418,124.185z M41.922,712.749
				c2.751-0.268,7.978-0.29,12.724-0.359C53.004,713.099,47.718,712.764,41.922,712.749z M58.282,712.749
				c0.345-0.146,1.825-0.18,1.817-0.359c-0.293-0.212-3.313-0.152-5.454-0.182c-1.344-0.612,6.698-0.296,7.273-0.719
				C66.379,711.857,65.967,712.718,58.282,712.749z M12.677,195.074c0.056-2.465,0.451-1.506,0.72-1.817
				c0.144,6.928,0.281,11.959-0.54,12.724c0.377-4.44,0.257-3.871,0.18-10.907H12.677z M12.858,100.556
				c0.125-3.592,0.48-4.847,0.9-5.454c-0.023,3.259,0.22,3.834,0.18,7.271C13.388,103.687,13.281,100.517,12.858,100.556z
				 M172.797,711.669c-1.933,0.463-10.471,0.098-10.907-0.18C163.825,711.025,172.36,711.392,172.797,711.669z M14.118,685.847
				c-0.222-5.883,0.583-1.391,0.36-7.271c0.555-1.361,0.22,6.267,0.9,3.634c-0.096,1.462-0.188,2.951-0.181,5.453
				C14.729,684.362,14.655,688.45,14.118,685.847z M86.013,14.298c1.832,0.778,10.851,0.846,10.907,1.8
				c-10.764-0.072-4.507,0.144-3.637,0.72c-4.548-0.15-7.137-0.493-12.724-0.54c-0.434-0.703,6.752-0.651,10.907-0.9
				C88.877,15.071,80.9,14.826,86.013,14.298z M187.337,710.409c-3.745-0.109-12.627,0.29-10.907-0.36
				c8.86,0.318,6.107-0.144,12.724-0.36C189.389,710.012,186.931,710.068,187.337,710.409z M274.585,709.869
				c-0.264-0.507,4.452-0.52,9.09-0.54C282.013,709.644,280.295,709.954,274.585,709.869z M16.638,456.82
				c0.101,6.134,0.458,2.618,0.36,16.357c-0.343-3.404-0.452-0.199-0.9,0C16.308,461.017,16.56,468.137,16.638,456.82z
				 M16.098,29.667c0.563-0.843,0.803,1.58,0.72,7.27C16.214,38.185,16.16,33.888,16.098,29.667z M16.638,173.263
				c-0.204-0.345-0.1-1.824,0-1.817c0.223-5.882-0.582-1.391-0.36-7.271h0.72C17.025,168.697,16.715,169.801,16.638,173.263z
				 M270.951,708.429c-5.821-0.975,6.45-0.858,0-1.801c-0.335-0.152,0.708-0.169,1.817-0.18h3.637
				c0.51,0.291-1.719,0.311-1.819,0.541c-1.354,0.553,4.989,0.346,3.636,0.9C273.67,707.858,272.531,708.165,270.951,708.429z
				 M252.773,708.249c-5.572-0.178,2.088-0.48,1.817-0.721c3.435,0.02,1.262,0.596,5.454,0.54
				C258.813,708.899,254.004,707.793,252.773,708.249z M42.388,16.638c5.125,0.032,2.268,0.855,9.09,0.72
				c-3.304,0.468,0.786,0.543-1.819,1.08C45.546,17.919,46.175,17.462,42.388,16.638z M16.94,16.998h7.273
				c-0.767,0.344-0.661,0.774-5.454,0.719C18.989,17.395,16.534,17.338,16.94,16.998z M17.717,585.873
				c0.139-4.083,0.499-4.09,1.081-7.271C18.781,584.52,18.07,588.9,17.717,585.873z M17.717,391.385
				c0.275-3.763,0.904-9.968,1.44-5.454c-0.461,2.606-0.956,4.894-1.08,10.904C17.818,396.426,18.015,391.411,17.717,391.385z
				 M66.019,18.798c-1.768,0.005-1.41,0.22-1.817,0.359c-1.462-0.095-2.951-0.187-5.453-0.179c-2.303-0.549,6.215-0.917,1.817-1.08
				c1.654-0.489,6.371,0.183,9.09,0.18c0.981,0.244-2.675,0.987,3.634,1.26c-0.641,0.236-3.203,0.283-3.634,0.54
				C68.114,19.733,69.778,19.137,66.019,18.798z M18.798,607.687c-0.077,6.499-0.479,9.699-0.36,18.178
				C17.872,621.088,17.593,606.986,18.798,607.687z M18.438,702.204c0.029-2.128,0.328-1.533,0.54-1.817
				c0.029,2.109,0.021,3.854-0.012,5.336c-0.017,0.74-0.04,1.415-0.068,2.037l-0.046,0.894l-0.013,0.212l-0.006,0.104l-0.003,0.052
				l0,0.007v0.003c-1.247-1.246,2.79,2.792-2.795-2.793h0.001l0.013,0.001l0.026,0.002l0.403,0.027
				c0.163,0.062,0.15,0.104,0.007,0.136l-0.308,0.037l-0.104,0.007l-0.027,0.001l-0.007,0.001h-0.003h-0.002
				c-0.563-0.562,4.891,4.891,2.583,2.582l-0.001-0.015l-0.002-0.058l-0.009-0.254c-0.018-0.723-0.002-1.794,0.014-2.865
				C18.65,703.697,18.683,701.555,18.438,702.204z M80.56,18.438h5.453v0.719c-3.259,0.023-3.833-0.22-7.27-0.179
				C79.704,18.833,80.638,18.686,80.56,18.438z M278.221,706.448c4.448-0.424-2.714-0.334-1.816-0.899
				c6.789-0.017,5.18-0.202,10.904,0C288.772,706.294,284.521,706.472,278.221,706.448z M250.957,706.448h-5.454
				c-0.456-0.525,3.422-0.621,5.454-0.899C255.209,705.595,252.002,706.339,250.957,706.448z M303.669,706.269
				c-7.034,0.156-6.467-0.439-10.907-0.54C297.022,705.511,304.67,705.368,303.669,706.269z M111.46,19.518
				c-4.748-0.05-9.097-0.061-7.271,0.54c-3.222-0.161-2.32-0.73-9.09-0.54C96.331,18.778,111.328,18.419,111.46,19.518z
				 M47.375,705.188c0.806,0.16,1.598,0.322,3.637,0.36c-2.857,0.137-2.717,0.571-7.271,0.54c-1.44-0.622,2.019-0.76,3.634-1.08
				C49.439,705.043,48.386,705.188,47.375,705.188z M129.172,705.909c-3.59-0.125-4.847-0.48-5.454-0.9
				c4.283-0.004,5.353,0.311,10.907,0.18C136.223,705.768,128.632,705.436,129.172,705.909z M19.157,31.484
				c0.23-3.2,0.258-6.443,0.237-9.309c-0.011-1.433-0.033-2.771-0.049-3.964c-0.008-0.596-0.014-1.156-0.016-1.672l0-0.379v-0.092
				v-0.022v-0.012c-6.585,6.585-1.824,1.826-3.292,3.295h0.002h0.006h0.045l0.179,0.001l0.671,0.008l-0.459,0.11l-0.302,0.049
				l-0.082,0.012l-0.042,0.006l-0.021,0.003c6.963-6.964,1.93-1.929,3.485-3.482v0.002l0.001,0.005l0.001,0.011l0.022,0.178
				c0.059,0.488,0.108,1.082,0.15,1.746c0.084,1.329,0.139,2.938,0.179,4.537c0.081,3.199,0.103,6.358,0.185,7.152
				C19.894,32.822,19.427,34.366,19.157,31.484z M19.697,373.207c0.617,3.19,0.631,7.044,1.261,1.817c0.016,4.96-0.3,3.658,0,7.271
				c0.33-2.121,0.609-4.751,0.9-7.271c0.479,8.11-0.779,23.879,0.359,29.081c-0.334,4.785-1.115-6.223-1.259,1.819
				c0.849,1.968,0.232,2.162-0.18,3.634c-0.255-2.733-0.667-7.84-0.36-10.904h-0.721C19.89,381.54,19.093,394.003,19.697,373.207z
				 M35.118,21.318c-0.333,0.153,0.71,0.17,1.819,0.18c-7.145,0.3,1.708-0.858,3.634-1.26c1.467,0.154,4.98,0.107,5.453,0.36
				c4.056-0.026-2.359-0.454,0-0.9c1.849,0.118,1.876,0.415,5.454,0.36c0.513,0.291-1.718,0.31-1.819,0.54
				c5.902-0.104,8.456,0.123,12.724,0.18c-2.263,0.447,6.568,1.075,10.907,1.439C62.311,22.353,49.604,20.94,35.118,21.318z
				 M116.914,20.778c5.138,0.149,4.709-0.254,9.087-0.18c-1.006,0.5-7.026,0.504-10.904,0.72
				C108.909,21.125,120.153,21.261,116.914,20.778z M198.244,702.309c0.333-0.153-0.71-0.169-1.819-0.181
				c1.642-0.486,4.065,0.412,7.271,0.361c-5.522,0.27-1.003,0.541-3.634,0.9c-2.13-0.03-1.534-0.329-1.817-0.541
				c-1.548-0.033-1.716,0.07-1.819,0.18C192.13,702.979,198.508,702.548,198.244,702.309z M21.858,456.82
				c-0.528-1.546,0.234-4.576,0-9.09c0.565-2.02,0.476-0.851,0.9,1.817C22.389,451.468,21.924,448.67,21.858,456.82z M24.213,21.677
				c5.135-0.148,4.709,0.254,9.087,0.181c-3.116,0.531-11.752,0.516-16.36,0.9C12.485,21.969,30.105,22.517,24.213,21.677z
				 M22.038,167.809c0.079-2.236,0.23-3.732,0.54-3.634c-0.148,5.135,0.254,4.707,0.18,9.087c-0.295,1.324-0.783-3.612-0.36-3.637
				C22.393,167.858,22.177,168.216,22.038,167.809z M110.995,702.669c-8.229-0.281,1.252-0.631,1.817-1.08
				c1.546-0.033,1.716,0.07,1.819,0.18v0.359C110.75,702.044,111.167,702.386,110.995,702.669z M22.758,165.992
				c-0.191-6.772,0.379-5.868,0.54-9.09C23.548,157.238,23.204,166.692,22.758,165.992z M212.785,701.229
				c0.877,0.567-8.333,0.135-9.09,0.54c-3.084-0.116-1.134-0.414,1.819-0.359C201.435,700.767,206.789,701.387,212.785,701.229z"/>
			<path class="st0" d="M160.539,8.717c3.203-0.339,5.628,0.247,7.271-0.359c0.311-0.244-10.522-0.234-3.636-0.54
				c-3.925-0.211-8.348-0.374-12.724-0.54c5.335-0.654,13.106,0.02,19.995-0.36c12.011,1.039-7.066,2.464,0,3.239
				c-1.23,0.418-6.041,0.482-7.271,0.9c3.639,0.198,6.733,0.08,12.724,0.36c-0.74,0.347-7.046,0.142-5.453,0.72
				c7.272,0.555,7.889,0.579,16.36,0.18c-6.849,1.621-11.799,0.003-12.724,1.26c1.196,0.241,3.885,0.335,7.271,0.36
				c0.318,0.512-11.891-0.217-9.087,0.54c0.436,0.464,3.126-0.247,7.271,0c1.794,0.452,1.587,0.603,0,1.26
				c-6.829-0.386-10-0.065-12.724-0.72c-3.942-0.031-0.826,0.639-1.819,0.9c-1.462-0.096-2.949-0.188-5.451-0.18
				c5.323-0.772-1.464-1.676,5.451-2.34c-8.547-0.607,0.611-0.877-7.271-1.439c2.69,0.093,4.583,0.266,7.271,0.36
				c2.458-0.177,3.634-0.48,5.454-0.72c-2.725-0.289-9.095,0.153-9.087-0.72C169.604,9.912,159.873,9.838,160.539,8.717z"/>
			<path class="st0" d="M7.998,504.079c-0.196-0.448-0.122-3.614-0.36-3.637c0.573-2.209-0.12-6.839,0.72-7.271
				C8.445,498.896,7.806,497.289,7.998,504.079z"/>
			<path class="st0" d="M222.338,12.318c-1.662-0.604-3.38-0.09-9.087-0.18c-1.928-1.391,14.474-0.967,10.904-2.52
				c16.922,0.793,8.114-2.243,25.448-1.98c-1.324,0.491,3.612,0.362,3.636,0.72c-2.352,1.087-11.619,1.489-18.177,2.16
				c-0.513,0.291,1.719,0.31,1.817,0.54c4.149-0.435,18.38-0.813,16.36-1.26c8.363,0.157,15.589-0.522,25.448-0.72
				c1.509,0.451,4.979,0.707,5.453,1.26c-6.802,0.046-10.33,0.417-14.543,0.72c0.58,0.423,2.872,0.676,1.819,1.26
				c-11.424,0.761-29.944,0.134-39.991,1.26c1.881-0.414,3.755-0.828,7.273-1.08c-7.875,0.104-20.658-0.041-25.448,0.54
				C208.85,12.763,217.834,12.306,222.338,12.318z"/>
			<path class="st0" d="M385.929,13.758c-7.429,0.195-8.962-0.192-10.904-0.541c-0.094,0.711-3.728,1.072-10.907,1.081
				c-0.851,0.344,5.604,0.774-1.817,0.72c0.397,0.883,1.174,0.686,3.635,1.44c-7.705,0.043-6.837-0.763-14.541-0.72
				c2.559,1.093-7.419,0.945-7.271,1.8c3.572,0.054,3.604-0.243,5.453-0.36c-1.693,1.001-1.215,0.368,3.634,0.721
				c-2.689,0.093-4.58,0.266-7.27,0.36c-5.301-0.735-7.887-1.739-19.995-1.8c1.088,0.467-0.729,0.647-5.453,0.54
				c1.389-0.569-1.876-1.474-7.271-1.44c1.356-0.706,10.718-0.619,10.907-1.44c-4.709-0.163-6.758-0.091-12.724,0
				c0.778-0.343,3.915-0.452,3.634-0.9c-6.221-0.076-5.461,0.54-9.088,0.72c-5.643-0.101-4.412-0.883-7.27-1.26
				c-3.711,0.526-20.401,1.097-14.541,1.44c-6.47,0.152-10.892-0.521-12.724,0.18c3.126,0.071,4.66-0.267,5.451,0
				c-0.182,0.458-6.772,0.425-9.087,0.18c0.222,0.742-9.802,0.47-10.907,1.08c-2.162-0.446-13.293-0.003-12.724-0.72h7.273
				c-2.093-1.091-7.793-0.368-12.724-1.08c0.937,0.604,2.297,1.063-3.637,0.72v0.36c0.407,0.14,0.049,0.355,1.817,0.359
				c1.019-0.259,2.835-0.438,5.454-0.54c1.097,1.069-2.177,1.705-12.724,1.621c2.246-0.583-5.88-0.138-3.634-0.72
				c-5.554-0.13-6.627,0.185-10.907,0.18c2.507,1.141,6.617,1.016,14.541,1.62c-3.964-0.033-5.781,0.147-5.454,0.54
				c4.288,0.44,3.383-0.27,9.09-0.181c7.046,0.623,7.391,1.909,16.358,2.34c-0.56,0.713-6.312-0.201-5.454,0.54
				c7.591-0.032,8.91,0.558,14.543,0.72c-4.982,0.163,3.547,0.663-3.637,0.72c-2.243-0.558-9.979-0.571-14.541-0.9
				c2.825,0.64-6.173,0.108-5.454,0.54c12.428,0.641,12.105,1.946,21.812,2.52c-1.585-0.577,2.798-0.563,5.453-0.719
				c3.412,0.318-2.162,0.525,1.819,0.9c-6.72,0.32-6.816,0.36-10.907,0.72c1.144,0.307,5.491,0.296,7.271,0.54
				c-3.126-0.01-4.66,0.139-5.454,0.36c2.421-0.027,5.486,0.732,7.271,0.18c-10.574-0.218,5.952-0.032,5.454-0.359
				c-5.924-0.275-1.073-1.984,7.271-1.44c-5.39,0.182-3.405,0.964,0,1.26c0.012-0.265,5.059-0.904,7.271-0.36
				c0.722,0.431-8.279-0.101-5.454,0.54c2.505-0.008,3.992,0.085,5.454,0.18c3.88-1.086,17.561,0.857,21.813-0.18
				c-9.433-0.088-11.339-0.104-9.09-1.08c-5.234,0.021-11.898-0.098-14.541,0.18c0.097-0.337-1.4-0.381-3.637-0.18
				c4.675-0.559-6.521-1.181,3.637-1.44c1.854,0.236,1.782,0.664,3.637,0.899c7.591-0.04,8.584,0.293,14.541,0
				c-3.402,0.817,7.221,0.246,5.453,0.9c6.04-0.182,10.28-0.542,18.175-0.54c-0.844-0.564,1.58-0.803,7.272-0.72
				c-0.261,0.212-3.239,0.408,0,0.54c-0.545-0.354,2.453-0.357,3.634-0.54c-2.216-0.021-4.304-0.054-3.634-0.36
				c5.899,0.104,8.456-0.123,12.724-0.18c-0.105-0.93-11.883-1.01-16.36-0.54v-0.72c-7.711,0.022-6.178,1.067-7.27,1.26
				c-7.261-0.389-31.602,0.104-38.172-0.54c-0.86-0.774,4.892-0.231,5.453-0.541c-1.614-0.052-7.958-0.486-3.636-0.54
				c4.223,0.131,13.581,0.456,12.724-0.359c-2.72-0.031-6.708,0.064-7.271-0.18c1.824,0,2.165-0.146,3.637-0.18
				c3.466,0.077,3.288,0.514,9.087,0.36c2.539-0.518-4.953-0.915,0-1.08c4.287,0.056,3.383,0.625,9.09,0.54
				c1.45-0.336,3.035-0.659,3.634-1.081c-3.126-0.07-4.662,0.268-5.453,0c0.271-0.333,6.153-0.11,7.271-0.359
				c1.442-0.743-0.804-1.121-5.451-1.26c5.013,0.164,12.764,0.056,16.357,0.36c-0.098,0.23-2.329,0.249-1.816,0.54
				c8.843-0.276,6.839,0.522,12.724,0.54c5.264-0.101-2.788-0.281-1.819-0.54c6.033-0.328,5.695-0.354,14.543-0.54
				c-0.579,0.22,0.291,1.111,1.817,0.54c-2.414-0.616,4.048-1.256,7.271-0.72c-5.532,0.748-1.009,1.078,1.816,1.8
				c-2.502,0.008-3.988-0.084-5.45-0.18c-1.751,0.773,8.929,0.315,9.087,0.9c0.72,0.592-15.562,1.404-3.637,1.8
				c0.286-0.212-0.311-0.511,1.819-0.54c2.616,0.398,4.436-0.227,5.451,0.18c-2.689,0.034-1.666,0.436-1.816,0.721h-5.454
				c0.994,0.261-2.122,0.93,1.819,0.9c0.336-0.267,4.392-0.165,7.271-0.181c2.359-0.446-4.056-0.874,0-0.899
				c0.967,0.73,10.707-0.757,9.088-0.36c0.72-0.432-8.279,0.1-5.453-0.54c3.222-0.041,9.102,0.181,7.27-0.36
				c-5.559-0.13-5.345,0.31-10.904,0.18c2.673-0.684-8.126-0.035-5.453-0.719c7.143,0.407,13.812-0.132,19.994,0.18
				c4.613-1.157,11.745-0.014,19.994-0.9c-1.324,0.491,3.612,0.362,3.637,0.72c-6.309,0.233-15.586,0.45-10.907,1.259
				c-3.231-0.16-4.62-0.502-10.906-0.359c-0.269,0.446-0.338,0.874,3.636,0.9c2.495-0.41-4.687-0.677,0-0.72
				c8.333,0.135,7.668,1.161,16.358,1.26c-7.073-0.15-16.933,0.349-12.724,0.72c0.436-0.195,2.992-0.432,3.636-0.18
				c-5.45,0.346-3.311,0.713,0,0.72c-6.886,1.018-0.426,1.575-7.271,2.16c4.283,0.004,5.353-0.31,10.907-0.18
				c0.888-0.568-3.276-0.635-1.819-1.26c1.262-0.141,10.143-0.401,10.906,0c-3.734,0.05-3.626,0.481-5.453,0.72
				c5.737-0.088,6.42,0.325,12.724,0.18c-1.326-0.716-1.326-0.724,0-1.439c-3.064-0.255-8.35,0.079-12.724-0.36
				c5.503-0.256,9.738,0.08,16.36,0.18c-4.023-0.759-18.249-0.312-10.907-1.44c3.132,0.17,2.977,0.666,9.088,0.54
				c3.407-0.473-4.758-0.606,1.819-1.08c-3.967,0.033-5.784-0.147-5.453-0.54c0.385-0.202,2.017-0.281,3.634-0.36
				c7.966,0.332,19.499-0.162,21.813,0.36c-0.385,0.202-2.017,0.28-3.634,0.36c-6.307,0.144-6.987-0.268-12.727-0.181
				c-1.228,1.262,13.437,0.95,14.541,1.98c3.318-0.392,5.38-0.907,10.907-1.08c-0.011,0.378,7.302,0.934,9.087,0.54
				c-5.327-0.542,8.15-1.494,14.541-0.899c1.257-0.368,6.242-1.286,10.906-0.72c-0.02,0.238-3.185,0.164-3.634,0.36
				c6.632,0.117,9.677-0.122,12.722-0.36c-1.81,0.807,4.64,1.516-1.814,1.8c7.909,0.536,19.27,0.731,23.628,1.62
				c1.428-0.399,11.252,0.034,9.088-0.72c-4.143-0.247-6.829,0.464-7.269,0c2.401-0.002,1.662-0.315,3.634-0.36
				c5.163-0.063,6.904,0.183,8.075,0.322l0.418,0.046l0.1,0.009l0.003,0c7.796,7.795-10.618-10.62-8.722-8.722v0.001l-0.001,0.006
				l-0.001,0.013l-0.002,0.025l-0.004,0.049l-0.014,0.198c-0.015,0.266-0.017,0.541,0.002,0.868
				c0.036,0.656,0.151,1.525,0.397,2.963c-0.667,1.203-1.435,2.47-1.62,3.639c0.376,1.05-0.259,6.864-0.18,10.907
				c0.879,0.917,0.613-12.204,1.26-3.639c-0.705,4.389-0.471,10.103-0.359,16.36c-0.654,1.371-0.98,8.022-1.439,1.819
				c0.082,10.991,1.375,1.938,1.979,1.814c-0.476,2.377-0.189,9.625-0.359,10.907c-0.425-4.447-0.335,2.717-0.9,1.82
				c-0.039,7.056,0.191,11.4,0.721,12.721c0.207-3.377-0.212-11.257,0.539-12.721c-0.273,5.981,0.605,21.325-0.72,14.541
				c0.015,8.373-0.954,6.154-0.899,21.814c0.938,0.024,0.328,5.167,0.899,7.268c0.434-2.288,0.957-3.668,1.261-7.268
				c0.121,5.014,0.032,4.146,0.54,7.268c-0.577,3.876-0.255,16.819-1.261,16.36c-0.193,8.624,0.46,8.688,0.721,12.721
				c0.551-7.845,0.469-7.544,1.26-7.268c-0.742-3.422,0.217-16.454-0.72-19.994c0.343-3.407,0.452-0.2,0.899,0
				c-0.404-8.022,0.275-18.87-0.54-19.994c0.71,2.325,0.436-5.296,0.899-5.454c0.271,2.722,0.759,3.25,0.9,7.268
				c-0.674-1.361-0.877,2.051-0.9,7.272c0.412-0.508,0.678,0.439,0.721,3.634c-0.634-0.005-0.715,9.058-0.18,10.907
				c-0.664,5.809-0.391,10.678-0.721,18.18c0.682-0.996,1.191,13.278,0.361,18.175c0.171,5.217,0.596,1.184,0.719,3.634
				c-0.318,1.632-0.525,4.389-0.9,5.454c0.409,7.746,0.175,16.498,0.182,19.994c0.57-3.807,0.168,7.036-0.361,7.273
				c0.54,1.193-0.172,3.885,0,7.268c0.354,0.545,0.357-2.45,0.541-3.634c0.475,11.612,0.852,5.017,1.079,16.36
				c0.4-6.982-0.33-23.855,0.72-14.541c0.1-2.643-0.21-9.398,0.181-9.092c0.115,4.896,0.694,5.104,0.72,10.907
				c-0.34,0.41-0.396-2.046-0.72-1.814c0.44,13.089-0.62,16.745-1.261,19.994c-0.017-2.859,0.025-6.306-0.359-5.453
				c0.008,2.5-0.085,3.989-0.18,5.453c0.408,0.259,1.105,6.819,0.539,10.907c-0.682-15.697-2.595-7.071-2.699,9.087
				c0.219,0.207,0.426,0.542,0.36,3.634c0.87-4.246,1.249,6.491,2.159,7.273c0.1-3.24,0.093-7.549,0.36-9.092
				c-0.076,6.22,0.539,5.463,0.72,9.092v7.268c-0.358-3.787-0.768-0.062-0.9,3.634c0.141,0.404,0.21,1.523,0.181,3.639
				c0.524-1.617,0.621-2.322,0.899,1.814c0.053-6.331,0.487,0.153,0.541-3.634c-0.391-3.471,0.525-9.117,0.54-14.541
				c0.01,4.649,0.674,10.527,0,16.36c0.201,0.385,0.28,2.017,0.359,3.634c0.673,1.942,0.513-4.512,1.081-3.634
				c0.157,8.086,0.161,6.42,0.719,3.634c-0.236,7.302-0.957,9.723-1.439,14.541c-0.074-2.283-0.232-3.713-0.541-3.634
				c0.027,4.507,0.034,8.821-0.359,9.087c-0.057-7.187-0.557,1.346-0.72-3.634c0.22-0.207,0.426-0.542,0.36-3.639
				c-0.375-1.065-0.582-3.816-0.9-5.449c-0.282,2.601-0.142,9.472-0.721,9.087c-0.209-0.306-0.195-2.875-0.18-5.453
				c-0.678,0.335-0.818,3.259-1.08,3.634c0.488,1.607-0.151,8.067-0.359,3.634c-0.234,4.517,0.527,7.544,0,9.092
				c-0.457-3.313-0.955-11.878-0.36-10.907c-0.14-0.399-0.209-1.523-0.181-3.639c-0.629-0.306-0.566,6.395-0.899,9.092
				c1.197-0.838,0.499,7.44,1.261,9.087c-0.418,4.388-0.482-2.84-0.9-3.634c0.256,5.582,0.08,8.17-0.18,12.721
				c0.266,0.947,0.453,2.689,0.719,3.634c0.25-1.114,0.027-6.997,0.361-7.268c0.282,6.646,0.269-4.226,0.719-1.82
				c-0.6,8.377,1.074-0.596,1.08,3.634c-0.734-0.547,0.031,2.52-0.18,7.273c0.814-5.035,0.986,5.468,1.26-3.634
				c0.164,3.802,0.532,5.542,1.081,5.454c-0.149,5.138,0.253,4.708,0.179,9.087c-0.945,0.355-0.875,9.272-1.799,5.453
				c-0.289,7.15,0.777,0.631,0.72,5.454c-0.046,4.699-0.442,17.169,0.18,23.628c-0.956,0.567-0.251,6.077-0.18,10.907
				c-0.345,0.764-0.774,0.656-0.72,5.454c-0.056,5.68,0.52-4.621,0.539,1.814c-0.287,4.97-1.098-4.241-1.439,1.819
				c0.246,2.534,0.389,8.969,0.18,10.906c0.85,0.008,0.133-7.302,0.54-9.087c-0.03,4.546,0.276,5.69,0.54,7.268
				c0.071-3.126-0.268-4.659,0-5.453c0.611-0.113,0.989,2.135,1.261,5.453c-0.031-4.546,0.276-5.689,0.54-7.268
				c-0.027,5.727,0.729,3.535,0.9,7.268c0.029-2.717-0.065-6.706,0.18-7.268c0.21,3.693-0.096,7.421,0.539,3.634
				c0,8.48,0.155,15.398,1.08,14.541c0.258-4.743,0.699-5.718,1.44-3.634v-7.273c-0.686-1.992-1.124,4.808-1.261-1.814
				c0.88-8.781-0.824-13.851-0.18-19.994c0.357,0.02,0.229,4.956,0.721,3.634c0.164-8.405-0.814-14.706-0.181-21.814
				c-0.064,10.683,0.448,1.44,0.9,1.819c0.212,0.878,0.407,1.938,0.54,3.634c-0.01,2.322-0.23,2.52-0.18,5.453
				c0.506,4.975,1.692,4.926,1.799-3.634c-0.238-4.453-0.668,1.997-0.72-1.819c0.526-2.939,0.198-4.472,0.181-10.907
				c0.45,0.227,0.563,3.471,0.72-1.814c-0.212-0.286-0.511,0.311-0.54-1.82c0.122-4.223,0.598-4.867,0.72-9.087
				c-0.33-2.921-0.608,1.677-0.899-3.639c0.262-4.265,0.447-4.068,0-7.268c0.896-9.235,0.096-13.463,1.26-19.994
				c-0.574,1.553-0.684-1.583-0.9-3.634c0.246,7.869-0.98,12.489-1.619,10.902c0.012,6.794-0.29,10.406-0.721,12.726
				c-0.021-5.236,0.099-11.898-0.18-14.541c0.213-4.517,1.139-1.825,1.26-7.273c-0.396-1.45-0.719-3.651-0.72-9.087
				c0.487-2.958,1.222-3.417,1.439-9.087c-0.718-1.8-0.542,5.434-1.26,3.634c0.107-3.234-0.527-7.549,0-9.087h0.36
				c0,1.825-0.146,2.165-0.18,3.634c1.175-1.955-0.194-13.032-0.721-14.541c0.055,7.421-0.376,0.971-0.72,1.819
				c-0.04,1.41-0.005,3.585-0.181,3.634c0.328-6.213,0.093-9.914-0.18-14.541c0.556-2.495,2-16.604,3.42-16.36
				c-0.287,6.184-0.838,9.714-0.899,18.175c1.052-2.135,0.997,6.894,1.8,7.273c0.078-3.461,0.388-4.566,0.359-9.087
				c-0.503-5.33-1.432,4.872-1.26-7.273h0.721c0.173-6.592-0.809-1.523-0.721-7.268c1.219,1.652,0.213-12.135,0.9-12.727
				c0.123,5.71-0.02,7.431,0.18,9.087c0.5-2.717-0.313-7.431,0.18-9.087c0.376,7.865,0.903-3.244,0.9,3.639
				c0.447,0.271,0.747-0.942,0.9-3.639c-0.253-0.473-0.205-3.984-0.36-5.453c-0.659,1.346-1-4.467-1.44,0
				c0.236-10.407-0.51,0.463-0.72-5.454c0.294,1.326,0.783-3.609,0.36-3.634c-0.203,4.25-1.188,1.257-1.26-1.819
				c0.384-3.999,1.137-4.266,1.8-5.449c-0.06-6.439-0.495-4.472-0.181-10.907h-0.72c-0.047,5.32,0.407,5.582,0.36,10.907
				c-0.358-4.413-0.77,3.067-0.9-3.639c0.321-6.661,0.42-13.875,0.18-21.809c0.248,0.079,0.396-0.858,0.541-1.819
				c-0.284,2.702-0.201,8.121,0.359,7.273c-0.148-5.138,0.254-4.709,0.18-9.092c-0.732,0.734-0.709-6.159-1.08-9.087
				c-0.723-2.204-1.316,4.813-1.439-1.819c0.448-3.343,1.434-1.272,1.62-7.268c-0.7,1.509-1.259-7.746-0.9-10.907
				c0.149,7.854,1.191,7.011,1.44,5.453c-0.342-7.46-1.346-8.227-1.98-12.721c0.885,3.481,0.482-6.045,1.08-5.454
				c-0.688-4.763-0.262-11.651-0.54-18.18c-0.313,7.737-1.185,9.847-1.979,12.727c0-1.825-0.146-2.165-0.18-3.639
				c0.695-1.144,2.075-7.583,1.26-12.721h1.26c0.279-6.459-0.611-1.1-0.539-5.454c0.626-0.532-0.016-4.916,0.359-5.453
				c0.191,1.696,0.057,6.706,0.539,5.453c0.093-7.596-0.1-12.317-0.359-16.36c0.506-0.34,0.492-5.932,0.9-7.268
				c0.625-1.459,0.691,2.707,1.26,1.814c0.135-8.412-0.688-2.524-0.721-5.453c0.002-1.82-0.146-2.16-0.18-3.634
				c0.341-0.409,0.398,2.049,0.721,1.819c0.016-4.96-0.301-3.659,0-7.273c-0.723,0.02-0.645-8.042-1.08-10.907
				c0.176-2.456,0.479-3.629,0.72-5.453c0.148,5.135-0.254,4.708-0.181,9.092c0.596-5.429,0.762-16.579,0.809-28.067l0.018-8.596
				v-1.059V16.45v-0.263v-0.131V16.04c1.225,1.215-10.648-10.653-5.631-5.628h-0.032h-0.065l-2.078,0l-4.031,0
				c-5.241-0.002-9.894-0.014-13.286-0.073c-2.697,0.995-15.705-0.375-23.628,0.54c-3.541-0.43-12.564-0.316-9.088-1.44
				c-3.165-0.013-5.655,0.041-7.272,0.18c0.029,0.538,4.724,0.612,5.453,1.08c-4.859-0.557-10.429,0.351-18.175-0.359
				c-0.311,0.27,0.646,0.664-1.819,0.72c-1.538-0.527-5.853,0.107-9.088,0c0.883-0.212,1.938-0.408,3.635-0.54h5.453
				c-2.128-0.471,5.606-0.774-1.819-0.72c-3.097,0.074,0.385,0.232,0,0.54c-6.232-0.395-11.755,0.561-14.541,1.08
				c-4.763-0.259-7.563-0.584-10.907-0.54c7.308-0.094,2.042-0.439,5.454-0.721c0.207,0.22,0.545,0.427,3.639,0.36
				c-1.391-1.174,9.926-0.627,12.722-1.979c-6.025-0.134-7.885-0.552-10.907-0.54c1.109-0.011,2.154-0.027,1.819-0.18
				c-12.125-0.001-9.813,1.428-16.36,1.98c-2.436-0.958-9.955,0.511-16.357-0.18c-6.97,1.858-15.793,0.577-23.631,1.8
				c8.306,0.109,3.597,1.699,5.453,2.34c-0.788-0.583-6.116-0.714-9.09-1.081C379.491,13.315,386.912,13.12,385.929,13.758z
				 M405.923,11.418c-1.036,0.336-14.26,0.668-14.541-0.18C399.579,11.206,400.457,11.018,405.923,11.418z M522.256,11.238
				c0.127,0.031,2.006,0.382,3.822,0.866c0.908,0.242,1.801,0.516,2.45,0.8l0.438,0.214l0.048,0.027l0.011,0.006l0.006,0.003
				l0.002,0.001c5.751,5.751,1.594,1.595,2.877,2.879l-0.002,0.003l-0.013,0.022l-0.054,0.086l-0.108,0.147
				c-0.144,0.176-0.286,0.262-0.425,0.231l-0.02-0.372l-0.005-0.093l-0.001-0.023v-0.003c-4.496-4.497-1.248-1.247-2.253-2.25
				l-0.005,0l-0.012,0l-0.047,0.002l-0.185,0.01l-0.735,0.04l-1.476,0.079c-0.994,0.051-2.021,0.1-3.145,0.139
				c-2.248,0.077-4.887,0.116-8.443,0.063c1.543,0.267,4.576,0.387,9.088,0.36c5.796,0.469-11.307-0.113-9.088,0.18
				c-1.528-0.374-6.903-0.759-3.634-1.08c-3.802-0.076-4.815,0.124-7.273,0.18c-0.081,0.308,1.352,0.466,3.64,0.54
				c-2.214,0.544-7.264-0.096-7.273-0.36c-5.443,0.118,1.741,0.385,0,0.72c-3.323-0.222-14.693-0.572-10.906,0
				c-2.875,0.446-9.769-0.218-9.088-0.72c3.797,0.076,4.813-0.123,7.269-0.18c1.598-0.578-4.714-0.373-5.449-0.72
				c-2.505,0.179,0.774,0.296-3.639,0.54c-6.064-0.192-0.113-0.546-3.634-1.08c4.714,0.312,13.199,0.252,14.541,0.899
				c2.386-0.216,2.859-0.07,5.453,0c0.029-0.263-7.667-0.57,0-0.54c-0.563-0.245-4.551-0.149-7.272-0.181
				c-1.322-0.491,3.614-0.362,3.639-0.719c3.234,0.132,0.261,0.327,0,0.54c3.648,0.061,5.685-0.037,5.453-0.36
				c3.989,0.202,3.989,0.698,0,0.9c1.016,0.259,2.835,0.439,5.453,0.54c6.436-0.06,4.465-0.496,10.902-0.18
				c-5.937-0.353,0.597-0.899-5.448-1.08c2.268-0.506,7.442-0.595,12.721-0.36C522.902,11.902,521.945,11.507,522.256,11.238z
				 M476.814,11.598c0.346-0.204,1.824-0.1,1.814,0c5.883,0.223,1.388-0.582,7.273-0.36v0.72
				C480.108,12.111,479.004,11.801,476.814,11.598z M532.568,169.21c-0.376-2.707-0.676,1.814-0.899,1.819
				c-0.702-4.896,0.558-5.103,0.359-10.907C532.183,163.417,532.492,165.132,532.568,169.21z M420.466,12.677
				c-3.563,0.336-0.563,0.659,0,1.081h-5.453c3.77-0.765-0.008-0.303-5.454-0.18C412.899,13.249,415.703,12.866,420.466,12.677z
				 M440.46,12.858c0.06,0.326-9.146,0.626-9.087,0.359C429.504,12.613,437.023,12.938,440.46,12.858z M532.209,225.559h-0.54
				c0.005-1.77,0.22-1.41,0.359-1.819c-0.005-1.765-0.22-1.41-0.359-1.814c0.015-2.88-0.087-6.938,0.181-7.273
				C531.942,210.86,531.869,222.235,532.209,225.559z M531.129,318.257c0.787,2.554-0.027,7.356-0.36,9.092
				c0.239,5.458,0.497,10.734,0.9,14.541c-0.263,3.698-0.94-3.713-1.44-3.639c0.132-1.696,0.327-2.751,0.54-3.634
				c-0.056-2.466-0.45-1.509-0.72-1.814c0.031-5.636,1.223-10.961,0.36-14.546c0.179-2.429,0.485-3.565,0.54-7.268
				c0.424,0.493,0.109,8.047-0.181,7.268C530.771,321.042,531.26,324.23,531.129,318.257z M531.129,223.739
				c-0.396-2.056-0.013-11.992-0.54-12.722C530.905,207.739,531.613,217.945,531.129,223.739z M449.548,14.838
				c-1.371-1.122,12.144,0.167,9.087-0.9c4.664,0.019,2.924,0.671,5.453,0.9c5.725,0.087,4.117-0.553,10.907-0.36
				C472.219,16.017,460.997,14.123,449.548,14.838z M418.646,14.118c2.697,0.079-0.715,0.23,0,0.54
				c5.017-0.103,6.38-0.567,12.727-0.54c-1.114,0.61-8.069,0.641-10.907,1.08c-2.702-0.212-8.121-0.155-7.272-0.72
				C416.305,14.485,417.902,14.343,418.646,14.118z M395.019,14.298c-0.021,0.782,3.616,1.202,5.453,1.8
				c-7.869-0.341-7.717-1.004-9.09-1.62c-1.849,0.117-1.879,0.414-5.453,0.36C385.098,14.275,389.813,14.263,395.019,14.298z
				 M525.188,71.054c-0.026-4.053-0.454,2.361-0.899,0c-0.366-0.553,0.037,5.251,0.18,5.453c-0.119,5.443-0.385-1.735-0.721,0
				v-9.087c0.838,1.543,1.195-6.05,1.98-3.634c-0.522-8.175,0.261-10.65,0.54-19.994c-0.079-1.618-0.158-3.254-0.359-3.634
				c-0.528,1.536,0.106,5.848,0,9.087c-0.716-0.562-0.975,3.491-0.9,10.907c-0.109,3.136-0.854-0.146-0.9,3.634
				c-0.651-4.601,0.058-17.642,0.36-23.628c-0.822-5.434,0.326-20.152-0.721-21.813c0.115-4.442,0.842-0.276,0.9,1.814
				c0.12-0.906,0.209-2.134,0.313-3.202l0.082-0.764l0.011-0.089l0.006-0.044l0.003-0.021v-0.003v-0.001
				c7.935,7.934,2.199,2.199,3.97,3.97l-0.006,0l-0.011-0.001l-0.169-0.023l-0.313-0.048c-0.395-0.066-0.689-0.142-0.823-0.233
				c-8.87,0.248,2.953,0.742-1.819,1.081c-1.386-0.124-5.77-0.759-5.454,0c-7.021-0.53-8.367-0.351-14.54-0.36
				c3.052-0.659-12.652-2.069,3.634-2.701c-0.449-0.195-3.614-0.122-3.634-0.359c-2.697,0.153-3.91,0.453-3.635,0.9h-9.092
				c-1.321-0.491,3.614-0.362,3.639-0.72c-7.229,0.157-9.132,0.157-16.36,0c-3.22-0.881-16.133-0.803-16.36-1.98
				c5.37,0.518,14.329,1.104,19.994,0.18c3.008-0.021,6.263,1.109,7.273,0.18c2.688,0.449,6.121,1.265,14.541,0.54
				c-0.846,0.563,1.577,0.803,7.268,0.719c-2.199-0.561-8.21-0.747-7.268-1.62c4.213-0.057,6.977,0.029,9.087,0.18
				c0.267-0.506-4.455-0.519-9.087-0.541c6.252-0.918,14.397,0.606,16.359,1.261c1.731-0.169,2.873-0.174,4.146-0.134
				c0.637,0.02,1.308,0.051,2.101,0.078c0.295-1.003,0.038,1.212,0.105,1.941c-0.114-1.267-0.335-1.464-0.529-1.928l-0.071-0.189
				l-0.034-0.109l-0.017-0.059l-0.004-0.015l-0.002-0.008l-0.001-0.002v-0.001c-0.235-0.236,2.051,2.05,1.083,1.083l-0.004,0.001
				l-0.032,0.008c-0.17,0.043-0.377,0.083-0.644,0.116c-0.531,0.067-1.297,0.112-2.463,0.116c0.254,0.185,1.468,0.274,2.92,0.341
				l0.137,0.006l0.069,0.003h0.009l0.004,0h0.002c-0.746-0.747,1.675,1.672-1.674-1.675v0.017l-0.002,0.035l-0.012,0.279
				l-0.022,0.568l-0.044,1.144c-0.03,0.755-0.063,1.479-0.109,2.082c0.164,4.965,0.403-5.527,0.721,0
				c-0.459,4.462-0.383,14.314-1.08,16.36c0.101,2.618,0.281,4.438,0.541,5.453c-0.143,6.814-0.631,0.114-0.9,3.634
				c0.31,13.663-0.254,14.92,0,27.267c-0.348-0.74-0.143-7.046-0.721-5.454c-0.208,3.738-0.035,9.477,0,14.541
				c-0.695,1.583-0.641-4.438-1.08-5.454C524.75,73.886,524.93,72.074,525.188,71.054z M530.229,63.786
				c-0.034,2.061-0.18,1.006-0.18,0c-0.347,0.74-0.143,7.046-0.721,5.453C529.315,63.788,529.858,60.011,530.229,63.786z
				 M530.049,316.442c-0.393,3.799,0.09,5.187,0,10.907c-0.471,0.513-0.774-0.666-0.721-5.454c0.725,1.055-0.089-5.379,0.181-10.907
				C529.939,310.269,529.409,319.268,530.049,316.442z M529.328,176.483c0.196,0.449,0.123,3.609,0.36,3.634
				c-0.231,8.584-1.575-2.973-1.08-7.273c-0.384-0.848-0.343,2.599-0.36,5.454c-0.236-0.641-0.282-3.2-0.539-3.634
				c0.003-4.985,0.849-4.319,1.08-1.82C528.275,175.649,529.141,181.557,529.328,176.483z M425.917,16.278
				c3.538,0.683,5.673,0.386,12.724,0.18c2.825,0.26,4.866,0.598,9.087,0.719c-2.386,0.559,0.493,0.514,0,1.261
				c-5.246-0.286-6.69,0.135-10.901,0.18c-5.38-0.351-3.491-1.232-3.639-1.44C430.476,16.906,425.042,16.904,425.917,16.278z
				 M453.182,16.458c5.325,0.162,5.584,0.162,10.906,0c-2.051,0.336-2.149,0.867-9.087,0.719
				C453.591,17.018,453.048,16.771,453.182,16.458z M528.608,140.128c-0.002,3.607-0.491,2.313-0.36,7.268
				C527.654,145.417,528.057,134.576,528.608,140.128z M528.429,372.791c-0.665,1.267-0.796-2.88-0.72-9.093
				C528.187,364.33,528.316,368.472,528.429,372.791z M527.709,314.623c-0.779-4.502-0.4-7.86-1.44-3.634
				c0.337-4.482,0.858-7.081,0.899-14.541C527.49,303.104,528.017,306.004,527.709,314.623z M527.529,107.408
				c-0.076,3.477-0.066,7.825-0.541,7.273C526.664,111.564,527.044,107.531,527.529,107.408z M527.168,169.21
				c-0.271,1.583,0.051,2.719-0.18,7.273h-0.359c0.033-1.548-0.07-1.716-0.18-1.819c0.308-2.337,0.488-5.976,0.539-10.907
				c0.416-0.557,0.2,5.251,0.541,5.454C527.484,171.495,527.171,171.044,527.168,169.21z M526.988,81.96
				c0.553,1.785-0.207,4.852-0.18,7.273c-0.229-3.151-0.608-4.763-0.54-10.907C526.586,77.804,526.826,86.886,526.988,81.96z
				 M526.449,140.128c0.209,0.296,0.32-0.404,0.359-1.819c0.195,0.449,0.123,3.614,0.359,3.634
				c-0.291,3.151-0.494,12.643-1.08,7.273C526.367,148.417,526.818,147.48,526.449,140.128z M465.907,18.078
				c-4.388,0.497-2.874,0.411,1.815,0.72c5.468,0.349-6.232-0.315-5.449,0.359c-2.515-0.186-8.648-0.73-7.272,0.181
				c-5.692,0.083-8.116-0.157-7.273-0.72c3.097,0.066,3.433-0.14,3.64-0.36C460.913,18.523,458.808,18.58,465.907,18.078z
				 M526.809,107.408c-0.145-0.961-0.292-1.893-0.54-1.814c0.095-1.464,0.188-2.954,0.181-5.453
				C527.01,99.287,527.092,104.711,526.809,107.408z M387.748,18.258h5.451c-3.405,0.343-0.197,0.452,0,0.899
				C387.687,19.224,389.427,18.571,387.748,18.258z M405.923,18.618c2.589,0.22,4.132,0.687,1.819,0.9
				c-5.542,0.071-9.255-0.473-10.907,0.18c-7.282-0.231,0.498-0.372,0-0.899C400.003,18.746,406.588,19.372,405.923,18.618z
				 M444.094,19.697c0.745,0.434-3.318,0.392-1.819,0.9c-6.1-0.165-0.897-0.334-1.814-0.9c-7.364-0.248-5.749,0.391-10.906,0.36
				c0.665-0.546-5.925-0.374-9.088-0.54C426.223,18.718,438.689,19.016,444.094,19.697z M525.369,241.919
				c-0.412-3.73-0.424-11.479-0.721-16.36c0.551,1.312,0.656-1.859,1.08-1.819C525.308,231.313,525.065,232.871,525.369,241.919z
				 M525.188,147.396v7.272c-0.478-0.628-0.606-4.773-0.72-9.087C524.792,145.35,524.848,147.806,525.188,147.396z M407.742,20.058
				c7.193-0.232,3.71,0.593,10.904,0.36c-1.58,0.263-2.72,0.57-7.271,0.54C412.737,20.403,405.109,20.738,407.742,20.058z
				 M524.289,169.21v10.907c-0.16-1.415-0.406-1.953-0.721-1.819C523.582,172.97,523.634,168.051,524.289,169.21z M445.913,22.578
				c2.317-0.468,3.989-0.542,1.814-1.08c3.47-0.338,3.289,0.107,9.093,0c-2.892,0.375-3.663,0.958-5.453,1.44h3.634
				C452.067,23.5,449.247,22.568,445.913,22.578z M260.51,23.118c-5.678,0.083-5.813-0.384-5.454-0.9
				c8.343-0.166,8.782,0.451,16.36,0.36C270.798,23.521,259.671,21.761,260.51,23.118z M521.229,56.513
				c-0.118,6.671,0.012,6.967-0.54,10.907c-0.493-1.642,0.352-6.691-0.36-7.268C520.48,57.45,520.908,57.519,521.229,56.513z
				 M521.229,85.599c-0.021,4.635-0.033,9.349-0.54,9.087C520.961,89.43,520.426,86.398,521.229,85.599z"/>
			<path class="st0" d="M416.829,26.538c-0.396,0.659-2.497,0.69,0,1.26c-7.551,0.032-9.994-0.312-14.54,0.18
				c-5.684-0.291,3.728-0.571,3.634-0.9c-5.138-0.032-4.233,0.677-9.088,0.18c3.903-0.176,7.727-0.833,12.724-0.36
				c-1.412-0.16-1.955-0.407-1.816-0.721C411.208,26.254,411.031,26.692,416.829,26.538z"/>
			<path class="st0" d="M519.608,40.157c-0.095,1.459-0.188,2.949-0.18,5.449c-0.285,0.153-0.687-0.873-0.72,1.819
				C518.383,45.936,519.08,33.402,519.608,40.157z"/>
			<path class="st0" d="M535.089,196.477c-0.101-4.107-0.281,2.204-0.54-1.819c0.14-1.618,0.193-4.107,0.18-7.273h0.721
				c-0.006,1.77-0.221,1.41-0.36,1.819c0.702,6.242-0.868,16.577,0.36,16.36c0.029,3.939-0.639,0.823-0.9,1.814
				C534.64,202.845,534.889,199.911,535.089,196.477z"/>
			<path class="st0" d="M534.009,441.861c0.538-13.757-1.387-14.896-0.54-32.721c0.909-6.056,1.928,15.689,1.08,14.546
				c0.14,1.617,0.193,4.102,0.18,7.268c0.051,3.816,0.481-2.633,0.721,1.819c-0.362,5.434-0.68,11.316-1.44,12.722
				c0.099-3.728-0.343-4.334-0.36-1.814C533.086,441.368,534.018,434.795,534.009,441.861z"/>
			<path class="st0" d="M158.253,713.829c-0.229,0.322,2.226,0.379,1.819,0.72c-2.663-0.157-5.761-0.27-5.453-0.72
				c4.378,0.073,3.949-0.329,9.087-0.181C163.414,713.859,160.394,713.801,158.253,713.829z"/>
			<path class="st0" d="M11.418,629.498c0.27,2.729,0.541,5.438,0.9,7.271c-0.064,2.389-0.317,2.859-0.36,5.453
				C11.94,639.476,11.531,635.991,11.418,629.498z"/>
			<path class="st0" d="M531.669,383.692c-0.051,4.298-0.481-2.08-0.72-1.814c0.955-5.157-0.588-4.26,0.359-7.272
				c-0.355-3.067-1.123-1.984-1.62-3.634c-0.033-1.544,0.07-1.716,0.181-1.819v-3.635c0.798,7.673,1.408,1.919,2.52,3.635
				c-0.074,6.558,0.328,2.494,0.18-1.814c0.844,3.131-0.086,6.745,0,12.721C532.274,377.712,531.179,379.654,531.669,383.692z"/>
			<path class="st0" d="M531.309,541.832c0.151-5.143,0.707-6.188,1.08-9.088c-0.481-1.198-0.539-6.676-0.9-9.087
				c0.258-0.71,0.304-2.185,0.54,0c-0.441-4.877-0.06-9.96-0.72-14.541c0.026,2.416-0.605,6.76-0.18,7.268
				c0.01-1.908,0.23-1.43,0.18,1.82c-0.704,2.869-0.373-4.719-0.72-5.454c-0.39,3.94-0.259,4.235-0.54,10.907
				c0.248-0.079,0.396,0.853,0.54,1.814c-0.189-6.375,0.606-1.504,0.72,0c-0.053,1.119-0.447,7.002,0,7.272
				c0.002-1.834,0.315-2.287,0.36,0c-0.661,0.868-1.018,0.888-1.8,3.635c0.553-4.941-0.627-8.861,0-14.541
				c-0.486-3.58-0.995-6.918-1.08-14.541c-0.578-1.593-0.373,4.714-0.721,5.453c0.001-1.824-0.146-2.164-0.18-3.634
				c0.64,2.825,0.109-6.173,0.54-5.453c0.772-1.282,1.178-6.289,1.62-10.907c-0.479-1.819-0.594-7.337-0.9-10.906
				c0.213,2.096,0.637,2.056,1.08,1.819c-0.058-8.146-1.18-5.422-1.439-1.819c-0.419-4.985,0.044-7.602-0.721-9.088
				c-0.208,3.8,0.084,6.829-0.539,9.088c-0.031-2.12-0.285-1.973-0.541-1.819c0.148-5.134-0.254-4.709-0.18-9.088
				c0.434-0.744,0.391,3.318,0.9,1.819c-0.145-6.43,1.144-19.156,0.18-23.628c-0.025,2.983-0.349,10.01-0.9,12.722
				c0.561-8.556-0.459-4.335-0.359-12.722c0.309-0.72,0.461,2.697,0.539,0c-0.297-0.029-0.1-5.044-0.359-5.453
				c0.049,6.558-0.711,4.926-0.721,10.901c1.135,4.206-0.263,11.711,0.541,18.18c-0.5,1.622-1.332,3.812-1.62-3.634
				c0.478-0.029,1.06,1.006,1.079-3.639c-0.282-0.173-0.623,0.246-0.539-3.634c-0.641,1.913-1.089,5.436-1.801,1.819
				c0.158-3.205,0.604-5.634,0-7.273c0.158,5.838-0.593,2.488-0.539,7.273c0.692,1.656,0.002,10.559,0.359,14.54
				c-0.076-2.929,0.672-6.099,0.721-1.819c-0.508,1.549-0.738,5.873-1.439,5.454c0.045,8.012,0.551,11.39,0.359,21.813
				c-0.23-0.104-0.249-2.332-0.541-1.819c-0.093,2.689-0.266,4.578-0.359,7.272c0.807,0.878,0.805-6.425,1.439-7.272
				c0,1.824,0.146,2.164,0.181,3.634c-0.798,5.675,0.097-0.582,0.36,3.639c-0.709,2.157,0.153,9.645-0.36,14.541
				c0.546,3.994,0.495,3.491,0.899,7.268c-0.414,1.716-0.58,0.121-1.26,1.819c0.472,5.543,0.713,13.417,0.9,21.814
				c-0.816,6.276-1.741-3.64-1.98-3.64c-0.031-2.46,1.043-2.352,0.361-5.453c-0.178,5.094-0.481-2.641-0.721,1.819
				c-0.191,6.775,0.379,5.868,0.539,9.088c-0.285,0.343-0.943,5.932-0.539,7.272c0.176-5.571,0.48,2.091,0.721,1.814
				c0.043-5.015,0.529-5.542,0.898-7.268c-0.199,6.514,0.345,10.502,0.181,14.541c0.073-2.283,0.232-3.713,0.54-3.635
				c-0.223,5.883,0.582,1.391,0.359,7.269c-0.228-4.581-1.025,3.474-0.539,5.453c0.074-2.283,0.231-3.713,0.539-3.634
				c-0.003,4.279,0.311,5.35,0.181,10.906c1.478,5.765,1.469,11.696,2.7,16.36c0.261-2.214,0.24-7.263,0.72-7.272
				c-0.149,7.411-0.027,6.257,0,14.541c-0.917,2.406-0.344,2.406-1.261,0c0.781,7.361-0.586,15.187,0.182,14.54
				c-0.111-0.104-0.215-0.271-0.182-1.814c0.746,0.726,0.104,5.424,0.721,5.454c0.297-2.826-0.062-7.088-0.18-10.907
				c0.366-0.542,0.479-3.644,0.72-5.453c0.073,4.664-0.052,11.202,0.72,12.721c-0.334,3.59-0.268,13.385,0.54,10.907
				c0.445-2.13-0.437-7.554,0.36-7.268c-0.334-6.869-0.061-15.571,0.72-16.36c0.249,1.114,0.028,6.996,0.36,7.268
				c-0.014-15.937-1.077-34.904-0.36-50.896c-0.575-1.824-0.515-10.059-0.899-9.087c0.127-8.668-0.151-11.972,0.359-14.541
				c0.099,7.253,0.099,5.474,0,12.727c0.64,2.825,0.108-6.174,0.54-5.453c0.213,0.877,0.408,1.935,0.54,3.634
				c-0.23,8.076-0.535,12.884,0.541,14.541c0.142-6.287-0.201-7.673-0.361-10.907c0.211-2.712,0.748-2.14,0.721-7.268
				c-0.451-2.318-0.564,0.922-0.721-1.82C532.271,550.076,531.539,540.288,531.309,541.832z M524.469,485.483
				c-0.729-4.51,0.038-7.401,0-14.541C524.84,472.506,524.659,483.595,524.469,485.483z M525.009,487.303
				c-0.181,3.027-0.832,1.287-0.9,5.453c-0.685,2.673-0.035-8.126-0.72-5.453C523.797,485.158,524.58,486.336,525.009,487.303z
				 M526.449,498.21c0.436-9.798,0.361,3.964,1.08,1.814c-0.291,2.085-0.57,7.14-0.9,3.639c-0.184,1.179-0.187,4.176-0.541,3.634
				C526.064,503.653,527.312,498.846,526.449,498.21z M526.809,592.728c0.145-0.962,0.292-1.894,0.541-1.82
				c0.005,8.307-0.633,0.092-1.081,1.82v-5.454C526.752,586.021,526.617,591.031,526.809,592.728z M526.449,487.303
				c-0.125,3.59-0.48,4.847-0.9,5.453c0.088-5.705-0.62-4.803-0.18-9.087C525.745,484.714,525.883,488.176,526.449,487.303z
				 M526.088,552.738c0.078,3.802-0.123,4.811-0.179,7.273c-0.317-0.439-0.411-3.131-0.36-7.273H526.088z M525.909,585.459h-0.721
				v-7.272C525.456,580.331,525.993,579.759,525.909,585.459z"/>
			<path class="st0" d="M526.269,607.268c-0.511-0.315,0.218,11.894-0.54,9.088c-0.145-6.302,0.268-6.987,0.181-12.722
				c0.318,6.119,1.038-1.228,1.62,3.634C527.385,614.289,526.478,613.22,526.269,607.268z"/>
			<path class="st0" d="M530.949,458.221c0.07-4.358-0.82,1.006-0.54-5.453c0.61,2.673,0.681-5.222,1.44-3.634v7.268
				c-0.231,2.524-0.85,1.114-1.081,3.634C530.491,459.074,530.757,458.143,530.949,458.221z"/>
			<path class="st0" d="M142.361,13.397c-3.178,0.646-6.511,1.275-14.541,1.44C132.537,14.345,134.448,13.574,142.361,13.397z"/>
			<path class="st0" d="M529.328,461.855h1.081v7.272c-0.304-2.273-0.999-9.861-1.261-1.819c-0.365-1.942,0.32-10.778-0.359-12.727
				C528.9,450.717,529.573,456.15,529.328,461.855z"/>
			<path class="st0" d="M529.509,407.326c0.283-6.646,0.269,4.218,0.72,1.814c0.038,3.111-0.307,4.709,0,5.453
				C529.679,418.514,529.989,407.888,529.509,407.326z"/>
			<path class="st0" d="M16.818,269.6c0.398,2.618-0.227,4.435,0.18,5.454c-0.274,1.008-1.119,3.77-1.08-3.637
				c0.632,3.38,0.591-1.38,1.08-3.636C17.274,268.742,17.009,269.679,16.818,269.6z"/>
			<path class="st0" d="M16.098,116.914c0.002-2.784,0.491-5.974,0.36,0c0.422-0.58,0.676-2.87,1.259-1.817
				c0.023,3.259-0.22,3.833-0.18,7.27C17.212,118.99,16.628,118.216,16.098,116.914z"/>
			<path class="st0" d="M17.358,93.286c-0.34-0.202-0.125-6.01-0.54-5.453c0.115-3.688,0.841-1.198,0.899-5.454
				C17.974,86.597,17.239,86.669,17.358,93.286z"/>
			<path class="st0" d="M389.099,707.349c-4.775-0.682-12.361-0.512-12.724,0.541c-2.579-0.016-5.147-0.031-5.453,0.179
				c-5.111-0.27,6.344-1.339-1.817-0.54c-1.181-0.633,10.375-1.115,18.178-1.08C384.192,707.12,388.354,706.733,389.099,707.349z"/>
			<path class="st0" d="M18.078,131.455c-0.5-4.344,0.406-10.236,0.72-16.357c0.405,7.909,0.599-2.042,1.44,0
				c-0.226,7.418-1.021,9.084-1.26,16.357c-0.316-1.659-0.626-3.377-0.54-9.087C17.912,125.301,18.367,128.124,18.078,131.455z"/>
			<path class="st0" d="M189.62,18.258c0.037-0.346,11.016,0.364,19.995,0c-3.77,0.347,0.621,1.501-7.271,1.439
				c1.541,0.528,5.853-0.107,9.087,0c-1.312,0.551,1.859,0.657,1.819,1.081c-6.861,0.133-6.053-0.76-16.36-0.72
				c1.696-0.673-7.704-1.031,0-1.26C195.311,18.534,194.169,18.227,189.62,18.258z"/>
			<path class="st0" d="M358.198,705.549c-1.578,0.696,3.042,0.778,5.453,1.079c-5.774,0.502-11.676-0.516-14.541-0.899
				C350.368,705.487,353.957,705.817,358.198,705.549z"/>
			<path class="st0" d="M227.792,18.258c2.603,0.523,1.393,0.203-3.637,0.18c4.862,0.417,5.547,1.593,12.724,1.259
				c0.363,0.928-12.12,1.783-16.357,0.721c1.472,0.034,1.812,0.18,3.634,0.18c4.852-0.299,1.97-0.483,5.454-1.08
				c-3.785-0.225-7.665-0.44-10.904-0.72C219.959,18.442,223.551,18.318,227.792,18.258z"/>
			<path class="st0" d="M524.828,381.878c0.75,0.311,0.924,6.425,1.081,12.722h-0.9c0.126-5.592,0.126-3.491,0-9.087
				c-0.309-0.312-0.708,10.31-0.72,1.819C524.772,388.584,524.637,383.572,524.828,381.878z"/>
			<path class="st0" d="M523.389,314.623c0.051-2.934-0.17-3.131-0.18-5.454c-0.256-0.153-0.51-0.301-0.541,1.819
				c-0.52-2.914-0.217-6.794,0-10.907c0.846,9.565,1.269,14.654,2.881,9.087c0.135,6.213-0.731,2.313-0.54,9.087
				c-0.745-7.478-1.38-0.752-2.341,0C522.695,314.899,523.278,317.143,523.389,314.623z"/>
			<path class="st0" d="M524.289,332.803c-0.035,2.061-0.182,1.006-0.181,0c-0.345,0.764-0.774,0.656-0.72,5.448
				c-0.574-10.079-1.066,0.355-1.26-14.541c0.876-4.524,0.655,1.82,1.439-3.634c0.283,0.513-0.053,12.731,0.36,9.087
				C524.124,329.612,524.051,332.778,524.289,332.803z"/>
			<path class="st0" d="M523.568,523.657c0.5-5.409-0.313,5.961,0.18,5.453c-0.026,4.521-0.609,0.527-0.719,0
				C522.974,524.919,523.549,527.089,523.568,523.657z"/>
			<path class="st0" d="M23.118,645.858c-0.283-13.777-1.086-22.601-1.08-34.538c1.058-0.375,0.719,13.338,1.8,12.724
				c-0.053,7.204,0.22,11.109,0.54,14.544c0.088,4.127-0.994,5.438-0.54,7.271C23.794,650.545,23.528,643.36,23.118,645.858z"/>
			<path class="st0" d="M211.432,24.738c2.581,0.016,5.147,0.03,5.453-0.18c-2.934-0.606-5.754,0.566-9.087,0v-0.54
				c6.193,0.332,5.382,0.412,5.454-0.54c7.026,0.301,7.169,0.167,12.724,0.54c1.472-0.034,1.81-0.18,3.634-0.18
				c-0.466-0.374-7.985-0.05-9.087-0.36c2.714-0.548-0.597-0.7,1.817-1.08c11.646-0.537,11.575,0.862,14.541-0.181
				c2.899,0.942,4.384,2.102,1.82,2.701c-0.483-1.222-13.035-0.14-18.177-0.9c-2.468,0.056-1.509,0.451-1.817,0.72
				c3.259,0.023,3.833-0.22,7.27-0.18c0.979,0.697-4.632,0.741-5.453,1.26C217.548,25.452,212.221,25.32,211.432,24.738z"/>
			<path class="st0" d="M522.309,358.25c0.043,10.976-0.342,19.861-1.08,27.263c-0.582,2.248-0.138-5.883-0.72-3.635
				C520.719,370.064,521.121,360.188,522.309,358.25z"/>
			<path class="st0" d="M24.378,582.239c-0.499-4.059-0.796-10.133-0.9-18.178c0.429-0.333,1.154-13.555,1.44-3.634
				c0.162-3.821,0.499-5.865,0.72-9.09C25.639,558.655,24.831,573.46,24.378,582.239z"/>
			<path class="st0" d="M23.838,465.907c0.136-7.716,0.998-8.101,1.62-10.906C25.069,461.98,24.668,461.282,23.838,465.907z"/>
			<path class="st0" d="M478.629,24.197c3.422-0.442,23.396,0.705,21.813,1.44c-1.651,0.489-6.37-0.183-9.087-0.18
				C500.502,24.858,481.1,24.761,478.629,24.197z"/>
			<path class="st0" d="M282.321,27.978c-2.727-0.386-4.443,0.128-9.088-0.18c2.113-0.538-2.142-1.317,7.271-1.44
				c-1.672,0.452-3.488,1.234,3.637,1.26c0.079,0.308-1.352,0.466-3.637,0.54C278.468,28.679,278.544,27.882,282.321,27.978z"/>
			<path class="st0" d="M26.898,476.814c0.527,3.336,1.343,6.563,1.62,7.271c0.158,8.471-0.467-2.505-0.54,3.634
				C27.979,480.432,26.832,484.758,26.898,476.814z"/>
			<path class="st0" d="M27.258,449.548c-0.3-3.612,0.016-2.311,0-7.271c0.306-0.668,0.339,1.417,0.36,3.636
				c0.153,0.333,0.17-0.71,0.18-1.816C28.178,444.656,27.609,450.408,27.258,449.548z"/>
			<path class="st0" d="M27.618,82.379c0.153-0.335,0.17,0.708,0.18,1.817c0.074,4.036,0.987,1.746,0.899-1.817
				c0.781,2.628-0.189,4.061,0,10.907c-0.255-0.158-0.509-0.301-0.54,1.817C27.653,94.136,27.825,86.346,27.618,82.379z"/>
			<path class="st0" d="M28.697,425.919c-0.326-6.726,0.79-13.384,1.44-19.994c0.525,7.461,0.572,15.729,0,21.812
				C29.323,431.572,29.133,419.896,28.697,425.919z"/>
			<path class="st0" d="M349.576,11.958c4.712,0.708,8.39-0.137,12.724,0.18c1.421,1.175-8.063,0.19-3.636,1.44
				c-6.053-0.423-14.028,0.208-14.541,0.9c-4.349-0.555-8.56-0.188-16.36-0.18v-0.72c7.756-0.018,20.89-0.443,16.36-1.08
				C344.325,12.157,350.131,12.373,349.576,11.958z"/>
			<path class="st0" d="M338.204,710.049c-2.451-0.135-12.689-0.4-12.725-0.18c-3.283-0.468,0.523-0.609-3.634-1.081
				c2.877-0.015,6.933,0.087,7.271-0.18C332.339,709.069,336.438,709.443,338.204,710.049z"/>
			<path class="st0" d="M333.216,20.598c0.891,0.568-3.273,0.636-1.816,1.26c-4.204-0.496-6.023-0.112-14.541-0.181
				c-0.937-0.466-0.789-0.668-3.637-1.259C326.066,20.67,321.077,19.92,333.216,20.598z"/>
		</g>
	</g>
</g>
</svg>
