<?xml version="1.0" encoding="utf-8"?>
<!-- Generator: Adobe Illustrator 14.0.0, SVG Export Plug-In . SVG Version: 6.00 Build 43363)  -->
<!DOCTYPE svg PUBLIC "-//W3C//DTD SVG 1.1//EN" "http://www.w3.org/Graphics/SVG/1.1/DTD/svg11.dtd">
<svg version="1.1" xmlns="http://www.w3.org/2000/svg" xmlns:xlink="http://www.w3.org/1999/xlink" x="0px" y="0px" width="540px"
	 height="720px" viewBox="0 0 540 720" style="enable-background:new 0 0 540 720;" xml:space="preserve">
<style type="text/css">
<![CDATA[
	.st0{fill:#4B8795;}
	.st1{fill:#004259;}
]]>
</style>
<g id="Layer_1">
	<g>
		<polygon class="st1" points="55.358,23.337 76.063,21.463 97.147,23.336 97.174,23.338 101.475,17.994 101.487,17.979 
			101.437,17.048 111.594,23.329 111.608,23.337 132.313,21.463 153.396,23.336 153.423,23.338 157.724,17.994 157.736,17.979 
			157.686,17.048 167.843,23.329 167.857,23.337 188.562,21.463 209.646,23.336 209.672,23.338 213.973,17.994 213.985,17.979 
			213.935,17.048 224.092,23.329 224.106,23.337 244.811,21.463 265.895,23.336 265.921,23.338 270.222,17.994 270.234,17.979 
			270.184,17.048 280.341,23.329 280.355,23.337 301.06,21.463 322.144,23.336 322.171,23.338 326.472,17.994 326.483,17.979 
			326.434,17.049 336.59,23.329 336.604,23.337 357.309,21.463 378.393,23.336 378.42,23.338 382.721,17.994 382.732,17.979 
			382.683,17.049 392.839,23.329 392.854,23.337 413.558,21.463 434.642,23.336 434.669,23.338 438.97,17.994 438.981,17.979 
			438.932,17.049 449.088,23.329 449.103,23.337 469.807,21.463 490.891,23.336 490.918,23.338 495.012,18.251 494.991,18.621 
			494.853,20.666 494.848,20.734 516.609,15.509 522.577,23.964 522.495,24.66 522.431,25.369 522.383,26.072 522.352,26.77 
			522.334,27.463 522.331,28.15 522.36,29.514 522.43,30.864 522.528,32.204 523.022,37.532 523.121,38.874 523.19,40.226 
			523.221,41.593 523.218,42.282 523.2,42.977 523.169,43.676 523.122,44.382 523.058,45.093 522.967,45.871 531.989,45.534 
			532.031,45.533 532.814,40.092 533.636,34.762 537.072,13.686 537.895,8.361 538.68,2.907 494.899,5.769 494.848,5.772 
			495.023,7.757 495.136,9.592 495.195,11.366 495.206,13.117 495.173,14.885 495.126,16.041 494.691,7.944 494.689,7.903 
			480.74,5.613 438.825,8.493 438.779,8.496 438.724,13.187 438.442,7.944 438.44,7.903 424.491,5.613 382.576,8.493 382.53,8.496 
			382.475,13.194 382.192,7.943 382.19,7.903 368.242,5.613 326.327,8.493 326.281,8.496 326.226,13.194 325.943,7.943 
			325.941,7.903 311.993,5.613 270.079,8.493 270.033,8.496 269.977,13.193 269.695,7.944 269.693,7.903 255.745,5.613 
			213.83,8.493 213.784,8.496 213.728,13.193 213.446,7.944 213.444,7.903 199.496,5.613 157.58,8.493 157.534,8.496 157.479,13.19 
			157.197,7.944 157.195,7.903 143.247,5.613 101.331,8.493 101.285,8.496 101.229,13.194 100.947,7.944 100.945,7.903 
			86.998,5.613 45.082,8.493 45.036,8.496 44.937,16.865 44.937,16.893 55.344,23.329 		"/>
		<polygon class="st1" points="484.641,697.662 463.938,699.537 442.854,697.664 442.826,697.662 438.524,703.006 438.513,703.021 
			438.563,703.952 428.406,697.671 428.392,697.662 407.688,699.537 386.604,697.664 386.577,697.662 382.275,703.006 
			382.264,703.021 382.313,703.952 372.157,697.671 372.143,697.662 351.438,699.537 330.354,697.664 330.327,697.662 
			326.026,703.006 326.015,703.021 326.064,703.952 315.908,697.671 315.894,697.662 295.189,699.537 274.105,697.664 
			274.078,697.662 269.778,703.006 269.766,703.021 269.816,703.952 259.659,697.671 259.645,697.662 238.94,699.537 
			217.856,697.664 217.83,697.662 213.528,703.006 213.517,703.021 213.567,703.952 203.41,697.671 203.396,697.662 
			182.691,699.537 161.607,697.664 161.581,697.662 157.279,703.006 157.268,703.021 157.318,703.952 147.161,697.671 
			147.147,697.662 126.442,699.537 105.358,697.664 105.332,697.662 101.03,703.006 101.019,703.021 101.069,703.952 
			90.912,697.671 90.898,697.662 70.193,699.537 49.109,697.664 49.083,697.662 44.988,702.749 45.009,702.379 45.147,700.334 
			45.152,700.267 23.391,705.491 17.423,697.036 17.504,696.34 17.569,695.631 17.617,694.928 17.649,694.229 17.666,693.537 
			17.669,692.85 17.64,691.485 17.57,690.136 17.472,688.796 16.978,683.468 16.879,682.126 16.81,680.774 16.78,679.407 
			16.783,678.718 16.799,678.022 16.831,677.323 16.878,676.618 16.943,675.906 17.033,675.13 8.011,675.466 7.969,675.467 
			7.186,680.908 6.364,686.238 2.928,707.314 2.106,712.64 1.32,718.093 45.101,715.231 45.152,715.229 44.977,713.243 
			44.864,711.407 44.804,709.634 44.794,707.883 44.827,706.115 44.874,704.958 45.309,713.057 45.311,713.097 59.247,715.387 
			59.253,715.387 101.174,712.507 101.22,712.504 101.276,707.807 101.558,713.057 101.56,713.097 115.496,715.387 115.502,715.387 
			157.423,712.507 157.469,712.504 157.525,707.807 157.807,713.057 157.809,713.097 171.746,715.387 171.751,715.387 
			213.672,712.507 213.718,712.504 213.774,707.807 214.056,713.057 214.058,713.097 227.995,715.387 228,715.387 269.921,712.507 
			269.967,712.504 270.023,707.807 270.305,713.057 270.307,713.097 284.244,715.387 284.25,715.387 326.171,712.507 
			326.217,712.504 326.272,707.807 326.555,713.057 326.557,713.097 340.493,715.387 340.499,715.387 382.42,712.507 
			382.466,712.504 382.521,707.807 382.804,713.057 382.806,713.097 396.742,715.387 396.748,715.387 438.669,712.507 
			438.715,712.504 438.771,707.807 439.053,713.057 439.055,713.097 452.991,715.387 452.997,715.387 494.918,712.507 
			494.964,712.504 495.063,704.136 495.064,704.107 484.655,697.671 		"/>
		<polygon class="st1" points="4.772,46.152 6.757,45.977 8.592,45.864 10.366,45.804 12.118,45.794 13.885,45.827 15.103,45.876 
			6.944,46.285 6.904,46.287 4.613,59.288 7.493,98.347 7.497,98.393 12.082,98.443 6.944,98.701 6.904,98.703 4.613,111.704 
			7.493,150.763 7.497,150.809 12.082,150.859 6.944,151.117 6.904,151.119 4.613,164.12 7.493,203.18 7.497,203.225 
			12.078,203.275 6.944,203.533 6.904,203.535 4.613,216.537 7.493,255.596 7.497,255.641 12.082,255.692 6.944,255.949 
			6.904,255.951 4.613,268.953 7.493,308.012 7.497,308.057 12.082,308.108 6.944,308.365 6.904,308.367 4.613,321.369 
			7.493,360.428 7.497,360.473 12.082,360.524 6.944,360.781 6.904,360.783 4.613,373.784 7.493,412.844 7.497,412.89 
			12.079,412.939 6.944,413.197 6.904,413.199 4.613,426.2 7.493,465.26 7.497,465.306 12.079,465.355 6.944,465.613 6.904,465.615 
			4.613,478.616 7.493,517.676 7.497,517.722 12.079,517.771 6.944,518.029 6.904,518.031 4.613,531.033 7.493,570.092 
			7.497,570.138 12.079,570.188 6.944,570.445 6.904,570.447 4.613,583.449 7.493,622.508 7.497,622.554 12.079,622.604 
			6.944,622.861 6.904,622.863 4.613,635.865 7.493,674.924 7.497,674.97 15.865,675.062 15.892,675.063 22.328,665.363 
			22.337,665.349 20.463,646.054 22.336,626.406 22.338,626.378 16.993,622.369 16.979,622.358 16.052,622.404 22.328,612.947 
			22.337,612.933 20.463,593.638 22.336,573.99 22.338,573.962 16.993,569.953 16.979,569.942 16.052,569.988 22.328,560.531 
			22.337,560.517 20.463,541.222 22.336,521.574 22.338,521.546 16.993,517.537 16.979,517.526 16.052,517.572 22.328,508.115 
			22.337,508.101 20.463,488.806 22.336,469.158 22.338,469.13 16.993,465.121 16.979,465.11 16.052,465.156 22.328,455.699 
			22.337,455.685 20.463,436.39 22.336,416.742 22.338,416.714 16.993,412.705 16.979,412.694 16.052,412.74 22.328,403.283 
			22.337,403.269 20.463,383.974 22.336,364.326 22.338,364.298 16.993,360.289 16.979,360.278 16.052,360.325 22.328,350.867 
			22.337,350.852 20.463,331.558 22.336,311.91 22.338,311.882 16.993,307.873 16.979,307.862 16.052,307.909 22.328,298.451 
			22.337,298.436 20.463,279.142 22.336,259.494 22.338,259.466 16.993,255.457 16.979,255.446 16.052,255.493 22.328,246.035 
			22.337,246.02 20.463,226.726 22.336,207.078 22.338,207.05 16.993,203.041 16.979,203.03 16.052,203.077 22.328,193.619 
			22.337,193.604 20.463,174.31 22.336,154.662 22.338,154.634 16.993,150.625 16.979,150.614 16.052,150.661 22.328,141.203 
			22.337,141.188 20.463,121.894 22.336,102.246 22.338,102.218 16.993,98.209 16.979,98.198 16.052,98.245 22.328,88.787 
			22.337,88.771 20.463,69.478 22.336,49.83 22.338,49.802 17.253,45.988 17.621,46.009 19.666,46.147 19.734,46.152 14.509,24.391 
			22.964,18.423 23.66,18.504 24.369,18.569 25.072,18.617 25.77,18.649 26.462,18.666 27.15,18.669 28.514,18.64 29.864,18.57 
			31.204,18.472 36.532,17.978 37.874,17.879 39.226,17.81 40.593,17.78 41.283,17.783 41.977,17.799 42.676,17.831 43.382,17.878 
			44.093,17.943 44.871,18.033 44.534,9.011 44.533,8.969 39.092,8.186 33.762,7.364 12.686,3.928 7.361,3.106 1.907,2.32 
			4.769,46.101 		"/>
		<polygon class="st1" points="535.229,674.848 533.243,675.023 531.408,675.136 529.635,675.195 527.883,675.206 526.115,675.173 
			524.896,675.124 533.096,674.713 535.387,661.712 532.507,622.652 532.504,622.606 527.922,622.557 533.096,622.297 
			535.387,609.296 532.507,570.236 532.504,570.19 527.922,570.141 533.096,569.881 535.387,556.88 532.507,517.82 532.504,517.774 
			527.922,517.725 533.096,517.465 535.387,504.464 532.507,465.404 532.504,465.358 527.922,465.309 533.096,465.049 
			535.387,452.048 532.507,412.988 532.504,412.942 527.922,412.893 533.096,412.633 535.387,399.632 532.507,360.572 
			532.504,360.527 527.918,360.476 533.096,360.217 535.387,347.215 532.507,308.156 532.504,308.111 527.918,308.06 
			533.096,307.801 535.387,294.799 532.507,255.74 532.504,255.695 527.918,255.644 533.096,255.385 535.387,242.383 
			532.507,203.324 532.504,203.279 527.918,203.228 533.096,202.969 535.387,189.967 532.507,150.908 532.504,150.863 
			527.923,150.812 533.096,150.553 535.387,137.551 532.507,98.492 532.504,98.447 527.923,98.396 533.096,98.137 535.387,85.135 
			532.507,46.076 532.504,46.031 524.136,45.938 524.108,45.938 517.672,55.637 517.662,55.652 519.537,74.946 517.664,94.593 
			517.661,94.621 523.007,98.631 523.021,98.642 523.948,98.595 517.672,108.053 517.662,108.068 519.537,127.362 517.664,147.009 
			517.661,147.037 523.007,151.047 523.021,151.058 523.948,151.011 517.672,160.469 517.662,160.484 519.537,179.778 
			517.664,199.425 517.661,199.453 523.007,203.463 523.021,203.474 523.948,203.427 517.672,212.885 517.662,212.9 
			519.537,232.194 517.664,251.841 517.661,251.869 523.007,255.879 523.021,255.89 523.948,255.843 517.672,265.301 
			517.662,265.316 519.537,284.61 517.664,304.258 517.661,304.286 523.007,308.295 523.021,308.306 523.948,308.259 
			517.672,317.717 517.662,317.732 519.537,337.026 517.664,356.674 517.661,356.702 523.007,360.711 523.021,360.722 
			523.948,360.675 517.672,370.134 517.662,370.148 519.537,389.442 517.664,409.09 517.661,409.118 523.007,413.127 
			523.021,413.138 523.948,413.091 517.672,422.55 517.662,422.564 519.537,441.858 517.664,461.506 517.661,461.534 
			523.007,465.543 523.021,465.554 523.948,465.507 517.672,474.966 517.662,474.98 519.537,494.274 517.664,513.922 
			517.661,513.95 523.007,517.959 523.021,517.97 523.948,517.923 517.672,527.382 517.662,527.396 519.537,546.69 517.664,566.338 
			517.661,566.366 523.007,570.375 523.021,570.386 523.948,570.339 517.672,579.798 517.662,579.813 519.537,599.106 
			517.664,618.754 517.661,618.782 523.007,622.791 523.021,622.802 523.948,622.755 517.672,632.214 517.662,632.229 
			519.537,651.522 517.664,671.17 517.661,671.198 522.747,675.012 522.379,674.991 520.334,674.853 520.267,674.848 
			525.491,696.609 517.036,702.577 516.34,702.495 515.631,702.431 514.928,702.383 514.229,702.352 513.537,702.334 
			512.85,702.331 511.485,702.36 510.136,702.43 508.796,702.528 503.468,703.022 502.126,703.121 500.774,703.19 499.407,703.221 
			498.718,703.218 498.022,703.201 497.323,703.169 496.618,703.122 495.906,703.058 495.13,702.967 495.466,711.989 
			495.467,712.031 500.908,712.814 506.238,713.636 527.314,717.072 532.64,717.895 538.032,718.671 538.093,718.68 
			535.231,674.899 		"/>
	</g>
</g>
<g id="Layer_2">
	<g>
		<polygon class="st0" points="0.817,643.009 0.917,643.015 2.342,633.67 2.344,633.657 0.163,627.343 0.065,627.361 		"/>
		<polygon class="st0" points="7.767,653.596 4.041,644.908 3.945,644.931 4.663,655.537 2.663,672.519 2.761,672.537 
			7.762,653.612 		"/>
		<polygon class="st0" points="29.042,625.021 25.442,636.663 25.438,636.679 29.44,648.728 29.537,648.705 27.939,637.463 
			29.14,625.04 		"/>
		<polygon class="st0" points="29.723,662.577 24.426,653.607 24.334,653.644 26.61,663.548 25.612,668.391 25.702,668.429 
			29.705,662.604 		"/>
		<polygon class="st0" points="0.817,590.593 0.917,590.599 2.342,581.254 2.344,581.241 0.163,574.927 0.065,574.945 		"/>
		<polygon class="st0" points="7.767,601.18 4.041,592.492 3.945,592.515 4.663,603.121 2.663,620.103 2.761,620.121 7.762,601.196 
					"/>
		<polygon class="st0" points="29.042,572.604 25.442,584.247 25.438,584.263 29.44,596.312 29.537,596.289 27.939,585.047 
			29.14,572.624 		"/>
		<polygon class="st0" points="29.723,610.161 24.426,601.19 24.334,601.227 26.61,611.132 25.612,615.975 25.702,616.013 
			29.705,610.188 		"/>
		<polygon class="st0" points="0.817,538.177 0.917,538.183 2.342,528.838 2.344,528.825 0.163,522.511 0.065,522.529 		"/>
		<polygon class="st0" points="7.767,548.764 4.041,540.076 3.945,540.099 4.663,550.705 2.663,567.687 2.761,567.705 7.762,548.78 
					"/>
		<polygon class="st0" points="29.042,520.188 25.442,531.831 25.438,531.847 29.44,543.896 29.537,543.873 27.939,532.631 
			29.14,520.208 		"/>
		<polygon class="st0" points="24.426,548.774 24.334,548.811 26.61,558.716 25.612,563.559 25.702,563.597 29.705,557.771 
			29.723,557.745 		"/>
		<polygon class="st0" points="0.817,485.761 0.917,485.767 2.342,476.422 2.344,476.409 0.163,470.095 0.065,470.113 		"/>
		<polygon class="st0" points="7.767,496.348 4.041,487.66 3.945,487.683 4.663,498.289 2.663,515.271 2.761,515.289 7.762,496.364 
					"/>
		<polygon class="st0" points="29.042,467.772 25.442,479.415 25.438,479.431 29.44,491.479 29.537,491.457 27.939,480.215 
			29.14,467.792 		"/>
		<polygon class="st0" points="24.426,496.358 24.334,496.395 26.61,506.3 25.612,511.143 25.702,511.181 29.705,505.355 
			29.723,505.329 		"/>
		<polygon class="st0" points="0.817,433.345 0.917,433.351 2.342,424.006 2.344,423.993 0.163,417.679 0.065,417.697 		"/>
		<polygon class="st0" points="7.767,443.932 4.041,435.244 3.945,435.267 4.663,445.873 2.663,462.854 2.761,462.873 
			7.762,443.948 		"/>
		<polygon class="st0" points="29.042,415.356 25.442,426.999 25.438,427.015 29.44,439.063 29.537,439.041 27.939,427.799 
			29.14,415.376 		"/>
		<polygon class="st0" points="24.426,443.942 24.334,443.979 26.61,453.884 25.612,458.727 25.702,458.765 29.705,452.939 
			29.723,452.913 		"/>
		<polygon class="st0" points="0.817,380.929 0.917,380.935 2.342,371.59 2.344,371.577 0.163,365.263 0.065,365.281 		"/>
		<polygon class="st0" points="7.767,391.516 4.041,382.828 3.945,382.851 4.663,393.457 2.663,410.438 2.761,410.457 
			7.762,391.532 		"/>
		<polygon class="st0" points="29.042,362.94 25.442,374.583 25.438,374.599 29.44,386.647 29.537,386.625 27.939,375.383 
			29.14,362.96 		"/>
		<polygon class="st0" points="24.426,391.526 24.334,391.563 26.61,401.468 25.612,406.311 25.702,406.349 29.705,400.523 
			29.723,400.497 		"/>
		<polygon class="st0" points="0.817,328.513 0.917,328.518 2.342,319.173 2.344,319.161 0.163,312.847 0.065,312.866 		"/>
		<polygon class="st0" points="7.767,339.1 4.041,330.412 3.945,330.435 4.663,341.041 2.663,358.022 2.761,358.041 7.762,339.116 
					"/>
		<polygon class="st0" points="29.042,310.524 25.442,322.167 25.438,322.182 29.44,334.231 29.537,334.209 27.939,322.967 
			29.14,310.543 		"/>
		<polygon class="st0" points="24.426,339.111 24.334,339.147 26.61,349.051 25.612,353.894 25.702,353.933 29.705,348.107 
			29.723,348.081 		"/>
		<polygon class="st0" points="0.817,276.097 0.917,276.102 2.342,266.757 2.344,266.745 0.163,260.431 0.065,260.45 		"/>
		<polygon class="st0" points="7.767,286.684 4.041,277.996 3.945,278.019 4.663,288.625 2.663,305.606 2.761,305.625 7.762,286.7 
					"/>
		<polygon class="st0" points="29.042,258.108 25.442,269.751 25.438,269.766 29.44,281.815 29.537,281.793 27.939,270.551 
			29.14,258.127 		"/>
		<polygon class="st0" points="24.426,286.694 24.334,286.731 26.61,296.635 25.612,301.478 25.702,301.517 29.705,295.691 
			29.723,295.665 		"/>
		<polygon class="st0" points="0.817,223.681 0.917,223.686 2.342,214.341 2.344,214.329 0.163,208.015 0.065,208.034 		"/>
		<polygon class="st0" points="7.767,234.268 4.041,225.58 3.945,225.603 4.663,236.209 2.663,253.19 2.761,253.208 7.762,234.284 
					"/>
		<polygon class="st0" points="29.042,205.692 25.442,217.335 25.438,217.35 29.44,229.399 29.537,229.377 27.939,218.135 
			29.14,205.711 		"/>
		<polygon class="st0" points="24.426,234.278 24.334,234.315 26.61,244.219 25.612,249.062 25.702,249.101 29.705,243.275 
			29.723,243.249 		"/>
		<polygon class="st0" points="0.817,171.265 0.917,171.27 2.342,161.925 2.344,161.913 0.163,155.599 0.065,155.618 		"/>
		<polygon class="st0" points="7.767,181.852 4.041,173.164 3.945,173.187 4.663,183.793 2.663,200.774 2.761,200.792 
			7.762,181.868 		"/>
		<polygon class="st0" points="29.042,153.276 25.442,164.918 25.438,164.934 29.44,176.983 29.537,176.961 27.939,165.719 
			29.14,153.295 		"/>
		<polygon class="st0" points="24.426,181.862 24.334,181.899 26.61,191.803 25.612,196.646 25.702,196.685 29.705,190.859 
			29.723,190.833 		"/>
		<polygon class="st0" points="0.817,118.849 0.917,118.854 2.342,109.509 2.344,109.497 0.163,103.183 0.065,103.202 		"/>
		<polygon class="st0" points="7.767,129.436 4.041,120.748 3.945,120.771 4.663,131.376 2.663,148.358 2.761,148.376 
			7.762,129.452 		"/>
		<polygon class="st0" points="29.042,100.86 25.442,112.502 25.438,112.518 29.44,124.567 29.537,124.544 27.939,113.303 
			29.14,100.879 		"/>
		<polygon class="st0" points="24.426,129.446 24.334,129.483 26.61,139.387 25.612,144.23 25.702,144.269 29.705,138.443 
			29.723,138.417 		"/>
		<polygon class="st0" points="0.917,66.438 2.342,57.093 2.344,57.081 0.163,50.767 0.065,50.786 0.817,66.433 		"/>
		<polygon class="st0" points="7.767,77.02 4.041,68.332 3.945,68.354 4.663,78.96 2.663,95.941 2.761,95.96 7.762,77.036 		"/>
		<polygon class="st0" points="29.042,48.444 25.442,60.086 25.438,60.102 29.44,72.151 29.537,72.128 27.939,60.887 29.14,48.463 
					"/>
		<polygon class="st0" points="24.426,77.03 24.334,77.067 26.61,86.971 25.612,91.814 25.702,91.853 29.705,86.027 29.723,86.001 
					"/>
		<polygon class="st0" points="89.365,3.344 96.139,1.163 96.122,1.065 79.33,1.817 79.325,1.917 89.354,3.342 		"/>
		<polygon class="st0" points="67.968,8.766 77.29,5.042 77.268,4.945 65.885,5.663 47.662,3.663 47.645,3.761 67.953,8.762 		"/>
		<polygon class="st0" points="85.282,28.939 98.614,30.14 98.632,30.042 86.138,26.442 86.124,26.438 73.195,30.44 73.216,30.538 
					"/>
		<polygon class="st0" points="58.331,30.722 67.954,25.427 67.92,25.334 57.29,27.61 52.091,26.612 52.055,26.703 58.306,30.706 		
			"/>
		<polygon class="st0" points="145.614,3.344 152.388,1.163 152.371,1.065 135.579,1.817 135.574,1.917 145.603,3.342 		"/>
		<polygon class="st0" points="124.217,8.766 133.539,5.042 133.517,4.945 122.134,5.663 103.911,3.663 103.894,3.761 
			124.202,8.762 		"/>
		<polygon class="st0" points="141.532,28.939 154.863,30.14 154.881,30.042 142.387,26.442 142.373,26.438 129.444,30.44 
			129.465,30.538 		"/>
		<polygon class="st0" points="114.58,30.722 124.203,25.427 124.169,25.334 113.539,27.61 108.34,26.612 108.304,26.703 
			114.555,30.706 		"/>
		<polygon class="st0" points="201.863,3.344 208.637,1.163 208.62,1.065 191.828,1.817 191.823,1.917 201.852,3.342 		"/>
		<polygon class="st0" points="180.466,8.766 189.788,5.042 189.766,4.945 178.383,5.663 160.16,3.663 160.143,3.761 180.451,8.762 
					"/>
		<polygon class="st0" points="197.781,28.939 211.112,30.14 211.13,30.042 198.636,26.442 198.622,26.438 185.693,30.44 
			185.714,30.538 		"/>
		<polygon class="st0" points="170.829,30.722 180.452,25.427 180.418,25.334 169.788,27.61 164.589,26.612 164.553,26.703 
			170.804,30.706 		"/>
		<polygon class="st0" points="258.112,3.344 264.886,1.163 264.869,1.065 248.077,1.817 248.073,1.917 258.101,3.342 		"/>
		<polygon class="st0" points="236.715,8.766 246.037,5.042 246.015,4.945 234.632,5.663 216.409,3.663 216.392,3.761 236.7,8.762 
					"/>
		<polygon class="st0" points="254.03,28.939 267.361,30.14 267.379,30.042 254.885,26.442 254.871,26.438 241.943,30.44 
			241.964,30.538 		"/>
		<polygon class="st0" points="227.078,30.722 236.701,25.427 236.667,25.334 226.037,27.61 220.838,26.612 220.802,26.703 
			227.053,30.706 		"/>
		<polygon class="st0" points="314.36,3.344 321.136,1.163 321.118,1.065 304.326,1.817 304.321,1.917 314.35,3.342 		"/>
		<polygon class="st0" points="292.965,8.766 302.286,5.042 302.265,4.945 290.882,5.663 272.659,3.663 272.642,3.761 
			292.949,8.762 		"/>
		<polygon class="st0" points="310.278,28.939 323.61,30.14 323.629,30.042 311.135,26.442 311.12,26.438 298.191,30.44 
			298.213,30.538 		"/>
		<polygon class="st0" points="283.327,30.722 292.95,25.427 292.915,25.334 282.286,27.61 277.088,26.612 277.051,26.703 
			283.302,30.706 		"/>
		<polygon class="st0" points="370.609,3.344 377.385,1.163 377.367,1.065 360.575,1.817 360.57,1.917 370.599,3.342 		"/>
		<polygon class="st0" points="349.214,8.766 358.535,5.042 358.514,4.945 347.131,5.663 328.908,3.663 328.891,3.761 
			349.198,8.762 		"/>
		<polygon class="st0" points="366.527,28.939 379.859,30.14 379.878,30.042 367.384,26.442 367.369,26.438 354.44,30.44 
			354.462,30.538 		"/>
		<polygon class="st0" points="339.576,30.722 349.2,25.427 349.165,25.334 338.535,27.61 333.337,26.612 333.3,26.703 
			339.551,30.706 		"/>
		<polygon class="st0" points="426.858,3.344 433.634,1.163 433.616,1.065 416.824,1.817 416.819,1.917 426.848,3.342 		"/>
		<polygon class="st0" points="405.463,8.766 414.784,5.042 414.763,4.945 403.38,5.663 385.157,3.663 385.14,3.761 405.447,8.762 
					"/>
		<polygon class="st0" points="422.776,28.939 436.108,30.14 436.127,30.042 423.633,26.442 423.618,26.438 410.69,30.44 
			410.712,30.538 		"/>
		<polygon class="st0" points="395.825,30.722 405.449,25.427 405.414,25.334 394.784,27.61 389.586,26.612 389.549,26.703 
			395.8,30.706 		"/>
		<polygon class="st0" points="483.107,3.344 489.883,1.163 489.865,1.065 473.074,1.817 473.069,1.917 483.097,3.342 		"/>
		<polygon class="st0" points="461.712,8.766 471.033,5.042 471.012,4.945 459.629,5.663 441.406,3.663 441.389,3.761 
			461.696,8.762 		"/>
		<polygon class="st0" points="479.025,28.939 492.357,30.14 492.376,30.042 479.882,26.442 479.867,26.438 466.939,30.44 
			466.961,30.538 		"/>
		<polygon class="st0" points="452.074,30.722 461.698,25.427 461.663,25.334 451.033,27.61 445.835,26.612 445.798,26.703 
			452.049,30.706 		"/>
		<polygon class="st0" points="539.183,77.99 539.083,77.985 537.657,87.33 537.655,87.342 539.838,93.657 539.935,93.638 		"/>
		<polygon class="st0" points="532.233,67.404 535.959,76.092 536.055,76.069 535.337,65.463 537.337,48.481 537.238,48.463 
			532.237,67.387 		"/>
		<polygon class="st0" points="510.958,95.979 514.558,84.337 514.563,84.322 510.56,72.272 510.462,72.295 512.061,83.537 
			510.86,95.96 		"/>
		<polygon class="st0" points="510.276,58.422 515.574,67.393 515.666,67.356 513.39,57.453 514.388,52.609 514.298,52.571 
			510.295,58.396 		"/>
		<polygon class="st0" points="539.183,130.406 539.083,130.401 537.657,139.747 537.655,139.759 539.838,146.073 539.935,146.054 
					"/>
		<polygon class="st0" points="537.238,100.879 532.237,119.803 532.233,119.82 535.959,128.508 536.055,128.485 535.337,117.879 
			537.337,100.898 		"/>
		<polygon class="st0" points="510.958,148.396 514.558,136.753 514.563,136.738 510.56,124.688 510.462,124.711 512.061,135.953 
			510.86,148.376 		"/>
		<polygon class="st0" points="510.276,110.838 515.574,119.809 515.666,119.772 513.39,109.869 514.388,105.025 514.298,104.987 
			510.295,110.812 		"/>
		<polygon class="st0" points="539.183,182.823 539.083,182.818 537.657,192.163 537.655,192.175 539.838,198.489 539.935,198.47 		
			"/>
		<polygon class="st0" points="537.238,153.295 532.237,172.219 532.233,172.236 535.959,180.924 536.055,180.901 535.337,170.295 
			537.337,153.314 		"/>
		<polygon class="st0" points="510.958,200.812 514.558,189.169 514.563,189.154 510.56,177.104 510.462,177.127 512.061,188.369 
			510.86,200.792 		"/>
		<polygon class="st0" points="515.574,172.225 515.666,172.188 513.39,162.285 514.388,157.441 514.298,157.403 510.295,163.228 
			510.276,163.254 		"/>
		<polygon class="st0" points="539.183,235.239 539.083,235.234 537.657,244.579 537.655,244.591 539.838,250.905 539.935,250.886 
					"/>
		<polygon class="st0" points="537.238,205.711 532.237,224.635 532.233,224.652 535.959,233.34 536.055,233.317 535.337,222.711 
			537.337,205.73 		"/>
		<polygon class="st0" points="510.958,253.228 514.558,241.585 514.563,241.57 510.56,229.521 510.462,229.543 512.061,240.785 
			510.86,253.208 		"/>
		<polygon class="st0" points="515.574,224.641 515.666,224.604 513.39,214.701 514.388,209.857 514.298,209.819 510.295,215.644 
			510.276,215.67 		"/>
		<polygon class="st0" points="539.183,287.655 539.083,287.65 537.657,296.995 537.655,297.007 539.838,303.321 539.935,303.302 		
			"/>
		<polygon class="st0" points="537.238,258.127 532.237,277.052 532.233,277.068 535.959,285.756 536.055,285.733 535.337,275.127 
			537.337,258.146 		"/>
		<polygon class="st0" points="510.958,305.644 514.558,294.001 514.563,293.986 510.56,281.937 510.462,281.959 512.061,293.201 
			510.86,305.625 		"/>
		<polygon class="st0" points="515.574,277.057 515.666,277.021 513.39,267.117 514.388,262.274 514.298,262.235 510.295,268.06 
			510.276,268.086 		"/>
		<polygon class="st0" points="539.183,340.071 539.083,340.066 537.657,349.411 537.655,349.423 539.838,355.737 539.935,355.718 
					"/>
		<polygon class="st0" points="537.238,310.543 532.237,329.468 532.233,329.484 535.959,338.172 536.055,338.149 535.337,327.543 
			537.337,310.562 		"/>
		<polygon class="st0" points="510.958,358.06 514.558,346.417 514.563,346.402 510.56,334.353 510.462,334.375 512.061,345.617 
			510.86,358.041 		"/>
		<polygon class="st0" points="515.574,329.473 515.666,329.437 513.39,319.533 514.388,314.69 514.298,314.651 510.295,320.476 
			510.276,320.502 		"/>
		<polygon class="st0" points="539.183,392.487 539.083,392.481 537.657,401.826 537.655,401.839 539.838,408.153 539.935,408.135 
					"/>
		<polygon class="st0" points="537.238,362.96 532.237,381.884 532.233,381.9 535.959,390.588 536.055,390.565 535.337,379.959 
			537.337,362.979 		"/>
		<polygon class="st0" points="510.958,410.476 514.558,398.833 514.563,398.817 510.56,386.769 510.462,386.791 512.061,398.033 
			510.86,410.456 		"/>
		<polygon class="st0" points="515.574,381.89 515.666,381.854 513.39,371.948 514.388,367.105 514.298,367.067 510.295,372.893 
			510.276,372.919 		"/>
		<polygon class="st0" points="539.183,444.903 539.083,444.897 537.657,454.242 537.655,454.255 539.838,460.569 539.935,460.551 
					"/>
		<polygon class="st0" points="537.238,415.376 532.237,434.3 532.233,434.316 535.959,443.004 536.055,442.981 535.337,432.375 
			537.337,415.395 		"/>
		<polygon class="st0" points="510.958,462.892 514.558,451.249 514.563,451.233 510.56,439.185 510.462,439.207 512.061,450.449 
			510.86,462.872 		"/>
		<polygon class="st0" points="515.574,434.306 515.666,434.27 513.39,424.364 514.388,419.521 514.298,419.483 510.295,425.309 
			510.276,425.335 		"/>
		<polygon class="st0" points="539.183,497.319 539.083,497.313 537.657,506.658 537.655,506.671 539.838,512.985 539.935,512.967 
					"/>
		<polygon class="st0" points="537.238,467.792 532.237,486.716 532.233,486.732 535.959,495.42 536.055,495.397 535.337,484.791 
			537.337,467.811 		"/>
		<polygon class="st0" points="510.958,515.308 514.558,503.665 514.563,503.649 510.56,491.601 510.462,491.623 512.061,502.865 
			510.86,515.288 		"/>
		<polygon class="st0" points="515.574,486.722 515.666,486.686 513.39,476.78 514.388,471.938 514.298,471.899 510.295,477.725 
			510.276,477.751 		"/>
		<polygon class="st0" points="539.183,549.735 539.083,549.729 537.657,559.074 537.655,559.087 539.838,565.401 539.935,565.383 
					"/>
		<polygon class="st0" points="537.238,520.208 532.237,539.132 532.233,539.148 535.959,547.836 536.055,547.813 535.337,537.207 
			537.337,520.227 		"/>
		<polygon class="st0" points="510.958,567.724 514.558,556.081 514.563,556.065 510.56,544.017 510.462,544.039 512.061,555.281 
			510.86,567.704 		"/>
		<polygon class="st0" points="515.574,539.138 515.666,539.102 513.39,529.196 514.388,524.354 514.298,524.315 510.295,530.141 
			510.276,530.167 		"/>
		<polygon class="st0" points="539.183,602.151 539.083,602.146 537.657,611.49 537.655,611.503 539.838,617.817 539.935,617.799 		
			"/>
		<polygon class="st0" points="537.238,572.624 532.237,591.548 532.233,591.564 535.959,600.252 536.055,600.229 535.337,589.623 
			537.337,572.643 		"/>
		<polygon class="st0" points="510.958,620.141 514.558,608.497 514.563,608.481 510.56,596.433 510.462,596.455 512.061,607.697 
			510.86,620.121 		"/>
		<polygon class="st0" points="515.574,591.554 515.666,591.518 513.39,581.612 514.388,576.77 514.298,576.731 510.295,582.557 
			510.276,582.583 		"/>
		<polygon class="st0" points="539.083,654.562 537.657,663.906 537.655,663.919 539.838,670.233 539.935,670.215 539.183,654.567 
					"/>
		<polygon class="st0" points="537.238,625.04 532.237,643.964 532.233,643.98 535.959,652.668 536.055,652.646 535.337,642.039 
			537.337,625.059 		"/>
		<polygon class="st0" points="510.958,672.557 514.558,660.913 514.563,660.897 510.56,648.849 510.462,648.871 512.061,660.113 
			510.86,672.537 		"/>
		<polygon class="st0" points="515.574,643.97 515.666,643.934 513.39,634.029 514.388,629.186 514.298,629.147 510.295,634.973 
			510.276,634.999 		"/>
		<polygon class="st0" points="450.636,717.656 443.86,719.837 443.878,719.935 460.67,719.183 460.675,719.083 450.646,717.657 		
			"/>
		<polygon class="st0" points="472.031,712.233 462.711,715.958 462.732,716.055 474.114,715.337 492.338,717.337 492.355,717.238 
			472.047,712.237 		"/>
		<polygon class="st0" points="453.877,694.562 466.805,690.56 466.783,690.462 454.718,692.061 441.387,690.86 441.368,690.958 
			453.862,694.558 		"/>
		<polygon class="st0" points="481.669,690.277 472.046,695.573 472.081,695.666 482.711,693.39 487.909,694.388 487.946,694.297 
			481.694,690.294 		"/>
		<polygon class="st0" points="394.387,717.656 387.611,719.837 387.629,719.935 404.421,719.183 404.426,719.083 394.397,717.657 
					"/>
		<polygon class="st0" points="415.782,712.233 406.461,715.958 406.482,716.055 417.865,715.337 436.089,717.337 436.106,717.238 
			415.798,712.237 		"/>
		<polygon class="st0" points="397.628,694.562 410.556,690.56 410.534,690.462 398.469,692.061 385.138,690.86 385.119,690.958 
			397.613,694.558 		"/>
		<polygon class="st0" points="425.42,690.277 415.797,695.573 415.832,695.666 426.462,693.39 431.659,694.388 431.696,694.297 
			425.445,690.294 		"/>
		<polygon class="st0" points="338.138,717.656 331.362,719.837 331.38,719.935 348.172,719.183 348.177,719.083 338.148,717.657 		
			"/>
		<polygon class="st0" points="359.533,712.233 350.212,715.958 350.233,716.055 361.616,715.337 379.839,717.337 379.856,717.238 
			359.549,712.237 		"/>
		<polygon class="st0" points="341.379,694.562 354.307,690.56 354.285,690.462 342.22,692.061 328.889,690.86 328.87,690.958 
			341.364,694.558 		"/>
		<polygon class="st0" points="369.171,690.277 359.548,695.573 359.583,695.666 370.212,693.39 375.41,694.388 375.447,694.297 
			369.196,690.294 		"/>
		<polygon class="st0" points="281.889,717.656 275.113,719.837 275.131,719.935 291.923,719.183 291.928,719.083 281.899,717.657 
					"/>
		<polygon class="st0" points="303.284,712.233 293.963,715.958 293.984,716.055 305.367,715.337 323.59,717.337 323.607,717.238 
			303.3,712.237 		"/>
		<polygon class="st0" points="285.13,694.562 298.058,690.56 298.036,690.462 285.971,692.061 272.64,690.86 272.621,690.958 
			285.115,694.558 		"/>
		<polygon class="st0" points="312.922,690.277 303.299,695.573 303.334,695.666 313.963,693.39 319.161,694.388 319.198,694.297 
			312.947,690.294 		"/>
		<polygon class="st0" points="225.639,717.656 218.865,719.837 218.882,719.935 235.674,719.183 235.678,719.083 225.65,717.657 		
			"/>
		<polygon class="st0" points="247.036,712.233 237.714,715.958 237.736,716.055 249.119,715.337 267.342,717.337 267.359,717.238 
			247.051,712.237 		"/>
		<polygon class="st0" points="228.88,694.562 241.808,690.56 241.787,690.462 229.721,692.061 216.39,690.86 216.372,690.958 
			228.866,694.558 		"/>
		<polygon class="st0" points="256.673,690.277 247.05,695.573 247.084,695.666 257.714,693.39 262.913,694.388 262.949,694.297 
			256.698,690.294 		"/>
		<polygon class="st0" points="169.39,717.656 162.616,719.837 162.633,719.935 179.425,719.183 179.429,719.083 169.401,717.657 		
			"/>
		<polygon class="st0" points="190.787,712.233 181.465,715.958 181.486,716.055 192.87,715.337 211.093,717.337 211.11,717.238 
			190.802,712.237 		"/>
		<polygon class="st0" points="172.631,694.562 185.559,690.56 185.538,690.462 173.472,692.061 160.141,690.86 160.123,690.958 
			172.617,694.558 		"/>
		<polygon class="st0" points="200.424,690.277 190.801,695.573 190.835,695.666 201.464,693.39 206.664,694.388 206.7,694.297 
			200.449,690.294 		"/>
		<polygon class="st0" points="113.141,717.656 106.367,719.837 106.384,719.935 123.176,719.183 123.18,719.083 113.152,717.657 		
			"/>
		<polygon class="st0" points="134.538,712.233 125.216,715.958 125.237,716.055 136.621,715.337 154.843,717.337 154.86,717.238 
			134.553,712.237 		"/>
		<polygon class="st0" points="116.382,694.562 129.31,690.56 129.289,690.462 117.223,692.061 103.892,690.86 103.874,690.958 
			116.368,694.558 		"/>
		<polygon class="st0" points="144.175,690.277 134.552,695.573 134.586,695.666 145.215,693.39 150.415,694.388 150.451,694.297 
			144.2,690.294 		"/>
		<polygon class="st0" points="56.892,717.656 50.117,719.837 50.135,719.935 66.927,719.183 66.931,719.083 56.903,717.657 		"/>
		<polygon class="st0" points="78.289,712.233 68.967,715.958 68.988,716.055 80.372,715.337 98.594,717.337 98.611,717.238 
			78.304,712.237 		"/>
		<polygon class="st0" points="60.133,694.562 73.061,690.56 73.04,690.462 60.974,692.061 47.643,690.86 47.625,690.958 
			60.119,694.558 		"/>
		<polygon class="st0" points="87.926,690.277 78.303,695.573 78.337,695.666 88.966,693.39 94.166,694.388 94.202,694.297 
			87.951,690.294 		"/>
		<polygon class="st0" points="3.281,27.102 3.285,27.087 0.9,20.562 0.804,20.582 1.265,28.54 -0.017,41.285 0.082,41.301 		"/>
		<polygon class="st0" points="32.191,23.876 43.848,24.831 43.872,24.735 33.854,20.263 33.835,20.255 21.617,25.058 
			21.641,25.154 		"/>
		<polygon class="st0" points="40.817,3.471 40.825,3.372 34.508,1.916 34.499,1.914 27.296,2.793 27.266,2.797 26.184,5.811 
			34.705,3.881 		"/>
		<polygon class="st0" points="3.059,4.445 18.953,5.197 18.967,5.098 0.787,0.783 0.728,0.77 0.161,13.016 0.258,13.034 		"/>
		<polygon class="st0" points="24.741,28.194 22.116,33.816 22.107,33.835 25.864,43.786 25.96,43.759 24.272,34.771 24.836,28.219 
					"/>
		<polygon class="st0" points="513.913,4.285 520.438,1.9 520.418,1.804 512.46,2.265 499.715,0.983 499.699,1.082 513.899,4.281 		
			"/>
		<polygon class="st0" points="516.169,44.848 516.265,44.872 520.737,34.854 520.746,34.835 515.942,22.617 515.846,22.641 
			517.124,33.191 		"/>
		<polygon class="st0" points="538.202,28.266 535.188,27.184 537.119,35.705 537.529,41.817 537.628,41.825 539.084,35.508 
			539.086,35.499 538.206,28.296 		"/>
		<polygon class="st0" points="527.983,1.161 527.966,1.258 536.555,4.059 535.804,19.953 535.902,19.967 540.217,1.787 
			540.23,1.728 		"/>
		<polygon class="st0" points="506.229,25.272 512.781,25.836 512.807,25.741 507.184,23.116 507.164,23.107 497.214,26.864 
			497.24,26.96 		"/>
		<polygon class="st0" points="536.719,693.899 536.716,693.913 539.1,700.438 539.196,700.418 538.735,692.46 540.017,679.715 
			539.918,679.699 		"/>
		<polygon class="st0" points="506.166,700.746 518.384,695.942 518.359,695.846 507.809,697.124 496.152,696.169 496.128,696.265 
			506.146,700.737 		"/>
		<polygon class="st0" points="499.184,717.529 499.175,717.628 505.493,719.084 505.501,719.086 512.703,718.206 512.734,718.202 
			513.785,715.274 513.816,715.188 505.296,717.119 		"/>
		<path class="st0" d="M531.473,711.292l1.97-6.872l0.005-0.017l-3.376-8.251l3.68-21.106h0.271h0.063l-6.044-26.734l4.53-25.68
			l1.451-0.002h0.063l-6.044-26.734l4.53-25.68l1.451-0.002h0.063l-6.044-26.734l4.53-25.68l1.451-0.002h0.063l-6.044-26.734
			l4.53-25.68l1.451-0.002h0.063l-6.044-26.734l4.53-25.68l1.451-0.002h0.063l-6.044-26.734l4.53-25.679l1.451-0.002h0.063
			l-6.044-26.735l4.529-25.679l1.452-0.002h0.063l-6.044-26.735l4.529-25.679l1.452-0.002h0.063l-6.044-26.735l4.529-25.679
			l1.452-0.002h0.063l-6.044-26.735l4.529-25.679l1.452-0.002h0.063l-6.044-26.735l4.529-25.679l1.452-0.002h0.063l-6.044-26.735
			l4.545-25.763l0.606,0h0.056l-2.421-23.745l0.463-12.66l0.002-0.039l-6.872-1.969l-0.017-0.005l-8.251,3.375l-21.106-3.68V6.978
			V6.916l-28.686,6.043l-27.562-4.531l-0.002-1.451V6.916l-28.686,6.043l-27.561-4.531l-0.003-1.451V6.916l-28.686,6.043
			l-27.562-4.531l-0.002-1.451V6.916l-28.687,6.043l-27.56-4.531l-0.002-1.451V6.916l-28.686,6.043l-27.561-4.531l-0.002-1.451
			V6.916l-28.686,6.043l-27.561-4.531l-0.002-1.451V6.916l-28.687,6.043l-27.56-4.531l-0.002-1.451V6.916l-28.687,6.043
			L44.972,8.415l0-0.607V7.752l-23.745,2.42L8.566,9.71L8.527,9.708L6.558,16.58l-0.005,0.017l3.375,8.25l-3.68,21.107l-0.271,0
			H5.915l6.044,26.735l-4.53,25.679L5.978,98.37H5.915l6.044,26.735l-4.53,25.679l-1.451,0.002H5.915l6.044,26.735L7.429,203.2
			l-1.451,0.002H5.915l6.044,26.735l-4.53,25.679l-1.451,0.002H5.915l6.044,26.735l-4.53,25.679l-1.451,0.002H5.915l6.044,26.735
			l-4.53,25.679l-1.451,0.002H5.915l6.044,26.734l-4.53,25.68l-1.451,0.002H5.915l6.044,26.734l-4.53,25.68l-1.451,0.002H5.915
			l6.044,26.735l-4.53,25.679l-1.451,0.002H5.915l6.044,26.735l-4.53,25.679l-1.451,0.002H5.915l6.044,26.735l-4.53,25.679
			l-1.451,0.002H5.915l6.044,26.735l-4.545,25.763l-0.606,0.001H6.752l2.42,23.744l-0.463,12.66l-0.001,0.039l6.872,1.97
			l0.017,0.005l8.25-3.376l21.107,3.68l0,0.271v0.062l28.686-6.043l27.561,4.531l0.002,1.45v0.062l28.686-6.043l27.561,4.531
			l0.002,1.45v0.062l28.686-6.043l27.561,4.531l0.002,1.45v0.062l28.686-6.043l27.561,4.531l0.002,1.45v0.062l28.687-6.043
			l27.561,4.531l0.002,1.45v0.062l28.687-6.043l27.56,4.531l0.003,1.45v0.062l28.687-6.043l27.561,4.531l0.002,1.45v0.062
			l28.687-6.043l27.645,4.545l0.001,0.606v0.056l23.744-2.421l12.66,0.463L531.473,711.292z M15.553,673.035l4.482-8.189
			l0.011-0.021l-2.486-6.836l-0.546-35.36h0.048l-0.049-0.065v-0.002l0-0.049h-0.038l-1.422-1.894l4.482-8.189l0.011-0.021
			l-2.486-6.836l-0.546-35.36h0.048l-0.049-0.065v-0.002l0-0.049h-0.038l-1.422-1.894l4.482-8.189l0.011-0.021l-2.486-6.836
			l-0.546-35.36h0.048l-0.049-0.065v-0.002l0-0.049h-0.038l-1.422-1.894l4.482-8.189l0.011-0.021l-2.486-6.836l-0.546-35.36h0.048
			l-0.049-0.065v-0.002l0-0.049h-0.038l-1.422-1.894l4.482-8.189l0.011-0.021l-2.486-6.836l-0.546-35.36h0.048l-0.049-0.065v-0.002
			l0-0.049h-0.038l-1.422-1.894l4.482-8.189l0.011-0.021l-2.486-6.836l-0.546-35.36l0.048,0l-0.049-0.065v-0.002l0-0.049h-0.038
			l-1.422-1.894l4.482-8.189l0.011-0.02l-2.486-6.837l-0.546-35.359l0.048,0l-0.049-0.065v-0.002l0-0.049h-0.038l-1.422-1.894
			l4.482-8.189l0.011-0.02l-2.486-6.837l-0.546-35.359l0.048,0l-0.049-0.065v-0.002l0-0.049h-0.038l-1.422-1.894l4.482-8.189
			l0.011-0.02l-2.486-6.837l-0.546-35.359l0.048,0l-0.049-0.065v-0.002l0-0.049h-0.038l-1.422-1.894l4.482-8.189l0.011-0.02
			l-2.486-6.837l-0.546-35.359l0.048,0l-0.049-0.065v-0.002l0-0.049h-0.038l-1.422-1.894l4.482-8.189l0.011-0.02l-2.486-6.837
			l-0.546-35.359l0.048,0l-0.049-0.065v-0.002l0-0.049h-0.038l-1.422-1.894l4.482-8.189l0.011-0.02l-2.486-6.837l-0.547-35.427
			l0-0.049l-2.144,0.003l2.284-0.055l-2.625-13.549l1.952-14.658l15.238-2.157l13.203,2.623l0.06,0.012V18.04l2.127-1.489
			l8.792,4.484l0.019,0.01l7.335-2.486l37.95-0.546l0,0.044l0.065-0.045h0.003l0.05,0v-0.037l2.035-1.424l8.792,4.484l0.019,0.01
			l7.335-2.486l37.95-0.546l0,0.044l0.065-0.045h0.003l0.05,0v-0.037l2.035-1.424l8.792,4.484l0.019,0.01l7.335-2.486l37.95-0.546
			l0,0.044l0.065-0.045h0.003l0.05,0v-0.037l2.035-1.424l8.792,4.484l0.019,0.01l7.335-2.486l37.949-0.546l0,0.044l0.065-0.045
			h0.003l0.05,0v-0.037l2.036-1.424l8.792,4.484l0.019,0.01l7.335-2.486l37.949-0.546l0.001,0.044l0.064-0.045h0.004l0.049,0v-0.036
			l2.036-1.425l8.792,4.484l0.019,0.01l7.335-2.486l37.95-0.546v0.044l0.064-0.045h0.004l0.049,0v-0.036l2.036-1.425l8.792,4.484
			l0.019,0.01l7.335-2.486l37.949-0.546l0.001,0.044l0.064-0.045h0.004l0.049,0v-0.036l2.036-1.425l8.792,4.484l0.019,0.01
			l7.335-2.486l38.019-0.547l0.049,0l-0.004-2.121l0.054,2.202l0.001,0.06l13.55-2.625l14.658,1.952l2.157,15.238l-2.623,13.203
			l-0.012,0.06h0.111l1.49,1.984l-4.482,8.189l-0.011,0.02l2.486,6.837l0.546,35.359l-0.049,0l0.05,0.066v0l0.001,0.049h0.036
			l1.423,1.894l-4.482,8.189l-0.011,0.02l2.486,6.837l0.546,35.359l-0.049,0l0.05,0.066v0l0.001,0.049h0.036l1.423,1.894
			l-4.482,8.189l-0.011,0.02l2.486,6.837l0.546,35.359l-0.049,0l0.05,0.066v0l0.001,0.049h0.036l1.423,1.894l-4.482,8.189
			l-0.011,0.02l2.486,6.837l0.546,35.359l-0.049,0l0.05,0.066v0.001l0.001,0.049h0.037l1.422,1.894l-4.482,8.189l-0.011,0.02
			l2.486,6.837l0.546,35.359l-0.049,0l0.05,0.066v0.001l0.001,0.049h0.037l1.422,1.894l-4.482,8.189l-0.011,0.02l2.486,6.837
			l0.546,35.359l-0.049,0l0.05,0.066v0.001l0.001,0.049h0.037l1.422,1.893l-4.482,8.189l-0.011,0.021l2.486,6.836l0.546,35.36
			h-0.049l0.05,0.066v0.001l0.001,0.049h0.036l1.423,1.894l-4.482,8.189l-0.011,0.021l2.486,6.836l0.546,35.36h-0.049l0.05,0.066
			v0.001l0.001,0.049h0.036l1.423,1.894l-4.482,8.189l-0.011,0.021l2.486,6.837l0.546,35.359h-0.049l0.05,0.066v0.001l0.001,0.049
			h0.036l1.423,1.894l-4.482,8.189l-0.011,0.021l2.486,6.837l0.546,35.359h-0.049l0.05,0.066v0.001l0.001,0.049h0.036l1.423,1.894
			l-4.482,8.189l-0.011,0.021l2.486,6.837l0.546,35.359h-0.049l0.05,0.066v0.001l0.001,0.049h0.036l1.423,1.894l-4.482,8.189
			l-0.011,0.021l2.486,6.837l0.547,35.427l0.001,0.049l2.155-0.003l-2.236,0.054l-0.06,0.001l2.625,13.55l-1.952,14.658
			l-15.239,2.157l-13.202-2.623l-0.06-0.012v0.113l-2.127,1.489l-8.793-4.484l-0.019-0.009l-7.335,2.485l-37.949,0.546l-0.001-0.045
			l-0.065,0.046h-0.003l-0.049,0.001v0.035l-2.036,1.425l-8.792-4.484l-0.019-0.009l-7.335,2.485l-37.95,0.546v-0.045l-0.065,0.046
			h-0.003l-0.049,0.001v0.035l-2.036,1.425l-8.792-4.484l-0.019-0.009l-7.335,2.485l-37.949,0.546l-0.001-0.045l-0.065,0.046h-0.003
			l-0.049,0.001v0.035l-2.036,1.425l-8.792-4.484l-0.019-0.009l-7.335,2.485l-37.95,0.546l0-0.045l-0.065,0.046h-0.002l-0.05,0.001
			v0.035l-2.035,1.425l-8.792-4.484l-0.019-0.009l-7.335,2.485l-37.949,0.546l0-0.045l-0.065,0.046h-0.002l-0.05,0.001v0.035
			l-2.036,1.425l-8.792-4.484l-0.019-0.009l-7.335,2.485l-37.949,0.546l0-0.045l-0.065,0.046h-0.003l-0.05,0.001v0.036l-2.035,1.424
			l-8.792-4.484l-0.019-0.009l-7.335,2.485l-37.949,0.546l0-0.045l-0.065,0.046h-0.003l-0.05,0.001v0.036l-2.035,1.424l-8.792-4.484
			l-0.019-0.009l-7.335,2.485l-38.018,0.547l-0.05,0.001l0.004,2.091l-0.054-2.231l-13.549,2.625l-14.658-1.952l-2.157-15.239
			l2.623-13.202l0.012-0.06h-0.112L15.553,673.035z"/>
		<polygon class="st0" points="536.941,716.555 521.047,715.804 521.033,715.902 539.214,720.217 539.272,720.23 539.839,707.983 
			539.741,707.966 		"/>
		<polygon class="st0" points="515.259,692.807 517.884,687.184 517.894,687.164 514.137,677.214 514.041,677.24 515.728,686.229 
			515.164,692.781 		"/>
		<polygon class="st0" points="26.087,716.716 19.562,719.1 19.582,719.196 27.54,718.735 40.285,720.017 40.301,719.918 
			26.102,716.719 		"/>
		<polygon class="st0" points="24.154,698.359 22.876,687.809 23.831,676.152 23.735,676.128 19.263,686.146 19.255,686.166 
			24.058,698.384 		"/>
		<polygon class="st0" points="1.797,692.734 4.725,693.785 4.811,693.816 2.881,685.296 2.471,679.184 2.372,679.175 
			0.916,685.493 0.914,685.501 1.793,692.703 		"/>
		<polygon class="st0" points="4.197,701.047 4.098,701.033 -0.217,719.214 -0.23,719.272 12.016,719.839 12.034,719.741 
			3.445,716.941 		"/>
		<polygon class="st0" points="33.771,695.728 27.219,695.164 27.194,695.259 32.816,697.884 32.835,697.894 42.786,694.137 
			42.759,694.041 		"/>
	</g>
</g>
</svg>
