<?xml version="1.0" encoding="utf-8"?>
<!-- Generator: Adobe Illustrator 14.0.0, SVG Export Plug-In . SVG Version: 6.00 Build 43363)  -->
<!DOCTYPE svg PUBLIC "-//W3C//DTD SVG 1.1//EN" "http://www.w3.org/Graphics/SVG/1.1/DTD/svg11.dtd">
<svg version="1.1" id="Layer_1" xmlns="http://www.w3.org/2000/svg" xmlns:xlink="http://www.w3.org/1999/xlink" x="0px" y="0px"
	 width="1984.731px" height="2650.004px" viewBox="137.999 137.996 1984.731 2650.004"
	 style="enable-background:new 137.999 137.996 1984.731 2650.004;" xml:space="preserve">
<style type="text/css">
<![CDATA[
	.st0{fill:#FFBA00;}
]]>
</style>
<title>cocktail-list-border</title>
<g id="cocktail-list-border">
	<g id="Group-6" transform="translate(138.000000, 138.000000)">
		<path id="Fill-1" class="st0" d="M181.696-0.001v181.7H-0.001v2286.605h181.7v181.693H1803.03v-181.697h181.7V181.699h-181.7
			v-181.7H181.696L181.696-0.001z M200.176,18.479h1584.375V181.7h-90.629v109.107h109.108v-90.632h163.217v2249.646H1803.03
			v-90.629h-109.108v109.107h90.629v163.219H200.176v-163.219h90.637v-109.107H181.699v90.629H18.482V200.176h163.217v90.632
			h109.111V181.699h-90.636L200.176,18.479L200.176,18.479z M1712.401,272.328h72.151v-72.152h-72.151V272.328z M200.176,272.328
			h72.152v-72.152h-72.152V272.328z M1712.401,2449.822h72.151v-72.152h-72.151V2449.822z M200.176,2449.822h72.152v-72.152h-72.152
			V2449.822z"/>
		<path id="Fill-2" class="st0" d="M0,109.108h109.112V-0.004H0V109.108z M31.549,18.48h59.08v59.083L31.549,18.48z M18.48,31.545
			l59.083,59.083H18.48V31.545z"/>
		<path id="Fill-3" class="st0" d="M0,2650h109.112v-109.112H0V2650z M18.48,2559.371h59.083l-59.083,59.08V2559.371z
			 M90.628,2572.438v59.084h-59.08L90.628,2572.438z"/>
		<path id="Fill-4" class="st0" d="M1875.62,2650h109.11v-109.112h-109.11V2650z M1907.165,2559.371h59.083v59.08L1907.165,2559.371
			z M1894.1,2572.438l59.084,59.084H1894.1V2572.438z"/>
		<path id="Fill-5" class="st0" d="M1875.62,109.108h109.11V-0.004h-109.11V109.108z M1894.1,18.48h59.084L1894.1,77.563V18.48z
			 M1966.248,31.545v59.083h-59.083L1966.248,31.545z"/>
	</g>
</g>
</svg>
