<?xml version="1.0" encoding="utf-8"?>
<!-- Generator: Adobe Illustrator 14.0.0, SVG Export Plug-In . SVG Version: 6.00 Build 43363)  -->
<!DOCTYPE svg PUBLIC "-//W3C//DTD SVG 1.1//EN" "http://www.w3.org/Graphics/SVG/1.1/DTD/svg11.dtd">
<svg version="1.1" id="Nouveau_x5F_30_xA0_Image_1_"
	 xmlns="http://www.w3.org/2000/svg" xmlns:xlink="http://www.w3.org/1999/xlink" x="0px" y="0px" width="729px" height="969px"
	 viewBox="0 0 729 969" style="enable-background:new 0 0 729 969;" xml:space="preserve">
<style type="text/css">
<![CDATA[
	.st0{fill-rule:evenodd;clip-rule:evenodd;fill:none;stroke:#000000;stroke-width:3.0938;stroke-linecap:round;}
	.st1{fill-rule:evenodd;clip-rule:evenodd;fill:none;stroke:#000000;stroke-width:2.1547;stroke-linecap:round;}
	.st2{fill-rule:evenodd;clip-rule:evenodd;fill:none;stroke:#000000;stroke-width:2.6833;stroke-linecap:round;}
	.st3{fill-rule:evenodd;clip-rule:evenodd;fill:none;stroke:#000000;stroke-width:2.423;stroke-linecap:round;}
	.st4{fill-rule:evenodd;clip-rule:evenodd;fill:none;stroke:#000000;stroke-width:3;stroke-linecap:round;}
	.st5{fill-rule:evenodd;clip-rule:evenodd;fill:none;stroke:#000000;stroke-width:2.929;stroke-linecap:round;}
	.st6{fill-rule:evenodd;clip-rule:evenodd;fill:none;stroke:#000000;stroke-width:2.2529;stroke-linecap:round;}
	.st7{fill-rule:evenodd;clip-rule:evenodd;fill:none;stroke:#000000;stroke-width:2.7386;stroke-linecap:round;}
	.st8{fill-rule:evenodd;clip-rule:evenodd;fill:none;stroke:#000000;stroke-width:2.8229;stroke-linecap:round;}
	.st9{fill-rule:evenodd;clip-rule:evenodd;fill:none;stroke:#000000;stroke-width:3.3912;stroke-linecap:round;}
	.st10{fill-rule:evenodd;clip-rule:evenodd;fill:none;stroke:#000000;stroke-width:3.0332;stroke-linecap:round;}
	.st11{fill-rule:evenodd;clip-rule:evenodd;fill:none;stroke:#000000;stroke-width:2;stroke-linecap:round;}
	.st12{fill-rule:evenodd;clip-rule:evenodd;fill:none;stroke:#000000;stroke-width:3.1225;stroke-linecap:round;}
	.st13{fill-rule:evenodd;clip-rule:evenodd;fill:none;stroke:#000000;stroke-width:2.9023;stroke-linecap:round;}
	.st14{fill-rule:evenodd;clip-rule:evenodd;fill:none;stroke:#000000;stroke-width:3.1623;stroke-linecap:round;}
	.st15{fill-rule:evenodd;clip-rule:evenodd;fill:none;stroke:#000000;stroke-width:3.2404;stroke-linecap:round;}
	.st16{fill:#000000;fill-rule:evenodd;clip-rule:evenodd;}
	.st17{fill-rule:evenodd;clip-rule:evenodd;fill:none;stroke:#000000;stroke-width:1.8127;stroke-linecap:round;}
	.st18{fill-rule:evenodd;clip-rule:evenodd;fill:none;stroke:#000000;stroke-width:1.8074;stroke-linecap:round;}
	.st19{fill-rule:evenodd;clip-rule:evenodd;fill:none;stroke:#000000;stroke-width:1.5;stroke-linecap:round;}
	.st20{fill-rule:evenodd;clip-rule:evenodd;fill:none;stroke:#000000;stroke-width:3.6968;stroke-linecap:round;}
	.st21{fill-rule:evenodd;clip-rule:evenodd;fill:none;stroke:#000000;stroke-width:2.1602;stroke-linecap:round;}
	.st22{fill-rule:evenodd;clip-rule:evenodd;fill:none;stroke:#000000;stroke-width:2.5495;stroke-linecap:round;}
	.st23{fill-rule:evenodd;clip-rule:evenodd;fill:none;stroke:#000000;stroke-width:2.9439;stroke-linecap:round;}
	.st24{fill-rule:evenodd;clip-rule:evenodd;fill:none;stroke:#000000;stroke-width:3.3594;stroke-linecap:round;}
	.st25{fill-rule:evenodd;clip-rule:evenodd;fill:none;stroke:#000000;stroke-width:2.725;stroke-linecap:round;}
	.st26{fill-rule:evenodd;clip-rule:evenodd;fill:none;stroke:#000000;stroke-width:1.8708;stroke-linecap:round;}
	.st27{fill-rule:evenodd;clip-rule:evenodd;fill:none;stroke:#000000;stroke-width:1.8811;stroke-linecap:round;}
	.st28{fill-rule:evenodd;clip-rule:evenodd;fill:none;stroke:#000000;stroke-width:2.8048;stroke-linecap:round;}
	.st29{fill-rule:evenodd;clip-rule:evenodd;fill:none;stroke:#000000;stroke-width:1.291;stroke-linecap:round;}
	.st30{fill-rule:evenodd;clip-rule:evenodd;fill:none;stroke:#000000;stroke-width:2.9326;stroke-linecap:round;}
	.st31{fill-rule:evenodd;clip-rule:evenodd;fill:none;stroke:#000000;stroke-width:2.0073;stroke-linecap:round;}
	.st32{fill-rule:evenodd;clip-rule:evenodd;fill:none;stroke:#000000;stroke-width:4.8648;stroke-linecap:round;}
	.st33{fill-rule:evenodd;clip-rule:evenodd;fill:none;stroke:#000000;stroke-width:2.2361;stroke-linecap:round;}
	.st34{fill-rule:evenodd;clip-rule:evenodd;fill:none;stroke:#000000;stroke-width:3.0822;stroke-linecap:round;}
	.st35{fill-rule:evenodd;clip-rule:evenodd;fill:none;stroke:#000000;stroke-width:2.6458;stroke-linecap:round;}
	.st36{fill-rule:evenodd;clip-rule:evenodd;fill:none;stroke:#000000;stroke-width:2.6799;stroke-linecap:round;}
]]>
</style>
<g>
	<g>
		<path class="st16" d="M48,12c-2.795-1.506-1.785-4.314,0-6c2.729-0.729,2.013,1.987,4,2c0.15,2.483-0.517,4.15-2,5l-0.5-1.5L48,12
			z"/>
		<path class="st16" d="M39,37c3.131-0.464,4.464,0.869,4,4c-1.333,0-2.667,0-4,0C39,39.667,39,38.333,39,37z"/>
		<path class="st16" d="M5,58c1.522-2.478,0.247-7.753,2-10c5.985-2.225,11.063,3.06,16,5c-0.016,2.984-2.6,3.4-3,6
			c-4.298-1.007-8.708-3.212-12,0l-1.214-1.357L5,58z"/>
		<path class="st16" d="M38,65c0.301,2.635-1.385,3.282-4,3c0-1,0-2,0-3C35.333,65,36.667,65,38,65z"/>
		<path class="st16" d="M54,80c1.333,0,2.667,0,4,0c0.423,2.09-0.686,2.648-1,4C54.365,84.301,53.718,82.615,54,80z"/>
		<path class="st16" d="M20,83c0,1,0,2,0,3c-2.09,0.423-2.648-0.686-4-1C16.241,83.241,17.721,82.721,20,83z"/>
		<path class="st16" d="M720,948c4.758,0.243,3.257,10.948,2,14c-237.006,2.333-478.327,0.333-717,1c0-282.658,0-565.346,0-848
			c2.039,0.294,1.961,2.706,4,3c2.333,277.998,0.333,560.339,1,840c210.931,1.83,430.422,0.999,645,1c6.784,0,14.601,0.188,22,0
			c4.869-0.123,13.743,2.217,16-5c-1.57-8.858-7.284,3.675-9-4c0.734-9.861,13.677-3.411,14,2l-0.5,1.833L699,955
			c-2.191,3.06-2.06,3.191,1,1l1.167,1.5L703,957c-0.142,4.142,6.959,1.041,10,2c-0.405-4.216-6.982-7.779-11-12
			c-4.244-4.459-8.743-8.556-10-16l1.833,0.5L695,930c5.271,8.396,12.578,14.756,24,17l-0.5,1.5L720,948z"/>
		<path class="st16" d="M720.5,945.5L719,946c-2.064-1.586-1.625-12.937,2-9c4.817-1.669,4.946,12.972-1,10L720.5,945.5z"/>
		<path class="st16" d="M724,894c0,2,0,4,0,6c-3.078,0.745-1.922-2.745-5-2C720.286,896.286,721.067,894.067,724,894z"/>
		<path class="st16" d="M724,925c0,1.333,0,2.667,0,4c-1.794,0.127-2.109-1.225-4-1C720.869,926.536,721.497,924.83,724,925z"/>
		<path class="st16" d="M69,17C72.991,1.089,93.924,5,118,5c199.779,0,410.41,0,606,0c0,293.66,0,587.34,0,881
			c0.368,1.701-0.78,1.887-2,2c-0.19-0.81-1.003-0.997-1-2c-3.732,1.91-1.889-5.971-2-10c-1.833-66.481,0-137.796,0-206
			c0-217.793,0-440.986,0-659c-197.953-1.828-405.956-1-608-1c-11.502,0-25.949-3.669-34,6c0.531,9.136,8.106,11.227,6,23h-2h-2
			c-0.595-2.072,1.236-6.569-1-7l-1.167-1.5L75,31c-4.236-4.583-4.497-2.913-4-11c0.053-0.858-0.29-0.937-1-1l0.5-1.5L69,17z"/>
		<path class="st16" d="M58.5,62.833L60,64c-1.333,1.428-4.447,2.646-6,1c-0.638-3.638,2.071-3.929,5-4L58.5,62.833z"/>
		<path class="st16" d="M76.167,35.5L78,35c-0.018,3.982-0.957,7.043-3,9l-0.5-1.5L73,43c-1.793-0.127-2.109,1.224-4,1l-1.5-1.75
			L67,40c3.341-1.326,6.226-3.107,8-6L76.167,35.5z"/>
		<path class="st16" d="M57.5,52.833L59,54c-0.892,2.735-9.5-0.344-7-1c-0.764-5.473,3.223-1.527,6-2L57.5,52.833z"/>
		<path class="st16" d="M66.167,25.5L68,25c1.681,8.207-13.11,9.927-12,1c3.338-5.021,4.326,3.427,9-2L66.167,25.5z"/>
		<path class="st16" d="M44,17c-5.801-0.865-9.144-4.189-13-7l0.5-1.833L30,7c8.483-3.799,15.335,2.652,17,9l-1.786-0.357L44,17z"/>
		<path class="st16" d="M52.786,17.643L51,18c1.494-6.839,5.405-11.261,13-12l-0.357,1.786L65,9c-1.791,5.209-5.909,8.091-11,10
			L52.786,17.643z"/>
		<path class="st16" d="M47,42c2.233,2.767,5.204,4.796,4,11c-1.968,1.983-5.712,0.637-8,0l0.5-1.5L42,51
			c0.409-2.409-1.826-2.174-1-5c-2.444,4.483-10.471,10.999-14,3c0.488-4.179,2.356-6.977,6-8c-2.016-2.317-7.332-1.335-8-5l0.5-1.5
			L24,35c-0.792-3.458,1.112-4.222,2-6c3.986-0.319,7.388-0.055,9,2l-0.5,1.5L36,32c0.81,0.19,0.997,1.003,2,1l-0.5,1.5L38,36
			c-1.958,1.869-0.309,3.663,0,6c2,0,4,0,6,0l1.5,0.5L47,42z"/>
		<path class="st16" d="M41.5,53.5L43,54c3.001,2.745-1.433,6.51-2,9c5.687-4.057,15.89-1.198,12,7l-1.833-0.5L50,71
			c-3.236,0.824-8.649-1.245-9,0c1.313,0.354,1.573,1.761,3,2l-0.5,1.5L45,75c0.547,1.453-1.168,5.168,1,5
			c0.226-1.44,2.985-0.349,3-2c-1.44-0.56-2.44-1.56-3-3l1.5-1.167L47,72c1.419,0.086,2.832,0.165,3-1l1.833,0.5L53,70
			c1.975,0.691,2.666,2.667,3,5c2.815-2.518,3.571-7.095,10-6c1.371,4.489-0.264,8.098-3,11c4.33-0.33,6.622,1.378,8,4
			c0,1.333,0,2.667,0,4c-3.72,3.609-9.593,1.205-12-2l0.5-1.5L58,84c0.777-0.89,1.075-2.258,1-4c-1.279-1.368-4.721-1.368-6,0
			c-0.26,3.26,1.187,4.813,4,5l-0.5,1.5L58,87c1.674,1.659,0.796,5.871,1,9c-1.479,0.521-2.521,1.479-4,2
			c-5.708-0.705-5.24-6.909-3-11c-2.963,0.704-4.354,2.979-9,2l0.5-1.5L42,88c-1.357-0.31-0.83-2.504-1-4
			c-3.139-2.194-6.499-4.168-6-10c-1.632-0.58-8.557,8.147-13,2c0.013,1.987,2.729,1.271,2,4c4.864,0.136,11.232-1.232,11,4
			c-0.238,3.892-6.51,5.513-9,4c0.465,4.092,5.491,4.729,3,9c-3.75,2.51-10.083,0.497-10-4c-1.132,3.281-5.479,7.281-10,4
			c-0.96-5.96,1.855-8.145,4-11l1.5,0.5L16,87c5.816,2.156,6.937-6.336,1-5l0.5-1.833L16,79c-0.319-3.986-0.055-7.388,2-9
			c1.772,0.228,5.008-1.008,4,2c1.947-2.053,3.12-4.88,7-5c-3.901-2.49-10.993-6.476-6-12c6.822-1.155,8.639,2.695,12,5l-0.5,1.5
			L35,63c-0.027,0.973-1.224,0.776-2,1c0,1.667,0,3.333,0,5c2.465,0.132,4.818,0.151,6-1c0.474-3.141-1.247-4.086-3-5l0.5-1.833
			L35,60c-1.76-3.431,0.173-6.461,2-9c2.319-0.319,3.839,0.161,5,1L41.5,53.5z"/>
		<path class="st16" d="M38.5,94.5L40,94c0,1.667,0,3.333,0,5c1,0,2,0,3,0c3.506-0.272-1.806-4.428,1-4
			c8.765-0.559,5.439,10.337,2,13c-10.829,3.099-13.803-10.471-8-15L38.5,94.5z"/>
		<path class="st16" d="M13.5,84.5L13,86c-2.465,0.132-4.818,0.151-6-1l0.5-1.5L6,83c-3.511-1.948-0.432-4.716,1-7l1,0.5L9,76
			c3.073,0.26,4.497,2.169,7,3l-0.5,1.5L16,82c-0.529,0.804-1.043,1.624-1,3L13.5,84.5z"/>
		<path class="st16" d="M6.5,101.5L7,100c1.875,4.125,1.906,10.094,7,11c5.253-0.557,3.894-6.037,2-9c12.36,1.805,7.478,17.729-1,18
			c-7.819,0.25-10.707-8.215-10-19L6.5,101.5z"/>
		<path class="st16" d="M22.5,36.5L24,36c0.34,3.517,7.608,3.662,5,7c-8.684,0.299-12.398-8.402-20-6l-1.167-1.5L6,36
			c-0.197-3.863-0.036-7.369,1-10c9.386-1.053,11.977,4.69,16,9L22.5,36.5z"/>
		<path class="st16" d="M30.5,23.5L30,25c-5.335-3.891-14.798-16.153-21-7l-1.167-1.5L6,17c0-3.667,0-7.333,0-11
			c12.87-5.292,21.579,8.437,26,18L30.5,23.5z"/>
		<path class="st16" d="M39.5,34.167L38,33c-1.935-3.542,0.025-5.775,0-10c7.004-4.363,11.553,4.944,8,11
			c3.412-1.355,7.936-3.141,12-1c3.22,6.709-3.058,10.355-11,9l-1.167-1.5L44,41c0-1.333,0-2.667,0-4c-1.161-0.839-2.681-1.319-5-1
			L39.5,34.167z"/>
		<path class="st16" d="M707,900c-3.002,0.871-7.534-1.212-11-1c-0.857-3.19,1.574-3.093,2-5c2.656,0.01,5.711-0.378,7,1
			c1.576-0.683-2.606-3.981-1-8c5.466-0.799,7.799,1.534,7,7c3.594-2.073,3.93-7.403,11-6c-0.162,1.162,0.221,1.779,1,2
			c-1.096,3.57-3.43,5.904-7,7c2.131,2.536,6.783,2.551,7,7c-0.934,0.732-1.515,1.818-2,3c-5.072,0.406-5.841-3.492-9-5l0.5-1.5
			L712,899c0.34-2.007-0.204-3.129-2-3c0,1,0,2,0,3l-1.833-0.5L707,900z"/>
		<path class="st16" d="M710.5,900.833L712,902c0.162,1.162-0.221,1.779-1,2c1.162,1.838,5.307,0.693,4,5l-1.5-0.5l0.5,1.5
			c0.031,3.031-5.031,0.969-5,4c4.673,0.807,6.527,6.825,2,9l-0.5-0.5L710,922c-1,0-2,0-3,0l-0.5-1.5L705,921
			c0.086-1.419,0.165-2.832-1-3c-2.375,0.625,0.155,6.155-2,7c-2.465,0.132-4.818,0.151-6-1c-0.069-3.402-0.312-6.978,2-8
			c-0.431-2.236-4.929-0.405-7-1c-0.429-1.904-2.154-2.513-2-5c1.754-2.612,6.972-2.357,10-1c-0.01-3.114-2.365-6.517,0-9
			c5.558-0.891,6.551,2.782,6,8l-0.5,1.5L704,911c-2.19-0.19-3.003-0.003-3,1c0.805,0.529,1.623,1.043,3,1
			c0-2,2.974-2.185,2.974-2.185L706,908c0.575-1.758-1.209-5.875,1-6l2.5-0.5l0.5-2.5c0.333,0,0.667,0,1,0L710.5,900.833z"/>
		<path class="st16" d="M716.5,910l-0.5-1c0.188-2.278,3.555,0.03,8-2c0,3.667,0,7.333,0,11c-2.104-0.658-4.445-2.646-6-1l-0.5-1.5
			L716,916c0-1.667,0-3.333,0-5L716.5,910z"/>
		<path class="st16" d="M718.5,920.5L718,919c2.104-2.195,4.445-0.207,6,1c-0.59,4.077-2.923,6.41-7,7c0.846,2.154,4.387,1.613,6,3
			c0.132,2.465,0.151,4.818-1,6c-3.651-0.016-4.491-2.843-7-4l0.5-1.833L714,929c1.2-1.313,0.39-1.573,0-3l0.5-1.5L714,923
			c2.306,0.306,1.111-2.889,3-3L718.5,920.5z"/>
		<path class="st16" d="M713.5,930.833L715,932c2.922,5.006-1.276,10.42-6,11c1.977-3.545,1.304-1.976,0-6c-0.333,0-0.667,0-1,0
			l0.5-1.5L707,935c0-0.333,0-0.667,0-1c-0.625-2.375-6.155,0.155-7-2c-0.955-5.288,4.204-4.463,7-6c0-0.333,0-0.667,0-1l1.5,0.5
			l0.5-1.5c0.333,0,0.667,0,1,0l-0.5,2.5l2.5,0.5c-0.368,1.701,0.78,1.887,2,2L713.5,930.833z"/>
		<g>
			<path class="st11" d="M49.5,14.5c-0.53-0.595-0.346-1.796,0-3"/>
			<path class="st2" d="M8.167,63.833c-1.605-1.527-1.898-4.101-1.381-6.19"/>
			<path class="st4" d="M697.5,953.833c1-0.532,2-1.491,3-2.333"/>
			<path class="st10" d="M701.167,957.5c0.532-1,1.491-2,2.333-3"/>
			<path class="st5" d="M693.833,931.5c-1.54-3.852-1.552-7.93-0.833-12"/>
			<path class="st29" d="M720.5,945.5c-0.643,1-1.22,2-2,3"/>
			<path class="st6" d="M81,39c2.732,10.339-4.878,20.702-11.5,28.5"/>
			<path class="st25" d="M58.5,62.833C69.607,58.891,75.958,48.408,81,39"/>
			<path class="st8" d="M57.5,52.833c6.539-1.022,14.383-3.54,17-10.333"/>
			<path class="st13" d="M53,44c4.39,0.842,10.371,3.263,13.5-1.5"/>
			<path class="st33" d="M66.5,42.5c-1.667-1.465-3.333-1.377-5-1.5"/>
			<path class="st32" d="M66.5,42.5c0.333-0.03,0.667-0.138,1-0.25"/>
			<path class="st0" d="M76.167,35.5c0.334-1.667,0.254-3.333,0.667-5"/>
			<path class="st36" d="M66.167,25.5c2.025-2.364,1.616-6.35,4.333-8"/>
			<path class="st23" d="M28,10.5c0.883-1.424,2.235-1.798,3.5-2.333"/>
			<path class="st12" d="M51,23.75c0.451-2.081,1.143-4.061,1.786-6.107"/>
			<path class="st22" d="M63.643,7.786C65.411,7.283,67.188,8.257,69,8"/>
			<path class="st24" d="M51,23.75c-0.138,1.101,0.24,2.134,1.5,3.75"/>
			<path class="st1" d="M51,23.75c-3.574-1.025-3.353-5.702-5.786-8.107"/>
			<path class="st14" d="M51.167,69.5c0.222,0.667,0.445,1.333,0.667,2"/>
			<path class="st27" d="M38.5,94.5c0.496-3.097,3.463-4.538,5-7"/>
			<path class="st7" d="M14.5,86.5c-0.333-0.667-0.667-1.333-1-2"/>
			<path class="st31" d="M6.5,101.5c-0.484-6.25-0.979-12.55,1-18"/>
			<path class="st3" d="M8,76.5c1.316-6.438,8.634-8.17,13.5-10.5"/>
			<path class="st34" d="M15.5,80.5c0.667-0.04,1.333-0.184,2-0.333"/>
			<path class="st34" d="M34.5,61.5c0.667-0.04,1.333-0.184,2-0.333"/>
			<path class="st11" d="M41.5,53.5c0.667-0.667,1.333-1.333,2-2"/>
			<path class="st28" d="M9.5,44c-2.912-1.565-2.009-5.79-1.667-8.5"/>
			<path class="st29" d="M22.5,36.5c1-0.643,2-1.22,3-2"/>
			<path class="st18" d="M34.5,32.5c2.821-3.503-2.715-6.063-4-9"/>
			<path class="st35" d="M9.5,21c-1.375-1.043-2.337-2.755-1.667-4.5"/>
			<path class="st34" d="M45.5,42.5c0.04-0.667,0.184-1.333,0.333-2"/>
			<path class="st34" d="M39.5,34.167c-0.667,0.183-1.333,0.26-2,0.333"/>
			<path class="st30" d="M43.5,74.5c1.013-0.58,2.552-0.772,4-0.667"/>
			<path class="st11" d="M56.5,86.5c0.698-0.722,1.775-1.328,3-2"/>
			<path class="st34" d="M712.5,900.5c-0.667,0.04-1.333,0.185-2,0.333"/>
			<path class="st14" d="M715.5,930.167c-0.667,0.222-1.333,0.444-2,0.666"/>
			<path class="st21" d="M708.5,935.5c-0.994,0.528-1.147,1.226-1.5,2"/>
			<path class="st20" d="M709.5,901.5c-0.657-1.281-0.925-2.049-1.333-3"/>
			<path class="st9" d="M706.974,910.815c-0.591-0.375-1.438-0.82-2.474-1.315"/>
			<path class="st34" d="M711.5,924.5c1,0,2,0,3,0"/>
			<path class="st17" d="M718.5,920.5c-1.105-1.376-2.026-3.294-1-5"/>
			<path class="st19" d="M716.5,910c-0.595-0.129-1.796-0.609-3-1.5"/>
			<path class="st29" d="M711.5,924.5c-0.547-0.667-0.781-1.333-1-2"/>
			<path class="st26" d="M706.5,920.5c-0.115,0.281-0.23,0.563-0.346,0.843c-0.277,2.004,1.662,2.6,2.346,4.157"/>
			<path class="st15" d="M711.5,924.5c-0.667,0.667-1.333,1.333-2,2"/>
		</g>
	</g>
</g>
</svg>
