<?xml version="1.0" encoding="utf-8"?>
<!-- Generator: Adobe Illustrator 14.0.0, SVG Export Plug-In . SVG Version: 6.00 Build 43363)  -->
<!DOCTYPE svg PUBLIC "-//W3C//DTD SVG 1.1//EN" "http://www.w3.org/Graphics/SVG/1.1/DTD/svg11.dtd">
<svg version="1.1" id="Layer_1" xmlns="http://www.w3.org/2000/svg" xmlns:xlink="http://www.w3.org/1999/xlink" x="0px" y="0px"
	 width="537.677px" height="717.677px" viewBox="0 0 537.677 717.677" style="enable-background:new 0 0 537.677 717.677;"
	 xml:space="preserve">
<style type="text/css">
<![CDATA[
	.st0{fill:#BFBFBF;stroke:#000000;stroke-width:0.65;stroke-linecap:round;}
]]>
</style>
<g>
	<g>
		<g>
			<path class="st0" d="M7.629,682.593c0-8.687,3.948-12.942,3.948-22.477h1.351c0,9.534-3.947,13.79-3.947,22.477"/>
			<path class="st0" d="M13.196,682.593c0-9.241-3.948-13.808-3.948-22.229h1.35c0,8.421,3.949,12.987,3.949,22.229"/>
			<path class="st0" d="M7.629,636.346c0,8.687,3.948,12.942,3.948,22.476h1.351c0-9.533-3.947-13.789-3.947-22.476"/>
			<path class="st0" d="M13.196,636.346c0,9.241-3.948,13.808-3.948,22.228h1.35c0-8.42,3.949-12.986,3.949-22.228"/>
			<polygon class="st0" points="5.31,665.46 9.552,662.267 16.793,651.539 12.589,655.229 			"/>
			<polygon class="st0" points="16.359,666.317 12.306,662.324 5.571,651.494 9.57,655.165 			"/>
			
				<rect x="10.423" y="656.289" transform="matrix(-0.0221 0.9998 -0.9998 -0.0221 669.8193 662.211)" class="st0" width="1.217" height="4.832"/>
			
				<rect x="10.454" y="654.923" transform="matrix(-0.0822 0.9966 -0.9966 -0.0822 667.0841 700.3781)" class="st0" width="1.217" height="4.83"/>
			<polygon class="st0" points="8.643,659.252 8.543,660.466 13.358,660.875 13.458,659.663 			"/>
		</g>
		<g>
			<path class="st0" d="M7.629,636.342c0-8.687,3.948-12.941,3.948-22.476h1.351c0,9.534-3.947,13.789-3.947,22.476"/>
			<path class="st0" d="M13.196,636.342c0-9.241-3.948-13.808-3.948-22.228h1.35c0,8.42,3.949,12.986,3.949,22.228"/>
			<path class="st0" d="M7.629,590.095c0,8.687,3.948,12.943,3.948,22.477h1.351c0-9.533-3.947-13.79-3.947-22.477"/>
			<path class="st0" d="M13.196,590.095c0,9.241-3.948,13.808-3.948,22.228h1.35c0-8.42,3.949-12.986,3.949-22.228"/>
			<polygon class="st0" points="5.31,619.209 9.552,616.016 16.793,605.289 12.589,608.978 			"/>
			<polygon class="st0" points="16.359,620.066 12.306,616.073 5.571,605.244 9.57,608.914 			"/>
			
				<rect x="10.423" y="610.039" transform="matrix(-0.0221 0.9998 -0.9998 -0.0221 623.5801 614.9509)" class="st0" width="1.216" height="4.832"/>
			
				<rect x="10.455" y="608.672" transform="matrix(-0.0823 0.9966 -0.9966 -0.0823 620.9872 650.3632)" class="st0" width="1.216" height="4.83"/>
			<polygon class="st0" points="8.643,613.002 8.543,614.215 13.358,614.625 13.458,613.412 			"/>
		</g>
		<g>
			<path class="st0" d="M7.629,590.092c0-8.688,3.948-12.942,3.948-22.477h1.351c0,9.534-3.947,13.789-3.947,22.477"/>
			<path class="st0" d="M13.196,590.092c0-9.241-3.948-13.808-3.948-22.229h1.35c0,8.421,3.949,12.987,3.949,22.229"/>
			<path class="st0" d="M7.629,543.845c0,8.687,3.948,12.942,3.948,22.476h1.351c0-9.533-3.947-13.789-3.947-22.476"/>
			<path class="st0" d="M13.196,543.845c0,9.241-3.948,13.808-3.948,22.228h1.35c0-8.42,3.949-12.986,3.949-22.228"/>
			<polygon class="st0" points="5.31,572.959 9.552,569.766 16.793,559.038 12.589,562.728 			"/>
			<polygon class="st0" points="16.359,573.816 12.306,569.823 5.571,558.993 9.57,562.663 			"/>
			
				<rect x="10.423" y="563.788" transform="matrix(-0.0221 0.9998 -0.9998 -0.0221 577.3409 567.6689)" class="st0" width="1.217" height="4.832"/>
			
				<rect x="10.454" y="562.422" transform="matrix(-0.0822 0.9966 -0.9966 -0.0822 574.8961 600.2684)" class="st0" width="1.217" height="4.83"/>
			<polygon class="st0" points="8.643,566.751 8.543,567.964 13.358,568.374 13.458,567.161 			"/>
		</g>
		<g>
			<path class="st0" d="M7.629,543.841c0-8.687,3.948-12.942,3.948-22.477h1.351c0,9.534-3.947,13.79-3.947,22.477"/>
			<path class="st0" d="M13.196,543.841c0-9.241-3.948-13.808-3.948-22.228h1.35c0,8.42,3.949,12.986,3.949,22.228"/>
			<path class="st0" d="M7.629,497.594c0,8.687,3.948,12.942,3.948,22.477h1.351c0-9.534-3.947-13.79-3.947-22.477"/>
			<path class="st0" d="M13.196,497.594c0,9.241-3.948,13.808-3.948,22.228h1.35c0-8.42,3.949-12.986,3.949-22.228"/>
			<polygon class="st0" points="5.31,526.708 9.552,523.515 16.793,512.787 12.589,516.477 			"/>
			<polygon class="st0" points="16.359,527.565 12.306,523.572 5.571,512.743 9.57,516.413 			"/>
			
				<rect x="10.423" y="517.538" transform="matrix(-0.0221 0.9998 -0.9998 -0.0221 531.1017 520.4072)" class="st0" width="1.216" height="4.832"/>
			
				<rect x="10.455" y="516.171" transform="matrix(-0.0823 0.9966 -0.9966 -0.0823 528.8002 550.2481)" class="st0" width="1.216" height="4.83"/>
			<polygon class="st0" points="8.643,520.501 8.543,521.714 13.358,522.124 13.458,520.911 			"/>
		</g>
		<g>
			<path class="st0" d="M7.629,497.591c0-8.688,3.948-12.942,3.948-22.477h1.351c0,9.534-3.947,13.789-3.947,22.477"/>
			<path class="st0" d="M13.196,497.591c0-9.241-3.948-13.808-3.948-22.229h1.35c0,8.421,3.949,12.987,3.949,22.229"/>
			<path class="st0" d="M7.629,451.343c0,8.688,3.948,12.943,3.948,22.477h1.351c0-9.533-3.947-13.789-3.947-22.477"/>
			<path class="st0" d="M13.196,451.343c0,9.241-3.948,13.808-3.948,22.229h1.35c0-8.421,3.949-12.987,3.949-22.229"/>
			<polygon class="st0" points="5.31,480.457 9.552,477.265 16.793,466.537 12.589,470.227 			"/>
			<polygon class="st0" points="16.359,481.315 12.306,477.322 5.571,466.492 9.57,470.162 			"/>
			
				<rect x="10.423" y="471.287" transform="matrix(-0.0221 0.9998 -0.9998 -0.0221 484.8625 473.1269)" class="st0" width="1.217" height="4.832"/>
			
				<rect x="10.454" y="469.921" transform="matrix(-0.0822 0.9966 -0.9966 -0.0822 482.7085 500.1594)" class="st0" width="1.217" height="4.83"/>
			<polygon class="st0" points="8.643,474.25 8.543,475.463 13.358,475.873 13.458,474.66 			"/>
		</g>
		<g>
			<path class="st0" d="M7.629,451.34c0-8.687,3.948-12.942,3.948-22.477h1.351c0,9.534-3.947,13.79-3.947,22.477"/>
			<path class="st0" d="M13.196,451.34c0-9.241-3.948-13.808-3.948-22.228h1.35c0,8.42,3.949,12.986,3.949,22.228"/>
			<path class="st0" d="M7.629,405.093c0,8.687,3.948,12.942,3.948,22.477h1.351c0-9.534-3.947-13.79-3.947-22.477"/>
			<path class="st0" d="M13.196,405.093c0,9.241-3.948,13.808-3.948,22.228h1.35c0-8.42,3.949-12.986,3.949-22.228"/>
			<polygon class="st0" points="5.31,434.207 9.552,431.014 16.793,420.286 12.589,423.976 			"/>
			<polygon class="st0" points="16.359,435.064 12.306,431.071 5.571,420.242 9.57,423.912 			"/>
			
				<rect x="10.423" y="425.037" transform="matrix(-0.0221 0.9998 -0.9998 -0.0221 438.6232 425.8559)" class="st0" width="1.217" height="4.832"/>
			
				<rect x="10.454" y="423.67" transform="matrix(-0.0822 0.9966 -0.9966 -0.0822 436.6147 450.1049)" class="st0" width="1.217" height="4.83"/>
			<polygon class="st0" points="8.643,427.999 8.543,429.213 13.358,429.622 13.458,428.41 			"/>
		</g>
		<g>
			<path class="st0" d="M7.629,405.09c0-8.688,3.948-12.942,3.948-22.477h1.351c0,9.534-3.947,13.789-3.947,22.477"/>
			<path class="st0" d="M13.196,405.09c0-9.241-3.948-13.808-3.948-22.229h1.35c0,8.421,3.949,12.987,3.949,22.229"/>
			<path class="st0" d="M7.629,358.842c0,8.687,3.948,12.943,3.948,22.476h1.351c0-9.533-3.947-13.789-3.947-22.476"/>
			<path class="st0" d="M13.196,358.842c0,9.241-3.948,13.807-3.948,22.228h1.35c0-8.421,3.949-12.987,3.949-22.228"/>
			<polygon class="st0" points="5.31,387.956 9.552,384.764 16.793,374.036 12.589,377.726 			"/>
			<polygon class="st0" points="16.359,388.814 12.306,384.82 5.571,373.991 9.57,377.661 			"/>
			
				<rect x="10.423" y="378.786" transform="matrix(-0.0221 0.9998 -0.9998 -0.0221 392.384 378.5849)" class="st0" width="1.217" height="4.832"/>
			
				<rect x="10.454" y="377.42" transform="matrix(-0.0822 0.9966 -0.9966 -0.0822 390.5209 400.0504)" class="st0" width="1.217" height="4.83"/>
			<polygon class="st0" points="8.643,381.749 8.543,382.962 13.358,383.372 13.458,382.159 			"/>
		</g>
		<g>
			<path class="st0" d="M7.629,358.839c0-8.687,3.948-12.942,3.948-22.477h1.351c0,9.534-3.947,13.79-3.947,22.477"/>
			<path class="st0" d="M13.196,358.839c0-9.241-3.948-13.808-3.948-22.228h1.35c0,8.42,3.949,12.987,3.949,22.228"/>
			<path class="st0" d="M7.629,312.592c0,8.687,3.948,12.942,3.948,22.476h1.351c0-9.534-3.947-13.79-3.947-22.476"/>
			<path class="st0" d="M13.196,312.592c0,9.241-3.948,13.807-3.948,22.228h1.35c0-8.42,3.949-12.986,3.949-22.228"/>
			<polygon class="st0" points="5.31,341.706 9.552,338.513 16.793,327.785 12.589,331.475 			"/>
			<polygon class="st0" points="16.359,342.563 12.306,338.57 5.571,327.741 9.57,331.411 			"/>
			
				<rect x="10.423" y="332.536" transform="matrix(-0.0221 0.9998 -0.9998 -0.0221 346.1446 331.3166)" class="st0" width="1.217" height="4.832"/>
			
				<rect x="10.455" y="331.169" transform="matrix(-0.0823 0.9966 -0.9966 -0.0823 344.4264 350.0066)" class="st0" width="1.217" height="4.83"/>
			<polygon class="st0" points="8.643,335.499 8.543,336.711 13.358,337.122 13.458,335.909 			"/>
		</g>
		<g>
			<path class="st0" d="M7.629,312.588c0-8.687,3.948-12.942,3.948-22.477h1.351c0,9.534-3.947,13.79-3.947,22.477"/>
			<path class="st0" d="M13.196,312.588c0-9.241-3.948-13.808-3.948-22.228h1.35c0,8.42,3.949,12.987,3.949,22.228"/>
			<path class="st0" d="M7.629,266.341c0,8.687,3.948,12.943,3.948,22.477h1.351c0-9.534-3.947-13.79-3.947-22.477"/>
			<path class="st0" d="M13.196,266.341c0,9.241-3.948,13.808-3.948,22.228h1.35c0-8.42,3.949-12.987,3.949-22.228"/>
			<polygon class="st0" points="5.31,295.455 9.552,292.262 16.793,281.535 12.589,285.224 			"/>
			<polygon class="st0" points="16.359,296.313 12.306,292.32 5.571,281.49 9.57,285.16 			"/>
			
				<rect x="10.423" y="286.285" transform="matrix(-0.0221 0.9998 -0.9998 -0.0221 299.9053 284.0452)" class="st0" width="1.217" height="4.832"/>
			
				<rect x="10.455" y="284.919" transform="matrix(-0.0823 0.9966 -0.9966 -0.0823 298.3327 299.9505)" class="st0" width="1.217" height="4.83"/>
			<polygon class="st0" points="8.643,289.248 8.543,290.461 13.358,290.871 13.458,289.658 			"/>
		</g>
		<g>
			<path class="st0" d="M7.629,266.338c0-8.687,3.948-12.942,3.948-22.477h1.351c0,9.534-3.947,13.79-3.947,22.477"/>
			<path class="st0" d="M13.196,266.338c0-9.241-3.948-13.808-3.948-22.228h1.35c0,8.42,3.949,12.987,3.949,22.228"/>
			<path class="st0" d="M7.629,220.09c0,8.687,3.948,12.943,3.948,22.477h1.351c0-9.534-3.947-13.79-3.947-22.477"/>
			<path class="st0" d="M13.196,220.09c0,9.241-3.948,13.808-3.948,22.228h1.35c0-8.42,3.949-12.987,3.949-22.228"/>
			<polygon class="st0" points="5.31,249.205 9.552,246.012 16.793,235.284 12.589,238.974 			"/>
			<polygon class="st0" points="16.359,250.063 12.306,246.069 5.571,235.24 9.57,238.91 			"/>
			
				<rect x="10.423" y="240.035" transform="matrix(-0.0221 0.9998 -0.9998 -0.0221 253.6661 236.7716)" class="st0" width="1.217" height="4.832"/>
			
				<rect x="10.454" y="238.668" transform="matrix(-0.0822 0.9966 -0.9966 -0.0822 252.2393 249.8865)" class="st0" width="1.217" height="4.83"/>
			<polygon class="st0" points="8.643,242.997 8.543,244.21 13.358,244.62 13.458,243.408 			"/>
		</g>
		<g>
			<path class="st0" d="M7.629,220.087c0-8.687,3.948-12.942,3.948-22.477h1.351c0,9.534-3.947,13.79-3.947,22.477"/>
			<path class="st0" d="M13.196,220.087c0-9.241-3.948-13.808-3.948-22.228h1.35c0,8.42,3.949,12.987,3.949,22.228"/>
			<path class="st0" d="M7.629,173.84c0,8.687,3.948,12.943,3.948,22.477h1.351c0-9.534-3.947-13.79-3.947-22.477"/>
			<path class="st0" d="M13.196,173.84c0,9.241-3.948,13.808-3.948,22.228h1.35c0-8.42,3.949-12.987,3.949-22.228"/>
			<polygon class="st0" points="5.31,202.954 9.552,199.761 16.793,189.034 12.589,192.723 			"/>
			<polygon class="st0" points="16.359,203.812 12.306,199.818 5.571,188.989 9.57,192.659 			"/>
			
				<rect x="10.423" y="193.784" transform="matrix(-0.0221 0.9998 -0.9998 -0.0221 207.4268 189.5006)" class="st0" width="1.217" height="4.832"/>
			
				<rect x="10.454" y="192.418" transform="matrix(-0.0822 0.9966 -0.9966 -0.0822 206.1455 199.832)" class="st0" width="1.217" height="4.83"/>
			<polygon class="st0" points="8.643,196.747 8.543,197.96 13.358,198.37 13.458,197.157 			"/>
		</g>
		<g>
			<path class="st0" d="M7.629,173.837c0-8.687,3.948-12.942,3.948-22.477h1.351c0,9.534-3.947,13.79-3.947,22.477"/>
			<path class="st0" d="M13.196,173.837c0-9.241-3.948-13.808-3.948-22.228h1.35c0,8.42,3.949,12.987,3.949,22.228"/>
			<path class="st0" d="M7.629,127.589c0,8.687,3.948,12.943,3.948,22.477h1.351c0-9.534-3.947-13.79-3.947-22.477"/>
			<path class="st0" d="M13.196,127.589c0,9.241-3.948,13.808-3.948,22.228h1.35c0-8.42,3.949-12.987,3.949-22.228"/>
			<polygon class="st0" points="5.31,156.704 9.552,153.511 16.793,142.783 12.589,146.473 			"/>
			<polygon class="st0" points="16.359,157.562 12.306,153.568 5.571,142.739 9.57,146.409 			"/>
			
				<rect x="10.423" y="147.534" transform="matrix(-0.0221 0.9998 -0.9998 -0.0221 161.1876 142.2296)" class="st0" width="1.217" height="4.832"/>
			
				<rect x="10.454" y="146.167" transform="matrix(-0.0822 0.9966 -0.9966 -0.0822 160.0518 149.7775)" class="st0" width="1.217" height="4.83"/>
			<polygon class="st0" points="8.643,150.496 8.543,151.709 13.358,152.119 13.458,150.907 			"/>
		</g>
		<g>
			<path class="st0" d="M7.629,127.586c0-8.687,3.948-12.942,3.948-22.476h1.351c0,9.534-3.947,13.79-3.947,22.476"/>
			<path class="st0" d="M13.196,127.586c0-9.241-3.948-13.808-3.948-22.228h1.35c0,8.42,3.949,12.986,3.949,22.228"/>
			<path class="st0" d="M7.629,81.339c0,8.687,3.948,12.943,3.948,22.477h1.351c0-9.534-3.947-13.79-3.947-22.477"/>
			<path class="st0" d="M13.196,81.339c0,9.241-3.948,13.808-3.948,22.228h1.35c0-8.42,3.949-12.987,3.949-22.228"/>
			<polygon class="st0" points="5.31,110.453 9.552,107.26 16.793,96.533 12.589,100.222 			"/>
			<polygon class="st0" points="16.359,111.311 12.306,107.317 5.571,96.488 9.57,100.158 			"/>
			
				<rect x="10.423" y="101.283" transform="matrix(-0.0221 0.9998 -0.9998 -0.0221 114.9482 94.9592)" class="st0" width="1.217" height="4.832"/>
			
				<rect x="10.455" y="99.916" transform="matrix(-0.0823 0.9966 -0.9966 -0.0823 113.9578 99.7261)" class="st0" width="1.217" height="4.83"/>
			<polygon class="st0" points="8.643,104.246 8.543,105.459 13.358,105.869 13.458,104.656 			"/>
		</g>
		<g>
			<path class="st0" d="M7.629,81.335c0-8.687,3.948-12.942,3.948-22.476h1.351c0,9.534-3.947,13.79-3.947,22.476"/>
			<path class="st0" d="M13.196,81.335c0-9.241-3.948-13.808-3.948-22.228h1.35c0,8.42,3.949,12.987,3.949,22.228"/>
			<path class="st0" d="M7.629,35.088c0,8.687,3.948,12.943,3.948,22.476h1.351c0-9.533-3.947-13.789-3.947-22.476"/>
			<path class="st0" d="M13.196,35.088c0,9.241-3.948,13.808-3.948,22.228h1.35c0-8.42,3.949-12.987,3.949-22.228"/>
			<polygon class="st0" points="5.31,64.203 9.552,61.009 16.793,50.282 12.589,53.972 			"/>
			<polygon class="st0" points="16.359,65.06 12.306,61.067 5.571,50.237 9.57,53.908 			"/>
			
				<rect x="10.423" y="55.032" transform="matrix(-0.0221 0.9998 -0.9998 -0.0221 68.7088 47.6876)" class="st0" width="1.217" height="4.832"/>
			
				<rect x="10.455" y="53.666" transform="matrix(-0.0823 0.9966 -0.9966 -0.0823 67.8642 49.67)" class="st0" width="1.217" height="4.83"/>
			<polygon class="st0" points="8.643,57.995 8.543,59.208 13.358,59.618 13.458,58.405 			"/>
		</g>
		<g>
			<path class="st0" d="M35.085,7.629c8.781,0,13.082,3.948,22.72,3.948v1.351c-9.638,0-13.939-3.947-22.72-3.947"/>
			<path class="st0" d="M35.085,13.196c9.341,0,13.957-3.948,22.468-3.948v1.35c-8.511,0-13.127,3.949-22.468,3.949"/>
			<path class="st0" d="M81.833,7.629c-8.781,0-13.083,3.948-22.719,3.948v1.351c9.636,0,13.938-3.947,22.719-3.947"/>
			<path class="st0" d="M81.833,13.196c-9.341,0-13.957-3.948-22.468-3.948v1.35c8.511,0,13.127,3.949,22.468,3.949"/>
			<polygon class="st0" points="52.403,5.31 55.631,9.552 66.475,16.793 62.745,12.589 			"/>
			<polygon class="st0" points="51.537,16.359 55.573,12.306 66.52,5.571 62.81,9.57 			"/>
			
				<rect x="58.616" y="8.615" transform="matrix(-0.9998 -0.0218 0.0218 -0.9998 118.2069 23.3533)" class="st0" width="1.23" height="4.832"/>
			<polygon class="st0" points="59.793,13.419 61.019,13.52 61.433,8.707 60.207,8.605 			"/>
			<polygon class="st0" points="58.678,8.643 57.452,8.543 57.038,13.358 58.263,13.458 			"/>
		</g>
		<g>
			<path class="st0" d="M81.836,7.629c8.781,0,13.082,3.948,22.719,3.948v1.351c-9.637,0-13.938-3.947-22.719-3.947"/>
			<path class="st0" d="M81.836,13.196c9.341,0,13.957-3.948,22.468-3.948v1.35c-8.511,0-13.127,3.949-22.468,3.949"/>
			<path class="st0" d="M128.583,7.629c-8.781,0-13.083,3.948-22.72,3.948v1.351c9.637,0,13.939-3.947,22.72-3.947"/>
			<path class="st0" d="M128.583,13.196c-9.341,0-13.957-3.948-22.469-3.948v1.35c8.512,0,13.127,3.949,22.469,3.949"/>
			<polygon class="st0" points="99.154,5.31 102.382,9.552 113.225,16.793 109.496,12.589 			"/>
			<polygon class="st0" points="98.287,16.359 102.324,12.306 113.27,5.571 109.561,9.57 			"/>
			
				<rect x="105.366" y="8.615" transform="matrix(-0.9998 -0.0218 0.0218 -0.9998 211.6968 24.3733)" class="st0" width="1.23" height="4.832"/>
			<polygon class="st0" points="106.543,13.419 107.769,13.52 108.184,8.707 106.958,8.605 			"/>
			<polygon class="st0" points="105.429,8.643 104.202,8.543 103.788,13.358 105.014,13.458 			"/>
		</g>
		<g>
			<path class="st0" d="M128.586,7.629c8.781,0,13.083,3.948,22.72,3.948v1.351c-9.637,0-13.939-3.947-22.72-3.947"/>
			<path class="st0" d="M128.586,13.196c9.341,0,13.957-3.948,22.468-3.948v1.35c-8.511,0-13.127,3.949-22.468,3.949"/>
			<path class="st0" d="M175.334,7.629c-8.781,0-13.083,3.948-22.719,3.948v1.351c9.637,0,13.938-3.947,22.719-3.947"/>
			<path class="st0" d="M175.334,13.196c-9.341,0-13.957-3.948-22.468-3.948v1.35c8.511,0,13.127,3.949,22.468,3.949"/>
			<polygon class="st0" points="145.905,5.31 149.132,9.552 159.976,16.793 156.247,12.589 			"/>
			<polygon class="st0" points="145.038,16.359 149.075,12.306 160.021,5.571 156.312,9.57 			"/>
			
				<rect x="152.118" y="8.615" transform="matrix(-0.9998 -0.0218 0.0218 -0.9998 305.1875 25.3952)" class="st0" width="1.23" height="4.832"/>
			<polygon class="st0" points="153.294,13.419 154.52,13.52 154.934,8.707 153.708,8.605 			"/>
			<polygon class="st0" points="152.18,8.643 150.953,8.543 150.539,13.358 151.765,13.458 			"/>
		</g>
		<g>
			<path class="st0" d="M175.337,7.629c8.781,0,13.082,3.948,22.719,3.948v1.351c-9.637,0-13.938-3.947-22.719-3.947"/>
			<path class="st0" d="M175.337,13.196c9.341,0,13.957-3.948,22.468-3.948v1.35c-8.511,0-13.127,3.949-22.468,3.949"/>
			<path class="st0" d="M222.085,7.629c-8.781,0-13.083,3.948-22.72,3.948v1.351c9.637,0,13.939-3.947,22.72-3.947"/>
			<path class="st0" d="M222.085,13.196c-9.341,0-13.957-3.948-22.468-3.948v1.35c8.511,0,13.127,3.949,22.468,3.949"/>
			<polygon class="st0" points="192.656,5.31 195.883,9.552 206.727,16.793 202.998,12.589 			"/>
			<polygon class="st0" points="191.789,16.359 195.825,12.306 206.772,5.571 203.062,9.57 			"/>
			
				<rect x="198.868" y="8.615" transform="matrix(-0.9998 -0.0218 0.0218 -0.9998 398.6775 26.4144)" class="st0" width="1.23" height="4.832"/>
			<polygon class="st0" points="200.045,13.419 201.271,13.52 201.685,8.707 200.459,8.605 			"/>
			<polygon class="st0" points="198.93,8.643 197.704,8.543 197.29,13.358 198.516,13.458 			"/>
		</g>
		<g>
			<path class="st0" d="M222.088,7.629c8.781,0,13.083,3.948,22.72,3.948v1.351c-9.637,0-13.938-3.947-22.72-3.947"/>
			<path class="st0" d="M222.088,13.196c9.341,0,13.957-3.948,22.469-3.948v1.35c-8.512,0-13.127,3.949-22.469,3.949"/>
			<path class="st0" d="M268.835,7.629c-8.781,0-13.083,3.948-22.719,3.948v1.351c9.637,0,13.938-3.947,22.719-3.947"/>
			<path class="st0" d="M268.835,13.196c-9.341,0-13.957-3.948-22.468-3.948v1.35c8.512,0,13.127,3.949,22.468,3.949"/>
			<polygon class="st0" points="239.406,5.31 242.634,9.552 253.478,16.793 249.748,12.589 			"/>
			<polygon class="st0" points="238.54,16.359 242.576,12.306 253.522,5.571 249.813,9.57 			"/>
			
				<rect x="245.619" y="8.615" transform="matrix(-0.9998 -0.0218 0.0218 -0.9998 492.1682 27.437)" class="st0" width="1.23" height="4.832"/>
			<polygon class="st0" points="246.796,13.419 248.021,13.52 248.436,8.707 247.21,8.605 			"/>
			<polygon class="st0" points="245.681,8.643 244.455,8.543 244.041,13.358 245.266,13.458 			"/>
		</g>
		<g>
			<path class="st0" d="M268.839,7.629c8.781,0,13.082,3.948,22.72,3.948v1.351c-9.638,0-13.938-3.947-22.72-3.947"/>
			<path class="st0" d="M268.839,13.196c9.341,0,13.957-3.948,22.469-3.948v1.35c-8.512,0-13.128,3.949-22.469,3.949"/>
			<path class="st0" d="M315.586,7.629c-8.78,0-13.082,3.948-22.719,3.948v1.351c9.637,0,13.938-3.947,22.719-3.947"/>
			<path class="st0" d="M315.586,13.196c-9.341,0-13.956-3.948-22.468-3.948v1.35c8.512,0,13.127,3.949,22.468,3.949"/>
			<polygon class="st0" points="286.157,5.31 289.385,9.552 300.229,16.793 296.499,12.589 			"/>
			<polygon class="st0" points="285.29,16.359 289.327,12.306 300.273,5.571 296.563,9.57 			"/>
			
				<rect x="292.369" y="8.615" transform="matrix(-0.9998 -0.0218 0.0218 -0.9998 585.658 28.4579)" class="st0" width="1.23" height="4.832"/>
			<polygon class="st0" points="293.547,13.419 294.772,13.52 295.187,8.707 293.961,8.605 			"/>
			<polygon class="st0" points="292.432,8.643 291.205,8.543 290.791,13.358 292.017,13.458 			"/>
		</g>
		<g>
			<path class="st0" d="M315.59,7.629c8.78,0,13.082,3.948,22.72,3.948v1.351c-9.638,0-13.939-3.947-22.72-3.947"/>
			<path class="st0" d="M315.59,13.196c9.341,0,13.957-3.948,22.468-3.948v1.35c-8.511,0-13.127,3.949-22.468,3.949"/>
			<path class="st0" d="M362.337,7.629c-8.78,0-13.083,3.948-22.72,3.948v1.351c9.637,0,13.939-3.947,22.72-3.947"/>
			<path class="st0" d="M362.337,13.196c-9.341,0-13.957-3.948-22.468-3.948v1.35c8.511,0,13.127,3.949,22.468,3.949"/>
			<polygon class="st0" points="332.908,5.31 336.136,9.552 346.979,16.793 343.25,12.589 			"/>
			<polygon class="st0" points="332.041,16.359 336.077,12.306 347.024,5.571 343.314,9.57 			"/>
			
				<rect x="339.12" y="8.615" transform="matrix(-0.9998 -0.0218 0.0218 -0.9998 679.1488 29.4789)" class="st0" width="1.23" height="4.832"/>
			<polygon class="st0" points="340.298,13.419 341.523,13.52 341.938,8.707 340.712,8.605 			"/>
			<polygon class="st0" points="339.183,8.643 337.956,8.543 337.542,13.358 338.768,13.458 			"/>
		</g>
		<g>
			<path class="st0" d="M362.341,7.629c8.78,0,13.082,3.948,22.719,3.948v1.351c-9.637,0-13.938-3.947-22.719-3.947"/>
			<path class="st0" d="M362.341,13.196c9.341,0,13.956-3.948,22.468-3.948v1.35c-8.512,0-13.127,3.949-22.468,3.949"/>
			<path class="st0" d="M409.088,7.629c-8.781,0-13.083,3.948-22.72,3.948v1.351c9.637,0,13.938-3.947,22.72-3.947"/>
			<path class="st0" d="M409.088,13.196c-9.341,0-13.957-3.948-22.469-3.948v1.35c8.512,0,13.128,3.949,22.469,3.949"/>
			<polygon class="st0" points="379.659,5.31 382.887,9.552 393.729,16.793 390.001,12.589 			"/>
			<polygon class="st0" points="378.792,16.359 382.828,12.306 393.774,5.571 390.065,9.57 			"/>
			
				<rect x="385.871" y="8.615" transform="matrix(-0.9998 -0.0218 0.0218 -0.9998 772.6396 30.4998)" class="st0" width="1.23" height="4.832"/>
			<polygon class="st0" points="387.048,13.419 388.273,13.52 388.688,8.707 387.462,8.605 			"/>
			<polygon class="st0" points="385.934,8.643 384.707,8.543 384.293,13.358 385.519,13.458 			"/>
		</g>
		<g>
			<path class="st0" d="M409.091,7.629c8.781,0,13.082,3.948,22.72,3.948v1.351c-9.638,0-13.938-3.947-22.72-3.947"/>
			<path class="st0" d="M409.091,13.196c9.342,0,13.957-3.948,22.469-3.948v1.35c-8.512,0-13.127,3.949-22.469,3.949"/>
			<path class="st0" d="M455.839,7.629c-8.781,0-13.083,3.948-22.72,3.948v1.351c9.637,0,13.938-3.947,22.72-3.947"/>
			<path class="st0" d="M455.839,13.196c-9.342,0-13.957-3.948-22.469-3.948v1.35c8.512,0,13.127,3.949,22.469,3.949"/>
			<polygon class="st0" points="426.409,5.31 429.637,9.552 440.48,16.793 436.751,12.589 			"/>
			<polygon class="st0" points="425.543,16.359 429.579,12.306 440.525,5.571 436.815,9.57 			"/>
			
				<rect x="432.622" y="8.615" transform="matrix(-0.9998 -0.0218 0.0218 -0.9998 866.1304 31.5207)" class="st0" width="1.23" height="4.832"/>
			<polygon class="st0" points="433.799,13.419 435.024,13.52 435.438,8.707 434.213,8.605 			"/>
			<polygon class="st0" points="432.685,8.643 431.458,8.543 431.044,13.358 432.27,13.458 			"/>
		</g>
		<g>
			<path class="st0" d="M455.842,7.629c8.781,0,13.082,3.948,22.72,3.948v1.351c-9.638,0-13.938-3.947-22.72-3.947"/>
			<path class="st0" d="M455.842,13.196c9.341,0,13.957-3.948,22.469-3.948v1.35c-8.512,0-13.128,3.949-22.469,3.949"/>
			<path class="st0" d="M502.59,7.629c-8.781,0-13.083,3.948-22.72,3.948v1.351c9.637,0,13.938-3.947,22.72-3.947"/>
			<path class="st0" d="M502.59,13.196c-9.342,0-13.957-3.948-22.469-3.948v1.35c8.512,0,13.127,3.949,22.469,3.949"/>
			<polygon class="st0" points="473.16,5.31 476.388,9.552 487.231,16.793 483.502,12.589 			"/>
			<polygon class="st0" points="472.293,16.359 476.33,12.306 487.276,5.571 483.566,9.57 			"/>
			
				<rect x="479.372" y="8.615" transform="matrix(-0.9998 -0.0218 0.0218 -0.9998 959.6193 32.5416)" class="st0" width="1.23" height="4.832"/>
			<polygon class="st0" points="480.55,13.419 481.775,13.52 482.189,8.707 480.964,8.605 			"/>
			<polygon class="st0" points="479.435,8.643 478.208,8.543 477.794,13.358 479.02,13.458 			"/>
		</g>
		<g>
			<path class="st0" d="M530.049,35.085c0,8.687-3.948,12.942-3.948,22.477h-1.351c0-9.534,3.946-13.79,3.946-22.477"/>
			<path class="st0" d="M524.481,35.085c0,9.241,3.949,13.808,3.949,22.228h-1.35c0-8.42-3.95-12.987-3.95-22.228"/>
			<path class="st0" d="M530.049,81.333c0-8.687-3.948-12.943-3.948-22.477h-1.351c0,9.534,3.946,13.79,3.946,22.477"/>
			<path class="st0" d="M524.481,81.333c0-9.241,3.949-13.808,3.949-22.228h-1.35c0,8.42-3.95,12.987-3.95,22.228"/>
			<polygon class="st0" points="532.368,52.218 528.126,55.411 520.884,66.139 525.089,62.449 			"/>
			<polygon class="st0" points="521.318,51.36 525.372,55.354 532.106,66.183 528.107,62.513 			"/>
			
				<rect x="526.038" y="56.556" transform="matrix(0.0217 -0.9998 0.9998 0.0217 456.2785 584.2177)" class="st0" width="1.217" height="4.832"/>
			
				<rect x="526.006" y="57.925" transform="matrix(0.0826 -0.9966 0.9966 0.0826 422.9584 580.1658)" class="st0" width="1.217" height="4.83"/>
			<polygon class="st0" points="529.034,58.426 529.135,57.212 524.319,56.803 524.221,58.015 			"/>
		</g>
		<g>
			<path class="st0" d="M530.049,81.335c0,8.687-3.948,12.942-3.948,22.477h-1.351c0-9.534,3.946-13.79,3.946-22.477"/>
			<path class="st0" d="M524.481,81.335c0,9.241,3.949,13.808,3.949,22.228h-1.35c0-8.42-3.95-12.987-3.95-22.228"/>
			<path class="st0" d="M530.049,127.583c0-8.687-3.948-12.943-3.948-22.477h-1.351c0,9.534,3.946,13.79,3.946,22.477"/>
			<path class="st0" d="M524.481,127.583c0-9.241,3.949-13.808,3.949-22.228h-1.35c0,8.42-3.95,12.987-3.95,22.228"/>
			<polygon class="st0" points="532.368,98.469 528.126,101.662 520.884,112.389 525.089,108.7 			"/>
			<polygon class="st0" points="521.318,97.611 525.372,101.604 532.106,112.434 528.107,108.764 			"/>
			
				<rect x="526.038" y="102.807" transform="matrix(0.0217 -0.9998 0.9998 0.0217 410.0388 629.4662)" class="st0" width="1.217" height="4.832"/>
			
				<rect x="526.006" y="104.175" transform="matrix(0.0826 -0.9966 0.9966 0.0826 376.8661 622.5939)" class="st0" width="1.217" height="4.83"/>
			<polygon class="st0" points="529.034,104.676 529.135,103.463 524.319,103.053 524.221,104.266 			"/>
		</g>
		<g>
			<path class="st0" d="M530.049,127.586c0,8.687-3.948,12.942-3.948,22.477h-1.351c0-9.534,3.946-13.79,3.946-22.477"/>
			<path class="st0" d="M524.481,127.586c0,9.241,3.949,13.808,3.949,22.228h-1.35c0-8.42-3.95-12.987-3.95-22.228"/>
			<path class="st0" d="M530.049,173.833c0-8.687-3.948-12.943-3.948-22.477h-1.351c0,9.534,3.946,13.79,3.946,22.477"/>
			<path class="st0" d="M524.481,173.833c0-9.241,3.949-13.808,3.949-22.228h-1.35c0,8.42-3.95,12.987-3.95,22.228"/>
			<polygon class="st0" points="532.368,144.719 528.126,147.912 520.884,158.64 525.089,154.95 			"/>
			<polygon class="st0" points="521.318,143.861 525.372,147.855 532.106,158.684 528.107,155.014 			"/>
			
				<rect x="526.038" y="149.057" transform="matrix(0.0217 -0.9998 0.9998 0.0217 363.7992 674.7147)" class="st0" width="1.217" height="4.832"/>
			
				<rect x="526.006" y="150.426" transform="matrix(0.0826 -0.9966 0.9966 0.0826 330.7739 665.0219)" class="st0" width="1.217" height="4.83"/>
			<polygon class="st0" points="529.034,150.927 529.135,149.713 524.319,149.304 524.221,150.516 			"/>
		</g>
		<g>
			<path class="st0" d="M530.049,173.837c0,8.687-3.948,12.942-3.948,22.476h-1.351c0-9.534,3.946-13.79,3.946-22.476"/>
			<path class="st0" d="M524.481,173.837c0,9.241,3.949,13.808,3.949,22.228h-1.35c0-8.42-3.95-12.986-3.95-22.228"/>
			<path class="st0" d="M530.049,220.084c0-8.687-3.948-12.943-3.948-22.477h-1.351c0,9.534,3.946,13.79,3.946,22.477"/>
			<path class="st0" d="M524.481,220.084c0-9.241,3.949-13.808,3.949-22.228h-1.35c0,8.42-3.95,12.987-3.95,22.228"/>
			<polygon class="st0" points="532.368,190.97 528.126,194.163 520.884,204.89 525.089,201.201 			"/>
			<polygon class="st0" points="521.318,190.112 525.372,194.105 532.106,204.935 528.107,201.265 			"/>
			
				<rect x="526.038" y="195.308" transform="matrix(0.0217 -0.9998 0.9998 0.0217 317.5549 719.9617)" class="st0" width="1.217" height="4.832"/>
			
				<rect x="526.006" y="196.676" transform="matrix(0.0827 -0.9966 0.9966 0.0827 284.6646 707.4421)" class="st0" width="1.217" height="4.83"/>
			<polygon class="st0" points="529.034,197.177 529.135,195.964 524.319,195.554 524.221,196.767 			"/>
		</g>
		<g>
			<path class="st0" d="M530.049,220.087c0,8.687-3.948,12.942-3.948,22.476h-1.351c0-9.534,3.946-13.79,3.946-22.476"/>
			<path class="st0" d="M524.481,220.087c0,9.241,3.949,13.808,3.949,22.228h-1.35c0-8.42-3.95-12.986-3.95-22.228"/>
			<path class="st0" d="M530.049,266.334c0-8.687-3.948-12.943-3.948-22.476h-1.351c0,9.533,3.946,13.789,3.946,22.476"/>
			<path class="st0" d="M524.481,266.334c0-9.241,3.949-13.808,3.949-22.228h-1.35c0,8.42-3.95,12.987-3.95,22.228"/>
			<polygon class="st0" points="532.368,237.22 528.126,240.414 520.884,251.141 525.089,247.451 			"/>
			<polygon class="st0" points="521.318,236.363 525.372,240.356 532.106,251.186 528.107,247.515 			"/>
			
				<rect x="526.038" y="241.559" transform="matrix(0.0217 -0.9998 0.9998 0.0217 271.315 765.21)" class="st0" width="1.217" height="4.832"/>
			
				<rect x="526.006" y="242.927" transform="matrix(0.0827 -0.9966 0.9966 0.0827 238.5724 749.8686)" class="st0" width="1.217" height="4.83"/>
			<polygon class="st0" points="529.034,243.428 529.135,242.214 524.319,241.805 524.221,243.017 			"/>
		</g>
		<g>
			<path class="st0" d="M530.049,266.338c0,8.687-3.948,12.942-3.948,22.476h-1.351c0-9.534,3.946-13.79,3.946-22.476"/>
			<path class="st0" d="M524.481,266.338c0,9.241,3.949,13.808,3.949,22.228h-1.35c0-8.42-3.95-12.987-3.95-22.228"/>
			<path class="st0" d="M530.049,312.585c0-8.687-3.948-12.943-3.948-22.476h-1.351c0,9.533,3.946,13.79,3.946,22.476"/>
			<path class="st0" d="M524.481,312.585c0-9.241,3.949-13.808,3.949-22.228h-1.35c0,8.42-3.95,12.986-3.95,22.228"/>
			<polygon class="st0" points="532.368,283.471 528.126,286.664 520.884,297.391 525.089,293.702 			"/>
			<polygon class="st0" points="521.318,282.613 525.372,286.606 532.106,297.436 528.107,293.766 			"/>
			
				<rect x="526.038" y="287.809" transform="matrix(0.0217 -0.9998 0.9998 0.0217 225.0754 810.4581)" class="st0" width="1.217" height="4.832"/>
			
				<rect x="526.006" y="289.177" transform="matrix(0.0827 -0.9966 0.9966 0.0827 192.4803 792.2951)" class="st0" width="1.217" height="4.83"/>
			<polygon class="st0" points="529.034,289.678 529.135,288.465 524.319,288.055 524.221,289.268 			"/>
		</g>
		<g>
			<path class="st0" d="M530.049,312.588c0,8.687-3.948,12.942-3.948,22.476h-1.351c0-9.534,3.946-13.789,3.946-22.476"/>
			<path class="st0" d="M524.481,312.588c0,9.241,3.949,13.808,3.949,22.228h-1.35c0-8.42-3.95-12.987-3.95-22.228"/>
			<path class="st0" d="M530.049,358.835c0-8.687-3.948-12.943-3.948-22.476h-1.351c0,9.533,3.946,13.79,3.946,22.476"/>
			<path class="st0" d="M524.481,358.835c0-9.241,3.949-13.808,3.949-22.228h-1.35c0,8.42-3.95,12.986-3.95,22.228"/>
			<polygon class="st0" points="532.368,329.721 528.126,332.915 520.884,343.642 525.089,339.953 			"/>
			<polygon class="st0" points="521.318,328.864 525.372,332.857 532.106,343.687 528.107,340.017 			"/>
			
				<rect x="526.038" y="334.06" transform="matrix(0.0217 -0.9998 0.9998 0.0217 178.8358 855.7062)" class="st0" width="1.217" height="4.832"/>
			
				<rect x="526.006" y="335.428" transform="matrix(0.0827 -0.9966 0.9966 0.0827 146.3879 834.7218)" class="st0" width="1.217" height="4.83"/>
			<polygon class="st0" points="529.034,335.929 529.135,334.716 524.319,334.306 524.221,335.519 			"/>
		</g>
		<g>
			<path class="st0" d="M530.049,358.839c0,8.687-3.948,12.942-3.948,22.477h-1.351c0-9.534,3.946-13.79,3.946-22.477"/>
			<path class="st0" d="M524.481,358.839c0,9.241,3.949,13.808,3.949,22.228h-1.35c0-8.42-3.95-12.986-3.95-22.228"/>
			<path class="st0" d="M530.049,405.086c0-8.687-3.948-12.942-3.948-22.477h-1.351c0,9.534,3.946,13.79,3.946,22.477"/>
			<path class="st0" d="M524.481,405.086c0-9.241,3.949-13.808,3.949-22.228h-1.35c0,8.42-3.95,12.986-3.95,22.228"/>
			<polygon class="st0" points="532.368,375.972 528.126,379.165 520.884,389.893 525.089,386.203 			"/>
			<polygon class="st0" points="521.318,375.114 525.372,379.107 532.106,389.937 528.107,386.267 			"/>
			
				<rect x="526.038" y="380.31" transform="matrix(0.0217 -0.9998 0.9998 0.0217 132.6008 900.9575)" class="st0" width="1.217" height="4.832"/>
			
				<rect x="526.006" y="381.678" transform="matrix(0.0826 -0.9966 0.9966 0.0826 100.3123 877.1622)" class="st0" width="1.217" height="4.83"/>
			<polygon class="st0" points="529.034,382.18 529.135,380.966 524.319,380.557 524.221,381.769 			"/>
		</g>
		<g>
			<path class="st0" d="M530.049,405.09c0,8.687-3.948,12.941-3.948,22.476h-1.351c0-9.534,3.946-13.789,3.946-22.476"/>
			<path class="st0" d="M524.481,405.09c0,9.241,3.949,13.808,3.949,22.228h-1.35c0-8.42-3.95-12.986-3.95-22.228"/>
			<path class="st0" d="M530.049,451.337c0-8.688-3.948-12.943-3.948-22.477h-1.351c0,9.533,3.946,13.789,3.946,22.477"/>
			<path class="st0" d="M524.481,451.337c0-9.241,3.949-13.808,3.949-22.229h-1.35c0,8.421-3.95,12.987-3.95,22.229"/>
			<polygon class="st0" points="532.368,422.223 528.126,425.415 520.884,436.143 525.089,432.453 			"/>
			<polygon class="st0" points="521.318,421.365 525.372,425.358 532.106,436.188 528.107,432.518 			"/>
			
				<rect x="526.038" y="426.561" transform="matrix(0.0217 -0.9998 0.9998 0.0217 86.3517 946.1989)" class="st0" width="1.216" height="4.832"/>
			
				<rect x="526.007" y="427.929" transform="matrix(0.0827 -0.9966 0.9966 0.0827 54.1872 919.5593)" class="st0" width="1.216" height="4.83"/>
			<polygon class="st0" points="529.034,428.43 529.135,427.217 524.319,426.807 524.221,428.02 			"/>
		</g>
		<g>
			<path class="st0" d="M530.049,451.34c0,8.687-3.948,12.942-3.948,22.477h-1.351c0-9.534,3.946-13.79,3.946-22.477"/>
			<path class="st0" d="M524.481,451.34c0,9.241,3.949,13.808,3.949,22.229h-1.35c0-8.421-3.95-12.987-3.95-22.229"/>
			<path class="st0" d="M530.049,497.587c0-8.687-3.948-12.942-3.948-22.476h-1.351c0,9.533,3.946,13.789,3.946,22.476"/>
			<path class="st0" d="M524.481,497.587c0-9.241,3.949-13.808,3.949-22.228h-1.35c0,8.42-3.95,12.986-3.95,22.228"/>
			<polygon class="st0" points="532.368,468.473 528.126,471.666 520.884,482.394 525.089,478.704 			"/>
			<polygon class="st0" points="521.318,467.615 525.372,471.608 532.106,482.438 528.107,478.768 			"/>
			
				<rect x="526.038" y="472.811" transform="matrix(0.0217 -0.9998 0.9998 0.0217 40.1211 991.455)" class="st0" width="1.217" height="4.832"/>
			
				<rect x="526.006" y="474.179" transform="matrix(0.0826 -0.9966 0.9966 0.0826 8.1278 962.0182)" class="st0" width="1.217" height="4.83"/>
			<polygon class="st0" points="529.034,474.681 529.135,473.467 524.319,473.058 524.221,474.271 			"/>
		</g>
		<g>
			<path class="st0" d="M530.049,497.591c0,8.687-3.948,12.941-3.948,22.477h-1.351c0-9.535,3.946-13.79,3.946-22.477"/>
			<path class="st0" d="M524.481,497.591c0,9.241,3.949,13.808,3.949,22.228h-1.35c0-8.42-3.95-12.986-3.95-22.228"/>
			<path class="st0" d="M530.049,543.838c0-8.687-3.948-12.943-3.948-22.477h-1.351c0,9.533,3.946,13.79,3.946,22.477"/>
			<path class="st0" d="M524.481,543.838c0-9.241,3.949-13.808,3.949-22.228h-1.35c0,8.42-3.95,12.986-3.95,22.228"/>
			<polygon class="st0" points="532.368,514.724 528.126,517.917 520.884,528.644 525.089,524.955 			"/>
			<polygon class="st0" points="521.318,513.866 525.372,517.859 532.106,528.688 528.107,525.019 			"/>
			
				<rect x="526.038" y="519.062" transform="matrix(0.0217 -0.9998 0.9998 0.0217 -6.1275 1036.6942)" class="st0" width="1.216" height="4.832"/>
			
				<rect x="526.007" y="520.43" transform="matrix(0.0827 -0.9966 0.9966 0.0827 -37.9968 1004.4093)" class="st0" width="1.216" height="4.83"/>
			<polygon class="st0" points="529.034,520.931 529.135,519.718 524.319,519.308 524.221,520.521 			"/>
		</g>
		<g>
			<path class="st0" d="M530.049,543.841c0,8.688-3.948,12.942-3.948,22.477h-1.351c0-9.534,3.946-13.789,3.946-22.477"/>
			<path class="st0" d="M524.481,543.841c0,9.241,3.949,13.808,3.949,22.229h-1.35c0-8.421-3.95-12.987-3.95-22.229"/>
			<path class="st0" d="M530.049,590.088c0-8.687-3.948-12.942-3.948-22.476h-1.351c0,9.533,3.946,13.789,3.946,22.476"/>
			<path class="st0" d="M524.481,590.088c0-9.241,3.949-13.808,3.949-22.228h-1.35c0,8.42-3.95,12.986-3.95,22.228"/>
			<polygon class="st0" points="532.368,560.974 528.126,564.167 520.884,574.895 525.089,571.205 			"/>
			<polygon class="st0" points="521.318,560.116 525.372,564.109 532.106,574.939 528.107,571.27 			"/>
			
				<rect x="526.038" y="565.313" transform="matrix(0.0217 -0.9998 0.9998 0.0217 -52.3582 1081.9519)" class="st0" width="1.217" height="4.832"/>
			
				<rect x="526.006" y="566.681" transform="matrix(0.0826 -0.9966 0.9966 0.0826 -84.0572 1046.8748)" class="st0" width="1.217" height="4.83"/>
			<polygon class="st0" points="529.034,567.182 529.135,565.969 524.319,565.559 524.221,566.771 			"/>
		</g>
		<g>
			<path class="st0" d="M530.049,590.092c0,8.687-3.948,12.942-3.948,22.477h-1.351c0-9.534,3.946-13.79,3.946-22.477"/>
			<path class="st0" d="M524.481,590.092c0,9.241,3.949,13.808,3.949,22.228h-1.35c0-8.42-3.95-12.986-3.95-22.228"/>
			<path class="st0" d="M530.049,636.339c0-8.687-3.948-12.942-3.948-22.477h-1.351c0,9.534,3.946,13.79,3.946,22.477"/>
			<path class="st0" d="M524.481,636.339c0-9.241,3.949-13.808,3.949-22.228h-1.35c0,8.42-3.95,12.986-3.95,22.228"/>
			<polygon class="st0" points="532.368,607.225 528.126,610.418 520.884,621.146 525.089,617.456 			"/>
			<polygon class="st0" points="521.318,606.367 525.372,610.36 532.106,621.189 528.107,617.52 			"/>
			
				<rect x="526.038" y="611.563" transform="matrix(0.0217 -0.9998 0.9998 0.0217 -98.6067 1127.1897)" class="st0" width="1.216" height="4.832"/>
			
				<rect x="526.007" y="612.931" transform="matrix(0.0827 -0.9966 0.9966 0.0827 -130.1808 1089.2593)" class="st0" width="1.216" height="4.83"/>
			<polygon class="st0" points="529.034,613.432 529.135,612.219 524.319,611.809 524.221,613.021 			"/>
		</g>
		<g>
			<path class="st0" d="M530.049,636.342c0,8.688-3.948,12.942-3.948,22.477h-1.351c0-9.534,3.946-13.789,3.946-22.477"/>
			<path class="st0" d="M524.481,636.342c0,9.241,3.949,13.808,3.949,22.229h-1.35c0-8.421-3.95-12.987-3.95-22.229"/>
			<path class="st0" d="M530.049,682.59c0-8.688-3.948-12.943-3.948-22.477h-1.351c0,9.533,3.946,13.789,3.946,22.477"/>
			<path class="st0" d="M524.481,682.59c0-9.241,3.949-13.808,3.949-22.229h-1.35c0,8.421-3.95,12.987-3.95,22.229"/>
			<polygon class="st0" points="532.368,653.476 528.126,656.668 520.884,667.396 525.089,663.706 			"/>
			<polygon class="st0" points="521.318,652.617 525.372,656.61 532.106,667.44 528.107,663.771 			"/>
			
				<rect x="526.038" y="657.813" transform="matrix(0.0217 -0.9998 0.9998 0.0217 -144.8375 1172.449)" class="st0" width="1.217" height="4.832"/>
			
				<rect x="526.006" y="659.182" transform="matrix(0.0826 -0.9966 0.9966 0.0826 -176.2417 1131.7307)" class="st0" width="1.217" height="4.83"/>
			<polygon class="st0" points="529.034,659.683 529.135,658.47 524.319,658.06 524.221,659.272 			"/>
		</g>
		<g>
			<path class="st0" d="M502.593,710.049c-8.781,0-13.082-3.948-22.72-3.948v-1.351c9.638,0,13.938,3.946,22.72,3.946"/>
			<path class="st0" d="M502.593,704.481c-9.341,0-13.957,3.949-22.469,3.949v-1.35c8.512,0,13.128-3.95,22.469-3.95"/>
			<path class="st0" d="M455.845,710.049c8.781,0,13.083-3.948,22.72-3.948v-1.351c-9.637,0-13.938,3.946-22.72,3.946"/>
			<path class="st0" d="M455.845,704.481c9.342,0,13.957,3.949,22.469,3.949v-1.35c-8.512,0-13.127-3.95-22.469-3.95"/>
			<polygon class="st0" points="485.274,712.368 482.047,708.126 471.203,700.884 474.933,705.089 			"/>
			<polygon class="st0" points="486.142,701.318 482.104,705.372 471.158,712.106 474.868,708.107 			"/>
			
				<rect x="477.832" y="704.23" transform="matrix(0.9998 0.0214 -0.0214 0.9998 15.2488 -10.0879)" class="st0" width="1.231" height="4.832"/>
			<polygon class="st0" points="477.885,704.259 476.659,704.158 476.245,708.971 477.471,709.072 			"/>
			<polygon class="st0" points="479,709.034 480.227,709.135 480.641,704.319 479.415,704.221 			"/>
		</g>
		<g>
			<path class="st0" d="M455.842,710.049c-8.78,0-13.082-3.948-22.72-3.948v-1.351c9.638,0,13.939,3.946,22.72,3.946"/>
			<path class="st0" d="M455.842,704.481c-9.341,0-13.957,3.949-22.468,3.949v-1.35c8.511,0,13.127-3.95,22.468-3.95"/>
			<path class="st0" d="M409.095,710.049c8.78,0,13.082-3.948,22.719-3.948v-1.351c-9.637,0-13.938,3.946-22.719,3.946"/>
			<path class="st0" d="M409.095,704.481c9.341,0,13.957,3.949,22.468,3.949v-1.35c-8.511,0-13.127-3.95-22.468-3.95"/>
			<polygon class="st0" points="438.523,712.368 435.296,708.126 424.452,700.884 428.182,705.089 			"/>
			<polygon class="st0" points="439.391,701.318 435.354,705.372 424.407,712.106 428.117,708.107 			"/>
			
				<rect x="431.081" y="704.23" transform="matrix(0.9998 0.0214 -0.0214 0.9998 15.2502 -9.0934)" class="st0" width="1.23" height="4.832"/>
			<polygon class="st0" points="431.134,704.259 429.908,704.158 429.494,708.971 430.72,709.072 			"/>
			<polygon class="st0" points="432.249,709.034 433.476,709.135 433.89,704.319 432.664,704.221 			"/>
		</g>
		<g>
			<path class="st0" d="M409.091,710.049c-8.78,0-13.082-3.948-22.719-3.948v-1.351c9.637,0,13.938,3.946,22.719,3.946"/>
			<path class="st0" d="M409.091,704.481c-9.341,0-13.957,3.949-22.468,3.949v-1.35c8.511,0,13.127-3.95,22.468-3.95"/>
			<path class="st0" d="M362.344,710.049c8.78,0,13.083-3.948,22.72-3.948v-1.351c-9.637,0-13.939,3.946-22.72,3.946"/>
			<path class="st0" d="M362.344,704.481c9.341,0,13.957,3.949,22.468,3.949v-1.35c-8.511,0-13.127-3.95-22.468-3.95"/>
			<polygon class="st0" points="391.772,712.368 388.545,708.126 377.702,700.884 381.431,705.089 			"/>
			<polygon class="st0" points="392.64,701.318 388.604,705.372 377.657,712.106 381.366,708.107 			"/>
			
				<rect x="384.33" y="704.23" transform="matrix(0.9998 0.0214 -0.0214 0.9998 15.2395 -8.091)" class="st0" width="1.23" height="4.832"/>
			<polygon class="st0" points="384.384,704.259 383.157,704.158 382.743,708.971 383.969,709.072 			"/>
			<polygon class="st0" points="385.498,709.034 386.725,709.135 387.139,704.319 385.913,704.221 			"/>
		</g>
		<g>
			<path class="st0" d="M362.341,710.049c-8.781,0-13.083-3.948-22.72-3.948v-1.351c9.637,0,13.938,3.946,22.72,3.946"/>
			<path class="st0" d="M362.341,704.481c-9.342,0-13.957,3.949-22.469,3.949v-1.35c8.512,0,13.127-3.95,22.469-3.95"/>
			<path class="st0" d="M315.593,710.049c8.781,0,13.083-3.948,22.72-3.948v-1.351c-9.637,0-13.938,3.946-22.72,3.946"/>
			<path class="st0" d="M315.593,704.481c9.341,0,13.957,3.949,22.469,3.949v-1.35c-8.512,0-13.128-3.95-22.469-3.95"/>
			<polygon class="st0" points="345.022,712.368 341.794,708.126 330.951,700.884 334.681,705.089 			"/>
			<polygon class="st0" points="345.889,701.318 341.853,705.372 330.906,712.106 334.615,708.107 			"/>
			
				<rect x="337.579" y="704.23" transform="matrix(0.9998 0.0214 -0.0214 0.9998 15.2287 -7.0887)" class="st0" width="1.23" height="4.832"/>
			<polygon class="st0" points="337.633,704.259 336.407,704.158 335.993,708.971 337.219,709.072 			"/>
			<polygon class="st0" points="338.747,709.034 339.974,709.135 340.388,704.319 339.162,704.221 			"/>
		</g>
		<g>
			<path class="st0" d="M315.59,710.049c-8.781,0-13.082-3.948-22.72-3.948v-1.351c9.638,0,13.938,3.946,22.72,3.946"/>
			<path class="st0" d="M315.59,704.481c-9.342,0-13.957,3.949-22.469,3.949v-1.35c8.512,0,13.127-3.95,22.469-3.95"/>
			<path class="st0" d="M268.842,710.049c8.781,0,13.083-3.948,22.719-3.948v-1.351c-9.637,0-13.938,3.946-22.719,3.946"/>
			<path class="st0" d="M268.842,704.481c9.341,0,13.957,3.949,22.468,3.949v-1.35c-8.512,0-13.127-3.95-22.468-3.95"/>
			<polygon class="st0" points="298.271,712.368 295.044,708.126 284.2,700.884 287.93,705.089 			"/>
			<polygon class="st0" points="299.139,701.318 295.102,705.372 284.155,712.106 287.865,708.107 			"/>
			
				<rect x="290.829" y="704.23" transform="matrix(0.9998 0.0214 -0.0214 0.9998 15.218 -6.0863)" class="st0" width="1.23" height="4.832"/>
			<polygon class="st0" points="290.882,704.259 289.656,704.158 289.242,708.971 290.468,709.072 			"/>
			<polygon class="st0" points="291.997,709.034 293.223,709.135 293.638,704.319 292.411,704.221 			"/>
		</g>
		<g>
			<path class="st0" d="M268.839,710.049c-8.781,0-13.082-3.948-22.72-3.948v-1.351c9.638,0,13.939,3.946,22.72,3.946"/>
			<path class="st0" d="M268.839,704.481c-9.341,0-13.957,3.949-22.468,3.949v-1.35c8.511,0,13.127-3.95,22.468-3.95"/>
			<path class="st0" d="M222.091,710.049c8.781,0,13.083-3.948,22.72-3.948v-1.351c-9.637,0-13.939,3.946-22.72,3.946"/>
			<path class="st0" d="M222.091,704.481c9.341,0,13.957,3.949,22.468,3.949v-1.35c-8.511,0-13.127-3.95-22.468-3.95"/>
			<polygon class="st0" points="251.521,712.368 248.293,708.126 237.45,700.884 241.179,705.089 			"/>
			<polygon class="st0" points="252.388,701.318 248.351,705.372 237.404,712.106 241.114,708.107 			"/>
			
				<rect x="244.078" y="704.23" transform="matrix(0.9998 0.0214 -0.0214 0.9998 15.2072 -5.0839)" class="st0" width="1.23" height="4.832"/>
			<polygon class="st0" points="244.131,704.259 242.905,704.158 242.491,708.971 243.717,709.072 			"/>
			<polygon class="st0" points="245.246,709.034 246.472,709.135 246.887,704.319 245.661,704.221 			"/>
		</g>
		<g>
			<path class="st0" d="M222.088,710.049c-8.781,0-13.082-3.948-22.719-3.948v-1.351c9.637,0,13.938,3.946,22.719,3.946"/>
			<path class="st0" d="M222.088,704.481c-9.341,0-13.957,3.949-22.468,3.949v-1.35c8.512,0,13.127-3.95,22.468-3.95"/>
			<path class="st0" d="M175.341,710.049c8.781,0,13.083-3.948,22.719-3.948v-1.351c-9.637,0-13.938,3.946-22.719,3.946"/>
			<path class="st0" d="M175.341,704.481c9.341,0,13.957,3.949,22.468,3.949v-1.35c-8.512,0-13.127-3.95-22.468-3.95"/>
			<polygon class="st0" points="204.77,712.368 201.542,708.126 190.699,700.884 194.428,705.089 			"/>
			<polygon class="st0" points="205.637,701.318 201.6,705.372 190.654,712.106 194.363,708.107 			"/>
			
				<rect x="197.327" y="704.23" transform="matrix(0.9998 0.0214 -0.0214 0.9998 15.1965 -4.0815)" class="st0" width="1.23" height="4.832"/>
			<polygon class="st0" points="197.38,704.259 196.155,704.158 195.74,708.971 196.966,709.072 			"/>
			<polygon class="st0" points="198.495,709.034 199.722,709.135 200.136,704.319 198.91,704.221 			"/>
		</g>
		<g>
			<path class="st0" d="M175.337,710.049c-8.781,0-13.082-3.948-22.72-3.948v-1.351c9.638,0,13.939,3.946,22.72,3.946"/>
			<path class="st0" d="M175.337,704.481c-9.341,0-13.957,3.949-22.468,3.949v-1.35c8.511,0,13.127-3.95,22.468-3.95"/>
			<path class="st0" d="M128.59,710.049c8.781,0,13.083-3.948,22.72-3.948v-1.351c-9.637,0-13.939,3.946-22.72,3.946"/>
			<path class="st0" d="M128.59,704.481c9.341,0,13.957,3.949,22.468,3.949v-1.35c-8.511,0-13.127-3.95-22.468-3.95"/>
			<polygon class="st0" points="158.019,712.368 154.792,708.126 143.948,700.884 147.677,705.089 			"/>
			<polygon class="st0" points="158.886,701.318 154.85,705.372 143.903,712.106 147.613,708.107 			"/>
			
				<rect x="150.577" y="704.23" transform="matrix(0.9998 0.0214 -0.0214 0.9998 15.1857 -3.0792)" class="st0" width="1.23" height="4.832"/>
			<polygon class="st0" points="150.629,704.259 149.404,704.158 148.99,708.971 150.215,709.072 			"/>
			<polygon class="st0" points="151.745,709.034 152.971,709.135 153.385,704.319 152.159,704.221 			"/>
		</g>
		<g>
			<path class="st0" d="M128.586,710.049c-8.781,0-13.082-3.948-22.719-3.948v-1.351c9.637,0,13.938,3.946,22.719,3.946"/>
			<path class="st0" d="M128.586,704.481c-9.341,0-13.957,3.949-22.468,3.949v-1.35c8.512,0,13.127-3.95,22.468-3.95"/>
			<path class="st0" d="M81.839,710.049c8.781,0,13.083-3.948,22.72-3.948v-1.351c-9.637,0-13.938,3.946-22.72,3.946"/>
			<path class="st0" d="M81.839,704.481c9.341,0,13.957,3.949,22.469,3.949v-1.35c-8.512,0-13.127-3.95-22.469-3.95"/>
			<polygon class="st0" points="111.268,712.368 108.041,708.126 97.197,700.884 100.926,705.089 			"/>
			<polygon class="st0" points="112.135,701.318 108.099,705.372 97.152,712.106 100.862,708.107 			"/>
			
				<rect x="103.826" y="704.23" transform="matrix(0.9998 0.0214 -0.0214 0.9998 15.175 -2.0768)" class="st0" width="1.23" height="4.832"/>
			<polygon class="st0" points="103.879,704.259 102.653,704.158 102.239,708.971 103.465,709.072 			"/>
			<polygon class="st0" points="104.994,709.034 106.22,709.135 106.634,704.319 105.409,704.221 			"/>
		</g>
		<g>
			<path class="st0" d="M81.836,710.049c-8.781,0-13.083-3.948-22.72-3.948v-1.351c9.637,0,13.939,3.946,22.72,3.946"/>
			<path class="st0" d="M81.836,704.481c-9.341,0-13.957,3.949-22.468,3.949v-1.35c8.511,0,13.127-3.95,22.468-3.95"/>
			<path class="st0" d="M35.088,710.049c8.781,0,13.083-3.948,22.719-3.948v-1.351c-9.636,0-13.938,3.946-22.719,3.946"/>
			<path class="st0" d="M35.088,704.481c9.341,0,13.957,3.949,22.468,3.949v-1.35c-8.511,0-13.127-3.95-22.468-3.95"/>
			<polygon class="st0" points="64.518,712.368 61.29,708.126 50.446,700.884 54.176,705.089 			"/>
			<polygon class="st0" points="65.384,701.318 61.348,705.372 50.401,712.106 54.111,708.107 			"/>
			
				<rect x="57.075" y="704.23" transform="matrix(0.9998 0.0214 -0.0214 0.9998 15.1642 -1.0745)" class="st0" width="1.23" height="4.832"/>
			<polygon class="st0" points="57.128,704.259 55.902,704.158 55.488,708.971 56.714,709.072 			"/>
			<polygon class="st0" points="58.243,709.034 59.469,709.135 59.883,704.319 58.658,704.221 			"/>
		</g>
		<g>
			<g>
				<path class="st0" d="M35.085,14.576c-10.564,0.082-19.379-6.284-19.379-6.284c6.648,3.946,18.328,4.819,19.379,4.934"/>
				<path class="st0" d="M14.545,35.088c-0.052-4.618-4.156-18.853-4.156-18.854l-1.18,0.655c2.313,6.868,3.87,17.133,3.986,18.198"
					/>
				<path class="st0" d="M35.085,7.629c-6.084-0.117-12.683-1.404-14.897-0.176L19.756,8.32c3.25-0.203,15.33,0.69,15.33,0.69"/>
				<path class="st0" d="M7.628,35.088c0-0.002-2.123-21.09,2.432-25.307l2.498-0.479c-5.541,2.702-4.041,16.176-3.58,25.785"/>
				<polygon class="st0" points="13.5,0.177 14.917,5.318 22.292,16.082 20.396,10.79 				"/>
				<polygon class="st0" points="7.445,10.213 13.838,7.852 27.61,5.125 21.58,8.013 				"/>
				
					<rect x="17.094" y="5.618" transform="matrix(-0.9198 -0.3924 0.3924 -0.9198 30.8479 22.3714)" class="st0" width="1.233" height="4.831"/>
				<polygon class="st0" points="17.342,10.458 18.444,11.009 20.622,6.695 19.521,6.146 				"/>
				<polygon class="st0" points="18.085,5.612 16.984,5.062 14.805,9.374 15.907,9.925 				"/>
				<polygon class="st0" points="12.343,5.301 9.024,10.762 6.169,23.491 8.752,18.499 				"/>
				<polygon class="st0" points="1.199,9.385 6.434,11.697 16.656,19.5 11.59,17.474 				"/>
				
					<rect x="8.323" y="12.241" transform="matrix(-0.3396 -0.9406 0.9406 -0.3396 -1.8085 28.0418)" class="st0" width="1.233" height="4.829"/>
				<polygon class="st0" points="6.914,16.036 7.262,17.22 11.904,15.879 11.555,14.696 				"/>
				<polygon class="st0" points="10.969,13.281 10.621,12.098 5.979,13.441 6.327,14.625 				"/>
			</g>
		</g>
		<g>
			<g>
				<path class="st0" d="M523.102,35.085c-0.081-10.564,6.284-19.379,6.284-19.379c-3.946,6.648-4.819,18.328-4.934,19.379"/>
				<path class="st0" d="M502.59,14.545c4.618-0.052,18.854-4.156,18.854-4.156l-0.655-1.18c-6.868,2.313-17.133,3.87-18.198,3.986"
					/>
				<path class="st0" d="M530.048,35.085c0.117-6.084,1.404-12.683,0.177-14.897l-0.867-0.432c0.203,3.25-0.69,15.33-0.69,15.33"/>
				<path class="st0" d="M502.59,7.628c0.002,0,21.09-2.123,25.307,2.432l0.479,2.498c-2.702-5.54-16.176-4.041-25.785-3.58"/>
				<polygon class="st0" points="537.5,13.5 532.36,14.917 521.596,22.292 526.889,20.396 				"/>
				<polygon class="st0" points="527.465,7.445 529.826,13.838 532.553,27.61 529.665,21.58 				"/>
				
					<rect x="529.028" y="15.295" transform="matrix(0.3921 -0.9199 0.9199 0.3921 305.7026 498.0091)" class="st0" width="1.233" height="4.831"/>
				<polygon class="st0" points="527.22,17.342 526.669,18.444 530.982,20.622 531.531,19.521 				"/>
				<polygon class="st0" points="532.065,18.085 532.616,16.984 528.304,14.805 527.753,15.907 				"/>
				<polygon class="st0" points="532.377,12.343 526.916,9.024 514.187,6.169 519.179,8.752 				"/>
				<polygon class="st0" points="528.292,1.199 525.98,6.434 518.178,16.656 520.204,11.59 				"/>
				
					<rect x="522.405" y="6.525" transform="matrix(0.9406 -0.3396 0.3396 0.9406 28.0553 178.1729)" class="st0" width="1.233" height="4.829"/>
				<polygon class="st0" points="521.642,6.914 520.458,7.262 521.799,11.904 522.982,11.555 				"/>
				<polygon class="st0" points="524.396,10.969 525.579,10.621 524.236,5.979 523.053,6.327 				"/>
			</g>
		</g>
		<g>
			<g>
				<path class="st0" d="M502.593,703.102c10.563-0.081,19.378,6.284,19.378,6.284c-6.647-3.946-18.328-4.819-19.378-4.934"/>
				<path class="st0" d="M523.133,682.59c0.052,4.618,4.155,18.854,4.155,18.854l1.181-0.655c-2.313-6.868-3.87-17.133-3.985-18.198
					"/>
				<path class="st0" d="M502.593,710.048c6.084,0.117,12.683,1.404,14.896,0.177l0.433-0.867c-3.25,0.203-15.329-0.69-15.329-0.69"
					/>
				<path class="st0" d="M530.05,682.59c0,0.002,2.123,21.09-2.432,25.307l-2.498,0.479c5.54-2.702,4.04-16.176,3.579-25.785"/>
				<polygon class="st0" points="524.178,717.5 522.761,712.36 515.386,701.596 517.281,706.889 				"/>
				<polygon class="st0" points="530.232,707.465 523.84,709.826 510.068,712.553 516.099,709.665 				"/>
				
					<rect x="519.351" y="707.229" transform="matrix(0.92 0.3919 -0.3919 0.92 319.714 -147.0119)" class="st0" width="1.233" height="4.831"/>
				<polygon class="st0" points="520.336,707.22 519.234,706.669 517.056,710.982 518.157,711.531 				"/>
				<polygon class="st0" points="519.593,712.065 520.694,712.616 522.872,708.304 521.771,707.753 				"/>
				<polygon class="st0" points="525.335,712.377 528.654,706.916 531.509,694.187 528.926,699.179 				"/>
				<polygon class="st0" points="536.479,708.292 531.244,705.98 521.021,698.178 526.088,700.204 				"/>
				
					<rect x="528.122" y="700.607" transform="matrix(0.3396 0.9406 -0.9406 0.3396 1010.3853 -33.0624)" class="st0" width="1.233" height="4.83"/>
				<polygon class="st0" points="530.764,701.642 530.416,700.458 525.774,701.799 526.122,702.982 				"/>
				<polygon class="st0" points="526.709,704.396 527.057,705.579 531.698,704.236 531.351,703.053 				"/>
			</g>
		</g>
		<g>
			<g>
				<path class="st0" d="M14.576,682.593c0.082,10.563-6.284,19.378-6.284,19.378c3.946-6.647,4.819-18.328,4.934-19.378"/>
				<path class="st0" d="M35.088,703.133c-4.618,0.052-18.853,4.155-18.854,4.155l0.655,1.181c6.868-2.313,17.133-3.87,18.198-3.986
					"/>
				<path class="st0" d="M7.629,682.593c-0.117,6.084-1.404,12.683-0.176,14.896l0.867,0.433c-0.203-3.25,0.69-15.329,0.69-15.329"
					/>
				<path class="st0" d="M35.088,710.05c-0.002,0-21.09,2.123-25.307-2.432l-0.479-2.498c2.702,5.54,16.176,4.04,25.785,3.579"/>
				<polygon class="st0" points="0.177,704.178 5.318,702.761 16.082,695.386 10.79,697.281 				"/>
				<polygon class="st0" points="10.213,710.232 7.852,703.84 5.125,690.068 8.013,696.099 				"/>
				
					<rect x="7.416" y="697.552" transform="matrix(-0.3922 0.9199 -0.9199 -0.3922 655.0566 967.1384)" class="st0" width="1.234" height="4.831"/>
				<polygon class="st0" points="10.458,700.336 11.009,699.234 6.695,697.056 6.146,698.157 				"/>
				<polygon class="st0" points="5.612,699.593 5.061,700.694 9.374,702.872 9.925,701.771 				"/>
				<polygon class="st0" points="5.301,705.335 10.762,708.654 23.491,711.509 18.499,708.926 				"/>
				<polygon class="st0" points="9.385,716.479 11.697,711.244 19.5,701.021 17.474,706.088 				"/>
				
					<rect x="14.039" y="706.323" transform="matrix(-0.9406 0.3396 -0.3396 -0.9406 269.1594 1370.3671)" class="st0" width="1.233" height="4.83"/>
				<polygon class="st0" points="16.036,710.764 17.22,710.416 15.879,705.774 14.696,706.122 				"/>
				<polygon class="st0" points="13.281,706.709 12.098,707.057 13.441,711.698 14.625,711.351 				"/>
			</g>
		</g>
	</g>
</g>
</svg>
