<?xml version="1.0" encoding="utf-8"?>
<!-- Generator: Adobe Illustrator 14.0.0, SVG Export Plug-In . SVG Version: 6.00 Build 43363)  -->
<!DOCTYPE svg PUBLIC "-//W3C//DTD SVG 1.1//EN" "http://www.w3.org/Graphics/SVG/1.1/DTD/svg11.dtd">
<svg version="1.1" id="Nouveau_x5F_11_xA0_Image_1_"
	 xmlns="http://www.w3.org/2000/svg" xmlns:xlink="http://www.w3.org/1999/xlink" x="0px" y="0px" width="726px" height="946.343px"
	 viewBox="0 0 726 946.343" style="enable-background:new 0 0 726 946.343;" xml:space="preserve">
<style type="text/css">
<![CDATA[
	.st0{fill:none;stroke:#010101;stroke-width:2.5;stroke-linecap:round;}
	.st1{fill:none;stroke:#010101;stroke-width:2.6874;stroke-linecap:round;}
	.st2{fill:none;stroke:#010101;stroke-width:2.6313;stroke-linecap:round;}
	.st3{fill:none;stroke:#010101;stroke-width:1.7607;stroke-linecap:round;}
	.st4{fill:none;stroke:#010101;stroke-width:2.2481;stroke-linecap:round;}
	.st5{fill:none;stroke:#010101;stroke-width:3.0674;stroke-linecap:round;}
	.st6{fill:none;stroke:#010101;stroke-width:1.5584;stroke-linecap:round;}
	.st7{fill:none;stroke:#010101;stroke-width:2.7588;stroke-linecap:round;}
	.st8{fill:none;stroke:#010101;stroke-width:2.5066;stroke-linecap:round;}
	.st9{fill:none;stroke:#010101;stroke-width:2.0671;stroke-linecap:round;}
	.st10{fill:none;stroke:#010101;stroke-width:2.5863;stroke-linecap:round;}
	.st11{fill:none;stroke:#010101;stroke-width:2.0616;stroke-linecap:round;}
	.st12{fill:none;stroke:#010101;stroke-width:2.2869;stroke-linecap:round;}
	.st13{fill:none;stroke:#010101;stroke-width:2.2546;stroke-linecap:round;}
	.st14{fill:none;stroke:#010101;stroke-width:2.0817;stroke-linecap:round;}
	.st15{fill:none;stroke:#010101;stroke-width:2.321;stroke-linecap:round;}
	.st16{fill:none;stroke:#010101;stroke-width:2.1213;stroke-linecap:round;}
	.st17{fill:none;stroke:#010101;stroke-width:2.1398;stroke-linecap:round;}
	.st18{fill:none;stroke:#010101;stroke-width:2.4121;stroke-linecap:round;}
	.st19{fill:none;stroke:#010101;stroke-width:2.6047;stroke-linecap:round;}
	.st20{fill:none;stroke:#010101;stroke-width:3.0823;stroke-linecap:round;}
	.st21{fill:none;stroke:#010101;stroke-width:1.9306;stroke-linecap:round;}
	.st22{fill:#010101;stroke:#010101;}
	.st23{fill:none;stroke:#010101;stroke-width:3.0671;stroke-linecap:round;}
	.st24{fill:none;stroke:#010101;stroke-width:2.9129;stroke-linecap:round;}
	.st25{fill:none;stroke:#010101;stroke-width:2.6708;stroke-linecap:round;}
	.st26{fill:none;stroke:#010101;stroke-width:2.0691;stroke-linecap:round;}
	.st27{fill:none;stroke:#010101;stroke-width:1.9149;stroke-linecap:round;}
	.st28{fill:none;stroke:#010101;stroke-width:2.6112;stroke-linecap:round;}
	.st29{fill:none;stroke:#010101;stroke-width:2.2248;stroke-linecap:round;}
]]>
</style>
<path class="st22" d="M63,16c-9.476,1.004-13.622-8.189-12-15c6.816,2.184,9.65,8.35,14,13l-1.5,0.5L63,16z"/>
<path class="st22" d="M665,13c3.176-4.172,7.115-12.865,13-11c-0.061,8.606-3.223,14.111-12,14l0.5-1.833L665,13z"/>
<path class="st22" d="M649,16c10.18,0.956,14.998,11.408,23,16c1.7,0.976,6.926-0.327,7,4c-16.664,10.682-21.984-10.622-31-17
	l1.5-1.167L649,16z"/>
<path class="st22" d="M636.786,21.357L638,20c3.866,0.801,5.876,3.457,8,6c0.953,3.517,7.291,3.662,3,7
	c-7.905,2.706-11.318-6.296-14-12L636.786,21.357z"/>
<path class="st22" d="M92.5,20.5L93,22c-2.488,4.528-5.088,14.224-12,11c-7.699-2.872,7.627-12.044,11-14L92.5,20.5z"/>
<path class="st22" d="M77.5,18.833L79,20c-6.632,6.931-15.439,27.669-29,15c-0.815-4.148,6.165-0.502,7-3
	c1.242-2.092,2.908-3.758,5-5c5.083-3.584,8.313-9.021,16-10L77.5,18.833z"/>
<path class="st22" d="M15,86c1.554-14.779,15.407-17.26,17-32c14.71,13.649-8.152,24.24-14,33l-1.167-1.5L15,86z"/>
<path class="st22" d="M20.3,98.3L19,97c2.647-4.856,6.842-12.926,12-12c3.365,8.268-5.22,11.703-10,15L20.3,98.3z"/>
<path class="st22" d="M19.5,883.5L21,883c5.348,1.734,15.02,7.254,9,14c-0.422,2.738-5.322-1.988-7-4c-2.515-3.014-4.108-7.289-5-10
	L19.5,883.5z"/>
<path class="st22" d="M16.833,896.5L18,895c4.802,10.416,28.031,17.25,15,33c-3.858,0.191-1.066-6.268-3-8
	c-5.407-7.592-13.46-12.539-15-24L16.833,896.5z"/>
<path class="st22" d="M712,90c-2.43-3.66-4.39-7.688-9-12c-7.046-6.59-17.743-11.288-7-24c2.86,0.14,1.829,4.171,2,7
	c6.146,8.519,15.09,14.244,16,28l-1.5-0.5L712,90z"/>
<path class="st22" d="M712.5,894.5l1.5-0.5c-0.929,16.404-15.059,19.607-18,34c-4.977-2.904-4.276-8.518-4-11
	c1.137-10.199,17.266-15.162,20-24L712.5,894.5z"/>
<path class="st22" d="M709.5,882.5l1.5-0.5c-0.208,3.527-3.459,6.867-6,10c-1.854,2.285-4.931,8.811-7,5
	c-3.981-9.17,6.72-11.809,11-16L709.5,882.5z"/>
<path class="st22" d="M709.5,99.5L709,101c-4.041-3.972-15.482-5.834-11-15c1.386-4.265,6.182,1.808,8,4
	c2.255,2.719,4.278,7.405,5,10L709.5,99.5z"/>
<path class="st22" d="M13,72c-2.69-6.644-9.876-8.791-12-16c9.949-4.264,16.863,8.452,14,17l-0.5-1.5L13,72z"/>
<path class="st22" d="M713,71c0.175-9.825,3.606-16.394,14-16c-0.411,9.256-9.271,10.062-12,17l-0.5-1.5L713,71z"/>
<path class="st22" d="M715,911c3.207,6.127,11.239,7.428,12,16c-10.491,0.824-13.671-5.662-14-15l1.5,0.5L715,911z"/>
<path class="st22" d="M15,913c0.128,9.461-3.742,14.926-14,14c1.716-7.283,7.951-10.049,12-15l0.5,1.5L15,913z"/>
<g>
	<path class="st0" d="M63.5,14.5c1.598,1.173,4.16,2.147,6,1"/>
	<path class="st25" d="M658.5,15c2.807,0.242,5.375,0.433,8-0.833"/>
	<path class="st16" d="M631.167,16.5c1.047,2.418,4.313,2.666,5.619,4.857"/>
	<path class="st28" d="M97.1,16.1c-0.825,2.07-2.883,3.18-4.6,4.4"/>
	<path class="st7" d="M77.5,18.833c5.867-2.618,13.443-5.363,19.6-2.733"/>
	<path class="st5" d="M97.1,16.1c4.756,0.146,8.983,1.735,12.398,5.106c169.649,0.551,339.446,0.369,509.098,0.091
		c3.909-2.401,7.621-5.524,12.57-4.797"/>
	<path class="st1" d="M631.167,16.5c0.178-0.284,0.354-0.568,0.533-0.853c5.81-1.591,12.253,0.052,17.8,2.187"/>
	<path class="st24" d="M21,66c-0.303-14.456-1.008-29.08-0.195-43.509C33.489,20.273,47.412,21.861,60.5,22"/>
	<path class="st10" d="M667.5,21.5c13.178,0.472,26.925-1.12,39.695,1.204c1.76,14.127,0.354,28.549,0.805,42.796"/>
	<path class="st2" d="M26.5,59.5c0.279-10.229-0.476-20.978,0.207-30.852C35.734,27.172,45.274,28.406,54.5,28"/>
	<path class="st8" d="M113.5,28.5c167.385-0.83,334.593,0.07,502-0.5"/>
	<path class="st19" d="M673.5,28c9.227,0.456,18.924-0.92,27.854,0.704c2.146,9.932,1.16,20.66,0.646,30.796"/>
	<path class="st18" d="M15.5,104.5c2.845-0.729,2.507-4.612,4.8-6.2"/>
	<path class="st13" d="M15.5,877.5c2.584,1.068,2.163,4.248,4,6"/>
	<path class="st15" d="M16.833,896.5c-1.779-5.873-5.011-13.412-1.333-19"/>
	<path class="st23" d="M15.5,877.5c-0.226-1.973,0.478-3.844,0.543-5.797c1.302-2.354,2.705-4.744,4.163-7.127
		c0.547-249.014,0.375-498.168,0.086-747.182c-1.769-2.031-2.632-4.393-4.028-6.542c-0.396-2.09-0.891-4.195-0.764-6.353"/>
	<path class="st4" d="M15.5,104.5c-3.403-5.697-1.049-13.222,1.333-19"/>
	<path class="st26" d="M713,877c2.829,5.461,1.788,11.982-0.5,17.5"/>
	<path class="st27" d="M713,877c-1.384,1.672-2.551,3.531-3.5,5.5"/>
	<path class="st17" d="M713,877c0.686-4.691-2.109-8.447-4.684-12.066c-0.643-248.729-0.306-497.66-0.17-746.436
		c2.555-4.175,4.615-8.537,4.854-13.495"/>
	<path class="st14" d="M713,105c-1.698-1.449-2.53-3.548-3.5-5.5"/>
	<path class="st11" d="M713,105c2.642-5.01,1.189-11.355-0.5-16.5"/>
	<path class="st6" d="M14.5,75.5c-0.111-1.714-0.555-2.531,0-4"/>
	<path class="st21" d="M714.5,76.5c-0.545-1.924-0.85-4.094,0-6"/>
	<path class="st20" d="M26.5,861.5c0-247,0-494,0-741"/>
	<path class="st20" d="M702.5,861.5c0-247,0-494,0-741"/>
	<path class="st9" d="M714.5,912.5c-0.519-1.855-0.986-4.238,0-6"/>
	<path class="st3" d="M13.5,913.5c0.564-1.939,0.815-3.973,1-6"/>
	<path class="st12" d="M21,916.5c-0.379,9.449-1.074,19.229-0.074,28.578c228.403,1.785,457.861,1.141,686.428,0.117
		c1.5-9.645,0.216-19.859,0.646-29.695"/>
	<path class="st29" d="M26,921.5c0.447,5.832-0.908,12.211,0.704,17.695C197.557,940.589,374.497,940,547.5,940
		c51.824,0,103.324,1.303,154.695-1.564c0.998-5.477-0.375-10.939-0.195-16.436"/>
</g>
</svg>
