<?xml version="1.0" encoding="utf-8"?>
<!-- Generator: Adobe Illustrator 14.0.0, SVG Export Plug-In . SVG Version: 6.00 Build 43363)  -->
<!DOCTYPE svg PUBLIC "-//W3C//DTD SVG 1.1//EN" "http://www.w3.org/Graphics/SVG/1.1/DTD/svg11.dtd">
<svg version="1.1" id="Nouveau_x5F_31_xA0_Image_1_"
	 xmlns="http://www.w3.org/2000/svg" xmlns:xlink="http://www.w3.org/1999/xlink" x="0px" y="0px" width="729px" height="969px"
	 viewBox="0 0 729 969" style="enable-background:new 0 0 729 969;" xml:space="preserve">
<style type="text/css">
<![CDATA[
	.st0{fill-rule:evenodd;clip-rule:evenodd;fill:none;stroke:#000000;stroke-width:1.6011;stroke-linecap:round;}
	.st1{fill-rule:evenodd;clip-rule:evenodd;fill:none;stroke:#000000;stroke-width:3.0979;stroke-linecap:round;}
	.st2{fill-rule:evenodd;clip-rule:evenodd;fill:none;stroke:#000000;stroke-width:3.1698;stroke-linecap:round;}
	.st3{fill-rule:evenodd;clip-rule:evenodd;fill:none;stroke:#000000;stroke-width:2.2678;stroke-linecap:round;}
	.st4{fill-rule:evenodd;clip-rule:evenodd;fill:none;stroke:#000000;stroke-width:1.5584;stroke-linecap:round;}
	.st5{fill-rule:evenodd;clip-rule:evenodd;fill:none;stroke:#000000;stroke-width:2.8284;stroke-linecap:round;}
	.st6{fill-rule:evenodd;clip-rule:evenodd;fill:none;stroke:#000000;stroke-width:3.3303;stroke-linecap:round;}
	.st7{fill-rule:evenodd;clip-rule:evenodd;fill:none;stroke:#000000;stroke-width:3.3259;stroke-linecap:round;}
	.st8{fill-rule:evenodd;clip-rule:evenodd;fill:none;stroke:#000000;stroke-width:4.0625;stroke-linecap:round;}
	.st9{fill-rule:evenodd;clip-rule:evenodd;fill:none;stroke:#000000;stroke-width:3.0691;stroke-linecap:round;}
	.st10{fill-rule:evenodd;clip-rule:evenodd;fill:none;stroke:#000000;stroke-width:3.2301;stroke-linecap:round;}
	.st11{fill:#000000;fill-rule:evenodd;clip-rule:evenodd;}
	.st12{fill-rule:evenodd;clip-rule:evenodd;fill:none;stroke:#000000;stroke-width:1.8127;stroke-linecap:round;}
	.st13{fill-rule:evenodd;clip-rule:evenodd;fill:none;stroke:#000000;stroke-width:2.9721;stroke-linecap:round;}
	.st14{fill-rule:evenodd;clip-rule:evenodd;fill:none;stroke:#000000;stroke-width:2.2804;stroke-linecap:round;}
]]>
</style>
<g>
	<g>
		<path class="st11" d="M659,30c-0.805,0.529-1.623,1.043-3,1c-2.335-4.008-5.248-7.162-5-12c0.231-4.516,5.398-7.079,5-12
			C463.999,5.334,265.001,5.333,73,7c-2.092,4.191,4.005,7.176,4,13c-0.004,4.495-2.438,9.224-7,11c-1.106-4.24,1.171-6.775,0-13
			c-0.996-5.295-5.647-7.28-3-12c4.566-8.14,53.512-4,70-4c163.506,0,326.01,0,491,0c13.182,0,30.087-1.193,33,4
			C665.361,13.775,652.188,20.53,659,30z"/>
		<path class="st11" d="M685,27c0.125,2.208,4.242,0.425,6,1c0.444,12.691-12.938,8.213-22,7c-0.757-3.757,2.617-3.383,4-5l1.5,0.5
			L674,29c2.675-0.992,5.273-2.061,9-2l1,0.5L685,27z"/>
		<path class="st11" d="M670.5,28.5L672,29c-4.707,2.293-3.813,10.186-11,10c-6.874-5.464,0.09-14.327,10-12L670.5,28.5z"/>
		<path class="st11" d="M681.5,24.5L681,26c-9.682-0.179-17.688-5.605-17-13c0.695-7.486,7.602-5.476,12-11
			c1.794-0.127,2.109,1.224,4,1c-3.053,8.381-3.646,15.95,3,21L681.5,24.5z"/>
		<path class="st11" d="M685,2c6.475,1.546,6.472,3.156,13,1c11.885,7.111,3.447,24.361-7,24c-4.53-0.157-12.006-7.987-12-14
			C679.005,8.208,683.199,6.182,685,2z"/>
		<path class="st11" d="M699,25c6.878-3.411,8.991-13.704,4-21c21.226-4.338,22.4,24.984-2,23l-0.5-1.5L699,25z"/>
		<path class="st11" d="M36,28c-1.193,3.14-1.732,6.935-4,9c-5.349-0.651-13.313,1.313-17-1C17.786,29.12,25.543,27.209,36,28z"/>
		<path class="st11" d="M713,37c-5.667,0-11.333,0-17,0c-2.207-1.793-2.441-5.559-4-8C700.748,25.933,711.547,29.442,713,37z"/>
		<path class="st11" d="M16,32c-1.794,4.508-5.125,10.648-11,8c-2.858-6.619,1.832-12.291,10-11l-0.5,1.833L16,32z"/>
		<path class="st11" d="M713,29c9.549-1.987,13.546,7.462,8,12c-5.899-0.101-6.861-5.139-9-9l1.5-1.167L713,29z"/>
		<path class="st11" d="M33,25c-2.84-1.576-8.207-4.443-9-8c-1.428-6.405,2.945-10.048,5-15c5.901,2.357,7.327,2.944,13,0
			c11.773,5.914,5.031,27.193-8,24l0.5-1.5L33,25z"/>
		<path class="st11" d="M27.5,25.5L28,27C3.904,29.778,2.341,0.241,25,4c-4.803,7.107-2.994,17.706,4,21L27.5,25.5z"/>
		<path class="st11" d="M57,27c12.058-4.454,17.434,13.054,7,11l0.5-1.5L63,37c-4.546-0.454-2.62-7.38-7-8l1.5-0.5L57,27z"/>
		<path class="st11" d="M53.5,30.5L55,30c1.748,0.347,6.183,3.023,3,5c-7.651,1.575-20.27,5.026-21-5c-1.411-4.411,5.984-0.016,6-3
			l1.5,0.5L46,27c2.801,0.532,5.199,1.468,8,2L53.5,30.5z"/>
		<path class="st11" d="M47.5,24.167L46,23c8.777-4.935,0.363-15.477,4-21c2.978-1.946,2.223,1.981,4,3
			c4.537,2.602,9.311,0.953,10,8c0.736,7.519-7.252,12.542-17,13L47.5,24.167z"/>
		<g>
			<path class="st12" d="M670.5,28.5c1.042-0.387,1.762-0.354,2.439-0.338c0.334,0.543,0.886,1.491,1.561,2.338"/>
			<path class="st3" d="M681.5,24.5c1.048,0.3,1.69,0.504,2.293,0.869c0.229,0.565,0.155,1.325,0.207,2.131"/>
			<path class="st14" d="M698,26c0.649,0.029,1.618-0.229,2.5-0.5"/>
			<path class="st5" d="M14.5,30.833c0.667-0.242,1.333-0.537,2-0.833"/>
			<path class="st5" d="M711.5,30c0.667,0.313,1.333,0.575,2,0.833"/>
			<path class="st1" d="M16.5,53.5c-2.429-0.12-4.63-2.09-5.417-4.334C12.053,35.605,31.848,48.854,35.5,37.5"/>
			<path class="st9" d="M710.5,53c3.064,1.404,6.008-1.896,6.438-4.742c-2.451-12.228-20.696,0.399-24.438-10.758"/>
			<path class="st0" d="M34.5,24.5c-1.556,2.666-4.684,1.826-7,1"/>
			<path class="st6" d="M19.722,60.556C23.911,61.392,32.555,60.79,30.5,54.5"/>
			<path class="st2" d="M708.5,62c-3.366-0.99-6.819-1.232-10.005-2.73c-1.201-1.423-1.008-3.125-0.995-4.77"/>
			<path class="st7" d="M708.5,62c0.075-0.188,0.15-0.377,0.226-0.565C704.638,44.127,681.347,45.276,668,39"/>
			<path class="st8" d="M708.5,62c3.272,299.893,0.955,601.223,1.159,901.559c-230.258,0.803-460.915,0.602-691.217,0.101
				C17.633,705.646,18,438.168,18,176.5c0-37.92-2.688-75.489,0.05-111.884c0.075-0.99,1.348-2.661,1.672-4.06"/>
			<path class="st10" d="M19.722,60.556C25.386,42.327,51.141,45.637,64.5,36.5"/>
			<path class="st13" d="M44.5,27.5c-0.065-0.605-0.076-1.033-0.084-1.454c0.729-0.725,2.077-1.349,3.084-1.88"/>
			<path class="st4" d="M53.5,30.5c0.707-1.411,2.319-3.112,4-2"/>
		</g>
	</g>
</g>
</svg>
