<?xml version="1.0" encoding="utf-8"?>
<!-- Generator: Adobe Illustrator 14.0.0, SVG Export Plug-In . SVG Version: 6.00 Build 43363)  -->
<!DOCTYPE svg PUBLIC "-//W3C//DTD SVG 1.1//EN" "http://www.w3.org/Graphics/SVG/1.1/DTD/svg11.dtd">
<svg version="1.1" id="Layer_1" xmlns="http://www.w3.org/2000/svg" xmlns:xlink="http://www.w3.org/1999/xlink" x="0px" y="0px"
	 width="564px" height="744px" viewBox="0 0 564 744" style="enable-background:new 0 0 564 744;" xml:space="preserve">
<style type="text/css">
<![CDATA[
	.st0{fill:#DE1D3C;}
]]>
</style>
<path class="st0" d="M12.021,2.857L9.013,0L5.898,2.962L2.457,2.458l0.505,3.438L0,9.014l2.858,3.006L0,15.026l2.858,3.007L0,21.04
	l2.858,3.006L0,27.053l2.858,3.007L0,33.066l2.858,3.006L0,39.08l2.858,3.006L0,45.093L2.858,48.1L0,51.106l2.858,3.006L0,57.119
	l2.858,3.006L0,63.133l2.858,3.006L0,69.146l2.858,3.007L0,75.159l2.858,3.006L0,81.172l2.858,3.007L0,87.186l2.858,3.006L0,93.199
	l2.858,3.006L0,99.212l2.858,3.006L0,105.225l2.858,3.007L0,111.238l2.858,3.006L0,117.252l2.858,3.006L0,123.265l2.858,3.007
	L0,129.278l2.858,3.006L0,135.291l2.858,3.006L0,141.305l2.858,3.006L0,147.317l2.858,3.007L0,153.331l2.858,3.006L0,159.344
	l2.858,3.007L0,165.357l2.858,3.006L0,171.371l2.858,3.006L0,177.384l2.858,3.006L0,183.397l2.858,3.006L0,189.41l2.858,3.006
	L0,195.424l2.858,3.006L0,201.437l2.858,3.007L0,207.45l2.858,3.006L0,213.463l2.858,3.006L0,219.477l2.858,3.006L0,225.489
	l2.858,3.007L0,231.503l2.858,3.006L0,237.516l2.858,3.007L0,243.529l2.858,3.006L0,249.543l2.858,3.006L0,255.556l2.858,3.006
	L0,261.569l2.858,3.006L0,267.582l2.858,3.006L0,273.596l2.858,3.006L0,279.608l2.858,3.007L0,285.622l2.858,3.006L0,291.635
	l2.858,3.007L0,297.648l2.858,3.006L0,303.662l2.858,3.006L0,309.675l2.858,3.006L0,315.688l2.858,3.006L0,321.701l2.858,3.006
	L0,327.715l2.858,3.006L0,333.728l2.858,3.007L0,339.741l2.858,3.006L0,345.754l2.858,3.006L0,351.768l2.858,3.006L0,357.78
	l2.858,3.007L0,363.794l2.858,3.006L0,369.807l2.858,3.007L0,375.821l2.858,3.006L0,381.833l2.858,3.007L0,387.847l2.858,3.006
	L0,393.86l2.858,3.007L0,399.874l2.858,3.006L0,405.886l2.858,3.007L0,411.9l2.858,3.006L0,417.914l2.858,3.006L0,423.926
	l2.858,3.006L0,429.94l2.858,3.006L0,435.953l2.858,3.006L0,441.966l2.858,3.006L0,447.979l2.858,3.007L0,453.993l2.858,3.006
	L0,460.005l2.858,3.007L0,466.019l2.858,3.006L0,472.032l2.858,3.007L0,478.045l2.858,3.006L0,484.058l2.858,3.007L0,490.072
	l2.858,3.006L0,496.085l2.858,3.006L0,502.098l2.858,3.006L0,508.112l2.858,3.006L0,514.125l2.858,3.006L0,520.138l2.858,3.006
	L0,526.151l2.858,3.007L0,532.165l2.858,3.006L0,538.177l2.858,3.007L0,544.191l2.858,3.006L0,550.204l2.858,3.007L0,556.217
	l2.858,3.006L0,562.231l2.858,3.006L0,568.244l2.858,3.006L0,574.257l2.858,3.006L0,580.27l2.858,3.006L0,586.284l2.858,3.006
	L0,592.296l2.858,3.007L0,598.31l2.858,3.006L0,604.323l2.858,3.007L0,610.336l2.858,3.006L0,616.349l2.858,3.007L0,622.363
	l2.858,3.006L0,628.375l2.858,3.007L0,634.389l2.858,3.006L0,640.403l2.858,3.006L0,646.416l2.858,3.006L0,652.429l2.858,3.006
	L0,658.442l2.858,3.007L0,664.456l2.858,3.006L0,670.468l2.858,3.007L0,676.482l2.858,3.006L0,682.495l2.858,3.007L0,688.508
	l2.858,3.006L0,694.521l2.858,3.007L0,700.535l2.858,3.006L0,706.548l2.858,3.006L0,712.561l2.858,3.006L0,718.575l2.858,3.006
	L0,724.587l2.858,3.006L0,730.601l2.858,3.006L0,736.614l3,3.156l0.086-0.09l1.393,3.412l3.125-1.978L10.641,744l3.006-2.857
	L16.654,744l3.006-2.857L22.667,744l3.006-2.857L28.68,744l3.006-2.857L34.694,744l3.006-2.858L40.707,744l3.006-2.857L46.72,744
	l3.006-2.858L52.733,744l3.006-2.857L58.747,744l3.006-2.857L64.76,744l3.006-2.857L70.773,744l3.006-2.857L76.786,744l3.006-2.857
	L82.799,744l3.006-2.857L88.813,744l3.006-2.857L94.826,744l3.006-2.857l3.007,2.857l3.006-2.858l3.007,2.858l3.006-2.857
	l3.007,2.857l3.006-2.858l3.007,2.858l3.006-2.857l3.007,2.857l3.006-2.858l3.007,2.858l3.006-2.857l3.007,2.857l3.006-2.857
	l3.007,2.857l3.006-2.857l3.007,2.857l3.006-2.857l3.007,2.857l3.006-2.857l3.007,2.857l3.006-2.857l3.007,2.857l3.006-2.857
	l3.007,2.857l3.006-2.857l3.007,2.857l3.006-2.858l3.007,2.858l3.006-2.858l3.007,2.858l3.006-2.858l3.007,2.858l3.006-2.857
	l3.007,2.857l3.006-2.857l3.007,2.857l3.006-2.857L215.09,744l3.006-2.857l3.007,2.857l3.006-2.857l3.007,2.857l3.006-2.857
	L233.13,744l3.006-2.857l3.007,2.857l3.006-2.857l3.007,2.857l3.006-2.858L251.17,744l3.006-2.858l3.007,2.858l3.006-2.858
	l3.007,2.858l3.006-2.857l3.007,2.857l3.006-2.857l3.007,2.857l3.006-2.857l3.007,2.857l3.006-2.858L287.25,744l3.006-2.858
	l3.007,2.858l3.006-2.858l3.008,2.858l3.006-2.858l3.007,2.858l3.007-2.857l3.007,2.857l3.006-2.858l3.007,2.858l3.006-2.857
	l3.008,2.857l3.006-2.858l3.007,2.858l3.007-2.858l3.007,2.858l3.006-2.858l3.007,2.858l3.007-2.858l3.007,2.858l3.006-2.858
	l3.008,2.858l3.006-2.858l3.007,2.858l3.006-2.858l3.008,2.858l3.006-2.858l3.007,2.858l3.006-2.858l3.008,2.858l3.006-2.858
	L383.46,744l3.007-2.857l3.007,2.857l3.006-2.858l3.007,2.858l3.007-2.858L401.5,744l3.006-2.858l3.007,2.858l3.007-2.858
	l3.007,2.858l3.006-2.858L419.54,744l3.007-2.858l3.007,2.858l3.006-2.858l3.008,2.858l3.006-2.858L437.58,744l3.006-2.858
	l3.008,2.858l3.006-2.858l3.007,2.858l3.006-2.857L455.62,744l3.006-2.858l3.007,2.858l3.007-2.857l3.007,2.857l3.006-2.858
	l3.007,2.858l3.007-2.858l3.007,2.858l3.006-2.858l3.007,2.858l3.007-2.858l3.007,2.858l3.006-2.858l3.008,2.858l3.006-2.858
	l3.007,2.858l3.006-2.858l3.008,2.858l3.006-2.858l3.007,2.858l3.006-2.858l3.008,2.858l3.006-2.858l3.007,2.858l3.006-2.857
	l3.008,2.857l3.006-2.858l3.007,2.858l3.007-2.857l3.007,2.857l3.006-2.858l3.007,2.858l3.007-2.858l3.007,2.858l3.155-3
	L557.844,738l-3.007,2.858L551.831,738l-3.007,2.858L545.818,738l-3.007,2.858L539.804,738l-3.007,2.858L533.792,738l-3.008,2.858
	L527.778,738l-3.007,2.858L521.765,738l-3.008,2.858L515.751,738l-3.007,2.858L509.739,738l-3.008,2.858L503.725,738l-3.007,2.858
	L497.712,738l-3.008,2.858L491.699,738l-3.007,2.858L485.685,738l-3.007,2.858L479.672,738l-3.007,2.858L473.659,738l-3.007,2.858
	L467.646,738l-3.007,2.858L461.632,738l-3.007,2.858L455.62,738l-3.008,2.858L449.606,738l-3.007,2.858L443.593,738l-3.008,2.858
	L437.58,738l-3.007,2.858L431.567,738l-3.008,2.858L425.553,738l-3.007,2.858L419.54,738l-3.007,2.858L413.527,738l-3.007,2.858
	L407.513,738l-3.007,2.858L401.5,738l-3.007,2.858L395.487,738l-3.007,2.858L389.474,738l-3.007,2.858L383.46,738l-3.007,2.858
	L377.448,738l-3.008,2.858L371.434,738l-3.007,2.858L365.421,738l-3.008,2.858L359.408,738l-3.007,2.858L353.395,738l-3.008,2.858
	L347.381,738l-3.007,2.858L341.368,738l-3.007,2.858L335.355,738l-3.007,2.858L329.341,738l-3.007,2.858L323.329,738l-3.008,2.858
	L317.315,738l-3.007,2.858L311.302,738l-3.007,2.858L305.289,738l-3.007,2.858L299.276,738l-3.008,2.858L293.262,738l-3.007,2.858
	L287.25,738l-3.008,2.858L281.236,738l-3.007,2.858L275.223,738l-3.007,2.858L269.209,738l-3.007,2.858L263.196,738l-3.007,2.858
	L257.183,738l-3.007,2.858L251.17,738l-3.007,2.858L245.157,738l-3.007,2.858L239.143,738l-3.007,2.858L233.13,738l-3.007,2.858
	L227.117,738l-3.007,2.858L221.104,738l-3.007,2.858L215.09,738l-3.007,2.858L209.077,738l-3.007,2.858L203.064,738l-3.007,2.858
	L197.051,738l-3.007,2.858L191.038,738l-3.007,2.858L185.024,738l-3.007,2.858L179.011,738l-3.007,2.858L172.998,738l-3.007,2.858
	L166.984,738l-3.007,2.858L160.971,738l-3.007,2.858L154.958,738l-3.007,2.858L148.945,738l-3.007,2.858L142.932,738l-3.007,2.858
	L136.918,738l-3.007,2.858L130.905,738l-3.007,2.858L124.892,738l-3.007,2.858L118.879,738l-3.007,2.858L112.866,738l-3.007,2.858
	L106.852,738l-3.007,2.858L100.839,738l-3.007,2.858L94.826,738l-3.007,2.858L88.813,738l-3.007,2.858L82.799,738l-3.007,2.858
	L76.786,738l-3.007,2.858L70.773,738l-3.007,2.858L64.76,738l-3.007,2.858L58.747,738l-3.007,2.858L52.733,738l-3.007,2.858
	L46.72,738l-3.007,2.858L40.707,738l-3.007,2.858L34.694,738l-3.007,2.858L28.68,738l-3.007,2.858L22.667,738l-3.007,2.858
	L16.654,738l-3.007,2.858L10.641,738l-2.94,2.795l-1.395-3.416l-2.588,1.638l2.284-2.402l-2.858-3.007l2.858-3.006l-2.858-3.008
	l2.858-3.006l-2.858-3.007l2.858-3.006l-2.858-3.008l2.858-3.006l-2.858-3.007l2.858-3.006l-2.858-3.008l2.858-3.006l-2.858-3.007
	l2.858-3.007l-2.858-3.007l2.858-3.006l-2.858-3.007l2.858-3.007l-2.858-3.007l2.858-3.006l-2.858-3.007l2.858-3.007l-2.858-3.007
	l2.858-3.006l-2.858-3.007l2.858-3.007l-2.858-3.007l2.858-3.006l-2.858-3.008l2.858-3.006l-2.858-3.007l2.858-3.006l-2.858-3.008
	l2.858-3.006l-2.858-3.007l2.858-3.007l-2.858-3.007l2.858-3.006l-2.858-3.007l2.858-3.007l-2.858-3.007l2.858-3.006l-2.858-3.007
	l2.858-3.007l-2.858-3.007l2.858-3.006l-2.858-3.007l2.858-3.007l-2.858-3.007l2.858-3.006l-2.858-3.008l2.858-3.006l-2.858-3.007
	l2.858-3.006l-2.858-3.008l2.858-3.006l-2.858-3.007l2.858-3.006l-2.858-3.008l2.858-3.006l-2.858-3.007l2.858-3.007l-2.858-3.007
	l2.858-3.006l-2.858-3.007l2.858-3.007l-2.858-3.007l2.858-3.006l-2.858-3.007l2.858-3.007l-2.858-3.007l2.858-3.006l-2.858-3.008
	l2.858-3.006l-2.858-3.007l2.858-3.006l-2.858-3.008l2.858-3.006l-2.858-3.007l2.858-3.006l-2.858-3.008l2.858-3.006l-2.858-3.007
	l2.858-3.007l-2.858-3.007l2.858-3.006l-2.858-3.007l2.858-3.007l-2.858-3.007l2.858-3.006l-2.858-3.007l2.858-3.007l-2.858-3.007
	l2.858-3.006l-2.858-3.007l2.858-3.007l-2.858-3.007l2.858-3.006l-2.858-3.008l2.858-3.006l-2.858-3.007l2.858-3.006l-2.858-3.008
	l2.858-3.006l-2.858-3.007l2.858-3.006l-2.858-3.008l2.858-3.006l-2.858-3.007l2.858-3.007l-2.858-3.007l2.858-3.006l-2.858-3.007
	l2.858-3.007l-2.858-3.007l2.858-3.006l-2.858-3.007l2.858-3.007l-2.858-3.007l2.858-3.006l-2.858-3.007l2.858-3.007L3.143,366.8
	l2.858-3.006l-2.858-3.007l2.858-3.007l-2.858-3.007l2.858-3.006l-2.858-3.008l2.858-3.006l-2.858-3.007l2.858-3.006l-2.858-3.007
	l2.858-3.007l-2.858-3.007l2.858-3.006l-2.858-3.008l2.858-3.006l-2.858-3.007l2.858-3.006l-2.858-3.008l2.858-3.006l-2.858-3.007
	l2.858-3.006l-2.858-3.008l2.858-3.006l-2.858-3.007l2.858-3.007l-2.858-3.007l2.858-3.006l-2.858-3.007l2.858-3.007l-2.858-3.007
	l2.858-3.006l-2.858-3.008l2.858-3.006l-2.858-3.007l2.858-3.006l-2.858-3.008l2.858-3.006l-2.858-3.007l2.858-3.006l-2.858-3.008
	l2.858-3.006l-2.858-3.007l2.858-3.007l-2.858-3.007l2.858-3.006l-2.858-3.007l2.858-3.007l-2.858-3.007l2.858-3.006l-2.858-3.008
	l2.858-3.006l-2.858-3.007l2.858-3.006l-2.858-3.007l2.858-3.007l-2.858-3.007l2.858-3.006l-2.858-3.008l2.858-3.006l-2.858-3.007
	l2.858-3.006l-2.858-3.008l2.858-3.006l-2.858-3.007l2.858-3.006l-2.858-3.008l2.858-3.006l-2.858-3.007l2.858-3.007l-2.858-3.007
	l2.858-3.006l-2.858-3.007l2.858-3.007l-2.858-3.007l2.858-3.006l-2.858-3.008l2.858-3.006l-2.858-3.007l2.858-3.006l-2.858-3.007
	l2.858-3.007l-2.858-3.007l2.858-3.006l-2.858-3.008l2.858-3.006l-2.858-3.007l2.858-3.007l-2.858-3.007l2.858-3.006l-2.858-3.007
	l2.858-3.006l-2.858-3.008l2.858-3.006l-2.858-3.007l2.858-3.007l-2.858-3.007l2.858-3.006l-2.858-3.007l2.858-3.007l-2.858-3.007
	l2.858-3.006l-2.858-3.008l2.858-3.006l-2.858-3.007l2.858-3.006L3.143,48.1l2.858-3.007l-2.858-3.007l2.858-3.006l-2.858-3.008
	l2.858-3.006L3.143,30.06l2.858-3.007l-2.858-3.007l2.858-3.006l-2.858-3.007l2.858-3.007L3.143,12.02l2.858-3.006L3.333,6.206
	L6.7,6.699L6.205,3.33L9.013,6l3.007-2.857L15.027,6l3.007-2.857L21.04,6l3.007-2.857L27.053,6l3.007-2.857L33.066,6l3.007-2.857
	L39.08,6l3.007-2.857L45.093,6L48.1,3.143L51.106,6l3.007-2.857L57.119,6l3.007-2.857L63.132,6l3.007-2.857L69.146,6l3.007-2.857
	L75.159,6l3.007-2.857L81.172,6l3.007-2.857L87.185,6l3.007-2.857L93.199,6l3.007-2.857L99.212,6l3.007-2.857L105.225,6l3.007-2.857
	L111.238,6l3.007-2.857L117.251,6l3.007-2.857L123.265,6l3.007-2.857L129.278,6l3.007-2.857L135.291,6l3.007-2.857L141.304,6
	l3.007-2.857L147.317,6l3.007-2.857L153.331,6l3.007-2.857L159.344,6l3.007-2.857L165.357,6l3.007-2.857L171.371,6l3.007-2.857
	L177.384,6l3.007-2.857L183.397,6l3.007-2.857L189.41,6l3.007-2.857L195.423,6l3.007-2.857L201.437,6l3.007-2.857L207.45,6
	l3.007-2.857L213.463,6l3.007-2.857L219.476,6l3.007-2.857L225.49,6l3.007-2.857L231.503,6l3.007-2.857L237.516,6l3.007-2.857
	L243.529,6l3.007-2.857L249.542,6l3.007-2.857L255.556,6l3.007-2.857L261.569,6l3.007-2.857L267.582,6l3.007-2.857L273.595,6
	l3.007-2.857L279.608,6l3.007-2.858L285.622,6l3.008-2.857L291.635,6l3.007-2.858L297.648,6l3.007-2.857L303.662,6l3.007-2.858
	L309.674,6l3.008-2.858L315.688,6l3.007-2.858L321.701,6l3.008-2.858L327.714,6l3.007-2.858L333.728,6l3.007-2.858L339.741,6
	l3.007-2.858L345.754,6l3.007-2.858L351.767,6l3.007-2.858L357.781,6l3.007-2.858L363.793,6l3.008-2.857L369.807,6l3.007-2.858
	L375.82,6l3.008-2.858L381.833,6l3.007-2.858L387.846,6l3.008-2.858L393.86,6l3.007-2.858L399.873,6l3.008-2.858L405.886,6
	l3.007-2.858L411.9,6l3.007-2.858L417.913,6l3.007-2.858L423.926,6l3.007-2.858L429.939,6l3.007-2.857L435.953,6l3.007-2.858
	L441.965,6l3.008-2.857L447.979,6l3.007-2.858L453.992,6L457,3.142L460.005,6l3.007-2.858L466.018,6l3.008-2.858L472.032,6
	l3.007-2.858L478.045,6l3.007-2.858L484.058,6l3.007-2.858L490.072,6l3.007-2.858L496.084,6l3.007-2.858L502.098,6l3.007-2.858
	L508.111,6l3.007-2.857L514.125,6l3.007-2.858L520.137,6l3.008-2.858L526.151,6l3.007-2.858L532.164,6l3.008-2.858L538.177,6
	l3.007-2.858L544.19,6l3.008-2.858L550.204,6l3.007-2.858L556.217,6l2.559-2.432L557.291,6.4l3.482,0.926L558,10.243l2.858,3.007
	L558,16.256l2.857,3.008L558,22.27l2.858,3.007L558,28.282l2.857,3.007L558,34.296l2.858,3.007L558,40.309l2.858,3.008L558,46.322
	l2.858,3.007L558,52.336l2.858,3.007L558,58.349l2.858,3.007L558,64.361l2.858,3.008L558,70.375l2.858,3.007L558,76.389l2.858,3.007
	L558,82.401l2.858,3.007L558,88.415l2.858,3.007L558,94.428l2.857,3.008L558,100.441l2.858,3.007L558,106.454l2.858,3.008
	L558,112.468l2.858,3.007L558,118.48l2.858,3.008L558,124.494l2.858,3.007L558,130.508l2.858,3.007L558,136.521l2.858,3.007
	L558,142.534l2.858,3.007L558,148.547l2.857,3.008L558,154.561l2.858,3.007L558,160.573l2.857,3.007L558,166.587l2.858,3.007
	L558,172.6l2.858,3.008L558,178.613l2.858,3.007L558,184.627l2.858,3.007L558,190.64l2.858,3.007L558,196.652l2.858,3.008
	L558,202.666l2.858,3.007L558,208.68l2.858,3.007L558,214.692l2.858,3.007L558,220.706l2.858,3.007L558,226.719l2.857,3.008
	L558,232.732l2.858,3.007L558,238.745l2.857,3.007L558,244.759l2.858,3.007L558,250.771l2.858,3.008L558,256.785l2.858,3.007
	L558,262.798l2.858,3.008L558,268.812l2.858,3.007L558,274.824l2.858,3.008L558,280.838l2.858,3.007L558,286.852l2.858,3.007
	L558,292.864l2.858,3.007L558,298.878l2.858,3.007L558,304.891l2.857,3.008L558,310.904l2.858,3.007L558,316.917l2.858,3.008
	L558,322.931l2.858,3.007L558,328.943l2.858,3.008L558,334.957l2.858,3.007L558,340.971l2.858,3.007L558,346.983l2.858,3.007
	L558,352.997l2.858,3.007L558,359.01l2.857,3.008L558,365.023l2.858,3.007L558,371.036l2.857,3.007L558,377.049l2.857,3.008
	L558,383.063l2.857,3.007L558,389.077l2.857,3.006L558,395.089l2.857,3.007L558,401.102l2.857,3.008L558,407.116l2.857,3.008
	L558,413.129l2.857,3.006L558,419.142l2.857,3.007L558,425.155l2.857,3.008L558,431.168l2.857,3.008L558,437.182l2.857,3.007
	L558,443.195l2.857,3.007L558,449.208l2.857,3.007L558,455.221l2.857,3.008L558,461.235l2.857,3.007L558,467.249l2.857,3.006
	L558,473.261l2.857,3.007L558,479.274l2.857,3.008L558,485.288l2.857,3.008L558,491.301l2.857,3.007L558,497.314l2.857,3.007
	L558,503.327l2.857,3.008L558,509.34l2.857,3.008L558,515.354l2.857,3.007L558,521.368l2.857,3.006L558,527.38l2.857,3.007
	L558,533.393l2.857,3.008L558,539.407l2.857,3.007L558,545.42l2.857,3.006L558,551.433l2.857,3.007L558,557.446l2.857,3.008
	L558,563.459l2.857,3.008L558,569.473l2.857,3.007L558,575.486l2.857,3.007L558,581.499l2.857,3.008L558,587.512l2.857,3.008
	L558,593.526l2.857,3.007L558,599.54l2.857,3.006L558,605.552l2.857,3.007L558,611.565l2.857,3.008L558,617.579l2.857,3.008
	L558,623.592l2.857,3.006L558,629.605l2.857,3.007L558,635.618l2.857,3.008L558,641.631l2.857,3.008L558,647.645l2.857,3.007
	L558,653.658l2.857,3.008L558,659.671l2.857,3.007L558,665.685l2.857,3.007L558,671.698l2.857,3.007L558,677.711l2.857,3.007
	L558,683.724l2.857,3.007L558,689.738l2.857,3.007L558,695.75l2.857,3.008L558,701.764l2.857,3.007L558,707.777l2.857,3.007
	L558,713.79l2.857,3.008L558,719.803l2.857,3.008L558,725.817l2.857,3.007L558,731.83l2.857,3.007L558,737.843l3,3.157l3-3.157
	l-2.857-3.007L564,731.83l-2.857-3.006l2.857-3.007l-2.857-3.006l2.857-3.008l-2.857-3.006L564,713.79l-2.857-3.006l2.857-3.007
	l-2.857-3.006l2.857-3.007l-2.857-3.006L564,695.75l-2.857-3.006l2.857-3.007l-2.857-3.007l2.857-3.007l-2.857-3.006l2.857-3.007
	l-2.857-3.007l2.857-3.007l-2.857-3.006l2.857-3.007l-2.857-3.007l2.857-3.007l-2.857-3.006l2.857-3.008l-2.857-3.006l2.857-3.007
	l-2.857-3.006l2.857-3.008l-2.857-3.006l2.857-3.008l-2.857-3.006l2.857-3.007l-2.857-3.007l2.857-3.006l-2.857-3.006l2.857-3.008
	l-2.857-3.006l2.857-3.008l-2.857-3.006l2.857-3.007l-2.857-3.007L564,599.54l-2.857-3.007l2.857-3.007l-2.857-3.006l2.857-3.008
	l-2.857-3.006l2.857-3.008l-2.857-3.006l2.857-3.007l-2.857-3.006l2.857-3.007l-2.857-3.006l2.857-3.008l-2.857-3.006l2.857-3.008
	l-2.857-3.006l2.857-3.007l-2.857-3.007L564,545.42l-2.857-3.007l2.857-3.007l-2.857-3.006l2.857-3.008l-2.857-3.006L564,527.38
	l-2.857-3.007l2.857-3.006l-2.857-3.007l2.857-3.007l-2.857-3.006L564,509.34l-2.857-3.006l2.857-3.008l-2.857-3.006l2.857-3.007
	l-2.857-3.006l2.857-3.007l-2.857-3.006l2.857-3.008l-2.857-3.006l2.857-3.008l-2.857-3.006l2.857-3.007l-2.857-3.007l2.857-3.006
	l-2.857-3.007l2.857-3.007l-2.857-3.006l2.857-3.008l-2.857-3.006l2.857-3.007l-2.857-3.007l2.857-3.007l-2.857-3.006l2.857-3.007
	l-2.857-3.006l2.857-3.008l-2.857-3.006l2.857-3.008l-2.857-3.006l2.857-3.007l-2.857-3.007l2.857-3.006l-2.857-3.006l2.857-3.008
	l-2.857-3.006l2.857-3.008l-2.857-3.006l2.857-3.007l-2.857-3.007l2.857-3.006l-2.857-3.007l2.857-3.007l-2.857-3.006l2.857-3.008
	l-2.857-3.006l2.857-3.007l-2.858-3.006l2.858-3.007l-2.857-3.006L564,359.01l-2.858-3.006l2.858-3.007l-2.858-3.007l2.858-3.007
	l-2.858-3.006l2.858-3.007l-2.858-3.007l2.858-3.007l-2.858-3.006l2.858-3.008l-2.858-3.006l2.858-3.007l-2.858-3.006l2.858-3.008
	l-2.858-3.006l2.858-3.007l-2.857-3.006l2.857-3.008l-2.858-3.006l2.858-3.007l-2.858-3.007l2.858-3.007l-2.858-3.006l2.858-3.007
	l-2.858-3.007l2.858-3.007l-2.858-3.006l2.858-3.008l-2.858-3.006l2.858-3.007l-2.858-3.006l2.858-3.008l-2.858-3.006l2.858-3.007
	l-2.858-3.006l2.858-3.008l-2.858-3.006l2.858-3.007l-2.857-3.007l2.857-3.007l-2.858-3.006l2.858-3.007l-2.857-3.006l2.857-3.008
	l-2.858-3.006l2.858-3.007l-2.858-3.007l2.858-3.007l-2.858-3.006L564,208.68l-2.858-3.007l2.858-3.007l-2.858-3.006l2.858-3.008
	l-2.858-3.006L564,190.64l-2.858-3.006l2.858-3.007l-2.858-3.007l2.858-3.007l-2.858-3.006L564,172.6l-2.858-3.006l2.858-3.007
	l-2.857-3.007l2.857-3.007l-2.858-3.006l2.858-3.007l-2.857-3.006l2.857-3.008l-2.858-3.006l2.858-3.007l-2.858-3.007l2.858-3.007
	l-2.858-3.006l2.858-3.007l-2.858-3.007l2.858-3.007l-2.858-3.006L564,118.48l-2.858-3.006l2.858-3.007l-2.858-3.006l2.858-3.008
	l-2.858-3.006l2.858-3.007l-2.857-3.006L564,94.428l-2.858-3.006L564,88.415l-2.858-3.007L564,82.401l-2.858-3.006L564,76.389
	l-2.858-3.007L564,70.375l-2.858-3.006L564,64.361l-2.858-3.006L564,58.349l-2.858-3.006L564,52.336l-2.858-3.007L564,46.322
	l-2.858-3.006L564,40.309l-2.858-3.006L564,34.296l-2.857-3.007L564,28.282l-2.858-3.006L564,22.27l-2.857-3.006L564,16.256
	l-2.858-3.006L564,10.243l-2.898-3.05l1.682-3.206l-3.476-0.925L559.374,3l-3.156-3l-3.007,2.858L550.204,0l-3.006,2.858L544.19,0
	l-3.006,2.858L538.177,0l-3.006,2.858L532.164,0l-3.006,2.858L526.151,0l-3.006,2.858L520.137,0l-3.006,2.858L514.125,0
	l-3.007,2.857L508.111,0l-3.006,2.858L502.098,0l-3.007,2.858L496.084,0l-3.006,2.858L490.072,0l-3.007,2.858L484.058,0
	l-3.006,2.858L478.045,0l-3.007,2.858L472.032,0l-3.006,2.858L466.018,0l-3.006,2.858L460.005,0L457,2.858L453.992,0l-3.006,2.858
	L447.979,0l-3.006,2.857L441.965,0l-3.006,2.858L435.953,0l-3.007,2.857L429.939,0l-3.006,2.858L423.926,0l-3.007,2.858L417.913,0
	l-3.006,2.858L411.9,0l-3.007,2.858L405.886,0l-3.006,2.858L399.873,0l-3.006,2.858L393.86,0l-3.006,2.858L387.846,0l-3.006,2.858
	L381.833,0l-3.006,2.858L375.82,0l-3.006,2.858L369.807,0l-3.006,2.857L363.793,0l-3.006,2.858L357.781,0l-3.007,2.858L351.767,0
	l-3.006,2.858L345.754,0l-3.007,2.858L339.741,0l-3.006,2.858L333.728,0l-3.007,2.858L327.714,0l-3.006,2.858L321.701,0
	l-3.006,2.858L315.688,0l-3.006,2.858L309.674,0l-3.006,2.858L303.662,0l-3.007,2.857L297.648,0l-3.006,2.858L291.635,0
	l-3.006,2.857L285.622,0l-3.006,2.858L279.608,0l-3.006,2.857L273.595,0l-3.006,2.857L267.582,0l-3.006,2.857L261.569,0
	l-3.006,2.857L255.556,0l-3.006,2.857L249.542,0l-3.006,2.857L243.529,0l-3.006,2.857L237.516,0l-3.006,2.857L231.503,0
	l-3.006,2.857L225.49,0l-3.006,2.857L219.476,0l-3.006,2.857L213.463,0l-3.006,2.857L207.45,0l-3.006,2.857L201.437,0l-3.006,2.857
	L195.423,0l-3.006,2.857L189.41,0l-3.006,2.857L183.397,0l-3.006,2.857L177.384,0l-3.006,2.857L171.371,0l-3.006,2.857L165.357,0
	l-3.006,2.857L159.344,0l-3.006,2.857L153.331,0l-3.006,2.857L147.317,0l-3.006,2.857L141.304,0l-3.006,2.857L135.291,0
	l-3.006,2.857L129.278,0l-3.006,2.857L123.265,0l-3.006,2.857L117.251,0l-3.006,2.857L111.238,0l-3.006,2.857L105.225,0
	l-3.006,2.857L99.212,0l-3.006,2.857L93.199,0l-3.006,2.857L87.185,0l-3.006,2.857L81.172,0l-3.006,2.857L75.159,0l-3.006,2.857
	L69.146,0L66.14,2.857L63.132,0l-3.006,2.857L57.119,0l-3.006,2.857L51.106,0L48.1,2.857L45.093,0l-3.006,2.857L39.08,0
	l-3.006,2.857L33.066,0L30.06,2.857L27.053,0l-3.006,2.857L21.04,0l-3.006,2.857L15.027,0L12.021,2.857z M560.216,741l-2.372,2.255
	L555.471,741l2.373-2.256L560.216,741z M554.204,741l-2.373,2.255L549.458,741l2.373-2.256L554.204,741z M548.19,741l-2.372,2.255
	L543.444,741l2.374-2.256L548.19,741z M542.177,741l-2.373,2.255L537.431,741l2.373-2.256L542.177,741z M536.164,741l-2.372,2.255
	L531.417,741l2.374-2.256L536.164,741z M530.151,741l-2.373,2.255L525.405,741l2.373-2.256L530.151,741z M524.137,741l-2.372,2.255
	L519.391,741l2.374-2.256L524.137,741z M518.124,741l-2.372,2.255L513.378,741l2.373-2.256L518.124,741z M512.111,741l-2.372,2.255
	L507.365,741l2.374-2.256L512.111,741z M506.097,741l-2.372,2.255L501.352,741l2.373-2.256L506.097,741z M500.084,741l-2.372,2.255
	L495.338,741l2.374-2.256L500.084,741z M494.071,741l-2.372,2.255L489.326,741l2.373-2.256L494.071,741z M488.058,741l-2.373,2.255
	L483.312,741l2.373-2.256L488.058,741z M482.044,741l-2.372,2.255L477.299,741l2.373-2.256L482.044,741z M476.032,741l-2.373,2.255
	L471.286,741l2.373-2.256L476.032,741z M470.018,741l-2.372,2.255L465.272,741l2.374-2.256L470.018,741z M464.005,741l-2.373,2.255
	L459.259,741l2.373-2.256L464.005,741z M457.992,741l-2.372,2.255L453.246,741l2.374-2.256L457.992,741z M451.979,741l-2.373,2.255
	L447.233,741l2.373-2.256L451.979,741z M445.965,741l-2.372,2.255L441.219,741l2.374-2.256L445.965,741z M439.952,741l-2.372,2.255
	L435.207,741l2.373-2.256L439.952,741z M433.939,741l-2.372,2.255L429.193,741l2.374-2.256L433.939,741z M427.925,741l-2.372,2.255
	L423.18,741l2.373-2.256L427.925,741z M421.913,741l-2.373,2.255L417.167,741l2.373-2.256L421.913,741z M415.899,741l-2.372,2.255
	L411.154,741l2.373-2.256L415.899,741z M409.886,741l-2.373,2.255L405.14,741l2.373-2.256L409.886,741z M403.873,741l-2.372,2.255
	L399.127,741l2.373-2.256L403.873,741z M397.86,741l-2.373,2.255L393.114,741l2.373-2.256L397.86,741z M391.846,741l-2.372,2.255
	L387.1,741l2.374-2.256L391.846,741z M385.833,741l-2.373,2.255L381.087,741l2.373-2.256L385.833,741z M379.82,741l-2.372,2.255
	L375.074,741l2.374-2.256L379.82,741z M373.806,741l-2.372,2.255L369.061,741l2.373-2.256L373.806,741z M367.793,741l-2.372,2.255
	L363.047,741l2.374-2.256L367.793,741z M361.78,741l-2.372,2.255L357.035,741l2.373-2.256L361.78,741z M355.767,741l-2.372,2.255
	L351.021,741l2.374-2.256L355.767,741z M349.753,741l-2.372,2.255L345.008,741l2.373-2.256L349.753,741z M343.741,741l-2.373,2.255
	L338.995,741l2.373-2.256L343.741,741z M337.727,741l-2.372,2.255L332.982,741l2.373-2.256L337.727,741z M331.714,741l-2.373,2.255
	L326.968,741l2.373-2.256L331.714,741z M325.701,741l-2.372,2.255L320.955,741l2.374-2.256L325.701,741z M319.688,741l-2.373,2.255
	L314.942,741l2.373-2.256L319.688,741z M313.674,741l-2.372,2.255L308.928,741l2.374-2.256L313.674,741z M307.662,741l-2.373,2.255
	L302.916,741l2.373-2.256L307.662,741z M301.648,741l-2.372,2.255L296.902,741l2.374-2.256L301.648,741z M295.634,741l-2.372,2.255
	L290.889,741l2.373-2.256L295.634,741z M289.622,741l-2.372,2.255L284.875,741l2.374-2.256L289.622,741z M283.608,741l-2.372,2.255
	L278.863,741l2.373-2.256L283.608,741z M277.595,741l-2.372,2.255L272.85,741l2.373-2.256L277.595,741z M271.582,741l-2.372,2.255
	L266.836,741l2.373-2.256L271.582,741z M265.568,741l-2.372,2.255L260.823,741l2.373-2.256L265.568,741z M259.555,741l-2.372,2.255
	L254.81,741l2.373-2.256L259.555,741z M253.542,741l-2.372,2.255L248.797,741l2.373-2.256L253.542,741z M247.529,741l-2.372,2.255
	L242.784,741l2.373-2.256L247.529,741z M241.515,741l-2.372,2.255L236.771,741l2.373-2.256L241.515,741z M235.502,741l-2.372,2.255
	L230.757,741l2.373-2.256L235.502,741z M229.489,741l-2.372,2.255L224.744,741l2.373-2.256L229.489,741z M223.476,741l-2.372,2.255
	L218.73,741l2.373-2.256L223.476,741z M217.462,741l-2.372,2.255L212.717,741l2.373-2.256L217.462,741z M211.449,741l-2.372,2.255
	L206.704,741l2.373-2.256L211.449,741z M205.436,741l-2.372,2.255L200.691,741l2.373-2.256L205.436,741z M199.423,741l-2.372,2.255
	L194.678,741l2.373-2.256L199.423,741z M193.41,741l-2.372,2.255L188.665,741l2.373-2.256L193.41,741z M187.396,741l-2.372,2.255
	L182.651,741l2.373-2.256L187.396,741z M181.383,741l-2.372,2.255L176.638,741l2.373-2.256L181.383,741z M175.37,741l-2.372,2.255
	L170.625,741l2.373-2.256L175.37,741z M169.356,741l-2.372,2.255L164.612,741l2.373-2.256L169.356,741z M163.343,741l-2.372,2.255
	L158.599,741l2.373-2.256L163.343,741z M157.33,741l-2.372,2.255L152.585,741l2.373-2.256L157.33,741z M151.317,741l-2.372,2.255
	L146.572,741l2.373-2.256L151.317,741z M145.304,741l-2.372,2.255L140.559,741l2.373-2.256L145.304,741z M139.291,741l-2.372,2.255
	L134.545,741l2.373-2.256L139.291,741z M133.277,741l-2.372,2.255L128.532,741l2.373-2.256L133.277,741z M127.264,741l-2.372,2.255
	L122.519,741l2.373-2.256L127.264,741z M121.251,741l-2.372,2.255L116.506,741l2.373-2.256L121.251,741z M115.238,741l-2.372,2.255
	L110.493,741l2.373-2.256L115.238,741z M109.224,741l-2.372,2.255L104.479,741l2.373-2.256L109.224,741z M103.211,741l-2.372,2.255
	L98.466,741l2.373-2.256L103.211,741z M97.198,741l-2.372,2.255L92.453,741l2.373-2.256L97.198,741z M91.185,741l-2.372,2.255
	L86.439,741l2.373-2.256L91.185,741z M85.171,741l-2.372,2.255L80.426,741l2.373-2.256L85.171,741z M79.158,741l-2.372,2.255
	L74.413,741l2.373-2.256L79.158,741z M73.145,741l-2.372,2.255L68.4,741l2.373-2.256L73.145,741z M67.132,741l-2.372,2.255
	L62.387,741l2.373-2.256L67.132,741z M61.119,741l-2.372,2.255L56.374,741l2.373-2.256L61.119,741z M55.105,741l-2.372,2.255
	L50.36,741l2.373-2.256L55.105,741z M49.092,741l-2.372,2.255L44.347,741l2.373-2.256L49.092,741z M43.079,741l-2.372,2.255
	L38.334,741l2.373-2.256L43.079,741z M37.066,741l-2.372,2.255L32.321,741l2.373-2.256L37.066,741z M31.052,741l-2.372,2.255
	L26.308,741l2.373-2.256L31.052,741z M25.039,741l-2.372,2.255L20.294,741l2.373-2.256L25.039,741z M19.026,741l-2.372,2.255
	L14.281,741l2.373-2.256L19.026,741z M13.013,741l-2.372,2.255L8.268,741l2.373-2.256L13.013,741z M7.113,740.785l-2.378,1.506
	l-1.063-2.605l2.378-1.506L7.113,740.785z M563.256,737.843L561,740.215l-2.256-2.372l2.256-2.372L563.256,737.843z M563.256,731.83
	L561,734.203l-2.256-2.373l2.256-2.372L563.256,731.83z M563.256,725.817L561,728.19l-2.256-2.373l2.256-2.373L563.256,725.817z
	 M563.256,719.803L561,722.176l-2.256-2.373l2.256-2.372L563.256,719.803z M563.256,713.79L561,716.163l-2.256-2.373l2.256-2.371
	L563.256,713.79z M563.256,707.777L561,710.15l-2.256-2.373l2.256-2.372L563.256,707.777z M563.256,701.764L561,704.137
	l-2.256-2.373l2.256-2.372L563.256,701.764z M563.256,695.75L561,698.124l-2.256-2.373l2.256-2.372L563.256,695.75z
	 M563.256,689.738L561,692.111l-2.256-2.373l2.256-2.372L563.256,689.738z M563.256,683.724L561,686.097l-2.256-2.373l2.256-2.372
	L563.256,683.724z M563.256,677.711L561,680.083l-2.256-2.372l2.256-2.372L563.256,677.711z M563.256,671.698L561,674.071
	l-2.256-2.373l2.256-2.372L563.256,671.698z M563.256,665.685L561,668.057l-2.256-2.372l2.256-2.372L563.256,665.685z
	 M563.256,659.671L561,662.044l-2.256-2.373l2.256-2.372L563.256,659.671z M563.256,653.658L561,656.031l-2.256-2.373l2.256-2.372
	L563.256,653.658z M563.256,647.645L561,650.018l-2.256-2.373l2.256-2.373L563.256,647.645z M563.256,641.631L561,644.004
	l-2.256-2.373l2.256-2.372L563.256,641.631z M563.256,635.618L561,637.991l-2.256-2.373l2.256-2.371L563.256,635.618z
	 M563.256,629.605L561,631.978l-2.256-2.373l2.256-2.372L563.256,629.605z M563.256,623.592L561,625.965l-2.256-2.373l2.256-2.373
	L563.256,623.592z M563.256,617.579L561,619.952l-2.256-2.373l2.256-2.372L563.256,617.579z M563.256,611.565L561,613.938
	l-2.256-2.373l2.256-2.371L563.256,611.565z M563.256,605.552L561,607.924l-2.256-2.372L561,603.18L563.256,605.552z
	 M563.256,599.54L561,601.912l-2.256-2.372l2.256-2.373L563.256,599.54z M563.256,593.526L561,595.899l-2.256-2.373l2.256-2.372
	L563.256,593.526z M563.256,587.512L561,589.885l-2.256-2.373L561,585.14L563.256,587.512z M563.256,581.499L561,583.872
	l-2.256-2.373l2.256-2.371L563.256,581.499z M563.256,575.486L561,577.859l-2.256-2.373l2.256-2.372L563.256,575.486z
	 M563.256,569.473L561,571.846l-2.256-2.373L561,567.1L563.256,569.473z M563.256,563.459L561,565.833l-2.256-2.373l2.256-2.372
	L563.256,563.459z M563.256,557.446L561,559.819l-2.256-2.373l2.256-2.371L563.256,557.446z M563.256,551.433L561,553.806
	l-2.256-2.373l2.256-2.372L563.256,551.433z M563.256,545.42L561,547.793l-2.256-2.373l2.256-2.373L563.256,545.42z
	 M563.256,539.407L561,541.78l-2.256-2.373l2.256-2.372L563.256,539.407z M563.256,533.393L561,535.766l-2.256-2.373l2.256-2.371
	L563.256,533.393z M563.256,527.38L561,529.752l-2.256-2.372l2.256-2.372L563.256,527.38z M563.256,521.368L561,523.74l-2.256-2.372
	l2.256-2.373L563.256,521.368z M563.256,515.354L561,517.727l-2.256-2.373l2.256-2.373L563.256,515.354z M563.256,509.34
	L561,511.713l-2.256-2.373l2.256-2.372L563.256,509.34z M563.256,503.327L561,505.7l-2.256-2.373l2.256-2.371L563.256,503.327z
	 M563.256,497.314L561,499.687l-2.256-2.373l2.256-2.372L563.256,497.314z M563.256,491.301L561,493.674l-2.256-2.373l2.256-2.373
	L563.256,491.301z M563.256,485.288L561,487.661l-2.256-2.373l2.256-2.372L563.256,485.288z M563.256,479.274L561,481.647
	l-2.256-2.373l2.256-2.371L563.256,479.274z M563.256,473.261L561,475.634l-2.256-2.373l2.256-2.372L563.256,473.261z
	 M563.256,467.249L561,469.621l-2.256-2.372l2.256-2.373L563.256,467.249z M563.256,461.235L561,463.608l-2.256-2.373l2.256-2.372
	L563.256,461.235z M563.256,455.221L561,457.594l-2.256-2.373L561,452.85L563.256,455.221z M563.256,449.208L561,451.581
	l-2.256-2.372l2.256-2.372L563.256,449.208z M563.256,443.195L561,445.568l-2.256-2.373l2.256-2.372L563.256,443.195z
	 M563.256,437.182L561,439.555l-2.256-2.373l2.256-2.373L563.256,437.182z M563.256,431.168L561,433.542l-2.256-2.373l2.256-2.372
	L563.256,431.168z M563.256,425.155L561,427.528l-2.256-2.373l2.256-2.371L563.256,425.155z M563.256,419.142L561,421.515
	l-2.256-2.373L561,416.77L563.256,419.142z M563.256,413.129L561,415.502l-2.256-2.373l2.256-2.373L563.256,413.129z
	 M563.256,407.116L561,409.489l-2.256-2.373l2.256-2.372L563.256,407.116z M563.256,401.102L561,403.475l-2.256-2.373l2.256-2.371
	L563.256,401.102z M563.256,395.089L561,397.461l-2.256-2.372l2.256-2.372L563.256,395.089z M563.256,389.077L561,391.449
	l-2.256-2.372l2.256-2.373L563.256,389.077z M563.256,383.063L561,385.436l-2.256-2.373l2.256-2.372L563.256,383.063z
	 M563.256,377.049L561,379.422l-2.256-2.373l2.256-2.371L563.256,377.049z M563.256,371.036L561,373.409l-2.256-2.373l2.256-2.372
	L563.256,371.036z M563.256,365.023L561,367.396l-2.256-2.373L561,362.65L563.256,365.023z M563.256,359.01L561,361.384
	l-2.256-2.374l2.256-2.372L563.256,359.01z M563.256,352.997L561,355.37l-2.256-2.373l2.256-2.373L563.256,352.997z
	 M563.256,346.983L561,349.356l-2.256-2.373l2.256-2.372L563.256,346.983z M563.256,340.971L561,343.344l-2.256-2.373l2.256-2.373
	L563.256,340.971z M563.256,334.957L561,337.33l-2.256-2.373l2.256-2.372L563.256,334.957z M563.256,328.943L561,331.317
	l-2.256-2.374l2.256-2.372L563.256,328.943z M563.256,322.931L561,325.304l-2.256-2.373l2.256-2.372L563.256,322.931z
	 M563.256,316.917L561,319.291l-2.256-2.374l2.256-2.372L563.256,316.917z M563.256,310.904L561,313.277l-2.256-2.373l2.256-2.373
	L563.256,310.904z M563.256,304.891L561,307.265l-2.256-2.374l2.256-2.372L563.256,304.891z M563.256,298.878L561,301.251
	l-2.256-2.373l2.256-2.373L563.256,298.878z M563.256,292.864L561,295.237l-2.256-2.373l2.256-2.372L563.256,292.864z
	 M563.256,286.852L561,289.225l-2.256-2.373l2.256-2.373L563.256,286.852z M563.256,280.838L561,283.211l-2.256-2.373l2.256-2.372
	L563.256,280.838z M563.256,274.824L561,277.198l-2.256-2.374l2.256-2.372L563.256,274.824z M563.256,268.812L561,271.185
	l-2.256-2.373l2.256-2.372L563.256,268.812z M563.256,262.798L561,265.172l-2.256-2.374l2.256-2.372L563.256,262.798z
	 M563.256,256.785L561,259.158l-2.256-2.373l2.256-2.372L563.256,256.785z M563.256,250.771L561,253.146l-2.256-2.374l2.256-2.372
	L563.256,250.771z M563.256,244.759L561,247.132l-2.256-2.373l2.256-2.373L563.256,244.759z M563.256,238.745L561,241.119
	l-2.256-2.374l2.256-2.372L563.256,238.745z M563.256,232.732L561,235.105l-2.256-2.373l2.256-2.373L563.256,232.732z
	 M563.256,226.719L561,229.093l-2.256-2.374l2.256-2.372L563.256,226.719z M563.256,220.706L561,223.079l-2.256-2.373l2.256-2.373
	L563.256,220.706z M563.256,214.692L561,217.065l-2.256-2.373L561,212.32L563.256,214.692z M563.256,208.68L561,211.053
	l-2.256-2.373l2.256-2.373L563.256,208.68z M563.256,202.666L561,205.039l-2.256-2.373l2.256-2.372L563.256,202.666z
	 M563.256,196.652L561,199.026l-2.256-2.374L561,194.28L563.256,196.652z M563.256,190.64L561,193.013l-2.256-2.373l2.256-2.372
	L563.256,190.64z M563.256,184.627L561,187l-2.256-2.373l2.256-2.373L563.256,184.627z M563.256,178.613L561,180.986l-2.256-2.373
	l2.256-2.372L563.256,178.613z M563.256,172.6L561,174.974l-2.256-2.374l2.256-2.372L563.256,172.6z M563.256,166.587L561,168.96
	l-2.256-2.373l2.256-2.373L563.256,166.587z M563.256,160.573L561,162.947l-2.256-2.374l2.256-2.372L563.256,160.573z
	 M563.256,154.561L561,156.934l-2.256-2.373l2.256-2.373L563.256,154.561z M563.256,148.547L561,150.921l-2.256-2.374l2.256-2.372
	L563.256,148.547z M563.256,142.534L561,144.907l-2.256-2.373l2.256-2.373L563.256,142.534z M563.256,136.521L561,138.894
	l-2.256-2.373l2.256-2.372L563.256,136.521z M563.256,130.508L561,132.881l-2.256-2.373l2.256-2.373L563.256,130.508z
	 M563.256,124.494L561,126.867l-2.256-2.373l2.256-2.372L563.256,124.494z M563.256,118.48L561,120.854l-2.256-2.374l2.256-2.372
	L563.256,118.48z M563.256,112.468L561,114.841l-2.256-2.373l2.256-2.372L563.256,112.468z M563.256,106.454L561,108.828
	l-2.256-2.374l2.256-2.372L563.256,106.454z M563.256,100.441L561,102.814l-2.256-2.373L561,98.068L563.256,100.441z
	 M563.256,94.428L561,96.802l-2.256-2.374L561,92.056L563.256,94.428z M563.256,88.415L561,90.788l-2.256-2.373L561,86.042
	L563.256,88.415z M563.256,82.401L561,84.774l-2.256-2.373L561,80.029L563.256,82.401z M563.256,76.389L561,78.762l-2.256-2.373
	L561,74.016L563.256,76.389z M563.256,70.375L561,72.748l-2.256-2.373L561,68.003L563.256,70.375z M563.256,64.361L561,66.735
	l-2.256-2.374L561,61.989L563.256,64.361z M563.256,58.349L561,60.722l-2.256-2.373L561,55.977L563.256,58.349z M563.256,52.336
	L561,54.709l-2.256-2.373L561,49.963L563.256,52.336z M563.256,46.322L561,48.695l-2.256-2.373L561,43.95L563.256,46.322z
	 M563.256,40.309L561,42.683l-2.256-2.374L561,37.937L563.256,40.309z M563.256,34.296L561,36.669l-2.256-2.373L561,31.923
	L563.256,34.296z M563.256,28.282L561,30.656l-2.256-2.374L561,25.91L563.256,28.282z M563.256,22.27L561,24.643l-2.256-2.373
	L561,19.896L563.256,22.27z M563.256,16.256L561,18.63l-2.256-2.374L561,13.884L563.256,16.256z M563.256,10.243L561,12.616
	l-2.256-2.373L561,7.87L563.256,10.243z M561.991,4.335l-1.268,2.419l-2.64-0.701l1.268-2.42L561.991,4.335z M5.256,736.614
	L3,738.986l-2.255-2.372L3,734.241L5.256,736.614z M5.256,730.601L3,732.973l-2.255-2.372L3,728.228L5.256,730.601z M5.256,724.587
	L3,726.959l-2.255-2.372L3,722.214L5.256,724.587z M5.256,718.575L3,720.947l-2.255-2.372L3,716.202L5.256,718.575z M5.256,712.561
	L3,714.933l-2.255-2.372L3,710.188L5.256,712.561z M5.256,706.548L3,708.92l-2.255-2.372L3,704.175L5.256,706.548z M5.256,700.535
	L3,702.907l-2.255-2.372L3,698.162L5.256,700.535z M5.256,694.521L3,696.893l-2.255-2.372L3,692.149L5.256,694.521z M5.256,688.508
	L3,690.88l-2.255-2.372L3,686.135L5.256,688.508z M5.256,682.495L3,684.867l-2.255-2.372L3,680.122L5.256,682.495z M5.256,676.482
	L3,678.854l-2.255-2.372L3,674.109L5.256,676.482z M5.256,670.468L3,672.84l-2.255-2.372L3,668.095L5.256,670.468z M5.256,664.456
	L3,666.828l-2.255-2.372L3,662.083L5.256,664.456z M5.256,658.442L3,660.814l-2.255-2.372L3,656.069L5.256,658.442z M5.256,652.429
	L3,654.801l-2.255-2.372L3,650.056L5.256,652.429z M5.256,646.416L3,648.788l-2.255-2.372L3,644.042L5.256,646.416z M5.256,640.403
	L3,642.775l-2.255-2.372L3,638.03L5.256,640.403z M5.256,634.389L3,636.761l-2.255-2.372L3,632.016L5.256,634.389z M5.256,628.375
	L3,630.748l-2.255-2.372L3,626.003L5.256,628.375z M5.256,622.363L3,624.735l-2.255-2.372L3,619.99L5.256,622.363z M5.256,616.349
	L3,618.721l-2.255-2.372L3,613.977L5.256,616.349z M5.256,610.336L3,612.708l-2.255-2.372L3,607.963L5.256,610.336z M5.256,604.323
	L3,606.695l-2.255-2.372L3,601.95L5.256,604.323z M5.256,598.31L3,600.682l-2.255-2.372L3,595.937L5.256,598.31z M5.256,592.296
	L3,594.668l-2.255-2.372L3,589.923L5.256,592.296z M5.256,586.284L3,588.656l-2.255-2.372L3,583.911L5.256,586.284z M5.256,580.27
	L3,582.642l-2.255-2.372L3,577.897L5.256,580.27z M5.256,574.257L3,576.629l-2.255-2.372L3,571.884L5.256,574.257z M5.256,568.244
	L3,570.616l-2.255-2.372L3,565.871L5.256,568.244z M5.256,562.231L3,564.603l-2.255-2.372L3,559.858L5.256,562.231z M5.256,556.217
	L3,558.589l-2.255-2.372L3,553.844L5.256,556.217z M5.256,550.204L3,552.576l-2.255-2.372L3,547.832L5.256,550.204z M5.256,544.191
	L3,546.563l-2.255-2.372L3,541.818L5.256,544.191z M5.256,538.177L3,540.549l-2.255-2.372L3,535.805L5.256,538.177z M5.256,532.165
	L3,534.537l-2.255-2.372L3,529.792L5.256,532.165z M5.256,526.151L3,528.523l-2.255-2.372L3,523.778L5.256,526.151z M5.256,520.138
	L3,522.51l-2.255-2.372L3,517.765L5.256,520.138z M5.256,514.125L3,516.497l-2.255-2.372L3,511.751L5.256,514.125z M5.256,508.112
	L3,510.484l-2.255-2.372L3,505.739L5.256,508.112z M5.256,502.098L3,504.47l-2.255-2.372L3,499.725L5.256,502.098z M5.256,496.085
	L3,498.458l-2.255-2.372L3,493.712L5.256,496.085z M5.256,490.072L3,492.444l-2.255-2.372L3,487.699L5.256,490.072z M5.256,484.058
	L3,486.43l-2.255-2.372L3,481.686L5.256,484.058z M5.256,478.045L3,480.417l-2.255-2.372L3,475.672L5.256,478.045z M5.256,472.032
	L3,474.404l-2.255-2.372L3,469.66L5.256,472.032z M5.256,466.019L3,468.391l-2.255-2.372L3,463.646L5.256,466.019z M5.256,460.005
	L3,462.377l-2.255-2.372L3,457.632L5.256,460.005z M5.256,453.993L3,456.365l-2.255-2.372L3,451.62L5.256,453.993z M5.256,447.979
	L3,450.351l-2.255-2.372L3,445.606L5.256,447.979z M5.256,441.966L3,444.338l-2.255-2.372L3,439.593L5.256,441.966z M5.256,435.953
	L3,438.325l-2.255-2.372L3,433.58L5.256,435.953z M5.256,429.94L3,432.312l-2.255-2.372L3,427.567L5.256,429.94z M5.256,423.926
	L3,426.298l-2.255-2.372L3,421.553L5.256,423.926z M5.256,417.914L3,420.286l-2.255-2.372L3,415.541L5.256,417.914z M5.256,411.9
	L3,414.272L0.745,411.9L3,409.527L5.256,411.9z M5.256,405.886L3,408.258l-2.255-2.372L3,403.514L5.256,405.886z M5.256,399.874
	L3,402.246l-2.255-2.372L3,397.5L5.256,399.874z M5.256,393.86L3,396.232l-2.255-2.372L3,391.487L5.256,393.86z M5.256,387.847
	L3,390.219l-2.255-2.372L3,385.474L5.256,387.847z M5.256,381.833L3,384.206l-2.255-2.372L3,379.46L5.256,381.833z M5.256,375.821
	L3,378.193l-2.255-2.372L3,373.448L5.256,375.821z M5.256,369.807L3,372.179l-2.255-2.373L3,367.434L5.256,369.807z M5.256,363.794
	L3,366.166l-2.255-2.372L3,361.421L5.256,363.794z M5.256,357.78L3,360.153l-2.255-2.373L3,355.407L5.256,357.78z M5.256,351.768
	L3,354.14l-2.255-2.372L3,349.394L5.256,351.768z M5.256,345.754L3,348.127l-2.255-2.373L3,343.381L5.256,345.754z M5.256,339.741
	L3,342.113l-2.255-2.372L3,337.367L5.256,339.741z M5.256,333.728L3,336.101l-2.255-2.373L3,331.354L5.256,333.728z M5.256,327.715
	L3,330.087l-2.255-2.372L3,325.341L5.256,327.715z M5.256,321.701L3,324.073l-2.255-2.372L3,319.328L5.256,321.701z M5.256,315.688
	L3,318.061l-2.255-2.372L3,313.314L5.256,315.688z M5.256,309.675L3,312.047l-2.255-2.372L3,307.302L5.256,309.675z M5.256,303.662
	L3,306.034l-2.255-2.372L3,301.288L5.256,303.662z M5.256,297.648L3,300.021l-2.255-2.372L3,295.275L5.256,297.648z M5.256,291.635
	L3,294.008l-2.255-2.373L3,289.262L5.256,291.635z M5.256,285.622L3,287.994l-2.255-2.372L3,283.248L5.256,285.622z M5.256,279.608
	L3,281.981l-2.255-2.373L3,277.235L5.256,279.608z M5.256,273.596L3,275.968l-2.255-2.372L3,271.222L5.256,273.596z M5.256,267.582
	L3,269.955l-2.255-2.373L3,265.209L5.256,267.582z M5.256,261.569L3,263.941l-2.255-2.372L3,259.195L5.256,261.569z M5.256,255.556
	L3,257.928l-2.255-2.372L3,253.183L5.256,255.556z M5.256,249.543L3,251.915l-2.255-2.372L3,247.169L5.256,249.543z M5.256,243.529
	L3,245.901l-2.255-2.372L3,241.156L5.256,243.529z M5.256,237.516L3,239.889l-2.255-2.373L3,235.143L5.256,237.516z M5.256,231.503
	L3,233.875l-2.255-2.372L3,229.13L5.256,231.503z M5.256,225.489L3,227.862l-2.255-2.373L3,223.116L5.256,225.489z M5.256,219.477
	L3,221.849l-2.255-2.372L3,217.103L5.256,219.477z M5.256,213.463L3,215.836l-2.255-2.373L3,211.09L5.256,213.463z M5.256,207.45
	L3,209.822l-2.255-2.372L3,205.076L5.256,207.45z M5.256,201.437L3,203.81l-2.255-2.373L3,199.063L5.256,201.437z M5.256,195.424
	L3,197.796l-2.255-2.372L3,193.05L5.256,195.424z M5.256,189.41L3,191.783l-2.255-2.373L3,187.037L5.256,189.41z M5.256,183.397
	L3,185.77l-2.255-2.372L3,181.023L5.256,183.397z M5.256,177.384L3,179.756l-2.255-2.372L3,175.011L5.256,177.384z M5.256,171.371
	L3,173.743l-2.255-2.372L3,168.997L5.256,171.371z M5.256,165.357L3,167.729l-2.255-2.372L3,162.984L5.256,165.357z M5.256,159.344
	L3,161.717l-2.255-2.373L3,156.971L5.256,159.344z M5.256,153.331L3,155.703l-2.255-2.372L3,150.958L5.256,153.331z M5.256,147.317
	L3,149.69l-2.255-2.373L3,144.944L5.256,147.317z M5.256,141.305L3,143.677l-2.255-2.372L3,138.931L5.256,141.305z M5.256,135.291
	L3,137.664l-2.255-2.373L3,132.918L5.256,135.291z M5.256,129.278L3,131.65l-2.255-2.372L3,126.904L5.256,129.278z M5.256,123.265
	L3,125.638l-2.255-2.373L3,120.892L5.256,123.265z M5.256,117.252L3,119.624l-2.255-2.372L3,114.878L5.256,117.252z M5.256,111.238
	L3,113.61l-2.255-2.372L3,108.865L5.256,111.238z M5.256,105.225L3,107.598l-2.255-2.373L3,102.852L5.256,105.225z M5.256,99.212
	L3,101.584l-2.255-2.372L3,96.839L5.256,99.212z M5.256,93.199L3,95.571l-2.255-2.372L3,90.825L5.256,93.199z M5.256,87.186
	L3,89.558l-2.255-2.372L3,84.813L5.256,87.186z M5.256,81.172L3,83.545l-2.255-2.373L3,78.799L5.256,81.172z M5.256,75.159L3,77.531
	l-2.255-2.372L3,72.785L5.256,75.159z M5.256,69.146L3,71.519l-2.255-2.373L3,66.772L5.256,69.146z M5.256,63.133L3,65.505
	l-2.255-2.372L3,60.759L5.256,63.133z M5.256,57.119L3,59.492l-2.255-2.373L3,54.746L5.256,57.119z M5.256,51.106L3,53.479
	l-2.255-2.372L3,48.732L5.256,51.106z M5.256,45.093L3,47.466l-2.255-2.373L3,42.72L5.256,45.093z M5.256,39.08L3,41.452
	L0.745,39.08L3,36.706L5.256,39.08z M5.256,33.066L3,35.438l-2.255-2.372L3,30.693L5.256,33.066z M5.256,27.053L3,29.426
	l-2.255-2.373L3,24.68L5.256,27.053z M5.256,21.04L3,23.412L0.745,21.04L3,18.667L5.256,21.04z M5.256,15.026L3,17.399l-2.255-2.373
	L3,12.653L5.256,15.026z M5.256,9.014L3,11.386L0.745,9.014L3,6.64L5.256,9.014z M6.061,6.061l-2.584-0.38L3.097,3.097l2.584,0.38
	L6.061,6.061z M6.641,3l2.372-2.256L11.386,3L9.013,5.256L6.641,3z M12.655,3l2.372-2.256L17.399,3l-2.373,2.256L12.655,3z
	 M558.59,3l-2.373,2.256L553.844,3l2.373-2.256L558.59,3z M552.577,3l-2.373,2.256L547.832,3l2.372-2.256L552.577,3z M546.564,3
	l-2.374,2.256L541.818,3l2.372-2.256L546.564,3z M540.55,3l-2.373,2.256L535.805,3l2.372-2.256L540.55,3z M534.538,3l-2.374,2.256
	L529.792,3l2.372-2.256L534.538,3z M528.524,3l-2.373,2.256L523.779,3l2.372-2.256L528.524,3z M522.511,3l-2.374,2.256L517.765,3
	l2.372-2.256L522.511,3z M516.498,3l-2.373,2.256L511.751,3l2.373-2.256L516.498,3z M510.485,3l-2.374,2.256L505.739,3l2.372-2.256
	L510.485,3z M504.471,3l-2.373,2.256L499.725,3l2.373-2.256L504.471,3z M498.458,3l-2.373,2.256L493.712,3l2.372-2.256L498.458,3z
	 M492.445,3l-2.373,2.256L487.699,3l2.373-2.256L492.445,3z M486.431,3l-2.373,2.256L481.686,3l2.372-2.256L486.431,3z M480.418,3
	l-2.373,2.256L475.672,3l2.373-2.256L480.418,3z M474.405,3l-2.373,2.256L469.66,3l2.372-2.256L474.405,3z M468.392,3l-2.374,2.256
	L463.646,3l2.372-2.256L468.392,3z M462.378,3l-2.373,2.256L457.633,3l2.372-2.256L462.378,3z M456.366,3l-2.374,2.256L451.62,3
	l2.372-2.256L456.366,3z M450.352,3l-2.373,2.256L445.606,3l2.373-2.256L450.352,3z M444.339,3l-2.374,2.256L439.593,3l2.372-2.256
	L444.339,3z M438.326,3l-2.373,2.256L433.58,3l2.373-2.256L438.326,3z M432.313,3l-2.374,2.256L427.567,3l2.372-2.256L432.313,3z
	 M426.299,3l-2.373,2.256L421.553,3l2.373-2.256L426.299,3z M420.286,3l-2.373,2.256L415.541,3l2.372-2.256L420.286,3z M414.273,3
	L411.9,5.256L409.527,3l2.373-2.256L414.273,3z M408.259,3l-2.373,2.256L403.514,3l2.372-2.256L408.259,3z M402.247,3l-2.374,2.256
	L397.5,3l2.372-2.256L402.247,3z M396.233,3l-2.373,2.256L391.488,3l2.372-2.256L396.233,3z M390.22,3l-2.374,2.256L385.474,3
	l2.372-2.256L390.22,3z M384.207,3l-2.373,2.256L379.461,3l2.372-2.256L384.207,3z M378.194,3l-2.374,2.256L373.448,3l2.372-2.256
	L378.194,3z M372.18,3l-2.373,2.256L367.434,3l2.373-2.256L372.18,3z M366.167,3l-2.374,2.256L361.421,3l2.372-2.256L366.167,3z
	 M360.154,3l-2.373,2.256L355.408,3l2.373-2.256L360.154,3z M354.14,3l-2.373,2.256L349.395,3l2.372-2.256L354.14,3z M348.127,3
	l-2.373,2.256L343.381,3l2.373-2.256L348.127,3z M342.114,3l-2.373,2.256L337.369,3l2.372-2.256L342.114,3z M336.101,3l-2.373,2.256
	L331.355,3l2.373-2.256L336.101,3z M330.087,3l-2.373,2.256L325.342,3l2.372-2.256L330.087,3z M324.075,3l-2.374,2.256L319.329,3
	l2.372-2.256L324.075,3z M318.061,3l-2.373,2.256L313.316,3l2.372-2.256L318.061,3z M312.048,3l-2.374,2.256L307.302,3l2.372-2.256
	L312.048,3z M306.035,3l-2.373,2.256L301.289,3l2.373-2.256L306.035,3z M300.022,3l-2.374,2.256L295.276,3l2.372-2.256L300.022,3z
	 M294.008,3l-2.373,2.256L289.262,3l2.373-2.256L294.008,3z M287.996,3l-2.374,2.256L283.25,3l2.372-2.256L287.996,3z M281.981,3
	l-2.373,2.256L277.236,3l2.372-2.256L281.981,3z M275.968,3l-2.373,2.256L271.223,3l2.372-2.256L275.968,3z M269.955,3l-2.373,2.256
	L265.21,3l2.372-2.256L269.955,3z M263.942,3l-2.373,2.256L259.197,3l2.372-2.256L263.942,3z M257.929,3l-2.373,2.256L253.184,3
	l2.372-2.256L257.929,3z M251.915,3l-2.373,2.256L247.17,3l2.372-2.256L251.915,3z M245.902,3l-2.373,2.256L241.157,3l2.372-2.256
	L245.902,3z M239.889,3l-2.373,2.256L235.144,3l2.372-2.256L239.889,3z M233.875,3l-2.373,2.256L229.131,3l2.372-2.256L233.875,3z
	 M227.862,3l-2.373,2.256L223.118,3l2.372-2.256L227.862,3z M221.849,3l-2.373,2.256L217.104,3l2.372-2.256L221.849,3z M215.836,3
	l-2.373,2.256L211.091,3l2.372-2.256L215.836,3z M209.823,3l-2.373,2.256L205.078,3l2.372-2.256L209.823,3z M203.81,3l-2.373,2.256
	L199.064,3l2.372-2.256L203.81,3z M197.796,3l-2.373,2.256L193.051,3l2.372-2.256L197.796,3z M191.783,3l-2.373,2.256L187.038,3
	l2.372-2.256L191.783,3z M185.77,3l-2.373,2.256L181.025,3l2.372-2.256L185.77,3z M179.757,3l-2.373,2.256L175.012,3l2.372-2.256
	L179.757,3z M173.743,3l-2.373,2.256L168.999,3l2.372-2.256L173.743,3z M167.73,3l-2.373,2.256L162.985,3l2.372-2.256L167.73,3z
	 M161.717,3l-2.373,2.256L156.972,3l2.372-2.256L161.717,3z M155.704,3l-2.373,2.256L150.958,3l2.372-2.256L155.704,3z M149.69,3
	l-2.373,2.256L144.945,3l2.372-2.256L149.69,3z M143.677,3l-2.373,2.256L138.932,3l2.372-2.256L143.677,3z M137.664,3l-2.373,2.256
	L132.919,3l2.372-2.256L137.664,3z M131.651,3l-2.373,2.256L126.906,3l2.372-2.256L131.651,3z M125.638,3l-2.373,2.256L120.893,3
	l2.372-2.256L125.638,3z M119.625,3l-2.373,2.256L114.879,3l2.372-2.256L119.625,3z M113.611,3l-2.373,2.256L108.866,3l2.372-2.256
	L113.611,3z M107.598,3l-2.373,2.256L102.853,3l2.372-2.256L107.598,3z M101.584,3l-2.373,2.256L96.84,3l2.372-2.256L101.584,3z
	 M95.571,3l-2.373,2.256L90.827,3l2.372-2.256L95.571,3z M89.558,3l-2.373,2.256L84.813,3l2.372-2.256L89.558,3z M83.545,3
	l-2.373,2.256L78.8,3l2.372-2.256L83.545,3z M77.532,3l-2.373,2.256L72.787,3l2.372-2.256L77.532,3z M71.519,3l-2.373,2.256
	L66.774,3l2.372-2.256L71.519,3z M65.505,3l-2.373,2.256L60.76,3l2.372-2.256L65.505,3z M59.492,3l-2.373,2.256L54.747,3
	l2.372-2.256L59.492,3z M53.479,3l-2.373,2.256L48.734,3l2.372-2.256L53.479,3z M47.466,3l-2.373,2.256L42.721,3l2.372-2.256
	L47.466,3z M41.452,3L39.08,5.256L36.708,3l2.372-2.256L41.452,3z M35.439,3l-2.373,2.256L30.694,3l2.372-2.256L35.439,3z M29.426,3
	l-2.373,2.256L24.681,3l2.372-2.256L29.426,3z M23.413,3L21.04,5.256L18.668,3l2.372-2.256L23.413,3z"/>
</svg>
