<?xml version="1.0" encoding="utf-8"?>
<!-- Generator: Adobe Illustrator 14.0.0, SVG Export Plug-In . SVG Version: 6.00 Build 43363)  -->
<!DOCTYPE svg PUBLIC "-//W3C//DTD SVG 1.1//EN" "http://www.w3.org/Graphics/SVG/1.1/DTD/svg11.dtd">
<svg version="1.1" id="Nouveau_x5F_21_xA0_Image_1_"
	 xmlns="http://www.w3.org/2000/svg" xmlns:xlink="http://www.w3.org/1999/xlink" x="0px" y="0px" width="729px" height="969px"
	 viewBox="0 0 729 969" style="enable-background:new 0 0 729 969;" xml:space="preserve">
<style type="text/css">
<![CDATA[
	.st0{fill-rule:evenodd;clip-rule:evenodd;fill:none;stroke:#000000;stroke-width:1.7321;stroke-linecap:round;}
	.st1{fill-rule:evenodd;clip-rule:evenodd;fill:none;stroke:#000000;stroke-width:3.0732;stroke-linecap:round;}
	.st2{fill-rule:evenodd;clip-rule:evenodd;fill:none;stroke:#000000;stroke-width:3.0938;stroke-linecap:round;}
	.st3{fill-rule:evenodd;clip-rule:evenodd;fill:none;stroke:#000000;stroke-width:2.0702;stroke-linecap:round;}
	.st4{fill-rule:evenodd;clip-rule:evenodd;fill:none;stroke:#000000;stroke-width:2.1909;stroke-linecap:round;}
	.st5{fill-rule:evenodd;clip-rule:evenodd;fill:none;stroke:#000000;stroke-width:3.3166;stroke-linecap:round;}
	.st6{fill-rule:evenodd;clip-rule:evenodd;fill:none;stroke:#000000;stroke-width:1.2715;stroke-linecap:round;}
	.st7{fill-rule:evenodd;clip-rule:evenodd;fill:none;stroke:#000000;stroke-width:2.1794;stroke-linecap:round;}
	.st8{fill-rule:evenodd;clip-rule:evenodd;fill:none;stroke:#000000;stroke-width:2.7332;stroke-linecap:round;}
	.st9{fill-rule:evenodd;clip-rule:evenodd;fill:none;stroke:#000000;stroke-width:2.8445;stroke-linecap:round;}
	.st10{fill-rule:evenodd;clip-rule:evenodd;fill:none;stroke:#000000;stroke-width:1.5275;stroke-linecap:round;}
	.st11{fill-rule:evenodd;clip-rule:evenodd;fill:none;stroke:#000000;stroke-width:3;stroke-linecap:round;}
	.st12{fill-rule:evenodd;clip-rule:evenodd;fill:none;stroke:#000000;stroke-width:2.7673;stroke-linecap:round;}
	.st13{fill-rule:evenodd;clip-rule:evenodd;fill:none;stroke:#000000;stroke-width:2.0917;stroke-linecap:round;}
	.st14{fill-rule:evenodd;clip-rule:evenodd;fill:none;stroke:#000000;stroke-width:2.8983;stroke-linecap:round;}
	.st15{fill-rule:evenodd;clip-rule:evenodd;fill:none;stroke:#000000;stroke-width:1.5584;stroke-linecap:round;}
	.st16{fill-rule:evenodd;clip-rule:evenodd;fill:none;stroke:#000000;stroke-width:2.7588;stroke-linecap:round;}
	.st17{fill-rule:evenodd;clip-rule:evenodd;fill:none;stroke:#000000;stroke-width:2.7815;stroke-linecap:round;}
	.st18{fill-rule:evenodd;clip-rule:evenodd;fill:none;stroke:#000000;stroke-width:3.1535;stroke-linecap:round;}
	.st19{fill-rule:evenodd;clip-rule:evenodd;fill:none;stroke:#000000;stroke-width:2.6349;stroke-linecap:round;}
	.st20{fill-rule:evenodd;clip-rule:evenodd;fill:none;stroke:#000000;stroke-width:2.6161;stroke-linecap:round;}
	.st21{fill-rule:evenodd;clip-rule:evenodd;fill:none;stroke:#000000;stroke-width:2.8284;stroke-linecap:round;}
	.st22{fill-rule:evenodd;clip-rule:evenodd;fill:none;stroke:#000000;stroke-width:1.6871;stroke-linecap:round;}
	.st23{fill-rule:evenodd;clip-rule:evenodd;fill:none;stroke:#000000;stroke-width:3.0472;stroke-linecap:round;}
	.st24{fill-rule:evenodd;clip-rule:evenodd;fill:none;stroke:#000000;stroke-width:2.2485;stroke-linecap:round;}
	.st25{fill-rule:evenodd;clip-rule:evenodd;fill:none;stroke:#000000;stroke-width:2.22;stroke-linecap:round;}
	.st26{fill-rule:evenodd;clip-rule:evenodd;fill:none;stroke:#000000;stroke-width:2.1381;stroke-linecap:round;}
	.st27{fill-rule:evenodd;clip-rule:evenodd;fill:none;stroke:#000000;stroke-width:3.2375;stroke-linecap:round;}
	.st28{fill-rule:evenodd;clip-rule:evenodd;fill:none;stroke:#000000;stroke-width:1.4434;stroke-linecap:round;}
	.st29{fill-rule:evenodd;clip-rule:evenodd;fill:none;stroke:#000000;stroke-width:3.3912;stroke-linecap:round;}
	.st30{fill-rule:evenodd;clip-rule:evenodd;fill:none;stroke:#000000;stroke-width:2.3355;stroke-linecap:round;}
	.st31{fill-rule:evenodd;clip-rule:evenodd;fill:none;stroke:#000000;stroke-width:2.5249;stroke-linecap:round;}
	.st32{fill-rule:evenodd;clip-rule:evenodd;fill:none;stroke:#000000;stroke-width:2;stroke-linecap:round;}
	.st33{fill-rule:evenodd;clip-rule:evenodd;fill:none;stroke:#000000;stroke-width:2.3664;stroke-linecap:round;}
	.st34{fill-rule:evenodd;clip-rule:evenodd;fill:none;stroke:#000000;stroke-width:3.1225;stroke-linecap:round;}
	.st35{fill-rule:evenodd;clip-rule:evenodd;fill:none;stroke:#000000;stroke-width:2.8753;stroke-linecap:round;}
	.st36{fill-rule:evenodd;clip-rule:evenodd;fill:none;stroke:#000000;stroke-width:2.2913;stroke-linecap:round;}
	.st37{fill-rule:evenodd;clip-rule:evenodd;fill:none;stroke:#000000;stroke-width:1.4832;stroke-linecap:round;}
	.st38{fill-rule:evenodd;clip-rule:evenodd;fill:none;stroke:#000000;stroke-width:3.266;stroke-linecap:round;}
	.st39{fill-rule:evenodd;clip-rule:evenodd;fill:none;stroke:#000000;stroke-width:1.7113;stroke-linecap:round;}
	.st40{fill-rule:evenodd;clip-rule:evenodd;fill:none;stroke:#000000;stroke-width:2.1985;stroke-linecap:round;}
	.st41{fill-rule:evenodd;clip-rule:evenodd;fill:none;stroke:#000000;stroke-width:1.5986;stroke-linecap:round;}
	.st42{fill-rule:evenodd;clip-rule:evenodd;fill:none;stroke:#000000;stroke-width:1.9868;stroke-linecap:round;}
	.st43{fill-rule:evenodd;clip-rule:evenodd;fill:none;stroke:#000000;stroke-width:2.8604;stroke-linecap:round;}
	.st44{fill-rule:evenodd;clip-rule:evenodd;fill:none;stroke:#000000;stroke-width:3.087;stroke-linecap:round;}
	.st45{fill-rule:evenodd;clip-rule:evenodd;fill:none;stroke:#000000;stroke-width:2.1213;stroke-linecap:round;}
	.st46{fill-rule:evenodd;clip-rule:evenodd;fill:none;stroke:#000000;stroke-width:3.1623;stroke-linecap:round;}
	.st47{fill-rule:evenodd;clip-rule:evenodd;fill:none;stroke:#000000;stroke-width:3.0551;stroke-linecap:round;}
	.st48{fill-rule:evenodd;clip-rule:evenodd;fill:none;stroke:#000000;stroke-width:1.4142;stroke-linecap:round;}
	.st49{fill-rule:evenodd;clip-rule:evenodd;fill:none;stroke:#000000;stroke-width:1.2019;stroke-linecap:round;}
	.st50{fill-rule:evenodd;clip-rule:evenodd;fill:none;stroke:#000000;stroke-width:2.7653;stroke-linecap:round;}
	.st51{fill-rule:evenodd;clip-rule:evenodd;fill:none;stroke:#000000;stroke-width:2.1492;stroke-linecap:round;}
	.st52{fill-rule:evenodd;clip-rule:evenodd;fill:none;stroke:#000000;stroke-width:2.7456;stroke-linecap:round;}
	.st53{fill:#000000;fill-rule:evenodd;clip-rule:evenodd;}
	.st54{fill-rule:evenodd;clip-rule:evenodd;fill:none;stroke:#000000;stroke-width:1.8127;stroke-linecap:round;}
	.st55{fill-rule:evenodd;clip-rule:evenodd;fill:none;stroke:#000000;stroke-width:1.7678;stroke-linecap:round;}
	.st56{fill-rule:evenodd;clip-rule:evenodd;fill:none;stroke:#000000;stroke-width:5.0498;stroke-linecap:round;}
	.st57{fill-rule:evenodd;clip-rule:evenodd;fill:none;stroke:#000000;stroke-width:2.6226;stroke-linecap:round;}
	.st58{fill-rule:evenodd;clip-rule:evenodd;fill:none;stroke:#000000;stroke-width:2.6796;stroke-linecap:round;}
	.st59{fill-rule:evenodd;clip-rule:evenodd;fill:none;stroke:#000000;stroke-width:2.1602;stroke-linecap:round;}
	.st60{fill-rule:evenodd;clip-rule:evenodd;fill:none;stroke:#000000;stroke-width:2.5495;stroke-linecap:round;}
	.st61{fill-rule:evenodd;clip-rule:evenodd;fill:none;stroke:#000000;stroke-width:1.8257;stroke-linecap:round;}
	.st62{fill-rule:evenodd;clip-rule:evenodd;fill:none;stroke:#000000;stroke-width:2.7689;stroke-linecap:round;}
	.st63{fill-rule:evenodd;clip-rule:evenodd;fill:none;stroke:#000000;stroke-width:1.972;stroke-linecap:round;}
	.st64{fill-rule:evenodd;clip-rule:evenodd;fill:none;stroke:#000000;stroke-width:1.9203;stroke-linecap:round;}
	.st65{fill-rule:evenodd;clip-rule:evenodd;fill:none;stroke:#000000;stroke-width:2.43;stroke-linecap:round;}
	.st66{fill-rule:evenodd;clip-rule:evenodd;fill:none;stroke:#000000;stroke-width:2.9613;stroke-linecap:round;}
	.st67{fill-rule:evenodd;clip-rule:evenodd;fill:none;stroke:#000000;stroke-width:2.3452;stroke-linecap:round;}
	.st68{fill-rule:evenodd;clip-rule:evenodd;fill:none;stroke:#000000;stroke-width:2.0548;stroke-linecap:round;}
	.st69{fill-rule:evenodd;clip-rule:evenodd;fill:none;stroke:#000000;stroke-width:3.0823;stroke-linecap:round;}
	.st70{fill-rule:evenodd;clip-rule:evenodd;fill:none;stroke:#000000;stroke-width:1.6475;stroke-linecap:round;}
	.st71{fill-rule:evenodd;clip-rule:evenodd;fill:none;stroke:#000000;stroke-width:1.9306;stroke-linecap:round;}
	.st72{fill-rule:evenodd;clip-rule:evenodd;fill:none;stroke:#000000;stroke-width:2.2804;stroke-linecap:round;}
	.st73{fill-rule:evenodd;clip-rule:evenodd;fill:none;stroke:#000000;stroke-width:1.2403;stroke-linecap:round;}
	.st74{fill-rule:evenodd;clip-rule:evenodd;fill:none;stroke:#000000;stroke-width:2.7249;stroke-linecap:round;}
	.st75{fill-rule:evenodd;clip-rule:evenodd;fill:none;stroke:#000000;stroke-width:3.0706;stroke-linecap:round;}
	.st76{fill-rule:evenodd;clip-rule:evenodd;fill:none;stroke:#000000;stroke-width:1.5213;stroke-linecap:round;}
	.st77{fill-rule:evenodd;clip-rule:evenodd;fill:none;stroke:#000000;stroke-width:2.1679;stroke-linecap:round;}
	.st78{fill-rule:evenodd;clip-rule:evenodd;fill:none;stroke:#000000;stroke-width:1.2153;stroke-linecap:round;}
	.st79{fill-rule:evenodd;clip-rule:evenodd;fill:none;stroke:#000000;stroke-width:1.8387;stroke-linecap:round;}
	.st80{fill-rule:evenodd;clip-rule:evenodd;fill:none;stroke:#000000;stroke-width:1.5119;stroke-linecap:round;}
	.st81{fill-rule:evenodd;clip-rule:evenodd;fill:none;stroke:#000000;stroke-width:2.7203;stroke-linecap:round;}
	.st82{fill-rule:evenodd;clip-rule:evenodd;fill:none;stroke:#000000;stroke-width:1.7457;stroke-linecap:round;}
	.st83{fill-rule:evenodd;clip-rule:evenodd;fill:none;stroke:#000000;stroke-width:1.6903;stroke-linecap:round;}
	.st84{fill-rule:evenodd;clip-rule:evenodd;fill:none;stroke:#000000;stroke-width:1.7995;stroke-linecap:round;}
	.st85{fill-rule:evenodd;clip-rule:evenodd;fill:none;stroke:#000000;stroke-width:2.2361;stroke-linecap:round;}
	.st86{fill-rule:evenodd;clip-rule:evenodd;fill:none;stroke:#000000;stroke-width:2.0767;stroke-linecap:round;}
	.st87{fill-rule:evenodd;clip-rule:evenodd;fill:none;stroke:#000000;stroke-width:2.912;stroke-linecap:round;}
	.st88{fill-rule:evenodd;clip-rule:evenodd;fill:none;stroke:#000000;stroke-width:2.0412;stroke-linecap:round;}
	.st89{fill-rule:evenodd;clip-rule:evenodd;fill:none;stroke:#000000;stroke-width:3.0822;stroke-linecap:round;}
	.st90{fill-rule:evenodd;clip-rule:evenodd;fill:none;stroke:#000000;stroke-width:1.6733;stroke-linecap:round;}
	.st91{fill-rule:evenodd;clip-rule:evenodd;fill:none;stroke:#000000;stroke-width:2.2638;stroke-linecap:round;}
	.st92{fill-rule:evenodd;clip-rule:evenodd;fill:none;stroke:#000000;stroke-width:2.6458;stroke-linecap:round;}
	.st93{fill-rule:evenodd;clip-rule:evenodd;fill:none;stroke:#000000;stroke-width:3.873;stroke-linecap:round;}
	.st94{fill-rule:evenodd;clip-rule:evenodd;fill:none;stroke:#000000;stroke-width:2.1275;stroke-linecap:round;}
	.st95{fill-rule:evenodd;clip-rule:evenodd;fill:none;stroke:#000000;stroke-width:2.9465;stroke-linecap:round;}
	.st96{fill-rule:evenodd;clip-rule:evenodd;fill:none;stroke:#000000;stroke-width:3.6742;stroke-linecap:round;}
	.st97{fill-rule:evenodd;clip-rule:evenodd;fill:none;stroke:#000000;stroke-width:2.4935;stroke-linecap:round;}
	.st98{fill-rule:evenodd;clip-rule:evenodd;fill:none;stroke:#000000;stroke-width:3.0984;stroke-linecap:round;}
]]>
</style>
<g>
	<g>
		<path class="st53" d="M718,74c0.036-3.297,2.844-3.823,6-4c1.293,5.293-2.358,5.642-5,7l-0.5-1.5L718,74z"/>
		<path class="st53" d="M701.833,41.5L700,42c0.485-5.485-0.7-9.3-3-12c-3.469,0.802-3.844-1.489-7-1l0.5-1.833L689,26
			c3.473-1.861,9.87-0.796,12-4l1.167,1.5L704,23c-0.044,1.71,0.743,2.59,2,3l-0.5,1.833L707,29c-0.027,0.973-1.225,0.776-2,1
			c-1.072,3.928-0.217,9.783-2,13L701.833,41.5z"/>
		<path class="st53" d="M639.167,16.5L638,18c-1.759-0.241-2.279-1.721-2-4c1.615,0.282,1.722-0.945,3-1l0.5,1.5L641,14c0,1,0,2,0,3
			L639.167,16.5z"/>
		<path class="st53" d="M18,13c2.285-3.906,2.104-4.762,3-9c1.333,0,2.667,0,4,0l-0.5,1.833L26,7c-0.19,0.81-1.003,0.997-1,2
			c3.056-0.723,3.644,1.022,6,1l0.9,1.9L34,12l-1.5,0.5L33,14c-5.393-0.059-9.11,1.556-14,2l0.5-1.833L18,13z"/>
		<path class="st53" d="M34.5,6.167L33,5c4.326-0.046,6.004,0.025,13-1l-0.5,1.5L46,7c0.19,0.81,1.003,0.997,1,2l-1.5,1L44,11
			c-0.667,0-1.333,0-2,0l-1.5-0.5L41,12c-0.851-0.184-0.943,0.39-1,1l-1-0.5L38,13c-0.81-0.19-0.997-1.003-2-1l0.5-2.5L34,9
			c0-0.333,0-0.667,0-1L34.5,6.167z"/>
		<path class="st53" d="M57.5,5.5L57,4c2.667,0,5.333,0,8,0c2.416,2.323-1.562,2.677-2,5l-1.5-0.5L60,9c-0.807-0.86-2.739-0.594-3-2
			L57.5,5.5z"/>
		<path class="st53" d="M62.5,13.5L63,12c2.469,5.865,13.871,2.796,20,5c-2.769,8.881-19.834,9.013-32,8
			c-6.622-0.551-13.04-2.352-17-4c-0.292-0.614-2.487-3.85,0-4l1.5,0.5L36,16c1.57,0.43,0.854,3.146,4,2c0-0.333,0-0.667,0-1l1,0.5
			l1-0.5c0.804,0.529,1.624,1.043,3,1h1.667L48,19c4.53,3.156,10.29-1.014,13-3c0-1,0-2,0-3L62.5,13.5z"/>
		<path class="st53" d="M17.5,14.833L19,16c-3.46,3.127-4.962,11.548-3,17l-1.5-0.5L14,34c-0.667,0-1.333,0-2,0l0.5-1.5L11,32
			c-0.508-2.492,0.033-6.033-3-6c0,0.333,0,0.667,0,1l-1.5-0.5L5,26c-3.038-1.233,1.084-3.439,0-6c3.649,0.649,5.326-0.674,7-2
			c2.421-3.474-2.692-3.796,0-7c3.958-1.292,2.042,3.292,6,2L17.5,14.833z"/>
		<path class="st53" d="M17.5,34.5L17,33c2,0,4,0,6,0c0.356,5.644,1.229,10.771,2,16l-1.833-0.5L22,50c-0.81-0.19-0.997-1.003-2-1
			l-0.9-1.9L19,45c-0.354-1.313-1.761-1.573-2-3l1.5-0.5L18,40c3.066-0.982-1.149-2.668-1-4L17.5,34.5z"/>
		<path class="st53" d="M23.167,53.5L25,53c1.458,10.641,2.547,28.174-6,32c-1.775-7.225-0.518-17.482-6-21l1.5-0.5L14,62
			c1,0,2,0,3,0c2.854-2.146,3.272-6.728,5-10L23.167,53.5z"/>
		<path class="st53" d="M9.5,62.5L10,64c-0.729,2.032-3.009,4.083-5,2c0-3,0-6,0-9l1.5,0.5L7,56c1.25,2.083,2.449,4.217,4,6
			L9.5,62.5z"/>
		<path class="st53" d="M6.5,46.5L5,46c-1.465-5.832,3.43-5.898,1-10l1.3-1.3L8,33c0.81,0.19,0.997,1.003,2,1l1,0.5l1-0.5
			c0.013,1.987,2.729,1.271,2,4l-0.5,1l0.5,1c-1.454,0.443,0.102,0.878,0,2l-1.5,0.5L13,44c0,0.667,0,1.333,0,2l-2,0.25L12,48
			c0,0.333,0,0.667,0,1l-1-0.5L10,48c-1.313-1.2-1.573-0.39-3,0L6.5,46.5z"/>
		<path class="st53" d="M44,29c-12.928-2.928-14.508,5.492-15,15l-1.167-1.5L26,43c-0.638-5.028-0.31-11.023-3-14l0.5-1.5L23,26
			c1.44-0.56,2.44-1.56,3-3l1.5,0.5L29,23c0.851-0.184,0.943,0.39,1,1c4.106,1.228,10.529,0.138,14,2l-0.5,1.5L44,29z"/>
		<path class="st53" d="M648,6c-2.615,3.677-9.905,2-16,2C450.956,8,264.341,8,82,8c0-0.667,0-1.333,0-2
			c-0.163-1.163,0.221-1.779,1-2c182.104,1.441,366.602-1.92,550,0C637.619,4.048,643.713,2.302,648,6z"/>
		<path class="st53" d="M720,84c0.667,0,1.333,0,2,0c3.801,2.327,1.92,7.635,2,11c3.031,127.627,0,260.543,0,390
			c0,125.444,0,251.726,0,378c0,7.384,1.682,16.024-2,23c-3.789-2.226-1.925-7.821-2-11c-3.022-127.236,0-259.112,0-388
			c0-133.511,0-267.41,0-400C720,86,720,85,720,84z"/>
		<path class="st53" d="M29,926c2.705,1.962-0.61,9.943,2,12c0.721,3.612,8.205,0.462,10,3l-1.5,1.167L40,944
			c-4.018,0.648-8.254,1.08-11,3l-1.5-0.5L26,947c0-0.333,0-0.667,0-1c-0.959-1.687-3.142-2.947-5-1l-1.167-1.5L18,944c0-1,0-2,0-3
			c1.182-1.151,3.535-1.132,6-1c0.846-4.487,2.141-8.526,2-14l1.5,0.5L29,926z"/>
		<path class="st53" d="M13.5,888.5L15,889c-0.553,1.78-0.514,4.153-2,5l-1.167-1.5L10,893c-1.623-1.392-6.41,1.392-5-5
			c2.372-1.878,5.784,1.26,9-1L13.5,888.5z"/>
		<path class="st53" d="M10.214,895.357L12,895c-0.229,3.438-2.976,4.357-6,5c-1.429-3.024-0.831-5.771,3-6L10.214,895.357z"/>
		<path class="st53" d="M717,888c3.16,1.378,6.035-2.476,7,0c0.412,5.261-1.024,4.87-5,4c0,0.333,0,0.667,0,1l-1.5-0.5L716,893
			c-1.486-0.847-1.447-3.22-2-5l1.5,0.5L717,888z"/>
		<path class="st53" d="M720.5,895.833L720,894c4.25-0.917,4.271,2.396,4,6c-2.333-0.334-4.309-1.025-5-3L720.5,895.833z"/>
		<path class="st53" d="M701.833,926.5L703,925c2.155,3.178,0.245,10.422,2,14c1.334,1.666,5.666,0.334,7,2
			c-0.083,1.583,0.48,3.814-1,4l-1.5-0.5L708,945c-0.271-2.355-4.428-0.611-4,1l-1.833-0.5L701,947c-0.851,0.184-0.943-0.39-1-1
			c-6.034-2.633-16.392-0.941-23-3l1.5-1.167L678,940c12.744,0.744,25.76,1.76,22-14L701.833,926.5z"/>
		<path class="st53" d="M705,919c-2.151-10.493-1.718-27.044,3-34c1,0,2,0,3,0c2.104,5.563-0.273,15.606,4,19l-0.5,1.5l0.5,1.5
			c-4.586,1.414-6.494,5.506-7,11l-1.833-0.5L705,919z"/>
		<path class="st53" d="M720.5,906.833L720,905c1.57-0.43,0.854-3.146,4-2c0,2.667,0,5.333,0,8l-1.5-0.5L722,912
			c-1.352-0.981-1.999-2.668-3-4L720.5,906.833z"/>
		<path class="st53" d="M723.5,921.5l1.5,0.5c1.324,8.46-4.448,6.942-1,13l-1.833-0.5L721,936c-0.667,0-1.333,0-2,0l-0.5-1.5
			L717,935c-0.521-1.479-1.479-2.521-2-4l1.5-0.5L716,929c0-0.333,0-0.667,0-1l0.5-1l-0.5-1c0.973-0.027,0.775-1.225,1-2l0.5-1
			l-0.5-1c0.851,0.184,0.943-0.39,1-1l1,0.5l1,0.5c2.217,0.551,1.424-1.909,3-2L723.5,921.5z"/>
		<path class="st53" d="M723.167,942.5L725,942c0,2.333,0,4.667,0,7c-3.154,1.031-5.556-0.234-8,3c-0.101,4.406,3.347,4.097,0,7
			c-3.213,0.88-1.37-3.296-4-3c-3.448,2.002-3.835,6.133-4,9c-1,0-2,0-3,0l0.5-1.833L705,962c0-0.333,0-0.667,0-1
			c-2.492-0.841-5.357-1.309-9-1l0.5-1.5L695,958c0-0.333,0-0.667,0-1l1.833,0.5L698,956c10.697-0.97,18.821-4.512,16-19l1.5,0.5
			l0.5-1.5c0.333,0,0.667,0,1,0l0.5,1.5l1.5-0.5c0.171,2.829-0.86,6.86,2,7c-0.086-1.419-0.165-2.832,1-3L723.167,942.5z"/>
		<path class="st53" d="M694.643,963.214L695,965c-4.295-4.476-5.99,4.115-12,0l0.5-1l-0.5-1c0.282-1.615-0.945-1.722-1-3l1-1l1-1
			c1.71-0.21,2.59,1.705,3,0l1.5,0.5L688,957c0.333,0,0.667,0,1,0h1v-1c1.313,1.02,3.687,0.98,5,2l-0.5,1.5l1.5,0.5
			c0,0.667,0,1.333,0,2L694.643,963.214z"/>
		<path class="st53" d="M672.5,963.5l0.5,1.5c-3,0-6,0-9,0c-0.17-2.503,1.536-3.131,3-4l1.5,0.5l0.5-1.5
			c1.184,1.483,3.777,1.556,5,3L672.5,963.5z"/>
		<path class="st53" d="M666.5,954.5L666,956c-4.332-3.668-13.997-2.003-20-4c5.935-10.977,35.467-7.743,47-4l-1.5,1.167L692,951
			c-1.615-0.282-1.722,0.945-3,1h-1v1c-1.313-0.354-1.573-1.761-3-2h-2h-2c-4.728-3.024-11.183,0.791-13,4L666.5,954.5z"/>
		<path class="st53" d="M711.5,934.5l0.5,1.5c-1.313,1.283-3.687,1.283-5,0c-1.383-3.95-1.447-9.22-2-14l1.833,0.5L708,921
			c0.333,0,0.667,0,1,0l1.5,1.75L711,925c0.19,0.81,1.003,0.997,1,2l-0.5,1.5l0.5,1.5c-0.333,0-0.667,0-1,0
			c-0.729,2.729,1.987,2.013,2,4L711.5,934.5z"/>
		<path class="st53" d="M648,964c-4.692,3.6-10.709,1.972-16,2c-157.286,0.846-319.863,0-479,0c-23.564,0-49.353,0.825-70-1
			c-0.851,0.184-0.943-0.39-1-1c-0.163-1.162,0.221-1.779,1-2c182.115,0.74,366.587-0.986,550,0
			C637.404,962.023,645.257,960.269,648,964z"/>
		<path class="st53" d="M667,9c-1.167-1.5-2.889-2.445-3-5c3,0,6,0,9,0l-0.5,1.5L673,7c-0.981,1.352-2.668,1.999-4,3l-0.5-1.5L667,9
			z"/>
		<path class="st53" d="M683.5,5.5L683,4c7.674,1.138,8.718,0.492,14,1l-0.5,1.5L697,8c-0.851-0.184-0.943,0.39-1,1l-3.071-0.071
			L693,12c-0.81,0.19-0.997,1.003-2,1v-1h-1c-0.333,0-0.667,0-1,0l-1-0.5l-1,0.5c-0.733-1.781-1.818-0.144-3,0l-0.5-1.5L683,9
			c0-0.667,0-1.333,0-2L683.5,5.5z"/>
		<path class="st53" d="M705.9,6.1L706,4c1,0,2,0,3,0c1.046,3.104-0.579,6.716,3,9l-1.5,1.167L711,16c-6.014,0.681-7.693-2.974-14-2
			l-0.5-1.5L695,13c0-0.333,0-0.667,0-1l2.1-0.1L698,10c2.611-0.389,5.486-0.514,7-2c-0.851,0.184-0.943-0.39-1-1L705.9,6.1z"/>
		<path class="st53" d="M712.5,14.833L712,13c3.078,0.745,1.922-2.745,5-2c1.299,1.329,1.318,3.721-1,4c1.529,3.471,5.018,4.982,9,6
			c0,1.667,0,3.333,0,5l-1.833-0.5L722,27c-1.086-0.247-0.678-1.988-2-2c-0.605,2.395-1.438,4.563-1,8l-1.5-0.5L717,34
			c-0.333,0-0.667,0-1,0l0.5-2.5L714,32c0.221-6.554,0.278-12.945-3-16L712.5,14.833z"/>
		<path class="st53" d="M722.214,35.357L724,35c0.729,2.729-1.987,2.013-2,4c2.925,1.075,3.513,4.487,3,9l-1.5-0.5L723,49
			c-1.086-0.247-0.678-1.988-2-2c-0.19,0.81-1.003,0.997-1,2l-1-0.5l-1,0.5c0.184-0.851-0.39-0.943-1-1l0.5-1.5L716,46
			c0.529-0.804,1.043-1.624,1-3l0.5-1.5L716,42c0.162-1.163-0.221-1.779-1-2l0.5-1l-0.5-1c0.354-1.313,1.761-1.573,2-3l1.833,0.5
			L720,34c0.333,0,0.667,0,1,0L722.214,35.357z"/>
		<path class="st53" d="M722.5,59.5L724,59c0,2.667,0,5.333,0,8c-3.14,0.473-2.642-2.691-5-3l0.5-1.5L719,61
			c0.56-1.44,1.56-2.44,3-3L722.5,59.5z"/>
		<path class="st53" d="M713.5,63.833L715,65c-3.938,4.062-2.066,13.933-4,20c-9.746-3.259-7.3-24.026-6-35l1.167,1.5L708,51
			c0.477,5.19,2.315,9.018,6,11L713.5,63.833z"/>
		<path class="st53" d="M706.833,47.5L705,48c-0.254-5.921,1.529-9.804,2-15c1.667,0,3.333,0,5,0l-0.5,1.5L712,36
			c-0.776,0.89-1.075,2.258-1,4c0.333,0,0.667,0,1,0l-0.5,1l0.5,1c-0.529,0.804-1.043,1.624-1,3c0.667,0,1.333,0,2,0v1h1
			c-0.443,0.89-0.878,1.789-2,2l-1.786-1.071L710,49c-0.667,0-1.333,0-2,0L706.833,47.5z"/>
		<path class="st53" d="M692.5,19.833L694,21c-4.059,2.463-11.842,3.585-19,4c-11.388,0.659-26.573,0.64-29-8
			c6.007-1.993,16.311,0.311,20-4l0.5,1.5L668,14c2.327,4.006,6.042,6.625,13,6c0-0.667,0-1.333,0-2l1.5,0.5L682,17
			c0.027-0.973,1.225-0.776,2-1l-0.5,1.5L685,17c0.732,1.781,1.818,0.144,3,0v1h1c1.333,0,2.667,0,4,0L692.5,19.833z"/>
		<path class="st53" d="M13,905c4.405-3.929,5.546-11.12,5-20c1,0,2,0,3,0c5.175,6.379,6.076,21.621,4,32l-1.833-0.5L22,918
			c-2.193-4.14-2.063-10.604-8-11l0.5-1.5L13,905z"/>
		<path class="st53" d="M23.167,920.5L25,920c-0.301,5.698-1.921,10.078-2,16c-1.904,1.874-2.512,0.109-5,0l0.5-1.5L17,934
			c0.521-1.479,1.479-2.521,2-4c-0.333,0-0.667,0-1,0l0.5-1.5L17,928c0.354-1.313,1.761-1.573,2-3l-0.045-2.137L20,921
			c1.086-0.247,0.678-1.988,2-2L23.167,920.5z"/>
		<path class="st53" d="M13,938h2c0.166,5.834,0.761,11.239,3,15l-1.5,1.167L17,956c-3.417-0.75-1.271,4.063-5,3
			c-0.888-2.917-1.276-3.45,1-5c-2.317-2.962-3.277-5.739-8-4c0.339-3.101-2.315-4.777,0-7l1.5,0.5L8,944
			c3.364,0.363,1.667-4.333,3-6H13z"/>
		<path class="st53" d="M18.7,955.3L20,954c4.354,0.313,8.179,1.154,12,2v2v2c-2.829,0.171-6.86-0.86-7,2l-1.5,1.167L24,965
			c-1.333,0-2.667,0-4,0c1.739-4.723-0.88-5.841-3-9L18.7,955.3z"/>
		<path class="st53" d="M49.5,947.167L48,946c10.862-0.854,33.419-4.758,35,7c-7.642-0.309-14.627,0.039-19,3l-1.167-1.5L61,955
			c-1.617-4.383-7.036-4.964-12-6L49.5,947.167z"/>
		<path class="st53" d="M44.5,964.167L45,966c-7.409,0.443-4.851-4.217-11-1l0.5-1.833L33,962c0.19-0.81,1.003-0.997,1-2l1.5-0.5
			L35,958c1.479-0.521,2.521-1.479,4-2v1h1c0.667,0,1.333,0,2,0l-0.5,1.5L43,958c0.667,0,1.333,0,2,0l1.5,1l1.5,1
			c-0.65,1.017-2.299,1.034-2,3L44.5,964.167z"/>
		<path class="st53" d="M6.786,934.643L5,935c3.197-4.999-0.877-5.681,0-13l1.5,0.5L7,921c1.313,1.2,1.573,0.39,3,0l0.5,1.5L12,922
			l-0.5,1.5L13,923c0,1,0,2,0,3l-0.5,1.5L14,928c-0.19,0.81-1.003,0.997-1,2l-0.5,1.5L14,932c-0.354,1.313-1.761,1.573-2,3l-1.5-0.5
			L10,936c-0.667,0-1.333,0-2,0L6.786,934.643z"/>
		<path class="st53" d="M6.5,911.5L5,912c0-3,0-6,0-9c2.276-2.158,3.874,2.002,6,3l0.5,1l0.5,1c-2.507,0.826-3.163,3.503-5,5
			L6.5,911.5z"/>
		<g>
			<path class="st89" d="M717.25,79.5c0.75,0,1.5,0,2.25,0"/>
			<path class="st74" d="M717.25,79.5c-0.279,0.45-1.143,1.051-1.814,1.568c-1.041,2.601-0.713,5.066,0.521,7.338
				c-0.332,0.761-0.728,1.438-0.93,1.989c-0.561,0.817-2.058,2.252-2.779,2.521c-18.769-10.269-9.121-34.117-10.415-51.416"/>
			<path class="st35" d="M690.5,27.167c-17.318-2.258-41.916,10.051-51.333-10.667"/>
			<path class="st26" d="M650.5,12.5c0.501-1.667,0.381-3.333,1-5"/>
			<path class="st86" d="M650.5,12.5c0.281,0.115,0.563,0.23,0.843,0.346c2.884-0.354,5.831-2.212,6.157-5.346"/>
			<path class="st30" d="M650.5,12.5c-0.772,0.478-1.175,0.833-1.558,1.182c-2.704,1.279-4.651,0.338-6.417-1.587
				c-0.998,0.422-1.75,0.759-2.432,1.419c-0.198,0.329-0.396,0.657-0.594,0.985"/>
			<path class="st38" d="M717.25,79.5c-0.072-1.24,0.393-2.671,1.25-4"/>
			<path class="st27" d="M705.5,27.833c1.299-0.597,2.729-0.736,4.071-1.167c0.271-2.091-0.104-4.8-1.713-6.371
				c-0.782-0.415-3.575-0.807-4.467-0.448c-0.543,0.398-0.801,2.084-1.225,3.652"/>
			<path class="st8" d="M24.5,5.833c3.315-0.961,6.667,0.732,10,0.333"/>
			<path class="st97" d="M45.5,5.5c3.914-1.25,8.019-0.017,12,0"/>
			<path class="st13" d="M35.5,17.5c-0.363-1.994-1.673-3.521-3-5"/>
			<path class="st46" d="M19.5,14.167c-0.667,0.222-1.333,0.445-2,0.667"/>
			<path class="st33" d="M14.5,32.5c0.649,1.218,1.793,1.382,3,2"/>
			<path class="st77" d="M6.5,57.5c-0.747-3.528-0.837-7.481,0-11"/>
			<path class="st34" d="M7.3,34.7c-1.57-2.327-0.458-5.527-0.8-8.2"/>
			<path class="st91" d="M62.5,13.5c-0.501-1.667-0.381-3.333-1-5"/>
			<path class="st5" d="M31.9,11.9c1.279-1.293,2.965-1.393,4.6-2.4"/>
			<path class="st83" d="M40.5,10.5c1.871,2.704,4.415,4.698,6.167,7.5"/>
			<path class="st15" d="M46.667,18c1.885-0.061,2.522-0.978,3.833-2.5"/>
			<path class="st41" d="M50.5,15.5c-1.734-1.801-4.274-2.907-5-5.5"/>
			<path class="st51" d="M50.5,15.5c1.212-0.392,2.082-1.266,2.417-1.968C51.754,10.726,48.182,10.274,45.5,10"/>
			<path class="st48" d="M39,12.5c0.655,1.732,1.752,3.09,2,5"/>
			<path class="st59" d="M11,34.5c-0.018-0.781,0.739-1.328,1.5-2"/>
			<path class="st0" d="M13.5,39c1.943,0.295,3.18,1.894,5,2.5"/>
			<path class="st31" d="M16.167,51.167c1.93-0.385,2.057-2.674,2.934-4.066"/>
			<path class="st32" d="M19.1,47.1c-2.474-1.158-4.017-3.627-6.6-4.6"/>
			<path class="st26" d="M9.5,62.5c1.667,0.501,3.333,0.381,5,1"/>
			<path class="st2" d="M23.167,53.5c0.39-1.667,0.342-3.333,0-5"/>
			<path class="st61" d="M16.167,51.167c0.001,0.756-0.325,1.771-1.118,2.572c-0.72,0.212-1.42,0.175-2,0.092
				C11.622,52.415,11.056,50.493,11,48.5"/>
			<path class="st48" d="M16.167,51.167C14.69,49.239,13.46,46.999,11,46.25"/>
			<path class="st89" d="M9.5,79.5c1.281,0,2.048,0,3,0"/>
			<path class="st23" d="M12.5,79.5c0.022-2.399-1.4-4.371-3.2-5.8"/>
			<path class="st19" d="M12.5,79.5c2.498,1.997,3.657,5.826,1.502,8.409c-0.229,1.191,0.61,2.583,0.969,3.502
				c0.566,0.567,1.641,0.953,2.523,1.194c18.509-9.852,8.785-33.536,10.34-50.104"/>
			<path class="st20" d="M43.5,27.5c16.56-1.637,39.312,8.23,47.443-11.664c-0.758-1.709-2.212-3.875-4.336-3.807
				c-1.941,2.948-5.327,1.949-8.107,0.471"/>
			<path class="st4" d="M78.5,12.5c-0.281,0.115-0.562,0.23-0.843,0.346c-3.286-0.063-5.177-3.409-5.49-6.346"/>
			<path class="st1" d="M78.5,12.5c0-1.667,0-3.333,0-5"/>
			<path class="st23" d="M27.5,23.5c0.072-1.02-0.203-1.936-0.578-2.819c-3.467-3.348-9.154,2.354-6.772,6.065
				c0.667,0.222,1.775,0.6,3.35,0.754"/>
			<path class="st69" d="M7.5,882.5c0-265.333,0-530.667,0-796"/>
			<path class="st87" d="M39.5,942.167c17.216,2.513,42.594-9.859,51.316,11.741c-0.635,1.221-1.409,2.08-1.952,2.783
				c-0.595,0.221-1.272,0.327-1.816,0.442c-2.527-2.374-6.138-2.304-8.547,0.366"/>
			<path class="st75" d="M78.5,957.5c0,1.333,0,2.667,0,4"/>
			<path class="st25" d="M78.5,957.5c-3.383-1.746-6.081,1.954-6.333,5"/>
			<path class="st11" d="M27.5,946.5c-0.221,1.766-0.547,2.421-1.298,3.19c-2.102,0.024-4.384-0.154-5.893-1.822
				c-0.219-0.768-0.395-2.12-0.608-3.374c0.044-0.331,0.088-0.662,0.133-0.994"/>
			<path class="st47" d="M10.214,895.357c0.538-0.9,1.15-1.891,1.619-2.857"/>
			<path class="st57" d="M13.5,888.5c1.778-1.95,2.039-4.97,0.382-7.044c0.136-1.093,0.833-2.114,1.092-2.861
				c0.902-0.784,1.89-1.495,2.557-1.718c18.044,9.931,9.427,33.03,9.969,49.623"/>
			<path class="st14" d="M720.5,895.833c-1.512-0.824-2.081-1.954-3-3.333"/>
			<path class="st12" d="M678.5,941.833c-14.154-0.045-33.193-5.256-39.628,11.701c0.365,1.855,1.902,3.596,3.582,4.356
				c1.825-2.491,4.942-2.808,7.796-1.342c0.139,0.15,0.277,0.301,0.417,0.451"/>
			<path class="st3" d="M650.667,957c3.446-0.588,6.271,2.363,6.833,5.5"/>
			<path class="st60" d="M650.667,957c0.144,1.851,0.592,3.66,0.833,5.5"/>
			<path class="st58" d="M701.833,926.5c1.013-16.604-8.041-39.76,10.107-49.584c2.032,0.47,4.203,2.127,3.982,4.422
				c-2.47,1.556-1.428,4.969-0.423,7.162"/>
			<path class="st95" d="M702.167,945.5c0.268,1.705,0.439,3.489,0.979,4.25c1.838,0.273,4.274-0.248,5.579-1.686
				c0.179-0.688,0.423-1.671,0.668-2.576c0.036-0.329,0.071-0.659,0.106-0.988"/>
			<path class="st92" d="M714.5,905.5c1.945,0.631,4.037,0.716,6,1.333"/>
			<path class="st45" d="M683.5,964c-3.65-0.257-7.465,0.562-11-0.5"/>
			<path class="st71" d="M668.5,961.5c-0.626-2.353-1.36-4.658-2-7"/>
			<path class="st66" d="M691.5,949.167c4.171,0.804,2.441,6.027,5.333,8.333"/>
			<path class="st2" d="M706.833,922.5c-0.334-1.667-0.253-3.333-0.666-5"/>
			<path class="st40" d="M710.5,922.75c-0.03-1.696,0.747-3.521,2.5-4"/>
			<path class="st0" d="M713,918.75c-0.025-1.295,0.326-2.113,0.771-2.993c0.664-0.365,1.164-0.589,1.725-0.714
				c2.571,1.007,2.472,4.298,3.504,6.457"/>
			<path class="st24" d="M723.5,921.5c1.138-3.635,0.436-7.553-1-11"/>
			<path class="st37" d="M713,918.75c2.028,0.675,2.681,3.32,4.5,4.25"/>
			<path class="st72" d="M710.5,922.75c2.313,0.99,3.887,3,6,4.25"/>
			<path class="st7" d="M711.5,928.5c1.622,0.874,3.21,1.55,5,2"/>
			<path class="st88" d="M711.5,934.5c1.496,0.744,3.349,1.289,4,3"/>
			<path class="st59" d="M717.5,937.5c0.321-1,0.61-2,1-3"/>
			<path class="st9" d="M723.167,942.5c0.855-2.688-0.587-5.365-1-8"/>
			<path class="st55" d="M678.5,954.5c0.734-2.091,3.006-2.251,4.5-3.5"/>
			<path class="st49" d="M690,957c-0.619-1.741-1.351-3.265-2-5"/>
			<path class="st10" d="M683,951c1.203,2.987,3.66,4.961,5.5,7.5"/>
			<path class="st10" d="M678.5,954.5c2.119,0.652,4.473,1.996,4.5,4.5"/>
			<path class="st85" d="M678.5,954.5c-4.019,2.196,2.049,5.394,4.5,4.5"/>
			<path class="st17" d="M694.643,963.214c3.942,0.639,7.952,1.106,11.857-0.047"/>
			<path class="st85" d="M696.5,958.5c-0.667,0.333-1.333,0.667-2,1"/>
			<path class="st65" d="M672.5,5.5c3.614-0.276,7.446-1.129,11,0"/>
			<path class="st50" d="M696.5,6.5c3.032-0.46,6.401-1.705,9.4-0.4"/>
			<path class="st46" d="M710.5,14.167c0.667,0.222,1.333,0.445,2,0.667"/>
			<path class="st98" d="M706.167,51.5c0.247-1.333,0.344-2.667,0.666-4"/>
			<path class="st36" d="M711.5,34.5c2.061-0.236,3.632-1.502,5-3"/>
			<path class="st68" d="M666.5,14.5c0.479-2.095,1.503-3.902,2-6"/>
			<path class="st48" d="M683.5,10.5c-0.732,2.16-2.985,3.302-4.667,4.667"/>
			<path class="st80" d="M678.833,15.167c0.485,1.669,2.581,2.102,3.667,3.333"/>
			<path class="st6" d="M683.5,17.5c1.309-2.158,3.324-3.796,4.5-6"/>
			<path class="st78" d="M688,18c0.48-2.238,1.666-4.183,3-6"/>
			<path class="st42" d="M683.5,10.5c-0.281-0.115-0.563-0.23-0.843-0.346c-1.948,0.235-3.764,1.054-5.414,2.054
				c-0.251,0.817-0.206,1.961-0.003,2.511c0.298,0.145,0.713,0.226,1.135,0.303c0.152,0.048,0.306,0.096,0.458,0.144"/>
			<path class="st43" d="M692.5,19.833c0.434-0.211,0.867-0.421,1.302-0.632c0.906-2.24,0.809-4.823,2.698-6.701"/>
			<path class="st96" d="M697.1,11.9c-1.577-1.318-2.767-1.805-4.171-2.971"/>
			<path class="st11" d="M722.214,35.357c0.402-3.269,2.04-6.517,0.953-9.857"/>
			<path class="st70" d="M711.5,41c1.584-0.192,2.621-1.392,4-2"/>
			<path class="st21" d="M718.833,35.5c-0.525-1.281-0.902-2.048-1.333-3"/>
			<path class="st73" d="M713,46c0.99-1.958,2.805-3.224,4.5-4.5"/>
			<path class="st32" d="M710.214,46.929c0.835,2.205,1.928,2.833,2.786,3.321"/>
			<path class="st90" d="M713,50.25c2.06-0.549,2.589-2.916,4.5-3.75"/>
			<path class="st92" d="M713.5,63.833c1.963-0.661,4.072-0.6,6-1.333"/>
			<path class="st84" d="M722.5,59.5c0.447-3.941,1.806-8.105,1-12"/>
			<path class="st82" d="M713,50.25c0.033,1.516,0.396,2.749,1.044,3.559c0.388,0.116,0.872,0.148,1.36,0.176
				c2.182-0.849,2.822-3.498,3.596-5.485"/>
			<path class="st29" d="M16.5,954.167c0.693,0.253,1.431,0.644,2.2,1.133"/>
			<path class="st18" d="M32,958c2.091-2.193,3.629-4.491,3.813-7.604c1.586-1.3,3.717-1.466,5.687-1.396"/>
			<path class="st56" d="M41.5,949c1.268-0.823,2.927-0.425,4.357-0.429"/>
			<path class="st93" d="M45.857,948.571c0.88-0.392,2.406-0.977,3.643-1.404"/>
			<path class="st38" d="M60.714,962.643c0.549,0.327,1.166,0.594,1.786,0.857"/>
			<path class="st44" d="M6.5,943.5c0.142-2.946-0.314-5.953,0.286-8.857"/>
			<path class="st94" d="M6.5,922.5c-0.747-3.528-0.837-7.48,0-11"/>
			<path class="st32" d="M11.5,907c0.875-0.496,1.857-0.963,3-1.5"/>
			<path class="st39" d="M41.5,949c-0.39,2.817-0.632,5.776-2.5,8"/>
			<path class="st76" d="M46.5,951.5c-1.285,2.506-3.684,4.361-5,7"/>
			<path class="st79" d="M10.5,922.5c0.93-2.654,0.674-6.373,3.964-7.402c1.302,0.405,1.38,1.862,2.036,3.402"/>
			<path class="st92" d="M16.5,918.5c0.888,0.806,1.671,2.335,2.455,4.363"/>
			<path class="st98" d="M23.167,920.5c0.353-1.333,0.231-2.667,0-4"/>
			<path class="st28" d="M16.5,918.5c-1.681,1.707-2.835,3.834-5,5"/>
			<path class="st64" d="M18.955,922.863c-2.553,1.03-4.261,3.136-6.455,4.637"/>
			<path class="st59" d="M13,938c1.917-1.266,2.928-3.365,5.5-3.5"/>
			<path class="st63" d="M18.5,928.5c-2.432,0.127-3.818,2.223-6,3"/>
			<path class="st62" d="M13,938c-0.94-1.06-1.724-2.276-2.5-3.5"/>
			<path class="st81" d="M44.5,964.167c5.314-0.146,11.09,0.485,16.214-1.524"/>
			<path class="st52" d="M60.714,962.643c1.456-2.543,0.957-5.516,2.119-8.143"/>
			<path class="st89" d="M45.857,948.571c0.233,0.756,0.446,1.755,0.643,2.929"/>
			<path class="st54" d="M46.5,951.5c1.311,0.775,3.394,0.687,3.75,2.5"/>
			<path class="st61" d="M50.25,954c0.922,0.204,1.961,0.512,2.561,1.046c0.154,0.68,0.059,1.251-0.042,1.671
				c-1.801,1.423-3.868,2.616-6.269,2.283"/>
			<path class="st22" d="M50.25,954c-0.768,1.938-3.345,2.69-3.75,5"/>
			<path class="st16" d="M23.5,963.167c3.588,1.378,7.352,0.502,11,0"/>
			<path class="st67" d="M35.5,959.5c-1.413-0.379-2.582-0.895-3.5-1.5"/>
		</g>
	</g>
</g>
</svg>
