<?xml version="1.0" encoding="utf-8"?>
<!-- Generator: Adobe Illustrator 14.0.0, SVG Export Plug-In . SVG Version: 6.00 Build 43363)  -->
<!DOCTYPE svg PUBLIC "-//W3C//DTD SVG 1.1//EN" "http://www.w3.org/Graphics/SVG/1.1/DTD/svg11.dtd">
<svg version="1.1" id="Layer_1" xmlns="http://www.w3.org/2000/svg" xmlns:xlink="http://www.w3.org/1999/xlink" x="0px" y="0px"
	 width="593.542px" height="772.246px" viewBox="1.188 3.778 593.542 772.246"
	 style="enable-background:new 1.188 3.778 593.542 772.246;" xml:space="preserve">
<style type="text/css">
<![CDATA[
	.st0{fill:#F3C727;}
	.st1{fill:#25408F;}
	.st2{fill:none;}
]]>
</style>
<polygon class="st2" points="193.254,20.36 215.914,31.931 214.785,28.237 192.125,16.667 "/>
<polygon class="st2" points="219.794,24.039 235.25,31.931 232.997,24.559 217.541,16.667 "/>
<polygon class="st2" points="238.005,20.36 260.665,31.931 259.536,28.237 236.877,16.667 "/>
<polygon class="st2" points="25.647,351.629 29.341,352.757 17.771,330.098 14.076,328.969 "/>
<polygon class="st2" points="21.969,325.089 29.341,327.342 21.449,311.887 14.076,309.634 "/>
<polygon class="st2" points="85.541,24.039 100.996,31.931 98.743,24.559 83.288,16.667 "/>
<polygon class="st2" points="103.752,20.36 126.411,31.931 125.283,28.237 102.623,16.667 "/>
<polygon class="st2" points="130.292,24.039 145.748,31.931 143.495,24.559 128.039,16.667 "/>
<polygon class="st2" points="175.043,24.039 190.498,31.931 188.246,24.559 172.79,16.667 "/>
<polygon class="st2" points="148.503,20.36 171.162,31.931 170.034,28.237 147.375,16.667 "/>
<polygon class="st2" points="21.969,280.338 29.341,282.591 21.449,267.135 14.076,264.883 "/>
<polygon class="st2" points="25.647,306.878 29.341,308.006 17.771,285.347 14.076,284.219 "/>
<g>
	<polygon class="st2" points="22.805,153.003 26.069,154.001 15.844,133.975 12.579,132.977 	"/>
	<polygon class="st2" points="19.554,129.548 26.069,131.539 19.094,117.879 12.579,115.889 	"/>
	<polygon class="st2" points="22.805,113.453 26.069,114.45 15.844,94.424 12.579,93.427 	"/>
	<polygon class="st2" points="19.554,89.997 26.069,91.988 19.094,78.329 12.579,76.337 	"/>
	<polygon class="st2" points="52.283,18.434 72.31,28.66 71.312,25.395 51.286,15.169 	"/>
	<polygon class="st2" points="22.805,73.901 26.069,74.899 15.844,54.873 12.579,53.875 	"/>
	<polygon class="st2" points="19.554,208.65 26.069,210.641 19.094,196.981 12.579,194.99 	"/>
	<polygon class="st2" points="22.805,232.106 26.069,233.103 15.844,213.077 12.579,212.079 	"/>
	<polygon class="st2" points="22.805,192.555 26.069,193.552 15.844,173.526 12.579,172.528 	"/>
	<polygon class="st2" points="19.554,169.099 26.069,171.09 19.094,157.43 12.579,155.439 	"/>
	<g>
		<polygon class="st0" points="196.579,28.738 189.978,25.367 189.914,25.334 190.911,28.599 170.95,18.406 170.885,18.373 
			170.885,18.374 164.361,15.042 164.296,15.009 164.296,15.009 144.113,4.702 144.048,4.669 148.223,18.33 148.226,18.341 
			154.826,21.712 154.891,21.745 152.9,15.229 166.495,22.171 166.56,22.204 166.56,22.204 173.083,25.535 173.148,25.568 
			173.148,25.568 199.698,39.126 199.762,39.16 196.582,28.75 		"/>
		<polygon class="st0" points="236.13,28.738 229.529,25.367 229.465,25.334 230.462,28.599 210.512,18.412 210.512,18.412 
			210.463,18.387 210.436,18.373 210.436,18.373 203.924,15.048 203.924,15.048 203.875,15.022 203.848,15.009 203.848,15.009 
			183.664,4.702 183.6,4.669 187.773,18.33 187.777,18.341 194.377,21.712 194.442,21.745 192.45,15.229 206.034,22.165 
			206.034,22.165 206.084,22.191 206.11,22.204 206.11,22.204 212.623,25.529 212.623,25.53 212.672,25.555 212.699,25.568 
			212.699,25.568 239.249,39.126 239.313,39.16 236.134,28.75 		"/>
		<polygon class="st0" points="228.799,7.554 223.215,4.702 223.151,4.669 225.004,10.735 227.632,19.099 227.636,19.11 
			234.48,23.021 234.549,23.061 232.001,15.224 302.341,45.027 302.366,44.971 		"/>
		<polygon class="st0" points="157.028,28.738 150.428,25.367 150.363,25.334 151.36,28.599 131.399,18.406 131.334,18.373 
			131.334,18.374 124.811,15.042 124.746,15.009 124.746,15.009 104.563,4.702 104.497,4.669 108.671,18.33 108.675,18.341 
			115.275,21.712 115.34,21.745 113.349,15.229 126.944,22.171 127.009,22.204 127.009,22.204 133.532,25.535 133.597,25.568 
			133.597,25.568 160.147,39.126 160.212,39.16 157.031,28.75 		"/>
		<polygon class="st0" points="117.477,28.738 110.877,25.367 110.812,25.334 111.809,28.599 91.848,18.406 91.783,18.373 
			91.783,18.374 85.26,15.042 85.195,15.009 85.195,15.009 65.011,4.702 64.946,4.669 69.12,18.33 69.124,18.341 75.725,21.712 
			75.789,21.745 73.798,15.229 87.393,22.171 87.458,22.204 87.458,22.204 93.982,25.535 94.046,25.568 94.046,25.568 
			120.596,39.126 120.66,39.16 117.48,28.75 		"/>
		<polygon class="st0" points="77.925,28.738 71.326,25.367 71.261,25.334 72.259,28.599 52.297,18.406 52.233,18.373 
			52.233,18.374 45.72,15.047 45.72,15.046 45.708,15.042 45.644,15.009 45.647,15.019 31.547,9.732 11.544,3.885 11.522,3.942 
			47.842,22.172 47.873,22.187 54.431,25.535 54.495,25.568 54.495,25.568 81.045,39.126 81.11,39.16 77.93,28.75 		"/>
		<polygon class="st0" points="20.471,316.241 16.526,309.338 16.52,309.328 8.145,306.695 2.148,304.864 2.079,304.843 
			4.964,310.491 42.381,384.058 42.437,384.033 12.634,313.693 		"/>
		<polygon class="st0" points="12.43,48.237 12.419,48.234 12.451,48.296 12.456,48.309 12.458,48.31 15.783,54.823 15.783,54.823 
			26.009,74.849 22.814,73.872 22.744,73.85 26.142,80.504 26.148,80.516 36.5,83.679 36.569,83.7 22.979,57.085 22.979,57.085 
			19.581,50.432 19.579,50.427 2.022,15.595 1.966,15.618 7.352,33.776 		"/>
		<polygon class="st0" points="22.979,96.636 22.979,96.636 19.614,90.047 19.614,90.047 12.639,76.388 19.085,78.358 
			19.155,78.379 15.757,71.726 15.751,71.715 2.148,67.558 2.079,67.536 12.419,87.785 12.419,87.785 15.783,94.374 15.783,94.374 
			26.009,114.399 22.814,113.423 22.744,113.402 26.142,120.056 26.148,120.066 36.5,123.229 36.569,123.251 		"/>
		<polygon class="st0" points="22.979,136.188 22.979,136.188 19.614,129.599 19.614,129.599 12.639,115.939 19.085,117.909 
			19.155,117.93 15.757,111.277 15.751,111.266 2.148,107.108 2.079,107.087 12.419,127.336 12.419,127.336 15.783,133.924 
			15.783,133.924 26.009,153.951 22.814,152.974 22.744,152.953 26.142,159.606 26.148,159.618 36.5,162.781 36.569,162.802 		"/>
		<polygon class="st0" points="22.744,311.157 26.142,317.81 26.148,317.822 36.5,320.984 36.569,321.005 22.979,294.391 
			22.979,294.391 19.614,287.802 19.614,287.802 12.639,274.143 19.085,276.113 19.155,276.134 15.757,269.481 15.751,269.469 
			2.148,265.313 2.079,265.292 12.419,285.539 12.419,285.539 15.783,292.129 15.783,292.129 26.009,312.154 22.814,311.179 		"/>
		<polygon class="st0" points="22.979,254.84 22.979,254.84 19.614,248.251 19.614,248.251 12.639,234.592 19.085,236.562 
			19.155,236.582 15.757,229.929 15.751,229.918 2.148,225.761 2.079,225.741 12.419,245.989 12.419,245.989 15.783,252.577 
			15.783,252.577 26.009,272.604 22.814,271.627 22.744,271.606 26.142,278.259 26.148,278.271 36.5,281.434 36.569,281.455 		"/>
		<polygon class="st0" points="22.979,215.289 22.979,215.289 19.614,208.701 19.614,208.701 12.639,195.041 19.085,197.01 
			19.155,197.032 15.757,190.379 15.751,190.367 2.148,186.211 2.079,186.189 12.419,206.438 12.419,206.438 15.783,213.026 
			15.783,213.026 26.009,233.053 22.814,232.077 22.744,232.055 26.142,238.708 26.148,238.72 36.5,241.883 36.569,241.904 		"/>
		<polygon class="st0" points="22.979,175.738 22.979,175.738 19.614,169.149 19.614,169.149 12.639,155.49 19.085,157.46 
			19.155,157.481 15.757,150.828 15.751,150.816 2.148,146.66 2.079,146.638 12.419,166.887 12.419,166.887 15.783,173.476 
			15.783,173.476 26.009,193.501 22.814,192.525 22.744,192.504 26.142,199.157 26.148,199.168 36.5,202.332 36.569,202.353 		"/>
	</g>
	<g>
		<polygon class="st1" points="15.903,54.924 12.507,48.27 12.5,48.258 2.148,45.096 2.079,45.075 15.669,71.689 15.669,71.689 
			19.034,78.278 19.034,78.278 26.009,91.938 19.563,89.967 19.494,89.946 22.892,96.6 22.896,96.611 36.5,100.767 36.569,100.789 
			26.229,80.541 26.229,80.541 22.866,73.952 22.866,73.952 12.639,53.926 15.834,54.902 		"/>
		<polygon class="st1" points="173.124,25.486 166.522,22.117 166.458,22.084 168.449,28.599 154.854,21.657 154.79,21.624 
			154.79,21.624 148.266,18.292 148.201,18.26 148.201,18.26 121.651,4.702 121.587,4.669 124.767,15.079 124.771,15.091 
			131.371,18.461 131.436,18.494 130.438,15.229 150.4,25.422 150.464,25.456 150.464,25.456 156.988,28.787 157.052,28.819 
			157.052,28.819 177.236,39.126 177.301,39.16 173.127,25.499 		"/>
		<polygon class="st1" points="15.669,229.893 15.669,229.893 19.034,236.481 19.034,236.481 26.009,250.142 19.563,248.172 
			19.494,248.15 22.892,254.804 22.896,254.816 36.5,258.972 36.569,258.993 26.229,238.745 26.229,238.745 22.866,232.156 
			22.866,232.156 12.639,212.129 15.834,213.106 15.903,213.127 12.507,206.474 12.5,206.463 2.148,203.3 2.079,203.279 		"/>
		<polygon class="st1" points="15.669,150.792 15.669,150.792 19.066,157.444 19.07,157.45 26.009,171.04 19.563,169.07 
			19.494,169.049 22.892,175.701 22.896,175.713 36.5,179.87 36.569,179.891 26.196,159.579 26.193,159.572 22.866,153.054 
			22.866,153.054 12.639,133.028 15.834,134.004 15.903,134.025 12.507,127.372 12.5,127.36 2.148,124.198 2.079,124.176 		"/>
		<polygon class="st1" points="15.669,111.241 15.669,111.241 19.066,117.894 19.07,117.898 26.009,131.488 19.563,129.519 
			19.494,129.498 22.892,136.151 22.896,136.162 36.5,140.318 36.569,140.339 26.196,120.027 26.193,120.021 22.866,113.503 
			22.866,113.503 12.639,93.477 15.834,94.454 15.903,94.475 12.507,87.821 12.5,87.81 2.148,84.646 2.079,84.625 		"/>
		<polygon class="st1" points="15.669,190.343 15.669,190.343 19.066,196.996 19.07,197.001 26.009,210.59 19.563,208.621 
			19.494,208.6 22.892,215.253 22.896,215.265 36.5,219.421 36.569,219.441 26.196,199.129 26.193,199.123 22.866,192.605 
			22.866,192.605 12.639,172.579 15.834,173.555 15.903,173.577 12.507,166.924 12.5,166.912 2.148,163.749 2.079,163.728 		"/>
		<polygon class="st1" points="274.055,45.741 234.059,22.819 234.059,22.819 234.019,22.797 233.977,22.773 233.977,22.774 
			227.289,18.973 227.289,18.972 227.271,18.963 227.207,18.927 227.208,18.929 206.337,7.554 200.753,4.702 200.688,4.669 
			203.869,15.079 203.872,15.091 210.473,18.461 210.537,18.494 209.54,15.229 229.49,25.417 229.49,25.417 236.08,28.781 
			236.08,28.782 236.091,28.787 236.159,28.821 236.157,28.816 274.027,45.795 		"/>
		<polygon class="st1" points="54.47,25.486 47.871,22.117 47.806,22.084 49.796,28.599 1.188,3.778 26.009,52.387 19.563,50.417 
			19.494,50.396 22.892,57.049 22.896,57.06 36.5,61.217 36.569,61.238 13.53,16.121 58.583,39.126 58.647,39.16 54.474,25.499 		
			"/>
		<polygon class="st1" points="133.572,25.486 126.972,22.117 126.907,22.084 128.898,28.599 115.304,21.657 115.238,21.624 
			115.238,21.624 108.715,18.292 108.651,18.26 108.651,18.26 82.1,4.702 82.035,4.669 85.216,15.079 85.219,15.091 91.819,18.461 
			91.885,18.494 90.887,15.229 110.848,25.422 110.913,25.456 110.913,25.456 117.437,28.787 117.502,28.819 117.502,28.819 
			137.685,39.126 137.75,39.16 133.576,25.499 		"/>
		<polygon class="st1" points="94.021,25.486 87.421,22.117 87.356,22.084 89.347,28.599 75.752,21.657 75.688,21.624 
			75.688,21.624 69.164,18.292 69.099,18.26 69.099,18.26 42.549,4.702 42.484,4.669 45.665,15.079 45.669,15.091 52.269,18.461 
			52.334,18.494 51.336,15.229 71.297,25.422 71.362,25.456 71.362,25.456 77.886,28.787 77.951,28.819 77.951,28.819 
			98.135,39.126 98.199,39.16 94.024,25.499 		"/>
		<polygon class="st1" points="15.669,269.444 15.669,269.444 19.034,276.033 19.034,276.033 26.009,289.692 19.563,287.723 
			19.494,287.701 22.892,294.354 22.896,294.366 36.5,298.522 36.569,298.543 26.229,278.295 26.229,278.295 22.865,271.707 
			22.866,271.707 12.639,251.681 15.834,252.657 15.903,252.678 12.507,246.026 12.5,246.014 2.148,242.851 2.079,242.83 		"/>
		<polygon class="st1" points="212.674,25.486 206.074,22.117 206.01,22.084 208,28.599 194.417,21.663 194.417,21.663 
			194.368,21.638 194.341,21.624 194.341,21.624 187.829,18.299 187.829,18.299 187.778,18.273 187.752,18.26 187.752,18.26 
			161.202,4.702 161.138,4.669 164.317,15.079 164.322,15.091 170.922,18.461 170.986,18.494 169.988,15.229 189.938,25.417 
			189.938,25.417 189.988,25.441 190.015,25.456 190.015,25.456 196.527,28.78 196.527,28.781 196.577,28.806 196.603,28.819 
			196.603,28.819 216.787,39.126 216.852,39.16 212.678,25.499 		"/>
		<polygon class="st1" points="26.231,317.851 26.198,317.785 26.197,317.783 26.192,317.771 26.191,317.771 22.867,311.263 
			22.867,311.263 12.639,291.231 15.834,292.208 15.903,292.229 12.507,285.576 12.5,285.564 2.148,282.401 2.079,282.38 
			4.964,288.03 16.338,308.899 16.336,308.898 16.368,308.954 16.377,308.97 16.383,308.98 16.383,308.98 20.183,315.668 
			20.183,315.668 20.21,315.716 20.224,315.74 20.229,315.75 20.229,315.75 43.15,355.747 43.206,355.719 26.227,317.849 		"/>
	</g>
</g>
<g>
	<polygon class="st2" points="425.491,761.411 405.524,751.215 406.519,754.471 426.486,764.666 	"/>
	<polygon class="st2" points="402.104,758.17 388.486,751.215 390.471,757.711 404.091,764.666 	"/>
	<polygon class="st2" points="386.057,761.411 366.092,751.215 367.085,754.471 387.053,764.666 	"/>
	<polygon class="st2" points="573.179,469.514 569.924,468.519 580.119,488.485 583.374,489.48 	"/>
	<polygon class="st2" points="576.42,492.897 569.924,490.913 576.878,504.531 583.374,506.516 	"/>
	<polygon class="st2" points="520.403,758.17 506.784,751.215 508.769,757.712 522.387,764.666 	"/>
	<polygon class="st2" points="504.356,761.411 484.389,751.215 485.384,754.471 505.351,764.666 	"/>
	<polygon class="st2" points="480.971,758.17 467.352,751.215 469.337,757.712 482.955,764.666 	"/>
	<polygon class="st2" points="441.538,758.17 427.92,751.215 429.904,757.712 443.522,764.666 	"/>
	<polygon class="st2" points="464.923,761.411 444.957,751.215 445.95,754.471 465.918,764.666 	"/>
	<polygon class="st2" points="573.178,627.242 569.923,626.248 580.118,646.215 583.374,647.21 	"/>
	<polygon class="st2" points="576.42,650.629 569.923,648.644 576.878,662.264 583.374,664.247 	"/>
	<polygon class="st2" points="573.178,666.676 569.923,665.681 580.118,685.646 583.374,686.642 	"/>
	<polygon class="st2" points="576.42,690.061 569.923,688.076 576.878,701.695 583.374,703.681 	"/>
	<polygon class="st2" points="543.788,761.411 523.822,751.215 524.817,754.471 544.782,764.666 	"/>
	<polygon class="st2" points="573.178,706.109 569.923,705.114 580.118,725.08 583.374,726.074 	"/>
	<polygon class="st2" points="576.42,571.763 569.924,569.778 576.878,583.396 583.374,585.383 	"/>
	<polygon class="st2" points="573.179,548.377 569.924,547.383 580.119,567.35 583.374,568.345 	"/>
	<polygon class="st2" points="576.42,532.331 569.924,530.345 576.878,543.965 583.374,545.949 	"/>
	<polygon class="st2" points="573.178,587.811 569.923,586.816 580.118,606.781 583.374,607.776 	"/>
	<polygon class="st2" points="573.179,508.944 569.924,507.951 580.119,527.916 583.374,528.911 	"/>
	<polygon class="st2" points="576.42,611.196 569.923,609.212 576.878,622.83 583.374,624.814 	"/>
	<g>
		<polygon class="st0" points="399.924,751.137 406.505,754.498 406.568,754.53 405.574,751.275 425.476,761.438 425.541,761.472 
			425.541,761.471 432.045,764.792 432.11,764.825 432.11,764.825 452.233,775.101 452.298,775.134 448.136,761.516 
			448.133,761.503 441.552,758.143 441.486,758.109 443.473,764.606 429.918,757.685 429.854,757.651 429.854,757.651 
			423.349,754.33 423.285,754.297 423.285,754.297 396.814,740.78 396.75,740.747 399.921,751.125 		"/>
		<polygon class="st0" points="360.49,751.137 367.071,754.498 367.136,754.53 366.142,751.275 386.031,761.432 386.031,761.432 
			386.081,761.457 386.107,761.472 386.107,761.472 392.601,764.786 392.601,764.786 392.651,764.812 392.677,764.825 
			392.677,764.825 412.8,775.101 412.863,775.134 408.703,761.516 408.699,761.503 402.118,758.143 402.055,758.109 
			404.041,764.606 390.496,757.69 390.496,757.69 390.446,757.664 390.421,757.651 390.421,757.651 383.928,754.336 
			383.928,754.335 383.878,754.311 383.852,754.297 383.852,754.297 357.381,740.78 357.316,740.747 360.486,751.125 		"/>
		<polygon class="st0" points="367.8,772.258 373.366,775.101 373.431,775.134 371.583,769.086 368.962,760.748 368.959,760.736 
			362.135,756.837 362.066,756.798 364.606,764.611 294.479,734.896 294.453,734.952 		"/>
		<polygon class="st0" points="439.357,751.138 445.937,754.498 446.002,754.53 445.008,751.275 464.909,761.438 464.973,761.472 
			464.973,761.471 471.479,764.792 471.542,764.825 471.542,764.825 491.665,775.101 491.73,775.134 487.567,761.516 
			487.564,761.503 480.985,758.143 480.92,758.109 482.905,764.606 469.351,757.685 469.285,757.651 469.285,757.651 
			462.782,754.33 462.718,754.297 462.718,754.297 436.247,740.78 436.182,740.747 439.354,751.125 		"/>
		<polygon class="st0" points="478.789,751.138 485.37,754.498 485.434,754.53 484.44,751.275 504.343,761.438 504.406,761.472 
			504.406,761.471 510.91,764.792 510.976,764.825 510.976,764.825 531.099,775.101 531.162,775.134 527.001,761.516 
			526.998,761.503 520.417,758.143 520.353,758.109 522.337,764.606 508.782,757.685 508.719,757.651 508.719,757.651 
			502.214,754.33 502.149,754.297 502.149,754.297 475.679,740.78 475.615,740.747 478.785,751.125 		"/>
		<polygon class="st0" points="518.223,751.138 524.804,754.498 524.867,754.53 523.872,751.275 543.774,761.438 543.838,761.472 
			543.838,761.471 550.331,764.787 550.332,764.789 550.344,764.793 550.407,764.825 550.404,764.815 564.462,770.086 
			584.405,775.916 584.428,775.859 548.216,757.685 548.185,757.669 541.646,754.33 541.583,754.297 541.583,754.297 
			515.112,740.78 515.047,740.747 518.219,751.125 		"/>
		<polygon class="st0" points="575.506,464.495 579.438,471.377 579.444,471.388 587.795,474.012 593.772,475.838 593.843,475.858 
			590.966,470.228 553.661,396.88 553.605,396.905 583.319,467.035 		"/>
		<polygon class="st0" points="583.522,731.697 583.533,731.699 583.502,731.637 583.497,731.625 583.495,731.625 580.179,725.13 
			580.179,725.13 569.983,705.164 573.169,706.139 573.239,706.159 569.852,699.524 569.846,699.515 559.524,696.359 
			559.455,696.339 573.006,722.875 573.006,722.875 576.393,729.508 576.395,729.513 593.898,764.241 593.955,764.219 
			588.585,746.114 		"/>
		<polygon class="st0" points="573.006,683.441 573.006,683.441 576.359,690.011 576.359,690.011 583.314,703.629 576.887,701.666 
			576.817,701.645 580.204,708.277 580.21,708.288 593.772,712.434 593.842,712.454 583.533,692.268 583.533,692.268 
			580.179,685.698 580.179,685.698 569.983,665.731 573.169,666.705 573.239,666.726 569.852,660.093 569.846,660.081 
			559.524,656.928 559.455,656.905 		"/>
		<polygon class="st0" points="573.006,644.009 573.006,644.009 576.359,650.577 576.359,650.577 583.314,664.197 576.887,662.232 
			576.817,662.212 580.204,668.845 580.21,668.856 593.772,673.001 593.842,673.022 583.533,652.834 583.533,652.834 
			580.179,646.265 580.179,646.265 569.983,626.3 573.169,627.271 573.239,627.294 569.852,620.659 569.846,620.649 
			559.524,617.495 559.455,617.474 		"/>
		<polygon class="st0" points="573.239,469.563 569.852,462.931 569.846,462.918 559.524,459.765 559.455,459.744 573.006,486.278 
			573.006,486.278 576.359,492.848 576.359,492.848 583.314,506.466 576.887,504.502 576.817,504.481 580.205,511.114 
			580.21,511.126 593.772,515.271 593.843,515.291 583.533,495.104 583.533,495.104 580.18,488.534 580.18,488.534 569.983,468.568 
			573.17,469.543 		"/>
		<polygon class="st0" points="573.006,525.71 573.006,525.71 576.359,532.279 576.359,532.279 583.314,545.899 576.887,543.936 
			576.817,543.915 580.205,550.548 580.21,550.558 593.772,554.702 593.843,554.723 583.533,534.535 583.533,534.535 
			580.18,527.967 580.18,527.967 569.983,508.001 573.17,508.974 573.239,508.996 569.852,502.363 569.846,502.351 559.524,499.196 
			559.455,499.176 		"/>
		<polygon class="st0" points="573.006,565.144 573.006,565.144 576.359,571.713 576.359,571.713 583.314,585.333 576.887,583.367 
			576.817,583.347 580.204,589.979 580.21,589.991 593.772,594.136 593.842,594.156 583.533,573.969 583.533,573.969 
			580.18,567.399 580.18,567.399 569.983,547.433 573.17,548.406 573.239,548.429 569.852,541.795 569.846,541.782 559.524,538.63 
			559.455,538.609 		"/>
		<polygon class="st0" points="573.006,604.577 573.006,604.577 576.359,611.146 576.359,611.146 583.314,624.765 576.887,622.801 
			576.817,622.78 580.204,629.413 580.21,629.425 593.772,633.567 593.842,633.59 583.533,613.4 583.533,613.4 580.179,606.833 
			580.179,606.833 569.983,586.866 573.169,587.84 573.239,587.86 569.852,581.228 569.846,581.216 559.524,578.063 
			559.455,578.041 		"/>
	</g>
	<g>
		<polygon class="st1" points="580.059,725.03 583.445,731.663 583.452,731.675 593.772,734.828 593.842,734.85 580.292,708.313 
			580.292,708.313 576.938,701.745 576.938,701.745 569.983,688.126 576.411,690.09 576.479,690.112 573.092,683.479 
			573.086,683.468 559.524,679.323 559.455,679.301 569.764,699.488 569.764,699.488 573.117,706.058 573.117,706.058 
			583.314,726.024 580.129,725.051 		"/>
		<polygon class="st1" points="423.309,754.379 429.89,757.739 429.954,757.772 427.97,751.275 441.524,758.197 441.588,758.229 
			441.588,758.229 448.093,761.552 448.157,761.584 448.157,761.584 474.628,775.101 474.691,775.134 471.521,764.756 
			471.518,764.744 464.937,761.384 464.873,761.35 465.867,764.606 445.964,754.443 445.9,754.41 445.9,754.41 439.396,751.089 
			439.333,751.057 439.333,751.057 419.21,740.78 419.145,740.747 423.306,754.366 		"/>
		<polygon class="st1" points="580.292,550.584 580.292,550.584 576.938,544.015 576.938,544.015 569.983,530.395 576.411,532.36 
			576.479,532.381 573.092,525.748 573.087,525.736 559.524,521.592 559.455,521.571 569.764,541.759 569.764,541.759 
			573.118,548.327 573.118,548.327 583.314,568.295 580.129,567.32 580.059,567.298 583.445,573.933 583.452,573.943 
			593.772,577.098 593.842,577.118 		"/>
		<polygon class="st1" points="580.292,629.449 580.292,629.449 576.905,622.816 576.901,622.81 569.983,609.262 576.411,611.225 
			576.479,611.246 573.092,604.613 573.086,604.601 559.524,600.457 559.455,600.437 569.798,620.688 569.8,620.694 
			573.117,627.192 573.117,627.192 583.314,647.159 580.129,646.186 580.059,646.165 583.445,652.798 583.452,652.81 
			593.772,655.963 593.842,655.985 		"/>
		<polygon class="st1" points="580.292,668.881 580.292,668.881 576.905,662.248 576.901,662.242 569.983,648.694 576.411,650.658 
			576.479,650.679 573.092,644.045 573.086,644.034 559.524,639.891 559.455,639.869 569.798,660.12 569.8,660.126 573.117,666.626 
			573.117,666.626 583.314,686.592 580.129,685.617 580.059,685.597 583.445,692.231 583.452,692.241 593.772,695.396 
			593.842,695.417 		"/>
		<polygon class="st1" points="580.292,590.016 580.292,590.016 576.905,583.383 576.901,583.378 569.983,569.828 576.411,571.792 
			576.479,571.814 573.092,565.18 573.087,565.168 559.524,561.025 559.455,561.005 569.798,581.256 569.8,581.261 573.117,587.759 
			573.117,587.759 583.314,607.727 580.129,606.752 580.059,606.731 583.445,613.364 583.452,613.376 593.772,616.529 
			593.842,616.552 		"/>
		<polygon class="st1" points="322.679,734.184 362.555,757.038 362.555,757.038 362.595,757.061 362.638,757.085 362.638,757.084 
			369.306,760.873 369.306,760.873 369.322,760.883 369.388,760.919 369.387,760.917 390.194,772.258 395.762,775.101 
			395.825,775.134 392.656,764.756 392.652,764.744 386.07,761.384 386.007,761.35 387.003,764.606 367.11,754.449 367.11,754.448 
			360.541,751.095 360.541,751.094 360.529,751.089 360.462,751.054 360.464,751.06 322.707,734.131 		"/>
		<polygon class="st1" points="541.607,754.379 548.188,757.739 548.252,757.772 546.268,751.275 594.73,776.023 569.983,727.56 
			576.411,729.523 576.479,729.544 573.092,722.911 573.086,722.899 559.524,718.755 559.455,718.734 582.425,763.717 
			537.508,740.78 537.442,740.747 541.604,754.366 		"/>
		<polygon class="st1" points="462.742,754.379 469.321,757.739 469.387,757.772 467.402,751.275 480.956,758.197 481.021,758.229 
			481.021,758.229 487.524,761.552 487.589,761.584 487.589,761.584 514.061,775.101 514.125,775.134 510.954,764.756 
			510.951,764.744 504.37,761.384 504.305,761.35 505.299,764.606 485.397,754.443 485.334,754.41 485.334,754.41 478.828,751.089 
			478.765,751.057 478.765,751.057 458.642,740.78 458.577,740.747 462.739,754.366 		"/>
		<polygon class="st1" points="502.176,754.379 508.755,757.739 508.82,757.772 506.834,751.275 520.389,758.197 520.454,758.229 
			520.454,758.229 526.958,761.552 527.021,761.584 527.021,761.584 553.492,775.101 553.558,775.134 550.386,764.756 
			550.383,764.744 543.802,761.384 543.738,761.35 544.732,764.606 524.831,754.443 524.766,754.41 524.766,754.41 518.262,751.089 
			518.196,751.057 518.196,751.057 498.074,740.78 498.009,740.747 502.172,754.366 		"/>
		<polygon class="st1" points="580.292,511.15 580.292,511.15 576.938,504.581 576.938,504.581 569.983,490.963 576.411,492.927 
			576.479,492.947 573.092,486.314 573.087,486.303 559.524,482.16 559.455,482.138 569.764,502.325 569.764,502.325 
			573.119,508.895 573.118,508.895 583.314,528.861 580.129,527.887 580.059,527.866 583.446,534.499 583.452,534.512 
			593.772,537.664 593.843,537.685 		"/>
		<polygon class="st1" points="383.876,754.379 390.457,757.738 390.522,757.771 388.536,751.275 402.079,758.191 402.079,758.191 
			402.129,758.216 402.156,758.229 402.156,758.229 408.647,761.545 408.647,761.545 408.697,761.57 408.726,761.584 
			408.726,761.584 435.195,775.101 435.259,775.134 432.09,764.756 432.084,764.744 425.505,761.384 425.439,761.35 
			426.435,764.606 406.545,754.449 406.545,754.449 406.495,754.424 406.469,754.41 406.469,754.41 399.976,751.096 
			399.976,751.095 399.926,751.069 399.899,751.056 399.899,751.056 379.776,740.78 379.713,740.747 383.873,754.366 		"/>
		<polygon class="st1" points="569.762,462.889 569.795,462.954 569.797,462.956 569.802,462.969 569.803,462.97 573.116,469.458 
			573.116,469.458 583.314,489.431 580.129,488.455 580.059,488.434 583.446,495.068 583.452,495.08 593.772,498.233 
			593.843,498.254 590.966,492.621 579.626,471.814 579.628,471.814 579.596,471.759 579.587,471.744 579.581,471.733 
			579.581,471.733 575.793,465.064 575.793,465.064 575.766,465.018 575.752,464.994 575.746,464.983 575.746,464.983 
			552.894,425.105 552.839,425.133 569.768,462.891 		"/>
	</g>
</g>
</svg>
