<?xml version="1.0" encoding="utf-8"?>
<!-- Generator: Adobe Illustrator 14.0.0, SVG Export Plug-In . SVG Version: 6.00 Build 43363)  -->
<!DOCTYPE svg PUBLIC "-//W3C//DTD SVG 1.1//EN" "http://www.w3.org/Graphics/SVG/1.1/DTD/svg11.dtd">
<svg version="1.1" xmlns="http://www.w3.org/2000/svg" xmlns:xlink="http://www.w3.org/1999/xlink" x="0px" y="0px" width="540px"
	 height="720px" viewBox="0 0 540 720" style="enable-background:new 0 0 540 720;" xml:space="preserve">
<style type="text/css">
<![CDATA[
	.st0{fill:#D1D3D4;}
]]>
</style>
<g id="Layer_2">
</g>
<g id="Layer_1">
	<path class="st0" d="M540.476,108.119l0.01-0.021l-1.294-3.029l-1.443-4.553l1.367-3.473l0.008-0.021l-2.332-4.523l2.072-4.89
		l0.252-4.937l0.001-0.012l-1.171-2.66l-0.014-0.03h-0.621l0.481-0.975l0.01-0.019l-1.417-3.854l1.711-4.289l0.815-4.029
		l0.003-0.015l-1.118-2.609l1.356-4.371l1.323-2.598l0.01-0.021l-1.294-3.029l-1.443-4.553l1.367-3.472l0.008-0.021l-2.332-4.523
		l2.072-4.89l0.252-4.937l0.001-0.012l-1.168-2.653l-1.16-6.13l1.714-4.298l0.816-4.035l0.003-0.015l-1.12-2.615l0.649-3.783
		l1.42-3.199L540.283,5l-1.797-2.038l-0.012-0.014l-2.743-0.356l-0.02-0.002l-1.531,1.062l-2.342-1.055l-4.075-0.693l-0.015-0.002
		l-2.613,1.119l-4.011-0.811l-4.304-1.716l-0.018-0.007l-5.929,2.227l-1.071-0.504l-0.019-0.008l-4.053,1.417l-4.511-1.712
		l-4.236-0.815l-0.015-0.002l-2.743,1.119l-4.599-1.356l-2.732-1.324l-0.02-0.01l-3.184,1.294l-4.789,1.443l-3.653-1.367
		l-0.021-0.007l-4.756,2.333l-5.144-2.073l-5.19-0.251l-0.011,0l-2.826,1.183v0.625l-1.03-0.484l-0.019-0.008l-4.052,1.417
		l-4.511-1.712l-4.236-0.815l-0.015-0.002l-2.744,1.119l-4.599-1.356l-2.731-1.324l-0.02-0.01l-3.184,1.294l-4.789,1.443
		l-3.653-1.367l-0.021-0.007l-4.756,2.333l-5.144-2.073l-5.19-0.251l-0.011,0l-2.826,1.183v0.625l-1.03-0.484l-0.019-0.008
		l-4.052,1.417l-4.511-1.712l-4.236-0.815l-0.015-0.002l-2.744,1.119l-4.599-1.356l-2.731-1.324l-0.02-0.01l-3.185,1.294
		l-4.788,1.443l-3.653-1.367l-0.021-0.007l-4.756,2.333l-5.145-2.073l-5.189-0.251l-0.011,0l-2.827,1.183v0.625l-1.029-0.484
		l-0.019-0.008l-4.053,1.417l-4.51-1.712l-4.237-0.815l-0.015-0.002l-2.743,1.119l-4.599-1.356l-2.732-1.324l-0.02-0.01
		l-3.184,1.294l-4.789,1.443l-3.653-1.367l-0.021-0.007l-4.756,2.333l-5.144-2.073l-5.189-0.251l-0.011,0l-2.827,1.183v0.625
		l-1.029-0.484l-0.019-0.008l-4.053,1.417l-4.511-1.712l-4.236-0.815l-0.015-0.002l-2.743,1.119l-4.599-1.356l-2.732-1.324
		l-0.02-0.01l-3.184,1.294l-4.789,1.443l-3.653-1.367l-0.02-0.007l-4.756,2.333l-5.144-2.073l-5.189-0.251l-0.011,0l-2.827,1.183
		v0.625l-1.03-0.484l-0.019-0.008l-4.053,1.417l-4.511-1.712l-4.236-0.815l-0.014-0.002l-2.743,1.119l-4.599-1.356l-2.732-1.324
		l-0.02-0.01l-3.184,1.294l-4.789,1.443l-3.653-1.367l-0.02-0.007l-4.756,2.333l-5.144-2.073l-5.189-0.251l-0.011,0l-2.827,1.183
		v0.625l-1.03-0.484l-0.019-0.008l-4.053,1.417l-4.51-1.712l-4.237-0.815l-0.015-0.002l-2.743,1.119l-4.599-1.356l-2.732-1.324
		l-0.02-0.01l-3.184,1.294l-4.789,1.443l-3.653-1.367l-0.02-0.007l-4.756,2.333l-5.144-2.073l-5.189-0.251l-0.011,0l-2.827,1.183
		v0.625l-1.03-0.485l-0.019-0.008l-4.053,1.417l-4.511-1.712l-4.236-0.815l-0.014-0.002l-2.743,1.119l-4.599-1.356l-2.732-1.324
		l-0.02-0.01l-3.184,1.294l-4.789,1.443l-3.653-1.367l-0.02-0.007L95.768,3.21l-5.144-2.073l-5.189-0.251l-0.011,0l-2.827,1.183
		v0.625l-1.03-0.484l-0.019-0.008l-4.053,1.417l-4.51-1.712l-4.237-0.815l-0.015-0.002l-2.743,1.119l-4.599-1.356l-2.732-1.324
		l-0.02-0.01l-3.184,1.294l-4.789,1.443l-3.653-1.367l-0.02-0.007L42.238,3.21l-5.144-2.073l-5.189-0.251l-0.011,0l-2.791,1.167
		l-6.129,1.159l-4.298-1.713l-4.035-0.816l-0.015-0.003l-2.615,1.121L8.228,1.149l-3.199-1.42L5-0.283L2.961,1.513L2.947,1.526
		L2.588,4.288L3.65,5.82L2.595,8.162l-0.693,4.075l-0.002,0.015l1.119,2.614l-0.811,4.01l-1.716,4.304l-0.007,0.018l2.227,5.927
		l-0.503,1.018l-0.009,0.019l1.417,3.854l-1.711,4.289l-0.815,4.029l-0.003,0.015l1.119,2.608l-1.355,4.371l-1.324,2.598
		l-0.011,0.021l1.294,3.029l1.443,4.552L0.885,63l-0.008,0.021l2.333,4.522l-2.072,4.89l-0.252,4.937l0,0.012l1.17,2.66l0.013,0.03
		H2.69l-0.482,0.976l-0.009,0.019l1.417,3.854l-1.711,4.289l-0.815,4.029l-0.003,0.015l1.119,2.608l-1.355,4.371l-1.324,2.598
		l-0.011,0.021l1.294,3.029l1.443,4.553l-1.375,3.494l2.333,4.523l-2.072,4.89l-0.252,4.937l0,0.012l1.17,2.66l0.013,0.03H2.69
		l-0.482,0.975l-0.009,0.019l1.417,3.854l-1.711,4.289l-0.815,4.029l-0.003,0.015l1.119,2.609l-1.355,4.371l-1.324,2.598
		l-0.011,0.021l1.294,3.029l1.443,4.553l-1.366,3.472l-0.008,0.021l2.333,4.523l-2.072,4.89l-0.252,4.937l0,0.012l1.17,2.66
		l0.013,0.03H2.69l-0.482,0.976l-0.009,0.019l1.417,3.854l-1.711,4.289l-0.815,4.029l-0.003,0.015l1.119,2.608l-1.355,4.371
		l-1.324,2.598l-0.011,0.021l1.294,3.029l1.443,4.553l-1.366,3.473l-0.008,0.021l2.333,4.522l-2.072,4.89l-0.252,4.937l0,0.012
		l1.17,2.66l0.013,0.03H2.69l-0.482,0.975l-0.009,0.019l1.417,3.854l-1.711,4.289l-0.815,4.029l-0.003,0.015l1.119,2.608
		l-1.355,4.371l-1.324,2.598l-0.011,0.021l1.294,3.029l1.443,4.553l-1.375,3.494l2.333,4.523l-2.072,4.89l-0.252,4.937l0,0.012
		l1.17,2.66l0.013,0.03H2.69l-0.482,0.975l-0.009,0.019l1.417,3.854l-1.711,4.289l-0.815,4.029l-0.003,0.015l1.119,2.608
		l-1.355,4.371l-1.324,2.598l-0.011,0.021l1.294,3.029l1.443,4.553l-1.366,3.473l-0.008,0.021l2.333,4.522l-2.072,4.89l-0.252,4.937
		l0,0.012l1.17,2.66l0.013,0.03H2.69l-0.482,0.976l-0.009,0.019l1.417,3.854l-1.711,4.289l-0.815,4.029l-0.003,0.015l1.119,2.608
		l-1.355,4.371l-1.324,2.598l-0.011,0.021l1.294,3.029l1.443,4.553l-1.366,3.473l-0.008,0.021l2.333,4.522l-2.072,4.89l-0.252,4.937
		l0,0.013l1.17,2.659l0.013,0.029H2.69l-0.482,0.976l-0.009,0.02l1.417,3.854l-1.711,4.289l-0.815,4.028l-0.003,0.016l1.119,2.608
		l-1.355,4.371l-1.324,2.598l-0.011,0.021l1.294,3.028l1.443,4.554l-1.366,3.472l-0.008,0.021l2.333,4.523l-2.072,4.89l-0.252,4.937
		l0,0.013l1.17,2.659l0.013,0.029H2.69l-0.482,0.975l-0.009,0.02l1.417,3.854l-1.711,4.288l-0.815,4.029l-0.003,0.015l1.119,2.609
		l-1.355,4.371l-1.324,2.598l-0.011,0.021l1.294,3.028l1.443,4.554l-1.366,3.472l-0.008,0.021l2.333,4.523l-2.072,4.89l-0.252,4.936
		l0,0.013l1.17,2.66l0.013,0.029H2.69l-0.482,0.975l-0.009,0.02l1.417,3.854l-1.711,4.289l-0.815,4.029l-0.003,0.015l1.119,2.608
		l-1.355,4.371l-1.324,2.599l-0.011,0.021l1.294,3.028l1.443,4.553l-1.366,3.473l-0.008,0.021l2.333,4.522l-2.072,4.89l-0.252,4.937
		l0,0.013l1.17,2.66l0.013,0.029H2.69l-0.482,0.975l-0.009,0.02l1.417,3.854l-1.711,4.289l-0.815,4.029l-0.003,0.015l1.119,2.608
		l-1.355,4.371l-1.324,2.599l-0.011,0.021l1.294,3.028l1.443,4.553l-1.366,3.473l-0.008,0.021l2.333,4.522l-2.072,4.89l-0.252,4.937
		l0,0.013l1.17,2.66l0.013,0.029H2.69l-0.482,0.975l-0.009,0.02l1.417,3.854l-1.711,4.289l-0.815,4.028l-0.003,0.015l1.119,2.609
		l-1.355,4.371l-1.324,2.598l-0.011,0.021l1.294,3.029l1.443,4.553l-1.366,3.473l-0.008,0.021l2.333,4.522l-2.072,4.89l-0.252,4.937
		l0,0.013l1.17,2.659l0.013,0.029H2.69l-0.482,0.976l-0.009,0.02l1.417,3.854l-1.711,4.289l-0.815,4.028l-0.003,0.016l1.119,2.608
		l-1.355,4.371l-1.324,2.598l-0.011,0.021l1.294,3.028l1.443,4.554l-1.366,3.473l-0.008,0.021l2.333,4.522l-2.072,4.89l-0.252,4.937
		l0,0.013l1.168,2.655l1.159,6.127l-1.714,4.298l-0.816,4.035l-0.003,0.015l1.121,2.615l-0.649,3.783l-1.42,3.199l-0.013,0.029
		l1.796,2.037l0.013,0.014l2.743,0.357l0.019,0.002l1.532-1.061l2.342,1.055l4.075,0.692l0.015,0.003l2.614-1.119l4.01,0.812
		l4.304,1.716l0.018,0.007l5.928-2.227l1.091,0.512l4.053-1.417l4.51,1.712l4.237,0.815l0.015,0.003l2.743-1.118l4.599,1.356
		l2.732,1.323l0.02,0.01l3.184-1.294l4.789-1.443l3.653,1.367l0.02,0.008l4.757-2.333l5.144,2.073l5.189,0.252l0.011,0.001
		l2.827-1.184v-0.624l1.048,0.492l4.053-1.417l4.511,1.712l4.236,0.815l0.014,0.003l2.743-1.118l4.599,1.356l2.732,1.323l0.02,0.01
		l3.184-1.294l4.789-1.443l3.653,1.367l0.02,0.008l4.756-2.333l5.144,2.073l5.189,0.252l0.011,0.001l2.827-1.184v-0.624l1.048,0.492
		l4.053-1.417l4.51,1.712l4.237,0.815l0.015,0.003l2.743-1.118l4.599,1.356l2.732,1.323l0.02,0.01l3.184-1.294l4.789-1.443
		l3.653,1.367l0.02,0.008l4.757-2.333l5.144,2.073l5.189,0.252l0.011,0.001l2.827-1.184v-0.624l1.048,0.492l4.053-1.417l4.511,1.712
		l4.236,0.815l0.015,0.003l2.743-1.118l4.599,1.356l2.732,1.323l0.02,0.01l3.184-1.294l4.789-1.443l3.653,1.367l0.02,0.008
		l4.756-2.333l5.144,2.073l5.189,0.252l0.011,0.001l2.827-1.184v-0.624l1.048,0.492l4.053-1.417l4.51,1.712l4.237,0.815l0.015,0.003
		l2.743-1.118l4.599,1.356l2.732,1.323l0.02,0.01l3.184-1.294l4.789-1.443l3.653,1.367l0.021,0.008l4.756-2.333l5.144,2.073
		l5.19,0.252l0.011,0.001l2.826-1.184v-0.624l1.049,0.492l4.052-1.417l4.511,1.712l4.236,0.815l0.015,0.003l2.744-1.118l4.599,1.356
		l2.731,1.323l0.02,0.01l3.184-1.294l4.789-1.443l3.653,1.367l0.021,0.008l4.756-2.333l5.144,2.073l5.19,0.252l0.011,0.001
		l2.826-1.184v-0.624l1.049,0.492l4.052-1.417l4.511,1.712l4.236,0.815l0.015,0.003l2.744-1.118l4.599,1.356l2.732,1.323l0.02,0.01
		l3.184-1.294l4.788-1.443l3.653,1.367l0.021,0.008l4.756-2.333l5.145,2.073l5.189,0.252l0.011,0.001l2.827-1.184v-0.624
		l1.048,0.492l4.053-1.417l4.51,1.712l4.237,0.815l0.015,0.003l2.743-1.118l4.599,1.356l2.732,1.323l0.02,0.01l3.184-1.294
		l4.789-1.443l3.653,1.367l0.021,0.008l4.756-2.333l5.144,2.073l5.189,0.252l0.011,0.001l2.827-1.184v-0.624l1.048,0.492
		l4.053-1.417l4.511,1.712l4.236,0.815l0.015,0.003l2.743-1.118l4.599,1.356l2.732,1.323l0.02,0.01l3.184-1.294l4.789-1.443
		l3.653,1.367l0.021,0.008l4.756-2.333l5.144,2.073l5.19,0.252l0.011,0.001l2.788-1.168l6.132-1.16l4.298,1.714l4.035,0.816
		l0.015,0.003l2.615-1.12l3.783,0.649l3.199,1.42l0.029,0.013l2.037-1.797l0.014-0.012l0.357-2.743l0.002-0.02l-1.061-1.531
		l1.055-2.342l0.692-4.075l0.003-0.015l-1.119-2.613l0.812-4.011l1.716-4.304l0.007-0.018l-2.227-5.927l0.513-1.038l-1.417-3.854
		l1.711-4.289l0.815-4.029l0.003-0.015l-1.118-2.608l1.356-4.371l1.323-2.599l0.01-0.021l-1.294-3.028l-1.443-4.553l1.367-3.473
		l0.008-0.021l-2.332-4.522l2.072-4.89l0.252-4.937l0.001-0.013l-1.171-2.66l-0.014-0.029h-0.621l0.491-0.994l-1.417-3.854
		l1.711-4.289l0.815-4.028l0.003-0.015l-1.118-2.609l1.356-4.371l1.323-2.598l0.01-0.021l-1.294-3.029l-1.443-4.553l1.367-3.473
		l0.008-0.021l-2.332-4.522l2.072-4.89l0.252-4.937l0.001-0.013l-1.171-2.659l-0.014-0.029h-0.622l0.492-0.995l-1.417-3.854
		l1.711-4.289l0.815-4.028l0.003-0.015l-1.118-2.609l1.356-4.371l1.323-2.598l0.01-0.021l-1.294-3.028l-1.443-4.554l1.367-3.473
		l0.008-0.021l-2.332-4.522l2.072-4.89l0.252-4.937l0.001-0.013l-1.171-2.659l-0.014-0.029h-0.621l0.491-0.994l-1.417-3.854
		l1.711-4.288l0.815-4.029l0.003-0.015l-1.118-2.609l1.356-4.371l1.323-2.598l0.01-0.021l-1.294-3.028l-1.443-4.554l1.367-3.472
		l0.008-0.021l-2.332-4.523l2.072-4.89l0.252-4.936l0.001-0.013l-1.171-2.66l-0.014-0.029h-0.621l0.491-0.994l-1.417-3.854
		l1.711-4.289l0.815-4.029l0.003-0.015l-1.118-2.608l1.356-4.371l1.323-2.599l0.01-0.021l-1.294-3.028l-1.443-4.553l1.367-3.473
		l0.008-0.021l-2.332-4.522l2.072-4.89l0.252-4.937l0.001-0.013l-1.171-2.66l-0.014-0.029h-0.621l0.491-0.994l-1.417-3.854
		l1.711-4.289l0.815-4.029l0.003-0.015l-1.118-2.608l1.356-4.371l1.323-2.599l0.01-0.021l-1.294-3.028l-1.443-4.553l1.367-3.473
		l0.008-0.021l-2.332-4.522l2.072-4.89l0.252-4.937l0.001-0.013l-1.171-2.66l-0.014-0.029h-0.621l0.491-0.994l-1.417-3.854
		l1.711-4.289l0.815-4.028l0.003-0.015l-1.118-2.609l1.356-4.371l1.323-2.598l0.01-0.021l-1.294-3.029l-1.443-4.553l1.367-3.473
		l0.008-0.021l-2.332-4.523l2.072-4.89l0.252-4.937l0.001-0.012l-1.171-2.66l-0.014-0.03h-0.621l0.481-0.975l0.01-0.019
		l-1.417-3.854l1.711-4.289l0.815-4.029l0.003-0.015l-1.118-2.609l1.356-4.371l1.323-2.598l0.01-0.021l-1.294-3.029l-1.443-4.553
		l1.367-3.472l0.008-0.021l-2.332-4.523l2.072-4.89l0.252-4.937l0.001-0.012l-1.171-2.66l-0.014-0.03h-0.621l0.481-0.976l0.01-0.019
		l-1.417-3.854l1.711-4.289l0.815-4.029l0.003-0.015l-1.118-2.608l1.356-4.371l1.323-2.598l0.01-0.021l-1.294-3.029l-1.443-4.553
		l1.367-3.473l0.008-0.021l-2.332-4.522l2.072-4.89l0.252-4.937l0.001-0.012l-1.171-2.66l-0.014-0.03h-0.621l0.481-0.975l0.01-0.019
		l-1.417-3.854l1.711-4.289l0.815-4.029l0.003-0.015l-1.118-2.608l1.356-4.371l1.323-2.598l0.01-0.021l-1.294-3.029l-1.443-4.553
		l1.367-3.473l0.008-0.021l-2.332-4.523l2.072-4.89l0.252-4.937l0.001-0.012l-1.171-2.66l-0.014-0.03h-0.621l0.481-0.975l0.01-0.019
		l-1.417-3.854l1.711-4.289l0.815-4.029l0.003-0.015l-1.118-2.608l1.356-4.371l1.323-2.598l0.01-0.021l-1.294-3.029l-1.443-4.552
		l1.367-3.473l0.008-0.021l-2.332-4.522l2.072-4.89l0.252-4.937l0.001-0.012l-1.171-2.66l-0.014-0.03h-0.621l0.481-0.976l0.01-0.019
		l-1.417-3.854l1.711-4.289l0.815-4.029l0.003-0.015l-1.118-2.608l1.356-4.371L540.476,108.119z M457.403,693.661v-0.003
		l-53.529,0.003v-0.003l-53.53,0.003v-0.003l-53.529,0.003v-0.003l-53.529,0.003v-0.003l-53.53,0.003v-0.003l-53.529,0.003v-0.003
		l-53.53,0.003v-0.003l-53.527,0.003v-0.002h-2.829v-2.727h0.001l-0.003-50.905h0.003l-0.003-50.904h0.003l-0.003-50.905h0.003
		l-0.003-50.905h0.003l-0.003-50.905h0.003l-0.003-50.905h0.003l-0.003-50.905h0.003l-0.003-50.905h0.003l-0.003-50.905h0.003
		l-0.003-50.905h0.003l-0.003-50.905h0.003l-0.003-50.905h0.003l-0.003-50.902h0.002v-2.829h2.727v0.001h0.05l53.479-0.003v0.003
		h0.05l53.48-0.003v0.003h0.05l53.479-0.003v0.003h0.05l53.48-0.003v0.003h0.05l53.479-0.003v0.003h0.05l53.479-0.003v0.003h0.05
		l53.48-0.003v0.003h0.05l53.479-0.003v0.003h0.05l53.477-0.003v0.002h2.829v2.727h-0.001l0.003,50.905h-0.003l0.003,50.905h-0.003
		l0.003,50.905h-0.003l0.003,50.905h-0.003l0.003,50.905h-0.003l0.003,50.905h-0.003l0.003,50.905h-0.003l0.003,50.905h-0.003
		l0.003,50.905h-0.003l0.003,50.905h-0.003l0.003,50.905h-0.003l0.003,50.904h-0.003l0.003,50.902h-0.002v2.829h-2.727v-0.001
		L457.403,693.661z"/>
</g>
</svg>
