<?xml version="1.0" encoding="utf-8"?>
<!-- Generator: Adobe Illustrator 14.0.0, SVG Export Plug-In . SVG Version: 6.00 Build 43363)  -->
<!DOCTYPE svg PUBLIC "-//W3C//DTD SVG 1.1//EN" "http://www.w3.org/Graphics/SVG/1.1/DTD/svg11.dtd">
<svg version="1.1" id="Nouveau_x5F_22_xA0_Image_1_"
	 xmlns="http://www.w3.org/2000/svg" xmlns:xlink="http://www.w3.org/1999/xlink" x="0px" y="0px" width="729px" height="969px"
	 viewBox="0 0 729 969" style="enable-background:new 0 0 729 969;" xml:space="preserve">
<style type="text/css">
<![CDATA[
	.st0{fill-rule:evenodd;clip-rule:evenodd;fill:none;stroke:#000000;stroke-width:1.9579;stroke-linecap:round;}
	.st1{fill-rule:evenodd;clip-rule:evenodd;fill:none;stroke:#000000;stroke-width:3.4641;stroke-linecap:round;}
	.st2{fill-rule:evenodd;clip-rule:evenodd;fill:none;stroke:#000000;stroke-width:1.5811;stroke-linecap:round;}
	.st3{fill-rule:evenodd;clip-rule:evenodd;fill:none;stroke:#000000;stroke-width:2.49;stroke-linecap:round;}
	.st4{fill-rule:evenodd;clip-rule:evenodd;fill:none;stroke:#000000;stroke-width:2;stroke-linecap:round;}
	.st5{fill:#000000;fill-rule:evenodd;clip-rule:evenodd;}
	.st6{fill-rule:evenodd;clip-rule:evenodd;fill:none;stroke:#000000;stroke-width:1.8974;stroke-linecap:round;}
	.st7{fill-rule:evenodd;clip-rule:evenodd;fill:none;stroke:#000000;stroke-width:3.4902;stroke-linecap:round;}
	.st8{fill-rule:evenodd;clip-rule:evenodd;fill:none;stroke:#000000;stroke-width:1.291;stroke-linecap:round;}
]]>
</style>
<g>
	<g>
		<path class="st5" d="M30,48c-6.964-10.036-18.978-15.022-17-34c16.01-3.244,35.648-0.023,54-2c12.528-1.35,26.038-8.379,37,1
			c10.784-4.014,28.217-2,45-2c146.909,0,300.479,0,449,0c23.644,0,47.635,1.991,69,0c12.709-1.184,25.226-7.952,37-7
			c11.131,0.9,22.534,7.774,19,22c-0.328,5.727-8.729,3.894-13,3c8.152,12.909,5,42.292,5,66c0.001,255.644-0.001,512.926,0,769
			c0,4.195,0.106,8.518,0,13c-0.069,2.914,1.793,8.725-2,11c-3.48-7.834-2-16.601-2-25c0-254.121,0-512.893,0-770
			c0-17.776,1.481-36.887-1-52c-1.082-6.591-5.273-8.905-6-17c2.558-4.247,4.289-1.561,9-1c-5.288-14.689-18.711-8.95-34-8
			c-43.465,2.7-91.766,0-141,0c-114.362,0-234.66,0-351,0c-24.416,0-49.743-3.099-70,0c-6.801,1.041-11.641,5-18,5
			c-6.05,0-10.579-4.146-18-5c-10.058-1.158-26.476,2.844-39,3c-6.386,0.08-11.75-2.911-17,1c-2.615,19.724,16.665,25.922,17,46
			c8.62-7.098-4.362-17.198-2-24c4.333-1.376,11.626,8.139,12,14c0.558,8.752-6.083,10.162-8,17c2.624,3.941,10.493-3.395,10,3
			c-1.085,4.049-12.593,2.961-18,2c3.141-11.426,1.685-21.583-5-28l0.5-1.5L30,48z"/>
		<path class="st5" d="M28.5,49.5L30,50c2.478,0.729-3.301,3.009,0,5l-1.5,0.5L27,56c-3.018,2.286-5.616,9.299-3,14
			c1.163-0.163,1.779,0.221,2,1c3.58-0.42,4.812-3.188,5-7l1.833,0.5L34,63c5.361,11.712-8.204,18.446-19,14
			c-4.168-10.648,3.792-17.433,7-24l1.5,0.5L24,52c0.903-1.763,2.237-3.097,4-4L28.5,49.5z"/>
		<path class="st5" d="M21.5,51.5L21,53c-4.275-1.542-5.097,5.479-7,3c0-5.667,0-11.333,0-17l1.5,0.5L16,38
			c1.607,5.078,11.816,8.746,7,14L21.5,51.5z"/>
		<path class="st5" d="M36,36c-3.647,0.292-7.804-7.512-8-14c4.09-3.414,17.407-2.361,23-1c-0.5,8.146-6.392,15.308-11,20
			c-1.32,1.344-3.657,4.449-6,3c-2.544-4.216,1.575-5.058,3-8l1.5,0.5L38,35c1.882-2.451,3.392-5.274,4-9
			c-1.34-1.784-5.788-3.094-8-1c-0.379,4.379,2.858,5.142,3,9l-1.5,0.5L36,36z"/>
		<path class="st5" d="M688,927c-4.834-0.649-11.796-8.206-12-15c-0.245-8.155,6.326-9.715,9-16c-1.41-2.924-10.247,1.58-10-3
			c-1.1-6.228,4.939,0.484,7-3c3.396,0.271,8.107-0.774,10,1c1.893,6.238-2.653,9.308-2,15c1.836,16.009,30.6,25.558,25,48
			c-18.456,2.973-38.491-0.915-56,2c-5.688,0.947-10.808,3.862-16,4c-7.123,0.188-13.394-2.948-19-5c-3.646,0.354-6.233,1.767-9,3
			c-151.146-1.818-328.702-1-487-1c-23.932,0-47.526-2.199-69,0c-16.543,1.694-36.511,14.519-50,0c-6.662-7.17-6.578-25.023,9-18
			c-7.966-13.873-5-43.301-5-67c0-254.407,0-512.777,0-768c0-4.195-0.106-8.518,0-13c0.069-2.914-1.792-8.725,2-11
			c5.15,5.409,3,14.292,3,24c0,253.847,0,512.095,0,769c0,18.067-2.545,37.626,0,53c1.12,6.765,6.048,9.44,6,18
			c-1.055,4.421-6.389-0.639-8,2c5.371,12.059,19.816,7.438,29,7c36.841-1.754,74.454,0,113,0c123.455,0,251.917,0,378,0
			c25.754,0,52.974,3.369,75,0c5.062-0.774,11.141-4.741,17-5c6.474-0.286,11.754,3.182,19,4c9.172,1.036,20.19-0.607,30-1
			c9.498-0.38,19.271-0.184,27-3c-0.154-20.846-16.601-25.399-18-45c-6.938,7.837,4.306,17.644,3,23l-1.5-0.5L688,927z"/>
		<path class="st5" d="M690.5,927.5L690,926c3.038-6.968,7.424,2.713,2,5l-1.5-0.5l0.5,1.5c-1.825,3.175-4.641,5.359-4,11
			c2.833,1.043,4.167,1.043,7,0c1.944-5.327-4.805-7.129-2-10l1.5,1l1.5-1c2.693,3.307,5.692,6.308,5,13
			c-4.075,3.152-18.925,3.152-23,0c0.624-9.71,7.976-12.691,12-19L690.5,927.5z"/>
		<path class="st5" d="M712,929c-2.826-3.174-5.507-6.493-8-10c1.189-5.145,8.137-4.529,11-8c-0.651,6.852-1.239,11.359,0,18
			l-1.5-0.5L712,929z"/>
		<path class="st5" d="M695,907c-6.501-11.026,3.713-20.342,18-17c4.791,8.712-1.382,15.79-6,22c-2.44,3.282-4.146,8.392-8,8
			c-2.692-4.016,2.566-4.857-1-8l1.3-1.3l0.7-1.7c0.805,0.529,1.623,1.043,3,1c9.314-7.464-6.496-21.274-5-4l-1.833-0.5L695,907z"/>
		<g>
			<path class="st6" d="M31.5,47.5c-1,0.643-2,1.22-3,2"/>
			<path class="st4" d="M23.5,53.5c-0.667-0.667-1.333-1.333-2-2"/>
			<path class="st4" d="M15.5,39.5c-0.292-1.326-0.602-2.289-1.5-3.5"/>
			<path class="st7" d="M32.833,64.5c-0.884-3.262-2.328-6.313-4.333-9"/>
			<path class="st2" d="M35.5,34.5c1,0.643,2,1.22,3,2"/>
			<path class="st0" d="M690.5,930.5c1.451,0.747,2.944,1.643,3,3.5"/>
			<path class="st8" d="M690.5,927.5c-1-0.643-2-1.22-3-2"/>
			<path class="st3" d="M714,931.5c-0.179-1-0.39-2-0.5-3"/>
			<path class="st1" d="M699.3,910.7c-1.674-1.245-2.371-3.342-3.133-5.2"/>
		</g>
	</g>
</g>
</svg>
