<?xml version="1.0" encoding="utf-8"?>
<!-- Generator: Adobe Illustrator 14.0.0, SVG Export Plug-In . SVG Version: 6.00 Build 43363)  -->
<!DOCTYPE svg PUBLIC "-//W3C//DTD SVG 1.1//EN" "http://www.w3.org/Graphics/SVG/1.1/DTD/svg11.dtd">
<svg version="1.1" id="Layer_1" xmlns="http://www.w3.org/2000/svg" xmlns:xlink="http://www.w3.org/1999/xlink" x="0px" y="0px"
	 width="564px" height="782px" viewBox="0 0 564 782" style="enable-background:new 0 0 564 782;" xml:space="preserve">
<style type="text/css">
<![CDATA[
	.st0{fill:#231F20;}
]]>
</style>
<g>
	<path class="st0" d="M281.99,0c-1.66,0-3,1.34-3,3s1.34,3,3,3c1.66,0,3-1.34,3-3S283.649,0,281.99,0z"/>
	<path class="st0" d="M184.95,0c-1.66,0-3,1.34-3,3s1.34,3,3,3c1.66,0,3-1.34,3-3S186.61,0,184.95,0z"/>
	<path class="st0" d="M209.21,0c-1.66,0-3,1.34-3,3s1.34,3,3,3c1.66,0,3-1.34,3-3S210.87,0,209.21,0z"/>
	<path class="st0" d="M160.69,0c-1.66,0-3,1.34-3,3s1.34,3,3,3c1.66,0,3-1.34,3-3S162.35,0,160.69,0z"/>
	<path class="st0" d="M172.82,0c-1.66,0-3,1.34-3,3s1.34,3,3,3s3-1.34,3-3S174.48,0,172.82,0z"/>
	<path class="st0" d="M245.6,0c-1.66,0-3,1.34-3,3s1.34,3,3,3c1.66,0,3-1.34,3-3S247.26,0,245.6,0z"/>
	<path class="st0" d="M257.73,0c-1.66,0-3,1.34-3,3s1.34,3,3,3c1.66,0,3-1.34,3-3S259.39,0,257.73,0z"/>
	<path class="st0" d="M221.34,0c-1.66,0-3,1.34-3,3s1.34,3,3,3s3-1.34,3-3S223,0,221.34,0z"/>
	<path class="st0" d="M269.86,0c-1.66,0-3,1.34-3,3s1.34,3,3,3s3-1.34,3-3S271.52,0,269.86,0z"/>
	<path class="st0" d="M233.47,0c-1.66,0-3,1.34-3,3s1.34,3,3,3c1.66,0,3-1.34,3-3S235.13,0,233.47,0z"/>
	<path class="st0" d="M148.56,0c-1.66,0-3,1.34-3,3s1.34,3,3,3c1.66,0,3-1.34,3-3S150.22,0,148.56,0z"/>
	<path class="st0" d="M197.08,0c-1.66,0-3,1.34-3,3s1.34,3,3,3c1.66,0,3-1.34,3-3S198.74,0,197.08,0z"/>
	<path class="st0" d="M75.78,0c-1.66,0-3,1.34-3,3s1.34,3,3,3s3-1.34,3-3S77.44,0,75.78,0z"/>
	<path class="st0" d="M136.43,0c-1.66,0-3,1.34-3,3s1.34,3,3,3c1.66,0,3-1.34,3-3S138.09,0,136.43,0z"/>
	<path class="st0" d="M63.65,0c-1.66,0-3,1.34-3,3s1.34,3,3,3s3-1.34,3-3S65.31,0,63.65,0z"/>
	<path class="st0" d="M39.39,0c-1.66,0-3,1.34-3,3s1.34,3,3,3c1.66,0,3-1.34,3-3S41.05,0,39.39,0z"/>
	<path class="st0" d="M27.26,0c-1.66,0-3,1.34-3,3s1.34,3,3,3s3-1.34,3-3S28.92,0,27.26,0z"/>
	<path class="st0" d="M51.52,0c-1.66,0-3,1.34-3,3s1.34,3,3,3c1.66,0,3-1.34,3-3S53.18,0,51.52,0z"/>
	<path class="st0" d="M124.3,0c-1.66,0-3,1.34-3,3s1.34,3,3,3s3-1.34,3-3S125.96,0,124.3,0z"/>
	<path class="st0" d="M112.17,0c-1.66,0-3,1.34-3,3s1.34,3,3,3c1.66,0,3-1.34,3-3S113.83,0,112.17,0z"/>
	<path class="st0" d="M100.04,0c-1.66,0-3,1.34-3,3s1.34,3,3,3c1.66,0,3-1.34,3-3S101.7,0,100.04,0z"/>
	<path class="st0" d="M87.91,0c-1.66,0-3,1.34-3,3s1.34,3,3,3c1.66,0,3-1.34,3-3S89.57,0,87.91,0z"/>
	<path class="st0" d="M15.13,0c-1.66,0-3,1.34-3,3s1.34,3,3,3s3-1.34,3-3S16.79,0,15.13,0z"/>
	<path class="st0" d="M294.12,0c-1.66,0-3,1.34-3,3s1.34,3,3,3s3-1.34,3-3S295.78,0,294.12,0z"/>
	<path class="st0" d="M463.939,0c-1.659,0-3,1.34-3,3s1.341,3,3,3c1.66,0,3-1.34,3-3S465.6,0,463.939,0z"/>
	<path class="st0" d="M451.81,0c-1.66,0-3,1.34-3,3s1.34,3,3,3s3-1.34,3-3S453.47,0,451.81,0z"/>
	<path class="st0" d="M439.68,0c-1.66,0-3,1.34-3,3s1.34,3,3,3s3-1.34,3-3S441.34,0,439.68,0z"/>
	<path class="st0" d="M427.55,0c-1.66,0-3,1.34-3,3s1.34,3,3,3s3-1.34,3-3S429.21,0,427.55,0z"/>
	<path class="st0" d="M488.2,0c-1.66,0-3,1.34-3,3s1.34,3,3,3c1.649,0,3-1.34,3-3S489.85,0,488.2,0z"/>
	<path class="st0" d="M500.33,0c-1.66,0-3,1.34-3,3s1.34,3,3,3c1.649,0,3-1.34,3-3S501.979,0,500.33,0z"/>
	<path class="st0" d="M548.85,0c-1.66,0-3,1.34-3,3s1.34,3,3,3s3-1.34,3-3S550.51,0,548.85,0z"/>
	<path class="st0" d="M536.72,0c-1.66,0-3,1.34-3,3s1.34,3,3,3s3-1.34,3-3S538.38,0,536.72,0z"/>
	<path class="st0" d="M524.59,0c-1.66,0-3,1.34-3,3s1.34,3,3,3s3-1.34,3-3S526.25,0,524.59,0z"/>
	<path class="st0" d="M512.46,0c-1.66,0-3,1.34-3,3s1.34,3,3,3s3-1.34,3-3S514.12,0,512.46,0z"/>
	<path class="st0" d="M476.069,0c-1.659,0-3,1.34-3,3s1.341,3,3,3c1.66,0,3-1.34,3-3S477.729,0,476.069,0z"/>
	<path class="st0" d="M342.64,0c-1.66,0-3,1.34-3,3s1.34,3,3,3s3-1.34,3-3S344.3,0,342.64,0z"/>
	<path class="st0" d="M330.51,0c-1.66,0-3,1.34-3,3s1.34,3,3,3s3-1.34,3-3S332.17,0,330.51,0z"/>
	<path class="st0" d="M354.77,0c-1.66,0-3,1.34-3,3s1.34,3,3,3s3-1.34,3-3S356.43,0,354.77,0z"/>
	<path class="st0" d="M318.38,0c-1.66,0-3,1.34-3,3s1.34,3,3,3s3-1.34,3-3S320.04,0,318.38,0z"/>
	<path class="st0" d="M306.25,0c-1.66,0-3,1.34-3,3s1.34,3,3,3s3-1.34,3-3S307.91,0,306.25,0z"/>
	<path class="st0" d="M403.29,0c-1.66,0-3,1.34-3,3s1.34,3,3,3c1.649,0,3-1.34,3-3S404.939,0,403.29,0z"/>
	<path class="st0" d="M366.899,0c-1.659,0-3,1.34-3,3s1.341,3,3,3c1.66,0,3-1.34,3-3S368.56,0,366.899,0z"/>
	<path class="st0" d="M391.16,0c-1.66,0-3,1.34-3,3s1.34,3,3,3c1.649,0,3-1.34,3-3S392.81,0,391.16,0z"/>
	<path class="st0" d="M415.42,0c-1.66,0-3,1.34-3,3s1.34,3,3,3s3-1.34,3-3S417.08,0,415.42,0z"/>
	<path class="st0" d="M379.03,0c-1.66,0-3,1.34-3,3s1.34,3,3,3c1.659,0,3-1.34,3-3S380.689,0,379.03,0z"/>
	<path class="st0" d="M563.12,0.88c-1.12-1.12-3.13-1.12-4.24,0C558.319,1.44,558,2.21,558,3s0.319,1.561,0.88,2.119
		C559.439,5.68,560.21,6,561,6s1.56-0.32,2.12-0.881C563.68,4.561,564,3.79,564,3S563.68,1.44,563.12,0.88z"/>
	<path class="st0" d="M0.88,0.88C0.32,1.44,0,2.21,0,3s0.32,1.561,0.88,2.119C1.44,5.68,2.21,6,3,6s1.56-0.32,2.12-0.881
		C5.68,4.561,6,3.79,6,3S5.68,1.44,5.12,0.88C4-0.24,1.99-0.24,0.88,0.88z"/>
</g>
<g>
	<path class="st0" d="M281.99,776c-1.66,0-3,1.34-3,3s1.34,3,3,3c1.66,0,3-1.34,3-3S283.649,776,281.99,776z"/>
	<path class="st0" d="M184.95,776c-1.66,0-3,1.34-3,3s1.34,3,3,3c1.66,0,3-1.34,3-3S186.61,776,184.95,776z"/>
	<path class="st0" d="M209.21,776c-1.66,0-3,1.34-3,3s1.34,3,3,3c1.66,0,3-1.34,3-3S210.87,776,209.21,776z"/>
	<path class="st0" d="M160.69,776c-1.66,0-3,1.34-3,3s1.34,3,3,3c1.66,0,3-1.34,3-3S162.35,776,160.69,776z"/>
	<path class="st0" d="M172.82,776c-1.66,0-3,1.34-3,3s1.34,3,3,3s3-1.34,3-3S174.48,776,172.82,776z"/>
	<path class="st0" d="M245.6,776c-1.66,0-3,1.34-3,3s1.34,3,3,3c1.66,0,3-1.34,3-3S247.26,776,245.6,776z"/>
	<path class="st0" d="M257.73,776c-1.66,0-3,1.34-3,3s1.34,3,3,3c1.66,0,3-1.34,3-3S259.39,776,257.73,776z"/>
	<path class="st0" d="M221.34,776c-1.66,0-3,1.34-3,3s1.34,3,3,3s3-1.34,3-3S223,776,221.34,776z"/>
	<path class="st0" d="M269.86,776c-1.66,0-3,1.34-3,3s1.34,3,3,3s3-1.34,3-3S271.52,776,269.86,776z"/>
	<path class="st0" d="M233.47,776c-1.66,0-3,1.34-3,3s1.34,3,3,3c1.66,0,3-1.34,3-3S235.13,776,233.47,776z"/>
	<path class="st0" d="M148.56,776c-1.66,0-3,1.34-3,3s1.34,3,3,3c1.66,0,3-1.34,3-3S150.22,776,148.56,776z"/>
	<path class="st0" d="M197.08,776c-1.66,0-3,1.34-3,3s1.34,3,3,3c1.66,0,3-1.34,3-3S198.74,776,197.08,776z"/>
	<path class="st0" d="M75.78,776c-1.66,0-3,1.34-3,3s1.34,3,3,3s3-1.34,3-3S77.44,776,75.78,776z"/>
	<path class="st0" d="M136.43,776c-1.66,0-3,1.34-3,3s1.34,3,3,3c1.66,0,3-1.34,3-3S138.09,776,136.43,776z"/>
	<path class="st0" d="M63.65,776c-1.66,0-3,1.34-3,3s1.34,3,3,3s3-1.34,3-3S65.31,776,63.65,776z"/>
	<path class="st0" d="M39.39,776c-1.66,0-3,1.34-3,3s1.34,3,3,3c1.66,0,3-1.34,3-3S41.05,776,39.39,776z"/>
	<path class="st0" d="M27.26,776c-1.66,0-3,1.34-3,3s1.34,3,3,3s3-1.34,3-3S28.92,776,27.26,776z"/>
	<path class="st0" d="M51.52,776c-1.66,0-3,1.34-3,3s1.34,3,3,3c1.66,0,3-1.34,3-3S53.18,776,51.52,776z"/>
	<path class="st0" d="M124.3,776c-1.66,0-3,1.34-3,3s1.34,3,3,3s3-1.34,3-3S125.96,776,124.3,776z"/>
	<path class="st0" d="M112.17,776c-1.66,0-3,1.34-3,3s1.34,3,3,3c1.66,0,3-1.34,3-3S113.83,776,112.17,776z"/>
	<path class="st0" d="M100.04,776c-1.66,0-3,1.34-3,3s1.34,3,3,3c1.66,0,3-1.34,3-3S101.7,776,100.04,776z"/>
	<path class="st0" d="M87.91,776c-1.66,0-3,1.34-3,3s1.34,3,3,3c1.66,0,3-1.34,3-3S89.57,776,87.91,776z"/>
	<path class="st0" d="M15.13,776c-1.66,0-3,1.34-3,3s1.34,3,3,3s3-1.34,3-3S16.79,776,15.13,776z"/>
	<path class="st0" d="M294.12,776c-1.66,0-3,1.34-3,3s1.34,3,3,3s3-1.34,3-3S295.78,776,294.12,776z"/>
	<path class="st0" d="M463.939,776c-1.659,0-3,1.34-3,3s1.341,3,3,3c1.66,0,3-1.34,3-3S465.6,776,463.939,776z"/>
	<path class="st0" d="M451.81,776c-1.66,0-3,1.34-3,3s1.34,3,3,3s3-1.34,3-3S453.47,776,451.81,776z"/>
	<path class="st0" d="M439.68,776c-1.66,0-3,1.34-3,3s1.34,3,3,3s3-1.34,3-3S441.34,776,439.68,776z"/>
	<path class="st0" d="M427.55,776c-1.66,0-3,1.34-3,3s1.34,3,3,3s3-1.34,3-3S429.21,776,427.55,776z"/>
	<path class="st0" d="M488.2,776c-1.66,0-3,1.34-3,3s1.34,3,3,3c1.649,0,3-1.34,3-3S489.85,776,488.2,776z"/>
	<path class="st0" d="M500.33,776c-1.66,0-3,1.34-3,3s1.34,3,3,3c1.649,0,3-1.34,3-3S501.979,776,500.33,776z"/>
	<path class="st0" d="M548.85,776c-1.66,0-3,1.34-3,3s1.34,3,3,3s3-1.34,3-3S550.51,776,548.85,776z"/>
	<path class="st0" d="M536.72,776c-1.66,0-3,1.34-3,3s1.34,3,3,3s3-1.34,3-3S538.38,776,536.72,776z"/>
	<path class="st0" d="M524.59,776c-1.66,0-3,1.34-3,3s1.34,3,3,3s3-1.34,3-3S526.25,776,524.59,776z"/>
	<path class="st0" d="M512.46,776c-1.66,0-3,1.34-3,3s1.34,3,3,3s3-1.34,3-3S514.12,776,512.46,776z"/>
	<path class="st0" d="M476.069,776c-1.659,0-3,1.34-3,3s1.341,3,3,3c1.66,0,3-1.34,3-3S477.729,776,476.069,776z"/>
	<path class="st0" d="M342.64,776c-1.66,0-3,1.34-3,3s1.34,3,3,3s3-1.34,3-3S344.3,776,342.64,776z"/>
	<path class="st0" d="M330.51,776c-1.66,0-3,1.34-3,3s1.34,3,3,3s3-1.34,3-3S332.17,776,330.51,776z"/>
	<path class="st0" d="M354.77,776c-1.66,0-3,1.34-3,3s1.34,3,3,3s3-1.34,3-3S356.43,776,354.77,776z"/>
	<path class="st0" d="M318.38,776c-1.66,0-3,1.34-3,3s1.34,3,3,3s3-1.34,3-3S320.04,776,318.38,776z"/>
	<path class="st0" d="M306.25,776c-1.66,0-3,1.34-3,3s1.34,3,3,3s3-1.34,3-3S307.91,776,306.25,776z"/>
	<path class="st0" d="M403.29,776c-1.66,0-3,1.34-3,3s1.34,3,3,3c1.649,0,3-1.34,3-3S404.939,776,403.29,776z"/>
	<path class="st0" d="M366.899,776c-1.659,0-3,1.34-3,3s1.341,3,3,3c1.66,0,3-1.34,3-3S368.56,776,366.899,776z"/>
	<path class="st0" d="M391.16,776c-1.66,0-3,1.34-3,3s1.34,3,3,3c1.649,0,3-1.34,3-3S392.81,776,391.16,776z"/>
	<path class="st0" d="M415.42,776c-1.66,0-3,1.34-3,3s1.34,3,3,3s3-1.34,3-3S417.08,776,415.42,776z"/>
	<path class="st0" d="M379.03,776c-1.66,0-3,1.34-3,3s1.34,3,3,3c1.659,0,3-1.34,3-3S380.689,776,379.03,776z"/>
	<path class="st0" d="M563.12,776.88c-1.12-1.12-3.13-1.12-4.24,0c-0.561,0.561-0.88,1.33-0.88,2.12s0.319,1.561,0.88,2.119
		c0.56,0.561,1.33,0.881,2.12,0.881s1.56-0.32,2.12-0.881c0.56-0.559,0.88-1.329,0.88-2.119S563.68,777.44,563.12,776.88z"/>
	<path class="st0" d="M0.88,776.88C0.32,777.44,0,778.21,0,779s0.32,1.561,0.88,2.119C1.44,781.68,2.21,782,3,782
		s1.56-0.32,2.12-0.881C5.68,780.561,6,779.79,6,779s-0.32-1.56-0.88-2.12C4,775.76,1.99,775.76,0.88,776.88z"/>
</g>
</svg>
