<?xml version="1.0" encoding="utf-8"?>
<!-- Generator: Adobe Illustrator 14.0.0, SVG Export Plug-In . SVG Version: 6.00 Build 43363)  -->
<!DOCTYPE svg PUBLIC "-//W3C//DTD SVG 1.1//EN" "http://www.w3.org/Graphics/SVG/1.1/DTD/svg11.dtd">
<svg version="1.1" id="Nouveau_x5F_2_xA0_Image_1_" xmlns="http://www.w3.org/2000/svg" xmlns:xlink="http://www.w3.org/1999/xlink"
	 x="0px" y="0px" width="729px" height="969px" viewBox="0 0 729 969" style="enable-background:new 0 0 729 969;"
	 xml:space="preserve">
<style type="text/css">
<![CDATA[
	.st0{fill-rule:evenodd;clip-rule:evenodd;fill:none;stroke:#000000;stroke-width:1.7321;stroke-linecap:round;}
	.st1{fill-rule:evenodd;clip-rule:evenodd;fill:none;stroke:#000000;stroke-width:1.9494;stroke-linecap:round;}
	.st2{fill-rule:evenodd;clip-rule:evenodd;fill:none;stroke:#000000;stroke-width:2.6833;stroke-linecap:round;}
	.st3{fill-rule:evenodd;clip-rule:evenodd;fill:none;stroke:#000000;stroke-width:2.3585;stroke-linecap:round;}
	.st4{fill-rule:evenodd;clip-rule:evenodd;fill:none;stroke:#000000;stroke-width:1.1952;stroke-linecap:round;}
	.st5{fill-rule:evenodd;clip-rule:evenodd;fill:none;stroke:#000000;stroke-width:2.1448;stroke-linecap:round;}
	.st6{fill-rule:evenodd;clip-rule:evenodd;fill:none;stroke:#000000;stroke-width:1.5584;stroke-linecap:round;}
	.st7{fill-rule:evenodd;clip-rule:evenodd;fill:none;stroke:#000000;stroke-width:2.5268;stroke-linecap:round;}
	.st8{fill-rule:evenodd;clip-rule:evenodd;fill:none;stroke:#000000;stroke-width:3.0848;stroke-linecap:round;}
	.st9{fill-rule:evenodd;clip-rule:evenodd;fill:none;stroke:#000000;stroke-width:2.7865;stroke-linecap:round;}
	.st10{fill-rule:evenodd;clip-rule:evenodd;fill:none;stroke:#000000;stroke-width:2.5316;stroke-linecap:round;}
	.st11{fill-rule:evenodd;clip-rule:evenodd;fill:none;stroke:#000000;stroke-width:3.0802;stroke-linecap:round;}
	.st12{fill-rule:evenodd;clip-rule:evenodd;fill:none;stroke:#000000;stroke-width:2.7798;stroke-linecap:round;}
	.st13{fill-rule:evenodd;clip-rule:evenodd;fill:none;stroke:#000000;stroke-width:2;stroke-linecap:round;}
	.st14{fill-rule:evenodd;clip-rule:evenodd;fill:none;stroke:#000000;stroke-width:2.2583;stroke-linecap:round;}
	.st15{fill-rule:evenodd;clip-rule:evenodd;fill:none;stroke:#000000;stroke-width:1.0247;stroke-linecap:round;}
	.st16{fill-rule:evenodd;clip-rule:evenodd;fill:none;stroke:#000000;stroke-width:1.9415;stroke-linecap:round;}
	.st17{fill-rule:evenodd;clip-rule:evenodd;fill:none;stroke:#000000;stroke-width:1.893;stroke-linecap:round;}
	.st18{fill-rule:evenodd;clip-rule:evenodd;fill:none;stroke:#000000;stroke-width:1.9039;stroke-linecap:round;}
	.st19{fill-rule:evenodd;clip-rule:evenodd;fill:none;stroke:#000000;stroke-width:2.5203;stroke-linecap:round;}
	.st20{fill-rule:evenodd;clip-rule:evenodd;fill:none;stroke:#000000;stroke-width:3.4976;stroke-linecap:round;}
	.st21{fill-rule:evenodd;clip-rule:evenodd;fill:none;stroke:#000000;stroke-width:2.0817;stroke-linecap:round;}
	.st22{fill-rule:evenodd;clip-rule:evenodd;fill:none;stroke:#000000;stroke-width:2.8395;stroke-linecap:round;}
	.st23{fill-rule:evenodd;clip-rule:evenodd;fill:none;stroke:#000000;stroke-width:2.6043;stroke-linecap:round;}
	.st24{fill:#000000;fill-rule:evenodd;clip-rule:evenodd;}
	.st25{fill-rule:evenodd;clip-rule:evenodd;fill:none;stroke:#000000;stroke-width:1.8397;stroke-linecap:round;}
	.st26{fill-rule:evenodd;clip-rule:evenodd;fill:none;stroke:#000000;stroke-width:1.6833;stroke-linecap:round;}
	.st27{fill-rule:evenodd;clip-rule:evenodd;fill:none;stroke:#000000;stroke-width:1.9052;stroke-linecap:round;}
	.st28{fill-rule:evenodd;clip-rule:evenodd;fill:none;stroke:#000000;stroke-width:1.8974;stroke-linecap:round;}
	.st29{fill-rule:evenodd;clip-rule:evenodd;fill:none;stroke:#000000;stroke-width:2.7689;stroke-linecap:round;}
	.st30{fill-rule:evenodd;clip-rule:evenodd;fill:none;stroke:#000000;stroke-width:1.9306;stroke-linecap:round;}
	.st31{fill-rule:evenodd;clip-rule:evenodd;fill:none;stroke:#000000;stroke-width:1.8898;stroke-linecap:round;}
	.st32{fill-rule:evenodd;clip-rule:evenodd;fill:none;stroke:#000000;stroke-width:3.4629;stroke-linecap:round;}
	.st33{fill-rule:evenodd;clip-rule:evenodd;fill:none;stroke:#000000;stroke-width:2.273;stroke-linecap:round;}
	.st34{fill-rule:evenodd;clip-rule:evenodd;fill:none;stroke:#000000;stroke-width:1.6291;stroke-linecap:round;}
	.st35{fill-rule:evenodd;clip-rule:evenodd;fill:none;stroke:#000000;stroke-width:2.2361;stroke-linecap:round;}
	.st36{fill-rule:evenodd;clip-rule:evenodd;fill:none;stroke:#000000;stroke-width:1.1832;stroke-linecap:round;}
	.st37{fill-rule:evenodd;clip-rule:evenodd;fill:none;stroke:#000000;stroke-width:2.0494;stroke-linecap:round;}
	.st38{fill-rule:evenodd;clip-rule:evenodd;fill:none;stroke:#000000;stroke-width:2.5166;stroke-linecap:round;}
	.st39{fill-rule:evenodd;clip-rule:evenodd;fill:none;stroke:#000000;stroke-width:2.7889;stroke-linecap:round;}
]]>
</style>
<g>
	<g>
		<path class="st24" d="M703,11c6.381-3.816,19.01-8.234,21,2c-3.94,2.06-8.675,3.326-14,4c-4.324,1.342-3.277,8.056-7,10
			c-4.368,0.035-9.035,0.369-11-2c-0.097-7.764,5.56-9.773,10-13l1.5,0.5L703,11z"/>
		<path class="st24" d="M38,25c-3.282,1.385-6.976,2.357-12,2c-2.16-8.84-10.307-11.693-20-13c0.313-4.02,2.392-6.274,5-8
			C23.471,8.862,35.163,12.504,38,25z"/>
		<path class="st24" d="M34,10c2.487,0.15,0.292,3.386,0,4C31.513,13.85,33.708,10.614,34,10z"/>
		<path class="st24" d="M694,10c1.759,0.241,2.279,1.721,2,4C694.658,13.342,694.138,11.862,694,10z"/>
		<path class="st24" d="M46,12C48.584,8.557,48.416,17.143,46,12L46,12z"/>
		<path class="st24" d="M681,12c1.513-3.53,1.896,1.842,1,2C681.409,14.104,680.744,12.596,681,12z"/>
		<path class="st24" d="M20,19c2.241,1.759,2.002,5.998,4,8c-7.933,1.92-18.552-2.105-20-10C8.818,12.713,13.477,19.132,20,19z"/>
		<path class="st24" d="M725,16c-0.169,10.164-9.904,10.762-19,12c0.08-3.92,1.763-6.237,3-9C715.193,18.892,719.907,14.135,725,16z
			"/>
		<path class="st24" d="M41,31c0.705-14.454,25.131-13.6,26,0C60.136,27.654,47.508,26.499,41,31z"/>
		<path class="st24" d="M662,31c1.911-10.184,12.549-12.59,23-9c0.142,3.858,3.379,4.621,3,9C681.606,26.134,668.885,27.989,662,31z
			"/>
		<path class="st24" d="M28,35c-3.919-0.141-2.919-4.485-2-7C27.817,29.183,26.786,33.214,28,35z"/>
		<path class="st24" d="M36,35c0.388,5.279,4.925,6.408,8,9c-2.05,13.937-16.585-0.598-10-10l0.5,1.5L36,35z"/>
		<path class="st24" d="M696,37c4.682,7.839-8.164,19.162-11,8c2.111-3.888,7.123-4.877,9-9l0.5,1.5L696,37z"/>
		<path class="st24" d="M702,28c3.739-0.815,1.851,6.165,1,7C700.764,34.569,702.595,30.072,702,28z"/>
		<path class="st24" d="M51,38c-4.955,6.387-16.457,1.127-14-9C40.535,33.132,48.905,32.428,51,38z"/>
		<path class="st24" d="M67,33c-3.092,8.926-17.684,5.979-19-3C54.647,26.956,62.525,30.61,67,33z"/>
		<path class="st24" d="M681,29c0.771,8.892-14.658,13.35-19,5C666.012,30.012,672.282,28.282,681,29z"/>
		<path class="st24" d="M692,34c-0.26,6.132-8.444,9.025-13,5c0.812-4.678,5.262-8.236,10-6l1.214,1.357L692,34z"/>
		<path class="st24" d="M32,54c3.067,3.266,4.096,8.571,5,14c-2.395,0.605-4.563,1.438-8,1c-1.694-2.934,2.21-7.376,1-13l1.5-0.5
			L32,54z"/>
		<path class="st24" d="M700,54c-0.722,5.9-0.6,8.727,1,14c-1.455,1.47-6.545,1.47-8,0c-0.262-7.262,2.39-11.61,5-16l0.5,1.5L700,54
			z"/>
		<path class="st24" d="M27,53c2.669,5.983,1.946,13.888-3,17c-8.527-2.76-0.871-10.965,0-16l1.833,0.5L27,53z"/>
		<path class="st24" d="M52,49c2.647,3.02,5.191,6.142,7,10c-1.786,4.801-4.908,11.603-11,9c0.437-6.23,2.926-10.407,2-18l1.5,0.5
			L52,49z"/>
		<path class="st24" d="M674,46c1.945,1.369,0.263,7.529-3,7C670.558,49.225,672.972,48.305,674,46z"/>
		<path class="st24" d="M679,51c-0.178,6.844,1.88,11.454,3,17c-8.504,1.837-8.971-4.362-12-8c0.479-4.522,4.076-5.924,6-9l1.5,0.5
			L679,51z"/>
		<path class="st24" d="M705,55c1.271,3.396,3.551,5.783,5,9c-0.366,2.967-1.733,4.933-4,6c-4.788-0.901-6.576-10.061-4-15l1.5,0.5
			L705,55z"/>
		<path class="st24" d="M683,54c2.342,2.325,6.671,2.662,8,6c0.011,4.345-1.479,7.188-5,8c-4.994-1.006-4.61-7.39-5-13l1.5,0.5
			L683,54z"/>
		<path class="st24" d="M8,48c3.596,1.071,6.202,3.131,9,5c3.869,1.108,3.558-3.535,6-1c0.333,8.333-6.114,9.886-15,9
			C6.803,57.319,4.409,50.672,8,48z"/>
		<path class="st24" d="M48,53c2.538,4.241-1.978,9.995-2,15c-6.536,1.202-6.895-3.772-8-8c2.153-2.514,5.257-4.076,8-6l1.5,0.5
			L48,53z"/>
		<path class="st24" d="M723,49c0.051,5.331-0.457,8.56-1,11c-7.007,2.775-17.632,1.135-15-9C712.634,57.251,717.579,46.04,723,49z"
			/>
		<path class="st24" d="M45,50c0.084,5.573-5.78,7.717-10,6c0-1.667,0-3.333,0-5C37.305,51.562,43.43,49.272,45,50z"/>
		<path class="st24" d="M693,57c-4.8-0.534-8.473-2.194-9-7C687.323,50.388,699.442,49.357,693,57z"/>
		<path class="st24" d="M17,62c0.909,2.441,3.499,6.207,2,8c-1.454,1.546-5.119,0.881-8,1c-0.831-2.503-2.74-3.927-3-7
			C9.265,61.599,15.885,64.552,17,62z"/>
		<path class="st24" d="M711,62c1.893,1.774,6.604,0.729,10,1c0.651,4.318-1.728,5.605-3,8c-2.881-0.119-6.546,0.546-8-1
			C709.78,66.78,711.769,65.769,711,62z"/>
		<path class="st24" d="M9,73c1.831,275.308,1,557.575,1,836c0,4.479,0.116,9.469,0,14c-0.086,3.367,1.805,8.672-2,11
			c-3.774-2.54-1.936-8.524-2-12C3.461,785.042,6,643.598,6,505C6,361.154,6,216.926,6,74l1.833,0.5L9,73z"/>
		<path class="st24" d="M708,944c4.271-3.063,6.291-8.375,14-8c3.152,4.02,2.404,15.557,1,21c-236.339,1.667-479.66,1.667-716,0
			c-2.125-4.209-0.485-12.182-1-18c2.845-7.277,12.146,0.747,14,4l-1.5,1.167L19,946c-3.236-0.569-5.03,0.304-6,2
			c0.331,9.309,12.032,5.974,17,6c199.974,1.075,398.669,0,602,0c18.012,0,42.149,0,67,0c6.716,0,18.636,2.553,17-5
			c-0.771-3.563-2.449-3.703-7-2l0.357-1.786L708,944z"/>
		<g>
			<path class="st32" d="M29.167,9.167c4.548-0.884,10.487-5.201,14.488-0.963c1.864,2.881-3.149,4.503-1.485,7.306
				c2.777,1.304,4.25,2.229,8.331,2.326c83.469,1.984,171.636-2.859,260.565-0.781C418.068,19.555,524.763,15.937,632.5,17"/>
			<path class="st34" d="M632.5,17c-0.056-1.037,0.066-2.043,0.319-3.026c2.962-2.728,7.048-2.108,10.681-1.474"/>
			<path class="st20" d="M632.5,17c18.254-1.619,38.107,3.16,54.976-2.016c-0.271-2.442-2.538-4.685-1.586-7.176
				c5.293-3.333,14.052,0.18,17.61,4.691"/>
			<path class="st0" d="M49.5,8.5c1.62,0.995,3.39,2.118,4,4"/>
			<path class="st31" d="M677,11c1.405-1.477,2.204-1.741,3-2"/>
			<path class="st4" d="M689.5,19.5c-0.015,1.318-0.756,1.911-1,3"/>
			<path class="st36" d="M686.5,19.5c1,0,2,0,3,0"/>
			<path class="st18" d="M689.5,19.5c2.158-1.588,3.674-5.552,1.667-7.667"/>
			<path class="st26" d="M86.5,12.5c2.977-1.35,6.411-1.215,9,1"/>
			<path class="st27" d="M64.5,21.5c3.679,3.094,9.247,3.316,13.5,1.5"/>
			<path class="st13" d="M97.5,24c1.204,0.064,2.058-0.84,2.5-1.5"/>
			<path class="st1" d="M630,23c0.821,0.701,1.61,0.763,2.5,1"/>
			<path class="st21" d="M650.5,22c4.211,3.769,10.715,2.158,15-0.5"/>
			<path class="st8" d="M7.5,43.5c0-5,0-10,0-15"/>
			<path class="st8" d="M721.5,43.5c0-5,0-10,0-15"/>
			<path class="st17" d="M18,48c-0.166,0.002-0.332,0.004-0.497,0.006C12.642,44.41,12.197,36.951,14,31.5"/>
			<path class="st6" d="M34.5,35.5c0.952-1.389-0.757-3.139,0.5-4.5"/>
			<path class="st25" d="M694.5,37.5c1.129-2.282,0.044-4.667,0-7"/>
			<path class="st16" d="M711.5,48.5c6.111-3.578,4.264-11.432,4.5-17.5"/>
			<path class="st29" d="M690.214,34.357c0.236-0.628,0.592-1.406,0.953-2.19"/>
			<path class="st10" d="M698.5,45.5c3.176-4.254,0.728-8.917-0.5-13.5"/>
			<path class="st39" d="M671.5,46.5c0.9-4.834,6.546-4.962,10-3"/>
			<path class="st3" d="M31.5,55.5c-1.675-3-2.378-6.339-4.5-9"/>
			<path class="st33" d="M698.5,53.5c1.439-2.427,2.619-4.747,3.667-7.333"/>
			<path class="st2" d="M25.833,54.5c-0.583-1.993-0.11-4.527-1.833-6"/>
			<path class="st37" d="M51.5,50.5c-1.211-1.589-1.338-2.087-2-3"/>
			<path class="st38" d="M679.5,47.5c-0.378,0.744-1.562,2.403-2,4"/>
			<path class="st7" d="M703.5,55.5c-0.086-2.526,0.741-4.781,1.5-7"/>
			<path class="st30" d="M682.5,55.5c-0.863-1.926-0.462-4.054,0-6"/>
			<path class="st5" d="M47.5,54.5c-0.351-1-0.382-2-0.5-3"/>
			<path class="st12" d="M7.833,74.5C7.514,72.342,7.258,70.17,7,68"/>
			<path class="st11" d="M721.5,930.5c0.333-287.153-0.667-574.42,0.5-861.5"/>
			<path class="st22" d="M18.5,944.167c3.73,1.862,6.983,4.539,10.333,7"/>
			<path class="st9" d="M709.357,945.214c-3.505,1.343-5.867,4.353-9.19,5.953"/>
			<path class="st14" d="M40,960c4.595,1.317,9.951,4.723,14.833,1.833"/>
			<path class="st35" d="M675.167,961.833c4.45,2.756,9.643-0.441,13.833-1.833"/>
			<path class="st28" d="M38.167,12.167c-0.291,0.4-0.587,0.683-0.883,0.96c-1.05,2.413,1.041,4.484,2.216,6.374"/>
			<path class="st36" d="M39.5,19.5c1,0,2,0,3,0"/>
			<path class="st15" d="M39.5,19.5c0.357,1,0.78,2,1,3"/>
			<path class="st23" d="M31.5,45.5c-0.235-0.101-0.47-0.202-0.705-0.303c-2.372-4.106-1.034-8.868,0.371-13.031"/>
			<path class="st19" d="M48.5,43.5c1.232-0.963,2.9-0.912,4.316-1.452c3.2-0.467,3.936,2.818,5.485,4.668
				c0.295,1.621-1.215,3.157-1.976,3.008c-0.194-0.304-0.479-0.788-0.825-1.224"/>
		</g>
	</g>
</g>
</svg>
