<?xml version="1.0" encoding="utf-8"?>
<!-- Generator: Adobe Illustrator 14.0.0, SVG Export Plug-In . SVG Version: 6.00 Build 43363)  -->
<!DOCTYPE svg PUBLIC "-//W3C//DTD SVG 1.1//EN" "http://www.w3.org/Graphics/SVG/1.1/DTD/svg11.dtd">
<svg version="1.1" id="Layer_1" xmlns="http://www.w3.org/2000/svg" xmlns:xlink="http://www.w3.org/1999/xlink" x="0px" y="0px"
	 width="90%" height="8px" viewBox="0 0 198 8" style="enable-background:new 0 0 198 8;" xml:space="preserve">
<style type="text/css">
	{`.st0{fill:#361313; fill-opacity: 1; stroke-opacity: 1;}`}

</style>
<path class="st0" d="M198,4l-4.316-4l-4.117,3.815L185.45,0l-4.116,3.814L177.217,0L173.1,3.814L168.983,0l-4.116,3.814L160.75,0
	l-4.117,3.814L152.517,0L148.4,3.814L144.283,0l-4.117,3.814L136.05,0l-4.116,3.815L127.816,0L123.7,3.815L119.584,0l-4.117,3.814
	L111.35,0l-4.116,3.814L103.117,0L99,3.814L94.883,0l-4.117,3.814L86.65,0l-4.117,3.814L78.417,0L74.3,3.815L70.183,0l-4.117,3.815
	L61.95,0l-4.117,3.815L53.717,0L49.6,3.814L45.483,0l-4.117,3.814L37.25,0l-4.117,3.814L29.017,0L24.9,3.814L20.783,0l-4.117,3.814
	L12.55,0L8.434,3.815L4.316,0L0,4l4.316,4l4.117-3.814L12.55,8l4.117-3.814L20.783,8L24.9,4.186L29.017,8l4.117-3.814L37.25,8
	l4.117-3.814L45.483,8L49.6,4.186L53.717,8l4.116-3.814L61.95,8l4.116-3.814L70.183,8L74.3,4.185L78.417,8l4.117-3.814L86.65,8
	l4.117-3.814L94.883,8L99,4.186L103.117,8l4.116-3.814L111.35,8l4.117-3.814L119.584,8l4.116-3.814L127.816,8l4.117-3.814L136.05,8
	l4.116-3.814L144.283,8l4.117-3.814L152.517,8l4.116-3.814L160.75,8l4.117-3.814L168.983,8l4.116-3.814L177.217,8l4.117-3.814
	L185.45,8l4.116-3.814L193.684,8L198,4z M4.316,7.018L1.06,4l3.257-3.019L7.574,4L4.316,7.018z M12.55,7.018L9.293,4l3.257-3.019
	L15.807,4L12.55,7.018z M20.783,7.018L17.526,4l3.257-3.019L24.041,4L20.783,7.018z M29.017,7.018L25.759,4l3.257-3.019L32.274,4
	L29.017,7.018z M37.25,7.018L33.993,4l3.257-3.019L40.507,4L37.25,7.018z M45.483,7.018L42.226,4l3.257-3.019L48.741,4L45.483,7.018
	z M53.717,7.018L50.459,4l3.257-3.019L56.974,4L53.717,7.018z M61.95,7.018L58.693,4l3.257-3.019L65.207,4L61.95,7.018z
	 M70.183,7.018L66.926,4l3.257-3.019L73.44,4L70.183,7.018z M78.417,7.018L75.16,4l3.257-3.019L81.674,4L78.417,7.018z M86.65,7.018
	L83.393,4l3.257-3.019L89.907,4L86.65,7.018z M94.883,7.018L91.626,4l3.257-3.019L98.141,4L94.883,7.018z M103.117,7.018L99.859,4
	l3.258-3.019L106.374,4L103.117,7.018z M111.35,7.018L108.093,4l3.257-3.019L114.607,4L111.35,7.018z M119.584,7.018L116.326,4
	l3.258-3.019L122.84,4L119.584,7.018z M127.816,7.018L124.56,4l3.257-3.019L131.074,4L127.816,7.018z M136.05,7.018L132.793,4
	l3.257-3.019L139.307,4L136.05,7.018z M144.283,7.018L141.025,4l3.258-3.019L147.541,4L144.283,7.018z M152.517,7.018L149.26,4
	l3.257-3.019L155.773,4L152.517,7.018z M160.75,7.018L157.492,4l3.258-3.019L164.008,4L160.75,7.018z M168.983,7.018L165.727,4
	l3.257-3.019L172.24,4L168.983,7.018z M177.217,7.018L173.959,4l3.258-3.019L180.475,4L177.217,7.018z M185.45,7.018L182.193,4
	l3.257-3.019L188.707,4L185.45,7.018z M193.684,0.981L196.94,4l-3.257,3.018L190.426,4L193.684,0.981z"/>
</svg>
