<?xml version="1.0" encoding="utf-8"?>
<!-- Generator: Adobe Illustrator 14.0.0, SVG Export Plug-In . SVG Version: 6.00 Build 43363)  -->
<!DOCTYPE svg PUBLIC "-//W3C//DTD SVG 1.1//EN" "http://www.w3.org/Graphics/SVG/1.1/DTD/svg11.dtd">
<svg version="1.1" id="Layer_1" xmlns="http://www.w3.org/2000/svg" xmlns:xlink="http://www.w3.org/1999/xlink" x="0px" y="0px"
	 width="15.479px" height="15.605px" viewBox="0 0 15.479 15.605" style="enable-background:new 0 0 15.479 15.605;"
	 xml:space="preserve">
<style type="text/css">
<![CDATA[
	.st0{fill:#361313; fill-opacity: 1; stroke-opacity: 1}
]]>
</style>
<g>
	<path class="st0" d="M1.387,9.326C1.426,9.261,1.444,9.154,1.44,9.004s0.02-0.293,0.068-0.43s0.167-0.319,0.356-0.547
		c0.013-0.006,0.026-0.015,0.039-0.024s0.02-0.021,0.02-0.034c0-0.033-0.023-0.049-0.068-0.049c-0.13,0-0.35,0.067-0.659,0.2
		s-0.5,0.2-0.571,0.2c-0.163,0-0.308-0.08-0.435-0.239S0,7.767,0,7.617c0-0.091,0.042-0.195,0.127-0.313S0.306,7.129,0.41,7.129
		c0.156,0,0.306,0.041,0.449,0.122s0.335,0.21,0.576,0.386C1.468,7.663,1.5,7.676,1.533,7.676c0.052,0,0.116-0.02,0.19-0.059
		S1.836,7.533,1.836,7.48c0-0.104-0.036-0.228-0.107-0.371S1.567,6.815,1.46,6.655S1.299,6.413,1.299,6.406
		c0-0.091,0.026-0.163,0.078-0.215s0.107-0.078,0.166-0.078c0.052,0,0.2,0.072,0.444,0.215s0.464,0.306,0.659,0.488
		C2.887,7.051,3.045,7.199,3.12,7.261S3.307,7.37,3.457,7.402c0.084-0.443,0.259-0.775,0.522-0.996s0.573-0.404,0.928-0.547
		s0.532-0.25,0.532-0.322c0-0.098-0.124-0.177-0.371-0.239S4.482,5.199,4.053,5.186C4,5.146,3.97,5.083,3.96,4.995
		S3.939,4.71,3.926,4.404c0-0.091-0.011-0.215-0.034-0.371s-0.034-0.28-0.034-0.371c0.026-0.006,0.049-0.011,0.068-0.015
		s0.045-0.005,0.078-0.005c0.169,0,0.402,0.01,0.698,0.029S5.26,3.717,5.488,3.75c0.026,0.241,0.054,0.498,0.083,0.771
		S5.68,5.016,5.811,5.186c0.052-0.065,0.172-0.244,0.361-0.537s0.386-0.545,0.591-0.757s0.415-0.347,0.63-0.405
		C7.308,3.252,7.227,3.057,7.148,2.9S6.966,2.588,6.836,2.432C6.334,1.839,6.084,1.481,6.084,1.357c0-0.039,0.031-0.073,0.093-0.103
		s0.112-0.044,0.151-0.044c0.202,0,0.439,0.133,0.713,0.4C7.067,1.637,7.109,1.68,7.168,1.738s0.104,0.088,0.137,0.088
		c0.052,0,0.078-0.033,0.078-0.098c0-0.13-0.065-0.353-0.195-0.669S6.992,0.534,6.992,0.43c0-0.111,0.026-0.182,0.078-0.215
		s0.176-0.072,0.371-0.117c0.013,0,0.073-0.016,0.181-0.049S7.819,0,7.891,0c0.15,0,0.225,0.094,0.225,0.283
		c0,0.039-0.011,0.086-0.034,0.142S8.014,0.578,7.949,0.718s-0.124,0.28-0.176,0.42S7.695,1.39,7.695,1.475s0.042,0.127,0.127,0.127
		c0.202,0,0.426-0.14,0.674-0.42c0.052-0.059,0.101-0.114,0.146-0.166S8.73,0.928,8.77,0.908s0.084-0.029,0.137-0.029
		c0.098,0,0.184,0.045,0.259,0.137s0.096,0.208,0.063,0.352s-0.14,0.296-0.322,0.459C8.802,1.904,8.709,1.979,8.628,2.051
		s-0.16,0.167-0.234,0.288s-0.142,0.273-0.2,0.459S8.092,3.209,8.066,3.477c0.221,0.059,0.495,0.22,0.82,0.483
		s0.57,0.539,0.732,0.825c0.02,0.02,0.068,0.114,0.146,0.283s0.16,0.306,0.244,0.41c0.104-0.208,0.182-0.449,0.234-0.723
		s0.078-0.472,0.078-0.596V4.033c0-0.13,0.039-0.202,0.117-0.215s0.313-0.02,0.703-0.02c0.326,0,0.529,0.006,0.61,0.02
		s0.122,0.101,0.122,0.264c0,0.006-0.005,0.075-0.015,0.205s-0.015,0.231-0.015,0.303c0,0.084,0.005,0.194,0.015,0.327
		s0.018,0.288,0.024,0.464c-0.137,0.065-0.412,0.135-0.825,0.21s-0.679,0.127-0.796,0.156s-0.176,0.086-0.176,0.171
		c0,0.045,0.248,0.215,0.742,0.508c0.469,0.287,0.817,0.651,1.045,1.094c0.137,0,0.264-0.042,0.381-0.127s0.355-0.28,0.713-0.586
		c0.228-0.202,0.449-0.368,0.664-0.498s0.355-0.195,0.42-0.195c0.059,0,0.103,0.028,0.132,0.083s0.044,0.112,0.044,0.171
		c0,0.15-0.127,0.337-0.381,0.562s-0.4,0.386-0.439,0.483c0.033,0.013,0.075,0.029,0.127,0.049s0.098,0.029,0.137,0.029
		c0.163,0,0.309-0.023,0.439-0.068s0.264-0.106,0.4-0.181s0.225-0.112,0.264-0.112c0.084,0,0.186,0.041,0.303,0.122
		s0.213,0.177,0.288,0.288s0.112,0.192,0.112,0.244c-0.033,0.098-0.104,0.22-0.215,0.366s-0.27,0.22-0.479,0.22
		c-0.098,0-0.25-0.057-0.459-0.171s-0.358-0.171-0.449-0.171c-0.039,0-0.075,0.011-0.107,0.034s-0.049,0.047-0.049,0.073
		c0,0.033,0.028,0.094,0.083,0.186s0.096,0.15,0.122,0.176c0.182,0.13,0.308,0.231,0.376,0.303s0.103,0.166,0.103,0.283
		c0,0.078-0.038,0.169-0.112,0.273s-0.148,0.156-0.22,0.156c-0.098,0-0.228-0.072-0.391-0.215s-0.29-0.241-0.381-0.293
		c-0.163-0.091-0.329-0.2-0.498-0.327s-0.331-0.221-0.483-0.283s-0.343-0.096-0.571-0.103c-0.091,0.814-0.635,1.406-1.631,1.777
		c0.124,0.065,0.389,0.106,0.796,0.122s0.695,0.041,0.864,0.073c0.045,0.124,0.068,0.234,0.068,0.332
		c0,0.065-0.003,0.116-0.01,0.151s-0.02,0.187-0.039,0.454c0.006,0.078,0.01,0.15,0.01,0.215s0,0.153,0,0.264
		c0,0.039-0.026,0.072-0.078,0.098s-0.091,0.039-0.117,0.039c-0.052,0-0.207-0.013-0.464-0.039s-0.458-0.039-0.601-0.039h-0.068
		c-0.098,0-0.155-0.021-0.171-0.063s-0.036-0.133-0.059-0.273s-0.057-0.272-0.103-0.396c-0.02-0.052-0.047-0.148-0.083-0.288
		s-0.073-0.241-0.112-0.303s-0.098-0.103-0.176-0.122c-0.098,0.449-0.264,0.797-0.498,1.045s-0.586,0.514-1.055,0.801
		c-0.039,0.02-0.059,0.039-0.059,0.059c0,0.078,0.104,0.241,0.313,0.488s0.316,0.377,0.322,0.391
		c0.045,0.078,0.132,0.215,0.259,0.41s0.215,0.335,0.264,0.42s0.073,0.163,0.073,0.234c0,0.033-0.016,0.073-0.049,0.122
		s-0.068,0.073-0.107,0.073c-0.143,0-0.355-0.127-0.635-0.381s-0.443-0.381-0.488-0.381S8.047,13.6,8.047,13.652
		c0,0.072,0.065,0.267,0.195,0.586s0.195,0.534,0.195,0.645c0,0.234-0.065,0.414-0.195,0.537s-0.29,0.186-0.479,0.186
		c-0.104,0-0.187-0.031-0.249-0.093s-0.093-0.138-0.093-0.229c0-0.065,0.018-0.166,0.054-0.303s0.075-0.269,0.117-0.396
		s0.077-0.234,0.103-0.322s0.039-0.174,0.039-0.259c0-0.039-0.01-0.096-0.029-0.171s-0.049-0.112-0.088-0.112
		c-0.033,0-0.065,0.016-0.098,0.049c-0.215,0.267-0.373,0.446-0.474,0.537s-0.229,0.137-0.386,0.137
		c-0.104,0-0.194-0.052-0.269-0.156s-0.112-0.169-0.112-0.195c0-0.111,0.052-0.218,0.156-0.322c0.352-0.332,0.617-0.619,0.796-0.859
		S7.5,12.425,7.5,12.178c-0.338-0.039-0.635-0.133-0.889-0.283s-0.459-0.356-0.615-0.62s-0.27-0.591-0.342-0.981
		c-0.156,0.124-0.313,0.443-0.469,0.957c-0.104,0.338-0.179,0.511-0.225,0.518c-0.195,0.013-0.358,0.024-0.488,0.034
		s-0.241,0.015-0.332,0.015c-0.293,0-0.439-0.082-0.439-0.244v-0.049c0-0.059-0.006-0.135-0.02-0.229s-0.02-0.171-0.02-0.229
		c0-0.293,0.006-0.485,0.02-0.576s0.038-0.146,0.073-0.166s0.096-0.036,0.181-0.049c0.599-0.065,0.996-0.114,1.191-0.146
		S5.42,10.049,5.42,9.99c0-0.045-0.01-0.072-0.029-0.078C4.772,9.71,4.312,9.484,4.009,9.233s-0.503-0.601-0.601-1.05
		C3.291,8.197,3.177,8.241,3.066,8.315S2.773,8.53,2.52,8.735s-0.464,0.36-0.63,0.464S1.588,9.355,1.484,9.355
		C1.445,9.355,1.413,9.346,1.387,9.326z M6.992,7.295C6.706,7.002,6.465,6.777,6.27,6.621S5.853,6.387,5.605,6.387
		c-0.462,0-0.853,0.132-1.172,0.396S3.955,7.416,3.955,7.891c0,0.332,0.179,0.624,0.537,0.874s0.69,0.376,0.996,0.376
		c0.15,0,0.37-0.082,0.659-0.244s0.571-0.365,0.845-0.605C6.895,8.115,6.846,7.949,6.846,7.793C6.846,7.65,6.895,7.484,6.992,7.295z
		 M8.32,7.051c0.111-0.13,0.223-0.265,0.337-0.405s0.207-0.294,0.278-0.464s0.107-0.368,0.107-0.596
		c0-0.293-0.062-0.553-0.186-0.781s-0.29-0.405-0.498-0.532s-0.439-0.19-0.693-0.19c-0.326,0-0.625,0.174-0.898,0.522
		s-0.41,0.695-0.41,1.04c0,0.15,0.084,0.366,0.254,0.649S6.976,6.839,7.197,7.08c0.156-0.143,0.355-0.215,0.596-0.215
		C7.969,6.865,8.145,6.927,8.32,7.051z M7.139,8.486c-0.521,0.651-0.781,1.175-0.781,1.572s0.132,0.753,0.396,1.069
		s0.601,0.474,1.011,0.474c0.345,0,0.648-0.137,0.908-0.41s0.391-0.583,0.391-0.928c0-0.221-0.052-0.421-0.156-0.601
		s-0.332-0.526-0.684-1.04C8.066,8.701,7.914,8.74,7.764,8.74C7.568,8.74,7.36,8.656,7.139,8.486z M8.447,8.457
		c0.248,0.287,0.487,0.495,0.718,0.625s0.497,0.195,0.796,0.195c0.287,0,0.536-0.072,0.747-0.215s0.376-0.322,0.493-0.537
		s0.176-0.436,0.176-0.664s-0.083-0.436-0.249-0.625s-0.377-0.338-0.635-0.449S9.987,6.621,9.746,6.621
		c-0.215,0-0.4,0.044-0.557,0.132S8.812,6.996,8.525,7.217c0.124,0.169,0.186,0.361,0.186,0.576
		C8.711,8.047,8.623,8.268,8.447,8.457z"/>
</g>
</svg>
