<?xml version="1.0" encoding="utf-8"?>
<!-- Generator: Adobe Illustrator 14.0.0, SVG Export Plug-In . SVG Version: 6.00 Build 43363)  -->
<!DOCTYPE svg PUBLIC "-//W3C//DTD SVG 1.1//EN" "http://www.w3.org/Graphics/SVG/1.1/DTD/svg11.dtd">
<svg version="1.1" id="Layer_1" xmlns="http://www.w3.org/2000/svg" xmlns:xlink="http://www.w3.org/1999/xlink" x="0px" y="0px"
	 width="18.805px" height="9.107px" viewBox="0 0 18.805 9.107" style="enable-background:new 0 0 18.805 9.107;"
	 xml:space="preserve">
<style type="text/css">
<![CDATA[
	.st0{fill:#361313; fill-opacity: 1; stroke-opacity: 1}
]]>
</style>
<g>
	<path class="st0" d="M5.18,8.033C4.74,7.619,4.431,7.148,4.252,6.617c-0.179-0.531-0.21-1.043-0.093-1.538c0.11-0.482,0.399-0.975,0.869-1.476
		C4.195,3.903,3.486,4.1,2.9,4.195C2.313,4.29,1.828,4.282,1.445,4.171C0.891,4.009,0.491,3.682,0.243,3.19
		c-0.248-0.491-0.307-1.033-0.176-1.626c0.064-0.292,0.177-0.55,0.337-0.771c0.159-0.222,0.338-0.384,0.537-0.488
		C1.14,0.201,1.34,0.181,1.542,0.246c0.28,0.078,0.479,0.257,0.596,0.537c0.117,0.279,0.141,0.586,0.068,0.918
		C2.128,2.033,1.977,2.285,1.752,2.458S1.272,2.674,0.986,2.59C0.947,2.576,0.865,2.542,0.741,2.487
		C0.618,2.432,0.536,2.395,0.497,2.375C0.445,2.362,0.412,2.388,0.4,2.453c-0.053,0.228,0.021,0.47,0.22,0.728
		s0.49,0.445,0.874,0.563C1.786,3.821,2.109,3.846,2.46,3.816C2.812,3.786,3.109,3.7,3.349,3.557c2.2-1.393,3.584-2.271,4.15-2.637
		C7.954,0.633,8.45,0.412,8.984,0.256c0.532-0.156,1.061-0.241,1.582-0.254C11.086-0.01,11.564,0.044,12,0.167
		c0.599,0.17,1.125,0.464,1.577,0.884s0.77,0.899,0.952,1.436c0.182,0.537,0.212,1.07,0.088,1.598
		C14.5,4.592,14.188,5.08,13.68,5.549c1.621-0.677,2.835-0.899,3.643-0.665c0.547,0.157,0.953,0.469,1.221,0.938
		c0.268,0.47,0.329,1.013,0.186,1.632c-0.116,0.514-0.308,0.898-0.571,1.152c-0.265,0.254-0.542,0.338-0.835,0.254
		c-0.273-0.078-0.478-0.251-0.61-0.518s-0.161-0.57-0.083-0.908c0.085-0.365,0.249-0.628,0.493-0.791s0.503-0.202,0.775-0.118
		c0.123,0.033,0.243,0.095,0.361,0.187s0.18,0.137,0.187,0.137c0.039,0.006,0.067-0.036,0.088-0.127
		c0.014-0.092-0.021-0.24-0.103-0.445s-0.213-0.398-0.395-0.581c-0.183-0.182-0.404-0.306-0.664-0.37
		c-0.437-0.131-0.884-0.128-1.343,0.01c-0.459,0.137-0.859,0.32-1.197,0.552s-0.97,0.678-1.895,1.343
		c-0.756,0.546-1.489,0.976-2.202,1.284c-0.714,0.309-1.403,0.497-2.07,0.566c-0.667,0.068-1.3,0.018-1.899-0.151
		C6.147,8.746,5.62,8.447,5.18,8.033z M14.194,2.6c-0.213-0.45-0.536-0.739-0.973-0.87c-0.547-0.162-1.263-0.136-2.147,0.079
		C9.536,2.193,8.342,2.518,7.49,2.781C6.636,3.044,5.951,3.36,5.433,3.728C4.915,4.096,4.591,4.569,4.461,5.149
		C4.325,5.682,4.36,6.165,4.564,6.594c0.205,0.429,0.549,0.716,1.03,0.859c0.345,0.098,0.738,0.123,1.177,0.078
		C7.21,7.486,7.656,7.404,8.104,7.287c0.449-0.117,1.162-0.319,2.14-0.605c0.755-0.228,1.338-0.414,1.748-0.557
		c0.41-0.144,0.783-0.316,1.118-0.522s0.604-0.44,0.81-0.708c0.205-0.267,0.347-0.573,0.425-0.918
		C14.455,3.508,14.406,3.05,14.194,2.6z"/>
</g>
</svg>
