<?xml version="1.0" encoding="utf-8"?>
<!-- Generator: Adobe Illustrator 14.0.0, SVG Export Plug-In . SVG Version: 6.00 Build 43363)  -->
<!DOCTYPE svg PUBLIC "-//W3C//DTD SVG 1.1//EN" "http://www.w3.org/Graphics/SVG/1.1/DTD/svg11.dtd">
<svg version="1.1" id="Layer_1" xmlns="http://www.w3.org/2000/svg" xmlns:xlink="http://www.w3.org/1999/xlink" x="0px" y="0px"
	 width="521.508px" height="10.799px" viewBox="0 0 521.508 10.799" style="enable-background:new 0 0 521.508 10.799;"
	 xml:space="preserve">
<style type="text/css">
<![CDATA[
	.st0{fill:#361313; fill-opacity: 1; stroke-opacity: 1}
]]>
</style>
<path class="st0" d="M521.508,6.399l-7.012-2.552c0,0,0.512,0.848,0.652,2.052H297.817c-0.014-0.643-0.227-1.2-0.639-1.66
	c-1.215-1.357-3.795-1.374-4.848-1.318c-2.986,0.158-5.123,1.364-7.414,2.807c-0.07,0.044-0.119,0.105-0.158,0.171h-5.637
	c-1.746-3.377-6.266-4.554-10.025-5.198c-1.223-0.209-2.518-0.374-3.85-0.488c-4.627-0.4-9.111-0.235-13.327,0.488
	c-3.76,0.645-8.279,1.821-10.025,5.198h-5.637c-0.039-0.066-0.089-0.127-0.159-0.171c-2.289-1.442-4.427-2.648-7.414-2.807
	c-1.052-0.054-3.632-0.039-4.847,1.317c-0.413,0.46-0.625,1.018-0.64,1.661H6.345c0.054-0.649,0.24-1.35,0.667-2.052L0,6.399
	l7.012,2.552c0,0-0.511-0.848-0.651-2.052h216.978c0.917,3.378,6.442,3.946,9.34,3.76c3.071-0.2,5.923-0.896,9.035-2.241
	c0.054,0.111,0.113,0.212,0.175,0.303c1.144,1.69,4.295,2.116,6.015,1.981c3.262-0.249,5.776-1.679,7.805-3.045
	c0.229-0.154,0.29-0.465,0.135-0.694c-0.154-0.229-0.464-0.29-0.694-0.135c-1.921,1.293-4.293,2.646-7.323,2.877
	c-1.62,0.122-4.298-0.345-5.11-1.545c-0.034-0.05-0.064-0.1-0.09-0.152c0.988-0.459,2.005-0.983,3.067-1.577
	c1.973-1.103,4.608-2.371,7.496-2.386c1.201-0.019,2.498,0.227,3.801,0.693c0.837,0.298,1.872,0.667,2.699,1.204
	c-0.527,0.59-0.92,1.309-1.126,2.097c-0.197,0.756-0.118,1.418,0.229,1.917c0.232,0.333,0.705,0.75,1.684,0.843h0.091l0.024-0.002
	c0.969-0.095,1.465-0.51,1.71-0.842c0.332-0.449,0.437-1.04,0.301-1.708c-0.188-0.917-0.602-1.656-1.335-2.342
	c0.146-0.091,0.299-0.172,0.457-0.243c1.991-0.884,3.823-1.616,6.053-1.616c0.018,0,0.035,0,0.051,0
	c2.889,0.015,5.523,1.283,7.496,2.386c1.063,0.593,2.08,1.118,3.068,1.577c-0.027,0.051-0.057,0.102-0.092,0.152
	c-0.813,1.2-3.492,1.667-5.109,1.545c-3.029-0.231-5.402-1.584-7.324-2.877c-0.227-0.152-0.539-0.094-0.693,0.136
	c-0.154,0.229-0.094,0.54,0.135,0.694c2.031,1.366,4.545,2.796,7.807,3.044c1.717,0.133,4.871-0.291,6.014-1.981
	c0.063-0.091,0.121-0.192,0.176-0.303c3.111,1.345,5.965,2.041,9.035,2.241c2.893,0.186,8.422-0.382,9.34-3.76h217.486
	c-0.055,0.649-0.24,1.35-0.668,2.052L521.508,6.399z M292.383,3.92c1.895-0.104,3.406,0.268,4.051,0.986
	c0.242,0.271,0.365,0.601,0.381,0.993h-10.262C288.364,4.824,290.092,4.041,292.383,3.92z M224.583,4.905
	c0.644-0.717,2.164-1.086,4.05-0.985c2.292,0.121,4.019,0.904,5.83,1.979h-10.261C224.216,5.506,224.34,5.177,224.583,4.905z
	 M232.613,9.661c-2.034,0.13-7.21-0.141-8.237-2.762h17.156c-0.035,0.186-0.055,0.365-0.053,0.53
	C238.41,8.773,235.616,9.465,232.613,9.661z M242.541,6.942c0.004-0.014,0.013-0.029,0.017-0.043h0.071
	C242.599,6.913,242.569,6.929,242.541,6.942z M261.62,8.446c0.079,0.389,0.037,0.696-0.124,0.915
	c-0.227,0.306-0.671,0.409-0.973,0.441c-0.442-0.043-0.749-0.184-0.913-0.418c-0.172-0.247-0.201-0.635-0.082-1.092
	c0.173-0.661,0.508-1.261,0.958-1.744C261.126,7.116,261.469,7.702,261.62,8.446z M267.833,3.045
	c-2.441,0.004-4.402,0.763-6.516,1.702c-0.307,0.136-0.597,0.306-0.867,0.503c-0.035-0.024-0.071-0.049-0.107-0.074
	c-0.948-0.643-2.096-1.052-3.018-1.38c-1.413-0.506-2.836-0.736-4.142-0.751c-3.117,0.016-5.901,1.351-7.979,2.513
	c-0.677,0.379-1.331,0.719-1.975,1.041v-0.7h-0.185c1.723-2.643,5.7-3.64,9.045-4.213C254.753,1.229,257.527,1,260.381,1
	c1.571,0,3.167,0.069,4.78,0.208c1.305,0.112,2.572,0.273,3.768,0.478c3.563,0.611,7.844,1.704,9.352,4.754v0.405
	c-0.799-0.387-1.617-0.812-2.469-1.287C273.733,4.396,270.95,3.061,267.833,3.045z M278.387,6.899h0.07
	c0.004,0.014,0.014,0.03,0.018,0.043C278.446,6.929,278.417,6.913,278.387,6.899z M288.403,9.661
	c-3.002-0.196-5.797-0.887-8.865-2.232c0.002-0.165-0.018-0.343-0.055-0.529h17.156C295.614,9.52,290.438,9.792,288.403,9.661z"/>
</svg>
