<?xml version="1.0" encoding="utf-8"?>
<!-- Generator: Adobe Illustrator 14.0.0, SVG Export Plug-In . SVG Version: 6.00 Build 43363)  -->
<!DOCTYPE svg PUBLIC "-//W3C//DTD SVG 1.1//EN" "http://www.w3.org/Graphics/SVG/1.1/DTD/svg11.dtd">
<svg version="1.1" id="Layer_1" xmlns="http://www.w3.org/2000/svg" xmlns:xlink="http://www.w3.org/1999/xlink" x="0px" y="0px"
	 width="183.672px" height="31.285px" viewBox="0 0 183.672 31.285" style="enable-background:new 0 0 183.672 31.285;"
	 xml:space="preserve">
<style type="text/css">
<![CDATA[
	.st0{fill:#361313; fill-opacity: 1; stroke-opacity: 1;}
	.st1{fill:#240101; fill-opacity: 1; stroke-opacity: 1;}
]]>
</style>
<polygon class="st0" points="136.393,25.7 182.816,25.7 175.791,12.964 182.816,0.5 136.393,0.5 "/>
<polygon class="st0" points="47.279,25.7 0.856,25.7 7.882,12.964 0.856,0.5 47.279,0.5 "/>
<path d="M8.456,12.961L1.712,1h43.949L29.2,6.085h-0.391V25.2H1.703L8.456,12.961z M138.011,1h43.95l-6.743,11.961L181.97,25.2
	h-27.16V6.205l0.039-0.004l-0.039-0.012V6.085h-0.337L138.011,1z M135.893,0v6.085H47.779V0H0l7.311,12.966L0.009,26.2h28.8v5.085
	H154.81V26.2h28.853l-7.301-13.234L183.672,0H135.893z"/>
<path class="st1" d="M30.984,29.11h121.65V8.26H30.984V29.11z M153.384,29.86H30.234V7.51h123.15V29.86z"/>
</svg>
