<?xml version="1.0" encoding="utf-8"?>
<!-- Generator: Adobe Illustrator 14.0.0, SVG Export Plug-In . SVG Version: 6.00 Build 43363)  -->
<!DOCTYPE svg PUBLIC "-//W3C//DTD SVG 1.1//EN" "http://www.w3.org/Graphics/SVG/1.1/DTD/svg11.dtd">
<svg version="1.1" id="Layer_1" xmlns="http://www.w3.org/2000/svg" xmlns:xlink="http://www.w3.org/1999/xlink" x="0px" y="0px"
	 width="22.324px" height="7.488px" viewBox="0 0 22.324 7.488" style="enable-background:new 0 0 22.324 7.488;"
	 xml:space="preserve">
<style type="text/css">
<![CDATA[
	.st0{fill:#361313; fill-opacity: 1; stroke-opacity: 1}
]]>
</style>
<g>
	<path class="st0" d="M11.399,1.371c0.019,0.047,0.029,0.078,0.029,0.094c0.882-0.851,1.867-1.276,2.953-1.276c0.313,0,0.613,0.039,0.902,0.117
		c0.289,0.077,0.557,0.178,0.803,0.299s0.54,0.286,0.879,0.497s0.654,0.409,0.943,0.598c0.608,0.383,1.106,0.66,1.494,0.832
		c0.387,0.172,0.779,0.258,1.178,0.258c0.367,0,0.689-0.143,0.967-0.428s0.416-0.599,0.416-0.943c0-0.328-0.118-0.492-0.352-0.492
		c-0.039,0-0.117,0.063-0.235,0.188c-0.109,0.094-0.23,0.141-0.363,0.141c-0.203,0-0.363-0.068-0.484-0.205
		c-0.121-0.136-0.183-0.298-0.183-0.485c0-0.181,0.071-0.32,0.216-0.417C20.707,0.049,20.892,0,21.119,0
		c0.312,0,0.592,0.141,0.838,0.422c0.246,0.282,0.369,0.606,0.369,0.974c0,0.296-0.099,0.597-0.293,0.901
		c-0.142,0.211-0.211,0.406-0.211,0.586c-0.031,0.602-0.375,0.902-1.031,0.902c-0.313,0-0.658-0.104-1.037-0.311
		s-0.881-0.537-1.506-0.99c0.008,0.352,0.068,0.765,0.181,1.242c0.113,0.477,0.17,0.746,0.17,0.809c0,0.078-0.026,0.117-0.082,0.117
		c-0.289,0-0.486-0.028-0.597-0.082s-0.192-0.16-0.247-0.316c-0.397-1.156-0.894-2.049-1.488-2.678
		c-0.594-0.629-1.258-0.943-1.991-0.943c-0.47,0-0.903,0.078-1.302,0.234c-0.397,0.156-0.721,0.343-0.967,0.563
		c-0.246,0.219-0.369,0.434-0.369,0.645c0,0.172,0.061,0.358,0.182,0.557c0.121,0.199,0.256,0.3,0.403,0.3
		c0.078,0,0.134-0.017,0.164-0.048c0.556-0.422,0.961-0.633,1.22-0.633c0.28,0,0.527,0.121,0.738,0.363s0.316,0.535,0.316,0.879
		c0,0.367-0.06,0.551-0.176,0.551c-0.078,0-0.272-0.046-0.58-0.14c-0.309-0.094-0.529-0.141-0.662-0.141
		c-0.117,0-0.176,0.055-0.176,0.163c0,0.157,0.362,0.399,1.09,0.728c0.101,0.039,0.151,0.117,0.151,0.234
		c0,0.101-0.039,0.225-0.116,0.373C14.033,5.41,13.963,5.484,13.9,5.484c-0.07,0-0.243-0.112-0.521-0.334s-0.498-0.436-0.662-0.64
		c-0.281-0.358-0.465-0.538-0.551-0.538c-0.141,0-0.211,0.108-0.211,0.327c0,0.164,0.051,0.439,0.152,0.826
		c0.101,0.388,0.151,0.64,0.151,0.756c0,0.282-0.153,0.619-0.457,1.015c-0.304,0.395-0.522,0.592-0.656,0.592
		c-0.07,0-0.197-0.1-0.376-0.303c-0.178-0.203-0.34-0.421-0.486-0.656s-0.217-0.418-0.217-0.551c0-0.142,0.059-0.396,0.176-0.763
		c0.117-0.366,0.176-0.633,0.176-0.797c0-0.094-0.02-0.191-0.059-0.293c-0.039-0.101-0.095-0.151-0.164-0.151
		c-0.063,0-0.121,0.039-0.177,0.116C9.692,4.505,9.373,4.849,9.064,5.122c-0.307,0.273-0.512,0.41-0.614,0.41
		c-0.095,0-0.179-0.075-0.252-0.223c-0.074-0.148-0.11-0.273-0.11-0.375c0-0.095,0.063-0.185,0.188-0.271S8.6,4.473,8.873,4.348
		C9.178,4.207,9.33,4.067,9.33,3.926c0-0.094-0.047-0.141-0.141-0.141c-0.102,0-0.301,0.047-0.598,0.141
		C8.294,4.02,8.088,4.067,7.971,4.067c-0.11,0-0.174-0.032-0.188-0.094C7.768,3.911,7.76,3.79,7.76,3.61
		c0-0.415,0.106-0.741,0.321-0.979c0.216-0.237,0.494-0.356,0.838-0.356c0.11,0,0.212,0.021,0.306,0.063
		c0.093,0.043,0.186,0.101,0.274,0.17c0.089,0.07,0.154,0.125,0.193,0.164c0.25,0.188,0.425,0.281,0.526,0.281
		c0.133,0,0.26-0.104,0.381-0.315c0.122-0.212,0.183-0.406,0.183-0.587c0-0.163-0.114-0.353-0.34-0.567S9.901,1.08,9.499,0.92
		C9.098,0.76,8.686,0.68,8.264,0.68c-0.578,0-1.067,0.12-1.461,0.362c-0.395,0.242-0.75,0.604-1.066,1.084
		C5.42,2.607,5.059,3.312,4.652,4.242c-0.086,0.18-0.176,0.307-0.264,0.381c-0.09,0.074-0.236,0.111-0.439,0.111
		c-0.148,0-0.223-0.075-0.223-0.224c0,0.024,0.033-0.149,0.1-0.521s0.139-0.81,0.217-1.318C3.848,2.75,3.564,2.91,3.193,3.152
		s-0.676,0.42-0.914,0.533c-0.238,0.112-0.49,0.17-0.756,0.17c-0.453,0-0.748-0.114-0.885-0.34c-0.138-0.227-0.205-0.5-0.205-0.82
		c0-0.047-0.01-0.094-0.029-0.141c-0.02-0.048-0.057-0.11-0.111-0.188S0.207,2.237,0.199,2.214C0.066,1.964,0,1.707,0,1.441
		c0-0.375,0.119-0.698,0.357-0.967C0.596,0.205,0.87,0.07,1.184,0.07c0.203,0,0.375,0.061,0.516,0.182S1.91,0.532,1.91,0.727
		c0,0.164-0.049,0.301-0.146,0.41C1.667,1.246,1.532,1.301,1.36,1.301c-0.242,0-0.406-0.063-0.492-0.188
		C0.774,1.019,0.704,0.972,0.657,0.972c-0.078,0-0.146,0.043-0.205,0.129s-0.088,0.19-0.088,0.315c0,0.399,0.131,0.739,0.394,1.021
		c0.262,0.28,0.615,0.422,1.061,0.422c0.421,0,0.874-0.132,1.359-0.394c0.484-0.261,1.281-0.743,2.391-1.446
		c0.813-0.523,1.613-0.785,2.402-0.785c0.569,0,1.094,0.104,1.576,0.311c0.48,0.207,0.959,0.529,1.436,0.968l0.012-0.234
		c0-0.07-0.043-0.216-0.129-0.439c-0.086-0.223-0.129-0.393-0.129-0.51c0-0.187,0.145-0.281,0.434-0.281
		c0.14,0,0.248,0.026,0.322,0.076s0.111,0.143,0.111,0.275c0,0.094-0.039,0.23-0.117,0.41c-0.078,0.179-0.117,0.328-0.117,0.444
		C11.369,1.285,11.38,1.324,11.399,1.371z M11.65,3.492c0-0.445-0.152-0.805-0.457-1.078c-0.32,0.25-0.48,0.656-0.48,1.219
		c0,0.602,0.152,1.059,0.457,1.371C11.49,4.652,11.65,4.148,11.65,3.492z"/>
</g>
</svg>
