<?xml version="1.0" encoding="utf-8"?>
<!-- Generator: Adobe Illustrator 14.0.0, SVG Export Plug-In . SVG Version: 6.00 Build 43363)  -->
<!DOCTYPE svg PUBLIC "-//W3C//DTD SVG 1.1//EN" "http://www.w3.org/Graphics/SVG/1.1/DTD/svg11.dtd">
<svg version="1.1" id="Layer_1" xmlns="http://www.w3.org/2000/svg" xmlns:xlink="http://www.w3.org/1999/xlink" x="0px" y="0px"
	 width="22.324px" height="7.488px" viewBox="0 0 22.324 7.488" style="enable-background:new 0 0 22.324 7.488;"
	 xml:space="preserve">
<style type="text/css">
<![CDATA[
	.st0{fill:#361313; fill-opacity: 1; stroke-opacity: 1}
]]>
</style>
<g>
	<path class="st0" d="M10.957,1.254c0-0.117-0.039-0.266-0.117-0.445s-0.117-0.316-0.117-0.41c0-0.133,0.037-0.225,0.111-0.275
		s0.182-0.076,0.322-0.076c0.289,0,0.434,0.094,0.434,0.281c0,0.117-0.043,0.287-0.129,0.51s-0.129,0.369-0.129,0.439l0.012,0.234
		c0.477-0.438,0.955-0.76,1.436-0.967s1.006-0.311,1.576-0.311c0.789,0,1.59,0.262,2.402,0.785c1.109,0.703,1.906,1.186,2.391,1.447
		s0.938,0.393,1.359,0.393c0.445,0,0.799-0.141,1.061-0.422s0.393-0.621,0.393-1.02c0-0.125-0.029-0.23-0.088-0.316
		s-0.127-0.129-0.205-0.129c-0.047,0-0.117,0.047-0.211,0.141c-0.086,0.125-0.25,0.188-0.492,0.188
		c-0.172,0-0.307-0.055-0.404-0.164s-0.146-0.246-0.146-0.41c0-0.195,0.07-0.354,0.211-0.475s0.313-0.182,0.516-0.182
		c0.313,0,0.588,0.135,0.826,0.404s0.357,0.592,0.357,0.967c0,0.266-0.066,0.523-0.199,0.773c-0.008,0.023-0.039,0.074-0.094,0.152
		s-0.092,0.141-0.111,0.188s-0.029,0.094-0.029,0.141c0,0.32-0.068,0.594-0.205,0.82s-0.432,0.34-0.885,0.34
		c-0.266,0-0.518-0.057-0.756-0.17s-0.543-0.291-0.914-0.533s-0.654-0.402-0.85-0.48c0.078,0.508,0.15,0.947,0.217,1.318
		s0.1,0.545,0.1,0.521c0,0.148-0.074,0.223-0.223,0.223c-0.203,0-0.35-0.037-0.439-0.111s-0.178-0.201-0.264-0.381
		c-0.406-0.93-0.768-1.635-1.084-2.115s-0.672-0.842-1.066-1.084S14.641,0.68,14.063,0.68c-0.422,0-0.834,0.08-1.236,0.24
		s-0.717,0.348-0.943,0.563s-0.34,0.404-0.34,0.568c0,0.18,0.061,0.375,0.182,0.586s0.248,0.316,0.381,0.316
		c0.102,0,0.277-0.094,0.527-0.281c0.039-0.039,0.104-0.094,0.193-0.164s0.182-0.127,0.275-0.17s0.195-0.064,0.305-0.064
		c0.344,0,0.623,0.119,0.838,0.357s0.322,0.564,0.322,0.979c0,0.18-0.008,0.301-0.023,0.363s-0.078,0.094-0.188,0.094
		c-0.117,0-0.324-0.047-0.621-0.141s-0.496-0.141-0.598-0.141c-0.094,0-0.141,0.047-0.141,0.141c0,0.141,0.152,0.281,0.457,0.422
		c0.273,0.125,0.473,0.23,0.598,0.316s0.188,0.176,0.188,0.27c0,0.102-0.037,0.227-0.111,0.375s-0.158,0.223-0.252,0.223
		c-0.102,0-0.307-0.137-0.615-0.41s-0.627-0.617-0.955-1.031c-0.055-0.078-0.113-0.117-0.176-0.117c-0.07,0-0.125,0.051-0.164,0.152
		s-0.059,0.199-0.059,0.293c0,0.164,0.059,0.43,0.176,0.797s0.176,0.621,0.176,0.762c0,0.133-0.072,0.316-0.217,0.551
		s-0.307,0.453-0.486,0.656S11.25,7.488,11.18,7.488c-0.133,0-0.352-0.197-0.656-0.592s-0.457-0.732-0.457-1.014
		c0-0.117,0.051-0.369,0.152-0.756s0.152-0.662,0.152-0.826c0-0.219-0.07-0.328-0.211-0.328c-0.086,0-0.27,0.18-0.551,0.539
		C9.445,4.715,9.225,4.928,8.947,5.15S8.496,5.484,8.426,5.484c-0.063,0-0.133-0.074-0.211-0.223S8.098,4.988,8.098,4.887
		c0-0.117,0.051-0.195,0.152-0.234c0.727-0.328,1.09-0.57,1.09-0.727c0-0.109-0.059-0.164-0.176-0.164
		c-0.133,0-0.354,0.047-0.662,0.141S8,4.043,7.922,4.043c-0.117,0-0.176-0.184-0.176-0.551c0-0.344,0.105-0.637,0.316-0.879
		S8.52,2.25,8.801,2.25c0.258,0,0.664,0.211,1.219,0.633c0.031,0.031,0.086,0.047,0.164,0.047c0.148,0,0.283-0.1,0.404-0.299
		s0.182-0.385,0.182-0.557c0-0.211-0.123-0.426-0.369-0.645S9.832,1.023,9.434,0.867S8.602,0.633,8.133,0.633
		c-0.734,0-1.398,0.314-1.992,0.943s-1.09,1.521-1.488,2.678C4.598,4.41,4.516,4.516,4.406,4.57S4.098,4.652,3.809,4.652
		c-0.055,0-0.082-0.039-0.082-0.117c0-0.063,0.057-0.332,0.17-0.809S4.07,2.836,4.078,2.484c-0.625,0.453-1.127,0.783-1.506,0.99
		S1.848,3.785,1.535,3.785c-0.656,0-1-0.301-1.031-0.902c0-0.18-0.07-0.375-0.211-0.586C0.098,1.992,0,1.691,0,1.395
		c0-0.367,0.123-0.691,0.369-0.973S0.895,0,1.207,0c0.227,0,0.412,0.049,0.557,0.146S1.98,0.383,1.98,0.563
		c0,0.188-0.061,0.35-0.182,0.486S1.516,1.254,1.313,1.254c-0.133,0-0.254-0.047-0.363-0.141C0.832,0.988,0.754,0.926,0.715,0.926
		c-0.234,0-0.352,0.164-0.352,0.492c0,0.344,0.139,0.658,0.416,0.943s0.6,0.428,0.967,0.428c0.398,0,0.791-0.086,1.178-0.258
		s0.885-0.449,1.494-0.832c0.289-0.188,0.604-0.387,0.943-0.598S5.994,0.725,6.24,0.604s0.514-0.221,0.803-0.299
		s0.59-0.117,0.902-0.117c1.086,0,2.07,0.426,2.953,1.277c0-0.016,0.01-0.047,0.029-0.094S10.957,1.285,10.957,1.254z M11.156,5.004
		c0.305-0.313,0.457-0.77,0.457-1.371c0-0.563-0.16-0.969-0.48-1.219c-0.305,0.273-0.457,0.633-0.457,1.078
		C10.676,4.148,10.836,4.652,11.156,5.004z"/>
</g>
</svg>
