<?xml version="1.0" encoding="utf-8"?>
<!-- Generator: Adobe Illustrator 14.0.0, SVG Export Plug-In . SVG Version: 6.00 Build 43363)  -->
<!DOCTYPE svg PUBLIC "-//W3C//DTD SVG 1.1//EN" "http://www.w3.org/Graphics/SVG/1.1/DTD/svg11.dtd">
<svg version="1.1" id="Layer_1" xmlns="http://www.w3.org/2000/svg" xmlns:xlink="http://www.w3.org/1999/xlink" x="0px" y="0px"
	 width="432px" height="72px" viewBox="0 0 432 72" style="enable-background:new 0 0 432 72;" xml:space="preserve">
<style type="text/css">
<![CDATA[
	.st0{clip-path:url(#SVGID_2_);fill:#361313; fill-opacity: 1; stroke-opacity: 1;}
]]>
</style>
<g>
	<defs>
		<rect id="SVGID_1_" width="432" height="72"/>
	</defs>
	<clipPath id="SVGID_2_">
		<use xlink:href="#SVGID_1_"  style="overflow:visible;"/>
	</clipPath>
	<path class="st0" d="M379.886,7.313c-1.381-0.203-2.792-0.309-4.225-0.309H56.31h-0.694c-1.433,0-2.844,0.106-4.225,0.309
		c-13.344,1.966-23.85,13.099-24.682,26.952l1.497,0.09c0.137-2.265,0.545-4.453,1.193-6.533C32.9,16.588,43.383,8.504,55.616,8.504
		h0.694h319.351c14.5,0,26.539,11.355,27.41,25.851l1.497-0.09C403.737,20.412,393.23,9.279,379.886,7.313"/>
	<path class="st0" d="M402.957,38.994c-1.365,12.504-11.073,22.408-23.29,24.208c-1.309,0.192-2.647,0.292-4.006,0.292H56.31h-0.693
		c-14.5,0-26.54-11.354-27.41-25.851l-1.498,0.091c0.918,15.285,13.616,27.26,28.908,27.26h0.693h319.351
		c15.292,0,27.99-11.975,28.907-27.26l-1.497-0.091C403.044,38.098,403.006,38.547,402.957,38.994"/>
	<path class="st0" d="M421.592,28.914c-4.656,0-6.346,3.795-6.346,6.346c0,2.509,1.661,6.241,6.239,6.241
		c4.706,0,5.072-3.587,5.072-4.688c0-1.439-0.923-3.876-4.387-3.876c-0.865,0-1.664,0.052-1.962,0.691
		c-0.287,0.617,0.15,1.138,0.574,1.642c0.439,0.523,0.987,1.174,0.987,1.927c0,0.901-0.752,1.497-1.395,1.733
		c-0.739,0.274-1.799,0.254-2.542-0.62l-0.064,0.056c-0.761-0.979-1.023-2.204-1.023-3.106c0-1.676,1.013-4.846,4.846-4.846
		c2.258,0,7.512,0.688,7.512,7.063c0,2.185-0.695,3.911-2.066,5.133c-1.676,1.493-4.247,2.123-7.261,1.777
		c-2.846-0.328-3.838-2.76-4.713-4.905c-0.268-0.657-0.521-1.279-0.816-1.804c-0.354-0.624-1.013-1.789-2.703-1.704
		c-1.915,0.153-2.478,1.344-2.524,2.028l-0.005-0.001c-1.058,17.635-15.71,31.449-33.354,31.449H55.617
		c-17.644,0-32.295-13.814-33.355-31.449l-0.004,0.001c-0.046-0.685-0.609-1.875-2.547-2.03c-1.681-0.084-2.327,1.082-2.679,1.707
		c-0.295,0.523-0.549,1.146-0.818,1.804c-0.875,2.146-1.867,4.576-4.713,4.904c-3.006,0.345-5.583-0.284-7.259-1.777
		c-1.372-1.222-2.067-2.948-2.067-5.133c0-6.375,5.253-7.063,7.512-7.063c3.833,0,4.846,3.17,4.846,4.846
		c0,0.903-0.263,2.128-1.024,3.106l-0.064-0.056c-0.743,0.873-1.8,0.894-2.542,0.62c-0.644-0.236-1.396-0.832-1.396-1.733
		c0-0.753,0.548-1.404,0.988-1.927c0.423-0.504,0.862-1.025,0.574-1.642c-0.297-0.639-1.097-0.691-1.961-0.691
		c-3.464,0-4.388,2.437-4.388,3.876c0,1.101,0.366,4.688,5.072,4.688c4.579,0,6.241-3.732,6.241-6.241
		c0-2.551-1.69-6.346-6.346-6.346c-5.643,0-9.012,3.201-9.012,8.563c0,2.593,0.888,4.755,2.569,6.254
		c1.653,1.474,3.987,2.249,6.689,2.249c0.565,0,1.146-0.034,1.74-0.103c3.727-0.43,5.001-3.549,5.93-5.827
		c0.251-0.614,0.487-1.194,0.736-1.635c0.353-0.627,0.604-0.98,1.276-0.946c1.028,0.082,1.139,0.539,1.15,0.622
		c0.06,0.998,0.17,1.981,0.311,2.953c-1.034,0.975-3.88,4.359-1.561,10.51c1.177,3.119,3.26,4.959,4.781,6.302
		c0.935,0.826,1.743,1.539,1.759,2.075c0.009,0.276-0.197,0.626-0.612,1.041c-0.787,0.786-1.517,1.002-2.23,0.664
		c-1.257-0.598-2.272-2.832-2.09-4.597l0.104-1.008l-0.993,0.193c-0.009,0.002-0.226,0.043-0.564,0.068l-0.001-0.042
		c-0.084,0-2.067-0.025-2.933-2.018c-0.405-0.932,0.136-1.623,1.008-2.57c0.619-0.672,1.32-1.435,0.876-2.322
		c-0.247-0.492-0.906-0.902-1.961-0.428c-1.724,0.774-3.632,3.357-2.574,6.004c1.001,2.504,3.69,3,5.529,2.892
		c0.117,2.016,1.197,4.345,2.954,5.182c0.316,0.15,0.764,0.3,1.302,0.3c0.746,0,1.663-0.288,2.634-1.258
		c0.729-0.729,1.073-1.432,1.05-2.147c-0.036-1.185-1.02-2.053-2.265-3.153c-1.482-1.308-3.325-2.937-4.37-5.708
		c-1.563-4.144-0.454-6.766,0.484-8.076C24.65,58.99,38.836,70.95,55.617,70.95h320.044c16.781,0,30.967-11.959,34.215-28.002
		c0.937,1.31,2.046,3.933,0.482,8.075c-1.045,2.771-2.889,4.399-4.369,5.708c-1.245,1.101-2.229,1.969-2.266,3.153
		c-0.021,0.716,0.322,1.418,1.051,2.147c0.971,0.97,1.889,1.258,2.634,1.258c0.537,0,0.986-0.149,1.303-0.3
		c1.757-0.837,2.837-3.166,2.954-5.182c1.842,0.106,4.526-0.388,5.528-2.892c1.06-2.646-0.85-5.229-2.574-6.004
		c-1.053-0.474-1.714-0.065-1.961,0.428c-0.443,0.888,0.258,1.65,0.877,2.322c0.871,0.947,1.412,1.639,1.008,2.57
		c-0.866,1.992-2.85,2.018-2.93,2.018v0.046c-0.321-0.026-0.535-0.066-0.569-0.072l-0.992-0.188l0.103,1.003
		c0.184,1.765-0.832,3.999-2.089,4.597c-0.715,0.339-1.443,0.122-2.229-0.664c-0.415-0.415-0.621-0.765-0.613-1.041
		c0.017-0.536,0.825-1.249,1.759-2.075c1.522-1.343,3.605-3.183,4.781-6.302c2.32-6.15-0.526-9.535-1.56-10.51
		c0.14-0.961,0.246-1.934,0.308-2.919c0.008-0.095,0.103-0.572,1.128-0.655c0.708-0.037,0.947,0.318,1.301,0.944
		c0.248,0.441,0.485,1.021,0.736,1.635c0.928,2.278,2.202,5.398,5.929,5.828c0.595,0.068,1.175,0.103,1.74,0.103
		c2.703,0,5.037-0.776,6.69-2.25c1.681-1.498,2.568-3.661,2.568-6.253C430.604,32.115,427.234,28.914,421.592,28.914
		 M423.271,37.197c0-1.212-0.701-2.127-1.227-2.759c0.04-0.001,0.082-0.001,0.127-0.001c2.679,0,2.887,1.819,2.887,2.376
		c0,1.436-0.603,3.142-3.457,3.187C422.636,39.373,423.271,38.334,423.271,37.197 M6.22,36.813c0-0.558,0.208-2.376,2.888-2.376
		c0.045,0,0.087,0,0.127,0.001c-0.527,0.632-1.228,1.547-1.228,2.759c0,1.137,0.636,2.176,1.67,2.803
		C6.824,39.955,6.22,38.249,6.22,36.813"/>
	<path class="st0" d="M16.343,26.032c1.053,0.471,1.713,0.065,1.96-0.428c0.444-0.888-0.257-1.65-0.876-2.322
		c-0.872-0.948-1.413-1.639-1.007-2.571c0.869-2.001,2.828-2.061,2.906-2.063v-0.002c0.334,0.026,0.557,0.067,0.592,0.074
		l0.992,0.188l-0.104-1.002c-0.194-1.882,0.653-4.174,1.777-4.807c0.313-0.176,0.818-0.343,1.565,0.222
		c0.521,0.432,0.788,0.81,0.816,1.156c0.053,0.669-0.732,1.567-1.726,2.704c-1.323,1.514-2.969,3.397-4.039,6.208
		c-2.544,6.69,1.274,10.24,1.568,10.499c0,0.007-0.001,0.014-0.002,0.021l1.497,0.09C23.322,16.364,37.973,2.55,55.617,2.55h320.044
		c17.644,0,32.296,13.814,33.354,31.449l1.498-0.09c0-0.007-0.001-0.014-0.002-0.021c0.297-0.262,4.112-3.812,1.568-10.499
		c-1.069-2.811-2.717-4.694-4.038-6.208c-0.994-1.137-1.78-2.035-1.727-2.704c0.028-0.346,0.294-0.724,0.789-1.135
		c0.773-0.586,1.279-0.419,1.592-0.243c1.124,0.633,1.972,2.925,1.776,4.807l-0.101,1.002l0.988-0.188
		c0.036-0.007,0.26-0.048,0.594-0.074v0.002c0.019,0,2.024,0.035,2.905,2.063c0.405,0.932-0.136,1.623-1.008,2.571
		c-0.618,0.672-1.319,1.434-0.876,2.322c0.247,0.493,0.91,0.9,1.961,0.428c1.725-0.775,3.632-3.358,2.574-6.004
		c-0.999-2.498-3.667-2.997-5.515-2.893c-0.064-2.052-0.956-4.438-2.564-5.343c-1.023-0.577-2.172-0.45-3.259,0.375
		c-0.849,0.703-1.29,1.42-1.353,2.191c-0.104,1.299,0.864,2.407,2.092,3.81c1.243,1.424,2.792,3.195,3.765,5.755
		c1.497,3.932,0.484,6.547-0.363,7.86C408.205,14.386,393.382,1.05,375.661,1.05H55.617c-17.72,0-32.545,13.336-34.652,30.734
		c-0.846-1.313-1.859-3.929-0.363-7.861c0.973-2.56,2.521-4.331,3.765-5.755c1.227-1.403,2.196-2.511,2.092-3.81
		c-0.062-0.771-0.505-1.488-1.379-2.212c-1.063-0.805-2.21-0.93-3.233-0.354c-1.607,0.905-2.5,3.291-2.564,5.343
		c-1.836-0.103-4.515,0.395-5.515,2.893C12.709,22.674,14.619,25.258,16.343,26.032"/>
</g>
</svg>
