<?xml version="1.0" encoding="utf-8"?>
<!-- Generator: Adobe Illustrator 14.0.0, SVG Export Plug-In . SVG Version: 6.00 Build 43363)  -->
<!DOCTYPE svg PUBLIC "-//W3C//DTD SVG 1.1//EN" "http://www.w3.org/Graphics/SVG/1.1/DTD/svg11.dtd">
<svg version="1.1" id="Layer_1" xmlns="http://www.w3.org/2000/svg" xmlns:xlink="http://www.w3.org/1999/xlink" x="0px" y="0px"
	 width="25.199px" height="12.312px" viewBox="0 0 25.199 12.312" style="enable-background:new 0 0 25.199 12.312;"
	 xml:space="preserve">
<style type="text/css">
<![CDATA[
	.st0{fill:#361313; fill-opacity: 1; stroke-opacity: 1;fill-rule:evenodd;clip-rule:evenodd;}
]]>
</style>
<g>
	<path class="st0" d="M7.962,1.985c0.761-0.326,1.445-0.659,2.213-0.911c0.787-0.259,1.653-0.475,2.386-0.738
		c0.248-0.089,0.492-0.247,0.738-0.304c0.374-0.086,0.683,0.018,1.041,0.087c0.19,0.037,0.412,0.044,0.606,0.087
		c1.09,0.236,2.222,0.609,3.428,0.65c0.45,0.016,0.852-0.009,1.172,0.043c0.507,0.083,1.078,0.06,1.648,0.174
		c0.197,0.039,0.361,0.148,0.564,0.173c0.247,0.03,0.488-0.018,0.737,0c0.351,0.025,0.646,0.174,0.911,0.217
		c0.601,0.097,1.321-0.117,1.778,0.347c0.107,0.94-0.465,1.384-1.041,1.562c-0.201,0.062-0.468,0.11-0.694,0.13
		c-0.479,0.042-0.981-0.1-1.475-0.086c-0.36,0.009-0.737,0.169-1.128,0.173c-0.517,0.006-1.061-0.202-1.563-0.173
		c-0.312,0.018-0.653,0.156-0.954,0.217c-0.357,0.072-0.668,0.091-0.955,0.217c0.416,0.655,1.068,1.072,1.085,2.126
		c0.35,0.388,0.929,1.235,0.434,1.952c-0.102,0.146-0.479,0.389-0.737,0.434c-0.372,0.065-0.845-0.145-1.258,0
		c-0.18,0.063-0.375,0.322-0.564,0.478c-0.216,0.178-0.433,0.347-0.65,0.434c-0.105,0.042-0.293,0.038-0.434,0.087
		c-0.581,0.203-1.04,0.747-1.476,0.651c-0.312-0.068-0.317-0.598-0.65-0.694c-0.219-0.064-0.477,0.088-0.651,0.043
		c-0.4-0.104-0.392-0.538-0.694-0.563c-0.577,0.46-1.197,0.88-2.039,0.911c-1.282,0.047-1.876-0.91-2.95-1.042
		c-0.124,0.396,0.05,1.091-0.26,1.302C5.981,9.987,6,9.094,5.966,8.536C5.934,7.99,5.886,7.001,5.923,6.194
		C5.951,5.593,5.995,4.067,6.27,3.981c0.107-0.033,0.184,0.025,0.261,0c-0.057,0.85,0.179,1.46,0.867,1.605
		c0.259,0.054,0.555-0.028,0.824,0C8.541,5.62,8.942,5.843,9.35,5.89c0.382,0.043,0.9,0.028,1.259-0.043
		c0.322-0.064,0.542-0.256,0.737-0.217c0.19,0.039,0.392,0.387,0.564,0.478c0.646,0.339,1.451-0.052,2.039,0.217
		c0.33-0.131,0.516-0.044,0.824,0.043c0.581-0.25,1.499-0.018,1.952,0.26c0.217-0.318,1.006-0.064,1.215-0.39
		c-0.506-0.58-1.498-0.81-2.43-0.694c-0.172,0.021-0.355,0.139-0.521,0.13C14.833,5.665,14.68,5.53,14.557,5.5
		c-0.205-0.052-0.396-0.004-0.564-0.043c-0.49-0.115-0.873-0.422-1.215-0.651c-0.371-0.249-0.639-0.594-1.041-0.868
		C11.493,3.771,11.084,3.779,11,3.417c0.552-0.336,1.154,0.532,1.692,0.347c0.348-0.12,0.239-0.686,0.347-1.128
		c0.421,0.003,0.566,0.559,0.954,0.434c0.314-0.102,0.1-0.476,0.304-0.694c0.716,0.315,1.781,0.417,2.733,0.174
		c0.194-0.05,0.366-0.202,0.564-0.217c0.275-0.021,0.581,0.111,0.867,0.13c0.551,0.037,1.024-0.026,1.519-0.174
		c0.474,0.194,0.946,0.352,1.519,0.261c0.182-0.029,0.331-0.142,0.521-0.13c0.293,0.018,0.611,0.273,0.954,0.347
		c0.223,0.048,0.488,0.079,0.694,0.087c0.304,0.011,0.71-0.004,0.911-0.304c-0.271-0.236-0.687-0.088-0.997-0.217
		c-0.27-0.111-0.303-0.359-0.521-0.477c-0.288-0.118-0.886-0.227-1.084,0.043c-0.352-0.301-1.215-0.56-1.692-0.217
		c-0.444-0.341-1.08,0.003-1.519-0.347c-1.05,0.195-1.951-0.171-3.037-0.347c-0.362-0.059-0.818-0.121-1.215-0.217
		c-0.46-0.112-0.852-0.281-1.214-0.217c-0.228,0.04-0.479,0.246-0.738,0.347c-0.258,0.102-0.563,0.193-0.824,0.26
		c-0.606,0.157-1.172,0.32-1.692,0.521C8.986,2.09,7.955,2.594,6.791,2.81C6.609,2.946,6.738,3.393,6.314,3.287
		c-0.188-0.106-0.069-0.524,0-0.868c0.073-0.37,0.146-0.758,0.39-0.781c0.351-0.032,0.271,0.331,0.478,0.564
		C7.458,2.239,7.723,2.087,7.962,1.985z M23.582,1.812c0.061,0.327,0.8,0.397,1.084,0.217c-0.063-0.218-0.468-0.142-0.694-0.174
		C23.807,1.832,23.682,1.693,23.582,1.812z M15.772,3.243c-0.044,0-0.087,0-0.131,0c-0.401,0.211-0.41,0.776-0.607,1.171
		c-0.119,0.241-0.461,0.377-0.347,0.651c0.743-0.183,0.612-1.239,1.128-1.648C15.833,3.326,15.786,3.302,15.772,3.243z
		 M16.943,3.677c-0.366,0.14-0.722,0.291-1.171,0.347c0.147,0.497,1.09,0.006,1.215-0.174C17.004,3.76,16.957,3.736,16.943,3.677z
		 M13.472,3.721c0.115,0.48,0.418,0.995,0.868,0.998c0.021-0.277-0.269-0.366-0.391-0.521c-0.136-0.17-0.175-0.385-0.348-0.521
		C13.533,3.665,13.528,3.718,13.472,3.721z M17.941,6.671c-0.446-0.088-1.082,0.244-0.911,0.911
		c0.031,0.123,0.237,0.352,0.434,0.434c0.431,0.181,1.303-0.015,1.345-0.521C18.845,7.05,18.297,6.741,17.941,6.671z M15.078,6.844
		c-0.101-0.014-0.167,0.007-0.217,0.044C15,7.222,14.734,7.553,14.904,7.755C15.255,7.724,15.197,7.097,15.078,6.844z M14.08,6.888
		c-0.044,0-0.087,0-0.13,0c-0.116,0.156-0.221,0.904,0.173,0.824C14.173,7.532,14.128,7.109,14.08,6.888z M12.344,8.406
		c0.481,0.185,1.299-0.64,1.778-0.087c0.2,0.026,0.25-0.098,0.435-0.087c0.556,0.104,1.514,0.151,1.908-0.087
		c-0.094-0.264-0.452-0.1-0.693-0.087c-0.441,0.023-0.833,0.065-1.129-0.087c-0.192-0.019-0.315,0.031-0.434,0.087
		C13.673,7.679,12.636,7.997,12.344,8.406z M9.654,8.016c0.009,0.164,0.219,0.319,0.348,0.391c0.348,0.193,0.865,0.319,1.302,0.26
		c0-0.072,0-0.145,0-0.217c-0.231-0.093-0.438-0.036-0.651-0.087C10.277,8.273,9.999,7.951,9.654,8.016z"/>
	<path class="st0" d="M0.283,1.074c-0.284,0.702-0.053,1.917-0.13,2.69c-0.09,0.902-0.202,2.178-0.13,3.253
		c0.02,0.3,0.115,0.936,0.13,1.259C0.18,8.877,0.14,9.616,0.11,10.271c-0.042,0.869-0.17,1.841,0.521,2.039
		c0.411,0.013,0.806-0.223,1.215-0.26c0.232-0.021,0.517,0.095,0.78,0.087c0.278-0.009,0.514-0.146,0.738-0.131
		c0.408,0.03,0.759,0.34,1.171,0.174c0.474-0.291,0.24-1.163,0.391-1.692c0.368-0.258,1.024,0.221,1.215-0.304
		C5.878,9.79,4.929,10.243,4.492,9.968c-0.356-1.842-0.2-3.939-0.044-5.943c0.029-0.375,0.038-0.77,0.087-1.128
		C4.579,2.575,4.629,2.24,4.795,1.985c0.336-0.124,1.313,0.243,1.388-0.261C6.127,1.39,5.489,1.638,5.229,1.508
		C5.053,1.438,5.09,1.155,4.968,1.031C4.81,1.033,4.701,0.918,4.578,0.9C4.179,0.843,3.843,1.077,3.45,1.118
		C3.166,1.147,2.831,1.046,2.496,1.074C2.271,1.093,2.06,1.168,1.845,1.161C1.338,1.143,0.797,0.881,0.283,1.074z"/>
	<path class="st0" d="M17.463,7.018c-0.387,0.015-0.262,0.584-0.087,0.737c0.267,0.075,0.8,0.168,1.042,0
		C18.062,7.547,17.395,7.649,17.463,7.018z"/>
	<path class="st0" d="M5.446,9.664c0.462-0.413,0.358-1.655-0.26-1.648C4.585,8.021,4.507,9.199,4.925,9.621
		C5.055,9.679,5.257,9.665,5.446,9.664z"/>
</g>
</svg>
