<?xml version="1.0" encoding="utf-8"?>
<!-- Generator: Adobe Illustrator 14.0.0, SVG Export Plug-In . SVG Version: 6.00 Build 43363)  -->
<!DOCTYPE svg PUBLIC "-//W3C//DTD SVG 1.1//EN" "http://www.w3.org/Graphics/SVG/1.1/DTD/svg11.dtd">
<svg version="1.1" id="Layer_1" xmlns="http://www.w3.org/2000/svg" xmlns:xlink="http://www.w3.org/1999/xlink" x="0px" y="0px"
	 width="232.613px" height="131.636px" viewBox="-0.001 0 232.613 131.636"
	 style="enable-background:new -0.001 0 232.613 131.636;" xml:space="preserve">
<style type="text/css">
<![CDATA[
	.st0{fill:#361313; fill-opacity: 1; stroke-opacity: 1;}
	.st1{fill:#240101; fill-opacity: 1; stroke-opacity: 1;}
]]>
</style>
<g id="oval">
	<ellipse class="st0" cx="116.306" cy="65.818" rx="116.306" ry="65.818"/>
	<path class="st1" d="M116.306,127.062c-15.267,0-30.065-1.689-43.989-5.021c-6.669-1.598-13.097-3.571-19.104-5.868
		c-5.924-2.264-11.486-4.86-16.533-7.718c-5.01-2.833-9.548-5.945-13.487-9.245c-3.928-3.291-7.291-6.795-9.995-10.411
		c-5.479-7.333-8.258-15.063-8.258-22.981c0-7.916,2.777-15.646,8.258-22.979c2.704-3.617,6.068-7.12,9.995-10.412
		c3.94-3.3,8.479-6.412,13.487-9.244c5.048-2.858,10.61-5.455,16.533-7.72c6.008-2.295,12.436-4.269,19.104-5.867
		c13.922-3.333,28.723-5.022,43.989-5.022c15.267,0,30.066,1.689,43.988,5.022c6.67,1.598,13.098,3.571,19.105,5.867
		c5.924,2.265,11.486,4.861,16.533,7.72c5.01,2.833,9.547,5.945,13.486,9.244c3.93,3.292,7.291,6.794,9.996,10.412
		c5.48,7.333,8.258,15.063,8.258,22.979c0,7.917-2.777,15.648-8.258,22.981c-2.703,3.616-6.066,7.12-9.996,10.411
		c-3.939,3.3-8.479,6.412-13.486,9.245c-5.047,2.857-10.609,5.454-16.533,7.718c-6.008,2.296-12.436,4.271-19.105,5.868
		C146.372,125.372,131.571,127.062,116.306,127.062z M116.306,5.661c-15.167,0-29.868,1.679-43.694,4.988
		c-6.616,1.585-12.991,3.542-18.948,5.819c-5.867,2.244-11.375,4.814-16.37,7.642c-4.945,2.797-9.425,5.869-13.313,9.123
		c-3.86,3.235-7.165,6.675-9.817,10.224c-5.342,7.148-8.049,14.67-8.049,22.36c0,7.692,2.707,15.214,8.049,22.36
		c2.652,3.553,5.956,6.991,9.817,10.227c3.887,3.254,8.365,6.324,13.313,9.122c4.995,2.828,10.503,5.397,16.37,7.643
		c5.957,2.278,12.333,4.233,18.948,5.816c13.826,3.311,28.527,4.989,43.694,4.989c15.167,0,29.867-1.679,43.693-4.989
		c6.617-1.583,12.992-3.54,18.949-5.816c5.867-2.245,11.375-4.814,16.369-7.643c4.947-2.798,9.426-5.868,13.313-9.122
		c3.861-3.235,7.164-6.676,9.818-10.227c5.342-7.146,8.049-14.668,8.049-22.36c0-7.69-2.707-15.212-8.049-22.36
		c-2.652-3.55-5.955-6.99-9.818-10.224c-3.887-3.255-8.363-6.326-13.313-9.123c-4.994-2.828-10.502-5.398-16.369-7.642
		c-5.957-2.278-12.332-4.234-18.949-5.819C146.173,7.34,131.473,5.661,116.306,5.661z"/>
</g>
<g id="crown">
	<g>
		<g>
			<path class="st1" d="M130.073,38.522c-2.793-0.405-8.295-1.075-13.768-1.025c-5.417-0.053-10.87,0.611-13.642,1.008
				c-0.643,0.092-1.081,0.649-0.98,1.242c0.101,0.596,0.7,1,1.342,0.908c2.701-0.389,8.016-1.032,13.268-0.984h0.013h0.012
				c5.307-0.05,10.668,0.605,13.393,1c0.063,0.009,0.123,0.015,0.184,0.015c0.568,0,1.068-0.383,1.16-0.92
				C131.153,39.172,130.716,38.616,130.073,38.522z M115.75,16.702c0.012,0.002,0.022,0.005,0.035,0.007
				c0.043,0.007,0.086,0.013,0.13,0.018c0.017,0.002,0.03,0.003,0.047,0.005c0.041,0.004,0.083,0.008,0.125,0.013
				c0.017,0.001,0.031,0.002,0.047,0.003c0.058,0.003,0.113,0.004,0.172,0.004c0.057,0,0.113-0.001,0.171-0.004
				c0.017-0.001,0.03-0.001,0.047-0.003c0.042-0.004,0.084-0.008,0.125-0.013c0.017-0.002,0.031-0.003,0.047-0.005
				c0.045-0.005,0.088-0.012,0.131-0.018c0.012-0.002,0.021-0.005,0.033-0.007c0.055-0.009,0.107-0.019,0.162-0.031l0,0
				c1.275-0.296,2.223-1.366,2.223-2.639c0-1.502-1.314-2.719-2.939-2.719c-1.624,0-2.939,1.216-2.939,2.719
				C113.365,15.358,114.393,16.462,115.75,16.702z M136.844,15.082c-1.623,0-2.939,1.218-2.939,2.721
				c0,1.106,0.713,2.056,1.736,2.481l0,0c0.123,0.053,0.248,0.095,0.379,0.13c0.002,0.001,0.004,0.001,0.006,0.001
				c0.262,0.07,0.535,0.108,0.818,0.108c1.623,0,2.939-1.218,2.939-2.721S138.468,15.082,136.844,15.082z M96.591,20.414
				c0.131-0.035,0.257-0.079,0.379-0.13l0,0c1.023-0.425,1.736-1.374,1.736-2.481c0-1.502-1.315-2.721-2.939-2.721
				s-2.939,1.218-2.939,2.721s1.315,2.721,2.939,2.721c0.283,0,0.559-0.038,0.817-0.108C96.586,20.415,96.589,20.414,96.591,20.414z
				 M135.231,21.128c-0.102-0.042-0.193-0.096-0.291-0.146c-11.082,10.742-16.057,0.998-17.625-3.432
				c-0.018,0.006-0.033,0.013-0.051,0.017c-0.072,0.016-0.145,0.032-0.264,0.051c-0.059,0.009-0.115,0.019-0.174,0.025l-0.055,0.006
				l-0.008,0.001c-0.057,0.006-0.112,0.011-0.178,0.014l-0.042,0.004l-0.012,0.002c-0.076,0.003-0.152,0.006-0.229,0.006
				c-0.077,0-0.153-0.003-0.229-0.006l-0.056-0.006l-0.008,0c-0.057-0.004-0.113-0.008-0.171-0.015l-0.054-0.006l-0.007-0.001
				c-0.06-0.007-0.117-0.017-0.222-0.033c-0.092-0.016-0.176-0.048-0.264-0.07c-1.565,4.425-6.539,14.19-17.629,3.441
				c-0.097,0.051-0.189,0.104-0.292,0.146c-0.164,0.068-0.335,0.128-0.517,0.176c-0.141,0.038-0.282,0.061-0.426,0.085l4.426,15.781
				c0,0,7.762-1.376,15.443-1.306c7.684-0.07,15.444,1.306,15.444,1.306l4.426-15.781c-0.145-0.023-0.291-0.048-0.434-0.086
				C135.567,21.255,135.397,21.196,135.231,21.128z"/>
		</g>
	</g>
</g>
</svg>
