<?xml version="1.0" encoding="utf-8"?>
<!-- Generator: Adobe Illustrator 14.0.0, SVG Export Plug-In . SVG Version: 6.00 Build 43363)  -->
<!DOCTYPE svg PUBLIC "-//W3C//DTD SVG 1.1//EN" "http://www.w3.org/Graphics/SVG/1.1/DTD/svg11.dtd">
<svg version="1.1" id="Layer_1" xmlns="http://www.w3.org/2000/svg" xmlns:xlink="http://www.w3.org/1999/xlink" x="0px" y="0px"
	 width="501.597px" height="8.421px" viewBox="0 0 501.597 8.421" style="enable-background:new 0 0 501.597 8.421;"
	 xml:space="preserve">
<style type="text/css">
<![CDATA[
	.st0{fill:#361313; fill-opacity: 1; stroke-opacity: 1;stroke:#361313; fill-opacity: 1; stroke-opacity: 1;stroke-width:0.4205;stroke-linecap:round;}
	.st1{fill:#240101; fill-opacity: 1; stroke-opacity: 1;stroke:#240101; fill-opacity: 1; stroke-opacity: 1;stroke-width:0.5077;stroke-linecap:round;}
	.st2{fill:#482525; fill-opacity: 1; stroke-opacity: 1;stroke:#482525; fill-opacity: 1; stroke-opacity: 1;stroke-width:0.1763;stroke-linecap:round;}
	.st3{fill:#120000; fill-opacity: 1; stroke-opacity: 1;stroke:#120000; fill-opacity: 1; stroke-opacity: 1;stroke-width:0.3097;stroke-linecap:round;}
	.st4{fill:#5a3737; fill-opacity: 1; stroke-opacity: 1;}
	.st5{fill:#000000; fill-opacity: 1; stroke-opacity: 1;stroke:#000000; fill-opacity: 1; stroke-opacity: 1;stroke-width:0.1977;stroke-linecap:round;}
	.st6{fill:#6c4949; fill-opacity: 1; stroke-opacity: 1;stroke:#6c4949; fill-opacity: 1; stroke-opacity: 1;stroke-width:0.3154;stroke-linecap:round;}
	.st7{fill:#361313; fill-opacity: 1; stroke-opacity: 1;stroke:#361313; fill-opacity: 1; stroke-opacity: 1;stroke-width:0.1995;stroke-linecap:round;}
	.st8{fill:#240101; fill-opacity: 1; stroke-opacity: 1;stroke:#240101; fill-opacity: 1; stroke-opacity: 1;stroke-width:0.2537;stroke-linecap:round;}
	.st9{fill:#482525; fill-opacity: 1; stroke-opacity: 1;stroke:#482525; fill-opacity: 1; stroke-opacity: 1;stroke-width:0.3224;stroke-linecap:round;}
	.st10{fill:#120000; fill-opacity: 1; stroke-opacity: 1;stroke:#120000; fill-opacity: 1; stroke-opacity: 1;stroke-width:0.228;stroke-linecap:round;}
	.st11{fill:#5a3737; fill-opacity: 1; stroke-opacity: 1;stroke:#5a3737; fill-opacity: 1; stroke-opacity: 1;stroke-width:0.3407;stroke-linecap:round;}
	.st12{fill:#000000; fill-opacity: 1; stroke-opacity: 1;stroke:#000000; fill-opacity: 1; stroke-opacity: 1;stroke-width:0.2907;stroke-linecap:round;}
]]>
</style>
<g>
	<g>
		<path class="st4" d="M0,3.498c0-0.087,0-0.173,0-0.259C0.578,3.292,0.521,3.002,1.2,3.11c0.128,0.186-0.936,0.315-0.24,0.389
			C0.802,3.886,0.447,3.373,0,3.498z"/>
		<path class="st4" d="M3.36,3.11C3.9,3.317,5.008,3.68,4.32,4.146C3.737,3.942,3.421,3.595,3.36,3.11z"/>
		<path class="st4" d="M333.121,4.534c0.155-0.364,0.278,0.297,0.239,0.389C333.25,5.185,332.91,5.027,333.121,4.534z"/>
		<path class="st4" d="M231.84,6.347c-0.158,0.174-0.513,0.24-0.96,0.26C230.91,6.126,231.23,6.281,231.84,6.347z"/>
		<path class="st4" d="M37.68,6.347c0.193,0.068,0.39,0.137,0.72,0.131c0.035,0.363-0.587,0.373-1.2,0.387
			C37.203,6.609,37.855,6.703,37.68,6.347z"/>
		<path class="st4" d="M297.841,6.478c0.037-0.152,0.438-0.109,0.72-0.131c0,0.131,0,0.26,0,0.389
			C298.028,6.808,298.218,6.49,297.841,6.478z"/>
		<path class="st4" d="M67.92,7.642c0.007-0.125,0.294-0.1,0.48-0.129C68.394,7.638,68.106,7.613,67.92,7.642z"/>
		<path class="st4" d="M81.36,7.513c0.627-0.037,1.201-0.045,0.96,0.389C81.692,7.939,81.288,7.855,81.36,7.513z"/>
		<path class="st4" d="M54.72,7.773c0.194,0.023,0.239,0.129,0.48,0.129c0,0.086,0,0.174,0,0.26c-0.32,0-0.64,0-0.96,0
			C54.325,7.99,54.663,7.957,54.72,7.773z"/>
		<path class="st4" d="M74.88,7.902c-0.384,0.225-1.081,0.279-1.92,0.26C73.014,7.757,74.155,7.943,74.88,7.902z"/>
		<path class="st4" d="M58.56,8.419c-0.134-0.316-0.929-0.275-0.72-0.777c1.073-0.311,2.196,0.145,2.88-0.258
			c-0.443-0.516-1.918,0.234-3.36,0c1.204-0.24,0.24-0.781-0.72-0.906l0.12-0.131l-0.12-0.129c-1.344-0.139-1.953-0.674-2.16-1.426
			c-0.315,0.133-0.885,0.127-1.2,0.26c-0.155,0.518,0.635,0.521,0.48,1.035c-2.022-0.34-4.014,0.293-5.76,0.52
			c0-0.217,0-0.434,0-0.648c-2.088-0.037-4.515,0.105-6.24-0.129c-0.128,0.535-1.573,0.359-2.16,0.648l-0.12-0.066l-0.12-0.063
			c-0.14-0.572-1.029-0.74-1.44-1.166c-4.044,1.146-8.963,0.266-14.16,0.773c-0.543-0.226-0.223-0.914-0.96-1.035
			c-1.118-0.113,0.162,0.43-0.48,0.389c-1.503-0.094-3.618-0.543-4.56,0.129C17.48,5.23,18.139,4.781,16.8,5.05
			c-0.076-0.301,0.039-0.497,0.24-0.647c-1.163-0.33-2.227,0.063-3.36,0.129c-0.571,0.039,0.267,0.352,0.48,0.389
			c-2.31,0.693-6.155-0.205-7.68,0c0.111-0.405-0.208-0.579-0.96-0.519c0.938-0.399,1.919-0.778,3.36-0.907
			C8.923,3.95,8.069,3.921,7.92,4.272c0.504,0.532,2.007,0.361,2.88,0.131c-0.17-0.41-1.37,0.354-1.44,0
			c-0.023-0.531,0.83-0.588,1.44-0.778c-0.039-0.151-0.438-0.108-0.72-0.129c0.614-0.31,3.234-0.679,2.88,0
			c0.749-0.552,3.245-0.466,4.32-0.13c1.339-0.184,2.459-0.485,4.08-0.518c-0.391,0.608-1.306,0.936-2.4,1.165
			c0.054,0.403,1.194,0.22,1.92,0.259c0.956-0.391,1.347-1.086,2.88-1.166c0,0.129,0,0.26,0,0.39c0.815-0.165,1.388-0.46,2.16-0.647
			c2.548,0.207,6.212-0.064,8.64,0.129c0.427,0.033,1.386,0.016,1.44,0.389c0.784-0.48,2.344-0.315,4.32-0.389
			c3.736-0.138,7.751-0.482,10.56,0.129c4.714-0.392,9.801-0.582,15.36-0.518c0.971,0.014-0.616,0.523,0.48,0.777
			c2.077-1.51,7.141-0.182,10.32-1.295C77.572,2,77.382,2.319,77.76,2.33c2.763-0.529,6.938-0.075,8.88,0.647
			c1.748-0.361,2.867-0.926,4.8-1.036c1.888-0.108,3.786,0.377,5.76,0.388c1.796,0.01,4.205-0.431,6.72-0.518
			c4.37-0.151,8.331,0.117,12.24-0.259c0.646-0.089,0.464,0.267,0.72,0.389c5.59-0.861,12.733-0.107,19.2-0.518
			c-0.191,0.242-0.401,0.475-0.48,0.776c1.752,0.082,3.006-0.104,3.36-0.776c2.042,0.021,4.387-0.122,5.76,0.259
			c2.758-0.919,6.7,0.059,10.56-0.389c-1.903,0.665,1.128,0.342,2.64,0.389c0.387,0.056,0.805-0.483,0.24-0.518
			c2.732,0.287,7.676-0.469,10.8,0.129c2.673-1.011,7.388,0.336,10.32-0.389c0.102,0.271-0.165,0.343-0.24,0.519
			c0.901,0.098,0.812-0.338,1.2-0.519c5.535-0.27,11.804,0.513,18.24,0.26c7.223-0.283,15.05-0.324,21.36-0.26
			c2.497,0.026,4.761,0.713,6.72-0.129c2.382,0.435,7.248,0.787,9.84,0.259c0.976,0.708,5.646-0.067,8.16,0.389
			c-0.027,0.245-0.793,0.09-0.72,0.389c1.203,0.067,2.592-0.636,3.36,0c0.302-0.032,0.242-0.257,0-0.259
			c7.403,0.347,16.196-0.864,23.28-0.259c0.213,0.23,0.67,0.33,0.48,0.776c1.848-0.415,3.539-0.476,4.799,0.26
			c0.615-0.143,0.837-0.499,1.201-0.777c4.795,1.122,10.631,0.351,15.119-0.648c12.851-0.223,27.06-0.296,41.041-0.647
			c0.389-0.009,0.403-0.109,0.719-0.129c5.748-0.374,11.699,0.399,17.281,0.129c6.395-0.309,15.313-0.178,22.316,0
			c3.626,0.093,6.636-0.192,10.08,0.13c1.426,0.134,2.521,0.575,3.604,0.647c1.99,0.134,4.135-0.005,6.479-0.259
			c4.684-0.507,12.396-0.221,17.76-0.389c-0.098,0.25-0.93,0.102-0.721,0.518c1.189,0.052,1.434-0.55,2.4-0.259
			c0.604-0.338,0.24-0.531,1.438-0.647c4.883,0,9.764,0,14.643,0c9.416,0.495,20.182,0.568,30.479,0.777
			c3.299,0.066,6.566-0.324,9.844-0.259c2.473,0.049,4.932,0.483,7.438,0.647c7.525,0.493,16.102,0.694,24.719,0.388
			c0,0.043,0,0.087,0,0.129c-4.313,3.593-17.67,2.049-26.639,2.848c-0.334-0.164-0.105-0.633-0.721-0.646
			c-7.145,1.25-16.857,0.391-24-0.26c-0.182-0.245-0.719-0.09-0.24-0.389c-1.84,0-2.543,0.613-4.563,0.519
			c0.939-0.619-2.395,0.021-3.117,0.129c-0.701-0.053-0.779-0.442-1.199-0.647c-1.195,0.149-1.207,0.703-2.4,0.908
			c-2.303,0.393-5.576-0.572-7.92,0.129c-0.428-0.096-0.035-0.235,0-0.389c-5.063,0.764-11.924,0.559-17.76,0.908
			c-0.98,0.039,0.039-0.181-0.24-0.519c-1.188,0.668-2.752,0.287-4.32,0.389c-0.729,0.048-1.445,0.317-2.158,0.389
			c-1.314,0.129-2.646-0.051-3.842,0c-0.221,0.01-0.748,0.26-0.961,0.26c-0.395-0.002-0.439-0.361-0.959-0.389
			c-0.385-0.021-0.611,0.299-0.961,0.26c-0.645-0.076-1.188-0.481-1.92-0.389c-1.327,0.521-3.772-0.068-6,0.129V4.792h-0.238
			c0.154-0.131,0.552-0.133,0.479-0.39c-6.816,0.293-15.879,0.499-24.24,0.39c-0.359-0.237-1.033-0.306-1.438-0.519
			c-2.06,0.049-3.375,0.608-4.8,0c-1.141,0.031-1.23,0.631-2.641,0.519c-0.297-0.418,0.774-0.099,0.479-0.519
			c-1.294,0.104-2.44,0.371-4.078,0.389c-0.69,0.006-0.196-0.256-0.239-0.26c-1.353-0.094-3.051,0.209-4.563,0.129
			c0.085-0.17,0.423-0.203,0.479-0.389c-1.636-0.234-1.024,0.743-2.398,0.649c-0.288-0.17-0.094-0.206,0-0.39
			c-3.875,0.862-9.208,0.138-13.92,0.519c-0.438-1.504-2.021-0.039-3.842-0.129c-0.896,0.014-0.017,0.506-0.479,0.518
			c-2.037-0.023-4.115-0.414-6-0.127c0.325-0.396-0.896-0.886,0.239-0.909c-0.028-0.373-1.022-0.224-0.96-0.646
			c-3.738-0.161-4.672,1.192-7.68,1.424c-0.994,0.092,0.25-0.454-0.48-0.647c-1.346,0.225-2.175,0.728-3.119,1.167
			c-0.771,0.113-0.498-0.336-0.961-0.389c-0.881,0.572-3.509,0.545-5.039,0.129c-0.205-0.412,0.377-0.4,0.479-0.647
			c-1.223,0.463-4.365-0.111-5.039,0.647c0.144,0.313,0.463-0.436,0.959,0c-0.813,0.424-2.119,0.582-3.84,0.52
			c0.127-0.104,0.25-0.211,0.24-0.389c-1.527,0.471-3.673,0.605-5.521,0.906c-1.121-0.01,0.278-0.297,0.237-0.52
			c-2.764-0.195-5.008,0.575-7.438,0.129c-0.279,0.021-0.201,0.235-0.238,0.389c-0.732-0.209-1.689-0.295-2.398-0.518
			c-2.547,0.399-6.668,0.717-10.32,0.389c-1.016,0.145-1.523,0.559-2.641,0.648c-0.979,0.036,0.041-0.183-0.239-0.521
			c-2.069-0.143-3.097,0.146-4.8,0c-0.118-0.406,0.826-0.342,0.24-0.646c-2.988,0.072-3.77,1.105-6.961,0.777
			c-0.479-0.246-0.117-0.611,0-0.906c-2.205,1.303-7.063,1.357-10.801,0.646c-0.947,0.311-2.22,0.441-3.84,0.389
			c0.085-0.17,0.423-0.205,0.48-0.389c-2.132,0.305-3.366-0.236-4.8-0.646c-0.819,0.074-1.135,0.422-0.96,1.035
			c-1.455-0.754-3.73,0.398-5.52-0.129c-0.051-0.416,0.856-0.316,1.2-0.52c-1-1.063-2.625,0.088-4.32,0.129
			c-0.719,0.086,0.229,0.276,0,0.52c-1.332-0.014-2.792-0.057-4.56-0.129c-0.281,0.02-0.202,0.234-0.24,0.389
			c-1.532-0.574-4.779-0.027-7.44-0.26c-1.906-0.168-3.102-1.178-3.84-0.26l-0.12-0.064l-0.12,0.064c-0.16,0-0.32,0-0.48,0
			c-0.199-0.365,0.338-0.336,0.24-0.646c-1.998-0.053-3.495,1.836-5.28,0.646c-1.299-0.053-1.418,0.531-2.64,0.52
			c-0.007-0.127-0.294-0.102-0.48-0.129c-0.371-0.189-0.211-0.662-0.24-1.037c-0.818,0.119-1.979,0.055-2.4,0.389
			c-1.64-0.498-2.04-0.125-3.84-0.389c0.034,0.457,1.076,0.369,1.68,0.52c-1.249,0.814-2.82-0.108-5.04,0.13l-0.24-0.063
			l-0.24,0.063c-0.133-0.308-0.928-0.537-1.44-0.261c-0.678,0.066-0.068,0.828-1.2,0.648c-1.281-0.047,0.884-0.391,0-0.648
			c-1.553,0.24-3.164,0.451-4.56,0.777c-2.474-0.629-5.226-0.473-7.92,0c-0.523-0.279-0.603-0.797-0.96-1.166
			c-1.092,0.063-2.941,0.395-2.16,1.035c-1.674-0.029-5.604,0.436-7.44-0.129c-0.489,0.039-0.471,0.352-0.96,0.389
			c-3.881-0.131-7.642,0.432-10.56-0.26c0.026-0.322,0.45-0.4,0-0.646c-0.557,0.041-0.921-0.021-1.2-0.131
			c-0.091,0.48-0.037,0.885,0.72,0.908c-1.597,0.715-5.366-0.232-6.72,0.389c-0.326-0.258-0.483-0.604-1.2-0.646
			c-1.552-0.229-1.739,0.976-2.4,0.129c-0.677,0.021-0.299,0.615-1.2,0.519c-0.752,0.063-0.677-0.324-0.96-0.519
			c-1.415,0.568-4.425,1-5.52,0c-0.885,0.022-0.467,0.423-0.72,0.519c-1.488-0.23-3.227-0.33-4.32-0.775
			c-3.18,0.803-8.967,1.344-13.68,1.035c-0.465-0.029-0.764,0.029-0.72-0.26c-0.601-0.021-0.751,0.199-0.96,0.389
			c-0.404-0.215-1.026-0.703-0.48-1.035c-1.505-0.121-1.825,0.396-2.88,0.52c0.156,0.131,0.552,0.134,0.48,0.39
			c-1.226-0.017-2.525-0.067-3.12,0.26c-0.031-0.319-0.036-0.625,0.24-0.776c-0.578-0.053-0.521,0.235-1.2,0.129
			c-0.154-1.033,1.924-0.859,2.16-1.685c-0.168-0.586-1.379,0.142-1.44-0.389c-0.178-0.442,0.884-0.216,0.96-0.518
			c-1.114-0.387-2.461,0.625-1.68,1.294c-1.274-0.084-1.284,0.515-1.92,0.775V6.478h-0.24c-0.751-0.342-1.601,0.096-2.4,0.129
			c-0.302,0.311-0.484,0.688-0.96,0.906c-1.079-0.045-0.696-0.389-0.96-0.648c-1.611,0.25-0.557,0.74-1.2,1.166
			c-0.881-0.09-1.825-0.223-2.64,0c-0.099-0.613,0.819-0.68,0.72-1.295c-0.788-0.229-1.303,0.631-2.16,0.777l-0.04-0.15l-0.2-0.109
			c0-0.041,0-0.086,0-0.129c-2.066,0.226-3.482,0.842-4.56-0.129c-1.497,0.351-2.555,0.404-3.84,0
			c-0.355,0.066-0.605,0.191-0.96,0.26c0.058,0.228,0.413,0.295,0.96,0.261v0.129h0.24c-0.338,0.021-0.686,0.459-1.2,0.521
			c-0.1,0.012-0.342-0.248-0.96-0.261c-0.596-0.012-1.273,0.56-1.2-0.129c-0.677,0.021-0.299,0.613-1.2,0.519
			c-1.132,0.049-0.456-0.877-1.68-0.775c0.158-0.176,0.513-0.242,0.96-0.262c-1.342-0.76-2.304,0.445-2.64,1.037
			c-1.052,0.057-0.788-0.396-1.68-0.129c0.27-0.244,0.93-0.275,1.2-0.521c-0.268-0.91-4.082-0.731-3.12,0.26
			c-0.213,0.271-1.34-0.04-1.2-0.389c-0.677,1.34-2.467-0.203-4.08-0.261c-0.588-0.383,0.806-0.521,0.96-0.905
			c-1.098-0.063-0.125-0.371-0.72-1.037c-0.734-0.095-0.706,0.226-1.44,0.131c-0.392,0.211,0.214,0.541,0,1.035
			c-0.975,0.295-1.834,0.649-2.16,1.297c-1.8,0.104-1.594-0.866-2.64-1.166c-2-0.086-1.173,2.039-3.12,1.556
			c-0.329-0.119-1.049-0.9-0.72-1.297c0.519-0.291,0.818,0.106,1.68,0c0.368-0.002-0.12-0.611-0.24-0.777
			c-1.19,0.006-2.586-0.1-2.88,0.391C63.465,7.029,65.171,6.455,64.798,7c-1.392,0.142-2.523-0.317-3.12,0.131
			c0.708,0.224,1.524,0.386,1.44,1.035c-0.557-0.043-0.921,0.021-1.2,0.129c-0.92,0.023-0.087-0.104-0.24-0.389
			c-0.757,0.021-1.432,0.092-1.44,0.52C59.68,8.419,59.12,8.419,58.56,8.419z"/>
		<path class="st4" d="M54.48,6.929l0.24-0.064c0.187,0.117,0.258,0.295,0.24,0.52c-1.068-0.102-1.44,0.175-2.4,0.13l0.12-0.13
			l-0.12-0.129c0.334-0.252,1.242-0.192,1.68-0.389L54.48,6.929z"/>
		<path class="st4" d="M50.04,7.384l0.12,0.129c-0.592,0.018-1.156,0.02-1.44-0.129c0.201-0.406,0.943-0.43,1.44-0.131L50.04,7.384z
			"/>
		<path class="st4" d="M214.681,6.412l-0.12-0.063c0.193-0.111,0.657-0.078,0.72-0.261c0.649,0.142-0.416,0.716-0.72,0.39
			L214.681,6.412z"/>
		<path class="st4" d="M55.2,7.125c0.995-0.147,0.935,0.271,1.68,0.26C56.604,7.46,55.196,7.726,55.2,7.125z"/>
		<g>
			<path class="st8" d="M44.04,7.06c0.67,0.023,1.329-0.115,1.92-0.26"/>
			<path class="st1" d="M50.04,7.384c0.837,0.229,1.755,0.049,2.64,0"/>
			<path class="st9" d="M54.48,6.929c-0.071-0.643,1.544-0.42,2.28-0.582"/>
			<path class="st0" d="M39.78,6.898c0.353,0.193,1.252,0.094,1.26,0.422"/>
			<path class="st12" d="M39,6.929c0.336,0.004,0.585-0.014,0.78-0.031"/>
			<path class="st3" d="M39.78,6.898c-0.192-0.145-0.263-0.316-0.3-0.486"/>
			<path class="st7" d="M391.082,4.859c0.246,0.004,0.424-0.031,0.602-0.064"/>
			<path class="st2" d="M214.681,6.412c-0.254,0.008-0.371-0.061-0.48-0.129"/>
			<path class="st6" d="M194.76,6.478c0.289,0.008,0.494-0.109,0.6-0.195"/>
			<path class="st10" d="M109.32,6.865c0.151-0.033,0.445-0.049,0.648-0.104c0.042-0.105,0.111-0.197,0.191-0.283"/>
			<path class="st11" d="M100.08,7.707c-0.024-0.186,0.058-0.266,0.2-0.346"/>
			<path class="st5" d="M91.68,7.642c0.212-0.059,0.537-0.057,0.84-0.064"/>
		</g>
	</g>
</g>
</svg>
