<?xml version="1.0" encoding="utf-8"?>
<!-- Generator: Adobe Illustrator 14.0.0, SVG Export Plug-In . SVG Version: 6.00 Build 43363)  -->
<!DOCTYPE svg PUBLIC "-//W3C//DTD SVG 1.1//EN" "http://www.w3.org/Graphics/SVG/1.1/DTD/svg11.dtd">
<svg version="1.1" id="Layer_1" xmlns="http://www.w3.org/2000/svg" xmlns:xlink="http://www.w3.org/1999/xlink" x="0px" y="0px"
	 width="414.002px" height="9.894px" viewBox="0 0.538 414.002 9.894" style="enable-background:new 0 0.538 414.002 9.894;"
	 xml:space="preserve">
<style type="text/css">
<![CDATA[
	.st0{fill:none;stroke:#361313; fill-opacity: 1; stroke-opacity: 1;stroke-width:1.0072;}
]]>
</style>
<g>
	<path class="st0" d="M0,1.042c9.856,0,9.856,5.842,19.712,5.842c9.855,0,9.855-5.842,19.711-5.842s9.856,5.842,19.711,5.842
		c9.856,0,9.856-5.842,19.712-5.842s9.856,5.842,19.713,5.842s9.857-5.842,19.715-5.842c9.856,0,9.856,5.842,19.713,5.842
		s9.857-5.842,19.714-5.842c9.857,0,9.857,5.842,19.713,5.842c9.854,0,9.854-5.842,19.709-5.842c9.856,0,9.856,5.842,19.712,5.842
		c9.856,0,9.856-5.842,19.715-5.842c9.856,0,9.856,5.842,19.712,5.842c9.857,0,9.857-5.842,19.715-5.842
		c9.856,0,9.855,5.842,19.713,5.842c9.858,0,9.858-5.842,19.719-5.842c9.857,0,9.857,5.842,19.717,5.842s9.857-5.842,19.716-5.842
		c9.859,0,9.859,5.842,19.718,5.842c9.86,0,9.86-5.842,19.721-5.842c9.859,0,9.859,5.842,19.722,5.842"/>
</g>
<g>
	<path class="st0" d="M0,4.086c9.856,0,9.856,5.842,19.712,5.842c9.855,0,9.855-5.842,19.711-5.842s9.856,5.842,19.711,5.842
		c9.856,0,9.856-5.842,19.712-5.842s9.856,5.842,19.713,5.842s9.857-5.842,19.715-5.842c9.856,0,9.856,5.842,19.713,5.842
		s9.857-5.842,19.714-5.842c9.857,0,9.857,5.842,19.713,5.842c9.854,0,9.854-5.842,19.709-5.842c9.856,0,9.856,5.842,19.712,5.842
		c9.856,0,9.856-5.842,19.715-5.842c9.856,0,9.856,5.842,19.712,5.842c9.857,0,9.857-5.842,19.715-5.842
		c9.856,0,9.855,5.842,19.713,5.842c9.858,0,9.858-5.842,19.719-5.842c9.857,0,9.857,5.842,19.717,5.842s9.857-5.842,19.717-5.842
		s9.859,5.842,19.719,5.842s9.859-5.842,19.721-5.842c9.858,0,9.858,5.842,19.721,5.842"/>
</g>
</svg>
