<?xml version="1.0" encoding="utf-8"?>
<!-- Generator: Adobe Illustrator 14.0.0, SVG Export Plug-In . SVG Version: 6.00 Build 43363)  -->
<!DOCTYPE svg PUBLIC "-//W3C//DTD SVG 1.1//EN" "http://www.w3.org/Graphics/SVG/1.1/DTD/svg11.dtd">
<svg version="1.1" id="Layer_1" xmlns="http://www.w3.org/2000/svg" xmlns:xlink="http://www.w3.org/1999/xlink" x="0px" y="0px"
	 width="427.016px" height="4.049px" viewBox="0 0 427.016 4.049" style="enable-background:new 0 0 427.016 4.049;"
	 xml:space="preserve">
<style type="text/css">
<![CDATA[
	.st0{fill:none;stroke:#361313; fill-opacity: 1; stroke-opacity: 1;stroke-width:0.53;}
]]>
</style>
<path class="st0" d="M0.255,2.024c0.666-2.346,2-2.346,2.666,0c0.667,2.346,1.999,2.346,2.666,0c0.667-2.346,1.999-2.346,2.666,0
	c0.667,2.346,1.999,2.346,2.666,0c0.666-2.346,1.999-2.346,2.666,0c0.666,2.346,1.999,2.346,2.665,0
	c0.667-2.346,1.999-2.346,2.666,0c0.667,2.346,2,2.346,2.666,0c0.667-2.346,2-2.346,2.666,0c0.666,2.346,2,2.346,2.665,0
	c0.667-2.346,1.999-2.346,2.666,0c0.667,2.346,1.999,2.346,2.666,0c0.667-2.346,2-2.346,2.667,0c0.666,2.346,1.999,2.346,2.666,0
	c0.666-2.346,2-2.346,2.665,0c0.667,2.346,2,2.346,2.666,0c0.667-2.346,2-2.346,2.666,0c0.667,2.346,2,2.346,2.666,0
	c0.667-2.346,2-2.346,2.666,0c0.667,2.346,2,2.346,2.666,0c0.667-2.346,1.999-2.346,2.667,0c0.666,2.346,1.999,2.346,2.666,0
	c0.666-2.346,2-2.346,2.666,0c0.666,2.346,2,2.346,2.665,0c0.667-2.346,2-2.346,2.666,0c0.667,2.346,1.999,2.346,2.666,0
	c0.667-2.346,2-2.346,2.666,0c0.667,2.346,2,2.346,2.666,0c0.666-2.346,1.999-2.346,2.666,0c0.666,2.346,1.998,2.346,2.666,0
	c0.667-2.346,1.999-2.346,2.666,0c0.666,2.346,2,2.346,2.666,0c0.666-2.346,2-2.346,2.666,0c0.667,2.346,1.999,2.346,2.666,0
	c0.667-2.346,1.999-2.346,2.666,0c0.667,2.346,2,2.346,2.666,0c0.666-2.346,1.999-2.346,2.666,0c0.666,2.346,1.999,2.346,2.666,0
	c0.667-2.346,1.999-2.346,2.666,0c0.667,2.346,1.999,2.346,2.666,0c0.666-2.346,2-2.346,2.666,0c0.666,2.346,2,2.346,2.666,0
	c0.667-2.346,1.999-2.346,2.666,0c0.667,2.346,1.999,2.346,2.666,0c0.667-2.346,1.999-2.346,2.666,0
	c0.666,2.346,1.999,2.346,2.666,0c0.666-2.346,2-2.346,2.666,0c0.667,2.346,1.999,2.346,2.666,0c0.667-2.346,2-2.346,2.666,0
	c0.666,2.346,2,2.346,2.666,0c0.667-2.346,2-2.346,2.665,0c0.667,2.346,1.999,2.346,2.666,0c0.667-2.346,1.999-2.346,2.666,0
	c0.667,2.346,1.999,2.346,2.666,0c0.666-2.346,1.999-2.346,2.665,0c0.666,2.346,2,2.346,2.666,0c0.667-2.346,2-2.346,2.666,0
	c0.667,2.346,2,2.346,2.666,0c0.667-2.346,2-2.346,2.666,0c0.667,2.346,2,2.346,2.666,0c0.667-2.346,1.999-2.346,2.666,0
	c0.667,2.346,1.999,2.346,2.666,0c0.666-2.346,1.999-2.346,2.666,0c0.666,2.346,2,2.346,2.665,0c0.667-2.346,2-2.346,2.666,0
	c0.667,2.346,2,2.346,2.666,0c0.667-2.346,1.999-2.346,2.666,0c0.667,2.346,2,2.346,2.666,0c0.667-2.346,2-2.346,2.666,0
	c0.666,2.346,1.999,2.346,2.666,0c0.666-2.346,1.999-2.346,2.666,0c0.666,2.346,1.999,2.346,2.665,0c0.667-2.346,2-2.346,2.666,0
	c0.667,2.346,2,2.346,2.666,0c0.667-2.346,1.999-2.346,2.666,0c0.667,2.346,1.999,2.346,2.666,0c0.667-2.346,2-2.346,2.666,0
	c0.666,2.346,1.999,2.346,2.666,0c0.666-2.346,1.999-2.346,2.666,0c0.667,2.346,1.999,2.346,2.666,0
	c0.666-2.346,1.999-2.346,2.665,0c0.667,2.346,2,2.346,2.666,0c0.667-2.346,1.999-2.346,2.666,0c0.667,2.346,1.999,2.346,2.666,0
	c0.665-2.346,1.998-2.346,2.666,0c0.665,2.346,1.998,2.346,2.665,0c0.666-2.346,1.999-2.346,2.665,0c0.666,2.346,2,2.346,2.666,0
	c0.666-2.346,2-2.346,2.665,0c0.666,2.346,2,2.346,2.665,0c0.668-2.346,2.001-2.346,2.666,0c0.668,2.346,1.999,2.346,2.666,0
	c0.667-2.346,1.999-2.346,2.666,0c0.667,2.346,1.999,2.346,2.666,0c0.666-2.346,1.999-2.346,2.665,0
	c0.667,2.346,1.999,2.346,2.666,0c0.667-2.346,1.999-2.346,2.665,0c0.667,2.346,2,2.346,2.666,0c0.667-2.346,2-2.346,2.666,0
	c0.666,2.346,1.999,2.346,2.665,0c0.667-2.346,1.999-2.346,2.667,0c0.666,2.346,1.998,2.346,2.665,0
	c0.666-2.346,1.999-2.346,2.666,0c0.665,2.346,1.999,2.346,2.665,0c0.666-2.346,1.999-2.346,2.665,0c0.667,2.346,2,2.346,2.666,0
	c0.667-2.346,2-2.346,2.665,0c0.667,2.346,2,2.346,2.666,0c0.667-2.346,2-2.346,2.666,0c0.667,2.346,1.998,2.346,2.666,0
	c0.666-2.346,1.999-2.346,2.666,0c0.666,2.346,1.999,2.346,2.665,0c0.666-2.346,1.999-2.346,2.665,0c0.667,2.346,2,2.346,2.666,0
	c0.668-2.346,1.999-2.346,2.666,0c0.667,2.346,1.999,2.346,2.666,0c0.666-2.346,1.999-2.346,2.666,0
	c0.665,2.346,1.998,2.346,2.665,0c0.666-2.346,1.999-2.346,2.666,0c0.666,2.346,1.999,2.346,2.665,0c0.666-2.346,2-2.346,2.666,0
	c0.666,2.346,2,2.346,2.665,0c0.667-2.346,1.999-2.346,2.665,0c0.668,2.346,2,2.346,2.666,0c0.668-2.346,2-2.346,2.666,0
	c0.666,2.346,1.999,2.346,2.666,0c0.666-2.346,2-2.346,2.666,0c0.666,2.346,1.998,2.346,2.665,0c0.667-2.346,1.999-2.346,2.666,0
	c0.667,2.346,1.999,2.346,2.665,0c0.667-2.346,2-2.346,2.666,0c0.667,2.346,2,2.346,2.666,0c0.667-2.346,1.998-2.346,2.666,0
	c0.666,2.346,1.998,2.346,2.666,0c0.665-2.346,1.999-2.346,2.665,0c0.665,2.346,1.999,2.346,2.665,0c0.666-2.346,2-2.346,2.666,0
	c0.666,2.346,1.999,2.346,2.665,0c0.667-2.346,2-2.346,2.666,0c0.667,2.346,2,2.346,2.665,0c0.667-2.346,1.999-2.346,2.666,0
	c0.667,2.346,1.999,2.346,2.666,0c0.667-2.346,1.999-2.346,2.666,0c0.666,2.346,1.999,2.346,2.666,0
	c0.666-2.346,1.999-2.346,2.665,0c0.667,2.346,1.999,2.346,2.665,0c0.668-2.346,2-2.346,2.666,0c0.668,2.346,2,2.346,2.666,0
	c0.666-2.346,1.999-2.346,2.666,0c0.666,2.346,1.999,2.346,2.666,0c0.666-2.346,1.998-2.346,2.665,0
	c0.666,2.346,1.999,2.346,2.666,0c0.666-2.346,1.999-2.346,2.665,0c0.666,2.346,2,2.346,2.665,0c0.667-2.346,2-2.346,2.666,0
	c0.667,2.346,1.999,2.346,2.665,0c0.668-2.346,2-2.346,2.667,0c0.666,2.346,1.999,2.346,2.665,0c0.666-2.346,2-2.346,2.666,0
	c0.666,2.346,1.999,2.346,2.666,0"/>
</svg>
