<?xml version="1.0" encoding="utf-8"?>
<!-- Generator: Adobe Illustrator 14.0.0, SVG Export Plug-In . SVG Version: 6.00 Build 43363)  -->
<!DOCTYPE svg PUBLIC "-//W3C//DTD SVG 1.1//EN" "http://www.w3.org/Graphics/SVG/1.1/DTD/svg11.dtd">
<svg version="1.1" id="Layer_1" xmlns="http://www.w3.org/2000/svg" xmlns:xlink="http://www.w3.org/1999/xlink" 
	 width="360px" height="54px" viewBox="0 0 360 54" style="enable-background:new 0 0 360 54; margin-left:-7rem;" xml:space="preserve">
<style type="text/css">
<![CDATA[
	.st0{fill:#361313; fill-opacity: 1; stroke-opacity: 1;}
]]>
</style>
<g>
	<path class="st0" d="M117.128,2.134c0-0.648,0.45-1.134,1.081-1.134s1.063,0.468,1.063,1.134c0,0.648-0.432,1.135-1.099,1.135
		C117.561,3.268,117.128,2.782,117.128,2.134z"/>
	<path class="st0" d="M123.014,2.134c0-0.648,0.45-1.134,1.081-1.134c0.631,0,1.063,0.468,1.063,1.134
		c0,0.648-0.433,1.135-1.1,1.135C123.447,3.268,123.014,2.782,123.014,2.134z"/>
	<path class="st0" d="M128.899,2.134c0-0.648,0.45-1.134,1.081-1.134s1.063,0.468,1.063,1.134c0,0.648-0.433,1.135-1.1,1.135
		C129.332,3.268,128.899,2.782,128.899,2.134z"/>
	<path class="st0" d="M134.786,2.134c0-0.648,0.449-1.134,1.081-1.134c0.631,0,1.063,0.468,1.063,1.134
		c0,0.648-0.432,1.135-1.099,1.135C135.218,3.268,134.786,2.782,134.786,2.134z"/>
	<path class="st0" d="M140.671,2.134c0-0.648,0.45-1.134,1.081-1.134s1.063,0.468,1.063,1.134c0,0.648-0.432,1.135-1.099,1.135
		C141.104,3.268,140.671,2.782,140.671,2.134z"/>
	<path class="st0" d="M146.557,2.134c0-0.648,0.45-1.134,1.081-1.134c0.631,0,1.063,0.468,1.063,1.134
		c0,0.648-0.433,1.135-1.1,1.135C146.99,3.268,146.557,2.782,146.557,2.134z"/>
	<path class="st0" d="M152.442,2.134c0-0.648,0.45-1.134,1.081-1.134c0.632,0,1.063,0.468,1.063,1.134
		c0,0.648-0.432,1.135-1.099,1.135C152.875,3.268,152.442,2.782,152.442,2.134z"/>
	<path class="st0" d="M158.329,2.134c0-0.648,0.449-1.134,1.081-1.134c0.631,0,1.063,0.468,1.063,1.134
		c0,0.648-0.432,1.135-1.099,1.135C158.761,3.268,158.329,2.782,158.329,2.134z"/>
	<path class="st0" d="M164.214,2.134c0-0.648,0.45-1.134,1.081-1.134s1.063,0.468,1.063,1.134c0,0.648-0.432,1.135-1.099,1.135
		C164.646,3.268,164.214,2.782,164.214,2.134z"/>
	<path class="st0" d="M170.1,2.134c0-0.648,0.45-1.134,1.081-1.134c0.631,0,1.063,0.468,1.063,1.134c0,0.648-0.433,1.135-1.1,1.135
		C170.533,3.268,170.1,2.782,170.1,2.134z"/>
	<path class="st0" d="M175.985,2.134c0-0.648,0.45-1.134,1.081-1.134c0.632,0,1.063,0.468,1.063,1.134
		c0,0.648-0.432,1.135-1.099,1.135C176.418,3.268,175.985,2.782,175.985,2.134z"/>
	<path class="st0" d="M181.873,2.134c0-0.648,0.449-1.134,1.08-1.134s1.063,0.468,1.063,1.134c0,0.648-0.433,1.135-1.101,1.135
		C182.305,3.268,181.873,2.782,181.873,2.134z"/>
	<path class="st0" d="M187.757,2.134c0-0.648,0.449-1.134,1.08-1.134s1.063,0.468,1.063,1.134c0,0.648-0.434,1.135-1.1,1.135
		C188.189,3.268,187.757,2.782,187.757,2.134z"/>
	<path class="st0" d="M193.643,2.134c0-0.648,0.45-1.134,1.082-1.134c0.629,0,1.063,0.468,1.063,1.134
		c0,0.648-0.435,1.135-1.103,1.135C194.076,3.268,193.643,2.782,193.643,2.134z"/>
	<path class="st0" d="M199.527,2.134c0-0.648,0.451-1.134,1.08-1.134c0.633,0,1.063,0.468,1.063,1.134
		c0,0.648-0.434,1.135-1.098,1.135C199.96,3.268,199.527,2.782,199.527,2.134z"/>
	<path class="st0" d="M205.414,2.134c0-0.648,0.451-1.134,1.08-1.134c0.631,0,1.063,0.468,1.063,1.134
		c0,0.648-0.433,1.135-1.099,1.135C205.846,3.268,205.414,2.782,205.414,2.134z"/>
	<path class="st0" d="M211.3,2.134c0-0.648,0.449-1.134,1.08-1.134c0.63,0,1.063,0.468,1.063,1.134c0,0.648-0.435,1.135-1.101,1.135
		C211.73,3.268,211.3,2.782,211.3,2.134z"/>
	<path class="st0" d="M217.186,2.134c0-0.648,0.451-1.134,1.08-1.134c0.631,0,1.063,0.468,1.063,1.134
		c0,0.648-0.435,1.135-1.101,1.135C217.618,3.268,217.186,2.782,217.186,2.134z"/>
	<path class="st0" d="M223.07,2.134c0-0.648,0.451-1.134,1.08-1.134c0.632,0,1.063,0.468,1.063,1.134
		c0,0.648-0.432,1.135-1.098,1.135C223.503,3.268,223.07,2.782,223.07,2.134z"/>
	<path class="st0" d="M228.956,2.134c0-0.648,0.451-1.134,1.08-1.134c0.631,0,1.063,0.468,1.063,1.134
		c0,0.648-0.436,1.135-1.102,1.135C229.389,3.268,228.956,2.782,228.956,2.134z"/>
	<path class="st0" d="M234.843,2.134c0-0.648,0.449-1.134,1.08-1.134c0.63,0,1.063,0.468,1.063,1.134c0,0.648-0.435,1.135-1.1,1.135
		C235.273,3.268,234.843,2.782,234.843,2.134z"/>
	<path class="st0" d="M240.729,2.134c0-0.648,0.451-1.134,1.08-1.134c0.631,0,1.063,0.468,1.063,1.134
		c0,0.648-0.435,1.135-1.101,1.135C241.161,3.268,240.729,2.782,240.729,2.134z"/>
</g>
<g>
	<path class="st0" d="M117.128,52.861c0-0.646,0.45-1.133,1.081-1.133s1.063,0.467,1.063,1.133c0,0.648-0.432,1.139-1.099,1.139
		C117.561,53.998,117.128,53.512,117.128,52.861z"/>
	<path class="st0" d="M123.014,52.861c0-0.646,0.45-1.133,1.081-1.133c0.631,0,1.063,0.467,1.063,1.133
		c0,0.648-0.433,1.139-1.1,1.139C123.447,53.998,123.014,53.512,123.014,52.861z"/>
	<path class="st0" d="M128.899,52.861c0-0.646,0.45-1.133,1.081-1.133s1.063,0.467,1.063,1.133c0,0.648-0.433,1.139-1.1,1.139
		C129.332,53.998,128.899,53.512,128.899,52.861z"/>
	<path class="st0" d="M134.786,52.861c0-0.646,0.449-1.133,1.081-1.133c0.631,0,1.063,0.467,1.063,1.133
		c0,0.648-0.432,1.139-1.099,1.139C135.218,53.998,134.786,53.512,134.786,52.861z"/>
	<path class="st0" d="M140.671,52.861c0-0.646,0.45-1.133,1.081-1.133s1.063,0.467,1.063,1.133c0,0.648-0.432,1.139-1.099,1.139
		C141.104,53.998,140.671,53.512,140.671,52.861z"/>
	<path class="st0" d="M146.557,52.861c0-0.646,0.45-1.133,1.081-1.133c0.631,0,1.063,0.467,1.063,1.133
		c0,0.648-0.433,1.139-1.1,1.139C146.99,53.998,146.557,53.512,146.557,52.861z"/>
	<path class="st0" d="M152.442,52.861c0-0.646,0.45-1.133,1.081-1.133c0.632,0,1.063,0.467,1.063,1.133
		c0,0.648-0.432,1.139-1.099,1.139C152.875,53.998,152.442,53.512,152.442,52.861z"/>
	<path class="st0" d="M158.329,52.861c0-0.646,0.449-1.133,1.081-1.133c0.631,0,1.063,0.467,1.063,1.133
		c0,0.648-0.432,1.139-1.099,1.139C158.761,53.998,158.329,53.512,158.329,52.861z"/>
	<path class="st0" d="M164.214,52.861c0-0.646,0.45-1.133,1.081-1.133s1.063,0.467,1.063,1.133c0,0.648-0.432,1.139-1.099,1.139
		C164.646,53.998,164.214,53.512,164.214,52.861z"/>
	<path class="st0" d="M170.1,52.861c0-0.646,0.45-1.133,1.081-1.133c0.631,0,1.063,0.467,1.063,1.133c0,0.648-0.433,1.139-1.1,1.139
		C170.533,53.998,170.1,53.512,170.1,52.861z"/>
	<path class="st0" d="M175.985,52.861c0-0.646,0.45-1.133,1.081-1.133c0.632,0,1.063,0.467,1.063,1.133
		c0,0.648-0.432,1.139-1.099,1.139C176.418,53.998,175.985,53.512,175.985,52.861z"/>
	<path class="st0" d="M181.873,52.861c0-0.646,0.449-1.133,1.08-1.133s1.063,0.467,1.063,1.133c0,0.648-0.433,1.139-1.101,1.139
		C182.305,53.998,181.873,53.512,181.873,52.861z"/>
	<path class="st0" d="M187.757,52.861c0-0.646,0.449-1.133,1.08-1.133s1.063,0.467,1.063,1.133c0,0.648-0.434,1.139-1.1,1.139
		C188.189,53.998,187.757,53.512,187.757,52.861z"/>
	<path class="st0" d="M193.643,52.861c0-0.646,0.45-1.133,1.082-1.133c0.629,0,1.063,0.467,1.063,1.133
		c0,0.648-0.435,1.139-1.103,1.139C194.076,53.998,193.643,53.512,193.643,52.861z"/>
	<path class="st0" d="M199.527,52.861c0-0.646,0.451-1.133,1.08-1.133c0.633,0,1.063,0.467,1.063,1.133
		c0,0.648-0.434,1.139-1.098,1.139C199.96,53.998,199.527,53.512,199.527,52.861z"/>
	<path class="st0" d="M205.414,52.861c0-0.646,0.451-1.133,1.08-1.133c0.631,0,1.063,0.467,1.063,1.133
		c0,0.648-0.433,1.139-1.099,1.139C205.846,53.998,205.414,53.512,205.414,52.861z"/>
	<path class="st0" d="M211.3,52.861c0-0.646,0.449-1.133,1.08-1.133c0.63,0,1.063,0.467,1.063,1.133
		c0,0.648-0.435,1.139-1.101,1.139C211.73,53.998,211.3,53.512,211.3,52.861z"/>
	<path class="st0" d="M217.186,52.861c0-0.646,0.451-1.133,1.08-1.133c0.631,0,1.063,0.467,1.063,1.133
		c0,0.648-0.435,1.139-1.101,1.139C217.618,53.998,217.186,53.512,217.186,52.861z"/>
	<path class="st0" d="M223.07,52.861c0-0.646,0.451-1.133,1.08-1.133c0.632,0,1.063,0.467,1.063,1.133
		c0,0.648-0.432,1.139-1.098,1.139C223.503,53.998,223.07,53.512,223.07,52.861z"/>
	<path class="st0" d="M228.956,52.861c0-0.646,0.451-1.133,1.08-1.133c0.631,0,1.063,0.467,1.063,1.133
		c0,0.648-0.436,1.139-1.102,1.139C229.389,53.998,228.956,53.512,228.956,52.861z"/>
	<path class="st0" d="M234.843,52.861c0-0.646,0.449-1.133,1.08-1.133c0.63,0,1.063,0.467,1.063,1.133
		c0,0.648-0.435,1.139-1.1,1.139C235.273,53.998,234.843,53.512,234.843,52.861z"/>
	<path class="st0" d="M240.729,52.861c0-0.646,0.451-1.133,1.08-1.133c0.631,0,1.063,0.467,1.063,1.133
		c0,0.648-0.435,1.139-1.101,1.139C241.161,53.998,240.729,53.512,240.729,52.861z"/>
</g>
</svg>