<?xml version="1.0" encoding="utf-8"?>
<!-- Generator: Adobe Illustrator 14.0.0, SVG Export Plug-In . SVG Version: 6.00 Build 43363)  -->
<!DOCTYPE svg PUBLIC "-//W3C//DTD SVG 1.1//EN" "http://www.w3.org/Graphics/SVG/1.1/DTD/svg11.dtd">
<svg version="1.1" id="Layer_1" xmlns="http://www.w3.org/2000/svg" xmlns:xlink="http://www.w3.org/1999/xlink" x="0px" y="0px"
	 width="432px" height="72px" viewBox="0 0 432 72" style="enable-background:new 0 0 432 72;" xml:space="preserve">
<style type="text/css">
<![CDATA[
	.st0{fill:#361313; fill-opacity: 1; stroke-opacity: 1;}
]]>
</style>
<path class="st0" d="M413.871,1.659H18.128L1.458,18.33v35.467L18,70.34h395.999l16.543-16.543V18.33L413.871,1.659z M428.542,52.97
	L413.17,68.34H18.83L3.458,52.97V19.158L18.957,3.659h394.086l15.499,15.499V52.97z"/>
<path class="st0" d="M20.125,6.48L6.277,20.326v31.475l13.72,13.72h392.005l13.72-13.72V20.326L411.875,6.48H20.125z
	 M424.723,51.387l-13.134,13.134H20.412L7.277,51.387V20.741L20.539,7.48h390.922l13.262,13.261V51.387z"/>
</svg>
