<?xml version="1.0" encoding="utf-8"?>
<!-- Generator: Adobe Illustrator 14.0.0, SVG Export Plug-In . SVG Version: 6.00 Build 43363)  -->
<!DOCTYPE svg PUBLIC "-//W3C//DTD SVG 1.1//EN" "http://www.w3.org/Graphics/SVG/1.1/DTD/svg11.dtd">
<svg version="1.1" id="Layer_1" xmlns="http://www.w3.org/2000/svg" xmlns:xlink="http://www.w3.org/1999/xlink" x="0px" y="0px"
	 width="432px" height="72px" viewBox="0 0 432 72" style="enable-background:new 0 0 432 72;" xml:space="preserve">
<style type="text/css">
<![CDATA[
	.st0{clip-path:url(#SVGID_2_);fill:#361313; fill-opacity: 1; stroke-opacity: 1;}
]]>
</style>
<g>
	<defs>
		<rect id="SVGID_1_" width="432" height="72"/>
	</defs>
	<clipPath id="SVGID_2_">
		<use xlink:href="#SVGID_1_"  style="overflow:visible;"/>
	</clipPath>
	<path class="st0" d="M429.685,6.073V1.602h-4.394v3.644h-2.341V1.602H9.05v3.644H6.708V1.602H2.316v4.471h3.565v1.866H2.316v56.122
		h3.565v1.866H2.316v4.472h4.392v-3.645H9.05v3.645h413.9v-3.645h2.341v3.645h4.394v-4.472h-3.565v-1.866h3.565V7.939h-3.565V6.073
		H429.685z M426.119,2.429h2.736v2.817h-2.736V2.429z M5.881,69.571H3.144v-2.817h2.738V69.571z M422.95,6.073h2.341v1.866h-2.341
		V6.073z M422.95,8.766h2.341v3.857c-0.48-1.227-1.223-2.358-2.341-2.584V8.766z M9.877,6.073h3.343
		c-1.184,0.612-1.658,1.416-1.84,1.866H9.877V6.073z M6.708,6.073H9.05v1.866H6.708V6.073z M6.708,8.766H9.05v1.273
		c-1.119,0.226-1.86,1.357-2.342,2.584V8.766z M3.144,2.429h2.738v2.817H3.144V2.429z M9.05,65.927H6.708v-1.866H9.05V65.927z
		 M9.05,63.234H6.708v-3.857c0.482,1.227,1.223,2.358,2.342,2.584V63.234z M422.122,65.927h-3.343
		c1.185-0.611,1.657-1.416,1.84-1.866h1.503V65.927z M425.291,65.927h-2.341v-1.866h2.341V65.927z M425.291,63.234h-2.341v-1.273
		c1.118-0.226,1.86-1.357,2.341-2.584V63.234z M428.855,69.571h-2.736v-2.817h2.736V69.571z M428.855,8.766v54.468h-2.736v-7.351
		l-0.824-0.046c-0.166,1.485-0.984,5.336-2.759,5.336h-0.414v2.061l-2.145,0.005l-0.066,0.332c-0.019,0.096-0.528,2.355-5.297,2.355
		v0.827h7.508v2.817H9.877v-2.817h7.508v-0.827c-4.767,0-5.278-2.26-5.297-2.352l-0.06-0.341H9.877v-2.061H9.463
		c-1.773,0-2.591-3.851-2.758-5.336l-0.824,0.046v7.351H3.144V8.766h2.738v7.35l0.824,0.046c0.167-1.484,0.985-5.336,2.758-5.336
		h0.414v-2.06l2.143-0.005l0.068-0.332c0.019-0.096,0.53-2.356,5.297-2.356V5.246H9.877V2.429h412.245v2.817h-7.508v0.827
		c4.769,0,5.278,2.26,5.296,2.352l0.061,0.341h2.151v2.06h0.414c1.774,0,2.593,3.852,2.759,5.336l0.824-0.046v-7.35H428.855z
		 M9.877,65.927v-1.866h1.503c0.182,0.45,0.656,1.255,1.84,1.866H9.877z M422.122,6.073v1.866h-1.503
		c-0.183-0.451-0.655-1.254-1.84-1.866H422.122z"/>
	<path class="st0" d="M413.127,7.801V5.035H18.873v2.766C16.925,7.942,8.769,9.078,8.527,18.132H5.776v35.736h2.751
		c0.242,9.054,8.398,10.189,10.346,10.332v2.766h394.254V64.2c1.948-0.142,10.104-1.277,10.346-10.332h2.752V18.132h-2.752
		C423.231,9.078,415.075,7.942,413.127,7.801 M425.396,53.041h-2.745v0.414c0,9.808-9.532,9.937-9.938,9.938h-0.414v2.746H19.7
		v-2.746h-0.413c-0.406-0.001-9.938-0.13-9.938-9.938v-0.414H6.603V18.959h2.746v-0.413c0-9.808,9.532-9.937,9.938-9.938L19.7,8.607
		V5.862h392.599l0.001,2.745l0.413,0.001c0.406,0.001,9.938,0.13,9.938,9.938v0.413h2.745V53.041z"/>
</g>
</svg>
