<?xml version="1.0" encoding="utf-8"?>
<!-- Generator: Adobe Illustrator 14.0.0, SVG Export Plug-In . SVG Version: 6.00 Build 43363)  -->
<!DOCTYPE svg PUBLIC "-//W3C//DTD SVG 1.1//EN" "http://www.w3.org/Graphics/SVG/1.1/DTD/svg11.dtd">
<svg version="1.1" id="Layer_1" xmlns="http://www.w3.org/2000/svg" xmlns:xlink="http://www.w3.org/1999/xlink" x="0px" y="0px"
	 width="22.617px" height="8.566px" viewBox="0 0 22.617 8.566" style="enable-background:new 0 0 22.617 8.566;"
	 xml:space="preserve">
<style type="text/css">
<![CDATA[
	.st0{fill:#361313; fill-opacity: 1; stroke-opacity: 1}
]]>
</style>
<g>
	<path class="st0" d="M8.566,4.277c0,1.195-0.416,2.209-1.248,3.041S5.477,8.566,4.289,8.566c-1.195,0-2.209-0.416-3.041-1.248S0,5.473,0,4.277
		S0.416,2.07,1.248,1.242S3.094,0,4.289,0c1.188,0,2.197,0.416,3.029,1.248S8.566,3.09,8.566,4.277z"/>
	<path class="st0" d="M22.617,4.277c0,1.195-0.416,2.209-1.248,3.041s-1.842,1.248-3.029,1.248c-1.195,0-2.209-0.416-3.041-1.248
		s-1.248-1.846-1.248-3.041s0.416-2.207,1.248-3.035S17.145,0,18.34,0c1.188,0,2.197,0.416,3.029,1.248S22.617,3.09,22.617,4.277z"
		/>
</g>
</svg>
