<?xml version="1.0" encoding="utf-8"?>
<!-- Generator: Adobe Illustrator 14.0.0, SVG Export Plug-In . SVG Version: 6.00 Build 43363)  -->
<!DOCTYPE svg PUBLIC "-//W3C//DTD SVG 1.1//EN" "http://www.w3.org/Graphics/SVG/1.1/DTD/svg11.dtd">
<svg version="1.1" id="Layer_1" xmlns="http://www.w3.org/2000/svg" xmlns:xlink="http://www.w3.org/1999/xlink" x="0px" y="0px"
	 width="542.94px" height="6.98px" viewBox="0 0 542.94 6.98" style="enable-background:new 0 0 542.94 6.98;" xml:space="preserve"
	>
<style type="text/css">
<![CDATA[
	.st0{fill:#361313; fill-opacity: 1; stroke-opacity: 1;}
]]>
</style>
<path class="st0" d="M540.94,1c0-0.55,0.449-1,1-1l0,0c0.55,0,1,0.45,1,1l0,0c0,0.55-0.45,1-1,1l0,0C541.39,2,540.94,1.55,540.94,1z
	 M536.93,1c0-0.55,0.45-1,1-1l0,0c0.551,0,1,0.45,1,1l0,0c0,0.55-0.449,1-1,1l0,0C537.38,2,536.93,1.55,536.93,1z M532.93,1
	c0-0.55,0.44-1,1-1l0,0c0.551,0,1,0.45,1,1l0,0c0,0.55-0.449,1-1,1l0,0C533.37,2,532.93,1.55,532.93,1z M528.92,1c0-0.55,0.45-1,1-1
	l0,0c0.55,0,1,0.45,1,1l0,0c0,0.55-0.45,1-1,1l0,0C529.37,2,528.92,1.55,528.92,1z M524.91,1c0-0.55,0.45-1,1-1l0,0
	c0.55,0,1,0.45,1,1l0,0c0,0.55-0.45,1-1,1l0,0C525.36,2,524.91,1.55,524.91,1z M520.91,1c0-0.55,0.439-1,0.99-1l0,0
	c0.56,0,1,0.45,1,1l0,0c0,0.55-0.44,1-1,1l0,0C521.35,2,520.91,1.55,520.91,1z M516.9,1c0-0.55,0.439-1,1-1l0,0c0.55,0,1,0.45,1,1
	l0,0c0,0.55-0.45,1-1,1l0,0C517.34,2,516.9,1.55,516.9,1z M512.89,1c0-0.55,0.45-1,1-1l0,0c0.551,0,1,0.45,1,1l0,0
	c0,0.55-0.449,1-1,1l0,0C513.34,2,512.89,1.55,512.89,1z M508.88,1c0-0.55,0.45-1,1-1l0,0c0.561,0,1,0.45,1,1l0,0
	c0,0.55-0.439,1-1,1l0,0C509.33,2,508.88,1.55,508.88,1z M504.88,1c0-0.55,0.44-1,1-1l0,0c0.55,0,1,0.45,1,1l0,0c0,0.55-0.45,1-1,1
	l0,0C505.32,2,504.88,1.55,504.88,1z M500.87,1c0-0.55,0.45-1,1-1l0,0c0.55,0,1,0.45,1,1l0,0c0,0.55-0.45,1-1,1l0,0
	C501.32,2,500.87,1.55,500.87,1z M496.86,1c0-0.55,0.449-1,1-1l0,0c0.56,0,1,0.45,1,1l0,0c0,0.55-0.44,1-1,1l0,0
	C497.31,2,496.86,1.55,496.86,1z M492.85,1c0-0.55,0.45-1,1.011-1l0,0c0.55,0,1,0.45,1,1l0,0c0,0.55-0.45,1-1,1l0,0
	C493.3,2,492.85,1.55,492.85,1z M488.85,1c0-0.55,0.45-1,1-1l0,0c0.551,0,1,0.45,1,1l0,0c0,0.55-0.449,1-1,1l0,0
	C489.3,2,488.85,1.55,488.85,1z M484.84,1c0-0.55,0.45-1,1-1l0,0c0.55,0,1,0.45,1,1l0,0c0,0.55-0.45,1-1,1l0,0
	C485.29,2,484.84,1.55,484.84,1z M480.84,1c0-0.55,0.44-1,1-1l0,0c0.55,0,0.99,0.45,0.99,1l0,0c0,0.55-0.44,1-0.99,1l0,0
	C481.28,2,480.84,1.55,480.84,1z M476.83,1c0-0.55,0.44-1,1-1l0,0c0.55,0,1,0.45,1,1l0,0c0,0.55-0.45,1-1,1l0,0
	C477.271,2,476.83,1.55,476.83,1z M472.82,1c0-0.55,0.45-1,1-1l0,0c0.55,0,1,0.45,1,1l0,0c0,0.55-0.45,1-1,1l0,0
	C473.271,2,472.82,1.55,472.82,1z M468.81,1c0-0.55,0.45-1,1-1l0,0c0.561,0,1,0.45,1,1l0,0c0,0.55-0.439,1-1,1l0,0
	C469.26,2,468.81,1.55,468.81,1z M464.81,1c0-0.55,0.44-1,1-1l0,0c0.551,0,1,0.45,1,1l0,0c0,0.55-0.449,1-1,1l0,0
	C465.25,2,464.81,1.55,464.81,1z M460.8,1c0-0.55,0.45-1,1-1l0,0c0.55,0,1,0.45,1,1l0,0c0,0.55-0.45,1-1,1l0,0
	C461.25,2,460.8,1.55,460.8,1z M456.79,1c0-0.55,0.45-1,1-1l0,0c0.56,0,1,0.45,1,1l0,0c0,0.55-0.44,1-1,1l0,0
	C457.24,2,456.79,1.55,456.79,1z M452.79,1c0-0.55,0.44-1,1-1l0,0c0.55,0,1,0.45,1,1l0,0c0,0.55-0.45,1-1,1l0,0
	C453.23,2,452.79,1.55,452.79,1z M448.78,1c0-0.55,0.45-1,1-1l0,0c0.55,0,1,0.45,1,1l0,0c0,0.55-0.45,1-1,1l0,0
	C449.23,2,448.78,1.55,448.78,1z M444.771,1c0-0.55,0.449-1,1-1l0,0c0.55,0,1,0.45,1,1l0,0c0,0.55-0.45,1-1,1l0,0
	C445.22,2,444.771,1.55,444.771,1z M440.76,1c0-0.55,0.45-1,1-1l0,0c0.561,0,1.011,0.45,1.011,1l0,0c0,0.55-0.45,1-1.011,1l0,0
	C441.21,2,440.76,1.55,440.76,1z M436.76,1c0-0.55,0.45-1,1-1l0,0c0.55,0,1,0.45,1,1l0,0c0,0.55-0.45,1-1,1l0,0
	C437.21,2,436.76,1.55,436.76,1z M432.75,1c0-0.55,0.45-1,1-1l0,0c0.55,0,1,0.45,1,1l0,0c0,0.55-0.45,1-1,1l0,0
	C433.2,2,432.75,1.55,432.75,1z M428.74,1c0-0.55,0.45-1,1-1l0,0c0.56,0,1,0.45,1,1l0,0c0,0.55-0.44,1-1,1l0,0
	C429.19,2,428.74,1.55,428.74,1z M424.74,1c0-0.55,0.439-1,1-1l0,0c0.55,0,1,0.45,1,1l0,0c0,0.55-0.45,1-1,1l0,0
	C425.18,2,424.74,1.55,424.74,1z M420.73,1c0-0.55,0.449-1,1-1l0,0c0.55,0,1,0.45,1,1l0,0c0,0.55-0.45,1-1,1l0,0
	C421.18,2,420.73,1.55,420.73,1z M416.72,1c0-0.55,0.45-1,1-1l0,0c0.561,0,1,0.45,1,1l0,0c0,0.55-0.439,1-1,1l0,0
	C417.17,2,416.72,1.55,416.72,1z M412.72,1c0-0.55,0.44-1,1-1l0,0c0.551,0,1,0.45,1,1l0,0c0,0.55-0.449,1-1,1l0,0
	C413.16,2,412.72,1.55,412.72,1z M408.71,1c0-0.55,0.45-1,1-1l0,0c0.55,0,1,0.45,1,1l0,0c0,0.55-0.45,1-1,1l0,0
	C409.16,2,408.71,1.55,408.71,1z M404.7,1c0-0.55,0.45-1,1-1l0,0c0.55,0,1,0.45,1,1l0,0c0,0.55-0.45,1-1,1l0,0
	C405.15,2,404.7,1.55,404.7,1z M400.69,1c0-0.55,0.449-1,1.01-1l0,0c0.55,0,1,0.45,1,1l0,0c0,0.55-0.45,1-1,1l0,0
	C401.14,2,400.69,1.55,400.69,1z M396.69,1c0-0.55,0.449-1,1-1l0,0c0.55,0,1,0.45,1,1l0,0c0,0.55-0.45,1-1,1l0,0
	C397.14,2,396.69,1.55,396.69,1z M392.68,1c0-0.55,0.45-1,1-1l0,0c0.551,0,1,0.45,1,1l0,0c0,0.55-0.449,1-1,1l0,0
	C393.13,2,392.68,1.55,392.68,1z M388.68,1c0-0.55,0.44-1,1-1l0,0c0.551,0,1,0.45,1,1l0,0c0,0.55-0.449,1-1,1l0,0
	C389.12,2,388.68,1.55,388.68,1z M384.67,1c0-0.55,0.44-1,1-1l0,0c0.55,0,1,0.45,1,1l0,0c0,0.55-0.45,1-1,1l0,0
	C385.11,2,384.67,1.55,384.67,1z M380.66,1c0-0.55,0.45-1,1-1l0,0c0.55,0,1,0.45,1,1l0,0c0,0.55-0.45,1-1,1l0,0
	C381.11,2,380.66,1.55,380.66,1z M376.65,1c0-0.55,0.449-1,1-1l0,0c0.56,0,1,0.45,1,1l0,0c0,0.55-0.44,1-1,1l0,0
	C377.1,2,376.65,1.55,376.65,1z M372.65,1c0-0.55,0.439-1,1-1l0,0c0.55,0,1,0.45,1,1l0,0c0,0.55-0.45,1-1,1l0,0
	C373.09,2,372.65,1.55,372.65,1z M368.64,1c0-0.55,0.45-1,1-1l0,0c0.551,0,1,0.45,1,1l0,0c0,0.55-0.449,1-1,1l0,0
	C369.09,2,368.64,1.55,368.64,1z M364.63,1c0-0.55,0.45-1,1-1l0,0c0.55,0,1,0.45,1,1l0,0c0,0.55-0.45,1-1,1l0,0
	C365.08,2,364.63,1.55,364.63,1z M360.63,1c0-0.55,0.44-1,1-1l0,0c0.55,0,1,0.45,1,1l0,0c0,0.55-0.45,1-1,1l0,0
	C361.07,2,360.63,1.55,360.63,1z M356.62,1c0-0.55,0.45-1,1-1l0,0c0.55,0,1,0.45,1,1l0,0c0,0.55-0.45,1-1,1l0,0
	C357.07,2,356.62,1.55,356.62,1z M352.61,1c0-0.55,0.449-1,1-1l0,0c0.55,0,1,0.45,1,1l0,0c0,0.55-0.45,1-1,1l0,0
	C353.06,2,352.61,1.55,352.61,1z M348.6,1c0-0.55,0.45-1,1-1l0,0c0.561,0,1,0.45,1,1l0,0c0,0.55-0.439,1-1,1l0,0
	C349.05,2,348.6,1.55,348.6,1z M344.6,1c0-0.55,0.44-1,1-1l0,0c0.551,0,1,0.45,1,1l0,0c0,0.55-0.449,1-1,1l0,0
	C345.04,2,344.6,1.55,344.6,1z M340.59,1c0-0.55,0.45-1,1-1l0,0c0.55,0,1,0.45,1,1l0,0c0,0.55-0.45,1-1,1l0,0
	C341.04,2,340.59,1.55,340.59,1z M336.58,1c0-0.55,0.45-1,1-1l0,0c0.56,0,1,0.45,1,1l0,0c0,0.55-0.44,1-1,1l0,0
	C337.03,2,336.58,1.55,336.58,1z M332.58,1c0-0.55,0.44-1,1-1l0,0c0.55,0,1,0.45,1,1l0,0c0,0.55-0.45,1-1,1l0,0
	C333.021,2,332.58,1.55,332.58,1z M328.57,1c0-0.55,0.45-1,1-1l0,0c0.55,0,1,0.45,1,1l0,0c0,0.55-0.45,1-1,1l0,0
	C329.021,2,328.57,1.55,328.57,1z M324.56,1c0-0.55,0.45-1,1-1l0,0c0.561,0,1,0.45,1,1l0,0c0,0.55-0.439,1-1,1l0,0
	C325.01,2,324.56,1.55,324.56,1z M320.55,1c0-0.55,0.45-1,1-1l0,0c0.561,0,1,0.45,1,1l0,0c0,0.55-0.439,1-1,1l0,0
	C321,2,320.55,1.55,320.55,1z M316.55,1c0-0.55,0.45-1,1-1l0,0c0.55,0,1,0.45,1,1l0,0c0,0.55-0.45,1-1,1l0,0
	C317,2,316.55,1.55,316.55,1z M312.54,1c0-0.55,0.45-1,1-1l0,0c0.55,0,1,0.45,1,1l0,0c0,0.55-0.45,1-1,1l0,0
	C312.99,2,312.54,1.55,312.54,1z M308.53,1c0-0.55,0.45-1,1-1l0,0c0.56,0,1.01,0.45,1.01,1l0,0c0,0.55-0.45,1-1.01,1l0,0
	C308.98,2,308.53,1.55,308.53,1z M304.53,1c0-0.55,0.439-1,1-1l0,0c0.55,0,1,0.45,1,1l0,0c0,0.55-0.45,1-1,1l0,0
	C304.97,2,304.53,1.55,304.53,1z M300.521,1c0-0.55,0.449-1,1-1l0,0c0.55,0,1,0.45,1,1l0,0c0,0.55-0.45,1-1,1l0,0
	C300.97,2,300.521,1.55,300.521,1z M296.51,1c0-0.55,0.45-1,1-1l0,0c0.561,0,1,0.45,1,1l0,0c0,0.55-0.439,1-1,1l0,0
	C296.96,2,296.51,1.55,296.51,1z M292.51,1c0-0.55,0.44-1,1-1l0,0c0.55,0,1,0.45,1,1l0,0c0,0.55-0.45,1-1,1l0,0
	C292.95,2,292.51,1.55,292.51,1z M288.5,1c0-0.55,0.45-1,1-1l0,0c0.55,0,1,0.45,1,1l0,0c0,0.55-0.45,1-1,1l0,0
	C288.95,2,288.5,1.55,288.5,1z M284.49,1c0-0.55,0.45-1,1-1l0,0c0.56,0,1,0.45,1,1l0,0c0,0.55-0.44,1-1,1l0,0
	C284.94,2,284.49,1.55,284.49,1z M280.49,1c0-0.55,0.439-1,1-1l0,0c0.55,0,1,0.45,1,1l0,0c0,0.55-0.45,1-1,1l0,0
	C280.93,2,280.49,1.55,280.49,1z M276.48,1c0-0.55,0.449-1,1-1l0,0c0.55,0,1,0.45,1,1l0,0c0,0.55-0.45,1-1,1l0,0
	C276.93,2,276.48,1.55,276.48,1z M272.47,1c0-0.55,0.45-1,1-1l0,0c0.551,0,1,0.45,1,1l0,0c0,0.55-0.449,1-1,1l0,0
	C272.92,2,272.47,1.55,272.47,1z M268.47,1c0-0.55,0.44-1,1-1l0,0c0.55,0,1,0.45,1,1l0,0c0,0.55-0.45,1-1,1l0,0
	C268.91,2,268.47,1.55,268.47,1z M264.46,1c0-0.55,0.45-1,1-1l0,0c0.55,0,1,0.45,1,1l0,0c0,0.55-0.45,1-1,1l0,0
	C264.91,2,264.46,1.55,264.46,1z M260.45,1c0-0.55,0.45-1,1-1l0,0c0.55,0,1,0.45,1,1l0,0c0,0.55-0.45,1-1,1l0,0
	C260.9,2,260.45,1.55,260.45,1z M256.44,1c0-0.55,0.45-1,1.01-1l0,0c0.55,0,1,0.45,1,1l0,0c0,0.55-0.45,1-1,1l0,0
	C256.89,2,256.44,1.55,256.44,1z M252.44,1c0-0.55,0.44-1,1-1l0,0c0.55,0,1,0.45,1,1l0,0c0,0.55-0.45,1-1,1l0,0
	C252.88,2,252.44,1.55,252.44,1z M248.43,1c0-0.55,0.45-1,1-1l0,0c0.55,0,1,0.45,1,1l0,0c0,0.55-0.45,1-1,1l0,0
	C248.88,2,248.43,1.55,248.43,1z M244.42,1c0-0.55,0.45-1,1-1l0,0c0.56,0,1,0.45,1,1l0,0c0,0.55-0.44,1-1,1l0,0
	C244.87,2,244.42,1.55,244.42,1z M240.42,1c0-0.55,0.44-1,1-1l0,0c0.55,0,1,0.45,1,1l0,0c0,0.55-0.45,1-1,1l0,0
	C240.86,2,240.42,1.55,240.42,1z M236.41,1c0-0.55,0.45-1,1-1l0,0c0.55,0,1,0.45,1,1l0,0c0,0.55-0.45,1-1,1l0,0
	C236.86,2,236.41,1.55,236.41,1z M232.4,1c0-0.55,0.45-1,1-1l0,0c0.56,0,1,0.45,1,1l0,0c0,0.55-0.44,1-1,1l0,0
	C232.85,2,232.4,1.55,232.4,1z M228.4,1c0-0.55,0.44-1,1-1l0,0c0.55,0,1,0.45,1,1l0,0c0,0.55-0.45,1-1,1l0,0
	C228.84,2,228.4,1.55,228.4,1z M224.39,1c0-0.55,0.45-1,1-1l0,0c0.55,0,1,0.45,1,1l0,0c0,0.55-0.45,1-1,1l0,0
	C224.84,2,224.39,1.55,224.39,1z M220.38,1c0-0.55,0.45-1,1-1l0,0c0.55,0,1,0.45,1,1l0,0c0,0.55-0.45,1-1,1l0,0
	C220.83,2,220.38,1.55,220.38,1z M216.37,1c0-0.55,0.45-1,1-1l0,0c0.56,0,1.01,0.45,1.01,1l0,0c0,0.55-0.45,1-1.01,1l0,0
	C216.82,2,216.37,1.55,216.37,1z M212.37,1c0-0.55,0.44-1,1-1l0,0c0.55,0,1,0.45,1,1l0,0c0,0.55-0.45,1-1,1l0,0
	C212.81,2,212.37,1.55,212.37,1z M208.36,1c0-0.55,0.45-1,1-1l0,0c0.55,0,1,0.45,1,1l0,0c0,0.55-0.45,1-1,1l0,0
	C208.81,2,208.36,1.55,208.36,1z M204.35,1c0-0.55,0.45-1,1-1l0,0c0.56,0,1,0.45,1,1l0,0c0,0.55-0.44,1-1,1l0,0
	C204.8,2,204.35,1.55,204.35,1z M200.35,1c0-0.55,0.44-1,1-1l0,0c0.55,0,1,0.45,1,1l0,0c0,0.55-0.45,1-1,1l0,0
	C200.79,2,200.35,1.55,200.35,1z M196.34,1c0-0.55,0.45-1,1-1l0,0c0.55,0,1,0.45,1,1l0,0c0,0.55-0.45,1-1,1l0,0
	C196.79,2,196.34,1.55,196.34,1z M192.33,1c0-0.55,0.45-1,1-1l0,0c0.56,0,1,0.45,1,1l0,0c0,0.55-0.44,1-1,1l0,0
	C192.78,2,192.33,1.55,192.33,1z M188.33,1c0-0.55,0.44-1,1-1l0,0c0.55,0,0.99,0.45,0.99,1l0,0c0,0.55-0.44,1-0.99,1l0,0
	C188.77,2,188.33,1.55,188.33,1z M184.32,1c0-0.55,0.45-1,1-1l0,0c0.55,0,1,0.45,1,1l0,0c0,0.55-0.45,1-1,1l0,0
	C184.77,2,184.32,1.55,184.32,1z M180.31,1c0-0.55,0.45-1,1-1l0,0c0.56,0,1,0.45,1,1l0,0c0,0.55-0.44,1-1,1l0,0
	C180.76,2,180.31,1.55,180.31,1z M176.3,1c0-0.55,0.45-1,1-1l0,0c0.56,0,1,0.45,1,1l0,0c0,0.55-0.44,1-1,1l0,0
	C176.75,2,176.3,1.55,176.3,1z M172.3,1c0-0.55,0.44-1,1-1l0,0c0.55,0,1,0.45,1,1l0,0c0,0.55-0.45,1-1,1l0,0
	C172.74,2,172.3,1.55,172.3,1z M168.29,1c0-0.55,0.45-1,1-1l0,0c0.55,0,1,0.45,1,1l0,0c0,0.55-0.45,1-1,1l0,0
	C168.74,2,168.29,1.55,168.29,1z M164.28,1c0-0.55,0.45-1,1-1l0,0c0.56,0,1,0.45,1,1l0,0c0,0.55-0.44,1-1,1l0,0
	C164.73,2,164.28,1.55,164.28,1z M160.28,1c0-0.55,0.44-1,1-1l0,0c0.55,0,1,0.45,1,1l0,0c0,0.55-0.45,1-1,1l0,0
	C160.72,2,160.28,1.55,160.28,1z M156.27,1c0-0.55,0.45-1,1-1l0,0c0.55,0,1,0.45,1,1l0,0c0,0.55-0.45,1-1,1l0,0
	C156.72,2,156.27,1.55,156.27,1z M152.26,1c0-0.55,0.45-1,1-1l0,0c0.55,0,1,0.45,1,1l0,0c0,0.55-0.45,1-1,1l0,0
	C152.71,2,152.26,1.55,152.26,1z M148.26,1c0-0.55,0.44-1,1-1l0,0c0.55,0,1,0.45,1,1l0,0c0,0.55-0.45,1-1,1l0,0
	C148.7,2,148.26,1.55,148.26,1z M144.25,1c0-0.55,0.45-1,1-1l0,0c0.55,0,1,0.45,1,1l0,0c0,0.55-0.45,1-1,1l0,0
	C144.7,2,144.25,1.55,144.25,1z M140.24,1c0-0.55,0.45-1,1-1l0,0c0.55,0,1,0.45,1,1l0,0c0,0.55-0.45,1-1,1l0,0
	C140.69,2,140.24,1.55,140.24,1z M136.24,1c0-0.55,0.44-1,0.99-1l0,0c0.56,0,1.01,0.45,1.01,1l0,0c0,0.55-0.45,1-1.01,1l0,0
	C136.68,2,136.24,1.55,136.24,1z M132.23,1c0-0.55,0.44-1,1-1l0,0c0.55,0,1,0.45,1,1l0,0c0,0.55-0.45,1-1,1l0,0
	C132.67,2,132.23,1.55,132.23,1z M128.22,1c0-0.55,0.45-1,1-1l0,0c0.55,0,1,0.45,1,1l0,0c0,0.55-0.45,1-1,1l0,0
	C128.67,2,128.22,1.55,128.22,1z M124.21,1c0-0.55,0.45-1,1-1l0,0c0.56,0,1.01,0.45,1.01,1l0,0c0,0.55-0.45,1-1.01,1l0,0
	C124.66,2,124.21,1.55,124.21,1z M120.21,1c0-0.55,0.44-1,1-1l0,0c0.55,0,1,0.45,1,1l0,0c0,0.55-0.45,1-1,1l0,0
	C120.65,2,120.21,1.55,120.21,1z M116.2,1c0-0.55,0.45-1,1-1l0,0c0.55,0,1,0.45,1,1l0,0c0,0.55-0.45,1-1,1l0,0
	C116.65,2,116.2,1.55,116.2,1z M112.19,1c0-0.55,0.45-1,1-1l0,0c0.55,0,1,0.45,1,1l0,0c0,0.55-0.45,1-1,1l0,0
	C112.64,2,112.19,1.55,112.19,1z M108.19,1c0-0.55,0.44-1,1-1l0,0c0.55,0,1,0.45,1,1l0,0c0,0.55-0.45,1-1,1l0,0
	C108.63,2,108.19,1.55,108.19,1z M104.18,1c0-0.55,0.45-1,1-1l0,0c0.55,0,1,0.45,1,1l0,0c0,0.55-0.45,1-1,1l0,0
	C104.63,2,104.18,1.55,104.18,1z M100.17,1c0-0.55,0.45-1,1-1l0,0c0.55,0,1,0.45,1,1l0,0c0,0.55-0.45,1-1,1l0,0
	C100.62,2,100.17,1.55,100.17,1z M96.16,1c0-0.55,0.45-1,1-1l0,0c0.56,0,1,0.45,1,1l0,0c0,0.55-0.44,1-1,1l0,0
	C96.61,2,96.16,1.55,96.16,1z M92.16,1c0-0.55,0.45-1,1-1l0,0c0.55,0,1,0.45,1,1l0,0c0,0.55-0.45,1-1,1l0,0
	C92.61,2,92.16,1.55,92.16,1z M88.15,1c0-0.55,0.45-1,1-1l0,0c0.55,0,1,0.45,1,1l0,0c0,0.55-0.45,1-1,1l0,0
	C88.6,2,88.15,1.55,88.15,1z M84.14,1c0-0.55,0.45-1,1-1l0,0c0.56,0,1,0.45,1,1l0,0c0,0.55-0.44,1-1,1l0,0
	C84.59,2,84.14,1.55,84.14,1z M80.14,1c0-0.55,0.44-1,1-1l0,0c0.55,0,1,0.45,1,1l0,0c0,0.55-0.45,1-1,1l0,0
	C80.58,2,80.14,1.55,80.14,1z M76.13,1c0-0.55,0.45-1,1-1l0,0c0.55,0,1,0.45,1,1l0,0c0,0.55-0.45,1-1,1l0,0
	C76.58,2,76.13,1.55,76.13,1z M72.12,1c0-0.55,0.45-1,1-1l0,0c0.56,0,1,0.45,1,1l0,0c0,0.55-0.44,1-1,1l0,0
	C72.57,2,72.12,1.55,72.12,1z M68.12,1c0-0.55,0.44-1,1-1l0,0c0.55,0,1,0.45,1,1l0,0c0,0.55-0.45,1-1,1l0,0
	C68.56,2,68.12,1.55,68.12,1z M64.11,1c0-0.55,0.45-1,1-1l0,0c0.55,0,1,0.45,1,1l0,0c0,0.55-0.45,1-1,1l0,0
	C64.56,2,64.11,1.55,64.11,1z M60.1,1c0-0.55,0.45-1,1-1l0,0c0.55,0,1,0.45,1,1l0,0c0,0.55-0.45,1-1,1l0,0C60.55,2,60.1,1.55,60.1,1
	z M56.1,1c0-0.55,0.44-1,0.99-1l0,0c0.56,0,1,0.45,1,1l0,0c0,0.55-0.44,1-1,1l0,0C56.54,2,56.1,1.55,56.1,1z M52.09,1
	c0-0.55,0.45-1,1-1l0,0c0.55,0,1,0.45,1,1l0,0c0,0.55-0.45,1-1,1l0,0C52.54,2,52.09,1.55,52.09,1z M48.08,1c0-0.55,0.45-1,1-1l0,0
	c0.55,0,1,0.45,1,1l0,0c0,0.55-0.45,1-1,1l0,0C48.53,2,48.08,1.55,48.08,1z M44.07,1c0-0.55,0.45-1,1-1l0,0c0.56,0,1,0.45,1,1l0,0
	c0,0.55-0.44,1-1,1l0,0C44.52,2,44.07,1.55,44.07,1z M40.07,1c0-0.55,0.44-1,1-1l0,0c0.55,0,1,0.45,1,1l0,0c0,0.55-0.45,1-1,1l0,0
	C40.51,2,40.07,1.55,40.07,1z M36.06,1c0-0.55,0.45-1,1-1l0,0c0.55,0,1,0.45,1,1l0,0c0,0.55-0.45,1-1,1l0,0
	C36.51,2,36.06,1.55,36.06,1z M32.05,1c0-0.55,0.45-1,1-1l0,0c0.55,0,1,0.45,1,1l0,0c0,0.55-0.45,1-1,1l0,0
	C32.5,2,32.05,1.55,32.05,1z M28.05,1c0-0.55,0.44-1,1-1l0,0c0.55,0,1,0.45,1,1l0,0c0,0.55-0.45,1-1,1l0,0
	C28.49,2,28.05,1.55,28.05,1z M24.04,1c0-0.55,0.45-1,1-1l0,0c0.55,0,1,0.45,1,1l0,0c0,0.55-0.45,1-1,1l0,0
	C24.49,2,24.04,1.55,24.04,1z M20.03,1c0-0.55,0.45-1,1-1l0,0c0.55,0,1,0.45,1,1l0,0c0,0.55-0.45,1-1,1l0,0
	C20.48,2,20.03,1.55,20.03,1z M16.03,1c0-0.55,0.44-1,1-1l0,0c0.55,0,0.99,0.45,0.99,1l0,0c0,0.55-0.44,1-0.99,1l0,0
	C16.47,2,16.03,1.55,16.03,1z M12.02,1c0-0.55,0.45-1,1-1l0,0c0.55,0,1,0.45,1,1l0,0c0,0.55-0.45,1-1,1l0,0
	C12.47,2,12.02,1.55,12.02,1z M8.01,1c0-0.55,0.45-1,1-1l0,0c0.55,0,1,0.45,1,1l0,0c0,0.55-0.45,1-1,1l0,0C8.46,2,8.01,1.55,8.01,1z
	 M4,1c0-0.55,0.45-1,1-1l0,0c0.56,0,1,0.45,1,1l0,0c0,0.55-0.44,1-1,1l0,0C4.45,2,4,1.55,4,1z M0,1c0-0.55,0.44-1,1-1l0,0
	c0.55,0,1,0.45,1,1l0,0c0,0.55-0.45,1-1,1l0,0C0.44,2,0,1.55,0,1z"/>
<path class="st0" d="M540.94,5.98c0-0.551,0.449-1,1-1l0,0c0.55,0,1,0.449,1,1l0,0c0,0.55-0.45,1-1,1l0,0
	C541.39,6.98,540.94,6.53,540.94,5.98z M536.93,5.98c0-0.551,0.45-1,1-1l0,0c0.551,0,1,0.449,1,1l0,0c0,0.55-0.449,1-1,1l0,0
	C537.38,6.98,536.93,6.53,536.93,5.98z M532.93,5.98c0-0.551,0.44-1,1-1l0,0c0.551,0,1,0.449,1,1l0,0c0,0.55-0.449,1-1,1l0,0
	C533.37,6.98,532.93,6.53,532.93,5.98z M528.92,5.98c0-0.551,0.45-1,1-1l0,0c0.55,0,1,0.449,1,1l0,0c0,0.55-0.45,1-1,1l0,0
	C529.37,6.98,528.92,6.53,528.92,5.98z M524.91,5.98c0-0.551,0.45-1,1-1l0,0c0.55,0,1,0.449,1,1l0,0c0,0.55-0.45,1-1,1l0,0
	C525.36,6.98,524.91,6.53,524.91,5.98z M520.91,5.98c0-0.551,0.439-1,0.99-1l0,0c0.56,0,1,0.449,1,1l0,0c0,0.55-0.44,1-1,1l0,0
	C521.35,6.98,520.91,6.53,520.91,5.98z M516.9,5.98c0-0.551,0.439-1,1-1l0,0c0.55,0,1,0.449,1,1l0,0c0,0.55-0.45,1-1,1l0,0
	C517.34,6.98,516.9,6.53,516.9,5.98z M512.89,5.98c0-0.551,0.45-1,1-1l0,0c0.551,0,1,0.449,1,1l0,0c0,0.55-0.449,1-1,1l0,0
	C513.34,6.98,512.89,6.53,512.89,5.98z M508.88,5.98c0-0.551,0.45-1,1-1l0,0c0.561,0,1,0.449,1,1l0,0c0,0.55-0.439,1-1,1l0,0
	C509.33,6.98,508.88,6.53,508.88,5.98z M504.88,5.98c0-0.551,0.44-1,1-1l0,0c0.55,0,1,0.449,1,1l0,0c0,0.55-0.45,1-1,1l0,0
	C505.32,6.98,504.88,6.53,504.88,5.98z M500.87,5.98c0-0.551,0.45-1,1-1l0,0c0.55,0,1,0.449,1,1l0,0c0,0.55-0.45,1-1,1l0,0
	C501.32,6.98,500.87,6.53,500.87,5.98z M496.86,5.98c0-0.551,0.449-1,1-1l0,0c0.56,0,1,0.449,1,1l0,0c0,0.55-0.44,1-1,1l0,0
	C497.31,6.98,496.86,6.53,496.86,5.98z M492.85,5.98c0-0.551,0.45-1,1.011-1l0,0c0.55,0,1,0.449,1,1l0,0c0,0.55-0.45,1-1,1l0,0
	C493.3,6.98,492.85,6.53,492.85,5.98z M488.85,5.98c0-0.551,0.45-1,1-1l0,0c0.551,0,1,0.449,1,1l0,0c0,0.55-0.449,1-1,1l0,0
	C489.3,6.98,488.85,6.53,488.85,5.98z M484.84,5.98c0-0.551,0.45-1,1-1l0,0c0.55,0,1,0.449,1,1l0,0c0,0.55-0.45,1-1,1l0,0
	C485.29,6.98,484.84,6.53,484.84,5.98z M480.84,5.98c0-0.551,0.44-1,1-1l0,0c0.55,0,0.99,0.449,0.99,1l0,0c0,0.55-0.44,1-0.99,1l0,0
	C481.28,6.98,480.84,6.53,480.84,5.98z M476.83,5.98c0-0.551,0.44-1,1-1l0,0c0.55,0,1,0.449,1,1l0,0c0,0.55-0.45,1-1,1l0,0
	C477.271,6.98,476.83,6.53,476.83,5.98z M472.82,5.98c0-0.551,0.45-1,1-1l0,0c0.55,0,1,0.449,1,1l0,0c0,0.55-0.45,1-1,1l0,0
	C473.271,6.98,472.82,6.53,472.82,5.98z M468.81,5.98c0-0.551,0.45-1,1-1l0,0c0.561,0,1,0.449,1,1l0,0c0,0.55-0.439,1-1,1l0,0
	C469.26,6.98,468.81,6.53,468.81,5.98z M464.81,5.98c0-0.551,0.44-1,1-1l0,0c0.551,0,1,0.449,1,1l0,0c0,0.55-0.449,1-1,1l0,0
	C465.25,6.98,464.81,6.53,464.81,5.98z M460.8,5.98c0-0.551,0.45-1,1-1l0,0c0.55,0,1,0.449,1,1l0,0c0,0.55-0.45,1-1,1l0,0
	C461.25,6.98,460.8,6.53,460.8,5.98z M456.79,5.98c0-0.551,0.45-1,1-1l0,0c0.56,0,1,0.449,1,1l0,0c0,0.55-0.44,1-1,1l0,0
	C457.24,6.98,456.79,6.53,456.79,5.98z M452.79,5.98c0-0.551,0.44-1,1-1l0,0c0.55,0,1,0.449,1,1l0,0c0,0.55-0.45,1-1,1l0,0
	C453.23,6.98,452.79,6.53,452.79,5.98z M448.78,5.98c0-0.551,0.45-1,1-1l0,0c0.55,0,1,0.449,1,1l0,0c0,0.55-0.45,1-1,1l0,0
	C449.23,6.98,448.78,6.53,448.78,5.98z M444.771,5.98c0-0.551,0.449-1,1-1l0,0c0.55,0,1,0.449,1,1l0,0c0,0.55-0.45,1-1,1l0,0
	C445.22,6.98,444.771,6.53,444.771,5.98z M440.76,5.98c0-0.551,0.45-1,1-1l0,0c0.561,0,1.011,0.449,1.011,1l0,0
	c0,0.55-0.45,1-1.011,1l0,0C441.21,6.98,440.76,6.53,440.76,5.98z M436.76,5.98c0-0.551,0.45-1,1-1l0,0c0.55,0,1,0.449,1,1l0,0
	c0,0.55-0.45,1-1,1l0,0C437.21,6.98,436.76,6.53,436.76,5.98z M432.75,5.98c0-0.551,0.45-1,1-1l0,0c0.55,0,1,0.449,1,1l0,0
	c0,0.55-0.45,1-1,1l0,0C433.2,6.98,432.75,6.53,432.75,5.98z M428.74,5.98c0-0.551,0.45-1,1-1l0,0c0.56,0,1,0.449,1,1l0,0
	c0,0.55-0.44,1-1,1l0,0C429.19,6.98,428.74,6.53,428.74,5.98z M424.74,5.98c0-0.551,0.439-1,1-1l0,0c0.55,0,1,0.449,1,1l0,0
	c0,0.55-0.45,1-1,1l0,0C425.18,6.98,424.74,6.53,424.74,5.98z M420.73,5.98c0-0.551,0.449-1,1-1l0,0c0.55,0,1,0.449,1,1l0,0
	c0,0.55-0.45,1-1,1l0,0C421.18,6.98,420.73,6.53,420.73,5.98z M416.72,5.98c0-0.551,0.45-1,1-1l0,0c0.561,0,1,0.449,1,1l0,0
	c0,0.55-0.439,1-1,1l0,0C417.17,6.98,416.72,6.53,416.72,5.98z M412.72,5.98c0-0.551,0.44-1,1-1l0,0c0.551,0,1,0.449,1,1l0,0
	c0,0.55-0.449,1-1,1l0,0C413.16,6.98,412.72,6.53,412.72,5.98z M408.71,5.98c0-0.551,0.45-1,1-1l0,0c0.55,0,1,0.449,1,1l0,0
	c0,0.55-0.45,1-1,1l0,0C409.16,6.98,408.71,6.53,408.71,5.98z M404.7,5.98c0-0.551,0.45-1,1-1l0,0c0.55,0,1,0.449,1,1l0,0
	c0,0.55-0.45,1-1,1l0,0C405.15,6.98,404.7,6.53,404.7,5.98z M400.69,5.98c0-0.551,0.449-1,1.01-1l0,0c0.55,0,1,0.449,1,1l0,0
	c0,0.55-0.45,1-1,1l0,0C401.14,6.98,400.69,6.53,400.69,5.98z M396.69,5.98c0-0.551,0.449-1,1-1l0,0c0.55,0,1,0.449,1,1l0,0
	c0,0.55-0.45,1-1,1l0,0C397.14,6.98,396.69,6.53,396.69,5.98z M392.68,5.98c0-0.551,0.45-1,1-1l0,0c0.551,0,1,0.449,1,1l0,0
	c0,0.55-0.449,1-1,1l0,0C393.13,6.98,392.68,6.53,392.68,5.98z M388.68,5.98c0-0.551,0.44-1,1-1l0,0c0.551,0,1,0.449,1,1l0,0
	c0,0.55-0.449,1-1,1l0,0C389.12,6.98,388.68,6.53,388.68,5.98z M384.67,5.98c0-0.551,0.44-1,1-1l0,0c0.55,0,1,0.449,1,1l0,0
	c0,0.55-0.45,1-1,1l0,0C385.11,6.98,384.67,6.53,384.67,5.98z M380.66,5.98c0-0.551,0.45-1,1-1l0,0c0.55,0,1,0.449,1,1l0,0
	c0,0.55-0.45,1-1,1l0,0C381.11,6.98,380.66,6.53,380.66,5.98z M376.65,5.98c0-0.551,0.449-1,1-1l0,0c0.56,0,1,0.449,1,1l0,0
	c0,0.55-0.44,1-1,1l0,0C377.1,6.98,376.65,6.53,376.65,5.98z M372.65,5.98c0-0.551,0.439-1,1-1l0,0c0.55,0,1,0.449,1,1l0,0
	c0,0.55-0.45,1-1,1l0,0C373.09,6.98,372.65,6.53,372.65,5.98z M368.64,5.98c0-0.551,0.45-1,1-1l0,0c0.551,0,1,0.449,1,1l0,0
	c0,0.55-0.449,1-1,1l0,0C369.09,6.98,368.64,6.53,368.64,5.98z M364.63,5.98c0-0.551,0.45-1,1-1l0,0c0.55,0,1,0.449,1,1l0,0
	c0,0.55-0.45,1-1,1l0,0C365.08,6.98,364.63,6.53,364.63,5.98z M360.63,5.98c0-0.551,0.44-1,1-1l0,0c0.55,0,1,0.449,1,1l0,0
	c0,0.55-0.45,1-1,1l0,0C361.07,6.98,360.63,6.53,360.63,5.98z M356.62,5.98c0-0.551,0.45-1,1-1l0,0c0.55,0,1,0.449,1,1l0,0
	c0,0.55-0.45,1-1,1l0,0C357.07,6.98,356.62,6.53,356.62,5.98z M352.61,5.98c0-0.551,0.449-1,1-1l0,0c0.55,0,1,0.449,1,1l0,0
	c0,0.55-0.45,1-1,1l0,0C353.06,6.98,352.61,6.53,352.61,5.98z M348.6,5.98c0-0.551,0.45-1,1-1l0,0c0.561,0,1,0.449,1,1l0,0
	c0,0.55-0.439,1-1,1l0,0C349.05,6.98,348.6,6.53,348.6,5.98z M344.6,5.98c0-0.551,0.44-1,1-1l0,0c0.551,0,1,0.449,1,1l0,0
	c0,0.55-0.449,1-1,1l0,0C345.04,6.98,344.6,6.53,344.6,5.98z M340.59,5.98c0-0.551,0.45-1,1-1l0,0c0.55,0,1,0.449,1,1l0,0
	c0,0.55-0.45,1-1,1l0,0C341.04,6.98,340.59,6.53,340.59,5.98z M336.58,5.98c0-0.551,0.45-1,1-1l0,0c0.56,0,1,0.449,1,1l0,0
	c0,0.55-0.44,1-1,1l0,0C337.03,6.98,336.58,6.53,336.58,5.98z M332.58,5.98c0-0.551,0.44-1,1-1l0,0c0.55,0,1,0.449,1,1l0,0
	c0,0.55-0.45,1-1,1l0,0C333.021,6.98,332.58,6.53,332.58,5.98z M328.57,5.98c0-0.551,0.45-1,1-1l0,0c0.55,0,1,0.449,1,1l0,0
	c0,0.55-0.45,1-1,1l0,0C329.021,6.98,328.57,6.53,328.57,5.98z M324.56,5.98c0-0.551,0.45-1,1-1l0,0c0.561,0,1,0.449,1,1l0,0
	c0,0.55-0.439,1-1,1l0,0C325.01,6.98,324.56,6.53,324.56,5.98z M320.55,5.98c0-0.551,0.45-1,1-1l0,0c0.561,0,1,0.449,1,1l0,0
	c0,0.55-0.439,1-1,1l0,0C321,6.98,320.55,6.53,320.55,5.98z M316.55,5.98c0-0.551,0.45-1,1-1l0,0c0.55,0,1,0.449,1,1l0,0
	c0,0.55-0.45,1-1,1l0,0C317,6.98,316.55,6.53,316.55,5.98z M312.54,5.98c0-0.551,0.45-1,1-1l0,0c0.55,0,1,0.449,1,1l0,0
	c0,0.55-0.45,1-1,1l0,0C312.99,6.98,312.54,6.53,312.54,5.98z M308.53,5.98c0-0.551,0.45-1,1-1l0,0c0.56,0,1.01,0.449,1.01,1l0,0
	c0,0.55-0.45,1-1.01,1l0,0C308.98,6.98,308.53,6.53,308.53,5.98z M304.53,5.98c0-0.551,0.439-1,1-1l0,0c0.55,0,1,0.449,1,1l0,0
	c0,0.55-0.45,1-1,1l0,0C304.97,6.98,304.53,6.53,304.53,5.98z M300.521,5.98c0-0.551,0.449-1,1-1l0,0c0.55,0,1,0.449,1,1l0,0
	c0,0.55-0.45,1-1,1l0,0C300.97,6.98,300.521,6.53,300.521,5.98z M296.51,5.98c0-0.551,0.45-1,1-1l0,0c0.561,0,1,0.449,1,1l0,0
	c0,0.55-0.439,1-1,1l0,0C296.96,6.98,296.51,6.53,296.51,5.98z M292.51,5.98c0-0.551,0.44-1,1-1l0,0c0.55,0,1,0.449,1,1l0,0
	c0,0.55-0.45,1-1,1l0,0C292.95,6.98,292.51,6.53,292.51,5.98z M288.5,5.98c0-0.551,0.45-1,1-1l0,0c0.55,0,1,0.449,1,1l0,0
	c0,0.55-0.45,1-1,1l0,0C288.95,6.98,288.5,6.53,288.5,5.98z M284.49,5.98c0-0.551,0.45-1,1-1l0,0c0.56,0,1,0.449,1,1l0,0
	c0,0.55-0.44,1-1,1l0,0C284.94,6.98,284.49,6.53,284.49,5.98z M280.49,5.98c0-0.551,0.439-1,1-1l0,0c0.55,0,1,0.449,1,1l0,0
	c0,0.55-0.45,1-1,1l0,0C280.93,6.98,280.49,6.53,280.49,5.98z M276.48,5.98c0-0.551,0.449-1,1-1l0,0c0.55,0,1,0.449,1,1l0,0
	c0,0.55-0.45,1-1,1l0,0C276.93,6.98,276.48,6.53,276.48,5.98z M272.47,5.98c0-0.551,0.45-1,1-1l0,0c0.551,0,1,0.449,1,1l0,0
	c0,0.55-0.449,1-1,1l0,0C272.92,6.98,272.47,6.53,272.47,5.98z M268.47,5.98c0-0.551,0.44-1,1-1l0,0c0.55,0,1,0.449,1,1l0,0
	c0,0.55-0.45,1-1,1l0,0C268.91,6.98,268.47,6.53,268.47,5.98z M264.46,5.98c0-0.551,0.45-1,1-1l0,0c0.55,0,1,0.449,1,1l0,0
	c0,0.55-0.45,1-1,1l0,0C264.91,6.98,264.46,6.53,264.46,5.98z M260.45,5.98c0-0.551,0.45-1,1-1l0,0c0.55,0,1,0.449,1,1l0,0
	c0,0.55-0.45,1-1,1l0,0C260.9,6.98,260.45,6.53,260.45,5.98z M256.44,5.98c0-0.551,0.45-1,1.01-1l0,0c0.55,0,1,0.449,1,1l0,0
	c0,0.55-0.45,1-1,1l0,0C256.89,6.98,256.44,6.53,256.44,5.98z M252.44,5.98c0-0.551,0.44-1,1-1l0,0c0.55,0,1,0.449,1,1l0,0
	c0,0.55-0.45,1-1,1l0,0C252.88,6.98,252.44,6.53,252.44,5.98z M248.43,5.98c0-0.551,0.45-1,1-1l0,0c0.55,0,1,0.449,1,1l0,0
	c0,0.55-0.45,1-1,1l0,0C248.88,6.98,248.43,6.53,248.43,5.98z M244.42,5.98c0-0.551,0.45-1,1-1l0,0c0.56,0,1,0.449,1,1l0,0
	c0,0.55-0.44,1-1,1l0,0C244.87,6.98,244.42,6.53,244.42,5.98z M240.42,5.98c0-0.551,0.44-1,1-1l0,0c0.55,0,1,0.449,1,1l0,0
	c0,0.55-0.45,1-1,1l0,0C240.86,6.98,240.42,6.53,240.42,5.98z M236.41,5.98c0-0.551,0.45-1,1-1l0,0c0.55,0,1,0.449,1,1l0,0
	c0,0.55-0.45,1-1,1l0,0C236.86,6.98,236.41,6.53,236.41,5.98z M232.4,5.98c0-0.551,0.45-1,1-1l0,0c0.56,0,1,0.449,1,1l0,0
	c0,0.55-0.44,1-1,1l0,0C232.85,6.98,232.4,6.53,232.4,5.98z M228.4,5.98c0-0.551,0.44-1,1-1l0,0c0.55,0,1,0.449,1,1l0,0
	c0,0.55-0.45,1-1,1l0,0C228.84,6.98,228.4,6.53,228.4,5.98z M224.39,5.98c0-0.551,0.45-1,1-1l0,0c0.55,0,1,0.449,1,1l0,0
	c0,0.55-0.45,1-1,1l0,0C224.84,6.98,224.39,6.53,224.39,5.98z M220.38,5.98c0-0.551,0.45-1,1-1l0,0c0.55,0,1,0.449,1,1l0,0
	c0,0.55-0.45,1-1,1l0,0C220.83,6.98,220.38,6.53,220.38,5.98z M216.37,5.98c0-0.551,0.45-1,1-1l0,0c0.56,0,1.01,0.449,1.01,1l0,0
	c0,0.55-0.45,1-1.01,1l0,0C216.82,6.98,216.37,6.53,216.37,5.98z M212.37,5.98c0-0.551,0.44-1,1-1l0,0c0.55,0,1,0.449,1,1l0,0
	c0,0.55-0.45,1-1,1l0,0C212.81,6.98,212.37,6.53,212.37,5.98z M208.36,5.98c0-0.551,0.45-1,1-1l0,0c0.55,0,1,0.449,1,1l0,0
	c0,0.55-0.45,1-1,1l0,0C208.81,6.98,208.36,6.53,208.36,5.98z M204.35,5.98c0-0.551,0.45-1,1-1l0,0c0.56,0,1,0.449,1,1l0,0
	c0,0.55-0.44,1-1,1l0,0C204.8,6.98,204.35,6.53,204.35,5.98z M200.35,5.98c0-0.551,0.44-1,1-1l0,0c0.55,0,1,0.449,1,1l0,0
	c0,0.55-0.45,1-1,1l0,0C200.79,6.98,200.35,6.53,200.35,5.98z M196.34,5.98c0-0.551,0.45-1,1-1l0,0c0.55,0,1,0.449,1,1l0,0
	c0,0.55-0.45,1-1,1l0,0C196.79,6.98,196.34,6.53,196.34,5.98z M192.33,5.98c0-0.551,0.45-1,1-1l0,0c0.56,0,1,0.449,1,1l0,0
	c0,0.55-0.44,1-1,1l0,0C192.78,6.98,192.33,6.53,192.33,5.98z M188.33,5.98c0-0.551,0.44-1,1-1l0,0c0.55,0,0.99,0.449,0.99,1l0,0
	c0,0.55-0.44,1-0.99,1l0,0C188.77,6.98,188.33,6.53,188.33,5.98z M184.32,5.98c0-0.551,0.45-1,1-1l0,0c0.55,0,1,0.449,1,1l0,0
	c0,0.55-0.45,1-1,1l0,0C184.77,6.98,184.32,6.53,184.32,5.98z M180.31,5.98c0-0.551,0.45-1,1-1l0,0c0.56,0,1,0.449,1,1l0,0
	c0,0.55-0.44,1-1,1l0,0C180.76,6.98,180.31,6.53,180.31,5.98z M176.3,5.98c0-0.551,0.45-1,1-1l0,0c0.56,0,1,0.449,1,1l0,0
	c0,0.55-0.44,1-1,1l0,0C176.75,6.98,176.3,6.53,176.3,5.98z M172.3,5.98c0-0.551,0.44-1,1-1l0,0c0.55,0,1,0.449,1,1l0,0
	c0,0.55-0.45,1-1,1l0,0C172.74,6.98,172.3,6.53,172.3,5.98z M168.29,5.98c0-0.551,0.45-1,1-1l0,0c0.55,0,1,0.449,1,1l0,0
	c0,0.55-0.45,1-1,1l0,0C168.74,6.98,168.29,6.53,168.29,5.98z M164.28,5.98c0-0.551,0.45-1,1-1l0,0c0.56,0,1,0.449,1,1l0,0
	c0,0.55-0.44,1-1,1l0,0C164.73,6.98,164.28,6.53,164.28,5.98z M160.28,5.98c0-0.551,0.44-1,1-1l0,0c0.55,0,1,0.449,1,1l0,0
	c0,0.55-0.45,1-1,1l0,0C160.72,6.98,160.28,6.53,160.28,5.98z M156.27,5.98c0-0.551,0.45-1,1-1l0,0c0.55,0,1,0.449,1,1l0,0
	c0,0.55-0.45,1-1,1l0,0C156.72,6.98,156.27,6.53,156.27,5.98z M152.26,5.98c0-0.551,0.45-1,1-1l0,0c0.55,0,1,0.449,1,1l0,0
	c0,0.55-0.45,1-1,1l0,0C152.71,6.98,152.26,6.53,152.26,5.98z M148.26,5.98c0-0.551,0.44-1,1-1l0,0c0.55,0,1,0.449,1,1l0,0
	c0,0.55-0.45,1-1,1l0,0C148.7,6.98,148.26,6.53,148.26,5.98z M144.25,5.98c0-0.551,0.45-1,1-1l0,0c0.55,0,1,0.449,1,1l0,0
	c0,0.55-0.45,1-1,1l0,0C144.7,6.98,144.25,6.53,144.25,5.98z M140.24,5.98c0-0.551,0.45-1,1-1l0,0c0.55,0,1,0.449,1,1l0,0
	c0,0.55-0.45,1-1,1l0,0C140.69,6.98,140.24,6.53,140.24,5.98z M136.24,5.98c0-0.551,0.44-1,0.99-1l0,0c0.56,0,1.01,0.449,1.01,1l0,0
	c0,0.55-0.45,1-1.01,1l0,0C136.68,6.98,136.24,6.53,136.24,5.98z M132.23,5.98c0-0.551,0.44-1,1-1l0,0c0.55,0,1,0.449,1,1l0,0
	c0,0.55-0.45,1-1,1l0,0C132.67,6.98,132.23,6.53,132.23,5.98z M128.22,5.98c0-0.551,0.45-1,1-1l0,0c0.55,0,1,0.449,1,1l0,0
	c0,0.55-0.45,1-1,1l0,0C128.67,6.98,128.22,6.53,128.22,5.98z M124.21,5.98c0-0.551,0.45-1,1-1l0,0c0.56,0,1.01,0.449,1.01,1l0,0
	c0,0.55-0.45,1-1.01,1l0,0C124.66,6.98,124.21,6.53,124.21,5.98z M120.21,5.98c0-0.551,0.44-1,1-1l0,0c0.55,0,1,0.449,1,1l0,0
	c0,0.55-0.45,1-1,1l0,0C120.65,6.98,120.21,6.53,120.21,5.98z M116.2,5.98c0-0.551,0.45-1,1-1l0,0c0.55,0,1,0.449,1,1l0,0
	c0,0.55-0.45,1-1,1l0,0C116.65,6.98,116.2,6.53,116.2,5.98z M112.19,5.98c0-0.551,0.45-1,1-1l0,0c0.55,0,1,0.449,1,1l0,0
	c0,0.55-0.45,1-1,1l0,0C112.64,6.98,112.19,6.53,112.19,5.98z M108.19,5.98c0-0.551,0.44-1,1-1l0,0c0.55,0,1,0.449,1,1l0,0
	c0,0.55-0.45,1-1,1l0,0C108.63,6.98,108.19,6.53,108.19,5.98z M104.18,5.98c0-0.551,0.45-1,1-1l0,0c0.55,0,1,0.449,1,1l0,0
	c0,0.55-0.45,1-1,1l0,0C104.63,6.98,104.18,6.53,104.18,5.98z M100.17,5.98c0-0.551,0.45-1,1-1l0,0c0.55,0,1,0.449,1,1l0,0
	c0,0.55-0.45,1-1,1l0,0C100.62,6.98,100.17,6.53,100.17,5.98z M96.16,5.98c0-0.551,0.45-1,1-1l0,0c0.56,0,1,0.449,1,1l0,0
	c0,0.55-0.44,1-1,1l0,0C96.61,6.98,96.16,6.53,96.16,5.98z M92.16,5.98c0-0.551,0.45-1,1-1l0,0c0.55,0,1,0.449,1,1l0,0
	c0,0.55-0.45,1-1,1l0,0C92.61,6.98,92.16,6.53,92.16,5.98z M88.15,5.98c0-0.551,0.45-1,1-1l0,0c0.55,0,1,0.449,1,1l0,0
	c0,0.55-0.45,1-1,1l0,0C88.6,6.98,88.15,6.53,88.15,5.98z M84.14,5.98c0-0.551,0.45-1,1-1l0,0c0.56,0,1,0.449,1,1l0,0
	c0,0.55-0.44,1-1,1l0,0C84.59,6.98,84.14,6.53,84.14,5.98z M80.14,5.98c0-0.551,0.44-1,1-1l0,0c0.55,0,1,0.449,1,1l0,0
	c0,0.55-0.45,1-1,1l0,0C80.58,6.98,80.14,6.53,80.14,5.98z M76.13,5.98c0-0.551,0.45-1,1-1l0,0c0.55,0,1,0.449,1,1l0,0
	c0,0.55-0.45,1-1,1l0,0C76.58,6.98,76.13,6.53,76.13,5.98z M72.12,5.98c0-0.551,0.45-1,1-1l0,0c0.56,0,1,0.449,1,1l0,0
	c0,0.55-0.44,1-1,1l0,0C72.57,6.98,72.12,6.53,72.12,5.98z M68.12,5.98c0-0.551,0.44-1,1-1l0,0c0.55,0,1,0.449,1,1l0,0
	c0,0.55-0.45,1-1,1l0,0C68.56,6.98,68.12,6.53,68.12,5.98z M64.11,5.98c0-0.551,0.45-1,1-1l0,0c0.55,0,1,0.449,1,1l0,0
	c0,0.55-0.45,1-1,1l0,0C64.56,6.98,64.11,6.53,64.11,5.98z M60.1,5.98c0-0.551,0.45-1,1-1l0,0c0.55,0,1,0.449,1,1l0,0
	c0,0.55-0.45,1-1,1l0,0C60.55,6.98,60.1,6.53,60.1,5.98z M56.1,5.98c0-0.551,0.44-1,0.99-1l0,0c0.56,0,1,0.449,1,1l0,0
	c0,0.55-0.44,1-1,1l0,0C56.54,6.98,56.1,6.53,56.1,5.98z M52.09,5.98c0-0.551,0.45-1,1-1l0,0c0.55,0,1,0.449,1,1l0,0
	c0,0.55-0.45,1-1,1l0,0C52.54,6.98,52.09,6.53,52.09,5.98z M48.08,5.98c0-0.551,0.45-1,1-1l0,0c0.55,0,1,0.449,1,1l0,0
	c0,0.55-0.45,1-1,1l0,0C48.53,6.98,48.08,6.53,48.08,5.98z M44.07,5.98c0-0.551,0.45-1,1-1l0,0c0.56,0,1,0.449,1,1l0,0
	c0,0.55-0.44,1-1,1l0,0C44.52,6.98,44.07,6.53,44.07,5.98z M40.07,5.98c0-0.551,0.44-1,1-1l0,0c0.55,0,1,0.449,1,1l0,0
	c0,0.55-0.45,1-1,1l0,0C40.51,6.98,40.07,6.53,40.07,5.98z M36.06,5.98c0-0.551,0.45-1,1-1l0,0c0.55,0,1,0.449,1,1l0,0
	c0,0.55-0.45,1-1,1l0,0C36.51,6.98,36.06,6.53,36.06,5.98z M32.05,5.98c0-0.551,0.45-1,1-1l0,0c0.55,0,1,0.449,1,1l0,0
	c0,0.55-0.45,1-1,1l0,0C32.5,6.98,32.05,6.53,32.05,5.98z M28.05,5.98c0-0.551,0.44-1,1-1l0,0c0.55,0,1,0.449,1,1l0,0
	c0,0.55-0.45,1-1,1l0,0C28.49,6.98,28.05,6.53,28.05,5.98z M24.04,5.98c0-0.551,0.45-1,1-1l0,0c0.55,0,1,0.449,1,1l0,0
	c0,0.55-0.45,1-1,1l0,0C24.49,6.98,24.04,6.53,24.04,5.98z M20.03,5.98c0-0.551,0.45-1,1-1l0,0c0.55,0,1,0.449,1,1l0,0
	c0,0.55-0.45,1-1,1l0,0C20.48,6.98,20.03,6.53,20.03,5.98z M16.03,5.98c0-0.551,0.44-1,1-1l0,0c0.55,0,0.99,0.449,0.99,1l0,0
	c0,0.55-0.44,1-0.99,1l0,0C16.47,6.98,16.03,6.53,16.03,5.98z M12.02,5.98c0-0.551,0.45-1,1-1l0,0c0.55,0,1,0.449,1,1l0,0
	c0,0.55-0.45,1-1,1l0,0C12.47,6.98,12.02,6.53,12.02,5.98z M8.01,5.98c0-0.551,0.45-1,1-1l0,0c0.55,0,1,0.449,1,1l0,0
	c0,0.55-0.45,1-1,1l0,0C8.46,6.98,8.01,6.53,8.01,5.98z M4,5.98c0-0.551,0.45-1,1-1l0,0c0.56,0,1,0.449,1,1l0,0c0,0.55-0.44,1-1,1
	l0,0C4.45,6.98,4,6.53,4,5.98z M0,5.98c0-0.551,0.44-1,1-1l0,0c0.55,0,1,0.449,1,1l0,0c0,0.55-0.45,1-1,1l0,0
	C0.44,6.98,0,6.53,0,5.98z"/>
</svg>
