<?xml version="1.0" encoding="utf-8"?>
<!-- Generator: Adobe Illustrator 14.0.0, SVG Export Plug-In . SVG Version: 6.00 Build 43363)  -->
<!DOCTYPE svg PUBLIC "-//W3C//DTD SVG 1.1//EN" "http://www.w3.org/Graphics/SVG/1.1/DTD/svg11.dtd">
<svg version="1.1" id="Layer_1" xmlns="http://www.w3.org/2000/svg" xmlns:xlink="http://www.w3.org/1999/xlink" x="0px" y="0px"
	 width="7.715px" height="13.35px" viewBox="0 0 7.715 13.35" style="enable-background:new 0 0 7.715 13.35;" xml:space="preserve"
	>
<style type="text/css">
<![CDATA[
	.st0{fill:#361313; fill-opacity: 1; stroke-opacity: 1}
]]>
</style>
<g>
	<path class="st0" d="M0.996,0c0.28,0,0.516,0.099,0.708,0.298s0.288,0.435,0.288,0.708c0,0.267-0.096,0.5-0.288,0.698S1.276,2.002,0.996,2.002
		c-0.267,0-0.5-0.099-0.698-0.298S0,1.273,0,1.006c0-0.273,0.099-0.509,0.298-0.708S0.729,0,0.996,0z M0.996,2.842
		c0.28,0,0.516,0.094,0.708,0.283s0.288,0.423,0.288,0.703c0,0.273-0.096,0.509-0.288,0.708S1.276,4.834,0.996,4.834
		c-0.267,0-0.5-0.099-0.698-0.298S0,4.102,0,3.828c0-0.28,0.099-0.514,0.298-0.703S0.729,2.842,0.996,2.842z M0.996,5.674
		c0.28,0,0.516,0.096,0.708,0.288S1.992,6.39,1.992,6.67c0,0.273-0.096,0.509-0.288,0.708S1.276,7.676,0.996,7.676
		c-0.267,0-0.5-0.099-0.698-0.298S0,6.943,0,6.67c0-0.28,0.099-0.516,0.298-0.708S0.729,5.674,0.996,5.674z M0.996,8.516
		c0.28,0,0.516,0.096,0.708,0.288s0.288,0.428,0.288,0.708c0,0.273-0.096,0.508-0.288,0.703s-0.428,0.293-0.708,0.293
		c-0.267,0-0.5-0.098-0.698-0.293S0,9.785,0,9.512c0-0.28,0.099-0.516,0.298-0.708S0.729,8.516,0.996,8.516z M0.996,11.348
		c0.28,0,0.516,0.096,0.708,0.288s0.288,0.428,0.288,0.708c0,0.273-0.096,0.509-0.288,0.708S1.276,13.35,0.996,13.35
		c-0.267,0-0.5-0.099-0.698-0.298S0,12.617,0,12.344c0-0.28,0.099-0.516,0.298-0.708S0.729,11.348,0.996,11.348z M3.857,2.842
		c0.273,0,0.509,0.094,0.708,0.283s0.298,0.423,0.298,0.703c0,0.273-0.099,0.509-0.298,0.708S4.131,4.834,3.857,4.834
		c-0.267,0-0.498-0.099-0.693-0.298S2.871,4.102,2.871,3.828c0-0.28,0.098-0.514,0.293-0.703S3.59,2.842,3.857,2.842z M3.857,5.674
		c0.273,0,0.509,0.096,0.708,0.288S4.863,6.39,4.863,6.67c0,0.273-0.099,0.509-0.298,0.708S4.131,7.676,3.857,7.676
		c-0.267,0-0.498-0.099-0.693-0.298S2.871,6.943,2.871,6.67c0-0.28,0.098-0.516,0.293-0.708S3.59,5.674,3.857,5.674z M3.857,8.516
		c0.273,0,0.509,0.096,0.708,0.288s0.298,0.428,0.298,0.708c0,0.273-0.099,0.508-0.298,0.703s-0.435,0.293-0.708,0.293
		c-0.267,0-0.498-0.098-0.693-0.293s-0.293-0.43-0.293-0.703c0-0.28,0.098-0.516,0.293-0.708S3.59,8.516,3.857,8.516z M6.709,5.674
		c0.273,0,0.509,0.096,0.708,0.288S7.715,6.39,7.715,6.67c0,0.273-0.099,0.509-0.298,0.708S6.982,7.676,6.709,7.676
		c-0.267,0-0.5-0.099-0.698-0.298S5.713,6.943,5.713,6.67c0-0.28,0.099-0.516,0.298-0.708S6.442,5.674,6.709,5.674z"/>
</g>
</svg>
