<?xml version="1.0" encoding="utf-8"?>
<!-- Generator: Adobe Illustrator 14.0.0, SVG Export Plug-In . SVG Version: 6.00 Build 43363)  -->
<!DOCTYPE svg PUBLIC "-//W3C//DTD SVG 1.1//EN" "http://www.w3.org/Graphics/SVG/1.1/DTD/svg11.dtd">
<svg version="1.1" id="Layer_1" xmlns="http://www.w3.org/2000/svg" xmlns:xlink="http://www.w3.org/1999/xlink" x="0px" y="0px"
	 width="12.607px" height="12.236px" viewBox="0 0 12.607 12.236" style="enable-background:new 0 0 12.607 12.236;"
	 xml:space="preserve">
<style type="text/css">
<![CDATA[
	.st0{fill:#361313; fill-opacity: 1; stroke-opacity: 1}
]]>
</style>
<g>
	<path class="st0" d="M0,6.24V5.996h0.625c0.794,0,1.53-0.128,2.207-0.386S4.098,4.984,4.6,4.502s0.884-1.051,1.147-1.709S6.143,1.4,6.143,0.586
		V0h0.303v0.586c0,0.794,0.135,1.528,0.405,2.202s0.656,1.249,1.157,1.724s1.09,0.841,1.768,1.099s1.416,0.386,2.217,0.386h0.615
		V6.24h-0.615c-0.801,0-1.543,0.128-2.227,0.386S8.493,7.25,7.998,7.725S7.121,8.773,6.851,9.443S6.445,10.85,6.445,11.65v0.586
		H6.143V11.65c0-1.061-0.233-2.002-0.698-2.822S4.326,7.372,3.486,6.919S1.693,6.24,0.625,6.24H0z M2.93,2.876
		C2.838,2.958,2.734,2.998,2.617,2.998c-0.124,0-0.229-0.042-0.317-0.127S2.168,2.686,2.168,2.568c0-0.13,0.042-0.231,0.127-0.303
		s0.192-0.107,0.322-0.107c0.117,0,0.221,0.039,0.313,0.117s0.137,0.176,0.137,0.293C3.066,2.692,3.021,2.794,2.93,2.876z
		 M2.925,9.966c-0.094,0.082-0.197,0.122-0.308,0.122c-0.13,0-0.238-0.039-0.322-0.117S2.168,9.795,2.168,9.678
		c0-0.124,0.044-0.228,0.132-0.313s0.194-0.127,0.317-0.127c0.117,0,0.221,0.039,0.313,0.117s0.137,0.186,0.137,0.322
		C3.066,9.789,3.019,9.884,2.925,9.966z M9.668,2.275c0.084-0.078,0.186-0.117,0.303-0.117c0.137,0,0.249,0.036,0.337,0.107
		s0.132,0.172,0.132,0.303c0,0.124-0.045,0.226-0.137,0.308s-0.202,0.122-0.332,0.122c-0.124,0-0.226-0.041-0.308-0.122
		S9.541,2.692,9.541,2.568C9.541,2.451,9.583,2.354,9.668,2.275z M9.663,9.36c0.082-0.082,0.184-0.122,0.308-0.122
		c0.13,0,0.241,0.041,0.332,0.122s0.137,0.187,0.137,0.317c0,0.124-0.044,0.223-0.132,0.298s-0.2,0.112-0.337,0.112
		c-0.111,0-0.21-0.044-0.298-0.132S9.541,9.775,9.541,9.678C9.541,9.547,9.582,9.442,9.663,9.36z"/>
</g>
</svg>
