<?xml version="1.0" encoding="utf-8"?>
<!-- Generator: Adobe Illustrator 14.0.0, SVG Export Plug-In . SVG Version: 6.00 Build 43363)  -->
<!DOCTYPE svg PUBLIC "-//W3C//DTD SVG 1.1//EN" "http://www.w3.org/Graphics/SVG/1.1/DTD/svg11.dtd">
<svg version="1.1" id="Layer_1" xmlns="http://www.w3.org/2000/svg" xmlns:xlink="http://www.w3.org/1999/xlink" x="0px" y="0px"
	 width="432px" height="72px" viewBox="0 0 432 72" style="enable-background:new 0 0 432 72;" xml:space="preserve">
<style type="text/css">
<![CDATA[
	.st0{fill:#361313; fill-opacity: 1; stroke-opacity: 1;}
]]>
</style>
<path class="st0" d="M24.801,61.592h382.712v7.249H24.801V61.592z M7.682,40.308l3.247-3.246l3.246,3.246l-3.246,3.245L7.682,40.308
	z M418.14,40.308l3.246-3.246l3.247,3.246l-3.247,3.245L418.14,40.308z M3.375,36l3.247-3.247L9.868,36l-3.246,3.247L3.375,36z
	 M11.989,36l3.246-3.247L18.482,36l-3.247,3.247L11.989,36z M413.834,36l3.246-3.247L420.326,36l-3.246,3.247L413.834,36z
	 M422.447,36l3.246-3.247L428.939,36l-3.246,3.247L422.447,36z M7.682,31.692l3.247-3.246l3.246,3.246l-3.246,3.246L7.682,31.692z
	 M418.14,31.692l3.246-3.246l3.247,3.246l-3.247,3.246L418.14,31.692z M11.678,44.925L20.603,36l-8.925-8.925V11.909h408.958v15.167
	L411.712,36l8.925,8.924v15.167H11.678V44.925z M24.801,3.16h382.712v7.249H24.801V3.16z M23.301,1.66v8.749H10.178v16.667L1.255,36
	l8.923,8.924v16.667h13.123v8.749h385.713v-8.749h13.123V44.925L431.06,36l-8.923-8.925V10.409h-13.123V1.66H23.301z"/>
</svg>
