<?xml version="1.0" encoding="utf-8"?>
<!-- Generator: Adobe Illustrator 14.0.0, SVG Export Plug-In . SVG Version: 6.00 Build 43363)  -->
<!DOCTYPE svg PUBLIC "-//W3C//DTD SVG 1.1//EN" "http://www.w3.org/Graphics/SVG/1.1/DTD/svg11.dtd">
<svg version="1.1" id="Layer_1" xmlns="http://www.w3.org/2000/svg" xmlns:xlink="http://www.w3.org/1999/xlink" x="0px" y="0px"
	 width="5.984px" height="19.994px" viewBox="0 0 5.984 19.994" style="enable-background:new 0 0 5.984 19.994;"
	 xml:space="preserve">
<style type="text/css">
<![CDATA[
	.st0{fill:#361313; fill-opacity: 1; stroke-opacity: 1;}
]]>
</style>
<g>
	<path class="st0" d="M5.985,19.618v0.377c-1.193-0.166-2.165-0.65-2.912-1.453c-0.748-0.807-1.121-1.693-1.121-2.666
		c0-0.529,0.081-1.133,0.241-1.809c0.161-0.676,0.242-1.215,0.242-1.613c0-0.5-0.217-0.975-0.652-1.422
		C1.349,10.585,0.754,10.311,0,10.211v-0.44c0.754-0.1,1.349-0.372,1.782-0.815c0.436-0.443,0.652-0.919,0.652-1.427
		c0-0.4-0.081-0.938-0.242-1.614c-0.16-0.676-0.241-1.278-0.241-1.807c0-0.965,0.374-1.852,1.121-2.66
		C3.82,0.64,4.791,0.157,5.985,0v0.375c-0.837,0.2-1.45,0.525-1.84,0.976C3.755,1.801,3.561,2.29,3.561,2.82
		c0,0.443,0.081,1.009,0.242,1.699c0.161,0.689,0.241,1.277,0.241,1.763c0,0.722-0.266,1.422-0.795,2.102
		c-0.53,0.679-1.321,1.204-2.374,1.575c1.03,0.379,1.816,0.917,2.356,1.61c0.541,0.695,0.812,1.402,0.812,2.125
		c0,0.486-0.081,1.076-0.241,1.768c-0.161,0.689-0.242,1.256-0.242,1.701c0,0.521,0.195,1.01,0.584,1.465
		C4.535,19.081,5.149,19.411,5.985,19.618z"/>
</g>
</svg>
