<?xml version="1.0" encoding="utf-8"?>
<!-- Generator: Adobe Illustrator 14.0.0, SVG Export Plug-In . SVG Version: 6.00 Build 43363)  -->
<!DOCTYPE svg PUBLIC "-//W3C//DTD SVG 1.1//EN" "http://www.w3.org/Graphics/SVG/1.1/DTD/svg11.dtd">
<svg version="1.1" id="sword_xA0_Image_1_" xmlns="http://www.w3.org/2000/svg" xmlns:xlink="http://www.w3.org/1999/xlink" x="0px"
	 y="0px" width="293.955px" height="55.218px" viewBox="0 0 293.955 55.218" style="enable-background:new 0 0 293.955 55.218;"
	 xml:space="preserve">
<style type="text/css">
<![CDATA[
	.st0{fill:none;stroke:#361313; fill-opacity: 1; stroke-opacity: 1;stroke-width:0.8387;stroke-linecap:round;}
	.st1{fill:none;stroke:#240101; fill-opacity: 1; stroke-opacity: 1;stroke-width:0.856;stroke-linecap:round;}
	.st2{fill:none;stroke:#482525; fill-opacity: 1; stroke-opacity: 1;stroke-width:0.8396;stroke-linecap:round;}
	.st3{fill:none;stroke:#120000; fill-opacity: 1; stroke-opacity: 1;stroke-width:0.9992;stroke-linecap:round;}
	.st4{fill:none;stroke:#5a3737; fill-opacity: 1; stroke-opacity: 1;stroke-width:0.8336;stroke-linecap:round;}
	.st5{fill:none;stroke:#000000; fill-opacity: 1; stroke-opacity: 1;stroke-width:0.8416;stroke-linecap:round;}
	.st6{fill:none;stroke:#6c4949; fill-opacity: 1; stroke-opacity: 1;stroke-width:0.985;stroke-linecap:round;}
	.st7{fill:none;stroke:#361313; fill-opacity: 1; stroke-opacity: 1;stroke-width:0.5525;stroke-linecap:round;}
	.st8{fill:none;stroke:#240101; fill-opacity: 1; stroke-opacity: 1;stroke-width:0.8729;stroke-linecap:round;}
	.st9{fill:none;stroke:#482525; fill-opacity: 1; stroke-opacity: 1;stroke-width:0.5064;stroke-linecap:round;}
	.st10{fill:none;stroke:#120000; fill-opacity: 1; stroke-opacity: 1;stroke-width:0.5696;stroke-linecap:round;}
	.st11{fill:none;stroke:#5a3737; fill-opacity: 1; stroke-opacity: 1;stroke-width:0.5847;stroke-linecap:round;}
	.st12{fill:none;stroke:#000000; fill-opacity: 1; stroke-opacity: 1;stroke-width:0.6834;stroke-linecap:round;}
	.st13{fill:none;stroke:#6c4949; fill-opacity: 1; stroke-opacity: 1;stroke-width:0.8343;stroke-linecap:round;}
	.st14{fill:none;stroke:#361313; fill-opacity: 1; stroke-opacity: 1;stroke-width:0.8352;stroke-linecap:round;}
	.st15{fill:#240101; fill-opacity: 1; stroke-opacity: 1;}
	.st16{fill:none;stroke:#482525; fill-opacity: 1; stroke-opacity: 1;stroke-width:0.3984;stroke-linecap:round;}
	.st17{fill:none;stroke:#120000; fill-opacity: 1; stroke-opacity: 1;stroke-width:0.5805;stroke-linecap:round;}
	.st18{fill:none;stroke:#5a3737; fill-opacity: 1; stroke-opacity: 1;stroke-width:0.8374;stroke-linecap:round;}
	.st19{fill:none;stroke:#000000; fill-opacity: 1; stroke-opacity: 1;stroke-width:0.3315;stroke-linecap:round;}
	.st20{fill:none;stroke:#6c4949; fill-opacity: 1; stroke-opacity: 1;stroke-width:1.0333;stroke-linecap:round;}
	.st21{fill:none;stroke:#361313; fill-opacity: 1; stroke-opacity: 1;stroke-width:1.1311;stroke-linecap:round;}
	.st22{fill:none;stroke:#240101; fill-opacity: 1; stroke-opacity: 1;stroke-width:0.6537;stroke-linecap:round;}
	.st23{fill:none;stroke:#482525; fill-opacity: 1; stroke-opacity: 1;stroke-width:1.1329;stroke-linecap:round;}
	.st24{fill:none;stroke:#120000; fill-opacity: 1; stroke-opacity: 1;stroke-width:0.7712;stroke-linecap:round;}
	.st25{fill:none;stroke:#5a3737; fill-opacity: 1; stroke-opacity: 1;stroke-width:0.6443;stroke-linecap:round;}
]]>
</style>
<path class="st15" d="M125.594,13.263c-2.182,0.516-4.708-0.855-6.496-1.624c-5.247-0.979-9.511-2.94-14.887-3.79
	c0.21-0.241,0.291-0.611,0.271-1.083c0.219-0.052,0.27-0.271,0.541-0.271c5.576,0.934,10.635,3.101,15.97,4.602
	C122.527,11.529,124.771,11.589,125.594,13.263z"/>
<path class="st15" d="M133.443,8.12c-1.491-0.36-2.341,0.32-2.707-1.083c0.719-0.521,2.517-0.313,2.978,0.271l-0.406,0.316
	L133.443,8.12z"/>
<path class="st15" d="M101.504,15.429c-3.495-0.036-6.673-2.041-10.015-3.248c-3.393-1.226-6.901-2.28-10.015-3.79
	c-0.167-0.241-0.327-0.484,0-0.542c-0.044-0.314,0.06-0.481,0.271-0.542c5.439,1.395,10.757,3.726,15.97,5.685
	C98.997,13.474,101.174,13.77,101.504,15.429z"/>
<path class="st15" d="M112.06,13.534c0.843-0.276,1.932,0.56,1.354,0.812c0.121,1.112-1.415,0.247-1.624,0l0.406-0.315
	L112.06,13.534z"/>
<path class="st15" d="M167.819,14.075c-5.297-1.199-10.264-2.729-15.43-4.06c-0.733-0.194,0.193,1.276-0.541,1.083
	c-1.373,0.11-1.938-0.59-2.438-1.354c-0.251-1.063,0.939-0.683,0.542-1.895c0.181,0,0.358,0,0.541,0
	c0.909-0.188,0.888,0.556,1.354,0.812c2.717-0.154,4.998,1.234,7.31,1.895c3.083,0.881,6.276,1.098,8.932,2.707l-0.405,0.316
	L167.819,14.075z"/>
<path class="st15" d="M131.549,8.391c0.027,0.839-0.331,1.293-0.542,1.895c-0.535-0.187-0.721-0.722-0.812-1.354
	C131.029,9.134,130.716,8.189,131.549,8.391z"/>
<path class="st15" d="M207.608,14.346c-3.2-0.408-5.998-1.219-8.934-1.895c-0.596,0.164-2.018,0.68-2.165-0.271
	c-0.315-1.299,1.854-1.229,2.165-1.083c2.114,0.999,7.34,1.084,9.203,2.436l-0.404,0.316L207.608,14.346z"/>
<path class="st15" d="M226.286,12.451c-0.645,0.449-3.146,0.449-3.79,0c0-0.181,0-0.361,0-0.542c0.323-0.707,2.59-0.357,3.519-0.271
	l-0.135,0.496L226.286,12.451z"/>
<path class="st15" d="M229.397,12.135l-0.135-0.496c5.266-0.118,9.557-0.195,15.156,0.271c-0.559,1.595-2.663,1.048-4.331,1.083
	c-3.557,0.074-8.012-0.102-11.098-0.542L229.397,12.135z"/>
<path class="st15" d="M263.91,22.737c-3.034-1.207-5.779-2.702-8.662-4.06c-0.044-0.315,0.06-0.481,0.271-0.542
	c1.746-0.514,4.66,1.339,6.228,2.166c0.965,0.51,1.923,0.923,2.438,1.624l-0.406,0.316L263.91,22.737z"/>
<path class="st15" d="M264.315,22.421l-0.135-0.496c1.84,0.867,4.221,1.193,5.143,2.978c-2.104,0.613-4.145-1.053-5.413-2.166
	L264.315,22.421z"/>
<path class="st15" d="M33.293,22.466c-0.79,0.398-0.79-1.21,0-0.812C33.293,21.925,33.293,22.195,33.293,22.466z"/>
<path class="st15" d="M16.782,27.338c0.738,0.249-0.378,0.846,0,1.625C16.18,28.848,16.57,27.526,16.782,27.338z"/>
<path class="st15" d="M17.053,32.751c-0.643-1.258-0.618-3.104,0.271-4.062c0.23-0.05,0.255,0.104,0.271,0.271
	c0.067,0.342,0.539,0.272,0.542,0c0.001,0.771,0.794,3.252-0.271,4.062l-0.406-0.136L17.053,32.751z"/>
<path class="st15" d="M128.301,11.098c-4.195-1.038-8.453-2.013-12.181-3.519c1.19-1.964,3.958-0.059,5.955,0.541
	c2.338,0.702,4.842,1.181,6.496,2.166l-0.406,0.316L128.301,11.098z"/>
<path class="st15" d="M263.368,16.782c-5.747-2.463-10.225-6.196-15.157-9.474c-0.204-0.788-0.644-1.342-1.083-1.895
	c-3.031-1.051-5.247-1.775-7.85-2.436c0.224-0.825,0.031-1.378,0.271-1.624c2.491,0.125,6.304-0.061,8.933,1.083
	c0.224,1.435,1.209,1.323,1.625,2.978c2.576,1.212,3.804,3.776,7.037,4.331c1.436,2.938,5.701,1.587,7.037,4.602
	c1.235-0.152,1.688,0.48,2.979,0.271c0.091,1.012,2.739,1.049,1.354,1.895c0.813,0,1.625,0,2.437,0
	c0.81,0.995,2.937,0.674,2.707,2.707c1.821-0.001,4.717,0.979,5.413,2.977c2.486-0.891,1.972,2.479,4.871,1.354
	c-0.028,0.673-0.506,0.838,0,1.354c2.537-0.274,2.141,1.05,4.603,1.083c0.224,0.765-0.381,0.701-0.271,1.354
	c2.213-1.163,1.358,0.758,3.519,1.083c0.401,1.824-1.108,2.685-1.624,4.33c-3.254,0.972-6.23,2.293-9.203,3.52
	c-2.857,1.18-5.908,2.396-8.391,3.789c-1.135,0.637-2.082,1.51-3.248,2.165c-3.21,1.81-6.292,4.185-10.016,5.955
	c0.104,1.233-0.9,1.203-1.354,2.437c-6.021-0.18-13.783-0.838-19.489-0.541c-2.511,0.131-5.935,0.338-8.66-0.271l0.135-0.496
	L229.538,49c0.238-1.082,3.182-0.586,3.52,0c4.521-1.356,8.235-0.832,12.45-0.271c2.371-1.361,5.513,0.189,7.851-0.271
	c1.926-0.379,3.281-2.684,5.144-3.789c1.483-0.881,3.013-1.041,4.603-1.623c0.265-0.91,1.101-1.246,1.625-1.896
	c5.422-2.338,9.764-5.756,15.428-7.851c0.563-0.521,1.313-0.854,1.896-1.354c0.84,0.093,1.293-0.627,1.896,0
	c1.002-0.802,1.914-1.692,3.248-2.165c-4.205-2.743-8.735-5.16-13.533-7.309c0-0.451,0-0.902,0-1.354
	c-3.038-1.112-4.817-3.483-8.662-3.79l0.136-0.406l-0.404-0.136c-0.084-0.367-0.68-0.224-1.084-0.271l-0.404-0.135L263.368,16.782z"
	/>
<path class="st15" d="M229.397,49.49l0.406,0.314c-2.552,0.313-7.193,0.543-10.826,0.542c-0.291,0-1.108,0.03-1.354,0
	c-0.542-0.069-0.679-0.522-1.083-0.542c-6.048-0.268-12.549,0.542-18.678,0.542c-6.049,0-12.197-0.535-18.135-0.542
	c-11.813-0.014-23.711-0.088-34.917,0.271c-0.914,0.027-2.044,0.084-2.978,0c-0.241-0.021-0.845-0.546-1.083-0.541
	c-0.681,0.01-1.505,0.475-2.166,0.541c-2.875,0.289-6.052-0.324-9.203-0.271c-3.903,0.066-7.61,0.293-11.368,0.271
	c-4.122-0.023-8.246-0.535-12.451-0.541c-11.575-0.019-23.722,0.627-33.834,0.541c-0.904,0.002-0.717-1.089-1.354-1.354
	c-1.815,0.396-4.394-0.13-6.767,0c-1.072,0.058-2.019,0.469-2.978,0.271c-2.146-0.445-2.306-2.431-4.06-2.979
	c-0.673-3.166-1.648-6.367-1.624-9.475C50.254,35.341,43.65,36.507,39.248,36l-0.316-0.403l-0.496,0.135
	c0.024-0.926-1.648-0.155-1.624-1.082c-0.178-0.989,0.586-1.039,0.542-1.896c1.438-0.318,2.821,0.435,3.248,0.271
	c-0.358-1.294-1.479-3.269-1.624-4.873c-0.094-1.037,0.511-1.991,0.541-2.977c0.015-0.486-0.489-0.861-0.541-1.354
	c-0.174-1.637,0.86-3.194,0.812-4.872c-2.748-0.763-1.348,2.623-3.79,2.166c-0.348,5.596-0.75,11.604-1.083,18.678
	c0.126,0.576-0.387,0.516-0.812,0.541c1.533,2.026-0.188,5.358,0.812,8.119l-0.406-0.136l-0.135,0.406
	c-0.731,0.491-1.4-0.433-1.624-0.813c-1.672-2.847-0.3-11.65,0-17.595c0.145-2.863-0.485-4.923,0.812-6.767l0.135-0.406
	l-0.406,0.135c0.16-0.977,0.457-1.815,0-2.707c1.178,0.276,1.244-0.56,1.895-0.812c0.02-1.404-1.111-2.347-0.271-3.79
	c0.168-0.289,0.742-0.124,0.812-0.541c-0.04,0.238-0.551-0.306-0.542-0.542c-0.001,0.04,0.53-0.068,0.542-0.271
	c0.041-0.729-0.575-1.786-0.271-2.979c-1.12-0.233-1.98-0.727-3.248-0.812c-2.883,1.329-0.039,5.493-0.812,7.85
	c-0.745,0.509-1.164,1.103-2.166,1.624c-1.692,0.88-4.733,0.511-4.331,2.436c1.911-0.114,1.492,2.545,1.354,4.872
	c-0.178,2.995-0.486,6.463-0.813,10.018c-0.454,4.946-0.484,8.765,1.083,12.992c1.451,0.805,3.973-0.295,5.143,0.27l0.316,0.406
	l0.497-0.137c-0.044,0.313,0.06,0.48,0.271,0.542l-0.135,0.271l0.135,0.271c-0.011,2.635-6.461,1.604-7.579,0.811
	c-3.075-2.182-1.439-10.543-2.436-14.346c-0.181-0.688-0.523-1.871-1.354-1.895c-0.458-5.493,0.47-11.462,0.812-15.699
	c-3.066-1.351-5.743-1.473-9.203-0.812c-2.481,4.021-4.459,11.191-1.624,15.158c2.467,3.453,5.57,1.619,9.474,1.625
	c0.553,1.697-3.07,1.396-3.79,2.707c-4.232,0.291-8.48,0.646-11.639-1.354c-1.462-0.928-3.584-3.29-4.06-4.872
	c-1.118-3.716,0.58-8.198,0.541-12.722c0.669-0.768,0.977-1.652,1.624-2.978c1.484-0.257,3.423-0.362,4.331,1.083
	c-0.833,1.064-2.276,0.823-2.978,1.624c-1.528,1.747-1.433,7.801-1.624,12.182c1.204,2.313,3.19,3.848,6.496,4.061
	C8.32,33.125,7.265,30.208,8.12,25.444c0.501-2.791,2.268-5.02,1.624-6.767l0.406-0.135l-0.135-0.406
	c2.047-1.561,5.682-0.569,9.203-0.271c3.662,0.311,6.448-0.304,9.203,0c0.351-1.926-0.671-6.295,1.083-9.203
	c5.288-0.896,10.616,1.482,9.474,7.038c3.632,1.058,7.4,0.069,12.18,0.271c1.696-1.011,2.015-3.399,2.707-5.414
	c0.346-0.375,1.278-0.166,1.624-0.541c-0.047-4.494,4.022-3.523,6.496-5.143c0.483,0.329,1.575,0.049,1.895,0.542
	c1.738-0.968,3.129-2.284,5.143-2.978c0.876-0.334,0.207,0.876,1.083,0.542c4.395-1.653,11.187-0.797,15.158,0l-0.406,0.316
	l0.136,0.496C80.349,3.958,76.179,4.471,72,4.331c-1.401,1.513-3.114,2.07-4.602,3.248c-2.971,2.352-5.807,5.191-7.85,8.391
	c-0.692,1.084-0.961,2.501-1.895,3.519c-0.931,1.015-2.38,1.448-3.248,2.436c-0.765,0.224-0.702-0.381-1.354-0.271
	c-0.776,3.188,0.307,8.079,1.895,11.639c1.243,0.002,2.251-0.994,2.978,0c0.701-0.938,0.072-2.254,1.354-2.978
	c1.74,0.17,1.974,2.259,1.353,2.707c1.388,3.235,2.255,6.662,4.331,9.202c0.57,0.697,1.734,0.955,1.624,2.166
	c1.764,0.854,3.356,1.876,4.872,2.979c1.37,0.235,1.603,0.161,2.707-0.271c1.157,0.741,2.883,0.743,4.331,0.813
	c3.295,0.151,7.092,0.196,10.286,0c2.158-0.136,3.922-0.951,5.955,0c0.144,0.065,0.667,0.813,0.542,0.813
	c1.008,0.021-0.186-0.446,0.541-0.813c0.279-0.142,1.558-0.236,1.895-0.271c2.222-0.235,4.651,0.287,5.684,0.541
	c4.166-0.756,9.969,0.005,15.429,0c1.844-0.001,3.98-0.951,5.414,0.271c1.349-1.25,4.952-0.191,6.767,0
	c1.475,0.154,3.359-0.554,5.143-0.541c1.366,0.008,2.785,0.592,3.79,0.541c2.246-0.113,5.724-0.82,8.932-0.541
	c0.302,0.024,0.178,0.535,0.541,0.541c0.992,0.012,2.348,0.086,3.249,0c0.604-0.059,1.073-0.541,1.624-0.541
	c0.766,0,1.352,0.475,2.165,0.541c3.333,0.27,7.123-0.386,10.557-0.271c4.149,0.137,8.384,0.686,12.451,0.542
	c0.82-0.029,1.646-0.519,2.437-0.542c0.666-0.02,0.699,0.529,0.813,0.542c0.362,0.036,0.771-0.521,1.082-0.542
	c0.563-0.036,0.586,0.511,0.813,0.542c2.306,0.31,6.217-0.606,8.392-0.542c0.719,0.021,1.448,0.548,2.166,0.542
	c0.944-0.009,1.752-0.552,2.706-0.542c0.652,0.007,0.929,0.465,1.624,0.542c0.84,0.093,2.29-0.239,3.521-0.271
	c1.963-0.052,3.576-0.293,5.412-0.271c0.633,0.008,0.975,0.467,1.624,0.542c3.642,0.416,7.88-1.515,11.64,0
	c1.899-0.505,5.363-1.04,7.31,0.271c0.183,0,0.36,0,0.542,0L229.397,49.49z M58.737,10.556c1.234-0.479,1.561-1.868,2.707-2.436
	C59.954,8.345,59.655,9.761,58.737,10.556z M42.496,18.947c-0.995,4.64-3.453,15.947,4.602,14.076
	c-2.187-3.883-1.989-9.056-1.624-13.805C44.715,18.894,43.606,18.92,42.496,18.947z M48.451,18.947
	c-1.497,5.149-2.362,14.512,3.79,14.346c-1.389-4.748-2.028-8.375-1.895-14.346C49.714,18.947,49.083,18.947,48.451,18.947z
	 M60.361,46.015c1.534,0,3.068,0,4.602,0c-0.368-1.038-1.211-1.896-1.895-2.707c-1.762-2.09-2.971-4.344-4.331-6.768
	C58.142,39.946,59.135,43.583,60.361,46.015z"/>
<path class="st15" d="M34.782,49.399l0.406-0.136c0,0.09,0,0.181,0,0.271c1.581-0.494,1.712-2.438,2.978-3.248
	c-0.566-2.104-0.112-4.529,0-5.687c2.066,0.336,1.116,3.513,1.895,5.687c-0.648,0.705-0.845,1.86-1.083,2.978
	c-1.838,0.78-3.58,3.094-5.414,2.978l0.271-0.271l-0.271-0.271c0.076-0.438-0.256-0.469-0.271-0.813l0.406-0.315l-0.135-0.496
	c0.314,0.045,0.481-0.061,0.542-0.271c-0.834-0.271,0.301-0.729,0.541-0.813L34.782,49.399z"/>
<path class="st15" d="M105.97,3.022l-0.406-0.316c1.732-0.619,8.744-0.934,11.91-0.541c0.395,0.049,0.899-0.163,1.083,0.541
	l-0.406,0.316l0.135,0.497c-3.875,0.167-8.635,0.521-12.451,0L105.97,3.022z"/>
<path class="st15" d="M119.233,3.113l-0.135-0.406c0.075-1.277,1.378,0.011,1.624,0.271l0.135,0.271l0.136,0.271
	c-0.361,0.386-1.534,0.386-1.895,0L119.233,3.113z"/>
<path class="st15" d="M121.669,3.113l-0.406-0.135c0.081-0.731,1.139-0.485,1.354-1.083c3.16,0.858,6.562-0.413,8.932,0.542
	c2.332-0.578,4.802-0.702,7.579-0.542c0.409,0.024,0.75,0.543,0.812,0.542c0.72-0.015,1.027-0.613,1.624-0.542
	c0.65,0.078,1.674,0.61,3.248,0.542c0.896-0.039,2.091-0.522,2.436-0.542c0.556-0.031,0.86,0.54,0.813,0.542
	c0.809-0.037,1.729-0.997,3.248-0.542c0.137,0.042,0.559,0.542,0.541,0.542c0.482,0.01,2.426-1.473,2.707,0l-0.406,0.316
	l0.136,0.496c-2.081,0.363-6.64,0.492-9.474,0.542c-7.753,0.136-14.378-0.208-23.278-0.271L121.669,3.113z"/>
<path class="st15" d="M154.962,2.932l-0.135-0.496c0.99-0.869,4.111,0.245,5.955,0.271l-0.406,0.316l0.137,0.497
	c-1.896-0.178-4.51,0.357-5.955-0.271L154.962,2.932z"/>
<path class="st15" d="M176.347,3.022l-0.406-0.316c4.082-0.454,7.725-0.853,11.641-0.812c2.1,0.022,4.447-0.592,6.768-0.271
	c0.521,0.072,0.863-0.069,0.813,0.542c2.605-1.271,6.549,0.705,10.015,0c4.11-0.835,9.755-0.174,14.616-0.271
	c1.473-0.029,2.843-0.566,4.331-0.541c0.646,0.011,1.244,0.496,1.896,0.541c3.611,0.251,6.894-0.383,11.91-0.271
	c-0.631,1.062,0.33,1.006,0.271,2.166c-2.11,0.049-4.354,0.212-6.496,0c-1.351-0.134-1.927-0.447-2.979-0.271
	c-2.789,0.467-6.326,0.062-10.015,0c-3.174-0.054-7.19,1.02-9.745-0.271c-0.963,0.625-2.193,0.559-3.248,0.542
	c-3.931-0.067-7.857-0.232-12.18,0c-2.611,0.14-5.521-0.478-8.393-0.271c-2.313,0.167-5.733-0.054-8.933,0L176.347,3.022z"/>
<g>
	<path class="st20" d="M133.308,7.624c6.251,1.74,12.509,3.27,18.677,5.098"/>
	<path class="st23" d="M95.414,8.12c5.589,1.844,11.271,3.872,16.782,5.91"/>
	<path class="st18" d="M167.685,13.579c0.36,0.081,0.724,0.078,1.082,0.09"/>
	<path class="st2" d="M167.413,10.06c5.751,1.065,11.365,2.937,17.053,4.15"/>
	<path class="st21" d="M207.474,13.85c1.536,0.22,3.11,1.025,4.604,0.902"/>
	<path class="st14" d="M225.88,12.135c1.155-0.138,2.364-0.152,3.52,0"/>
	<path class="st1" d="M263.774,22.241c0.181,0.06,0.359,0.12,0.541,0.18"/>
	<path class="st24" d="M18.812,35.865c-0.941-0.605-0.975-1.975-1.354-2.978"/>
	<path class="st8" d="M128.166,10.602c0.551,0.273,0.885,0.326,1.353,0.451"/>
	<path class="st19" d="M129.519,11.053c0-0.21,0-0.421,0-0.632"/>
	<path class="st3" d="M129.519,11.053c2.576,0.504,5.037,1.441,7.579,2.075"/>
	<path class="st1" d="M229.938,49.308c-0.181,0.061-0.359,0.12-0.541,0.182"/>
	<path class="st0" d="M38.842,36.406c-0.005-0.271,0.041-0.541,0.09-0.813"/>
	<path class="st11" d="M10.15,18.542c-0.181-0.074-0.361-0.106-0.542-0.135"/>
	<path class="st16" d="M87.293,3.293c0.142-0.302,0.279-0.625,0.333-0.846C87.14,2.154,86.489,2.368,85.939,2.3"/>
	<path class="st22" d="M87.293,3.293c1.422-0.181,3.014,0.203,4.331-0.181"/>
	<path class="st25" d="M91.624,3.113c0.074-0.181,0.106-0.361,0.135-0.542"/>
	<path class="st4" d="M91.624,3.113c4.716,0.575,9.573-0.079,14.346-0.09"/>
	<path class="st17" d="M120.857,3.248c0.271,0.008,0.542-0.062,0.812-0.135"/>
	<path class="st5" d="M154.149,2.752c0.271,0.058,0.541,0.11,0.813,0.18"/>
	<path class="st6" d="M160.376,3.022c5.296-0.092,10.648-0.078,15.971,0"/>
	<path class="st13" d="M119.233,3.113c-0.361,0.014-0.722-0.015-1.083-0.09"/>
	<path class="st12" d="M87.293,3.293c-0.833-0.152-1.631,0.467-2.437,0"/>
	<path class="st13" d="M31.985,51.292c0.15-0.285,0.314-0.5,0.454-0.696c0.352-0.132,0.819-0.115,1.261-0.024"/>
	<path class="st7" d="M34.782,49.399c0.217-0.454-0.06-0.806-0.271-1.083"/>
	<path class="st19" d="M33.158,23.414c0.181-0.032,0.361-0.149,0.542-0.271"/>
	<path class="st9" d="M263.233,16.376c0.297,0.757,1.24,0.816,1.895,0.542"/>
	<path class="st10" d="M32.617,51.97c0.339,0,0.745,0,1.218,0"/>
</g>
</svg>
