<?xml version="1.0" encoding="utf-8"?>
<!-- Generator: Adobe Illustrator 14.0.0, SVG Export Plug-In . SVG Version: 6.00 Build 43363)  -->
<!DOCTYPE svg PUBLIC "-//W3C//DTD SVG 1.1//EN" "http://www.w3.org/Graphics/SVG/1.1/DTD/svg11.dtd">
<svg version="1.1" id="ornament" xmlns="http://www.w3.org/2000/svg" xmlns:xlink="http://www.w3.org/1999/xlink" x="0px" y="0px"
	 width="18px" height="9.436px" viewBox="0 0 18 9.436" style="enable-background:new 0 0 18 9.436;" xml:space="preserve">
<style type="text/css">
<![CDATA[
	.st0{fill:#361313; fill-opacity: 1; stroke-opacity: 1;fill-rule:evenodd;clip-rule:evenodd;}
]]>
</style>
<g>
	<path class="st0" d="M6.799,0.551C6.189,1.106,6.051,2.538,6.51,3.177C6.7,3.441,6.871,3.728,7.108,3.954
		c0.246,0.235,0.571,0.306,0.828,0.518c-0.097,0.161-0.141,0.356,0,0.508c-0.098-0.113-1.12,0.734-1.218,0.868
		c-0.63,0.871-0.697,2.027-0.023,2.888c0.433,0.553,1.145,0.775,1.821,0.678c0.523-0.075,1.052-0.4,1.371-0.818
		c0.399-0.523,0.225-1.305-0.032-1.863c-0.239-0.52-1.019-0.808-1.563-0.584C8.09,6.23,7.767,6.638,7.65,6.825
		c-0.067,0.106-0.078,0.34-0.078,0.463c0.001,0.359,0.332,0.854,0.72,0.891c0.741,0.07,1.045-0.9,0.355-1.371
		C9.004,6.593,9.366,6.802,9.51,7.112c0.071,0.154,0.13,0.551,0.102,0.712c-0.08,0.455-0.928,1.104-1.777,0.862
		c-0.45-0.128-0.97-0.621-1.066-1.117c-0.09-0.462-0.023-0.932,0.276-1.296c0.179-0.219,0.389-0.401,0.612-0.571
		c0.159-0.121,0.44-0.421,0.635-0.469c1.284-0.312,5.215-0.273,5.337-0.272c0.685,0.008,1.479,0.004,2.077,0.069
		c0.613,0.068,0.715,0.788,1.371,0.762c0.477-0.019,0.687-0.448,0.914-0.66c0.034-0.358-0.025-0.91-0.324-1.167
		c-0.203-0.175-0.591-0.221-0.843-0.157c-0.282,0.071-0.587,0.611-0.813,0.613c-2.106,0.02-4.235,0.055-6.196,0
		C9.689,4.417,9.508,4.403,9.357,4.37C8.875,4.264,8.394,4.115,7.954,3.888C7.498,3.652,7.335,3.409,7.03,3.021
		C6.246,2.025,7.395,0.274,8.647,0.663c0.485,0.151,1.028,0.85,0.964,1.371C9.582,2.276,9.333,2.537,9.122,2.64
		c-0.111,0.054-0.537,0.02-0.576,0.105C8.707,2.396,9.014,2.4,9.002,1.983C8.995,1.73,8.609,1.286,8.342,1.272
		C8.096,1.26,7.926,1.397,7.786,1.583C7.433,2.046,7.483,2.247,7.784,2.745c0.215,0.356,0.537,0.716,1.168,0.66
		c0.51-0.045,0.928-0.551,1.168-0.914c0.232-0.354,0.015-1.13-0.157-1.466C9.641,0.396,8.958-0.041,8.241,0.003
		C7.814,0.029,7.179,0.24,6.842,0.514C6.828,0.526,6.813,0.538,6.799,0.551z"/>
	<path class="st0" d="M0.066,4.458c-0.019,0.03-0.034,0.064-0.045,0.103c-0.115,0.416,0.263,0.549,0.583,0.61
		c0.424,0.083,0.859,0.095,1.275,0.216c0.404,0.117,0.791,0.3,1.182,0.456C3.129,5.87,3.445,5.684,3.525,5.65
		c0.267-0.109,0.532-0.219,0.803-0.317c0.443-0.162,0.9-0.298,1.37-0.353C6.091,4.936,6.58,5.018,6.92,4.776
		C7.03,4.699,6.513,4.458,6.447,4.441C6.01,4.338,5.294,4.264,4.848,4.167C4.18,4.023,3.884,3.803,3.311,3.458
		C2.514,3.852,1.77,4.059,0.898,4.208C0.627,4.253,0.221,4.208,0.066,4.458z"/>
</g>
</svg>
