<?xml version="1.0" encoding="utf-8"?>
<!-- Generator: Adobe Illustrator 14.0.0, SVG Export Plug-In . SVG Version: 6.00 Build 43363)  -->
<!DOCTYPE svg PUBLIC "-//W3C//DTD SVG 1.1//EN" "http://www.w3.org/Graphics/SVG/1.1/DTD/svg11.dtd">
<svg version="1.1" id="Layer_1" xmlns="http://www.w3.org/2000/svg" xmlns:xlink="http://www.w3.org/1999/xlink" x="0px" y="0px"
	 width="432px" height="72px" viewBox="0 0 432 72" style="enable-background:new 0 0 432 72;" xml:space="preserve">
<style type="text/css">
<![CDATA[
	.st0{clip-path:url(#SVGID_2_);fill:#361313; fill-opacity: 1; stroke-opacity: 1;}
]]>
</style>
<g>
	<defs>
		<rect id="SVGID_1_" width="432" height="72"/>
	</defs>
	<clipPath id="SVGID_2_">
		<use xlink:href="#SVGID_1_"  style="overflow:visible;"/>
	</clipPath>
	<path class="st0" d="M420.151,23.946v-8.423v-2h-2h-6.11V4.576v-2h-2H21.959h-2v2v8.947h-6.11h-2v2v8.423
		C6.165,25.073,1.948,30.044,1.948,36c0,5.956,4.217,10.927,9.901,12.053v8.423v2h2h6.11v8.947v2h2h388.082h2v-2v-8.947h6.11h2v-2
		v-8.423c5.684-1.126,9.899-6.098,9.899-12.053C430.051,30.044,425.835,25.073,420.151,23.946 M418.151,46.283v10.193h-8.11v10.947
		H21.959V56.477h-8.11V46.283C8.369,46.054,3.948,41.533,3.948,36c0-5.534,4.421-10.053,9.901-10.283V15.523h8.11V4.576h388.082
		v10.947h8.11v10.194c5.479,0.23,9.899,4.749,9.899,10.283C428.051,41.533,423.63,46.054,418.151,46.283"/>
	<path class="st0" d="M417.994,29.492l-3.622-0.152V19.305h-8.11V8.356H25.739v10.949h-8.11V29.34l-3.622,0.152
		c-3.462,0.145-6.279,3.063-6.279,6.506c0,3.445,2.817,6.365,6.279,6.51l3.622,0.151v10.036h8.11v10.949h380.522V52.695h8.11V42.659
		l3.622-0.151c3.462-0.145,6.278-3.064,6.278-6.51C424.272,32.555,421.456,29.637,417.994,29.492 M417.928,40.922l-5.144,0.214
		v9.973h-8.109v10.948H27.327V51.108h-8.11v-9.973l-5.143-0.214c-2.624-0.108-4.758-2.318-4.758-4.924
		c0-2.603,2.134-4.81,4.758-4.92l5.143-0.215v-9.97h8.11V9.943h377.348v10.95h8.109v9.97l5.144,0.215
		c2.623,0.111,4.756,2.317,4.756,4.92C422.684,38.604,420.551,40.812,417.928,40.922"/>
</g>
</svg>
