<?xml version="1.0" encoding="utf-8"?>
<!-- Generator: Adobe Illustrator 14.0.0, SVG Export Plug-In . SVG Version: 6.00 Build 43363)  -->
<!DOCTYPE svg PUBLIC "-//W3C//DTD SVG 1.1//EN" "http://www.w3.org/Graphics/SVG/1.1/DTD/svg11.dtd">
<svg version="1.1" id="Layer_1" xmlns="http://www.w3.org/2000/svg" xmlns:xlink="http://www.w3.org/1999/xlink" x="0px" y="0px"
	 width="780px" height="402px" viewBox="0 0 780 402" style="enable-background:new 0 0 780 402;" xml:space="preserve">
<style type="text/css">
<![CDATA[
	.st0{fill:none;stroke:#361313; fill-opacity: 1; stroke-opacity: 1;stroke-width:15;}
	.st1{fill:none;stroke:#240101; fill-opacity: 1; stroke-opacity: 1;stroke-width:3.5311;}
	.st2{fill:#482525; fill-opacity: 1; stroke-opacity: 1;}
]]>
</style>
<title>the-diner-logo</title>
<path id="Fill-1-Copy" class="st2" d="M353.884,65.255L43.308,14.407C24.808,11.378,8,25.642,8,44.373v319.254
	c0,18.73,16.808,32.995,35.308,29.966l310.576-50.848c23.918-3.916,48.314-3.916,72.231,0l310.577,50.848
	C755.193,396.622,772,382.357,772,363.627V44.373c0-18.731-16.807-32.995-35.308-29.966L426.115,65.255
	C402.198,69.17,377.802,69.17,353.884,65.255"/>
<path id="Fill-1-Copy-2" class="st0" d="M353.884,65.255L43.308,14.407C24.808,11.378,8,25.642,8,44.373v319.254
	c0,18.73,16.808,32.995,35.308,29.966l310.576-50.848c23.918-3.916,48.314-3.916,72.231,0l310.577,50.848
	C755.193,396.622,772,382.357,772,363.627V44.373c0-18.731-16.807-32.995-35.308-29.966L426.115,65.255
	C402.198,69.17,377.802,69.17,353.884,65.255"/>
<path id="Stroke-1-Copy" class="st1" d="M737.307,4.5c-1.379-1.171-4.313-3.037-8.476-2.354L428.485,51.362
	c-25.205,4.13-50.767,4.13-75.971,0L52.168,2.146c-4.162-0.682-7.096,1.182-8.475,2.354S40,8.267,40,12.483v340.035
	c0,4.217,2.314,6.812,3.693,7.982c1.379,1.172,4.315,3.035,8.475,2.354l300.347-49.216c12.602-2.063,25.294-3.098,37.985-3.098
	c12.691,0,25.383,1.033,37.985,3.098l300.347,49.216c4.162,0.686,7.096-1.182,8.475-2.354s3.693-3.767,3.693-7.982V12.483
	C741,8.267,738.686,5.672,737.307,4.5z"/>
</svg>
