<?xml version="1.0" encoding="utf-8"?>
<!-- Generator: Adobe Illustrator 14.0.0, SVG Export Plug-In . SVG Version: 6.00 Build 43363)  -->
<!DOCTYPE svg PUBLIC "-//W3C//DTD SVG 1.1//EN" "http://www.w3.org/Graphics/SVG/1.1/DTD/svg11.dtd">
<svg version="1.1" id="Layer_1" xmlns="http://www.w3.org/2000/svg" xmlns:xlink="http://www.w3.org/1999/xlink" x="0px" y="0px"
	 width="162.121px" height="33.083px" viewBox="0 0 162.121 33.083" style="enable-background:new 0 0 162.121 33.083;"
	 xml:space="preserve">
<style type="text/css">
<![CDATA[
	.st0{fill:#361313; fill-opacity: 1; stroke-opacity: 1;}
]]>
</style>
<path class="st0" d="M162.121,16.541l-0.367,0.074c0-0.025,0.009-0.049,0.009-0.074c0-0.025-0.009-0.049-0.009-0.073L162.121,16.541
	c0.007-2.949-0.349-4.522-1.887-6.961c-0.768-1.216-2.695-4.069-2.587-5.68c0.114-1.732,3.279-2.103,1.807-3.071
	c-2.466-1.621-5.999,0.513-8.449,1.095c-3.15,0.749-6.264,0.015-9.448-0.032c-3.389-0.049-6.774-0.162-10.158-0.307
	c-16.315-0.703-32.601-1.416-48.93-1.559L82.604,0c-0.516,0.002-1.028,0.01-1.543,0.014C80.546,0.01,80.032,0.002,79.518,0
	l0.134,0.026C63.323,0.169,47.038,0.882,30.723,1.585c-3.384,0.145-6.77,0.258-10.159,0.307c-3.184,0.047-6.297,0.781-9.448,0.032
	c-2.45-0.582-5.983-2.716-8.449-1.095C1.194,1.797,4.359,2.168,4.474,3.9c0.108,1.611-1.82,4.464-2.587,5.68
	C0.349,12.019-0.007,13.592,0,16.541c-0.007,2.949,0.349,4.522,1.887,6.961c0.767,1.216,2.695,4.07,2.587,5.681
	c-0.115,1.732-3.28,2.103-1.807,3.071c2.466,1.62,5.999-0.513,8.449-1.096c3.151-0.749,6.264-0.016,9.448,0.031
	c3.389,0.051,6.775,0.162,10.159,0.309c16.315,0.702,32.6,1.415,48.929,1.558l-0.134,0.027c0.514-0.003,1.028-0.011,1.542-0.015
	c0.515,0.004,1.028,0.012,1.543,0.015l-0.135-0.027c16.329-0.143,32.614-0.855,48.93-1.558c3.384-0.146,6.77-0.258,10.158-0.309
	c3.185-0.047,6.298-0.78,9.448-0.031c2.45,0.583,5.983,2.716,8.449,1.096c1.473-0.969-1.692-1.339-1.807-3.071
	c-0.108-1.61,1.819-4.465,2.587-5.681C161.772,21.063,162.128,19.49,162.121,16.541 M81.06,0.308l0.005,0.001h-0.009L81.06,0.308z
	 M81.056,32.772h0.009l-0.005,0.001L81.056,32.772z"/>
</svg>
