<?xml version="1.0" encoding="utf-8"?>
<!-- Generator: Adobe Illustrator 14.0.0, SVG Export Plug-In . SVG Version: 6.00 Build 43363)  -->
<!DOCTYPE svg PUBLIC "-//W3C//DTD SVG 1.1//EN" "http://www.w3.org/Graphics/SVG/1.1/DTD/svg11.dtd">
<svg version="1.1" id="Layer_1" xmlns="http://www.w3.org/2000/svg" xmlns:xlink="http://www.w3.org/1999/xlink" x="0px" y="0px"
	 width="18.596px" height="16.586px" viewBox="0 0 18.596 16.586" style="enable-background:new 0 0 18.596 16.586;"
	 xml:space="preserve">
<style type="text/css">
<![CDATA[
	.st0{fill:#361313; fill-opacity: 1; stroke-opacity: 1}
]]>
</style>
<path class="st0" d="M10.042,0.436c0.215-0.133,0.4-0.234,0.557-0.305s0.363-0.113,0.621-0.129c0.234-0.023,0.553,0.104,0.955,0.381
	s0.764,0.623,1.084,1.037s0.5,0.824,0.539,1.23c0.078,0.586,0.143,0.979,0.193,1.178s0.131,0.295,0.24,0.287
	c0.086,0,0.281-0.156,0.586-0.469c0.172-0.164,0.342-0.375,0.51-0.633c0.168-0.258,0.311-0.387,0.428-0.387
	c0.148-0.016,0.412,0.08,0.791,0.287s0.701,0.495,0.966,0.862c0.281,0.352,0.52,0.805,0.715,1.359
	c0.195,0.555,0.309,1.11,0.34,1.665c0.055,0.687,0.031,1.405-0.07,2.155s-0.256,1.515-0.463,2.292
	c-0.207,0.777-0.408,1.513-0.604,2.208c-0.195,0.695-0.332,1.281-0.41,1.758c0,0.039-0.002,0.1-0.006,0.182
	s-0.021,0.137-0.053,0.164S16.88,15.6,16.81,15.6c-0.078-0.047-0.191-0.131-0.34-0.252s-0.277-0.268-0.387-0.439
	c-0.07-0.117-0.137-0.246-0.199-0.387s-0.127-0.309-0.193-0.504s-0.158-0.469-0.275-0.82c-0.102,0.039-0.172,0.082-0.211,0.128
	c-0.039,0.047-0.113,0.164-0.223,0.352c-0.016,0.023-0.066,0.039-0.152,0.047c-0.141,0.016-0.316-0.07-0.527-0.258
	c-0.055,0.031-0.096,0.063-0.123,0.094s-0.049,0.063-0.064,0.094s-0.035,0.066-0.059,0.105c-0.016,0.039-0.148,0.139-0.398,0.299
	s-0.438,0.244-0.563,0.252c-0.109,0.008-0.27-0.063-0.48-0.211c-0.188,0.172-0.33,0.295-0.428,0.369s-0.225,0.115-0.381,0.123
	c-0.125,0.008-0.25-0.012-0.375-0.059s-0.176-0.074-0.152-0.082c-0.023,0.008-0.133,0.133-0.328,0.375s-0.381,0.453-0.557,0.633
	s-0.334,0.273-0.475,0.281c-0.289,0.023-0.574-0.281-0.855-0.914c-0.031,0.047-0.094,0.123-0.188,0.229s-0.156,0.158-0.188,0.158
	c-0.039,0-0.207-0.121-0.504-0.363s-0.469-0.391-0.516-0.445c-0.078-0.133-0.164-0.236-0.258-0.311s-0.197-0.131-0.311-0.17
	s-0.236-0.082-0.369-0.129c-0.039,0.078-0.063,0.141-0.07,0.188s-0.027,0.088-0.059,0.123s-0.074,0.057-0.129,0.064
	c-0.086,0-0.184-0.027-0.293-0.082s-0.211-0.125-0.305-0.211s-0.217-0.197-0.369-0.334s-0.299-0.275-0.439-0.416
	c-0.047,0.094-0.096,0.197-0.146,0.31s-0.088,0.188-0.111,0.223s-0.055,0.053-0.094,0.053c-0.055,0-0.154-0.031-0.299-0.094
	s-0.268-0.141-0.369-0.234c-0.078,0.18-0.188,0.602-0.328,1.266s-0.26,1.152-0.357,1.465c-0.098,0.313-0.229,0.469-0.393,0.469
	c-0.086,0.008-0.16-0.051-0.223-0.176s-0.203-0.461-0.422-1.008s-0.438-1.039-0.656-1.477c-0.992-2.156-1.543-4-1.652-5.531
	c-0.063-0.952,0.051-1.804,0.34-2.554c0.289-0.75,0.652-1.344,1.09-1.782s0.824-0.664,1.16-0.68C2.833,3.354,3.034,3.392,3.21,3.489
	s0.348,0.256,0.516,0.475S4.06,4.468,4.224,4.819c0.039,0.063,0.098,0.094,0.176,0.094c0.063-0.008,0.143-0.068,0.24-0.182
	s0.15-0.197,0.158-0.252C4.853,4.175,4.864,3.87,4.833,3.565c-0.016-0.391,0.121-0.758,0.41-1.102S5.79,1.913,6.017,1.842
	c0.109-0.039,0.168-0.07,0.176-0.094C6.45,1.303,6.745,0.965,7.077,0.735s0.654-0.354,0.967-0.369
	c0.242-0.023,0.539,0.018,0.891,0.123s0.574,0.154,0.668,0.146C9.681,0.635,9.827,0.569,10.042,0.436z M3.257,11.862
	c-0.121-0.273-0.205-0.621-0.252-1.042c-0.023-0.18-0.074-0.363-0.152-0.551c-0.078-0.188-0.221-0.474-0.428-0.856
	s-0.4-0.766-0.58-1.148C1.423,8.061,1.169,7.956,1.083,7.948c-0.102,0.008-0.182,0.132-0.24,0.375s-0.08,0.504-0.064,0.785
	c0.047,0.523,0.172,1.079,0.375,1.665s0.451,1.16,0.744,1.722s0.557,1.005,0.791,1.33s0.375,0.49,0.422,0.498
	c0.055-0.008,0.105-0.074,0.152-0.199s0.086-0.254,0.117-0.387c0.039-0.266,0.074-0.457,0.105-0.574s0.121-0.266,0.27-0.445
	C3.544,12.421,3.378,12.136,3.257,11.862z M17.255,4.86c-0.273-0.512-0.527-0.764-0.762-0.756c-0.289,0.023-0.406,0.391-0.352,1.102
	c0,0.109,0.006,0.206,0.018,0.288s0.025,0.17,0.041,0.264c0.008,0.164-0.031,0.25-0.117,0.258c-0.133,0-0.293-0.238-0.48-0.715
	c-0.086-0.203-0.191-0.385-0.316-0.545s-0.234-0.236-0.328-0.229c-0.047,0.008-0.098,0.045-0.152,0.111s-0.078,0.131-0.07,0.193
	c0,0.047,0.055,0.264,0.164,0.651c0.109,0.387,0.176,0.717,0.199,0.99c0.031,0.523-0.105,0.973-0.41,1.347s-0.629,0.578-0.973,0.609
	c-0.156,0.008-0.33-0.018-0.521-0.076s-0.307-0.084-0.346-0.076c-0.094,0.008-0.27,0.141-0.527,0.398s-0.492,0.467-0.703,0.627
	S11.138,9.6,10.81,9.717c-0.156,0.055-0.373,0.146-0.65,0.276c-0.277,0.129-0.482,0.198-0.615,0.206
	c-0.18,0.016-0.445-0.064-0.797-0.241S8.034,9.547,7.663,9.254S6.997,8.67,6.778,8.381C6.763,8.366,6.743,8.342,6.72,8.311
	s-0.057-0.07-0.1-0.117S6.536,8.118,6.497,8.106S6.419,8.088,6.38,8.088c-0.016,0-0.059,0.012-0.129,0.035S6.108,8.167,6.034,8.182
	S5.876,8.213,5.782,8.229c-0.031,0-0.076-0.02-0.135-0.059S5.483,8.067,5.331,7.978C5.179,7.888,5.028,7.804,4.88,7.726
	C4.622,7.593,4.444,7.402,4.347,7.152S4.188,6.542,4.165,6.074C4.149,5.972,4.144,5.896,4.147,5.845S4.153,5.75,4.153,5.71
	C4.146,5.585,3.925,5.375,3.491,5.077C3.058,4.78,2.665,4.647,2.313,4.679C2.024,4.702,1.753,4.927,1.499,5.353
	C1.245,5.779,1.126,6.16,1.142,6.496c0.023,0.242,0.1,0.475,0.229,0.697s0.264,0.326,0.404,0.31c0.07-0.008,0.158-0.091,0.264-0.251
	s0.186-0.342,0.24-0.545c0.133-0.5,0.277-0.758,0.434-0.773c0.125-0.016,0.195,0.055,0.211,0.211c0,0.094-0.033,0.227-0.1,0.398
	S2.681,6.904,2.595,7.111S2.438,7.517,2.384,7.708s-0.078,0.357-0.07,0.498c0,0.07,0.039,0.145,0.117,0.223s0.152,0.109,0.223,0.094
	c0.102,0,0.191-0.082,0.27-0.246c0.234-0.437,0.402-0.738,0.504-0.901c0.102-0.164,0.207-0.25,0.316-0.258
	c0.125-0.008,0.191,0.066,0.199,0.223c0,0.164-0.059,0.349-0.176,0.556c-0.117,0.207-0.283,0.47-0.498,0.791S2.95,9.202,2.958,9.272
	c0.008,0.109,0.057,0.193,0.146,0.252S3.29,9.612,3.392,9.612C3.47,9.596,3.63,9.491,3.872,9.295s0.395-0.297,0.457-0.305
	C4.368,8.983,4.417,8.993,4.476,9.02s0.088,0.064,0.088,0.111c0.023,0.07,0.051,0.105,0.082,0.105
	C4.856,9.299,5.024,9.444,5.149,9.67c0.039,0.07,0.082,0.115,0.129,0.135s0.096,0.025,0.146,0.018S5.521,9.807,5.56,9.799
	c0.25-0.016,0.424-0.012,0.521,0.012s0.15,0.082,0.158,0.176c0,0.102-0.051,0.293-0.152,0.575s-0.156,0.488-0.164,0.621
	c0.008,0.063,0.043,0.115,0.105,0.158s0.125,0.057,0.188,0.041c0.047,0,0.082-0.012,0.105-0.035
	c0.078-0.078,0.156-0.164,0.234-0.258s0.141-0.145,0.188-0.152c0.055-0.008,0.09,0.008,0.105,0.047
	c0.148,0.234,0.289,0.348,0.422,0.34c0.078-0.008,0.188-0.078,0.328-0.211c0.125-0.133,0.227-0.199,0.305-0.199
	c0.141,0,0.254,0.086,0.34,0.258c0.102,0.281,0.188,0.48,0.258,0.597c0.07,0.117,0.152,0.168,0.246,0.152
	c0.039,0,0.096-0.025,0.17-0.076s0.154-0.115,0.24-0.193c0.086-0.078,0.199-0.18,0.34-0.305c0.047-0.063,0.109-0.094,0.188-0.094
	c0.156-0.008,0.289,0.164,0.398,0.515c0.039,0.086,0.068,0.162,0.088,0.229s0.045,0.121,0.076,0.164s0.082,0.057,0.152,0.041
	c0.148,0,0.262-0.129,0.34-0.387c0.18-0.609,0.324-0.917,0.434-0.925c0.078-0.008,0.195,0.148,0.352,0.469
	c0.164,0.351,0.289,0.523,0.375,0.515c0.055,0,0.127-0.068,0.217-0.205c0.09-0.137,0.15-0.256,0.182-0.357
	c0.164-0.453,0.293-0.766,0.387-0.938s0.211-0.266,0.352-0.282c0.195-0.016,0.371,0.192,0.527,0.622
	c0,0.023,0.006,0.051,0.018,0.082s0.027,0.059,0.047,0.082s0.041,0.035,0.064,0.035c0.086-0.008,0.203-0.178,0.352-0.51
	c0.148-0.333,0.195-0.601,0.141-0.804c-0.023-0.086-0.008-0.16,0.047-0.223s0.113-0.094,0.176-0.094
	c0.125-0.008,0.23,0.098,0.316,0.316c0.055,0.125,0.094,0.225,0.117,0.299c0.023,0.075,0.049,0.127,0.076,0.159
	s0.072,0.047,0.135,0.047c0.125-0.016,0.242-0.149,0.352-0.399s0.209-0.59,0.299-1.02s0.131-0.828,0.123-1.195
	c0.008-0.234,0.014-0.392,0.018-0.474s0.045-0.127,0.123-0.135c0.047-0.008,0.094,0.01,0.141,0.053s0.096,0.1,0.146,0.17
	s0.088,0.125,0.111,0.164c0.07,0.086,0.129,0.203,0.176,0.351s0.102,0.357,0.164,0.626c0.063,0.27,0.121,0.459,0.176,0.568
	s0.137,0.16,0.246,0.152c0.039,0,0.117-0.086,0.234-0.258c0.117-0.172,0.216-0.422,0.298-0.75c0.082-0.328,0.107-0.71,0.076-1.148
	C17.688,6.023,17.528,5.372,17.255,4.86z M4.687,11.447c0.09-0.168,0.158-0.381,0.205-0.639c-0.008-0.094-0.004-0.145,0.012-0.152
	c0.125-0.07,0.188-0.133,0.188-0.188c-0.008-0.094-0.156-0.238-0.445-0.434s-0.469-0.29-0.539-0.282
	C3.974,9.76,3.839,9.854,3.702,10.034s-0.189,0.415-0.158,0.704c0.023,0.328,0.105,0.576,0.246,0.744s0.316,0.24,0.527,0.217
	C4.474,11.699,4.597,11.615,4.687,11.447z M5.624,5.699c-0.23-0.063-0.428-0.086-0.592-0.07C4.759,5.644,4.642,5.929,4.681,6.484
	C4.688,6.632,4.759,6.748,4.892,6.83s0.311,0.154,0.533,0.217s0.35,0.113,0.381,0.152c0.141,0.102,0.23,0.152,0.27,0.152
	c0.086-0.008,0.16-0.049,0.223-0.123s0.09-0.166,0.082-0.275c0-0.008-0.023-0.131-0.07-0.369S6.231,6.16,6.216,6.027
	C6.052,5.871,5.854,5.761,5.624,5.699z M5.284,12.454c0.191,0.199,0.4,0.373,0.627,0.521s0.398,0.219,0.516,0.211
	c0.133-0.016,0.229-0.078,0.287-0.188s0.09-0.242,0.094-0.398s0.014-0.25,0.029-0.281c0.109-0.195,0.16-0.367,0.152-0.516
	c-0.016-0.148-0.113-0.214-0.293-0.199c-0.055,0-0.137,0.033-0.246,0.1c-0.109,0.066-0.199,0.107-0.27,0.123
	c-0.125,0-0.27-0.09-0.434-0.269c-0.195-0.234-0.328-0.348-0.398-0.34c-0.086,0-0.172,0.061-0.258,0.182s-0.121,0.279-0.105,0.474
	C4.993,12.062,5.093,12.255,5.284,12.454z M5.19,4.597c-0.129,0.102-0.186,0.258-0.17,0.469c0.008,0.086,0.041,0.152,0.1,0.199
	s0.107,0.07,0.146,0.07c0.078-0.008,0.137-0.016,0.176-0.023S5.528,5.3,5.583,5.3c0.039-0.008,0.076-0.012,0.111-0.012
	s0.084,0,0.146,0C5.927,5.28,5.995,5.231,6.046,5.142s0.072-0.17,0.064-0.24c-0.023-0.328-0.176-0.488-0.457-0.48
	C5.474,4.437,5.319,4.495,5.19,4.597z M5.747,3.267C5.614,3.45,5.552,3.601,5.56,3.718c0,0.023,0.066,0.107,0.199,0.252
	S5.978,4.19,6.017,4.198C6.126,4.19,6.302,4.093,6.544,3.905s0.355-0.352,0.34-0.492c0.008-0.109-0.053-0.211-0.182-0.305
	S6.415,2.971,6.228,2.979S5.88,3.083,5.747,3.267z M7.159,1.403c-0.293,0.207-0.432,0.4-0.416,0.58
	c0.016,0.125,0.086,0.246,0.211,0.363s0.238,0.168,0.34,0.152c0.078,0,0.223-0.064,0.434-0.193s0.402-0.209,0.574-0.24
	c0.172-0.047,0.33-0.145,0.475-0.293s0.213-0.262,0.205-0.34c0-0.078-0.072-0.166-0.217-0.264S8.435,1.03,8.208,1.045
	C7.802,1.077,7.452,1.196,7.159,1.403z M11.905,3.864c-0.207-0.582-0.516-1.006-0.926-1.272s-0.947-0.375-1.611-0.328
	C7.509,2.389,6.665,3.737,6.837,6.308C6.899,7.16,7.13,7.831,7.528,8.323c0.227,0.266,0.568,0.551,1.025,0.855
	S9.337,9.624,9.532,9.6c0.188-0.008,0.441-0.088,0.762-0.24s0.641-0.35,0.961-0.592s0.547-0.465,0.68-0.668
	c0.313-0.484,0.441-1.144,0.387-1.979C12.251,5.198,12.112,4.446,11.905,3.864z M7.581,13.374c0.113,0.18,0.246,0.324,0.398,0.434
	s0.268,0.16,0.346,0.152c0.094-0.008,0.15-0.164,0.17-0.469c0.02-0.304,0.018-0.628-0.006-0.972
	c-0.016-0.242-0.105-0.363-0.27-0.363c-0.016,0-0.037-0.014-0.064-0.041s-0.041-0.045-0.041-0.053
	c-0.078-0.086-0.203-0.125-0.375-0.117c-0.266,0.016-0.383,0.289-0.352,0.82C7.403,12.991,7.468,13.194,7.581,13.374z M8.882,4.696
	c0.09,0.066,0.146,0.123,0.17,0.17c0,0.023-0.02,0.047-0.059,0.07S8.927,4.976,8.911,4.983C8.833,4.999,8.802,5.058,8.817,5.159
	c0.008,0.086-0.035,0.174-0.129,0.264c-0.094,0.09-0.207,0.143-0.34,0.158C8.177,5.597,8.024,5.488,7.892,5.253
	C7.86,5.183,7.79,5.163,7.681,5.194c-0.008,0-0.023-0.012-0.047-0.035S7.599,5.116,7.599,5.101c-0.016-0.102,0.074-0.203,0.27-0.305
	s0.402-0.16,0.621-0.176C8.661,4.604,8.792,4.63,8.882,4.696z M8.595,8.053c0-0.039,0.008-0.074,0.023-0.105
	C8.634,7.956,8.653,7.96,8.677,7.96S8.72,7.956,8.735,7.948c0.07,0.008,0.162-0.021,0.275-0.088S9.2,7.753,9.239,7.737
	c0.008,0,0.039,0.012,0.094,0.035C9.341,7.78,9.351,7.788,9.362,7.796S9.392,7.81,9.415,7.813s0.041,0.006,0.053,0.006
	s0.029-0.004,0.053-0.012c0.008,0,0.02-0.004,0.035-0.012c0.031-0.039,0.078-0.063,0.141-0.07c0.047,0,0.102,0.02,0.164,0.059
	c0.219,0.125,0.398,0.18,0.539,0.164l0.023,0.128c-0.102,0.031-0.248,0.092-0.439,0.182S9.688,8.393,9.673,8.393L9.532,8.381
	C9.485,8.397,9.446,8.407,9.415,8.411S9.341,8.417,9.286,8.417c-0.031,0-0.115-0.041-0.252-0.123S8.755,8.151,8.606,8.112
	L8.595,8.053z M9.263,7.169c-0.102,0.02-0.16,0.029-0.176,0.029C8.938,7.214,8.864,7.164,8.864,7.046
	C8.856,6.937,8.892,6.875,8.97,6.859c0.008,0,0.08,0.02,0.217,0.059s0.244,0.051,0.322,0.035c0.039,0,0.109-0.02,0.211-0.059
	s0.168-0.063,0.199-0.07c0.031,0,0.061,0.01,0.088,0.029s0.051,0.041,0.07,0.064S10.114,6.968,10.13,7
	c0,0.055-0.02,0.098-0.059,0.129S9.989,7.175,9.942,7.175c-0.016,0-0.082-0.008-0.199-0.023S9.528,7.132,9.45,7.14
	C9.427,7.14,9.364,7.15,9.263,7.169z M9.081,13.584c0.051,0.242,0.088,0.395,0.111,0.457c0.07,0.133,0.191,0.279,0.363,0.439
	s0.32,0.236,0.445,0.229c0.07-0.008,0.166-0.088,0.287-0.24s0.178-0.283,0.17-0.393c-0.008-0.031-0.016-0.07-0.023-0.117
	s-0.016-0.086-0.023-0.117s-0.014-0.057-0.018-0.076s-0.006-0.041-0.006-0.064c0.055-0.492,0.078-0.824,0.07-0.996
	c0-0.117-0.027-0.18-0.082-0.188c-0.117-0.031-0.32-0.094-0.609-0.188s-0.457-0.137-0.504-0.129
	c-0.156,0.008-0.246,0.072-0.27,0.193s-0.027,0.307-0.012,0.557C8.997,13.132,9.03,13.342,9.081,13.584z M11.108,4.632
	c0.176,0.078,0.271,0.168,0.287,0.27c0,0.031-0.018,0.057-0.053,0.076s-0.064,0.029-0.088,0.029
	c-0.078,0.008-0.121,0.02-0.129,0.035c-0.141,0.25-0.305,0.379-0.492,0.387c-0.102,0.008-0.203-0.02-0.305-0.083
	c-0.102-0.063-0.148-0.137-0.141-0.223c0.008-0.031-0.008-0.059-0.047-0.082s-0.074-0.031-0.105-0.023
	c-0.07,0.008-0.109-0.023-0.117-0.094c0-0.078,0.055-0.16,0.164-0.246s0.246-0.137,0.41-0.152
	C10.728,4.519,10.933,4.554,11.108,4.632z M11.806,13.831c0.305-0.125,0.496-0.23,0.574-0.316c0.055-0.063,0.107-0.172,0.158-0.328
	c0.051-0.156,0.072-0.281,0.064-0.375c-0.016-0.141-0.076-0.234-0.182-0.281s-0.365-0.125-0.779-0.234
	c-0.07-0.008-0.125-0.035-0.164-0.082c-0.023-0.008-0.063-0.043-0.117-0.105s-0.098-0.094-0.129-0.094
	c-0.039,0.008-0.086,0.047-0.141,0.117s-0.078,0.129-0.07,0.176c0.016,0.18-0.006,0.441-0.064,0.785
	c-0.059,0.343-0.084,0.558-0.076,0.644c0.008,0.078,0.053,0.146,0.135,0.205s0.154,0.084,0.217,0.076
	C11.31,14.018,11.501,13.956,11.806,13.831z M11.278,1.174c-0.172,0.133-0.258,0.25-0.258,0.352c0,0.078,0.115,0.195,0.346,0.352
	s0.369,0.238,0.416,0.246c0.391-0.109,0.648-0.164,0.773-0.164c0.07-0.008,0.139-0.035,0.205-0.082s0.1-0.102,0.1-0.164
	c-0.008-0.109-0.131-0.268-0.369-0.475s-0.463-0.303-0.674-0.287C11.63,0.967,11.45,1.042,11.278,1.174z M12.28,3.02
	c-0.098,0.129-0.146,0.268-0.146,0.417c0,0.023,0.02,0.076,0.059,0.158s0.078,0.16,0.117,0.234s0.066,0.131,0.082,0.17
	c0.117,0.266,0.215,0.451,0.293,0.557s0.238,0.15,0.48,0.135c0.156-0.016,0.254-0.055,0.293-0.117s0.059-0.17,0.059-0.322
	s-0.008-0.381-0.023-0.686c0-0.008,0.006-0.031,0.018-0.07s0.021-0.07,0.029-0.094c-0.016-0.148-0.113-0.288-0.293-0.417
	s-0.379-0.189-0.598-0.182C12.501,2.819,12.378,2.891,12.28,3.02z M14.021,11.078c-0.07,0.016-0.191,0.117-0.363,0.305
	c-0.031,0.039-0.066,0.055-0.105,0.047c-0.023,0.008-0.047,0-0.07-0.023c-0.102-0.078-0.184-0.113-0.246-0.105
	c-0.039,0-0.084,0.025-0.135,0.076s-0.08,0.1-0.088,0.146c-0.008,0.086-0.07,0.187-0.188,0.304s-0.18,0.215-0.188,0.293
	c0.008,0.039,0.039,0.07,0.094,0.094c0.18,0.078,0.281,0.266,0.305,0.563c0.008,0.031-0.002,0.096-0.029,0.193
	s-0.041,0.154-0.041,0.17c0,0.086,0.041,0.158,0.123,0.216s0.17,0.088,0.264,0.088c0.055-0.008,0.125-0.047,0.211-0.117
	c0.133-0.132,0.314-0.238,0.545-0.316s0.338-0.172,0.322-0.281c0.008,0.031-0.027-0.049-0.105-0.24s-0.121-0.35-0.129-0.475
	c0-0.07,0.016-0.172,0.047-0.305c0.031-0.132,0.047-0.222,0.047-0.269C14.267,11.191,14.177,11.07,14.021,11.078z M13.657,6.085
	c0.008,0.039-0.02,0.059-0.082,0.059c-0.188,0.023-0.365,0.131-0.533,0.322s-0.244,0.381-0.229,0.568
	c0.016,0.266,0.168,0.391,0.457,0.375c0.031,0,0.09-0.01,0.176-0.029s0.133-0.029,0.141-0.029c0.039,0.008,0.078,0.01,0.117,0.006
	s0.094-0.006,0.164-0.006c0.172-0.016,0.326-0.109,0.463-0.281s0.193-0.395,0.17-0.668c-0.047-0.625-0.242-0.926-0.586-0.902
	c-0.086,0.008-0.156,0.059-0.211,0.152s-0.078,0.16-0.07,0.199L13.657,6.085z M15.608,10.837c-0.043-0.176-0.135-0.264-0.275-0.264
	c-0.156,0.008-0.328,0.213-0.516,0.615s-0.277,0.638-0.27,0.708c0.008,0.078,0.059,0.223,0.152,0.434s0.188,0.316,0.281,0.316
	c0.039,0,0.133-0.08,0.281-0.24s0.309-0.295,0.48-0.404C15.696,11.402,15.651,11.013,15.608,10.837z M16.323,9.565
	c-0.082,0.07-0.131,0.184-0.146,0.34c-0.102,0.798-0.125,1.626-0.07,2.485c0.094,1.39,0.289,2.078,0.586,2.062
	c0.063-0.008,0.109-0.236,0.141-0.686s0.07-0.763,0.117-0.943c0.227-0.883,0.381-1.541,0.462-1.974
	c0.082-0.434,0.119-0.776,0.111-1.026c-0.016-0.164-0.064-0.271-0.146-0.322c-0.082-0.051-0.201-0.076-0.357-0.076
	C16.638,9.448,16.405,9.495,16.323,9.565z"/>
</svg>
