<?xml version="1.0" encoding="utf-8"?>
<!-- Generator: Adobe Illustrator 14.0.0, SVG Export Plug-In . SVG Version: 6.00 Build 43363)  -->
<!DOCTYPE svg PUBLIC "-//W3C//DTD SVG 1.1//EN" "http://www.w3.org/Graphics/SVG/1.1/DTD/svg11.dtd">
<svg version="1.1" id="Layer_2" xmlns="http://www.w3.org/2000/svg" xmlns:xlink="http://www.w3.org/1999/xlink" x="0px" y="0px"
	 width="230.4px" height="144px" viewBox="0 0 230.4 144" style="enable-background:new 0 0 230.4 144;" xml:space="preserve">
<style type="text/css">
<![CDATA[
	.st0{fill:#361313; fill-opacity: 1; stroke-opacity: 1;}
]]>
</style>
<path class="st0" d="M227.329,33.988c-0.083-0.433-0.078-0.981,0.049-1.732c0.35-2.061,2.494-3.6,2.738-5.639
	c0.165-1.372-0.744-3.483-0.87-4.992c-0.307-3.69,0.596-7.358,0.399-11.04c-0.054-1.011,0.177-3.69-0.505-4.503
	c-0.24-0.285-2.357-1.36-2.256-1.149c-0.23-0.479-0.271-0.978-0.124-1.497c-3.708-0.021-7.468,0.017-11.17-0.021
	c-0.108-0.477-0.269-0.979-0.366-1.443c-5.463-0.375-11.329-1.675-16.803-1.258c0.066,0.775-0.417,1.831-0.356,2.583
	c-20.991,2.633-42.723-0.148-63.841,0.033c-4.888,0.042-5.438-1.406-9.554-2.241c-3.725-0.757-7.578,1.934-10.994,2.443
	c-4.561,0.68-8.344-1.074-12.676-1.699c-4.144-0.599-6.426,2.075-10.319,1.838c-3.75-0.227-5.974-4.404-10.182-3.555
	c-2.178,0.439-2.725,2.542-4.497,3.186c-1.348,0.49-2.492-0.127-3.973,0.007c-5.169,0.465-11.079,0.592-16.252,0.151
	c-3.874-0.331-7.289-2.591-11.122-2.781c-4.232-0.208-7.729,1.972-11.728,2.792C22.17,5.675,11.314-0.303,0.479,2.105
	C0.443,5.51,5.931,15.595,0.466,16.464c2.585,9.773-2.048,18.8,0.338,28.746c1.093,4.558,1.671,5.747,0.461,9.826
	c-0.89,2.996-2.978,6.389,1.525,8.584c-1.842,7.267-0.061,14.385-1.655,22.371c-0.847,4.236-1.298,9.272-0.849,13.577
	c0.831,7.943,2.505,15.03,2.505,23.132c-1.49,4.511,0.002,12.695,0,17.837c6.104-0.003,12.563-0.016,18.768,0.003
	c-0.557-0.001,1.736,2.039,1.967,2.157c0.989,0.5,2.691-0.031,3.785,0.016c3.149,0.134,6.325-0.252,9.476-0.274
	c-0.102-0.613,0.089-1.277-0.002-1.894c4.654-0.021,11.593-1.256,15.674,0.556c4.823,2.142,3.033,3.644,8.819,2.514
	c2.158-0.422,4.312-1.342,6.465-1.658c9.955-1.457,20.788,0.279,30.487-1.181c9.143-1.376,22.219-1.616,31.513-0.252
	c8.803,1.292,17.356,1.448,26.572,1.447c12.309-0.001,24.639-0.181,36.943,0.021c-0.103-0.479-0.198-0.963-0.305-1.441
	c10.56-0.115,20.866,1.897,31.306,1.897c3.999,0,2.499-1.911,2.499-1.911c0.576-3.741,1.367-7.523,1.692-11.29
	c0.444-5.149-1.325-9.597-1.704-14.657c-0.398-5.316,2.185-8.361,2.548-13.231c0.319-4.282-1.778-8.189-0.972-12.638
	c0.777-4.292,1.751-6.162,0.891-10.196c-1.495-7.007-0.728-13.465,0.022-20.794c0.404-3.953,0.942-7.857,1.034-11.835
	c0.06-2.617,0.451-5.785-0.516-8.104C228.847,35.61,227.605,35.429,227.329,33.988z"/>
</svg>
