<?xml version="1.0" encoding="utf-8"?>
<!-- Generator: Adobe Illustrator 14.0.0, SVG Export Plug-In . SVG Version: 6.00 Build 43363)  -->
<!DOCTYPE svg PUBLIC "-//W3C//DTD SVG 1.1//EN" "http://www.w3.org/Graphics/SVG/1.1/DTD/svg11.dtd">
<svg version="1.1" id="Layer_1" xmlns="http://www.w3.org/2000/svg" xmlns:xlink="http://www.w3.org/1999/xlink" x="0px" y="0px"
	 width="72.294px" height="22.518px" viewBox="-0.125 -0.125 72.294 22.518"
	 style="enable-background:new -0.125 -0.125 72.294 22.518;" xml:space="preserve">
<style type="text/css">
<![CDATA[
	.st0{fill:#361313; fill-opacity: 1; stroke-opacity: 1;stroke:#361313; fill-opacity: 1; stroke-opacity: 1;stroke-width:0.25;}
]]>
</style>
<path class="st0" d="M70.221,12.208c-1.572,1.291-3.437,2.434-5.699,3.494c-6.367,2.983-13.885,2.114-21.168-2.446
	c-1.109-0.696-2.234-1.438-3.32-2.157c-2.193-1.449-4.459-2.947-6.793-4.18c-5.161-2.728-11.434-4.206-17.202-4.028
	c-1.876,0.054-4.656,0.269-7.252,0.981C6.205,4.582,2.588,6.514,0.889,9.63c-0.953,1.748-1.141,3.575-0.558,5.43
	c0.668,2.129,2.354,3.563,4.51,3.836c0.277,0.033,0.542,0.054,0.797,0.054c1.826,0,3.119-0.911,4.227-2.934L9.638,15.89
	c-1.22,2.227-2.599,3.024-4.765,2.746c-2.052-0.26-3.657-1.626-4.294-3.653c-0.561-1.784-0.38-3.545,0.538-5.228
	C2.778,6.71,6.322,4.819,8.854,4.124c2.175-0.598,4.478-0.839,6.264-0.934c4.574,0.084,9.774,1.095,13.632,3.289
	c6.908,3.93,13.673,9.175,21.637,10.709c1.409,0.271,2.752,0.386,4.157,0.403c3.529,0.359,6.947-0.182,10.086-1.654
	c2.285-1.069,4.168-2.225,5.757-3.527L70.221,12.208z"/>
<path class="st0" d="M32.428,22.268c-0.744,0-1.495-0.244-2.155-0.823c-0.68-0.599-1.059-1.524-1.039-2.545
	c0.023-1.157,0.536-2.254,1.371-2.929c2.791-2.258,6.439-1.519,9.009-0.502c6.581,2.608,15.206,5.206,23.584,2.123
	c2.168-0.8,4.132-1.95,6.002-3.518l0.166,0.198c-1.894,1.587-3.882,2.752-6.079,3.563c-8.453,3.116-17.146,0.501-23.77-2.125
	c-2.506-0.993-6.058-1.718-8.75,0.462c-0.776,0.628-1.252,1.648-1.273,2.73c-0.02,0.957,0.318,1.789,0.95,2.345
	c1.533,1.344,3.607,0.729,4.781-0.526l0.19,0.178C34.659,21.71,33.551,22.268,32.428,22.268"/>
<path class="st0" d="M71.236,9.555l0.543-1.394C71.854,8.038,71.932,7.922,72,7.796L71.773,7.67c-1.34,2.415-3.233,4.135-6.14,5.577
	c-1.51,0.75-3.14,1.152-4.241,1.358c-3.179,0.598-9.199,1.072-13.822-2.436c-1.969-1.494-3.008-3.944-2.711-6.396
	c0.267-2.211,1.597-3.988,3.647-4.877c2.024-0.878,4.625-0.832,6.618,0.114c0.893,0.423,2.087,1.184,2.716,2.409
	c0.416,0.804,0.709,2.543,0.207,3.331l0.22,0.141c0.56-0.878,0.258-2.713-0.193-3.591c-0.665-1.29-1.909-2.085-2.836-2.525
	c-2.09-0.99-4.709-1.036-6.834-0.117c-2.139,0.926-3.525,2.779-3.803,5.085c-0.309,2.543,0.771,5.085,2.813,6.635
	c0.053,0.04,1.896,2.353,6.711,3.228c3.578,0.649,8.434-0.22,12.23-2.4c0.246-0.143,0.479-0.301,0.721-0.452
	c0.617-0.365,1.186-0.751,1.703-1.161C69.675,10.931,70.352,10.237,71.236,9.555"/>
</svg>
