<?xml version="1.0" encoding="utf-8"?>
<!-- Generator: Adobe Illustrator 14.0.0, SVG Export Plug-In . SVG Version: 6.00 Build 43363)  -->
<!DOCTYPE svg PUBLIC "-//W3C//DTD SVG 1.1//EN" "http://www.w3.org/Graphics/SVG/1.1/DTD/svg11.dtd">
<svg version="1.1" id="Layer_1" xmlns="http://www.w3.org/2000/svg" xmlns:xlink="http://www.w3.org/1999/xlink" x="0px" y="0px"
	 width="186.84px" height="53.891px" viewBox="0 0 186.84 53.891" style="enable-background:new 0 0 186.84 53.891;"
	 xml:space="preserve">
<style type="text/css">
<![CDATA[
	.st0{fill:#361313; fill-opacity: 1; stroke-opacity: 1;}
	.st1{fill:#240101; fill-opacity: 1; stroke-opacity: 1}	
]]>
</style>
<rect class="st1" width="186.84" height="53.891"/>
<path class="st0" d="M54.94,50.059c-0.826,0-1.651-0.269-2.209-0.808c-0.913-0.882-2.771-0.88-3.684,0
	c-1.114,1.078-3.303,1.078-4.418,0c-0.912-0.882-2.771-0.88-3.683,0c-1.114,1.077-3.303,1.078-4.418,0
	c-0.912-0.882-2.771-0.88-3.683,0c-1.115,1.075-3.304,1.076-4.419,0c-0.912-0.882-2.771-0.88-3.683,0
	c-1.115,1.075-3.303,1.076-4.418,0c-0.912-0.88-2.771-0.882-3.683,0c-1.116,1.076-3.305,1.077-4.418,0
	c-0.913-0.882-2.771-0.88-3.684,0c-1.116,1.076-3.305,1.077-4.418,0c-0.912-0.882-2.771-0.88-3.683,0L0.074,48.87
	c1.115-1.079,3.304-1.078,4.419,0c0.911,0.881,2.77,0.881,3.682,0c1.115-1.079,3.304-1.078,4.42,0c0.911,0.881,2.77,0.881,3.682,0
	c1.114-1.079,3.303-1.078,4.419,0c0.912,0.881,2.77,0.881,3.682,0c1.115-1.079,3.304-1.078,4.419,0c0.912,0.881,2.771,0.881,3.683,0
	c1.113-1.078,3.303-1.079,4.419,0c0.912,0.881,2.77,0.881,3.682,0c1.114-1.078,3.303-1.079,4.419,0c0.912,0.881,2.77,0.881,3.682,0
	c1.114-1.078,3.304-1.079,4.42,0c0.912,0.881,2.77,0.881,3.682,0c1.114-1.078,3.303-1.079,4.419,0c0.912,0.881,2.771,0.881,3.682,0
	c1.115-1.079,3.304-1.078,4.419,0c0.912,0.881,2.771,0.881,3.683,0c1.115-1.079,3.304-1.078,4.419,0
	c0.912,0.881,2.771,0.881,3.682,0c1.113-1.078,3.303-1.079,4.419,0c0.912,0.879,2.771,0.879,3.684,0
	c1.114-1.078,3.302-1.078,4.418,0c0.911,0.881,2.769,0.881,3.683,0c1.113-1.08,3.301-1.078,4.418,0c0.912,0.879,2.77,0.878,3.684,0
	c1.113-1.078,3.301-1.078,4.418,0c0.91,0.881,2.771,0.881,3.683,0c1.113-1.08,3.303-1.078,4.418,0c0.912,0.879,2.771,0.878,3.683,0
	c1.113-1.078,3.304-1.078,4.419,0c0.91,0.881,2.769,0.881,3.683,0c1.114-1.08,3.304-1.078,4.418,0c0.91,0.881,2.769,0.881,3.683,0
	c1.113-1.078,3.304-1.078,4.419,0c0.91,0.879,2.769,0.88,3.683,0c1.113-1.08,3.303-1.078,4.418,0c0.91,0.881,2.771,0.881,3.683,0
	c1.113-1.08,3.303-1.078,4.418,0c0.912,0.879,2.77,0.878,3.684,0c1.113-1.08,3.303-1.078,4.418,0c0.91,0.881,2.769,0.881,3.683,0
	c1.113-1.078,3.303-1.078,4.418,0c0.912,0.879,2.771,0.878,3.683,0c1.115-1.08,3.304-1.078,4.419,0c0.91,0.881,2.771,0.881,3.683,0
	l0.367,0.381c-1.113,1.076-3.305,1.076-4.418,0c-0.911-0.88-2.769-0.881-3.684,0c-1.112,1.075-3.302,1.077-4.418,0
	c-0.912-0.881-2.77-0.881-3.682,0c-1.115,1.076-3.306,1.076-4.419,0c-0.911-0.88-2.771-0.881-3.682,0
	c-1.117,1.076-3.305,1.076-4.42,0c-0.912-0.881-2.771-0.881-3.682,0c-1.115,1.076-3.306,1.076-4.419,0
	c-0.912-0.881-2.771-0.881-3.682,0c-1.118,1.076-3.307,1.074-4.419,0c-0.912-0.881-2.771-0.881-3.683,0
	c-1.115,1.076-3.306,1.076-4.419,0c-0.912-0.881-2.771-0.881-3.682,0c-1.115,1.076-3.306,1.076-4.419,0
	c-0.912-0.881-2.771-0.881-3.683,0c-1.114,1.075-3.303,1.077-4.419,0c-0.912-0.881-2.771-0.881-3.682,0
	c-1.115,1.076-3.306,1.076-4.419,0c-0.914-0.881-2.771-0.881-3.682,0c-1.117,1.076-3.305,1.076-4.42,0
	c-0.914-0.881-2.771-0.881-3.682,0c-1.115,1.076-3.304,1.076-4.419,0c-0.912-0.881-2.771-0.881-3.682,0
	c-1.115,1.075-3.305,1.076-4.42,0c-0.912-0.882-2.771-0.88-3.683,0c-1.114,1.075-3.303,1.076-4.418,0
	c-0.912-0.882-2.771-0.88-3.683,0c-1.115,1.075-3.304,1.076-4.419,0c-0.911-0.88-2.77-0.882-3.683,0
	c-1.114,1.075-3.303,1.076-4.418,0c-0.911-0.88-2.771-0.882-3.683,0C56.592,49.79,55.766,50.059,54.94,50.059z"/>
</svg>
