<?xml version="1.0" encoding="utf-8"?>
<!-- Generator: Adobe Illustrator 14.0.0, SVG Export Plug-In . SVG Version: 6.00 Build 43363)  -->
<!DOCTYPE svg PUBLIC "-//W3C//DTD SVG 1.1//EN" "http://www.w3.org/Graphics/SVG/1.1/DTD/svg11.dtd">
<svg version="1.1" id="Layer_1" xmlns="http://www.w3.org/2000/svg" xmlns:xlink="http://www.w3.org/1999/xlink" x="0px" y="0px"
	 width="432px" height="72px" viewBox="0 0 432 72" style="enable-background:new 0 0 432 72;" xml:space="preserve">
<style type="text/css">
<![CDATA[
	.st0{clip-path:url(#SVGID_2_);fill:#361313; fill-opacity: 1; stroke-opacity: 1;}
]]>
</style>
<g>
	<defs>
		<rect id="SVGID_1_" width="432" height="72"/>
	</defs>
	<clipPath id="SVGID_2_">
		<use xlink:href="#SVGID_1_"  style="overflow:visible;"/>
	</clipPath>
	<path class="st0" d="M417.447,28.189l13.042-25.764h-58.953l-0.001-0.001v0.001v15.625H60.465V2.427l0.001-0.001h-0.001V2.425
		l-0.001,0.001H1.511l13.042,25.764v0.297L1.511,54.252h37.22v15.626H393.27V54.252h37.22l-13.042-25.765V28.189z M38.731,52.252
		H4.765l11.788-23.289v-1.25L4.765,4.426h50.338L39.087,18.301c-0.028,0.024-0.058,0.045-0.082,0.072l-0.274,0.236V52.252z
		 M391.27,53.283v14.595H40.731V20.051H391.27V53.22c-0.001,0.011-0.001,0.021-0.001,0.032
		C391.269,53.263,391.269,53.272,391.27,53.283 M427.234,52.252H393.27V18.608l-0.273-0.236c-0.025-0.027-0.055-0.048-0.082-0.072
		L376.897,4.426h50.337l-11.787,23.288v1.25L427.234,52.252z"/>
</g>
</svg>
