<?xml version="1.0" encoding="utf-8"?>
<!-- Generator: Adobe Illustrator 14.0.0, SVG Export Plug-In . SVG Version: 6.00 Build 43363)  -->
<!DOCTYPE svg PUBLIC "-//W3C//DTD SVG 1.1//EN" "http://www.w3.org/Graphics/SVG/1.1/DTD/svg11.dtd">
<svg version="1.1" id="Layer_1" xmlns="http://www.w3.org/2000/svg" xmlns:xlink="http://www.w3.org/1999/xlink" x="0px" y="0px"
	 width="432px" height="72px" viewBox="0 0 432 72" style="enable-background:new 0 0 432 72;" xml:space="preserve">
<style type="text/css">
<![CDATA[
	.st0{fill:#361313; fill-opacity: 1; stroke-opacity: 1;}
]]>
</style>
<path class="st0" d="M6.814,62.135h3.042v3.02H6.814V62.135z M11.356,62.135h187.307l-3.018,3.019H11.356V62.135z M6.814,54.926
	l3.042-3.75v9.459H6.814V54.926z M2.947,15.316l2.367,2.918v36.16l-2.367,2.918V15.316z M6.814,17.702v-6.288h3.042v10.038
	L6.814,17.702z M6.814,6.846h3.042v3.067H6.814V6.846z M11.356,6.846h164.716l3.067,3.067H11.356V6.846z M177.157,2.059l3.287,3.287
	H5.314v10.506l-3.868-4.767v50.458l3.868-4.768v9.879h193.833l-3.287,3.287l1.06,1.06l5.848-5.848h-5.002l4.519-4.519H11.356V46.946
	l-4.542,5.598V20.083l4.542,5.599V11.414H182.76l-4.568-4.568h5.873l-5.848-5.847L177.157,2.059z"/>
<path class="st0" d="M422.15,62.138h3.042v3.019h-3.042V62.138z M236.355,65.153l-3.019-3.018l187.313,0.002v3.018L236.355,65.153z
	 M422.15,51.179l3.042,3.75v5.709h-3.042V51.179z M426.692,54.396V18.235l2.367-2.917v41.996L426.692,54.396z M422.15,11.416h3.042
	v6.289l-3.042,3.75V11.416z M422.15,6.848h3.042v3.067h-3.042V6.848z M252.861,9.913l3.067-3.067L420.65,6.848v3.067L252.861,9.913z
	 M247.936,6.846h5.872l-4.567,4.568l171.41,0.001v14.269l4.542-5.599v32.46l-4.542-5.599v13.69l-190.935-0.003l4.518,4.519h-5.002
	l5.849,5.848l1.061-1.061l-3.287-3.286l193.839,0.002v-9.879l3.867,4.767V11.087l-3.867,4.767V5.347L251.557,5.346l3.287-3.287
	L253.782,1L247.936,6.846z"/>
</svg>
