<?xml version="1.0" encoding="utf-8"?>
<!-- Generator: Adobe Illustrator 14.0.0, SVG Export Plug-In . SVG Version: 6.00 Build 43363)  -->
<!DOCTYPE svg PUBLIC "-//W3C//DTD SVG 1.1//EN" "http://www.w3.org/Graphics/SVG/1.1/DTD/svg11.dtd">
<svg version="1.1" id="Layer_1" xmlns="http://www.w3.org/2000/svg" xmlns:xlink="http://www.w3.org/1999/xlink" x="0px" y="0px"
	 width="669.525px" height="119.938px" viewBox="0 0 669.525 119.938" style="enable-background:new 0 0 669.525 119.938;"
	 xml:space="preserve">
<style type="text/css">
<![CDATA[
	.st0{fill:#361313; fill-opacity: 1; stroke-opacity: 1;}
]]>
</style>
<g>
	<g>
		<g>
			<g>
				<path class="st0" d="M661.916,116.007c-72.096-2.491-121.046-3.84-207.333-3.899c-46.731-0.032-187.118-0.032-315.823-0.024
					c-32.176,0.002-63.622,0.005-92.692,0.007c-14.535,0.002-28.476,0.003-41.617,0.006H4.297c7.782,7.808,2.158,2.074,3.895,3.777
					v-0.308v-0.614v-1.225v-2.437v-4.813c0-3.184-0.001-6.313-0.001-9.385C8.188,90.95,8.188,85.03,8.188,79.362
					C8.185,56.69,8.183,38.041,8.181,25.059c0-6.491-0.001-11.565-0.002-15.017c0-1.726,0-3.045,0-3.934c0-0.444,0-0.781,0-1.006
					V4.849V4.785V4.769V4.767V4.766c0.848-0.85-7.386,7.385-3.9,3.899H4.28c0,0,468.082,0.065,561.542,0
					c21.575-0.015,40.814-0.109,58.666-0.284c8.926-0.087,17.504-0.192,25.853-0.318c4.175-0.063,8.292-0.13,12.367-0.203
					l3.048-0.056h0.048c0.685,0.651-5.74-5.731-3.022-3.005l0.002,0.096l0.004,0.189l0.007,0.38l0.014,0.76l0.029,1.515l0.119,6.029
					c0.656,32.036,1.616,62.294,2.862,98.34c1.245-36.046,2.205-66.306,2.86-98.34l0.119-6.029l0.029-1.515l0.014-0.76l0.008-0.38
					l0.004-0.189l0.002-0.096c2.711,2.701-3.688-3.737-3.051-3.07l-0.048-0.001l-3.048-0.056c-4.075-0.071-8.191-0.14-12.367-0.202
					c-8.349-0.125-16.927-0.232-25.853-0.319c-17.852-0.174-37.091-0.271-58.666-0.285c-93.46-0.065-561.541,0-561.541,0H4.278
					C7.763-2.62-0.471,5.615,0.377,4.767v0.001V4.77v0.016V4.85v0.254c0,0.225,0,0.562,0,1.006c0,0.889,0,2.208,0,3.934
					c0,3.451-0.001,8.525-0.002,15.017c-0.002,12.98-0.004,31.63-0.007,54.302c0,5.668-0.001,11.588-0.002,17.731
					c0,3.072,0,6.201-0.001,9.385v4.813v2.437v1.225v0.614v0.308c1.754,1.788-3.927-3.785,3.933,4.048h0.154
					c13.141,0.002,27.082,0.003,41.617,0.005c29.07,0.003,60.516,0.006,92.692,0.008c128.705,0.009,269.09,0.009,315.823-0.024
					C540.87,119.847,589.82,118.499,661.916,116.007z"/>
			</g>
		</g>
	</g>
</g>
</svg>
