<?xml version="1.0" encoding="utf-8"?>
<!-- Generator: Adobe Illustrator 14.0.0, SVG Export Plug-In . SVG Version: 6.00 Build 43363)  -->
<!DOCTYPE svg PUBLIC "-//W3C//DTD SVG 1.1//EN" "http://www.w3.org/Graphics/SVG/1.1/DTD/svg11.dtd">
<svg version="1.1" id="Layer_1" xmlns="http://www.w3.org/2000/svg" xmlns:xlink="http://www.w3.org/1999/xlink" x="0px" y="0px"
	 width="19.98px" height="9.16px" viewBox="0 0 19.98 9.16" style="enable-background:new 0 0 19.98 9.16;" xml:space="preserve">
<style type="text/css">
<![CDATA[
	.st0{fill:#361313; fill-opacity: 1; stroke-opacity: 1}
]]>
</style>
<g>
	<path class="st0" d="M9.419,0.645C10.21,0.215,11.237,0,12.5,0c0.826,0,1.611,0.126,2.354,0.376s1.426,0.581,2.051,0.991
		c1.021,0.664,1.966,1.543,2.832,2.637c0.162,0.208,0.244,0.355,0.244,0.439c-0.052,0-0.211-0.146-0.479-0.439
		c-1.921-2.109-4.216-3.164-6.885-3.164c-2.227,0-3.812,0.521-4.756,1.563c1.198,0.599,2.158,1.386,2.881,2.363
		c0.742-1.335,1.875-2.002,3.398-2.002c0.448,0,0.907,0.107,1.377,0.321c1.08,0.502,1.621,1.342,1.621,2.521
		c0,0.689-0.212,1.289-0.636,1.797c-0.885,1.068-2.259,1.602-4.121,1.602c-0.918,0-1.825-0.166-2.724-0.499
		C8.779,8.18,8.076,7.711,7.549,7.1C6.956,6.415,6.66,5.639,6.66,4.765c0-0.397,0.039-0.751,0.117-1.06s0.198-0.61,0.361-0.903
		C6.363,2.613,5.523,2.519,4.618,2.519c-0.697,0-1.364,0.101-2.002,0.303C1.034,3.323,0.243,4.29,0.243,5.723
		c0,1.295,0.688,2.242,2.062,2.842C2.916,8.831,3.58,8.964,4.296,8.964c0.528,0,1.063-0.069,1.603-0.205S6.826,8.477,7.06,8.32
		C7.255,8.189,7.388,8.125,7.46,8.125c0,0.091-0.146,0.225-0.438,0.4C6.318,8.949,5.345,9.16,4.101,9.16
		c-0.639,0-1.273-0.146-1.904-0.439C0.732,8.044,0,7.032,0,5.684c0-0.774,0.205-1.461,0.615-2.061C1.5,2.328,2.809,1.68,4.541,1.68
		c1.074,0,2.062,0.175,2.959,0.527C7.988,1.595,8.628,1.075,9.419,0.645z M14.541,8.398c1.518-0.533,2.275-1.426,2.275-2.676
		c0-0.697-0.286-1.296-0.859-1.797c-0.554-0.482-1.186-0.723-1.895-0.723c-1.543,0-2.611,0.56-3.203,1.68
		c0.267,0.319,0.399,0.586,0.399,0.801c0,0.162-0.05,0.31-0.15,0.439c-0.102,0.13-0.197,0.195-0.288,0.195
		c-0.117,0-0.215-0.088-0.294-0.264c-0.071-0.143-0.107-0.279-0.107-0.41c0-0.24,0.082-0.494,0.245-0.762
		C9.837,3.932,8.77,3.265,7.461,2.881C7.09,3.454,6.904,4.147,6.904,4.961c0,0.488,0.126,0.953,0.376,1.396
		C7.53,6.8,7.91,7.21,8.417,7.588C9.465,8.369,10.8,8.76,12.421,8.76C13.15,8.76,13.857,8.639,14.541,8.398z"/>
</g>
</svg>
