<?xml version="1.0" encoding="utf-8"?>
<!-- Generator: Adobe Illustrator 14.0.0, SVG Export Plug-In . SVG Version: 6.00 Build 43363)  -->
<!DOCTYPE svg PUBLIC "-//W3C//DTD SVG 1.1//EN" "http://www.w3.org/Graphics/SVG/1.1/DTD/svg11.dtd">
<svg version="1.1" id="Layer_1" xmlns="http://www.w3.org/2000/svg" xmlns:xlink="http://www.w3.org/1999/xlink" x="0px" y="0px"
	 width="319.274px" height="62.457px" viewBox="0 0 319.274 62.457" style="enable-background:new 0 0 319.274 62.457;"
	 xml:space="preserve">
<style type="text/css">
<![CDATA[
	.st0{fill:#361313; fill-opacity: 1; stroke-opacity: 1;}
]]>
</style>
<path class="st0" d="M303.291,0H15.984L0,31.229l15.984,31.229h287.307l15.983-31.229L303.291,0z M10.725,35.188
	c-2.187,0-3.96-1.772-3.96-3.96s1.773-3.96,3.96-3.96c2.188,0,3.96,1.772,3.96,3.96S12.912,35.188,10.725,35.188z M308.385,35.188
	c-2.187,0-3.96-1.772-3.96-3.96s1.773-3.96,3.96-3.96c2.188,0,3.96,1.772,3.96,3.96S310.572,35.188,308.385,35.188z"/>
</svg>
