<?xml version="1.0" encoding="utf-8"?>
<!-- Generator: Adobe Illustrator 14.0.0, SVG Export Plug-In . SVG Version: 6.00 Build 43363)  -->
<!DOCTYPE svg PUBLIC "-//W3C//DTD SVG 1.1//EN" "http://www.w3.org/Graphics/SVG/1.1/DTD/svg11.dtd">
<svg version="1.1" id="Layer_1" xmlns="http://www.w3.org/2000/svg" xmlns:xlink="http://www.w3.org/1999/xlink" x="0px" y="0px"
	 width="186.15px" height="91.5px" viewBox="0 0 186.15 91.5" style="enable-background:new 0 0 186.15 91.5;" xml:space="preserve"
	>
<style type="text/css">
<![CDATA[
	.st0{fill-rule:evenodd;clip-rule:evenodd;fill:none;stroke:#361313; fill-opacity: 1; stroke-opacity: 1;stroke-width:2.1213;stroke-linecap:round;}
	.st1{fill-rule:evenodd;clip-rule:evenodd;  fill:#240101; fill-opacity: 1; stroke-opacity: 1;}
	.st2{fill-rule:evenodd;clip-rule:evenodd;fill:none;stroke:#482525; fill-opacity: 1; stroke-opacity: 1;stroke-width:3.1091;stroke-linecap:round;}
	.st3{fill-rule:evenodd;clip-rule:evenodd;fill:none;stroke:#120000; fill-opacity: 1; stroke-opacity: 1;stroke-width:2.1602;stroke-linecap:round;}
	.st4{fill-rule:evenodd;clip-rule:evenodd;fill:none;stroke:#5a3737; fill-opacity: 1; stroke-opacity: 1;stroke-width:2.7689;stroke-linecap:round;}
	.st5{fill-rule:evenodd;clip-rule:evenodd;fill:none;stroke:#000000; fill-opacity: 1; stroke-opacity: 1;stroke-width:1.2247;stroke-linecap:round;}
	.st6{fill-rule:evenodd;clip-rule:evenodd;fill:none;stroke:#6c4949; fill-opacity: 1; stroke-opacity: 1;stroke-width:3.0822;stroke-linecap:round;}
]]>
</style>
<g>
	<g>
		<path class="st1" d="M94.65,2.291c-0.407,1.222,0.143,2.434-0.43,3.723c-0.746-0.065-0.891-0.732-1.432-1.002
			C93.376,4.15,93.076,1.257,94.65,2.291z"/>
		<path class="st1" d="M91.93,2.291c0.051,1.005,0.546,2.748,0,3.437c-1.223,0.248-1.341-1.795-1.432-3.15
			C90.891,2.215,91.287,2.075,91.93,2.291z"/>
		<path class="st1" d="M94.937,5.441c0.513-1.253,0.743-2.789,2.291-3.007c0.063,0.127,0.126,0.256,0.286,0.286
			c-0.215,1.359-0.778,2.371-1.432,3.293C95.399,6.124,95.139,5.812,94.937,5.441z"/>
		<path class="st1" d="M89.495,2.577c0.635,0.893,0.807,2.248,1.003,3.58c-0.116,0.123-0.393,0.085-0.43,0.286
			c-0.658-0.011-0.772-0.563-1.003-1.002c-0.4,0.363-0.615,0.912-1.146,1.146c-0.984-0.829-1.566-2.062-1.861-3.58
			c0.212-0.074,0.361-0.212,0.573-0.286c1.112,0.177,1.077,1.5,2.004,1.861C88.728,3.952,87.878,2.479,89.495,2.577z"/>
		<path class="st1" d="M100.234,4.01c0.221,1.986-1.092,2.44-2.147,3.149c-0.422-0.15-0.498-0.647-0.716-1.002
			C98.172,5.366,98.795,2.817,100.234,4.01z"/>
		<path class="st1" d="M101.38,5.871c-0.068,0.689-1.309,3.117-2.434,1.861C99.533,6.981,99.908,5.26,101.38,5.871z"/>
		<path class="st1" d="M93.361,6.587c-0.528,1.114,0.185,2.938-0.859,3.723c-1.479,0.051-0.679-3.912-0.572-4.438
			C92.827,5.689,92.862,6.37,93.361,6.587z"/>
		<path class="st1" d="M93.505,9.88c-0.608-1.313,0.938-2.723,1.288-4.009c0.167-0.023,0.255,0.031,0.287,0.143
			c0.303,0.127,0.576,0.719,0.572,1.003c-0.008,0.532-0.518,0.606-0.859,1.146C94.335,8.886,94.284,10.095,93.505,9.88z"/>
		<path class="st1" d="M102.813,7.159c-0.342,1.425-1.521,2.013-2.721,2.578C99.686,8.203,101.426,6.467,102.813,7.159z"/>
		<path class="st1" d="M83.911,9.737C82.985,9.23,81.9,8.883,81.62,7.732C82.345,6.727,84.909,8.556,83.911,9.737z"/>
		<path class="st1" d="M97.371,7.446c0.045,0.809-0.612,0.915-0.859,1.432c0.682-0.21,1.104-1.333,2.147-0.716
			c0.189,0.81-0.529,0.711-0.716,1.146c0.405,0.411,0.829-0.532,1.289-0.144c0.101,0.441,0.101,0.275,0,0.716
			c0.522-0.093,0.763,0.097,1.002,0.287c-0.017,0.365-0.026,0.736-0.43,0.716c-0.068,0.451,0.44,0.324,0.287,0.859
			c0.099,0.191,0.382-0.071,0.716,0.143c0.013,0.535,0.16,0.408,0,0.859c-0.286,0-0.573,0-0.859,0
			c0.304,0.508,1.243,0.379,1.432,1.002c0.125,0.555-0.35,0.51-0.429,0.859c-1.824,0.304-4.008-0.122-5.729-0.286
			c-0.671-0.064-1.361,0.457-1.718-0.286c0.096-0.478,0.368-0.777,1.002-0.717c-0.099-0.664-1.275-0.252-1.002-1.288
			c0.185-0.197,0.622-0.142,1.002-0.144c0.132-0.609-0.945-0.01-0.859-0.572c0.061-0.656,0.675-0.758,1.003-1.146
			c-0.151-1.34,1.597-1.903,2.291-2.864C97.173,7.263,97.188,7.438,97.371,7.446z"/>
		<path class="st1" d="M106.821,9.737c0.393-0.679,1.954-0.689,3.007-0.573c1.085,0.12,1.99,0.81,2.721,0.859
			c0.42-0.01,0.532-0.327,0.717-0.572c0.057-0.63-0.771-0.374-0.859-0.859c0.433-2.082,2.392-0.142,2.005,1.288
			c-0.183,0.675-1.154,1.272-1.862,1.289c-1.021,0.024-1.794-1.234-2.721-1.432C108.786,9.516,107.602,10.526,106.821,9.737z"/>
		<path class="st1" d="M72.025,9.594c-0.141,0.384-0.9,0.148-1.146,0.43c0.666,1.229,2.928,0.273,3.437-0.43
			c1.213,0.22,2.673,0.191,3.294,1.003c-0.673,1.066-1.301-0.051-2.291,0.143c-1.313,0.257-2.343,1.119-4.439,0.859
			c-0.613-0.484-1.245-0.95-1.288-2.005C70.045,8.566,71.811,7.941,72.025,9.594z"/>
		<path class="st1" d="M104.53,8.592c-0.309,1.457-1.662,1.869-3.15,2.147c-0.731-1.659,1.615-1.425,2.148-2.291
			C103.908,8.45,104.346,8.395,104.53,8.592z"/>
		<path class="st1" d="M182.428,9.594c0.616-0.854,1.348,0.525,1.718,0.859c0.126,1.086-0.116,1.289-0.859,2.147
			c-0.667,0.771-0.537,0.912-1.718,1.289c-1.804,0.576-1.664-0.306-2.578-1.575c0.416-1.503,1.578-2.992,3.294-2.721l-0.071,0.215
			l0.215,0.071c-0.015,0.368-0.56,0.205-0.573,0.573c0.453,0.376,0.728-0.528,1.002,0.144c-0.073,1.121-1.606,1.54-1.432,2.434
			c1.003-3.15,1.074-3.293,1.074-3.293L182.428,9.594z"/>
		<path class="st1" d="M82.908,10.739c-0.651,0.406-2.459-0.106-2.577-1.146C81.293,9.329,82.94,9.541,82.908,10.739z"/>
		<path class="st1" d="M110.545,11.599c-0.713,0.14-0.854-0.293-1.289-0.43c-2.676,0.087-4.572,1.385-5.728,3.007
			c-0.723,0.025-1.34,0.377-1.575-0.43c-0.136-0.517,0.563-0.199,0.859-0.286c0.395-0.178,0.414-0.731,0.716-1.002
			c-0.795,0.112-1.023,0.79-2.005,0.716c-0.538-0.442,0.002-1.071-0.286-1.719c1.189,0.023,2.047-0.979,3.293-0.43
			c0.152,0.726-0.423,0.723-0.572,1.146c0.705-0.153,1.085-0.633,1.575-1.002c0.79,0.026,1.142-0.386,1.575-0.716
			C108.623,10.191,110.783,10.098,110.545,11.599z"/>
		<path class="st1" d="M92.789,11.025c0.38,1.291,0.372,2.934-0.717,3.438C91.203,13.984,91.143,11.104,92.789,11.025z"/>
		<path class="st1" d="M82.622,12.171c-0.488,1.133-2.924,0.342-2.864-0.858C80.613,11.154,82.191,11.436,82.622,12.171z"/>
		<path class="st1" d="M177.988,13.316c-0.453,0.197-0.479,0.031-1.002,0c0.064-0.82-0.205-1.087,0-1.718
			c1.106-1.11,2.136,0.467,1.288,1.575l-0.215-0.071L177.988,13.316z"/>
		<path class="st1" d="M178.251,13.531l0.167-0.215c0.443,0.034,0.446,0.509,0.572,0.859l-0.256-0.051l-0.174,0.194
			c-0.299,0.061-0.379-0.099-0.572-0.144c0-0.238,0-0.478,0-0.716L178.251,13.531z"/>
		<path class="st1" d="M178.823,14.534l0.167-0.215c0.478,0.096,0.777,0.368,0.717,1.002c-0.401,0.165-0.745,0.165-1.146,0
			c-0.044-0.334-0.279-0.591,0-0.858L178.823,14.534z"/>
		<path class="st1" d="M81.906,13.604c-1.213,1.91-2.937-0.432-4.01-0.859c-1.209-0.482-2.799-0.345-4.009-0.286
			c-0.017-1.406,1.836-1.113,2.721-1.003c1.652,0.207,3.18,1.584,4.152,2.148C81.143,13.604,81.524,13.604,81.906,13.604z"/>
		<path class="st1" d="M57.563,12.888c0.075,1.318-1.665,1.151-2.435,0.858c0-0.382,0-0.764,0-1.146
			C55.928,11.729,56.973,12.153,57.563,12.888z"/>
		<path class="st1" d="M167.821,12.744c-0.103,0.852-0.72,1.189-1.575,1.289c-0.08-0.206-0.223-0.35-0.43-0.43
			C165.565,11.957,167.106,12.033,167.821,12.744z"/>
		<path class="st1" d="M172.547,12.171c2.622,0.431-0.209,2.948-0.716,1.146C171.633,12.611,172.178,12.591,172.547,12.171z"/>
		<path class="st1" d="M63.435,13.174c-0.202,1.483-2.378,1.35-2.291-0.286C61.48,12.001,63.097,12.453,63.435,13.174z"/>
		<path class="st1" d="M70.021,12.314c1.378,1.126-1.05,2.512-1.719,1.146C68.377,12.58,68.932,12.18,70.021,12.314z"/>
		<path class="st1" d="M140.472,14.319c-0.233-0.34-0.317-0.828-0.43-1.289C141.859,10.742,143.54,14.992,140.472,14.319z"/>
		<path class="st1" d="M156.51,12.744c-0.07,0.933-0.709,1.296-1.575,1.432C153.467,13.28,155.452,11.588,156.51,12.744z"/>
		<path class="st1" d="M9.308,14.033c-0.712-1.845,1.779-1.928,1.575-0.573C10.794,14.045,10.069,14.317,9.308,14.033z"/>
		<path class="st1" d="M43.101,12.888c0.389,1.384-1.255,1.798-2.004,1.146C40.491,12.881,42.308,11.795,43.101,12.888z"/>
		<path class="st1" d="M106.392,13.604c0.378-2.483,2.925,0.057,1.146,0.572C106.867,14.37,106.84,13.908,106.392,13.604z"/>
		<path class="st1" d="M149.923,12.458c1.693-0.095,1.511,1.816,0.43,1.861C149.586,14.352,148.959,13.05,149.923,12.458z"/>
		<path class="st1" d="M161.234,13.174c-0.087,1.066-1.181,1.13-1.861,0.572C158.805,11.953,161.012,12.302,161.234,13.174z"/>
		<path class="st1" d="M21.192,12.888c-0.12,0.929-0.24,1.859-1.575,1.575c-0.48-0.467-0.48-1.252,0-1.719
			C20.305,12.792,20.817,12.376,21.192,12.888z"/>
		<path class="st1" d="M24.629,14.033c-0.675-1.701,1.558-1.811,1.719-0.717C26.457,14.064,25.484,14.591,24.629,14.033z"/>
		<path class="st1" d="M31.789,13.03c0,0.286,0,0.573,0,0.859c-0.36,0.451-0.912,0.711-1.719,0.716
			C28.684,13.538,30.968,11.914,31.789,13.03z"/>
		<path class="st1" d="M38.376,13.174c0.124,1.107-1.296,1.339-2.148,1.002C35.262,12.583,37.846,12.09,38.376,13.174z"/>
		<path class="st1" d="M50.261,12.744c1.06,1.513-1.498,2.302-1.719,1.002C48.435,13.111,49.267,12.273,50.261,12.744z"/>
		<path class="st1" d="M111.833,12.888c0.124,1.078-0.438,1.471-1.432,1.432c-0.08-0.206-0.224-0.35-0.43-0.43
			C109.633,12.631,111.176,12.26,111.833,12.888z"/>
		<path class="st1" d="M116.845,12.744c0.22,0.406,0.394,0.942,0.144,1.432c-0.682,0.256-1.995,0.28-2.147-0.43
			C114.956,12.877,115.835,12.272,116.845,12.744z"/>
		<path class="st1" d="M121.428,13.746c-0.54,0.651-1.938,0.773-2.292-0.143C119.275,12.316,121.502,12.326,121.428,13.746z"/>
		<path class="st1" d="M126.439,13.316c0.031,1.013-1.461,1.279-2.148,0.717C124.313,12.715,125.914,12.248,126.439,13.316z"/>
		<path class="st1" d="M131.88,12.888c0.625,1.373-1.622,2.398-2.004,1.146C129.637,13.25,130.86,12.026,131.88,12.888z"/>
		<path class="st1" d="M147.202,13.03c-0.07,1.169-1.554,1.973-2.291,0.859C144.728,12.569,146.516,12.229,147.202,13.03z"/>
		<path class="st1" d="M76.608,14.319c-0.658-0.105-1.118-0.409-1.289-1.003C76.022,11.942,78.149,13.579,76.608,14.319z"/>
		<path class="st1" d="M136.892,13.316c-0.295,0.674-0.864,1.294-1.718,1.003C133.815,13.151,136.283,11.995,136.892,13.316z"/>
		<path class="st1" d="M15.465,13.174c0.298,0.832-0.17,1.474-1.146,1.432C13.196,13.854,13.904,12.06,15.465,13.174z"/>
		<path class="st1" d="M181.854,16.467c-0.398,0.259-1.493,0.224-1.719-0.143c-0.178-0.99,0.521-1.104,0.717-1.719
			C181.815,14.586,182.008,15.814,181.854,16.467z"/>
		<path class="st1" d="M6.587,17.326c-0.191,0-0.382,0-0.573,0C5.901,16.775,6.699,16.775,6.587,17.326z"/>
		<path class="st1" d="M179.707,17.184c0.129,1.179-0.229,1.871-1.289,1.861C177.587,18.181,178.54,16.5,179.707,17.184z"/>
		<path class="st1" d="M6.587,18.901c0,0.382,0,0.764,0,1.146c-0.489,0.28-0.537,0.522-1.146,0.43
			C3.78,20.223,5.146,17.084,6.587,18.901z"/>
		<path class="st1" d="M6.443,20.62c-0.238,0.284,0.014,0.182,0,0.572C6.013,21.415,6.013,20.397,6.443,20.62z"/>
		<path class="st1" d="M179.707,21.336c0.17,1.09-0.4,1.786-1.003,1.718C177.253,22.89,178.09,20.041,179.707,21.336z"/>
		<path class="st1" d="M6.587,24.486c-0.125,0.877-0.346,1.658-1.432,1.574C3.867,24.814,5.653,22.744,6.587,24.486z"/>
		<path class="st1" d="M179.277,25.774c0.328,0.476,0.427,1.562,0,2.005c-0.382,0-0.764,0-1.146,0
			C177.365,26.968,177.805,25.538,179.277,25.774z"/>
		<path class="st1" d="M6.443,29.498c0.65,0.972,0.133,2.516-1.288,2.291C4.354,30.9,4.918,29.29,6.443,29.498z"/>
		<path class="st1" d="M178.561,30.07c1.456,0.167,0.885,2.056,0,2.005C177.683,32.025,177.676,30.454,178.561,30.07z"/>
		<path class="st1" d="M6.301,34.51c0.376,0.925-0.142,2.012-0.859,2.004C4.057,36.501,4.353,33.276,6.301,34.51z"/>
		<path class="st1" d="M179.134,35.655c0.212,0.313,0.279,0.771,0.573,1.002c-0.323,0.537-0.479,1.24-1.289,1.289
			C177.39,37.487,177.626,35.481,179.134,35.655z"/>
		<path class="st1" d="M6.73,40.094c0.006,2.174-2.559,3.002-2.005-0.286C5.393,39.342,6.396,39.289,6.73,40.094z"/>
		<path class="st1" d="M179.707,42.671c-0.201,0.851-0.464,1.638-1.433,1.719C176.957,43.499,179.063,41.164,179.707,42.671z"/>
		<path class="st1" d="M5.155,48.112c-0.4-0.363-0.196-1.331-0.43-1.861C6.447,44.527,7.75,48.423,5.155,48.112z"/>
		<path class="st1" d="M177.845,51.692c-0.374-0.993,0.013-2.258,0.859-2.147C179.933,49.703,179.603,52.451,177.845,51.692z"/>
		<path class="st1" d="M6.014,52.695c0.667,0.502,0.52,1.941-0.286,2.147C4.6,54.688,4.214,52.396,6.014,52.695z"/>
		<path class="st1" d="M179.42,56.418c-0.054,0.757-0.145,1.478-0.859,1.575C177.113,57.688,178.247,55.261,179.42,56.418z"/>
		<path class="st1" d="M5.155,60.714c-0.416-0.396-0.68-0.944-0.573-1.861C6.301,57.182,7.527,60.771,5.155,60.714z"/>
		<path class="st1" d="M179.134,61.716c0.565,0.589,0.511,1.855-0.286,2.148C177.362,63.798,177.727,61.572,179.134,61.716z"/>
		<path class="st1" d="M6.301,63.864c0.51,1.068-0.287,1.96-1.003,1.861C3.695,65.503,4.722,62.42,6.301,63.864z"/>
		<path class="st1" d="M178.704,69.162c-0.669,0.096-0.823-0.322-1.146-0.573C177.848,65.643,180.602,67.858,178.704,69.162z"/>
		<path class="st1" d="M5.441,72.025c-0.392-0.133-0.61-0.438-1.002-0.572C4.123,67.291,8.423,70.94,5.441,72.025z"/>
		<path class="st1" d="M179.707,71.883c-0.042,0.896-0.23,1.556-0.859,1.575C177.159,73.51,178.262,70.336,179.707,71.883z"/>
		<path class="st1" d="M181.568,74.89c0.119,1.026-0.562,1.253-1.433,1.289c1.193,0.238,1.978,0.886,2.578,1.718
			c0.115,2.335-1.886,3.781-3.866,2.435c-0.704-0.479-1.064-1.506-1.146-2.291c-1.268,0.406,0.267,1.146-0.144,1.861
			c-0.695,0.157-1.795-0.228-2.147-0.859c0.178-0.347,0.354-0.695,0.43-1.146c1.19-0.002,1.118-1.268,2.147-1.432
			c0.27,0.208,0.018,0.938,0.286,1.146c0.679-0.037,0.374-1.059,1.146-1.002c-0.027-0.498-0.506-0.544-0.572-1.003
			C179.155,73.898,180.82,74.885,181.568,74.89z M179.134,78.612c0.405,0.408,0.61,0.366,1.146,0.43
			c0.063,0.271-0.194,0.863,0.286,0.716c0.578-0.869-0.772-1.037-1.002-1.574c0.159-0.271,0.357-0.503,0.43-0.859
			C179.256,77.303,179.502,78.266,179.134,78.612z"/>
		<path class="st1" d="M144.911,77.754c-0.521,0.344-1.485,0.112-1.719-0.287c0.171-0.764-0.134-1.158,0.286-1.718
			C144.539,75.834,144.894,76.625,144.911,77.754z"/>
		<path class="st1" d="M94.364,76.608c-0.166,1.734-2.697,1.281-3.58,0.572C90.87,75.6,93.596,75.615,94.364,76.608z"/>
		<path class="st1" d="M76.895,76.321c0.268-0.086,1.244,0.084,1.289,0.859C78.313,79.454,74.47,77.105,76.895,76.321z"/>
		<path class="st1" d="M94.077,79.042c0.356-0.882,1.296-1.118,1.003-2.291c2.237-0.287,4.196-0.595,6.3,0
			c1.081-0.894,2.801-0.478,4.439-0.43c0.606,1.268-1.453,0.87-1.861,1.575c0.431,0.429,1.553,0.165,1.575,1.003
			c-0.232,0.245-0.6,0.355-1.146,0.286c-0.368,0.014-0.205,0.559-0.573,0.572c0.868,0.428,0.821,0.891,1.289,1.719
			c-0.977,0.579-1.939-0.509-2.721-0.144c-0.279,0.592,0.15,1.06,0.286,1.862c-0.829,0.371-1.81-0.29-2.147,0.572
			c-1.201-0.471-2.563-0.779-2.864-2.147c0.299-0.282,0.951-0.11,1.289,0c0.41-0.283-0.72-0.224-0.43-0.859
			c0.481-0.187,1.141-0.196,1.432-0.573c0.099-0.385-0.296-0.276-0.43-0.43c0.367-0.926,0.978-0.096,1.719-0.429
			c-0.071-0.407-0.749-0.207-0.573-0.859c0.185-0.197,0.622-0.142,1.003-0.144c0.108-0.538-0.761-0.099-0.573-0.716
			c-1.234,0.284-2.648-0.144-3.723-0.144c0.336,0.857,2.309,0.079,2.577,1.003c0.123,0.457-0.226,0.442-0.286,0.716
			c-0.927-0.22-1.863-0.428-2.864-0.573c0.335,0.812,1.313,0.978,1.433,2.005c-0.128,0.063-0.257,0.126-0.287,0.286
			c-1.062-0.131-1.365-1.021-2.147-1.432c-0.218,0.604,0.941,1.06,0.859,2.005c-1.382,0.361-1.835-1.396-2.435-2.291l0.071-0.215
			L94.077,79.042z"/>
		<path class="st1" d="M93.72,79.114l0.215,0.071c0.121,0.816,0.509,2.026,0.143,2.863c-1.338,0.012-1.106-2.782-0.716-3.579
			c0.449-0.067,0.404,0.359,0.573,0.572L93.72,79.114z"/>
		<path class="st1" d="M149.207,77.324c-0.555,0.515-1.612,0.177-2.148-0.144C146.764,75.726,149.611,75.85,149.207,77.324z"/>
		<path class="st1" d="M157.368,76.179c0.08,0.521,0.347,0.854,0.144,1.288c-0.582,0.543-1.679,0.243-1.861-0.43
			C155.598,76.126,156.459,76.128,157.368,76.179z"/>
		<path class="st1" d="M161.234,77.181c-0.36,0.781-1.788,0.712-2.004-0.144C159.434,75.975,161.241,75.92,161.234,77.181z"/>
		<path class="st1" d="M53.124,76.608c0.302,0.556,0.025,1.09-0.286,1.432c-0.794-0.018-1.742,0.119-2.005-0.43
			C50.789,76.479,52.354,76.049,53.124,76.608z"/>
		<path class="st1" d="M58.279,77.754c-0.96,0.435-2.601,0.903-3.007-0.287C55.486,76.057,58.503,75.803,58.279,77.754z"/>
		<path class="st1" d="M83.911,77.037c1.49-1.38,4.148-0.062,6.443-0.716c0.123,0.116,0.085,0.393,0.286,0.43
			c-0.067,0.601-0.555,0.782-0.859,1.146c0.115,0.587,0.59-0.074,0.859,0.287c-0.061,0.299,0.099,0.379,0.144,0.572
			c-0.881,1.076-1.998,1.916-3.437,2.435c-0.193-0.719,0.49-0.56,0.572-1.003c-0.696,0.107-1.307,0.682-1.861,0.144
			c0.115-0.362,0.59-0.365,0.859-0.573c-0.177-0.435-0.492,0.155-0.859,0c-0.184-0.188-0.184-0.527,0-0.716
			c-0.558,0.033-0.742-0.308-1.146-0.43c-0.093-0.522,0.097-0.763,0.286-1.002c-0.063-0.414-1.082,0.127-1.146-0.286l0.072-0.215
			L83.911,77.037z"/>
		<path class="st1" d="M83.696,77.252l0.215,0.072c-0.143,0.383-0.296,0.755-0.287,1.288c0.201,0.229,0.494,0.366,0.859,0.43
			c-0.092,0.569,0.182,0.773,0.43,1.003c0.145,0.717-0.642,0.504-0.716,1.002c0.806,0.123,0.883-0.703,1.575-0.286
			c0.104,0.438-0.146,0.521-0.144,0.859c0.343,0.325,0.527-0.314,1.146-0.144c0.093,0.522-0.097,0.763-0.286,1.002
			c0.83,0.178,1.041-0.422,1.575-0.143c0.037,0.419-0.324,0.439-0.286,0.859c0.517-0.056,0.359-0.786,1.146-0.573
			c0,0.286,0,0.573,0,0.859c0.337,0.003,0.421-0.247,0.858-0.144c0.39,1.04-0.438,2.021-0.572,3.007c-0.238,0-0.478,0-0.716,0
			c-0.048-0.334-0.173-0.591-0.286-0.858c-0.303,0.127-0.424,0.436-0.859,0.429c-0.089-0.388-0.599-0.356-0.573-0.858
			c-0.126-0.46,0.473-0.196,0.43-0.573c-0.854,0.2-1.515,0.169-2.721,0.286c-0.062-0.586,0.133-0.917,0.286-1.288
			c-0.574,0.173-1.705-0.132-2.291-0.716c0.139-0.721,0.85-0.869,1.146-1.433c-0.679-0.059-0.752,0.489-1.432,0.43
			c-0.114-0.268-0.239-0.524-0.286-0.859c-1.072,0.166-1.359-0.454-2.005-0.716c0.227-1.014,1.631-0.851,2.435-1.288
			c-0.801-0.218-1.673,0.046-2.435-0.43c-0.159-0.45-0.067-0.379,0.144-0.716c-0.037-0.298-0.63-0.039-0.717-0.287
			c0-0.238,0-0.477,0-0.716c1.359-0.06,3.807-0.629,4.439,0.286L83.696,77.252z"/>
		<path class="st1" d="M153.216,77.324c-0.284,0.653-1.698,0.524-1.861-0.144C151.262,75.982,153.471,76.045,153.216,77.324z"/>
		<path class="st1" d="M164.385,76.608c0,0.382,0,0.764,0,1.146c-0.471,0.455-1.515,0.313-1.861-0.144
			C162.199,76.306,163.666,76.013,164.385,76.608z"/>
		<path class="st1" d="M25.488,77.61c0.317-1.267,2.24-1.508,2.435-0.286C28.125,78.603,26.044,79.11,25.488,77.61z"/>
		<path class="st1" d="M45.679,78.184c-0.293-1.925,2.007-2.093,2.147-0.859C47.935,78.27,46.743,78.872,45.679,78.184z"/>
		<path class="st1" d="M62.575,76.465c1.224,0.964-0.511,2.438-1.432,1.289C61.083,76.787,61.583,76.379,62.575,76.465z"/>
		<path class="st1" d="M66.728,76.608c-0.021,0.355,0.225,0.442,0.286,0.716c0.055,0.836-1.439,0.932-1.861,0.43
			C64.89,76.589,65.877,76.22,66.728,76.608z"/>
		<path class="st1" d="M72.313,76.608c-0.023,0.452,0.38,0.479,0.286,1.002c-0.301,0.584-1.584,0.794-2.147,0.286
			c0-0.334,0-0.668,0-1.002C70.829,76.523,71.688,76.312,72.313,76.608z"/>
		<path class="st1" d="M131.737,76.465c0.233,0.435,0.631,0.705,0.572,1.432c-0.206,0.08-0.35,0.224-0.43,0.43
			C130.131,78.541,129.427,76.174,131.737,76.465z"/>
		<path class="st1" d="M140.328,76.895c0.152,1.244-1.968,1.594-2.004,0.286C138.62,76.699,139.967,76.017,140.328,76.895z"/>
		<path class="st1" d="M167.679,77.61c-0.291,0.772-1.405,0.861-2.005,0.286C165.427,76.222,167.678,76.068,167.679,77.61z"/>
		<path class="st1" d="M171.401,78.326c-0.824,0.061-1.098-0.43-1.432-0.859C170.3,75.666,172.425,77.048,171.401,78.326z"/>
		<path class="st1" d="M16.61,76.751c-0.022,0.481,0.462,0.89,0.43,1.146c-0.134,1.061-1.839,1.144-2.291,0.144
			C14.874,77.138,15.613,76.332,16.61,76.751z"/>
		<path class="st1" d="M22.338,77.181c0.438,1.392-1.541,1.781-2.291,1.003C20.164,76.774,21.345,76.301,22.338,77.181z"/>
		<path class="st1" d="M37.803,78.04c-0.641,0.51-1.691,0.529-2.147-0.144c0.158-0.271,0.183-0.677,0.286-1.002
			C36.925,76.494,38.098,76.489,37.803,78.04z"/>
		<path class="st1" d="M42.958,77.467c-0.342,1.458-2.194,1.292-2.435-0.143C40.785,76.289,42.58,76.66,42.958,77.467z"/>
		<path class="st1" d="M117.418,78.47c-0.968,0.061-1.394-0.421-1.432-1.289C116.787,75.896,118.302,77.268,117.418,78.47z"/>
		<path class="st1" d="M122.286,77.896c-0.283,0.415-1.578,0.415-1.861,0C120.284,76.487,122.589,76.043,122.286,77.896z"/>
		<path class="st1" d="M126.439,78.184c-0.331-0.338-0.783-0.555-0.717-1.289C126.999,75.688,128.334,78.136,126.439,78.184z"/>
		<path class="st1" d="M136.319,77.037c0,0.287,0,0.573,0,0.859c-0.681,0.495-1.899,0.301-2.147-0.43
			C134.498,76.552,135.542,76.518,136.319,77.037z"/>
		<path class="st1" d="M174.838,78.47c-0.968-0.178-2.179-0.112-2.147-1.289C173.8,76.063,175.656,77.119,174.838,78.47z"/>
		<path class="st1" d="M10.31,78.326c-0.852-2.023,2.476-1.946,2.291-0.572C12.496,78.534,11.295,78.655,10.31,78.326z"/>
		<path class="st1" d="M32.361,78.326c-0.705,0.529-1.812,0.319-2.005-0.286C29.857,76.476,33.167,76.224,32.361,78.326z"/>
		<path class="st1" d="M108.54,78.184c-0.447,0.431-1.574,0.372-1.861-0.144C106.294,76.201,108.958,76.531,108.54,78.184z"/>
		<path class="st1" d="M113.408,78.04c-0.421,0.262-1.182,0.404-1.718,0.144c0.022-0.167-0.032-0.255-0.144-0.287
			C111.257,76.253,113.779,76.518,113.408,78.04z"/>
		<path class="st1" d="M92.502,79.042c-0.141,1.441,0.188,2.473-0.43,3.437c-1.115-0.252-0.206-1.664-0.429-2.721
			c-1.295,0.28-0.822,2.328-2.291,2.435c-0.168-1.235,0.972-2.355,1.718-3.15C91.533,79.101,91.962,78.945,92.502,79.042z"/>
		<path class="st1" d="M94.507,85.486c-0.357,0.262-0.379,0.861-0.859,1.002c-0.355,0.022-0.442-0.225-0.716-0.286
			c-0.168,0.213-0.359,0.404-0.572,0.572c-0.616-0.339-0.76-1.15-0.859-2.005c-0.394,0.233-0.394,1.056,0,1.289
			c0.026,0.122-0.056,0.135-0.144,0.144c-0.524-0.793-0.573,0.676-1.432,0.43c-0.063-0.128-0.126-0.257-0.286-0.287
			c0.337-0.908,0.124-2.217,1.002-2.863c0.599-0.122,0.567,0.388,0.859,0.572c0.316-0.113,0.186-0.673,0.572-0.716
			c0.635-0.062,0.312,0.835,0.859,0.859c0.252-0.131,0.262-0.502,0.43-0.716c0.555-0.125,0.51,0.35,0.859,0.43l-0.071,0.215
			l0.071,0.215c-0.015,0.443,0.175,0.684,0.286,1.002l-0.215,0.071L94.507,85.486z"/>
		<path class="st1" d="M94.436,84.078l-0.215-0.167c0.059-0.389,0.681-0.591,1.002-0.287c0.239-0.143,0.102-0.662,0.43-0.716
			c0.555-0.124,0.51,0.35,0.859,0.43c0.383-0.226,0.136-0.512,0.573-0.859c1.042,0.407,2.821,1.222,2.147,2.435
			c-1.015-0.083-1.309-0.887-2.147-1.146c-0.143,0.462,1.203,1.167,0.572,2.147c-0.547,0.069-0.914-0.04-1.146-0.286
			c-0.178,0.348-0.384,0.667-0.716,0.859c-0.604-0.065-0.687-0.649-1.003-1.002l0.072-0.215l-0.215,0.071
			c-0.174-0.256-0.026-0.833-0.286-1.002L94.436,84.078z"/>
		<path class="st1" d="M86.918,7.303c0.129,0.253,0.32,0.443,0.572,0.573c0.349-0.117-0.283-0.755,0.144-1.003
			c0.671-0.146,0.814,0.236,1.146,0.43c0.254-0.128,0.183-0.581,0.716-0.43c1.19,0.958,1.438,2.857,2.291,4.152
			c-0.925,0.826-1.078,2.149-1.002,3.294c-1.192,0.293-2.397,0.208-4.01,0.286c-1.695,0.083-3.844,0.489-4.582-0.572
			c0.162-0.602,0.854-0.674,1.575-0.717c0.3-0.177-0.063-1.018,0.716-0.716c-0.012-0.561-0.775-0.369-1.146-0.572
			c-0.232-0.487-0.021-1.088,0.144-1.575c1.771-0.137,2.688,0.284,4.009,0.286c-0.712-0.528-2.308-0.174-2.291-1.432
			c0.14-0.004,0.111-0.176,0.144-0.286c0.706-0.406,1.16,0.128,1.861,0.143c-0.458-0.353-0.83-0.792-1.289-1.146
			c-0.553,0.298-1.463,0.232-2.291-0.43c-0.148-0.119-0.834-1.173-0.858-1.002c0.209-1.471,2.362,0.195,2.863,0.716
			c0.149-0.609-0.619-0.804-0.859-1.289c-0.211-0.429-0.139-0.99-0.286-1.574C86.038,3.982,87.49,6.081,86.918,7.303z"/>
		<path class="st1" d="M1.719,9.451c2.242,0,3.249,1.236,4.009,2.72c0.295-0.038,0.034-0.634,0.43-0.572
			c0.541-0.063,0.672,0.282,1.002,0.43c0.021,1.069-0.676,1.424-0.858,2.291c-0.854,0.005-0.722,0.997-1.575,1.002
			c-0.624-0.14-0.82-0.707-0.859-1.432C2.054,13.245,0.162,11.444,1.719,9.451z M2.435,10.739c0.869-0.058,1.118,0.505,1.718,0.716
			C3.984,10.908,2.885,10.087,2.435,10.739z M5.871,13.46c0.125-0.295-0.371-0.643-0.43-0.286
			C5.646,13.208,5.683,13.409,5.871,13.46z"/>
		<path class="st1" d="M7.017,76.465c-0.215,0.263-0.598,0.357-0.716,0.716c0.402,0.525,0.563-0.098,1.288,0
			c1.144,0.293,1.406,2.889-0.286,2.291c-0.793,0.878-1.468,1.874-3.007,2.005c-0.342-0.661-1.233-0.771-1.861-1.146
			c-0.584-1.415-0.221-2.849,1.002-3.437c-0.109-0.703-0.039-1.036,0.144-1.719c0.809-0.111,1.458-0.549,2.434-0.286
			C6.239,75.523,6.506,76.116,7.017,76.465z M3.58,79.472c0.309-0.326-0.287-0.555-0.43-0.859
			C2.885,78.896,2.938,79.667,3.58,79.472z M4.296,80.045c0.404,0.118,0.371-0.202,0.716-0.144c-0.087-0.343,0.18-1.039-0.144-1.146
			C4.627,79.135,4.537,79.666,4.296,80.045z"/>
		<g>
			<path class="st0" d="M182.499,9.737c-0.096,0.009-0.191,0.039-0.286,0.071"/>
			<path class="st2" d="M178.823,14.534c-0.03-0.145-0.055-0.277-0.089-0.409"/>
			<path class="st4" d="M178.251,13.531c-0.075-0.183-0.13-0.293-0.191-0.429"/>
			<path class="st5" d="M93.72,79.114c0.145,0.021,0.365-0.024,0.572-0.144"/>
			<path class="st3" d="M83.696,77.252c0.143-0.046,0.286-0.087,0.43-0.143"/>
			<path class="st6" d="M94.149,84.126c0.095-0.006,0.19-0.026,0.286-0.048"/>
			<path class="st5" d="M94.292,85.414c0.146,0.021,0.365-0.023,0.573-0.143"/>
		</g>
	</g>
</g>
</svg>
