<?xml version="1.0" encoding="utf-8"?>
<!-- Generator: Adobe Illustrator 14.0.0, SVG Export Plug-In . SVG Version: 6.00 Build 43363)  -->
<!DOCTYPE svg PUBLIC "-//W3C//DTD SVG 1.1//EN" "http://www.w3.org/Graphics/SVG/1.1/DTD/svg11.dtd">
<svg version="1.1" id="dashes_xA0_Image_1_" xmlns="http://www.w3.org/2000/svg" xmlns:xlink="http://www.w3.org/1999/xlink"
	 x="0px" y="0px" width="212.752px" height="89.323px" viewBox="11.368 11.098 212.752 89.323"
	 style="enable-background:new 11.368 11.098 212.752 89.323;" xml:space="preserve">
<style type="text/css">
<![CDATA[
	.st0{fill:#361313; fill-opacity: 1; stroke-opacity: 1;}
]]>
</style>
<g>
	<g>
		<path class="st0" d="M124.512,11.098c3.236,2.072,0.076,6.023-1.354,8.12C120.161,16.848,123.663,13.611,124.512,11.098z"/>
		<path class="st0" d="M72.542,11.369c0.271,0,0.541,0,0.813,0c0.834,1.633,0.949,6.052-1.083,6.496
			C70.501,16.841,72.547,13.772,72.542,11.369z"/>
		<path class="st0" d="M103.128,11.369c0.271,0,0.541,0,0.813,0c0.658,2.82,3.414,4.818,2.978,7.85
			c-1.438,0.354-1.197-0.968-2.166-1.083C104.75,15.222,102.477,14.166,103.128,11.369z"/>
		<path class="st0" d="M87.429,11.639c1.977,1.29,2.727,5.47,1.624,7.578C86.823,18.439,87.299,13.923,87.429,11.639z"/>
		<path class="st0" d="M54.677,11.91c0.67,0.233,0.802,1.003,1.354,1.354c-0.136,2.332-0.176,3.222,0,5.143
			C52.955,18.499,53.754,13.545,54.677,11.91z"/>
		<path class="st0" d="M149.955,12.722c1.739,0.245,2.066,1.903,1.896,4.06c0.666,0.973,1.223,2.194,0.813,3.519
			C149.488,20.172,149.961,15.135,149.955,12.722z"/>
		<path class="st0" d="M139.128,13.263c0.271,0,0.541,0,0.813,0c0.045,2.034,1.124,5.811-0.271,6.767
			C138.041,18.902,137.9,15.004,139.128,13.263z"/>
		<path class="st0" d="M163.488,13.805c1.39,0.506,2.094,1.695,2.166,3.519c0.065,0.476,0.466,0.617,1.083,0.542
			c-0.891,0.907,0.198,2.303-0.542,3.519C163.16,20.99,164.175,16.547,163.488,13.805z"/>
		<path class="st0" d="M43.579,14.075c2.074,1.19,3.522,5.535,2.707,7.85C43.813,20.879,44.22,16.953,43.579,14.075z"/>
		<path class="st0" d="M182.165,14.075c3.77,2.521-1.242,6.343-3.248,7.579C176.747,17.9,181.332,16.592,182.165,14.075z"/>
		<path class="st0" d="M198.406,15.699c-0.197,0.739,0.538,0.545,0.541,1.083c-0.804,2.625-2.582,4.275-5.413,4.873
			c-0.037-0.504-0.179-0.905-0.542-1.083c-0.044-0.856,0.72-0.905,0.542-1.896C195.452,17.978,195.908,15.818,198.406,15.699z"/>
		<path class="st0" d="M26.797,18.135c3.377-0.239,3.854,3.849,6.497,5.144c0.083,1.346-0.674,1.852-2.166,1.624
			c-0.59-0.493-0.493-1.673-1.083-2.166C29.035,21.153,26.164,20.524,26.797,18.135z"/>
		<path class="st0" d="M211.128,18.677c0.768-0.589,0.741,0.533,1.083,1.083c1.221,1.963-2.228,4.953-4.331,4.331
			C206.125,20.619,211.219,20.46,211.128,18.677z"/>
		<path class="st0" d="M17.594,31.398c2.58,0.947,5.25,1.965,8.12,1.895c0.493,1.049,0.585,1.883,0,2.978
			c-3.836-0.405-6.927-1.555-8.661-4.061C17.305,32.012,17.463,31.718,17.594,31.398z"/>
		<path class="st0" d="M220.331,32.481c0.133,3.461-5.771,5.255-9.474,4.061c0.861-1.296,2.64-1.523,4.06-2.166
			C216.647,33.594,217.749,32.556,220.331,32.481z"/>
		<path class="st0" d="M24.361,46.286c-2.299,0.087-8.174,0.158-9.744-2.166c0.909-0.873,2.771-0.671,4.06-0.541
			C20.902,43.803,23.929,44.698,24.361,46.286z"/>
		<path class="st0" d="M224.12,50.075c-0.211,1.796-4.142,3.344-6.496,3.519c-1.363,0.102-3.306,0.311-3.519-1.354
			C216.749,50.99,220.521,49.474,224.12,50.075z"/>
		<path class="st0" d="M14.617,56.3c2.627,0.621,6.252,0.244,6.767,2.979C18.297,60.343,14.555,59.86,14.617,56.3z"/>
		<path class="st0" d="M223.579,62.526c-0.652,3.811-5.791,3.816-9.203,2.707c1.191-1.786,4.239-1.715,6.768-2.165
			C221.702,62.654,222.729,61.812,223.579,62.526z"/>
		<path class="st0" d="M20.301,70.375c-1.281,1.517-2.47,3.125-5.143,3.249c-0.566-1.278-1.686-1.718-1.083-3.52
			C16.169,69.741,19.428,67.372,20.301,70.375z"/>
		<path class="st0" d="M213.293,75.519c3.33,0.531,6.223,0.741,8.662,1.624c-1.397,2.354-6.999,1.365-8.662,0
			C213.513,76.207,212.788,76,213.293,75.519z"/>
		<path class="st0" d="M19.218,80.662c0.464,1.021,0.41,1.146,0.541,2.165c-1.265-0.442-0.794,0.853-1.353,1.354
			c-1.372,1.23-3.809,1.331-5.414,2.437c-0.408-0.495-1.168-0.637-1.624-1.083c0.024-1.011,0.303-0.771,0-1.624
			C14.241,83.083,15.862,81.004,19.218,80.662z"/>
		<path class="st0" d="M218.437,92.03c-2.074,0.183-2.603-2.047-3.79-2.979c-0.656-0.514-1.673-0.851-2.437-1.353
			c-0.717-0.472-1.334-1.049-2.166-1.354c1.434-2.641,7.512,1.971,8.393,3.247c0.347,0.504,0.351,1.193,0.541,1.624
			C218.725,91.417,218.567,91.71,218.437,92.03z"/>
		<path class="st0" d="M124.512,89.594c1.237,0.114,1.789,0.916,2.436,1.624c-0.631,2.799-0.677,6.182-2.707,7.579
			C120.379,98.254,124.604,92.921,124.512,89.594z"/>
		<path class="st0" d="M162.947,89.594c2.051,0.746,3.222,2.372,4.061,4.331c0.674,0.744,2.057,1.386,1.354,2.706
			c-3.281-0.508-3.648-3.931-5.414-5.955C162.496,90.139,162.972,90.333,162.947,89.594z"/>
		<path class="st0" d="M176.481,89.594c0.313-0.044,0.48,0.061,0.541,0.271c1.793,1.631,3.253,3.729,4.872,5.955
			c0.663,0.911,1.727,2.105,1.354,3.248c-1.946-0.329-3.671-2.801-4.872-4.603C177.194,92.694,175.855,91.113,176.481,89.594z"/>
		<path class="st0" d="M191.639,89.594c0.932,0.605,1.202,1.78,1.896,2.706c0.841,1.127,2.721,2.004,1.896,3.79
			C192.417,95.61,191.053,92.055,191.639,89.594z"/>
		<path class="st0" d="M150.767,89.865c2.455,1.082,3.234,5.223,2.978,8.12C151.209,96.954,150.513,92.8,150.767,89.865z"/>
		<path class="st0" d="M202.737,89.865c0.313-0.044,0.48,0.06,0.541,0.271c0.854,2.213,2.711,3.426,3.248,5.955
			c0.585,1.22,1.813,1.797,1.895,3.52c-0.46-0.101-0.511,0.211-0.541,0.541c-2.896-1.162-2.991-5.128-5.143-7.037
			C203.132,91.791,202.095,91.434,202.737,89.865z"/>
		<path class="st0" d="M110.436,90.135c2.578,0.879,1.348,4.567,0,5.955c-0.148,1.837-0.813,3.157-1.896,4.061
			c-0.729,0.532-1.295-0.909-1.624-1.624C108.215,95.327,108.413,92.183,110.436,90.135z"/>
		<path class="st0" d="M136.421,90.948c3.032-0.032,2.694,4.672,2.166,7.308C135.732,97.808,136.364,93.55,136.421,90.948z"/>
		<path class="st0" d="M28.962,91.218c0.624-0.083,0.302,0.782,0.813,0.813c-0.063,2.194-1.878,3.09-3.248,4.602
			c-0.777,0.858-1.046,2.457-2.437,2.166c-1.77-1.218,0.417-1.756,1.896-3.79C27.113,93.456,27.224,91.724,28.962,91.218z"/>
		<path class="st0" d="M41.414,91.218c1.225,0.039,1.413,1.113,2.166,1.624c-0.66,2.407-1.754,4.382-2.978,6.227
			c-1.063-0.021-1.494-0.672-2.166-1.083C38.431,94.732,41.256,94.308,41.414,91.218z"/>
		<path class="st0" d="M77.955,99.068c-0.975,0.072-1.305-0.5-2.166-0.542c0.413-2.66,2.052-4.267,1.896-6.768
			C81.337,91.408,78.785,97.442,77.955,99.068z"/>
		<path class="st0" d="M92.03,92.03c2.662,2.197-0.371,9.337-3.249,6.768C89.466,96.143,91.256,94.595,92.03,92.03z"/>
		<path class="st0" d="M62.256,92.842c1.645,0.069,1.813,1.616,2.707,2.437c-0.846,1.681-1.104,3.949-2.436,5.144
			c-0.764-0.139-1.149-0.654-1.896-0.813C60.431,97.587,61.58,94.86,62.256,92.842z"/>
	</g>
</g>
</svg>
