<?xml version="1.0" encoding="utf-8"?>
<!-- Generator: Adobe Illustrator 14.0.0, SVG Export Plug-In . SVG Version: 6.00 Build 43363)  -->
<!DOCTYPE svg PUBLIC "-//W3C//DTD SVG 1.1//EN" "http://www.w3.org/Graphics/SVG/1.1/DTD/svg11.dtd">
<svg version="1.1" id="Layer_2" xmlns="http://www.w3.org/2000/svg" xmlns:xlink="http://www.w3.org/1999/xlink" x="0px" y="0px"
	 width="216px" height="5.759px" viewBox="0 0 216 5.759" style="enable-background:new 0 0 216 5.759;" xml:space="preserve">
<style type="text/css">
<![CDATA[
	.st0{fill:#361313; fill-opacity: 1; stroke-opacity: 1}
]]>
</style>
<path class="st0" d="M121.653,3.015c0.025-0.128,0.036-0.26,0.03-0.395c-0.027-0.632-0.411-1.266-1.004-1.655
	c-0.85-0.558-1.803-0.689-2.79-0.568c-0.86-0.469-1.784-0.416-2.818-0.365l-0.123,0.018c-1.505,0.161-2.817,0.664-4,1.339
	c-0.231-0.216-0.438-0.445-0.639-0.683l-0.003,0.004c0,0-0.317-0.36-0.494-0.61h-0.968c0,0-0.848,0.692-1.238,1.015
	c-0.251-0.318-0.47-0.687-0.65-1.013l-1.419-0.001l-0.056,0.046c-0.361,0.293-0.706,0.606-1.044,0.915
	c-1.704-0.79-3.559-1.177-5.205-0.853c-0.519,0.103-1.102,0.396-1.576,0.767c-1.2,0.045-2.081,0.294-2.678,0.765
	c-0.417,0.329-0.64,0.779-0.652,1.275H0v0.5h94.388c0.134,0.493,0.464,0.956,0.933,1.264c0.851,0.559,1.807,0.69,2.795,0.568
	c0.525,0.285,1.119,0.412,1.736,0.412c0.394,0,0.73,0.007,1.128-0.077l0.072,0.011c1.51-0.16,2.826-0.665,4.012-1.345
	c0.336,0.303,1.078,1.207,1.144,1.295h0.947c0,0,0.868-0.707,1.266-1.038c0.252,0.318,0.471,0.641,0.651,0.965l0.034,0.071
	l1.355,0.001c0,0,0.757-0.646,1.093-0.954c1.278,0.598,2.646,0.966,3.957,0.966c0.426,0,0.847-0.039,1.256-0.12
	c0.519-0.103,1.102-0.396,1.576-0.767c1.2-0.044,2.08-0.294,2.678-0.764c0.272-0.214,0.456-0.483,0.561-0.78v0.291H216v-0.5H121.653
	z M112.701,1.435c1.246-0.731,3.052-1.326,4.462-0.904c-1.058,0.249-2.133,0.73-3.143,1.247c-0.516,0.264-0.993,0.555-1.447,0.868
	c-0.252-0.164-0.501-0.339-0.748-0.525c-0.032-0.024-0.061-0.047-0.093-0.071C112.048,1.838,112.367,1.631,112.701,1.435z
	 M109.341,0.984c0.128-0.118,0.255-0.234,0.381-0.35c0.272,0.357,0.551,0.671,0.865,0.973c-0.516,0.318-1.011,0.663-1.482,1.031
	c-0.278-0.233-0.541-0.475-0.787-0.724C108.667,1.603,109.007,1.29,109.341,0.984z M106.249,0.779l0.398-0.356
	c0.184,0.321,0.399,0.64,0.643,0.952c-0.316,0.263-0.632,0.524-0.947,0.778c-0.31-0.215-0.632-0.416-0.963-0.604
	C105.669,1.296,105.957,1.041,106.249,0.779z M99.311,0.608c0.379-0.075,0.768-0.11,1.165-0.11c1.197,0,2.454,0.324,3.643,0.854
	c-0.365,0.336-0.736,0.676-1.131,1.003c-1.494-0.846-3.053-1.309-4.6-1.377C98.697,0.801,99.021,0.666,99.311,0.608z M95.545,4.439
	c-0.485-0.318-0.8-0.829-0.821-1.331c-0.012-0.287,0.066-0.702,0.506-1.048c0.439-0.346,1.097-0.561,1.952-0.645
	C97.115,1.488,97.053,1.563,97,1.638c-0.312,0.437-0.412,1.036-0.281,1.687c0.126,0.636,0.456,1.238,0.877,1.648
	C96.865,4.995,96.167,4.849,95.545,4.439z M98.178,4.922c-0.496-0.308-0.921-0.982-1.061-1.677c-0.108-0.54-0.032-1.026,0.213-1.37
	c0.122-0.17,0.291-0.339,0.482-0.499c0.021,0,0.04-0.002,0.06-0.002c0.048-0.001,0.095-0.001,0.143-0.001
	c1.546,0,3.119,0.43,4.628,1.258c-0.174,0.135-0.354,0.267-0.54,0.393c-1.026,0.698-1.768,1.202-2.879,1.652l0.006,0.015
	c-0.353,0.106-0.704,0.185-1.05,0.235C98.181,4.924,98.179,4.923,98.178,4.922z M103.298,4.31c-1.245,0.73-3.05,1.326-4.46,0.904
	c1.057-0.248,2.133-0.73,3.143-1.247c0.516-0.264,0.993-0.555,1.446-0.868c0.252,0.164,0.502,0.339,0.749,0.525
	c0.032,0.024,0.062,0.047,0.093,0.071C103.953,3.907,103.633,4.114,103.298,4.31z M104.623,3.455
	c-0.067-0.051-0.132-0.102-0.203-0.155c-0.21-0.159-0.423-0.31-0.637-0.453c0.441-0.323,0.862-0.665,1.277-1.02
	c0.328,0.183,0.651,0.375,0.958,0.585C105.563,2.773,105.101,3.121,104.623,3.455z M106.663,4.759
	c-0.122,0.111-0.242,0.221-0.362,0.332c-0.282-0.37-0.563-0.675-0.872-0.961c0.52-0.321,1.018-0.669,1.492-1.04
	c0.28,0.231,0.542,0.473,0.789,0.721C107.352,4.127,107.003,4.445,106.663,4.759z M108.016,3.548
	c-0.244-0.245-0.501-0.483-0.776-0.713c0.262-0.212,0.511-0.432,0.763-0.651c0.24,0.247,0.496,0.488,0.768,0.72
	C108.511,3.114,108.264,3.332,108.016,3.548z M109.752,4.965l-0.369,0.331c-0.184-0.319-0.4-0.635-0.648-0.945
	c0.308-0.255,0.616-0.51,0.922-0.758c0.308,0.217,0.631,0.417,0.96,0.606C110.329,4.45,110.042,4.705,109.752,4.965z M110.954,3.906
	c-0.327-0.183-0.646-0.379-0.951-0.589c0.449-0.355,0.905-0.699,1.376-1.028c0.065,0.052,0.131,0.104,0.201,0.156
	c0.21,0.159,0.424,0.311,0.638,0.453C111.78,3.217,111.364,3.555,110.954,3.906z M116.689,5.136
	c-1.513,0.298-3.215-0.043-4.796-0.755c0.361-0.332,0.729-0.669,1.12-0.992c1.493,0.845,3.054,1.311,4.598,1.377
	C117.302,4.943,116.979,5.08,116.689,5.136z M118.188,4.368c-0.021,0-0.039,0.001-0.06,0.002c-1.594,0.024-3.216-0.403-4.771-1.256
	c0.174-0.135,0.353-0.266,0.537-0.392c1.027-0.698,1.77-1.203,2.882-1.654l-0.006-0.015c0.353-0.106,0.704-0.185,1.05-0.234
	c0.001,0,0.002,0,0.003,0.001c0.495,0.309,0.922,0.983,1.061,1.678c0.108,0.54,0.032,1.026-0.214,1.371
	C118.549,4.041,118.379,4.208,118.188,4.368z M120.771,3.685c-0.44,0.346-1.097,0.561-1.951,0.645
	c0.065-0.073,0.127-0.148,0.181-0.223c0.312-0.437,0.412-1.035,0.281-1.687c-0.126-0.636-0.455-1.239-0.877-1.649
	c0.73-0.021,1.428,0.125,2.052,0.535c0.483,0.318,0.798,0.829,0.819,1.332C121.289,2.924,121.211,3.339,120.771,3.685z"/>
</svg>
