<?xml version="1.0" encoding="utf-8"?>
<!-- Generator: Adobe Illustrator 14.0.0, SVG Export Plug-In . SVG Version: 6.00 Build 43363)  -->
<!DOCTYPE svg PUBLIC "-//W3C//DTD SVG 1.1//EN" "http://www.w3.org/Graphics/SVG/1.1/DTD/svg11.dtd">
<svg version="1.1" id="Layer_1" xmlns="http://www.w3.org/2000/svg" xmlns:xlink="http://www.w3.org/1999/xlink" x="0px" y="0px"
	 width="207.91px" height="4.99px" viewBox="0 0 207.91 4.99" style="enable-background:new 0 0 207.91 4.99;" xml:space="preserve"
	>
<style type="text/css">
<![CDATA[
	.st0{fill:#361313; fill-opacity: 1; stroke-opacity: 1;}
]]>
</style>
<path class="st0" d="M207,2.014c-2.338,2.208-7.102,2.208-9.439,0c-2.842-2.685-8.419-2.685-11.261,0
	c-2.338,2.208-7.102,2.207-9.439,0c-2.842-2.685-8.419-2.684-11.261,0c-2.338,2.209-7.102,2.208-9.439,0
	c-2.842-2.686-8.418-2.685-11.26,0c-2.337,2.207-7.102,2.207-9.44,0c-2.842-2.685-8.418-2.684-11.26,0
	c-2.338,2.207-7.103,2.207-9.44,0c-2.842-2.686-8.418-2.685-11.26,0c-2.337,2.208-7.102,2.209-9.44,0
	c-2.841-2.685-8.418-2.684-11.26,0c-2.337,2.208-7.102,2.208-9.439,0c-2.842-2.683-8.418-2.684-11.26,0
	c-2.337,2.208-7.101,2.209-9.44,0c-2.84-2.685-8.418-2.685-11.26,0c-2.337,2.209-7.102,2.208-9.44,0
	c-2.842-2.684-8.419-2.684-11.259,0c-2.338,2.207-7.103,2.208-9.44,0C8.418-0.671,2.842-0.67,0,2.014l0.91,0.963
	c2.338-2.208,7.103-2.208,9.44,0c2.842,2.684,8.418,2.684,11.26,0c2.338-2.208,7.101-2.208,9.44,0c2.841,2.683,8.418,2.684,11.26,0
	c2.339-2.208,7.103-2.208,9.44,0c1.421,1.342,3.525,2.014,5.63,2.014c2.104,0,4.209-0.672,5.63-2.014
	c2.339-2.207,7.103-2.207,9.44,0c2.842,2.684,8.418,2.684,11.26,0c2.339-2.207,7.103-2.207,9.44,0c2.842,2.686,8.418,2.684,11.26,0
	c2.338-2.209,7.102-2.209,9.439,0c2.843,2.685,8.42,2.684,11.261,0c2.338-2.208,7.102-2.208,9.439,0
	c2.843,2.685,8.42,2.684,11.261,0c2.338-2.209,7.102-2.209,9.439,0c2.842,2.685,8.418,2.684,11.26,0c2.338-2.209,7.103-2.208,9.44,0
	c2.842,2.684,8.418,2.684,11.26,0c2.337-2.208,7.102-2.209,9.44,0c2.842,2.685,8.418,2.685,11.26,0L207,2.014z"/>
</svg>
