<?xml version="1.0" encoding="utf-8"?>
<!-- Generator: Adobe Illustrator 14.0.0, SVG Export Plug-In . SVG Version: 6.00 Build 43363)  -->
<!DOCTYPE svg PUBLIC "-//W3C//DTD SVG 1.1//EN" "http://www.w3.org/Graphics/SVG/1.1/DTD/svg11.dtd">
<svg version="1.1" id="Layer_1" xmlns="http://www.w3.org/2000/svg" xmlns:xlink="http://www.w3.org/1999/xlink" x="0px" y="0px"
	 width="675.36px" height="111.434px" viewBox="0 0 675.36 111.434" style="enable-background:new 0 0 675.36 111.434;"
	 xml:space="preserve">
<style type="text/css">
<![CDATA[
	.st0{fill-rule:evenodd;clip-rule:evenodd;fill:#361313; fill-opacity: 1; stroke-opacity: 1;}
]]>
</style>
<path class="st0" d="M506.161,4.862c3.681,0.789,7.786,2.196,11.52,2.16c0.711,0.729,1.774,1.105,2.88,1.44
	c0.837-0.124,0.353-1.568,0.48-2.4c-0.722-0.242-0.426,0.535-0.48,0.96c-0.479,0-0.96,0-1.439,0
	c-0.938-0.662-2.175-1.026-2.881-1.92c-0.677-0.037-0.602,0.679-0.96,0.96c-2.025,0.346-2.626-0.734-3.359-1.68
	c0.124-1.396,1.045-1.995,1.68-2.88c0.523-0.021,1.553,0.657,1.68,0.24c0.606,0.936-1.55,1.162-1.439,2.4
	c0.17,0.63,0.521,1.079,1.439,0.96c0.739-0.221,0.96-0.96,1.44-1.44c1.328,0.352,2.041,1.319,3.12,1.92
	c0.436-1.003-0.938-2.257-1.2-3.36c1.119-0.304,4.389,0.494,5.521-0.48c0.432,0.368,0.72,0.88,0.96,1.44
	c0.339-2.307,3.315-2.861,5.52-1.92c0.19,0.83-0.267,1.013-0.479,1.44c-0.909-0.291-1.709-0.691-2.16-1.44
	c-1.704-0.244-1.494,2.985-0.48,3.36c1.024-0.175,1.047-1.353,2.641-0.96c0,0.48,0,0.96,0,1.44c-2.017,0.544-5.244-0.124-4.32,3.36
	c1.978,0.474,4.227-2.028,4.8,0c-1.428-0.068-2.093,0.626-2.88,1.2c0.969,1.863,3.685,0.063,4.8-0.24
	c0.003-0.638-0.091-1.371,0.24-1.68c1.971,0.051,1.855-1.985,4.08-1.68c-0.347,0.934-1.079,1.481-1.44,2.4
	c-1.499-0.14-1.995,0.725-2.399,1.68c0.29,1.63,2.526,1.313,3.12,2.64c0.304-0.416,0.811-0.629,0.72-1.44
	c-0.549-0.572-0.541-1.7-0.48-2.88c0.623-0.737,1.766-0.955,2.4-1.68c-1.035-1.125-1.837-2.483-3.36-3.12
	c0.326-1.446-0.558-1.682-0.479-2.88c1.312,0.127,1.592,1.288,2.88,1.44c-0.811,0.796,0.15,2.081,1.2,2.4
	c0.536-0.103,0.097-1.183,0.239-1.68c0.743,0.057,0.933,0.667,1.44,0.96c-0.142,1.218-1.119,1.601-1.44,2.64
	c0.991,1.39,2.034-0.675,3.36-0.48c0.096,1.616-0.37,2.67-0.96,3.6c0.271,0.289,0.685,0.435,0.48,1.2
	c0.735,0.233,2.674,0.513,3.359,0c0.242-0.722-0.535-0.425-0.96-0.48c0.999-1.206-0.093-2.213-0.479-3.36
	c1.203-1.337,1.87,0.658,3.119,0.72c0.202,0.278,0.317,0.644,0.24,1.2c1.119-0.079,1.25,0.83,2.641,0.48
	c0.385-0.335,0.255-1.185,0.72-1.44c0.64,0,1.28,0,1.92,0c-0.547,1.907,1.234,1.486,1.68,2.4c-2.252,0.09-3.177-0.857-4.56,0.48
	c1.71,0.369,4.646,0.563,5.28,0c0-0.4,0-0.8,0-1.2c-1.369-0.511-0.597-3.759-0.48-5.04c1.154-0.076,0.867-0.202,2.16-0.24
	c-0.861,1.378-2.133,2.347-1.68,5.04c1.039,0.239,1.331-0.269,1.92-0.48c-0.925-1.516,0.327-1.747,0.479-3.36
	c1.466-0.284,1.973-0.834,3.601-0.48c-0.288,1.072-2.469,0.252-2.16,1.92c-0.38,0.02-0.916-0.115-0.96,0.24
	c-0.248,1.127,1.12,0.639,0.96,1.68c-0.329,0.871-1.04,1.36-1.44,2.16c0.353,0.337,1.947-0.121,2.641-0.24
	c0.636,0.076-0.225-1.345,0.72-0.96c0.178-0.979-0.773-0.827-0.48-1.92c0.48,0,0.96,0,1.44,0c-0.447,1.474-0.174,1.019,0,2.64
	c1.514,0.006,3.135-0.095,4.32,0.24c-0.352-2.129-2.109-2.852-2.4-5.04c1.264,0.176,2.262,0.618,2.4,1.92
	c0.631,0.409,1.761,0.319,1.439,1.68c0.808-0.836,1.552,0.056,2.4,0.48c0.142,1.102-0.075,1.845-0.48,2.4
	c1.244,0.12,2.102-2.215,4.08-2.16c0.201-0.278,0.316-0.644,0.24-1.2c1.481,0.201,1.537-1.023,1.439-2.4
	c1.327,0.126,3.22-0.189,3.841,0c0.04,0.681-0.813,0.469-0.48,1.44c-0.592-0.031-1.156-0.036-1.44,0.24
	c0.568,0.552,2.154,0.086,3.12,0.24c2.216-1.686,2.736,2.129,5.04,1.92c0.107-1.388-1.363-1.197-1.439-2.4
	c-0.175-0.655,0.477-0.483,0.479-0.96c0.766-0.205,0.911,0.209,1.2,0.48c0.325-0.635,0.344-1.576,1.68-1.2
	c0.319,2.97-2.272,4.184-0.479,6c1.022-0.978,1.136-2.864,1.92-4.08c0.046-1.006-1.179-0.742-0.96-1.92c0.64,0,1.28,0,1.92,0
	c0.274,0.755-0.377,0.583-0.48,0.96c0.156,0.244,0.553,0.248,0.48,0.72c0.955-0.245,0.912-1.487,1.68-1.92
	c0.791,0.807-0.717,1.351-0.239,2.64c0.179,0.542,1.346,0.094,1.92,0.24c-0.335,2.095,1.898,1.621,2.399,2.88
	c0.621-0.631,2.093-0.706,1.92,0.72c0.637-0.003,1.413,0.133,1.44-0.48c-0.062-0.498-1.055-0.065-1.2-0.48
	c-0.306-1.614-1.917-1.923-2.16-3.6c1.893-0.347,1.757-2.723,3.84-2.88c-0.431,1.169-0.968,2.232-1.439,3.36
	c0.619,0.98,1.447,1.753,1.92,2.88c2.997,0.223,9.324,1.06,9.12-3.36c-0.572,0.549-1.7,0.541-2.88,0.48
	c0.094-1.746,2.515-1.166,2.399-3.12c2.073,1.047,5.711,0.529,6.721,2.64c1.052-0.012,2.247-0.167,2.399,0.72
	c-0.5,2.686-2.6-0.071-4.32,0.24c-0.149-0.651-1.002-0.598-0.96-1.44c-0.56,0-1.12,0-1.68,0c-0.469,0.971-0.452,2.428-1.2,3.12
	c0.213,1.627,3.687-0.006,4.32,1.2c0.719-0.158-0.229-0.513,0-0.96c0.896-0.096,1.408,0.192,1.44,0.96
	c1.475-0.115,2.479,0.241,3.6,0.48c-0.432-0.717-1.38-2.227,0.24-2.4c0.271-1.711-0.552-2.329-0.96-3.36
	c0.449-0.078,2.431-0.078,2.88,0c-1.15,1.121,0.319,1.71,0.96,2.4c0.903-0.537,2.297-0.583,1.92-2.4c1,0.196,2.003-0.326,2.4,0
	c-0.522,1.878-2.204,2.597-2.881,4.32c-0.479,0-0.96,0-1.439,0c0.138,0.422-0.29,1.41,0.24,1.44c0.801,0.241,0.786-0.333,0.72-0.96
	c0.56,0,1.12,0,1.68,0c0.157-0.814,1.206-0.755,1.681-1.44c0.387-0.56,0.444-2.309,0.96-2.88c0.32-0.355,0.844-0.538,1.439-0.48
	c-0.326,1.447,0.475,1.766,0.48,2.88c0.479,0,0.96,0,1.439,0c0-0.8,0-1.6,0-2.4c0.802-0.002,1.174-1.156,1.92-0.48
	c0.242,0.722-0.534,0.425-0.96,0.48c0.071,0.889,0.344,1.577,1.44,1.44c-0.749,1.571-2.24,2.4-2.641,4.32
	c1.491-0.589,2.695-1.465,4.08-2.16c0.166-1.206-0.143-1.937-0.479-2.64c1.104-0.065,1.57,0.51,2.16,0.96
	c0.634-1.206,1.166-2.514,1.92-3.6c2.32-0.239,4.136-0.984,6.96-0.72c-0.263,1.063,0.406,1.193,0.479,1.92
	c1.264-0.303,1.423,0.497,2.4,0.48c-0.465,0.655-1.137,1.104-1.92,1.44c-0.149-0.651-1.003-0.598-0.96-1.44c-0.641,0-1.28,0-1.92,0
	c0.417,1.023,0.847,2.033,2.16,2.16c0.187,0.214,0.258,0.542,0.239,0.96c0.335,0.386,1.185,0.256,1.44,0.72
	c-0.267,1.546,0.318,2.241,0.479,3.36c1.743,0.025,2.292-2.196,1.44-3.36c0.32,0,0.64,0,0.96,0c0.362-1.323-0.646-1.275-0.48-2.4
	c0.48,0,0.961,0,1.44,0c-0.204,0.539,0.441,0.89,0.48,1.44c0.041,0.585-0.341,0.716-0.48,1.44c-0.248,1.283,0.501,3.095-0.479,3.6
	c0.332,0.547,1.67,0.089,2.399,0.24c0.251,1.749,2.463,1.537,2.64,3.36c0.694-0.106,1.095-0.506,1.2-1.2
	c0.114-0.753-0.646-0.634-0.72-1.2c-2.098-0.062-2.678-1.643-4.56-1.92c0.186-1.174,1.714-1.005,2.159-1.92
	c1.154-0.354,1.002,0.598,1.92,0.48c0.4-0.24,0.17-1.11,0.721-1.2c-0.741-1.267-2.618-0.5-3.84-0.24
	c-0.172-1.291,1.747-0.493,1.439-1.92c0.641,0,1.28,0,1.92,0c0.214,0.427,0.67,0.61,0.48,1.44c1.768-0.152,4.242,0.402,5.279-0.48
	c-0.405-0.555-0.621-1.298-0.479-2.4c-1.683-0.242-2.596,0.285-3.84,0.48c0.239-1.04-0.269-1.332-0.48-1.92
	c-0.556,0.584-2.457,0.849-2.399-0.48c1.48,0.441,0.648-1.431,1.68-1.44c1.319-0.119,1.031,1.37,2.64,0.96c0,0.48,0,0.96,0,1.44
	c0.4,0,0.801,0,1.2,0c0.408-0.631,0.319-1.761,1.68-1.44c0.497,1.264,0.572,2.948,0.48,4.8c1.248-0.032,1.691-0.869,1.92-1.92
	c0.063-0.784-0.932-0.509-0.96-1.2c-0.063-0.783,0.285-1.155,0.96-1.2c0.33-3.015-1.795-2.855-3.84-2.4
	c1.905-2.87,6.588-0.753,8.16,1.2c0.152,0.19,0.118,0.526,0.24,0.72c0.263,0.418,1.646,1.519,1.68,1.92
	c0.058,0.681-0.932,1.801-1.44,2.16c-0.101,1.621,1.066,1.974,2.16,2.4c0.244,0.716,0.385,1.536,0.72,2.16
	c-1.916,0.236-2.276-1.083-3.6-1.44c-0.697,1.265,0.558,2.637,2.16,2.4c0.326,1.446-0.475,1.766-0.48,2.88
	c-0.532,0.132-0.342-0.458-0.72-0.48c-1.45,0.727-0.323,2.345,0.48,2.88c0.61-1.069,0.762-2.598,2.159-2.88
	c0.092,2.331-0.769,3.711-2.399,4.32c0.25,0.68,0.25,1,0,1.68c-0.952-0.491-2.114-0.138-1.92,1.2c-1.473,0.705-3.013,0.43-4.561,0
	c-1.081,2.285,1.06,3.418,1.681,4.8c1.039,0.46,1.486-0.888,1.92-0.24c-0.354,1.167-1.791,1.249-1.92,2.64
	c0.51,0.93,1.147,1.732,2.88,1.44c-0.354,1.005,0.85,1.26,1.439,1.92c0.445,0.498,0.562,1.677,0.96,2.88c-0.319,0-0.64,0-0.96,0
	c0,0.8,0,1.6,0,2.4c-0.844-0.276-1.523-0.717-1.439-1.92c-0.603,0.198-2.066-0.466-1.92,0.48c-0.23,0.87,1.035,0.244,1.199,0.72
	c0.128,1.313,1.137,1.743,2.16,2.16c0.783,0.063,0.509-0.931,1.2-0.96c0.98,0.06,1.46,0.62,2.16,0.96
	c0.102,0.821-0.719,0.721-0.96,1.2c1.909,1.29,4.291,2.109,4.56,5.04c-1.469,0.929-2.819-1.177-3.6-2.4
	c-1.349-0.252-2.534-0.667-2.88-1.92c-1.942-0.298-2.926-1.554-4.32-2.4c0-0.64,0-1.28,0-1.92c-0.972-0.332-0.759,0.521-1.439,0.48
	c0.549,1.69,2.245,2.234,1.92,4.8c-0.944,0.384-0.084-1.037-0.721-0.96c-0.466,1.351,0.005,3.832,1.681,3.84
	c-0.055,1.174,0.737,1.502,0.96,2.4c-1.126-1.117-2.362,0.067-3.84,0c0.397-1.519-0.733-1.507-1.44-1.92
	c-0.638,0.083-0.811,0.63-0.96,1.2c0.13,0.91,0.671,1.409,1.92,1.2c0.076,0.796,0.036,1.476-0.479,1.68
	c0.438,0.44,0.772,0.987,0.96,1.68c0.319,0,0.64,0,0.96,0c0.984-0.535,1.443-1.597,3.119-1.44c0.936-0.745,1.92-1.44,3.12-1.92
	c-1.106-1.293-2.161-2.638-3.84-3.36c0-0.48,0-0.96,0-1.44c1.795-0.195,2.346,0.854,2.88,1.92c1.337,0.423,2.845,0.676,3.36,1.92
	c-2.084,0.875-3.629,2.292-4.56,4.32c-0.801,0-1.601,0-2.4,0c-0.4,0.24-0.17,1.11-0.72,1.2c-0.179,0.738,0.658,0.461,0.479,1.2
	c0.928,0.047,1.769,0.008,2.4-0.24c-0.591,0.587,0.177,1.041,0,1.92c-1.112,0.541-3.213,0.239-4.08-0.24
	c-0.53,0.03-0.102,1.019-0.24,1.44c-1.48,0.438-2.196,1.644-3.84,1.92c-0.003,0.638,0.091,1.371-0.24,1.68
	c-0.791,0.409-2.345,0.056-2.16,1.44c0.731,0.229,1.031,0.889,2.16,0.72c0.541-0.179,0.094-1.346,0.24-1.92
	c1.128-0.248,0.924,0.836,2.16,0.48c1.472-1.328,1.44-4.16,3.6-4.801c0.526,0.885,1.497,2.335,0.48,3.36
	c0.098,0.702,0.821,0.779,1.199,1.2c-0.323,1.79-0.004,4.728,1.44,5.52c-0.746,1.347,0.233,2.289,0.96,2.88
	c-0.89,1.511-1.061,3.74-2.64,4.561c0.579,0.54,1.173,1.067,0.96,2.399c-0.75,0.504-1.597,1.055-2.4,0.24
	c-0.677-0.037-0.602,0.679-0.96,0.96c0.003,0.478,0.655,0.306,0.48,0.96c1.475,0.275,1.565-0.834,3.12-0.479
	c-0.175,0.733,0.413,0.706,0.239,1.439c-0.813,0.068-1.472,0.289-1.439,1.2c0.149,0.57,1.478-0.037,1.68,0.48
	c-0.368,0.592-0.565,1.354-1.68,1.199c0.424,2.68,0.323,4.214,0,6.721c-1.145-0.856-2.711-1.29-3.601-2.4
	c-1.328,0.272-0.52,2.681-1.439,3.36c0.232,0.967,1.049,1.352,1.68,1.92c1.209-0.811-1.032-1.677-0.479-3.36
	c2.37,0.27,2.599,2.682,3.84,4.08c0,0.64,0,1.28,0,1.92c0.917,1.082,1.47,2.529,3.12,2.88c0.294,0.426,0.175,1.266,0.72,1.44
	c0.058,1.418-0.812,1.908-0.48,3.6c-1.446-0.326-1.682,0.559-2.88,0.48c-0.024-0.745,0.755-0.686,0.48-1.681
	c-0.463-0.816-1.837-0.723-2.16-1.68c-0.662,0.458,0.253,2.493-0.72,2.641c0.095,0.461,1.176,1.965,0,2.159
	c-0.868,0.228-0.335-0.945-0.48-1.439c-1.556-0.275-1.26,1.3-1.92,1.92c-1.42-0.06-2.338,0.382-2.64,1.439
	c-1.791,0.11-2.616-0.743-3.12-1.92c0.56,0,1.12,0,1.68,0c0.367-0.437,0.367-1.963,0-2.399c-1.505-0.146-1.826,0.894-1.68,2.399
	c-0.48,0-0.96,0-1.44,0c0.212,0.589,0.72,0.881,0.48,1.92c-0.962,0.399-1.922,0.799-3.36,0.721c0-0.24,0-0.48,0-0.721
	c-0.242-0.722,0.535-0.425,0.96-0.479c0.326-1.446-0.474-1.766-0.479-2.88c-0.972-0.332-0.76,0.521-1.44,0.479
	c-0.257,0.896,0.596,0.685,0.48,1.44c-0.427,0.213-0.61,0.67-1.44,0.479c-0.239,1.04,0.269,1.332,0.48,1.92
	c-0.701,0.26-1.383,0.538-2.4,0.48c0.029-1.091,0.612-1.628,0.96-2.4c-0.289-0.671-0.726-1.194-1.92-0.96
	c0.208-0.928-0.401-1.038-0.72-1.439c-0.4,0.24-0.17,1.109-0.721,1.2c-0.274,0.995,0.505,0.935,0.48,1.68
	c-0.453,0.347-1.063,0.536-0.96,1.439c-0.632,0.249-1.473,0.288-2.4,0.24c0-0.56,0-1.12,0-1.68c-1.145-0.345,0.185,1.784-0.96,1.439
	c-0.362-1.322,0.646-1.274,0.48-2.399c-0.276-1.805-2.343-1.818-2.4-3.84c-1.03,0.09-1.035,1.204-0.96,2.399
	c-0.972-0.331-0.759,0.521-1.439,0.48c-0.263,1.063,0.406,1.193,0.479,1.92c-1.248,0.031-1.691,0.868-1.92,1.92
	c-0.872,0.088-2.359-0.439-1.92,0.96c-0.679-0.198-0.622,0.338-1.2,0.24c-0.661-0.689,0.137-1.274,0.24-1.92
	c-1.071-0.449-1.027-2.014-2.88-1.681c-0.303-1.582,1.224-1.336,1.92-1.92c-0.323-0.637-0.804-1.116-1.44-1.439
	c-1.057,0.863-2.241,1.598-2.399,3.359c-0.703-0.257-1.239-0.681-2.4-0.479c0.574-0.866,1.723-1.158,1.44-2.88
	c-1.009-0.049-0.529,1.392-1.44,1.439c0-0.479,0-0.96,0-1.439c0.38-0.021,0.915,0.115,0.96-0.24c-0.117-1.242-1.271-1.45-2.4-1.68
	c0.094,0.866,1.317,0.603,0.961,1.92c-0.641,0-1.28,0-1.921,0c-0.124-1.796-1.99-1.85-2.88-2.88c-0.9,0.059-0.68,1.239-1.439,1.439
	c-0.166-1.125,0.842-1.077,0.479-2.399c-0.458-0.821-1.455-1.104-2.88-0.96c-0.234,1.194,0.289,1.631,0.96,1.92
	c0,1.199,0,2.399,0,3.6c0.335,0.386,1.185,0.256,1.44,0.72c0,0.641,0,1.28,0,1.92c-0.823-0.457-2.152-0.407-1.92-1.92
	c-1.44,0-2.88,0-4.32,0c0-0.479,0-0.96,0-1.439c0.32,0,0.64,0,0.96,0c0.332-0.972-0.521-0.76-0.479-1.44
	c-1.301-0.181-0.946,1.295-2.4,0.96c-0.187-1.387,0.906-1.493,1.439-2.16c-0.377-0.183-0.358-0.761-0.96-0.72
	c-1.315,0.925-2.062,2.418-1.92,4.8c-1.446-0.326-1.766,0.475-2.88,0.48c-0.218-1.498,0.847-1.713,0.48-3.36
	c0.972,0.332,0.759-0.521,1.439-0.479c0.104-1.144,0.012-2.092-0.72-2.4c-0.535,0.345-0.899,0.861-0.72,1.92
	c-0.956,0.324-1.504,1.057-2.4,1.44c0.212,0.588,0.72,0.88,0.48,1.92c-1.573-0.454-1.365,0.874-2.4,0.96
	c0.608-2.048-1.672-1.208-1.92-2.4c0.107-0.852,1.596-0.324,1.92-0.96c-0.467-1.053-0.971-2.069-2.16-2.399
	c-1.317,0.682-0.49,3.509-0.72,5.279c-1.642,0.282-1.341-1.379-2.16-1.92c-0.72,0-1.439,0-2.16,0c0.5,0.62,0.73,1.51,1.92,1.44
	c-0.47,1.61-3.384,0.776-4.8,1.439c-0.475-1.675,0.918-1.482,0.96-2.64c-1.534-0.729-2.908,0.768-5.04,0.24
	c-0.385,0.334-0.256,1.185-0.72,1.439c-0.479,0-0.96,0-1.44,0c-0.38-1.619-0.824-3.176-1.199-4.8c-0.596-0.035-1.165-0.045-1.2,0.48
	c0.012,0.947,0.492,1.428,1.439,1.439c0.116,0.756-0.736,0.544-0.479,1.44c-1.04,0-2.08,0-3.12,0
	c-0.431,0.369-0.193,1.406-0.96,1.439c-1.459-0.406-1.495-1.289-3.12-0.479c-0.14-2.061,2.422-1.419,3.84-1.92
	c0.077-1.037-0.403-1.518-1.439-1.44c0-0.64,0-1.28,0-1.92c1.386-0.187,1.493,0.907,2.159,1.44c0.289-0.271,0.436-0.686,1.2-0.48
	c0-0.399,0-0.8,0-1.2c-0.797-0.402-1.791-0.608-1.92-1.68c-1.668,0.308-1.971-0.749-2.64-1.44c-1.479-0.119-1.71,1.011-2.641,1.44
	c-0.702-0.257-1.238-0.681-2.399-0.48c-0.511,1.791,1.262,1.299,0.96,2.881c0.399,0,0.8,0,1.2,0c0.498-0.062,0.065-1.055,0.479-1.2
	c1.379-0.062,1.291-1.59,3.12-1.2c0,0.48,0,0.96,0,1.44c-0.956,0.323-1.504,1.056-2.399,1.439c0.072,1.033,0.017,1.938-0.961,1.92
	c0,0.641,0,1.28,0,1.92c-0.422,0.651-1.978,0.651-2.399,0c-0.025-0.744,0.755-0.685,0.479-1.68c-2.556,0.058-5.654,0.25-8.64,0.479
	c-0.761-0.918-0.964-2.396-2.4-2.64c-0.116-0.916,0.068-1.532,0.48-1.92c-0.421-0.38-1.278-0.321-1.92-0.479
	c-0.613,0.026-0.477,0.803-0.48,1.439c-1.948,0.509-1.477-1.403-3.359-0.96c0.24,1.039,1.711,0.849,1.439,2.4
	c-1.205,0.165-1.937-0.144-2.64-0.48c-1.133-0.092-0.456,1.624-1.68,1.44c1.022,0.874,0.654,1.369,0.72,2.399
	c1.757-0.163,2.203-1.637,3.6-2.16c0-0.399,0-0.8,0-1.199c1.498,0.218,1.714-0.847,3.36-0.48c-0.108,1.893-1.646,2.354-3.12,2.88
	c-1.031,1.688-3.017,2.424-4.32,3.84c-0.64,0-1.279,0-1.92,0c0.253-2.518-0.729-4.799,0.721-6c-1.4-0.147-0.028-1.272-1.921-1.439
	c-0.26,0.06-0.162,0.477-0.479,0.479c-0.356,1.236,0.728,1.032,0.479,2.16c-1.821-0.004-2.744-2.142-4.319-0.96
	c0.198-2.358-0.712-3.608-2.641-3.84c-0.408,0.632-0.318,1.762-1.68,1.44c0-0.641,0-1.28,0-1.921
	c-1.919,0.161-2.688,1.473-3.36,2.881c0.004,0.477,0.655,0.305,0.48,0.96c0.571-0.549,1.699-0.541,2.88-0.48
	c0.044,2.693-2.682,0.742-4.32,0.96c-0.369,1.489,0.875,1.365,0.96,2.4c-0.031,0.768-0.544,1.056-1.439,0.96
	c0.393-1.513-1.539-0.701-1.92-1.44c-1.009,0.752-1.775,1.745-1.92,3.36c-0.592,0.031-1.156,0.036-1.44-0.24
	c0.384-1.536,0.804-3.036,1.44-4.32c-0.626-1.054-2.797-0.563-3.84-1.199c-0.797,0.163-0.27,1.65-0.96,1.92
	c-1.752-0.392-1.801,0.92-2.16,1.92c-0.599-0.202-1.286-0.314-2.16-0.24c1.124-1.741-0.498-2.39-0.48-4.32
	c-1.013-1.066-2.905-1.255-4.08-2.159c0.08,2.88,1.245,4.675,2.641,6.239c-2.21-0.43-4.11-1.169-4.32-3.6
	c-0.459-0.341-0.858-0.741-1.2-1.2c-2.4,0.34-1.766,3.216-5.04,2.16c0.727-1.737,0.088-4.836-2.159-5.04
	c-0.379,0.164,0.625,0.955,0.239,1.92c-0.929-0.209-0.854,0.586-1.439,0.72c-0.065,0.815,0.186,1.946-0.24,2.4
	c-0.32,0-0.64,0-0.96,0c-0.498-0.998-0.298-3.104,0.24-3.84c-0.912,0.368-1.647,0.912-2.4,1.439c0,0.721,0,1.44,0,2.16
	c-0.731,0.198-1.222,0.028-1.439,0.24c-0.578-0.622-1.237-1.62-0.721-2.64c-0.631,0.248-1.473,0.287-2.399,0.239
	c-0.347,0.294-0.364,0.916-0.721,1.2c-0.946,0.066-0.733-1.026-1.68-0.96c-0.318,0.401-0.929,0.512-0.72,1.44
	c-1.054,0.484-2.095,0.821-2.88,0.479c0.566-0.473,0.279-1.801,0.96-2.16c-0.392-1.448-2.544-1.136-4.32-1.199
	c0.093,0.866,1.317,0.603,0.96,1.92c-2.204-0.196-2.339-2.462-4.32-2.881c0.068-4.45-5.788-0.889-7.92-2.399
	c-0.304,1.855-0.462,3.857-2.64,3.84c0-0.72,0-1.44,0-2.16c-1.736-0.376-0.283,2.437-1.92,2.16c0,0.64,0,1.28,0,1.92
	c-1.645,0.276-0.661,3.18-2.88,2.88c0.643-2.316,1.034-4.885,2.88-6c-0.363-0.356-1.054-0.387-1.68-0.479
	c-0.991,1.809-2.121,3.479-3.12,5.279c-0.026,1.066,1.479,0.602,1.439,1.681c-1.839-0.394-2.562,1.045-3.84,0.479
	c0.169-3.271,2.957-3.923,3.36-6.96c-0.731-0.229-1.031-0.889-2.16-0.72c-0.849,0.672-1.043,1.997-2.641,1.92
	c-0.063,0.783,0.932,0.509,0.961,1.2c0.041,1.081,0.116,2.197-0.961,2.16c-0.674-0.446-0.456-1.784-0.479-2.88
	c-0.79,0.649-2.543,0.336-2.4,1.92c-1.982-0.063-2.288,1.552-2.88,2.88c-1.252,0.132-2.134-0.106-1.92-1.44
	c1.56-0.2,2.07-1.449,2.4-2.88c2.352,0.191,3.515-0.805,4.319-2.16c-0.334-0.385-1.184-0.255-1.439-0.72
	c-0.615,1.145-2.105,1.414-3.36,1.92c-1.132-1.027-1.543-2.777-4.08-2.4c-0.211,0.463,0.684,1.869,0.721,2.881
	c-1.795,0.194-2.346-0.855-2.881-1.921c-1.662-0.143-3.073-0.033-3.6,0.961c-1.656-0.504-3.469-0.852-5.52-0.961
	c-0.475,0.486-0.998,0.923-0.96,1.921c-1.604-0.084-2.377,0.663-2.4,2.159c0.468,0.252,0.958,0.481,1.44,0.721
	c0.866-0.094,0.603-1.317,1.92-0.96c-0.032,0.768-0.545,1.056-1.44,0.96c0,0.64,0,1.279,0,1.92c-1.509-0.172-2.256-1.104-3.12-1.92
	c-1.181-0.203-2.135,1.225-2.88,0c-1.265,0.655-0.466,3.374-2.4,3.359c-0.498,0.062-0.065,1.055-0.479,1.2
	c-1.144,0.104-2.043-0.037-2.4-0.72c-1.235-0.356-1.032,0.728-2.16,0.479c-0.072-1.033-0.017-1.937,0.961-1.92
	c0.366-2.127-0.632-2.889-0.48-4.8c-1.565-0.049-2.331,2.731-3.6,1.44c-0.879,0.961-1.886,1.794-1.681,3.84
	c2.329,0.409,1.603-2.237,3.36-2.4c0.977-0.017,1.033,0.887,0.96,1.92c-1.253-0.213-1.227,0.854-1.68,1.44
	c-3.102-0.099-6.068-0.332-8.88-0.72c0.02-1.181,1.693-1.716,0.72-3.12c-1.48,0.359-1.662,2.018-2.641,2.88
	c-0.532,0.132-0.341-0.459-0.72-0.48c-0.638,1.415-3.77,1.108-4.56,0c-1.063-0.342-0.628,0.813-1.44,0.721
	c-0.963-0.718-1.568-1.792-2.88-2.16c-1.582,0.817-1.649,3.149-4.32,2.88c1.523-1.212,0.938-4.763-0.479-5.76
	c-1.026,2.894-4.322,3.518-4.561,7.199c-1.1,0.699-0.993-0.598-2.159-0.479c1.866-2.439-0.866-4.609,0.479-7.68
	c-0.046-0.194-0.24-0.239-0.24-0.48c-1.488,0.245-1.979,0.028-3.6,0c-0.613,0.026-0.477,0.804-0.48,1.44
	c-1.384-0.137-1.177-1.863-2.399-2.16c-1.137,0.987,0.958,3.313-0.96,4.08c0.378,0.581,0.858,1.062,1.439,1.439
	c0.797-0.163,0.27-1.65,0.96-1.92c2.433,0.934-0.537,4.563,1.2,5.76c1.369,0.329,1.45-0.629,2.641-0.479
	c0.025,1.706-2.256,1.104-3.841,1.2c0.021-2.661-1.791-3.489-3.359-4.561c0-0.72,0-1.439,0-2.16c-0.413-0.227-0.394-0.887-1.2-0.72
	c-0.593,0.844-0.182,2.733,0.24,3.36c-1.278,0.321-1.714,1.486-2.88,1.92c-0.646-0.555-0.35-2.051-1.681-1.92
	c-0.237,0.643-0.67,1.09-0.72,1.92c-1.532,0.012-1.556-1.484-1.44-3.12c-0.429-0.61-0.954-1.126-0.96-2.16
	c-1.541-0.021-0.582,2.457-1.199,3.36c-0.214-0.187-0.542-0.258-0.96-0.24c-0.4-0.32-0.081-1.359-0.48-1.68
	c-0.881-0.001-0.92,0.84-1.44,1.199c-0.882-0.077-2.124,0.205-2.64-0.239c-0.297-0.776,0.776-0.184,0.48-0.96
	c-0.844,0.437-1.237,1.322-2.881,0.96c0-0.32,0-0.641,0-0.96c-1.116-0.317-0.803,0.797-1.92,0.479
	c-0.857-0.582-1.806-1.073-2.88-1.439c-0.725,0.154-1.101,0.659-0.96,1.68c-0.172,0.651,1.132-0.172,0.96,0.479
	c0.073,0.98-0.501,0.129-0.96,0.24c-0.85,0.11-1.386,0.534-2.399,0.48c-0.161-1.119-0.5-2.061-1.44-2.4
	c-1.009-0.049-0.528,1.392-1.439,1.44c-1.047-0.265-0.238-1.771-0.48-2.641c-0.062-0.22-0.587-0.922-0.96-1.439
	c-0.274-0.755,0.377-0.583,0.479-0.96c-0.711-0.461-1.984,0.566-2.88,0.72c-0.253,1.507,0.704,4.224-0.96,4.32
	c0,0.72,0,1.439,0,2.16c-0.787,0.412-1.643,0.756-2.88,0.72c-0.241-0.722,0.535-0.426,0.96-0.48c0.496-1.936-0.739-2.141-2.399-1.92
	c0,0.641,0,1.28,0,1.92c-4.186,2.073-5.533-2.544-8.641-3.12c0.26-2.179-0.506-3.333-1.68-4.079c-1.04-0.161-0.646,1.113-0.72,1.92
	c-1.797-0.356-2.306,0.574-3.84,0.479c-0.029,0.691,0.131,1.571-0.24,1.92c-2.625-0.806-4.949,0.816-6.96,0.48
	c-0.147-0.947,1.317-0.282,1.92-0.48c0.295-1.655-1.04-1.681-1.44-2.64c0.166-1.206-0.143-1.938-0.479-2.641
	c-0.791,0.65-2.543,0.337-2.4,1.921c0.054,0.746,1.194,0.405,1.92,0.479c0,0.48,0,0.96,0,1.44c-1.129,0.249-1.207-0.554-1.68-0.96
	c-0.244,0.155-0.248,0.552-0.72,0.479c0.31,1.21,1.13,1.91,1.44,3.12c-2.457,0.765-5.686,1.796-7.92,0.24
	c-0.521-0.041-0.108,0.851-0.24,1.2c-0.982,0.563-2.163-0.275-2.88,0.239c-0.237-1.44,0.039-4.438,0.96-5.52
	c-0.106-0.694-0.506-1.094-1.2-1.2c-0.891,0.149-0.987,1.093-1.2,1.92c-0.48,0-0.96,0-1.44,0c-0.925,0.675-2.315,0.885-2.4,2.4
	c-0.888-0.168-1.06,0.38-0.96,1.2c-0.077,0.636,1.344-0.225,0.96,0.72c-3.617-0.337-7.405-1.201-11.04-1.44
	c-1.587-0.104-3.566,0.115-4.56-0.479c-1.988,1.262-5.308,2.696-6.96,0.479c-0.489,0.071-0.471,0.649-0.96,0.721
	c0.027,0.612,0.44,0.84,0.72,1.199c-1.451,0.738-3.888,1.673-5.04,1.92c0.104-0.535,0.424-0.855,0.96-0.96
	c0.37-2.609-2.686-1.794-2.88-3.84c-1.988-0.012-3.831,1.267-4.32-0.96c-0.495-0.146-1.667,0.388-1.44-0.479
	c-0.896-0.257-0.684,0.596-1.44,0.479c-0.493-0.387-0.557-1.203-0.48-2.16c-0.819-0.155-0.55-1.196-0.96-1.68
	c-0.748-0.881-2.213-1.166-3.12-1.92c-0.615,1.261,1.723,1.633,1.92,2.88c0.4,0,0.8,0,1.2,0c0.187,1.387-0.907,1.493-1.44,2.16
	c0.12,1.88,1.917,2.082,1.44,4.56c-1.774,0.334-1.216-1.664-2.4-1.92c0.21-1.81-1.277-1.922-0.96-3.84
	c-1.535,0.785-0.783,3.856-0.96,6c0.465,0.576,1.347,0.733,1.44,1.68c-0.841,1.04-2.105-0.041-2.88-0.479
	c0.333-2.173-0.466-3.214-0.96-4.561c-1.064-0.455-2.22-0.819-1.92-2.64c-3.17-0.289-1.412,2.521-0.96,3.84c-0.48,0-0.96,0-1.44,0
	c-0.414,1.694,1.235,1.324,0.96,2.88c-1.512,0.152-2.285-0.435-2.4-1.68c-0.181-1.301,1.294-0.945,0.96-2.4
	c-0.179-0.541-1.346-0.094-1.92-0.239c-0.418,1.218,1.042,0.558,0.96,1.439c-0.897-0.257-0.684,0.596-1.44,0.48
	c-0.279-1.642-1.708-2.132-1.92-3.84c-1.054-0.175-1.245,0.516-1.44,1.199c0.136,1.145,1.973,0.588,1.44,2.4
	c0.334,0.386,1.184,0.256,1.439,0.72c0,0.48,0,0.96,0,1.44c-1.63,0.253-2.462-0.866-2.88-2.16c-0.084-0.261-0.408-0.175-0.48-0.48
	c-0.097-0.408,0.159-0.994,0-1.439c-0.265-0.742-1.216-1.329-0.96-2.16c-0.8,0-1.6,0-2.4,0c0.104-0.904-0.507-1.093-0.96-1.439
	c-1.361-0.241-1.014,1.226-1.92,1.439c-0.041,0.681,0.812,0.469,0.48,1.44c1.04-0.241,0.848-1.712,2.4-1.44
	c-0.433,1.713,0.65,1.91,0.96,2.88c0.242,0.722-0.535,0.426-0.96,0.48c0.33,1.209-0.492,1.268-0.48,2.16
	c0.489,0.551,1.993,0.087,2.88,0.239c0.165,0.876,1.219,0.861,1.68,1.44c-0.751,0.813-1.422-0.484-2.16-0.48
	c-1.493,0.546-2.827,0.546-4.32,0c0-0.479,0-0.96,0-1.439c-0.95,0.09-0.827,1.253-1.2,1.92c-1.832,0.065-2.003-0.185-3.12-0.96
	c0.522-1.077,1.229-1.971,1.92-2.88c-0.038-1.398-0.098-2.817,0.48-3.601c-0.017-0.703-0.549-0.891-0.96-1.199
	c-1.17,0.27-0.984,1.895-0.96,3.359c-1.105,0.146-0.676-1.243-1.44-1.439c-0.907-0.027-1.291,0.469-1.44,1.199
	c0.151,0.889,0.742,1.339,1.92,1.2c-0.145,0.495,0.388,1.667-0.48,1.44c1.183,1.503-0.635,3.631-2.4,2.399
	c-0.284-0.987-0.85-2.059,0-2.88c0.037-0.677-0.678-0.602-0.96-0.96c0.118-1.158-0.134-1.946-1.2-1.92
	c-1.029,1.28,1.089,1.463,0.72,2.88c-0.826,0.187-1.146-0.134-0.96-0.96c-1.158-0.118-1.946,0.134-1.92,1.2
	c0.074,0.326,0.601,0.199,0.96,0.24c0,0.56,0,1.12,0,1.68c-1.738-0.022-2.921-0.599-4.8-0.479c-0.528-2.874,1.712-4.174,0.72-6.721
	c-1.069,0.177-2.055,1.48-2.4-0.239c-1.053,1.49,1.664,4.632-0.72,5.279c0.543-0.8,0.63-1.876-0.24-2.399
	c-1.227,0.772-2.848,1.152-3.12,2.88c-0.574-0.146-1.741,0.301-1.92-0.24c-0.241-0.801,0.333-0.787,0.96-0.72c0-0.48,0-0.96,0-1.44
	c-1.061,0.859-2.562,1.278-2.88,2.88c-1.094,0.38-2.583-0.292-3.84-0.479c-0.947,0.564-2.776,1.021-3.36,0
	c-0.775,0.861-2.751,0.854-4.32,0.479c0-0.64,0-1.279,0-1.92c-1.247-0.126-1.244,0.997-1.44,1.92
	c-0.875,0.255-2.156,1.081-2.88,0.721c-0.234-1.595,0.25-2.472,0.48-3.601c1.527,0.008,1.756-1.284,1.92-2.64
	c-0.357-0.735-2.141-0.499-1.92,0.72c-1.039-0.239-1.332,0.269-1.92,0.48c-0.461,2.338-1.13,4.469-2.64,5.76
	c-1.514,0.073-2.842-0.038-4.08-0.24c0.021-0.341,0.04-0.68-0.24-0.72c-0.77-0.21-0.75,0.369-0.96,0.72
	c-0.891-0.389-2.36-0.199-3.6-0.24c0.018-0.861-0.194-1.954,0.48-2.16c-0.593-0.526-0.856-1.383-1.2-2.159
	c-0.739-0.179-0.461,0.658-1.2,0.479c0.063,1.217,1.355,1.205,1.92,1.92c-1.652-0.292-1.834,0.886-2.16,1.92
	c-0.91-0.13-1.409-0.671-1.2-1.92c0.32,0,0.64,0,0.96,0c-0.6-0.565-0.913-2.734,0.48-2.64c-0.29-0.91-1.265-2.145-2.4-1.44
	c-0.025,0.745,0.755,0.686,0.48,1.681c-0.955,0.485-2.189,0.69-2.4,1.92c0.063,0.978,0.684,1.396,0.72,2.399
	c-0.632,0.072-0.788-0.332-0.72-0.96c-0.799,0.081-0.78,0.98-1.68,0.96c-0.6-1-0.651-2.548-0.96-3.84
	c-0.946-0.066-0.734,1.026-1.68,0.96c-0.24-0.319-0.396-0.725-0.72-0.96c-0.708,1.038,0.745,1.968,0.24,3.601
	c-1.959,0.199-5.256,0.317-7.2-0.24c-0.47-0.491-0.41-2.569-0.96-3.36c-1.14-1.64-3.818-1.911-6.24-1.439
	c0.842,1.637,1.757,3.203,2.64,4.8c-0.698,0.682-1.693-0.375-2.64-0.24c0.118-0.918-0.833-0.767-0.48-1.92
	c-0.517-0.443-1.218-0.702-0.96-1.92c-0.624-1.108-1.76-0.28-3.36-0.48c0.173,1.827,3.019,0.981,2.4,3.601c-0.56,0-1.12,0-1.68,0
	c-1.298-1.982-2.934-3.626-6.24-3.601c-0.384,0.576-0.931,0.99-0.72,2.16c1.272,0.313,1.225-0.695,2.4-0.479
	c0.478,1.198-0.687,0.759-1.2,0.96c-1.24,0.486-3.197,0.942-4.8,0.96c-0.128-1.152-0.752-1.808-1.92-1.92
	c-0.594,0.206,0.071,1.67-0.48,1.92c-0.637-0.003-1.371,0.091-1.68-0.24c0.194-1.325,0.413-2.627,0.96-3.6
	c-0.438-0.367-1.963-0.367-2.4,0c-0.239,1.358,0.803,1.437,0.48,2.88c-1.146-0.12-1.715,1.853-2.64,0.479
	c-0.585,0.775-1.666,1.055-3.12,0.96c0.102-0.501-0.165-0.636-0.24-0.96c-1.561-0.36-1.912,0.489-1.68,1.92
	c-2.621-0.06-3.875,3.438-6.24,1.44c0.302-1.902-0.54-2.66-0.96-3.84c-1.446-0.327-1.766,0.474-2.88,0.479
	c-0.386,1.294-0.613,2.748-1.92,3.12c-0.954,0.074-0.083-1.678-1.44-1.2c-1.009,0.316,0.001,0.788,0,1.44
	c-1.042,0.305-3.009,0.74-3.84,0.479c0.582-1.542,0.315-2.387-0.24-3.84c-1.292,0.229-1.356,1.684-1.92,2.641
	c-1.657,1.196-2.798,1.463-5.76,1.199c-1.155-1.485-3.384-1.896-4.08-3.84c-1.693-0.387-3.19-0.969-3.36-2.88
	c1.647-0.366,1.862,0.698,3.36,0.48c-0.287,1.791,2.181,2.679,3.36,3.359c0.917-0.56-0.615-1.712,0.96-2.16
	c-0.779-0.261-0.814-1.266-1.44-1.68c-0.974,0.146-1.504,0.736-2.88,0.48c-0.186-1.387,0.907-1.493,1.44-2.16
	c-1.489-1.081-1.531,1.343-3.36,0.72c0.032-0.592,0.037-1.156-0.24-1.439c-0.929-0.129-1.172,0.428-2.16,0.239
	c0.169,0.711,0.715,1.045,0.48,2.16c-0.427,0.213-0.61,0.67-1.44,0.48c0.087,1.047-0.638,1.282-0.72,2.159
	c-3.145-0.444-5.863-0.004-8.88-0.72c-0.263,1.063,0.407,1.193,0.48,1.92c-0.422,0.651-1.978,0.651-2.4,0c0-0.56,0-1.12,0-1.68
	c-0.517-0.443-1.218-0.702-0.96-1.92c-0.644-0.717-1.467-1.253-2.4-1.68c0-0.48,0-0.96,0-1.44c1.829-0.39,1.741,1.139,3.12,1.2
	c0.201,0.278,0.316,0.644,0.24,1.2c0.4,0,0.8,0,1.2,0c0.087-1.192,1.437-1.123,1.2-2.641c-0.654-0.716-1.85,0.057-2.4,0.24
	c-0.859-0.421-1.148-1.412-2.4-1.44c-1.053,0.308-0.921,1.8-2.64,1.44c-0.667,0.533-0.773,1.627-2.16,1.44c0,0.399,0,0.8,0,1.199
	c-0.076,0.637,1.345-0.224,0.96,0.721c1.039-0.241,0.848-1.712,2.4-1.44c0,0.64,0,1.28,0,1.92c-0.959-0.079-1.426,0.335-1.44,1.2
	c1.013,0.987,4.07-0.07,3.84,2.16c-1.507-0.655-1.706-0.192-2.88,0.479c-0.769-0.031-1.056-0.544-0.96-1.439c-1.12,0-2.24,0-3.36,0
	c0.257-0.896-0.596-0.685-0.48-1.44c0.907,0.027,1.291-0.47,1.44-1.2c0.073-0.632-0.332-0.787-0.96-0.72
	c-0.849,1.231-0.908,3.252-1.44,4.8c-0.48,0-0.96,0-1.44,0c-0.213-0.427-0.67-0.609-0.48-1.439c-2.268,0.348-3.306-0.534-5.28-0.48
	c-0.168,1.448,1.481,1.078,0.96,2.88c-1.417-0.663-4.331,0.171-4.8-1.439c1.249,0.209,1.147-0.933,1.92-1.2
	c-0.179-0.541-1.346-0.094-1.92-0.24c-1.184,0.256-0.626,2.254-2.4,1.92c-0.152-1.768,0.402-4.242-0.48-5.279
	c-1.454,0.065-1.691,1.349-2.4,2.159c0.17,0.79,1.366,0.554,1.92,0.96c-0.039,1.002-0.968,1.112-1.92,1.2c0,0.48,0,0.96,0,1.44
	c-1.035-0.086-0.827-1.414-2.4-0.96c-0.077-0.797-0.037-1.477,0.48-1.681c-0.644-0.716-1.468-1.252-2.4-1.68
	c0.24-1.039-0.268-1.332-0.48-1.92c-0.932,0.108-1.068,1.012-0.96,2.16c0.402,0.318,0.512,0.929,1.44,0.72
	c-0.367,1.647,0.698,1.862,0.48,3.36c-1.114-0.006-1.434-0.807-2.88-0.48c0.234-2.394-0.726-3.594-1.68-4.8
	c-0.908-0.348-0.461,0.659-1.2,0.48c0.241,1.039,1.711,0.849,1.44,2.399c-1.355,0.315-1.128-0.951-2.16-0.96
	c-0.227,0.413-0.887,0.393-0.72,1.2c0.074,0.326,0.601,0.199,0.96,0.24c0,0.479,0,0.96,0,1.439c-1.36,0-2.72,0-4.08,0
	c-0.236,1.124-1.089,1.631-2.16,1.92c0-0.64,0-1.279,0-1.92c0.427-0.213,0.61-0.67,1.44-0.479c0-1.28,0-2.561,0-3.84
	c0.548-0.332,1.212-0.548,0.96-1.681c-0.909-0.735-2.312,0.08-2.88,0.48c-0.35,1.39,0.559,1.521,0.48,2.64
	c-0.708-0.171-0.57-1.189-1.2-1.439c-1.163,0.837-2.892,1.108-3.12,2.88c-0.64,0-1.28,0-1.92,0c-0.25-1.13,0.553-1.207,0.96-1.681
	c-0.75-0.499-2.156,0.396-2.4,1.2c-0.242,0.722,0.535,0.426,0.96,0.48c0,0.479,0,0.96,0,1.439c-0.813-0.066-0.538-1.222-1.2-1.439
	c-0.876,1.285,0.704,2.17,1.2,2.88c-1.161-0.201-1.697,0.223-2.4,0.479c-0.049-1.79-1.43-2.25-2.16-3.359
	c-1.023-0.063-0.957,0.963-1.68,1.2c0.371,0.989,2.298,0.422,1.92,2.159c-1.896-0.455-1.553,1.327-2.88,1.44
	c-0.095,0.899,0.988,1.342,0.24,2.16c-0.578,0.098-0.522-0.438-1.2-0.24c0-0.32,0-0.64,0-0.96c-0.64,0-1.28,0-1.92,0
	c-0.229-1.052-0.672-1.889-1.92-1.92c-0.025-0.745,0.755-0.685,0.48-1.68c-0.401-0.318-0.512-0.929-1.44-0.721
	c0.103-1.143,0.011-2.091-0.72-2.399c-0.455,1.856-2.681,2.296-2.64,4.319c0.013,0.64,0.88,0.899,0.48,1.92
	c-1.059,0.339-0.004-1.436-0.72-1.439c-0.537,0.104-0.097,1.183-0.24,1.68c-2.217,0.537-2.361-0.999-3.36-1.68
	c0.794-1.019,0.228-1.695,0-2.88c-0.63,0.17-1.079,0.521-0.96,1.439c-1.145-0.265-1.454,0.307-1.92,0.721
	c0.174,1.025,0.971,1.429,0.96,2.64c-1.017,0.058-1.699-0.221-2.4-0.48c0.092-0.627,0.77-0.67,0.48-1.68
	c-0.334-0.386-1.185-0.256-1.44-0.72c-0.179-0.739,0.659-0.461,0.48-1.2c-0.414-0.227-0.393-0.887-1.2-0.72
	c-0.355,0.764-0.932,1.308-0.72,2.64c-0.172,0.652,1.131-0.172,0.96,0.48c0,0.319,0,0.64,0,0.96
	c-1.438,0.078-2.399-0.321-3.36-0.721c-0.076-0.796-0.036-1.476,0.48-1.68c-0.03-0.53-1.019-0.102-1.44-0.24
	c0.13-1.409-0.122-2.438-1.44-2.399c-0.747,0.053-0.405,1.194-0.48,1.92c0.054,0.746,1.194,0.405,1.92,0.479
	c-0.504,1.177-1.33,2.03-3.12,1.92c-0.302-1.058-1.221-1.499-2.64-1.439c-0.646-0.555-0.349-2.051-1.68-1.92
	c-0.679-0.04,0.2,1.479-0.48,1.439c-1.336,0.284-0.625-1.74-0.24-1.92c-0.548-0.571-0.541-1.699-0.48-2.88
	c-0.743,0.537-1.438,1.122-2.4,1.44c-0.262,1.063,0.407,1.193,0.48,1.92c-1.198,0.078-1.434-0.807-2.88-0.48
	c0.083-2.257-0.977-3.462,0.24-5.04c1.657-0.263,2.01-1.829,3.12-2.64c-0.083-1.844,0.059-3.461,1.44-3.84
	c0.135-1.465,0.936-2.265,2.4-2.4c0.437,1.71-1.319,2.261-0.72,3.36c0.967-0.233,1.352-1.049,1.92-1.68
	c-0.65-0.949-0.372-2.828-1.2-3.601C11.059,90,9.678,90.7,8.4,91.502c-0.29-2.413-0.467-3.995,0-6.48
	c-0.678-0.282-1.284-0.637-1.68-1.2c0.034-0.687,1.001-0.438,1.68-0.479c0.136-1.097-0.551-1.369-1.44-1.44
	c-0.174-0.733,0.414-0.706,0.24-1.439c1.486-0.366,1.564,0.676,2.88,0.479c0.454-0.026,0.167-0.793,0.72-0.72
	c-0.027-0.613-0.44-0.84-0.72-1.2c-1.057,0.587-1.772,0.46-2.64-0.24c-0.087-1.127,0.099-1.98,0.96-2.159
	c-0.127-0.833-1.13-0.791-1.44-1.44c0.235-1.675-0.937-1.942-1.2-3.12c0.083-0.717,0.645-0.955,1.2-1.2
	c0.105-0.825-0.095-1.345-0.24-1.92c1.444-0.792,1.764-3.729,1.44-5.52c0.44-0.28,0.813-0.628,1.2-0.96
	c-0.856-1.249-0.211-2.604,0.48-3.601c2.014,0.707,2.292,3.148,3.36,4.801c1.322,0.362,1.275-0.646,2.4-0.48c0,0.64,0,1.28,0,1.92
	c1.323,0.362,1.275-0.646,2.4-0.479c0.312-1.593-1.274-1.286-2.16-1.681c0.079-3.119-4.279-1.801-4.08-5.04
	c-1.098,0.323-3.041,0.876-4.32,0.24c-0.316-0.744,0.711-1.331,0-1.68c0.266-0.48,1.289,0.292,2.16,0
	c0.324-0.236,0.479-0.641,0.72-0.96c0.041-0.681-0.812-0.469-0.48-1.44c-0.88,0-1.76,0-2.64,0c-0.931-2.028-2.476-3.444-4.56-4.32
	c0.413-1.268,2.019-1.342,3.12-1.92c0.905-0.775,1.151-2.208,3.12-1.92c0,0.48,0,0.96,0,1.44c-1.719,0.601-2.484,2.155-3.84,3.12
	c0.759,0.921,2.294,1.065,2.88,2.16c1.64-0.12,2.453,0.587,3.12,1.44c0.32,0,0.64,0,0.96,0c0.662-0.218,0.387-1.374,1.2-1.44
	c-0.212-0.588-0.719-0.88-0.48-1.92c1.194,0.234,1.631-0.289,1.92-0.96c0.091-0.811-0.416-1.024-0.72-1.44
	c-0.943-0.223-0.605,0.834-1.68,0.48c0,0.48,0,0.96,0,1.44c-1.478,0.067-2.715-1.117-3.84,0c0.222-0.898,1.014-1.226,0.96-2.4
	c1.785-0.135,1.788-2.052,1.92-3.84c-1.013-0.372,0.052,1.333-0.96,0.96c-0.267-2.427,1.16-3.16,1.92-4.56
	c-0.414-0.227-0.393-0.887-1.2-0.72c-0.541,0.179-0.094,1.346-0.24,1.92c-1.303,0.858-2.379,1.941-4.08,2.4
	c-0.636,0.964-1.565,1.635-2.88,1.92c-0.821,1.099-1.896,1.944-2.88,2.88c-0.477-0.003-0.305-0.655-0.96-0.48
	c0.377-2.743,2.316-3.924,4.56-4.8c0.051-0.851-1.126-0.474-0.96-1.44c0.598-0.362,1.178-0.742,1.92-0.96
	c0.821-0.101,0.721,0.719,1.2,0.96c2.08,0,1.86-2.299,3.6-2.64c0.348-1.148-1.003-0.597-1.68-0.72
	c-0.403,0.797-0.608,1.792-1.68,1.92c-0.19-0.929,0.613-2.853-0.96-2.4c0.441-1.085,0.353-2.188,0.96-2.88
	c0.587-0.669,1.625-0.659,1.44-1.92c1.723,0.363,2.142-0.578,2.88-1.2c-0.072-1.448-1.239-1.801-1.92-2.64
	c0.174-1.24,0.748,0.483,1.68,0c1.017-1.303,2.582-2.058,2.16-4.8c-1.728,0.286-3.222,0.804-4.8,0
	c0.332-0.972-0.521-0.759-0.48-1.44c-0.733-0.173-0.875,0.245-1.44,0.24c-0.074-0.561-0.47-0.991,0-1.44
	c-1.362-0.957-2.589-2.05-2.4-4.56c1.208,0.392,1.764,1.436,1.92,2.88c1.039-0.372,2.027-1.805,0.96-2.88
	c-0.776-0.296-0.183,0.777-0.96,0.48c-0.006-1.114-0.806-1.434-0.48-2.88c1.674,0.074,2.474-0.726,2.4-2.4
	c-1.619,0.141-1.783,1.737-3.84,1.44c0.335-0.625,0.477-1.444,0.72-2.16c1.048-0.392,2.125-0.755,2.16-2.16
	C7.198,9.36,6.212,9.292,6,8.942c-0.072-0.12-0.474-1.5-0.48-1.2C5.521,7.688,8.597,3,10.32,2.462c1.822-0.57,4.459-0.416,5.28,1.2
	c-1.967-0.389-4.053-0.695-3.84,2.16c0.241,0.479,1.061,0.378,0.96,1.2c0.101,0.821-0.719,0.721-0.96,1.2
	c0.031,1.249,0.66,1.9,1.68,2.16c0.488-1.352,0.026-3.654,0.72-4.8c1.087-0.127,1.567,0.353,1.44,1.44c0.4,0,0.8,0,1.2,0
	c0.53-0.03,0.102-1.018,0.24-1.44c1.49,0.37,1.366-0.875,2.4-0.96c1.361-0.241,0.353,1.888,1.92,1.44
	c0.188,1.124-1.845,1.299-2.16,0.48c-0.535,0.345-0.899,0.861-0.72,1.92c-1.228-0.132-1.971-0.749-3.6-0.48
	c-0.604,0.357,0.164,2.084-0.72,2.16c0.627,1.293,3.333,0.507,5.04,0.72c0.385-0.334,0.255-1.185,0.72-1.44c0.64,0,1.28,0,1.92,0
	c-0.308,1.427,1.611,0.629,1.44,1.92c-1.258-0.276-2.747-0.886-3.84,0c-0.041,0.681,0.812,0.468,0.48,1.44
	c1.117,0.317,0.803-0.797,1.92-0.48c0.772,0.667,2.059,0.821,2.4,1.92c-1.092,0.014-1.108,0.635-2.4,0.96
	c-0.441,0.111-0.444,0.66-0.96,0.96c-0.628,0.365-1.821-0.168-1.92,0.96c-0.104,0.904,0.507,1.093,0.96,1.44
	c0.562-1.518,2.451-1.708,2.88-3.36c0.8,0,1.6,0,2.4,0c-0.5-1.952-1.222-4.967-0.48-6.72c0.48,0,0.96,0,1.44,0
	c0.248,1.127-0.836,0.924-0.48,2.16c0.074,0.326,0.601,0.199,0.96,0.24c-0.86,1.138-0.275,3.168,1.2,3.36
	c0.573-0.787,0.888-1.833,0.72-3.36c0.427-0.213,0.61-0.67,1.44-0.48c-0.076-0.557,0.039-0.921,0.24-1.2
	c1.296-0.063,1.586-1.133,2.16-1.92c-0.104-0.537-1.183-0.097-1.68-0.24c-0.37,0.51-0.866,0.894-1.2,1.44
	c-0.783-0.337-1.455-0.785-1.92-1.44c1.265-0.495,3.261-0.259,2.88-2.4c2.824-0.264,4.639,0.481,6.96,0.72
	c0.599,1.161,1.471,2.049,1.68,3.6c0.898-0.222,1.142-1.099,2.4-0.96c-0.257,0.703-0.681,1.239-0.48,2.4
	c0.941,1.139,2.681,1.479,3.84,2.4c0.318-1.602-1.814-2.823-2.4-4.32c1.054,0.174,1.245-0.516,1.44-1.2
	c0.076-0.637-1.345,0.225-0.96-0.72c0.747-0.676,1.118,0.478,1.92,0.48c0,0.72,0,1.44,0,2.16c-0.041,0.521,0.851,0.109,1.2,0.24
	c0.429-0.771,0.926-1.475,0.72-2.88c1.863-0.081,1.715,2.097,2.4,3.12c0.504,0.752,1.443,0.717,1.44,1.68
	c1.507-0.387,1.834,0.406,2.4,0.96c0.807,0.246,0.374-0.747,0.48-1.2c-2.357-0.603-3.226-2.694-4.32-4.56
	c0.397-0.326,1.4,0.196,2.4,0c-0.435,1.795,1.009,1.711,1.68,2.4c0.844-0.525,2.359-1.255,1.2-2.4c0.449-0.078,2.431-0.078,2.88,0
	c-0.344,1.016-1.212,1.508-0.96,3.12c0.217,0.423,0.883,0.396,0.96,0.96c0.208,0.929-0.586,0.854-0.72,1.44
	c0.701,0.45,2.019-0.533,3.36-0.24c0.473-0.407,0.551-1.209,1.68-0.96c0.03,0.43-0.294,0.506-0.24,0.96
	c0.838-1.002,3.82,0.139,4.56-0.96c-0.385-1.054-1.058-1.822-0.96-3.36c-0.56,0-1.12,0-1.68,0c-0.37,0.51-0.867,0.894-1.2,1.44
	c-1.744-0.337-3.522,2.311-4.32,0C57.803,7.865,58.918,7.94,60,7.982c1.27-1.931,4.734-1.666,6.96-2.64
	c-0.115,1.955,2.306,1.374,2.4,3.12c-0.956-0.085-2.379,0.299-2.64-0.48c-1.049,4.066,5.895,3.766,8.64,3.36
	c0.898-0.702,1.173-2.027,2.16-2.64c-0.267-1.333-0.966-2.234-1.44-3.36c1.799-0.596,2.024,2.453,3.84,2.64
	c-0.244,1.677-1.854,1.986-2.16,3.6c-0.279,0.202-0.644,0.317-1.2,0.24c-0.11,0.75,0.513,0.767,1.2,0.72
	c0.412-0.308,0.297-1.143,0.96-1.2c0.755-0.275,0.583,0.377,0.96,0.48c1.007-0.353,1.226-1.494,2.64-1.44c0-0.48,0-0.96,0-1.44
	c0.64,0,1.28,0,1.92,0c0.327-1.447-0.558-1.682-0.48-2.88c0.937,0.263,1.022,1.378,1.68,1.92c0.244-0.156,0.249-0.552,0.72-0.48
	c0.18-0.739-0.828-0.292-0.48-1.2c0.64,0,1.28,0,1.92,0c0.178,1.058-0.777,0.983-0.96,1.68c0.485,1.515,1.122,2.878,1.68,4.32
	c0.55-0.33,0.563-1.196,1.2-1.44c-1.012-0.988-1.337-2.663-1.44-4.56c1.021-0.142,1.681,0.079,1.44,1.2
	c0.681,0.041,0.469-0.812,1.44-0.48c0.085,0.315,0.423,0.378,0.48,0.72c0.107,1.387-1.363,1.197-1.44,2.4
	c1.873,1.064,3.097-3.629,4.8-1.68c1.12,0,2.24,0,3.36,0c-0.027-0.613-0.804-0.477-1.44-0.48c0.332-0.971-0.521-0.759-0.48-1.44
	c0.621-0.189,2.513,0.126,3.84,0c-0.097,1.377-0.042,2.602,1.44,2.4c0,0.32,0,0.64,0,0.96c1.86,0.459,2.868,1.772,4.32,2.64
	c-0.181-0.859-0.736-1.344-0.48-2.64c0.688-0.248,1.679-1.464,2.16-0.48c0.409-0.631,0.319-1.761,1.68-1.44
	c-0.015-1.535,1.093-1.947,2.4-2.16c-0.326,2.074-1.862,2.938-2.4,4.8c0.735,0.327,2.659-0.215,4.08,0
	c0.682,0.042-0.29-1.57,0.72-1.2c0.041-0.681-0.812-0.469-0.48-1.44c0.48,0,0.96,0,1.44,0c0.275,0.995-0.504,0.936-0.48,1.68
	c0.271,0.289,0.685,0.435,0.48,1.2c0.905,0.215,2.033,0.207,2.88,0.48c-0.295-0.905-0.872-1.528-1.44-2.16
	c-0.29-1.17,0.954-0.806,0.96-1.68c0.242-0.722-0.535-0.425-0.96-0.48c0.308-1.668-1.873-0.848-2.16-1.92
	c1.627-0.354,2.134,0.196,3.6,0.48c-0.008,1.505,1.538,1.864,0.48,3.12c0.345,0.535,0.861,0.899,1.92,0.72
	c0.002,0.637-0.091,1.371,0.24,1.68c0.194-0.167,0.658-0.374,0.72,0c0.525-0.035,0.515-0.604,0.48-1.2
	c-0.027-0.613-0.804-0.477-1.44-0.48c0.357-2.518-0.583-3.737-1.68-4.8c0.869-0.554,1.151,0.082,2.16,0
	c-0.104,0.904,0.507,1.093,0.96,1.44c-0.171,2.411,1.68,2.8,1.92,4.8c0.72,0,1.44,0,2.16,0c-0.2-1.643-2.942-2.816-3.12-5.28
	c0.64,0,1.28,0,1.92,0c0.812,0.628,1.021,1.858,1.44,2.88c0.425,0.055,1.202-0.242,0.96,0.48c0.681,0.041,0.469-0.812,1.44-0.48
	c0.058-1.97-1-3.184,0-4.8c0.64,0,1.28,0,1.92,0c0.332,0.972-0.521,0.759-0.48,1.44c0.064,0.783,0.791,0.533,0.96,1.2
	c0.227,0.894-0.519,1.795-0.96,2.4c-0.223,0.943,0.834,0.605,0.48,1.68c1.581,0.419,3.699,0.3,5.28,0.72
	c0.985-0.586,1.738-2.512,1.44-3.6c-0.663,0.698-1.159,1.562-2.64,1.44c-0.411,0.629-0.876,1.204-2.16,0.96
	c-0.412-0.388-0.596-1.004-0.48-1.92c2.663,0.184,3.405-1.554,4.56-2.88c0.77,0.03,1.071,0.529,1.68,0.72
	c0.796-0.084,1.042-0.719,1.44-1.2c1.518,0.293,2.973,1.101,5.52,0.96c0.521,0.041,0.109-0.851,0.24-1.2
	c1.456,0.064,2.657,0.383,3.84,0.72c0.242,0.722-0.535,0.425-0.96,0.48c0,0.24,0,0.48,0,0.72c-0.022,0.902,1.203,0.558,1.44,1.2
	c0.663,0.103,0.226-0.895,0.72-0.96c1.719-0.359,1.587,1.133,2.64,1.44c0.653-0.147,0.94-0.659,0.96-1.44
	c0.874-0.074,1.562,0.039,2.16,0.24c0.202,0.278,0.317,0.644,0.24,1.2c0.56,0,1.12,0,1.68,0c0.325-0.074,0.199-0.601,0.24-0.96
	c0.963-0.083,1.165,0.596,1.68,0.96c1.023-0.284,1.309-1.083,2.64-0.48c-0.829,1.903,0.392,3.505-1.44,4.8
	c0.751,0.111,1.071-0.209,0.96-0.96c0.599,0.121,0.986,0.454,1.44,0.72c0.789-0.933,0.534-3.777,0.72-4.56
	c4.8,1.07,9.633-0.751,13.68-0.48c0.659,0.781,1.635,1.245,2.64,1.68c0.347-0.293,0.364-0.916,0.72-1.2
	c-0.116-0.763-1.041-0.719-1.2-1.44c1.79-0.05,3.262-0.418,4.56-0.96c0.484,0.316,0.812,0.788,0.96,1.44
	c-0.388,0.412-1.004,0.596-1.92,0.48c-0.227,1.347,0.9,1.34,1.68,1.68c0.36,0.44-0.007,1.607,1.2,1.2c0,0.64,0,1.28,0,1.92
	c0.084,0.796,1.384,0.376,2.16,0.48c0.326-0.074,0.199-0.601,0.24-0.96c0.48,0,0.96,0,1.44,0c0,0.32,0,0.64,0,0.96
	c0.48,0,0.96,0,1.44,0c0.051-0.851-1.126-0.474-0.96-1.44c0.008-0.873,0.706-1.055,1.68-0.96c0.755-1.005,1.584-1.937,2.64-2.64
	c0.348-0.908-0.66-0.46-0.48-1.2c-1.826,0.174-2.479,1.521-4.08,1.92c-0.367,0.993-1.762,0.958-1.68,2.4c-0.48,0-0.96,0-1.44,0
	c0.385-2.705-1.268-3.372-0.96-6c0.823-0.273,1.783,0.56,3.36,0.24c-0.109,1.011-1.135,1.105-1.44,1.92
	c-0.257,0.897,0.596,0.684,0.48,1.44c1.051-0.628,1.532-1.827,3.12-1.92c1.33-1.15,2.438-2.521,5.04-2.4
	c-0.497,2.256,0.75,2.771,0.96,4.32c-2.039,0.361-3.21,1.59-4.8,2.4c-0.275,1.475,0.834,1.565,0.48,3.12
	c0.409,0.471,1.684,0.077,1.92,0.72c1.017-0.663,2.298-1.063,3.6-1.44c-0.057-0.743-0.668-0.932-0.96-1.44
	c-0.995-0.275-0.935,0.505-1.68,0.48c0.03-1.15-2.472,0.231-2.4-0.96c-0.192-0.913,1.135-0.305,1.68-0.48
	c0.479-0.241,0.378-1.062,1.2-0.96c2.079,0.363,2.703,2.77,4.8,2.4c-0.626-1.454-3.437-0.724-2.88-3.36
	c1.04,0.239,1.332-0.269,1.92-0.48c-0.191-0.849-1.201-0.879-1.44-1.68c0-1.04,0-2.08,0-3.12c2.29-0.209,0.959,3.201,3.36,2.88
	c0.066,0.946-1.026,0.734-0.96,1.68c0.822,2.137,3.976,1.944,6.72,2.16c0.453,0.827,1.499,1.061,2.88,0.96c0,0.32,0,0.64,0,0.96
	c1.048-0.168,1.352,0.408,2.4,0.24c-0.152-1.688-1.042-2.638-1.44-4.08c0.032-0.768,0.544-1.056,1.44-0.96
	c0.614,0.746,0.609,2.111,1.2,2.88c0.549-0.411,0.088-1.832,0.24-2.64c-1.036-0.324-1.062-1.659-0.96-3.12
	c1.78-0.34,1.224,1.656,2.88,1.44c-0.504,2.12,0.989,3.656,0,4.8c-0.257,0.896,0.596,0.684,0.48,1.44
	c1.04,0.239,1.332-0.268,1.92-0.48c0.521-2.042-1.244-1.796-0.96-3.6c0.042-0.843-0.811-0.79-0.96-1.44
	c-0.043-1.083,0.234-1.846,0.96-2.16c1.315-0.035-0.525,3.085,1.44,2.4c-0.201,1.161,0.223,1.697,0.48,2.4
	c0.555-0.406,1.298-0.622,2.4-0.48c0,0.48,0,0.96,0,1.44c-1.054-0.174-1.244,0.516-1.44,1.2c0.03,0.53,1.018,0.102,1.44,0.24
	c0.663,0.103,0.226-0.895,0.72-0.96c0.929-0.209,0.854,0.586,1.44,0.72c0.773-0.107,1.394-0.366,1.2-1.44
	c-1.229-0.13-1.188-1.533-2.88-1.2c0.504-1.464-0.72-1.201-0.96-1.92c1.075-0.354,0.737,0.703,1.68,0.48
	c0.711-0.727-0.016-2.052-0.48-2.4c-1.089-0.271-3.293,0.573-3.6-0.48c2.4,0,4.8,0,7.2,0c-0.093,0.947-0.976,1.104-1.44,1.68
	c1.19,0.009,1.007,1.393,0.96,2.64c0.967-0.233,1.352-1.049,1.92-1.68c-0.03-0.53-1.018-0.102-1.44-0.24
	c0.184-0.776,0.664-1.256,1.44-1.44c0.32,0.72,2.111-0.031,1.92,1.2c3.446-0.68,6.887,0.797,10.32,0.96
	c5.166,0.246,10.077-0.327,15.12-0.24c1.153,0.447,0.773,2.428,1.2,3.6c0.578,0.098,0.521-0.438,1.2-0.24
	c-0.212-0.588-0.719-0.881-0.48-1.92c0.771-0.909,3.35-0.011,3.6-1.44c1.528,0.392,2.019,1.821,3.84,1.92
	c0.284-0.837,0.53-1.71,0.96-2.4c2,0,4,0,6,0c0.115,1.965,2.085,2.075,4.32,1.92c-0.212-0.588-0.719-0.881-0.48-1.92
	c0.64,0,1.28,0,1.92,0c-0.037,0.998,0.486,1.434,0.96,1.92c1.218,0.417,0.558-1.042,1.44-0.96c0.775-0.214,0.337,0.783,0.72,0.96
	c0.679-0.042,1.646,0.206,1.68-0.48c0.099-1.059-1.342-0.578-1.44-1.44c1.609-0.329,1.825,0.736,3.36,0.48
	c0.173,0.733-0.246,0.875-0.24,1.44c0.817-0.416,1.408,0.184,2.64,0c0.915-0.046,0.147-1.773,0.72-2.16
	c1.101,0.099,1.107,1.293,1.44,2.16c0.843,0.042,0.79-0.811,1.44-0.96c2.622,0.463,2.857-1.463,5.04-1.44
	c-0.109,1.011-1.135,1.105-1.44,1.92c0.325,0.876,0.464,1.937,0.72,2.88c0.73-0.15,1.227-0.533,1.2-1.44c0.8,0,1.6,0,2.4,0
	c-0.717-1.123-1.007-2.673-2.4-3.12c-0.338-1.059,1.437-0.004,1.44-0.72c0.847,0.353,0.573,1.827,2.16,1.44
	c0.53-0.03,0.102-1.018,0.24-1.44c0.83-0.19,1.013,0.267,1.44,0.48c0.451,1.731-1.001,1.559-0.96,2.88
	c0.156,0.723,0.942,0.817,1.2,1.44c1.531-0.949-0.326-5.286,2.64-4.8c0,0.48,0,0.96,0,1.44c0.4,0,0.8,0,1.2,0
	c0.385-0.334,0.255-1.184,0.72-1.44c1.734-0.292,3.318-0.9,3.84,0.96c-0.333,0.539-1.893,0.786-2.16,0
	c-0.725,0.315-0.68,1.4-1.2,1.92c-0.703-0.337-1.435-0.646-2.64-0.48c-0.874,0.424-0.947,2.208-0.24,2.88c1.36,0,2.72,0,4.08,0
	c0.318-0.402,0.928-0.512,0.72-1.44c0.8,0,1.6,0,2.4,0c0.49,2.169-2.572,0.788-2.4,2.64c0.156,0.244,0.552,0.249,0.48,0.72
	c1.102-0.818,3.552-0.288,4.32-1.44c-0.854-0.925-0.229-3.042,1.44-2.88c0.077,0.796,0.037,1.476-0.48,1.68
	c0.75,0.771,1.426,1.614,2.88,1.68c0.613-0.027,0.477-0.804,0.48-1.44c1.037,0.077,1.517-0.403,1.44-1.44
	c1.248,0.047,1.512-0.889,1.92-1.68c-1.543-1.205-3.504,2.378-4.32-0.24c0.864-0.576,2.278-0.602,2.88-1.44
	c1.262-0.142,1.669,0.571,2.64,0.72c0.21,0.75,0.451,1.469,1.2,1.68c-0.344,2.344,1.682,2.318,1.92,4.08
	c1.148,0.132,1.771,0.789,2.64,1.2c0.745-1.472-0.785-2.73-1.68-3.36c-0.163-1.998-1.624-2.696-2.16-4.32
	c2.279-0.118,3.73,0.59,3.6,2.88c2.321,0.528,2.836-1.647,2.64-2.88c0.842,0.391,1.357-0.134,2.16,0.48
	c-0.032,0.769-0.544,1.056-1.44,0.96c0.315,1.355-0.951,1.128-0.96,2.16c-0.314,1.034,1.143,0.297,0.96,1.2
	c-1.039-0.24-1.332,0.268-1.92,0.48c0.266,0.934,1.169,1.231,0.96,2.64c0.03,0.53,1.018,0.102,1.44,0.24c0,0.48,0,0.96,0,1.44
	c0.903-0.537,2.297-0.583,1.92-2.4c-0.972-0.332-0.759,0.521-1.44,0.48c-0.977,0.017-1.033-0.887-0.96-1.92
	c2.415,0.032,2.757-0.603,4.8,0c0.906,0.375,0.487,2.073,1.92,1.92c-0.327,1.446,0.558,1.682,0.479,2.88c0.72,0,1.44,0,2.16,0
	c1.627-1.333,1.292-4.628,3.6-5.28c0-0.64,0-1.28,0-1.92c1.072,1.027,3.067-1.471,4.32-0.96c-0.55,0.731-1.546,1.014-1.92,1.92
	c0.437,0.844,1.255,1.305,2.399,1.44c-0.066,0.627-0.081,1.201,0.721,0.96c0.529-0.03,0.102-1.018,0.24-1.44
	c1.625,0.105,1.661-1.379,3.119-1.44c0.495-1.345,1.841-1.84,2.641-2.88c1.279,0,2.56,0,3.84,0c0.129,0.849-0.203,1.237-0.72,1.44
	c-0.755,0.275-0.584-0.376-0.96-0.48c-0.18,0.701-1.627,0.133-1.2,1.44c-1.128-0.248-0.924,0.836-2.16,0.48
	c-0.498,0.062-0.065,1.054-0.48,1.2c-1.193,0.166-1.525,1.194-2.64,1.44c-0.152,1.033,1.045,0.716,1.44,1.2
	c0.63-0.17,1.079-0.521,0.96-1.44c0.8,0,1.6,0,2.399,0c0.567,1.273,1.415,2.265,2.641,2.88c0.382-0.949-1.145-2.05-1.2-3.36
	c1.658-1.553,2.083,1.352,3.12,1.92c1.134-0.453,3.47-1.769,4.8-0.48c1.742-1.538,4.953-1.606,8.4-1.44
	c-0.354-0.766-1.821-0.419-1.44-1.92c0.659-0.284,0.679,0.182,1.2,0.48c0.195,0.112,0.964,0.285,1.2,0.48
	c0.232,0.193,0.289,0.832,0.479,0.96c0.361,0.243,1.223-0.449,0.96,0.48c1.039-0.241,0.849-1.711,2.4-1.44
	c-0.005-0.876-0.967-0.793-1.44-1.2c0.092-1.109,1.191-1.209,2.4-1.2c0.32,0.96,0.96,1.6,1.92,1.92
	c0.216,1.605,0.662,2.147-0.48,3.12c-0.274,0.995,0.505,0.936,0.48,1.68c1.204-0.316,1.223-1.818,1.92-2.64
	c-0.313-1.447-1.198-2.322-0.96-4.32c-0.767-1.073-2.758-0.922-2.88-2.64c2.6,0.2,6.296-0.696,7.2,1.2
	c-0.221,0.98-0.707,1.693-0.48,3.12c-1.481-0.202-1.537,1.023-1.44,2.4c1.494,0.214,1.889-0.672,2.881-0.96
	c-0.406-0.555-0.622-1.298-0.48-2.4c1.187,0.99,1.955,0.059,2.88-0.48c0.948,0.94,2.739,0.311,3.84,0
	c0.463-2.417,2.87-2.89,4.32-4.32c0.955,0.084,2.38-0.299,2.64,0.48c0.859-0.181,1.344-0.736,2.641-0.48
	c-0.271,1.09-1.268,1.453-1.92,2.16c1.305,0.896,2.368-0.504,3.359-0.72c0.42,0.723,1.369-0.775,2.4,0.72
	c0.345,1.625-0.532,2.028-0.48,3.36c0.734,0.706,1.523,1.357,3.12,1.2c0.324-0.236,0.479-0.641,0.721-0.96
	c-0.099-1.262-1.265-1.457-1.2-2.88c0.84,0.36,1.87,0.53,1.68,1.92c1.102,0.142,1.846-0.075,2.4-0.48
	c0.331-0.971-0.521-0.759-0.48-1.44c1.422,1.351,2.461-0.352,3.84-0.48c0,0.64,0,1.28,0,1.92c-1.037-0.077-1.517,0.403-1.439,1.44
	c-1.249-0.209-1.147,0.933-1.92,1.2c1.436,1.105,1.474-1.238,3.12-0.72c0.385-0.335,0.255-1.185,0.72-1.44
	c1.443,0.156,1.208,1.992,2.88,1.92c0,0.48,0,0.96,0,1.44c0.978,0.097,1.231-0.529,1.92-0.72c-1.395-1.565-3.231-2.688-3.36-5.52
	c0.48,0,0.96,0,1.44,0c0-0.64,0-1.28,0-1.92c0.959,0.08,1.426-0.334,1.44-1.2c0.04-0.521-0.852-0.109-1.2-0.24
	c-0.326,0.074-0.199,0.601-0.24,0.96c-0.896,0.096-1.408-0.192-1.44-0.96c0.842,0.042,1.799,0.198,1.44-0.96c0.64,0,1.28,0,1.92,0
	c0.161,1.118,0.746,1.814,0.48,3.36c0.239,0,0.479,0,0.72,0c0.821-1.389-0.137-3.058-0.72-3.84c0.64,0,1.279,0,1.92,0
	c-0.779,2.539,2.067,1.452,1.439,3.84c0.24,0,0.48,0,0.72,0c0.53-0.03,0.103-1.018,0.24-1.44c0.48,0,0.96,0,1.44,0
	c0,1.04,0,2.08,0,3.12c0.463,0.817,1.837,0.723,2.16,1.68c1.378-0.193,2.78-1.032,3.359,0.48c0.995,0.275,0.936-0.505,1.681-0.48
	c0.446,2.034,2.019,2.941,3.119,4.32c3.24-1.529-1.166-3.734-1.68-5.28c1.817-1.289,3.684,2.953,6.24,0.96
	c0.216,0.904,1.121,1.12,2.4,0.96c0-0.48,0-0.96,0-1.44c-0.961,0-1.921,0-2.881,0c-0.233-1.526-2.524-0.995-2.88-2.4
	c-2.78-0.383-5.621,2.087-7.2,0c-0.729,0.658-3.879,1.066-3.359-0.96c0.88,0,1.76,0,2.64,0c1.767-1.828,6.131,1.281,7.681-0.96
	c0.782-0.063,1.154,0.285,1.199,0.96c1.381-0.181,2.286,0.114,2.641,0.96c0.907,0.348,0.46-0.659,1.199-0.48
	c0.018-1.137-1.817-0.422-1.439-1.92c0.805-0.005,1.6,0,1.439,0.96c1.436,0.099,1.98-0.393,2.881,0.24
	c-0.688,2.527,1.512,2.167,1.439,4.08c-1.178-0.138-1.769,0.312-1.92,1.2c0.109,1.01,1.479,0.762,1.68,1.68
	c1.174-0.724,0.382-1.643,0.24-2.88c1.356,0.556,0.535-1.064,1.44-0.96c0.283-1.323-0.414-1.666-0.48-2.64
	c2.244,0.236,4.497,0.463,6.72,0.72c0.332,1.852-0.552,2.488-1.439,3.12c0.156,0.244,0.552,0.248,0.479,0.72
	c1.053-0.308,0.922-1.799,2.641-1.44c0.237-0.643,0.67-1.089,0.72-1.92c0.48,0,0.96,0,1.44,0c-1.064,1.893,1.652,3.22,1.439,5.76
	c-0.479,0-0.96,0-1.439,0c0.205-0.766-0.378-0.742-0.48-1.2c-0.179-0.979,0.773-0.826,0.48-1.92
	c-0.519-0.282-1.103-0.498-1.681-0.72c-0.545,0.255-0.091,1.509-0.239,2.16c-0.077,0.637,1.344-0.225,0.96,0.72
	c-0.972,0.332-0.76-0.521-1.44-0.48c-0.724,0.156-0.817,0.942-1.44,1.2c2.361,0.039,3.574,1.227,4.561,2.64
	c0.865-0.015,1.279-0.48,1.2-1.44c0.64,0,1.279,0,1.92,0c0.244,1.284-0.33,1.75-0.96,2.16c0.459,0.341,0.858,0.741,1.2,1.2
	c1.057,0.178,0.982-0.777,1.68-0.96c0-1.52,0-3.04,0-4.56c-0.951-0.696-1.313-3.103-0.72-4.56c3.77,0.986,6.373-0.424,9.84-1.2
	c0.321,1.921-0.449,2.75-1.44,3.36c-0.223,0.943,0.835,0.605,0.48,1.68c1.996,0.396,0.833-2.367,2.88-1.92
	c0.078,0.882-0.205,2.125,0.24,2.64c1.257-0.823,1.673-2.487,2.159-4.08c0.051-0.851-1.126-0.474-0.96-1.44
	c-0.776-0.296-0.184,0.777-0.96,0.48c-1.219-1.084,0.285-2.243,1.44-2.4c-0.091,0.811,0.416,1.024,0.72,1.44
	c0.736-0.521-0.074-1.506-0.24-1.92c1.71-0.317,2.684,1.875,4.32,2.4c-0.517-1.243-1.991-1.528-1.92-3.36
	c0.65-0.31,1.333-0.587,2.4-0.48c0.179,0.739-0.828,0.292-0.48,1.2c1.355,0.484,3.563,0.118,3.84,1.68
	c1.793-0.272,2.018,1.023,3.12,1.44c0.907,0.348,0.461-0.659,1.2-0.48c1.209,0.746,2.205,1.066,3.84,0.48
	c1.116,0.804,3.462,0.379,5.28,0.48c-0.093-0.627-0.77-0.67-0.48-1.68c-1.4-0.679-1.596-2.564-2.64-3.6
	c0.8-0.549,2.879-0.327,3.12,0.48c0.532,0.132,0.342-0.458,0.72-0.48c2.39,0.381,5.126,0.5,7.44,0.96
	c0.375,0.075,0.478,0.063,0.479,0.48c0.588-0.212,0.881-0.719,1.92-0.48c-0.061,1.008-0.8,0.32-1.2,0.48
	C509.292,2.504,508.219,4.335,506.161,4.862z M503.28,1.982c0.484,0.876,1.338,1.383,2.4,1.68c0.528-0.352,1.124-0.636,0.96-1.68
	C505.961,1.601,503.958,1.601,503.28,1.982z M504,5.582c0.693-0.764-0.084-1.513-0.721-1.68c-0.022-0.377,0.032-0.833-0.479-0.72
	C502.823,4.36,503.068,5.315,504,5.582z M521.52,3.902c0,0.32,0,0.64,0,0.96c1.438,0.242,1.764,1.596,2.88,2.16
	c0.169-0.711,0.715-1.045,0.48-2.16C524.09,4.305,522.837,3.156,521.52,3.902z M10.8,7.502c0.223-1.983-0.357-3.163-1.92-3.36
	C9.797,4.986,9.533,7.009,10.8,7.502z M664.56,7.502c1.268-0.493,1.004-2.516,1.92-3.36C664.917,4.339,664.337,5.519,664.56,7.502z
	 M33.84,6.782c0.019,2.092,2.483,2.914,3.84,2.88c-0.593-2.047-2.153-3.127-3.36-4.56c-0.64,0-1.28,0-1.92,0
	C32.104,6.438,33.764,5.818,33.84,6.782z M481.2,5.342c0,0.16,0,0.32,0,0.48c0.146,0.014,0.284,0.036,0.24,0.24
	c0.16,0,0.32,0,0.48,0c0.014-0.146,0.035-0.284,0.24-0.24c0-0.16,0-0.32,0-0.48c-0.146-0.014-0.284-0.036-0.24-0.24
	c-0.16,0-0.32,0-0.48,0C481.426,5.249,481.405,5.386,481.2,5.342z M637.68,9.662c1.402,0.002,3.983-0.788,3.84-3.12
	c0.368-0.592,1.691-0.229,1.44-1.44C639.661,5.083,638.815,7.517,637.68,9.662z M453.121,9.902c1.762,0.001,0.827-2.692,1.68-3.6
	c-0.566-0.074-0.446-0.833-1.2-0.72C452.954,7.019,451.842,8.42,453.121,9.902z M384.72,8.462c-0.142-1.102,0.074-1.846,0.479-2.4
	C383.893,5.503,383.875,8.427,384.72,8.462z M396.72,9.422c0.469-0.571,1.721-0.359,2.4-0.72c0-0.8-0.001-1.6,0-2.4
	c-0.398-0.402-1.409-0.191-2.16-0.24C396.811,7.409,395.958,8.463,396.72,9.422z M421.2,7.502c0.071,0.49,0.649,0.471,0.721,0.96
	c1.306,0.026,2.342-0.219,2.64-1.2C423.309,6.854,421.418,5.037,421.2,7.502z M482.161,7.502c1.107,0.148,1.381-0.539,2.399-0.48
	c-0.104-0.536-0.424-0.855-0.96-0.96C483.746,7.167,482.357,6.739,482.161,7.502z M8.64,8.942c0.424-0.925-0.721-2.086-2.16-1.92
	C7.038,7.824,7.654,8.568,8.64,8.942z M401.041,7.502c0.425-0.055,1.201,0.242,0.96-0.48c-0.32,0-0.641,0-0.96,0
	C401.041,7.182,401.041,7.342,401.041,7.502z M403.92,8.702c-0.409,1.984,1.249,2.606,2.399,1.68
	c-0.204-0.756-0.844-1.076-0.96-1.92c0.707-0.093,0.551-1.05,0.96-1.44C404.916,6.978,405.596,9.018,403.92,8.702z M666.72,8.942
	c0.985-0.375,1.602-1.118,2.16-1.92C667.442,6.856,666.296,8.018,666.72,8.942z M181.68,9.422c1.248,0.592,2.447,1.232,3.6,1.92
	c-0.734-1.426-1.974-2.346-3.12-3.36C182.276,8.738,181.423,8.525,181.68,9.422z M268.32,8.942c-0.097-0.623-0.748-0.693-1.2-0.96
	C266.953,8.87,267.5,9.042,268.32,8.942z M292.32,10.862c0.632-0.808,1.408-1.472,1.68-2.64
	C292.514,7.181,290.755,10.298,292.32,10.862z M153.6,9.902c1.262-0.336,1.669,1.035,2.64,0.24
	C155.951,7.94,154.49,8.641,153.6,9.902z M254.16,10.142c0.505,0.158,1.067,0.635,1.44,0.24c-0.02-0.781-0.307-1.293-0.96-1.44
	C254.819,9.681,253.981,9.403,254.16,10.142z M400.8,10.382c0.557,0.076,0.921-0.039,1.2-0.24c-0.106-0.694-0.506-1.094-1.2-1.2
	C400.472,9.249,400.472,10.075,400.8,10.382z M430.8,13.502c0.266,0.929-0.849,0.854-0.24,1.44c0.592-0.032,1.156-0.037,1.44,0.24
	c0.305-1.295,1.391-1.809,1.199-3.6c-2.878,0.079-2.883-2.717-5.76-2.64C428.233,10.789,429.054,12.608,430.8,13.502z M46.32,10.142
	c0.422,1.097,0.802,2.238,2.16,2.4c0.394-0.514-0.611-1.165-0.24-2.4C47.579,9.365,46.981,9.365,46.32,10.142z M259.92,9.902
	c0.808-0.152,2.229,0.309,2.64-0.24C261.954,9.483,260.128,9.017,259.92,9.902z M319.92,11.822c0.999-0.548,2.848,0.476,4.32-0.24
	c-0.92-0.52-1.64-1.24-2.16-2.16c-0.32,0-0.64,0-0.96,0C321.188,10.539,319.383,11.034,319.92,11.822z M423.121,10.142
	c0.032,0.928,0.973,0.947,1.199,1.68c1.091-0.27,1.84-0.881,2.16-1.92C425.636,9.256,423.661,9.186,423.121,10.142z M537.84,11.582
	c0.346,0.134,0.586,0.375,0.72,0.72c0.678-0.123,1.02-0.581,1.68-0.72c-0.049-0.751,0.162-1.762-0.239-2.16
	C538.393,9.255,538.33,10.632,537.84,11.582z M626.88,12.542c1.357-0.162,1.737-1.303,2.16-2.4
	C627.597,8.046,626.693,11.652,626.88,12.542z M38.4,10.382c0.16,0,0.32,0,0.48,0c0-0.16,0-0.32,0-0.48c-0.16,0-0.32,0-0.48,0
	C38.4,10.062,38.4,10.222,38.4,10.382z M84.96,9.902c-1.169,0.911-3.083,1.076-3.6,2.64c1.55-0.129,3.638,0.279,4.8-0.24
	C85.735,11.527,86.005,10.057,84.96,9.902z M396.48,11.822c-0.339-0.363-1.165-0.758-1.68-0.24c0.971,1.589,3.024,2.096,2.88,4.8
	c0.549,0.887,2.048,0.868,2.88,0.24c-0.802-1.198-0.235-3.764-1.92-4.08c0.305-0.815,1.331-0.909,1.44-1.92
	C398.929,9.073,397.479,11.097,396.48,11.822z M417.36,11.582c0.307,0.328,1.134,0.328,1.44,0c0.052-0.932-0.255-1.505-0.96-1.68
	C417.865,10.647,417.085,10.587,417.36,11.582z M433.2,10.382c0.16,0,0.32,0,0.48,0c0-0.16,0-0.32,0-0.48c-0.16,0-0.32,0-0.48,0
	C433.2,10.062,433.2,10.222,433.2,10.382z M441.84,10.622c-0.268,1.147,0.747,1.013,0.479,2.16c0.6-0.121,0.802-0.639,1.44-0.72
	c-0.249-0.871-0.712-1.528-1.2-2.16c-0.56,0-1.12,0-1.68,0C440.496,10.847,441.917,9.986,441.84,10.622z M589.2,12.302
	c1.162,0.519,3.25,0.11,4.801,0.24c-0.672-1.568-2.482-1.998-4.08-2.64C589.744,10.766,589.355,11.417,589.2,12.302z M636.48,10.382
	c0.16,0,0.32,0,0.48,0c0-0.16,0-0.32,0-0.48c-0.16,0-0.32,0-0.48,0C636.48,10.062,636.48,10.222,636.48,10.382z M170.4,13.742
	c0.826,0.446,2.414,1.166,3.12,0.96c-0.68-1.64-0.153-4.486-2.64-4.32C170.451,11.233,170.83,12.892,170.4,13.742z M214.8,11.342
	c0.16,0,0.32,0,0.48,0c0-0.32,0-0.64,0-0.96c-0.16,0-0.32,0-0.48,0C214.8,10.702,214.8,11.022,214.8,11.342z M453.36,10.862
	c0.426-0.055,1.202,0.242,0.96-0.48c-0.319,0-0.64,0-0.96,0C453.36,10.542,453.36,10.702,453.36,10.862z M108.24,11.822
	c-0.317-0.602,1.118-0.583,0.24-0.96C108.516,11.182,107.504,11.586,108.24,11.822z M203.04,11.822
	c0.966-0.154,2.552,0.312,3.12-0.24C205.78,10.764,203.021,10.291,203.04,11.822z M297.36,11.342c0.16,0,0.32,0,0.48,0
	c0-0.16,0-0.32,0-0.48c-0.16,0-0.32,0-0.48,0C297.36,11.022,297.36,11.182,297.36,11.342z M345.6,10.862
	c-0.821,1.738-2.232,2.887-2.88,4.8c1.072,0.448,2.025,1.015,2.64,1.92c-0.146,0.415-1.139-0.018-1.199,0.48
	c0.7,0.935,1.92,0.173,2.64-0.24c0.024-0.745-0.755-0.685-0.48-1.68c0.211-1.47,1.115-2.245,1.92-3.12
	C347.884,11.778,346.754,11.308,345.6,10.862z M494.161,11.102c-0.082-0.194-0.638-0.29-0.721,0
	C493.282,11.658,494.377,11.622,494.161,11.102z M503.28,11.102c0.003,0.638-0.09,1.371,0.24,1.68c0.911-0.049,0.831-1.089,1.2-1.68
	C503.89,11.297,503.707,10.654,503.28,11.102z M566.64,10.862C567.025,12.235,567.844,11.416,566.64,10.862L566.64,10.862z
	 M9.84,11.582c0.369,0.591,0.289,1.631,1.2,1.68c0.353-0.349,0.353-1.571,0-1.92C10.483,11.266,10.119,11.381,9.84,11.582z
	 M156,16.862c0.307,0.333,1.133,0.147,1.44,0.48c0.799-2.013-0.368-4.89-1.92-6C155.967,12.834,156.669,15.016,156,16.862z
	 M299.04,11.342c-0.636,0.934,0.158,2.143,1.44,1.92c0.014-0.146,0.036-0.284,0.24-0.24C300.791,11.832,300.23,11.272,299.04,11.342
	z M377.52,13.502c0.771,0.589,1.757,0.964,1.92,2.16c0.851,0.051,0.475-1.126,1.44-0.96c-1.049-0.904-0.956-1.633-0.48-3.12
	C378.988,10.886,378.04,12.526,377.52,13.502z M435.6,11.582c0,0.16,0,0.32,0,0.48c0.146,0.014,0.284,0.036,0.24,0.24
	c0.16,0,0.32,0,0.479,0c0.014-0.146,0.036-0.284,0.24-0.24c0-0.16,0-0.32,0-0.48c-0.146-0.014-0.284-0.036-0.24-0.24
	c-0.159,0-0.319,0-0.479,0C435.827,11.489,435.804,11.626,435.6,11.582z M535.92,13.982c-2.017-0.303-1.91-2.73-4.32-2.64
	C532.132,12.881,534.396,15.009,535.92,13.982z M664.32,13.262c0.911-0.049,0.831-1.089,1.2-1.68c-0.278-0.201-0.644-0.316-1.2-0.24
	C663.967,11.691,663.967,12.913,664.32,13.262z M245.04,13.022c0.465,0.29,2.187,0.232,1.92-0.96
	C246.348,11.703,245.216,11.82,245.04,13.022z M388.081,12.302c-1.452,0.277-2.137,1.561-3.601,1.44
	c-0.568,0.552-0.677,1.563-1.68,1.68c0.034,1.645,0.423,2.937,1.92,3.12c0.679-0.201,0.816-0.943,1.2-1.44
	c1.044,0.245,1.104-0.497,1.68-0.72c-0.15-1.35,0.523-1.876,1.44-2.16c0.328,1.369-0.63,1.451-0.48,2.64
	c1.222,0.737,1.942-0.471,2.4-1.44c0.221-0.468-0.351-1.598,0.72-1.2c0.539,0.101,0.007,1.273,0.48,1.44
	c0.975-0.465,2.812-0.068,3.119-1.2c-0.729-0.61-1.119,0.657-2.399,0.24c0.026-1.307,0.149-2.71-0.96-2.88
	C391.465,12.849,389.253,12.078,388.081,12.302z M403.2,11.822c-2.086,0.016-2.36,2.756-0.479,3.84
	c1.288-0.231,1.352-1.688,2.64-1.92C404.616,13.029,404.198,11.814,403.2,11.822z M506.161,13.262
	c0.029-0.53,1.018-0.102,1.439-0.24c0.04-0.84-0.845-0.755-1.2-1.2C506.36,12.209,505.595,13.059,506.161,13.262z M513.36,13.502
	c1.021,0.521,1.445-1.502,0.48-1.44C514.097,12.959,513.245,12.746,513.36,13.502z M294.96,12.782c0.69,0.113,1.416,0.914,1.92,0.48
	C296.874,12.483,295.257,11.809,294.96,12.782z M449.041,14.702c-0.907-0.027-1.291,0.47-1.44,1.2c0.438,0.367,1.963,0.367,2.4,0
	c0.051-1.289-0.812-1.274,0-2.16c-1.288-0.152-1.084-1.796-2.88-1.44C447.521,13.341,449.006,13.296,449.041,14.702z M16.08,13.502
	c0.837,1.094,0.04,1.286-0.48,2.16c2.392,0.472,2.687-1.154,4.8-0.96C19.413,13.49,17.521,12.289,16.08,13.502z M306,13.742
	c0.104-0.377,0.755-0.205,0.48-0.96C305.948,12.604,305.491,13.667,306,13.742z M408.72,13.022c0,0.16,0,0.32,0,0.48
	c0.146,0.014,0.284,0.036,0.24,0.24c0.159,0,0.319,0,0.479,0c0.014-0.146,0.036-0.284,0.24-0.24c0-0.16,0-0.32,0-0.48
	c-0.146-0.013-0.284-0.036-0.24-0.24c-0.16,0-0.32,0-0.479,0C408.947,12.929,408.924,13.066,408.72,13.022z M414,14.222
	c1.255,0.392,1.846-0.674,1.199-1.44C414.469,12.932,413.973,13.315,414,14.222z M421.44,13.982c1.003-0.253,1.626,0.506,2.16,0
	c0-0.32,0-0.64,0-0.96C422.699,12.355,421.383,12.934,421.44,13.982z M426.96,14.462c-0.033-0.768,0.236-1.837-0.721-1.68
	C425.722,13.371,426.061,14.557,426.96,14.462z M654.96,14.702c2.113-0.194,2.408,1.432,4.8,0.96c-0.52-0.875-1.317-1.066-0.48-2.16
	C657.839,12.289,655.948,13.49,654.96,14.702z M175.92,15.902c0.61,0.27,1.17,0.589,1.68,0.96c0.834-0.686,1.401-1.639,1.44-3.12
	c-0.957,0.237-0.723-0.717-1.68-0.48C177.611,14.873,176.023,14.645,175.92,15.902z M279.36,15.662
	c0.963-0.716,3.057-0.303,3.12-1.92c-0.842-0.772-1.308,0.288-1.92,0.48c-0.833-0.527-2.054-0.666-3.12-0.96
	C277.706,14.437,278.897,14.685,279.36,15.662z M335.04,16.142c1.468,0.428,1.453-0.627,2.16-0.96
	c-0.558-0.802-1.174-1.546-2.16-1.92C334.665,13.813,334.665,15.592,335.04,16.142z M434.161,14.942
	c0.69,0.429,1.906,0.333,2.64,0.72c-0.099-1.421-1.114-1.926-2.16-2.4C434.665,14.007,433.885,13.947,434.161,14.942z
	 M438.48,14.222c0.111-0.751-0.208-1.071-0.96-0.96C437.625,13.798,437.945,14.118,438.48,14.222z M150.96,14.942
	c0.114-0.754-0.299-0.981-0.72-1.2C149.743,14.236,150.241,14.959,150.96,14.942z M271.68,14.702c0.071-0.489,0.649-0.471,0.72-0.96
	C271.659,13.428,271.039,14.423,271.68,14.702z M289.2,14.702c-0.077,1.757,0.016,3.344,1.2,3.84c0.836-1.908-1.337-3.153-0.24-4.8
	C289.147,13.37,290.213,15.075,289.2,14.702z M537.36,14.222c0.318,0.29,1.65,0.24,1.681-0.48
	C538.362,13.783,537.393,13.536,537.36,14.222z M296.88,14.222c-0.574,0.146-1.741-0.301-1.92,0.24
	C295.311,14.785,296.861,14.953,296.88,14.222z M404.4,16.382c0.346,0.134,0.586,0.374,0.721,0.72c1.202-0.877,3.464-0.695,3.84-2.4
	C407.709,13.861,404.718,14.761,404.4,16.382z M180.96,15.422c-0.083-0.638-0.63-0.81-1.2-0.96
	C179.845,15.127,180.479,15.875,180.96,15.422z M138.24,16.382c0.948-0.012,1.428-0.492,1.44-1.44
	C138.885,15.073,137.765,15.731,138.24,16.382z M306.24,15.662c0.16,0,0.32,0,0.48,0c0.373-0.59-0.815-0.706-0.72-0.24
	C306.146,15.436,306.284,15.458,306.24,15.662z M270.96,17.822c-0.074,0.553,0.693,0.267,0.72,0.72
	c0.912-1.008,3.042-0.798,3.12-2.64C272.976,15.093,271.896,16.957,270.96,17.822z M307.92,17.342c0.022,0.985,0.976,1.347,1.92,1.2
	c1.138-0.176,1.327-1.811,1.92-2.4C310.441,15.46,307.889,15.988,307.92,17.342z M347.76,16.382c-0.113,0.753,0.646,0.634,0.72,1.2
	c0.704-0.416,1.946-0.293,1.681-1.68C349.287,15.204,348.549,16.246,347.76,16.382z M461.041,15.902
	c0.035,0.89,1.127,1.578,1.92,0.96C462.924,15.972,461.833,15.285,461.041,15.902z M352.32,18.062c1.455,0.335,1.1-1.141,2.4-0.96
	c0.307,0.574,0.508,1.252,1.68,0.96c-0.287-0.752-0.772-1.308-1.2-1.92C353.403,15.84,351.394,16.42,352.32,18.062z M358.8,17.102
	c-0.104-0.536-0.425-0.855-0.96-0.96C357.729,16.894,358.049,17.213,358.8,17.102z M359.28,16.382c-0.01,0.33,0.113,0.527,0.24,0.72
	c0.56-0.08,1.034-0.246,1.2-0.72C360.414,16.054,359.587,16.054,359.28,16.382z M458.161,16.862c0.699,0.353,0.699-1.073,0-0.72
	C458.161,16.382,458.161,16.622,458.161,16.862z M312.24,19.022c0.842,0.198,1.444,0.636,2.4,0.72c0.532-0.908,0.82-2.06,1.2-3.12
	C314.034,16.106,313.319,18.084,312.24,19.022z M11.52,19.502c0.543-1.043-0.347-2.459-1.2-2.88
	C10.239,18.063,10.233,19.429,11.52,19.502z M295.44,17.582c1.582-0.542,0.598,1.483,1.2,1.92c1.115,0.235,1.449-0.311,2.16-0.48
	C298.471,17.677,296.231,15.607,295.44,17.582z M393.84,18.302c0.934,0.636,2.143-0.158,1.92-1.44
	C395.147,16.546,393.581,16.983,393.84,18.302z M663.84,19.502c1.185,0.226,1.797-2.414,0.72-2.88
	C664.443,17.634,663.097,18.396,663.84,19.502z M275.76,19.022c0.454-0.054,0.529,0.271,0.96,0.24
	c-0.322-1.026,1.409-1.224,0.24-1.68C276.824,18.326,275.831,18.213,275.76,19.022z M219.84,18.542
	c0.539,0.101,0.006,1.273,0.48,1.44c1.19,0.07,1.75-0.49,1.68-1.68C221.452,17.824,220.308,18.207,219.84,18.542z M400.56,19.502
	c-0.146-0.495,0.388-1.667-0.479-1.44C400.225,18.557,399.693,19.729,400.56,19.502z M402.96,18.302
	c0.105,0.694,0.506,1.094,1.2,1.2c0.358-0.281,0.981-0.298,1.199-0.72C404.956,18.261,403.767,17.67,402.96,18.302z M104.16,20.942
	c-1.764,0.396-2.389,1.931-3.12,3.36c0.5,0.141,0.776,0.504,1.2,0.72c0.785-0.255,0.629-1.451,1.44-1.68
	c2.255-0.091,3.112-2.772,2.4-5.04c-0.24,0-0.48,0-0.72,0C105.108,19.33,104.691,20.193,104.16,20.942z M571.92,23.342
	c0.488,0.551,0.51,1.57,1.439,1.68c0.067-0.493,0.642-0.479,0.96-0.72c-0.702-1.617-1.633-3.007-3.359-3.6
	c-0.619-0.741-0.38-2.34-1.681-2.4C568.583,20.633,569.416,23.422,571.92,23.342z M353.28,19.502c0.562-0.074,0.992-0.47,1.44,0
	c-0.029-0.61-0.35-0.931-0.96-0.96C353.757,19.019,353.105,18.847,353.28,19.502z M206.88,21.182c0.354,0.686,0.632,1.448,0.96,2.16
	c0.753,0.113,0.634-0.646,1.2-0.72c0.066-0.946-1.026-0.734-0.96-1.68c0.343-0.058,0.405-0.396,0.72-0.48
	c1.19-0.31,1.179,0.581,2.16,0.48c0.471-0.417,2.121-1.365,0.96-1.92C210.233,19.735,207.75,19.652,206.88,21.182z M18,20.462
	c0.16,0,0.32,0,0.48,0c0-0.32,0-0.64,0-0.96c-0.16,0-0.32,0-0.48,0C18,19.822,18,20.142,18,20.462z M113.52,21.422
	c0.293,0.027,0.568,0.072,0.48,0.48c0.849-0.191,0.879-1.201,1.68-1.44c0.679-0.042,1.646,0.206,1.68-0.48
	c-0.387-0.493-1.204-0.557-2.16-0.48C115.207,20.709,113.687,20.389,113.52,21.422z M292.56,19.982
	c0.425-0.055,1.202,0.242,0.96-0.48c-0.32,0-0.64,0-0.96,0C292.56,19.662,292.56,19.822,292.56,19.982z M340.8,21.902
	c1.636-0.109,0.645-2.108-0.24-2.4C340.625,20.317,340.375,21.448,340.8,21.902z M558,20.222c1.615,0.064,2.496,0.863,3.359,1.68
	c0.027-0.293,0.072-0.568,0.48-0.48c-0.167-1.034-1.688-0.713-1.68-1.92C559.151,19.453,558.154,19.416,558,20.222z M656.88,20.462
	c0.16,0,0.319,0,0.479,0c0-0.32,0-0.64,0-0.96c-0.16,0-0.319,0-0.479,0C656.88,19.822,656.88,20.142,656.88,20.462z M402.72,20.942
	c-0.098-0.623-0.747-0.693-1.2-0.96C401.353,20.87,401.9,21.042,402.72,20.942z M222,20.702c-0.077,0.557,0.039,0.921,0.24,1.2
	c1.241-0.04,2.068-0.492,2.4-1.44C223.758,20.54,222.516,20.257,222,20.702z M321.84,21.662c0,0.32,0,0.64,0,0.96
	c1.45,0.585,2.592-1.04,4.32-0.96c0-0.32,0-0.64,0-0.96C324.781,20.188,323.695,21.87,321.84,21.662z M382.8,21.422
	c0.479,0,0.96,0,1.439,0c-0.104-0.536-0.424-0.856-0.96-0.96C383.577,21.239,382.503,20.646,382.8,21.422z M118.56,21.902
	c0.595,0.035,1.165,0.044,1.2-0.48c-0.85,0.13-0.59-0.85-1.44-0.72C118.244,21.259,118.359,21.624,118.56,21.902z M555.6,21.662
	c0.307,0.328,1.133,0.328,1.44,0c0-0.32,0-0.64,0-0.96C556.297,20.759,556.108,21.37,555.6,21.662z M9.84,22.382
	c0.23,0.632,1.16,1.359,1.92,0.72c-0.435-0.765-0.798-1.602-1.44-2.16C10.436,21.698,9.583,21.485,9.84,22.382z M67.44,23.102
	c0.891-0.069,0.65-1.27,1.68-1.2C68.823,19.674,65.745,21.953,67.44,23.102z M210,24.062c0.632,0.132,2.498-0.31,3.6-0.48
	c-0.461-0.738-0.063-2.337-0.96-2.64C211.551,21.773,210.688,22.83,210,24.062z M327.12,21.422c0.16,0,0.32,0,0.48,0
	c0-0.16,0-0.32,0-0.48c-0.16,0-0.32,0-0.48,0C327.12,21.102,327.12,21.262,327.12,21.422z M382.32,22.382
	c-0.221-0.739-0.96-0.959-1.439-1.44C381.061,21.721,381.278,22.464,382.32,22.382z M606.24,21.422
	c0.417,0.703,0.978,1.263,1.681,1.68C609.33,22.08,607.262,20.012,606.24,21.422z M663.6,23.102c0.793,0.618,1.885-0.07,1.92-0.96
	c-0.149-0.57-0.322-1.117-0.96-1.2C664.875,22.297,663.609,22.071,663.6,23.102z M25.68,23.582c0.655,0.175,0.483-0.477,0.96-0.48
	c-0.158-0.882-0.885-1.195-1.44-1.68C24.965,22.537,25.511,22.871,25.68,23.582z M283.44,21.662c-0.114,0.754,0.3,0.981,0.72,1.2
	c0.138-0.502,0.595-0.685,0.48-1.44C284.083,21.346,283.719,21.461,283.44,21.662z M648.72,23.102
	c0.477,0.003,0.306,0.655,0.96,0.48c0.105-0.551,0.99-1.548,0.24-2.16C649.694,22.156,648.752,22.174,648.72,23.102z M17.52,23.822
	c0.711,0.169,1.045,0.715,2.16,0.48c0.293-0.363,0.471-2.067,0-2.4C19.077,22.659,17.833,22.774,17.52,23.822z M62.64,23.102
	c0.548,0.373,1.797-0.157,1.92-0.96C63.767,21.524,62.676,22.212,62.64,23.102z M610.8,22.142c0.123,0.803,1.372,1.333,1.92,0.96
	C612.685,22.212,611.593,21.524,610.8,22.142z M655.68,24.302c1.115,0.235,1.449-0.311,2.16-0.48c-0.405-1.035-1.546-1.334-2.4-1.92
	C655.505,22.717,655.254,23.848,655.68,24.302z M228.96,24.302c1.185,0.225,1.628-0.292,2.16-0.72c-0.106-0.694-0.506-1.094-1.2-1.2
	C229.864,23.286,229.016,23.398,228.96,24.302z M328.32,24.782c0.751-0.049,1.762,0.162,2.16-0.24
	c-0.063-1.376-0.783-2.096-2.16-2.16C327.954,22.819,327.954,24.345,328.32,24.782z M391.44,23.102
	c-0.059,1.259,1.897,1.512,2.88,0.96C394.509,21.917,392.45,22.35,391.44,23.102z M396.72,22.622c0,0.24,0,0.48,0,0.72
	c1.03-0.01,1.767-0.313,2.4-0.72C398.683,22.255,397.158,22.255,396.72,22.622z M28.56,24.542c0.9,0.603,2.42,0.12,2.4-0.96
	c-0.638-0.082-0.841-0.599-1.44-0.72C29.586,23.808,28.494,23.596,28.56,24.542z M128.64,23.822c-0.101-0.459-0.087-1.033-0.72-0.96
	C127.853,23.49,128.008,23.895,128.64,23.822z M291.12,23.102c0.374,0.986,1.118,1.602,1.92,2.16c0.379-0.901,1.85-0.71,1.44-2.4
	c-0.72,0.24-0.456,1.464-1.92,0.96c0.018-0.418-0.054-0.747-0.24-0.96C291.764,22.786,291.399,22.901,291.12,23.102z M644.4,23.582
	c-0.02,1.08,1.5,1.563,2.4,0.96c-0.25-0.79-0.744-1.335-1.44-1.68C645.575,23.637,644.578,23.199,644.4,23.582z M304.08,24.782
	c1.201,0.455,1.337-1.65,0.24-1.44C304.162,23.847,303.685,24.409,304.08,24.782z M307.2,26.222c0.862-0.337,1.594-0.806,1.68-1.92
	c-0.135-0.346-0.375-0.586-0.72-0.72C307.914,24.464,306.681,25.34,307.2,26.222z M16.56,25.262c0.111-0.751-0.208-1.071-0.96-0.96
	C15.705,24.838,16.024,25.158,16.56,25.262z M310.8,25.262c0.632,0.072,0.788-0.333,0.72-0.96c-0.24,0-0.48,0-0.72,0
	C310.8,24.622,310.8,24.942,310.8,25.262z M658.8,25.262c0.535-0.104,0.855-0.424,0.96-0.96
	C659.008,24.191,658.689,24.511,658.8,25.262z M107.76,26.462c0.577,0.173,1.451,0.68,1.92,0.24c-0.02-1.18-0.656-1.744-1.68-1.92
	C107.669,25.091,107.763,25.825,107.76,26.462z M186,25.262c0.16,0,0.32,0,0.48,0c0-0.16,0-0.32,0-0.48c-0.16,0-0.32,0-0.48,0
	C186,24.942,186,25.102,186,25.262z M565.68,26.702c0.469,0.44,1.343-0.067,1.92-0.24C568.151,23.779,565.428,25.044,565.68,26.702z
	 M104.88,25.742c0.425-0.055,1.202,0.242,0.96-0.48c-0.32,0-0.64,0-0.96,0C104.88,25.422,104.88,25.582,104.88,25.742z
	 M569.52,25.742c0.426-0.055,1.202,0.242,0.96-0.48c-0.319,0-0.64,0-0.96,0C569.52,25.422,569.52,25.582,569.52,25.742z
	 M157.68,26.702c0.16,0,0.32,0,0.48,0c0-0.16,0-0.32,0-0.48c-0.16,0-0.32,0-0.48,0C157.68,26.382,157.68,26.542,157.68,26.702z
	 M18.48,28.142c0.425-0.055,1.202,0.242,0.96-0.48c-0.32,0-0.64,0-0.96,0C18.48,27.822,18.48,27.982,18.48,28.142z M155.76,28.862
	c0.904,0.104,1.093-0.507,1.44-0.96C156.582,27.354,155.842,28.141,155.76,28.862z M655.92,28.142
	c0.425-0.055,1.201,0.242,0.96-0.48c-0.32,0-0.641,0-0.96,0C655.92,27.822,655.92,27.982,655.92,28.142z M29.52,28.382
	c-0.076,0.557,0.039,0.921,0.24,1.2c1.063,0.103,1.52-0.4,1.68-1.2C31.091,28.029,29.869,28.029,29.52,28.382z M643.92,28.382
	c0.035,0.89,1.127,1.578,1.92,0.96c0-0.32,0-0.64,0-0.96C645.491,28.029,644.269,28.029,643.92,28.382z M12.24,34.142
	c0.566,0.074,0.446,0.833,1.2,0.72c0.661-0.689-0.136-1.274-0.24-1.92c1.396-0.285,1.453-1.907,3.12-1.92
	c0.082-0.638,0.599-0.841,0.72-1.44c-0.72,0-1.44,0-2.16,0C14.086,31.188,12.903,32.405,12.24,34.142z M662.161,33.182
	c-0.363,0.339-0.759,1.166-0.24,1.68c0.753,0.113,0.634-0.646,1.2-0.72c-0.663-1.737-1.846-2.954-2.641-4.56c-0.72,0-1.44,0-2.16,0
	C659.029,31.354,661.085,31.777,662.161,33.182z M114,32.702c0.11-0.75-0.513-0.767-1.2-0.72
	C112.783,32.701,113.506,33.2,114,32.702z M561.36,32.222c-0.01,0.331,0.113,0.527,0.24,0.72c0.61-0.029,0.931-0.35,0.96-0.96
	C562.003,31.906,561.639,32.021,561.36,32.222z M116.88,33.422c0.16,0,0.32,0,0.48,0c0-0.32,0-0.64,0-0.96c-0.16,0-0.32,0-0.48,0
	C116.88,32.782,116.88,33.102,116.88,33.422z M558,33.422c0.16,0,0.319,0,0.479,0c0-0.32,0-0.64,0-0.96c-0.16,0-0.319,0-0.479,0
	C558,32.782,558,33.102,558,33.422z M8.4,37.022c1.408,0.692,3.416,0.112,2.88-1.92C9.636,34.174,8.688,35.814,8.4,37.022z
	 M664.32,34.862c-1.126,1.718,1.082,3.126,2.641,2.16C666.482,35.901,666.26,34.522,664.32,34.862z M22.8,39.662
	c0.058-0.342,0.395-0.405,0.48-0.72C22.688,38.172,21.798,39.501,22.8,39.662z M652.081,39.182c0.489,0.134,0.47,0.722,0.96,0.24
	C653.221,38.604,652.124,38.486,652.081,39.182z M17.52,43.022c2.053,1.022,2.581-1.097,3.6-2.4c-0.8,0-1.6,0-2.4,0
	C18.446,41.548,17.891,42.193,17.52,43.022z M657.84,43.022c-0.371-0.829-0.927-1.474-1.2-2.4c-0.8,0-1.6,0-2.4,0
	C655.26,41.925,655.788,44.044,657.84,43.022z M17.52,47.582c-0.025-1.209,0.607-2.368-0.72-2.64
	C16.165,45.875,16.809,47.234,17.52,47.582z M658.081,47.582c0.311-0.729,0.96-1.12,0.72-2.4c-0.307-0.013-0.332-0.308-0.72-0.24
	C657.581,45.708,657.567,46.759,658.081,47.582z M15.84,55.982c0.851-0.028,0.81-0.95,1.2-1.44c-0.776,0.297-0.183-0.776-0.96-0.48
	C15.977,54.708,15.179,55.292,15.84,55.982z M658.32,54.542c0.391,0.49,0.349,1.412,1.2,1.44c0.547-0.667,0.053-1.83-0.72-1.92
	C658.773,54.355,658.728,54.63,658.32,54.542z M12.72,56.942c0.472,1.288,2.179,1.341,2.88,2.4c0.955-0.325,1.349-1.212,2.88-0.96
	c0.012-0.731-0.218-1.222-0.72-1.44c-0.256,0.464-0.167,1.273-1.2,0.96c0.032-0.592,0.037-1.156-0.24-1.439
	c-1.633,0.272-2.154-0.566-3.12-0.96C13.316,56.258,12.463,56.045,12.72,56.942z M659.041,56.462
	c-0.474,0.166,0.059,1.339-0.48,1.439c-1.099,0.379-0.443-0.996-1.2-0.96c-0.138,0.502-0.595,0.686-0.479,1.44
	c1.531-0.252,1.925,0.635,2.88,0.96c0.515-0.944,2.897-1.34,2.88-2.64c-0.005-0.359-0.21-0.984-0.96-1.2
	C661.333,56.355,660.32,56.542,659.041,56.462z M19.92,62.942c0.504,0.216,1.067,0.373,1.44,0.721c0.475-0.938,0.23-2.206-1.2-1.921
	C19.958,62.021,19.844,62.385,19.92,62.942z M654.24,63.663c0.221-0.74,1.633-0.288,1.2-1.681
	C654.273,60.947,653.045,63.006,654.24,63.663z M10.32,66.542c0.499-0.382,1.277-0.483,1.92-0.721
	c0.215-1.895-1.041-2.318-1.92-3.119C9.657,63.573,9.657,65.671,10.32,66.542z M663.121,65.822c0.643,0.237,1.421,0.339,1.92,0.721
	c0.605-0.854,0.934-3.636-0.48-3.84C664.34,64.002,662.691,63.873,663.121,65.822z M18,66.062c0.781-0.02,1.293-0.307,1.44-0.96
	C18.66,65.122,18.147,65.41,18,66.062z M657.36,66.062c-0.146-0.652-0.659-0.94-1.439-0.96
	C656.067,65.755,656.58,66.042,657.36,66.062z M17.52,67.742c0.017,0.704,0.549,0.892,0.96,1.2c-0.13-0.85,0.85-0.59,0.72-1.439
	C18.563,67.504,17.83,67.412,17.52,67.742z M657.121,68.942c0.073-0.565,0.833-0.446,0.72-1.2c-0.31-0.33-1.043-0.237-1.68-0.239
	C656.217,68.246,656.828,68.434,657.121,68.942z M8.4,72.542c0.349,0.353,1.571,0.353,1.92,0c-0.175-0.546,0.432-1.873-0.48-1.681
	C9.673,71.735,8.31,71.412,8.4,72.542z M665.28,72.782c0.638-0.002,1.371,0.091,1.681-0.239c-0.138-1.063-1.191-1.209-1.92-1.681
	C665.069,71.553,664.909,72.433,665.28,72.782z M9.84,76.862c0.437,0.367,1.963,0.367,2.4,0C12.924,74.106,9.156,74.106,9.84,76.862
	z M663.121,76.862c0.437,0.367,1.962,0.367,2.399,0C666.205,74.106,662.436,74.106,663.121,76.862z M520.56,84.542
	c-0.565-0.074-0.446-0.834-1.2-0.721C519.22,84.465,520.347,85.044,520.56,84.542z M145.68,87.422c0.14-0.859-0.71-0.729-1.44-0.72
	C144.35,87.342,145.174,87.9,145.68,87.422z M89.04,88.382c0.655-0.021,0.483,0.399,0.96,0
	C90.189,87.458,88.851,87.458,89.04,88.382z M585.36,88.382c0.478,0.399,0.306-0.021,0.96,0
	C586.509,87.458,585.171,87.458,585.36,88.382z M139.44,91.262c0.346,0.135,0.586,0.374,0.72,0.72
	c0.857-0.263,1.417-0.823,1.68-1.68C141.009,89.033,139.785,90.095,139.44,91.262z M149.04,91.982c0.16,0,0.32,0,0.48,0
	c0-0.319,0-0.64,0-0.96c-0.16,0-0.32,0-0.48,0C149.04,91.342,149.04,91.663,149.04,91.982z M328.08,92.222
	c0.896,0.096,1.408-0.191,1.44-0.96C328.902,90.714,328.163,91.5,328.08,92.222z M95.04,92.462c0.16,0,0.32,0,0.48,0
	c0-0.16,0-0.32,0-0.48c-0.16,0-0.32,0-0.48,0C95.04,92.142,95.04,92.302,95.04,92.462z M330.72,92.462c0.16,0,0.32,0,0.48,0
	c0-0.16,0-0.32,0-0.48c-0.16,0-0.32,0-0.48,0C330.72,92.142,330.72,92.302,330.72,92.462z M333.84,92.942
	c1.605,0.55,1.66-0.505,0.48-0.96C334.495,92.637,333.843,92.465,333.84,92.942z M492.24,92.942c0.589,0.275,1.721,0.8,2.4,0.24
	C495.065,91.215,492.594,92.258,492.24,92.942z M579.84,92.462c0.16,0,0.32,0,0.479,0c0-0.16,0-0.32,0-0.48
	c-0.159,0-0.319,0-0.479,0C579.84,92.142,579.84,92.302,579.84,92.462z M463.44,93.663c0.405,0.418,2.072-0.856,1.44-1.44
	C464.514,92.817,463.389,92.651,463.44,93.663z M150.96,92.942c0.425-0.055,1.202,0.242,0.96-0.479c-0.32,0-0.64,0-0.96,0
	C150.96,92.623,150.96,92.782,150.96,92.942z M495.6,93.182c0.16,0,0.32,0,0.48,0c0-0.16,0-0.32,0-0.479c-0.16,0-0.32,0-0.48,0
	C495.6,92.862,495.6,93.022,495.6,93.182z M144.72,93.422c0,0.16,0,0.319,0,0.479c0.904,0.459,1.016,0.459,1.92,0
	C146.336,92.826,145.507,92.939,144.72,93.422z M341.28,93.663c0.215-0.775-0.782-0.338-0.96-0.721
	C340.105,93.717,341.103,93.28,341.28,93.663z M158.16,93.422c0.083,0.637,0.63,0.81,1.2,0.96c0.003-0.477,0.655-0.306,0.48-0.96
	C158.962,93.37,158.919,93.092,158.16,93.422z M140.4,94.382c0.16,0,0.32,0,0.48,0c0-0.32,0-0.641,0-0.96c-0.16,0-0.32,0-0.48,0
	C140.4,93.742,140.4,94.062,140.4,94.382z M143.28,94.382c0.536-0.104,0.855-0.425,0.96-0.96
	C143.489,93.311,143.169,93.63,143.28,94.382z M181.44,93.902c0.16,0,0.32,0,0.48,0c0-0.16,0-0.319,0-0.479c-0.16,0-0.32,0-0.48,0
	C181.44,93.583,181.44,93.742,181.44,93.902z M461.28,94.382c0.426-0.055,1.202,0.242,0.96-0.48
	C461.793,93.935,461.438,94.06,461.28,94.382z M84.24,97.502c1.445-0.086,1.441,1.278,2.4,1.68c0.007-1.206-0.967-1.434-0.96-2.64
	c0.25-0.71,1.215-0.705,0.96-1.92c-0.448-0.192-0.879-0.401-1.44-0.48C85.71,96.092,84.103,95.924,84.24,97.502z M542.64,95.822
	c0.856-0.103,0.838-1.082,1.2-1.68C542.943,94.206,542.44,94.662,542.64,95.822z M588.72,94.623
	c-0.315,1.354,0.951,1.128,0.96,2.159c-0.152,0.969-0.944,1.296-0.96,2.4c0.959-0.401,0.955-1.766,2.4-1.68
	c0.314-1.355-0.952-1.129-0.96-2.16c-0.106-0.454,0.326-1.446-0.48-1.2C589.644,94.586,588.868,94.29,588.72,94.623z M152.88,95.342
	c0.062-0.562,1.054-0.139,1.2,0c-0.029-0.61-0.349-0.931-0.96-0.96C153.156,94.702,152.145,95.107,152.88,95.342z M155.28,94.623
	c-0.261,1.072,2.01,0.854,2.4,0.479C157.276,94.582,156.087,93.991,155.28,94.623z M158.16,95.342
	c0.325,0.075,0.458,0.342,0.96,0.24C159.301,94.764,158.204,94.646,158.16,95.342z M165.36,95.822
	c0.691-0.028,1.571,0.132,1.92-0.239C167.222,94.18,165.438,95.111,165.36,95.822z M24.24,96.302c0,0.24,0,0.479,0,0.72
	c0.307,0.328,1.133,0.328,1.44,0C25.764,96.189,24.553,96.018,24.24,96.302z M256.56,98.462c0.15,0.569,0.323,1.117,0.96,1.2
	c0.21-1.47,1.171-2.189,1.92-3.12c-0.033-0.687-1.001-0.439-1.68-0.48c-0.58,0.576,0.583,0.636,0.24,1.68
	C257.072,97.534,257.146,98.329,256.56,98.462z M649.68,97.022c0.307,0.328,1.133,0.328,1.44,0c0.066-0.547-0.059-0.902-0.48-0.96
	C650.49,96.551,649.427,96.129,649.68,97.022z M265.68,97.262c0-0.32,0-0.64,0-0.96c-0.32,0-0.64,0-0.96,0
	C264.825,96.837,265.145,97.158,265.68,97.262z M268.56,99.182c0.722,0.242,0.425-0.534,0.48-0.96
	c0.528-0.352,1.125-0.636,0.96-1.68c-0.307-0.014-0.333-0.308-0.72-0.24C269.137,97.359,268.482,97.904,268.56,99.182z
	 M277.2,97.022c0.304-0.96-1.622-0.917-1.92-0.479C275.734,96.892,276.46,97.692,277.2,97.022z M282,98.703
	c0.413-0.014,0.615,0.185,0.72,0.479c0.897-0.383,1.456-1.104,2.64-1.2C285.125,94.883,282.445,96.931,282,98.703z M364.081,97.262
	c0.01,1.109,0.682,1.559,1.92,1.44c0.358,0.281,0.282,0.997,0.96,0.96c0.666-1.014,1.851-1.51,1.92-3.12
	C366.728,97.254,366.16,96.654,364.081,97.262z M14.16,97.502c0.263,0.856,0.823,1.417,1.68,1.68
	C16.532,97.965,15.074,95.871,14.16,97.502z M259.92,99.182c0.739,0.701,1.075,1.806,2.4,1.92c1.205-0.476,1.003-2.356,1.44-3.6
	C262.425,95.865,260.124,97.514,259.92,99.182z M299.76,97.022c-0.245,1.045,0.496,1.104,0.72,1.681
	c0.938-0.343,1.578-0.982,1.92-1.921C301.518,96.86,300.275,96.578,299.76,97.022z M309.12,98.703
	c0.89-0.036,1.578-1.128,0.96-1.921C309.19,96.818,308.502,97.91,309.12,98.703z M312,97.262c0.413,0.013,0.615-0.185,0.72-0.48
	C312.343,96.805,311.888,96.75,312,97.262z M371.76,97.262c0.547,0.067,0.902-0.058,0.96-0.48
	C372.295,96.836,371.518,96.541,371.76,97.262z M659.52,99.182c0.857-0.263,1.417-0.823,1.68-1.68
	c-0.565-0.074-0.446-0.834-1.199-0.721C659.864,97.572,658.822,98.309,659.52,99.182z M295.2,98.703
	c0.8-0.161,1.303-0.617,1.2-1.681C295.448,96.996,294.439,97.766,295.2,98.703z M322.32,102.782c0.683,0.377,1.59,1.473,2.4,0.96
	c-0.364-1.155-1.076-1.964-1.44-3.119c1.593-0.394,1.616,0.784,2.64,0.96c0.58-1.151-1.125-1.849-2.16-2.16
	c0.412-0.389,0.596-1.004,0.48-1.92c-0.948-0.332-2.213-0.348-3.36-0.48c0.403,1.463-0.667,2.396-0.24,3.12
	c1.006,0.046,0.742-1.178,1.92-0.96C324.428,100.186,321.794,100.952,322.32,102.782z M376.56,97.502
	c0.351,0.322,1.901,0.49,1.92-0.24C378.129,96.94,376.58,96.771,376.56,97.502z M78,99.902c-0.235,1.115,0.311,1.449,0.48,2.16
	c0.588-0.212,0.881-0.719,1.92-0.479c-0.018,0.418,0.053,0.746,0.24,0.96c0.32,0,0.64,0,0.96,0c0.202-0.279,0.316-0.644,0.24-1.2
	c-0.284-0.276-0.849-0.271-1.44-0.24c0.218-1.178-1.006-0.914-0.96-1.92c0.529-0.205,1.179-1.522,0.72-1.92
	c-0.136,0.744-1.129,0.631-1.2,1.44c0.293,0.026,0.568,0.071,0.48,0.479C78.841,99.303,78.639,99.821,78,99.902z M595.92,99.422
	c-0.663,0.777-1.026,1.854-2.4,1.92c-0.076,0.557,0.039,0.921,0.24,1.2c0.32,0,0.64,0,0.96,0c-0.034-1.287,1.568-1.082,2.16-0.48
	c0.169-0.711,0.715-1.045,0.479-2.16c-0.603-0.196-1.115-0.484-1.439-0.96c0.021-0.378,0.611-0.188,0.479-0.72
	c-0.843,0.043-0.789-0.811-1.439-0.96C595.111,98.151,595.424,98.878,595.92,99.422z M118.32,97.502c-0.32,0-0.64,0-0.96,0
	C117.171,98.426,118.509,98.426,118.32,97.502z M517.68,100.142c-0.116-0.756,0.736-0.543,0.48-1.439
	c-0.456-0.744-1.055-1.347-2.4-1.2C515.778,99.004,516.576,99.726,517.68,100.142z M558,97.502c-0.32,0-0.641,0-0.96,0
	C556.851,98.426,558.189,98.426,558,97.502z M127.92,98.222c0.16,0,0.32,0,0.48,0c0-0.16,0-0.32,0-0.48c-0.16,0-0.32,0-0.48,0
	C127.92,97.902,127.92,98.062,127.92,98.222z M224.88,98.462c0.417,1.104,0.897,2.143,1.92,2.64c0.689-0.83,2.277-0.763,2.4-2.16
	c-1.178-0.342-2.874-0.166-3.36-1.2C225.604,98.067,225.2,98.222,224.88,98.462z M280.32,101.583c0.563-1.731-1.097-3.188-2.4-3.841
	C277.358,99.473,279.017,100.93,280.32,101.583z M443.76,98.942c1.129,0.766,1.902-0.568,2.4-1.2
	C444.956,97.738,443.62,97.601,443.76,98.942z M82.32,98.462c0,0.16,0,0.319,0,0.479c0.146,0.014,0.284,0.036,0.24,0.24
	c0.16,0,0.32,0,0.48,0c0.014-0.146,0.036-0.284,0.24-0.24c0-0.16,0-0.319,0-0.479c-0.146-0.014-0.284-0.036-0.24-0.24
	c-0.16,0-0.32,0-0.48,0C82.546,98.369,82.524,98.506,82.32,98.462z M125.04,99.902c-0.316,1.524-1.094,2.587-2.4,3.12
	c-0.086-1.114-0.817-1.582-1.68-1.92c-0.098,0.302-0.309,0.49-0.72,0.48c1.102,1.058,0.788,3.532,1.68,4.8
	c1.121-0.239,1.411-1.31,1.68-2.4c0.373-0.347,0.936-0.505,1.44-0.72c-0.119-1.319,1.37-1.03,0.96-2.64
	c0.578-0.311,2.041-2,0.96-2.4C126.357,98.819,125.962,99.624,125.04,99.902z M214.32,98.462c-0.282,2.521,2.201,2.279,2.16,4.56
	c1.669,0.149,2.406-0.635,2.64-1.92c-0.443-0.888-2.224-1.165-0.96-2.399C217.425,98.165,215.319,97.964,214.32,98.462z
	 M387.6,99.663c0.01-0.73,0.14-1.58-0.72-1.44C386.403,98.728,386.959,99.553,387.6,99.663z M431.76,98.462
	c-0.265,1,1.704,1,1.439,0C432.699,97.939,432.515,98.583,431.76,98.462z M592.081,98.462c0,0.16,0,0.319,0,0.479
	c0.146,0.014,0.283,0.036,0.239,0.24c0.16,0,0.32,0,0.48,0c0.014-0.146,0.036-0.284,0.24-0.24c0-0.16,0-0.319,0-0.479
	c-0.146-0.014-0.284-0.036-0.24-0.24c-0.16,0-0.32,0-0.48,0C592.306,98.369,592.285,98.506,592.081,98.462z M408.48,98.703
	c0.014,0.866,0.599,1.161,0.72,1.92c-0.505,0.486-1.025,1.859-0.72,2.399c0.952-0.008,0.994-0.926,1.44-1.439
	c0.8-0.16,1.303-0.617,1.2-1.681c-1.054,0.093-0.771-1.149-1.44-1.439C409.72,98.983,408.829,98.571,408.48,98.703z M68.88,99.422
	c-0.021,1.301,0.713,1.847,1.2,2.64c1.238-0.442,1.665-1.695,3.12-1.92c-0.287-0.514-0.453-1.147-0.96-1.439
	C71.384,99.206,69.752,98.934,68.88,99.422z M104.4,98.942c-0.139,2.459,2.82,1.82,2.88,4.08c0.993-0.446,1.147-1.732,1.92-2.399
	c-0.906-0.214-0.559-1.682-1.92-1.44c0.067,0.627,0.081,1.201-0.72,0.96c-0.446-0.514-0.488-1.432-1.44-1.439
	C104.79,98.692,104.593,98.815,104.4,98.942z M132.48,99.182c0.16,0,0.32,0,0.48,0c0.374-0.591-0.815-0.706-0.72-0.24
	C132.387,98.956,132.524,98.978,132.48,99.182z M291.6,99.422c0.399,1.44,1.962,1.718,2.88,2.64c0.027-0.293,0.072-0.568,0.48-0.479
	c-0.615-1.226-1.325-2.355-2.64-2.88C292.186,99.047,291.946,99.288,291.6,99.422z M296.88,100.142
	c0.831,0.049,0.343,1.417,1.68,0.96c0.402-0.398,0.191-1.409,0.24-2.16C298.023,98.4,297.259,99.53,296.88,100.142z M306,98.942
	c-0.624-0.646-0.724,0.294-1.44,0.24c0.57,1.109,1.224,2.136,1.68,3.36c0.753,0.113,0.634-0.646,1.2-0.721
	C307.288,100.535,305.644,100.739,306,98.942z M368.88,99.902c0.523,0.677,1.683,0.717,2.399,1.2
	c-0.115-0.756,0.737-0.543,0.48-1.439C371.51,98.355,368.862,98.358,368.88,99.902z M413.041,101.342
	c0.631-0.071,0.188,0.931,0.96,0.72c-0.266-1.014,0.564-3.125-0.48-3.359C413.669,99.892,412.711,99.973,413.041,101.342z
	 M415.44,101.822c0.652,0.582,1.171-0.426,1.92-0.479c0-0.48,0-0.96,0-1.44c-1.127,0.088-0.679-1.4-1.92-1.199
	C415.42,100.158,416.349,100.708,415.44,101.822z M438.48,99.182c0,0.16,0,0.32,0,0.48c0.293,0.026,0.568,0.071,0.48,0.479
	c0.159,0,0.319,0,0.479,0c0.027-0.293,0.072-0.568,0.48-0.479c0-0.16,0-0.32,0-0.48c-0.293-0.027-0.568-0.071-0.48-0.479
	c-0.16,0-0.32,0-0.479,0C438.933,98.995,438.888,99.27,438.48,99.182z M539.28,99.422c0,0.56,0,1.12,0,1.68
	c0.723,0.242,0.426-0.534,0.48-0.96c0.391-0.108,1.658-1.289,0.479-1.439C540.455,99.477,539.458,99.04,539.28,99.422z
	 M549.36,99.663c0.16,0,0.32,0,0.48,0c0-0.32,0-0.641,0-0.96c-0.16,0-0.32,0-0.48,0C549.36,99.022,549.36,99.342,549.36,99.663z
	 M568.32,100.142c-0.355-0.045-0.22-0.58-0.239-0.96c-1.361-0.241-1.015,1.227-1.92,1.44c0.772,0.667,0.927,1.953,1.92,2.399
	c0.06-2.26,3.019-1.621,2.88-4.08C569.475,97.888,569.468,100.089,568.32,100.142z M602.161,100.142
	c1.455,0.225,1.882,1.478,3.119,1.92c0.487-0.793,1.221-1.339,1.2-2.64c-0.962-0.479-2.604-0.275-3.6-0.72
	C602.798,99.34,602.281,99.543,602.161,100.142z M186.72,101.583c0.593-0.956,0.063-2.534-0.96-2.641
	C185.181,99.885,185.549,101.625,186.72,101.583z M346.8,99.663c0.7,0.353,0.7-1.073,0-0.721
	C346.8,99.182,346.8,99.422,346.8,99.663z M355.44,103.502c0.72-1.041,0.305-3.216,0.96-4.32
	C352.648,97.608,353.172,102.958,355.44,103.502z M400.56,99.663c0.381,1.058,1.788,0.173,1.92-0.48
	C402.077,98.85,400.33,98.628,400.56,99.663z M299.76,101.583c0.121,0.599,0.638,0.801,0.72,1.439c1.292-0.509,2.81-1.935,1.92-3.84
	c-0.32,0-0.64,0-0.96,0C301.06,100.163,300.539,101,299.76,101.583z M383.28,99.663c0.16,0,0.32,0,0.48,0c0-0.16,0-0.32,0-0.48
	c-0.16,0-0.32,0-0.48,0C383.28,99.342,383.28,99.502,383.28,99.663z M422.64,99.182c-0.8,0-1.6,0-2.4,0
	C420.024,100.888,422.634,100.088,422.64,99.182z M10.32,101.342c0.384,1.056,2.6,0.279,2.88,1.439
	c-0.978,1.793,0.701,3.326,2.16,4.08c0.521-1.237,0.108-3.412,0.24-5.04c0.251-0.675,1.247-1.458,0.72-2.159
	c-1.165-0.045-0.45,1.79-1.92,1.439C13.872,99.243,10.558,99.259,10.32,101.342z M24.48,102.062c0.987-0.133,1.346-0.895,1.2-2.16
	c-0.307-0.013-0.333-0.308-0.72-0.239C24.824,100.452,23.782,101.189,24.48,102.062z M87.12,99.902c0.106,0.694,0.506,1.095,1.2,1.2
	c0.201-0.278,0.316-0.644,0.24-1.2C88.253,99.574,87.427,99.574,87.12,99.902z M127.68,103.022c1.256,0.376,0.153-1.606,1.2-1.439
	c1.161,1.078,1.813,2.667,3.36,3.359c-0.171-2.309-1.594-3.365-2.16-5.279C128.404,99.787,127.339,101.666,127.68,103.022z
	 M202.8,100.862c-0.275,0.995,0.505,0.936,0.48,1.681c-0.561,0.319-0.688,1.072-0.96,1.68c0.576,0.224,0.635,0.965,1.68,0.72
	c1.129-1.703,0.006-2.836,0.72-5.04C203.927,99.285,202.835,99.972,202.8,100.862z M366.48,101.822
	c0.163-1.683-1.664-1.375-2.399-2.159C364.299,100.864,365.021,102.638,366.48,101.822z M426,100.623
	c0.822,0.417,1.491-1.042,0.479-0.96C426.777,100.439,425.704,99.845,426,100.623z M587.041,101.102
	c0.693-0.105,1.094-0.506,1.199-1.2C587.414,99.057,586.195,100.276,587.041,101.102z M650.88,102.062
	c0.518-0.814-0.089-2.212-0.96-2.399C649.318,100.562,649.801,102.083,650.88,102.062z M659.76,102.062
	c0.13,1.551-0.278,3.639,0.24,4.8c1.589-0.834,3.094-2.29,2.16-4.319c0.619-0.74,2.463-0.257,2.88-1.2
	c-0.272-0.81-0.869-1.572-1.681-1.68c-1.235-0.164-1.925,0.837-2.64,1.439c-1.224,0.185-0.548-1.532-1.68-1.439
	C658.455,100.482,659.706,101.125,659.76,102.062z M141.36,103.982c-0.853,0.428-1.665,0.896-1.92,1.92
	c0.777-0.296,0.184,0.777,0.96,0.48c-0.064-1.904,1.717-1.963,2.88-2.641c-0.344-1.784,1.429-1.45,0.96-3.359
	c-0.933-0.348-2.009-0.551-3.36-0.48C140.892,101.411,140.699,103.124,141.36,103.982z M101.76,102.062c0.32,0,0.64,0,0.96,0
	c0.353-0.349,0.353-1.57,0-1.92c-0.32,0-0.64,0-0.96,0C101.407,100.492,101.407,101.713,101.76,102.062z M132.24,100.623
	c0.16,0,0.32,0,0.48,0c0-0.16,0-0.32,0-0.48c-0.16,0-0.32,0-0.48,0C132.24,100.302,132.24,100.462,132.24,100.623z M190.32,102.542
	c0.776,0.296,0.183-0.777,0.96-0.48c-0.629-0.41-0.125-1.955-1.2-1.92C189.455,100.887,190.072,101.928,190.32,102.542z
	 M283.44,101.342c0.375,0.985,1.118,1.602,1.92,2.16c0.462-0.667,0.776-2.461,0.24-3.36
	C284.335,99.997,283.573,100.355,283.44,101.342z M400.56,103.262c0.566,0.074,0.446,0.833,1.2,0.72
	c0.117-1.322,1.42-1.459,2.16-2.16c0-0.479,0-0.96,0-1.439C402.674,100.304,401.035,101.781,400.56,103.262z M572.64,102.062
	c0.32,0,0.64,0,0.96,0c0.353-0.349,0.353-1.57,0-1.92c-0.32,0-0.64,0-0.96,0C572.288,100.492,572.288,101.713,572.64,102.062z
	 M146.16,103.502c1.332-0.188,0.714-2.326,1.44-3.12C146.301,100.603,145.983,101.805,146.16,103.502z M149.28,103.022
	c1.161,0.157,1.742-2.128,0.72-2.64C149.683,101.125,148.607,102.052,149.28,103.022z M85.2,103.502
	c1.797-0.571,0.304-2.625-0.96-2.88C84.053,102.089,85.013,102.41,85.2,103.502z M136.08,103.022
	c-0.147-0.893,0.454-2.533-0.72-2.399C134.824,101.393,135.155,102.957,136.08,103.022z M137.52,101.822
	c0.284,0.276,0.849,0.272,1.44,0.24c-0.39-0.49-0.348-1.411-1.2-1.439C137.559,100.901,137.444,101.265,137.52,101.822z
	 M157.2,102.542c0.776-0.297,0.184,0.776,0.96,0.479c0.172-0.868,0.789-1.291,0.96-2.16c-0.557,0.077-0.921-0.038-1.2-0.239
	C157.683,101.265,157.581,102.043,157.2,102.542z M178.32,102.302c0.512,0.288,1.307,0.293,1.44,0.96
	c-0.003,0.477-0.655,0.305-0.48,0.96c0.346,0.135,0.585,0.374,0.72,0.72c0.753,0.114,0.634-0.646,1.2-0.72
	c-0.34-0.958-1.56-1.594-0.48-2.64c-1.032-0.009-0.805-1.275-2.16-0.96C178.229,100.931,178.323,101.665,178.32,102.302z
	 M528.24,100.862c-0.076,0.557,0.039,0.922,0.24,1.2c0.756,0.116,0.544-0.736,1.44-0.479
	C529.884,100.814,528.584,100.588,528.24,100.862z M590.161,103.502c0.012-0.875,1.818-2.221,0.479-2.88
	C589.877,101.319,588.379,102.931,590.161,103.502z M384.24,101.342c-0.16,1.04,1.114,0.646,1.921,0.72
	c-0.139,1.179,0.311,1.769,1.199,1.92C388.154,102.304,386,100.465,384.24,101.342z M29.04,104.462
	c0.582,0.858,1.448,1.432,1.44,2.88c1.941-1.089-0.162-3.458,0.96-5.521C30.024,100.511,29.336,103.154,29.04,104.462z
	 M644.4,104.462c-0.588,0.784-0.787,2.683,0.48,2.88c-0.078-1.598,1.092-1.948,1.439-3.12c-0.543-1.057-0.488-2.711-1.92-2.88
	C643.341,102.18,644.363,103.329,644.4,104.462z M22.8,102.542c0.822,0.417,1.491-1.042,0.48-0.96
	C23.577,102.359,22.503,101.765,22.8,102.542z M37.68,101.822c-0.223,0.943,0.834,0.605,0.48,1.681
	c0.729-0.472,1.783-0.617,1.92-1.681C39.447,101.259,38.444,101.782,37.68,101.822z M58.56,103.022c0.694-0.105,1.094-0.506,1.2-1.2
	C59.14,101.182,57.92,102.402,58.56,103.022z M236.88,103.982c0.642-0.558,1.005-1.395,1.44-2.16
	C237.313,101.178,236.619,102.591,236.88,103.982z M293.04,103.262c-0.042-1.317-1.656-1.063-2.4-1.68
	C291.06,102.435,291.696,104.106,293.04,103.262z M348.24,103.262c0.178,0.383,1.175-0.055,0.96,0.72c0.718-0.482,1.5-0.9,1.44-2.16
	C349.853,101.466,348.424,102.246,348.24,103.262z M420.24,102.062c0.426-0.055,1.202,0.242,0.96-0.479c-0.319,0-0.64,0-0.96,0
	C420.24,101.742,420.24,101.902,420.24,102.062z M615.6,101.822c0.082,0.722,0.822,1.508,1.44,0.96
	c-0.106-0.693-0.507-1.094-1.2-1.199C615.827,101.729,615.804,101.867,615.6,101.822z M635.28,101.822
	c0.138,1.063,1.191,1.209,1.92,1.681c-0.354-1.075,0.703-0.737,0.48-1.681C636.917,101.782,635.914,101.259,635.28,101.822z
	 M652.56,102.542c-0.104-0.536-0.424-0.856-0.96-0.96C651.489,102.333,651.809,102.654,652.56,102.542z M43.92,102.542
	c0.181,0.778,0.877,1.042,1.92,0.96c-0.323-0.638-0.803-1.117-1.44-1.44C44.373,102.355,44.329,102.63,43.92,102.542z
	 M77.28,103.502c0.478-0.506-0.08-1.331-0.72-1.44C76.55,102.792,76.42,103.642,77.28,103.502z M222.48,102.302
	c0.036,0.89,1.127,1.578,1.92,0.96C224.365,102.372,223.273,101.684,222.48,102.302z M287.76,102.542
	c0.083,0.637,0.63,0.81,1.2,0.96C289.707,102.327,288.615,101.735,287.76,102.542z M598.081,103.502
	c0.824,0.376,1.139-1.607,0.239-1.44C598.374,102.779,597.434,102.878,598.081,103.502z M629.52,103.502
	c1.063,0.263,1.193-0.407,1.92-0.48c-0.104-0.535-0.424-0.855-0.96-0.96C630.646,103.028,629.469,102.652,629.52,103.502z
	 M17.04,103.022c0.425-0.055,1.202,0.242,0.96-0.479c-0.32,0-0.64,0-0.96,0C17.04,102.703,17.04,102.862,17.04,103.022z
	 M24.48,104.942c0.32,0,0.64,0,0.96,0c0.537-0.771,0.206-2.334-0.72-2.399C24.472,103.157,23.855,104.197,24.48,104.942z
	 M296.88,103.502c-0.147-0.653-0.66-0.941-1.44-0.96C295.587,103.195,296.1,103.483,296.88,103.502z M649.92,104.942
	c0.319,0,0.64,0,0.96,0c0.536-0.771,0.205-2.334-0.72-2.399C649.912,103.157,649.294,104.197,649.92,104.942z M657.36,103.022
	c0.426-0.055,1.202,0.242,0.96-0.479c-0.319,0-0.64,0-0.96,0C657.36,102.703,657.36,102.862,657.36,103.022z M41.04,103.982
	c0.16,0,0.32,0,0.48,0c0-0.16,0-0.319,0-0.479c-0.16,0-0.32,0-0.48,0C41.04,103.663,41.04,103.822,41.04,103.982z M182.64,103.982
	c-0.041,0.682,0.812,0.469,0.48,1.44c0.32,0,0.64,0,0.96,0c0.083-1.043-0.181-1.739-0.96-1.92
	C183.093,103.795,183.048,104.071,182.64,103.982z M219.12,103.982c0.425-0.055,1.202,0.242,0.96-0.479c-0.32,0-0.64,0-0.96,0
	C219.12,103.663,219.12,103.822,219.12,103.982z M633.84,103.982c0.16,0,0.32,0,0.479,0c0-0.16,0-0.319,0-0.479
	c-0.159,0-0.319,0-0.479,0C633.84,103.663,633.84,103.822,633.84,103.982z M199.92,104.942c0.16,0,0.32,0,0.48,0
	c0-0.16,0-0.319,0-0.479c-0.16,0-0.32,0-0.48,0C199.92,104.623,199.92,104.782,199.92,104.942z M251.28,104.942
	c0.16,0,0.32,0,0.48,0c0-0.16,0-0.319,0-0.479c-0.16,0-0.32,0-0.48,0C251.28,104.623,251.28,104.782,251.28,104.942z M40.08,107.583
	c0.307,0.328,1.133,0.328,1.44,0c-0.15-0.57-0.323-1.117-0.96-1.2C40.739,107.121,39.901,106.843,40.08,107.583z M633.84,107.583
	c0.307,0.328,1.133,0.328,1.439,0c-0.149-0.57-0.322-1.117-0.96-1.2C634.499,107.121,633.662,106.843,633.84,107.583z"/>
</svg>
