<?xml version="1.0" encoding="utf-8"?>
<!-- Generator: Adobe Illustrator 14.0.0, SVG Export Plug-In . SVG Version: 6.00 Build 43363)  -->
<!DOCTYPE svg PUBLIC "-//W3C//DTD SVG 1.1//EN" "http://www.w3.org/Graphics/SVG/1.1/DTD/svg11.dtd">
<svg version="1.1" id="Layer_1" xmlns="http://www.w3.org/2000/svg" xmlns:xlink="http://www.w3.org/1999/xlink" x="0px" y="0px"
	 width="245.807px" height="112.686px" viewBox="0 0 245.807 112.686" style="enable-background:new 0 0 245.807 112.686;"
	 xml:space="preserve">
<style type="text/css">
<![CDATA[
	.st0{fill:#361313; fill-opacity: 1; stroke-opacity: 1;}
	.st1{fill:#240101; fill-opacity: 1; stroke-opacity: 1;}
]]>
</style>
<g id="oval">
	<ellipse class="st0" cx="122.903" cy="56.343" rx="122.903" ry="56.343"/>
	<path class="st1" d="M122.903,108.771c-16.131,0-31.771-1.447-46.482-4.3c-7.047-1.366-13.842-3.057-20.188-5.022
		c-6.26-1.938-12.139-4.158-17.472-6.604c-5.293-2.426-10.088-5.09-14.252-7.914c-4.15-2.817-7.705-5.815-10.563-8.913
		C8.154,69.74,5.219,63.12,5.219,56.346c0-6.776,2.936-13.396,8.726-19.671c2.857-3.099,6.413-6.098,10.563-8.913
		c4.165-2.826,8.96-5.489,14.252-7.914c5.334-2.446,11.213-4.668,17.472-6.608c6.347-1.965,13.142-3.654,20.188-5.021
		c14.711-2.854,30.352-4.298,46.482-4.298c16.133,0,31.772,1.444,46.485,4.298c7.047,1.367,13.84,3.057,20.188,5.021
		c6.262,1.939,12.141,4.162,17.475,6.608c5.291,2.425,10.086,5.089,14.252,7.914c4.148,2.815,7.703,5.814,10.563,8.913
		c5.789,6.275,8.727,12.895,8.727,19.671c0,6.777-2.938,13.395-8.727,19.671c-2.857,3.098-6.414,6.096-10.563,8.913
		c-4.166,2.826-8.961,5.488-14.252,7.914c-5.334,2.446-11.213,4.669-17.475,6.604c-6.348,1.968-13.141,3.656-20.188,5.022
		C154.675,107.323,139.034,108.771,122.903,108.771z M122.903,4.847c-16.025,0-31.563,1.437-46.173,4.27
		c-6.991,1.356-13.728,3.032-20.021,4.981c-6.2,1.92-12.021,4.121-17.301,6.541c-5.227,2.396-9.959,5.021-14.065,7.811
		c-4.08,2.771-7.572,5.715-10.375,8.751c-5.646,6.118-8.505,12.56-8.505,19.143c0,6.584,2.859,13.023,8.505,19.141
		c2.803,3.04,6.294,5.984,10.375,8.753c4.105,2.786,8.84,5.415,14.065,7.812c5.279,2.422,11.101,4.621,17.301,6.542
		c6.295,1.95,13.031,3.625,20.021,4.979c14.61,2.834,30.146,4.271,46.173,4.271c16.028,0,31.563-1.438,46.172-4.271
		c6.992-1.354,13.729-3.03,20.023-4.979c6.199-1.921,12.021-4.12,17.299-6.542c5.229-2.396,9.959-5.023,14.066-7.812
		c4.08-2.77,7.568-5.714,10.375-8.753c5.645-6.116,8.506-12.556,8.506-19.141c0-6.583-2.861-13.023-8.506-19.143
		c-2.805-3.039-6.293-5.981-10.375-8.751c-4.107-2.788-8.84-5.416-14.066-7.811c-5.277-2.42-11.1-4.621-17.299-6.541
		c-6.295-1.95-13.031-3.625-20.023-4.981C154.466,6.283,138.93,4.847,122.903,4.847z"/>
</g>
</svg>
