<?xml version="1.0" encoding="utf-8"?>
<!-- Generator: Adobe Illustrator 14.0.0, SVG Export Plug-In . SVG Version: 6.00 Build 43363)  -->
<!DOCTYPE svg PUBLIC "-//W3C//DTD SVG 1.1//EN" "http://www.w3.org/Graphics/SVG/1.1/DTD/svg11.dtd">
<svg version="1.1" id="Layer_1" xmlns="http://www.w3.org/2000/svg" xmlns:xlink="http://www.w3.org/1999/xlink" x="0px" y="0px"
	 width="216px" height="6.378px" viewBox="0 0 216 6.378" style="enable-background:new 0 0 216 6.378;" xml:space="preserve">
<style type="text/css">
<![CDATA[
	.st0{fill:#361313; fill-opacity: 1; stroke-opacity: 1;}
]]>
</style>
<path class="st0" d="M216,3.778l-2.904-1.504c0,0,0.213,0.498,0.271,1.209h-90.016c-0.006-0.379-0.096-0.709-0.268-0.979
	c-0.503-0.801-1.568-0.812-2.008-0.779c-1.236,0.093-2.122,0.806-3.071,1.658c-0.026,0.024-0.049,0.062-0.063,0.101h-2.336
	c-0.724-1.992-2.594-2.688-4.15-3.069c-0.508-0.123-1.042-0.221-1.596-0.289c-1.917-0.235-3.772-0.139-5.521,0.289
	c-1.559,0.38-3.43,1.075-4.152,3.069h-2.336c-0.016-0.039-0.037-0.076-0.064-0.101c-0.947-0.853-1.833-1.565-3.07-1.658
	c-0.435-0.031-1.503-0.022-2.007,0.779c-0.171,0.271-0.259,0.601-0.265,0.979H2.628C2.65,3.102,2.729,2.688,2.904,2.274L0,3.778
	l2.904,1.508c0,0-0.211-0.5-0.27-1.211h89.868c0.38,1.992,2.668,2.332,3.869,2.222c1.271-0.12,2.453-0.53,3.742-1.324
	c0.022,0.065,0.047,0.126,0.073,0.181c0.474,0.998,1.779,1.248,2.49,1.17c1.353-0.146,2.394-0.992,3.233-1.797
	c0.095-0.092,0.12-0.274,0.056-0.41c-0.063-0.135-0.191-0.17-0.287-0.08c-0.795,0.765-1.779,1.562-3.033,1.697
	c-0.672,0.073-1.78-0.203-2.117-0.912c-0.014-0.027-0.026-0.058-0.037-0.088c0.408-0.271,0.83-0.582,1.27-0.932
	c0.817-0.65,1.908-1.398,3.104-1.409c0.498-0.011,1.034,0.134,1.575,0.409c0.347,0.177,0.775,0.395,1.117,0.711
	c-0.219,0.348-0.381,0.771-0.465,1.238c-0.082,0.445-0.05,0.836,0.094,1.133c0.097,0.195,0.291,0.441,0.697,0.495h0.038l0.011-0.001
	c0.4-0.057,0.606-0.301,0.707-0.495c0.139-0.265,0.182-0.615,0.125-1.011c-0.078-0.539-0.25-0.978-0.554-1.381
	c0.062-0.053,0.125-0.103,0.19-0.145c0.825-0.521,1.583-0.954,2.507-0.954c0.008,0,0.015,0,0.021,0
	c1.197,0.011,2.289,0.759,3.105,1.409c0.439,0.35,0.861,0.661,1.271,0.932c-0.014,0.03-0.023,0.061-0.039,0.088
	c-0.336,0.709-1.445,0.985-2.115,0.914c-1.254-0.138-2.237-0.937-3.033-1.699c-0.094-0.09-0.223-0.055-0.287,0.082
	c-0.063,0.136-0.039,0.317,0.057,0.408c0.842,0.807,1.883,1.65,3.233,1.797c0.711,0.08,2.019-0.172,2.489-1.17
	c0.027-0.054,0.052-0.113,0.074-0.179c1.287,0.796,2.471,1.206,3.74,1.322c1.197,0.108,3.487-0.224,3.867-2.222h90.079
	c-0.021,0.386-0.101,0.797-0.274,1.211L216,3.778z M121.1,2.317c0.785-0.063,1.41,0.157,1.68,0.582
	c0.101,0.159,0.148,0.354,0.156,0.586h-4.25C119.436,2.85,120.15,2.388,121.1,2.317z M93.018,2.897
	c0.268-0.424,0.896-0.642,1.678-0.582c0.949,0.072,1.664,0.534,2.414,1.168h-4.25C92.866,3.251,92.917,3.057,93.018,2.897z
	 M96.344,5.706c-0.842,0.076-2.986-0.084-3.41-1.633h7.104c-0.015,0.111-0.022,0.219-0.022,0.314
	C98.745,5.181,97.588,5.588,96.344,5.706z M100.457,4.098c0.001-0.009,0.005-0.018,0.007-0.023h0.029
	C100.48,4.083,100.469,4.09,100.457,4.098z M108.359,4.989c0.033,0.228,0.016,0.408-0.051,0.537
	c-0.095,0.184-0.278,0.243-0.403,0.262c-0.183-0.025-0.31-0.109-0.378-0.248c-0.071-0.147-0.083-0.375-0.034-0.645
	c0.071-0.392,0.211-0.744,0.396-1.029C108.154,4.202,108.296,4.549,108.359,4.989z M110.934,1.799
	c-1.013,0.001-1.822,0.45-2.699,1.003c-0.127,0.081-0.247,0.181-0.359,0.297c-0.014-0.015-0.029-0.028-0.044-0.044
	c-0.394-0.381-0.868-0.622-1.25-0.815c-0.585-0.299-1.174-0.436-1.716-0.443c-1.291,0.01-2.443,0.798-3.305,1.482
	c-0.28,0.224-0.551,0.424-0.817,0.612V3.483h-0.077c0.713-1.56,2.361-2.149,3.746-2.488c1.104-0.27,2.252-0.404,3.436-0.404
	c0.65,0,1.312,0.042,1.979,0.123c0.541,0.066,1.064,0.161,1.561,0.282c1.479,0.36,3.25,1.007,3.873,2.806v0.239
	c-0.33-0.227-0.669-0.479-1.021-0.76C113.376,2.596,112.223,1.809,110.934,1.799z M115.303,4.073h0.029
	c0.002,0.01,0.006,0.019,0.008,0.024C115.327,4.09,115.316,4.083,115.303,4.073z M119.451,5.706c-1.243-0.118-2.4-0.525-3.672-1.317
	c0.002-0.097-0.008-0.203-0.022-0.313h7.106C122.438,5.622,120.295,5.782,119.451,5.706z"/>
</svg>
