<?xml version="1.0" encoding="utf-8"?>
<!-- Generator: Adobe Illustrator 14.0.0, SVG Export Plug-In . SVG Version: 6.00 Build 43363)  -->
<!DOCTYPE svg PUBLIC "-//W3C//DTD SVG 1.1//EN" "http://www.w3.org/Graphics/SVG/1.1/DTD/svg11.dtd">
<svg version="1.1" id="Layer_1" xmlns="http://www.w3.org/2000/svg" xmlns:xlink="http://www.w3.org/1999/xlink" x="0px" y="0px"
	 width="138.738px" height="44.629px" viewBox="0 0 138.738 44.629" style="enable-background:new 0 0 138.738 44.629;"
	 xml:space="preserve">
<style type="text/css">
<![CDATA[
	.st0{fill:#361313; fill-opacity: 1; stroke-opacity: 1;}
]]>
</style>
<g>
	<polygon class="st0" points="4.659,4.502 14.961,22.354 4.659,40.204 127.228,40.204 137.527,22.354 127.228,4.502 	"/>
	<polygon class="st0" points="131.457,1.533 127.625,0 107.312,0.766 93.718,1.354 94.333,1.143 79.57,0.015 62.619,1.895 
		73.984,2.208 71.861,2.3 77.322,2.3 89.958,2.646 90.97,2.3 103.095,2.3 115.744,2.3 128.775,2.3 138.738,16.863 138.738,14.563 	
		"/>
	<polygon class="st0" points="14.563,42.158 2.682,41.392 7.28,30.277 0.383,41.008 0,43.309 21.078,43.691 26.828,41.392 	"/>
	<polygon class="st0" points="25.292,44.629 34.296,43.598 31.103,41.969 	"/>
</g>
</svg>
