<?xml version="1.0" encoding="utf-8"?>
<!-- Generator: Adobe Illustrator 14.0.0, SVG Export Plug-In . SVG Version: 6.00 Build 43363)  -->
<!DOCTYPE svg PUBLIC "-//W3C//DTD SVG 1.1//EN" "http://www.w3.org/Graphics/SVG/1.1/DTD/svg11.dtd">
<svg version="1.1" id="Layer_1" xmlns="http://www.w3.org/2000/svg" xmlns:xlink="http://www.w3.org/1999/xlink" x="0px" y="0px"
	 width="171.001px" height="7.793px" viewBox="0 0 171.001 7.793" style="enable-background:new 0 0 171.001 7.793;"
	 xml:space="preserve">
<style type="text/css">
<![CDATA[
	.st0{fill:#361313; fill-opacity: 1; stroke-opacity: 1;}
]]>
</style>
<g>
	<path class="st0" d="M87.38,7.199c0.872,0.55,1.906,0.726,2.911,0.497c1.96-0.444,3.853-2.465,5.346-4.087
		C95.748,3.489,96,3.371,96,3.255v4c0,0.237,0.146,0.435,0.385,0.451c0.237,0.019,0.428-0.151,0.462-0.388
		c0.234-1.64,1.954-2.928,2.396-3.233l69.829-0.006c0.652,0,1.202-0.333,1.548-0.938c0.512-0.889,0.617-2.375-0.367-2.952
		c-0.692-0.404-1.412-0.164-1.235,0.751c0.122,0.632,0.74,0.771,0.748,1.516l-0.07,0.427c-0.168,0.191-0.377,0.29-0.627,0.29
		L99.096,3.18c-0.085,0-0.084,0.023-0.157,0.069C98.871,3.292,98,4,97,5.136V2.124c0-0.184-0.194-0.35-0.363-0.419
		c-0.17-0.07-0.406-0.031-0.535,0.099c-0.35,0.35-0.747,0.759-1.146,1.192c-1.408,1.53-3.17,3.435-4.854,3.817
		c-1.586,0.361-3.178-0.637-3.539-2.224c-0.135-0.592-0.033-1.201,0.29-1.714c0.323-0.515,0.826-0.87,1.418-1.005
		c0.93-0.21,1.854,0.373,2.065,1.301c0.157,0.693-0.278,1.387-0.974,1.545c-0.244,0.056-0.497,0.013-0.71-0.122
		c-0.213-0.134-0.361-0.343-0.417-0.588c-0.056-0.243-0.296-0.396-0.542-0.341c-0.244,0.056-0.397,0.298-0.341,0.542
		c0.108,0.48,0.399,0.891,0.816,1.153c0.418,0.264,0.915,0.348,1.395,0.238c1.181-0.269,1.924-1.448,1.654-2.629
		c-0.277-1.22-1.365-2.049-2.566-2.049c-0.192,0-0.389,0.021-0.583,0.065c-0.827,0.188-1.532,0.688-1.984,1.405
		c-0.453,0.718-0.598,1.569-0.41,2.397C85.901,5.794,86.508,6.65,87.38,7.199z"/>
	<path class="st0" d="M0.381,3.142c0.347,0.604,0.897,0.937,1.55,0.937l69.835,0.007c0.443,0.306,2.173,1.594,2.406,3.233
		c0.034,0.236,0.205,0.406,0.442,0.388C74.853,7.69,75,7.492,75,7.255v-4c0,0.114,0.252,0.233,0.363,0.354
		c1.492,1.622,3.367,3.643,5.327,4.088c1.005,0.228,2.048,0.052,2.919-0.498c0.873-0.549,1.484-1.404,1.713-2.409
		c0.188-0.828,0.044-1.68-0.407-2.397c-0.452-0.718-1.156-1.217-1.983-1.405c-0.196-0.044-0.391-0.065-0.583-0.065
		c-1.201,0-2.288,0.829-2.565,2.049c-0.27,1.181,0.474,2.36,1.654,2.629c0.479,0.109,0.975,0.025,1.393-0.238
		c0.419-0.263,0.709-0.673,0.82-1.153c0.053-0.244-0.099-0.486-0.343-0.542c-0.245-0.055-0.487,0.098-0.542,0.341
		c-0.056,0.245-0.203,0.454-0.417,0.588c-0.213,0.135-0.466,0.178-0.71,0.122c-0.695-0.158-1.131-0.852-0.973-1.545
		c0.211-0.929,1.136-1.512,2.066-1.302c0.59,0.136,1.094,0.491,1.418,1.006c0.323,0.513,0.428,1.122,0.293,1.714
		c-0.36,1.587-1.947,2.585-3.533,2.224c-1.686-0.383-3.437-2.287-4.844-3.818c-0.398-0.433-0.775-0.842-1.125-1.191
		c-0.129-0.13-0.408-0.169-0.578-0.1C74.193,1.774,74,1.94,74,2.124v3.013C73,4,72.129,3.292,72.06,3.25
		c-0.072-0.047-0.114-0.069-0.198-0.069L1.91,3.173c-0.248,0-0.447-0.099-0.615-0.29L1.229,2.457
		c0.008-0.744,0.628-0.884,0.75-1.516c0.178-0.915-0.54-1.156-1.232-0.751C-0.236,0.767-0.129,2.253,0.381,3.142z"/>
</g>
</svg>
