<?xml version="1.0" encoding="utf-8"?>
<!-- Generator: Adobe Illustrator 14.0.0, SVG Export Plug-In . SVG Version: 6.00 Build 43363)  -->
<!DOCTYPE svg PUBLIC "-//W3C//DTD SVG 1.1//EN" "http://www.w3.org/Graphics/SVG/1.1/DTD/svg11.dtd">
<svg version="1.1" id="Layer_1" xmlns="http://www.w3.org/2000/svg" xmlns:xlink="http://www.w3.org/1999/xlink" x="0px" y="0px"
	 width="154.425px" height="26.34px" viewBox="0 0 154.425 26.34" style="enable-background:new 0 0 154.425 26.34;"
	 xml:space="preserve">
<style type="text/css">
<![CDATA[
	.st0{fill:none;stroke:#361313; fill-opacity: 1; stroke-opacity: 1;stroke-miterlimit:10;}
	.st1{fill:#240101; fill-opacity: 1; stroke-opacity: 1;}
]]>
</style>
<polygon class="st1" points="154.425,4.412 21.056,4.412 0,4.412 7.125,13.426 0.405,21.929 154.021,21.929 147.301,13.426 "/>
<line class="st0" x1="1.072" y1="1.128" x2="153.354" y2="1.128"/>
<path class="st1" d="M1.128,2.256C0.505,2.256,0,1.751,0,1.128S0.505,0,1.128,0s1.128,0.505,1.128,1.128S1.751,2.256,1.128,2.256"/>
<path class="st1" d="M153.297,2.256c0.623,0,1.128-0.505,1.128-1.128S153.92,0,153.297,0s-1.128,0.505-1.128,1.128
	S152.674,2.256,153.297,2.256"/>
<line class="st0" x1="1.072" y1="25.212" x2="153.354" y2="25.212"/>
<path class="st1" d="M1.128,26.34C0.505,26.34,0,25.835,0,25.212s0.505-1.128,1.128-1.128s1.128,0.505,1.128,1.128
	S1.751,26.34,1.128,26.34"/>
<path class="st1" d="M153.297,26.34c0.623,0,1.128-0.505,1.128-1.128s-0.505-1.128-1.128-1.128s-1.128,0.505-1.128,1.128
	S152.674,26.34,153.297,26.34"/>
</svg>
